<?xml version="1.0" standalone="no"?>
<!DOCTYPE svg PUBLIC "-//W3C//DTD SVG 1.1//EN" "http://www.w3.org/Graphics/SVG/1.1/DTD/svg11.dtd" >
<svg xmlns="http://www.w3.org/2000/svg" xmlns:xlink="http://www.w3.org/1999/xlink" version="1.1">
<metadata>
Created by FontForge 20201107 at Mon Feb  6 14:54:41 2023
 By 
Copyright (c) 2020-2021 by TypeType. All rights reserved. Special version for DaFont.
</metadata>
<defs>
<font id="TTRunsTrial-ExtraLightItalic" horiz-adv-x="743" >
  <font-face 
    font-family="TT Runs Trial ExtraLight"
    font-weight="200"
    font-style="italic"
    font-stretch="normal"
    units-per-em="1000"
    panose-1="2 0 0 0 0 0 0 0 6 7"
    ascent="800"
    descent="-200"
    x-height="529"
    cap-height="700"
    bbox="-378 -290 2234 937"
    underline-thickness="50"
    underline-position="-185"
    slope="-11"
    unicode-range="U+000D-FB03"
  />
<missing-glyph horiz-adv-x="900" 
d="M170 0v284h45v-139h33v139h50v31h-128v126l19 -61h23l34 106l33 -106h23l54 170h-32l-34 -110l-35 110h-19l-35 -110l-31 103v157h700v-150h-110v-170h110v-91q-6 13 -19.5 20t-30.5 7q-27 0 -43.5 -14.5t-16.5 -34.5q0 -22 14.5 -32.5t39.5 -17.5q17 -5 25.5 -9.5
t8.5 -13.5q0 -21 -28 -21q-14 0 -21 7t-7 18h-33q0 -24 17 -39.5t44 -15.5q17 0 30.5 6.5t19.5 13.5v-163h-700zM381 380h33v62h24l35 -62h37l-40 67q36 17 36 50q0 22 -16 37.5t-41 15.5h-68v-170zM539 550v-170h33v170h-33zM650 519v-139h32v139h50v31h-132v-31h50z
M414 473v46h35q10 0 17 -6.5t7 -16.5q0 -12 -7.5 -17.5t-16.5 -5.5h-35zM870 483h-78v36h78v-36zM870 411h-78v41h78v-41zM457.5 167.5q22.5 24.5 22.5 61.5t-23 62t-59 25t-59 -25t-23 -62t22.5 -61.5t59.5 -24.5t59.5 24.5zM703 162q19 19 19 47v106h-32v-106
q0 -15 -9.5 -25t-25.5 -10q-17 0 -26.5 10.5t-9.5 24.5v106h-32v-106q0 -28 19.5 -47t48.5 -19t48 19zM870 224q-15 14 -46 22q-16 5 -23 9t-7 12q0 9 7.5 14.5t18.5 5.5q10 0 18 -7t8 -18h24v-38zM361.5 190q-14.5 16 -14.5 39q0 25 14 40.5t37 15.5q24 0 37.5 -15.5
t13.5 -40.5q0 -23 -14.5 -39t-36.5 -16t-36.5 16z" />
    <glyph glyph-name="ff" unicode="ff" horiz-adv-x="602" 
d="M100 0l97 500h-110l6 30h110l12 62q26 138 148 138q40 0 80 -13l-6 -30q-38 13 -76 13q-94 0 -116 -109l-12 -61h278l12 62q26 138 148 138q40 0 80 -13l-6 -30q-38 13 -76 13q-94 0 -116 -109l-12 -61h163l-6 -30h-163l-97 -500h-30l97 500h-278l-97 -500h-30z" />
    <glyph glyph-name="fi" unicode="fi" horiz-adv-x="534" 
d="M100 0l97 500h-110l6 30h110l8 42q16 82 67.5 120t146.5 38q63 0 152 -19l-6 -30q-46 10 -79 14.5t-68 4.5q-85 0 -127 -30.5t-56 -98.5l-8 -41h309l-103 -530h-30l97 500h-279l-97 -500h-30z" />
    <glyph glyph-name="ffi" unicode="ffi" horiz-adv-x="843" 
d="M100 0l97 500h-110l6 30h110l12 62q26 138 148 138q40 0 80 -13l-6 -30q-38 13 -76 13q-94 0 -116 -109l-12 -61h279l8 42q16 82 67.5 120t146.5 38q63 0 152 -19l-6 -30q-46 10 -79 14.5t-68 4.5q-85 0 -127 -30.5t-56 -98.5l-8 -41h309l-103 -530h-30l97 500h-279
l-97 -500h-30l97 500h-279l-97 -500h-30z" />
    <glyph glyph-name="f_f_j" unicode="ffj" horiz-adv-x="843" 
d="M514 -186l6 29q37 -14 74 -14q49 0 76.5 29.5t38.5 87.5l107 554h-281l-97 -500h-30l97 500h-278l-97 -500h-30l97 500h-110l6 30h110l12 62q26 138 148 138q40 0 80 -13l-6 -30q-38 13 -76 13q-94 0 -116 -109l-12 -61h278l8 42q16 82 67.5 120t146.5 38q63 0 152 -19
l-6 -30q-46 10 -79 14.5t-68 4.5q-85 0 -127 -30.5t-56 -98.5l-8 -41h311l-114 -586q-14 -72 -48 -108t-97 -36q-40 0 -79 14z" />
    <glyph glyph-name="f_j" unicode="fj" horiz-adv-x="533" 
d="M204 -186l6 29q37 -14 74 -14q49 0 76.5 29.5t38.5 87.5l107 554h-279l-97 -500h-30l97 500h-110l6 30h110l8 42q16 82 67.5 120t146.5 38q63 0 152 -19l-6 -30q-46 10 -79 14.5t-68 4.5q-85 0 -127 -30.5t-56 -98.5l-8 -41h309l-114 -586q-14 -72 -48 -108t-97 -36
q-40 0 -79 14z" />
    <glyph glyph-name="f_t" unicode="ft" horiz-adv-x="647" 
d="M464.5 19q-32.5 29 -32.5 83q0 21 6 55l67 343h-278l-97 -500h-30l97 500h-110l6 30h110l12 62q26 138 148 138q40 0 80 -13l-6 -30q-38 13 -76 13q-94 0 -116 -109l-12 -61h245q18 0 26.5 9t13.5 31l20 100h30l-27 -140h174l-6 -30h-174l-67 -343q-6 -34 -6 -53
q0 -42 23.5 -63t64.5 -21q42 0 69 11l-6 -30q-30 -11 -65 -11q-51 0 -83.5 29z" />
    <glyph glyph-name=".notdef" horiz-adv-x="900" 
d="M170 0v284h45v-139h33v139h50v31h-128v126l19 -61h23l34 106l33 -106h23l54 170h-32l-34 -110l-35 110h-19l-35 -110l-31 103v157h700v-150h-110v-170h110v-91q-6 13 -19.5 20t-30.5 7q-27 0 -43.5 -14.5t-16.5 -34.5q0 -22 14.5 -32.5t39.5 -17.5q17 -5 25.5 -9.5
t8.5 -13.5q0 -21 -28 -21q-14 0 -21 7t-7 18h-33q0 -24 17 -39.5t44 -15.5q17 0 30.5 6.5t19.5 13.5v-163h-700zM381 380h33v62h24l35 -62h37l-40 67q36 17 36 50q0 22 -16 37.5t-41 15.5h-68v-170zM539 550v-170h33v170h-33zM650 519v-139h32v139h50v31h-132v-31h50z
M414 473v46h35q10 0 17 -6.5t7 -16.5q0 -12 -7.5 -17.5t-16.5 -5.5h-35zM870 483h-78v36h78v-36zM870 411h-78v41h78v-41zM457.5 167.5q22.5 24.5 22.5 61.5t-23 62t-59 25t-59 -25t-23 -62t22.5 -61.5t59.5 -24.5t59.5 24.5zM703 162q19 19 19 47v106h-32v-106
q0 -15 -9.5 -25t-25.5 -10q-17 0 -26.5 10.5t-9.5 24.5v106h-32v-106q0 -28 19.5 -47t48.5 -19t48 19zM870 224q-15 14 -46 22q-16 5 -23 9t-7 12q0 9 7.5 14.5t18.5 5.5q10 0 18 -7t8 -18h24v-38zM361.5 190q-14.5 16 -14.5 39q0 25 14 40.5t37 15.5q24 0 37.5 -15.5
t13.5 -40.5q0 -23 -14.5 -39t-36.5 -16t-36.5 16z" />
    <glyph glyph-name=".null" horiz-adv-x="0" 
 />
    <glyph glyph-name="nonmarkingreturn" unicode="&#xd;" horiz-adv-x="0" 
 />
    <glyph glyph-name="space" unicode=" " horiz-adv-x="310" 
 />
    <glyph glyph-name="exclam" unicode="!" horiz-adv-x="240" 
d="M161 174h-16l21 140l78 406h30l-78 -406zM102.5 3q-8.5 8 -8.5 20q0 13 11 22.5t27 9.5q15 0 23.5 -8t8.5 -20q0 -13 -11 -22.5t-27 -9.5q-15 0 -23.5 8z" />
    <glyph glyph-name="quotedbl" unicode="&#x22;" horiz-adv-x="290" 
d="M189 460h-30l50 260h30zM309 460h-30l50 260h30z" />
    <glyph glyph-name="numbersign" unicode="#" horiz-adv-x="708" 
d="M771 509l-5 -30h-119l-104 -248h138l-5 -30h-145l-84 -201h-30l84 201h-282l-84 -201h-30l84 201h-115l5 30h122l103 248h-140l5 30h148l79 191h30l-79 -191h282l80 191h30l-80 -191h112zM231 231h282l104 248h-283z" />
    <glyph glyph-name="dollar" unicode="$" horiz-adv-x="748" 
d="M302 659q-56 -21 -82 -55.5t-26 -73.5q0 -43 32.5 -72.5t80.5 -48t129 -42.5q90 -26 144 -48t92 -58.5t38 -91.5q0 -48 -29 -88.5t-88 -65.5t-144 -25q-31 0 -59 3l-22 -113h-30l23 116q-75 10 -140.5 35t-102.5 52l7 34q43 -37 132 -67t192 -30q78 0 129.5 21t76 54.5
t24.5 73.5q0 45 -33 76t-82 49.5t-132 42.5q-88 25 -141.5 46.5t-90.5 57t-37 89.5q0 47 31 88t95.5 66.5t159.5 25.5q18 0 50 -2l22 112h30l-22 -114q84 -10 152.5 -35.5t107.5 -54.5l-7 -35q-46 38 -136 68.5t-203 30.5q-85 0 -141 -21z" />
    <glyph glyph-name="percent" unicode="%" horiz-adv-x="827" 
d="M194 444.5q-41 38.5 -41 97.5q0 47 22.5 85.5t61 60.5t84.5 22q67 0 108 -38.5t41 -97.5q0 -47 -22.5 -85.5t-61 -60.5t-84.5 -22q-67 0 -108 38.5zM213 0h-35l562 700h35zM373.5 452.5q31.5 18.5 50 50.5t18.5 71q0 46 -33.5 77t-88.5 31q-39 0 -70.5 -18.5t-50 -50.5
t-18.5 -71q0 -46 33.5 -77t88.5 -31q39 0 70.5 18.5zM524 28.5q-41 38.5 -41 97.5q0 47 22.5 85.5t61 60.5t84.5 22q67 0 108 -38.5t41 -97.5q0 -47 -22.5 -85.5t-61 -60.5t-84.5 -22q-67 0 -108 38.5zM703.5 36.5q31.5 18.5 50 50.5t18.5 71q0 46 -33.5 77t-88.5 31
q-39 0 -70.5 -18.5t-50 -50.5t-18.5 -71q0 -46 33.5 -77t88.5 -31q39 0 70.5 18.5z" />
    <glyph glyph-name="ampersand" unicode="&#x26;" horiz-adv-x="731" 
d="M778 360q-33 -48 -84.5 -108.5t-110.5 -111.5l153 -140h-44l-133 122q-160 -132 -313 -132q-80 0 -125.5 37t-45.5 93q0 58 36.5 104t91.5 76t113 44q-65 59 -97.5 105t-32.5 96q0 43 25.5 81t78 61t127.5 23q81 0 152.5 -24t113.5 -54l-7 -35q-39 32 -110 57.5
t-154 25.5q-66 0 -109.5 -18.5t-64.5 -49t-21 -65.5q0 -34 19 -67t48 -63.5t81 -77.5l197 -180q92 81 179 201h37zM538 141l-197 180q-57 -12 -111 -39t-89.5 -68t-35.5 -92q0 -44 37 -73.5t105 -29.5q142 0 291 122z" />
    <glyph glyph-name="quotesingle" unicode="'" horiz-adv-x="170" 
d="M189 460h-30l50 260h30z" />
    <glyph glyph-name="parenleft" unicode="(" horiz-adv-x="275" 
d="M170 -190q-38 0 -59.5 20.5t-21.5 53.5q0 12 3 27l153 785q8 41 32.5 62.5t62.5 21.5h71l-6 -30h-65q-27 0 -43.5 -15t-21.5 -43l-153 -782q-2 -12 -2 -19q0 -23 15 -37t41 -14h52l-5 -30h-53z" />
    <glyph glyph-name="parenright" unicode=")" horiz-adv-x="275" 
d="M-23 -190l6 30h65q27 0 43.5 15t21.5 43l153 782q2 12 2 19q0 23 -15 37t-41 14h-52l5 30h53q38 0 59.5 -20.5t21.5 -53.5q0 -12 -3 -27l-153 -785q-8 -41 -32.5 -62.5t-62.5 -21.5h-71z" />
    <glyph glyph-name="asterisk" unicode="*" horiz-adv-x="382" 
d="M291 561l-97 -117l-21 18l94 113l-142 58l12 25l141 -58v150h26v-150l141 58l12 -25l-142 -58l94 -113l-21 -18z" />
    <glyph glyph-name="plus" unicode="+" horiz-adv-x="604" 
d="M382 74h-30v221h-227v30h227v221h30v-221h227v-30h-227v-221z" />
    <glyph glyph-name="comma" unicode="," horiz-adv-x="172" 
d="M2 -179l4 25h9q42 0 71 36t29 94q0 25 -12 37q-11 -18 -32 -18q-15 0 -23.5 7.5t-8.5 19.5q0 14 11 23.5t28 9.5q26 0 44 -21t18 -57q0 -46 -17.5 -81.5t-47 -55t-62.5 -19.5h-11z" />
    <glyph glyph-name="hyphen" unicode="-" horiz-adv-x="492" 
d="M501 304h-382l5 30h382z" />
    <glyph glyph-name="period" unicode="." horiz-adv-x="130" 
d="M47.5 3q-8.5 8 -8.5 20q0 13 11 22.5t27 9.5q15 0 23.5 -8t8.5 -20q0 -13 -11 -22.5t-27 -9.5q-15 0 -23.5 8z" />
    <glyph glyph-name="slash" unicode="/" horiz-adv-x="431" 
d="M19 -70h-32l562 840h33z" />
    <glyph glyph-name="zero" unicode="0" horiz-adv-x="922" 
d="M313.5 33q-83.5 43 -128 117t-44.5 165q0 110 55 200.5t148.5 142.5t205.5 52q111 0 194.5 -43t128 -117t44.5 -165q0 -110 -55 -200.5t-148.5 -142.5t-205.5 -52q-111 0 -194.5 43zM699.5 67.5q86.5 47.5 136.5 131t50 186.5q0 83 -41 150t-117 106t-178 39
q-105 0 -191.5 -47.5t-136.5 -131t-50 -186.5q0 -83 41 -150t117 -106t178 -39q105 0 191.5 47.5z" />
    <glyph glyph-name="one" unicode="1" horiz-adv-x="450" 
d="M45 0l5 30h186l111 567h-181l5 30h140q23 0 34.5 9.5t15.5 32.5l6 31h30l-131 -670h164l-5 -30h-380z" />
    <glyph glyph-name="two" unicode="2" horiz-adv-x="692" 
d="M60 0l5 30l293 160q128 70 196 119.5t96 94.5t28 101q0 49 -29 88.5t-87.5 63t-143.5 23.5q-72 0 -140.5 -19.5t-108.5 -43.5l6 35q36 22 103 40t140 18q141 0 215.5 -57t74.5 -153q0 -57 -26.5 -104.5t-92 -98.5t-184.5 -115l-271 -147l-1 -5h484l-5 -30h-552z" />
    <glyph glyph-name="three" unicode="3" horiz-adv-x="697" 
d="M197 18.5q-83 28.5 -128 62.5l7 35q42 -36 123.5 -66t180.5 -30q81 0 139.5 25t88.5 64t30 81q0 48 -32.5 87.5t-95.5 63t-150 23.5q-38 0 -71.5 -4.5t-52.5 -9.5l5 24l424 290l1 6h-476l6 30h542l-5 -22l-408 -279l-2 -5h30q103 0 174 -28.5t106 -74.5t35 -97
q0 -53 -33.5 -100t-99.5 -75.5t-158 -28.5q-97 0 -180 28.5z" />
    <glyph glyph-name="four" unicode="4" horiz-adv-x="650" 
d="M515 0h-30l40 207h-460l6 30l496 463h42l-491 -458l-1 -5h414l50 258h30l-50 -258h145l-6 -30h-145z" />
    <glyph glyph-name="five" unicode="5" horiz-adv-x="692" 
d="M212.5 19q-82.5 29 -130.5 65l7 35q45 -38 126 -68.5t177 -30.5q81 0 139.5 25t88.5 64t30 82t-30 82.5t-94 65t-160 25.5q-54 0 -99.5 -12t-68.5 -26h-31l101 374h460l-6 -30h-433l-83 -308h4q25 13 65 22.5t91 9.5q102 0 173 -28t106 -73.5t35 -97.5q0 -54 -33 -100.5
t-98.5 -75.5t-159.5 -29t-176.5 29z" />
    <glyph glyph-name="six" unicode="6" horiz-adv-x="703" 
d="M233 20q-74 30 -109 77t-35 99q0 44 20.5 77.5t62.5 72.5l375 354h39l-341 -322l2 -4q67 23 138 23q107 0 180 -29.5t108.5 -76.5t35.5 -98q0 -52 -34 -98.5t-99.5 -75.5t-156.5 -29q-112 0 -186 30zM560 44.5q59 24.5 89 64t30 83.5q0 43 -32.5 83t-99.5 66t-167 26
q-83 0 -142 -24.5t-89 -63.5t-30 -83q0 -42 31 -82t98.5 -67t170.5 -27q82 0 141 24.5z" />
    <glyph glyph-name="seven" unicode="7" horiz-adv-x="596" 
d="M182 0h-37l500 665l1 5h-506l6 30h546l-6 -29z" />
    <glyph glyph-name="eight" unicode="8" horiz-adv-x="802" 
d="M270.5 17q-78.5 27 -113 68t-34.5 85q0 67 57.5 114.5t159.5 54.5v5q-79 22 -125 68.5t-46 103.5q0 52 32.5 96.5t99 71t162.5 26.5q125 0 207 -28.5t120 -73.5t38 -96t-29.5 -92t-83 -66.5t-121.5 -30.5l-2 -5q70 -20 109.5 -62.5t39.5 -93.5q0 -47 -29.5 -86t-90 -62.5
t-150.5 -23.5q-122 0 -200.5 27zM679 369q60 23 89 59.5t29 78.5q0 37 -28 76t-102 68t-201 29q-88 0 -148 -23t-89 -59.5t-29 -78.5q0 -37 28 -76t102 -68t201 -29q88 0 148 23zM607.5 40q53.5 20 78.5 52t25 69q0 39 -31 74t-101.5 58t-181.5 23q-81 0 -135.5 -20t-81 -52
t-26.5 -69t30 -72t101.5 -59t187.5 -24q81 0 134.5 20z" />
    <glyph glyph-name="nine" unicode="9" horiz-adv-x="742" 
d="M281 0l335 309l-2 4q-26 -7 -64.5 -12.5t-78.5 -5.5q-111 0 -189 31.5t-116 80t-38 99.5q0 52 35.5 99t105 76t165.5 29q116 0 195.5 -31t118 -80t38.5 -103q0 -38 -19 -71.5t-58 -69.5l-386 -355h-42zM631.5 349.5q61.5 24.5 93 64t31.5 82.5t-35 85.5t-108 70.5
t-179 28q-90 0 -152.5 -25t-93 -65t-30.5 -84q0 -41 35 -83t108.5 -70t181.5 -28q87 0 148.5 24.5z" />
    <glyph glyph-name="colon" unicode=":" horiz-adv-x="150" 
d="M57.5 3q-8.5 8 -8.5 20q0 13 11 22.5t27 9.5q15 0 23.5 -8t8.5 -20q0 -13 -11 -22.5t-27 -9.5q-15 0 -23.5 8zM150.5 483q-8.5 8 -8.5 20q0 13 11 22.5t27 9.5q15 0 23.5 -8t8.5 -20q0 -13 -11 -22.5t-27 -9.5q-15 0 -23.5 8z" />
    <glyph glyph-name="semicolon" unicode=";" horiz-adv-x="192" 
d="M150.5 483q-8.5 8 -8.5 20q0 13 11 22.5t27 9.5q15 0 23.5 -8t8.5 -20q0 -13 -11 -22.5t-27 -9.5q-15 0 -23.5 8zM17 -179l4 25h9q42 0 71 36t29 94q0 25 -12 37q-11 -18 -32 -18q-15 0 -23.5 7.5t-8.5 19.5q0 14 11 23.5t28 9.5q26 0 44 -21t18 -57q0 -46 -17.5 -81.5
t-47 -55t-62.5 -19.5h-11z" />
    <glyph glyph-name="less" unicode="&#x3c;" horiz-adv-x="615" 
d="M610 110v-30l-490 208v34l490 208v-30l-452 -192v-6z" />
    <glyph glyph-name="equal" unicode="=" horiz-adv-x="602" 
d="M602 405h-472v30h472v-30zM602 185h-472v30h472v-30z" />
    <glyph glyph-name="greater" unicode="&#x3e;" horiz-adv-x="615" 
d="M635 288l-490 -208v30l452 192v6l-452 192v30l490 -208v-34z" />
    <glyph glyph-name="question" unicode="?" horiz-adv-x="667" 
d="M294 174l36 184h60q92 0 158 22.5t100.5 61.5t34.5 86q0 44 -34 83.5t-107.5 64t-183.5 24.5q-72 0 -133 -13.5t-93 -29.5l6 35q32 14 92.5 26t130.5 12q119 0 198 -29t116.5 -75t37.5 -98q0 -58 -41 -103.5t-114.5 -71t-167.5 -25.5h-36l-30 -154h-30zM258.5 3
q-8.5 8 -8.5 20q0 13 11 22.5t27 9.5q15 0 23.5 -8t8.5 -20q0 -13 -11 -22.5t-27 -9.5q-15 0 -23.5 8z" />
    <glyph glyph-name="at" unicode="@" horiz-adv-x="1002" 
d="M325.5 -75q-98.5 45 -151.5 120.5t-53 164.5q0 115 56 208.5t156 147.5t228 54q131 0 229.5 -45t151.5 -120.5t53 -164.5q0 -67 -26.5 -117t-68 -76.5t-86.5 -26.5q-51 0 -82 24t-36 53h-5q-21 -29 -67.5 -53t-103.5 -24q-50 0 -89.5 21.5t-62 59t-22.5 83.5
q0 57 27 101.5t73.5 69.5t103.5 25q58 0 103.5 -26t66.5 -59l14 75h30l-41 -215q-2 -10 -2 -17q0 -37 25 -62.5t68 -25.5q36 0 71 22.5t57.5 65.5t22.5 102q0 80 -48.5 148.5t-140.5 110t-215 41.5q-119 0 -212.5 -50t-145.5 -137t-52 -193q0 -80 48.5 -148.5t140.5 -110
t215 -41.5q58 0 104 9t67 21l-8 -35q-21 -10 -65 -17.5t-98 -7.5q-131 0 -229.5 45zM626.5 128q43.5 28 64.5 63l21 111q0 5 -20 30t-57.5 46.5t-89.5 21.5q-47 0 -85.5 -21.5t-60.5 -58.5t-22 -82q0 -64 43.5 -101t109.5 -37q53 0 96.5 28z" />
    <glyph glyph-name="A" unicode="A" horiz-adv-x="760" 
d="M780 0h-30l-71 219h-477l-156 -219h-36l500 700h42zM525 671l-301 -422h445l-138 422h-6z" />
    <glyph glyph-name="B" unicode="B" horiz-adv-x="788" 
d="M756.5 401q-53.5 -51 -136.5 -59l-1 -5q47 -16 76.5 -56t29.5 -87q0 -55 -27 -99t-79.5 -69.5t-124.5 -25.5h-389l136 700h309q135 0 197.5 -50.5t62.5 -123.5q0 -74 -53.5 -125zM572 365q99 0 153.5 44t54.5 113q0 62 -55.5 105t-174.5 43h-285l-60 -305h367zM675 261.5
q-21 32.5 -65.5 53t-112.5 20.5h-297l-60 -305h352q64 0 110 21t70 57.5t24 82.5q0 38 -21 70.5z" />
    <glyph glyph-name="C" unicode="C" horiz-adv-x="857" 
d="M326.5 35q-91.5 45 -140.5 121.5t-49 168.5q0 108 55.5 196t155.5 138.5t229 50.5q103 0 190 -31t135 -69l-7 -36q-45 41 -129 73.5t-189 32.5q-121 0 -214 -47t-144.5 -128t-51.5 -180q0 -83 45.5 -152.5t130.5 -111t198 -41.5q67 0 128 15t93 33l-6 -34
q-33 -17 -92 -30.5t-123 -13.5q-123 0 -214.5 45z" />
    <glyph glyph-name="D" unicode="D" horiz-adv-x="880" 
d="M105 0l136 700h229q130 0 222.5 -43.5t139.5 -117t47 -160.5q0 -108 -52.5 -194.5t-150.5 -135.5t-229 -49h-342zM447 30q121 0 212 45t140.5 124.5t49.5 179.5q0 77 -43.5 143.5t-131 107t-214.5 40.5h-195l-125 -640h307z" />
    <glyph glyph-name="E" unicode="E" horiz-adv-x="704" 
d="M760 700l-6 -30h-489l-58 -296h449l-6 -30h-449l-61 -314h509l-5 -30h-539l136 700h519z" />
    <glyph glyph-name="F" unicode="F" horiz-adv-x="669" 
d="M760 700l-6 -30h-489l-63 -326h443l-5 -30h-444l-61 -314h-30l136 700h519z" />
    <glyph glyph-name="G" unicode="G" horiz-adv-x="900" 
d="M326.5 35q-91.5 45 -140.5 121.5t-49 168.5q0 109 56 196.5t158 138t236 50.5q110 0 198.5 -29t148.5 -70l-7 -36q-57 43 -143 74t-197 31q-125 0 -220.5 -47t-147.5 -128t-52 -180q0 -83 45.5 -152.5t130.5 -111t198 -41.5q74 0 145 15.5t112 34.5l43 219h-335l6 30h365
l-53 -271q-44 -22 -121.5 -40t-161.5 -18q-123 0 -214.5 45z" />
    <glyph glyph-name="H" unicode="H" horiz-adv-x="838" 
d="M776 374l63 326h30l-136 -700h-30l67 344h-568l-67 -344h-30l136 700h30l-63 -326h568z" />
    <glyph glyph-name="I" unicode="I" horiz-adv-x="676" 
d="M782 700l-6 -30h-293l-125 -640h293l-5 -30h-616l5 30h293l125 640h-293l6 30h616z" />
    <glyph glyph-name="J" unicode="J" horiz-adv-x="550" 
d="M34 24l6 28q81 -33 172 -33t157 43t83 129l100 509h30l-100 -512q-19 -98 -92.5 -148t-180.5 -50q-92 0 -175 34z" />
    <glyph glyph-name="K" unicode="K" horiz-adv-x="727" 
d="M135 0h-30l136 700h30l-61 -313l594 313h60l-631 -333l-1 -5l455 -362h-47l-438 347z" />
    <glyph glyph-name="L" unicode="L" horiz-adv-x="652" 
d="M647 0h-542l136 700h30l-131 -670h512z" />
    <glyph glyph-name="M" unicode="M" horiz-adv-x="1038" 
d="M1028 673l-513 -693l-245 693h-5l-130 -673h-30l136 700h51l230 -652h6l484 652h57l-136 -700h-30l130 673h-5z" />
    <glyph glyph-name="N" unicode="N" horiz-adv-x="836" 
d="M135 0h-30l136 700h50l409 -673h5l132 673h30l-136 -700h-50l-410 673h-5z" />
    <glyph glyph-name="O" unicode="O" horiz-adv-x="1012" 
d="M336 35q-98 45 -148.5 121t-50.5 169q0 108 55.5 196t155.5 138.5t229 50.5q136 0 234 -45t148.5 -121t50.5 -169q0 -108 -55.5 -196t-155.5 -138.5t-229 -50.5q-136 0 -234 45zM784 67q93 47 144.5 128t51.5 180q0 84 -47 153.5t-138 110.5t-218 41q-121 0 -214 -47
t-144.5 -128t-51.5 -180q0 -84 47 -153.5t138 -110.5t218 -41q121 0 214 47z" />
    <glyph glyph-name="P" unicode="P" horiz-adv-x="800" 
d="M569 700q138 0 203 -52.5t65 -134.5q0 -67 -30.5 -118.5t-88.5 -80.5t-139 -29h-389l-55 -285h-30l136 700h328zM579 315q107 0 167.5 53.5t60.5 140.5q0 69 -58.5 115t-182.5 46h-301l-69 -355h383z" />
    <glyph glyph-name="Q" unicode="Q" horiz-adv-x="1012" 
d="M945 164q-65 -93 -178 -138l39 -96h-33l-35 85q-80 -25 -168 -25q-136 0 -234 45t-148.5 121t-50.5 169q0 108 55.5 196t155.5 138.5t229 50.5q136 0 234 -45t148.5 -121t50.5 -169q0 -118 -65 -211zM755 54q105 43 165 128.5t60 192.5q0 84 -47 153.5t-138 110.5
t-218 41q-121 0 -214 -47t-144.5 -128t-51.5 -180q0 -84 47 -153.5t138 -110.5t218 -41q86 0 156 24l-68 166h33z" />
    <glyph glyph-name="R" unicode="R" horiz-adv-x="819" 
d="M790.5 367q-51.5 -58 -142.5 -69l-2 -6q42 -8 66 -38t24 -75q0 -22 -4 -43l-26 -136h-30l27 139q4 22 4 35q0 50 -36.5 80.5t-115.5 30.5h-365l-55 -285h-30l136 700h345q85 0 142.5 -25.5t85.5 -67.5t28 -93q0 -89 -51.5 -147zM575 315q109 0 172.5 52.5t63.5 141.5
q0 44 -25 80.5t-77 58.5t-129 22h-315l-69 -355h379z" />
    <glyph glyph-name="S" unicode="S" horiz-adv-x="748" 
d="M258 18.5q-91 28.5 -140 64.5l7 34q43 -37 132 -67t192 -30q78 0 129.5 21t76 54.5t24.5 73.5q0 45 -33 76t-82 49.5t-132 42.5q-88 25 -141.5 46.5t-90.5 57t-37 89.5q0 47 31 88t95.5 66.5t159.5 25.5q110 0 200.5 -29t139.5 -65l-7 -35q-46 38 -136 68.5t-203 30.5
q-85 0 -141 -21t-82 -55.5t-26 -73.5q0 -43 32.5 -72.5t80.5 -48t129 -42.5q90 -26 144 -48t92 -58.5t38 -91.5q0 -48 -29 -88.5t-88 -65.5t-144 -25q-100 0 -191 28.5z" />
    <glyph glyph-name="T" unicode="T" horiz-adv-x="662" 
d="M131 700h642l-6 -30h-306l-130 -670h-30l130 670h-306z" />
    <glyph glyph-name="U" unicode="U" horiz-adv-x="828" 
d="M230 56.5q-79 66.5 -79 179.5q0 26 7 66l78 398h30l-77 -395q-6 -33 -6 -62q0 -102 70.5 -162.5t204.5 -60.5q117 0 192 60.5t96 169.5l88 450h30l-89 -458q-23 -118 -106.5 -185t-210.5 -67q-149 0 -228 66.5z" />
    <glyph glyph-name="V" unicode="V" horiz-adv-x="770" 
d="M386 0h-42l-223 700h31l213 -671h4l475 671h37z" />
    <glyph glyph-name="W" unicode="W" horiz-adv-x="1185" 
d="M317 0h-48l-143 700h30l137 -671h5l385 671h45l123 -671h5l399 671h36l-415 -700h-48l-124 667h-5z" />
    <glyph glyph-name="X" unicode="X" horiz-adv-x="663" 
d="M43 0h-43l380 356l1 5l-230 339h35l213 -315h5l337 315h43l-362 -339l-1 -5l242 -356h-35l-226 332h-5z" />
    <glyph glyph-name="Y" unicode="Y" horiz-adv-x="729" 
d="M355 0h-30l31 160l-260 540h32l243 -506h5l441 506h38l-469 -540z" />
    <glyph glyph-name="Z" unicode="Z" horiz-adv-x="652" 
d="M622 0h-607l5 30l663 635l1 5h-520l6 30h568l-6 -30l-663 -635l-1 -5h559z" />
    <glyph glyph-name="bracketleft" unicode="[" horiz-adv-x="275" 
d="M223 -190h-150l188 970h150l-6 -30h-120l-177 -910h120z" />
    <glyph glyph-name="backslash" unicode="\" horiz-adv-x="431" 
d="M412 -70h-29l-237 840h29z" />
    <glyph glyph-name="bracketright" unicode="]" horiz-adv-x="275" 
d="M128 -190h-149l5 30h119l177 910h-120l6 30h150z" />
    <glyph glyph-name="asciicircum" unicode="^" horiz-adv-x="468" 
d="M139 450h-34l184 250h30l184 -250h-34l-162 220h-6z" />
    <glyph glyph-name="underscore" unicode="_" horiz-adv-x="494" 
d="M503 -156h-533l6 30h533z" />
    <glyph glyph-name="grave" unicode="`" horiz-adv-x="315" 
d="M394 596h-2l-231 80l7 36h15l221 -95z" />
    <glyph glyph-name="a" unicode="a" horiz-adv-x="676" 
d="M137.5 30q-56.5 40 -56.5 107q0 70 59.5 116t176.5 46h152q161 0 161 90q0 29 -24.5 56.5t-78.5 45.5t-138 18q-62 0 -121 -11.5t-95 -25.5l6 33q31 13 88 24t120 11q95 0 156 -21.5t89 -55t28 -71.5q0 -7 -2 -21l-72 -371h-30l19 103q-34 -43 -108 -78t-167 -35
q-106 0 -162.5 40zM468.5 59q75.5 39 114.5 87l33 166q-8 -16 -48.5 -29.5t-106.5 -13.5h-147q-104 0 -153 -35t-49 -97q0 -51 52.5 -84t140.5 -33t163.5 39z" />
    <glyph glyph-name="b" unicode="b" 
d="M301 10q-54 20 -91.5 49.5t-56.5 60.5h-4l-24 -120h-30l139 720h30l-55 -291h5q31 42 99 76.5t153 34.5q72 0 132 -29t95.5 -84.5t35.5 -131.5q0 -88 -40 -157.5t-110.5 -108.5t-159.5 -39q-64 0 -118 20zM564 55q63 35 98.5 97t35.5 140q0 64 -30.5 114t-84 77
t-122.5 27q-61 0 -114.5 -22t-91.5 -55.5t-58 -67.5l-38 -199q16 -35 51.5 -68.5t89.5 -55.5t121 -22q80 0 143 35z" />
    <glyph glyph-name="c" unicode="c" horiz-adv-x="673" 
d="M257.5 24q-69.5 34 -106 92.5t-36.5 128.5q0 82 42.5 149.5t118 106.5t169.5 39q84 0 148.5 -21.5t101.5 -47.5l-7 -33q-33 27 -96 49.5t-147 22.5q-87 0 -155.5 -35t-106.5 -95.5t-38 -134.5q0 -62 33 -113.5t96 -81.5t148 -30q50 0 98 11.5t74 25.5l-6 -33
q-24 -13 -70 -23.5t-96 -10.5q-95 0 -164.5 34z" />
    <glyph glyph-name="d" unicode="d" 
d="M248 19q-60 29 -95.5 84.5t-35.5 131.5q0 88 40 157.5t110.5 108.5t159.5 39q64 0 118 -20t91.5 -49.5t56.5 -60.5h4l60 310h30l-139 -720h-30l19 101h-5q-31 -42 -99 -76.5t-153 -34.5q-72 0 -132 29zM499.5 42q53.5 22 91.5 55.5t58 67.5l38 199q-16 35 -51.5 68.5
t-89.5 55.5t-121 22q-80 0 -143 -35t-98.5 -97t-35.5 -140q0 -64 30.5 -114t84 -77t122.5 -27q61 0 114.5 22z" />
    <glyph glyph-name="e" unicode="e" horiz-adv-x="697" 
d="M259 22.5q-71 32.5 -108 89t-37 128.5q0 86 40.5 154.5t110.5 107t154 38.5q81 0 142.5 -31t95 -86.5t33.5 -125.5q0 -28 -4 -51h-542q0 -65 33.5 -116t97.5 -80.5t154 -29.5q55 0 104 12.5t76 27.5l-6 -33q-26 -14 -73.5 -25.5t-102.5 -11.5q-97 0 -168 32.5zM659 276
l1 16q0 64 -30 113.5t-84 77t-125 27.5q-69 0 -127.5 -27.5t-97.5 -80.5t-50 -126h513z" />
    <glyph glyph-name="f" unicode="f" horiz-adv-x="294" 
d="M100 0l97 500h-110l6 30h110l12 62q26 138 148 138q40 0 80 -13l-6 -30q-38 13 -76 13q-94 0 -116 -109l-12 -61h163l-6 -30h-163l-97 -500h-30z" />
    <glyph glyph-name="g" unicode="g" 
d="M205.5 -177.5q-69.5 22.5 -105.5 50.5l7 33q30 -29 97.5 -52.5t152.5 -23.5q108 0 179 58.5t90 155.5l15 77h-5q-34 -42 -100.5 -76.5t-145.5 -34.5q-83 0 -144 32t-94 87t-33 121q0 84 40 150t110 103t156 37q65 0 120 -20t92.5 -49.5t55.5 -60.5h4l24 120h30l-95 -489
q-21 -110 -100.5 -175.5t-200.5 -65.5q-80 0 -149.5 22.5zM501 62q53 22 92 56t61 68l34 176q-16 35 -52 69t-90.5 56.5t-121.5 22.5q-79 0 -141.5 -33t-97.5 -92.5t-35 -134.5q0 -56 28.5 -104t82.5 -77t129 -29q58 0 111 22z" />
    <glyph glyph-name="h" unicode="h" horiz-adv-x="688" 
d="M95 0l139 720h30l-57 -300h5q17 28 51 55.5t82.5 46t104.5 18.5q54 0 102 -19.5t79 -62t31 -106.5q0 -25 -6 -54l-58 -298h-30l58 299q5 27 5 45q0 74 -49.5 120t-140.5 46q-55 0 -105 -24.5t-86.5 -62t-57.5 -75.5l-67 -348h-30z" />
    <glyph glyph-name="i" unicode="i" horiz-adv-x="220" 
d="M206.5 611.5q-8.5 7.5 -8.5 19.5q0 13 11 22t27 9q15 0 23.5 -7.5t8.5 -19.5q0 -13 -11 -22t-27 -9q-15 0 -23.5 7.5zM95 0l103 530h1h14h15l-103 -530h-30z" />
    <glyph glyph-name="j" unicode="j" horiz-adv-x="220" 
d="M206.5 611.5q-8.5 7.5 -8.5 19.5q0 13 11 22t27 9q15 0 23.5 -7.5t8.5 -19.5q0 -13 -11 -22t-27 -9q-15 0 -23.5 7.5zM-110 -186l6 29q37 -14 74 -14q49 0 76.5 29.5t38.5 87.5l113 584h5h11h12h2l-114 -586q-14 -72 -48 -108t-97 -36q-40 0 -79 14z" />
    <glyph glyph-name="k" unicode="k" horiz-adv-x="575" 
d="M125 0h-30l139 720h30l-81 -420l437 230h58l-468 -247l356 -283h-45l-344 272z" />
    <glyph glyph-name="l" unicode="l" horiz-adv-x="220" 
d="M125 0h-30l139 720h30z" />
    <glyph glyph-name="m" unicode="m" horiz-adv-x="1067" 
d="M95 0l103 530h30l-21 -106h5q26 44 81.5 80t124.5 36q74 0 122.5 -33t66.5 -83h5q31 44 92 80t132 36q98 0 151 -48.5t53 -132.5q0 -33 -6 -63l-57 -296h-30l59 305q5 28 5 47q0 72 -46.5 115t-131.5 43q-129 0 -218 -125q2 -18 2 -29q0 -18 -4 -44l-60 -312h-30l60 310
q4 20 4 44q0 69 -46.5 112.5t-122.5 43.5q-52 0 -97.5 -25t-78 -62.5t-49.5 -75.5l-68 -347h-30z" />
    <glyph glyph-name="n" unicode="n" horiz-adv-x="688" 
d="M95 0l103 530h30l-21 -110h5q17 28 51 55.5t82.5 46t104.5 18.5q54 0 102 -19.5t79 -62t31 -106.5q0 -25 -6 -54l-58 -298h-30l58 299q5 27 5 45q0 74 -49.5 120t-140.5 46q-55 0 -105 -24.5t-86.5 -62t-57.5 -75.5l-67 -348h-30z" />
    <glyph glyph-name="o" unicode="o" horiz-adv-x="774" 
d="M261 24q-72 34 -109 92t-37 129q0 82 42.5 149.5t118 106.5t169.5 39q99 0 171 -34t109 -92t37 -129q0 -82 -42.5 -149.5t-118 -106.5t-169.5 -39q-99 0 -171 34zM587.5 55q68.5 35 106.5 95.5t38 134.5q0 62 -34 113.5t-98.5 81.5t-154.5 30q-87 0 -155.5 -35
t-106.5 -95.5t-38 -134.5q0 -62 34 -113.5t98.5 -81.5t154.5 -30q87 0 155.5 35z" />
    <glyph glyph-name="p" unicode="p" 
d="M58 -190l140 720h30l-19 -101h5q31 42 99 76.5t153 34.5q72 0 132 -29t95.5 -84.5t35.5 -131.5q0 -88 -40 -157.5t-110.5 -108.5t-159.5 -39q-64 0 -118 20t-91.5 49.5t-56.5 60.5h-4l-61 -310h-30zM564 55q63 35 98.5 97t35.5 140q0 64 -30.5 114t-84 77t-122.5 27
q-61 0 -114.5 -22t-91.5 -55.5t-58 -67.5l-38 -199q16 -35 51.5 -68.5t89.5 -55.5t121 -22q80 0 143 35z" />
    <glyph glyph-name="q" unicode="q" horiz-adv-x="742" 
d="M581 -190l56 291h-5q-31 -42 -99 -76.5t-153 -34.5q-72 0 -132 29t-95.5 84.5t-35.5 131.5q0 88 40 157.5t110.5 108.5t159.5 39q64 0 118 -20t91.5 -49.5t56.5 -60.5h4l24 120h30l-140 -720h-30zM499.5 42q53.5 22 91.5 55.5t58 67.5l38 199q-16 35 -51.5 68.5
t-89.5 55.5t-121 22q-80 0 -143 -35t-98.5 -97t-35.5 -140q0 -64 30.5 -114t84 -77t122.5 -27q61 0 114.5 22z" />
    <glyph glyph-name="r" unicode="r" horiz-adv-x="396" 
d="M95 0l103 530h30l-23 -116h5q27 44 84.5 80t130.5 36h54l-6 -30h-48q-54 0 -102 -24.5t-82 -61.5t-49 -74l-67 -340h-30z" />
    <glyph glyph-name="s" unicode="s" horiz-adv-x="595" 
d="M207 12.5q-72 22.5 -111 52.5l6 31q37 -30 106.5 -53t159.5 -23q83 0 126 28t43 67q0 35 -26 59t-63.5 39t-103.5 36q-70 22 -113.5 40t-73 47.5t-29.5 72.5q0 55 52.5 93t161.5 38q96 0 172 -24.5t121 -55.5l-6 -32q-46 31 -122 56.5t-168 25.5q-93 0 -137 -29.5
t-44 -68.5q0 -35 26 -59t64.5 -40t103.5 -36q71 -22 114 -40t72.5 -47t29.5 -72q0 -35 -22 -64t-67 -46.5t-111 -17.5q-89 0 -161 22.5z" />
    <glyph glyph-name="t" unicode="t" horiz-adv-x="348" 
d="M165.5 19q-32.5 29 -32.5 83q0 21 6 55l67 343h-114l6 30h81q18 0 26.5 9t13.5 31l20 100h30l-27 -140h174l-6 -30h-174l-67 -343q-6 -34 -6 -53q0 -42 23.5 -63t64.5 -21q42 0 69 11l-6 -30q-30 -11 -65 -11q-51 0 -83.5 29z" />
    <glyph glyph-name="u" unicode="u" horiz-adv-x="688" 
d="M239 9.5q-48 19.5 -79 62t-31 106.5q0 26 6 54l58 298h30l-58 -299q-5 -27 -5 -45q0 -74 49.5 -120t140.5 -46q55 0 105 24.5t86.5 62t57.5 75.5l67 348h30l-103 -530h-30l21 110h-5q-17 -28 -51 -55.5t-82.5 -46t-104.5 -18.5q-54 0 -102 19.5z" />
    <glyph glyph-name="v" unicode="v" horiz-adv-x="568" 
d="M280 0h-42l-160 530h29l151 -500h6l347 500h35z" />
    <glyph glyph-name="w" unicode="w" horiz-adv-x="921" 
d="M243 0h-43l-112 530h29l106 -500h4l294 500h41l98 -500h4l302 500h33l-318 -530h-43l-99 497h-5z" />
    <glyph glyph-name="x" unicode="x" horiz-adv-x="520" 
d="M32 0h-42l294 269v3l-181 258h34l165 -237h5l259 237h42l-283 -258v-3l190 -269h-34l-174 248h-5z" />
    <glyph glyph-name="y" unicode="y" horiz-adv-x="548" 
d="M124 -190h-35l170 241l-176 479h32l163 -444h5l313 444h35z" />
    <glyph glyph-name="z" unicode="z" horiz-adv-x="533" 
d="M513 0h-498l5 29l527 467l1 4h-431l5 29h478l-5 -28l-527 -467l-1 -4h451z" />
    <glyph glyph-name="braceleft" unicode="{" horiz-adv-x="301" 
d="M197 -190q-38 0 -59.5 20.5t-21.5 53.5q0 12 3 26l58 292q2 11 2 21q0 27 -15.5 42t-41.5 15h-23l6 30h34q28 0 46.5 17t25.5 50l62 320q17 83 93 83h71l-6 -30h-64q-26 0 -43 -15t-22 -43l-63 -324q-6 -33 -24 -52t-39 -23l-1 -4q15 -6 25 -21t10 -39q0 -10 -3 -24
l-57 -295q-2 -11 -2 -20q0 -23 14 -36.5t40 -13.5h52l-5 -30h-52z" />
    <glyph glyph-name="bar" unicode="|" horiz-adv-x="270" 
d="M215 -170h-30v970h30v-970z" />
    <glyph glyph-name="braceright" unicode="}" horiz-adv-x="301" 
d="M-22 -190l6 30h64q26 0 43 15t22 43l63 324q6 33 24 52t39 23l1 4q-15 6 -25 21t-10 39q0 11 3 24l57 295q2 12 2 20q0 23 -14 36.5t-40 13.5h-52l5 30h52q38 0 59.5 -20.5t21.5 -53.5q0 -12 -3 -26l-58 -292q-2 -11 -2 -21q0 -27 15.5 -42t41.5 -15h23l-6 -30h-34
q-28 0 -46.5 -17t-25.5 -50l-62 -320q-17 -83 -93 -83h-71z" />
    <glyph glyph-name="asciitilde" unicode="~" horiz-adv-x="608" 
d="M420 251q-29 17 -66 50q-34 30 -58.5 45t-55.5 15q-41 0 -65.5 -25t-24.5 -68v-27h-30v27q0 57 32.5 90t87.5 33q39 0 68 -17t66 -50q34 -30 58.5 -45t55.5 -15q41 0 65.5 25t24.5 68v27h30v-28q0 -56 -32.5 -89t-87.5 -33q-39 0 -68 17z" />
    <glyph glyph-name="uni00A0" unicode="&#xa0;" horiz-adv-x="310" 
 />
    <glyph glyph-name="exclamdown" unicode="&#xa1;" horiz-adv-x="240" 
d="M191.5 483q-8.5 8 -8.5 20q0 13 11 22.5t27 9.5q15 0 23.5 -8t8.5 -20q0 -13 -11 -22.5t-27 -9.5q-15 0 -23.5 8zM103 -190h-30l78 404l35 142h16l-21 -142z" />
    <glyph glyph-name="cent" unicode="&#xa2;" horiz-adv-x="673" 
d="M289.5 475q-68.5 -35 -106.5 -95.5t-38 -134.5q0 -62 33 -113.5t96 -81.5t148 -30q50 0 98 11.5t74 25.5l-6 -33q-24 -13 -70 -23.5t-96 -10.5q-19 0 -28 1l-21 -106h-30l21 109q-78 10 -134 45.5t-85.5 89t-29.5 116.5q0 82 42.5 149.5t118 106.5t169.5 39q17 0 26 -1
l19 103h30l-20 -105q65 -7 114.5 -26t80.5 -40l-7 -33q-33 27 -96 49.5t-147 22.5q-87 0 -155.5 -35z" />
    <glyph glyph-name="sterling" unicode="&#xa3;" horiz-adv-x="674" 
d="M340.5 651.5q-57.5 -28.5 -87.5 -76.5t-30 -106q0 -38 13 -110h314l-6 -30h-303q14 -82 14 -119q0 -74 -30 -119t-67 -56l-1 -5h477l-5 -30h-574l6 34h13q40 0 74.5 22t55.5 62t21 92q0 37 -14 119h-88l6 30h77q-13 72 -13 111q0 66 35 121t100 87t151 32q83 0 154 -23
t109 -52l-7 -35q-33 30 -102.5 55t-155.5 25q-79 0 -136.5 -28.5z" />
    <glyph glyph-name="currency" unicode="&#xa4;" horiz-adv-x="747" 
d="M617 222l73 -72l-20 -19l-74 73q-61 -45 -156 -45q-96 0 -156 44l-75 -72l-19 19l72 72q-50 52 -50 128t51 127l-73 73l19 19l76 -73q60 44 155 44q94 0 155 -45l75 74l20 -19l-74 -73q51 -51 51 -127t-50 -128zM584 233.5q53 44.5 53 116.5t-53 116t-145 44
q-91 0 -144 -44t-53 -116t53 -116.5t144 -44.5q92 0 145 44.5z" />
    <glyph glyph-name="yen" unicode="&#xa5;" horiz-adv-x="749" 
d="M825 700h40l-442 -441h217l-6 -30h-225l-17 -88h225l-6 -30h-225l-21 -111h-30l21 111h-225l6 30h225l17 88h-225l6 30h217l-271 441h34l258 -420h5z" />
    <glyph glyph-name="brokenbar" unicode="&#xa6;" horiz-adv-x="270" 
d="M215 390h-30v410h30v-410zM215 -170h-30v410h30v-410z" />
    <glyph glyph-name="section" unicode="&#xa7;" horiz-adv-x="628" 
d="M187 -157q-70 23 -108 51l7 35q31 -30 99 -54.5t153 -24.5q63 0 107 19t66 48t22 60q0 34 -25.5 59t-63 42.5t-100.5 39.5q-70 25 -112.5 44.5t-72 50.5t-29.5 75q0 65 51 104t96 54v1q-46 23 -70 49.5t-24 62.5q0 37 26 72t80.5 57t135.5 22q82 0 154.5 -23t115.5 -51
l-7 -35q-41 31 -113 55t-155 24q-71 0 -117.5 -17.5t-68 -44.5t-21.5 -55q0 -32 25.5 -56t63 -40t101.5 -38q73 -25 117.5 -44.5t75 -51t30.5 -75.5q0 -54 -46 -97.5t-102 -64.5v-1q40 -22 62.5 -49.5t22.5 -64.5q0 -41 -26.5 -78t-78 -60t-122.5 -23q-79 0 -149 23z
M448 110q44 16 96 53t52 93q0 34 -25 58t-61 40.5t-99 39.5q-41 14 -78 29l-24 10q-60 -19 -104.5 -56.5t-44.5 -85.5q0 -39 31.5 -68t78 -49t118.5 -43q8 -3 37 -13z" />
    <glyph glyph-name="dieresis" unicode="&#xa8;" horiz-adv-x="304" 
d="M160.5 608q-8.5 8 -8.5 20q0 13 10.5 22.5t27.5 9.5q14 0 23 -8t9 -20q0 -13 -11 -22.5t-27 -9.5q-15 0 -23.5 8zM334.5 608q-8.5 8 -8.5 20q0 13 11 22.5t27 9.5q15 0 23.5 -8t8.5 -20q0 -13 -11 -22.5t-27 -9.5q-15 0 -23.5 8z" />
    <glyph glyph-name="copyright" unicode="&#xa9;" horiz-adv-x="1012" 
d="M340 29q-99 49 -152 133.5t-53 187.5t53 187.5t152 133.5t231 49t231 -49t152 -133.5t53 -187.5t-53 -187.5t-152 -133.5t-231 -49t-231 49zM785.5 55.5q92.5 45.5 142 123t49.5 171.5t-49.5 171.5t-142 123t-214.5 45.5t-214.5 -45.5t-142 -123t-49.5 -171.5
t49.5 -171.5t142 -123t214.5 -45.5t214.5 45.5zM468.5 185.5q-50.5 25.5 -78 68.5t-27.5 96t27.5 96t78 68.5t117.5 25.5q46 0 88.5 -12.5t66.5 -27.5v-33q-24 16 -66.5 29.5t-88.5 13.5q-58 0 -102 -21.5t-67.5 -58t-23.5 -80.5t23.5 -80.5t67.5 -58t102 -21.5q45 0 83 11
t57 25v-32q-18 -13 -56.5 -23.5t-83.5 -10.5q-67 0 -117.5 25.5z" />
    <glyph glyph-name="ordfeminine" unicode="&#xaa;" horiz-adv-x="420" 
d="M153.5 400q-34.5 25 -34.5 62q0 41 31 63.5t96 22.5h97q107 0 107 67q0 27 -33 44.5t-105 17.5q-41 0 -76.5 -6t-52.5 -12l6 30q17 6 50 11t70 5q88 0 128 -24t40 -64q0 -8 -2 -22l-42 -215h-28l10 50h-5q-25 -21 -67.5 -38t-87.5 -17q-67 0 -101.5 25zM352 423
q45 20 71 45l15 77q-8 -10 -35 -17.5t-69 -7.5h-93q-48 0 -71 -15.5t-23 -41.5t26.5 -43t85.5 -17q48 0 93 20z" />
    <glyph glyph-name="guillemotleft" unicode="&#xab;" horiz-adv-x="457" 
d="M237 75h-33l-110 205l190 205h41l-195 -210zM408 75h-33l-110 205l190 205h41l-195 -210z" />
    <glyph glyph-name="logicalnot" unicode="&#xac;" horiz-adv-x="602" 
d="M607 200h-30v179h-452v30h482v-209z" />
    <glyph glyph-name="uni00AD" unicode="&#xad;" horiz-adv-x="492" 
d="M501 304h-382l5 30h382z" />
    <glyph glyph-name="registered" unicode="&#xae;" horiz-adv-x="316" 
d="M152.5 505q-37.5 34 -37.5 86t37.5 86t100.5 34t100.5 -34t37.5 -86t-37.5 -86t-100.5 -34t-100.5 34zM334.5 522.5q28.5 25.5 28.5 68.5t-28.5 68.5t-81.5 25.5t-81.5 -25.5t-28.5 -68.5t28.5 -68.5t81.5 -25.5t81.5 25.5zM203 536v110h67q20 0 30.5 -8.5t10.5 -21.5
q0 -14 -7.5 -21.5t-17.5 -8.5v-3q8 -1 14 -6.5t6 -15.5v-25h-28v18q0 18 -21 18h-26v-36h-28zM266 597q17 0 17 12t-17 12h-35v-24h35z" />
    <glyph glyph-name="macron" unicode="&#xaf;" horiz-adv-x="404" 
d="M498 643h-344l6 30h344z" />
    <glyph glyph-name="degree" unicode="&#xb0;" horiz-adv-x="386" 
d="M182.5 466q-42.5 40 -42.5 102t42.5 102t110.5 40t110.5 -40t42.5 -102t-42.5 -102t-110.5 -40t-110.5 40zM383 486.5q35 32.5 35 81.5t-35 81.5t-90 32.5t-90 -32.5t-35 -81.5t35 -81.5t90 -32.5t90 32.5z" />
    <glyph glyph-name="plusminus" unicode="&#xb1;" horiz-adv-x="594" 
d="M599 50h-474v30h222v214h-222v30h222v222h30v-222h222v-30h-222v-214h222v-30z" />
    <glyph glyph-name="uni00B2" unicode="&#xb2;" horiz-adv-x="367" 
d="M127 450l6 33l145 85q59 35 89 57t41.5 40.5t11.5 41.5q0 31 -29.5 53.5t-86.5 22.5q-32 0 -66.5 -8.5t-57.5 -19.5l6 30q21 9 54.5 17t64.5 8q70 0 106.5 -28t36.5 -71q0 -28 -12 -50.5t-43.5 -47.5t-90.5 -60l-120 -70l-1 -5h213l-5 -28h-262z" />
    <glyph glyph-name="uni00B3" unicode="&#xb3;" horiz-adv-x="367" 
d="M187.5 453.5q-41.5 13.5 -63.5 29.5l6 30q22 -17 62 -31t83 -14q53 0 84 23.5t31 53.5q0 19 -14.5 37.5t-42 30t-62.5 11.5q-45 0 -63 -3l5 26l167 121l1 4h-196l5 28h252l-4 -21l-169 -122l-1 -5h8q45 0 77 -15t48.5 -39t16.5 -50q0 -45 -39 -76.5t-105 -31.5
q-45 0 -86.5 13.5z" />
    <glyph glyph-name="acute" unicode="&#xb4;" horiz-adv-x="315" 
d="M148 596h-2l-2 21l259 95h15l-7 -36z" />
    <glyph glyph-name="uni00B5" unicode="&#xb5;" horiz-adv-x="693" 
d="M58 -190l140 720h30l-58 -299q-5 -27 -5 -45q0 -74 49.5 -120t140.5 -46q55 0 105 24.5t86.5 62t57.5 75.5l67 348h30l-103 -530h-30l21 110h-5q-17 -28 -51 -55.5t-82.5 -46t-104.5 -18.5q-63 0 -117.5 29.5t-78.5 85.5h-5l-57 -295h-30z" />
    <glyph glyph-name="paragraph" unicode="&#xb6;" horiz-adv-x="677" 
d="M330 -190v470h-10q-59 0 -104 26t-70.5 73.5t-25.5 110.5t25.5 110.5t70.5 73.5t104 26h372v-30h-85v-860h-30v860h-217v-860h-30z" />
    <glyph glyph-name="periodcentered" unicode="&#xb7;" horiz-adv-x="310" 
d="M184.5 297q-8.5 8 -8.5 20q0 13 11 22.5t27 9.5q15 0 23.5 -8t8.5 -20q0 -13 -11 -22.5t-27 -9.5q-15 0 -23.5 8z" />
    <glyph glyph-name="cedilla" unicode="&#xb8;" horiz-adv-x="254" 
d="M44 -58q50 0 75.5 -22t25.5 -55q0 -41 -33.5 -65t-92.5 -24q-45 0 -82 12l5 26q35 -9 77 -9q47 0 71.5 15.5t24.5 41.5q0 22 -17 36.5t-57 14.5h-60l-9 11l41 76h34l-33 -58h30z" />
    <glyph glyph-name="uni00B9" unicode="&#xb9;" horiz-adv-x="327" 
d="M132 450l5 28h113l45 228h-113l5 28h73q23 0 33 9t15 31l5 26h28l-63 -322h101l-5 -28h-242z" />
    <glyph glyph-name="ordmasculine" unicode="&#xba;" horiz-adv-x="444" 
d="M211.5 396q-42.5 21 -65.5 56.5t-23 77.5q0 48 25.5 88t70.5 63.5t102 23.5t99.5 -21t65.5 -56.5t23 -77.5q0 -48 -25.5 -88t-70.5 -63.5t-102 -23.5t-99.5 21zM398 423q39 20 60.5 53.5t21.5 73.5q0 54 -42.5 90.5t-116.5 36.5q-48 0 -87 -20t-60.5 -53.5t-21.5 -73.5
q0 -54 42.5 -90.5t116.5 -36.5q48 0 87 20z" />
    <glyph glyph-name="guillemotright" unicode="&#xbb;" horiz-adv-x="457" 
d="M110 75h-41l195 210l-107 200h33l110 -205zM281 75h-41l195 210l-107 200h33l110 -205z" />
    <glyph glyph-name="onequarter" unicode="&#xbc;" horiz-adv-x="811" 
d="M118 350l5 28h113l45 228h-113l5 28h73q23 0 33 9t15 31l5 26h28l-63 -322h101l-5 -28h-242zM248 0h-35l523 700h35zM704 0h-28l19 97h-227l6 31l253 222h38l-251 -220l-1 -5h187l23 115h28l-23 -115h73l-5 -28h-73z" />
    <glyph glyph-name="onehalf" unicode="&#xbd;" horiz-adv-x="877" 
d="M118 350l5 28h113l45 228h-113l5 28h73q23 0 33 9t15 31l5 26h28l-63 -322h101l-5 -28h-242zM247 0h-35l523 700h35zM535 0l6 33l145 85q59 35 89 57t41.5 40.5t11.5 41.5q0 31 -29.5 53.5t-86.5 22.5q-32 0 -66.5 -8.5t-57.5 -19.5l6 30q21 9 54.5 17t64.5 8
q70 0 106.5 -28t36.5 -71q0 -28 -12 -50.5t-43.5 -47.5t-90.5 -60l-120 -70l-1 -5h213l-5 -28h-262z" />
    <glyph glyph-name="threequarters" unicode="&#xbe;" horiz-adv-x="822" 
d="M173.5 353.5q-41.5 13.5 -63.5 29.5l6 30q22 -17 62 -31t83 -14q53 0 84 23.5t31 53.5q0 19 -14.5 37.5t-42 30t-62.5 11.5q-45 0 -63 -3l5 26l167 121l1 4h-196l5 28h252l-4 -21l-169 -122l-1 -5h8q45 0 77 -15t48.5 -39t16.5 -50q0 -45 -39 -76.5t-105 -31.5
q-45 0 -86.5 13.5zM260 0h-35l523 700h35zM715 0h-28l19 97h-227l6 31l253 222h38l-251 -220l-1 -5h187l23 115h28l-23 -115h73l-5 -28h-73z" />
    <glyph glyph-name="questiondown" unicode="&#xbf;" horiz-adv-x="582" 
d="M442.5 483q-8.5 8 -8.5 20q0 13 11 22.5t27 9.5q15 0 23.5 -8t8.5 -20q0 -13 -11 -22.5t-27 -9.5q-15 0 -23.5 8zM192.5 -171q-77.5 29 -114.5 75t-37 98q0 58 41 103.5t114.5 71t167.5 25.5h36l30 154h30l-36 -184h-60q-92 0 -158 -22.5t-100.5 -61.5t-34.5 -86
q0 -45 35 -84t106 -63.5t173 -24.5q70 0 126 12.5t85 26.5l-6 -34q-29 -13 -83.5 -24t-121.5 -11q-115 0 -192.5 29z" />
    <glyph glyph-name="Agrave" unicode="&#xc0;" horiz-adv-x="760" 
d="M780 0h-30l-71 219h-477l-156 -219h-36l500 700h42zM525 671l-301 -422h445l-138 422h-6zM622 786h-2l-231 80l7 36h15l221 -95z" />
    <glyph glyph-name="Aacute" unicode="&#xc1;" horiz-adv-x="760" 
d="M780 0h-30l-71 219h-477l-156 -219h-36l500 700h42zM525 671l-301 -422h445l-138 422h-6zM473 786h-2l-2 21l259 95h15l-7 -36z" />
    <glyph glyph-name="Acircumflex" unicode="&#xc2;" horiz-adv-x="760" 
d="M780 0h-30l-71 219h-477l-156 -219h-36l500 700h42zM525 671l-301 -422h445l-138 422h-6zM399 780h-47l189 130h39l139 -130h-41l-115 107h-7z" />
    <glyph glyph-name="Atilde" unicode="&#xc3;" horiz-adv-x="760" 
d="M780 0h-30l-71 219h-477l-156 -219h-36l500 700h42zM525 671l-301 -422h445l-138 422h-6zM586.5 806q-20.5 11 -46.5 33q-21 18 -37.5 27.5t-36.5 9.5q-21 0 -36.5 -13t-19.5 -36l-5 -27h-29l6 31q7 35 29.5 54.5t54.5 19.5q27 0 47.5 -11t46.5 -33q21 -18 37.5 -27.5
t36.5 -9.5q21 0 36.5 13t19.5 36l5 27h29l-6 -31q-7 -35 -29.5 -54.5t-54.5 -19.5q-27 0 -47.5 11z" />
    <glyph glyph-name="Adieresis" unicode="&#xc4;" horiz-adv-x="760" 
d="M780 0h-30l-71 219h-477l-156 -219h-36l500 700h42zM525 671l-301 -422h445l-138 422h-6zM434.5 823q-8.5 8 -8.5 20q0 13 10.5 22.5t27.5 9.5q14 0 23 -8t9 -20q0 -13 -11 -22.5t-27 -9.5q-15 0 -23.5 8zM608.5 823q-8.5 8 -8.5 20q0 13 11 22.5t27 9.5q15 0 23.5 -8
t8.5 -20q0 -13 -11 -22.5t-27 -9.5q-15 0 -23.5 8z" />
    <glyph glyph-name="Aring" unicode="&#xc5;" horiz-adv-x="760" 
d="M780 0h-30l-71 219h-477l-156 -219h-36l500 700h42zM525 671l-301 -422h445l-138 422h-6zM459 777.5q-32 24.5 -32 62.5q0 44 32 70.5t83 26.5q54 0 86 -24.5t32 -62.5q0 -44 -32 -70.5t-83 -26.5q-54 0 -86 24.5zM609 798q24 19 24 52q0 26 -24 43.5t-67 17.5
q-40 0 -64 -19t-24 -52q0 -26 24 -43.5t67 -17.5q40 0 64 19z" />
    <glyph glyph-name="AE" unicode="&#xc6;" horiz-adv-x="1118" 
d="M1174 700l-6 -30h-473l-58 -296h433l-6 -30h-433l-61 -314h493l-5 -30h-523l42 219h-392l-149 -219h-36l476 700h698zM205 249h378l82 421h-174z" />
    <glyph glyph-name="Ccedilla" unicode="&#xc7;" horiz-adv-x="857" 
d="M363 633q-93 -47 -144.5 -128t-51.5 -180q0 -83 45.5 -152.5t130.5 -111t198 -41.5q67 0 128 15t93 33l-6 -34q-33 -17 -92 -30.5t-123 -13.5q-29 0 -56 3l-29 -51h30q50 0 75.5 -22t25.5 -55q0 -41 -33.5 -65t-92.5 -24q-45 0 -82 12l5 26q35 -9 77 -9q47 0 71.5 15.5
t24.5 41.5q0 22 -17 36.5t-57 14.5h-60l-9 11l39 73q-98 15 -169.5 62t-109 116.5t-37.5 149.5q0 108 55.5 196t155.5 138.5t229 50.5q103 0 190 -31t135 -69l-7 -36q-45 41 -129 73.5t-189 32.5q-121 0 -214 -47z" />
    <glyph glyph-name="Egrave" unicode="&#xc8;" horiz-adv-x="704" 
d="M760 700l-6 -30h-489l-58 -296h449l-6 -30h-449l-61 -314h509l-5 -30h-539l136 700h519zM622 786h-2l-231 80l7 36h15l221 -95z" />
    <glyph glyph-name="Eacute" unicode="&#xc9;" horiz-adv-x="704" 
d="M760 700l-6 -30h-489l-58 -296h449l-6 -30h-449l-61 -314h509l-5 -30h-539l136 700h519zM403 786h-2l-2 21l259 95h15l-7 -36z" />
    <glyph glyph-name="Ecircumflex" unicode="&#xca;" horiz-adv-x="704" 
d="M760 700l-6 -30h-489l-58 -296h449l-6 -30h-449l-61 -314h509l-5 -30h-539l136 700h519zM374 780h-47l189 130h39l139 -130h-41l-115 107h-7z" />
    <glyph glyph-name="Edieresis" unicode="&#xcb;" horiz-adv-x="704" 
d="M760 700l-6 -30h-489l-58 -296h449l-6 -30h-449l-61 -314h509l-5 -30h-539l136 700h519zM409.5 823q-8.5 8 -8.5 20q0 13 10.5 22.5t27.5 9.5q14 0 23 -8t9 -20q0 -13 -11 -22.5t-27 -9.5q-15 0 -23.5 8zM583.5 823q-8.5 8 -8.5 20q0 13 11 22.5t27 9.5q15 0 23.5 -8
t8.5 -20q0 -13 -11 -22.5t-27 -9.5q-15 0 -23.5 8z" />
    <glyph glyph-name="Igrave" unicode="&#xcc;" horiz-adv-x="676" 
d="M782 700l-6 -30h-293l-125 -640h293l-5 -30h-616l5 30h293l125 640h-293l6 30h616zM610 786h-2l-231 80l7 36h15l221 -95z" />
    <glyph glyph-name="Iacute" unicode="&#xcd;" horiz-adv-x="676" 
d="M782 700l-6 -30h-293l-125 -640h293l-5 -30h-616l5 30h293l125 640h-293l6 30h616zM353 786h-2l-2 21l259 95h15l-7 -36z" />
    <glyph glyph-name="Icircumflex" unicode="&#xce;" horiz-adv-x="676" 
d="M782 700l-6 -30h-293l-125 -640h293l-5 -30h-616l5 30h293l125 640h-293l6 30h616zM343 780h-47l189 130h39l139 -130h-41l-115 107h-7z" />
    <glyph glyph-name="Idieresis" unicode="&#xcf;" horiz-adv-x="676" 
d="M782 700l-6 -30h-293l-125 -640h293l-5 -30h-616l5 30h293l125 640h-293l6 30h616zM378.5 823q-8.5 8 -8.5 20q0 13 10.5 22.5t27.5 9.5q14 0 23 -8t9 -20q0 -13 -11 -22.5t-27 -9.5q-15 0 -23.5 8zM552.5 823q-8.5 8 -8.5 20q0 13 11 22.5t27 9.5q15 0 23.5 -8t8.5 -20
q0 -13 -11 -22.5t-27 -9.5q-15 0 -23.5 8z" />
    <glyph glyph-name="Eth" unicode="&#xd0;" horiz-adv-x="878" 
d="M468 700q130 0 222.5 -43.5t139.5 -117t47 -160.5q0 -108 -52.5 -194.5t-150.5 -135.5t-229 -49h-342l64 329h-84l6 30h84l66 341h229zM445 30q121 0 212 45t140.5 124.5t49.5 179.5q0 77 -43.5 143.5t-131 107t-214.5 40.5h-195l-61 -311h260l-6 -30h-260l-58 -299h307z
" />
    <glyph glyph-name="Ntilde" unicode="&#xd1;" horiz-adv-x="836" 
d="M135 0h-30l136 700h50l409 -673h5l132 673h30l-136 -700h-50l-410 673h-5zM606.5 806q-20.5 11 -46.5 33q-21 18 -37.5 27.5t-36.5 9.5q-21 0 -36.5 -13t-19.5 -36l-5 -27h-29l6 31q7 35 29.5 54.5t54.5 19.5q27 0 47.5 -11t46.5 -33q21 -18 37.5 -27.5t36.5 -9.5
q21 0 36.5 13t19.5 36l5 27h29l-6 -31q-7 -35 -29.5 -54.5t-54.5 -19.5q-27 0 -47.5 11z" />
    <glyph glyph-name="Ograve" unicode="&#xd2;" horiz-adv-x="1012" 
d="M336 35q-98 45 -148.5 121t-50.5 169q0 108 55.5 196t155.5 138.5t229 50.5q136 0 234 -45t148.5 -121t50.5 -169q0 -108 -55.5 -196t-155.5 -138.5t-229 -50.5q-136 0 -234 45zM784 67q93 47 144.5 128t51.5 180q0 84 -47 153.5t-138 110.5t-218 41q-121 0 -214 -47
t-144.5 -128t-51.5 -180q0 -84 47 -153.5t138 -110.5t218 -41q121 0 214 47zM736 786h-2l-231 80l7 36h15l221 -95z" />
    <glyph glyph-name="Oacute" unicode="&#xd3;" horiz-adv-x="1012" 
d="M336 35q-98 45 -148.5 121t-50.5 169q0 108 55.5 196t155.5 138.5t229 50.5q136 0 234 -45t148.5 -121t50.5 -169q0 -108 -55.5 -196t-155.5 -138.5t-229 -50.5q-136 0 -234 45zM784 67q93 47 144.5 128t51.5 180q0 84 -47 153.5t-138 110.5t-218 41q-121 0 -214 -47
t-144.5 -128t-51.5 -180q0 -84 47 -153.5t138 -110.5t218 -41q121 0 214 47zM479 786h-2l-2 21l259 95h15l-7 -36z" />
    <glyph glyph-name="Ocircumflex" unicode="&#xd4;" horiz-adv-x="1012" 
d="M336 35q-98 45 -148.5 121t-50.5 169q0 108 55.5 196t155.5 138.5t229 50.5q136 0 234 -45t148.5 -121t50.5 -169q0 -108 -55.5 -196t-155.5 -138.5t-229 -50.5q-136 0 -234 45zM784 67q93 47 144.5 128t51.5 180q0 84 -47 153.5t-138 110.5t-218 41q-121 0 -214 -47
t-144.5 -128t-51.5 -180q0 -84 47 -153.5t138 -110.5t218 -41q121 0 214 47zM469 780h-47l189 130h39l139 -130h-41l-115 107h-7z" />
    <glyph glyph-name="Otilde" unicode="&#xd5;" horiz-adv-x="1012" 
d="M336 35q-98 45 -148.5 121t-50.5 169q0 108 55.5 196t155.5 138.5t229 50.5q136 0 234 -45t148.5 -121t50.5 -169q0 -108 -55.5 -196t-155.5 -138.5t-229 -50.5q-136 0 -234 45zM784 67q93 47 144.5 128t51.5 180q0 84 -47 153.5t-138 110.5t-218 41q-121 0 -214 -47
t-144.5 -128t-51.5 -180q0 -84 47 -153.5t138 -110.5t218 -41q121 0 214 47zM656.5 806q-20.5 11 -46.5 33q-21 18 -37.5 27.5t-36.5 9.5q-21 0 -36.5 -13t-19.5 -36l-5 -27h-29l6 31q7 35 29.5 54.5t54.5 19.5q27 0 47.5 -11t46.5 -33q21 -18 37.5 -27.5t36.5 -9.5
q21 0 36.5 13t19.5 36l5 27h29l-6 -31q-7 -35 -29.5 -54.5t-54.5 -19.5q-27 0 -47.5 11z" />
    <glyph glyph-name="Odieresis" unicode="&#xd6;" horiz-adv-x="1012" 
d="M336 35q-98 45 -148.5 121t-50.5 169q0 108 55.5 196t155.5 138.5t229 50.5q136 0 234 -45t148.5 -121t50.5 -169q0 -108 -55.5 -196t-155.5 -138.5t-229 -50.5q-136 0 -234 45zM784 67q93 47 144.5 128t51.5 180q0 84 -47 153.5t-138 110.5t-218 41q-121 0 -214 -47
t-144.5 -128t-51.5 -180q0 -84 47 -153.5t138 -110.5t218 -41q121 0 214 47zM504.5 823q-8.5 8 -8.5 20q0 13 10.5 22.5t27.5 9.5q14 0 23 -8t9 -20q0 -13 -11 -22.5t-27 -9.5q-15 0 -23.5 8zM678.5 823q-8.5 8 -8.5 20q0 13 11 22.5t27 9.5q15 0 23.5 -8t8.5 -20
q0 -13 -11 -22.5t-27 -9.5q-15 0 -23.5 8z" />
    <glyph glyph-name="multiply" unicode="&#xd7;" horiz-adv-x="610" 
d="M370 281l-184 -184l-21 21l184 184l-184 185l21 21l184 -185l184 185l21 -21l-184 -185l184 -184l-21 -21z" />
    <glyph glyph-name="Oslash" unicode="&#xd8;" horiz-adv-x="1012" 
d="M908 604q50 -45 76 -104t26 -125q0 -108 -55.5 -196t-155.5 -138.5t-229 -50.5q-191 0 -308 88l-95 -78h-46l118 96q-50 45 -76 104t-26 125q0 108 55.5 196t155.5 138.5t229 50.5q191 0 308 -88l95 78h46zM192 211q25 -54 72 -95l596 486q-52 37 -123.5 57.5
t-159.5 20.5q-121 0 -214 -47t-144.5 -128t-51.5 -180q0 -60 25 -114zM784 67q93 47 144.5 128t51.5 180q0 60 -25 114t-72 95l-596 -486q52 -37 123.5 -57.5t159.5 -20.5q121 0 214 47z" />
    <glyph glyph-name="Ugrave" unicode="&#xd9;" horiz-adv-x="828" 
d="M230 56.5q-79 66.5 -79 179.5q0 26 7 66l78 398h30l-77 -395q-6 -33 -6 -62q0 -102 70.5 -162.5t204.5 -60.5q117 0 192 60.5t96 169.5l88 450h30l-89 -458q-23 -118 -106.5 -185t-210.5 -67q-149 0 -228 66.5zM662 786h-2l-231 80l7 36h15l221 -95z" />
    <glyph glyph-name="Uacute" unicode="&#xda;" horiz-adv-x="828" 
d="M230 56.5q-79 66.5 -79 179.5q0 26 7 66l78 398h30l-77 -395q-6 -33 -6 -62q0 -102 70.5 -162.5t204.5 -60.5q117 0 192 60.5t96 169.5l88 450h30l-89 -458q-23 -118 -106.5 -185t-210.5 -67q-149 0 -228 66.5zM433 786h-2l-2 21l259 95h15l-7 -36z" />
    <glyph glyph-name="Ucircumflex" unicode="&#xdb;" horiz-adv-x="828" 
d="M230 56.5q-79 66.5 -79 179.5q0 26 7 66l78 398h30l-77 -395q-6 -33 -6 -62q0 -102 70.5 -162.5t204.5 -60.5q117 0 192 60.5t96 169.5l88 450h30l-89 -458q-23 -118 -106.5 -185t-210.5 -67q-149 0 -228 66.5zM409 780h-47l189 130h39l139 -130h-41l-115 107h-7z" />
    <glyph glyph-name="Udieresis" unicode="&#xdc;" horiz-adv-x="828" 
d="M230 56.5q-79 66.5 -79 179.5q0 26 7 66l78 398h30l-77 -395q-6 -33 -6 -62q0 -102 70.5 -162.5t204.5 -60.5q117 0 192 60.5t96 169.5l88 450h30l-89 -458q-23 -118 -106.5 -185t-210.5 -67q-149 0 -228 66.5zM444.5 823q-8.5 8 -8.5 20q0 13 10.5 22.5t27.5 9.5
q14 0 23 -8t9 -20q0 -13 -11 -22.5t-27 -9.5q-15 0 -23.5 8zM618.5 823q-8.5 8 -8.5 20q0 13 11 22.5t27 9.5q15 0 23.5 -8t8.5 -20q0 -13 -11 -22.5t-27 -9.5q-15 0 -23.5 8z" />
    <glyph glyph-name="Yacute" unicode="&#xdd;" horiz-adv-x="729" 
d="M355 0h-30l31 160l-260 540h32l243 -506h5l441 506h38l-469 -540zM358 786h-2l-2 21l259 95h15l-7 -36z" />
    <glyph glyph-name="Thorn" unicode="&#xde;" horiz-adv-x="833" 
d="M105 0l136 700h30l-30 -152h378q69 0 120.5 -24t78.5 -63.5t27 -84.5q0 -59 -28 -105t-82 -72.5t-129 -26.5h-438l-33 -172h-30zM608 202q97 0 152.5 46.5t55.5 121.5q0 39 -23.5 72.5t-69.5 54.5t-109 21h-379l-61 -316h434z" />
    <glyph glyph-name="germandbls" unicode="&#xdf;" horiz-adv-x="736" 
d="M416 9.5q-59 19.5 -92 44.5l6 33q33 -27 92 -47t126 -20q52 0 87.5 15t52.5 39t17 50q0 35 -22 60t-54 42t-88 41q-52 22 -83.5 38.5t-53 41t-21.5 56.5q0 42 25.5 68t62.5 40t95 29q51 14 78 23.5t46 26t19 42.5q0 23 -22 40.5t-60 17.5h-265q-47 0 -72.5 -23.5
t-35.5 -75.5l-114 -591h-30l97 500h-110l6 30h110l11 63q11 65 44.5 96t91.5 31h269q50 0 80.5 -25t30.5 -57q0 -37 -23.5 -60.5t-57.5 -36.5t-90 -28q-53 -14 -83 -25.5t-51 -31t-21 -50.5q0 -25 18.5 -44.5t45.5 -33.5t76 -35q58 -23 94 -42.5t61 -50t25 -72.5
q0 -36 -21 -67.5t-64 -51t-105 -19.5q-69 0 -128 19.5z" />
    <glyph glyph-name="agrave" unicode="&#xe0;" horiz-adv-x="676" 
d="M137.5 30q-56.5 40 -56.5 107q0 70 59.5 116t176.5 46h152q161 0 161 90q0 29 -24.5 56.5t-78.5 45.5t-138 18q-62 0 -121 -11.5t-95 -25.5l6 33q31 13 88 24t120 11q95 0 156 -21.5t89 -55t28 -71.5q0 -7 -2 -21l-72 -371h-30l19 103q-34 -43 -108 -78t-167 -35
q-106 0 -162.5 40zM468.5 59q75.5 39 114.5 87l33 166q-8 -16 -48.5 -29.5t-106.5 -13.5h-147q-104 0 -153 -35t-49 -97q0 -51 52.5 -84t140.5 -33t163.5 39zM572 626h-2l-231 80l7 36h15l221 -95z" />
    <glyph glyph-name="aacute" unicode="&#xe1;" horiz-adv-x="676" 
d="M137.5 30q-56.5 40 -56.5 107q0 70 59.5 116t176.5 46h152q161 0 161 90q0 29 -24.5 56.5t-78.5 45.5t-138 18q-62 0 -121 -11.5t-95 -25.5l6 33q31 13 88 24t120 11q95 0 156 -21.5t89 -55t28 -71.5q0 -7 -2 -21l-72 -371h-30l19 103q-34 -43 -108 -78t-167 -35
q-106 0 -162.5 40zM468.5 59q75.5 39 114.5 87l33 166q-8 -16 -48.5 -29.5t-106.5 -13.5h-147q-104 0 -153 -35t-49 -97q0 -51 52.5 -84t140.5 -33t163.5 39zM333 626h-2l-2 21l259 95h15l-7 -36z" />
    <glyph glyph-name="acircumflex" unicode="&#xe2;" horiz-adv-x="676" 
d="M137.5 30q-56.5 40 -56.5 107q0 70 59.5 116t176.5 46h152q161 0 161 90q0 29 -24.5 56.5t-78.5 45.5t-138 18q-62 0 -121 -11.5t-95 -25.5l6 33q31 13 88 24t120 11q95 0 156 -21.5t89 -55t28 -71.5q0 -7 -2 -21l-72 -371h-30l19 103q-34 -43 -108 -78t-167 -35
q-106 0 -162.5 40zM468.5 59q75.5 39 114.5 87l33 166q-8 -16 -48.5 -29.5t-106.5 -13.5h-147q-104 0 -153 -35t-49 -97q0 -51 52.5 -84t140.5 -33t163.5 39zM307 620h-47l189 130h39l139 -130h-41l-115 107h-7z" />
    <glyph glyph-name="atilde" unicode="&#xe3;" horiz-adv-x="676" 
d="M137.5 30q-56.5 40 -56.5 107q0 70 59.5 116t176.5 46h152q161 0 161 90q0 29 -24.5 56.5t-78.5 45.5t-138 18q-62 0 -121 -11.5t-95 -25.5l6 33q31 13 88 24t120 11q95 0 156 -21.5t89 -55t28 -71.5q0 -7 -2 -21l-72 -371h-30l19 103q-34 -43 -108 -78t-167 -35
q-106 0 -162.5 40zM468.5 59q75.5 39 114.5 87l33 166q-8 -16 -48.5 -29.5t-106.5 -13.5h-147q-104 0 -153 -35t-49 -97q0 -51 52.5 -84t140.5 -33t163.5 39zM494.5 646q-20.5 11 -46.5 33q-21 18 -37.5 27.5t-36.5 9.5q-21 0 -36.5 -13t-19.5 -36l-5 -27h-29l6 31
q7 35 29.5 54.5t54.5 19.5q27 0 47.5 -11t46.5 -33q21 -18 37.5 -27.5t36.5 -9.5q21 0 36.5 13t19.5 36l5 27h29l-6 -31q-7 -35 -29.5 -54.5t-54.5 -19.5q-27 0 -47.5 11z" />
    <glyph glyph-name="adieresis" unicode="&#xe4;" horiz-adv-x="676" 
d="M137.5 30q-56.5 40 -56.5 107q0 70 59.5 116t176.5 46h152q161 0 161 90q0 29 -24.5 56.5t-78.5 45.5t-138 18q-62 0 -121 -11.5t-95 -25.5l6 33q31 13 88 24t120 11q95 0 156 -21.5t89 -55t28 -71.5q0 -7 -2 -21l-72 -371h-30l19 103q-34 -43 -108 -78t-167 -35
q-106 0 -162.5 40zM468.5 59q75.5 39 114.5 87l33 166q-8 -16 -48.5 -29.5t-106.5 -13.5h-147q-104 0 -153 -35t-49 -97q0 -51 52.5 -84t140.5 -33t163.5 39zM342.5 663q-8.5 8 -8.5 20q0 13 10.5 22.5t27.5 9.5q14 0 23 -8t9 -20q0 -13 -11 -22.5t-27 -9.5q-15 0 -23.5 8z
M516.5 663q-8.5 8 -8.5 20q0 13 11 22.5t27 9.5q15 0 23.5 -8t8.5 -20q0 -13 -11 -22.5t-27 -9.5q-15 0 -23.5 8z" />
    <glyph glyph-name="aring" unicode="&#xe5;" horiz-adv-x="676" 
d="M137.5 30q-56.5 40 -56.5 107q0 70 59.5 116t176.5 46h152q161 0 161 90q0 29 -24.5 56.5t-78.5 45.5t-138 18q-62 0 -121 -11.5t-95 -25.5l6 33q31 13 88 24t120 11q95 0 156 -21.5t89 -55t28 -71.5q0 -7 -2 -21l-72 -371h-30l19 103q-34 -43 -108 -78t-167 -35
q-106 0 -162.5 40zM468.5 59q75.5 39 114.5 87l33 166q-8 -16 -48.5 -29.5t-106.5 -13.5h-147q-104 0 -153 -35t-49 -97q0 -51 52.5 -84t140.5 -33t163.5 39zM367 617.5q-32 24.5 -32 62.5q0 44 32 70.5t83 26.5q54 0 86 -24.5t32 -62.5q0 -44 -32 -70.5t-83 -26.5
q-54 0 -86 24.5zM517 638q24 19 24 52q0 26 -24 43.5t-67 17.5q-40 0 -64 -19t-24 -52q0 -26 24 -43.5t67 -17.5q40 0 64 19z" />
    <glyph glyph-name="ae" unicode="&#xe6;" horiz-adv-x="1155" 
d="M618 260v-6v-16q0 -100 71.5 -159t201.5 -59q55 0 103 12.5t73 28.5l-6 -33q-25 -14 -72.5 -26t-101.5 -12q-101 0 -171 34t-103 96h-6q-50 -45 -132.5 -87.5t-181.5 -42.5q-108 0 -160 41.5t-52 103.5q0 68 53.5 111.5t151.5 43.5h307l9 45q3 17 3 38q0 137 -217 137
q-66 0 -122.5 -10t-92.5 -22l6 32q36 12 88 21t112 9q242 0 251 -136h4q36 63 104 101t154 38q77 0 136 -31t91 -85t32 -120q0 -27 -4 -47h-529zM763 486q-56 -28 -93 -79t-48 -117h498q1 5 1 16q0 60 -30.5 107.5t-84 74t-121.5 26.5q-66 0 -122 -28zM468 61q80 41 133 88
q-14 39 -14 84q0 18 1 27h-302q-84 0 -129.5 -35t-45.5 -90q0 -48 45.5 -81.5t141.5 -33.5q90 0 170 41z" />
    <glyph glyph-name="ccedilla" unicode="&#xe7;" horiz-adv-x="673" 
d="M289.5 475q-68.5 -35 -106.5 -95.5t-38 -134.5q0 -62 33 -113.5t96 -81.5t148 -30q50 0 98 11.5t74 25.5l-6 -33q-24 -13 -70 -23.5t-96 -10.5q-22 0 -33 1l-28 -49h30q50 0 75.5 -22t25.5 -55q0 -41 -33.5 -65t-92.5 -24q-45 0 -82 12l5 26q35 -9 77 -9q47 0 71.5 15.5
t24.5 41.5q0 22 -17 36.5t-57 14.5h-60l-9 11l38 71q-76 11 -130.5 46.5t-83 88.5t-28.5 115q0 82 42.5 149.5t118 106.5t169.5 39q84 0 148.5 -21.5t101.5 -47.5l-7 -33q-33 27 -96 49.5t-147 22.5q-87 0 -155.5 -35z" />
    <glyph glyph-name="egrave" unicode="&#xe8;" horiz-adv-x="697" 
d="M259 22.5q-71 32.5 -108 89t-37 128.5q0 86 40.5 154.5t110.5 107t154 38.5q81 0 142.5 -31t95 -86.5t33.5 -125.5q0 -28 -4 -51h-542q0 -65 33.5 -116t97.5 -80.5t154 -29.5q55 0 104 12.5t76 27.5l-6 -33q-26 -14 -73.5 -25.5t-102.5 -11.5q-97 0 -168 32.5zM659 276
l1 16q0 64 -30 113.5t-84 77t-125 27.5q-69 0 -127.5 -27.5t-97.5 -80.5t-50 -126h513zM542 626h-2l-231 80l7 36h15l221 -95z" />
    <glyph glyph-name="eacute" unicode="&#xe9;" horiz-adv-x="697" 
d="M259 22.5q-71 32.5 -108 89t-37 128.5q0 86 40.5 154.5t110.5 107t154 38.5q81 0 142.5 -31t95 -86.5t33.5 -125.5q0 -28 -4 -51h-542q0 -65 33.5 -116t97.5 -80.5t154 -29.5q55 0 104 12.5t76 27.5l-6 -33q-26 -14 -73.5 -25.5t-102.5 -11.5q-97 0 -168 32.5zM659 276
l1 16q0 64 -30 113.5t-84 77t-125 27.5q-69 0 -127.5 -27.5t-97.5 -80.5t-50 -126h513zM319 626h-2l-2 21l259 95h15l-7 -36z" />
    <glyph glyph-name="ecircumflex" unicode="&#xea;" horiz-adv-x="697" 
d="M259 22.5q-71 32.5 -108 89t-37 128.5q0 86 40.5 154.5t110.5 107t154 38.5q81 0 142.5 -31t95 -86.5t33.5 -125.5q0 -28 -4 -51h-542q0 -65 33.5 -116t97.5 -80.5t154 -29.5q55 0 104 12.5t76 27.5l-6 -33q-26 -14 -73.5 -25.5t-102.5 -11.5q-97 0 -168 32.5zM659 276
l1 16q0 64 -30 113.5t-84 77t-125 27.5q-69 0 -127.5 -27.5t-97.5 -80.5t-50 -126h513zM309 620h-47l189 130h39l139 -130h-41l-115 107h-7z" />
    <glyph glyph-name="edieresis" unicode="&#xeb;" horiz-adv-x="697" 
d="M259 22.5q-71 32.5 -108 89t-37 128.5q0 86 40.5 154.5t110.5 107t154 38.5q81 0 142.5 -31t95 -86.5t33.5 -125.5q0 -28 -4 -51h-542q0 -65 33.5 -116t97.5 -80.5t154 -29.5q55 0 104 12.5t76 27.5l-6 -33q-26 -14 -73.5 -25.5t-102.5 -11.5q-97 0 -168 32.5zM659 276
l1 16q0 64 -30 113.5t-84 77t-125 27.5q-69 0 -127.5 -27.5t-97.5 -80.5t-50 -126h513zM344.5 663q-8.5 8 -8.5 20q0 13 10.5 22.5t27.5 9.5q14 0 23 -8t9 -20q0 -13 -11 -22.5t-27 -9.5q-15 0 -23.5 8zM518.5 663q-8.5 8 -8.5 20q0 13 11 22.5t27 9.5q15 0 23.5 -8t8.5 -20
q0 -13 -11 -22.5t-27 -9.5q-15 0 -23.5 8z" />
    <glyph glyph-name="igrave" unicode="&#xec;" horiz-adv-x="220" 
d="M125 0h-30l103 530h30zM292 626h-2l-231 80l7 36h15l221 -95z" />
    <glyph glyph-name="iacute" unicode="&#xed;" horiz-adv-x="220" 
d="M125 0h-30l103 530h30zM166 626h-2l-2 21l259 95h15l-7 -36z" />
    <glyph glyph-name="icircumflex" unicode="&#xee;" horiz-adv-x="220" 
d="M125 0h-30l103 530h30zM84 620h-47l189 130h39l139 -130h-41l-115 107h-7z" />
    <glyph glyph-name="idieresis" unicode="&#xef;" horiz-adv-x="220" 
d="M125 0h-30l103 530h30zM119.5 663q-8.5 8 -8.5 20q0 13 10.5 22.5t27.5 9.5q14 0 23 -8t9 -20q0 -13 -11 -22.5t-27 -9.5q-15 0 -23.5 8zM293.5 663q-8.5 8 -8.5 20q0 13 11 22.5t27 9.5q15 0 23.5 -8t8.5 -20q0 -13 -11 -22.5t-27 -9.5q-15 0 -23.5 8z" />
    <glyph glyph-name="eth" unicode="&#xf0;" horiz-adv-x="789" 
d="M467 656q153 -22 231.5 -93t78.5 -200v-8q0 -186 -85.5 -275.5t-253.5 -89.5q-111 0 -186.5 29.5t-112 78.5t-36.5 108q0 69 36 122.5t104 83.5t160 30q96 0 168 -21.5t114 -58.5t52 -83h6q6 39 6 72q0 123 -69.5 189t-202.5 85l-64 10l-41 -88l-27 6l40 86l-104 15
l11 28l106 -16l35 75l26 -6l-34 -73zM594 48.5q62 28.5 93 75.5t31 104q0 52 -33.5 93.5t-104.5 66t-178 24.5q-86 0 -146.5 -27.5t-91.5 -74.5t-31 -104q0 -50 33 -92.5t103 -68t175 -25.5q88 0 150 28.5z" />
    <glyph glyph-name="ntilde" unicode="&#xf1;" horiz-adv-x="688" 
d="M95 0l103 530h30l-21 -110h5q17 28 51 55.5t82.5 46t104.5 18.5q54 0 102 -19.5t79 -62t31 -106.5q0 -25 -6 -54l-58 -298h-30l58 299q5 27 5 45q0 74 -49.5 120t-140.5 46q-55 0 -105 -24.5t-86.5 -62t-57.5 -75.5l-67 -348h-30zM506.5 646q-20.5 11 -46.5 33
q-21 18 -37.5 27.5t-36.5 9.5q-21 0 -36.5 -13t-19.5 -36l-5 -27h-29l6 31q7 35 29.5 54.5t54.5 19.5q27 0 47.5 -11t46.5 -33q21 -18 37.5 -27.5t36.5 -9.5q21 0 36.5 13t19.5 36l5 27h29l-6 -31q-7 -35 -29.5 -54.5t-54.5 -19.5q-27 0 -47.5 11z" />
    <glyph glyph-name="ograve" unicode="&#xf2;" horiz-adv-x="774" 
d="M261 24q-72 34 -109 92t-37 129q0 82 42.5 149.5t118 106.5t169.5 39q99 0 171 -34t109 -92t37 -129q0 -82 -42.5 -149.5t-118 -106.5t-169.5 -39q-99 0 -171 34zM587.5 55q68.5 35 106.5 95.5t38 134.5q0 62 -34 113.5t-98.5 81.5t-154.5 30q-87 0 -155.5 -35
t-106.5 -95.5t-38 -134.5q0 -62 34 -113.5t98.5 -81.5t154.5 -30q87 0 155.5 35zM606 626h-2l-231 80l7 36h15l221 -95z" />
    <glyph glyph-name="oacute" unicode="&#xf3;" horiz-adv-x="774" 
d="M261 24q-72 34 -109 92t-37 129q0 82 42.5 149.5t118 106.5t169.5 39q99 0 171 -34t109 -92t37 -129q0 -82 -42.5 -149.5t-118 -106.5t-169.5 -39q-99 0 -171 34zM587.5 55q68.5 35 106.5 95.5t38 134.5q0 62 -34 113.5t-98.5 81.5t-154.5 30q-87 0 -155.5 -35
t-106.5 -95.5t-38 -134.5q0 -62 34 -113.5t98.5 -81.5t154.5 -30q87 0 155.5 35zM349 626h-2l-2 21l259 95h15l-7 -36z" />
    <glyph glyph-name="ocircumflex" unicode="&#xf4;" horiz-adv-x="774" 
d="M261 24q-72 34 -109 92t-37 129q0 82 42.5 149.5t118 106.5t169.5 39q99 0 171 -34t109 -92t37 -129q0 -82 -42.5 -149.5t-118 -106.5t-169.5 -39q-99 0 -171 34zM587.5 55q68.5 35 106.5 95.5t38 134.5q0 62 -34 113.5t-98.5 81.5t-154.5 30q-87 0 -155.5 -35
t-106.5 -95.5t-38 -134.5q0 -62 34 -113.5t98.5 -81.5t154.5 -30q87 0 155.5 35zM339 620h-47l189 130h39l139 -130h-41l-115 107h-7z" />
    <glyph glyph-name="otilde" unicode="&#xf5;" horiz-adv-x="774" 
d="M261 24q-72 34 -109 92t-37 129q0 82 42.5 149.5t118 106.5t169.5 39q99 0 171 -34t109 -92t37 -129q0 -82 -42.5 -149.5t-118 -106.5t-169.5 -39q-99 0 -171 34zM587.5 55q68.5 35 106.5 95.5t38 134.5q0 62 -34 113.5t-98.5 81.5t-154.5 30q-87 0 -155.5 -35
t-106.5 -95.5t-38 -134.5q0 -62 34 -113.5t98.5 -81.5t154.5 -30q87 0 155.5 35zM526.5 646q-20.5 11 -46.5 33q-21 18 -37.5 27.5t-36.5 9.5q-21 0 -36.5 -13t-19.5 -36l-5 -27h-29l6 31q7 35 29.5 54.5t54.5 19.5q27 0 47.5 -11t46.5 -33q21 -18 37.5 -27.5t36.5 -9.5
q21 0 36.5 13t19.5 36l5 27h29l-6 -31q-7 -35 -29.5 -54.5t-54.5 -19.5q-27 0 -47.5 11z" />
    <glyph glyph-name="odieresis" unicode="&#xf6;" horiz-adv-x="774" 
d="M261 24q-72 34 -109 92t-37 129q0 82 42.5 149.5t118 106.5t169.5 39q99 0 171 -34t109 -92t37 -129q0 -82 -42.5 -149.5t-118 -106.5t-169.5 -39q-99 0 -171 34zM587.5 55q68.5 35 106.5 95.5t38 134.5q0 62 -34 113.5t-98.5 81.5t-154.5 30q-87 0 -155.5 -35
t-106.5 -95.5t-38 -134.5q0 -62 34 -113.5t98.5 -81.5t154.5 -30q87 0 155.5 35zM374.5 663q-8.5 8 -8.5 20q0 13 10.5 22.5t27.5 9.5q14 0 23 -8t9 -20q0 -13 -11 -22.5t-27 -9.5q-15 0 -23.5 8zM548.5 663q-8.5 8 -8.5 20q0 13 11 22.5t27 9.5q15 0 23.5 -8t8.5 -20
q0 -13 -11 -22.5t-27 -9.5q-15 0 -23.5 8z" />
    <glyph glyph-name="divide" unicode="&#xf7;" horiz-adv-x="604" 
d="M349.5 481q-8.5 9 -8.5 25t8.5 25t22.5 9t22.5 -9t8.5 -25t-8.5 -25t-22.5 -9t-22.5 9zM614 295h-484v30h484v-30zM349.5 89q-8.5 9 -8.5 25t8.5 25t22.5 9t22.5 -9t8.5 -25t-8.5 -25t-22.5 -9t-22.5 9z" />
    <glyph glyph-name="oslash" unicode="&#xf8;" horiz-adv-x="774" 
d="M690 456q35 -34 53.5 -78t18.5 -93q0 -82 -42.5 -149.5t-118 -106.5t-169.5 -39q-137 0 -223 65l-66 -55h-44l88 74q-35 34 -53.5 78t-18.5 93q0 82 42.5 149.5t118 106.5t169.5 39q137 0 223 -65l66 55h44zM162 162.5q17 -38.5 49 -68.5l433 361q-78 55 -199 55
q-87 0 -155.5 -35t-106.5 -95.5t-38 -134.5q0 -44 17 -82.5zM587.5 55q68.5 35 106.5 95.5t38 134.5q0 44 -17 82.5t-49 68.5l-433 -361q78 -55 199 -55q87 0 155.5 35z" />
    <glyph glyph-name="ugrave" unicode="&#xf9;" horiz-adv-x="688" 
d="M239 9.5q-48 19.5 -79 62t-31 106.5q0 26 6 54l58 298h30l-58 -299q-5 -27 -5 -45q0 -74 49.5 -120t140.5 -46q55 0 105 24.5t86.5 62t57.5 75.5l67 348h30l-103 -530h-30l21 110h-5q-17 -28 -51 -55.5t-82.5 -46t-104.5 -18.5q-54 0 -102 19.5zM572 626h-2l-231 80l7 36
h15l221 -95z" />
    <glyph glyph-name="uacute" unicode="&#xfa;" horiz-adv-x="688" 
d="M239 9.5q-48 19.5 -79 62t-31 106.5q0 26 6 54l58 298h30l-58 -299q-5 -27 -5 -45q0 -74 49.5 -120t140.5 -46q55 0 105 24.5t86.5 62t57.5 75.5l67 348h30l-103 -530h-30l21 110h-5q-17 -28 -51 -55.5t-82.5 -46t-104.5 -18.5q-54 0 -102 19.5zM333 626h-2l-2 21l259 95
h15l-7 -36z" />
    <glyph glyph-name="ucircumflex" unicode="&#xfb;" horiz-adv-x="688" 
d="M239 9.5q-48 19.5 -79 62t-31 106.5q0 26 6 54l58 298h30l-58 -299q-5 -27 -5 -45q0 -74 49.5 -120t140.5 -46q55 0 105 24.5t86.5 62t57.5 75.5l67 348h30l-103 -530h-30l21 110h-5q-17 -28 -51 -55.5t-82.5 -46t-104.5 -18.5q-54 0 -102 19.5zM311 620h-47l189 130h39
l139 -130h-41l-115 107h-7z" />
    <glyph glyph-name="udieresis" unicode="&#xfc;" horiz-adv-x="688" 
d="M239 9.5q-48 19.5 -79 62t-31 106.5q0 26 6 54l58 298h30l-58 -299q-5 -27 -5 -45q0 -74 49.5 -120t140.5 -46q55 0 105 24.5t86.5 62t57.5 75.5l67 348h30l-103 -530h-30l21 110h-5q-17 -28 -51 -55.5t-82.5 -46t-104.5 -18.5q-54 0 -102 19.5zM346.5 663
q-8.5 8 -8.5 20q0 13 10.5 22.5t27.5 9.5q14 0 23 -8t9 -20q0 -13 -11 -22.5t-27 -9.5q-15 0 -23.5 8zM520.5 663q-8.5 8 -8.5 20q0 13 11 22.5t27 9.5q15 0 23.5 -8t8.5 -20q0 -13 -11 -22.5t-27 -9.5q-15 0 -23.5 8z" />
    <glyph glyph-name="yacute" unicode="&#xfd;" horiz-adv-x="548" 
d="M124 -190h-35l170 241l-176 479h32l163 -444h5l313 444h35zM244 626h-2l-2 21l259 95h15l-7 -36z" />
    <glyph glyph-name="thorn" unicode="&#xfe;" 
d="M58 -190l176 910h30l-55 -291h5q31 42 99 76.5t153 34.5q72 0 132 -29t95.5 -84.5t35.5 -131.5q0 -88 -40 -157.5t-110.5 -108.5t-159.5 -39q-64 0 -118 20t-91.5 49.5t-56.5 60.5h-4l-61 -310h-30zM564 55q63 35 98.5 97t35.5 140q0 64 -30.5 114t-84 77t-122.5 27
q-61 0 -114.5 -22t-91.5 -55.5t-58 -67.5l-38 -199q16 -35 51.5 -68.5t89.5 -55.5t121 -22q80 0 143 35z" />
    <glyph glyph-name="ydieresis" unicode="&#xff;" horiz-adv-x="548" 
d="M124 -190h-35l170 241l-176 479h32l163 -444h5l313 444h35zM260.5 663q-8.5 8 -8.5 20q0 13 10.5 22.5t27.5 9.5q14 0 23 -8t9 -20q0 -13 -11 -22.5t-27 -9.5q-15 0 -23.5 8zM434.5 663q-8.5 8 -8.5 20q0 13 11 22.5t27 9.5q15 0 23.5 -8t8.5 -20q0 -13 -11 -22.5
t-27 -9.5q-15 0 -23.5 8z" />
    <glyph glyph-name="Amacron" unicode="&#x100;" horiz-adv-x="760" 
d="M780 0h-30l-71 219h-477l-156 -219h-36l500 700h42zM525 671l-301 -422h445l-138 422h-6zM716 828h-344l6 30h344z" />
    <glyph glyph-name="amacron" unicode="&#x101;" horiz-adv-x="676" 
d="M137.5 30q-56.5 40 -56.5 107q0 70 59.5 116t176.5 46h152q161 0 161 90q0 29 -24.5 56.5t-78.5 45.5t-138 18q-62 0 -121 -11.5t-95 -25.5l6 33q31 13 88 24t120 11q95 0 156 -21.5t89 -55t28 -71.5q0 -7 -2 -21l-72 -371h-30l19 103q-34 -43 -108 -78t-167 -35
q-106 0 -162.5 40zM468.5 59q75.5 39 114.5 87l33 166q-8 -16 -48.5 -29.5t-106.5 -13.5h-147q-104 0 -153 -35t-49 -97q0 -51 52.5 -84t140.5 -33t163.5 39zM624 668h-344l6 30h344z" />
    <glyph glyph-name="Abreve" unicode="&#x102;" horiz-adv-x="760" 
d="M780 0h-30l-71 219h-477l-156 -219h-36l500 700h42zM525 671l-301 -422h445l-138 422h-6zM434 816q-39 31 -39 84h30q0 -40 32.5 -63.5t94.5 -23.5q60 0 90 24t33 63h30q-5 -52 -43.5 -83.5t-112.5 -31.5q-76 0 -115 31z" />
    <glyph glyph-name="abreve" unicode="&#x103;" horiz-adv-x="676" 
d="M137.5 30q-56.5 40 -56.5 107q0 70 59.5 116t176.5 46h152q161 0 161 90q0 29 -24.5 56.5t-78.5 45.5t-138 18q-62 0 -121 -11.5t-95 -25.5l6 33q31 13 88 24t120 11q95 0 156 -21.5t89 -55t28 -71.5q0 -7 -2 -21l-72 -371h-30l19 103q-34 -43 -108 -78t-167 -35
q-106 0 -162.5 40zM468.5 59q75.5 39 114.5 87l33 166q-8 -16 -48.5 -29.5t-106.5 -13.5h-147q-104 0 -153 -35t-49 -97q0 -51 52.5 -84t140.5 -33t163.5 39zM342 656q-39 31 -39 84h30q0 -40 32.5 -63.5t94.5 -23.5q60 0 90 24t33 63h30q-5 -52 -43.5 -83.5t-112.5 -31.5
q-76 0 -115 31z" />
    <glyph glyph-name="Aogonek" unicode="&#x104;" horiz-adv-x="760" 
d="M621.5 -159q17.5 -12 53.5 -12q38 0 68 7l-6 -30q-29 -7 -67 -7q-49 0 -74 18t-25 46q0 48 49 83.5t127 63.5l-68 209h-477l-156 -219h-36l500 700h42l228 -700q-70 -25 -123 -59.5t-53 -70.5q0 -17 17.5 -29zM525 671l-301 -422h445l-138 422h-6z" />
    <glyph glyph-name="aogonek" unicode="&#x105;" horiz-adv-x="676" 
d="M543 518.5q61 -21.5 89 -55t28 -71.5q0 -7 -2 -21l-72 -371q-69 -23 -122.5 -58.5t-53.5 -71.5q0 -17 17.5 -29t53.5 -12q38 0 68 7l-6 -30q-29 -7 -67 -7q-49 0 -74 18t-25 46q0 48 51 84.5t130 65.5l17 90q-34 -43 -108 -78t-167 -35q-106 0 -162.5 40t-56.5 107
q0 70 59.5 116t176.5 46h152q161 0 161 90q0 29 -24.5 56.5t-78.5 45.5t-138 18q-62 0 -121 -11.5t-95 -25.5l6 33q31 13 88 24t120 11q95 0 156 -21.5zM616 312q-8 -16 -48.5 -29.5t-106.5 -13.5h-147q-104 0 -153 -35t-49 -97q0 -51 52.5 -84t140.5 -33t163.5 39t114.5 87
z" />
    <glyph glyph-name="Cacute" unicode="&#x106;" horiz-adv-x="857" 
d="M326.5 35q-91.5 45 -140.5 121.5t-49 168.5q0 108 55.5 196t155.5 138.5t229 50.5q103 0 190 -31t135 -69l-7 -36q-45 41 -129 73.5t-189 32.5q-121 0 -214 -47t-144.5 -128t-51.5 -180q0 -83 45.5 -152.5t130.5 -111t198 -41.5q67 0 128 15t93 33l-6 -34
q-33 -17 -92 -30.5t-123 -13.5q-123 0 -214.5 45zM474 786h-2l-2 21l259 95h15l-7 -36z" />
    <glyph glyph-name="cacute" unicode="&#x107;" horiz-adv-x="673" 
d="M257.5 24q-69.5 34 -106 92.5t-36.5 128.5q0 82 42.5 149.5t118 106.5t169.5 39q84 0 148.5 -21.5t101.5 -47.5l-7 -33q-33 27 -96 49.5t-147 22.5q-87 0 -155.5 -35t-106.5 -95.5t-38 -134.5q0 -62 33 -113.5t96 -81.5t148 -30q50 0 98 11.5t74 25.5l-6 -33
q-24 -13 -70 -23.5t-96 -10.5q-95 0 -164.5 34zM344 626h-2l-2 21l259 95h15l-7 -36z" />
    <glyph glyph-name="Ccircumflex" unicode="&#x108;" horiz-adv-x="857" 
d="M326.5 35q-91.5 45 -140.5 121.5t-49 168.5q0 108 55.5 196t155.5 138.5t229 50.5q103 0 190 -31t135 -69l-7 -36q-45 41 -129 73.5t-189 32.5q-121 0 -214 -47t-144.5 -128t-51.5 -180q0 -83 45.5 -152.5t130.5 -111t198 -41.5q67 0 128 15t93 33l-6 -34
q-33 -17 -92 -30.5t-123 -13.5q-123 0 -214.5 45zM464 780h-47l189 130h39l139 -130h-41l-115 107h-7z" />
    <glyph glyph-name="ccircumflex" unicode="&#x109;" horiz-adv-x="673" 
d="M257.5 24q-69.5 34 -106 92.5t-36.5 128.5q0 82 42.5 149.5t118 106.5t169.5 39q84 0 148.5 -21.5t101.5 -47.5l-7 -33q-33 27 -96 49.5t-147 22.5q-87 0 -155.5 -35t-106.5 -95.5t-38 -134.5q0 -62 33 -113.5t96 -81.5t148 -30q50 0 98 11.5t74 25.5l-6 -33
q-24 -13 -70 -23.5t-96 -10.5q-95 0 -164.5 34zM334 620h-47l189 130h39l139 -130h-41l-115 107h-7z" />
    <glyph glyph-name="Cdotaccent" unicode="&#x10a;" horiz-adv-x="857" 
d="M326.5 35q-91.5 45 -140.5 121.5t-49 168.5q0 108 55.5 196t155.5 138.5t229 50.5q103 0 190 -31t135 -69l-7 -36q-45 41 -129 73.5t-189 32.5q-121 0 -214 -47t-144.5 -128t-51.5 -180q0 -83 45.5 -152.5t130.5 -111t198 -41.5q67 0 128 15t93 33l-6 -34
q-33 -17 -92 -30.5t-123 -13.5q-123 0 -214.5 45zM584.5 823q-8.5 8 -8.5 20q0 13 10.5 22.5t27.5 9.5q14 0 23 -8t9 -20q0 -13 -11 -22.5t-27 -9.5q-15 0 -23.5 8z" />
    <glyph glyph-name="cdotaccent" unicode="&#x10b;" horiz-adv-x="673" 
d="M257.5 24q-69.5 34 -106 92.5t-36.5 128.5q0 82 42.5 149.5t118 106.5t169.5 39q84 0 148.5 -21.5t101.5 -47.5l-7 -33q-33 27 -96 49.5t-147 22.5q-87 0 -155.5 -35t-106.5 -95.5t-38 -134.5q0 -62 33 -113.5t96 -81.5t148 -30q50 0 98 11.5t74 25.5l-6 -33
q-24 -13 -70 -23.5t-96 -10.5q-95 0 -164.5 34zM454.5 663q-8.5 8 -8.5 20q0 13 10.5 22.5t27.5 9.5q14 0 23 -8t9 -20q0 -13 -11 -22.5t-27 -9.5q-15 0 -23.5 8z" />
    <glyph glyph-name="Ccaron" unicode="&#x10c;" horiz-adv-x="857" 
d="M326.5 35q-91.5 45 -140.5 121.5t-49 168.5q0 108 55.5 196t155.5 138.5t229 50.5q103 0 190 -31t135 -69l-7 -36q-45 41 -129 73.5t-189 32.5q-121 0 -214 -47t-144.5 -128t-51.5 -180q0 -83 45.5 -152.5t130.5 -111t198 -41.5q67 0 128 15t93 33l-6 -34
q-33 -17 -92 -30.5t-123 -13.5q-123 0 -214.5 45zM620 780h-39l-139 130h41l116 -107h7l156 107h47z" />
    <glyph glyph-name="ccaron" unicode="&#x10d;" horiz-adv-x="673" 
d="M257.5 24q-69.5 34 -106 92.5t-36.5 128.5q0 82 42.5 149.5t118 106.5t169.5 39q84 0 148.5 -21.5t101.5 -47.5l-7 -33q-33 27 -96 49.5t-147 22.5q-87 0 -155.5 -35t-106.5 -95.5t-38 -134.5q0 -62 33 -113.5t96 -81.5t148 -30q50 0 98 11.5t74 25.5l-6 -33
q-24 -13 -70 -23.5t-96 -10.5q-95 0 -164.5 34zM490 620h-39l-139 130h41l116 -107h7l156 107h47z" />
    <glyph glyph-name="Dcaron" unicode="&#x10e;" horiz-adv-x="880" 
d="M105 0l136 700h229q130 0 222.5 -43.5t139.5 -117t47 -160.5q0 -108 -52.5 -194.5t-150.5 -135.5t-229 -49h-342zM447 30q121 0 212 45t140.5 124.5t49.5 179.5q0 77 -43.5 143.5t-131 107t-214.5 40.5h-195l-125 -640h307zM560 780h-39l-139 130h41l116 -107h7l156 107
h47z" />
    <glyph glyph-name="dcaron" unicode="&#x10f;" horiz-adv-x="750" 
d="M788 526l5 24h10q39 0 66.5 28.5t27.5 75.5q0 20 -14 32q-4 -8 -12 -13.5t-18 -5.5q-15 0 -23.5 7.5t-8.5 18.5q0 14 10.5 23t27.5 9q28 0 45.5 -19.5t17.5 -51.5q0 -38 -17 -67.5t-44.5 -45t-58.5 -15.5h-14zM248 19q-60 29 -95.5 84.5t-35.5 131.5q0 88 40 157.5
t110.5 108.5t159.5 39q64 0 118 -20t91.5 -49.5t56.5 -60.5h4l60 310h30l-1 -6l-8 -40l-65 -334l-66 -340h-29l19 101h-5q-31 -42 -99 -76.5t-153 -34.5q-72 0 -132 29zM499.5 42q53.5 22 91.5 55.5t58 67.5l38 199q-16 35 -51.5 68.5t-89.5 55.5t-121 22q-80 0 -143 -35
t-98.5 -97t-35.5 -140q0 -64 30.5 -114t84 -77t122.5 -27q61 0 114.5 22z" />
    <glyph glyph-name="Dcroat" unicode="&#x110;" horiz-adv-x="878" 
d="M468 700q130 0 222.5 -43.5t139.5 -117t47 -160.5q0 -108 -52.5 -194.5t-150.5 -135.5t-229 -49h-342l64 329h-84l6 30h84l66 341h229zM445 30q121 0 212 45t140.5 124.5t49.5 179.5q0 77 -43.5 143.5t-131 107t-214.5 40.5h-195l-61 -311h260l-6 -30h-260l-58 -299h307z
" />
    <glyph glyph-name="dcroat" unicode="&#x111;" horiz-adv-x="738" 
d="M842 565l-6 -30h-104l-103 -535h-30l16 85h-5q-35 -36 -103.5 -65.5t-146.5 -29.5q-85 0 -146.5 28.5t-93.5 76t-32 101.5q0 59 34.5 109.5t98.5 80.5t150 30q92 0 167.5 -36t112.5 -80h5l46 235h-216l6 30h216l30 155h30l-30 -155h104zM649 260q-21 30 -61 59t-96.5 48
t-121.5 19q-77 0 -134.5 -26.5t-87.5 -70t-30 -93.5q0 -44 28.5 -84.5t83.5 -66t130 -25.5q82 0 153.5 33.5t109.5 75.5z" />
    <glyph glyph-name="Emacron" unicode="&#x112;" horiz-adv-x="704" 
d="M760 700l-6 -30h-489l-58 -296h449l-6 -30h-449l-61 -314h509l-5 -30h-539l136 700h519zM691 828h-344l6 30h344z" />
    <glyph glyph-name="emacron" unicode="&#x113;" horiz-adv-x="697" 
d="M259 22.5q-71 32.5 -108 89t-37 128.5q0 86 40.5 154.5t110.5 107t154 38.5q81 0 142.5 -31t95 -86.5t33.5 -125.5q0 -28 -4 -51h-542q0 -65 33.5 -116t97.5 -80.5t154 -29.5q55 0 104 12.5t76 27.5l-6 -33q-26 -14 -73.5 -25.5t-102.5 -11.5q-97 0 -168 32.5zM659 276
l1 16q0 64 -30 113.5t-84 77t-125 27.5q-69 0 -127.5 -27.5t-97.5 -80.5t-50 -126h513zM626 668h-344l6 30h344z" />
    <glyph glyph-name="Ebreve" unicode="&#x114;" horiz-adv-x="704" 
d="M760 700l-6 -30h-489l-58 -296h449l-6 -30h-449l-61 -314h509l-5 -30h-539l136 700h519zM409 816q-39 31 -39 84h30q0 -40 32.5 -63.5t94.5 -23.5q60 0 90 24t33 63h30q-5 -52 -43.5 -83.5t-112.5 -31.5q-76 0 -115 31z" />
    <glyph glyph-name="ebreve" unicode="&#x115;" horiz-adv-x="697" 
d="M259 22.5q-71 32.5 -108 89t-37 128.5q0 86 40.5 154.5t110.5 107t154 38.5q81 0 142.5 -31t95 -86.5t33.5 -125.5q0 -28 -4 -51h-542q0 -65 33.5 -116t97.5 -80.5t154 -29.5q55 0 104 12.5t76 27.5l-6 -33q-26 -14 -73.5 -25.5t-102.5 -11.5q-97 0 -168 32.5zM659 276
l1 16q0 64 -30 113.5t-84 77t-125 27.5q-69 0 -127.5 -27.5t-97.5 -80.5t-50 -126h513zM344 656q-39 31 -39 84h30q0 -40 32.5 -63.5t94.5 -23.5q60 0 90 24t33 63h30q-5 -52 -43.5 -83.5t-112.5 -31.5q-76 0 -115 31z" />
    <glyph glyph-name="Edotaccent" unicode="&#x116;" horiz-adv-x="704" 
d="M760 700l-6 -30h-489l-58 -296h449l-6 -30h-449l-61 -314h509l-5 -30h-539l136 700h519zM494.5 823q-8.5 8 -8.5 20q0 13 10.5 22.5t27.5 9.5q14 0 23 -8t9 -20q0 -13 -11 -22.5t-27 -9.5q-15 0 -23.5 8z" />
    <glyph glyph-name="edotaccent" unicode="&#x117;" horiz-adv-x="697" 
d="M259 22.5q-71 32.5 -108 89t-37 128.5q0 86 40.5 154.5t110.5 107t154 38.5q81 0 142.5 -31t95 -86.5t33.5 -125.5q0 -28 -4 -51h-542q0 -65 33.5 -116t97.5 -80.5t154 -29.5q55 0 104 12.5t76 27.5l-6 -33q-26 -14 -73.5 -25.5t-102.5 -11.5q-97 0 -168 32.5zM659 276
l1 16q0 64 -30 113.5t-84 77t-125 27.5q-69 0 -127.5 -27.5t-97.5 -80.5t-50 -126h513zM429.5 663q-8.5 8 -8.5 20q0 13 10.5 22.5t27.5 9.5q14 0 23 -8t9 -20q0 -13 -11 -22.5t-27 -9.5q-15 0 -23.5 8z" />
    <glyph glyph-name="Eogonek" unicode="&#x118;" horiz-adv-x="704" 
d="M754 670h-489l-58 -296h449l-6 -30h-449l-61 -314h509l-5 -30q-69 -23 -122.5 -58.5t-53.5 -71.5q0 -17 17.5 -29t53.5 -12q38 0 68 7l-6 -30q-29 -7 -67 -7q-49 0 -74 18t-25 46q0 46 43 77.5t98 54.5l1 5h-472l136 700h519z" />
    <glyph glyph-name="eogonek" unicode="&#x119;" horiz-adv-x="697" 
d="M306 -183q-25 18 -25 46q0 47 44.5 78.5t88.5 45.5l1 5q-92 1 -160.5 33t-104.5 88t-36 127q0 86 40.5 154.5t110.5 107t154 38.5q81 0 142.5 -31t95 -86.5t33.5 -125.5q0 -28 -4 -51h-542q0 -65 33.5 -116t97.5 -80.5t154 -29.5q55 0 104 12.5t76 27.5l-6 -33
q-32 -18 -98 -32q-75 -15 -133 -51t-58 -74q0 -17 17.5 -29t53.5 -12q38 0 68 7l-6 -30q-29 -7 -67 -7q-49 0 -74 18zM659 276l1 16q0 64 -30 113.5t-84 77t-125 27.5q-69 0 -127.5 -27.5t-97.5 -80.5t-50 -126h513z" />
    <glyph glyph-name="Ecaron" unicode="&#x11a;" horiz-adv-x="704" 
d="M760 700l-6 -30h-489l-58 -296h449l-6 -30h-449l-61 -314h509l-5 -30h-539l136 700h519zM530 780h-39l-139 130h41l116 -107h7l156 107h47z" />
    <glyph glyph-name="ecaron" unicode="&#x11b;" horiz-adv-x="697" 
d="M259 22.5q-71 32.5 -108 89t-37 128.5q0 86 40.5 154.5t110.5 107t154 38.5q81 0 142.5 -31t95 -86.5t33.5 -125.5q0 -28 -4 -51h-542q0 -65 33.5 -116t97.5 -80.5t154 -29.5q55 0 104 12.5t76 27.5l-6 -33q-26 -14 -73.5 -25.5t-102.5 -11.5q-97 0 -168 32.5zM659 276
l1 16q0 64 -30 113.5t-84 77t-125 27.5q-69 0 -127.5 -27.5t-97.5 -80.5t-50 -126h513zM465 620h-39l-139 130h41l116 -107h7l156 107h47z" />
    <glyph glyph-name="Gcircumflex" unicode="&#x11c;" horiz-adv-x="900" 
d="M326.5 35q-91.5 45 -140.5 121.5t-49 168.5q0 109 56 196.5t158 138t236 50.5q110 0 198.5 -29t148.5 -70l-7 -36q-57 43 -143 74t-197 31q-125 0 -220.5 -47t-147.5 -128t-52 -180q0 -83 45.5 -152.5t130.5 -111t198 -41.5q74 0 145 15.5t112 34.5l43 219h-335l6 30h365
l-53 -271q-44 -22 -121.5 -40t-161.5 -18q-123 0 -214.5 45zM469 780h-47l189 130h39l139 -130h-41l-115 107h-7z" />
    <glyph glyph-name="gcircumflex" unicode="&#x11d;" 
d="M205.5 -177.5q-69.5 22.5 -105.5 50.5l7 33q30 -29 97.5 -52.5t152.5 -23.5q108 0 179 58.5t90 155.5l15 77h-5q-34 -42 -100.5 -76.5t-145.5 -34.5q-83 0 -144 32t-94 87t-33 121q0 84 40 150t110 103t156 37q65 0 120 -20t92.5 -49.5t55.5 -60.5h4l24 120h30l-95 -489
q-21 -110 -100.5 -175.5t-200.5 -65.5q-80 0 -149.5 22.5zM501 62q53 22 92 56t61 68l34 176q-16 35 -52 69t-90.5 56.5t-121.5 22.5q-79 0 -141.5 -33t-97.5 -92.5t-35 -134.5q0 -56 28.5 -104t82.5 -77t129 -29q58 0 111 22zM324 620h-47l189 130h39l139 -130h-41
l-115 107h-7z" />
    <glyph glyph-name="Gbreve" unicode="&#x11e;" horiz-adv-x="900" 
d="M326.5 35q-91.5 45 -140.5 121.5t-49 168.5q0 109 56 196.5t158 138t236 50.5q110 0 198.5 -29t148.5 -70l-7 -36q-57 43 -143 74t-197 31q-125 0 -220.5 -47t-147.5 -128t-52 -180q0 -83 45.5 -152.5t130.5 -111t198 -41.5q74 0 145 15.5t112 34.5l43 219h-335l6 30h365
l-53 -271q-44 -22 -121.5 -40t-161.5 -18q-123 0 -214.5 45zM504 816q-39 31 -39 84h30q0 -40 32.5 -63.5t94.5 -23.5q60 0 90 24t33 63h30q-5 -52 -43.5 -83.5t-112.5 -31.5q-76 0 -115 31z" />
    <glyph glyph-name="gbreve" unicode="&#x11f;" 
d="M205.5 -177.5q-69.5 22.5 -105.5 50.5l7 33q30 -29 97.5 -52.5t152.5 -23.5q108 0 179 58.5t90 155.5l15 77h-5q-34 -42 -100.5 -76.5t-145.5 -34.5q-83 0 -144 32t-94 87t-33 121q0 84 40 150t110 103t156 37q65 0 120 -20t92.5 -49.5t55.5 -60.5h4l24 120h30l-95 -489
q-21 -110 -100.5 -175.5t-200.5 -65.5q-80 0 -149.5 22.5zM501 62q53 22 92 56t61 68l34 176q-16 35 -52 69t-90.5 56.5t-121.5 22.5q-79 0 -141.5 -33t-97.5 -92.5t-35 -134.5q0 -56 28.5 -104t82.5 -77t129 -29q58 0 111 22zM359 656q-39 31 -39 84h30q0 -40 32.5 -63.5
t94.5 -23.5q60 0 90 24t33 63h30q-5 -52 -43.5 -83.5t-112.5 -31.5q-76 0 -115 31z" />
    <glyph glyph-name="Gdotaccent" unicode="&#x120;" horiz-adv-x="900" 
d="M326.5 35q-91.5 45 -140.5 121.5t-49 168.5q0 109 56 196.5t158 138t236 50.5q110 0 198.5 -29t148.5 -70l-7 -36q-57 43 -143 74t-197 31q-125 0 -220.5 -47t-147.5 -128t-52 -180q0 -83 45.5 -152.5t130.5 -111t198 -41.5q74 0 145 15.5t112 34.5l43 219h-335l6 30h365
l-53 -271q-44 -22 -121.5 -40t-161.5 -18q-123 0 -214.5 45zM589.5 823q-8.5 8 -8.5 20q0 13 10.5 22.5t27.5 9.5q14 0 23 -8t9 -20q0 -13 -11 -22.5t-27 -9.5q-15 0 -23.5 8z" />
    <glyph glyph-name="gdotaccent" unicode="&#x121;" 
d="M205.5 -177.5q-69.5 22.5 -105.5 50.5l7 33q30 -29 97.5 -52.5t152.5 -23.5q108 0 179 58.5t90 155.5l15 77h-5q-34 -42 -100.5 -76.5t-145.5 -34.5q-83 0 -144 32t-94 87t-33 121q0 84 40 150t110 103t156 37q65 0 120 -20t92.5 -49.5t55.5 -60.5h4l24 120h30l-95 -489
q-21 -110 -100.5 -175.5t-200.5 -65.5q-80 0 -149.5 22.5zM501 62q53 22 92 56t61 68l34 176q-16 35 -52 69t-90.5 56.5t-121.5 22.5q-79 0 -141.5 -33t-97.5 -92.5t-35 -134.5q0 -56 28.5 -104t82.5 -77t129 -29q58 0 111 22zM444.5 663q-8.5 8 -8.5 20q0 13 10.5 22.5
t27.5 9.5q14 0 23 -8t9 -20q0 -13 -11 -22.5t-27 -9.5q-15 0 -23.5 8z" />
    <glyph glyph-name="uni0122" unicode="&#x122;" horiz-adv-x="900" 
d="M326.5 35q-91.5 45 -140.5 121.5t-49 168.5q0 109 56 196.5t158 138t236 50.5q110 0 198.5 -29t148.5 -70l-7 -36q-57 43 -143 74t-197 31q-125 0 -220.5 -47t-147.5 -128t-52 -180q0 -83 45.5 -152.5t130.5 -111t198 -41.5q74 0 145 15.5t112 34.5l43 219h-335l6 30h365
l-53 -271q-44 -22 -121.5 -40t-161.5 -18q-123 0 -214.5 45zM411 -290l5 25h10q39 0 65.5 29t26.5 74q0 22 -14 33q-5 -8 -13.5 -13.5t-18.5 -5.5q-14 0 -22 8t-8 18q0 14 11 22.5t27 8.5q26 0 44.5 -19.5t18.5 -51.5q0 -56 -34.5 -92t-83.5 -36h-14z" />
    <glyph glyph-name="uni0123" unicode="&#x123;" 
d="M417.5 631.5q-18.5 19.5 -18.5 51.5q0 56 34.5 92t83.5 36h14l-5 -25h-10q-39 0 -65.5 -29t-26.5 -74q0 -22 14 -33q5 8 13.5 13.5t18.5 5.5q14 0 22 -8t8 -18q0 -14 -11 -22.5t-27 -8.5q-26 0 -44.5 19.5zM206.5 -178q-69.5 22 -106.5 49l6 33q32 -28 99.5 -51
t151.5 -23q108 0 179 58.5t90 155.5l15 77h-5q-34 -42 -100.5 -76.5t-145.5 -34.5q-83 0 -144 32t-94 87t-33 121q0 84 40 150t110 103t156 37q65 0 120 -20t92.5 -49.5t55.5 -60.5h4l24 120h30l-95 -489q-21 -110 -100.5 -175.5t-200.5 -65.5q-79 0 -148.5 22zM501 62
q53 22 92 56t61 68l34 176q-16 35 -52 69t-90.5 56.5t-121.5 22.5q-79 0 -141.5 -33t-97.5 -92.5t-35 -134.5q0 -56 28.5 -104t82.5 -77t129 -29q58 0 111 22z" />
    <glyph glyph-name="Hcircumflex" unicode="&#x124;" horiz-adv-x="838" 
d="M776 374l63 326h30l-136 -700h-30l67 344h-568l-67 -344h-30l136 700h30l-63 -326h568zM419 780h-47l189 130h39l139 -130h-41l-115 107h-7z" />
    <glyph glyph-name="hcircumflex" unicode="&#x125;" horiz-adv-x="688" 
d="M95 0l139 720h30l-57 -300h5q17 28 51 55.5t82.5 46t104.5 18.5q54 0 102 -19.5t79 -62t31 -106.5q0 -25 -6 -54l-58 -298h-30l58 299q5 27 5 45q0 74 -49.5 120t-140.5 46q-55 0 -105 -24.5t-86.5 -62t-57.5 -75.5l-67 -348h-30zM114 780h-47l189 130h39l139 -130h-41
l-115 107h-7z" />
    <glyph glyph-name="Hbar" unicode="&#x126;" horiz-adv-x="868" 
d="M857 560h99l-5 -30h-100l-103 -530h-30l67 344h-568l-67 -344h-30l103 530h-100l5 30h101l27 140h30l-27 -140h568l27 140h30zM223 374h568l30 156h-568z" />
    <glyph glyph-name="hbar" unicode="&#x127;" horiz-adv-x="708" 
d="M572 520.5q48 -19.5 79 -62t31 -106.5q0 -25 -6 -54l-58 -298h-30l58 299q5 27 5 45q0 74 -49.5 120t-140.5 46q-55 0 -105 -24.5t-86.5 -62t-57.5 -75.5l-67 -348h-30l118 612h-110l6 30h110l15 78h30l-15 -78h212l-6 -30h-212l-36 -192h5q17 28 51 55.5t82.5 46
t104.5 18.5q54 0 102 -19.5z" />
    <glyph glyph-name="Itilde" unicode="&#x128;" horiz-adv-x="676" 
d="M782 700l-6 -30h-293l-125 -640h293l-5 -30h-616l5 30h293l125 640h-293l6 30h616zM530.5 806q-20.5 11 -46.5 33q-21 18 -37.5 27.5t-36.5 9.5q-21 0 -36.5 -13t-19.5 -36l-5 -27h-29l6 31q7 35 29.5 54.5t54.5 19.5q27 0 47.5 -11t46.5 -33q21 -18 37.5 -27.5
t36.5 -9.5q21 0 36.5 13t19.5 36l5 27h29l-6 -31q-7 -35 -29.5 -54.5t-54.5 -19.5q-27 0 -47.5 11z" />
    <glyph glyph-name="itilde" unicode="&#x129;" horiz-adv-x="220" 
d="M125 0h-30l103 530h30zM271.5 646q-20.5 11 -46.5 33q-21 18 -37.5 27.5t-36.5 9.5q-21 0 -36.5 -13t-19.5 -36l-5 -27h-29l6 31q7 35 29.5 54.5t54.5 19.5q27 0 47.5 -11t46.5 -33q21 -18 37.5 -27.5t36.5 -9.5q21 0 36.5 13t19.5 36l5 27h29l-6 -31q-7 -35 -29.5 -54.5
t-54.5 -19.5q-27 0 -47.5 11z" />
    <glyph glyph-name="Imacron" unicode="&#x12a;" horiz-adv-x="676" 
d="M782 700l-6 -30h-293l-125 -640h293l-5 -30h-616l5 30h293l125 640h-293l6 30h616zM660 828h-344l6 30h344z" />
    <glyph glyph-name="imacron" unicode="&#x12b;" horiz-adv-x="220" 
d="M125 0h-30l103 530h30zM401 668h-344l6 30h344z" />
    <glyph glyph-name="Ibreve" unicode="&#x12c;" horiz-adv-x="676" 
d="M782 700l-6 -30h-293l-125 -640h293l-5 -30h-616l5 30h293l125 640h-293l6 30h616zM378 816q-39 31 -39 84h30q0 -40 32.5 -63.5t94.5 -23.5q60 0 90 24t33 63h30q-5 -52 -43.5 -83.5t-112.5 -31.5q-76 0 -115 31z" />
    <glyph glyph-name="ibreve" unicode="&#x12d;" horiz-adv-x="220" 
d="M125 0h-30l103 530h30zM119 656q-39 31 -39 84h30q0 -40 32.5 -63.5t94.5 -23.5q60 0 90 24t33 63h30q-5 -52 -43.5 -83.5t-112.5 -31.5q-76 0 -115 31z" />
    <glyph glyph-name="Iogonek" unicode="&#x12e;" horiz-adv-x="676" 
d="M776 670h-293l-125 -640h293l-5 -30h-258q-69 -23 -122.5 -58.5t-53.5 -71.5q0 -17 17.5 -29t53.5 -12q38 0 68 7l-6 -30q-29 -7 -67 -7q-49 0 -74 18t-25 46q0 46 43 77.5t98 54.5l1 5h-291l5 30h293l125 640h-293l6 30h616z" />
    <glyph glyph-name="iogonek" unicode="&#x12f;" horiz-adv-x="220" 
d="M259.5 654.5q8.5 -7.5 8.5 -19.5q0 -13 -11 -22t-27 -9q-15 0 -23.5 7.5t-8.5 19.5q0 13 11 22t27 9q15 0 23.5 -7.5zM225 530h3l-103 -530q-74 -24 -125 -58t-51 -72q0 -17 14.5 -29t40.5 -12h83l-6 -30h-83q-38 0 -60 18.5t-22 45.5q0 57 61 92.5t120 52.5l101 522h5
h10h12z" />
    <glyph glyph-name="Idotaccent" unicode="&#x130;" horiz-adv-x="676" 
d="M782 700l-6 -30h-293l-125 -640h293l-5 -30h-616l5 30h293l125 640h-293l6 30h616zM463.5 823q-8.5 8 -8.5 20q0 13 10.5 22.5t27.5 9.5q14 0 23 -8t9 -20q0 -13 -11 -22.5t-27 -9.5q-15 0 -23.5 8z" />
    <glyph glyph-name="dotlessi" unicode="&#x131;" horiz-adv-x="220" 
d="M125 0h-30l103 530h30z" />
    <glyph glyph-name="IJ" unicode="&#x132;" horiz-adv-x="1226" 
d="M782 700l-6 -30h-293l-125 -640h293l-5 -30h-616l5 30h293l125 640h-293l6 30h616zM710 24l6 28q81 -33 172 -33t157 43t83 129l100 509h30l-100 -512q-19 -98 -92.5 -148t-180.5 -50q-92 0 -175 34z" />
    <glyph glyph-name="ij" unicode="&#x133;" horiz-adv-x="440" 
d="M206.5 611.5q-8.5 7.5 -8.5 19.5q0 13 11 22t27 9q15 0 23.5 -7.5t8.5 -19.5q0 -13 -11 -22t-27 -9q-15 0 -23.5 7.5zM426.5 611.5q-8.5 7.5 -8.5 19.5q0 13 11 22t27 9q15 0 23.5 -7.5t8.5 -19.5q0 -13 -11 -22t-27 -9q-15 0 -23.5 7.5zM95 0l103 530h5h10h15l-103 -530
h-30zM110 -186l6 29q37 -14 74 -14q49 0 76.5 29.5t38.5 87.5l113 584h5h11h12h2l-114 -586q-14 -72 -48 -108t-97 -36q-40 0 -79 14z" />
    <glyph glyph-name="Jcircumflex" unicode="&#x134;" horiz-adv-x="550" 
d="M34 24l6 28q81 -33 172 -33t157 43t83 129l100 509h30l-100 -512q-19 -98 -92.5 -148t-180.5 -50q-92 0 -175 34zM434 780h-47l189 130h39l139 -130h-41l-115 107h-7z" />
    <glyph glyph-name="jcircumflex" unicode="&#x135;" horiz-adv-x="220" 
d="M-110 -186l6 29q37 -14 74 -14q49 0 76.5 29.5t38.5 87.5l113 584h30l-114 -586q-14 -72 -48 -108t-97 -36q-40 0 -79 14zM83 620h-47l189 130h39l139 -130h-41l-115 107h-7z" />
    <glyph glyph-name="uni0136" unicode="&#x136;" horiz-adv-x="727" 
d="M135 0h-30l136 700h30l-61 -313l594 313h60l-631 -333l-1 -5l455 -362h-47l-438 347zM311 -290l5 25h10q39 0 65.5 29t26.5 74q0 22 -14 33q-5 -8 -13.5 -13.5t-18.5 -5.5q-14 0 -22 8t-8 18q0 14 11 22.5t27 8.5q26 0 44.5 -19.5t18.5 -51.5q0 -56 -34.5 -92t-83.5 -36
h-14z" />
    <glyph glyph-name="uni0137" unicode="&#x137;" horiz-adv-x="575" 
d="M125 0h-30l139 720h30l-81 -420l437 230h58l-468 -247l356 -283h-45l-344 272zM236 -290l5 25h10q39 0 65.5 29t26.5 74q0 22 -14 33q-5 -8 -13.5 -13.5t-18.5 -5.5q-14 0 -22 8t-8 18q0 14 11 22.5t27 8.5q26 0 44.5 -19.5t18.5 -51.5q0 -56 -34.5 -92t-83.5 -36h-14z
" />
    <glyph glyph-name="Lacute" unicode="&#x139;" horiz-adv-x="652" 
d="M647 0h-542l136 700h30l-131 -670h512zM218 786h-2l-2 21l259 95h15l-7 -36z" />
    <glyph glyph-name="lacute" unicode="&#x13a;" horiz-adv-x="220" 
d="M125 0h-30l139 720h30zM203 786h-2l-2 21l259 95h15l-7 -36z" />
    <glyph glyph-name="uni013B" unicode="&#x13b;" horiz-adv-x="652" 
d="M647 0h-542l136 700h30l-131 -670h512zM311 -290l5 25h10q39 0 65.5 29t26.5 74q0 22 -14 33q-5 -8 -13.5 -13.5t-18.5 -5.5q-14 0 -22 8t-8 18q0 14 11 22.5t27 8.5q26 0 44.5 -19.5t18.5 -51.5q0 -56 -34.5 -92t-83.5 -36h-14z" />
    <glyph glyph-name="uni013C" unicode="&#x13c;" horiz-adv-x="220" 
d="M125 0h-30l139 720h30zM6 -290l5 25h10q39 0 65.5 29t26.5 74q0 22 -14 33q-5 -8 -13.5 -13.5t-18.5 -5.5q-14 0 -22 8t-8 18q0 14 11 22.5t27 8.5q26 0 44.5 -19.5t18.5 -51.5q0 -56 -34.5 -92t-83.5 -36h-14z" />
    <glyph glyph-name="Lcaron" unicode="&#x13d;" horiz-adv-x="652" 
d="M281 511l5 25h10q39 0 66.5 28t27.5 75q0 20 -14 32q-4 -8 -12 -13.5t-18 -5.5q-15 0 -23.5 7.5t-8.5 18.5q0 14 10.5 23t27.5 9q28 0 45.5 -19.5t17.5 -51.5q0 -38 -17 -67.5t-44.5 -45t-58.5 -15.5h-14zM647 0h-542l136 700h30l-131 -670h512z" />
    <glyph glyph-name="lcaron" unicode="&#x13e;" horiz-adv-x="228" 
d="M266 526l5 25h10q39 0 66.5 28.5t27.5 75.5q0 20 -14 32q-4 -8 -12 -13.5t-18 -5.5q-15 0 -23.5 7.5t-8.5 18.5q0 14 10.5 22.5t27.5 8.5q28 0 45.5 -19t17.5 -51q0 -38 -17 -67.5t-44.5 -45.5t-58.5 -16h-14zM125 0h-30l139 720h31l-1 -6l-8 -40l-65 -334z" />
    <glyph glyph-name="Ldot" unicode="&#x13f;" horiz-adv-x="652" 
d="M647 0h-542l136 700h30l-131 -670h512zM490.5 348q-8.5 8 -8.5 20q0 13 10.5 22.5t27.5 9.5q14 0 23 -8t9 -20q0 -13 -11 -22.5t-27 -9.5q-15 0 -23.5 8z" />
    <glyph glyph-name="ldot" unicode="&#x140;" horiz-adv-x="280" 
d="M125 0h-30l139 720h30zM292.5 338q-8.5 8 -8.5 20q0 13 10.5 22.5t27.5 9.5q14 0 23 -8t9 -20q0 -13 -11 -22.5t-27 -9.5q-15 0 -23.5 8z" />
    <glyph glyph-name="Lslash" unicode="&#x141;" horiz-adv-x="659" 
d="M207 337l-60 -307h512l-5 -30h-542l63 323l-112 -46l8 37l111 46l66 340h30l-64 -327l295 123l-8 -37z" />
    <glyph glyph-name="lslash" unicode="&#x142;" horiz-adv-x="289" 
d="M232 413l141 48l-7 -34l-141 -48l-73 -379h-30l71 368l-126 -43l7 34l126 43l61 318h30z" />
    <glyph glyph-name="Nacute" unicode="&#x143;" horiz-adv-x="836" 
d="M135 0h-30l136 700h50l409 -673h5l132 673h30l-136 -700h-50l-410 673h-5zM443 786h-2l-2 21l259 95h15l-7 -36z" />
    <glyph glyph-name="nacute" unicode="&#x144;" horiz-adv-x="688" 
d="M95 0l103 530h30l-21 -110h5q17 28 51 55.5t82.5 46t104.5 18.5q54 0 102 -19.5t79 -62t31 -106.5q0 -25 -6 -54l-58 -298h-30l58 299q5 27 5 45q0 74 -49.5 120t-140.5 46q-55 0 -105 -24.5t-86.5 -62t-57.5 -75.5l-67 -348h-30zM344 626h-2l-2 21l259 95h15l-7 -36z
" />
    <glyph glyph-name="uni0145" unicode="&#x145;" horiz-adv-x="836" 
d="M135 0h-30l136 700h50l409 -673h5l132 673h30l-136 -700h-50l-410 673h-5zM336 -290l5 25h10q39 0 65.5 29t26.5 74q0 22 -14 33q-5 -8 -13.5 -13.5t-18.5 -5.5q-14 0 -22 8t-8 18q0 14 11 22.5t27 8.5q26 0 44.5 -19.5t18.5 -51.5q0 -56 -34.5 -92t-83.5 -36h-14z" />
    <glyph glyph-name="uni0146" unicode="&#x146;" horiz-adv-x="688" 
d="M95 0l103 530h30l-21 -110h5q17 28 51 55.5t82.5 46t104.5 18.5q54 0 102 -19.5t79 -62t31 -106.5q0 -25 -6 -54l-58 -298h-30l58 299q5 27 5 45q0 74 -49.5 120t-140.5 46q-55 0 -105 -24.5t-86.5 -62t-57.5 -75.5l-67 -348h-30zM264 -290l5 25h10q39 0 65.5 29t26.5 74
q0 22 -14 33q-5 -8 -13.5 -13.5t-18.5 -5.5q-14 0 -22 8t-8 18q0 14 11 22.5t27 8.5q26 0 44.5 -19.5t18.5 -51.5q0 -56 -34.5 -92t-83.5 -36h-14z" />
    <glyph glyph-name="Ncaron" unicode="&#x147;" horiz-adv-x="836" 
d="M135 0h-30l136 700h50l409 -673h5l132 673h30l-136 -700h-50l-410 673h-5zM575 780h-39l-139 130h41l116 -107h7l156 107h47z" />
    <glyph glyph-name="ncaron" unicode="&#x148;" horiz-adv-x="688" 
d="M95 0l103 530h30l-21 -110h5q17 28 51 55.5t82.5 46t104.5 18.5q54 0 102 -19.5t79 -62t31 -106.5q0 -25 -6 -54l-58 -298h-30l58 299q5 27 5 45q0 74 -49.5 120t-140.5 46q-55 0 -105 -24.5t-86.5 -62t-57.5 -75.5l-67 -348h-30zM475 620h-39l-139 130h41l116 -107h7
l156 107h47z" />
    <glyph glyph-name="napostrophe" unicode="&#x149;" horiz-adv-x="698" 
d="M82 523l5 24h10q38 0 66 30t28 77q0 20 -14 32q-4 -8 -12 -13.5t-18 -5.5q-15 0 -23.5 7.5t-8.5 18.5q0 14 10.5 23t27.5 9q28 0 45.5 -19.5t17.5 -51.5q0 -39 -17 -68.5t-44.5 -46t-58.5 -16.5h-14zM105 0l103 530h30l-21 -110h5q17 28 51 55.5t82.5 46t104.5 18.5
q54 0 102 -19.5t79 -62t31 -106.5q0 -25 -6 -54l-58 -298h-30l58 299q5 27 5 45q0 74 -49.5 120t-140.5 46q-55 0 -105 -24.5t-86.5 -62t-57.5 -75.5l-67 -348h-30z" />
    <glyph glyph-name="Eng" unicode="&#x14a;" horiz-adv-x="835" 
d="M495 -186l6 29q37 -14 74 -14q49 0 76 29t39 87l11 55h-20l-410 673h-5l-131 -673h-30l136 700h50l409 -673h5l132 673h30l-147 -756q-14 -72 -48.5 -108t-97.5 -36q-40 0 -79 14z" />
    <glyph glyph-name="eng" unicode="&#x14b;" horiz-adv-x="688" 
d="M359 -186l6 29q37 -14 76 -14q51 0 78.5 30t39.5 91l67 349q5 27 5 45q0 74 -49.5 120t-140.5 46q-55 0 -105 -24.5t-86.5 -62t-57.5 -75.5l-67 -348h-30l103 530h30l-21 -110h5q17 28 51 55.5t82.5 46t104.5 18.5q54 0 102 -19.5t79 -62t31 -106.5q0 -25 -6 -54
l-68 -354q-14 -72 -48.5 -108t-99.5 -36q-42 0 -81 14z" />
    <glyph glyph-name="Omacron" unicode="&#x14c;" horiz-adv-x="1012" 
d="M336 35q-98 45 -148.5 121t-50.5 169q0 108 55.5 196t155.5 138.5t229 50.5q136 0 234 -45t148.5 -121t50.5 -169q0 -108 -55.5 -196t-155.5 -138.5t-229 -50.5q-136 0 -234 45zM784 67q93 47 144.5 128t51.5 180q0 84 -47 153.5t-138 110.5t-218 41q-121 0 -214 -47
t-144.5 -128t-51.5 -180q0 -84 47 -153.5t138 -110.5t218 -41q121 0 214 47zM786 828h-344l6 30h344z" />
    <glyph glyph-name="omacron" unicode="&#x14d;" horiz-adv-x="774" 
d="M261 24q-72 34 -109 92t-37 129q0 82 42.5 149.5t118 106.5t169.5 39q99 0 171 -34t109 -92t37 -129q0 -82 -42.5 -149.5t-118 -106.5t-169.5 -39q-99 0 -171 34zM587.5 55q68.5 35 106.5 95.5t38 134.5q0 62 -34 113.5t-98.5 81.5t-154.5 30q-87 0 -155.5 -35
t-106.5 -95.5t-38 -134.5q0 -62 34 -113.5t98.5 -81.5t154.5 -30q87 0 155.5 35zM656 668h-344l6 30h344z" />
    <glyph glyph-name="Obreve" unicode="&#x14e;" horiz-adv-x="1012" 
d="M336 35q-98 45 -148.5 121t-50.5 169q0 108 55.5 196t155.5 138.5t229 50.5q136 0 234 -45t148.5 -121t50.5 -169q0 -108 -55.5 -196t-155.5 -138.5t-229 -50.5q-136 0 -234 45zM784 67q93 47 144.5 128t51.5 180q0 84 -47 153.5t-138 110.5t-218 41q-121 0 -214 -47
t-144.5 -128t-51.5 -180q0 -84 47 -153.5t138 -110.5t218 -41q121 0 214 47zM504 816q-39 31 -39 84h30q0 -40 32.5 -63.5t94.5 -23.5q60 0 90 24t33 63h30q-5 -52 -43.5 -83.5t-112.5 -31.5q-76 0 -115 31z" />
    <glyph glyph-name="obreve" unicode="&#x14f;" horiz-adv-x="774" 
d="M261 24q-72 34 -109 92t-37 129q0 82 42.5 149.5t118 106.5t169.5 39q99 0 171 -34t109 -92t37 -129q0 -82 -42.5 -149.5t-118 -106.5t-169.5 -39q-99 0 -171 34zM587.5 55q68.5 35 106.5 95.5t38 134.5q0 62 -34 113.5t-98.5 81.5t-154.5 30q-87 0 -155.5 -35
t-106.5 -95.5t-38 -134.5q0 -62 34 -113.5t98.5 -81.5t154.5 -30q87 0 155.5 35zM374 656q-39 31 -39 84h30q0 -40 32.5 -63.5t94.5 -23.5q60 0 90 24t33 63h30q-5 -52 -43.5 -83.5t-112.5 -31.5q-76 0 -115 31z" />
    <glyph glyph-name="Ohungarumlaut" unicode="&#x150;" horiz-adv-x="1012" 
d="M336 35q-98 45 -148.5 121t-50.5 169q0 108 55.5 196t155.5 138.5t229 50.5q136 0 234 -45t148.5 -121t50.5 -169q0 -108 -55.5 -196t-155.5 -138.5t-229 -50.5q-136 0 -234 45zM784 67q93 47 144.5 128t51.5 180q0 84 -47 153.5t-138 110.5t-218 41q-121 0 -214 -47
t-144.5 -128t-51.5 -180q0 -84 47 -153.5t138 -110.5t218 -41q121 0 214 47zM418 786h-1l-2 20l219 96h15l-7 -33zM619 786h-1l-2 20l219 96h15l-7 -33z" />
    <glyph glyph-name="ohungarumlaut" unicode="&#x151;" horiz-adv-x="774" 
d="M261 24q-72 34 -109 92t-37 129q0 82 42.5 149.5t118 106.5t169.5 39q99 0 171 -34t109 -92t37 -129q0 -82 -42.5 -149.5t-118 -106.5t-169.5 -39q-99 0 -171 34zM587.5 55q68.5 35 106.5 95.5t38 134.5q0 62 -34 113.5t-98.5 81.5t-154.5 30q-87 0 -155.5 -35
t-106.5 -95.5t-38 -134.5q0 -62 34 -113.5t98.5 -81.5t154.5 -30q87 0 155.5 35zM288 626h-1l-2 20l219 96h15l-7 -33zM489 626h-1l-2 20l219 96h15l-7 -33z" />
    <glyph glyph-name="OE" unicode="&#x152;" horiz-adv-x="1247" 
d="M1297 670h-487l-58 -296h447l-6 -30h-447l-61 -314h507l-5 -30h-477q-75 -10 -130 -10q-137 0 -237 42t-153 118t-53 176q0 110 57.5 197t169 137t266.5 50q94 0 157 -10h516zM780 668q-82 12 -153 12q-144 0 -248 -45.5t-158 -125t-54 -178.5q0 -91 49.5 -161.5
t143 -110t220.5 -39.5q48 0 75 5z" />
    <glyph glyph-name="oe" unicode="&#x153;" horiz-adv-x="1276" 
d="M257 24q-70 34 -106 92t-36 129q0 82 41.5 149.5t114.5 106.5t164 39q117 0 194 -49.5t101 -130.5h5q34 82 107.5 131t165.5 49q78 0 137 -31t91.5 -86.5t32.5 -125.5q0 -28 -4 -51h-524q0 -65 32 -116t93.5 -80.5t146.5 -29.5q51 0 98.5 13t74.5 30l-6 -33
q-26 -16 -72 -28t-97 -12q-113 0 -188 48t-100 129h-5q-36 -80 -114.5 -128.5t-180.5 -48.5q-96 0 -166 34zM573 55q66 35 103 95.5t37 134.5q0 63 -32.5 114t-95.5 81t-150 30q-84 0 -150 -35t-103 -95.5t-37 -134.5q0 -63 32.5 -114t95.5 -81t150 -30q84 0 150 35z
M1239 276q1 5 1 16q0 64 -29 113.5t-81 77t-121 27.5q-100 0 -173 -62.5t-93 -171.5h496z" />
    <glyph glyph-name="Racute" unicode="&#x154;" horiz-adv-x="819" 
d="M790.5 367q-51.5 -58 -142.5 -69l-2 -6q42 -8 66 -38t24 -75q0 -22 -4 -43l-26 -136h-30l27 139q4 22 4 35q0 50 -36.5 80.5t-115.5 30.5h-365l-55 -285h-30l136 700h345q85 0 142.5 -25.5t85.5 -67.5t28 -93q0 -89 -51.5 -147zM575 315q109 0 172.5 52.5t63.5 141.5
q0 44 -25 80.5t-77 58.5t-129 22h-315l-69 -355h379zM425 786h-2l-2 21l259 95h15l-7 -36z" />
    <glyph glyph-name="racute" unicode="&#x155;" horiz-adv-x="396" 
d="M95 0l103 530h30l-23 -116h5q27 44 84.5 80t130.5 36h54l-6 -30h-48q-54 0 -102 -24.5t-82 -61.5t-49 -74l-67 -340h-30zM212 626h-2l-2 21l259 95h15l-7 -36z" />
    <glyph glyph-name="uni0156" unicode="&#x156;" horiz-adv-x="819" 
d="M790.5 367q-51.5 -58 -142.5 -69l-2 -6q42 -8 66 -38t24 -75q0 -22 -4 -43l-26 -136h-30l27 139q4 22 4 35q0 50 -36.5 80.5t-115.5 30.5h-365l-55 -285h-30l136 700h345q85 0 142.5 -25.5t85.5 -67.5t28 -93q0 -89 -51.5 -147zM575 315q109 0 172.5 52.5t63.5 141.5
q0 44 -25 80.5t-77 58.5t-129 22h-315l-69 -355h379zM311 -290l5 25h10q39 0 65.5 29t26.5 74q0 22 -14 33q-5 -8 -13.5 -13.5t-18.5 -5.5q-14 0 -22 8t-8 18q0 14 11 22.5t27 8.5q26 0 44.5 -19.5t18.5 -51.5q0 -56 -34.5 -92t-83.5 -36h-14z" />
    <glyph glyph-name="uni0157" unicode="&#x157;" horiz-adv-x="396" 
d="M95 0l103 530h30l-23 -116h5q27 44 84.5 80t130.5 36h54l-6 -30h-48q-54 0 -102 -24.5t-82 -61.5t-49 -74l-67 -340h-30zM6 -290l5 25h10q39 0 65.5 29t26.5 74q0 22 -14 33q-5 -8 -13.5 -13.5t-18.5 -5.5q-14 0 -22 8t-8 18q0 14 11 22.5t27 8.5q26 0 44.5 -19.5
t18.5 -51.5q0 -56 -34.5 -92t-83.5 -36h-14z" />
    <glyph glyph-name="Rcaron" unicode="&#x158;" horiz-adv-x="819" 
d="M790.5 367q-51.5 -58 -142.5 -69l-2 -6q42 -8 66 -38t24 -75q0 -22 -4 -43l-26 -136h-30l27 139q4 22 4 35q0 50 -36.5 80.5t-115.5 30.5h-365l-55 -285h-30l136 700h345q85 0 142.5 -25.5t85.5 -67.5t28 -93q0 -89 -51.5 -147zM575 315q109 0 172.5 52.5t63.5 141.5
q0 44 -25 80.5t-77 58.5t-129 22h-315l-69 -355h379zM557 780h-39l-139 130h41l116 -107h7l156 107h47z" />
    <glyph glyph-name="rcaron" unicode="&#x159;" horiz-adv-x="396" 
d="M95 0l103 530h30l-23 -116h5q27 44 84.5 80t130.5 36h54l-6 -30h-48q-54 0 -102 -24.5t-82 -61.5t-49 -74l-67 -340h-30zM358 620h-39l-139 130h41l116 -107h7l156 107h47z" />
    <glyph glyph-name="Sacute" unicode="&#x15a;" horiz-adv-x="748" 
d="M258 18.5q-91 28.5 -140 64.5l7 34q43 -37 132 -67t192 -30q78 0 129.5 21t76 54.5t24.5 73.5q0 45 -33 76t-82 49.5t-132 42.5q-88 25 -141.5 46.5t-90.5 57t-37 89.5q0 47 31 88t95.5 66.5t159.5 25.5q110 0 200.5 -29t139.5 -65l-7 -35q-46 38 -136 68.5t-203 30.5
q-85 0 -141 -21t-82 -55.5t-26 -73.5q0 -43 32.5 -72.5t80.5 -48t129 -42.5q90 -26 144 -48t92 -58.5t38 -91.5q0 -48 -29 -88.5t-88 -65.5t-144 -25q-100 0 -191 28.5zM374 786h-2l-2 21l259 95h15l-7 -36z" />
    <glyph glyph-name="sacute" unicode="&#x15b;" horiz-adv-x="595" 
d="M207 12.5q-72 22.5 -111 52.5l6 31q37 -30 106.5 -53t159.5 -23q83 0 126 28t43 67q0 35 -26 59t-63.5 39t-103.5 36q-70 22 -113.5 40t-73 47.5t-29.5 72.5q0 55 52.5 93t161.5 38q96 0 172 -24.5t121 -55.5l-6 -32q-46 31 -122 56.5t-168 25.5q-93 0 -137 -29.5
t-44 -68.5q0 -35 26 -59t64.5 -40t103.5 -36q71 -22 114 -40t72.5 -47t29.5 -72q0 -35 -22 -64t-67 -46.5t-111 -17.5q-89 0 -161 22.5zM283 626h-2l-2 21l259 95h15l-7 -36z" />
    <glyph glyph-name="Scircumflex" unicode="&#x15c;" horiz-adv-x="748" 
d="M258 18.5q-91 28.5 -140 64.5l7 34q43 -37 132 -67t192 -30q78 0 129.5 21t76 54.5t24.5 73.5q0 45 -33 76t-82 49.5t-132 42.5q-88 25 -141.5 46.5t-90.5 57t-37 89.5q0 47 31 88t95.5 66.5t159.5 25.5q110 0 200.5 -29t139.5 -65l-7 -35q-46 38 -136 68.5t-203 30.5
q-85 0 -141 -21t-82 -55.5t-26 -73.5q0 -43 32.5 -72.5t80.5 -48t129 -42.5q90 -26 144 -48t92 -58.5t38 -91.5q0 -48 -29 -88.5t-88 -65.5t-144 -25q-100 0 -191 28.5zM364 780h-47l189 130h39l139 -130h-41l-115 107h-7z" />
    <glyph glyph-name="scircumflex" unicode="&#x15d;" horiz-adv-x="595" 
d="M207 12.5q-72 22.5 -111 52.5l6 31q37 -30 106.5 -53t159.5 -23q83 0 126 28t43 67q0 35 -26 59t-63.5 39t-103.5 36q-70 22 -113.5 40t-73 47.5t-29.5 72.5q0 55 52.5 93t161.5 38q96 0 172 -24.5t121 -55.5l-6 -32q-46 31 -122 56.5t-168 25.5q-93 0 -137 -29.5
t-44 -68.5q0 -35 26 -59t64.5 -40t103.5 -36q71 -22 114 -40t72.5 -47t29.5 -72q0 -35 -22 -64t-67 -46.5t-111 -17.5q-89 0 -161 22.5zM259 620h-47l189 130h39l139 -130h-41l-115 107h-7z" />
    <glyph glyph-name="Scedilla" unicode="&#x15e;" horiz-adv-x="748" 
d="M302 659q-56 -21 -82 -55.5t-26 -73.5q0 -43 32.5 -72.5t80.5 -48t129 -42.5q90 -26 144 -48t92 -58.5t38 -91.5q0 -48 -29 -88.5t-88 -65.5t-144 -25q-16 0 -50 2l-28 -50h30q50 0 75.5 -22t25.5 -55q0 -41 -33.5 -65t-92.5 -24q-45 0 -82 12l5 26q35 -9 77 -9
q47 0 71.5 15.5t24.5 41.5q0 22 -17 36.5t-57 14.5h-60l-9 11l38 71q-77 11 -144.5 36t-104.5 52l7 34q43 -37 132 -67t192 -30q78 0 129.5 21t76 54.5t24.5 73.5q0 45 -33 76t-82 49.5t-132 42.5q-88 25 -141.5 46.5t-90.5 57t-37 89.5q0 47 31 88t95.5 66.5t159.5 25.5
q110 0 200.5 -29t139.5 -65l-7 -35q-46 38 -136 68.5t-203 30.5q-85 0 -141 -21z" />
    <glyph glyph-name="scedilla" unicode="&#x15f;" horiz-adv-x="595" 
d="M202 480.5q-44 -29.5 -44 -68.5q0 -35 26 -59t64.5 -40t103.5 -36q71 -22 114 -40t72.5 -47t29.5 -72q0 -35 -22 -64t-67 -46.5t-111 -17.5q-16 0 -44 2l-28 -50h30q50 0 75.5 -22t25.5 -55q0 -41 -33.5 -65t-92.5 -24q-45 0 -82 12l5 26q35 -9 77 -9q47 0 71.5 15.5
t24.5 41.5q0 22 -17 36.5t-57 14.5h-60l-9 11l38 71q-64 8 -115.5 27.5t-80.5 42.5l6 31q37 -30 106.5 -53t159.5 -23q83 0 126 28t43 67q0 35 -26 59t-63.5 39t-103.5 36q-70 22 -113.5 40t-73 47.5t-29.5 72.5q0 55 52.5 93t161.5 38q96 0 172 -24.5t121 -55.5l-6 -32
q-46 31 -122 56.5t-168 25.5q-93 0 -137 -29.5z" />
    <glyph glyph-name="Scaron" unicode="&#x160;" horiz-adv-x="748" 
d="M258 18.5q-91 28.5 -140 64.5l7 34q43 -37 132 -67t192 -30q78 0 129.5 21t76 54.5t24.5 73.5q0 45 -33 76t-82 49.5t-132 42.5q-88 25 -141.5 46.5t-90.5 57t-37 89.5q0 47 31 88t95.5 66.5t159.5 25.5q110 0 200.5 -29t139.5 -65l-7 -35q-46 38 -136 68.5t-203 30.5
q-85 0 -141 -21t-82 -55.5t-26 -73.5q0 -43 32.5 -72.5t80.5 -48t129 -42.5q90 -26 144 -48t92 -58.5t38 -91.5q0 -48 -29 -88.5t-88 -65.5t-144 -25q-100 0 -191 28.5zM520 780h-39l-139 130h41l116 -107h7l156 107h47z" />
    <glyph glyph-name="scaron" unicode="&#x161;" horiz-adv-x="595" 
d="M207 12.5q-72 22.5 -111 52.5l6 31q37 -30 106.5 -53t159.5 -23q83 0 126 28t43 67q0 35 -26 59t-63.5 39t-103.5 36q-70 22 -113.5 40t-73 47.5t-29.5 72.5q0 55 52.5 93t161.5 38q96 0 172 -24.5t121 -55.5l-6 -32q-46 31 -122 56.5t-168 25.5q-93 0 -137 -29.5
t-44 -68.5q0 -35 26 -59t64.5 -40t103.5 -36q71 -22 114 -40t72.5 -47t29.5 -72q0 -35 -22 -64t-67 -46.5t-111 -17.5q-89 0 -161 22.5zM415 620h-39l-139 130h41l116 -107h7l156 107h47z" />
    <glyph glyph-name="uni0162" unicode="&#x162;" horiz-adv-x="662" 
d="M461 670l-130 -670l-33 -58h30q50 0 75.5 -22t25.5 -55q0 -41 -33.5 -65t-92.5 -24q-45 0 -82 12l5 26q35 -9 77 -9q47 0 71.5 15.5t24.5 41.5q0 22 -17 36.5t-57 14.5h-60l-9 11l47 87l128 659h-306l6 30h642l-6 -30h-306z" />
    <glyph glyph-name="uni0163" unicode="&#x163;" horiz-adv-x="348" 
d="M236 500l-67 -343q-6 -34 -6 -53q0 -42 23.5 -63t64.5 -21q42 0 69 11l-6 -30q-30 -11 -65 -11q-10 0 -15 1l-28 -49h30q50 0 75.5 -22t25.5 -55q0 -41 -33.5 -65t-92.5 -24q-45 0 -82 12l5 26q35 -9 77 -9q47 0 71.5 15.5t24.5 41.5q0 22 -17 36.5t-57 14.5h-60l-9 11
l39 73q-32 11 -51 38t-19 67q0 21 6 55l67 343h-114l6 30h81q18 0 26.5 9t13.5 31l20 100h30l-27 -140h174l-6 -30h-174z" />
    <glyph glyph-name="Tcaron" unicode="&#x164;" horiz-adv-x="662" 
d="M131 700h642l-6 -30h-306l-130 -670h-30l130 670h-306zM480 780h-39l-139 130h41l116 -107h7l156 107h47z" />
    <glyph glyph-name="tcaron" unicode="&#x165;" horiz-adv-x="328" 
d="M277 476l5 25h10q39 0 66 28t27 75q0 21 -14 33q-4 -8 -12 -13.5t-18 -5.5q-15 0 -23.5 7t-8.5 18q0 14 10.5 23t27.5 9q28 0 45.5 -19.5t17.5 -51.5q0 -39 -16.5 -68t-44 -44.5t-58.5 -15.5h-14zM165.5 19q-32.5 29 -32.5 83q0 21 6 55l67 343h-114l6 30h81q18 0 26.5 9
t13.5 31l20 100h30l-100 -513q-6 -34 -6 -53q0 -42 23.5 -63t64.5 -21q42 0 69 11l-6 -30q-30 -11 -65 -11q-51 0 -83.5 29z" />
    <glyph glyph-name="Tbar" unicode="&#x166;" horiz-adv-x="662" 
d="M773 700l-6 -30h-306l-44 -223h183l-5 -30h-183l-81 -417h-30l81 417h-183l5 30h183l44 223h-306l6 30h642z" />
    <glyph glyph-name="tbar" unicode="&#x167;" horiz-adv-x="373" 
d="M415 500h-174l-33 -170h174l-6 -30h-174l-28 -143q-6 -34 -6 -53q0 -42 23.5 -63t64.5 -21q42 0 69 11l-6 -30q-30 -11 -65 -11q-51 0 -83.5 29t-32.5 83q0 21 6 55l28 143h-114l6 30h114l33 170h-114l6 30h81q18 0 26.5 9t13.5 31l20 100h30l-27 -140h174z" />
    <glyph glyph-name="Utilde" unicode="&#x168;" horiz-adv-x="828" 
d="M230 56.5q-79 66.5 -79 179.5q0 26 7 66l78 398h30l-77 -395q-6 -33 -6 -62q0 -102 70.5 -162.5t204.5 -60.5q117 0 192 60.5t96 169.5l88 450h30l-89 -458q-23 -118 -106.5 -185t-210.5 -67q-149 0 -228 66.5zM596.5 806q-20.5 11 -46.5 33q-21 18 -37.5 27.5t-36.5 9.5
q-21 0 -36.5 -13t-19.5 -36l-5 -27h-29l6 31q7 35 29.5 54.5t54.5 19.5q27 0 47.5 -11t46.5 -33q21 -18 37.5 -27.5t36.5 -9.5q21 0 36.5 13t19.5 36l5 27h29l-6 -31q-7 -35 -29.5 -54.5t-54.5 -19.5q-27 0 -47.5 11z" />
    <glyph glyph-name="utilde" unicode="&#x169;" horiz-adv-x="688" 
d="M239 9.5q-48 19.5 -79 62t-31 106.5q0 26 6 54l58 298h30l-58 -299q-5 -27 -5 -45q0 -74 49.5 -120t140.5 -46q55 0 105 24.5t86.5 62t57.5 75.5l67 348h30l-103 -530h-30l21 110h-5q-17 -28 -51 -55.5t-82.5 -46t-104.5 -18.5q-54 0 -102 19.5zM498.5 646
q-20.5 11 -46.5 33q-21 18 -37.5 27.5t-36.5 9.5q-21 0 -36.5 -13t-19.5 -36l-5 -27h-29l6 31q7 35 29.5 54.5t54.5 19.5q27 0 47.5 -11t46.5 -33q21 -18 37.5 -27.5t36.5 -9.5q21 0 36.5 13t19.5 36l5 27h29l-6 -31q-7 -35 -29.5 -54.5t-54.5 -19.5q-27 0 -47.5 11z" />
    <glyph glyph-name="Umacron" unicode="&#x16a;" horiz-adv-x="828" 
d="M230 56.5q-79 66.5 -79 179.5q0 26 7 66l78 398h30l-77 -395q-6 -33 -6 -62q0 -102 70.5 -162.5t204.5 -60.5q117 0 192 60.5t96 169.5l88 450h30l-89 -458q-23 -118 -106.5 -185t-210.5 -67q-149 0 -228 66.5zM726 828h-344l6 30h344z" />
    <glyph glyph-name="umacron" unicode="&#x16b;" horiz-adv-x="688" 
d="M239 9.5q-48 19.5 -79 62t-31 106.5q0 26 6 54l58 298h30l-58 -299q-5 -27 -5 -45q0 -74 49.5 -120t140.5 -46q55 0 105 24.5t86.5 62t57.5 75.5l67 348h30l-103 -530h-30l21 110h-5q-17 -28 -51 -55.5t-82.5 -46t-104.5 -18.5q-54 0 -102 19.5zM628 668h-344l6 30h344z
" />
    <glyph glyph-name="Ubreve" unicode="&#x16c;" horiz-adv-x="828" 
d="M230 56.5q-79 66.5 -79 179.5q0 26 7 66l78 398h30l-77 -395q-6 -33 -6 -62q0 -102 70.5 -162.5t204.5 -60.5q117 0 192 60.5t96 169.5l88 450h30l-89 -458q-23 -118 -106.5 -185t-210.5 -67q-149 0 -228 66.5zM444 816q-39 31 -39 84h30q0 -40 32.5 -63.5t94.5 -23.5
q60 0 90 24t33 63h30q-5 -52 -43.5 -83.5t-112.5 -31.5q-76 0 -115 31z" />
    <glyph glyph-name="ubreve" unicode="&#x16d;" horiz-adv-x="688" 
d="M239 9.5q-48 19.5 -79 62t-31 106.5q0 26 6 54l58 298h30l-58 -299q-5 -27 -5 -45q0 -74 49.5 -120t140.5 -46q55 0 105 24.5t86.5 62t57.5 75.5l67 348h30l-103 -530h-30l21 110h-5q-17 -28 -51 -55.5t-82.5 -46t-104.5 -18.5q-54 0 -102 19.5zM346 656q-39 31 -39 84
h30q0 -40 32.5 -63.5t94.5 -23.5q60 0 90 24t33 63h30q-5 -52 -43.5 -83.5t-112.5 -31.5q-76 0 -115 31z" />
    <glyph glyph-name="Uring" unicode="&#x16e;" horiz-adv-x="828" 
d="M230 56.5q-79 66.5 -79 179.5q0 26 7 66l78 398h30l-77 -395q-6 -33 -6 -62q0 -102 70.5 -162.5t204.5 -60.5q117 0 192 60.5t96 169.5l88 450h30l-89 -458q-23 -118 -106.5 -185t-210.5 -67q-149 0 -228 66.5zM469 777.5q-32 24.5 -32 62.5q0 44 32 70.5t83 26.5
q54 0 86 -24.5t32 -62.5q0 -44 -32 -70.5t-83 -26.5q-54 0 -86 24.5zM619 798q24 19 24 52q0 26 -24 43.5t-67 17.5q-40 0 -64 -19t-24 -52q0 -26 24 -43.5t67 -17.5q40 0 64 19z" />
    <glyph glyph-name="uring" unicode="&#x16f;" horiz-adv-x="688" 
d="M239 9.5q-48 19.5 -79 62t-31 106.5q0 26 6 54l58 298h30l-58 -299q-5 -27 -5 -45q0 -74 49.5 -120t140.5 -46q55 0 105 24.5t86.5 62t57.5 75.5l67 348h30l-103 -530h-30l21 110h-5q-17 -28 -51 -55.5t-82.5 -46t-104.5 -18.5q-54 0 -102 19.5zM371 617.5
q-32 24.5 -32 62.5q0 44 32 70.5t83 26.5q54 0 86 -24.5t32 -62.5q0 -44 -32 -70.5t-83 -26.5q-54 0 -86 24.5zM521 638q24 19 24 52q0 26 -24 43.5t-67 17.5q-40 0 -64 -19t-24 -52q0 -26 24 -43.5t67 -17.5q40 0 64 19z" />
    <glyph glyph-name="Uhungarumlaut" unicode="&#x170;" horiz-adv-x="828" 
d="M230 56.5q-79 66.5 -79 179.5q0 26 7 66l78 398h30l-77 -395q-6 -33 -6 -62q0 -102 70.5 -162.5t204.5 -60.5q117 0 192 60.5t96 169.5l88 450h30l-89 -458q-23 -118 -106.5 -185t-210.5 -67q-149 0 -228 66.5zM358 786h-1l-2 20l219 96h15l-7 -33zM559 786h-1l-2 20
l219 96h15l-7 -33z" />
    <glyph glyph-name="uhungarumlaut" unicode="&#x171;" horiz-adv-x="688" 
d="M239 9.5q-48 19.5 -79 62t-31 106.5q0 26 6 54l58 298h30l-58 -299q-5 -27 -5 -45q0 -74 49.5 -120t140.5 -46q55 0 105 24.5t86.5 62t57.5 75.5l67 348h30l-103 -530h-30l21 110h-5q-17 -28 -51 -55.5t-82.5 -46t-104.5 -18.5q-54 0 -102 19.5zM260 626h-1l-2 20l219 96
h15l-7 -33zM461 626h-1l-2 20l219 96h15l-7 -33z" />
    <glyph glyph-name="Uogonek" unicode="&#x172;" horiz-adv-x="828" 
d="M834 700h30l-89 -458q-18 -91 -69.5 -150t-130.5 -84q-73 -23 -131 -62.5t-58 -75.5q0 -17 17.5 -29t53.5 -12q38 0 68 7l-6 -30q-29 -7 -67 -7q-49 0 -74 18t-25 46q0 46 38.5 76t78.5 47l1 4h-13q-149 0 -228 66.5t-79 179.5q0 26 7 66l78 398h30l-77 -395
q-6 -33 -6 -62q0 -102 70.5 -162.5t204.5 -60.5q117 0 192 60.5t96 169.5z" />
    <glyph glyph-name="uogonek" unicode="&#x173;" horiz-adv-x="688" 
d="M593 0q-69 -23 -122.5 -58.5t-53.5 -71.5q0 -17 17.5 -29t53.5 -12q38 0 68 7l-6 -30q-29 -7 -67 -7q-49 0 -74 18t-25 46q0 48 51 84t130 66l19 97h-5q-17 -28 -51 -55.5t-82.5 -46t-104.5 -18.5q-54 0 -102 19.5t-79 62t-31 106.5q0 26 6 54l58 298h30l-58 -299
q-5 -27 -5 -45q0 -74 49.5 -120t140.5 -46q55 0 105 24.5t86.5 62t57.5 75.5l67 348h30z" />
    <glyph glyph-name="Wcircumflex" unicode="&#x174;" horiz-adv-x="1185" 
d="M317 0h-48l-143 700h30l137 -671h5l385 671h45l123 -671h5l399 671h36l-415 -700h-48l-124 667h-5zM574 780h-47l189 130h39l139 -130h-41l-115 107h-7z" />
    <glyph glyph-name="wcircumflex" unicode="&#x175;" horiz-adv-x="921" 
d="M243 0h-43l-112 530h29l106 -500h4l294 500h41l98 -500h4l302 500h33l-318 -530h-43l-99 497h-5zM414 620h-47l189 130h39l139 -130h-41l-115 107h-7z" />
    <glyph glyph-name="Ycircumflex" unicode="&#x176;" horiz-adv-x="729" 
d="M355 0h-30l31 160l-260 540h32l243 -506h5l441 506h38l-469 -540zM339 780h-47l189 130h39l139 -130h-41l-115 107h-7z" />
    <glyph glyph-name="ycircumflex" unicode="&#x177;" horiz-adv-x="548" 
d="M124 -190h-35l170 241l-176 479h32l163 -444h5l313 444h35zM225 620h-47l189 130h39l139 -130h-41l-115 107h-7z" />
    <glyph glyph-name="Ydieresis" unicode="&#x178;" horiz-adv-x="729" 
d="M355 0h-30l31 160l-260 540h32l243 -506h5l441 506h38l-469 -540zM374.5 823q-8.5 8 -8.5 20q0 13 10.5 22.5t27.5 9.5q14 0 23 -8t9 -20q0 -13 -11 -22.5t-27 -9.5q-15 0 -23.5 8zM548.5 823q-8.5 8 -8.5 20q0 13 11 22.5t27 9.5q15 0 23.5 -8t8.5 -20q0 -13 -11 -22.5
t-27 -9.5q-15 0 -23.5 8z" />
    <glyph glyph-name="Zacute" unicode="&#x179;" horiz-adv-x="652" 
d="M622 0h-607l5 30l663 635l1 5h-520l6 30h568l-6 -30l-663 -635l-1 -5h559zM350 786h-2l-2 21l259 95h15l-7 -36z" />
    <glyph glyph-name="zacute" unicode="&#x17a;" horiz-adv-x="533" 
d="M513 0h-498l5 29l527 467l1 4h-431l5 29h478l-5 -28l-527 -467l-1 -4h451zM256 626h-2l-2 21l259 95h15l-7 -36z" />
    <glyph glyph-name="Zdotaccent" unicode="&#x17b;" horiz-adv-x="652" 
d="M622 0h-607l5 30l663 635l1 5h-520l6 30h568l-6 -30l-663 -635l-1 -5h559zM444.5 823q-8.5 8 -8.5 20q0 13 10.5 22.5t27.5 9.5q14 0 23 -8t9 -20q0 -13 -11 -22.5t-27 -9.5q-15 0 -23.5 8z" />
    <glyph glyph-name="zdotaccent" unicode="&#x17c;" horiz-adv-x="533" 
d="M513 0h-498l5 29l527 467l1 4h-431l5 29h478l-5 -28l-527 -467l-1 -4h451zM349.5 663q-8.5 8 -8.5 20q0 13 10.5 22.5t27.5 9.5q14 0 23 -8t9 -20q0 -13 -11 -22.5t-27 -9.5q-15 0 -23.5 8z" />
    <glyph glyph-name="Zcaron" unicode="&#x17d;" horiz-adv-x="652" 
d="M622 0h-607l5 30l663 635l1 5h-520l6 30h568l-6 -30l-663 -635l-1 -5h559zM480 780h-39l-139 130h41l116 -107h7l156 107h47z" />
    <glyph glyph-name="zcaron" unicode="&#x17e;" horiz-adv-x="533" 
d="M513 0h-498l5 29l527 467l1 4h-431l5 29h478l-5 -28l-527 -467l-1 -4h451zM385 620h-39l-139 130h41l116 -107h7l156 107h47z" />
    <glyph glyph-name="uni018F" unicode="&#x18f;" horiz-adv-x="953" 
d="M752 665q98 -45 148.5 -121t50.5 -169q0 -108 -54.5 -196t-152 -138.5t-220.5 -50.5q-121 0 -209 43.5t-134 118.5t-46 167q0 29 4 53h782v3q0 84 -47 153.5t-138 110.5t-218 41q-76 0 -143.5 -17t-109.5 -37l7 35q41 18 107 33.5t139 15.5q136 0 234 -45zM719 62
q87 42 139.5 115.5t60.5 164.5h-754l-1 -22q0 -82 42 -150.5t123.5 -109t194.5 -40.5q108 0 195 42z" />
    <glyph glyph-name="florin" unicode="&#x192;" horiz-adv-x="443" 
d="M-92 -190l8 30h73q38 0 60.5 9t38 31.5t28.5 64.5l173 555h-110l9 30h110l18 60q22 73 57.5 101.5t106.5 28.5h98l-8 -30h-98q-38 0 -60.5 -9t-38 -31.5t-28.5 -64.5l-17 -55h180l-9 -30h-180l-174 -560q-23 -73 -58.5 -101.5t-105.5 -28.5h-73z" />
    <glyph glyph-name="uni01F4" unicode="&#x1f4;" horiz-adv-x="900" 
d="M326.5 35q-91.5 45 -140.5 121.5t-49 168.5q0 109 56 196.5t158 138t236 50.5q110 0 198.5 -29t148.5 -70l-7 -36q-57 43 -143 74t-197 31q-125 0 -220.5 -47t-147.5 -128t-52 -180q0 -83 45.5 -152.5t130.5 -111t198 -41.5q74 0 145 15.5t112 34.5l43 219h-335l6 30h365
l-53 -271q-44 -22 -121.5 -40t-161.5 -18q-123 0 -214.5 45zM479 786h-2l-2 21l259 95h15l-7 -36z" />
    <glyph glyph-name="uni01F5" unicode="&#x1f5;" 
d="M205.5 -177.5q-69.5 22.5 -105.5 50.5l7 33q30 -29 97.5 -52.5t152.5 -23.5q108 0 179 58.5t90 155.5l15 77h-5q-34 -42 -100.5 -76.5t-145.5 -34.5q-83 0 -144 32t-94 87t-33 121q0 84 40 150t110 103t156 37q65 0 120 -20t92.5 -49.5t55.5 -60.5h4l24 120h30l-95 -489
q-21 -110 -100.5 -175.5t-200.5 -65.5q-80 0 -149.5 22.5zM501 62q53 22 92 56t61 68l34 176q-16 35 -52 69t-90.5 56.5t-121.5 22.5q-79 0 -141.5 -33t-97.5 -92.5t-35 -134.5q0 -56 28.5 -104t82.5 -77t129 -29q58 0 111 22zM334 626h-2l-2 21l259 95h15l-7 -36z" />
    <glyph glyph-name="Aringacute" unicode="&#x1fa;" horiz-adv-x="760" 
d="M750 0l-71 219h-477l-156 -219h-36l484 677q-33 9 -52 30.5t-19 50.5q0 53 47 81l175 96h15l-7 -39l-98 -42q47 -4 74 -27.5t27 -58.5q0 -40 -26 -65.5t-69 -30.5l219 -672h-30zM474 714.5q24 -17.5 67 -17.5q40 0 64 19t24 52q0 26 -24 43.5t-67 17.5q-40 0 -64 -19
t-24 -52q0 -26 24 -43.5zM525 671l-301 -422h445l-138 422h-6z" />
    <glyph glyph-name="aringacute" unicode="&#x1fb;" horiz-adv-x="676" 
d="M367 617.5q-32 24.5 -32 62.5q0 53 47 81l175 96h15l-7 -39l-98 -42q47 -4 74 -27.5t27 -58.5q0 -44 -32 -70.5t-83 -26.5q-54 0 -86 24.5zM517 638q24 19 24 52q0 26 -24 43.5t-67 17.5q-40 0 -64 -19t-24 -52q0 -26 24 -43.5t67 -17.5q40 0 64 19zM137.5 30
q-56.5 40 -56.5 107q0 70 59.5 116t176.5 46h152q161 0 161 90q0 29 -24.5 56.5t-78.5 45.5t-138 18q-62 0 -121 -11.5t-95 -25.5l6 33q31 13 88 24t120 11q95 0 156 -21.5t89 -55t28 -71.5q0 -7 -2 -21l-72 -371h-30l19 103q-34 -43 -108 -78t-167 -35q-106 0 -162.5 40z
M468.5 59q75.5 39 114.5 87l33 166q-8 -16 -48.5 -29.5t-106.5 -13.5h-147q-104 0 -153 -35t-49 -97q0 -51 52.5 -84t140.5 -33t163.5 39z" />
    <glyph glyph-name="AEacute" unicode="&#x1fc;" horiz-adv-x="1118" 
d="M1174 700l-6 -30h-473l-58 -296h433l-6 -30h-433l-61 -314h493l-5 -30h-523l42 219h-392l-149 -219h-36l476 700h698zM205 249h378l82 421h-174zM677 786h-2l-2 21l259 95h15l-7 -36z" />
    <glyph glyph-name="aeacute" unicode="&#x1fd;" horiz-adv-x="1155" 
d="M618 260v-6v-16q0 -100 71.5 -159t201.5 -59q55 0 103 12.5t73 28.5l-6 -33q-25 -14 -72.5 -26t-101.5 -12q-101 0 -171 34t-103 96h-6q-50 -45 -132.5 -87.5t-181.5 -42.5q-108 0 -160 41.5t-52 103.5q0 68 53.5 111.5t151.5 43.5h307l9 45q3 17 3 38q0 137 -217 137
q-66 0 -122.5 -10t-92.5 -22l6 32q36 12 88 21t112 9q242 0 251 -136h4q36 63 104 101t154 38q77 0 136 -31t91 -85t32 -120q0 -27 -4 -47h-529zM763 486q-56 -28 -93 -79t-48 -117h498q1 5 1 16q0 60 -30.5 107.5t-84 74t-121.5 26.5q-66 0 -122 -28zM468 61q80 41 133 88
q-14 39 -14 84q0 18 1 27h-302q-84 0 -129.5 -35t-45.5 -90q0 -48 45.5 -81.5t141.5 -33.5q90 0 170 41zM579 626h-2l-2 21l259 95h15l-7 -36z" />
    <glyph glyph-name="Oslashacute" unicode="&#x1fe;" horiz-adv-x="1012" 
d="M908 604q50 -45 76 -104t26 -125q0 -108 -55.5 -196t-155.5 -138.5t-229 -50.5q-191 0 -308 88l-95 -78h-46l118 96q-50 45 -76 104t-26 125q0 108 55.5 196t155.5 138.5t229 50.5q191 0 308 -88l95 78h46zM192 211q25 -54 72 -95l596 486q-52 37 -123.5 57.5
t-159.5 20.5q-121 0 -214 -47t-144.5 -128t-51.5 -180q0 -60 25 -114zM784 67q93 47 144.5 128t51.5 180q0 60 -25 114t-72 95l-596 -486q52 -37 123.5 -57.5t159.5 -20.5q121 0 214 47zM479 786h-2l-2 21l259 95h15l-7 -36z" />
    <glyph glyph-name="oslashacute" unicode="&#x1ff;" horiz-adv-x="774" 
d="M690 456q35 -34 53.5 -78t18.5 -93q0 -82 -42.5 -149.5t-118 -106.5t-169.5 -39q-137 0 -223 65l-66 -55h-44l88 74q-35 34 -53.5 78t-18.5 93q0 82 42.5 149.5t118 106.5t169.5 39q137 0 223 -65l66 55h44zM162 162.5q17 -38.5 49 -68.5l433 361q-78 55 -199 55
q-87 0 -155.5 -35t-106.5 -95.5t-38 -134.5q0 -44 17 -82.5zM587.5 55q68.5 35 106.5 95.5t38 134.5q0 44 -17 82.5t-49 68.5l-433 -361q78 -55 199 -55q87 0 155.5 35zM349 626h-2l-2 21l259 95h15l-7 -36z" />
    <glyph glyph-name="uni0218" unicode="&#x218;" horiz-adv-x="748" 
d="M258 18.5q-91 28.5 -140 64.5l7 34q43 -37 132 -67t192 -30q78 0 129.5 21t76 54.5t24.5 73.5q0 45 -33 76t-82 49.5t-132 42.5q-88 25 -141.5 46.5t-90.5 57t-37 89.5q0 47 31 88t95.5 66.5t159.5 25.5q110 0 200.5 -29t139.5 -65l-7 -35q-46 38 -136 68.5t-203 30.5
q-85 0 -141 -21t-82 -55.5t-26 -73.5q0 -43 32.5 -72.5t80.5 -48t129 -42.5q90 -26 144 -48t92 -58.5t38 -91.5q0 -48 -29 -88.5t-88 -65.5t-144 -25q-100 0 -191 28.5zM316 -290l5 25h10q39 0 65.5 29t26.5 74q0 22 -14 33q-5 -8 -13.5 -13.5t-18.5 -5.5q-14 0 -22 8t-8 18
q0 14 11 22.5t27 8.5q26 0 44.5 -19.5t18.5 -51.5q0 -56 -34.5 -92t-83.5 -36h-14z" />
    <glyph glyph-name="uni0219" unicode="&#x219;" horiz-adv-x="595" 
d="M207 12.5q-72 22.5 -111 52.5l6 31q37 -30 106.5 -53t159.5 -23q83 0 126 28t43 67q0 35 -26 59t-63.5 39t-103.5 36q-70 22 -113.5 40t-73 47.5t-29.5 72.5q0 55 52.5 93t161.5 38q96 0 172 -24.5t121 -55.5l-6 -32q-46 31 -122 56.5t-168 25.5q-93 0 -137 -29.5
t-44 -68.5q0 -35 26 -59t64.5 -40t103.5 -36q71 -22 114 -40t72.5 -47t29.5 -72q0 -35 -22 -64t-67 -46.5t-111 -17.5q-89 0 -161 22.5zM231 -290l5 25h10q39 0 65.5 29t26.5 74q0 22 -14 33q-5 -8 -13.5 -13.5t-18.5 -5.5q-14 0 -22 8t-8 18q0 14 11 22.5t27 8.5
q26 0 44.5 -19.5t18.5 -51.5q0 -56 -34.5 -92t-83.5 -36h-14z" />
    <glyph glyph-name="uni021A" unicode="&#x21a;" horiz-adv-x="662" 
d="M131 700h642l-6 -30h-306l-130 -670h-30l130 670h-306zM216 -290l5 25h10q39 0 65.5 29t26.5 74q0 22 -14 33q-5 -8 -13.5 -13.5t-18.5 -5.5q-14 0 -22 8t-8 18q0 14 11 22.5t27 8.5q26 0 44.5 -19.5t18.5 -51.5q0 -56 -34.5 -92t-83.5 -36h-14z" />
    <glyph glyph-name="uni021B" unicode="&#x21b;" horiz-adv-x="348" 
d="M165.5 19q-32.5 29 -32.5 83q0 21 6 55l67 343h-114l6 30h81q18 0 26.5 9t13.5 31l20 100h30l-27 -140h174l-6 -30h-174l-67 -343q-6 -34 -6 -53q0 -42 23.5 -63t64.5 -21q42 0 69 11l-6 -30q-30 -11 -65 -11q-51 0 -83.5 29zM116 -290l5 25h10q39 0 65.5 29t26.5 74
q0 22 -14 33q-5 -8 -13.5 -13.5t-18.5 -5.5q-14 0 -22 8t-8 18q0 14 11 22.5t27 8.5q26 0 44.5 -19.5t18.5 -51.5q0 -56 -34.5 -92t-83.5 -36h-14z" />
    <glyph glyph-name="uni0232" unicode="&#x232;" horiz-adv-x="729" 
d="M355 0h-30l31 160l-260 540h32l243 -506h5l441 506h38l-469 -540zM656 828h-344l6 30h344z" />
    <glyph glyph-name="uni0233" unicode="&#x233;" horiz-adv-x="548" 
d="M124 -190h-35l170 241l-176 479h32l163 -444h5l313 444h35zM542 668h-344l6 30h344z" />
    <glyph glyph-name="uni0237" unicode="&#x237;" horiz-adv-x="220" 
d="M-110 -186l6 29q37 -14 74 -14q49 0 76.5 29.5t38.5 87.5l113 584h30l-114 -586q-14 -72 -48 -108t-97 -36q-40 0 -79 14z" />
    <glyph glyph-name="uni0244" unicode="&#x244;" horiz-adv-x="858" 
d="M919 447l-5 -30h-100l-34 -175q-23 -118 -106.5 -185t-210.5 -67q-149 0 -228 66.5t-79 179.5q0 26 7 66l23 115h-100l5 30h100l50 253h30l-49 -253h568l49 253h30l-49 -253h99zM784 417h-568l-22 -112q-6 -33 -6 -62q0 -102 70.5 -162.5t204.5 -60.5q117 0 192 60.5
t96 169.5z" />
    <glyph glyph-name="uni0259" unicode="&#x259;" horiz-adv-x="738" 
d="M578.5 507.5q72.5 -32.5 110.5 -89t38 -128.5q0 -85 -42 -153.5t-115.5 -107.5t-161.5 -39q-90 0 -157 32.5t-102 89t-35 125.5q0 23 3 47h579v3q0 65 -34 115.5t-100.5 79t-159.5 28.5q-63 0 -117.5 -11t-84.5 -25l7 33q30 13 84 23t115 10q100 0 172.5 -32.5zM546 50
q62 30 101 83.5t47 120.5h-550v-13q0 -62 31 -112t91 -79.5t144 -29.5q74 0 136 30z" />
    <glyph glyph-name="uni0289" unicode="&#x289;" horiz-adv-x="693" 
d="M755 400l-6 -30h-79l-72 -370h-30l21 110h-5q-17 -28 -51 -55.5t-82.5 -46t-104.5 -18.5q-54 0 -102 19.5t-79 62t-31 106.5q0 26 6 54l27 138h-81l6 30h81l25 130h30l-25 -130h443l25 130h30l-25 -130h79zM640 370h-443l-27 -139q-5 -27 -5 -45q0 -74 49.5 -120
t140.5 -46q55 0 105 24.5t86.5 62t57.5 75.5z" />
    <glyph glyph-name="uni02BC" unicode="&#x2bc;" horiz-adv-x="170" 
d="M132 523l5 24h10q38 0 66 30t28 77q0 20 -14 32q-4 -8 -12 -13.5t-18 -5.5q-15 0 -23.5 7.5t-8.5 18.5q0 14 10.5 23t27.5 9q28 0 45.5 -19.5t17.5 -51.5q0 -39 -17 -68.5t-44.5 -46t-58.5 -16.5h-14z" />
    <glyph glyph-name="circumflex" unicode="&#x2c6;" horiz-adv-x="427" 
d="M188 600h-47l189 130h39l139 -130h-41l-115 107h-7z" />
    <glyph glyph-name="caron" unicode="&#x2c7;" horiz-adv-x="427" 
d="M344 600h-39l-139 130h41l116 -107h7l156 107h47z" />
    <glyph glyph-name="breve" unicode="&#x2d8;" horiz-adv-x="370" 
d="M205 646q-39 31 -39 84h30q0 -40 32.5 -63.5t94.5 -23.5q60 0 90 24t33 63h30q-5 -52 -43.5 -83.5t-112.5 -31.5q-76 0 -115 31z" />
    <glyph glyph-name="dotaccent" unicode="&#x2d9;" horiz-adv-x="130" 
d="M160.5 608q-8.5 8 -8.5 20q0 13 10.5 22.5t27.5 9.5q14 0 23 -8t9 -20q0 -13 -11 -22.5t-27 -9.5q-15 0 -23.5 8z" />
    <glyph glyph-name="ring" unicode="&#x2da;" horiz-adv-x="294" 
d="M184 587.5q-32 24.5 -32 62.5q0 44 32 70.5t83 26.5q54 0 86 -24.5t32 -62.5q0 -44 -32 -70.5t-83 -26.5q-54 0 -86 24.5zM334 608q24 19 24 52q0 26 -24 43.5t-67 17.5q-40 0 -64 -19t-24 -52q0 -26 24 -43.5t67 -17.5q40 0 64 19z" />
    <glyph glyph-name="ogonek" unicode="&#x2db;" horiz-adv-x="244" 
d="M-22 -183q-25 18 -25 46q0 46 43 77.5t98 54.5l2 10l66 -5q-69 -23 -122.5 -58.5t-53.5 -71.5q0 -17 17.5 -29t53.5 -12q38 0 68 7l-6 -30q-29 -7 -67 -7q-49 0 -74 18z" />
    <glyph glyph-name="tilde" unicode="&#x2dc;" horiz-adv-x="388" 
d="M354.5 596q-20.5 11 -46.5 33q-21 18 -37.5 27.5t-36.5 9.5q-21 0 -36.5 -13t-19.5 -36l-5 -27h-29l6 31q7 35 29.5 54.5t54.5 19.5q27 0 47.5 -11t46.5 -33q21 -18 37.5 -27.5t36.5 -9.5q21 0 36.5 13t19.5 36l5 27h29l-6 -31q-7 -35 -29.5 -54.5t-54.5 -19.5
q-27 0 -47.5 11z" />
    <glyph glyph-name="hungarumlaut" unicode="&#x2dd;" horiz-adv-x="476" 
d="M152 596h-1l-2 20l219 96h15l-7 -33zM353 596h-1l-2 20l219 96h15l-7 -33z" />
    <glyph glyph-name="gravecomb" unicode="&#x300;" horiz-adv-x="0" 
d="M28 596h-2l-231 80l7 36h15l221 -95z" />
    <glyph glyph-name="acutecomb" unicode="&#x301;" horiz-adv-x="0" 
d="M-213 596h-2l-2 21l259 95h15l-7 -36z" />
    <glyph glyph-name="uni0302" unicode="&#x302;" horiz-adv-x="0" 
d="M-285 600h-47l189 130h39l139 -130h-41l-115 107h-7z" />
    <glyph glyph-name="tildecomb" unicode="&#x303;" horiz-adv-x="0" 
d="M-84.5 596q-20.5 11 -46.5 33q-21 18 -37.5 27.5t-36.5 9.5q-21 0 -36.5 -13t-19.5 -36l-5 -27h-29l6 31q7 35 29.5 54.5t54.5 19.5q27 0 47.5 -11t46.5 -33q21 -18 37.5 -27.5t36.5 -9.5q21 0 36.5 13t19.5 36l5 27h29l-6 -31q-7 -35 -29.5 -54.5t-54.5 -19.5
q-27 0 -47.5 11z" />
    <glyph glyph-name="uni0304" unicode="&#x304;" horiz-adv-x="0" 
d="M43 643h-344l6 30h344z" />
    <glyph glyph-name="uni0306" unicode="&#x306;" horiz-adv-x="0" 
d="M-211 646q-39 31 -39 84h30q0 -40 32.5 -63.5t94.5 -23.5q60 0 90 24t33 63h30q-5 -52 -43.5 -83.5t-112.5 -31.5q-76 0 -115 31z" />
    <glyph glyph-name="uni0307" unicode="&#x307;" horiz-adv-x="0" 
d="M-20.5 608q-8.5 8 -8.5 20q0 13 10.5 22.5t27.5 9.5q14 0 23 -8t9 -20q0 -13 -11 -22.5t-27 -9.5q-15 0 -23.5 8z" />
    <glyph glyph-name="uni0308" unicode="&#x308;" horiz-adv-x="0" 
d="M-194.5 608q-8.5 8 -8.5 20q0 13 10.5 22.5t27.5 9.5q14 0 23 -8t9 -20q0 -13 -11 -22.5t-27 -9.5q-15 0 -23.5 8zM-20.5 608q-8.5 8 -8.5 20q0 13 11 22.5t27 9.5q15 0 23.5 -8t8.5 -20q0 -13 -11 -22.5t-27 -9.5q-15 0 -23.5 8z" />
    <glyph glyph-name="uni030A" unicode="&#x30a;" horiz-adv-x="0" 
d="M-156 587.5q-32 24.5 -32 62.5q0 44 32 70.5t83 26.5q54 0 86 -24.5t32 -62.5q0 -44 -32 -70.5t-83 -26.5q-54 0 -86 24.5zM-6 608q24 19 24 52q0 26 -24 43.5t-67 17.5q-40 0 -64 -19t-24 -52q0 -26 24 -43.5t67 -17.5q40 0 64 19z" />
    <glyph glyph-name="uni030B" unicode="&#x30b;" horiz-adv-x="0" 
d="M-375 596h-1l-2 20l219 96h15l-7 -33zM-174 596h-1l-2 20l219 96h15l-7 -33z" />
    <glyph glyph-name="uni030C" unicode="&#x30c;" horiz-adv-x="0" 
d="M-129 600h-39l-139 130h41l116 -107h7l156 107h47z" />
    <glyph glyph-name="uni0326" unicode="&#x326;" horiz-adv-x="0" 
d="M-245 -275l5 25h10q39 0 65.5 29t26.5 74q0 22 -14 33q-5 -8 -13.5 -13.5t-18.5 -5.5q-14 0 -22 8t-8 18q0 14 11 22.5t27 8.5q26 0 44.5 -19.5t18.5 -51.5q0 -56 -34.5 -92t-83.5 -36h-14z" />
    <glyph glyph-name="uni0327" unicode="&#x327;" horiz-adv-x="0" 
d="M-210 -58q50 0 75.5 -22t25.5 -55q0 -41 -33.5 -65t-92.5 -24q-45 0 -82 12l5 26q35 -9 77 -9q47 0 71.5 15.5t24.5 41.5q0 22 -17 36.5t-57 14.5h-60l-9 11l41 76h34l-33 -58h30z" />
    <glyph glyph-name="uni0328" unicode="&#x328;" horiz-adv-x="0" 
d="M-266 -183q-25 18 -25 46q0 46 43 77.5t98 54.5l2 10l66 -5q-69 -23 -122.5 -58.5t-53.5 -71.5q0 -17 17.5 -29t53.5 -12q38 0 68 7l-6 -30q-29 -7 -67 -7q-49 0 -74 18z" />
    <glyph glyph-name="uni0400" unicode="&#x400;" horiz-adv-x="704" 
d="M760 700l-6 -30h-489l-58 -296h449l-6 -30h-449l-61 -314h509l-5 -30h-539l136 700h519zM622 786h-2l-231 80l7 36h15l221 -95z" />
    <glyph glyph-name="uni0401" unicode="&#x401;" horiz-adv-x="704" 
d="M760 700l-6 -30h-489l-58 -296h449l-6 -30h-449l-61 -314h509l-5 -30h-539l136 700h519zM409.5 823q-8.5 8 -8.5 20q0 13 10.5 22.5t27.5 9.5q14 0 23 -8t9 -20q0 -13 -11 -22.5t-27 -9.5q-15 0 -23.5 8zM583.5 823q-8.5 8 -8.5 20q0 13 11 22.5t27 9.5q15 0 23.5 -8
t8.5 -20q0 -13 -11 -22.5t-27 -9.5q-15 0 -23.5 8z" />
    <glyph glyph-name="uni0402" unicode="&#x402;" horiz-adv-x="911" 
d="M776.5 394.5q62.5 -28.5 92.5 -77t30 -108.5q0 -63 -29.5 -113t-86.5 -78t-135 -28q-50 0 -98 12l6 30q45 -12 92 -12q71 0 121 26t75 68.5t25 92.5q0 80 -61 133t-189 53q-66 0 -137 -14.5t-133 -39.5l-66 -339h-30l130 670h-258l6 30h580l-6 -30h-292l-57 -295
q144 48 265 48q93 0 155.5 -28.5z" />
    <glyph glyph-name="uni0403" unicode="&#x403;" horiz-adv-x="663" 
d="M135 0h-30l136 700h533l-6 -30h-503zM389 786h-2l-2 21l259 95h15l-7 -36z" />
    <glyph glyph-name="uni0404" unicode="&#x404;" horiz-adv-x="856" 
d="M379 640q-88 -40 -142 -109.5t-67 -156.5h417l-6 -30h-413q-1 -6 -1 -19q0 -83 45.5 -152.5t130.5 -111t198 -41.5q66 0 127 15t94 33l-7 -34q-33 -17 -91.5 -30.5t-122.5 -13.5q-123 0 -214.5 45t-140.5 121.5t-49 168.5q0 108 55.5 196t155.5 138.5t229 50.5
q106 0 192.5 -32t131.5 -69l-7 -35q-45 40 -127.5 73t-189.5 33q-110 0 -198 -40z" />
    <glyph glyph-name="uni0405" unicode="&#x405;" horiz-adv-x="748" 
d="M258 18.5q-91 28.5 -140 64.5l7 34q43 -37 132 -67t192 -30q78 0 129.5 21t76 54.5t24.5 73.5q0 45 -33 76t-82 49.5t-132 42.5q-88 25 -141.5 46.5t-90.5 57t-37 89.5q0 47 31 88t95.5 66.5t159.5 25.5q110 0 200.5 -29t139.5 -65l-7 -35q-46 38 -136 68.5t-203 30.5
q-85 0 -141 -21t-82 -55.5t-26 -73.5q0 -43 32.5 -72.5t80.5 -48t129 -42.5q90 -26 144 -48t92 -58.5t38 -91.5q0 -48 -29 -88.5t-88 -65.5t-144 -25q-100 0 -191 28.5z" />
    <glyph glyph-name="uni0406" unicode="&#x406;" horiz-adv-x="676" 
d="M782 700l-6 -30h-293l-125 -640h293l-5 -30h-616l5 30h293l125 640h-293l6 30h616z" />
    <glyph glyph-name="uni0407" unicode="&#x407;" horiz-adv-x="676" 
d="M782 700l-6 -30h-293l-125 -640h293l-5 -30h-616l5 30h293l125 640h-293l6 30h616zM378.5 823q-8.5 8 -8.5 20q0 13 10.5 22.5t27.5 9.5q14 0 23 -8t9 -20q0 -13 -11 -22.5t-27 -9.5q-15 0 -23.5 8zM552.5 823q-8.5 8 -8.5 20q0 13 11 22.5t27 9.5q15 0 23.5 -8t8.5 -20
q0 -13 -11 -22.5t-27 -9.5q-15 0 -23.5 8z" />
    <glyph glyph-name="uni0408" unicode="&#x408;" horiz-adv-x="550" 
d="M34 24l6 28q81 -33 172 -33t157 43t83 129l100 509h30l-100 -512q-19 -98 -92.5 -148t-180.5 -50q-92 0 -175 34z" />
    <glyph glyph-name="uni0409" unicode="&#x409;" horiz-adv-x="1265" 
d="M1004 414q86 0 144 -25.5t86.5 -68t28.5 -93.5q0 -68 -31 -119t-89.5 -79.5t-138.5 -28.5h-385l130 670h-422l-50 -205q-31 -127 -69 -225t-74 -158t-63 -82h-31l1 10q28 22 64.5 81t74 154.5t67.5 219.5l56 235h482l-56 -286h275zM1007 30q70 0 121.5 24.5t78 68.5
t26.5 100q0 44 -26 80.5t-79 58.5t-131 22h-274l-69 -354h353z" />
    <glyph glyph-name="uni040A" unicode="&#x40a;" horiz-adv-x="1321" 
d="M1076 395q78 0 132 -25t81.5 -66.5t27.5 -90.5q0 -61 -30.5 -109.5t-87 -76t-133.5 -27.5h-389l70 365h-541l-71 -365h-30l136 700h30l-59 -305h541l59 305h30l-59 -305h293zM1069 30q68 0 117 23.5t74.5 64t25.5 90.5q0 42 -24.5 78t-73 57.5t-118.5 21.5h-292l-65 -335
h356z" />
    <glyph glyph-name="uni040B" unicode="&#x40b;" horiz-adv-x="928" 
d="M809.5 371.5q78.5 -51.5 78.5 -158.5q0 -28 -6 -61l-29 -152h-30l29 155q5 24 5 54q0 96 -71 140t-187 44q-69 0 -127.5 -11t-120.5 -31l-68 -351h-30l130 670h-258l6 30h580l-6 -30h-292l-56 -288q60 19 118.5 30t125.5 11q130 0 208.5 -51.5z" />
    <glyph glyph-name="uni040C" unicode="&#x40c;" horiz-adv-x="727" 
d="M135 0h-30l136 700h30l-61 -313l594 313h60l-631 -333l-1 -5l455 -362h-47l-438 347zM424 786h-2l-2 21l259 95h15l-7 -36z" />
    <glyph glyph-name="uni040D" unicode="&#x40d;" horiz-adv-x="835" 
d="M154 0h-49l136 700h30l-130 -666h5l671 666h49l-136 -700h-30l130 667h-5zM686 786h-2l-231 80l7 36h15l221 -95z" />
    <glyph glyph-name="uni040E" unicode="&#x40e;" horiz-adv-x="713" 
d="M792 700h37l-467 -602q-40 -51 -81 -79.5t-105 -28.5q-35 0 -65 9l6 29q25 -8 59 -8q48 0 87 22.5t79 76.5l26 34l-247 547h32l234 -517h4zM357 809.5q-41 33.5 -41 95.5h30q0 -47 34.5 -74t100.5 -27q64 0 97.5 28t37.5 73h30q-6 -58 -48.5 -93.5t-118.5 -35.5
q-81 0 -122 33.5z" />
    <glyph glyph-name="uni040F" unicode="&#x40f;" horiz-adv-x="838" 
d="M397 -190h-30l5 30l29 149l3 11h-299l136 700h30l-131 -670h568l131 670h30l-136 -700h-299l-3 -11l-29 -149z" />
    <glyph glyph-name="uni0410" unicode="&#x410;" horiz-adv-x="760" 
d="M780 0h-30l-71 219h-477l-156 -219h-36l500 700h42zM525 671l-301 -422h445l-138 422h-6z" />
    <glyph glyph-name="uni0411" unicode="&#x411;" horiz-adv-x="769" 
d="M780 670h-515l-52 -266h287q84 0 141.5 -25.5t85.5 -67.5t28 -92q0 -64 -30 -113.5t-88 -77.5t-139 -28h-393l136 700h545zM207 374l-67 -344h361q71 0 121.5 24t76.5 66t26 95q0 43 -25 79t-76.5 58t-127.5 22h-289z" />
    <glyph glyph-name="uni0412" unicode="&#x412;" horiz-adv-x="788" 
d="M756.5 401q-53.5 -51 -136.5 -59l-1 -5q47 -16 76.5 -56t29.5 -87q0 -55 -27 -99t-79.5 -69.5t-124.5 -25.5h-389l136 700h309q135 0 197.5 -50.5t62.5 -123.5q0 -74 -53.5 -125zM572 365q99 0 153.5 44t54.5 113q0 62 -55.5 105t-174.5 43h-285l-60 -305h367zM675 261.5
q-21 32.5 -65.5 53t-112.5 20.5h-297l-60 -305h352q64 0 110 21t70 57.5t24 82.5q0 38 -21 70.5z" />
    <glyph glyph-name="uni0413" unicode="&#x413;" horiz-adv-x="663" 
d="M135 0h-30l136 700h533l-6 -30h-503z" />
    <glyph glyph-name="uni0414" unicode="&#x414;" horiz-adv-x="777" 
d="M787 700l-131 -670h91l-42 -220h-30l37 190h-687l-36 -190h-30l41 220h64q30 28 68 93t75 166t61 226l36 185h483zM297 510q-23 -119 -58.5 -217.5t-72 -165t-66.5 -97.5h526l125 640h-423z" />
    <glyph glyph-name="uni0415" unicode="&#x415;" horiz-adv-x="704" 
d="M760 700l-6 -30h-489l-58 -296h449l-6 -30h-449l-61 -314h509l-5 -30h-539l136 700h519z" />
    <glyph glyph-name="uni0416" unicode="&#x416;" horiz-adv-x="1165" 
d="M68 0h-53l588 368l1 5l-474 327h49l456 -313l61 313h30l-61 -313l578 313h58l-613 -333l-1 -5l440 -362h-44l-426 349l-67 -349h-30l67 349z" />
    <glyph glyph-name="uni0417" unicode="&#x417;" horiz-adv-x="747" 
d="M222.5 14.5q-86.5 24.5 -133.5 59.5l6 35q49 -36 131 -62.5t182 -26.5q85 0 141.5 23t83.5 58.5t27 74.5q0 42 -26 79t-88 61t-163 24h-122l5 30h208q81 0 137 22t83.5 56.5t27.5 71.5q0 40 -31.5 77t-99 60.5t-169.5 23.5q-69 0 -132 -14t-108 -33l7 35
q41 16 101.5 28.5t128.5 12.5q114 0 188.5 -26.5t109.5 -69t35 -91.5q0 -69 -58 -117t-149 -59l-2 -5q71 -20 109.5 -63t38.5 -99q0 -48 -30.5 -91.5t-94 -71t-158.5 -27.5q-99 0 -185.5 24.5z" />
    <glyph glyph-name="uni0418" unicode="&#x418;" horiz-adv-x="835" 
d="M154 0h-49l136 700h30l-130 -666h5l671 666h49l-136 -700h-30l130 667h-5z" />
    <glyph glyph-name="uni0419" unicode="&#x419;" horiz-adv-x="835" 
d="M154 0h-49l136 700h30l-130 -666h5l671 666h49l-136 -700h-30l130 667h-5zM442 809.5q-41 33.5 -41 95.5h30q0 -47 34.5 -74t100.5 -27q64 0 97.5 28t37.5 73h30q-6 -58 -48.5 -93.5t-118.5 -35.5q-81 0 -122 33.5z" />
    <glyph glyph-name="uni041A" unicode="&#x41a;" horiz-adv-x="727" 
d="M135 0h-30l136 700h30l-61 -313l594 313h60l-631 -333l-1 -5l455 -362h-47l-438 347z" />
    <glyph glyph-name="uni041B" unicode="&#x41b;" horiz-adv-x="783" 
d="M41 10q28 22 64.5 81t74 154.5t67.5 219.5l56 235h511l-136 -700h-30l130 670h-451l-50 -205q-31 -127 -69 -225t-74 -158t-63 -82h-31z" />
    <glyph glyph-name="uni041C" unicode="&#x41c;" horiz-adv-x="1038" 
d="M1028 673l-513 -693l-245 693h-5l-130 -673h-30l136 700h51l230 -652h6l484 652h57l-136 -700h-30l130 673h-5z" />
    <glyph glyph-name="uni041D" unicode="&#x41d;" horiz-adv-x="838" 
d="M776 374l63 326h30l-136 -700h-30l67 344h-568l-67 -344h-30l136 700h30l-63 -326h568z" />
    <glyph glyph-name="uni041E" unicode="&#x41e;" horiz-adv-x="1012" 
d="M336 35q-98 45 -148.5 121t-50.5 169q0 108 55.5 196t155.5 138.5t229 50.5q136 0 234 -45t148.5 -121t50.5 -169q0 -108 -55.5 -196t-155.5 -138.5t-229 -50.5q-136 0 -234 45zM784 67q93 47 144.5 128t51.5 180q0 84 -47 153.5t-138 110.5t-218 41q-121 0 -214 -47
t-144.5 -128t-51.5 -180q0 -84 47 -153.5t138 -110.5t218 -41q121 0 214 47z" />
    <glyph glyph-name="uni041F" unicode="&#x41f;" horiz-adv-x="838" 
d="M135 0h-30l136 700h628l-136 -700h-30l130 670h-568z" />
    <glyph glyph-name="uni0420" unicode="&#x420;" horiz-adv-x="800" 
d="M569 700q138 0 203 -52.5t65 -134.5q0 -67 -30.5 -118.5t-88.5 -80.5t-139 -29h-389l-55 -285h-30l136 700h328zM579 315q107 0 167.5 53.5t60.5 140.5q0 69 -58.5 115t-182.5 46h-301l-69 -355h383z" />
    <glyph glyph-name="uni0421" unicode="&#x421;" horiz-adv-x="857" 
d="M326.5 35q-91.5 45 -140.5 121.5t-49 168.5q0 108 55.5 196t155.5 138.5t229 50.5q103 0 190 -31t135 -69l-7 -36q-45 41 -129 73.5t-189 32.5q-121 0 -214 -47t-144.5 -128t-51.5 -180q0 -83 45.5 -152.5t130.5 -111t198 -41.5q67 0 128 15t93 33l-6 -34
q-33 -17 -92 -30.5t-123 -13.5q-123 0 -214.5 45z" />
    <glyph glyph-name="uni0422" unicode="&#x422;" horiz-adv-x="662" 
d="M131 700h642l-6 -30h-306l-130 -670h-30l130 670h-306z" />
    <glyph glyph-name="uni0423" unicode="&#x423;" horiz-adv-x="713" 
d="M792 700h37l-467 -602q-40 -51 -81 -79.5t-105 -28.5q-35 0 -65 9l6 29q25 -8 59 -8q48 0 87 22.5t79 76.5l26 34l-247 547h32l234 -517h4z" />
    <glyph glyph-name="uni0424" unicode="&#x424;" horiz-adv-x="1072" 
d="M790 611q94 0 160 -32t99 -85t33 -116q0 -80 -39 -143.5t-109 -99.5t-161 -36h-203l-21 -109h-30l21 109h-120q-94 0 -160 32t-99 85t-33 116q0 80 39 143.5t109 99.5t161 36h203l19 99h30l-19 -99h120zM546 129l88 452h-199q-82 0 -145 -32t-97 -88t-34 -126
q0 -55 29.5 -102t88.5 -75.5t142 -28.5h127zM775 129q82 0 145 32t97 88t34 126q0 55 -29.5 102t-88.5 75.5t-142 28.5h-127l-88 -452h199z" />
    <glyph glyph-name="uni0425" unicode="&#x425;" horiz-adv-x="663" 
d="M43 0h-43l380 356l1 5l-230 339h35l213 -315h5l337 315h43l-362 -339l-1 -5l242 -356h-35l-226 332h-5z" />
    <glyph glyph-name="uni0426" unicode="&#x426;" horiz-adv-x="830" 
d="M758 -190h-30l37 190h-660l136 700h30l-131 -670h539l131 670h30l-131 -670h91z" />
    <glyph glyph-name="uni0427" unicode="&#x427;" horiz-adv-x="799" 
d="M800 700h30l-136 -700h-30l62 321q-126 -46 -250 -46q-130 0 -210.5 50.5t-80.5 157.5q0 28 6 59l30 158h30l-31 -161q-5 -24 -5 -52q0 -97 74 -139.5t188 -42.5q134 0 255 46z" />
    <glyph glyph-name="uni0428" unicode="&#x428;" horiz-adv-x="1064" 
d="M959 0h-854l136 700h30l-131 -670h382l131 670h30l-131 -670h382l131 670h30z" />
    <glyph glyph-name="uni0429" unicode="&#x429;" horiz-adv-x="1085" 
d="M1013 -190h-30l37 190h-915l136 700h30l-131 -670h382l131 670h30l-131 -670h382l131 670h30l-131 -670h91z" />
    <glyph glyph-name="uni042A" unicode="&#x42a;" horiz-adv-x="825" 
d="M179 0l130 670h-179l6 30h209l-56 -286h275q86 0 144 -25.5t86.5 -68t28.5 -93.5q0 -68 -31 -119t-89.5 -79.5t-138.5 -28.5h-385zM567 30q70 0 121.5 24.5t78 68.5t26.5 100q0 44 -26 80.5t-79 58.5t-131 22h-274l-69 -354h353z" />
    <glyph glyph-name="uni042B" unicode="&#x42b;" horiz-adv-x="969" 
d="M105 0l136 700h30l-56 -286h275q86 0 144 -25.5t86.5 -68t28.5 -93.5q0 -68 -31 -119t-89.5 -79.5t-138.5 -28.5h-385zM864 0h-30l136 700h30zM493 30q70 0 121.5 24.5t78 68.5t26.5 100q0 44 -26 80.5t-79 58.5t-131 22h-274l-69 -354h353z" />
    <glyph glyph-name="uni042C" unicode="&#x42c;" horiz-adv-x="776" 
d="M105 0l136 700h30l-56 -286h300q86 0 144 -25.5t86.5 -68t28.5 -93.5q0 -68 -31 -119t-89.5 -79.5t-138.5 -28.5h-410zM518 30q70 0 121.5 24.5t78 68.5t26.5 100q0 44 -26 80.5t-79 58.5t-131 22h-299l-69 -354h378z" />
    <glyph glyph-name="uni042D" unicode="&#x42d;" horiz-adv-x="832" 
d="M634.5 665q95.5 -45 145.5 -121.5t50 -168.5q0 -108 -55 -196t-153 -138.5t-223 -50.5q-96 0 -177.5 29t-122.5 65l7 35q40 -38 119 -68.5t174 -30.5q110 0 198 42t141 116t61 165h-433l6 30h428v2q0 83 -46.5 152.5t-135 111t-208.5 41.5q-73 0 -139 -17.5t-102 -39.5
l7 35q36 20 100 36t134 16q129 0 224.5 -45z" />
    <glyph glyph-name="uni042E" unicode="&#x42e;" horiz-adv-x="1209" 
d="M1020.5 666.5q92.5 -43.5 140 -118.5t47.5 -168q0 -110 -55 -199t-152.5 -140t-220.5 -51q-128 0 -220.5 43.5t-140 118.5t-47.5 168q0 16 1 24h-171l-67 -344h-30l136 700h30l-63 -326h168q13 97 70.5 173.5t149.5 119.5t204 43q128 0 220.5 -43.5zM985.5 67
q90.5 47 141 129t50.5 184q0 83 -44.5 151.5t-130 108.5t-203.5 40q-114 0 -204.5 -47t-141 -129t-50.5 -184q0 -83 44.5 -151.5t130 -108.5t203.5 -40q114 0 204.5 47z" />
    <glyph glyph-name="uni042F" unicode="&#x42f;" horiz-adv-x="814" 
d="M845 700l-136 -700h-30l55 285h-318l-264 -285h-39l265 286q-107 13 -161 62t-54 124q0 67 31 118.5t89.5 80.5t139.5 29h422zM740 315l69 355h-388q-107 0 -167 -53t-60 -140q0 -44 24.5 -81t73 -59t115.5 -22h333z" />
    <glyph glyph-name="uni0430" unicode="&#x430;" horiz-adv-x="676" 
d="M137.5 30q-56.5 40 -56.5 107q0 70 59.5 116t176.5 46h152q161 0 161 90q0 29 -24.5 56.5t-78.5 45.5t-138 18q-62 0 -121 -11.5t-95 -25.5l6 33q31 13 88 24t120 11q95 0 156 -21.5t89 -55t28 -71.5q0 -7 -2 -21l-72 -371h-30l19 103q-34 -43 -108 -78t-167 -35
q-106 0 -162.5 40zM468.5 59q75.5 39 114.5 87l33 166q-8 -16 -48.5 -29.5t-106.5 -13.5h-147q-104 0 -153 -35t-49 -97q0 -51 52.5 -84t140.5 -33t163.5 39z" />
    <glyph glyph-name="uni0431" unicode="&#x431;" horiz-adv-x="774" 
d="M200.5 52.5q-76.5 62.5 -76.5 156.5q0 18 9.5 70t25.5 129q24 117 87 172t171 55h268q58 0 92 27.5t41 77.5l2 15h30l-3 -18q-11 -65 -51.5 -98.5t-110.5 -33.5h-271q-97 0 -150 -46.5t-73 -145.5l-13 -63h5q38 43 97.5 68.5t156.5 25.5q110 0 182 -28.5t105.5 -76.5
t33.5 -109q0 -67 -37.5 -122t-108 -86.5t-165.5 -31.5q-170 0 -246.5 62.5zM596 47.5q63 27.5 97 74.5t34 104q0 52 -31 94.5t-96.5 68t-165.5 25.5q-85 0 -148.5 -26.5t-97.5 -72.5t-34 -103q0 -50 28 -93.5t94 -71t172 -27.5q85 0 148 27.5z" />
    <glyph glyph-name="uni0432" unicode="&#x432;" horiz-adv-x="681" 
d="M636 297q-40 -41 -96 -48l-1 -5q42 -14 65 -43t23 -65q0 -37 -21 -68t-62.5 -49.5t-100.5 -18.5h-348l103 530h282q62 0 106 -19.5t67 -50.5t23 -66q0 -56 -40 -97zM478 267q80 0 124 34.5t44 85.5q0 29 -19.5 55t-58 42t-93.5 16h-253l-46 -233h302zM579 186
q-18 23 -54 37t-85 14h-269l-41 -207h318q73 0 111 30.5t38 75.5q0 27 -18 50z" />
    <glyph glyph-name="uni0433" unicode="&#x433;" horiz-adv-x="527" 
d="M125 0h-30l103 530h417l-6 -30h-387z" />
    <glyph glyph-name="uni0434" unicode="&#x434;" horiz-adv-x="648" 
d="M-41 -160l37 190h65q36 34 80 130.5t71 233.5l27 136h401l-98 -500h81l-37 -190h-30l32 160h-568l-31 -160h-30zM512 30l92 470h-341l-21 -106q-26 -130 -68.5 -227.5t-78.5 -136.5h417z" />
    <glyph glyph-name="uni0435" unicode="&#x435;" horiz-adv-x="697" 
d="M259 22.5q-71 32.5 -108 89t-37 128.5q0 86 40.5 154.5t110.5 107t154 38.5q81 0 142.5 -31t95 -86.5t33.5 -125.5q0 -28 -4 -51h-542q0 -65 33.5 -116t97.5 -80.5t154 -29.5q55 0 104 12.5t76 27.5l-6 -33q-26 -14 -73.5 -25.5t-102.5 -11.5q-97 0 -168 32.5zM659 276
l1 16q0 64 -30 113.5t-84 77t-125 27.5q-69 0 -127.5 -27.5t-97.5 -80.5t-50 -126h513z" />
    <glyph glyph-name="uni0436" unicode="&#x436;" horiz-adv-x="858" 
d="M42 0h-52l446 269l-334 261h43l318 -248l49 248h30l-49 -248l416 248h52l-447 -267l335 -263h-43l-319 250l-48 -250h-30l48 250z" />
    <glyph glyph-name="uni0437" unicode="&#x437;" horiz-adv-x="609" 
d="M194.5 11.5q-73.5 22.5 -113.5 50.5l6 33q41 -29 114 -52.5t147 -23.5q96 0 140.5 32t44.5 79q0 28 -22.5 54.5t-71 44t-122.5 17.5h-103l6 30h165q66 0 109 16t63 41.5t20 54.5q0 30 -24.5 58t-79.5 46t-140 18q-55 0 -106 -9.5t-80 -21.5l7 34q31 11 80 19t101 8
q94 0 155.5 -21.5t89.5 -55t28 -71.5q0 -52 -43.5 -91t-113.5 -46l-1 -5q55 -15 84 -47t29 -72q0 -62 -54 -102t-163 -40q-78 0 -151.5 22.5z" />
    <glyph glyph-name="uni0438" unicode="&#x438;" horiz-adv-x="693" 
d="M139 0h-44l103 530h30l-96 -493h5l520 493h44l-103 -530h-30l95 493h-5z" />
    <glyph glyph-name="uni0439" unicode="&#x439;" horiz-adv-x="693" 
d="M139 0h-44l103 530h30l-96 -493h5l520 493h44l-103 -530h-30l95 493h-5zM351 656q-38 30 -38 84h28q0 -39 32.5 -62.5t94.5 -23.5q60 0 90 24t33 62h28q-5 -51 -43 -82.5t-111 -31.5q-76 0 -114 30z" />
    <glyph glyph-name="uni043A" unicode="&#x43a;" horiz-adv-x="570" 
d="M125 0h-30l103 530h30l-49 -248l439 248h53l-470 -266l361 -264h-47l-342 250z" />
    <glyph glyph-name="uni043B" unicode="&#x43b;" horiz-adv-x="642" 
d="M36 9q36 30 82 126.5t79 239.5l36 155h417l-103 -530h-30l97 500h-357l-30 -126q-36 -149 -81.5 -247t-80.5 -127h-30z" />
    <glyph glyph-name="uni043C" unicode="&#x43c;" horiz-adv-x="868" 
d="M836 500l-406 -520l-204 520h-4l-97 -500h-30l103 530h48l191 -487h4l381 487h54l-103 -530h-30l97 500h-4z" />
    <glyph glyph-name="uni043D" unicode="&#x43d;" horiz-adv-x="693" 
d="M624 287l47 243h30l-103 -530h-30l50 257h-443l-50 -257h-30l103 530h30l-47 -243h443z" />
    <glyph glyph-name="uni043E" unicode="&#x43e;" horiz-adv-x="774" 
d="M261 24q-72 34 -109 92t-37 129q0 82 42.5 149.5t118 106.5t169.5 39q99 0 171 -34t109 -92t37 -129q0 -82 -42.5 -149.5t-118 -106.5t-169.5 -39q-99 0 -171 34zM587.5 55q68.5 35 106.5 95.5t38 134.5q0 62 -34 113.5t-98.5 81.5t-154.5 30q-87 0 -155.5 -35
t-106.5 -95.5t-38 -134.5q0 -62 34 -113.5t98.5 -81.5t154.5 -30q87 0 155.5 35z" />
    <glyph glyph-name="uni043F" unicode="&#x43f;" horiz-adv-x="693" 
d="M125 0h-30l103 530h503l-103 -530h-30l97 500h-443z" />
    <glyph glyph-name="uni0440" unicode="&#x440;" 
d="M58 -190l140 720h30l-19 -101h5q31 42 99 76.5t153 34.5q72 0 132 -29t95.5 -84.5t35.5 -131.5q0 -88 -40 -157.5t-110.5 -108.5t-159.5 -39q-64 0 -118 20t-91.5 49.5t-56.5 60.5h-4l-61 -310h-30zM564 55q63 35 98.5 97t35.5 140q0 64 -30.5 114t-84 77t-122.5 27
q-61 0 -114.5 -22t-91.5 -55.5t-58 -67.5l-38 -199q16 -35 51.5 -68.5t89.5 -55.5t121 -22q80 0 143 35z" />
    <glyph glyph-name="uni0441" unicode="&#x441;" horiz-adv-x="673" 
d="M257.5 24q-69.5 34 -106 92.5t-36.5 128.5q0 82 42.5 149.5t118 106.5t169.5 39q84 0 148.5 -21.5t101.5 -47.5l-7 -33q-33 27 -96 49.5t-147 22.5q-87 0 -155.5 -35t-106.5 -95.5t-38 -134.5q0 -62 33 -113.5t96 -81.5t148 -30q50 0 98 11.5t74 25.5l-6 -33
q-24 -13 -70 -23.5t-96 -10.5q-95 0 -164.5 34z" />
    <glyph glyph-name="uni0442" unicode="&#x442;" horiz-adv-x="548" 
d="M264 0h-30l97 500h-259l6 30h548l-6 -30h-259z" />
    <glyph glyph-name="uni0443" unicode="&#x443;" horiz-adv-x="548" 
d="M124 -190h-35l170 241l-176 479h32l163 -444h5l313 444h35z" />
    <glyph glyph-name="uni0444" unicode="&#x444;" horiz-adv-x="952" 
d="M684 530q79 0 137 -31t88.5 -83.5t30.5 -116.5q0 -90 -38.5 -157.5t-107.5 -104.5t-158 -37h-146l-36 -190h-30l36 190h-89q-79 0 -137 31t-88.5 83.5t-30.5 116.5q0 90 38.5 157.5t107.5 104.5t158 37h145l36 190h30l-36 -190h90zM466 30l92 470h-143q-80 0 -141 -33
t-95 -93t-34 -140q0 -56 28 -102.5t80.5 -74t123.5 -27.5h89zM640 30q80 0 141 33t95 93t34 140q0 56 -28 102.5t-80.5 74t-123.5 27.5h-90l-92 -470h144z" />
    <glyph glyph-name="uni0445" unicode="&#x445;" horiz-adv-x="520" 
d="M32 0h-42l294 269v3l-181 258h34l165 -237h5l259 237h42l-283 -258v-3l190 -269h-34l-174 248h-5z" />
    <glyph glyph-name="uni0446" unicode="&#x446;" horiz-adv-x="702" 
d="M640 -160h-30l32 160h-547l103 530h30l-98 -500h436l98 500h30l-98 -500h81z" />
    <glyph glyph-name="uni0447" unicode="&#x447;" horiz-adv-x="639" 
d="M617 530h30l-103 -530h-30l44 229q-87 -33 -185 -33q-103 0 -167.5 41t-64.5 128q0 20 5 50l22 115h30l-24 -119q-4 -20 -4 -41q0 -75 58.5 -110t147.5 -35q100 0 188 34z" />
    <glyph glyph-name="uni0448" unicode="&#x448;" horiz-adv-x="930" 
d="M835 0h-740l103 530h30l-98 -500h325l98 500h30l-98 -500h325l98 500h30z" />
    <glyph glyph-name="uni0449" unicode="&#x449;" horiz-adv-x="946" 
d="M884 -160h-30l32 160h-791l103 530h30l-98 -500h325l98 500h30l-98 -500h325l98 500h30l-98 -500h81z" />
    <glyph glyph-name="uni044A" unicode="&#x44a;" horiz-adv-x="707" 
d="M490 326q101 0 155.5 -40.5t54.5 -116.5q0 -74 -54.5 -121.5t-155.5 -47.5h-335l97 500h-155l6 30h184l-40 -204h243zM489 30q88 0 134.5 38.5t46.5 100.5q0 57 -43 92t-132 35h-254l-51 -266h299z" />
    <glyph glyph-name="uni044B" unicode="&#x44b;" horiz-adv-x="810" 
d="M430 326q101 0 155.5 -40.5t54.5 -116.5q0 -74 -54.5 -121.5t-155.5 -47.5h-335l103 530h30l-40 -204h242zM685 0l103 530h30l-103 -530h-30zM429 30q88 0 134.5 38.5t46.5 100.5q0 57 -43 92t-132 35h-253l-52 -266h299z" />
    <glyph glyph-name="uni044C" unicode="&#x44c;" horiz-adv-x="657" 
d="M440 326q101 0 155.5 -40.5t54.5 -116.5q0 -74 -54.5 -121.5t-155.5 -47.5h-345l103 530h30l-40 -204h252zM439 30q88 0 134.5 38.5t46.5 100.5q0 57 -43 92t-132 35h-263l-51 -266h308z" />
    <glyph glyph-name="uni044D" unicode="&#x44d;" horiz-adv-x="657" 
d="M499.5 506q71.5 -34 108.5 -92t37 -129q0 -82 -40 -149.5t-112 -106.5t-164 -39q-75 0 -139 23t-100 51l6 33q33 -29 95.5 -53t137.5 -24q79 0 140.5 30t98.5 83t45 120h-389l6 30h385v2q0 62 -33.5 113.5t-98.5 81.5t-154 30q-57 0 -107 -11t-75 -25l6 33q24 12 72 22.5
t104 10.5q99 0 170.5 -34z" />
    <glyph glyph-name="uni044E" unicode="&#x44e;" horiz-adv-x="938" 
d="M784 508.5q70 -33.5 106.5 -91t36.5 -127.5q0 -84 -42 -152.5t-117 -108t-168 -39.5q-96 0 -166 33.5t-106.5 91t-36.5 127.5v9h-117l-49 -251h-30l103 530h30l-48 -249h113q10 75 54 134.5t114.5 93t156.5 33.5q96 0 166 -33.5zM755.5 55q66.5 35 104 96.5t37.5 137.5
q0 62 -33 113t-96.5 80.5t-152.5 29.5q-86 0 -152.5 -35t-104 -96.5t-37.5 -137.5q0 -62 33 -113t96.5 -80.5t152.5 -29.5q86 0 152.5 35z" />
    <glyph glyph-name="uni044F" unicode="&#x44f;" horiz-adv-x="651" 
d="M70 0l247 208q-91 7 -138.5 45.5t-47.5 104.5q0 77 54.5 124.5t153.5 47.5h320l-103 -530h-30l40 208h-205l-247 -208h-44zM572 238l51 262h-283q-87 0 -133 -39t-46 -101q0 -56 44.5 -89t130.5 -33h236z" />
    <glyph glyph-name="uni0450" unicode="&#x450;" horiz-adv-x="697" 
d="M259 22.5q-71 32.5 -108 89t-37 128.5q0 86 40.5 154.5t110.5 107t154 38.5q81 0 142.5 -31t95 -86.5t33.5 -125.5q0 -28 -4 -51h-542q0 -65 33.5 -116t97.5 -80.5t154 -29.5q55 0 104 12.5t76 27.5l-6 -33q-26 -14 -73.5 -25.5t-102.5 -11.5q-97 0 -168 32.5zM659 276
l1 16q0 64 -30 113.5t-84 77t-125 27.5q-69 0 -127.5 -27.5t-97.5 -80.5t-50 -126h513zM542 626h-2l-231 80l7 36h15l221 -95z" />
    <glyph glyph-name="uni0451" unicode="&#x451;" horiz-adv-x="697" 
d="M259 22.5q-71 32.5 -108 89t-37 128.5q0 86 40.5 154.5t110.5 107t154 38.5q81 0 142.5 -31t95 -86.5t33.5 -125.5q0 -28 -4 -51h-542q0 -65 33.5 -116t97.5 -80.5t154 -29.5q55 0 104 12.5t76 27.5l-6 -33q-26 -14 -73.5 -25.5t-102.5 -11.5q-97 0 -168 32.5zM659 276
l1 16q0 64 -30 113.5t-84 77t-125 27.5q-69 0 -127.5 -27.5t-97.5 -80.5t-50 -126h513zM344.5 663q-8.5 8 -8.5 20q0 13 10.5 22.5t27.5 9.5q14 0 23 -8t9 -20q0 -13 -11 -22.5t-27 -9.5q-15 0 -23.5 8zM518.5 663q-8.5 8 -8.5 20q0 13 11 22.5t27 9.5q15 0 23.5 -8t8.5 -20
q0 -13 -11 -22.5t-27 -9.5q-15 0 -23.5 8z" />
    <glyph glyph-name="uni0452" unicode="&#x452;" horiz-adv-x="698" 
d="M550 405.5q48 -19.5 79 -62t31 -106.5q0 -25 -6 -54l-46 -237q-14 -73 -48 -109.5t-95 -36.5q-37 0 -76 14l6 29q37 -14 71 -14q47 0 74 31t39 92l45 232q5 27 5 45q0 74 -49.5 120t-140.5 46q-55 0 -105 -24.5t-86.5 -62t-57.5 -75.5l-45 -233h-30l104 535h-111l6 30
h111l30 155h30l-30 -155h219l-6 -30h-219l-44 -230h5q17 28 51 55.5t82.5 46t104.5 18.5q54 0 102 -19.5z" />
    <glyph glyph-name="uni0453" unicode="&#x453;" horiz-adv-x="527" 
d="M125 0h-30l103 530h417l-6 -30h-387zM298 626h-2l-2 21l259 95h15l-7 -36z" />
    <glyph glyph-name="uni0454" unicode="&#x454;" horiz-adv-x="673" 
d="M302.5 481q-63.5 -29 -103.5 -79.5t-51 -114.5h372l-6 -30h-369v-12q0 -62 33 -113.5t96 -81.5t148 -30q50 0 98 11.5t74 25.5l-6 -33q-24 -13 -70 -23.5t-96 -10.5q-95 0 -164.5 34t-106 92.5t-36.5 128.5q0 82 42.5 149.5t118 106.5t169.5 39q84 0 148.5 -21.5
t101.5 -47.5l-7 -33q-33 27 -96 49.5t-147 22.5q-79 0 -142.5 -29z" />
    <glyph glyph-name="uni0455" unicode="&#x455;" horiz-adv-x="595" 
d="M207 12.5q-72 22.5 -111 52.5l6 31q37 -30 106.5 -53t159.5 -23q83 0 126 28t43 67q0 35 -26 59t-63.5 39t-103.5 36q-70 22 -113.5 40t-73 47.5t-29.5 72.5q0 55 52.5 93t161.5 38q96 0 172 -24.5t121 -55.5l-6 -32q-46 31 -122 56.5t-168 25.5q-93 0 -137 -29.5
t-44 -68.5q0 -35 26 -59t64.5 -40t103.5 -36q71 -22 114 -40t72.5 -47t29.5 -72q0 -35 -22 -64t-67 -46.5t-111 -17.5q-89 0 -161 22.5z" />
    <glyph glyph-name="uni0456" unicode="&#x456;" horiz-adv-x="220" 
d="M206.5 611.5q-8.5 7.5 -8.5 19.5q0 13 11 22t27 9q15 0 23.5 -7.5t8.5 -19.5q0 -13 -11 -22t-27 -9q-15 0 -23.5 7.5zM95 0l103 530h1h14h15l-103 -530h-30z" />
    <glyph glyph-name="uni0457" unicode="&#x457;" horiz-adv-x="220" 
d="M125 0h-30l103 530h30zM119.5 663q-8.5 8 -8.5 20q0 13 10.5 22.5t27.5 9.5q14 0 23 -8t9 -20q0 -13 -11 -22.5t-27 -9.5q-15 0 -23.5 8zM293.5 663q-8.5 8 -8.5 20q0 13 11 22.5t27 9.5q15 0 23.5 -8t8.5 -20q0 -13 -11 -22.5t-27 -9.5q-15 0 -23.5 8z" />
    <glyph glyph-name="uni0458" unicode="&#x458;" horiz-adv-x="220" 
d="M206.5 611.5q-8.5 7.5 -8.5 19.5q0 13 11 22t27 9q15 0 23.5 -7.5t8.5 -19.5q0 -13 -11 -22t-27 -9q-15 0 -23.5 7.5zM-110 -186l6 29q37 -14 74 -14q49 0 76.5 29.5t38.5 87.5l113 584h5h11h12h2l-114 -586q-14 -72 -48 -108t-97 -36q-40 0 -79 14z" />
    <glyph glyph-name="uni0459" unicode="&#x459;" horiz-adv-x="1041" 
d="M824 326q101 0 155.5 -40.5t54.5 -116.5q0 -74 -54.5 -121.5t-155.5 -47.5h-325l97 500h-339l-30 -126q-36 -149 -81.5 -247t-80.5 -127h-30l1 9q36 30 82 126.5t79 239.5l36 155h399l-40 -204h232zM823 30q88 0 134.5 38.5t46.5 100.5q0 57 -43 92t-132 35h-243
l-52 -266h289z" />
    <glyph glyph-name="uni045A" unicode="&#x45a;" horiz-adv-x="1088" 
d="M865 316q102 0 158.5 -38.5t56.5 -113.5q0 -73 -56.5 -118.5t-158.5 -45.5h-320l56 286h-420l-56 -286h-30l103 530h30l-42 -214h420l42 214h30l-42 -214h229zM864 30q89 0 137.5 36.5t48.5 97.5q0 56 -45 89t-135 33h-240l-50 -256h284z" />
    <glyph glyph-name="uni045B" unicode="&#x45b;" horiz-adv-x="698" 
d="M550 405.5q48 -19.5 79 -62t31 -106.5q0 -25 -6 -54l-36 -183h-30l36 184q5 27 5 45q0 74 -49.5 120t-140.5 46q-55 0 -105 -24.5t-86.5 -62t-57.5 -75.5l-45 -233h-30l103 535h-110l6 30h110l30 155h30l-30 -155h220l-6 -30h-219l-44 -230h5q17 28 51 55.5t82.5 46
t104.5 18.5q54 0 102 -19.5z" />
    <glyph glyph-name="uni045C" unicode="&#x45c;" horiz-adv-x="570" 
d="M125 0h-30l103 530h30l-49 -248l439 248h53l-470 -266l361 -264h-47l-342 250zM304 626h-2l-2 21l259 95h15l-7 -36z" />
    <glyph glyph-name="uni045D" unicode="&#x45d;" horiz-adv-x="693" 
d="M139 0h-44l103 530h30l-96 -493h5l520 493h44l-103 -530h-30l95 493h-5zM572 626h-2l-231 80l7 36h15l221 -95z" />
    <glyph glyph-name="uni045E" unicode="&#x45e;" horiz-adv-x="548" 
d="M124 -190h-35l170 241l-176 479h32l163 -444h5l313 444h35zM262 656q-38 30 -38 84h28q0 -39 32.5 -62.5t94.5 -23.5q60 0 90 24t33 62h28q-5 -51 -43 -82.5t-111 -31.5q-76 0 -114 30z" />
    <glyph glyph-name="uni045F" unicode="&#x45f;" horiz-adv-x="690" 
d="M328 -160h-30v1l31 158v1h-234l103 530h30l-98 -500h440l98 500h30l-103 -530h-236v-1l-31 -158v-1z" />
    <glyph glyph-name="uni0490" unicode="&#x490;" horiz-adv-x="663" 
d="M135 0h-30l136 700h503l23 120h30l-29 -150h-503z" />
    <glyph glyph-name="uni0491" unicode="&#x491;" horiz-adv-x="527" 
d="M125 0h-30l103 530h387l23 123h30l-29 -153h-387z" />
    <glyph glyph-name="uni0492" unicode="&#x492;" horiz-adv-x="683" 
d="M789 700l-6 -30h-503l-57 -296h343l-6 -30h-343l-67 -344h-30l67 344h-101l6 30h101l63 326h533z" />
    <glyph glyph-name="uni0493" unicode="&#x493;" horiz-adv-x="542" 
d="M620 530l-6 -30h-387l-42 -214h253l-6 -30h-252l-50 -256h-30l50 256h-86l6 30h86l47 244h417z" />
    <glyph glyph-name="uni0494" unicode="&#x494;" horiz-adv-x="746" 
d="M340 -148l6 30q31 -7 65 -7q75 0 138.5 37t101.5 103t38 149q0 62 -28.5 110.5t-82.5 75.5t-128 27q-61 0 -115.5 -23t-94.5 -58t-62 -71l-43 -225h-30l136 700h533l-6 -30h-503l-75 -384h5q33 46 102.5 83.5t155.5 37.5q82 0 142.5 -30.5t92.5 -85.5t32 -127
q0 -92 -41.5 -164.5t-112.5 -113.5t-155 -41q-37 0 -71 7z" />
    <glyph glyph-name="uni0495" unicode="&#x495;" horiz-adv-x="638" 
d="M266 -182l6 28q30 -6 57 -6q69 0 127.5 33t93 93t34.5 139q0 81 -51.5 133t-147.5 52q-73 0 -134.5 -38.5t-93.5 -86.5l-32 -165h-30l103 530h417l-6 -30h-387l-54 -275h5q30 36 87.5 65.5t124.5 29.5q111 0 170 -59t59 -156q0 -87 -39 -154t-104 -104t-142 -37
q-32 0 -63 8z" />
    <glyph glyph-name="uni0496" unicode="&#x496;" horiz-adv-x="1162" 
d="M1130 -190h-30l37 190h-54l-426 349l-67 -349h-30l67 349l-559 -349h-53l588 368l1 5l-474 327h49l456 -313l61 313h30l-61 -313l578 313h58l-613 -333l-1 -5l405 -333h80z" />
    <glyph glyph-name="uni0497" unicode="&#x497;" horiz-adv-x="867" 
d="M845 -160h-30l32 160h-41l-319 250l-48 -250h-30l48 250l-415 -250h-52l446 269l-334 261h43l318 -248l49 248h30l-49 -248l416 248h52l-447 -267l297 -233h71z" />
    <glyph glyph-name="uni049A" unicode="&#x49a;" horiz-adv-x="705" 
d="M688 -190h-30l37 190h-55l-438 347l-67 -347h-30l136 700h30l-61 -313l594 313h60l-631 -333l-1 -5l419 -333h79z" />
    <glyph glyph-name="uni049B" unicode="&#x49b;" horiz-adv-x="568" 
d="M556 -160h-30l32 160h-43l-342 250l-48 -250h-30l103 530h30l-49 -248l439 248h53l-470 -266l320 -234h72z" />
    <glyph glyph-name="uni049C" unicode="&#x49c;" horiz-adv-x="727" 
d="M862 700l-412 -333l-1 -5l239 -362h-38l-232 352h-83l-28 -144h-30l28 144h-102l-68 -352h-30l136 700h30l-62 -318h102l28 145h30l-28 -145h81l393 318h47z" />
    <glyph glyph-name="uni049D" unicode="&#x49d;" horiz-adv-x="575" 
d="M628 530h43l-306 -267l198 -263h-38l-190 252h-57l-22 -112h-30l22 112h-74l-49 -252h-30l103 530h30l-48 -248h73l22 112h30l-22 -112h60z" />
    <glyph glyph-name="uni04A2" unicode="&#x4a2;" horiz-adv-x="859" 
d="M839 700h30l-131 -671h91l-42 -219h-30l37 190h-91l67 344h-568l-67 -344h-30l136 700h30l-63 -326h568z" />
    <glyph glyph-name="uni04A3" unicode="&#x4a3;" horiz-adv-x="709" 
d="M671 530h30l-98 -501h81l-37 -189h-30l32 160h-81l50 257h-443l-50 -257h-30l103 530h30l-47 -243h443z" />
    <glyph glyph-name="uni04AA" unicode="&#x4aa;" horiz-adv-x="857" 
d="M363 633q-93 -47 -144.5 -128t-51.5 -180q0 -83 45.5 -152.5t130.5 -111t198 -41.5q67 0 128 15t93 33l-6 -34q-33 -17 -92 -30.5t-123 -13.5h-22l-35 -180h-30l35 182q-108 10 -187.5 56.5t-122 119t-42.5 157.5q0 108 55.5 196t155.5 138.5t229 50.5q103 0 190 -31
t135 -69l-7 -36q-45 41 -129 73.5t-189 32.5q-121 0 -214 -47z" />
    <glyph glyph-name="uni04AB" unicode="&#x4ab;" horiz-adv-x="673" 
d="M289.5 475q-68.5 -35 -106.5 -95.5t-38 -134.5q0 -62 33 -113.5t96 -81.5t148 -30q50 0 98 11.5t74 25.5l-6 -33q-24 -13 -70 -23.5t-96 -10.5h-6l-30 -150h-30l30 151q-84 7 -145.5 42.5t-93.5 90.5t-32 121q0 82 42.5 149.5t118 106.5t169.5 39q84 0 148.5 -21.5
t101.5 -47.5l-7 -33q-33 27 -96 49.5t-147 22.5q-87 0 -155.5 -35z" />
    <glyph glyph-name="uni04AE" unicode="&#x4ae;" horiz-adv-x="729" 
d="M355 0h-30l31 160l-260 540h32l243 -506h5l441 506h38l-469 -540z" />
    <glyph glyph-name="uni04AF" unicode="&#x4af;" horiz-adv-x="568" 
d="M237 -190h-30l35 184l-164 536h29l152 -496h6l346 496h35l-374 -536z" />
    <glyph glyph-name="uni04B0" unicode="&#x4b0;" horiz-adv-x="729" 
d="M817 700h38l-443 -510h189l-5 -30h-210l-31 -160h-30l31 160h-210l5 30h191l-246 510h32l243 -506h5z" />
    <glyph glyph-name="uni04B1" unicode="&#x4b1;" horiz-adv-x="568" 
d="M611 530h35l-345 -500h147l-5 -30h-169l-37 -190h-30l37 190h-169l5 30h149l-151 500h31l150 -500h6z" />
    <glyph glyph-name="uni04B2" unicode="&#x4b2;" horiz-adv-x="691" 
d="M674 -190h-30l37 190h-53l-226 332h-5l-354 -332h-43l380 356l1 5l-230 339h35l213 -315h5l337 315h43l-362 -339l-1 -5l222 -327h73z" />
    <glyph glyph-name="uni04B3" unicode="&#x4b3;" horiz-adv-x="540" 
d="M518 -160h-30l32 160h-39l-174 248h-5l-270 -248h-42l294 269v3l-181 258h34l165 -237h5l259 237h42l-283 -258v-3l169 -239h61z" />
    <glyph glyph-name="uni04B6" unicode="&#x4b6;" horiz-adv-x="820" 
d="M718 -190l37 190h-91l62 321q-126 -46 -250 -46q-130 0 -210.5 50.5t-80.5 157.5q0 28 6 59l30 158h30l-31 -161q-5 -24 -5 -52q0 -97 74 -139.5t188 -42.5q134 0 255 46l68 349h30l-130 -671h90l-42 -219h-30z" />
    <glyph glyph-name="uni04B7" unicode="&#x4b7;" horiz-adv-x="655" 
d="M563 -160l32 160h-81l44 228q-88 -32 -185 -32q-103 0 -167.5 41t-64.5 128q0 20 5 50l22 115h30l-24 -119q-4 -20 -4 -41q0 -75 58.5 -110t147.5 -35q99 0 187 34l54 271h30l-98 -501h81l-37 -189h-30z" />
    <glyph glyph-name="uni04B8" unicode="&#x4b8;" horiz-adv-x="799" 
d="M800 700h30l-136 -700h-30l62 321q-126 -46 -250 -46h-19l-32 -162h-30l32 164q-111 9 -176.5 59t-65.5 147q0 28 6 59l30 158h30l-31 -161q-5 -24 -5 -53q0 -86 60.5 -129t157.5 -50l35 178h30l-35 -180h14q134 0 255 46z" />
    <glyph glyph-name="uni04B9" unicode="&#x4b9;" horiz-adv-x="639" 
d="M617 530h30l-103 -530h-30l44 229q-87 -33 -185 -33h-15l-23 -118h-30l23 120q-85 9 -136 49.5t-51 117.5q0 20 5 50l22 115h30l-24 -119q-4 -20 -4 -41q0 -66 45 -100.5t119 -42.5l27 143h30l-28 -145h13q100 0 188 34z" />
    <glyph glyph-name="uni04BA" unicode="&#x4ba;" horiz-adv-x="784" 
d="M673.5 383.5q78.5 -51.5 78.5 -157.5q0 -29 -6 -62l-32 -164h-30l32 167q6 30 6 54q0 95 -71 139.5t-188 44.5q-72 0 -133.5 -12t-124.5 -34l-70 -359h-30l136 700h30l-60 -311q63 22 124 34t130 12q130 0 208.5 -51.5z" />
    <glyph glyph-name="uni04BB" unicode="&#x4bb;" horiz-adv-x="688" 
d="M95 0l139 720h30l-57 -300h5q17 28 51 55.5t82.5 46t104.5 18.5q54 0 102 -19.5t79 -62t31 -106.5q0 -25 -6 -54l-58 -298h-30l58 299q5 27 5 45q0 74 -49.5 120t-140.5 46q-55 0 -105 -24.5t-86.5 -62t-57.5 -75.5l-67 -348h-30z" />
    <glyph glyph-name="uni04C1" unicode="&#x4c1;" horiz-adv-x="1165" 
d="M68 0h-53l588 368l1 5l-474 327h49l456 -313l61 313h30l-61 -313l578 313h58l-613 -333l-1 -5l440 -362h-44l-426 349l-67 -349h-30l67 349zM605 809.5q-41 33.5 -41 95.5h30q0 -47 34.5 -74t100.5 -27q64 0 97.5 28t37.5 73h30q-6 -58 -48.5 -93.5t-118.5 -35.5
q-81 0 -122 33.5z" />
    <glyph glyph-name="uni04C2" unicode="&#x4c2;" horiz-adv-x="858" 
d="M42 0h-52l446 269l-334 261h43l318 -248l49 248h30l-49 -248l416 248h52l-447 -267l335 -263h-43l-319 250l-48 -250h-30l48 250zM434 656q-38 30 -38 84h28q0 -39 32.5 -62.5t94.5 -23.5q60 0 90 24t33 62h28q-5 -51 -43 -82.5t-111 -31.5q-76 0 -114 30z" />
    <glyph glyph-name="uni04D2" unicode="&#x4d2;" horiz-adv-x="760" 
d="M780 0h-30l-71 219h-477l-156 -219h-36l500 700h42zM525 671l-301 -422h445l-138 422h-6zM434.5 823q-8.5 8 -8.5 20q0 13 10.5 22.5t27.5 9.5q14 0 23 -8t9 -20q0 -13 -11 -22.5t-27 -9.5q-15 0 -23.5 8zM608.5 823q-8.5 8 -8.5 20q0 13 11 22.5t27 9.5q15 0 23.5 -8
t8.5 -20q0 -13 -11 -22.5t-27 -9.5q-15 0 -23.5 8z" />
    <glyph glyph-name="uni04D3" unicode="&#x4d3;" horiz-adv-x="676" 
d="M137.5 30q-56.5 40 -56.5 107q0 70 59.5 116t176.5 46h152q161 0 161 90q0 29 -24.5 56.5t-78.5 45.5t-138 18q-62 0 -121 -11.5t-95 -25.5l6 33q31 13 88 24t120 11q95 0 156 -21.5t89 -55t28 -71.5q0 -7 -2 -21l-72 -371h-30l19 103q-34 -43 -108 -78t-167 -35
q-106 0 -162.5 40zM468.5 59q75.5 39 114.5 87l33 166q-8 -16 -48.5 -29.5t-106.5 -13.5h-147q-104 0 -153 -35t-49 -97q0 -51 52.5 -84t140.5 -33t163.5 39zM342.5 663q-8.5 8 -8.5 20q0 13 10.5 22.5t27.5 9.5q14 0 23 -8t9 -20q0 -13 -11 -22.5t-27 -9.5q-15 0 -23.5 8z
M516.5 663q-8.5 8 -8.5 20q0 13 11 22.5t27 9.5q15 0 23.5 -8t8.5 -20q0 -13 -11 -22.5t-27 -9.5q-15 0 -23.5 8z" />
    <glyph glyph-name="uni04D8" unicode="&#x4d8;" horiz-adv-x="953" 
d="M752 665q98 -45 148.5 -121t50.5 -169q0 -108 -54.5 -196t-152 -138.5t-220.5 -50.5q-121 0 -209 43.5t-134 118.5t-46 167q0 29 4 53h782v3q0 84 -47 153.5t-138 110.5t-218 41q-76 0 -143.5 -17t-109.5 -37l7 35q41 18 107 33.5t139 15.5q136 0 234 -45zM719 62
q87 42 139.5 115.5t60.5 164.5h-754l-1 -22q0 -82 42 -150.5t123.5 -109t194.5 -40.5q108 0 195 42z" />
    <glyph glyph-name="uni04D9" unicode="&#x4d9;" horiz-adv-x="738" 
d="M578.5 507.5q72.5 -32.5 110.5 -89t38 -128.5q0 -85 -42 -153.5t-115.5 -107.5t-161.5 -39q-90 0 -157 32.5t-102 89t-35 125.5q0 23 3 47h579v3q0 65 -34 115.5t-100.5 79t-159.5 28.5q-63 0 -117.5 -11t-84.5 -25l7 33q30 13 84 23t115 10q100 0 172.5 -32.5zM546 50
q62 30 101 83.5t47 120.5h-550v-13q0 -62 31 -112t91 -79.5t144 -29.5q74 0 136 30z" />
    <glyph glyph-name="uni04E0" unicode="&#x4e0;" horiz-adv-x="701" 
d="M197.5 17q-89.5 27 -138.5 60l7 35q47 -35 134 -63.5t191 -28.5q84 0 141.5 24t86 63.5t28.5 85.5q0 45 -33 84t-101 63t-169 24q-42 0 -75 -5.5t-48 -12.5l5 29l463 289l1 6h-530l6 30h604l-5 -22l-447 -279l-1 -5h17q117 0 194 -27.5t113.5 -72t36.5 -97.5
q0 -57 -33 -104t-98 -75t-157 -28q-103 0 -192.5 27z" />
    <glyph glyph-name="uni04E1" unicode="&#x4e1;" horiz-adv-x="604" 
d="M114 -174.5q-78 25.5 -116 57.5l6 33q35 -33 111.5 -59.5t175.5 -26.5q78 0 134.5 24t85.5 64t29 88q0 47 -30 87.5t-90.5 65t-147.5 24.5q-41 0 -74 -6.5t-48 -14.5l5 25l420 308l1 5h-447l6 30h505l-6 -26l-388 -285l-1 -6h26q98 0 165.5 -28t100.5 -74t33 -100
q0 -58 -33 -106t-97.5 -76.5t-152.5 -28.5q-95 0 -173 25.5z" />
    <glyph glyph-name="uni04E2" unicode="&#x4e2;" horiz-adv-x="835" 
d="M154 0h-49l136 700h30l-130 -666h5l671 666h49l-136 -700h-30l130 667h-5zM736 828h-344l6 30h344z" />
    <glyph glyph-name="uni04E3" unicode="&#x4e3;" horiz-adv-x="693" 
d="M139 0h-44l103 530h30l-96 -493h5l520 493h44l-103 -530h-30l95 493h-5zM631 668h-344l6 30h344z" />
    <glyph glyph-name="uni04E6" unicode="&#x4e6;" horiz-adv-x="1012" 
d="M336 35q-98 45 -148.5 121t-50.5 169q0 108 55.5 196t155.5 138.5t229 50.5q136 0 234 -45t148.5 -121t50.5 -169q0 -108 -55.5 -196t-155.5 -138.5t-229 -50.5q-136 0 -234 45zM784 67q93 47 144.5 128t51.5 180q0 84 -47 153.5t-138 110.5t-218 41q-121 0 -214 -47
t-144.5 -128t-51.5 -180q0 -84 47 -153.5t138 -110.5t218 -41q121 0 214 47zM504.5 823q-8.5 8 -8.5 20q0 13 10.5 22.5t27.5 9.5q14 0 23 -8t9 -20q0 -13 -11 -22.5t-27 -9.5q-15 0 -23.5 8zM678.5 823q-8.5 8 -8.5 20q0 13 11 22.5t27 9.5q15 0 23.5 -8t8.5 -20
q0 -13 -11 -22.5t-27 -9.5q-15 0 -23.5 8z" />
    <glyph glyph-name="uni04E7" unicode="&#x4e7;" horiz-adv-x="774" 
d="M261 24q-72 34 -109 92t-37 129q0 82 42.5 149.5t118 106.5t169.5 39q99 0 171 -34t109 -92t37 -129q0 -82 -42.5 -149.5t-118 -106.5t-169.5 -39q-99 0 -171 34zM587.5 55q68.5 35 106.5 95.5t38 134.5q0 62 -34 113.5t-98.5 81.5t-154.5 30q-87 0 -155.5 -35
t-106.5 -95.5t-38 -134.5q0 -62 34 -113.5t98.5 -81.5t154.5 -30q87 0 155.5 35zM374.5 663q-8.5 8 -8.5 20q0 13 10.5 22.5t27.5 9.5q14 0 23 -8t9 -20q0 -13 -11 -22.5t-27 -9.5q-15 0 -23.5 8zM548.5 663q-8.5 8 -8.5 20q0 13 11 22.5t27 9.5q15 0 23.5 -8t8.5 -20
q0 -13 -11 -22.5t-27 -9.5q-15 0 -23.5 8z" />
    <glyph glyph-name="uni04E8" unicode="&#x4e8;" horiz-adv-x="1012" 
d="M811 665q98 -45 148.5 -121t50.5 -169q0 -108 -55.5 -196t-155.5 -138.5t-229 -50.5q-136 0 -234 45t-148.5 121t-50.5 169q0 108 55.5 196t155.5 138.5t229 50.5q136 0 234 -45zM376 639q-89 -41 -142.5 -112.5t-64.5 -161.5h811v10q0 84 -47 153.5t-138 110.5t-218 41
q-112 0 -201 -41zM771 61q89 41 142.5 112.5t64.5 161.5h-811v-10q0 -84 47 -153.5t138 -110.5t218 -41q112 0 201 41z" />
    <glyph glyph-name="uni04E9" unicode="&#x4e9;" horiz-adv-x="774" 
d="M616 506q72 -34 109 -92t37 -129q0 -82 -42.5 -149.5t-118 -106.5t-169.5 -39q-99 0 -171 34t-109 92t-37 129q0 82 42.5 149.5t118 106.5t169.5 39q99 0 171 -34zM300.5 480q-64.5 -30 -104.5 -82t-49 -118h585v5q0 62 -34 113.5t-98.5 81.5t-154.5 30q-80 0 -144.5 -30
zM576.5 50q64.5 30 104.5 82t49 118h-585v-5q0 -62 34 -113.5t98.5 -81.5t154.5 -30q80 0 144.5 30z" />
    <glyph glyph-name="uni04EE" unicode="&#x4ee;" horiz-adv-x="713" 
d="M792 700h37l-467 -602q-40 -51 -81 -79.5t-105 -28.5q-35 0 -65 9l6 29q25 -8 59 -8q48 0 87 22.5t79 76.5l26 34l-247 547h32l234 -517h4zM651 828h-344l6 30h344z" />
    <glyph glyph-name="uni04EF" unicode="&#x4ef;" horiz-adv-x="548" 
d="M124 -190h-35l170 241l-176 479h32l163 -444h5l313 444h35zM542 668h-344l6 30h344z" />
    <glyph glyph-name="uni04F0" unicode="&#x4f0;" horiz-adv-x="713" 
d="M792 700h37l-467 -602q-40 -51 -81 -79.5t-105 -28.5q-35 0 -65 9l6 29q25 -8 59 -8q48 0 87 22.5t79 76.5l26 34l-247 547h32l234 -517h4zM369.5 823q-8.5 8 -8.5 20q0 13 10.5 22.5t27.5 9.5q14 0 23 -8t9 -20q0 -13 -11 -22.5t-27 -9.5q-15 0 -23.5 8zM543.5 823
q-8.5 8 -8.5 20q0 13 11 22.5t27 9.5q15 0 23.5 -8t8.5 -20q0 -13 -11 -22.5t-27 -9.5q-15 0 -23.5 8z" />
    <glyph glyph-name="uni04F1" unicode="&#x4f1;" horiz-adv-x="548" 
d="M124 -190h-35l170 241l-176 479h32l163 -444h5l313 444h35zM260.5 663q-8.5 8 -8.5 20q0 13 10.5 22.5t27.5 9.5q14 0 23 -8t9 -20q0 -13 -11 -22.5t-27 -9.5q-15 0 -23.5 8zM434.5 663q-8.5 8 -8.5 20q0 13 11 22.5t27 9.5q15 0 23.5 -8t8.5 -20q0 -13 -11 -22.5
t-27 -9.5q-15 0 -23.5 8z" />
    <glyph glyph-name="Wgrave" unicode="&#x1e80;" horiz-adv-x="1185" 
d="M317 0h-48l-143 700h30l137 -671h5l385 671h45l123 -671h5l399 671h36l-415 -700h-48l-124 667h-5zM841 786h-2l-231 80l7 36h15l221 -95z" />
    <glyph glyph-name="wgrave" unicode="&#x1e81;" horiz-adv-x="921" 
d="M243 0h-43l-112 530h29l106 -500h4l294 500h41l98 -500h4l302 500h33l-318 -530h-43l-99 497h-5zM681 626h-2l-231 80l7 36h15l221 -95z" />
    <glyph glyph-name="Wacute" unicode="&#x1e82;" horiz-adv-x="1185" 
d="M317 0h-48l-143 700h30l137 -671h5l385 671h45l123 -671h5l399 671h36l-415 -700h-48l-124 667h-5zM584 786h-2l-2 21l259 95h15l-7 -36z" />
    <glyph glyph-name="wacute" unicode="&#x1e83;" horiz-adv-x="921" 
d="M243 0h-43l-112 530h29l106 -500h4l294 500h41l98 -500h4l302 500h33l-318 -530h-43l-99 497h-5zM424 626h-2l-2 21l259 95h15l-7 -36z" />
    <glyph glyph-name="Wdieresis" unicode="&#x1e84;" horiz-adv-x="1185" 
d="M317 0h-48l-143 700h30l137 -671h5l385 671h45l123 -671h5l399 671h36l-415 -700h-48l-124 667h-5zM609.5 823q-8.5 8 -8.5 20q0 13 10.5 22.5t27.5 9.5q14 0 23 -8t9 -20q0 -13 -11 -22.5t-27 -9.5q-15 0 -23.5 8zM783.5 823q-8.5 8 -8.5 20q0 13 11 22.5t27 9.5
q15 0 23.5 -8t8.5 -20q0 -13 -11 -22.5t-27 -9.5q-15 0 -23.5 8z" />
    <glyph glyph-name="wdieresis" unicode="&#x1e85;" horiz-adv-x="921" 
d="M243 0h-43l-112 530h29l106 -500h4l294 500h41l98 -500h4l302 500h33l-318 -530h-43l-99 497h-5zM449.5 663q-8.5 8 -8.5 20q0 13 10.5 22.5t27.5 9.5q14 0 23 -8t9 -20q0 -13 -11 -22.5t-27 -9.5q-15 0 -23.5 8zM623.5 663q-8.5 8 -8.5 20q0 13 11 22.5t27 9.5
q15 0 23.5 -8t8.5 -20q0 -13 -11 -22.5t-27 -9.5q-15 0 -23.5 8z" />
    <glyph glyph-name="uni1E9E" unicode="&#x1e9e;" horiz-adv-x="946" 
d="M533 11.5q-79 21.5 -119 49.5l7 34q37 -29 114.5 -52t167.5 -23q72 0 120 20.5t71 53.5t23 71q0 47 -29 78t-72 50t-114 42q-77 26 -122 46.5t-76.5 55.5t-31.5 89t28 91t62 48l1 5h-298l-130 -670h-30l136 700h546l-6 -30h-64q-110 0 -162 -39t-52 -99q0 -46 28.5 -76.5
t71 -49.5t112.5 -42q77 -25 123 -46.5t78 -57.5t32 -91q0 -48 -27.5 -89t-83.5 -65.5t-137 -24.5q-88 0 -167 21.5z" />
    <glyph glyph-name="uni1EBC" unicode="&#x1ebc;" horiz-adv-x="704" 
d="M760 700l-6 -30h-489l-58 -296h449l-6 -30h-449l-61 -314h509l-5 -30h-539l136 700h519zM561.5 806q-20.5 11 -46.5 33q-21 18 -37.5 27.5t-36.5 9.5q-21 0 -36.5 -13t-19.5 -36l-5 -27h-29l6 31q7 35 29.5 54.5t54.5 19.5q27 0 47.5 -11t46.5 -33q21 -18 37.5 -27.5
t36.5 -9.5q21 0 36.5 13t19.5 36l5 27h29l-6 -31q-7 -35 -29.5 -54.5t-54.5 -19.5q-27 0 -47.5 11z" />
    <glyph glyph-name="uni1EBD" unicode="&#x1ebd;" horiz-adv-x="697" 
d="M259 22.5q-71 32.5 -108 89t-37 128.5q0 86 40.5 154.5t110.5 107t154 38.5q81 0 142.5 -31t95 -86.5t33.5 -125.5q0 -28 -4 -51h-542q0 -65 33.5 -116t97.5 -80.5t154 -29.5q55 0 104 12.5t76 27.5l-6 -33q-26 -14 -73.5 -25.5t-102.5 -11.5q-97 0 -168 32.5zM659 276
l1 16q0 64 -30 113.5t-84 77t-125 27.5q-69 0 -127.5 -27.5t-97.5 -80.5t-50 -126h513zM496.5 646q-20.5 11 -46.5 33q-21 18 -37.5 27.5t-36.5 9.5q-21 0 -36.5 -13t-19.5 -36l-5 -27h-29l6 31q7 35 29.5 54.5t54.5 19.5q27 0 47.5 -11t46.5 -33q21 -18 37.5 -27.5
t36.5 -9.5q21 0 36.5 13t19.5 36l5 27h29l-6 -31q-7 -35 -29.5 -54.5t-54.5 -19.5q-27 0 -47.5 11z" />
    <glyph glyph-name="Ygrave" unicode="&#x1ef2;" horiz-adv-x="729" 
d="M355 0h-30l31 160l-260 540h32l243 -506h5l441 506h38l-469 -540zM597 786h-2l-231 80l7 36h15l221 -95z" />
    <glyph glyph-name="ygrave" unicode="&#x1ef3;" horiz-adv-x="548" 
d="M124 -190h-35l170 241l-176 479h32l163 -444h5l313 444h35zM483 626h-2l-231 80l7 36h15l221 -95z" />
    <glyph glyph-name="uni1EF8" unicode="&#x1ef8;" horiz-adv-x="729" 
d="M355 0h-30l31 160l-260 540h32l243 -506h5l441 506h38l-469 -540zM526.5 806q-20.5 11 -46.5 33q-21 18 -37.5 27.5t-36.5 9.5q-21 0 -36.5 -13t-19.5 -36l-5 -27h-29l6 31q7 35 29.5 54.5t54.5 19.5q27 0 47.5 -11t46.5 -33q21 -18 37.5 -27.5t36.5 -9.5q21 0 36.5 13
t19.5 36l5 27h29l-6 -31q-7 -35 -29.5 -54.5t-54.5 -19.5q-27 0 -47.5 11z" />
    <glyph glyph-name="uni1EF9" unicode="&#x1ef9;" horiz-adv-x="548" 
d="M124 -190h-35l170 241l-176 479h32l163 -444h5l313 444h35zM412.5 646q-20.5 11 -46.5 33q-21 18 -37.5 27.5t-36.5 9.5q-21 0 -36.5 -13t-19.5 -36l-5 -27h-29l6 31q7 35 29.5 54.5t54.5 19.5q27 0 47.5 -11t46.5 -33q21 -18 37.5 -27.5t36.5 -9.5q21 0 36.5 13t19.5 36
l5 27h29l-6 -31q-7 -35 -29.5 -54.5t-54.5 -19.5q-27 0 -47.5 11z" />
    <glyph glyph-name="endash" unicode="&#x2013;" horiz-adv-x="713" 
d="M722 304h-603l5 30h603z" />
    <glyph glyph-name="emdash" unicode="&#x2014;" horiz-adv-x="1008" 
d="M1017 304h-898l5 30h898z" />
    <glyph glyph-name="quoteleft" unicode="&#x2018;" horiz-adv-x="254" 
d="M202 512q-18 21 -18 57q0 46 17.5 81.5t47 55t62.5 19.5h11l-4 -25h-9q-42 0 -71 -36t-29 -94q0 -25 12 -37q11 18 32 18q15 0 23.5 -7.5t8.5 -19.5q0 -14 -11 -23.5t-28 -9.5q-26 0 -44 21z" />
    <glyph glyph-name="quoteright" unicode="&#x2019;" horiz-adv-x="255" 
d="M168 491l4 25h9q42 0 71 36t29 94q0 25 -12 37q-11 -18 -32 -18q-15 0 -23.5 7.5t-8.5 19.5q0 14 11 23.5t28 9.5q26 0 44 -21t18 -57q0 -46 -17.5 -81.5t-47 -55t-62.5 -19.5h-11z" />
    <glyph glyph-name="quotesinglbase" unicode="&#x201a;" horiz-adv-x="172" 
d="M2 -179l4 25h9q42 0 71 36t29 94q0 25 -12 37q-11 -18 -32 -18q-15 0 -23.5 7.5t-8.5 19.5q0 14 11 23.5t28 9.5q26 0 44 -21t18 -57q0 -46 -17.5 -81.5t-47 -55t-62.5 -19.5h-11z" />
    <glyph glyph-name="quotedblleft" unicode="&#x201c;" horiz-adv-x="399" 
d="M202 512q-18 21 -18 57q0 46 17.5 81.5t47 55t62.5 19.5h11l-4 -25h-9q-42 0 -71 -36t-29 -94q0 -25 12 -37q11 18 32 18q15 0 23.5 -7.5t8.5 -19.5q0 -14 -11 -23.5t-28 -9.5q-26 0 -44 21zM347 512q-18 21 -18 57q0 46 17.5 81.5t47 55t62.5 19.5h11l-4 -25h-9
q-42 0 -71 -36t-29 -94q0 -25 12 -37q11 18 32 18q15 0 23.5 -7.5t8.5 -19.5q0 -14 -11 -23.5t-28 -9.5q-26 0 -44 21z" />
    <glyph glyph-name="quotedblright" unicode="&#x201d;" horiz-adv-x="400" 
d="M168 491l4 25h9q42 0 71 36t29 94q0 25 -12 37q-11 -18 -32 -18q-15 0 -23.5 7.5t-8.5 19.5q0 14 11 23.5t28 9.5q26 0 44 -21t18 -57q0 -46 -17.5 -81.5t-47 -55t-62.5 -19.5h-11zM313 491l4 25h9q42 0 71 36t29 94q0 25 -12 37q-11 -18 -32 -18q-15 0 -23.5 7.5
t-8.5 19.5q0 14 11 23.5t28 9.5q26 0 44 -21t18 -57q0 -46 -17.5 -81.5t-47 -55t-62.5 -19.5h-11z" />
    <glyph glyph-name="quotedblbase" unicode="&#x201e;" horiz-adv-x="317" 
d="M2 -179l4 25h9q42 0 71 36t29 94q0 25 -12 37q-11 -18 -32 -18q-15 0 -23.5 7.5t-8.5 19.5q0 14 11 23.5t28 9.5q26 0 44 -21t18 -57q0 -46 -17.5 -81.5t-47 -55t-62.5 -19.5h-11zM147 -179l4 25h9q42 0 71 36t29 94q0 25 -12 37q-11 -18 -32 -18q-15 0 -23.5 7.5
t-8.5 19.5q0 14 11 23.5t28 9.5q26 0 44 -21t18 -57q0 -46 -17.5 -81.5t-47 -55t-62.5 -19.5h-11z" />
    <glyph glyph-name="dagger" unicode="&#x2020;" horiz-adv-x="520" 
d="M228 -190h-30l128 660l-207 -7l7 35l204 -6l44 228h30l-44 -228l206 6l-7 -35l-203 7z" />
    <glyph glyph-name="daggerdbl" unicode="&#x2021;" horiz-adv-x="520" 
d="M228 -190h-30l36 188l-166 -6l7 35l163 -7l88 450l-207 -7l7 35l204 -5l44 227h30l-44 -227l206 5l-7 -35l-203 7l-88 -450l167 7l-7 -35l-164 6z" />
    <glyph glyph-name="bullet" unicode="&#x2022;" horiz-adv-x="340" 
d="M189.5 290q-12.5 13 -12.5 33q0 22 16 38t39 16q20 0 33 -13t13 -33q0 -23 -16.5 -38.5t-39.5 -15.5q-20 0 -32.5 13z" />
    <glyph glyph-name="ellipsis" unicode="&#x2026;" horiz-adv-x="494" 
d="M47.5 3q-8.5 8 -8.5 20q0 13 11 22.5t27 9.5q15 0 23.5 -8t8.5 -20q0 -13 -11 -22.5t-27 -9.5q-15 0 -23.5 8zM229.5 3q-8.5 8 -8.5 20q0 13 11 22.5t27 9.5q15 0 23.5 -8t8.5 -20q0 -13 -11 -22.5t-27 -9.5q-15 0 -23.5 8zM411.5 3q-8.5 8 -8.5 20q0 13 11 22.5t27 9.5
q15 0 23.5 -8t8.5 -20q0 -13 -11 -22.5t-27 -9.5q-15 0 -23.5 8z" />
    <glyph glyph-name="perthousand" unicode="&#x2030;" horiz-adv-x="1204" 
d="M194 444.5q-41 38.5 -41 97.5q0 47 22.5 85.5t61 60.5t84.5 22q67 0 108 -38.5t41 -97.5q0 -47 -22.5 -85.5t-61 -60.5t-84.5 -22q-67 0 -108 38.5zM213 0h-35l562 700h35zM373.5 452.5q31.5 18.5 50 50.5t18.5 71q0 46 -33.5 77t-88.5 31q-39 0 -70.5 -18.5t-50 -50.5
t-18.5 -71q0 -46 33.5 -77t88.5 -31q39 0 70.5 18.5zM509 28.5q-41 38.5 -41 97.5q0 47 22.5 85.5t61 60.5t84.5 22q67 0 108 -38.5t41 -97.5q0 -47 -22.5 -85.5t-61 -60.5t-84.5 -22q-67 0 -108 38.5zM901 28.5q-41 38.5 -41 97.5q0 47 22.5 85.5t61 60.5t84.5 22
q67 0 108 -38.5t41 -97.5q0 -47 -22.5 -85.5t-61 -60.5t-84.5 -22q-67 0 -108 38.5zM688.5 36.5q31.5 18.5 50 50.5t18.5 71q0 46 -33.5 77t-88.5 31q-39 0 -70.5 -18.5t-50 -50.5t-18.5 -71q0 -46 33.5 -77t88.5 -31q39 0 70.5 18.5zM1080.5 36.5q31.5 18.5 50 50.5
t18.5 71q0 46 -33.5 77t-88.5 31q-39 0 -70.5 -18.5t-50 -50.5t-18.5 -71q0 -46 33.5 -77t88.5 -31q39 0 70.5 18.5z" />
    <glyph glyph-name="guilsinglleft" unicode="&#x2039;" horiz-adv-x="311" 
d="M254 35h-33l-139 235l231 235h41l-236 -240z" />
    <glyph glyph-name="guilsinglright" unicode="&#x203a;" horiz-adv-x="311" 
d="M82 35h-41l236 240l-136 230h33l139 -235z" />
    <glyph glyph-name="fraction" unicode="&#x2044;" horiz-adv-x="199" 
d="M-75 0h-35l523 700h35z" />
    <glyph glyph-name="uni2070" unicode="&#x2070;" horiz-adv-x="422" 
d="M188.5 484.5q-44.5 44.5 -44.5 115.5q0 61 27 109t71.5 74.5t95.5 26.5q72 0 116.5 -44.5t44.5 -115.5q0 -61 -27 -109t-71.5 -74.5t-95.5 -26.5q-72 0 -116.5 44.5zM387 491q38 23 61 64t23 94q0 58 -37.5 95.5t-96.5 37.5q-43 0 -81 -23t-61 -64t-23 -94
q0 -58 37.5 -95.5t96.5 -37.5q43 0 81 23z" />
    <glyph glyph-name="uni2074" unicode="&#x2074;" horiz-adv-x="358" 
d="M352 450h-28l19 97h-227l6 31l253 222h38l-251 -220l-1 -5h187l23 115h28l-23 -115h73l-5 -28h-73z" />
    <glyph glyph-name="uni2075" unicode="&#x2075;" horiz-adv-x="367" 
d="M203 453q-41 13 -64 28l6 30q22 -16 62 -29.5t82 -13.5q54 0 85 23.5t31 53.5q0 31 -34.5 55t-102.5 24q-25 0 -46.5 -5t-32.5 -11l-14 13l44 179h238l-5 -28h-211l-34 -131q9 4 25.5 7.5t35.5 3.5q81 0 123.5 -29.5t42.5 -73.5q0 -29 -17.5 -54t-50 -40t-76.5 -15
q-46 0 -87 13z" />
    <glyph glyph-name="uni2076" unicode="&#x2076;" horiz-adv-x="366" 
d="M159.5 469q-44.5 30 -44.5 72q0 20 9.5 37.5t40.5 46.5l186 175h39l-172 -161l1 -4q27 8 52 8q54 0 91 -14.5t55 -37.5t18 -49q0 -43 -37.5 -73t-107.5 -30q-86 0 -130.5 30zM377.5 488.5q29.5 21.5 29.5 50.5q0 30 -36.5 53t-110.5 23q-57 0 -86.5 -21t-29.5 -50
q0 -19 16 -36.5t49.5 -29t81.5 -11.5q57 0 86.5 21.5z" />
    <glyph glyph-name="uni2077" unicode="&#x2077;" horiz-adv-x="318" 
d="M207 450h-33l228 322h-242l5 28h278l-4 -21z" />
    <glyph glyph-name="uni2078" unicode="&#x2078;" horiz-adv-x="432" 
d="M225 453.5q-41 14.5 -61 37.5t-20 48q0 34 30 56.5t73 27.5l1 5q-81 29 -81 83q0 41 41 70.5t116 29.5q66 0 109 -15.5t63.5 -39.5t20.5 -50q0 -38 -31.5 -60.5t-81.5 -29.5l-1 -5q31 -12 51 -33t20 -45q0 -39 -38 -66.5t-110 -27.5q-60 0 -101 14.5zM456 654.5
q33 20.5 33 47.5q0 19 -17 37.5t-55.5 31t-97.5 12.5q-61 0 -92 -21t-31 -49q0 -29 36.5 -54t126.5 -25q64 0 97 20.5zM417 487q30 20 30 44q0 30 -36.5 52.5t-115.5 22.5q-58 0 -90.5 -20t-32.5 -44q0 -17 15.5 -34t51 -29t90.5 -12q58 0 88 20z" />
    <glyph glyph-name="uni2079" unicode="&#x2079;" horiz-adv-x="402" 
d="M218 450l160 138l-1 4q-26 -4 -54 -4q-59 0 -99 17t-59.5 43.5t-19.5 53.5q0 46 42.5 77.5t118.5 31.5q63 0 106 -16.5t63 -43t20 -55.5q0 -20 -10 -39t-41 -46l-187 -161h-39zM406.5 626.5q30.5 11.5 45.5 29.5t15 37q0 21 -17.5 41.5t-54 34t-90.5 13.5
q-62 0 -97 -23.5t-35 -53.5q0 -20 16.5 -40.5t53 -35t91.5 -14.5q42 0 72.5 11.5z" />
    <glyph glyph-name="uni2080" unicode="&#x2080;" horiz-adv-x="422" 
d="M91.5 -65.5q-44.5 44.5 -44.5 115.5q0 61 27 109t71.5 74.5t95.5 26.5q72 0 116.5 -44.5t44.5 -115.5q0 -61 -27 -109t-71.5 -74.5t-95.5 -26.5q-72 0 -116.5 44.5zM290 -59q38 23 61 64t23 94q0 58 -37.5 95.5t-96.5 37.5q-43 0 -81 -23t-61 -64t-23 -94
q0 -58 37.5 -95.5t96.5 -37.5q43 0 81 23z" />
    <glyph glyph-name="uni2081" unicode="&#x2081;" horiz-adv-x="327" 
d="M35 -100l5 28h113l45 228h-113l5 28h73q23 0 33 9t15 31l5 26h28l-63 -322h101l-5 -28h-242z" />
    <glyph glyph-name="uni2082" unicode="&#x2082;" horiz-adv-x="367" 
d="M30 -100l6 33l145 85q59 35 89 57t41.5 40.5t11.5 41.5q0 31 -29.5 53.5t-86.5 22.5q-32 0 -66.5 -8.5t-57.5 -19.5l6 30q21 9 54.5 17t64.5 8q70 0 106.5 -28t36.5 -71q0 -28 -12 -50.5t-43.5 -47.5t-90.5 -60l-120 -70l-1 -5h213l-5 -28h-262z" />
    <glyph glyph-name="uni2083" unicode="&#x2083;" horiz-adv-x="367" 
d="M90.5 -96.5q-41.5 13.5 -63.5 29.5l6 30q22 -17 62 -31t83 -14q53 0 84 23.5t31 53.5q0 19 -14.5 37.5t-42 30t-62.5 11.5q-45 0 -63 -3l5 26l167 121l1 4h-196l5 28h252l-4 -21l-169 -122l-1 -5h8q45 0 77 -15t48.5 -39t16.5 -50q0 -45 -39 -76.5t-105 -31.5
q-45 0 -86.5 13.5z" />
    <glyph glyph-name="uni2084" unicode="&#x2084;" horiz-adv-x="358" 
d="M255 -100h-28l19 97h-227l6 31l253 222h38l-251 -220l-1 -5h187l23 115h28l-23 -115h73l-5 -28h-73z" />
    <glyph glyph-name="uni2085" unicode="&#x2085;" horiz-adv-x="366" 
d="M106 -97q-41 13 -64 28l6 30q22 -16 62 -29.5t82 -13.5q54 0 85 23.5t31 53.5q0 31 -34.5 55t-102.5 24q-25 0 -46.5 -5t-32.5 -11l-14 13l44 179h238l-5 -28h-211l-34 -131q9 4 25.5 7.5t35.5 3.5q81 0 123.5 -29.5t42.5 -73.5q0 -29 -17.5 -54t-50 -40t-76.5 -15
q-46 0 -87 13z" />
    <glyph glyph-name="uni2086" unicode="&#x2086;" horiz-adv-x="367" 
d="M63.5 -81q-44.5 30 -44.5 72q0 20 9.5 37.5t40.5 46.5l186 175h39l-172 -161l1 -4q27 8 52 8q54 0 91 -14.5t55 -37.5t18 -49q0 -43 -37.5 -73t-107.5 -30q-86 0 -130.5 30zM281.5 -61.5q29.5 21.5 29.5 50.5q0 30 -36.5 53t-110.5 23q-57 0 -86.5 -21t-29.5 -50
q0 -19 16 -36.5t49.5 -29t81.5 -11.5q57 0 86.5 21.5z" />
    <glyph glyph-name="uni2087" unicode="&#x2087;" horiz-adv-x="318" 
d="M110 -100h-33l228 322h-242l5 28h278l-4 -21z" />
    <glyph glyph-name="uni2088" unicode="&#x2088;" horiz-adv-x="432" 
d="M128 -96.5q-41 14.5 -61 37.5t-20 48q0 34 30 56.5t73 27.5l1 5q-81 29 -81 83q0 41 41 70.5t116 29.5q66 0 109 -15.5t63.5 -39.5t20.5 -50q0 -38 -31.5 -60.5t-81.5 -29.5l-1 -5q31 -12 51 -33t20 -45q0 -39 -38 -66.5t-110 -27.5q-60 0 -101 14.5zM359 104.5
q33 20.5 33 47.5q0 19 -17 37.5t-55.5 31t-97.5 12.5q-61 0 -92 -21t-31 -49q0 -29 36.5 -54t126.5 -25q64 0 97 20.5zM320 -63q30 20 30 44q0 30 -36.5 52.5t-115.5 22.5q-58 0 -90.5 -20t-32.5 -44q0 -17 15.5 -34t51 -29t90.5 -12q58 0 88 20z" />
    <glyph glyph-name="uni2089" unicode="&#x2089;" horiz-adv-x="402" 
d="M121 -100l160 138l-1 4q-26 -4 -54 -4q-59 0 -99 17t-59.5 43.5t-19.5 53.5q0 46 42.5 77.5t118.5 31.5q63 0 106 -16.5t63 -43t20 -55.5q0 -20 -10 -39t-41 -46l-187 -161h-39zM309.5 76.5q30.5 11.5 45.5 29.5t15 37q0 21 -17.5 41.5t-54 34t-90.5 13.5
q-62 0 -97 -23.5t-35 -53.5q0 -20 16.5 -40.5t53 -35t91.5 -14.5q42 0 72.5 11.5z" />
    <glyph glyph-name="uni20A9" unicode="&#x20a9;" horiz-adv-x="1097" 
d="M1095 700h33l-129 -251h120l-6 -30h-129l-72 -140h174l-6 -30h-183l-128 -249h-47l-66 667h-5l-324 -667h-49l-31 249h-184l6 30h174l-17 140h-130l6 30h120l-31 251h31l82 -671h5l327 671h45l65 -671h5z" />
    <glyph glyph-name="Euro" unicode="&#x20ac;" horiz-adv-x="882" 
d="M427.5 650q-79.5 -30 -134 -83.5t-80.5 -123.5h463l-6 -30h-467q-11 -44 -11 -88q0 -20 3 -38h450l-6 -30h-439q17 -68 66 -121.5t125.5 -84.5t174.5 -31q67 0 128 15t93 33l-6 -34q-33 -17 -92 -30.5t-123 -13.5q-107 0 -191 34.5t-136.5 95t-69.5 137.5h-93l6 30h82
q-2 24 -2 38q0 48 10 88h-65l6 30h68q26 79 85 139.5t145.5 94t190.5 33.5q103 0 190 -31t135 -69l-7 -36q-45 41 -129 73.5t-189 32.5q-95 0 -174.5 -30z" />
    <glyph glyph-name="uni20B4" unicode="&#x20b4;" horiz-adv-x="792" 
d="M813 419l-6 -30h-682l6 30h589q22 17 36.5 41t14.5 53q0 39 -34 78t-105 64.5t-176 25.5q-73 0 -136.5 -15.5t-100.5 -33.5l7 35q38 16 100 29.5t133 13.5q113 0 190.5 -28t115 -72t37.5 -91q0 -57 -43 -100h54zM95 236l6 30h682l-6 -30h-603q-26 -30 -26 -69
q0 -36 31 -69.5t98.5 -56t170.5 -22.5q68 0 130 14t97 32l-6 -35q-34 -15 -94 -27.5t-126 -12.5q-113 0 -187.5 25t-109 64.5t-34.5 83.5q0 37 23 73h-46z" />
    <glyph glyph-name="uni20B8" unicode="&#x20b8;" horiz-adv-x="690" 
d="M135 670l6 30h630l-6 -30h-630zM410 540h-301l6 30h630l-6 -30h-299l-105 -540h-30z" />
    <glyph glyph-name="uni20B9" unicode="&#x20b9;" horiz-adv-x="732" 
d="M802 670h-211l-1 -2q54 -23 80.5 -64t26.5 -94v-3h73l-6 -30h-69q-11 -87 -79 -140t-175 -53h-170l-1 -4l307 -280h-46l-311 284h-95l6 30h314q93 0 150.5 44.5t68.5 118.5h-502l6 30h498v2q0 44 -24.5 80.5t-73.5 58.5t-120 22h-248l6 30h602z" />
    <glyph glyph-name="uni20BA" unicode="&#x20ba;" horiz-adv-x="651" 
d="M671 261q-22 -84 -62 -140.5t-117.5 -88.5t-204.5 -32h-148l49 253l-128 -45l7 36l128 45l23 119l-128 -45l7 36l128 45l50 256h30l-48 -244l321 113l-7 -36l-321 -113l-23 -120l321 113l-7 -36l-321 -113l-46 -234h114q146 0 232.5 50.5t119.5 180.5h31z" />
    <glyph glyph-name="uni20BD" unicode="&#x20bd;" horiz-adv-x="812" 
d="M617 700q77 0 130.5 -24t79.5 -63t26 -86q0 -59 -28.5 -104.5t-82.5 -71.5t-128 -26h-395l-26 -134h396l-6 -30h-396l-31 -161h-30l31 161h-96l6 30h96l26 134h-96l6 30h96l67 345h355zM615 355q65 0 112 22t71.5 60t24.5 86q0 38 -23.5 72t-70 54.5t-112.5 20.5h-331
l-61 -315h390z" />
    <glyph glyph-name="uni20BF" unicode="&#x20bf;" horiz-adv-x="788" 
d="M756.5 401q-53.5 -51 -136.5 -59l-1 -5q47 -16 76.5 -56t29.5 -87q0 -55 -27 -99t-79.5 -69.5t-124.5 -25.5h-6l-23 -120h-30l23 120h-188l-23 -120h-30l23 120h-135l136 700h135l24 120h30l-24 -120h144q16 0 44 -2l24 122h30l-25 -125q97 -13 142 -60t45 -109
q0 -74 -53.5 -125zM572 365q99 0 153.5 44t54.5 113q0 62 -55.5 105t-174.5 43h-285l-60 -305h367zM675 261.5q-21 32.5 -65.5 53t-112.5 20.5h-297l-60 -305h352q64 0 110 21t70 57.5t24 82.5q0 38 -21 70.5z" />
    <glyph glyph-name="uni2116" unicode="&#x2116;" horiz-adv-x="1268" 
d="M997.5 404.5q-47.5 44.5 -47.5 114.5q0 53 26 97t71 69t99 25q80 0 127.5 -44.5t47.5 -114.5q0 -53 -26 -97t-71 -69t-99 -25q-80 0 -127.5 44.5zM135 0h-30l136 700h50l409 -673h5l132 673h30l-136 -700h-50l-410 673h-5zM1209 411.5q38 21.5 60 58t22 80.5
q0 55 -40.5 92.5t-105.5 37.5q-45 0 -83 -21.5t-60 -58t-22 -80.5q0 -55 40.5 -92.5t105.5 -37.5q45 0 83 21.5zM1257 256h-350l6 30h350z" />
    <glyph glyph-name="trademark" unicode="&#x2122;" horiz-adv-x="851" 
d="M249 370h-30v300h-124v30h278v-30h-124v-300zM659 360h-1l-166 303h-5v-293h-30v330h48l152 -277h4l152 277h48v-330h-30v293h-5z" />
    <glyph glyph-name="uni2150" unicode="&#x2150;" horiz-adv-x="845" 
d="M118 350l5 28h113l45 228h-113l5 28h73q23 0 33 9t15 31l5 26h28l-63 -322h101l-5 -28h-242zM252 0h-35l523 700h35zM656 0h-33l228 322h-242l5 28h278l-4 -21z" />
    <glyph glyph-name="uni2151" unicode="&#x2151;" horiz-adv-x="927" 
d="M118 350l5 28h113l45 228h-113l5 28h73q23 0 33 9t15 31l5 26h28l-63 -322h101l-5 -28h-242zM252 0h-35l523 700h35zM666 0l160 138l-1 4q-26 -4 -54 -4q-59 0 -99 17t-59.5 43.5t-19.5 53.5q0 46 42.5 77.5t118.5 31.5q63 0 106 -16.5t63 -43t20 -55.5q0 -20 -10 -39
t-41 -46l-187 -161h-39zM854.5 176.5q30.5 11.5 45.5 29.5t15 37q0 21 -17.5 41.5t-54 34t-90.5 13.5q-62 0 -97 -23.5t-35 -53.5q0 -20 16.5 -40.5t53 -35t91.5 -14.5q42 0 72.5 11.5z" />
    <glyph glyph-name="uni2153" unicode="&#x2153;" horiz-adv-x="893" 
d="M118 350l5 28h113l45 228h-113l5 28h73q23 0 33 9t15 31l5 26h28l-63 -322h101l-5 -28h-242zM252 0h-35l523 700h35zM636.5 3.5q-41.5 13.5 -63.5 29.5l6 30q22 -17 62 -31t83 -14q53 0 84 23.5t31 53.5q0 19 -14.5 37.5t-42 30t-62.5 11.5q-45 0 -63 -3l5 26l167 121
l1 4h-196l5 28h252l-4 -21l-169 -122l-1 -5h8q45 0 77 -15t48.5 -39t16.5 -50q0 -45 -39 -76.5t-105 -31.5q-45 0 -86.5 13.5z" />
    <glyph glyph-name="uni2154" unicode="&#x2154;" horiz-adv-x="933" 
d="M113 350l6 33l145 85q59 35 89 57t41.5 40.5t11.5 41.5q0 31 -29.5 53.5t-86.5 22.5q-32 0 -66.5 -8.5t-57.5 -19.5l6 30q21 9 54.5 17t64.5 8q70 0 106.5 -28t36.5 -71q0 -28 -12 -50.5t-43.5 -47.5t-90.5 -60l-120 -70l-1 -5h213l-5 -28h-262zM292 0h-35l523 700h35z
M676.5 3.5q-41.5 13.5 -63.5 29.5l6 30q22 -17 62 -31t83 -14q53 0 84 23.5t31 53.5q0 19 -14.5 37.5t-42 30t-62.5 11.5q-45 0 -63 -3l5 26l167 121l1 4h-196l5 28h252l-4 -21l-169 -122l-1 -5h8q45 0 77 -15t48.5 -39t16.5 -50q0 -45 -39 -76.5t-105 -31.5
q-45 0 -86.5 13.5z" />
    <glyph glyph-name="uni2155" unicode="&#x2155;" horiz-adv-x="893" 
d="M118 350l5 28h113l45 228h-113l5 28h73q23 0 33 9t15 31l5 26h28l-63 -322h101l-5 -28h-242zM252 0h-35l523 700h35zM652 3q-41 13 -64 28l6 30q22 -16 62 -29.5t82 -13.5q54 0 85 23.5t31 53.5q0 31 -34.5 55t-102.5 24q-25 0 -46.5 -5t-32.5 -11l-14 13l44 179h238
l-5 -28h-211l-34 -131q9 4 25.5 7.5t35.5 3.5q81 0 123.5 -29.5t42.5 -73.5q0 -29 -17.5 -54t-50 -40t-76.5 -15q-46 0 -87 13z" />
    <glyph glyph-name="uni2156" unicode="&#x2156;" horiz-adv-x="933" 
d="M113 350l6 33l145 85q59 35 89 57t41.5 40.5t11.5 41.5q0 31 -29.5 53.5t-86.5 22.5q-32 0 -66.5 -8.5t-57.5 -19.5l6 30q21 9 54.5 17t64.5 8q70 0 106.5 -28t36.5 -71q0 -28 -12 -50.5t-43.5 -47.5t-90.5 -60l-120 -70l-1 -5h213l-5 -28h-262zM292 0h-35l523 700h35z
M692 3q-41 13 -64 28l6 30q22 -16 62 -29.5t82 -13.5q54 0 85 23.5t31 53.5q0 31 -34.5 55t-102.5 24q-25 0 -46.5 -5t-32.5 -11l-14 13l44 179h238l-5 -28h-211l-34 -131q9 4 25.5 7.5t35.5 3.5q81 0 123.5 -29.5t42.5 -73.5q0 -29 -17.5 -54t-50 -40t-76.5 -15
q-46 0 -87 13z" />
    <glyph glyph-name="uni2157" unicode="&#x2157;" horiz-adv-x="933" 
d="M173.5 353.5q-41.5 13.5 -63.5 29.5l6 30q22 -17 62 -31t83 -14q53 0 84 23.5t31 53.5q0 19 -14.5 37.5t-42 30t-62.5 11.5q-45 0 -63 -3l5 26l167 121l1 4h-196l5 28h252l-4 -21l-169 -122l-1 -5h8q45 0 77 -15t48.5 -39t16.5 -50q0 -45 -39 -76.5t-105 -31.5
q-45 0 -86.5 13.5zM292 0h-35l523 700h35zM692 3q-41 13 -64 28l6 30q22 -16 62 -29.5t82 -13.5q54 0 85 23.5t31 53.5q0 31 -34.5 55t-102.5 24q-25 0 -46.5 -5t-32.5 -11l-14 13l44 179h238l-5 -28h-211l-34 -131q9 4 25.5 7.5t35.5 3.5q81 0 123.5 -29.5t42.5 -73.5
q0 -29 -17.5 -54t-50 -40t-76.5 -15q-46 0 -87 13z" />
    <glyph glyph-name="uni2158" unicode="&#x2158;" horiz-adv-x="924" 
d="M337 350h-28l19 97h-227l6 31l253 222h38l-251 -220l-1 -5h187l23 115h28l-23 -115h73l-5 -28h-73zM283 0h-35l523 700h35zM683 3q-41 13 -64 28l6 30q22 -16 62 -29.5t82 -13.5q54 0 85 23.5t31 53.5q0 31 -34.5 55t-102.5 24q-25 0 -46.5 -5t-32.5 -11l-14 13l44 179
h238l-5 -28h-211l-34 -131q9 4 25.5 7.5t35.5 3.5q81 0 123.5 -29.5t42.5 -73.5q0 -29 -17.5 -54t-50 -40t-76.5 -15q-46 0 -87 13z" />
    <glyph glyph-name="uni2159" unicode="&#x2159;" horiz-adv-x="892" 
d="M118 350l5 28h113l45 228h-113l5 28h73q23 0 33 9t15 31l5 26h28l-63 -322h101l-5 -28h-242zM252 0h-35l523 700h35zM608.5 19q-44.5 30 -44.5 72q0 20 9.5 37.5t40.5 46.5l186 175h39l-172 -161l1 -4q27 8 52 8q54 0 91 -14.5t55 -37.5t18 -49q0 -43 -37.5 -73
t-107.5 -30q-86 0 -130.5 30zM826.5 38.5q29.5 21.5 29.5 50.5q0 30 -36.5 53t-110.5 23q-57 0 -86.5 -21t-29.5 -50q0 -19 16 -36.5t49.5 -29t81.5 -11.5q57 0 86.5 21.5z" />
    <glyph glyph-name="uni215A" unicode="&#x215a;" horiz-adv-x="932" 
d="M189 353q-41 13 -64 28l6 30q22 -16 62 -29.5t82 -13.5q54 0 85 23.5t31 53.5q0 31 -34.5 55t-102.5 24q-25 0 -46.5 -5t-32.5 -11l-14 13l44 179h238l-5 -28h-211l-34 -131q9 4 25.5 7.5t35.5 3.5q81 0 123.5 -29.5t42.5 -73.5q0 -29 -17.5 -54t-50 -40t-76.5 -15
q-46 0 -87 13zM292 0h-35l523 700h35zM648.5 19q-44.5 30 -44.5 72q0 20 9.5 37.5t40.5 46.5l186 175h39l-172 -161l1 -4q27 8 52 8q54 0 91 -14.5t55 -37.5t18 -49q0 -43 -37.5 -73t-107.5 -30q-86 0 -130.5 30zM866.5 38.5q29.5 21.5 29.5 50.5q0 30 -36.5 53t-110.5 23
q-57 0 -86.5 -21t-29.5 -50q0 -19 16 -36.5t49.5 -29t81.5 -11.5q57 0 86.5 21.5z" />
    <glyph glyph-name="oneeighth" unicode="&#x215b;" horiz-adv-x="958" 
d="M118 350l5 28h113l45 228h-113l5 28h73q23 0 33 9t15 31l5 26h28l-63 -322h101l-5 -28h-242zM252 0h-35l523 700h35zM674 3.5q-41 14.5 -61 37.5t-20 48q0 34 30 56.5t73 27.5l1 5q-81 29 -81 83q0 41 41 70.5t116 29.5q66 0 109 -15.5t63.5 -39.5t20.5 -50
q0 -38 -31.5 -60.5t-81.5 -29.5l-1 -5q31 -12 51 -33t20 -45q0 -39 -38 -66.5t-110 -27.5q-60 0 -101 14.5zM905 204.5q33 20.5 33 47.5q0 19 -17 37.5t-55.5 31t-97.5 12.5q-61 0 -92 -21t-31 -49q0 -29 36.5 -54t126.5 -25q64 0 97 20.5zM866 37q30 20 30 44
q0 30 -36.5 52.5t-115.5 22.5q-58 0 -90.5 -20t-32.5 -44q0 -17 15.5 -34t51 -29t90.5 -12q58 0 88 20z" />
    <glyph glyph-name="threeeighths" unicode="&#x215c;" horiz-adv-x="998" 
d="M173.5 353.5q-41.5 13.5 -63.5 29.5l6 30q22 -17 62 -31t83 -14q53 0 84 23.5t31 53.5q0 19 -14.5 37.5t-42 30t-62.5 11.5q-45 0 -63 -3l5 26l167 121l1 4h-196l5 28h252l-4 -21l-169 -122l-1 -5h8q45 0 77 -15t48.5 -39t16.5 -50q0 -45 -39 -76.5t-105 -31.5
q-45 0 -86.5 13.5zM292 0h-35l523 700h35zM714 3.5q-41 14.5 -61 37.5t-20 48q0 34 30 56.5t73 27.5l1 5q-81 29 -81 83q0 41 41 70.5t116 29.5q66 0 109 -15.5t63.5 -39.5t20.5 -50q0 -38 -31.5 -60.5t-81.5 -29.5l-1 -5q31 -12 51 -33t20 -45q0 -39 -38 -66.5t-110 -27.5
q-60 0 -101 14.5zM945 204.5q33 20.5 33 47.5q0 19 -17 37.5t-55.5 31t-97.5 12.5q-61 0 -92 -21t-31 -49q0 -29 36.5 -54t126.5 -25q64 0 97 20.5zM906 37q30 20 30 44q0 30 -36.5 52.5t-115.5 22.5q-58 0 -90.5 -20t-32.5 -44q0 -17 15.5 -34t51 -29t90.5 -12q58 0 88 20z
" />
    <glyph glyph-name="fiveeighths" unicode="&#x215d;" horiz-adv-x="998" 
d="M189 353q-41 13 -64 28l6 30q22 -16 62 -29.5t82 -13.5q54 0 85 23.5t31 53.5q0 31 -34.5 55t-102.5 24q-25 0 -46.5 -5t-32.5 -11l-14 13l44 179h238l-5 -28h-211l-34 -131q9 4 25.5 7.5t35.5 3.5q81 0 123.5 -29.5t42.5 -73.5q0 -29 -17.5 -54t-50 -40t-76.5 -15
q-46 0 -87 13zM292 0h-35l523 700h35zM714 3.5q-41 14.5 -61 37.5t-20 48q0 34 30 56.5t73 27.5l1 5q-81 29 -81 83q0 41 41 70.5t116 29.5q66 0 109 -15.5t63.5 -39.5t20.5 -50q0 -38 -31.5 -60.5t-81.5 -29.5l-1 -5q31 -12 51 -33t20 -45q0 -39 -38 -66.5t-110 -27.5
q-60 0 -101 14.5zM945 204.5q33 20.5 33 47.5q0 19 -17 37.5t-55.5 31t-97.5 12.5q-61 0 -92 -21t-31 -49q0 -29 36.5 -54t126.5 -25q64 0 97 20.5zM906 37q30 20 30 44q0 30 -36.5 52.5t-115.5 22.5q-58 0 -90.5 -20t-32.5 -44q0 -17 15.5 -34t51 -29t90.5 -12q58 0 88 20z
" />
    <glyph glyph-name="seveneighths" unicode="&#x215e;" horiz-adv-x="955" 
d="M193 350h-33l228 322h-242l5 28h278l-4 -21zM249 0h-35l523 700h35zM671 3.5q-41 14.5 -61 37.5t-20 48q0 34 30 56.5t73 27.5l1 5q-81 29 -81 83q0 41 41 70.5t116 29.5q66 0 109 -15.5t63.5 -39.5t20.5 -50q0 -38 -31.5 -60.5t-81.5 -29.5l-1 -5q31 -12 51 -33t20 -45
q0 -39 -38 -66.5t-110 -27.5q-60 0 -101 14.5zM902 204.5q33 20.5 33 47.5q0 19 -17 37.5t-55.5 31t-97.5 12.5q-61 0 -92 -21t-31 -49q0 -29 36.5 -54t126.5 -25q64 0 97 20.5zM863 37q30 20 30 44q0 30 -36.5 52.5t-115.5 22.5q-58 0 -90.5 -20t-32.5 -44q0 -17 15.5 -34
t51 -29t90.5 -12q58 0 88 20z" />
    <glyph glyph-name="uni215F" unicode="&#x215f;" horiz-adv-x="526" 
d="M118 350l5 28h113l45 228h-113l5 28h73q23 0 33 9t15 31l5 26h28l-63 -322h101l-5 -28h-242zM252 0h-35l523 700h35z" />
    <glyph glyph-name="arrowleft" unicode="&#x2190;" horiz-adv-x="970" 
d="M463 128l-21 -19l-242 226l242 226l21 -19l-202 -188v-4h629v-30h-629v-4z" />
    <glyph glyph-name="arrowup" unicode="&#x2191;" horiz-adv-x="970" 
d="M569 0h-30v639h-4l-187 -202l-18 21l224 242l227 -242l-19 -21l-189 202h-4v-639z" />
    <glyph glyph-name="arrowright" unicode="&#x2192;" horiz-adv-x="970" 
d="M900 335l-242 -226l-21 19l202 188v4h-629v30h629v4l-202 188l21 19z" />
    <glyph glyph-name="arrowdown" unicode="&#x2193;" horiz-adv-x="970" 
d="M781 242l-227 -242l-224 242l18 21l187 -202h4v639h30v-639h4l189 202z" />
    <glyph glyph-name="arrowboth" unicode="&#x2194;" horiz-adv-x="1000" 
d="M368 128l-21 -19l-242 226l242 226l21 -19l-202 -188v-4h668v4l-202 188l21 19l242 -226l-242 -226l-21 19l202 188v4h-668v-4z" />
    <glyph glyph-name="arrowupdn" unicode="&#x2195;" horiz-adv-x="972" 
d="M712 197l-226 -242l-226 242l19 21l188 -202h4v668h-4l-188 -202l-19 21l226 242l226 -242l-19 -21l-188 202h-4v-668h4l188 202z" />
    <glyph glyph-name="uni2196" unicode="&#x2196;" horiz-adv-x="1000" 
d="M750 107l-22 -21l-447 446l-3 -2v-278h-28v332h331v-28h-277l-2 -3z" />
    <glyph glyph-name="uni2197" unicode="&#x2197;" horiz-adv-x="1000" 
d="M719 532l-447 -446l-22 21l448 446l-2 3h-277v28h331v-332h-28v278z" />
    <glyph glyph-name="uni2198" unicode="&#x2198;" horiz-adv-x="1000" 
d="M750 86h-331v28h277l2 3l-448 446l22 21l447 -446l3 2v278h28v-332z" />
    <glyph glyph-name="uni2199" unicode="&#x2199;" horiz-adv-x="1000" 
d="M581 86h-331v332h28v-278l3 -2l447 446l22 -21l-448 -446l2 -3h277v-28z" />
    <glyph glyph-name="minus" unicode="&#x2212;" horiz-adv-x="604" 
d="M609 295h-484v30h484v-30z" />
    <glyph glyph-name="approxequal" unicode="&#x2248;" horiz-adv-x="602" 
d="M424.5 373.5q-30.5 12.5 -68.5 35.5q-37 21 -61.5 31.5t-54.5 10.5q-38 0 -59 -19.5t-21 -50.5v-7h-30v7q0 44 29.5 72t80.5 28q38 0 68 -12.5t68 -35.5q37 -21 61.5 -31.5t54.5 -10.5q38 0 59 19.5t21 50.5v7h30v-7q0 -45 -29.5 -72.5t-80.5 -27.5q-37 0 -67.5 12.5z
M424.5 141.5q-30.5 12.5 -68.5 35.5q-37 21 -61.5 31.5t-54.5 10.5q-38 0 -59 -19.5t-21 -50.5v-7h-30v7q0 44 29.5 72t80.5 28q38 0 68 -12.5t68 -35.5q37 -21 61.5 -31.5t54.5 -10.5q38 0 59 19.5t21 50.5v7h30v-7q0 -45 -29.5 -72.5t-80.5 -27.5q-37 0 -67.5 12.5z" />
    <glyph glyph-name="notequal" unicode="&#x2260;" horiz-adv-x="602" 
d="M602 435v-30h-175l-89 -190h264v-30h-278l-66 -140h-33l66 140h-161v30h175l89 190h-264v30h278l66 140h33l-66 -140h161z" />
    <glyph glyph-name="lessequal" unicode="&#x2264;" horiz-adv-x="642" 
d="M606 178v-32l-490 185v34l490 185v-32l-444 -167v-6zM606 0h-490v30h490v-30z" />
    <glyph glyph-name="greaterequal" unicode="&#x2265;" horiz-adv-x="678" 
d="M642 331l-490 -185v32l444 167v6l-444 167v32l490 -185v-34zM642 0h-490v30h490v-30z" />
    <glyph glyph-name="uni2460" unicode="&#x2460;" horiz-adv-x="1058" 
d="M358 -6q-102 53 -157.5 146.5t-55.5 209.5t55.5 209.5t157.5 146.5t236 53t236 -53t157.5 -146.5t55.5 -209.5t-55.5 -209.5t-157.5 -146.5t-236 -53t-236 53zM814.5 19q95.5 50 148 137t52.5 194t-52.5 194t-148 137t-220.5 50t-220.5 -50t-148 -137t-52.5 -194
t52.5 -194t148 -137t220.5 -50t220.5 50zM484 175v28h113v228h-113v28h73q23 0 31.5 9t8.5 31v26h28v-322h101v-28h-242z" />
    <glyph glyph-name="uni2461" unicode="&#x2461;" horiz-adv-x="1058" 
d="M358 -6q-102 53 -157.5 146.5t-55.5 209.5t55.5 209.5t157.5 146.5t236 53t236 -53t157.5 -146.5t55.5 -209.5t-55.5 -209.5t-157.5 -146.5t-236 -53t-236 53zM814.5 19q95.5 50 148 137t52.5 194t-52.5 194t-148 137t-220.5 50t-220.5 -50t-148 -137t-52.5 -194
t52.5 -194t148 -137t220.5 -50t220.5 50zM465 175v33l128 85q70 47 93 75.5t23 60.5q0 34 -28.5 56t-84.5 22q-35 0 -73 -12t-63 -26v30q26 14 63.5 25t72.5 11q69 0 105 -29t36 -77q0 -38 -23.5 -70.5t-93.5 -78.5l-109 -72v-5h216v-28h-262z" />
    <glyph glyph-name="uni2462" unicode="&#x2462;" horiz-adv-x="1058" 
d="M358 -6q-102 53 -157.5 146.5t-55.5 209.5t55.5 209.5t157.5 146.5t236 53t236 -53t157.5 -146.5t55.5 -209.5t-55.5 -209.5t-157.5 -146.5t-236 -53t-236 53zM814.5 19q95.5 50 148 137t52.5 194t-52.5 194t-148 137t-220.5 50t-220.5 -50t-148 -137t-52.5 -194
t52.5 -194t148 -137t220.5 -50t220.5 50zM521 174.5q-36 9.5 -57 20.5v30q21 -12 57 -22t74 -10q58 0 90.5 23.5t32.5 54.5t-33.5 54.5t-94.5 23.5q-43 0 -68 -9v32l146 121v4h-199v28h252v-21l-151 -125v-5q15 3 32 3q44 0 77 -15t50 -39t17 -52q0 -44 -40 -75t-111 -31
q-38 0 -74 9.5z" />
    <glyph glyph-name="uni2463" unicode="&#x2463;" horiz-adv-x="1058" 
d="M358 -6q-102 53 -157.5 146.5t-55.5 209.5t55.5 209.5t157.5 146.5t236 53t236 -53t157.5 -146.5t55.5 -209.5t-55.5 -209.5t-157.5 -146.5t-236 -53t-236 53zM814.5 19q95.5 50 148 137t52.5 194t-52.5 194t-148 137t-220.5 50t-220.5 -50t-148 -137t-52.5 -194
t52.5 -194t148 -137t220.5 -50t220.5 50zM664 175h-28v97h-227v31l210 222h36l-208 -220v-5h189v115h28v-115h73v-28h-73v-97z" />
    <glyph glyph-name="uni2464" unicode="&#x2464;" horiz-adv-x="1058" 
d="M358 -6q-102 53 -157.5 146.5t-55.5 209.5t55.5 209.5t157.5 146.5t236 53t236 -53t157.5 -146.5t55.5 -209.5t-55.5 -209.5t-157.5 -146.5t-236 -53t-236 53zM814.5 19q95.5 50 148 137t52.5 194t-52.5 194t-148 137t-220.5 50t-220.5 -50t-148 -137t-52.5 -194
t52.5 -194t148 -137t220.5 -50t220.5 50zM522.5 174q-36.5 9 -57.5 21v30q21 -12 56.5 -22t73.5 -10q58 0 91 23.5t33 54.5t-33.5 54.5t-95.5 23.5q-32 0 -59.5 -6.5t-40.5 -14.5l-16 11l10 186h238v-28h-211l-8 -135q12 6 36.5 10.5t52.5 4.5q74 0 114.5 -31t40.5 -75
t-39.5 -75t-110.5 -31q-38 0 -74.5 9z" />
    <glyph glyph-name="uni2465" unicode="&#x2465;" horiz-adv-x="1058" 
d="M358 -6q-102 53 -157.5 146.5t-55.5 209.5t55.5 209.5t157.5 146.5t236 53t236 -53t157.5 -146.5t55.5 -209.5t-55.5 -209.5t-157.5 -146.5t-236 -53t-236 53zM814.5 19q95.5 50 148 137t52.5 194t-52.5 194t-148 137t-220.5 50t-220.5 -50t-148 -137t-52.5 -194
t52.5 -194t148 -137t220.5 -50t220.5 50zM470.5 194q-40.5 29 -40.5 72q0 16 7 32t27 40l160 187h34l-138 -162l2 -4q28 8 71 8q78 0 118 -29t40 -72t-40.5 -72t-119.5 -29q-80 0 -120.5 29zM689.5 214.5q33.5 21.5 33.5 51.5t-33.5 51.5t-98.5 21.5q-66 0 -99.5 -21.5
t-33.5 -51.5t33.5 -51.5t99.5 -21.5q65 0 98.5 21.5z" />
    <glyph glyph-name="uni2466" unicode="&#x2466;" horiz-adv-x="1058" 
d="M358 -6q-102 53 -157.5 146.5t-55.5 209.5t55.5 209.5t157.5 146.5t236 53t236 -53t157.5 -146.5t55.5 -209.5t-55.5 -209.5t-157.5 -146.5t-236 -53t-236 53zM814.5 19q95.5 50 148 137t52.5 194t-52.5 194t-148 137t-220.5 50t-220.5 -50t-148 -137t-52.5 -194
t52.5 -194t148 -137t220.5 -50t220.5 50zM559 175h-30l165 322h-245v28h278v-21z" />
    <glyph glyph-name="uni2467" unicode="&#x2467;" horiz-adv-x="1058" 
d="M358 -6q-102 53 -157.5 146.5t-55.5 209.5t55.5 209.5t157.5 146.5t236 53t236 -53t157.5 -146.5t55.5 -209.5t-55.5 -209.5t-157.5 -146.5t-236 -53t-236 53zM814.5 19q95.5 50 148 137t52.5 194t-52.5 194t-148 137t-220.5 50t-220.5 -50t-148 -137t-52.5 -194
t52.5 -194t148 -137t220.5 -50t220.5 50zM469.5 193q-41.5 28 -41.5 67q0 27 20 49t55 33v5q-39 10 -62 33.5t-23 53.5q0 42 44.5 71.5t131.5 29.5t131.5 -29.5t44.5 -71.5q0 -30 -23 -53.5t-62 -33.5v-5q35 -11 55 -33t20 -49q0 -39 -41.5 -67t-124.5 -28t-124.5 28z
M705.5 381.5q36.5 22.5 36.5 51.5t-36.5 51.5t-111.5 22.5t-111.5 -22.5t-36.5 -51.5t36.5 -51.5t111.5 -22.5t111.5 22.5zM697.5 214q34.5 21 34.5 47q0 28 -34.5 49t-103.5 21t-103.5 -21t-34.5 -49q0 -26 34.5 -47t103.5 -21t103.5 21z" />
    <glyph glyph-name="uni2468" unicode="&#x2468;" horiz-adv-x="1058" 
d="M358 -6q-102 53 -157.5 146.5t-55.5 209.5t55.5 209.5t157.5 146.5t236 53t236 -53t157.5 -146.5t55.5 -209.5t-55.5 -209.5t-157.5 -146.5t-236 -53t-236 53zM814.5 19q95.5 50 148 137t52.5 194t-52.5 194t-148 137t-220.5 50t-220.5 -50t-148 -137t-52.5 -194
t52.5 -194t148 -137t220.5 -50t220.5 50zM547 175l128 146l-2 4q-37 -11 -80 -11q-58 0 -97.5 15.5t-59 40.5t-19.5 54t19.5 54.5t59 41t97.5 15.5t97.5 -15.5t59 -41t19.5 -54.5q0 -17 -8 -34.5t-28 -40.5l-153 -174h-33zM675 354.5q33 12.5 49.5 31t16.5 38.5t-16.5 39
t-49.5 31.5t-82 12.5t-82 -12.5t-49.5 -31.5t-16.5 -39t16.5 -38.5t49.5 -31t82 -12.5t82 12.5z" />
    <glyph glyph-name="uni2469" unicode="&#x2469;" horiz-adv-x="1058" 
d="M358 -6q-102 53 -157.5 146.5t-55.5 209.5t55.5 209.5t157.5 146.5t236 53t236 -53t157.5 -146.5t55.5 -209.5t-55.5 -209.5t-157.5 -146.5t-236 -53t-236 53zM814.5 19q95.5 50 148 137t52.5 194t-52.5 194t-148 137t-220.5 50t-220.5 -50t-148 -137t-52.5 -194
t52.5 -194t148 -137t220.5 -50t220.5 50zM642 188.5q-40 23.5 -63 65.5t-23 96t23 96t63 65.5t90 23.5t90 -23.5t63 -65.5t23 -96t-23 -96t-63 -65.5t-90 -23.5t-90 23.5zM305 175v28h113v228h-113v28h73q23 0 31.5 9t8.5 31v26h28v-322h101v-28h-242zM807.5 213
q33.5 20 53 55.5t19.5 81.5t-19.5 81.5t-53 55.5t-75.5 20t-75.5 -20t-53 -55.5t-19.5 -81.5t19.5 -81.5t53 -55.5t75.5 -20t75.5 20z" />
    <glyph glyph-name="uni24EA" unicode="&#x24ea;" horiz-adv-x="1058" 
d="M358 -6q-102 53 -157.5 146.5t-55.5 209.5t55.5 209.5t157.5 146.5t236 53t236 -53t157.5 -146.5t55.5 -209.5t-55.5 -209.5t-157.5 -146.5t-236 -53t-236 53zM814.5 19q95.5 50 148 137t52.5 194t-52.5 194t-148 137t-220.5 50t-220.5 -50t-148 -137t-52.5 -194
t52.5 -194t148 -137t220.5 -50t220.5 50zM504 188.5q-40 23.5 -63 65.5t-23 96t23 96t63 65.5t90 23.5t90 -23.5t63 -65.5t23 -96t-23 -96t-63 -65.5t-90 -23.5t-90 23.5zM669.5 213q33.5 20 53 55.5t19.5 81.5t-19.5 81.5t-53 55.5t-75.5 20t-75.5 -20t-53 -55.5
t-19.5 -81.5t19.5 -81.5t53 -55.5t75.5 -20t75.5 20z" />
    <glyph glyph-name="uni24F5" unicode="&#x24f5;" horiz-adv-x="1090" 
d="M367 -19.5q-106 55.5 -164 152.5t-58 217t58 217t164 152.5t243 55.5t243 -55.5t164 -152.5t58 -217t-58 -217t-164 -152.5t-243 -55.5t-243 55.5zM841.5 0q100.5 53 156 145t55.5 205t-55.5 205t-156 145t-231.5 53t-231.5 -53t-156 -145t-55.5 -205t55.5 -205t156 -145
t231.5 -53t231.5 53zM390 18.5q-96 50.5 -149 137.5t-53 194t53 194t149 137.5t220 50.5t220 -50.5t149 -137.5t53 -194t-53 -194t-149 -137.5t-220 -50.5t-220 50.5zM818 38q91 48 141.5 130t50.5 182t-50.5 182t-141.5 130t-208 48t-208 -48t-141.5 -130t-50.5 -182
t50.5 -182t141.5 -130t208 -48t208 48zM500 175v28h113v228h-113v28h73q23 0 31.5 9t8.5 31v26h28v-322h101v-28h-242z" />
    <glyph glyph-name="uni24F6" unicode="&#x24f6;" horiz-adv-x="1090" 
d="M367 -19.5q-106 55.5 -164 152.5t-58 217t58 217t164 152.5t243 55.5t243 -55.5t164 -152.5t58 -217t-58 -217t-164 -152.5t-243 -55.5t-243 55.5zM841.5 0q100.5 53 156 145t55.5 205t-55.5 205t-156 145t-231.5 53t-231.5 -53t-156 -145t-55.5 -205t55.5 -205t156 -145
t231.5 -53t231.5 53zM390 18.5q-96 50.5 -149 137.5t-53 194t53 194t149 137.5t220 50.5t220 -50.5t149 -137.5t53 -194t-53 -194t-149 -137.5t-220 -50.5t-220 50.5zM818 38q91 48 141.5 130t50.5 182t-50.5 182t-141.5 130t-208 48t-208 -48t-141.5 -130t-50.5 -182
t50.5 -182t141.5 -130t208 -48t208 48zM483 175v33l128 85q70 47 93 75.5t23 60.5q0 34 -28.5 56t-84.5 22q-35 0 -73 -12t-63 -26v30q26 14 63.5 25t72.5 11q69 0 105 -29t36 -77q0 -38 -23.5 -70.5t-93.5 -78.5l-109 -72v-5h216v-28h-262z" />
    </font>
</defs>
</svg>
