<?xml version="1.0" standalone="no"?>
<!DOCTYPE svg PUBLIC "-//W3C//DTD SVG 1.1//EN" "http://www.w3.org/Graphics/SVG/1.1/DTD/svg11.dtd" >
<svg xmlns="http://www.w3.org/2000/svg" xmlns:xlink="http://www.w3.org/1999/xlink" version="1.1">
<metadata>
Created by FontForge 20201107 at Mon Feb  6 14:54:41 2023
 By 
Copyright (c) 2020-2021 by TypeType. All rights reserved. Special version for DaFont.
</metadata>
<defs>
<font id="TTRunsTrial-Medium" horiz-adv-x="740" >
  <font-face 
    font-family="TT Runs Trial Medium"
    font-weight="500"
    font-stretch="normal"
    units-per-em="1000"
    panose-1="2 0 0 0 0 0 0 0 6 7"
    ascent="800"
    descent="-200"
    x-height="550"
    cap-height="700"
    bbox="-520 -305 2210 950"
    underline-thickness="80"
    underline-position="-185"
    unicode-range="U+000D-FB03"
  />
<missing-glyph horiz-adv-x="900" 
d="M100 0v284h45v-139h33v139h50v31h-128v126l19 -61h23l34 106l33 -106h23l54 170h-32l-34 -110l-35 110h-19l-35 -110l-31 103v157h700v-150h-110v-170h110v-91q-6 13 -19.5 20t-30.5 7q-27 0 -43.5 -14.5t-16.5 -34.5q0 -22 14.5 -32.5t39.5 -17.5q17 -5 25.5 -9.5
t8.5 -13.5q0 -21 -28 -21q-14 0 -21 7t-7 18h-33q0 -24 17 -39.5t44 -15.5q17 0 30.5 6.5t19.5 13.5v-163h-700zM311 380h33v62h24l35 -62h37l-40 67q36 17 36 50q0 22 -16 37.5t-41 15.5h-68v-170zM469 550v-170h33v170h-33zM580 519v-139h32v139h50v31h-132v-31h50z
M344 473v46h35q10 0 17 -6.5t7 -16.5q0 -12 -7.5 -17.5t-16.5 -5.5h-35zM800 483h-78v36h78v-36zM800 411h-78v41h78v-41zM387.5 167.5q22.5 24.5 22.5 61.5t-23 62t-59 25t-59 -25t-23 -62t22.5 -61.5t59.5 -24.5t59.5 24.5zM633 162q19 19 19 47v106h-32v-106
q0 -15 -9.5 -25t-25.5 -10q-17 0 -26.5 10.5t-9.5 24.5v106h-32v-106q0 -28 19.5 -47t48.5 -19t48 19zM800 224q-15 14 -46 22q-16 5 -23 9t-7 12q0 9 7.5 14.5t18.5 5.5q10 0 18 -7t8 -18h24v-38zM291.5 190q-14.5 16 -14.5 39q0 25 14 40.5t37 15.5q24 0 37.5 -15.5
t13.5 -40.5q0 -23 -14.5 -39t-36.5 -16t-36.5 16z" />
    <glyph glyph-name="ff" unicode="ff" horiz-adv-x="745" 
d="M110 0v465h-110v85h110v18q0 74 44.5 118t120.5 44q55 0 100 -16v-85q-40 16 -83 16q-39 0 -60.5 -21t-21.5 -57v-17h270v18q0 74 44.5 118t120.5 44q55 0 100 -16v-85q-40 16 -83 16q-39 0 -60.5 -21t-21.5 -57v-17h145v-85h-145v-465h-100v465h-270v-465h-100z" />
    <glyph glyph-name="fi" unicode="fi" horiz-adv-x="645" 
d="M110 0v465h-110v85h110v14q0 78 61.5 122t173.5 44q63 0 113.5 -5.5t116.5 -18.5v-85q-66 14 -117 19t-104 5q-74 0 -109 -21.5t-35 -64.5v-9h370v-550h-100v465h-270v-465h-100z" />
    <glyph glyph-name="ffi" unicode="ffi" horiz-adv-x="1015" 
d="M110 0v465h-110v85h110v18q0 74 44.5 118t120.5 44q55 0 100 -16v-85q-40 16 -83 16q-39 0 -60.5 -21t-21.5 -57v-17h270v14q0 78 61.5 122t173.5 44q63 0 113.5 -5.5t116.5 -18.5v-85q-66 14 -117 19t-104 5q-74 0 -109 -21.5t-35 -64.5v-9h370v-550h-100v465h-270v-465
h-100v465h-270v-465h-100z" />
    <glyph glyph-name="f_f_j" unicode="ffj" horiz-adv-x="1015" 
d="M690 -185v90q41 -15 74 -15q41 0 63.5 26.5t22.5 73.5v475h-270v-465h-100v465h-270v-465h-100v465h-110v85h110v18q0 74 44.5 118t120.5 44q55 0 100 -16v-85q-40 16 -83 16q-39 0 -60.5 -21t-21.5 -57v-17h270v14q0 78 61.5 122t173.5 44q63 0 113.5 -5.5t116.5 -18.5
v-85q-66 14 -117 19t-104 5q-74 0 -109 -21.5t-35 -64.5v-9h370v-558q0 -93 -44 -142.5t-129 -49.5q-45 0 -87 15z" />
    <glyph glyph-name="f_j" unicode="fj" horiz-adv-x="645" 
d="M320 -185v90q41 -15 74 -15q41 0 63.5 26.5t22.5 73.5v475h-270v-465h-100v465h-110v85h110v14q0 78 61.5 122t173.5 44q63 0 113.5 -5.5t116.5 -18.5v-85q-66 14 -117 19t-104 5q-74 0 -109 -21.5t-35 -64.5v-9h370v-558q0 -93 -44 -142.5t-129 -49.5q-45 0 -87 15z" />
    <glyph glyph-name="f_t" unicode="ft" horiz-adv-x="785" 
d="M527 38.5q-47 48.5 -47 140.5v286h-270v-465h-100v465h-110v85h110v18q0 74 44.5 118t120.5 44q54 0 100 -15v-86q-40 16 -83 16q-39 0 -60.5 -21t-21.5 -57v-17h215q55 0 55 60v60h100v-120h160v-85h-160v-289q0 -45 24.5 -70.5t65.5 -25.5q37 0 70 11v-89
q-36 -12 -82 -12q-84 0 -131 48.5z" />
    <glyph glyph-name=".notdef" horiz-adv-x="900" 
d="M100 0v284h45v-139h33v139h50v31h-128v126l19 -61h23l34 106l33 -106h23l54 170h-32l-34 -110l-35 110h-19l-35 -110l-31 103v157h700v-150h-110v-170h110v-91q-6 13 -19.5 20t-30.5 7q-27 0 -43.5 -14.5t-16.5 -34.5q0 -22 14.5 -32.5t39.5 -17.5q17 -5 25.5 -9.5
t8.5 -13.5q0 -21 -28 -21q-14 0 -21 7t-7 18h-33q0 -24 17 -39.5t44 -15.5q17 0 30.5 6.5t19.5 13.5v-163h-700zM311 380h33v62h24l35 -62h37l-40 67q36 17 36 50q0 22 -16 37.5t-41 15.5h-68v-170zM469 550v-170h33v170h-33zM580 519v-139h32v139h50v31h-132v-31h50z
M344 473v46h35q10 0 17 -6.5t7 -16.5q0 -12 -7.5 -17.5t-16.5 -5.5h-35zM800 483h-78v36h78v-36zM800 411h-78v41h78v-41zM387.5 167.5q22.5 24.5 22.5 61.5t-23 62t-59 25t-59 -25t-23 -62t22.5 -61.5t59.5 -24.5t59.5 24.5zM633 162q19 19 19 47v106h-32v-106
q0 -15 -9.5 -25t-25.5 -10q-17 0 -26.5 10.5t-9.5 24.5v106h-32v-106q0 -28 19.5 -47t48.5 -19t48 19zM800 224q-15 14 -46 22q-16 5 -23 9t-7 12q0 9 7.5 14.5t18.5 5.5q10 0 18 -7t8 -18h24v-38zM291.5 190q-14.5 16 -14.5 39q0 25 14 40.5t37 15.5q24 0 37.5 -15.5
t13.5 -40.5q0 -23 -14.5 -39t-36.5 -16t-36.5 16z" />
    <glyph glyph-name=".null" horiz-adv-x="0" 
 />
    <glyph glyph-name="nonmarkingreturn" unicode="&#xd;" horiz-adv-x="0" 
 />
    <glyph glyph-name="space" unicode=" " horiz-adv-x="300" 
 />
    <glyph glyph-name="exclam" unicode="!" horiz-adv-x="270" 
d="M165 200h-60l-20 210v310h100v-310zM85 9q-20 19 -20 46t20 46t50 19t50 -19t20 -46t-20 -46t-50 -19t-50 19z" />
    <glyph glyph-name="quotedbl" unicode="&#x22;" horiz-adv-x="420" 
d="M170 460h-90v260h90v-260zM340 460h-90v260h90v-260z" />
    <glyph glyph-name="numbersign" unicode="#" horiz-adv-x="750" 
d="M720 540v-85h-131l-46 -200h137v-85h-156l-39 -170h-85l39 170h-220l-39 -170h-85l39 170h-104v85h123l46 200h-129v85h148l37 160h85l-37 -160h220l37 160h85l-37 -160h112zM238 255h220l46 200h-220z" />
    <glyph glyph-name="dollar" unicode="$" horiz-adv-x="760" 
d="M667 96.5q-28 -41.5 -85.5 -69.5t-141.5 -35v-112h-100v112q-76 5 -139.5 23.5t-95.5 39.5v102q39 -29 114 -53t162 -24q73 0 120 15t68 39t21 51q0 36 -29 57.5t-72 33t-118 25.5q-100 18 -161.5 37t-105.5 60t-44 112q0 48 29.5 90.5t92.5 71.5t158 36v112h100v-112
q75 -5 141 -26t104 -44v-104q-42 32 -122.5 59t-169.5 27q-81 0 -132 -16t-73.5 -41t-22.5 -53q0 -35 28 -56t70 -32t118 -25q100 -18 162.5 -37t107 -61t44.5 -114q0 -47 -28 -88.5z" />
    <glyph glyph-name="percent" unicode="%" horiz-adv-x="900" 
d="M89 417q-49 47 -49 123t49 123t131 47t131 -47t49 -123t-49 -123t-131 -47t-131 47zM280 0h-90l430 700h90zM284.5 471.5q25.5 26.5 25.5 68.5t-25.5 68.5t-64.5 26.5t-64.5 -26.5t-25.5 -68.5t25.5 -68.5t64.5 -26.5t64.5 26.5zM549 37q-49 47 -49 123t49 123t131 47
t131 -47t49 -123t-49 -123t-131 -47t-131 47zM744.5 91.5q25.5 26.5 25.5 68.5t-25.5 68.5t-64.5 26.5t-64.5 -26.5t-25.5 -68.5t25.5 -68.5t64.5 -26.5t64.5 26.5z" />
    <glyph glyph-name="ampersand" unicode="&#x26;" horiz-adv-x="765" 
d="M785 0h-150l-131 106q-52 -46 -124 -81t-155 -35q-91 0 -138 40t-47 110q0 74 52 123.5t123 75.5q-58 47 -87.5 77t-43.5 61.5t-14 72.5q0 70 61.5 115t183.5 45q76 0 143.5 -18.5t111.5 -40.5v-107q-46 29 -115 52.5t-140 23.5q-77 0 -111 -21t-34 -54q0 -24 14 -45
t42.5 -46.5t93.5 -78.5l185 -149q37 36 67 73t43 61h105q-19 -35 -59 -87.5t-89 -100.5zM337 103.5q56 23.5 98 58.5l-153 123q-59 -22 -100.5 -57t-41.5 -78q0 -70 85 -70q56 0 112 23.5z" />
    <glyph glyph-name="quotesingle" unicode="'" horiz-adv-x="250" 
d="M170 460h-90v260h90v-260z" />
    <glyph glyph-name="parenleft" unicode="(" horiz-adv-x="305" 
d="M230 -190q-75 0 -110 34t-35 106v690q0 72 35 106t110 34h65v-85h-60q-60 0 -60 -60v-680q0 -60 60 -60h60v-85h-65z" />
    <glyph glyph-name="parenright" unicode=")" horiz-adv-x="305" 
d="M10 -190v85h60q60 0 60 60v680q0 60 -60 60h-60v85h65q75 0 110 -34t35 -106v-690q0 -72 -35 -106t-110 -34h-65z" />
    <glyph glyph-name="asterisk" unicode="*" horiz-adv-x="400" 
d="M200 525l-80 -100l-55 45l80 95l-125 50l25 60l120 -45v120h70v-120l120 45l25 -60l-125 -50l80 -95l-55 -45z" />
    <glyph glyph-name="plus" unicode="+" horiz-adv-x="620" 
d="M355 55h-90v205h-210v90h210v205h90v-205h210v-90h-210v-205z" />
    <glyph glyph-name="comma" unicode="," horiz-adv-x="200" 
d="M35 -170v100h15q37 0 58.5 20.5t21.5 54.5h-5q-3 -6 -12 -10.5t-22 -4.5q-26 0 -43.5 17.5t-17.5 45.5q0 30 18.5 48.5t47.5 18.5q34 0 54 -26t20 -79q0 -89 -37 -137t-93 -48h-5z" />
    <glyph glyph-name="hyphen" unicode="-" horiz-adv-x="510" 
d="M455 265h-400v95h400v-95z" />
    <glyph glyph-name="period" unicode="." horiz-adv-x="200" 
d="M50 9q-20 19 -20 46t20 46t50 19t50 -19t20 -46t-20 -46t-50 -19t-50 19z" />
    <glyph glyph-name="slash" unicode="/" horiz-adv-x="485" 
d="M95 -70h-95l390 840h95z" />
    <glyph glyph-name="zero" unicode="0" horiz-adv-x="930" 
d="M260 38q-90 48 -140 130t-50 182t50 182t140 130t205 48t205 -48t140 -130t50 -182t-50 -182t-140 -130t-205 -48t-205 48zM617 115q66 35 102 96.5t36 138.5t-36 138.5t-102 96.5t-152 35t-152 -35t-102 -96.5t-36 -138.5t36 -138.5t102 -96.5t152 -35t152 35z" />
    <glyph glyph-name="one" unicode="1" horiz-adv-x="530" 
d="M40 0v90h195v465h-190v85h140q60 0 60 60h90v-610h155v-90h-450z" />
    <glyph glyph-name="two" unicode="2" horiz-adv-x="705" 
d="M65 0v90l245 140q92 53 140.5 97.5t64 80.5t15.5 77q0 36 -22 67t-65 49.5t-103 18.5q-74 0 -151 -36t-134 -80v109q49 36 124 66.5t171 30.5q91 0 155.5 -30t97 -80.5t32.5 -109.5q0 -86 -58 -167.5t-222 -167.5l-105 -55v-5h385v-95h-570z" />
    <glyph glyph-name="three" unicode="3" horiz-adv-x="710" 
d="M175 13q-74 23 -115 51v105q40 -33 114 -61t161 -28q71 0 119.5 18t72 46.5t23.5 60.5t-23.5 60.5t-72 46.5t-119.5 18q-47 0 -91 -9.5t-69 -20.5v105l265 195v5h-375v95h560v-65l-285 -210v-5q101 0 172 -30t107 -79t36 -106t-36 -106t-108.5 -79t-175.5 -30
q-86 0 -160 23z" />
    <glyph glyph-name="four" unicode="4" horiz-adv-x="695" 
d="M540 0h-100v185h-420v90l380 425h130l-375 -415v-5h285v215h100v-215h150v-95h-150v-185z" />
    <glyph glyph-name="five" unicode="5" horiz-adv-x="705" 
d="M185 12.5q-74 22.5 -115 49.5v105q40 -33 114 -60t161 -27q71 0 119.5 18t72 46.5t23.5 60.5t-23 60.5t-70.5 46.5t-116.5 18q-65 0 -111.5 -18.5t-63.5 -41.5h-90l30 430h500v-95h-410l-15 -220h5q20 13 64 24t101 11q96 0 165 -30t104.5 -79t35.5 -106t-36 -106
t-108.5 -79t-175.5 -30q-86 0 -160 22.5z" />
    <glyph glyph-name="six" unicode="6" horiz-adv-x="705" 
d="M179.5 20q-72.5 30 -108.5 79t-36 106q0 46 21 85.5t54 79.5l270 330h120l-240 -288v-5q16 5 48 9t67 4q94 0 162 -30t103 -79.5t35 -105.5q0 -57 -36 -106t-108.5 -79t-175.5 -30t-175.5 30zM474.5 98q48.5 18 72 46.5t23.5 60.5t-23.5 60.5t-72 46.5t-119.5 18
t-119.5 -18t-72 -46.5t-23.5 -60.5t23.5 -60.5t72 -46.5t119.5 -18t119.5 18z" />
    <glyph glyph-name="seven" unicode="7" horiz-adv-x="635" 
d="M265 0h-112l335 600v5h-468v95h585v-85z" />
    <glyph glyph-name="eight" unicode="8" horiz-adv-x="800" 
d="M221 16.5q-72 26.5 -106.5 68.5t-34.5 90q0 43 24 79.5t67 58.5t99 22v5q-62 0 -110 25t-74 64.5t-26 80.5q0 55 35.5 100.5t111.5 72.5t193 27t193 -27t111.5 -72.5t35.5 -100.5q0 -41 -26 -80.5t-74 -64.5t-110 -25v-5q56 0 99 -22t67 -58.5t24 -79.5q0 -48 -34.5 -90
t-106.5 -68.5t-179 -26.5t-179 26.5zM578.5 414.5q56.5 34.5 56.5 85.5t-56.5 85.5t-178.5 34.5t-178.5 -34.5t-56.5 -85.5t56.5 -85.5t178.5 -34.5t178.5 34.5zM563 111q52 31 52 74t-52 74t-163 31t-163 -31t-52 -74t52 -74t163 -31t163 31z" />
    <glyph glyph-name="nine" unicode="9" horiz-adv-x="745" 
d="M231 0l238 271v5q-13 -6 -43.5 -11t-70.5 -5q-103 0 -176.5 31.5t-111 83t-37.5 110.5q0 60 38 111t115 82.5t187 31.5t187 -31.5t115 -82.5t38 -111q0 -74 -77 -163l-278 -322h-124zM501 369.5q53 19.5 78.5 50.5t25.5 65t-25.5 65t-78.5 50.5t-131 19.5t-131 -19.5
t-78.5 -50.5t-25.5 -65t25.5 -65t78.5 -50.5t131 -19.5t131 19.5z" />
    <glyph glyph-name="colon" unicode=":" horiz-adv-x="220" 
d="M60 9q-20 19 -20 46t20 46t50 19t50 -19t20 -46t-20 -46t-50 -19t-50 19zM60 449q-20 19 -20 46t20 46t50 19t50 -19t20 -46t-20 -46t-50 -19t-50 19z" />
    <glyph glyph-name="semicolon" unicode=";" horiz-adv-x="220" 
d="M60 449q-20 19 -20 46t20 46t50 19t50 -19t20 -46t-20 -46t-50 -19t-50 19zM45 -170v100h15q37 0 58.5 20.5t21.5 54.5h-5q-3 -6 -12 -10.5t-22 -4.5q-26 0 -43.5 17.5t-17.5 45.5q0 30 18.5 48.5t47.5 18.5q34 0 54 -26t20 -79q0 -89 -37 -137t-93 -48h-5z" />
    <glyph glyph-name="less" unicode="&#x3c;" horiz-adv-x="620" 
d="M565 155v-95l-525 210v70l525 210v-95l-370 -145v-10z" />
    <glyph glyph-name="equal" unicode="=" horiz-adv-x="615" 
d="M550 370h-485v90h485v-90zM550 150h-485v90h485v-90z" />
    <glyph glyph-name="greater" unicode="&#x3e;" horiz-adv-x="620" 
d="M580 270l-525 -210v95l370 145v10l-370 145v95l525 -210v-70z" />
    <glyph glyph-name="question" unicode="?" horiz-adv-x="670" 
d="M260 200l-25 190q73 3 144 19t118.5 45.5t47.5 70.5q0 27 -24.5 53.5t-77.5 44t-133 17.5q-87 0 -164 -26t-121 -57v105q48 26 124.5 47t160.5 21q114 0 190.5 -28t113 -73.5t36.5 -98.5q0 -63 -47.5 -109t-118.5 -72t-144 -33v-116h-80zM255 9q-20 19 -20 46t20 46
t50 19t50 -19t20 -46t-20 -46t-50 -19t-50 19z" />
    <glyph glyph-name="at" unicode="@" horiz-adv-x="1020" 
d="M278 -71q-101 49 -154.5 133.5t-53.5 187.5t53.5 187.5t154.5 133.5t237 49q139 0 240 -50t153 -132.5t52 -177.5q0 -89 -47 -139.5t-123 -50.5q-55 0 -90 21.5t-45 48.5h-5q-21 -27 -64 -48.5t-96 -21.5q-59 0 -103 23t-68 64t-24 93t24 93t68 64t103 23q45 0 84.5 -17
t60.5 -38v45h80v-205q0 -34 20.5 -54.5t54.5 -20.5q39 0 62 29.5t23 90.5q0 75 -42 141.5t-124 107.5t-194 41q-109 0 -191 -40t-125.5 -108.5t-43.5 -151.5t43.5 -151.5t125.5 -108.5t191 -40q77 0 138 18.5t87 41.5v-80q-30 -19 -91 -34.5t-134 -15.5q-136 0 -237 49z
M580 166.5q38 21.5 55 48.5v70q-17 27 -55 48.5t-85 21.5q-55 0 -87.5 -29.5t-32.5 -75.5t32.5 -75.5t87.5 -29.5q47 0 85 21.5z" />
    <glyph glyph-name="A" unicode="A" horiz-adv-x="840" 
d="M840 0h-105l-92 180h-446l-92 -180h-105l360 700h120zM417 610l-171 -335h348l-171 335h-6z" />
    <glyph glyph-name="B" unicode="B" horiz-adv-x="810" 
d="M505 345q108 0 164 -45t56 -120q0 -80 -67 -130t-203 -50h-370v700h385q91 0 153 -24.5t92 -65.5t30 -90q0 -79 -59 -124.5t-181 -45.5v-5zM185 605v-210h285q89 0 129.5 28.5t40.5 76.5t-40.5 76.5t-129.5 28.5h-285zM450 95q93 0 131.5 26.5t38.5 78.5q0 48 -38.5 74
t-131.5 26h-265v-205h265z" />
    <glyph glyph-name="C" unicode="C" horiz-adv-x="865" 
d="M267 36.5q-96 46.5 -146.5 128.5t-50.5 185q0 104 51.5 185.5t152 128t241.5 46.5q88 0 165.5 -23t119.5 -52v-105q-40 34 -117.5 62t-167.5 28q-107 0 -183.5 -35.5t-116.5 -97t-40 -137.5q0 -75 38.5 -137t111.5 -97.5t170 -35.5q84 0 158.5 21.5t116.5 47.5v-102
q-41 -22 -116 -39.5t-159 -17.5q-132 0 -228 46.5z" />
    <glyph glyph-name="D" unicode="D" horiz-adv-x="905" 
d="M85 0v700h305q146 0 246 -44t149.5 -123t49.5 -183t-49.5 -183t-149.5 -123t-246 -44h-305zM390 95q170 0 255 68.5t85 186.5t-85 186.5t-255 68.5h-205v-510h205z" />
    <glyph glyph-name="E" unicode="E" 
d="M185 305v-210h500v-95h-600v700h580v-95h-480v-205h440v-95h-440z" />
    <glyph glyph-name="F" unicode="F" horiz-adv-x="710" 
d="M665 700v-95h-480v-235h435v-95h-435v-275h-100v700h580z" />
    <glyph glyph-name="G" unicode="G" horiz-adv-x="925" 
d="M273.5 36.5q-100.5 46.5 -152 128t-51.5 185.5t52.5 185.5t156 128t251.5 46.5q100 0 186 -22.5t139 -51.5v-102q-47 33 -135.5 59.5t-189.5 26.5q-114 0 -194 -35.5t-120.5 -96.5t-40.5 -138q0 -76 40 -137.5t116.5 -97t183.5 -35.5q60 0 125.5 17.5t109.5 38.5v114
h-300v95h400v-265q-59 -34 -152 -62t-183 -28q-141 0 -241.5 46.5z" />
    <glyph glyph-name="H" unicode="H" horiz-adv-x="850" 
d="M665 400v300h100v-700h-100v305h-480v-305h-100v700h100v-300h480z" />
    <glyph glyph-name="I" unicode="I" 
d="M700 700v-95h-280v-510h280v-95h-660v95h280v510h-280v95h660z" />
    <glyph glyph-name="J" unicode="J" horiz-adv-x="560" 
d="M15 20v96q92 -31 172 -31q88 0 138 44.5t50 132.5v438h100v-443q0 -129 -75.5 -198t-212.5 -69q-83 0 -172 30z" />
    <glyph glyph-name="K" unicode="K" horiz-adv-x="755" 
d="M185 0h-100v700h100v-316l440 316h150l-460 -330v-5l430 -365h-148l-412 350v-350z" />
    <glyph glyph-name="L" unicode="L" horiz-adv-x="695" 
d="M675 0h-590v700h100v-605h490v-95z" />
    <glyph glyph-name="M" unicode="M" horiz-adv-x="1055" 
d="M865 615l-335 -635l-340 635h-5v-615h-100v700h172l276 -519h5l265 519h167v-700h-100v615h-5z" />
    <glyph glyph-name="N" unicode="N" horiz-adv-x="840" 
d="M185 0h-100v700h160l405 -610h5v610h100v-700h-160l-405 610h-5v-610z" />
    <glyph glyph-name="O" unicode="O" horiz-adv-x="1030" 
d="M273.5 36.5q-100.5 46.5 -152 128t-51.5 185.5t51.5 185.5t152 128t241.5 46.5t241.5 -46.5t152 -128t51.5 -185.5t-51.5 -185.5t-152 -128t-241.5 -46.5t-241.5 46.5zM698.5 115.5q76.5 35.5 116.5 97t40 137.5t-40 137.5t-116.5 97t-183.5 35.5t-183.5 -35.5
t-116.5 -97t-40 -137.5t40 -137.5t116.5 -97t183.5 -35.5t183.5 35.5z" />
    <glyph glyph-name="P" unicode="P" horiz-adv-x="805" 
d="M480 700q135 0 205 -60.5t70 -164.5t-70 -164.5t-205 -60.5h-295v-250h-100v700h395zM480 345q83 0 126.5 35.5t43.5 94.5t-43.5 94.5t-126.5 35.5h-295v-260h295z" />
    <glyph glyph-name="Q" unicode="Q" horiz-adv-x="1030" 
d="M917.5 180q-42.5 -76 -123.5 -124l76 -126h-110l-53 87q-87 -27 -192 -27q-141 0 -241.5 46.5t-152 128t-51.5 185.5t51.5 185.5t152 128t241.5 46.5t241.5 -46.5t152 -128t51.5 -185.5q0 -94 -42.5 -170zM657 100l-67 110h110l43 -70q54 36 83 91t29 119q0 76 -40 137.5
t-116.5 97t-183.5 35.5t-183.5 -35.5t-116.5 -97t-40 -137.5t40 -137.5t116.5 -97t183.5 -35.5q79 0 142 20z" />
    <glyph glyph-name="R" unicode="R" horiz-adv-x="820" 
d="M535 295q95 0 142.5 -41t47.5 -114v-140h-100v135q0 115 -145 115h-295v-250h-100v700h395q90 0 151.5 -27t92.5 -74.5t31 -108.5q0 -55 -26 -98t-76 -67.5t-118 -24.5v-5zM185 345h295q83 0 126.5 35.5t43.5 94.5t-43.5 94.5t-126.5 35.5h-295v-260z" />
    <glyph glyph-name="S" unicode="S" horiz-adv-x="760" 
d="M219.5 10q-76.5 20 -114.5 45v102q39 -29 114 -53t162 -24q73 0 120 15t68 39t21 51q0 36 -29 57.5t-72 33t-118 25.5q-100 18 -161.5 37t-105.5 60t-44 112q0 53 35 98.5t110 73.5t188 28q87 0 167.5 -22.5t124.5 -49.5v-104q-42 32 -122.5 59t-169.5 27q-81 0 -132 -16
t-73.5 -41t-22.5 -53q0 -35 28 -56t70 -32t118 -25q100 -18 162.5 -37t107 -61t44.5 -114q0 -52 -34 -96.5t-103.5 -71.5t-171.5 -27q-90 0 -166.5 20z" />
    <glyph glyph-name="T" unicode="T" horiz-adv-x="700" 
d="M20 700h660v-95h-280v-605h-100v605h-280v95z" />
    <glyph glyph-name="U" unicode="U" horiz-adv-x="840" 
d="M235.5 27q-76.5 37 -116 105t-39.5 158v410h100v-410q0 -100 59.5 -152.5t180.5 -52.5t180.5 52.5t59.5 152.5v410h100v-410q0 -90 -39.5 -158t-116 -105t-184.5 -37t-184.5 37z" />
    <glyph glyph-name="V" unicode="V" horiz-adv-x="825" 
d="M475 0h-125l-350 700h110l300 -610h5l300 610h110z" />
    <glyph glyph-name="W" unicode="W" horiz-adv-x="1250" 
d="M411 0h-130l-276 700h106l235 -605h5l220 605h110l219 -605h5l235 605h105l-275 -700h-130l-211 575h-6z" />
    <glyph glyph-name="X" unicode="X" horiz-adv-x="725" 
d="M120 0h-120l304 360l-289 340h120l225 -270h5l225 270h120l-288 -340l303 -360h-120l-240 290h-5z" />
    <glyph glyph-name="Y" unicode="Y" horiz-adv-x="780" 
d="M440 0h-100v160l-360 540h112l295 -450h6l295 450h112l-360 -540v-160z" />
    <glyph glyph-name="Z" unicode="Z" horiz-adv-x="735" 
d="M700 0h-660v90l500 510v5h-490v95h630v-90l-500 -510v-5h520v-95z" />
    <glyph glyph-name="bracketleft" unicode="[" horiz-adv-x="305" 
d="M295 -190h-210v970h210v-85h-120v-800h120v-85z" />
    <glyph glyph-name="backslash" unicode="\" horiz-adv-x="485" 
d="M485 -70h-95l-390 840h95z" />
    <glyph glyph-name="bracketright" unicode="]" horiz-adv-x="305" 
d="M220 -190h-210v85h120v800h-120v85h210v-970z" />
    <glyph glyph-name="asciicircum" unicode="^" horiz-adv-x="500" 
d="M135 450h-110l170 250h110l170 -250h-110l-110 165h-10z" />
    <glyph glyph-name="underscore" unicode="_" horiz-adv-x="590" 
d="M610 -190h-630v90h630v-90z" />
    <glyph glyph-name="grave" unicode="`" horiz-adv-x="345" 
d="M295 570l-265 55l10 105h30l245 -100l-10 -60h-10z" />
    <glyph glyph-name="a" unicode="a" horiz-adv-x="680" 
d="M100 35.5q-55 45.5 -55 119.5q0 80 64.5 127.5t199.5 47.5q93 0 138 6.5t59 19t14 34.5q0 85 -185 85q-72 0 -142 -21.5t-113 -48.5v95q36 23 105.5 41.5t154.5 18.5q151 0 215.5 -46t64.5 -134v-380h-100v86q-32 -36 -102 -66t-158 -30q-105 0 -160 45.5zM432.5 103
q62.5 28 87.5 63v123q-10 -13 -65 -23.5t-150 -10.5q-160 0 -160 -95q0 -37 34.5 -61t105.5 -24q85 0 147.5 28z" />
    <glyph glyph-name="b" unicode="b" horiz-adv-x="750" 
d="M257 15q-58 25 -87 55h-5v-70h-100v720h100v-240h5q29 30 87 55t128 25q93 0 164.5 -37.5t111 -102.5t39.5 -145t-39.5 -145t-111 -102.5t-164.5 -37.5q-70 0 -128 25zM491 100.5q53 25.5 81 71t28 103.5t-28 103.5t-81 71t-126 25.5q-68 0 -121.5 -26t-78.5 -59v-230
q25 -32 78.5 -58.5t121.5 -26.5q73 0 126 25.5z" />
    <glyph glyph-name="c" unicode="c" horiz-adv-x="655" 
d="M206 27.5q-74 37.5 -115 102.5t-41 145t41 145t116 102.5t173 37.5q74 0 136 -18.5t99 -41.5v-95q-37 27 -99 48.5t-136 21.5q-69 0 -121 -25t-80.5 -70t-28.5 -105q0 -59 28 -104.5t79 -70.5t118 -25q69 0 127.5 19t92.5 43v-92q-33 -21 -92 -38t-128 -17
q-95 0 -169 37.5z" />
    <glyph glyph-name="d" unicode="d" horiz-adv-x="750" 
d="M200.5 27.5q-71.5 37.5 -111 102.5t-39.5 145t39.5 145t111 102.5t164.5 37.5q70 0 128 -25t87 -55h5v240h100v-720h-100v70h-5q-29 -30 -87 -55t-128 -25q-93 0 -164.5 37.5zM506.5 101.5q53.5 26.5 78.5 58.5v230q-25 33 -78.5 59t-121.5 26q-73 0 -126 -25.5t-81 -71
t-28 -103.5t28 -103.5t81 -71t126 -25.5q68 0 121.5 26.5z" />
    <glyph glyph-name="e" unicode="e" horiz-adv-x="695" 
d="M205 27.5q-75 37.5 -115 102.5t-40 145q0 79 38.5 144.5t107 103t154.5 37.5t153 -36.5t104.5 -101.5t37.5 -147v-40h-500q15 -73 77 -116.5t158 -43.5q65 0 125 21.5t95 48.5v-95q-35 -23 -95 -41.5t-125 -18.5q-100 0 -175 37.5zM545 315q-9 67 -57.5 113.5
t-132.5 46.5q-85 0 -142 -44t-68 -116h400z" />
    <glyph glyph-name="f" unicode="f" horiz-adv-x="375" 
d="M110 0v465h-110v85h110v18q0 74 44.5 118t120.5 44q55 0 100 -16v-85q-40 16 -83 16q-39 0 -60.5 -21t-21.5 -57v-17h145v-85h-145v-465h-100z" />
    <glyph glyph-name="g" unicode="g" horiz-adv-x="745" 
d="M216.5 -181.5q-65.5 18.5 -101.5 41.5v95q37 -27 102.5 -48.5t137.5 -21.5q113 0 169 50.5t56 139.5v15h-5q-29 -30 -88.5 -55t-131.5 -25q-90 0 -159.5 36t-107.5 99t-38 140t38 140t107.5 99t159.5 36q72 0 131.5 -25t88.5 -55h5v70h100v-475q0 -81 -38 -143t-111 -97
t-176 -35q-73 0 -138.5 18.5zM497 121q57 26 83 59v210q-26 33 -83 59t-127 26q-108 0 -164 -49.5t-56 -140.5t56 -140.5t164 -49.5q70 0 127 26z" />
    <glyph glyph-name="h" unicode="h" horiz-adv-x="685" 
d="M65 0v720h100v-258h5q23 37 78 67.5t127 30.5q122 0 186 -59t64 -166v-335h-100v335q0 68 -41 106.5t-119 38.5q-76 0 -128.5 -35.5t-71.5 -79.5v-365h-100z" />
    <glyph glyph-name="i" unicode="i" horiz-adv-x="230" 
d="M63 614.5q-18 14.5 -18 40.5t18 40.5t52 14.5t52 -14.5t18 -40.5t-18 -40.5t-52 -14.5t-52 14.5zM65 0v550h5h45h45h5v-550h-100z" />
    <glyph glyph-name="j" unicode="j" horiz-adv-x="230" 
d="M63 614.5q-18 14.5 -18 40.5t18 40.5t52 14.5t52 -14.5t18 -40.5t-18 -40.5t-52 -14.5t-52 14.5zM-95 -187v86q40 -9 68 -9q43 0 67.5 26.5t24.5 73.5v560h5h45h45h5v-558q0 -93 -44 -142.5t-129 -49.5q-47 0 -87 13z" />
    <glyph glyph-name="k" unicode="k" horiz-adv-x="615" 
d="M165 0h-100v720h100v-405l315 235h145l-350 -250l350 -300h-145l-315 280v-280z" />
    <glyph glyph-name="l" unicode="l" horiz-adv-x="230" 
d="M165 0h-100v720h100v-720z" />
    <glyph glyph-name="m" unicode="m" horiz-adv-x="1055" 
d="M65 0v550h100v-88h5q21 37 71 67.5t114 30.5q75 0 126.5 -31t68.5 -69h5q28 38 83 69t122 31q112 0 173.5 -59.5t61.5 -165.5v-335h-100v335q0 68 -38.5 106.5t-106.5 38.5q-60 0 -107 -27.5t-68 -62.5q5 -27 5 -55v-335h-100v335q0 67 -37 106t-98 39
q-68 0 -115.5 -35.5t-64.5 -79.5v-365h-100z" />
    <glyph glyph-name="n" unicode="n" horiz-adv-x="685" 
d="M65 0v550h100v-88h5q23 37 78 67.5t127 30.5q122 0 186 -59t64 -166v-335h-100v335q0 68 -41 106.5t-119 38.5q-76 0 -128.5 -35.5t-71.5 -79.5v-365h-100z" />
    <glyph glyph-name="o" unicode="o" horiz-adv-x="770" 
d="M207 27.5q-76 37.5 -116.5 102.5t-40.5 145t40.5 145t116.5 102.5t178 37.5t178 -37.5t116.5 -102.5t40.5 -145t-40.5 -145t-116.5 -102.5t-178 -37.5t-178 37.5zM559.5 129q60.5 54 60.5 146t-60.5 146t-174.5 54t-174.5 -54t-60.5 -146t60.5 -146t174.5 -54t174.5 54z
" />
    <glyph glyph-name="p" unicode="p" horiz-adv-x="750" 
d="M65 -190v740h100v-70h5q29 30 87 55t128 25q93 0 164.5 -37.5t111 -102.5t39.5 -145t-39.5 -145t-111 -102.5t-164.5 -37.5q-70 0 -128 25t-87 55h-5v-260h-100zM491 100.5q53 25.5 81 71t28 103.5t-28 103.5t-81 71t-126 25.5q-68 0 -121.5 -26t-78.5 -59v-230
q25 -32 78.5 -58.5t121.5 -26.5q73 0 126 25.5z" />
    <glyph glyph-name="q" unicode="q" horiz-adv-x="750" 
d="M585 -190v260h-5q-29 -30 -87 -55t-128 -25q-93 0 -164.5 37.5t-111 102.5t-39.5 145t39.5 145t111 102.5t164.5 37.5q70 0 128 -25t87 -55h5v70h100v-740h-100zM503.5 101.5q56.5 26.5 81.5 58.5v230q-25 33 -81 59t-129 26q-69 0 -119.5 -26t-78 -71t-27.5 -103
t27.5 -103t78 -71t119.5 -26q72 0 128.5 26.5z" />
    <glyph glyph-name="r" unicode="r" horiz-adv-x="411" 
d="M65 0v550h100v-88h5q21 34 65.5 61t99.5 27h56v-95h-56q-70 0 -114 -25.5t-56 -56.5v-373h-100z" />
    <glyph glyph-name="s" unicode="s" horiz-adv-x="605" 
d="M171 8.5q-68 18.5 -105 39.5v94q36 -25 104 -46t139 -21q91 0 126 19t35 52q0 27 -22.5 43.5t-56.5 25t-95 19.5q-82 15 -132.5 29.5t-87 48.5t-36.5 93q0 42 27.5 77t87 56.5t151.5 21.5q77 0 151 -20.5t108 -43.5v-93q-35 26 -109.5 49t-149.5 23q-91 0 -128.5 -19.5
t-37.5 -50.5q0 -36 41 -52t126 -30q84 -15 136 -30t89.5 -50.5t37.5 -96.5q0 -40 -28 -75.5t-87 -58t-146 -22.5q-70 0 -138 18.5z" />
    <glyph glyph-name="t" unicode="t" horiz-adv-x="415" 
d="M157 38.5q-47 48.5 -47 140.5v281h-110v90h55q55 0 55 60v60h100v-120h160v-90h-160v-284q0 -45 24.5 -70.5t65.5 -25.5q37 0 70 11v-89q-36 -12 -82 -12q-84 0 -131 48.5z" />
    <glyph glyph-name="u" unicode="u" horiz-adv-x="685" 
d="M124 49q-64 59 -64 166v335h100v-335q0 -68 41 -106.5t119 -38.5q76 0 128.5 35.5t71.5 79.5v365h100v-550h-100v88h-5q-23 -37 -78 -67.5t-127 -30.5q-122 0 -186 59z" />
    <glyph glyph-name="v" unicode="v" horiz-adv-x="605" 
d="M359 0h-115l-249 550h107l201 -455h5l201 455h101z" />
    <glyph glyph-name="w" unicode="w" horiz-adv-x="985" 
d="M335 0h-116l-219 550h102l173 -450h5l165 450h100l170 -450h5l168 450h97l-210 -550h-116l-164 425h-5z" />
    <glyph glyph-name="x" unicode="x" horiz-adv-x="595" 
d="M113 0h-113l239 277l-231 273h120l170 -205h5l171 205h113l-231 -269l239 -281h-120l-180 210h-5z" />
    <glyph glyph-name="y" unicode="y" horiz-adv-x="610" 
d="M255 -190h-101l116 240l-275 500h117l205 -390h5l188 390h105z" />
    <glyph glyph-name="z" unicode="z" horiz-adv-x="605" 
d="M580 0h-550v85l400 370v5h-395v90h530v-85l-400 -370v-5h415v-90z" />
    <glyph glyph-name="braceleft" unicode="{" horiz-adv-x="325" 
d="M265 -190q-75 0 -110 34t-35 106v245q0 30 -16 45t-49 15h-20v80h20q33 0 49 15t16 45v245q0 72 35 106t110 34h50v-85h-45q-60 0 -60 -60v-240q0 -95 -85 -95v-10q85 0 85 -95v-240q0 -60 60 -60h45v-85h-50z" />
    <glyph glyph-name="bar" unicode="|" horiz-adv-x="330" 
d="M210 -170h-90v970h90v-970z" />
    <glyph glyph-name="braceright" unicode="}" horiz-adv-x="325" 
d="M10 -190v85h45q60 0 60 60v240q0 95 85 95v10q-85 0 -85 95v240q0 60 -60 60h-45v85h50q75 0 110 -34t35 -106v-245q0 -30 16 -45t49 -15h20v-80h-20q-33 0 -49 -15t-16 -45v-245q0 -72 -35 -106t-110 -34h-50z" />
    <glyph glyph-name="asciitilde" unicode="~" horiz-adv-x="620" 
d="M356.5 246.5q-31.5 16.5 -72.5 47.5q-32 24 -51.5 35t-42.5 11q-25 0 -40 -16t-15 -44v-40h-95v45q0 71 39.5 110.5t110.5 39.5q42 0 73.5 -16.5t72.5 -47.5q32 -24 51.5 -35t42.5 -11q25 0 40 16t15 44v40h95v-45q0 -71 -39.5 -110.5t-110.5 -39.5q-42 0 -73.5 16.5z
" />
    <glyph glyph-name="uni00A0" unicode="&#xa0;" horiz-adv-x="300" 
 />
    <glyph glyph-name="exclamdown" unicode="&#xa1;" horiz-adv-x="270" 
d="M85 449q-20 19 -20 46t20 46t50 19t50 -19t20 -46t-20 -46t-50 -19t-50 19zM185 -190h-100v330l20 210h60l20 -210v-330z" />
    <glyph glyph-name="cent" unicode="&#xa2;" horiz-adv-x="655" 
d="M259 450q-52 -25 -80.5 -70t-28.5 -105q0 -59 28 -104.5t79 -70.5t118 -25q69 0 127.5 19t92.5 43v-92q-27 -17 -71.5 -32t-98.5 -20v-108h-100v108q-82 9 -144.5 48.5t-96.5 100t-34 133.5q0 72 33.5 132.5t96 100t145.5 49.5v103h100v-102q60 -5 109.5 -22t80.5 -36
v-95q-37 27 -99 48.5t-136 21.5q-69 0 -121 -25z" />
    <glyph glyph-name="sterling" unicode="&#xa3;" horiz-adv-x="700" 
d="M210 95h440v-95h-605v95q125 0 125 115q0 33 -18 80h-102v95h65q-25 64 -25 105q0 65 35.5 115t103.5 77.5t161 27.5q70 0 139.5 -17t110.5 -38v-100q-40 25 -108.5 45t-141.5 20q-91 0 -143 -33.5t-52 -96.5q0 -41 23 -105h279v-95h-243q21 -58 21 -90q0 -38 -20 -64
t-45 -36v-5z" />
    <glyph glyph-name="currency" unicode="&#xa4;" horiz-adv-x="684" 
d="M551 234l63 -63l-64 -62l-68 66q-61 -33 -139 -33q-80 0 -140 33l-69 -66l-64 62l63 63q-38 52 -38 116t38 116l-63 63l64 62l69 -67q61 33 140 33q77 0 138 -32l69 66l64 -62l-63 -63q39 -51 39 -116q0 -66 -39 -116zM458 260.5q42 32.5 42 89.5q0 56 -42 89t-116 33
q-73 0 -115 -33t-42 -89t42 -89t115 -33q74 0 116 32.5z" />
    <glyph glyph-name="yen" unicode="&#xa5;" horiz-adv-x="800" 
d="M692 700h118l-296 -375h161v-85h-225v-75h225v-85h-225v-80h-100v80h-225v85h225v75h-225v85h161l-296 375h118l289 -370h6z" />
    <glyph glyph-name="brokenbar" unicode="&#xa6;" horiz-adv-x="330" 
d="M210 390h-90v410h90v-410zM210 -170h-90v410h90v-410z" />
    <glyph glyph-name="section" unicode="&#xa7;" horiz-adv-x="660" 
d="M201.5 -163.5q-64.5 16.5 -101.5 36.5v95q38 -24 102 -43.5t133 -19.5q80 0 120 26t40 64q0 29 -22.5 47t-56 28.5t-94.5 24.5q-80 18 -130.5 35.5t-86 53.5t-35.5 96q0 45 29.5 80t65.5 50v5q-95 40 -95 125q0 47 29.5 85.5t92 61.5t158.5 23q68 0 132 -16.5t103 -37.5
v-95q-39 24 -103 44t-132 20q-97 0 -138.5 -23.5t-41.5 -61.5q0 -26 22 -43t55.5 -27t91.5 -22q82 -18 132.5 -35t87 -53t36.5 -95q0 -45 -29.5 -80t-65.5 -50v-5q47 -20 71 -52t24 -83q0 -47 -29.5 -86.5t-88 -64t-142.5 -24.5q-69 0 -133.5 16.5zM199.5 225
q29.5 -18 100.5 -35l105 -25q34 15 62 44t28 61t-29.5 50t-100.5 35l-105 25q-34 -17 -62 -46t-28 -59q0 -32 29.5 -50z" />
    <glyph glyph-name="dieresis" unicode="&#xa8;" horiz-adv-x="405" 
d="M49.5 579.5q-19.5 19.5 -19.5 45.5t19.5 45.5t45.5 19.5t45.5 -19.5t19.5 -45.5t-19.5 -45.5t-45.5 -19.5t-45.5 19.5zM264.5 579.5q-19.5 19.5 -19.5 45.5t19.5 45.5t45.5 19.5t45.5 -19.5t19.5 -45.5t-19.5 -45.5t-45.5 -19.5t-45.5 19.5z" />
    <glyph glyph-name="copyright" unicode="&#xa9;" horiz-adv-x="1030" 
d="M278 29q-101 49 -154.5 133.5t-53.5 187.5t53.5 187.5t154.5 133.5t237 49t237 -49t154.5 -133.5t53.5 -187.5t-53.5 -187.5t-154.5 -133.5t-237 -49t-237 49zM706 90q82 40 125.5 108.5t43.5 151.5t-43.5 151.5t-125.5 108.5t-191 40t-191 -40t-125.5 -108.5
t-43.5 -151.5t43.5 -151.5t125.5 -108.5t191 -40t191 40zM409 185.5q-50 25.5 -77 68.5t-27 96t27.5 96t78.5 68.5t119 25.5q44 0 87 -12.5t68 -27.5v-86q-25 18 -67.5 32t-87.5 14q-69 0 -104.5 -30.5t-35.5 -84.5q0 -46 36.5 -75.5t98.5 -29.5q45 0 84.5 14t60.5 32v-86
q-22 -15 -61 -27.5t-84 -12.5q-66 0 -116 25.5z" />
    <glyph glyph-name="ordfeminine" unicode="&#xaa;" horiz-adv-x="450" 
d="M72 402.5q-37 27.5 -37 67.5q0 45 40 70t135 25q67 0 88.5 9.5t21.5 25.5q0 18 -23 29t-82 11q-45 0 -87.5 -9t-67.5 -21v70q24 10 69.5 17.5t95.5 7.5q92 0 133.5 -28.5t41.5 -86.5v-210h-80v40h-5q-19 -17 -56 -31t-79 -14q-71 0 -108 27.5zM266.5 452.5
q36.5 12.5 53.5 27.5v50q-13 -11 -45 -20.5t-75 -9.5q-47 0 -63.5 -8t-16.5 -24q0 -28 65 -28q45 0 81.5 12.5z" />
    <glyph glyph-name="guillemotleft" unicode="&#xab;" horiz-adv-x="535" 
d="M295 75h-110l-150 205l150 205h110l-150 -205zM510 75h-110l-150 205l150 205h110l-150 -205z" />
    <glyph glyph-name="logicalnot" unicode="&#xac;" horiz-adv-x="620" 
d="M555 200h-90v145h-410v90h500v-235z" />
    <glyph glyph-name="uni00AD" unicode="&#xad;" horiz-adv-x="510" 
d="M455 265h-400v95h400v-95z" />
    <glyph glyph-name="registered" unicode="&#xae;" horiz-adv-x="320" 
d="M59 515q-39 35 -39 85t39 85t101 35t101 -35t39 -85t-39 -85t-101 -35t-101 35zM233.5 539.5q26.5 24.5 26.5 60.5t-26.5 60.5t-73.5 24.5t-73.5 -24.5t-26.5 -60.5t26.5 -60.5t73.5 -24.5t73.5 24.5zM105 545v110h70q22 0 33.5 -9t11.5 -23t-11 -22t-34 -8v-3
q22 0 31 -6t9 -19v-20h-35v18q0 12 -13 12h-27v-30h-35zM168 605q12 0 12 10t-12 10h-28v-20h28z" />
    <glyph glyph-name="macron" unicode="&#xaf;" horiz-adv-x="440" 
d="M410 615h-380v85h380v-85z" />
    <glyph glyph-name="degree" unicode="&#xb0;" horiz-adv-x="420" 
d="M119 421q-40 21 -62 56.5t-22 77.5t22 77.5t62 56.5t91 21t91 -21t62 -56.5t22 -77.5t-22 -77.5t-62 -56.5t-91 -21t-91 21zM271 498q24 23 24 57t-24 57t-61 23t-61 -23t-24 -57t24 -57t61 -23t61 23z" />
    <glyph glyph-name="plusminus" unicode="&#xb1;" horiz-adv-x="630" 
d="M565 10h-500v90h205v160h-210v90h210v205h90v-205h210v-90h-210v-160h205v-90z" />
    <glyph glyph-name="uni00B2" unicode="&#xb2;" horiz-adv-x="380" 
d="M50 450v70l110 75q53 37 74 58t21 42q0 50 -70 50q-32 0 -71.5 -14t-68.5 -31v70q26 15 66 27.5t79 12.5q72 0 108.5 -29.5t36.5 -80.5q0 -37 -20 -63.5t-70 -61.5l-80 -55v-5h165v-65h-280z" />
    <glyph glyph-name="uni00B3" unicode="&#xb3;" horiz-adv-x="380" 
d="M103 449.5q-37 9.5 -58 20.5v65q21 -11 58 -20.5t77 -9.5q80 0 80 45q0 50 -80 50q-27 0 -47 -3t-28 -7v65l90 75v5h-145v65h270v-40l-115 -95v-5q61 0 98 -31t37 -74q0 -31 -18.5 -57t-55 -42t-86.5 -16q-40 0 -77 9.5z" />
    <glyph glyph-name="acute" unicode="&#xb4;" horiz-adv-x="345" 
d="M50 570h-10l-10 60l245 100h30l10 -105z" />
    <glyph glyph-name="uni00B5" unicode="&#xb5;" horiz-adv-x="690" 
d="M65 -190v740h100v-310q0 -88 41 -129t129 -41q62 0 113.5 31.5t76.5 69.5v379h100v-550h-85l-15 81h-5q-30 -35 -83.5 -63t-111.5 -28q-60 0 -102.5 17t-57.5 38h-5v-235h-95z" />
    <glyph glyph-name="paragraph" unicode="&#xb6;" 
d="M285 -190v400h-10q-67 0 -120.5 31t-84 87t-30.5 127t30.5 127t84 87t120.5 31h430v-85h-80v-805h-90v805h-160v-805h-90z" />
    <glyph glyph-name="periodcentered" unicode="&#xb7;" horiz-adv-x="300" 
d="M100 264q-20 19 -20 46t20 46t50 19t50 -19t20 -46t-20 -46t-50 -19t-50 19z" />
    <glyph glyph-name="cedilla" unicode="&#xb8;" horiz-adv-x="295" 
d="M157 -50q51 0 79.5 -26.5t28.5 -70.5q0 -47 -36 -75t-95 -28q-47 0 -104 16v67q51 -13 90 -13q60 0 60 32q0 28 -46 28h-71l-20 20l31 105l82 -5l-15 -50h16z" />
    <glyph glyph-name="uni00B9" unicode="&#xb9;" horiz-adv-x="345" 
d="M55 450v65h95v175h-95v60h55q26 0 38 12t12 38h70v-285h85v-65h-260z" />
    <glyph glyph-name="ordmasculine" unicode="&#xba;" horiz-adv-x="460" 
d="M120.5 397q-46.5 22 -71 59.5t-24.5 83.5t24.5 83.5t71 59.5t109.5 22t109.5 -22t71 -59.5t24.5 -83.5t-24.5 -83.5t-71 -59.5t-109.5 -22t-109.5 22zM317.5 475.5q32.5 25.5 32.5 64.5t-32.5 64.5t-87.5 25.5t-87.5 -25.5t-32.5 -64.5t32.5 -64.5t87.5 -25.5t87.5 25.5z
" />
    <glyph glyph-name="guillemotright" unicode="&#xbb;" horiz-adv-x="535" 
d="M285 280l-150 -205h-110l150 205l-150 205h110zM500 280l-150 -205h-110l150 205l-150 205h110z" />
    <glyph glyph-name="onequarter" unicode="&#xbc;" horiz-adv-x="865" 
d="M45 350v65h95v175h-95v60h55q26 0 38 12t12 38h70v-285h85v-65h-260zM265 0h-85l430 700h85zM770 0h-80v85h-210v65l175 200h94l-174 -195v-5h115v90h80v-90h60v-65h-60v-85z" />
    <glyph glyph-name="onehalf" unicode="&#xbd;" horiz-adv-x="920" 
d="M45 350v65h95v175h-95v60h55q26 0 38 12t12 38h70v-285h85v-65h-260zM265 0h-85l430 700h85zM570 0v70l110 75q53 37 74 58t21 42q0 50 -70 50q-32 0 -71.5 -14t-68.5 -31v70q26 15 66 27.5t79 12.5q72 0 108.5 -29.5t36.5 -80.5q0 -37 -20 -63.5t-70 -61.5l-80 -55v-5
h165v-65h-280z" />
    <glyph glyph-name="threequarters" unicode="&#xbe;" horiz-adv-x="870" 
d="M103 349.5q-37 9.5 -58 20.5v65q21 -11 58 -20.5t77 -9.5q80 0 80 45q0 50 -80 50q-27 0 -47 -3t-28 -7v65l90 75v5h-145v65h270v-40l-115 -95v-5q61 0 98 -31t37 -74q0 -31 -18.5 -57t-55 -42t-86.5 -16q-40 0 -77 9.5zM270 0h-85l430 700h85zM775 0h-80v85h-210v65
l175 200h94l-174 -195v-5h115v90h80v-90h60v-65h-60v-85z" />
    <glyph glyph-name="questiondown" unicode="&#xbf;" horiz-adv-x="585" 
d="M290 449q-20 19 -20 46t20 46t50 19t50 -19t20 -46t-20 -46t-50 -19t-50 19zM145 -173q-75 27 -110 72.5t-35 100.5q0 67 46.5 115t116.5 75t142 34v126h80l25 -200q-72 -2 -142 -18.5t-116.5 -48.5t-46.5 -78q0 -30 23.5 -56t75 -42.5t131.5 -16.5q85 0 157 20t108 45
v-100q-36 -21 -108 -38t-157 -17q-115 0 -190 27z" />
    <glyph glyph-name="Agrave" unicode="&#xc0;" horiz-adv-x="840" 
d="M840 0h-105l-92 180h-446l-92 -180h-105l360 700h120zM417 610l-171 -335h348l-171 335h-6zM530 770h-10l-265 55l10 105h30l245 -100z" />
    <glyph glyph-name="Aacute" unicode="&#xc1;" horiz-adv-x="840" 
d="M840 0h-105l-92 180h-446l-92 -180h-105l360 700h120zM417 610l-171 -335h348l-171 335h-6zM335 770h-10l-10 60l245 100h30l10 -105z" />
    <glyph glyph-name="Acircumflex" unicode="&#xc2;" horiz-adv-x="840" 
d="M840 0h-105l-92 180h-446l-92 -180h-105l360 700h120zM417 610l-171 -335h348l-171 335h-6zM315 780h-120l165 140h120l165 -140h-120l-100 85h-10z" />
    <glyph glyph-name="Atilde" unicode="&#xc3;" horiz-adv-x="840" 
d="M840 0h-105l-92 180h-446l-92 -180h-105l360 700h120zM417 610l-171 -335h348l-171 335h-6zM454 791q-24 11 -52 31q-20 14 -33.5 21t-28.5 7q-14 0 -22 -8t-8 -22v-35h-80v45q0 44 26.5 69.5t73.5 25.5q32 0 56 -11t52 -31q20 -14 33.5 -21t28.5 -7q13 0 21.5 8.5
t8.5 21.5v35h80v-45q0 -44 -26.5 -69.5t-73.5 -25.5q-32 0 -56 11z" />
    <glyph glyph-name="Adieresis" unicode="&#xc4;" horiz-adv-x="840" 
d="M840 0h-105l-92 180h-446l-92 -180h-105l360 700h120zM417 610l-171 -335h348l-171 335h-6zM266.5 804.5q-19.5 19.5 -19.5 45.5t19.5 45.5t45.5 19.5t45.5 -19.5t19.5 -45.5t-19.5 -45.5t-45.5 -19.5t-45.5 19.5zM481.5 804.5q-19.5 19.5 -19.5 45.5t19.5 45.5
t45.5 19.5t45.5 -19.5t19.5 -45.5t-19.5 -45.5t-45.5 -19.5t-45.5 19.5z" />
    <glyph glyph-name="Aring" unicode="&#xc5;" horiz-adv-x="840" 
d="M840 0h-105l-92 180h-446l-92 -180h-105l360 700h120zM417 610l-171 -335h348l-171 335h-6zM324.5 778.5q-34.5 28.5 -34.5 71.5t34.5 71.5t95.5 28.5t95.5 -28.5t34.5 -71.5t-34.5 -71.5t-95.5 -28.5t-95.5 28.5zM464 822q16 12 16 28t-16 28t-44 12t-44 -12t-16 -28
t16 -28t44 -12t44 12z" />
    <glyph glyph-name="AE" unicode="&#xc6;" horiz-adv-x="1155" 
d="M620 305v-210h480v-95h-580v180h-343l-87 -180h-105l340 700h755v-95h-460v-205h420v-95h-420zM384 605l-160 -330h296v330h-136z" />
    <glyph glyph-name="Ccedilla" unicode="&#xc7;" horiz-adv-x="865" 
d="M331.5 584.5q-76.5 -35.5 -116.5 -97t-40 -137.5q0 -75 38.5 -137t111.5 -97.5t170 -35.5q84 0 158.5 21.5t116.5 47.5v-102q-41 -22 -113 -39t-154 -18l-12 -40h16q51 0 79.5 -26.5t28.5 -70.5q0 -47 -36 -75t-95 -28q-47 0 -104 16v67q51 -13 90 -13q60 0 60 32
q0 28 -46 28h-71l-20 20l28 94q-110 13 -189 62t-120.5 125t-41.5 169q0 104 51.5 185.5t152 128t241.5 46.5q88 0 165.5 -23t119.5 -52v-105q-40 34 -117.5 62t-167.5 28q-107 0 -183.5 -35.5z" />
    <glyph glyph-name="Egrave" unicode="&#xc8;" 
d="M185 305v-210h500v-95h-600v700h580v-95h-480v-205h440v-95h-440zM515 770h-10l-265 55l10 105h30l245 -100z" />
    <glyph glyph-name="Eacute" unicode="&#xc9;" 
d="M185 305v-210h500v-95h-600v700h580v-95h-480v-205h440v-95h-440zM260 770h-10l-10 60l245 100h30l10 -105z" />
    <glyph glyph-name="Ecircumflex" unicode="&#xca;" 
d="M185 305v-210h500v-95h-600v700h580v-95h-480v-205h440v-95h-440zM270 780h-120l165 140h120l165 -140h-120l-100 85h-10z" />
    <glyph glyph-name="Edieresis" unicode="&#xcb;" 
d="M185 305v-210h500v-95h-600v700h580v-95h-480v-205h440v-95h-440zM221.5 804.5q-19.5 19.5 -19.5 45.5t19.5 45.5t45.5 19.5t45.5 -19.5t19.5 -45.5t-19.5 -45.5t-45.5 -19.5t-45.5 19.5zM436.5 804.5q-19.5 19.5 -19.5 45.5t19.5 45.5t45.5 19.5t45.5 -19.5t19.5 -45.5
t-19.5 -45.5t-45.5 -19.5t-45.5 19.5z" />
    <glyph glyph-name="Igrave" unicode="&#xcc;" 
d="M700 700v-95h-280v-510h280v-95h-660v95h280v510h-280v95h660zM515 770h-10l-265 55l10 105h30l245 -100z" />
    <glyph glyph-name="Iacute" unicode="&#xcd;" 
d="M700 700v-95h-280v-510h280v-95h-660v95h280v510h-280v95h660zM235 770h-10l-10 60l245 100h30l10 -105z" />
    <glyph glyph-name="Icircumflex" unicode="&#xce;" 
d="M700 700v-95h-280v-510h280v-95h-660v95h280v510h-280v95h660zM265 780h-120l165 140h120l165 -140h-120l-100 85h-10z" />
    <glyph glyph-name="Idieresis" unicode="&#xcf;" 
d="M700 700v-95h-280v-510h280v-95h-660v95h280v510h-280v95h660zM216.5 804.5q-19.5 19.5 -19.5 45.5t19.5 45.5t45.5 19.5t45.5 -19.5t19.5 -45.5t-19.5 -45.5t-45.5 -19.5t-45.5 19.5zM431.5 804.5q-19.5 19.5 -19.5 45.5t19.5 45.5t45.5 19.5t45.5 -19.5t19.5 -45.5
t-19.5 -45.5t-45.5 -19.5t-45.5 19.5z" />
    <glyph glyph-name="Eth" unicode="&#xd0;" horiz-adv-x="920" 
d="M405 700q146 0 246 -44t149.5 -123t49.5 -183t-49.5 -183t-149.5 -123t-246 -44h-305v290h-70v95h70v315h305zM405 90q112 0 188.5 33t114 91.5t37.5 135.5t-37.5 135.5t-114 91.5t-188.5 33h-205v-225h260v-95h-260v-200h205z" />
    <glyph glyph-name="Ntilde" unicode="&#xd1;" horiz-adv-x="840" 
d="M185 0h-100v700h160l405 -610h5v610h100v-700h-160l-405 610h-5v-610zM459 791q-24 11 -52 31q-20 14 -33.5 21t-28.5 7q-14 0 -22 -8t-8 -22v-35h-80v45q0 44 26.5 69.5t73.5 25.5q32 0 56 -11t52 -31q20 -14 33.5 -21t28.5 -7q13 0 21.5 8.5t8.5 21.5v35h80v-45
q0 -44 -26.5 -69.5t-73.5 -25.5q-32 0 -56 11z" />
    <glyph glyph-name="Ograve" unicode="&#xd2;" horiz-adv-x="1030" 
d="M273.5 36.5q-100.5 46.5 -152 128t-51.5 185.5t51.5 185.5t152 128t241.5 46.5t241.5 -46.5t152 -128t51.5 -185.5t-51.5 -185.5t-152 -128t-241.5 -46.5t-241.5 46.5zM698.5 115.5q76.5 35.5 116.5 97t40 137.5t-40 137.5t-116.5 97t-183.5 35.5t-183.5 -35.5
t-116.5 -97t-40 -137.5t40 -137.5t116.5 -97t183.5 -35.5t183.5 35.5zM660 770h-10l-265 55l10 105h30l245 -100z" />
    <glyph glyph-name="Oacute" unicode="&#xd3;" horiz-adv-x="1030" 
d="M273.5 36.5q-100.5 46.5 -152 128t-51.5 185.5t51.5 185.5t152 128t241.5 46.5t241.5 -46.5t152 -128t51.5 -185.5t-51.5 -185.5t-152 -128t-241.5 -46.5t-241.5 46.5zM698.5 115.5q76.5 35.5 116.5 97t40 137.5t-40 137.5t-116.5 97t-183.5 35.5t-183.5 -35.5
t-116.5 -97t-40 -137.5t40 -137.5t116.5 -97t183.5 -35.5t183.5 35.5zM380 770h-10l-10 60l245 100h30l10 -105z" />
    <glyph glyph-name="Ocircumflex" unicode="&#xd4;" horiz-adv-x="1030" 
d="M273.5 36.5q-100.5 46.5 -152 128t-51.5 185.5t51.5 185.5t152 128t241.5 46.5t241.5 -46.5t152 -128t51.5 -185.5t-51.5 -185.5t-152 -128t-241.5 -46.5t-241.5 46.5zM698.5 115.5q76.5 35.5 116.5 97t40 137.5t-40 137.5t-116.5 97t-183.5 35.5t-183.5 -35.5
t-116.5 -97t-40 -137.5t40 -137.5t116.5 -97t183.5 -35.5t183.5 35.5zM410 780h-120l165 140h120l165 -140h-120l-100 85h-10z" />
    <glyph glyph-name="Otilde" unicode="&#xd5;" horiz-adv-x="1030" 
d="M273.5 36.5q-100.5 46.5 -152 128t-51.5 185.5t51.5 185.5t152 128t241.5 46.5t241.5 -46.5t152 -128t51.5 -185.5t-51.5 -185.5t-152 -128t-241.5 -46.5t-241.5 46.5zM698.5 115.5q76.5 35.5 116.5 97t40 137.5t-40 137.5t-116.5 97t-183.5 35.5t-183.5 -35.5
t-116.5 -97t-40 -137.5t40 -137.5t116.5 -97t183.5 -35.5t183.5 35.5zM549 791q-24 11 -52 31q-20 14 -33.5 21t-28.5 7q-14 0 -22 -8t-8 -22v-35h-80v45q0 44 26.5 69.5t73.5 25.5q32 0 56 -11t52 -31q20 -14 33.5 -21t28.5 -7q13 0 21.5 8.5t8.5 21.5v35h80v-45
q0 -44 -26.5 -69.5t-73.5 -25.5q-32 0 -56 11z" />
    <glyph glyph-name="Odieresis" unicode="&#xd6;" horiz-adv-x="1030" 
d="M273.5 36.5q-100.5 46.5 -152 128t-51.5 185.5t51.5 185.5t152 128t241.5 46.5t241.5 -46.5t152 -128t51.5 -185.5t-51.5 -185.5t-152 -128t-241.5 -46.5t-241.5 46.5zM698.5 115.5q76.5 35.5 116.5 97t40 137.5t-40 137.5t-116.5 97t-183.5 35.5t-183.5 -35.5
t-116.5 -97t-40 -137.5t40 -137.5t116.5 -97t183.5 -35.5t183.5 35.5zM361.5 804.5q-19.5 19.5 -19.5 45.5t19.5 45.5t45.5 19.5t45.5 -19.5t19.5 -45.5t-19.5 -45.5t-45.5 -19.5t-45.5 19.5zM576.5 804.5q-19.5 19.5 -19.5 45.5t19.5 45.5t45.5 19.5t45.5 -19.5t19.5 -45.5
t-19.5 -45.5t-45.5 -19.5t-45.5 19.5z" />
    <glyph glyph-name="multiply" unicode="&#xd7;" horiz-adv-x="610" 
d="M535 139l-64 -64l-166 166l-163 -162l-63 63l162 163l-166 166l64 64l166 -166l163 162l63 -63l-162 -163z" />
    <glyph glyph-name="Oslash" unicode="&#xd8;" horiz-adv-x="1030" 
d="M839 613q60 -48 90.5 -115.5t30.5 -147.5q0 -104 -51.5 -185.5t-152 -128t-241.5 -46.5q-152 0 -262 56l-48 -46h-105l91 87q-60 48 -90.5 115.5t-30.5 147.5q0 104 51.5 185.5t152 128t241.5 46.5q152 0 262 -56l48 46h105zM197.5 243.5q22.5 -49.5 66.5 -85.5l439 424
q-81 38 -188 38t-183.5 -35.5t-116.5 -97t-40 -137.5q0 -57 22.5 -106.5zM698.5 115.5q76.5 35.5 116.5 97t40 137.5q0 57 -22.5 106.5t-66.5 85.5l-439 -424q81 -38 188 -38t183.5 35.5z" />
    <glyph glyph-name="Ugrave" unicode="&#xd9;" horiz-adv-x="840" 
d="M235.5 27q-76.5 37 -116 105t-39.5 158v410h100v-410q0 -100 59.5 -152.5t180.5 -52.5t180.5 52.5t59.5 152.5v410h100v-410q0 -90 -39.5 -158t-116 -105t-184.5 -37t-184.5 37zM550 770h-10l-265 55l10 105h30l245 -100z" />
    <glyph glyph-name="Uacute" unicode="&#xda;" horiz-adv-x="840" 
d="M235.5 27q-76.5 37 -116 105t-39.5 158v410h100v-410q0 -100 59.5 -152.5t180.5 -52.5t180.5 52.5t59.5 152.5v410h100v-410q0 -90 -39.5 -158t-116 -105t-184.5 -37t-184.5 37zM300 770h-10l-10 60l245 100h30l10 -105z" />
    <glyph glyph-name="Ucircumflex" unicode="&#xdb;" horiz-adv-x="840" 
d="M235.5 27q-76.5 37 -116 105t-39.5 158v410h100v-410q0 -100 59.5 -152.5t180.5 -52.5t180.5 52.5t59.5 152.5v410h100v-410q0 -90 -39.5 -158t-116 -105t-184.5 -37t-184.5 37zM315 780h-120l165 140h120l165 -140h-120l-100 85h-10z" />
    <glyph glyph-name="Udieresis" unicode="&#xdc;" horiz-adv-x="840" 
d="M235.5 27q-76.5 37 -116 105t-39.5 158v410h100v-410q0 -100 59.5 -152.5t180.5 -52.5t180.5 52.5t59.5 152.5v410h100v-410q0 -90 -39.5 -158t-116 -105t-184.5 -37t-184.5 37zM266.5 804.5q-19.5 19.5 -19.5 45.5t19.5 45.5t45.5 19.5t45.5 -19.5t19.5 -45.5
t-19.5 -45.5t-45.5 -19.5t-45.5 19.5zM481.5 804.5q-19.5 19.5 -19.5 45.5t19.5 45.5t45.5 19.5t45.5 -19.5t19.5 -45.5t-19.5 -45.5t-45.5 -19.5t-45.5 19.5z" />
    <glyph glyph-name="Yacute" unicode="&#xdd;" horiz-adv-x="780" 
d="M440 0h-100v160l-360 540h112l295 -450h6l295 450h112l-360 -540v-160zM269 770h-10l-10 60l245 100h30l10 -105z" />
    <glyph glyph-name="Thorn" unicode="&#xde;" horiz-adv-x="855" 
d="M85 0v700h100v-130h355q131 0 198 -56.5t67 -153.5t-67 -153.5t-198 -56.5h-355v-150h-100zM540 245q160 0 160 115t-160 115h-355v-230h355z" />
    <glyph glyph-name="germandbls" unicode="&#xdf;" horiz-adv-x="785" 
d="M425.5 3.5q-54.5 13.5 -85.5 28.5v95q33 -19 88.5 -35.5t111.5 -16.5q60 0 87.5 18t27.5 47q0 23 -18 40t-44 29t-74 29q-61 22 -98.5 40t-64 48t-26.5 74q0 42 24.5 71t57 45.5t83.5 35.5q44 16 64.5 27.5t20.5 27.5q0 13 -10 20.5t-30 7.5h-240q-45 0 -67.5 -21.5
t-22.5 -63.5v-550h-100v465h-110v85h110q0 87 43.5 128.5t136.5 41.5h230q79 0 117 -29.5t38 -80.5q0 -38 -21.5 -63.5t-52 -41t-77.5 -33.5q-49 -19 -71.5 -32.5t-22.5 -34.5q0 -26 29 -42.5t91 -37.5q65 -23 105.5 -42t70 -54.5t29.5 -88.5q0 -41 -24 -75t-72.5 -54.5
t-118.5 -20.5q-60 0 -114.5 13.5z" />
    <glyph glyph-name="agrave" unicode="&#xe0;" horiz-adv-x="680" 
d="M100 35.5q-55 45.5 -55 119.5q0 80 64.5 127.5t199.5 47.5q93 0 138 6.5t59 19t14 34.5q0 85 -185 85q-72 0 -142 -21.5t-113 -48.5v95q36 23 105.5 41.5t154.5 18.5q151 0 215.5 -46t64.5 -134v-380h-100v86q-32 -36 -102 -66t-158 -30q-105 0 -160 45.5zM432.5 103
q62.5 28 87.5 63v123q-10 -13 -65 -23.5t-150 -10.5q-160 0 -160 -95q0 -37 34.5 -61t105.5 -24q85 0 147.5 28zM485 620h-10l-265 55l10 105h30l245 -100z" />
    <glyph glyph-name="aacute" unicode="&#xe1;" horiz-adv-x="680" 
d="M100 35.5q-55 45.5 -55 119.5q0 80 64.5 127.5t199.5 47.5q93 0 138 6.5t59 19t14 34.5q0 85 -185 85q-72 0 -142 -21.5t-113 -48.5v95q36 23 105.5 41.5t154.5 18.5q151 0 215.5 -46t64.5 -134v-380h-100v86q-32 -36 -102 -66t-158 -30q-105 0 -160 45.5zM432.5 103
q62.5 28 87.5 63v123q-10 -13 -65 -23.5t-150 -10.5q-160 0 -160 -95q0 -37 34.5 -61t105.5 -24q85 0 147.5 28zM235 620h-10l-10 60l245 100h30l10 -105z" />
    <glyph glyph-name="acircumflex" unicode="&#xe2;" horiz-adv-x="680" 
d="M100 35.5q-55 45.5 -55 119.5q0 80 64.5 127.5t199.5 47.5q93 0 138 6.5t59 19t14 34.5q0 85 -185 85q-72 0 -142 -21.5t-113 -48.5v95q36 23 105.5 41.5t154.5 18.5q151 0 215.5 -46t64.5 -134v-380h-100v86q-32 -36 -102 -66t-158 -30q-105 0 -160 45.5zM432.5 103
q62.5 28 87.5 63v123q-10 -13 -65 -23.5t-150 -10.5q-160 0 -160 -95q0 -37 34.5 -61t105.5 -24q85 0 147.5 28zM230 630h-120l165 140h120l165 -140h-120l-100 85h-10z" />
    <glyph glyph-name="atilde" unicode="&#xe3;" horiz-adv-x="680" 
d="M100 35.5q-55 45.5 -55 119.5q0 80 64.5 127.5t199.5 47.5q93 0 138 6.5t59 19t14 34.5q0 85 -185 85q-72 0 -142 -21.5t-113 -48.5v95q36 23 105.5 41.5t154.5 18.5q151 0 215.5 -46t64.5 -134v-380h-100v86q-32 -36 -102 -66t-158 -30q-105 0 -160 45.5zM432.5 103
q62.5 28 87.5 63v123q-10 -13 -65 -23.5t-150 -10.5q-160 0 -160 -95q0 -37 34.5 -61t105.5 -24q85 0 147.5 28zM369 641q-24 11 -52 31q-20 14 -33.5 21t-28.5 7q-14 0 -22 -8t-8 -22v-35h-80v45q0 44 26.5 69.5t73.5 25.5q32 0 56 -11t52 -31q20 -14 33.5 -21t28.5 -7
q13 0 21.5 8.5t8.5 21.5v35h80v-45q0 -44 -26.5 -69.5t-73.5 -25.5q-32 0 -56 11z" />
    <glyph glyph-name="adieresis" unicode="&#xe4;" horiz-adv-x="680" 
d="M100 35.5q-55 45.5 -55 119.5q0 80 64.5 127.5t199.5 47.5q93 0 138 6.5t59 19t14 34.5q0 85 -185 85q-72 0 -142 -21.5t-113 -48.5v95q36 23 105.5 41.5t154.5 18.5q151 0 215.5 -46t64.5 -134v-380h-100v86q-32 -36 -102 -66t-158 -30q-105 0 -160 45.5zM432.5 103
q62.5 28 87.5 63v123q-10 -13 -65 -23.5t-150 -10.5q-160 0 -160 -95q0 -37 34.5 -61t105.5 -24q85 0 147.5 28zM181.5 654.5q-19.5 19.5 -19.5 45.5t19.5 45.5t45.5 19.5t45.5 -19.5t19.5 -45.5t-19.5 -45.5t-45.5 -19.5t-45.5 19.5zM396.5 654.5q-19.5 19.5 -19.5 45.5
t19.5 45.5t45.5 19.5t45.5 -19.5t19.5 -45.5t-19.5 -45.5t-45.5 -19.5t-45.5 19.5z" />
    <glyph glyph-name="aring" unicode="&#xe5;" horiz-adv-x="680" 
d="M100 35.5q-55 45.5 -55 119.5q0 80 64.5 127.5t199.5 47.5q93 0 138 6.5t59 19t14 34.5q0 85 -185 85q-72 0 -142 -21.5t-113 -48.5v95q36 23 105.5 41.5t154.5 18.5q151 0 215.5 -46t64.5 -134v-380h-100v86q-32 -36 -102 -66t-158 -30q-105 0 -160 45.5zM432.5 103
q62.5 28 87.5 63v123q-10 -13 -65 -23.5t-150 -10.5q-160 0 -160 -95q0 -37 34.5 -61t105.5 -24q85 0 147.5 28zM239.5 628.5q-34.5 28.5 -34.5 71.5t34.5 71.5t95.5 28.5t95.5 -28.5t34.5 -71.5t-34.5 -71.5t-95.5 -28.5t-95.5 28.5zM379 672q16 12 16 28t-16 28t-44 12
t-44 -12t-16 -28t16 -28t44 -12t44 12z" />
    <glyph glyph-name="ae" unicode="&#xe6;" horiz-adv-x="1120" 
d="M1070 240h-467q11 -77 67 -121t145 -44q62 0 120 21.5t90 48.5v-95q-32 -23 -91 -41.5t-124 -18.5q-82 0 -147.5 32t-106.5 88h-7q-37 -43 -108 -81.5t-166 -38.5q-75 0 -126.5 22t-77.5 59.5t-26 83.5q0 78 59.5 121.5t185.5 43.5h215v50q0 35 -14 57.5t-52.5 35
t-108.5 12.5q-67 0 -134.5 -20t-115.5 -46v97q46 21 113 37.5t147 16.5q68 0 118.5 -14.5t79.5 -36.5t37 -44h5q23 36 79 65.5t131 29.5q82 0 145.5 -35.5t99 -99t35.5 -145.5v-40zM970 320q-5 41 -28.5 76.5t-63.5 57t-93 21.5q-69 0 -119 -42.5t-63 -112.5h367z
M419.5 107.5q65.5 32.5 100.5 71.5q-10 26 -13 61h-227q-68 0 -101.5 -22t-33.5 -58q0 -37 34.5 -61t105.5 -24q69 0 134.5 32.5z" />
    <glyph glyph-name="ccedilla" unicode="&#xe7;" horiz-adv-x="655" 
d="M259 450q-52 -25 -80.5 -70t-28.5 -105q0 -59 28 -104.5t79 -70.5t118 -25q69 0 127.5 19t92.5 43v-92q-30 -20 -84 -36t-118 -19l-12 -40h16q51 0 79.5 -26.5t28.5 -70.5q0 -47 -36 -75t-95 -28q-47 0 -104 16v67q51 -13 90 -13q60 0 60 32q0 28 -46 28h-71l-20 20
l28 95q-78 12 -137.5 51t-91.5 98.5t-32 130.5q0 80 41 145t116 102.5t173 37.5q74 0 136 -18.5t99 -41.5v-95q-37 27 -99 48.5t-136 21.5q-69 0 -121 -25z" />
    <glyph glyph-name="egrave" unicode="&#xe8;" horiz-adv-x="695" 
d="M205 27.5q-75 37.5 -115 102.5t-40 145q0 79 38.5 144.5t107 103t154.5 37.5t153 -36.5t104.5 -101.5t37.5 -147v-40h-500q15 -73 77 -116.5t158 -43.5q65 0 125 21.5t95 48.5v-95q-35 -23 -95 -41.5t-125 -18.5q-100 0 -175 37.5zM545 315q-9 67 -57.5 113.5
t-132.5 46.5q-85 0 -142 -44t-68 -116h400zM490 620h-10l-265 55l10 105h30l245 -100z" />
    <glyph glyph-name="eacute" unicode="&#xe9;" horiz-adv-x="695" 
d="M205 27.5q-75 37.5 -115 102.5t-40 145q0 79 38.5 144.5t107 103t154.5 37.5t153 -36.5t104.5 -101.5t37.5 -147v-40h-500q15 -73 77 -116.5t158 -43.5q65 0 125 21.5t95 48.5v-95q-35 -23 -95 -41.5t-125 -18.5q-100 0 -175 37.5zM545 315q-9 67 -57.5 113.5
t-132.5 46.5q-85 0 -142 -44t-68 -116h400zM210 620h-10l-10 60l245 100h30l10 -105z" />
    <glyph glyph-name="ecircumflex" unicode="&#xea;" horiz-adv-x="695" 
d="M205 27.5q-75 37.5 -115 102.5t-40 145q0 79 38.5 144.5t107 103t154.5 37.5t153 -36.5t104.5 -101.5t37.5 -147v-40h-500q15 -73 77 -116.5t158 -43.5q65 0 125 21.5t95 48.5v-95q-35 -23 -95 -41.5t-125 -18.5q-100 0 -175 37.5zM545 315q-9 67 -57.5 113.5
t-132.5 46.5q-85 0 -142 -44t-68 -116h400zM240 630h-120l165 140h120l165 -140h-120l-100 85h-10z" />
    <glyph glyph-name="edieresis" unicode="&#xeb;" horiz-adv-x="695" 
d="M205 27.5q-75 37.5 -115 102.5t-40 145q0 79 38.5 144.5t107 103t154.5 37.5t153 -36.5t104.5 -101.5t37.5 -147v-40h-500q15 -73 77 -116.5t158 -43.5q65 0 125 21.5t95 48.5v-95q-35 -23 -95 -41.5t-125 -18.5q-100 0 -175 37.5zM545 315q-9 67 -57.5 113.5
t-132.5 46.5q-85 0 -142 -44t-68 -116h400zM191.5 654.5q-19.5 19.5 -19.5 45.5t19.5 45.5t45.5 19.5t45.5 -19.5t19.5 -45.5t-19.5 -45.5t-45.5 -19.5t-45.5 19.5zM406.5 654.5q-19.5 19.5 -19.5 45.5t19.5 45.5t45.5 19.5t45.5 -19.5t19.5 -45.5t-19.5 -45.5t-45.5 -19.5
t-45.5 19.5z" />
    <glyph glyph-name="igrave" unicode="&#xec;" horiz-adv-x="230" 
d="M165 0h-100v550h100v-550zM210 620h-10l-265 55l10 105h30l245 -100z" />
    <glyph glyph-name="iacute" unicode="&#xed;" horiz-adv-x="230" 
d="M165 0h-100v550h100v-550zM35 620h-10l-10 60l245 100h30l10 -105z" />
    <glyph glyph-name="icircumflex" unicode="&#xee;" horiz-adv-x="230" 
d="M165 0h-100v550h100v-550zM10 630h-120l165 140h120l165 -140h-120l-100 85h-10z" />
    <glyph glyph-name="idieresis" unicode="&#xef;" horiz-adv-x="230" 
d="M165 0h-100v550h100v-550zM-38.5 654.5q-19.5 19.5 -19.5 45.5t19.5 45.5t45.5 19.5t45.5 -19.5t19.5 -45.5t-19.5 -45.5t-45.5 -19.5t-45.5 19.5zM176.5 654.5q-19.5 19.5 -19.5 45.5t19.5 45.5t45.5 19.5t45.5 -19.5t19.5 -45.5t-19.5 -45.5t-45.5 -19.5t-45.5 19.5z
" />
    <glyph glyph-name="eth" unicode="&#xf0;" horiz-adv-x="785" 
d="M405 670q163 -19 241.5 -100.5t78.5 -249.5q0 -170 -83 -250t-262 -80q-111 0 -186.5 31t-112 84t-36.5 120q0 66 35.5 119.5t105.5 84.5t169 31q105 0 174.5 -25t90.5 -55h5q0 85 -60 137t-190 68l-63 8l-17 -68l-90 10l18 69l-93 11l20 85l94 -11l16 61l90 -10l-16 -62
zM558 116q57 41 57 109q0 150 -235 150q-122 0 -178.5 -39.5t-56.5 -110.5q0 -68 57 -109t178 -41t178 41z" />
    <glyph glyph-name="ntilde" unicode="&#xf1;" horiz-adv-x="685" 
d="M65 0v550h100v-88h5q23 37 78 67.5t127 30.5q122 0 186 -59t64 -166v-335h-100v335q0 68 -41 106.5t-119 38.5q-76 0 -128.5 -35.5t-71.5 -79.5v-365h-100zM384 641q-24 11 -52 31q-20 14 -33.5 21t-28.5 7q-14 0 -22 -8t-8 -22v-35h-80v45q0 44 26.5 69.5t73.5 25.5
q32 0 56 -11t52 -31q20 -14 33.5 -21t28.5 -7q13 0 21.5 8.5t8.5 21.5v35h80v-45q0 -44 -26.5 -69.5t-73.5 -25.5q-32 0 -56 11z" />
    <glyph glyph-name="ograve" unicode="&#xf2;" horiz-adv-x="770" 
d="M207 27.5q-76 37.5 -116.5 102.5t-40.5 145t40.5 145t116.5 102.5t178 37.5t178 -37.5t116.5 -102.5t40.5 -145t-40.5 -145t-116.5 -102.5t-178 -37.5t-178 37.5zM559.5 129q60.5 54 60.5 146t-60.5 146t-174.5 54t-174.5 -54t-60.5 -146t60.5 -146t174.5 -54t174.5 54z
M530 620h-10l-265 55l10 105h30l245 -100z" />
    <glyph glyph-name="oacute" unicode="&#xf3;" horiz-adv-x="770" 
d="M207 27.5q-76 37.5 -116.5 102.5t-40.5 145t40.5 145t116.5 102.5t178 37.5t178 -37.5t116.5 -102.5t40.5 -145t-40.5 -145t-116.5 -102.5t-178 -37.5t-178 37.5zM559.5 129q60.5 54 60.5 146t-60.5 146t-174.5 54t-174.5 -54t-60.5 -146t60.5 -146t174.5 -54t174.5 54z
M250 620h-10l-10 60l245 100h30l10 -105z" />
    <glyph glyph-name="ocircumflex" unicode="&#xf4;" horiz-adv-x="770" 
d="M207 27.5q-76 37.5 -116.5 102.5t-40.5 145t40.5 145t116.5 102.5t178 37.5t178 -37.5t116.5 -102.5t40.5 -145t-40.5 -145t-116.5 -102.5t-178 -37.5t-178 37.5zM559.5 129q60.5 54 60.5 146t-60.5 146t-174.5 54t-174.5 -54t-60.5 -146t60.5 -146t174.5 -54t174.5 54z
M280 630h-120l165 140h120l165 -140h-120l-100 85h-10z" />
    <glyph glyph-name="otilde" unicode="&#xf5;" horiz-adv-x="770" 
d="M207 27.5q-76 37.5 -116.5 102.5t-40.5 145t40.5 145t116.5 102.5t178 37.5t178 -37.5t116.5 -102.5t40.5 -145t-40.5 -145t-116.5 -102.5t-178 -37.5t-178 37.5zM559.5 129q60.5 54 60.5 146t-60.5 146t-174.5 54t-174.5 -54t-60.5 -146t60.5 -146t174.5 -54t174.5 54z
M419 641q-24 11 -52 31q-20 14 -33.5 21t-28.5 7q-14 0 -22 -8t-8 -22v-35h-80v45q0 44 26.5 69.5t73.5 25.5q32 0 56 -11t52 -31q20 -14 33.5 -21t28.5 -7q13 0 21.5 8.5t8.5 21.5v35h80v-45q0 -44 -26.5 -69.5t-73.5 -25.5q-32 0 -56 11z" />
    <glyph glyph-name="odieresis" unicode="&#xf6;" horiz-adv-x="770" 
d="M207 27.5q-76 37.5 -116.5 102.5t-40.5 145t40.5 145t116.5 102.5t178 37.5t178 -37.5t116.5 -102.5t40.5 -145t-40.5 -145t-116.5 -102.5t-178 -37.5t-178 37.5zM559.5 129q60.5 54 60.5 146t-60.5 146t-174.5 54t-174.5 -54t-60.5 -146t60.5 -146t174.5 -54t174.5 54z
M231.5 654.5q-19.5 19.5 -19.5 45.5t19.5 45.5t45.5 19.5t45.5 -19.5t19.5 -45.5t-19.5 -45.5t-45.5 -19.5t-45.5 19.5zM446.5 654.5q-19.5 19.5 -19.5 45.5t19.5 45.5t45.5 19.5t45.5 -19.5t19.5 -45.5t-19.5 -45.5t-45.5 -19.5t-45.5 19.5z" />
    <glyph glyph-name="divide" unicode="&#xf7;" horiz-adv-x="610" 
d="M255 459q-20 19 -20 46t20 46t50 19t50 -19t20 -46t-20 -46t-50 -19t-50 19zM550 260h-490v90h490v-90zM255 59q-20 19 -20 46t20 46t50 19t50 -19t20 -46t-20 -46t-50 -19t-50 19z" />
    <glyph glyph-name="oslash" unicode="&#xf8;" horiz-adv-x="770" 
d="M628 480q45 -38 68.5 -90.5t23.5 -114.5q0 -80 -40.5 -145t-116.5 -102.5t-178 -37.5q-106 0 -189 43l-31 -33h-90l67 70q-45 38 -68.5 90.5t-23.5 114.5q0 80 40.5 145t116.5 102.5t178 37.5q106 0 189 -43l31 33h90zM205 134l305 318q-52 23 -125 23q-114 0 -174.5 -54
t-60.5 -146q0 -89 55 -141zM559.5 129q60.5 54 60.5 146q0 89 -55 141l-305 -318q52 -23 125 -23q114 0 174.5 54z" />
    <glyph glyph-name="ugrave" unicode="&#xf9;" horiz-adv-x="685" 
d="M124 49q-64 59 -64 166v335h100v-335q0 -68 41 -106.5t119 -38.5q76 0 128.5 35.5t71.5 79.5v365h100v-550h-100v88h-5q-23 -37 -78 -67.5t-127 -30.5q-122 0 -186 59zM470 620h-10l-265 55l10 105h30l245 -100z" />
    <glyph glyph-name="uacute" unicode="&#xfa;" horiz-adv-x="685" 
d="M124 49q-64 59 -64 166v335h100v-335q0 -68 41 -106.5t119 -38.5q76 0 128.5 35.5t71.5 79.5v365h100v-550h-100v88h-5q-23 -37 -78 -67.5t-127 -30.5q-122 0 -186 59zM220 620h-10l-10 60l245 100h30l10 -105z" />
    <glyph glyph-name="ucircumflex" unicode="&#xfb;" horiz-adv-x="685" 
d="M124 49q-64 59 -64 166v335h100v-335q0 -68 41 -106.5t119 -38.5q76 0 128.5 35.5t71.5 79.5v365h100v-550h-100v88h-5q-23 -37 -78 -67.5t-127 -30.5q-122 0 -186 59zM235 630h-120l165 140h120l165 -140h-120l-100 85h-10z" />
    <glyph glyph-name="udieresis" unicode="&#xfc;" horiz-adv-x="685" 
d="M124 49q-64 59 -64 166v335h100v-335q0 -68 41 -106.5t119 -38.5q76 0 128.5 35.5t71.5 79.5v365h100v-550h-100v88h-5q-23 -37 -78 -67.5t-127 -30.5q-122 0 -186 59zM186.5 654.5q-19.5 19.5 -19.5 45.5t19.5 45.5t45.5 19.5t45.5 -19.5t19.5 -45.5t-19.5 -45.5
t-45.5 -19.5t-45.5 19.5zM401.5 654.5q-19.5 19.5 -19.5 45.5t19.5 45.5t45.5 19.5t45.5 -19.5t19.5 -45.5t-19.5 -45.5t-45.5 -19.5t-45.5 19.5z" />
    <glyph glyph-name="yacute" unicode="&#xfd;" horiz-adv-x="610" 
d="M255 -190h-101l116 240l-275 500h117l205 -390h5l188 390h105zM194 620h-10l-10 60l245 100h30l10 -105z" />
    <glyph glyph-name="thorn" unicode="&#xfe;" horiz-adv-x="745" 
d="M65 -190v910h100v-250h5q26 34 84 62t131 28q91 0 161.5 -37.5t109.5 -102.5t39 -145t-39 -144.5t-109.5 -102t-161.5 -37.5q-72 0 -130 27.5t-85 61.5h-5v-270h-100zM539.5 132.5q55.5 52.5 55.5 142.5q0 88 -58.5 141.5t-161.5 53.5q-77 0 -133 -31t-77 -69v-190
q21 -38 77 -69t133 -31q109 0 164.5 52.5z" />
    <glyph glyph-name="ydieresis" unicode="&#xff;" horiz-adv-x="610" 
d="M255 -190h-101l116 240l-275 500h117l205 -390h5l188 390h105zM150.5 654.5q-19.5 19.5 -19.5 45.5t19.5 45.5t45.5 19.5t45.5 -19.5t19.5 -45.5t-19.5 -45.5t-45.5 -19.5t-45.5 19.5zM365.5 654.5q-19.5 19.5 -19.5 45.5t19.5 45.5t45.5 19.5t45.5 -19.5t19.5 -45.5
t-19.5 -45.5t-45.5 -19.5t-45.5 19.5z" />
    <glyph glyph-name="Amacron" unicode="&#x100;" horiz-adv-x="840" 
d="M840 0h-105l-92 180h-446l-92 -180h-105l360 700h120zM417 610l-171 -335h348l-171 335h-6zM610 805h-380v85h380v-85z" />
    <glyph glyph-name="amacron" unicode="&#x101;" horiz-adv-x="680" 
d="M100 35.5q-55 45.5 -55 119.5q0 80 64.5 127.5t199.5 47.5q93 0 138 6.5t59 19t14 34.5q0 85 -185 85q-72 0 -142 -21.5t-113 -48.5v95q36 23 105.5 41.5t154.5 18.5q151 0 215.5 -46t64.5 -134v-380h-100v86q-32 -36 -102 -66t-158 -30q-105 0 -160 45.5zM432.5 103
q62.5 28 87.5 63v123q-10 -13 -65 -23.5t-150 -10.5q-160 0 -160 -95q0 -37 34.5 -61t105.5 -24q85 0 147.5 28zM525 655h-380v85h380v-85z" />
    <glyph glyph-name="Abreve" unicode="&#x102;" horiz-adv-x="840" 
d="M840 0h-105l-92 180h-446l-92 -180h-105l360 700h120zM417 610l-171 -335h348l-171 335h-6zM282.5 818.5q-47.5 38.5 -47.5 101.5h90q0 -32 22.5 -48.5t72.5 -16.5t72.5 16.5t22.5 48.5h90q0 -63 -47.5 -101.5t-137.5 -38.5t-137.5 38.5z" />
    <glyph glyph-name="abreve" unicode="&#x103;" horiz-adv-x="680" 
d="M100 35.5q-55 45.5 -55 119.5q0 80 64.5 127.5t199.5 47.5q93 0 138 6.5t59 19t14 34.5q0 85 -185 85q-72 0 -142 -21.5t-113 -48.5v95q36 23 105.5 41.5t154.5 18.5q151 0 215.5 -46t64.5 -134v-380h-100v86q-32 -36 -102 -66t-158 -30q-105 0 -160 45.5zM432.5 103
q62.5 28 87.5 63v123q-10 -13 -65 -23.5t-150 -10.5q-160 0 -160 -95q0 -37 34.5 -61t105.5 -24q85 0 147.5 28zM197.5 668.5q-47.5 38.5 -47.5 101.5h90q0 -32 22.5 -48.5t72.5 -16.5t72.5 16.5t22.5 48.5h90q0 -63 -47.5 -101.5t-137.5 -38.5t-137.5 38.5z" />
    <glyph glyph-name="Aogonek" unicode="&#x104;" horiz-adv-x="840" 
d="M736 -136q13 -9 36 -9q34 0 68 7v-73q-45 -9 -89 -9q-66 0 -98.5 24.5t-32.5 68.5q0 39 34.5 73t80.5 55l-92 179h-446l-92 -180h-105l360 700h120l360 -700q-47 -24 -82 -53.5t-35 -57.5q0 -16 13 -25zM417 610l-171 -335h348l-171 335h-6z" />
    <glyph glyph-name="aogonek" unicode="&#x105;" horiz-adv-x="680" 
d="M620 0q-47 -24 -82 -53.5t-35 -57.5q0 -16 13 -25t36 -9q34 0 68 7v-73q-45 -9 -90 -9q-66 0 -98 22.5t-32 64.5q0 37 35 74.5t85 63.5v81q-32 -36 -102 -66t-158 -30q-105 0 -160 45.5t-55 119.5q0 80 64.5 127.5t199.5 47.5q93 0 138 6.5t59 19t14 34.5q0 85 -185 85
q-72 0 -142 -21.5t-113 -48.5v95q36 23 105.5 41.5t154.5 18.5q151 0 215.5 -46t64.5 -134v-380zM432.5 103q62.5 28 87.5 63v123q-10 -13 -65 -23.5t-150 -10.5q-160 0 -160 -95q0 -37 34.5 -61t105.5 -24q85 0 147.5 28z" />
    <glyph glyph-name="Cacute" unicode="&#x106;" horiz-adv-x="865" 
d="M267 36.5q-96 46.5 -146.5 128.5t-50.5 185q0 104 51.5 185.5t152 128t241.5 46.5q88 0 165.5 -23t119.5 -52v-105q-40 34 -117.5 62t-167.5 28q-107 0 -183.5 -35.5t-116.5 -97t-40 -137.5q0 -75 38.5 -137t111.5 -97.5t170 -35.5q84 0 158.5 21.5t116.5 47.5v-102
q-41 -22 -116 -39.5t-159 -17.5q-132 0 -228 46.5zM340 770h-10l-10 60l245 100h30l10 -105z" />
    <glyph glyph-name="cacute" unicode="&#x107;" horiz-adv-x="655" 
d="M206 27.5q-74 37.5 -115 102.5t-41 145t41 145t116 102.5t173 37.5q74 0 136 -18.5t99 -41.5v-95q-37 27 -99 48.5t-136 21.5q-69 0 -121 -25t-80.5 -70t-28.5 -105q0 -59 28 -104.5t79 -70.5t118 -25q69 0 127.5 19t92.5 43v-92q-33 -21 -92 -38t-128 -17
q-95 0 -169 37.5zM220 620h-10l-10 60l245 100h30l10 -105z" />
    <glyph glyph-name="Ccircumflex" unicode="&#x108;" horiz-adv-x="865" 
d="M267 36.5q-96 46.5 -146.5 128.5t-50.5 185q0 104 51.5 185.5t152 128t241.5 46.5q88 0 165.5 -23t119.5 -52v-105q-40 34 -117.5 62t-167.5 28q-107 0 -183.5 -35.5t-116.5 -97t-40 -137.5q0 -75 38.5 -137t111.5 -97.5t170 -35.5q84 0 158.5 21.5t116.5 47.5v-102
q-41 -22 -116 -39.5t-159 -17.5q-132 0 -228 46.5zM370 780h-120l165 140h120l165 -140h-120l-100 85h-10z" />
    <glyph glyph-name="ccircumflex" unicode="&#x109;" horiz-adv-x="655" 
d="M206 27.5q-74 37.5 -115 102.5t-41 145t41 145t116 102.5t173 37.5q74 0 136 -18.5t99 -41.5v-95q-37 27 -99 48.5t-136 21.5q-69 0 -121 -25t-80.5 -70t-28.5 -105q0 -59 28 -104.5t79 -70.5t118 -25q69 0 127.5 19t92.5 43v-92q-33 -21 -92 -38t-128 -17
q-95 0 -169 37.5zM250 630h-120l165 140h120l165 -140h-120l-100 85h-10z" />
    <glyph glyph-name="Cdotaccent" unicode="&#x10a;" horiz-adv-x="865" 
d="M267 36.5q-96 46.5 -146.5 128.5t-50.5 185q0 104 51.5 185.5t152 128t241.5 46.5q88 0 165.5 -23t119.5 -52v-105q-40 34 -117.5 62t-167.5 28q-107 0 -183.5 -35.5t-116.5 -97t-40 -137.5q0 -75 38.5 -137t111.5 -97.5t170 -35.5q84 0 158.5 21.5t116.5 47.5v-102
q-41 -22 -116 -39.5t-159 -17.5q-132 0 -228 46.5zM429.5 804.5q-19.5 19.5 -19.5 45.5t19.5 45.5t45.5 19.5t45.5 -19.5t19.5 -45.5t-19.5 -45.5t-45.5 -19.5t-45.5 19.5z" />
    <glyph glyph-name="cdotaccent" unicode="&#x10b;" horiz-adv-x="655" 
d="M206 27.5q-74 37.5 -115 102.5t-41 145t41 145t116 102.5t173 37.5q74 0 136 -18.5t99 -41.5v-95q-37 27 -99 48.5t-136 21.5q-69 0 -121 -25t-80.5 -70t-28.5 -105q0 -59 28 -104.5t79 -70.5t118 -25q69 0 127.5 19t92.5 43v-92q-33 -21 -92 -38t-128 -17
q-95 0 -169 37.5zM309.5 654.5q-19.5 19.5 -19.5 45.5t19.5 45.5t45.5 19.5t45.5 -19.5t19.5 -45.5t-19.5 -45.5t-45.5 -19.5t-45.5 19.5z" />
    <glyph glyph-name="Ccaron" unicode="&#x10c;" horiz-adv-x="865" 
d="M267 36.5q-96 46.5 -146.5 128.5t-50.5 185q0 104 51.5 185.5t152 128t241.5 46.5q88 0 165.5 -23t119.5 -52v-105q-40 34 -117.5 62t-167.5 28q-107 0 -183.5 -35.5t-116.5 -97t-40 -137.5q0 -75 38.5 -137t111.5 -97.5t170 -35.5q84 0 158.5 21.5t116.5 47.5v-102
q-41 -22 -116 -39.5t-159 -17.5q-132 0 -228 46.5zM535 780h-120l-165 140h120l100 -85h10l100 85h120z" />
    <glyph glyph-name="ccaron" unicode="&#x10d;" horiz-adv-x="655" 
d="M206 27.5q-74 37.5 -115 102.5t-41 145t41 145t116 102.5t173 37.5q74 0 136 -18.5t99 -41.5v-95q-37 27 -99 48.5t-136 21.5q-69 0 -121 -25t-80.5 -70t-28.5 -105q0 -59 28 -104.5t79 -70.5t118 -25q69 0 127.5 19t92.5 43v-92q-33 -21 -92 -38t-128 -17
q-95 0 -169 37.5zM415 630h-120l-165 140h120l100 -85h10l100 85h120z" />
    <glyph glyph-name="Dcaron" unicode="&#x10e;" horiz-adv-x="905" 
d="M85 0v700h305q146 0 246 -44t149.5 -123t49.5 -183t-49.5 -183t-149.5 -123t-246 -44h-305zM390 95q170 0 255 68.5t85 186.5t-85 186.5t-255 68.5h-205v-510h205zM500 780h-120l-165 140h120l100 -85h10l100 85h120z" />
    <glyph glyph-name="dcaron" unicode="&#x10f;" horiz-adv-x="805" 
d="M730.5 714q15.5 16 40.5 16q28 0 46 -21t18 -69q0 -65 -31.5 -102.5t-78.5 -37.5h-5v80h10q33 0 49 13.5t16 36.5h-5q-3 -4 -10 -7t-16 -3q-21 0 -35 14.5t-14 38.5q0 25 15.5 41zM200.5 27.5q-71.5 37.5 -111 102.5t-39.5 145t39.5 145t111 102.5t164.5 37.5
q70 0 128 -25t87 -55h5v240h100v-5v-42v-673h-100v70h-5q-29 -30 -87 -55t-128 -25q-93 0 -164.5 37.5zM506.5 101q53.5 26 78.5 59v230q-25 33 -78.5 59t-121.5 26q-73 0 -126 -25.5t-81 -71t-28 -103.5t28 -103.5t81 -71t126 -25.5q68 0 121.5 26z" />
    <glyph glyph-name="Dcroat" unicode="&#x110;" horiz-adv-x="920" 
d="M405 700q146 0 246 -44t149.5 -123t49.5 -183t-49.5 -183t-149.5 -123t-246 -44h-305v290h-70v95h70v315h305zM405 90q112 0 188.5 33t114 91.5t37.5 135.5t-37.5 135.5t-114 91.5t-188.5 33h-205v-225h260v-95h-260v-200h205z" />
    <glyph glyph-name="dcroat" unicode="&#x111;" horiz-adv-x="775" 
d="M775 605v-90h-105v-515h-95v75h-5q-32 -32 -97.5 -58.5t-142.5 -26.5q-94 0 -161 29.5t-100.5 80.5t-33.5 115q0 61 35 112.5t103 82t163 30.5q77 0 140.5 -20t93.5 -45h5v140h-220v90h220v115h95v-115h105zM575 295q-35 23 -98.5 41.5t-136.5 18.5q-104 0 -154.5 -38
t-50.5 -102t50.5 -102t154.5 -38q72 0 136 24.5t99 55.5v140z" />
    <glyph glyph-name="Emacron" unicode="&#x112;" 
d="M185 305v-210h500v-95h-600v700h580v-95h-480v-205h440v-95h-440zM565 805h-380v85h380v-85z" />
    <glyph glyph-name="emacron" unicode="&#x113;" horiz-adv-x="695" 
d="M205 27.5q-75 37.5 -115 102.5t-40 145q0 79 38.5 144.5t107 103t154.5 37.5t153 -36.5t104.5 -101.5t37.5 -147v-40h-500q15 -73 77 -116.5t158 -43.5q65 0 125 21.5t95 48.5v-95q-35 -23 -95 -41.5t-125 -18.5q-100 0 -175 37.5zM545 315q-9 67 -57.5 113.5
t-132.5 46.5q-85 0 -142 -44t-68 -116h400zM535 655h-380v85h380v-85z" />
    <glyph glyph-name="Ebreve" unicode="&#x114;" 
d="M185 305v-210h500v-95h-600v700h580v-95h-480v-205h440v-95h-440zM237.5 818.5q-47.5 38.5 -47.5 101.5h90q0 -32 22.5 -48.5t72.5 -16.5t72.5 16.5t22.5 48.5h90q0 -63 -47.5 -101.5t-137.5 -38.5t-137.5 38.5z" />
    <glyph glyph-name="ebreve" unicode="&#x115;" horiz-adv-x="695" 
d="M205 27.5q-75 37.5 -115 102.5t-40 145q0 79 38.5 144.5t107 103t154.5 37.5t153 -36.5t104.5 -101.5t37.5 -147v-40h-500q15 -73 77 -116.5t158 -43.5q65 0 125 21.5t95 48.5v-95q-35 -23 -95 -41.5t-125 -18.5q-100 0 -175 37.5zM545 315q-9 67 -57.5 113.5
t-132.5 46.5q-85 0 -142 -44t-68 -116h400zM207.5 668.5q-47.5 38.5 -47.5 101.5h90q0 -32 22.5 -48.5t72.5 -16.5t72.5 16.5t22.5 48.5h90q0 -63 -47.5 -101.5t-137.5 -38.5t-137.5 38.5z" />
    <glyph glyph-name="Edotaccent" unicode="&#x116;" 
d="M185 305v-210h500v-95h-600v700h580v-95h-480v-205h440v-95h-440zM329.5 804.5q-19.5 19.5 -19.5 45.5t19.5 45.5t45.5 19.5t45.5 -19.5t19.5 -45.5t-19.5 -45.5t-45.5 -19.5t-45.5 19.5z" />
    <glyph glyph-name="edotaccent" unicode="&#x117;" horiz-adv-x="695" 
d="M205 27.5q-75 37.5 -115 102.5t-40 145q0 79 38.5 144.5t107 103t154.5 37.5t153 -36.5t104.5 -101.5t37.5 -147v-40h-500q15 -73 77 -116.5t158 -43.5q65 0 125 21.5t95 48.5v-95q-35 -23 -95 -41.5t-125 -18.5q-100 0 -175 37.5zM545 315q-9 67 -57.5 113.5
t-132.5 46.5q-85 0 -142 -44t-68 -116h400zM299.5 654.5q-19.5 19.5 -19.5 45.5t19.5 45.5t45.5 19.5t45.5 -19.5t19.5 -45.5t-19.5 -45.5t-45.5 -19.5t-45.5 19.5z" />
    <glyph glyph-name="Eogonek" unicode="&#x118;" 
d="M685 0q-47 -24 -82 -53.5t-35 -57.5q0 -16 12.5 -25t36.5 -9q34 0 68 7v-73q-45 -9 -90 -9q-66 0 -98 22.5t-32 64.5q0 66 105 127v6h-485v700h580v-95h-480v-205h440v-95h-440v-210h500v-95z" />
    <glyph glyph-name="eogonek" unicode="&#x119;" horiz-adv-x="695" 
d="M282 -197.5q-32 22.5 -32 64.5q0 31 25 62.5t66 55.5v7q-89 7 -155 45.5t-101 100.5t-35 137q0 79 38.5 144.5t107 103t154.5 37.5t153 -36.5t104.5 -101.5t37.5 -147v-40h-500q15 -73 77 -116.5t158 -43.5q65 0 125 21.5t95 48.5v-95q-47 -30 -146 -55
q-42 -10 -71.5 -42t-29.5 -64q0 -16 13 -25t36 -9q34 0 68 7v-73q-45 -9 -90 -9q-66 0 -98 22.5zM545 315q-9 67 -57.5 113.5t-132.5 46.5q-85 0 -142 -44t-68 -116h400z" />
    <glyph glyph-name="Ecaron" unicode="&#x11a;" 
d="M185 305v-210h500v-95h-600v700h580v-95h-480v-205h440v-95h-440zM435 780h-120l-165 140h120l100 -85h10l100 85h120z" />
    <glyph glyph-name="ecaron" unicode="&#x11b;" horiz-adv-x="695" 
d="M205 27.5q-75 37.5 -115 102.5t-40 145q0 79 38.5 144.5t107 103t154.5 37.5t153 -36.5t104.5 -101.5t37.5 -147v-40h-500q15 -73 77 -116.5t158 -43.5q65 0 125 21.5t95 48.5v-95q-35 -23 -95 -41.5t-125 -18.5q-100 0 -175 37.5zM545 315q-9 67 -57.5 113.5
t-132.5 46.5q-85 0 -142 -44t-68 -116h400zM405 630h-120l-165 140h120l100 -85h10l100 85h120z" />
    <glyph glyph-name="Gcircumflex" unicode="&#x11c;" horiz-adv-x="925" 
d="M273.5 36.5q-100.5 46.5 -152 128t-51.5 185.5t52.5 185.5t156 128t251.5 46.5q100 0 186 -22.5t139 -51.5v-102q-47 33 -135.5 59.5t-189.5 26.5q-114 0 -194 -35.5t-120.5 -96.5t-40.5 -138q0 -76 40 -137.5t116.5 -97t183.5 -35.5q60 0 125.5 17.5t109.5 38.5v114
h-300v95h400v-265q-59 -34 -152 -62t-183 -28q-141 0 -241.5 46.5zM380 780h-120l165 140h120l165 -140h-120l-100 85h-10z" />
    <glyph glyph-name="gcircumflex" unicode="&#x11d;" horiz-adv-x="745" 
d="M216.5 -181.5q-65.5 18.5 -101.5 41.5v95q37 -27 102.5 -48.5t137.5 -21.5q113 0 169 50.5t56 139.5v15h-5q-29 -30 -88.5 -55t-131.5 -25q-90 0 -159.5 36t-107.5 99t-38 140t38 140t107.5 99t159.5 36q72 0 131.5 -25t88.5 -55h5v70h100v-475q0 -81 -38 -143t-111 -97
t-176 -35q-73 0 -138.5 18.5zM497 121q57 26 83 59v210q-26 33 -83 59t-127 26q-108 0 -164 -49.5t-56 -140.5t56 -140.5t164 -49.5q70 0 127 26zM255 630h-120l165 140h120l165 -140h-120l-100 85h-10z" />
    <glyph glyph-name="Gbreve" unicode="&#x11e;" horiz-adv-x="925" 
d="M273.5 36.5q-100.5 46.5 -152 128t-51.5 185.5t52.5 185.5t156 128t251.5 46.5q100 0 186 -22.5t139 -51.5v-102q-47 33 -135.5 59.5t-189.5 26.5q-114 0 -194 -35.5t-120.5 -96.5t-40.5 -138q0 -76 40 -137.5t116.5 -97t183.5 -35.5q60 0 125.5 17.5t109.5 38.5v114
h-300v95h400v-265q-59 -34 -152 -62t-183 -28q-141 0 -241.5 46.5zM347.5 818.5q-47.5 38.5 -47.5 101.5h90q0 -32 22.5 -48.5t72.5 -16.5t72.5 16.5t22.5 48.5h90q0 -63 -47.5 -101.5t-137.5 -38.5t-137.5 38.5z" />
    <glyph glyph-name="gbreve" unicode="&#x11f;" horiz-adv-x="745" 
d="M216.5 -181.5q-65.5 18.5 -101.5 41.5v95q37 -27 102.5 -48.5t137.5 -21.5q113 0 169 50.5t56 139.5v15h-5q-29 -30 -88.5 -55t-131.5 -25q-90 0 -159.5 36t-107.5 99t-38 140t38 140t107.5 99t159.5 36q72 0 131.5 -25t88.5 -55h5v70h100v-475q0 -81 -38 -143t-111 -97
t-176 -35q-73 0 -138.5 18.5zM497 121q57 26 83 59v210q-26 33 -83 59t-127 26q-108 0 -164 -49.5t-56 -140.5t56 -140.5t164 -49.5q70 0 127 26zM222.5 668.5q-47.5 38.5 -47.5 101.5h90q0 -32 22.5 -48.5t72.5 -16.5t72.5 16.5t22.5 48.5h90q0 -63 -47.5 -101.5
t-137.5 -38.5t-137.5 38.5z" />
    <glyph glyph-name="Gdotaccent" unicode="&#x120;" horiz-adv-x="925" 
d="M273.5 36.5q-100.5 46.5 -152 128t-51.5 185.5t52.5 185.5t156 128t251.5 46.5q100 0 186 -22.5t139 -51.5v-102q-47 33 -135.5 59.5t-189.5 26.5q-114 0 -194 -35.5t-120.5 -96.5t-40.5 -138q0 -76 40 -137.5t116.5 -97t183.5 -35.5q60 0 125.5 17.5t109.5 38.5v114
h-300v95h400v-265q-59 -34 -152 -62t-183 -28q-141 0 -241.5 46.5zM439.5 804.5q-19.5 19.5 -19.5 45.5t19.5 45.5t45.5 19.5t45.5 -19.5t19.5 -45.5t-19.5 -45.5t-45.5 -19.5t-45.5 19.5z" />
    <glyph glyph-name="gdotaccent" unicode="&#x121;" horiz-adv-x="745" 
d="M216.5 -181.5q-65.5 18.5 -101.5 41.5v95q37 -27 102.5 -48.5t137.5 -21.5q113 0 169 50.5t56 139.5v15h-5q-29 -30 -88.5 -55t-131.5 -25q-90 0 -159.5 36t-107.5 99t-38 140t38 140t107.5 99t159.5 36q72 0 131.5 -25t88.5 -55h5v70h100v-475q0 -81 -38 -143t-111 -97
t-176 -35q-73 0 -138.5 18.5zM497 121q57 26 83 59v210q-26 33 -83 59t-127 26q-108 0 -164 -49.5t-56 -140.5t56 -140.5t164 -49.5q70 0 127 26zM314.5 654.5q-19.5 19.5 -19.5 45.5t19.5 45.5t45.5 19.5t45.5 -19.5t19.5 -45.5t-19.5 -45.5t-45.5 -19.5t-45.5 19.5z" />
    <glyph glyph-name="uni0122" unicode="&#x122;" horiz-adv-x="925" 
d="M273.5 36.5q-100.5 46.5 -152 128t-51.5 185.5t52.5 185.5t156 128t251.5 46.5q100 0 186 -22.5t139 -51.5v-102q-47 33 -135.5 59.5t-189.5 26.5q-114 0 -194 -35.5t-120.5 -96.5t-40.5 -138q0 -76 40 -137.5t116.5 -97t183.5 -35.5q60 0 125.5 17.5t109.5 38.5v114
h-300v95h400v-265q-59 -34 -152 -62t-183 -28q-141 0 -241.5 46.5zM435 -305v80h10q33 0 49 13.5t16 36.5h-5q-8 -10 -26 -10q-21 0 -35 14.5t-14 38.5q0 25 15.5 41t40.5 16q28 0 46 -21t18 -69q0 -65 -31.5 -102.5t-78.5 -37.5h-5z" />
    <glyph glyph-name="uni0123" unicode="&#x123;" horiz-adv-x="745" 
d="M404.5 626q-15.5 -16 -40.5 -16q-28 0 -46 21t-18 69q0 65 31.5 102.5t78.5 37.5h5v-80h-10q-33 0 -49 -13.5t-16 -36.5h5q3 4 10 7t16 3q21 0 35 -14.5t14 -38.5q0 -25 -15.5 -41zM216.5 -181.5q-65.5 18.5 -101.5 41.5v95q37 -27 102.5 -48.5t137.5 -21.5
q113 0 169 50.5t56 139.5v15h-5q-29 -30 -88.5 -55t-131.5 -25q-90 0 -159.5 36t-107.5 99t-38 140t38 140t107.5 99t159.5 36q72 0 131.5 -25t88.5 -55h5v70h100v-475q0 -81 -38 -143t-111 -97t-176 -35q-73 0 -138.5 18.5zM497 121q57 26 83 59v210q-26 33 -83 59t-127 26
q-108 0 -164 -49.5t-56 -140.5t56 -140.5t164 -49.5q70 0 127 26z" />
    <glyph glyph-name="Hcircumflex" unicode="&#x124;" horiz-adv-x="850" 
d="M665 400v300h100v-700h-100v305h-480v-305h-100v700h100v-300h480zM320 780h-120l165 140h120l165 -140h-120l-100 85h-10z" />
    <glyph glyph-name="hcircumflex" unicode="&#x125;" horiz-adv-x="685" 
d="M65 0v720h100v-258h5q23 37 78 67.5t127 30.5q122 0 186 -59t64 -166v-335h-100v335q0 68 -41 106.5t-119 38.5q-76 0 -128.5 -35.5t-71.5 -79.5v-365h-100zM10 780h-120l165 140h120l165 -140h-120l-100 85h-10z" />
    <glyph glyph-name="Hbar" unicode="&#x126;" horiz-adv-x="880" 
d="M775 590h100v-85h-100v-505h-100v305h-470v-305h-100v505h-100v85h100v110h100v-110h470v110h100v-110zM205 400h470v105h-470v-105z" />
    <glyph glyph-name="hbar" unicode="&#x127;" horiz-adv-x="710" 
d="M586 501q64 -59 64 -166v-335h-100v335q0 68 -41 106.5t-119 38.5q-76 0 -128.5 -35.5t-71.5 -79.5v-365h-100v595h-90v75h90v50h100v-50h180v-75h-180v-133h5q23 37 78 67.5t127 30.5q122 0 186 -59z" />
    <glyph glyph-name="Itilde" unicode="&#x128;" 
d="M700 700v-95h-280v-510h280v-95h-660v95h280v510h-280v95h660zM404 791q-24 11 -52 31q-20 14 -33.5 21t-28.5 7q-14 0 -22 -8t-8 -22v-35h-80v45q0 44 26.5 69.5t73.5 25.5q32 0 56 -11t52 -31q20 -14 33.5 -21t28.5 -7q13 0 21.5 8.5t8.5 21.5v35h80v-45
q0 -44 -26.5 -69.5t-73.5 -25.5q-32 0 -56 11z" />
    <glyph glyph-name="itilde" unicode="&#x129;" horiz-adv-x="230" 
d="M165 0h-100v550h100v-550zM149 641q-24 11 -52 31q-20 14 -33.5 21t-28.5 7q-14 0 -22 -8t-8 -22v-35h-80v45q0 44 26.5 69.5t73.5 25.5q32 0 56 -11t52 -31q20 -14 33.5 -21t28.5 -7q13 0 21.5 8.5t8.5 21.5v35h80v-45q0 -44 -26.5 -69.5t-73.5 -25.5q-32 0 -56 11z" />
    <glyph glyph-name="Imacron" unicode="&#x12a;" 
d="M700 700v-95h-280v-510h280v-95h-660v95h280v510h-280v95h660zM560 805h-380v85h380v-85z" />
    <glyph glyph-name="imacron" unicode="&#x12b;" horiz-adv-x="230" 
d="M165 0h-100v550h100v-550zM305 655h-380v85h380v-85z" />
    <glyph glyph-name="Ibreve" unicode="&#x12c;" 
d="M700 700v-95h-280v-510h280v-95h-660v95h280v510h-280v95h660zM232.5 818.5q-47.5 38.5 -47.5 101.5h90q0 -32 22.5 -48.5t72.5 -16.5t72.5 16.5t22.5 48.5h90q0 -63 -47.5 -101.5t-137.5 -38.5t-137.5 38.5z" />
    <glyph glyph-name="ibreve" unicode="&#x12d;" horiz-adv-x="230" 
d="M165 0h-100v550h100v-550zM-22.5 668.5q-47.5 38.5 -47.5 101.5h90q0 -32 22.5 -48.5t72.5 -16.5t72.5 16.5t22.5 48.5h90q0 -63 -47.5 -101.5t-137.5 -38.5t-137.5 38.5z" />
    <glyph glyph-name="Iogonek" unicode="&#x12e;" 
d="M700 605h-280v-510h280v-95h-265q-47 -24 -82 -53.5t-35 -57.5q0 -16 12.5 -25t36.5 -9q34 0 68 7v-73q-45 -9 -90 -9q-66 0 -98 22.5t-32 64.5q0 66 105 127v6h-280v95h280v510h-280v95h660v-95z" />
    <glyph glyph-name="iogonek" unicode="&#x12f;" horiz-adv-x="230" 
d="M167 695.5q18 -14.5 18 -40.5t-18 -40.5t-52 -14.5t-52 14.5t-18 40.5t18 40.5t52 14.5t52 -14.5zM160 550h5v-550q-48 -23 -81.5 -52.5t-33.5 -59.5q0 -16 10.5 -24.5t34.5 -8.5h70v-75h-115q-51 0 -78 23t-27 62q0 46 39 82t81 58v545h5h45h45z" />
    <glyph glyph-name="Idotaccent" unicode="&#x130;" 
d="M700 700v-95h-280v-510h280v-95h-660v95h280v510h-280v95h660zM324.5 804.5q-19.5 19.5 -19.5 45.5t19.5 45.5t45.5 19.5t45.5 -19.5t19.5 -45.5t-19.5 -45.5t-45.5 -19.5t-45.5 19.5z" />
    <glyph glyph-name="dotlessi" unicode="&#x131;" horiz-adv-x="230" 
d="M165 0h-100v550h100v-550z" />
    <glyph glyph-name="IJ" unicode="&#x132;" horiz-adv-x="1300" 
d="M700 700v-95h-280v-510h280v-95h-660v95h280v510h-280v95h660zM755 20v96q92 -31 172 -31q88 0 138 44.5t50 132.5v438h100v-443q0 -129 -75.5 -198t-212.5 -69q-83 0 -172 30z" />
    <glyph glyph-name="ij" unicode="&#x133;" horiz-adv-x="460" 
d="M63 614.5q-18 14.5 -18 40.5t18 40.5t52 14.5t52 -14.5t18 -40.5t-18 -40.5t-52 -14.5t-52 14.5zM293 614.5q-18 14.5 -18 40.5t18 40.5t52 14.5t52 -14.5t18 -40.5t-18 -40.5t-52 -14.5t-52 14.5zM65 0v550h5h45h45h5v-550h-100zM135 -187v86q35 -9 71 -9q40 0 64.5 27
t24.5 73v560h5h45h45h5v-558q0 -93 -44 -142.5t-129 -49.5q-47 0 -87 13z" />
    <glyph glyph-name="Jcircumflex" unicode="&#x134;" horiz-adv-x="560" 
d="M15 20v96q92 -31 172 -31q88 0 138 44.5t50 132.5v438h100v-443q0 -129 -75.5 -198t-212.5 -69q-83 0 -172 30zM320 780h-120l165 140h120l165 -140h-120l-100 85h-10z" />
    <glyph glyph-name="jcircumflex" unicode="&#x135;" horiz-adv-x="230" 
d="M-95 -185v90q40 -15 74 -15q41 0 63.5 26.5t22.5 73.5v560h100v-558q0 -93 -44 -142.5t-129 -49.5q-45 0 -87 15zM10 630h-120l165 140h120l165 -140h-120l-100 85h-10z" />
    <glyph glyph-name="uni0136" unicode="&#x136;" horiz-adv-x="755" 
d="M185 0h-100v700h100v-316l440 316h150l-460 -330v-5l430 -365h-148l-412 350v-350zM340 -305v80h10q33 0 49 13.5t16 36.5h-5q-8 -10 -26 -10q-21 0 -35 14.5t-14 38.5q0 25 15.5 41t40.5 16q28 0 46 -21t18 -69q0 -65 -31.5 -102.5t-78.5 -37.5h-5z" />
    <glyph glyph-name="uni0137" unicode="&#x137;" horiz-adv-x="615" 
d="M165 0h-100v720h100v-405l315 235h145l-350 -250l350 -300h-145l-315 280v-280zM265 -305v80h10q33 0 49 13.5t16 36.5h-5q-8 -10 -26 -10q-21 0 -35 14.5t-14 38.5q0 25 15.5 41t40.5 16q28 0 46 -21t18 -69q0 -65 -31.5 -102.5t-78.5 -37.5h-5z" />
    <glyph glyph-name="Lacute" unicode="&#x139;" horiz-adv-x="695" 
d="M675 0h-590v700h100v-605h490v-95zM55 770h-10l-10 60l245 100h30l10 -105z" />
    <glyph glyph-name="lacute" unicode="&#x13a;" horiz-adv-x="230" 
d="M165 0h-100v720h100v-720zM35 770h-10l-10 60l245 100h30l10 -105z" />
    <glyph glyph-name="uni013B" unicode="&#x13b;" horiz-adv-x="695" 
d="M675 0h-590v700h100v-605h490v-95zM330 -305v80h10q33 0 49 13.5t16 36.5h-5q-8 -10 -26 -10q-21 0 -35 14.5t-14 38.5q0 25 15.5 41t40.5 16q28 0 46 -21t18 -69q0 -65 -31.5 -102.5t-78.5 -37.5h-5z" />
    <glyph glyph-name="uni013C" unicode="&#x13c;" horiz-adv-x="230" 
d="M165 0h-100v720h100v-720zM60 -305v80h10q33 0 49 13.5t16 36.5h-5q-8 -10 -26 -10q-21 0 -35 14.5t-14 38.5q0 25 15.5 41t40.5 16q28 0 46 -21t18 -69q0 -65 -31.5 -102.5t-78.5 -37.5h-5z" />
    <glyph glyph-name="Lcaron" unicode="&#x13d;" horiz-adv-x="695" 
d="M250.5 694q15.5 16 40.5 16q28 0 46 -21t18 -69q0 -65 -31.5 -102.5t-78.5 -37.5h-5v80h10q33 0 49 13.5t16 36.5h-5q-3 -4 -10 -7t-16 -3q-21 0 -35 14.5t-14 38.5q0 25 15.5 41zM675 0h-590v700h100v-605h490v-95z" />
    <glyph glyph-name="lcaron" unicode="&#x13e;" horiz-adv-x="295" 
d="M220.5 714q15.5 16 40.5 16q28 0 46 -21t18 -69q0 -79 -31 -119.5t-79 -40.5h-5v80h5q34 0 52 18t18 52h-5q-8 -10 -26 -10q-21 0 -35 14.5t-14 38.5q0 25 15.5 41zM65 0v720h100v-5v-42v-673h-100z" />
    <glyph glyph-name="Ldot" unicode="&#x13f;" horiz-adv-x="695" 
d="M675 0h-590v700h100v-605h490v-95zM434.5 334.5q-19.5 19.5 -19.5 45.5t19.5 45.5t45.5 19.5t45.5 -19.5t19.5 -45.5t-19.5 -45.5t-45.5 -19.5t-45.5 19.5z" />
    <glyph glyph-name="ldot" unicode="&#x140;" horiz-adv-x="355" 
d="M165 0h-100v720h100v-720zM244.5 314.5q-19.5 19.5 -19.5 45.5t19.5 45.5t45.5 19.5t45.5 -19.5t19.5 -45.5t-19.5 -45.5t-45.5 -19.5t-45.5 19.5z" />
    <glyph glyph-name="Lslash" unicode="&#x141;" horiz-adv-x="705" 
d="M195 326v-231h490v-95h-590v284l-80 -34v95l80 34v321h100v-279l245 104v-95z" />
    <glyph glyph-name="lslash" unicode="&#x142;" horiz-adv-x="300" 
d="M200 454l95 36v-95l-95 -34v-361h-100v324l-95 -34v91l95 36v303h100v-266z" />
    <glyph glyph-name="Nacute" unicode="&#x143;" horiz-adv-x="840" 
d="M185 0h-100v700h160l405 -610h5v610h100v-700h-160l-405 610h-5v-610zM310 770h-10l-10 60l245 100h30l10 -105z" />
    <glyph glyph-name="nacute" unicode="&#x144;" horiz-adv-x="685" 
d="M65 0v550h100v-88h5q23 37 78 67.5t127 30.5q122 0 186 -59t64 -166v-335h-100v335q0 68 -41 106.5t-119 38.5q-76 0 -128.5 -35.5t-71.5 -79.5v-365h-100zM236 620h-10l-10 60l245 100h30l10 -105z" />
    <glyph glyph-name="uni0145" unicode="&#x145;" horiz-adv-x="840" 
d="M185 0h-100v700h160l405 -610h5v610h100v-700h-160l-405 610h-5v-610zM360 -305v80h10q33 0 49 13.5t16 36.5h-5q-8 -10 -26 -10q-21 0 -35 14.5t-14 38.5q0 25 15.5 41t40.5 16q28 0 46 -21t18 -69q0 -65 -31.5 -102.5t-78.5 -37.5h-5z" />
    <glyph glyph-name="uni0146" unicode="&#x146;" horiz-adv-x="685" 
d="M65 0v550h100v-88h5q23 37 78 67.5t127 30.5q122 0 186 -59t64 -166v-335h-100v335q0 68 -41 106.5t-119 38.5q-76 0 -128.5 -35.5t-71.5 -79.5v-365h-100zM290 -305v80h10q33 0 49 13.5t16 36.5h-5q-8 -10 -26 -10q-21 0 -35 14.5t-14 38.5q0 25 15.5 41t40.5 16
q28 0 46 -21t18 -69q0 -65 -31.5 -102.5t-78.5 -37.5h-5z" />
    <glyph glyph-name="Ncaron" unicode="&#x147;" horiz-adv-x="840" 
d="M185 0h-100v700h160l405 -610h5v610h100v-700h-160l-405 610h-5v-610zM485 780h-120l-165 140h120l100 -85h10l100 85h120z" />
    <glyph glyph-name="ncaron" unicode="&#x148;" horiz-adv-x="685" 
d="M65 0v550h100v-88h5q23 37 78 67.5t127 30.5q122 0 186 -59t64 -166v-335h-100v335q0 68 -41 106.5t-119 38.5q-76 0 -128.5 -35.5t-71.5 -79.5v-365h-100zM410 630h-120l-165 140h120l100 -85h10l100 85h120z" />
    <glyph glyph-name="napostrophe" unicode="&#x149;" horiz-adv-x="755" 
d="M10.5 714q15.5 16 40.5 16q28 0 46 -21t18 -69q0 -79 -31 -119.5t-79 -40.5h-5v80h5q34 0 52 18t18 52h-5q-3 -4 -10 -7t-16 -3q-21 0 -35 14.5t-14 38.5q0 25 15.5 41zM135 0v550h100v-88h5q23 37 78 67.5t127 30.5q122 0 186 -59t64 -166v-335h-100v335q0 68 -41 106.5
t-119 38.5q-76 0 -128.5 -35.5t-71.5 -79.5v-365h-100z" />
    <glyph glyph-name="Eng" unicode="&#x14a;" horiz-adv-x="840" 
d="M490 -185v90q41 -15 77 -15q42 0 65 26t23 74v10h-60l-405 610h-5v-610h-100v700h160l405 -610h5v610h100v-708q0 -93 -44 -142.5t-131 -49.5q-48 0 -90 15z" />
    <glyph glyph-name="eng" unicode="&#x14b;" horiz-adv-x="685" 
d="M360 -185v90q40 -15 77 -15q42 0 65 26t23 74v345q0 68 -41 106.5t-119 38.5q-76 0 -128.5 -35.5t-71.5 -79.5v-365h-100v550h100v-88h5q23 37 78 67.5t127 30.5q122 0 186 -59t64 -166v-343q0 -93 -44 -142.5t-131 -49.5q-48 0 -90 15z" />
    <glyph glyph-name="Omacron" unicode="&#x14c;" horiz-adv-x="1030" 
d="M273.5 36.5q-100.5 46.5 -152 128t-51.5 185.5t51.5 185.5t152 128t241.5 46.5t241.5 -46.5t152 -128t51.5 -185.5t-51.5 -185.5t-152 -128t-241.5 -46.5t-241.5 46.5zM698.5 115.5q76.5 35.5 116.5 97t40 137.5t-40 137.5t-116.5 97t-183.5 35.5t-183.5 -35.5
t-116.5 -97t-40 -137.5t40 -137.5t116.5 -97t183.5 -35.5t183.5 35.5zM705 805h-380v85h380v-85z" />
    <glyph glyph-name="omacron" unicode="&#x14d;" horiz-adv-x="770" 
d="M207 27.5q-76 37.5 -116.5 102.5t-40.5 145t40.5 145t116.5 102.5t178 37.5t178 -37.5t116.5 -102.5t40.5 -145t-40.5 -145t-116.5 -102.5t-178 -37.5t-178 37.5zM559.5 129q60.5 54 60.5 146t-60.5 146t-174.5 54t-174.5 -54t-60.5 -146t60.5 -146t174.5 -54t174.5 54z
M575 655h-380v85h380v-85z" />
    <glyph glyph-name="Obreve" unicode="&#x14e;" horiz-adv-x="1030" 
d="M273.5 36.5q-100.5 46.5 -152 128t-51.5 185.5t51.5 185.5t152 128t241.5 46.5t241.5 -46.5t152 -128t51.5 -185.5t-51.5 -185.5t-152 -128t-241.5 -46.5t-241.5 46.5zM698.5 115.5q76.5 35.5 116.5 97t40 137.5t-40 137.5t-116.5 97t-183.5 35.5t-183.5 -35.5
t-116.5 -97t-40 -137.5t40 -137.5t116.5 -97t183.5 -35.5t183.5 35.5zM377.5 818.5q-47.5 38.5 -47.5 101.5h90q0 -32 22.5 -48.5t72.5 -16.5t72.5 16.5t22.5 48.5h90q0 -63 -47.5 -101.5t-137.5 -38.5t-137.5 38.5z" />
    <glyph glyph-name="obreve" unicode="&#x14f;" horiz-adv-x="770" 
d="M207 27.5q-76 37.5 -116.5 102.5t-40.5 145t40.5 145t116.5 102.5t178 37.5t178 -37.5t116.5 -102.5t40.5 -145t-40.5 -145t-116.5 -102.5t-178 -37.5t-178 37.5zM559.5 129q60.5 54 60.5 146t-60.5 146t-174.5 54t-174.5 -54t-60.5 -146t60.5 -146t174.5 -54t174.5 54z
M247.5 668.5q-47.5 38.5 -47.5 101.5h90q0 -32 22.5 -48.5t72.5 -16.5t72.5 16.5t22.5 48.5h90q0 -63 -47.5 -101.5t-137.5 -38.5t-137.5 38.5z" />
    <glyph glyph-name="Ohungarumlaut" unicode="&#x150;" horiz-adv-x="1030" 
d="M273.5 36.5q-100.5 46.5 -152 128t-51.5 185.5t51.5 185.5t152 128t241.5 46.5t241.5 -46.5t152 -128t51.5 -185.5t-51.5 -185.5t-152 -128t-241.5 -46.5t-241.5 46.5zM698.5 115.5q76.5 35.5 116.5 97t40 137.5t-40 137.5t-116.5 97t-183.5 35.5t-183.5 -35.5
t-116.5 -97t-40 -137.5t40 -137.5t116.5 -97t183.5 -35.5t183.5 35.5zM295 770h-10l-10 55l205 105h30l10 -80zM540 770h-10l-10 55l205 105h30l10 -80z" />
    <glyph glyph-name="ohungarumlaut" unicode="&#x151;" horiz-adv-x="770" 
d="M207 27.5q-76 37.5 -116.5 102.5t-40.5 145t40.5 145t116.5 102.5t178 37.5t178 -37.5t116.5 -102.5t40.5 -145t-40.5 -145t-116.5 -102.5t-178 -37.5t-178 37.5zM559.5 129q60.5 54 60.5 146t-60.5 146t-174.5 54t-174.5 -54t-60.5 -146t60.5 -146t174.5 -54t174.5 54z
M165 620h-10l-10 55l205 105h30l10 -80zM410 620h-10l-10 55l205 105h30l10 -80z" />
    <glyph glyph-name="OE" unicode="&#x152;" horiz-adv-x="1260" 
d="M725 95h480v-95h-580q-52 -10 -120 -10q-136 0 -234.5 46.5t-149.5 128t-51 185.5t51 185.5t149.5 128t234.5 46.5q73 0 120 -10h560v-95h-460v-205h420v-95h-420v-210zM625 606q-17 5 -49.5 9.5t-70.5 4.5q-102 0 -176.5 -35.5t-114 -97t-39.5 -137.5t39.5 -137.5
t114 -97t176.5 -35.5q32 0 65.5 4.5t54.5 9.5v512z" />
    <glyph glyph-name="oe" unicode="&#x153;" horiz-adv-x="1225" 
d="M203.5 27.5q-73.5 37.5 -113.5 102.5t-40 145t40 145t113.5 102.5t171.5 37.5q67 0 123 -19t94.5 -48t57.5 -58h5q28 48 91.5 86.5t143.5 38.5q84 0 148.5 -35.5t100.5 -99t36 -145.5v-40h-473q10 -74 70.5 -119.5t147.5 -45.5q62 0 119.5 21.5t90.5 48.5v-95
q-33 -23 -91.5 -41.5t-123.5 -18.5q-61 0 -114 20t-90 49.5t-56 60.5h-5q-18 -31 -56 -60.5t-94.5 -49.5t-124.5 -20q-98 0 -171.5 37.5zM541 129q59 54 59 146t-59 146t-166 54t-166 -54t-59 -146t59 -146t166 -54t166 54zM1075 320q-5 41 -28.5 76.5t-63.5 57t-93 21.5
q-76 0 -126.5 -44.5t-58.5 -110.5h370z" />
    <glyph glyph-name="Racute" unicode="&#x154;" horiz-adv-x="820" 
d="M535 295q95 0 142.5 -41t47.5 -114v-140h-100v135q0 115 -145 115h-295v-250h-100v700h395q90 0 151.5 -27t92.5 -74.5t31 -108.5q0 -55 -26 -98t-76 -67.5t-118 -24.5v-5zM185 345h295q83 0 126.5 35.5t43.5 94.5t-43.5 94.5t-126.5 35.5h-295v-260zM295 770h-10l-10 60
l245 100h30l10 -105z" />
    <glyph glyph-name="racute" unicode="&#x155;" horiz-adv-x="411" 
d="M65 0v550h100v-88h5q21 34 65.5 61t99.5 27h56v-95h-56q-70 0 -114 -25.5t-56 -56.5v-373h-100zM95 620h-10l-10 60l245 100h30l10 -105z" />
    <glyph glyph-name="uni0156" unicode="&#x156;" horiz-adv-x="820" 
d="M535 295q95 0 142.5 -41t47.5 -114v-140h-100v135q0 115 -145 115h-295v-250h-100v700h395q90 0 151.5 -27t92.5 -74.5t31 -108.5q0 -55 -26 -98t-76 -67.5t-118 -24.5v-5zM185 345h295q83 0 126.5 35.5t43.5 94.5t-43.5 94.5t-126.5 35.5h-295v-260zM350 -305v80h10
q33 0 49 13.5t16 36.5h-5q-8 -10 -26 -10q-21 0 -35 14.5t-14 38.5q0 25 15.5 41t40.5 16q28 0 46 -21t18 -69q0 -65 -31.5 -102.5t-78.5 -37.5h-5z" />
    <glyph glyph-name="uni0157" unicode="&#x157;" horiz-adv-x="411" 
d="M65 0v550h100v-88h5q21 34 65.5 61t99.5 27h56v-95h-56q-70 0 -114 -25.5t-56 -56.5v-373h-100zM60 -305v80h10q33 0 49 13.5t16 36.5h-5q-8 -10 -26 -10q-21 0 -35 14.5t-14 38.5q0 25 15.5 41t40.5 16q28 0 46 -21t18 -69q0 -65 -31.5 -102.5t-78.5 -37.5h-5z" />
    <glyph glyph-name="Rcaron" unicode="&#x158;" horiz-adv-x="820" 
d="M535 295q95 0 142.5 -41t47.5 -114v-140h-100v135q0 115 -145 115h-295v-250h-100v700h395q90 0 151.5 -27t92.5 -74.5t31 -108.5q0 -55 -26 -98t-76 -67.5t-118 -24.5v-5zM185 345h295q83 0 126.5 35.5t43.5 94.5t-43.5 94.5t-126.5 35.5h-295v-260zM470 780h-120
l-165 140h120l100 -85h10l100 85h120z" />
    <glyph glyph-name="rcaron" unicode="&#x159;" horiz-adv-x="411" 
d="M65 0v550h100v-88h5q21 34 65.5 61t99.5 27h56v-95h-56q-70 0 -114 -25.5t-56 -56.5v-373h-100zM290 630h-120l-165 140h120l100 -85h10l100 85h120z" />
    <glyph glyph-name="Sacute" unicode="&#x15a;" horiz-adv-x="760" 
d="M219.5 10q-76.5 20 -114.5 45v102q39 -29 114 -53t162 -24q73 0 120 15t68 39t21 51q0 36 -29 57.5t-72 33t-118 25.5q-100 18 -161.5 37t-105.5 60t-44 112q0 53 35 98.5t110 73.5t188 28q87 0 167.5 -22.5t124.5 -49.5v-104q-42 32 -122.5 59t-169.5 27q-81 0 -132 -16
t-73.5 -41t-22.5 -53q0 -35 28 -56t70 -32t118 -25q100 -18 162.5 -37t107 -61t44.5 -114q0 -52 -34 -96.5t-103.5 -71.5t-171.5 -27q-90 0 -166.5 20zM245 770h-10l-10 60l245 100h30l10 -105z" />
    <glyph glyph-name="sacute" unicode="&#x15b;" horiz-adv-x="605" 
d="M171 8.5q-68 18.5 -105 39.5v94q36 -25 104 -46t139 -21q91 0 126 19t35 52q0 27 -22.5 43.5t-56.5 25t-95 19.5q-82 15 -132.5 29.5t-87 48.5t-36.5 93q0 42 27.5 77t87 56.5t151.5 21.5q77 0 151 -20.5t108 -43.5v-93q-35 26 -109.5 49t-149.5 23q-91 0 -128.5 -19.5
t-37.5 -50.5q0 -36 41 -52t126 -30q84 -15 136 -30t89.5 -50.5t37.5 -96.5q0 -40 -28 -75.5t-87 -58t-146 -22.5q-70 0 -138 18.5zM195 620h-10l-10 60l245 100h30l10 -105z" />
    <glyph glyph-name="Scircumflex" unicode="&#x15c;" horiz-adv-x="760" 
d="M219.5 10q-76.5 20 -114.5 45v102q39 -29 114 -53t162 -24q73 0 120 15t68 39t21 51q0 36 -29 57.5t-72 33t-118 25.5q-100 18 -161.5 37t-105.5 60t-44 112q0 53 35 98.5t110 73.5t188 28q87 0 167.5 -22.5t124.5 -49.5v-104q-42 32 -122.5 59t-169.5 27q-81 0 -132 -16
t-73.5 -41t-22.5 -53q0 -35 28 -56t70 -32t118 -25q100 -18 162.5 -37t107 -61t44.5 -114q0 -52 -34 -96.5t-103.5 -71.5t-171.5 -27q-90 0 -166.5 20zM275 780h-120l165 140h120l165 -140h-120l-100 85h-10z" />
    <glyph glyph-name="scircumflex" unicode="&#x15d;" horiz-adv-x="605" 
d="M171 8.5q-68 18.5 -105 39.5v94q36 -25 104 -46t139 -21q91 0 126 19t35 52q0 27 -22.5 43.5t-56.5 25t-95 19.5q-82 15 -132.5 29.5t-87 48.5t-36.5 93q0 42 27.5 77t87 56.5t151.5 21.5q77 0 151 -20.5t108 -43.5v-93q-35 26 -109.5 49t-149.5 23q-91 0 -128.5 -19.5
t-37.5 -50.5q0 -36 41 -52t126 -30q84 -15 136 -30t89.5 -50.5t37.5 -96.5q0 -40 -28 -75.5t-87 -58t-146 -22.5q-70 0 -138 18.5zM200 630h-120l165 140h120l165 -140h-120l-100 85h-10z" />
    <glyph glyph-name="Scedilla" unicode="&#x15e;" horiz-adv-x="760" 
d="M665 93.5q-30 -42.5 -92.5 -70.5t-154.5 -32l-12 -41h16q51 0 79.5 -26.5t28.5 -70.5q0 -47 -36 -75t-95 -28q-47 0 -104 16v67q51 -13 90 -13q60 0 60 32q0 28 -46 28h-71l-20 20l27 92q-74 6 -136 24t-94 39v102q39 -29 114 -53t162 -24q73 0 120 15t68 39t21 51
q0 36 -29 57.5t-72 33t-118 25.5q-100 18 -161.5 37t-105.5 60t-44 112q0 53 35 98.5t110 73.5t188 28q87 0 167.5 -22.5t124.5 -49.5v-104q-42 32 -122.5 59t-169.5 27q-81 0 -132 -16t-73.5 -41t-22.5 -53q0 -35 28 -56t70 -32t118 -25q100 -18 162.5 -37t107 -61
t44.5 -114q0 -49 -30 -91.5z" />
    <glyph glyph-name="scedilla" unicode="&#x15f;" horiz-adv-x="605" 
d="M545.5 75q-24.5 -34 -75.5 -57t-127 -27l-12 -41h16q51 0 79.5 -26.5t28.5 -70.5q0 -47 -36 -75t-95 -28q-47 0 -104 16v67q51 -13 90 -13q60 0 60 32q0 28 -46 28h-71l-20 20l27 92q-58 6 -111.5 22.5t-82.5 33.5v94q36 -25 104 -46t139 -21q91 0 126 19t35 52
q0 27 -22.5 43.5t-56.5 25t-95 19.5q-82 15 -132.5 29.5t-87 48.5t-36.5 93q0 42 27.5 77t87 56.5t151.5 21.5q77 0 151 -20.5t108 -43.5v-93q-35 26 -109.5 49t-149.5 23q-91 0 -128.5 -19.5t-37.5 -50.5q0 -36 41 -52t126 -30q84 -15 136 -30t89.5 -50.5t37.5 -96.5
q0 -37 -24.5 -71z" />
    <glyph glyph-name="Scaron" unicode="&#x160;" horiz-adv-x="760" 
d="M219.5 10q-76.5 20 -114.5 45v102q39 -29 114 -53t162 -24q73 0 120 15t68 39t21 51q0 36 -29 57.5t-72 33t-118 25.5q-100 18 -161.5 37t-105.5 60t-44 112q0 53 35 98.5t110 73.5t188 28q87 0 167.5 -22.5t124.5 -49.5v-104q-42 32 -122.5 59t-169.5 27q-81 0 -132 -16
t-73.5 -41t-22.5 -53q0 -35 28 -56t70 -32t118 -25q100 -18 162.5 -37t107 -61t44.5 -114q0 -52 -34 -96.5t-103.5 -71.5t-171.5 -27q-90 0 -166.5 20zM440 780h-120l-165 140h120l100 -85h10l100 85h120z" />
    <glyph glyph-name="scaron" unicode="&#x161;" horiz-adv-x="605" 
d="M171 8.5q-68 18.5 -105 39.5v94q36 -25 104 -46t139 -21q91 0 126 19t35 52q0 27 -22.5 43.5t-56.5 25t-95 19.5q-82 15 -132.5 29.5t-87 48.5t-36.5 93q0 42 27.5 77t87 56.5t151.5 21.5q77 0 151 -20.5t108 -43.5v-93q-35 26 -109.5 49t-149.5 23q-91 0 -128.5 -19.5
t-37.5 -50.5q0 -36 41 -52t126 -30q84 -15 136 -30t89.5 -50.5t37.5 -96.5q0 -40 -28 -75.5t-87 -58t-146 -22.5q-70 0 -138 18.5zM365 630h-120l-165 140h120l100 -85h10l100 85h120z" />
    <glyph glyph-name="uni0162" unicode="&#x162;" horiz-adv-x="700" 
d="M400 0h-8l-15 -50h16q51 0 79.5 -26.5t28.5 -70.5q0 -47 -36 -75t-95 -28q-47 0 -104 16v67q51 -13 90 -13q60 0 60 32q0 28 -46 28h-71l-20 20l30 100h-9v605h-280v95h660v-95h-280v-605z" />
    <glyph glyph-name="uni0163" unicode="&#x163;" horiz-adv-x="415" 
d="M292 -50q51 0 79.5 -26.5t28.5 -70.5q0 -47 -36 -75t-95 -28q-47 0 -104 16v67q51 -13 90 -13q60 0 60 32q0 28 -46 28h-71l-20 20l31 104q-48 19 -73.5 63.5t-25.5 111.5v281h-110v90h55q55 0 55 60v60h100v-120h160v-90h-160v-284q0 -45 24.5 -70.5t65.5 -25.5
q37 0 70 11v-89q-36 -12 -82 -12l-12 -40h16z" />
    <glyph glyph-name="Tcaron" unicode="&#x164;" horiz-adv-x="700" 
d="M20 700h660v-95h-280v-605h-100v605h-280v95zM410 780h-120l-165 140h120l100 -85h10l100 85h120z" />
    <glyph glyph-name="tcaron" unicode="&#x165;" horiz-adv-x="400" 
d="M270.5 664q15.5 16 40.5 16q28 0 46 -21t18 -69q0 -65 -31.5 -102.5t-78.5 -37.5h-5v80h10q33 0 49 13.5t16 36.5h-5q-8 -10 -26 -10q-21 0 -35 14.5t-14 38.5q0 25 15.5 41zM157 38.5q-47 48.5 -47 140.5v281h-110v90h55q55 0 55 60v60h100v-494q0 -45 24.5 -70.5
t65.5 -25.5q37 0 70 11v-89q-36 -12 -82 -12q-84 0 -131 48.5z" />
    <glyph glyph-name="Tbar" unicode="&#x166;" horiz-adv-x="700" 
d="M680 700v-95h-280v-140h170v-95h-170v-370h-100v370h-170v95h170v140h-280v95h660z" />
    <glyph glyph-name="tbar" unicode="&#x167;" horiz-adv-x="445" 
d="M390 460h-160v-100h160v-90h-160v-94q0 -45 24.5 -70.5t65.5 -25.5q37 0 70 11v-89q-36 -12 -82 -12q-84 0 -131 48.5t-47 140.5v91h-110v90h110v100h-110v90h55q55 0 55 60v60h100v-120h160v-90z" />
    <glyph glyph-name="Utilde" unicode="&#x168;" horiz-adv-x="840" 
d="M235.5 27q-76.5 37 -116 105t-39.5 158v410h100v-410q0 -100 59.5 -152.5t180.5 -52.5t180.5 52.5t59.5 152.5v410h100v-410q0 -90 -39.5 -158t-116 -105t-184.5 -37t-184.5 37zM454 791q-24 11 -52 31q-20 14 -33.5 21t-28.5 7q-14 0 -22 -8t-8 -22v-35h-80v45
q0 44 26.5 69.5t73.5 25.5q32 0 56 -11t52 -31q20 -14 33.5 -21t28.5 -7q13 0 21.5 8.5t8.5 21.5v35h80v-45q0 -44 -26.5 -69.5t-73.5 -25.5q-32 0 -56 11z" />
    <glyph glyph-name="utilde" unicode="&#x169;" horiz-adv-x="685" 
d="M124 49q-64 59 -64 166v335h100v-335q0 -68 41 -106.5t119 -38.5q76 0 128.5 35.5t71.5 79.5v365h100v-550h-100v88h-5q-23 -37 -78 -67.5t-127 -30.5q-122 0 -186 59zM374 641q-24 11 -52 31q-20 14 -33.5 21t-28.5 7q-14 0 -22 -8t-8 -22v-35h-80v45q0 44 26.5 69.5
t73.5 25.5q32 0 56 -11t52 -31q20 -14 33.5 -21t28.5 -7q13 0 21.5 8.5t8.5 21.5v35h80v-45q0 -44 -26.5 -69.5t-73.5 -25.5q-32 0 -56 11z" />
    <glyph glyph-name="Umacron" unicode="&#x16a;" horiz-adv-x="840" 
d="M235.5 27q-76.5 37 -116 105t-39.5 158v410h100v-410q0 -100 59.5 -152.5t180.5 -52.5t180.5 52.5t59.5 152.5v410h100v-410q0 -90 -39.5 -158t-116 -105t-184.5 -37t-184.5 37zM610 805h-380v85h380v-85z" />
    <glyph glyph-name="umacron" unicode="&#x16b;" horiz-adv-x="685" 
d="M124 49q-64 59 -64 166v335h100v-335q0 -68 41 -106.5t119 -38.5q76 0 128.5 35.5t71.5 79.5v365h100v-550h-100v88h-5q-23 -37 -78 -67.5t-127 -30.5q-122 0 -186 59zM530 655h-380v85h380v-85z" />
    <glyph glyph-name="Ubreve" unicode="&#x16c;" horiz-adv-x="840" 
d="M235.5 27q-76.5 37 -116 105t-39.5 158v410h100v-410q0 -100 59.5 -152.5t180.5 -52.5t180.5 52.5t59.5 152.5v410h100v-410q0 -90 -39.5 -158t-116 -105t-184.5 -37t-184.5 37zM282.5 818.5q-47.5 38.5 -47.5 101.5h90q0 -32 22.5 -48.5t72.5 -16.5t72.5 16.5t22.5 48.5
h90q0 -63 -47.5 -101.5t-137.5 -38.5t-137.5 38.5z" />
    <glyph glyph-name="ubreve" unicode="&#x16d;" horiz-adv-x="685" 
d="M124 49q-64 59 -64 166v335h100v-335q0 -68 41 -106.5t119 -38.5q76 0 128.5 35.5t71.5 79.5v365h100v-550h-100v88h-5q-23 -37 -78 -67.5t-127 -30.5q-122 0 -186 59zM202.5 668.5q-47.5 38.5 -47.5 101.5h90q0 -32 22.5 -48.5t72.5 -16.5t72.5 16.5t22.5 48.5h90
q0 -63 -47.5 -101.5t-137.5 -38.5t-137.5 38.5z" />
    <glyph glyph-name="Uring" unicode="&#x16e;" horiz-adv-x="840" 
d="M235.5 27q-76.5 37 -116 105t-39.5 158v410h100v-410q0 -100 59.5 -152.5t180.5 -52.5t180.5 52.5t59.5 152.5v410h100v-410q0 -90 -39.5 -158t-116 -105t-184.5 -37t-184.5 37zM324.5 778.5q-34.5 28.5 -34.5 71.5t34.5 71.5t95.5 28.5t95.5 -28.5t34.5 -71.5
t-34.5 -71.5t-95.5 -28.5t-95.5 28.5zM464 822q16 12 16 28t-16 28t-44 12t-44 -12t-16 -28t16 -28t44 -12t44 12z" />
    <glyph glyph-name="uring" unicode="&#x16f;" horiz-adv-x="685" 
d="M124 49q-64 59 -64 166v335h100v-335q0 -68 41 -106.5t119 -38.5q76 0 128.5 35.5t71.5 79.5v365h100v-550h-100v88h-5q-23 -37 -78 -67.5t-127 -30.5q-122 0 -186 59zM244.5 628.5q-34.5 28.5 -34.5 71.5t34.5 71.5t95.5 28.5t95.5 -28.5t34.5 -71.5t-34.5 -71.5
t-95.5 -28.5t-95.5 28.5zM384 672q16 12 16 28t-16 28t-44 12t-44 -12t-16 -28t16 -28t44 -12t44 12z" />
    <glyph glyph-name="Uhungarumlaut" unicode="&#x170;" horiz-adv-x="840" 
d="M235.5 27q-76.5 37 -116 105t-39.5 158v410h100v-410q0 -100 59.5 -152.5t180.5 -52.5t180.5 52.5t59.5 152.5v410h100v-410q0 -90 -39.5 -158t-116 -105t-184.5 -37t-184.5 37zM220 770h-10l-10 55l205 105h30l10 -80zM465 770h-10l-10 55l205 105h30l10 -80z" />
    <glyph glyph-name="uhungarumlaut" unicode="&#x171;" horiz-adv-x="685" 
d="M124 49q-64 59 -64 166v335h100v-335q0 -68 41 -106.5t119 -38.5q76 0 128.5 35.5t71.5 79.5v365h100v-550h-100v88h-5q-23 -37 -78 -67.5t-127 -30.5q-122 0 -186 59zM145 620h-10l-10 55l205 105h30l10 -80zM390 620h-10l-10 55l205 105h30l10 -80z" />
    <glyph glyph-name="Uogonek" unicode="&#x172;" horiz-adv-x="840" 
d="M660 700h100v-410q0 -94 -41 -162t-122 -105q-76 -35 -117.5 -69.5t-41.5 -64.5q0 -16 12.5 -25t36.5 -9q34 0 68 7v-73q-45 -9 -90 -9q-66 0 -98 22.5t-32 64.5q0 61 90 118v5h-5q-108 0 -184.5 37t-116 105t-39.5 158v410h100v-410q0 -100 59.5 -152.5t180.5 -52.5
t180.5 52.5t59.5 152.5v410z" />
    <glyph glyph-name="uogonek" unicode="&#x173;" horiz-adv-x="685" 
d="M620 0q-47 -24 -82 -53.5t-35 -57.5q0 -16 13 -25t36 -9q34 0 68 7v-73q-45 -9 -90 -9q-66 0 -98 22.5t-32 64.5q0 37 35 74.5t85 63.5v83h-5q-23 -37 -78 -67.5t-127 -30.5q-122 0 -186 59t-64 166v335h100v-335q0 -68 41 -106.5t119 -38.5q76 0 128.5 35.5t71.5 79.5
v365h100v-550z" />
    <glyph glyph-name="Wcircumflex" unicode="&#x174;" horiz-adv-x="1250" 
d="M411 0h-130l-276 700h106l235 -605h5l220 605h110l219 -605h5l235 605h105l-275 -700h-130l-211 575h-6zM521 780h-120l165 140h120l165 -140h-120l-100 85h-10z" />
    <glyph glyph-name="wcircumflex" unicode="&#x175;" horiz-adv-x="985" 
d="M335 0h-116l-219 550h102l173 -450h5l165 450h100l170 -450h5l168 450h97l-210 -550h-116l-164 425h-5zM390 630h-120l165 140h120l165 -140h-120l-100 85h-10z" />
    <glyph glyph-name="Ycircumflex" unicode="&#x176;" horiz-adv-x="780" 
d="M440 0h-100v160l-360 540h112l295 -450h6l295 450h112l-360 -540v-160zM285 780h-120l165 140h120l165 -140h-120l-100 85h-10z" />
    <glyph glyph-name="ycircumflex" unicode="&#x177;" horiz-adv-x="610" 
d="M255 -190h-101l116 240l-275 500h117l205 -390h5l188 390h105zM199 630h-120l165 140h120l165 -140h-120l-100 85h-10z" />
    <glyph glyph-name="Ydieresis" unicode="&#x178;" horiz-adv-x="780" 
d="M440 0h-100v160l-360 540h112l295 -450h6l295 450h112l-360 -540v-160zM236.5 804.5q-19.5 19.5 -19.5 45.5t19.5 45.5t45.5 19.5t45.5 -19.5t19.5 -45.5t-19.5 -45.5t-45.5 -19.5t-45.5 19.5zM451.5 804.5q-19.5 19.5 -19.5 45.5t19.5 45.5t45.5 19.5t45.5 -19.5
t19.5 -45.5t-19.5 -45.5t-45.5 -19.5t-45.5 19.5z" />
    <glyph glyph-name="Zacute" unicode="&#x179;" horiz-adv-x="735" 
d="M700 0h-660v90l500 510v5h-490v95h630v-90l-500 -510v-5h520v-95zM245 770h-10l-10 60l245 100h30l10 -105z" />
    <glyph glyph-name="zacute" unicode="&#x17a;" horiz-adv-x="605" 
d="M580 0h-550v85l400 370v5h-395v90h530v-85l-400 -370v-5h415v-90zM185 620h-10l-10 60l245 100h30l10 -105z" />
    <glyph glyph-name="Zdotaccent" unicode="&#x17b;" horiz-adv-x="735" 
d="M700 0h-660v90l500 510v5h-490v95h630v-90l-500 -510v-5h520v-95zM319.5 804.5q-19.5 19.5 -19.5 45.5t19.5 45.5t45.5 19.5t45.5 -19.5t19.5 -45.5t-19.5 -45.5t-45.5 -19.5t-45.5 19.5z" />
    <glyph glyph-name="zdotaccent" unicode="&#x17c;" horiz-adv-x="605" 
d="M580 0h-550v85l400 370v5h-395v90h530v-85l-400 -370v-5h415v-90zM254.5 654.5q-19.5 19.5 -19.5 45.5t19.5 45.5t45.5 19.5t45.5 -19.5t19.5 -45.5t-19.5 -45.5t-45.5 -19.5t-45.5 19.5z" />
    <glyph glyph-name="Zcaron" unicode="&#x17d;" horiz-adv-x="735" 
d="M700 0h-660v90l500 510v5h-490v95h630v-90l-500 -510v-5h520v-95zM425 780h-120l-165 140h120l100 -85h10l100 85h120z" />
    <glyph glyph-name="zcaron" unicode="&#x17e;" horiz-adv-x="605" 
d="M580 0h-550v85l400 370v5h-395v90h530v-85l-400 -370v-5h415v-90zM360 630h-120l-165 140h120l100 -85h10l100 85h120z" />
    <glyph glyph-name="uni018F" unicode="&#x18f;" horiz-adv-x="990" 
d="M716.5 663.5q100.5 -46.5 152 -128t51.5 -185.5q0 -103 -50.5 -185t-146.5 -128.5t-228 -46.5q-129 0 -225.5 47.5t-148 129.5t-51.5 183v40h742q-10 67 -52.5 119t-115 81.5t-169.5 29.5q-103 0 -194.5 -24.5t-145.5 -54.5v101q57 26 148.5 47t191.5 21
q141 0 241.5 -46.5zM647 107.5q67 27.5 108 76.5t54 111h-628q12 -60 52 -108.5t106.5 -77.5t155.5 -29q85 0 152 27.5z" />
    <glyph glyph-name="florin" unicode="&#x192;" horiz-adv-x="513" 
d="M-90 -190l19 90h79q44 0 65.5 16.5t30.5 58.5l104 490h-110l18 85h110l2 10q15 76 67 118t137 42h96l-19 -85h-85q-45 0 -66.5 -18.5t-29.5 -56.5l-2 -10h145l-18 -85h-145l-103 -485q-14 -63 -37 -99t-65 -53.5t-113 -17.5h-80z" />
    <glyph glyph-name="uni01F4" unicode="&#x1f4;" horiz-adv-x="925" 
d="M273.5 36.5q-100.5 46.5 -152 128t-51.5 185.5t52.5 185.5t156 128t251.5 46.5q100 0 186 -22.5t139 -51.5v-102q-47 33 -135.5 59.5t-189.5 26.5q-114 0 -194 -35.5t-120.5 -96.5t-40.5 -138q0 -76 40 -137.5t116.5 -97t183.5 -35.5q60 0 125.5 17.5t109.5 38.5v114
h-300v95h400v-265q-59 -34 -152 -62t-183 -28q-141 0 -241.5 46.5zM350 770h-10l-10 60l245 100h30l10 -105z" />
    <glyph glyph-name="uni01F5" unicode="&#x1f5;" horiz-adv-x="745" 
d="M216.5 -181.5q-65.5 18.5 -101.5 41.5v95q37 -27 102.5 -48.5t137.5 -21.5q113 0 169 50.5t56 139.5v15h-5q-29 -30 -88.5 -55t-131.5 -25q-90 0 -159.5 36t-107.5 99t-38 140t38 140t107.5 99t159.5 36q72 0 131.5 -25t88.5 -55h5v70h100v-475q0 -81 -38 -143t-111 -97
t-176 -35q-73 0 -138.5 18.5zM497 121q57 26 83 59v210q-26 33 -83 59t-127 26q-108 0 -164 -49.5t-56 -140.5t56 -140.5t164 -49.5q70 0 127 26zM225 620h-10l-10 60l245 100h30l10 -105z" />
    <glyph glyph-name="Aringacute" unicode="&#x1fa;" horiz-adv-x="840" 
d="M735 0l-92 180h-446l-92 -180h-105l347 674q-28 13 -42.5 35.5t-14.5 50.5q0 30 17.5 52t66.5 52l141 86h25l10 -88l-71 -15q30 -9 50.5 -31t20.5 -56q0 -28 -14.5 -50.5t-42.5 -35.5l347 -674h-105zM376 788q-16 -12 -16 -28t16 -28t44 -12t44 12t16 28t-16 28t-44 12
t-44 -12zM417 610l-171 -335h348l-171 335h-6z" />
    <glyph glyph-name="aringacute" unicode="&#x1fb;" horiz-adv-x="680" 
d="M239.5 628.5q-34.5 28.5 -34.5 71.5q0 30 17.5 52t66.5 52l141 86h25l10 -88l-71 -15q30 -9 50.5 -31t20.5 -56q0 -43 -34.5 -71.5t-95.5 -28.5t-95.5 28.5zM379 672q16 12 16 28t-16 28t-44 12t-44 -12t-16 -28t16 -28t44 -12t44 12zM100 35.5q-55 45.5 -55 119.5
q0 80 64.5 127.5t199.5 47.5q93 0 138 6.5t59 19t14 34.5q0 85 -185 85q-72 0 -142 -21.5t-113 -48.5v95q36 23 105.5 41.5t154.5 18.5q151 0 215.5 -46t64.5 -134v-380h-100v86q-32 -36 -102 -66t-158 -30q-105 0 -160 45.5zM432.5 103q62.5 28 87.5 63v123
q-12 -13 -66 -23.5t-149 -10.5q-160 0 -160 -95q0 -37 34.5 -61t105.5 -24q85 0 147.5 28z" />
    <glyph glyph-name="AEacute" unicode="&#x1fc;" horiz-adv-x="1155" 
d="M620 305v-210h480v-95h-580v180h-343l-87 -180h-105l340 700h755v-95h-460v-205h420v-95h-420zM384 605l-160 -330h296v330h-136zM560 770h-10l-10 60l245 100h30l10 -105z" />
    <glyph glyph-name="aeacute" unicode="&#x1fd;" horiz-adv-x="1120" 
d="M1070 240h-467q11 -77 67 -121t145 -44q62 0 120 21.5t90 48.5v-95q-32 -23 -91 -41.5t-124 -18.5q-82 0 -147.5 32t-106.5 88h-7q-37 -43 -108 -81.5t-166 -38.5q-75 0 -126.5 22t-77.5 59.5t-26 83.5q0 78 59.5 121.5t185.5 43.5h215v50q0 35 -14 57.5t-52.5 35
t-108.5 12.5q-67 0 -134.5 -20t-115.5 -46v97q46 21 113 37.5t147 16.5q68 0 118.5 -14.5t79.5 -36.5t37 -44h5q23 36 79 65.5t131 29.5q82 0 145.5 -35.5t99 -99t35.5 -145.5v-40zM970 320q-5 41 -28.5 76.5t-63.5 57t-93 21.5q-69 0 -119 -42.5t-63 -112.5h367z
M419.5 107.5q65.5 32.5 100.5 71.5q-10 26 -13 61h-227q-68 0 -101.5 -22t-33.5 -58q0 -37 34.5 -61t105.5 -24q69 0 134.5 32.5zM470 620h-10l-10 60l245 100h30l10 -105z" />
    <glyph glyph-name="Oslashacute" unicode="&#x1fe;" horiz-adv-x="1030" 
d="M839 613q60 -48 90.5 -115.5t30.5 -147.5q0 -104 -51.5 -185.5t-152 -128t-241.5 -46.5q-152 0 -262 56l-48 -46h-105l91 87q-60 48 -90.5 115.5t-30.5 147.5q0 104 51.5 185.5t152 128t241.5 46.5q152 0 262 -56l48 46h105zM197.5 243.5q22.5 -49.5 66.5 -85.5l439 424
q-81 38 -188 38t-183.5 -35.5t-116.5 -97t-40 -137.5q0 -57 22.5 -106.5zM698.5 115.5q76.5 35.5 116.5 97t40 137.5q0 57 -22.5 106.5t-66.5 85.5l-439 -424q81 -38 188 -38t183.5 35.5zM380 770h-10l-10 60l245 100h30l10 -105z" />
    <glyph glyph-name="oslashacute" unicode="&#x1ff;" horiz-adv-x="770" 
d="M628 480q45 -38 68.5 -90.5t23.5 -114.5q0 -80 -40.5 -145t-116.5 -102.5t-178 -37.5q-106 0 -189 43l-31 -33h-90l67 70q-45 38 -68.5 90.5t-23.5 114.5q0 80 40.5 145t116.5 102.5t178 37.5q106 0 189 -43l31 33h90zM205 134l305 318q-52 23 -125 23q-114 0 -174.5 -54
t-60.5 -146q0 -89 55 -141zM559.5 129q60.5 54 60.5 146q0 89 -55 141l-305 -318q52 -23 125 -23q114 0 174.5 54zM250 620h-10l-10 60l245 100h30l10 -105z" />
    <glyph glyph-name="uni0218" unicode="&#x218;" horiz-adv-x="760" 
d="M219.5 10q-76.5 20 -114.5 45v102q39 -29 114 -53t162 -24q73 0 120 15t68 39t21 51q0 36 -29 57.5t-72 33t-118 25.5q-100 18 -161.5 37t-105.5 60t-44 112q0 53 35 98.5t110 73.5t188 28q87 0 167.5 -22.5t124.5 -49.5v-104q-42 32 -122.5 59t-169.5 27q-81 0 -132 -16
t-73.5 -41t-22.5 -53q0 -35 28 -56t70 -32t118 -25q100 -18 162.5 -37t107 -61t44.5 -114q0 -52 -34 -96.5t-103.5 -71.5t-171.5 -27q-90 0 -166.5 20zM345 -305v80h10q33 0 49 13.5t16 36.5h-5q-8 -10 -26 -10q-21 0 -35 14.5t-14 38.5q0 25 15.5 41t40.5 16q28 0 46 -21
t18 -69q0 -65 -31.5 -102.5t-78.5 -37.5h-5z" />
    <glyph glyph-name="uni0219" unicode="&#x219;" horiz-adv-x="605" 
d="M171 8.5q-68 18.5 -105 39.5v94q36 -25 104 -46t139 -21q91 0 126 19t35 52q0 27 -22.5 43.5t-56.5 25t-95 19.5q-82 15 -132.5 29.5t-87 48.5t-36.5 93q0 42 27.5 77t87 56.5t151.5 21.5q77 0 151 -20.5t108 -43.5v-93q-35 26 -109.5 49t-149.5 23q-91 0 -128.5 -19.5
t-37.5 -50.5q0 -36 41 -52t126 -30q84 -15 136 -30t89.5 -50.5t37.5 -96.5q0 -40 -28 -75.5t-87 -58t-146 -22.5q-70 0 -138 18.5zM265 -305v80h10q33 0 49 13.5t16 36.5h-5q-8 -10 -26 -10q-21 0 -35 14.5t-14 38.5q0 25 15.5 41t40.5 16q28 0 46 -21t18 -69
q0 -65 -31.5 -102.5t-78.5 -37.5h-5z" />
    <glyph glyph-name="uni021A" unicode="&#x21a;" horiz-adv-x="700" 
d="M20 700h660v-95h-280v-605h-100v605h-280v95zM295 -305v80h10q33 0 49 13.5t16 36.5h-5q-8 -10 -26 -10q-21 0 -35 14.5t-14 38.5q0 25 15.5 41t40.5 16q28 0 46 -21t18 -69q0 -65 -31.5 -102.5t-78.5 -37.5h-5z" />
    <glyph glyph-name="uni021B" unicode="&#x21b;" horiz-adv-x="415" 
d="M157 38.5q-47 48.5 -47 140.5v281h-110v90h55q55 0 55 60v60h100v-120h160v-90h-160v-284q0 -45 24.5 -70.5t65.5 -25.5q37 0 70 11v-89q-36 -12 -82 -12q-84 0 -131 48.5zM180 -305v80h10q33 0 49 13.5t16 36.5h-5q-8 -10 -26 -10q-21 0 -35 14.5t-14 38.5q0 25 15.5 41
t40.5 16q28 0 46 -21t18 -69q0 -65 -31.5 -102.5t-78.5 -37.5h-5z" />
    <glyph glyph-name="uni0232" unicode="&#x232;" horiz-adv-x="780" 
d="M440 0h-100v160l-360 540h112l295 -450h6l295 450h112l-360 -540v-160zM580 805h-380v85h380v-85z" />
    <glyph glyph-name="uni0233" unicode="&#x233;" horiz-adv-x="610" 
d="M255 -190h-101l116 240l-275 500h117l205 -390h5l188 390h105zM494 655h-380v85h380v-85z" />
    <glyph glyph-name="uni0237" unicode="&#x237;" horiz-adv-x="230" 
d="M-95 -185v90q40 -15 74 -15q41 0 63.5 26.5t22.5 73.5v560h100v-558q0 -93 -44 -142.5t-129 -49.5q-45 0 -87 15z" />
    <glyph glyph-name="uni0244" unicode="&#x244;" horiz-adv-x="880" 
d="M875 480v-95h-100v-95q0 -90 -39 -158t-114.5 -105t-181.5 -37t-181.5 37t-114.5 105t-39 158v95h-100v95h100v220h100v-220h470v220h100v-220h100zM675 385h-470v-95q0 -99 58.5 -152t176.5 -53t176.5 53t58.5 152v95z" />
    <glyph glyph-name="uni0259" unicode="&#x259;" horiz-adv-x="750" 
d="M542 522.5q77 -37.5 117.5 -102t40.5 -145.5q0 -80 -40 -145t-113.5 -102.5t-171.5 -37.5t-171.5 37.5t-113.5 102.5t-40 145v40h546q-15 71 -78 115.5t-158 44.5q-80 0 -150.5 -22t-109.5 -49v95q40 23 111.5 42t148.5 19q105 0 182 -37.5zM527 118q58 43 70 117h-444
q13 -77 68.5 -118.5t153.5 -41.5q94 0 152 43z" />
    <glyph glyph-name="uni0289" unicode="&#x289;" horiz-adv-x="730" 
d="M725 430v-90h-80v-340h-100v88h-5q-23 -37 -78 -67.5t-127 -30.5q-122 0 -186 59t-64 166v125h-80v90h80v120h100v-120h360v120h100v-120h80zM545 340h-360v-125q0 -68 41 -106.5t119 -38.5q76 0 128.5 35.5t71.5 79.5v155z" />
    <glyph glyph-name="uni02BC" unicode="&#x2bc;" horiz-adv-x="180" 
d="M45.5 714q15.5 16 40.5 16q28 0 46 -21t18 -69q0 -79 -31 -119.5t-79 -40.5h-5v80h5q34 0 52 18t18 52h-5q-8 -10 -26 -10q-21 0 -35 14.5t-14 38.5q0 25 15.5 41z" />
    <glyph glyph-name="circumflex" unicode="&#x2c6;" horiz-adv-x="510" 
d="M150 590h-120l165 140h120l165 -140h-120l-100 85h-10z" />
    <glyph glyph-name="caron" unicode="&#x2c7;" horiz-adv-x="510" 
d="M315 590h-120l-165 140h120l100 -85h10l100 85h120z" />
    <glyph glyph-name="breve" unicode="&#x2d8;" horiz-adv-x="430" 
d="M77.5 628.5q-47.5 38.5 -47.5 101.5h90q0 -32 22.5 -48.5t72.5 -16.5t72.5 16.5t22.5 48.5h90q0 -63 -47.5 -101.5t-137.5 -38.5t-137.5 38.5z" />
    <glyph glyph-name="dotaccent" unicode="&#x2d9;" horiz-adv-x="190" 
d="M49.5 579.5q-19.5 19.5 -19.5 45.5t19.5 45.5t45.5 19.5t45.5 -19.5t19.5 -45.5t-19.5 -45.5t-45.5 -19.5t-45.5 19.5z" />
    <glyph glyph-name="ring" unicode="&#x2da;" horiz-adv-x="320" 
d="M64.5 583.5q-34.5 28.5 -34.5 71.5t34.5 71.5t95.5 28.5t95.5 -28.5t34.5 -71.5t-34.5 -71.5t-95.5 -28.5t-95.5 28.5zM204 627q16 12 16 28t-16 28t-44 12t-44 -12t-16 -28t16 -28t44 -12t44 12z" />
    <glyph glyph-name="ogonek" unicode="&#x2db;" horiz-adv-x="280" 
d="M62 -197.5q-32 22.5 -32 64.5q0 66 105 127v12l115 -6q-47 -24 -82 -53.5t-35 -57.5q0 -16 12.5 -25t36.5 -9q34 0 68 7v-73q-45 -9 -90 -9q-66 0 -98 22.5z" />
    <glyph glyph-name="tilde" unicode="&#x2dc;" horiz-adv-x="440" 
d="M254 596q-24 11 -52 31q-20 14 -33.5 21t-28.5 7q-13 0 -21.5 -8t-8.5 -22v-35h-80v45q0 44 26.5 69.5t73.5 25.5q32 0 56 -11t52 -31q20 -14 33.5 -21t28.5 -7q14 0 22 8.5t8 21.5v35h80v-45q0 -44 -26.5 -69.5t-73.5 -25.5q-32 0 -56 11z" />
    <glyph glyph-name="hungarumlaut" unicode="&#x2dd;" horiz-adv-x="550" 
d="M50 570h-10l-10 55l205 105h30l10 -80zM295 570h-10l-10 55l205 105h30l10 -80z" />
    <glyph glyph-name="gravecomb" unicode="&#x300;" horiz-adv-x="0" 
d="M-40 570h-10l-265 55l10 105h30l245 -100z" />
    <glyph glyph-name="acutecomb" unicode="&#x301;" horiz-adv-x="0" 
d="M-295 570h-10l-10 60l245 100h30l10 -105z" />
    <glyph glyph-name="uni0302" unicode="&#x302;" horiz-adv-x="0" 
d="M-360 590h-120l165 140h120l165 -140h-120l-100 85h-10z" />
    <glyph glyph-name="tildecomb" unicode="&#x303;" horiz-adv-x="0" 
d="M-186 596q-24 11 -52 31q-20 14 -33.5 21t-28.5 7q-14 0 -22 -8t-8 -22v-35h-80v45q0 44 26.5 69.5t73.5 25.5q32 0 56 -11t52 -31q20 -14 33.5 -21t28.5 -7q13 0 21.5 8.5t8.5 21.5v35h80v-45q0 -44 -26.5 -69.5t-73.5 -25.5q-32 0 -56 11z" />
    <glyph glyph-name="uni0304" unicode="&#x304;" horiz-adv-x="0" 
d="M-30 615h-380v85h380v-85z" />
    <glyph glyph-name="uni0306" unicode="&#x306;" horiz-adv-x="0" 
d="M-352.5 628.5q-47.5 38.5 -47.5 101.5h90q0 -32 22.5 -48.5t72.5 -16.5t72.5 16.5t22.5 48.5h90q0 -63 -47.5 -101.5t-137.5 -38.5t-137.5 38.5z" />
    <glyph glyph-name="uni0307" unicode="&#x307;" horiz-adv-x="0" 
d="M-140.5 579.5q-19.5 19.5 -19.5 45.5t19.5 45.5t45.5 19.5t45.5 -19.5t19.5 -45.5t-19.5 -45.5t-45.5 -19.5t-45.5 19.5z" />
    <glyph glyph-name="uni0308" unicode="&#x308;" horiz-adv-x="0" 
d="M-355.5 579.5q-19.5 19.5 -19.5 45.5t19.5 45.5t45.5 19.5t45.5 -19.5t19.5 -45.5t-19.5 -45.5t-45.5 -19.5t-45.5 19.5zM-140.5 579.5q-19.5 19.5 -19.5 45.5t19.5 45.5t45.5 19.5t45.5 -19.5t19.5 -45.5t-19.5 -45.5t-45.5 -19.5t-45.5 19.5z" />
    <glyph glyph-name="uni030A" unicode="&#x30a;" horiz-adv-x="0" 
d="M-255.5 583.5q-34.5 28.5 -34.5 71.5t34.5 71.5t95.5 28.5t95.5 -28.5t34.5 -71.5t-34.5 -71.5t-95.5 -28.5t-95.5 28.5zM-116 627q16 12 16 28t-16 28t-44 12t-44 -12t-16 -28t16 -28t44 -12t44 12z" />
    <glyph glyph-name="uni030B" unicode="&#x30b;" horiz-adv-x="0" 
d="M-500 570h-10l-10 55l205 105h30l10 -80zM-255 570h-10l-10 55l205 105h30l10 -80z" />
    <glyph glyph-name="uni030C" unicode="&#x30c;" horiz-adv-x="0" 
d="M-195 590h-120l-165 140h120l100 -85h10l100 85h120z" />
    <glyph glyph-name="uni0326" unicode="&#x326;" horiz-adv-x="0" 
d="M-145 -275v80h10q33 0 49 13.5t16 36.5h-5q-8 -10 -26 -10q-21 0 -35 14.5t-14 38.5q0 25 15.5 41t40.5 16q28 0 46 -21t18 -69q0 -65 -31.5 -102.5t-78.5 -37.5h-5z" />
    <glyph glyph-name="uni0327" unicode="&#x327;" horiz-adv-x="0" 
d="M-138 -50q51 0 79.5 -26.5t28.5 -70.5q0 -47 -36 -75t-95 -28q-47 0 -104 16v67q51 -13 90 -13q60 0 60 32q0 28 -46 28h-71l-20 20l31 105l82 -5l-15 -50h16z" />
    <glyph glyph-name="uni0328" unicode="&#x328;" horiz-adv-x="0" 
d="M-218 -197.5q-32 22.5 -32 64.5q0 66 105 127v12l115 -6q-47 -24 -82 -53.5t-35 -57.5q0 -16 12.5 -25t36.5 -9q34 0 68 7v-73q-45 -9 -90 -9q-66 0 -98 22.5z" />
    <glyph glyph-name="uni0400" unicode="&#x400;" 
d="M185 305v-210h500v-95h-600v700h580v-95h-480v-205h440v-95h-440zM515 770h-10l-265 55l10 105h30l245 -100z" />
    <glyph glyph-name="uni0401" unicode="&#x401;" 
d="M185 305v-210h500v-95h-600v700h580v-95h-480v-205h440v-95h-440zM221.5 804.5q-19.5 19.5 -19.5 45.5t19.5 45.5t45.5 19.5t45.5 -19.5t19.5 -45.5t-19.5 -45.5t-45.5 -19.5t-45.5 19.5zM436.5 804.5q-19.5 19.5 -19.5 45.5t19.5 45.5t45.5 19.5t45.5 -19.5t19.5 -45.5
t-19.5 -45.5t-45.5 -19.5t-45.5 19.5z" />
    <glyph glyph-name="uni0402" unicode="&#x402;" horiz-adv-x="980" 
d="M853 376.5q77 -58.5 77 -160.5q0 -107 -70 -166.5t-210 -59.5q-51 0 -90 8v95q37 -8 90 -8q88 0 131.5 35.5t43.5 96.5q0 56 -50.5 89.5t-155.5 33.5q-72 0 -131 -9t-128 -34v-297h-100v605h-240v95h615v-95h-275v-214q70 24 132 34t127 10q157 0 234 -58.5z" />
    <glyph glyph-name="uni0403" unicode="&#x403;" horiz-adv-x="695" 
d="M185 0h-100v700h590v-95h-490v-605zM270 770h-10l-10 60l245 100h30l10 -105z" />
    <glyph glyph-name="uni0404" unicode="&#x404;" horiz-adv-x="865" 
d="M348.5 592q-71.5 -28 -114 -78t-54.5 -114h370v-95h-371q11 -65 52 -116t108.5 -80t155.5 -29q83 0 155.5 24t114.5 54v-102q-39 -25 -112.5 -45.5t-157.5 -20.5q-132 0 -228 46.5t-146.5 128.5t-50.5 185q0 104 51.5 185.5t152 128t241.5 46.5q88 0 165.5 -23t119.5 -52
v-105q-40 34 -117.5 62t-167.5 28q-95 0 -166.5 -28z" />
    <glyph glyph-name="uni0405" unicode="&#x405;" horiz-adv-x="760" 
d="M219.5 10q-76.5 20 -114.5 45v102q39 -29 114 -53t162 -24q73 0 120 15t68 39t21 51q0 36 -29 57.5t-72 33t-118 25.5q-100 18 -161.5 37t-105.5 60t-44 112q0 53 35 98.5t110 73.5t188 28q87 0 167.5 -22.5t124.5 -49.5v-104q-42 32 -122.5 59t-169.5 27q-81 0 -132 -16
t-73.5 -41t-22.5 -53q0 -35 28 -56t70 -32t118 -25q100 -18 162.5 -37t107 -61t44.5 -114q0 -52 -34 -96.5t-103.5 -71.5t-171.5 -27q-90 0 -166.5 20z" />
    <glyph glyph-name="uni0406" unicode="&#x406;" 
d="M700 700v-95h-280v-510h280v-95h-660v95h280v510h-280v95h660z" />
    <glyph glyph-name="uni0407" unicode="&#x407;" 
d="M700 700v-95h-280v-510h280v-95h-660v95h280v510h-280v95h660zM216.5 804.5q-19.5 19.5 -19.5 45.5t19.5 45.5t45.5 19.5t45.5 -19.5t19.5 -45.5t-19.5 -45.5t-45.5 -19.5t-45.5 19.5zM431.5 804.5q-19.5 19.5 -19.5 45.5t19.5 45.5t45.5 19.5t45.5 -19.5t19.5 -45.5
t-19.5 -45.5t-45.5 -19.5t-45.5 19.5z" />
    <glyph glyph-name="uni0408" unicode="&#x408;" horiz-adv-x="560" 
d="M15 20v96q92 -31 172 -31q88 0 138 44.5t50 132.5v438h100v-443q0 -129 -75.5 -198t-212.5 -69q-83 0 -172 30z" />
    <glyph glyph-name="uni0409" unicode="&#x409;" horiz-adv-x="1265" 
d="M940 440q139 0 207 -58t68 -162t-68 -162t-207 -58h-365v605h-335l-5 -135q-4 -116 -24 -212.5t-47.5 -161.5t-53.5 -96h-105v10q29 31 57.5 95t49.5 158t25 207l8 230h530v-260h265zM940 95q87 0 128.5 33t41.5 92t-41.5 92t-128.5 33h-265v-250h265z" />
    <glyph glyph-name="uni040A" unicode="&#x40a;" horiz-adv-x="1330" 
d="M1010 430q135 0 202.5 -57t67.5 -158t-67.5 -158t-202.5 -57h-370v335h-455v-335h-100v700h100v-270h455v270h100v-270h270zM1010 95q83 0 124 32.5t41 87.5t-41 87.5t-124 32.5h-270v-240h270z" />
    <glyph glyph-name="uni040B" unicode="&#x40b;" horiz-adv-x="990" 
d="M844 364.5q86 -70.5 86 -201.5v-163h-100v162q0 89 -59.5 133.5t-169.5 44.5q-123 0 -241 -46v-294h-100v605h-240v95h615v-95h-275v-216q127 46 241 46q157 0 243 -70.5z" />
    <glyph glyph-name="uni040C" unicode="&#x40c;" horiz-adv-x="755" 
d="M185 0h-100v700h100v-316l440 316h150l-460 -330v-5l430 -365h-148l-412 350v-350zM290 770h-10l-10 60l245 100h30l10 -105z" />
    <glyph glyph-name="uni040D" unicode="&#x40d;" horiz-adv-x="830" 
d="M230 0h-145v700h100v-595h5l410 595h145v-700h-100v595h-5zM540 770h-10l-265 55l10 105h30l245 -100z" />
    <glyph glyph-name="uni040E" unicode="&#x40e;" horiz-adv-x="750" 
d="M650 700h110l-310 -550q-47 -85 -103 -122.5t-141 -37.5q-40 0 -81 7v85q41 -7 76 -7q44 0 84 20t58 55l1 2l-344 548h115l280 -450h5zM231 812.5q-51 42.5 -51 112.5h90q0 -75 110 -75t110 75h90q0 -70 -51 -112.5t-149 -42.5t-149 42.5z" />
    <glyph glyph-name="uni040F" unicode="&#x40f;" horiz-adv-x="850" 
d="M485 -190h-120v50l20 120v20h-300v700h100v-605h480v605h100v-700h-300v-20l20 -120v-50z" />
    <glyph glyph-name="uni0410" unicode="&#x410;" horiz-adv-x="840" 
d="M840 0h-105l-92 180h-446l-92 -180h-105l360 700h120zM417 610l-171 -335h348l-171 335h-6z" />
    <glyph glyph-name="uni0411" unicode="&#x411;" horiz-adv-x="780" 
d="M455 430q131 0 200.5 -59t69.5 -156t-70.5 -156t-204.5 -59h-365v700h580v-95h-480v-175h270zM450 95q86 0 128 32.5t42 87.5t-42 87.5t-128 32.5h-265v-240h265z" />
    <glyph glyph-name="uni0412" unicode="&#x412;" horiz-adv-x="810" 
d="M505 345q108 0 164 -45t56 -120q0 -80 -67 -130t-203 -50h-370v700h385q91 0 153 -24.5t92 -65.5t30 -90q0 -79 -59 -124.5t-181 -45.5v-5zM185 605v-210h285q89 0 129.5 28.5t40.5 76.5t-40.5 76.5t-129.5 28.5h-285zM450 95q93 0 131.5 26.5t38.5 78.5q0 48 -38.5 74
t-131.5 26h-265v-205h265z" />
    <glyph glyph-name="uni0413" unicode="&#x413;" horiz-adv-x="695" 
d="M185 0h-100v700h590v-95h-490v-605z" />
    <glyph glyph-name="uni0414" unicode="&#x414;" horiz-adv-x="825" 
d="M700 95h95v-285h-100v190h-595v-190h-100v285h74q21 22 40.5 76t33 141.5t13.5 202.5v185h539v-605zM187 95h413v510h-339v-95q0 -157 -23 -264t-51 -146v-5z" />
    <glyph glyph-name="uni0415" unicode="&#x415;" 
d="M185 305v-210h500v-95h-600v700h580v-95h-480v-205h440v-95h-440z" />
    <glyph glyph-name="uni0416" unicode="&#x416;" horiz-adv-x="1210" 
d="M150 0h-140l415 365v5l-440 330h150l420 -316v316h100v-316l420 316h150l-440 -330v-5l415 -365h-140l-405 358v-358h-100v358z" />
    <glyph glyph-name="uni0417" unicode="&#x417;" horiz-adv-x="750" 
d="M200 5.5q-72 15.5 -115 33.5v99q42 -21 115 -39.5t155 -18.5q115 0 167.5 31.5t52.5 78.5q0 54 -53.5 84.5t-186.5 30.5h-125v95h125q123 0 179 30.5t56 79.5q0 47 -52 78.5t-166 31.5q-87 0 -164 -23.5t-123 -52.5v102q45 24 121.5 44t165.5 20q109 0 182 -26.5t107 -70
t34 -93.5q0 -56 -29 -92t-72 -53t-89 -18v-5q45 -2 90 -21t75 -57t30 -94q0 -50 -34.5 -93.5t-108 -70t-182.5 -26.5q-83 0 -155 15.5z" />
    <glyph glyph-name="uni0418" unicode="&#x418;" horiz-adv-x="830" 
d="M230 0h-145v700h100v-595h5l410 595h145v-700h-100v595h-5z" />
    <glyph glyph-name="uni0419" unicode="&#x419;" horiz-adv-x="830" 
d="M230 0h-145v700h100v-595h5l410 595h145v-700h-100v595h-5zM266 812.5q-51 42.5 -51 112.5h90q0 -75 110 -75t110 75h90q0 -70 -51 -112.5t-149 -42.5t-149 42.5z" />
    <glyph glyph-name="uni041A" unicode="&#x41a;" horiz-adv-x="755" 
d="M185 0h-100v700h100v-316l440 316h150l-460 -330v-5l430 -365h-148l-412 350v-350z" />
    <glyph glyph-name="uni041B" unicode="&#x41b;" horiz-adv-x="785" 
d="M5 10q29 31 57.5 95t49.5 158t25 207l8 230h555v-700h-100v605h-360l-5 -135q-4 -116 -24 -212.5t-47.5 -161.5t-53.5 -96h-105v10z" />
    <glyph glyph-name="uni041C" unicode="&#x41c;" horiz-adv-x="1055" 
d="M865 615l-335 -635l-340 635h-5v-615h-100v700h172l276 -519h5l265 519h167v-700h-100v615h-5z" />
    <glyph glyph-name="uni041D" unicode="&#x41d;" horiz-adv-x="850" 
d="M665 400v300h100v-700h-100v305h-480v-305h-100v700h100v-300h480z" />
    <glyph glyph-name="uni041E" unicode="&#x41e;" horiz-adv-x="1030" 
d="M273.5 36.5q-100.5 46.5 -152 128t-51.5 185.5t51.5 185.5t152 128t241.5 46.5t241.5 -46.5t152 -128t51.5 -185.5t-51.5 -185.5t-152 -128t-241.5 -46.5t-241.5 46.5zM698.5 115.5q76.5 35.5 116.5 97t40 137.5t-40 137.5t-116.5 97t-183.5 35.5t-183.5 -35.5
t-116.5 -97t-40 -137.5t40 -137.5t116.5 -97t183.5 -35.5t183.5 35.5z" />
    <glyph glyph-name="uni041F" unicode="&#x41f;" horiz-adv-x="850" 
d="M185 0h-100v700h680v-700h-100v605h-480v-605z" />
    <glyph glyph-name="uni0420" unicode="&#x420;" horiz-adv-x="805" 
d="M480 700q135 0 205 -60.5t70 -164.5t-70 -164.5t-205 -60.5h-295v-250h-100v700h395zM480 345q83 0 126.5 35.5t43.5 94.5t-43.5 94.5t-126.5 35.5h-295v-260h295z" />
    <glyph glyph-name="uni0421" unicode="&#x421;" horiz-adv-x="865" 
d="M267 36.5q-96 46.5 -146.5 128.5t-50.5 185q0 104 51.5 185.5t152 128t241.5 46.5q88 0 165.5 -23t119.5 -52v-105q-40 34 -117.5 62t-167.5 28q-107 0 -183.5 -35.5t-116.5 -97t-40 -137.5q0 -75 38.5 -137t111.5 -97.5t170 -35.5q84 0 158.5 21.5t116.5 47.5v-102
q-41 -22 -116 -39.5t-159 -17.5q-132 0 -228 46.5z" />
    <glyph glyph-name="uni0422" unicode="&#x422;" horiz-adv-x="700" 
d="M20 700h660v-95h-280v-605h-100v605h-280v95z" />
    <glyph glyph-name="uni0423" unicode="&#x423;" horiz-adv-x="750" 
d="M650 700h110l-310 -550q-47 -85 -103 -122.5t-141 -37.5q-40 0 -81 7v85q41 -7 76 -7q44 0 84 20t58 55l1 2l-344 548h115l280 -450h5z" />
    <glyph glyph-name="uni0424" unicode="&#x424;" horiz-adv-x="1090" 
d="M725 620q95 0 164 -33.5t105 -93.5t36 -138t-36 -138t-105 -93.5t-164 -33.5h-130v-100h-100v100h-130q-95 0 -164 33.5t-105 93.5t-36 138t36 138t105 93.5t164 33.5h130v90h100v-90h130zM495 180v350h-130q-96 0 -148 -47.5t-52 -127.5t52 -127.5t148 -47.5h130z
M725 180q96 0 148 47.5t52 127.5t-52 127.5t-148 47.5h-130v-350h130z" />
    <glyph glyph-name="uni0425" unicode="&#x425;" horiz-adv-x="725" 
d="M120 0h-120l304 360l-289 340h120l225 -270h5l225 270h120l-288 -340l303 -360h-120l-240 290h-5z" />
    <glyph glyph-name="uni0426" unicode="&#x426;" horiz-adv-x="870" 
d="M840 -190h-100v190h-655v700h100v-605h460v605h100v-605h95v-285z" />
    <glyph glyph-name="uni0427" unicode="&#x427;" horiz-adv-x="830" 
d="M645 700h100v-700h-100v286q-127 -46 -241 -46q-157 0 -243 70.5t-86 201.5v188h100v-187q0 -89 59.5 -133.5t169.5 -44.5q123 0 241 46v319z" />
    <glyph glyph-name="uni0428" unicode="&#x428;" horiz-adv-x="1130" 
d="M1045 0h-960v700h100v-605h330v605h100v-605h330v605h100v-700z" />
    <glyph glyph-name="uni0429" unicode="&#x429;" horiz-adv-x="1170" 
d="M1140 -190h-100v190h-955v700h100v-605h330v605h100v-605h330v605h100v-605h95v-285z" />
    <glyph glyph-name="uni042A" unicode="&#x42a;" horiz-adv-x="870" 
d="M180 0v605h-170v95h270v-260h265q139 0 207 -58t68 -162t-68 -162t-207 -58h-365zM545 95q87 0 128.5 33t41.5 92t-41.5 92t-128.5 33h-265v-250h265z" />
    <glyph glyph-name="uni042B" unicode="&#x42b;" horiz-adv-x="990" 
d="M85 0v700h100v-260h265q139 0 207 -58t68 -162t-68 -162t-207 -58h-365zM905 0h-100v700h100v-700zM450 95q87 0 128.5 33t41.5 92t-41.5 92t-128.5 33h-265v-250h265z" />
    <glyph glyph-name="uni042C" unicode="&#x42c;" horiz-adv-x="805" 
d="M85 0v700h100v-260h295q139 0 207 -58t68 -162t-68 -162t-207 -58h-395zM480 95q87 0 128.5 33t41.5 92t-41.5 92t-128.5 33h-295v-250h295z" />
    <glyph glyph-name="uni042D" unicode="&#x42d;" horiz-adv-x="860" 
d="M586.5 663.5q100.5 -46.5 152 -128t51.5 -185.5q0 -103 -50.5 -185t-146.5 -128.5t-228 -46.5q-86 0 -159.5 17.5t-115.5 39.5v102q43 -26 117 -47.5t158 -21.5q88 0 155.5 29t108.5 80t52 116h-371v95h370q-12 64 -54.5 114t-114 78t-166.5 28q-90 0 -167.5 -28
t-117.5 -62v105q42 29 119.5 52t165.5 23q141 0 241.5 -46.5z" />
    <glyph glyph-name="uni042E" unicode="&#x42e;" horiz-adv-x="1230" 
d="M963 663.5q96 -46.5 146.5 -128.5t50.5 -185t-50.5 -185t-146.5 -128.5t-228 -46.5q-123 0 -215 41t-145 113.5t-63 165.5h-127v-310h-100v700h100v-295h129q13 89 66.5 158t144 108t210.5 39q132 0 228 -46.5zM905 115.5q73 35.5 111.5 97.5t38.5 137t-38.5 137
t-111.5 97.5t-170 35.5t-170 -35.5t-111.5 -97.5t-38.5 -137t38.5 -137t111.5 -97.5t170 -35.5t170 35.5z" />
    <glyph glyph-name="uni042F" unicode="&#x42f;" horiz-adv-x="815" 
d="M730 700v-700h-100v250h-239l-181 -250h-120l185 255q-99 11 -157 69.5t-58 150.5q0 66 31.5 117t93.5 79.5t150 28.5h395zM630 345v260h-295q-83 0 -126.5 -35.5t-43.5 -94.5t43.5 -94.5t126.5 -35.5h295z" />
    <glyph glyph-name="uni0430" unicode="&#x430;" horiz-adv-x="680" 
d="M100 35.5q-55 45.5 -55 119.5q0 80 64.5 127.5t199.5 47.5q93 0 138 6.5t59 19t14 34.5q0 85 -185 85q-72 0 -142 -21.5t-113 -48.5v95q36 23 105.5 41.5t154.5 18.5q151 0 215.5 -46t64.5 -134v-380h-100v86q-32 -36 -102 -66t-158 -30q-105 0 -160 45.5zM432.5 103
q62.5 28 87.5 63v123q-10 -13 -65 -23.5t-150 -10.5q-160 0 -160 -95q0 -37 34.5 -61t105.5 -24q85 0 147.5 28z" />
    <glyph glyph-name="uni0431" unicode="&#x431;" horiz-adv-x="760" 
d="M55 280v40q0 162 69 238.5t206 76.5h165q62 0 91 25t29 74v20h95v-20q0 -87 -54 -135.5t-161 -48.5h-165q-92 0 -135.5 -40.5t-49.5 -124.5h5q27 36 88 60.5t152 24.5q107 0 180 -31t109 -85.5t36 -123.5t-36.5 -123.5t-110.5 -85.5t-183 -31q-330 0 -330 290z
M555.5 116.5q59.5 41.5 59.5 113.5t-59.5 113.5t-170.5 41.5t-170.5 -41.5t-59.5 -113.5t59.5 -113.5t170.5 -41.5t170.5 41.5z" />
    <glyph glyph-name="uni0432" unicode="&#x432;" horiz-adv-x="660" 
d="M425 260q92 0 138.5 -34t46.5 -86q0 -60 -52.5 -100t-152.5 -40h-340v550h320q74 0 125 -20.5t75.5 -54.5t24.5 -75q0 -36 -21.5 -67t-63.5 -49.5t-100 -18.5v-5zM165 465v-160h215q67 0 98.5 22t31.5 58t-31.5 58t-98.5 22h-215zM400 85q57 0 83.5 18.5t26.5 48.5
q0 31 -26.5 49.5t-83.5 18.5h-235v-135h235z" />
    <glyph glyph-name="uni0433" unicode="&#x433;" horiz-adv-x="545" 
d="M165 0h-100v550h465v-90h-365v-460z" />
    <glyph glyph-name="uni0434" unicode="&#x434;" horiz-adv-x="695" 
d="M0 -160v250h70q26 34 48 121t22 209v130h455v-460h90v-250h-100v160h-485v-160h-100zM175 90h320v370h-255v-40q0 -108 -20.5 -195.5t-44.5 -129.5v-5z" />
    <glyph glyph-name="uni0435" unicode="&#x435;" horiz-adv-x="695" 
d="M205 27.5q-75 37.5 -115 102.5t-40 145q0 79 38.5 144.5t107 103t154.5 37.5t153 -36.5t104.5 -101.5t37.5 -147v-40h-500q15 -73 77 -116.5t158 -43.5q65 0 125 21.5t95 48.5v-95q-35 -23 -95 -41.5t-125 -18.5q-100 0 -175 37.5zM545 315q-9 67 -57.5 113.5
t-132.5 46.5q-85 0 -142 -44t-68 -116h400z" />
    <glyph glyph-name="uni0436" unicode="&#x436;" horiz-adv-x="930" 
d="M135 0h-140l317 285l-322 265h140l285 -240v240h100v-240l285 240h140l-322 -265l317 -285h-140l-280 260v-260h-100v260z" />
    <glyph glyph-name="uni0437" unicode="&#x437;" horiz-adv-x="595" 
d="M162.5 5.5q-62.5 15.5 -97.5 34.5v94q36 -22 97 -40.5t125 -18.5q163 0 163 77q0 78 -173 78h-102v85h100q87 0 128.5 23.5t41.5 58.5t-37.5 56.5t-122.5 21.5q-71 0 -134.5 -17.5t-100.5 -38.5v92q38 19 100 34t135 15q88 0 146.5 -21t86 -56t27.5 -76q0 -31 -22 -61
t-62 -49.5t-91 -21.5v-5q84 -2 132 -38.5t48 -89.5q0 -41 -27.5 -75.5t-85.5 -55.5t-145 -21q-67 0 -129.5 15.5z" />
    <glyph glyph-name="uni0438" unicode="&#x438;" horiz-adv-x="685" 
d="M200 0h-135v550h100v-445h5l315 445h135v-550h-100v445h-5z" />
    <glyph glyph-name="uni0439" unicode="&#x439;" horiz-adv-x="685" 
d="M200 0h-135v550h100v-445h5l315 445h135v-550h-100v445h-5zM208.5 667q-43.5 37 -43.5 103h80q0 -32 22.5 -48.5t72.5 -16.5t72.5 16.5t22.5 48.5h80q0 -66 -43.5 -103t-131.5 -37t-131.5 37z" />
    <glyph glyph-name="uni043A" unicode="&#x43a;" horiz-adv-x="610" 
d="M165 0h-100v550h100v-245l310 245h145l-349 -265l349 -285h-145l-310 260v-260z" />
    <glyph glyph-name="uni043B" unicode="&#x43b;" horiz-adv-x="625" 
d="M0 5q33 37 62 136.5t33 238.5l5 170h460v-550h-100v460h-260l-5 -90q-8 -140 -35 -238t-55 -132h-105v5z" />
    <glyph glyph-name="uni043C" unicode="&#x43c;" horiz-adv-x="870" 
d="M700 455l-260 -475l-270 475h-5v-455h-100v550h165l209 -373h5l201 373h160v-550h-100v455h-5z" />
    <glyph glyph-name="uni043D" unicode="&#x43d;" horiz-adv-x="690" 
d="M525 330v220h100v-550h-100v240h-360v-240h-100v550h100v-220h360z" />
    <glyph glyph-name="uni043E" unicode="&#x43e;" horiz-adv-x="770" 
d="M207 27.5q-76 37.5 -116.5 102.5t-40.5 145t40.5 145t116.5 102.5t178 37.5t178 -37.5t116.5 -102.5t40.5 -145t-40.5 -145t-116.5 -102.5t-178 -37.5t-178 37.5zM559.5 129q60.5 54 60.5 146t-60.5 146t-174.5 54t-174.5 -54t-60.5 -146t60.5 -146t174.5 -54t174.5 54z
" />
    <glyph glyph-name="uni043F" unicode="&#x43f;" horiz-adv-x="690" 
d="M165 0h-100v550h560v-550h-100v460h-360v-460z" />
    <glyph glyph-name="uni0440" unicode="&#x440;" horiz-adv-x="750" 
d="M65 -190v740h100v-70h5q29 30 87 55t128 25q93 0 164.5 -37.5t111 -102.5t39.5 -145t-39.5 -145t-111 -102.5t-164.5 -37.5q-70 0 -128 25t-87 55h-5v-260h-100zM491 100.5q53 25.5 81 71t28 103.5t-28 103.5t-81 71t-126 25.5q-68 0 -121.5 -26t-78.5 -59v-230
q25 -32 78.5 -58.5t121.5 -26.5q73 0 126 25.5z" />
    <glyph glyph-name="uni0441" unicode="&#x441;" horiz-adv-x="655" 
d="M206 27.5q-74 37.5 -115 102.5t-41 145t41 145t116 102.5t173 37.5q74 0 136 -18.5t99 -41.5v-95q-37 27 -99 48.5t-136 21.5q-69 0 -121 -25t-80.5 -70t-28.5 -105q0 -59 28 -104.5t79 -70.5t118 -25q69 0 127.5 19t92.5 43v-92q-33 -21 -92 -38t-128 -17
q-95 0 -169 37.5z" />
    <glyph glyph-name="uni0442" unicode="&#x442;" horiz-adv-x="620" 
d="M360 0h-100v460h-250v90h600v-90h-250v-460z" />
    <glyph glyph-name="uni0443" unicode="&#x443;" horiz-adv-x="610" 
d="M255 -190h-101l116 240l-275 500h117l205 -390h5l188 390h105z" />
    <glyph glyph-name="uni0444" unicode="&#x444;" horiz-adv-x="950" 
d="M595 550q94 0 161.5 -34t103 -96t35.5 -145t-35.5 -145t-103 -96t-161.5 -34h-70v-190h-100v190h-70q-94 0 -161.5 34t-103 96t-35.5 145t35.5 145t103 96t161.5 34h70v170h100v-170h70zM425 85v380h-70q-97 0 -148.5 -49.5t-51.5 -140.5t51.5 -140.5t148.5 -49.5h70z
M595 85q97 0 148.5 49.5t51.5 140.5t-51.5 140.5t-148.5 49.5h-70v-380h70z" />
    <glyph glyph-name="uni0445" unicode="&#x445;" horiz-adv-x="595" 
d="M113 0h-113l239 277l-231 273h120l170 -205h5l171 205h113l-231 -269l239 -281h-120l-180 210h-5z" />
    <glyph glyph-name="uni0446" unicode="&#x446;" horiz-adv-x="705" 
d="M695 -160h-100v160h-530v550h100v-460h340v460h100v-460h90v-250z" />
    <glyph glyph-name="uni0447" unicode="&#x447;" horiz-adv-x="660" 
d="M495 550h100v-550h-100v190q-88 -25 -176 -25q-121 0 -192.5 59t-71.5 175v151h100v-156q0 -68 47 -103.5t122 -35.5q87 0 171 25v270z" />
    <glyph glyph-name="uni0448" unicode="&#x448;" horiz-adv-x="940" 
d="M875 0h-810v550h100v-460h255v460h100v-460h255v460h100v-550z" />
    <glyph glyph-name="uni0449" unicode="&#x449;" horiz-adv-x="975" 
d="M965 -160h-100v160h-800v550h100v-460h255v460h100v-460h255v460h100v-460h90v-250z" />
    <glyph glyph-name="uni044A" unicode="&#x44a;" horiz-adv-x="755" 
d="M485 370q113 0 171.5 -50t58.5 -135t-58.5 -135t-171.5 -50h-330v460h-155v90h255v-180h230zM485 90q65 0 97.5 26t32.5 69t-32.5 69t-97.5 26h-230v-190h230z" />
    <glyph glyph-name="uni044B" unicode="&#x44b;" horiz-adv-x="855" 
d="M395 370q113 0 171.5 -50t58.5 -135t-58.5 -135t-171.5 -50h-330v550h100v-180h230zM690 0v550h100v-550h-100zM395 90q65 0 97.5 26t32.5 69t-32.5 69t-97.5 26h-230v-190h230z" />
    <glyph glyph-name="uni044C" unicode="&#x44c;" horiz-adv-x="675" 
d="M405 370q113 0 171.5 -50t58.5 -135t-58.5 -135t-171.5 -50h-340v550h100v-180h240zM405 90q65 0 97.5 26t32.5 69t-32.5 69t-97.5 26h-240v-190h240z" />
    <glyph glyph-name="uni044D" unicode="&#x44d;" horiz-adv-x="660" 
d="M454 522.5q74 -37.5 115 -102.5t41 -145t-40.5 -145t-114 -102.5t-170.5 -37.5q-72 0 -132 18t-88 38v92q28 -23 88 -43t132 -20q92 0 149.5 41.5t71.5 113.5h-331v85h332q-13 74 -71 117t-151 43q-79 0 -141 -21t-99 -49v95q37 24 99 42t141 18q95 0 169 -37.5z" />
    <glyph glyph-name="uni044E" unicode="&#x44e;" horiz-adv-x="955" 
d="M752.5 523.5q74.5 -36.5 113.5 -101t39 -147.5t-39 -147.5t-113.5 -101t-177.5 -36.5q-93 0 -163.5 30t-112 84.5t-51.5 125.5h-83v-230h-100v550h100v-230h83q10 71 51.5 125.5t112 84.5t163.5 30q103 0 177.5 -36.5zM745 129q60 54 60 146t-60 146t-170 54t-170 -54
t-60 -146t60 -146t170 -54t170 54z" />
    <glyph glyph-name="uni044F" unicode="&#x44f;" horiz-adv-x="645" 
d="M50 0l185 190v5q-46 1 -91 20t-74.5 58t-29.5 97q0 82 58.5 131t171.5 49h310v-550h-100v190h-125l-180 -190h-125zM480 275v190h-210q-65 0 -97.5 -26t-32.5 -69t32.5 -69t97.5 -26h210z" />
    <glyph glyph-name="uni0450" unicode="&#x450;" horiz-adv-x="695" 
d="M205 27.5q-75 37.5 -115 102.5t-40 145q0 79 38.5 144.5t107 103t154.5 37.5t153 -36.5t104.5 -101.5t37.5 -147v-40h-500q15 -73 77 -116.5t158 -43.5q65 0 125 21.5t95 48.5v-95q-35 -23 -95 -41.5t-125 -18.5q-100 0 -175 37.5zM545 315q-9 67 -57.5 113.5
t-132.5 46.5q-85 0 -142 -44t-68 -116h400zM490 620h-10l-265 55l10 105h30l245 -100z" />
    <glyph glyph-name="uni0451" unicode="&#x451;" horiz-adv-x="695" 
d="M205 27.5q-75 37.5 -115 102.5t-40 145q0 79 38.5 144.5t107 103t154.5 37.5t153 -36.5t104.5 -101.5t37.5 -147v-40h-500q15 -73 77 -116.5t158 -43.5q65 0 125 21.5t95 48.5v-95q-35 -23 -95 -41.5t-125 -18.5q-100 0 -175 37.5zM545 315q-9 67 -57.5 113.5
t-132.5 46.5q-85 0 -142 -44t-68 -116h400zM191.5 654.5q-19.5 19.5 -19.5 45.5t19.5 45.5t45.5 19.5t45.5 -19.5t19.5 -45.5t-19.5 -45.5t-45.5 -19.5t-45.5 19.5zM406.5 654.5q-19.5 19.5 -19.5 45.5t19.5 45.5t45.5 19.5t45.5 -19.5t19.5 -45.5t-19.5 -45.5t-45.5 -19.5
t-45.5 19.5z" />
    <glyph glyph-name="uni0452" unicode="&#x452;" horiz-adv-x="715" 
d="M601 366q64 -59 64 -166v-208q0 -93 -44 -142.5t-131 -49.5q-48 0 -90 15v90q41 -15 77 -15q42 0 65 26t23 74v210q0 68 -41 106.5t-119 38.5q-76 0 -128.5 -35.5t-71.5 -79.5v-230h-100v500h-105v90h105v130h100v-130h220v-90h-220v-173h5q23 37 78 67.5t127 30.5
q122 0 186 -59z" />
    <glyph glyph-name="uni0453" unicode="&#x453;" horiz-adv-x="545" 
d="M165 0h-100v550h465v-90h-365v-460zM185 620h-10l-10 60l245 100h30l10 -105z" />
    <glyph glyph-name="uni0454" unicode="&#x454;" horiz-adv-x="655" 
d="M226.5 431.5q-59.5 -43.5 -72.5 -116.5h331v-85h-330q14 -71 73 -113t147 -42q72 0 132 20t88 43v-92q-28 -20 -88 -38t-132 -18q-97 0 -170.5 37.5t-114 102.5t-40.5 145t41 145t115 102.5t169 37.5q79 0 141 -18t99 -42v-95q-37 28 -99 49t-141 21q-89 0 -148.5 -43.5z
" />
    <glyph glyph-name="uni0455" unicode="&#x455;" horiz-adv-x="605" 
d="M171 8.5q-68 18.5 -105 39.5v94q36 -25 104 -46t139 -21q91 0 126 19t35 52q0 27 -22.5 43.5t-56.5 25t-95 19.5q-82 15 -132.5 29.5t-87 48.5t-36.5 93q0 42 27.5 77t87 56.5t151.5 21.5q77 0 151 -20.5t108 -43.5v-93q-35 26 -109.5 49t-149.5 23q-91 0 -128.5 -19.5
t-37.5 -50.5q0 -36 41 -52t126 -30q84 -15 136 -30t89.5 -50.5t37.5 -96.5q0 -40 -28 -75.5t-87 -58t-146 -22.5q-70 0 -138 18.5z" />
    <glyph glyph-name="uni0456" unicode="&#x456;" horiz-adv-x="230" 
d="M63 614.5q-18 14.5 -18 40.5t18 40.5t52 14.5t52 -14.5t18 -40.5t-18 -40.5t-52 -14.5t-52 14.5zM65 0v550h5h45h45h5v-550h-100z" />
    <glyph glyph-name="uni0457" unicode="&#x457;" horiz-adv-x="230" 
d="M165 0h-100v550h100v-550zM-38.5 654.5q-19.5 19.5 -19.5 45.5t19.5 45.5t45.5 19.5t45.5 -19.5t19.5 -45.5t-19.5 -45.5t-45.5 -19.5t-45.5 19.5zM176.5 654.5q-19.5 19.5 -19.5 45.5t19.5 45.5t45.5 19.5t45.5 -19.5t19.5 -45.5t-19.5 -45.5t-45.5 -19.5t-45.5 19.5z
" />
    <glyph glyph-name="uni0458" unicode="&#x458;" horiz-adv-x="230" 
d="M63 614.5q-18 14.5 -18 40.5t18 40.5t52 14.5t52 -14.5t18 -40.5t-18 -40.5t-52 -14.5t-52 14.5zM-95 -187v86q40 -9 68 -9q43 0 67.5 26.5t24.5 73.5v560h5h45h45h5v-558q0 -93 -44 -142.5t-129 -49.5q-47 0 -87 13z" />
    <glyph glyph-name="uni0459" unicode="&#x459;" horiz-adv-x="1055" 
d="M785 370q113 0 171.5 -50t58.5 -135t-58.5 -135t-171.5 -50h-330v460h-255l-5 -90q-8 -140 -35 -238t-55 -132h-105v5q33 37 62 136.5t33 238.5l5 170h455v-180h230zM785 90q65 0 97.5 26t32.5 69t-32.5 69t-97.5 26h-230v-190h230z" />
    <glyph glyph-name="uni045A" unicode="&#x45a;" horiz-adv-x="1115" 
d="M850 360q109 0 167 -49t58 -131t-58 -131t-167 -49h-335v270h-350v-270h-100v550h100v-190h350v190h100v-190h235zM850 90q61 0 93 25t32 65t-32 65t-93 25h-235v-180h235z" />
    <glyph glyph-name="uni045B" unicode="&#x45b;" horiz-adv-x="715" 
d="M601 366q64 -59 64 -166v-200h-100v200q0 68 -41 106.5t-119 38.5q-76 0 -128.5 -35.5t-71.5 -79.5v-230h-100v500h-105v90h105v130h100v-130h220v-90h-220v-173h5q23 37 78 67.5t127 30.5q122 0 186 -59z" />
    <glyph glyph-name="uni045C" unicode="&#x45c;" horiz-adv-x="610" 
d="M165 0h-100v550h100v-245l310 245h145l-349 -265l349 -285h-145l-310 260v-260zM205 620h-10l-10 60l245 100h30l10 -105z" />
    <glyph glyph-name="uni045D" unicode="&#x45d;" horiz-adv-x="685" 
d="M200 0h-135v550h100v-445h5l315 445h135v-550h-100v445h-5zM485 620h-10l-265 55l10 105h30l245 -100z" />
    <glyph glyph-name="uni045E" unicode="&#x45e;" horiz-adv-x="610" 
d="M255 -190h-101l116 240l-275 500h117l205 -390h5l188 390h105zM172.5 667q-43.5 37 -43.5 103h80q0 -32 22.5 -48.5t72.5 -16.5t72.5 16.5t22.5 48.5h80q0 -66 -43.5 -103t-131.5 -37t-131.5 37z" />
    <glyph glyph-name="uni045F" unicode="&#x45f;" horiz-adv-x="690" 
d="M405 -160h-115v40l20 110v10h-245v550h100v-460h360v460h100v-550h-240v-10l20 -110v-40z" />
    <glyph glyph-name="uni0490" unicode="&#x490;" horiz-adv-x="695" 
d="M185 0h-100v700h495l15 120h80v-215h-490v-605z" />
    <glyph glyph-name="uni0491" unicode="&#x491;" horiz-adv-x="545" 
d="M165 0h-100v550h365l20 105h80v-195h-365v-460z" />
    <glyph glyph-name="uni0492" unicode="&#x492;" horiz-adv-x="730" 
d="M705 700v-95h-490v-205h370v-95h-370v-305h-100v305h-100v95h100v300h590z" />
    <glyph glyph-name="uni0493" unicode="&#x493;" horiz-adv-x="575" 
d="M555 550v-90h-365v-130h255v-90h-255v-240h-100v240h-85v90h85v220h465z" />
    <glyph glyph-name="uni0494" unicode="&#x494;" horiz-adv-x="800" 
d="M395 -151v94q23 -4 45 -4q65 0 113.5 25t75 69.5t26.5 101.5q0 88 -59 141.5t-166 53.5q-58 0 -108 -19t-85 -47.5t-52 -58.5v-205h-100v700h590v-95h-490v-288h5q33 39 103 71t157 32q96 0 166 -35.5t107 -100t37 -149.5q0 -84 -39 -150t-109.5 -103t-161.5 -37
q-35 0 -55 4z" />
    <glyph glyph-name="uni0495" unicode="&#x495;" horiz-adv-x="675" 
d="M304 -187v75q20 -3 37 -3q98 0 151 53t53 142q0 83 -49 131.5t-132 48.5q-66 0 -119.5 -31.5t-79.5 -69.5v-159h-100v550h465v-90h-365v-208h5q27 34 84.5 61t129.5 27q80 0 139 -31.5t90.5 -89t31.5 -134.5q0 -81 -36 -143.5t-104 -97t-159 -34.5q-22 0 -42 3z" />
    <glyph glyph-name="uni0496" unicode="&#x496;" horiz-adv-x="1210" 
d="M150 0h-140l415 365v5l-440 330h150l420 -316v316h100v-316l420 316h150l-440 -330v-5l307 -270h93v-285h-100v190h-25l-405 358v-358h-100v358z" />
    <glyph glyph-name="uni0497" unicode="&#x497;" horiz-adv-x="940" 
d="M135 0h-140l317 285l-322 265h140l285 -240v240h100v-240l285 240h140l-322 -265l217 -195h85v-250h-100v160h-25l-280 260v-260h-100v260z" />
    <glyph glyph-name="uni049A" unicode="&#x49a;" horiz-adv-x="760" 
d="M185 0h-100v700h100v-316l440 316h150l-460 -330v-5l318 -270h92v-285h-100v190h-28l-412 350v-350z" />
    <glyph glyph-name="uni049B" unicode="&#x49b;" horiz-adv-x="620" 
d="M165 0h-100v550h100v-245l310 245h145l-349 -265l239 -195h90v-250h-100v160h-25l-310 260v-260z" />
    <glyph glyph-name="uni049C" unicode="&#x49c;" horiz-adv-x="755" 
d="M765 700l-290 -330v-5l260 -365h-123l-229 320h-49v-120h-85v120h-64v-320h-100v700h100v-285h64v120h85v-120h55l253 285h123z" />
    <glyph glyph-name="uni049D" unicode="&#x49d;" horiz-adv-x="625" 
d="M508 550h117l-219 -265l219 -285h-117l-185 240h-33v-100h-75v100h-50v-240h-100v550h100v-220h50v100h75v-100h38z" />
    <glyph glyph-name="uni04A2" unicode="&#x4a2;" horiz-adv-x="890" 
d="M765 700v-605h95v-285h-100v190h-95v305h-480v-305h-100v700h100v-300h480v300h100z" />
    <glyph glyph-name="uni04A3" unicode="&#x4a3;" horiz-adv-x="725" 
d="M625 550v-460h90v-250h-100v160h-90v240h-360v-240h-100v550h100v-220h360v220h100z" />
    <glyph glyph-name="uni04AA" unicode="&#x4aa;" horiz-adv-x="865" 
d="M331.5 584.5q-76.5 -35.5 -116.5 -97t-40 -137.5q0 -75 38.5 -137t111.5 -97.5t170 -35.5q84 0 158.5 21.5t116.5 47.5v-102q-35 -19 -96.5 -35t-133.5 -21v-181h-100v182q-116 10 -199.5 58.5t-127 126t-43.5 173.5q0 104 51.5 185.5t152 128t241.5 46.5q88 0 165.5 -23
t119.5 -52v-105q-40 34 -117.5 62t-167.5 28q-107 0 -183.5 -35.5z" />
    <glyph glyph-name="uni04AB" unicode="&#x4ab;" horiz-adv-x="655" 
d="M259 450q-52 -25 -80.5 -70t-28.5 -105q0 -59 28 -104.5t79 -70.5t118 -25q69 0 127.5 19t92.5 43v-92q-27 -17 -73.5 -32.5t-101.5 -20.5v-152h-100v153q-81 11 -142 50.5t-94.5 99.5t-33.5 132q0 80 41 145t116 102.5t173 37.5q74 0 136 -18.5t99 -41.5v-95
q-37 27 -99 48.5t-136 21.5q-69 0 -121 -25z" />
    <glyph glyph-name="uni04AE" unicode="&#x4ae;" horiz-adv-x="780" 
d="M440 0h-100v160l-360 540h112l295 -450h6l295 450h112l-360 -540v-160z" />
    <glyph glyph-name="uni04AF" unicode="&#x4af;" horiz-adv-x="605" 
d="M252 0l-257 550h107l201 -440h5l201 440h101l-258 -550v-190h-100v190z" />
    <glyph glyph-name="uni04B0" unicode="&#x4b0;" horiz-adv-x="780" 
d="M688 700h112l-300 -450h150v-95h-210v-155h-100v155h-210v95h150l-300 450h112l295 -450h6z" />
    <glyph glyph-name="uni04B1" unicode="&#x4b1;" horiz-adv-x="605" 
d="M509 550h101l-209 -460h114v-90h-163v-190h-100v190h-162v90h114l-209 460h107l201 -455h5z" />
    <glyph glyph-name="uni04B2" unicode="&#x4b2;" horiz-adv-x="730" 
d="M120 0h-120l304 360l-289 340h120l225 -270h5l225 270h120l-288 -340l223 -265h90v-285h-100v190h-30l-240 290h-5z" />
    <glyph glyph-name="uni04B3" unicode="&#x4b3;" horiz-adv-x="600" 
d="M113 0h-113l239 277l-231 273h120l170 -205h5l171 205h113l-231 -269l162 -191h82v-250h-100v160h-25l-180 210h-5z" />
    <glyph glyph-name="uni04B6" unicode="&#x4b6;" horiz-adv-x="870" 
d="M740 -190v190h-95v286q-127 -46 -241 -46q-157 0 -243 70.5t-86 201.5v188h100v-187q0 -89 59.5 -133.5t169.5 -44.5q123 0 241 46v319h100v-605h95v-285h-100z" />
    <glyph glyph-name="uni04B7" unicode="&#x4b7;" horiz-adv-x="695" 
d="M585 -160v160h-90v190q-88 -25 -176 -25q-121 0 -192.5 59t-71.5 175v151h100v-156q0 -68 47 -103.5t122 -35.5q87 0 171 25v270h100v-460h90v-250h-100z" />
    <glyph glyph-name="uni04B8" unicode="&#x4b8;" horiz-adv-x="830" 
d="M645 700h100v-700h-100v286q-94 -34 -182 -43v-133h-100v131q-138 9 -213 79t-75 192v188h100v-187q0 -80 48.5 -124t139.5 -52v148h100v-148q94 8 182 44v319z" />
    <glyph glyph-name="uni04B9" unicode="&#x4b9;" horiz-adv-x="660" 
d="M495 550h100v-550h-100v190q-66 -19 -122 -23v-97h-90v96q-106 9 -167 67.5t-61 165.5v151h100v-156q0 -58 34.5 -92.5t93.5 -43.5v117h90v-118q62 4 122 23v270z" />
    <glyph glyph-name="uni04BA" unicode="&#x4ba;" horiz-adv-x="815" 
d="M669 399.5q86 -70.5 86 -201.5v-198h-100v197q0 89 -59.5 133.5t-169.5 44.5q-123 0 -241 -46v-329h-100v700h100v-276q127 46 241 46q157 0 243 -70.5z" />
    <glyph glyph-name="uni04BB" unicode="&#x4bb;" horiz-adv-x="685" 
d="M65 0v720h100v-258h5q23 37 78 67.5t127 30.5q122 0 186 -59t64 -166v-335h-100v335q0 68 -41 106.5t-119 38.5q-76 0 -128.5 -35.5t-71.5 -79.5v-365h-100z" />
    <glyph glyph-name="uni04C1" unicode="&#x4c1;" horiz-adv-x="1210" 
d="M150 0h-140l415 365v5l-440 330h150l420 -316v316h100v-316l420 316h150l-440 -330v-5l415 -365h-140l-405 358v-358h-100v358zM456 812.5q-51 42.5 -51 112.5h90q0 -75 110 -75t110 75h90q0 -70 -51 -112.5t-149 -42.5t-149 42.5z" />
    <glyph glyph-name="uni04C2" unicode="&#x4c2;" horiz-adv-x="930" 
d="M135 0h-140l317 285l-322 265h140l285 -240v240h100v-240l285 240h140l-322 -265l317 -285h-140l-280 260v-260h-100v260zM333.5 667q-43.5 37 -43.5 103h80q0 -32 22.5 -48.5t72.5 -16.5t72.5 16.5t22.5 48.5h80q0 -66 -43.5 -103t-131.5 -37t-131.5 37z" />
    <glyph glyph-name="uni04D2" unicode="&#x4d2;" horiz-adv-x="840" 
d="M840 0h-105l-92 180h-446l-92 -180h-105l360 700h120zM417 610l-171 -335h348l-171 335h-6zM266.5 804.5q-19.5 19.5 -19.5 45.5t19.5 45.5t45.5 19.5t45.5 -19.5t19.5 -45.5t-19.5 -45.5t-45.5 -19.5t-45.5 19.5zM481.5 804.5q-19.5 19.5 -19.5 45.5t19.5 45.5
t45.5 19.5t45.5 -19.5t19.5 -45.5t-19.5 -45.5t-45.5 -19.5t-45.5 19.5z" />
    <glyph glyph-name="uni04D3" unicode="&#x4d3;" horiz-adv-x="680" 
d="M100 35.5q-55 45.5 -55 119.5q0 80 64.5 127.5t199.5 47.5q93 0 138 6.5t59 19t14 34.5q0 85 -185 85q-72 0 -142 -21.5t-113 -48.5v95q36 23 105.5 41.5t154.5 18.5q151 0 215.5 -46t64.5 -134v-380h-100v86q-32 -36 -102 -66t-158 -30q-105 0 -160 45.5zM432.5 103
q62.5 28 87.5 63v123q-10 -13 -65 -23.5t-150 -10.5q-160 0 -160 -95q0 -37 34.5 -61t105.5 -24q85 0 147.5 28zM181.5 654.5q-19.5 19.5 -19.5 45.5t19.5 45.5t45.5 19.5t45.5 -19.5t19.5 -45.5t-19.5 -45.5t-45.5 -19.5t-45.5 19.5zM396.5 654.5q-19.5 19.5 -19.5 45.5
t19.5 45.5t45.5 19.5t45.5 -19.5t19.5 -45.5t-19.5 -45.5t-45.5 -19.5t-45.5 19.5z" />
    <glyph glyph-name="uni04D8" unicode="&#x4d8;" horiz-adv-x="990" 
d="M716.5 663.5q100.5 -46.5 152 -128t51.5 -185.5q0 -103 -50.5 -185t-146.5 -128.5t-228 -46.5q-129 0 -225.5 47.5t-148 129.5t-51.5 183v40h742q-10 67 -52.5 119t-115 81.5t-169.5 29.5q-103 0 -194.5 -24.5t-145.5 -54.5v101q57 26 148.5 47t191.5 21
q141 0 241.5 -46.5zM647 107.5q67 27.5 108 76.5t54 111h-628q12 -60 52 -108.5t106.5 -77.5t155.5 -29q85 0 152 27.5z" />
    <glyph glyph-name="uni04D9" unicode="&#x4d9;" horiz-adv-x="750" 
d="M542 522.5q77 -37.5 117.5 -102t40.5 -145.5q0 -80 -40 -145t-113.5 -102.5t-171.5 -37.5t-171.5 37.5t-113.5 102.5t-40 145v40h546q-15 71 -78 115.5t-158 44.5q-80 0 -150.5 -22t-109.5 -49v95q40 23 111.5 42t148.5 19q105 0 182 -37.5zM527 118q58 43 70 117h-444
q13 -77 68.5 -118.5t153.5 -41.5q94 0 152 43z" />
    <glyph glyph-name="uni04E0" unicode="&#x4e0;" horiz-adv-x="710" 
d="M161.5 7q-73.5 17 -111.5 38v100q40 -25 114 -45t156 -20q122 0 178.5 35.5t56.5 89.5t-54.5 89.5t-170.5 35.5q-53 0 -97.5 -6t-67.5 -14v100l283 190v5h-418v95h625v-65l-320 -210v-5q108 0 181 -29t108.5 -77.5t35.5 -108.5t-36.5 -108.5t-112.5 -77.5t-191 -29
q-85 0 -158.5 17z" />
    <glyph glyph-name="uni04E1" unicode="&#x4e1;" horiz-adv-x="655" 
d="M149 -184.5q-71 15.5 -109 34.5v100q38 -23 109 -41.5t151 -18.5q115 0 170 37t55 93q0 59 -53.5 97t-162.5 38q-55 0 -102 -7.5t-72 -17.5v95l282 230v5h-382v90h560v-60l-302 -241v-10q15 1 36 1q94 0 160.5 -29.5t101 -80t34.5 -110.5q0 -61 -36 -111t-109 -79.5
t-180 -29.5q-80 0 -151 15.5z" />
    <glyph glyph-name="uni04E2" unicode="&#x4e2;" horiz-adv-x="830" 
d="M230 0h-145v700h100v-595h5l410 595h145v-700h-100v595h-5zM605 805h-380v85h380v-85z" />
    <glyph glyph-name="uni04E3" unicode="&#x4e3;" horiz-adv-x="685" 
d="M200 0h-135v550h100v-445h5l315 445h135v-550h-100v445h-5zM530 655h-380v85h380v-85z" />
    <glyph glyph-name="uni04E6" unicode="&#x4e6;" horiz-adv-x="1030" 
d="M273.5 36.5q-100.5 46.5 -152 128t-51.5 185.5t51.5 185.5t152 128t241.5 46.5t241.5 -46.5t152 -128t51.5 -185.5t-51.5 -185.5t-152 -128t-241.5 -46.5t-241.5 46.5zM698.5 115.5q76.5 35.5 116.5 97t40 137.5t-40 137.5t-116.5 97t-183.5 35.5t-183.5 -35.5
t-116.5 -97t-40 -137.5t40 -137.5t116.5 -97t183.5 -35.5t183.5 35.5zM361.5 804.5q-19.5 19.5 -19.5 45.5t19.5 45.5t45.5 19.5t45.5 -19.5t19.5 -45.5t-19.5 -45.5t-45.5 -19.5t-45.5 19.5zM576.5 804.5q-19.5 19.5 -19.5 45.5t19.5 45.5t45.5 19.5t45.5 -19.5t19.5 -45.5
t-19.5 -45.5t-45.5 -19.5t-45.5 19.5z" />
    <glyph glyph-name="uni04E7" unicode="&#x4e7;" horiz-adv-x="770" 
d="M207 27.5q-76 37.5 -116.5 102.5t-40.5 145t40.5 145t116.5 102.5t178 37.5t178 -37.5t116.5 -102.5t40.5 -145t-40.5 -145t-116.5 -102.5t-178 -37.5t-178 37.5zM559.5 129q60.5 54 60.5 146t-60.5 146t-174.5 54t-174.5 -54t-60.5 -146t60.5 -146t174.5 -54t174.5 54z
M231.5 654.5q-19.5 19.5 -19.5 45.5t19.5 45.5t45.5 19.5t45.5 -19.5t19.5 -45.5t-19.5 -45.5t-45.5 -19.5t-45.5 19.5zM446.5 654.5q-19.5 19.5 -19.5 45.5t19.5 45.5t45.5 19.5t45.5 -19.5t19.5 -45.5t-19.5 -45.5t-45.5 -19.5t-45.5 19.5z" />
    <glyph glyph-name="uni04E8" unicode="&#x4e8;" horiz-adv-x="1030" 
d="M756.5 663.5q100.5 -46.5 152 -128t51.5 -185.5t-51.5 -185.5t-152 -128t-241.5 -46.5t-241.5 46.5t-152 128t-51.5 185.5t51.5 185.5t152 128t241.5 46.5t241.5 -46.5zM348.5 592q-71.5 -28 -114 -78t-54.5 -114h670q-12 64 -54.5 114t-114 78t-166.5 28t-166.5 -28z
M683 109q72 29 114.5 80t53.5 116h-672q11 -65 53.5 -116t114.5 -80t168 -29t168 29z" />
    <glyph glyph-name="uni04E9" unicode="&#x4e9;" horiz-adv-x="770" 
d="M563 522.5q76 -37.5 116.5 -102.5t40.5 -145t-40.5 -145t-116.5 -102.5t-178 -37.5t-178 37.5t-116.5 102.5t-40.5 145t40.5 145t116.5 102.5t178 37.5t178 -37.5zM227 434q-59 -41 -73 -114h462q-14 73 -73 114t-158 41t-158 -41zM543 116q59 41 73 114h-462
q14 -73 73 -114t158 -41t158 41z" />
    <glyph glyph-name="uni04EE" unicode="&#x4ee;" horiz-adv-x="750" 
d="M650 700h110l-310 -550q-47 -85 -103 -122.5t-141 -37.5q-40 0 -81 7v85q41 -7 76 -7q44 0 84 20t58 55l1 2l-344 548h115l280 -450h5zM570 805h-380v85h380v-85z" />
    <glyph glyph-name="uni04EF" unicode="&#x4ef;" horiz-adv-x="610" 
d="M255 -190h-101l116 240l-275 500h117l205 -390h5l188 390h105zM494 655h-380v85h380v-85z" />
    <glyph glyph-name="uni04F0" unicode="&#x4f0;" horiz-adv-x="750" 
d="M650 700h110l-310 -550q-47 -85 -103 -122.5t-141 -37.5q-40 0 -81 7v85q41 -7 76 -7q44 0 84 20t58 55l1 2l-344 548h115l280 -450h5zM226.5 804.5q-19.5 19.5 -19.5 45.5t19.5 45.5t45.5 19.5t45.5 -19.5t19.5 -45.5t-19.5 -45.5t-45.5 -19.5t-45.5 19.5zM441.5 804.5
q-19.5 19.5 -19.5 45.5t19.5 45.5t45.5 19.5t45.5 -19.5t19.5 -45.5t-19.5 -45.5t-45.5 -19.5t-45.5 19.5z" />
    <glyph glyph-name="uni04F1" unicode="&#x4f1;" horiz-adv-x="610" 
d="M255 -190h-101l116 240l-275 500h117l205 -390h5l188 390h105zM150.5 654.5q-19.5 19.5 -19.5 45.5t19.5 45.5t45.5 19.5t45.5 -19.5t19.5 -45.5t-19.5 -45.5t-45.5 -19.5t-45.5 19.5zM365.5 654.5q-19.5 19.5 -19.5 45.5t19.5 45.5t45.5 19.5t45.5 -19.5t19.5 -45.5
t-19.5 -45.5t-45.5 -19.5t-45.5 19.5z" />
    <glyph glyph-name="Wgrave" unicode="&#x1e80;" horiz-adv-x="1250" 
d="M411 0h-130l-276 700h106l235 -605h5l220 605h110l219 -605h5l235 605h105l-275 -700h-130l-211 575h-6zM771 770h-10l-265 55l10 105h30l245 -100z" />
    <glyph glyph-name="wgrave" unicode="&#x1e81;" horiz-adv-x="985" 
d="M335 0h-116l-219 550h102l173 -450h5l165 450h100l170 -450h5l168 450h97l-210 -550h-116l-164 425h-5zM640 620h-10l-265 55l10 105h30l245 -100z" />
    <glyph glyph-name="Wacute" unicode="&#x1e82;" horiz-adv-x="1250" 
d="M411 0h-130l-276 700h106l235 -605h5l220 605h110l219 -605h5l235 605h105l-275 -700h-130l-211 575h-6zM491 770h-10l-10 60l245 100h30l10 -105z" />
    <glyph glyph-name="wacute" unicode="&#x1e83;" horiz-adv-x="985" 
d="M335 0h-116l-219 550h102l173 -450h5l165 450h100l170 -450h5l168 450h97l-210 -550h-116l-164 425h-5zM360 620h-10l-10 60l245 100h30l10 -105z" />
    <glyph glyph-name="Wdieresis" unicode="&#x1e84;" horiz-adv-x="1250" 
d="M411 0h-130l-276 700h106l235 -605h5l220 605h110l219 -605h5l235 605h105l-275 -700h-130l-211 575h-6zM472.5 804.5q-19.5 19.5 -19.5 45.5t19.5 45.5t45.5 19.5t45.5 -19.5t19.5 -45.5t-19.5 -45.5t-45.5 -19.5t-45.5 19.5zM687.5 804.5q-19.5 19.5 -19.5 45.5
t19.5 45.5t45.5 19.5t45.5 -19.5t19.5 -45.5t-19.5 -45.5t-45.5 -19.5t-45.5 19.5z" />
    <glyph glyph-name="wdieresis" unicode="&#x1e85;" horiz-adv-x="985" 
d="M335 0h-116l-219 550h102l173 -450h5l165 450h100l170 -450h5l168 450h97l-210 -550h-116l-164 425h-5zM341.5 654.5q-19.5 19.5 -19.5 45.5t19.5 45.5t45.5 19.5t45.5 -19.5t19.5 -45.5t-19.5 -45.5t-45.5 -19.5t-45.5 19.5zM556.5 654.5q-19.5 19.5 -19.5 45.5
t19.5 45.5t45.5 19.5t45.5 -19.5t19.5 -45.5t-19.5 -45.5t-45.5 -19.5t-45.5 19.5z" />
    <glyph glyph-name="uni1E9E" unicode="&#x1e9e;" horiz-adv-x="970" 
d="M504 5.5q-66 15.5 -99 34.5v105q33 -25 99 -45t146 -20q99 0 142 27.5t43 67.5q0 34 -26 56.5t-65.5 36t-107.5 30.5q-84 22 -136 41.5t-88.5 56t-36.5 94.5q0 38 18.5 67.5t41.5 42.5v5h-250v-605h-100v700h590v-85q-66 0 -110 -15t-64.5 -39t-20.5 -51q0 -34 24.5 -56
t62 -35t103.5 -29q86 -21 139.5 -42t92 -62.5t38.5 -110.5q0 -50 -30 -92t-95 -67.5t-165 -25.5q-80 0 -146 15.5z" />
    <glyph glyph-name="uni1EBC" unicode="&#x1ebc;" 
d="M185 305v-210h500v-95h-600v700h580v-95h-480v-205h440v-95h-440zM409 791q-24 11 -52 31q-20 14 -33.5 21t-28.5 7q-14 0 -22 -8t-8 -22v-35h-80v45q0 44 26.5 69.5t73.5 25.5q32 0 56 -11t52 -31q20 -14 33.5 -21t28.5 -7q13 0 21.5 8.5t8.5 21.5v35h80v-45
q0 -44 -26.5 -69.5t-73.5 -25.5q-32 0 -56 11z" />
    <glyph glyph-name="uni1EBD" unicode="&#x1ebd;" horiz-adv-x="695" 
d="M205 27.5q-75 37.5 -115 102.5t-40 145q0 79 38.5 144.5t107 103t154.5 37.5t153 -36.5t104.5 -101.5t37.5 -147v-40h-500q15 -73 77 -116.5t158 -43.5q65 0 125 21.5t95 48.5v-95q-35 -23 -95 -41.5t-125 -18.5q-100 0 -175 37.5zM545 315q-9 67 -57.5 113.5
t-132.5 46.5q-85 0 -142 -44t-68 -116h400zM379 641q-24 11 -52 31q-20 14 -33.5 21t-28.5 7q-14 0 -22 -8t-8 -22v-35h-80v45q0 44 26.5 69.5t73.5 25.5q32 0 56 -11t52 -31q20 -14 33.5 -21t28.5 -7q13 0 21.5 8.5t8.5 21.5v35h80v-45q0 -44 -26.5 -69.5t-73.5 -25.5
q-32 0 -56 11z" />
    <glyph glyph-name="Ygrave" unicode="&#x1ef2;" horiz-adv-x="780" 
d="M440 0h-100v160l-360 540h112l295 -450h6l295 450h112l-360 -540v-160zM520 770h-10l-265 55l10 105h30l245 -100z" />
    <glyph glyph-name="ygrave" unicode="&#x1ef3;" horiz-adv-x="610" 
d="M255 -190h-101l116 240l-275 500h117l205 -390h5l188 390h105zM445 620h-10l-265 55l10 105h30l245 -100z" />
    <glyph glyph-name="uni1EF8" unicode="&#x1ef8;" horiz-adv-x="780" 
d="M440 0h-100v160l-360 540h112l295 -450h6l295 450h112l-360 -540v-160zM424 791q-24 11 -52 31q-20 14 -33.5 21t-28.5 7q-14 0 -22 -8t-8 -22v-35h-80v45q0 44 26.5 69.5t73.5 25.5q32 0 56 -11t52 -31q20 -14 33.5 -21t28.5 -7q13 0 21.5 8.5t8.5 21.5v35h80v-45
q0 -44 -26.5 -69.5t-73.5 -25.5q-32 0 -56 11z" />
    <glyph glyph-name="uni1EF9" unicode="&#x1ef9;" horiz-adv-x="610" 
d="M255 -190h-101l116 240l-275 500h117l205 -390h5l188 390h105zM338 641q-24 11 -52 31q-20 14 -33.5 21t-28.5 7q-14 0 -22 -8t-8 -22v-35h-80v45q0 44 26.5 69.5t73.5 25.5q32 0 56 -11t52 -31q20 -14 33.5 -21t28.5 -7q13 0 21.5 8.5t8.5 21.5v35h80v-45
q0 -44 -26.5 -69.5t-73.5 -25.5q-32 0 -56 11z" />
    <glyph glyph-name="endash" unicode="&#x2013;" horiz-adv-x="730" 
d="M675 270h-620v90h620v-90z" />
    <glyph glyph-name="emdash" unicode="&#x2014;" horiz-adv-x="1025" 
d="M970 270h-915v90h915v-90z" />
    <glyph glyph-name="quoteleft" unicode="&#x2018;" horiz-adv-x="200" 
d="M50 461q-20 26 -20 79q0 89 37 137t93 48h5v-100h-15q-37 0 -58.5 -20.5t-21.5 -54.5h5q3 6 12.5 10.5t21.5 4.5q26 0 43.5 -17.5t17.5 -45.5q0 -30 -18.5 -48.5t-47.5 -18.5q-34 0 -54 26z" />
    <glyph glyph-name="quoteright" unicode="&#x2019;" horiz-adv-x="200" 
d="M35 435v100h15q37 0 58.5 20.5t21.5 54.5h-5q-3 -6 -12 -10.5t-22 -4.5q-26 0 -43.5 17.5t-17.5 45.5q0 30 18.5 48.5t47.5 18.5q34 0 54 -26t20 -79q0 -89 -37 -137t-93 -48h-5z" />
    <glyph glyph-name="quotesinglbase" unicode="&#x201a;" horiz-adv-x="200" 
d="M35 -170v100h15q37 0 58.5 20.5t21.5 54.5h-5q-3 -6 -12 -10.5t-22 -4.5q-26 0 -43.5 17.5t-17.5 45.5q0 30 18.5 48.5t47.5 18.5q34 0 54 -26t20 -79q0 -89 -37 -137t-93 -48h-5z" />
    <glyph glyph-name="quotedblleft" unicode="&#x201c;" horiz-adv-x="368" 
d="M50 461q-20 26 -20 79q0 89 37 137t93 48h5v-100h-15q-37 0 -58.5 -20.5t-21.5 -54.5h5q3 6 12.5 10.5t21.5 4.5q26 0 43.5 -17.5t17.5 -45.5q0 -30 -18.5 -48.5t-47.5 -18.5q-34 0 -54 26zM218 461q-20 26 -20 79q0 89 37 137t93 48h5v-100h-15q-37 0 -58.5 -20.5
t-21.5 -54.5h5q3 6 12.5 10.5t21.5 4.5q26 0 43.5 -17.5t17.5 -45.5q0 -30 -18.5 -48.5t-47.5 -18.5q-34 0 -54 26z" />
    <glyph glyph-name="quotedblright" unicode="&#x201d;" horiz-adv-x="368" 
d="M35 435v100h15q37 0 58.5 20.5t21.5 54.5h-5q-3 -6 -12 -10.5t-22 -4.5q-26 0 -43.5 17.5t-17.5 45.5q0 30 18.5 48.5t47.5 18.5q34 0 54 -26t20 -79q0 -89 -37 -137t-93 -48h-5zM203 435v100h15q37 0 58.5 20.5t21.5 54.5h-5q-3 -6 -12 -10.5t-22 -4.5q-26 0 -43.5 17.5
t-17.5 45.5q0 30 18.5 48.5t47.5 18.5q34 0 54 -26t20 -79q0 -89 -37 -137t-93 -48h-5z" />
    <glyph glyph-name="quotedblbase" unicode="&#x201e;" horiz-adv-x="368" 
d="M35 -170v100h15q37 0 58.5 20.5t21.5 54.5h-5q-3 -6 -12 -10.5t-22 -4.5q-26 0 -43.5 17.5t-17.5 45.5q0 30 18.5 48.5t47.5 18.5q34 0 54 -26t20 -79q0 -89 -37 -137t-93 -48h-5zM203 -170v100h15q37 0 58.5 20.5t21.5 54.5h-5q-3 -6 -12 -10.5t-22 -4.5
q-26 0 -43.5 17.5t-17.5 45.5q0 30 18.5 48.5t47.5 18.5q34 0 54 -26t20 -79q0 -89 -37 -137t-93 -48h-5z" />
    <glyph glyph-name="dagger" unicode="&#x2020;" horiz-adv-x="580" 
d="M335 -190h-90v625l-205 -10v90l205 -10v215h90v-215l205 10v-90l-205 10v-625z" />
    <glyph glyph-name="daggerdbl" unicode="&#x2021;" horiz-adv-x="580" 
d="M335 -190h-90v175l-165 -10v90l165 -10v380l-205 -10v90l205 -10v215h90v-215l205 10v-90l-205 10v-380l165 10v-90l-165 10v-175z" />
    <glyph glyph-name="bullet" unicode="&#x2022;" horiz-adv-x="410" 
d="M144 244q-24 24 -24 61q0 38 24 61.5t61 23.5q38 0 61.5 -23.5t23.5 -61.5q0 -37 -23.5 -61t-61.5 -24q-37 0 -61 24z" />
    <glyph glyph-name="ellipsis" unicode="&#x2026;" horiz-adv-x="800" 
d="M50 9q-20 19 -20 46t20 46t50 19t50 -19t20 -46t-20 -46t-50 -19t-50 19zM350 9q-20 19 -20 46t20 46t50 19t50 -19t20 -46t-20 -46t-50 -19t-50 19zM650 9q-20 19 -20 46t20 46t50 19t50 -19t20 -46t-20 -46t-50 -19t-50 19z" />
    <glyph glyph-name="perthousand" unicode="&#x2030;" horiz-adv-x="1310" 
d="M89 417q-49 47 -49 123t49 123t131 47t131 -47t49 -123t-49 -123t-131 -47t-131 47zM280 0h-90l430 700h90zM284.5 471.5q25.5 26.5 25.5 68.5t-25.5 68.5t-64.5 26.5t-64.5 -26.5t-25.5 -68.5t25.5 -68.5t64.5 -26.5t64.5 26.5zM534 37q-49 47 -49 123t49 123t131 47
t131 -47t49 -123t-49 -123t-131 -47t-131 47zM959 37q-49 47 -49 123t49 123t131 47t131 -47t49 -123t-49 -123t-131 -47t-131 47zM729.5 91.5q25.5 26.5 25.5 68.5t-25.5 68.5t-64.5 26.5t-64.5 -26.5t-25.5 -68.5t25.5 -68.5t64.5 -26.5t64.5 26.5zM1154.5 91.5
q25.5 26.5 25.5 68.5t-25.5 68.5t-64.5 26.5t-64.5 -26.5t-25.5 -68.5t25.5 -68.5t64.5 -26.5t64.5 26.5z" />
    <glyph glyph-name="guilsinglleft" unicode="&#x2039;" horiz-adv-x="360" 
d="M325 35h-105l-185 235l185 235h105l-185 -235z" />
    <glyph glyph-name="guilsinglright" unicode="&#x203a;" horiz-adv-x="360" 
d="M140 35h-105l185 235l-185 235h105l185 -235z" />
    <glyph glyph-name="fraction" unicode="&#x2044;" horiz-adv-x="205" 
d="M-70 0h-85l430 700h85z" />
    <glyph glyph-name="uni2070" unicode="&#x2070;" horiz-adv-x="440" 
d="M86.5 491.5q-51.5 51.5 -51.5 133.5q0 83 51.5 134t133.5 51q83 0 134 -51t51 -134q0 -82 -51 -133.5t-134 -51.5q-82 0 -133.5 51.5zM295.5 537.5q29.5 32.5 29.5 87.5t-29.5 87.5t-75.5 32.5t-75.5 -32.5t-29.5 -87.5t29.5 -87.5t75.5 -32.5t75.5 32.5z" />
    <glyph glyph-name="uni2074" unicode="&#x2074;" horiz-adv-x="375" 
d="M310 450h-80v85h-210v65l175 200h94l-174 -195v-5h115v90h80v-90h60v-65h-60v-85z" />
    <glyph glyph-name="uni2075" unicode="&#x2075;" horiz-adv-x="365" 
d="M107.5 449q-37.5 9 -57.5 21v65q19 -12 54.5 -21t75.5 -9q44 0 64.5 13t20.5 32q0 50 -90 50q-32 0 -59.5 -7.5t-40.5 -17.5l-20 15l10 210h250v-65h-185l-5 -80q28 10 65 10q48 0 83 -16t53.5 -42t18.5 -57q0 -28 -18.5 -53.5t-53.5 -41t-83 -15.5q-45 0 -82.5 9z" />
    <glyph glyph-name="uni2076" unicode="&#x2076;" horiz-adv-x="375" 
d="M66.5 471q-41.5 31 -41.5 79q0 40 40 86l145 164h94l-122 -135v-5h28q44 0 77 -15.5t50.5 -40.5t17.5 -54q0 -48 -41.5 -79t-123.5 -31t-123.5 31zM254 518q21 13 21 32t-21 32t-64 13q-46 0 -65.5 -13t-19.5 -32t19.5 -32t65.5 -13q43 0 64 13z" />
    <glyph glyph-name="uni2077" unicode="&#x2077;" horiz-adv-x="340" 
d="M170 450h-85l145 285h-205v65h300v-44z" />
    <glyph glyph-name="uni2078" unicode="&#x2078;" horiz-adv-x="440" 
d="M125 454q-38 14 -56.5 35.5t-18.5 45.5q0 33 26.5 56.5t68.5 23.5v5q-45 0 -75 26t-30 59q0 26 19.5 50.5t60.5 39.5t100 15t100 -15t60.5 -39.5t19.5 -50.5q0 -33 -30 -59t-75 -26v-5q42 0 68.5 -23.5t26.5 -56.5q0 -24 -18.5 -45.5t-56.5 -35.5t-95 -14t-95 14z
M296 664q24 14 24 33q0 20 -24 34t-76 14t-76 -14t-24 -34q0 -19 24 -33t76 -14t76 14zM289 516.5q21 11.5 21 28.5q0 45 -90 45t-90 -45q0 -17 21 -28.5t69 -11.5t69 11.5z" />
    <glyph glyph-name="uni2079" unicode="&#x2079;" horiz-adv-x="400" 
d="M113 450l109 125v5h-20q-89 0 -135.5 33t-46.5 82t46 82t134 33t134 -33t46 -82q0 -17 -8.5 -35.5t-30.5 -45.5l-136 -164h-92zM276 659.5q24 14.5 24 35.5t-24 35.5t-76 14.5t-76 -14.5t-24 -35.5t24 -35.5t76 -14.5t76 14.5z" />
    <glyph glyph-name="uni2080" unicode="&#x2080;" horiz-adv-x="440" 
d="M86.5 -58.5q-51.5 51.5 -51.5 133.5q0 83 51.5 134t133.5 51q83 0 134 -51t51 -134q0 -82 -51 -133.5t-134 -51.5q-82 0 -133.5 51.5zM295.5 -12.5q29.5 32.5 29.5 87.5t-29.5 87.5t-75.5 32.5t-75.5 -32.5t-29.5 -87.5t29.5 -87.5t75.5 -32.5t75.5 32.5z" />
    <glyph glyph-name="uni2081" unicode="&#x2081;" horiz-adv-x="345" 
d="M55 -100v65h95v175h-95v60h55q26 0 38 12t12 38h70v-285h85v-65h-260z" />
    <glyph glyph-name="uni2082" unicode="&#x2082;" horiz-adv-x="380" 
d="M50 -100v70l110 75q53 37 74 58t21 42q0 50 -70 50q-32 0 -71.5 -14t-68.5 -31v70q26 15 66 27.5t79 12.5q72 0 108.5 -29.5t36.5 -80.5q0 -37 -20 -63.5t-70 -61.5l-80 -55v-5h165v-65h-280z" />
    <glyph glyph-name="uni2083" unicode="&#x2083;" horiz-adv-x="380" 
d="M103 -100.5q-37 9.5 -58 20.5v65q21 -11 58 -20.5t77 -9.5q80 0 80 45q0 50 -80 50q-27 0 -47 -3t-28 -7v65l90 75v5h-145v65h270v-40l-115 -95v-5q61 0 98 -31t37 -74q0 -31 -18.5 -57t-55 -42t-86.5 -16q-40 0 -77 9.5z" />
    <glyph glyph-name="uni2084" unicode="&#x2084;" horiz-adv-x="375" 
d="M310 -100h-80v85h-210v65l175 200h94l-174 -195v-5h115v90h80v-90h60v-65h-60v-85z" />
    <glyph glyph-name="uni2085" unicode="&#x2085;" horiz-adv-x="365" 
d="M107.5 -101q-37.5 9 -57.5 21v65q19 -12 54.5 -21t75.5 -9q44 0 64.5 13t20.5 32q0 50 -90 50q-32 0 -59.5 -7.5t-40.5 -17.5l-20 15l10 210h250v-65h-185l-5 -80q28 10 65 10q48 0 83 -16t53.5 -42t18.5 -57q0 -28 -18.5 -53.5t-53.5 -41t-83 -15.5q-45 0 -82.5 9z" />
    <glyph glyph-name="uni2086" unicode="&#x2086;" horiz-adv-x="375" 
d="M66.5 -79q-41.5 31 -41.5 79q0 40 40 86l145 164h94l-122 -135v-5h28q44 0 77 -15.5t50.5 -40.5t17.5 -54q0 -48 -41.5 -79t-123.5 -31t-123.5 31zM254 -32q21 13 21 32t-21 32t-64 13q-46 0 -65.5 -13t-19.5 -32t19.5 -32t65.5 -13q43 0 64 13z" />
    <glyph glyph-name="uni2087" unicode="&#x2087;" horiz-adv-x="340" 
d="M170 -100h-85l145 285h-205v65h300v-44z" />
    <glyph glyph-name="uni2088" unicode="&#x2088;" horiz-adv-x="440" 
d="M125 -96q-38 14 -56.5 35.5t-18.5 45.5q0 33 26.5 56.5t68.5 23.5v5q-45 0 -75 26t-30 59q0 26 19.5 50.5t60.5 39.5t100 15t100 -15t60.5 -39.5t19.5 -50.5q0 -33 -30 -59t-75 -26v-5q42 0 68.5 -23.5t26.5 -56.5q0 -24 -18.5 -45.5t-56.5 -35.5t-95 -14t-95 14z
M296 114q24 14 24 33q0 20 -24 34t-76 14t-76 -14t-24 -34q0 -19 24 -33t76 -14t76 14zM289 -33.5q21 11.5 21 28.5q0 45 -90 45t-90 -45q0 -17 21 -28.5t69 -11.5t69 11.5z" />
    <glyph glyph-name="uni2089" unicode="&#x2089;" horiz-adv-x="400" 
d="M113 -100l109 125v5h-20q-89 0 -135.5 33t-46.5 82t46 82t134 33t134 -33t46 -82q0 -17 -8.5 -35.5t-30.5 -45.5l-136 -164h-92zM276 109.5q24 14.5 24 35.5t-24 35.5t-76 14.5t-76 -14.5t-24 -35.5t24 -35.5t76 -14.5t76 14.5z" />
    <glyph glyph-name="uni20A9" unicode="&#x20a9;" horiz-adv-x="1170" 
d="M1140 460v-75h-136l-31 -95h167v-75h-191l-69 -215h-130l-162 575h-6l-162 -575h-130l-69 215h-191v75h167l-31 95h-136v75h112l-77 240h95l194 -605h5l171 605h110l171 -605h5l194 605h95l-77 -240h112z" />
    <glyph glyph-name="Euro" unicode="&#x20ac;" horiz-adv-x="885" 
d="M336 577q-81 -43 -117 -117h381v-75h-403q-2 -22 -2 -35t2 -35h403v-75h-381q34 -73 111 -116.5t185 -43.5q84 0 160 22t115 47v-102q-39 -21 -115 -39t-160 -18q-160 0 -266.5 68t-142.5 182h-86v75h72q-2 22 -2 35t2 35h-72v75h86q36 115 147 182.5t282 67.5
q88 0 165.5 -23t119.5 -52v-105q-40 34 -117.5 62t-167.5 28q-118 0 -199 -43z" />
    <glyph glyph-name="uni20B4" unicode="&#x20b4;" horiz-adv-x="820" 
d="M760 445v-85h-700v85h537q28 28 28 65q0 27 -23.5 52t-76.5 41.5t-135 16.5q-90 0 -167.5 -28t-117.5 -62v105q42 29 119.5 52t165.5 23q113 0 190 -27.5t113.5 -70t36.5 -87.5q0 -25 -7.5 -46t-20.5 -34h58zM60 210v85h700v-85h-555q-5 -14 -5 -30q0 -43 50.5 -71.5
t164.5 -28.5q88 0 162.5 26t112.5 59v-105q-38 -27 -112.5 -48.5t-162.5 -21.5q-106 0 -178.5 26t-107 66t-34.5 83q0 25 10 45h-45z" />
    <glyph glyph-name="uni20B8" unicode="&#x20b8;" horiz-adv-x="720" 
d="M40 610v90h640v-90h-640zM310 445h-270v90h640v-90h-270v-445h-100v445z" />
    <glyph glyph-name="uni20B9" unicode="&#x20b9;" 
d="M695 610h-150v-4q43 -32 55 -86h95v-90h-94q-15 -78 -87 -128.5t-189 -51.5v-5l305 -245h-155l-311 250h-99v95h265q68 0 110.5 22.5t56.5 62.5h-432v90h432q-14 40 -56.5 62.5t-110.5 22.5h-265v95h630v-90z" />
    <glyph glyph-name="uni20BA" unicode="&#x20ba;" horiz-adv-x="700" 
d="M675 280q-5 -95 -52.5 -156.5t-146 -92.5t-256.5 -31h-80v223l-125 -48v80l125 48v80l-125 -48v80l125 48v237h100v-198l255 98v-80l-255 -98v-80l255 98v-80l-255 -98v-167q117 0 188 21t105 61t42 103h100z" />
    <glyph glyph-name="uni20BD" unicode="&#x20bd;" horiz-adv-x="820" 
d="M200 290v-65h370v-95h-370v-130h-100v130h-70v95h70v65h-70v95h70v315h405q131 0 198 -52t67 -153q0 -97 -65 -151t-200 -54h-305zM200 605v-220h305q83 0 121.5 29.5t38.5 80.5t-38.5 80.5t-121.5 29.5h-305z" />
    <glyph glyph-name="uni20BF" unicode="&#x20bf;" horiz-adv-x="810" 
d="M505 345q108 0 164 -45t56 -120q0 -67 -47 -114t-143 -61v-125h-95v120h-140v-120h-95v120h-120v700h120v120h95v-120h140v120h95v-124q104 -12 157 -61t53 -115q0 -79 -59 -124.5t-181 -45.5v-5zM185 605v-210h285q89 0 129.5 28.5t40.5 76.5t-40.5 76.5t-129.5 28.5
h-285zM450 95q93 0 131.5 26.5t38.5 78.5q0 48 -38.5 74t-131.5 26h-265v-205h265z" />
    <glyph glyph-name="uni2116" unicode="&#x2116;" horiz-adv-x="1270" 
d="M939 383q-42 23 -65.5 62.5t-23.5 89.5t23.5 89.5t65.5 62.5t96 23t96 -23t65.5 -62.5t23.5 -89.5t-23.5 -89.5t-65.5 -62.5t-96 -23t-96 23zM185 0h-100v700h160l405 -610h5v610h100v-700h-160l-405 610h-5v-610zM1104 462q26 27 26 73t-26 73t-69 27t-69 -27t-26 -73
t26 -73t69 -27t69 27zM1210 225h-350v85h350v-85z" />
    <glyph glyph-name="trademark" unicode="&#x2122;" horiz-adv-x="915" 
d="M215 370h-80v260h-125v70h330v-70h-125v-260zM480 370h-80v330h125l107 -185h5l103 185h120v-330h-80v235h-5l-145 -245l-145 245h-5v-235z" />
    <glyph glyph-name="uni2150" unicode="&#x2150;" horiz-adv-x="890" 
d="M55 350v65h95v175h-95v60h55q26 0 38 12t12 38h70v-285h85v-65h-260zM275 0h-85l430 700h85zM720 0h-85l145 285h-205v65h300v-44z" />
    <glyph glyph-name="uni2151" unicode="&#x2151;" horiz-adv-x="950" 
d="M55 350v65h95v175h-95v60h55q26 0 38 12t12 38h70v-285h85v-65h-260zM275 0h-85l430 700h85zM663 0l109 125v5h-20q-89 0 -135.5 33t-46.5 82t46 82t134 33t134 -33t46 -82q0 -17 -8.5 -35.5t-30.5 -45.5l-136 -164h-92zM826 209.5q24 14.5 24 35.5t-24 35.5t-76 14.5
t-76 -14.5t-24 -35.5t24 -35.5t76 -14.5t76 14.5z" />
    <glyph glyph-name="uni2153" unicode="&#x2153;" horiz-adv-x="930" 
d="M55 350v65h95v175h-95v60h55q26 0 38 12t12 38h70v-285h85v-65h-260zM275 0h-85l430 700h85zM653 -0.5q-37 9.5 -58 20.5v65q21 -11 58 -20.5t77 -9.5q80 0 80 45q0 50 -80 50q-27 0 -47 -3t-28 -7v65l90 75v5h-145v65h270v-40l-115 -95v-5q61 0 98 -31t37 -74
q0 -31 -18.5 -57t-55 -42t-86.5 -16q-40 0 -77 9.5z" />
    <glyph glyph-name="uni2154" unicode="&#x2154;" horiz-adv-x="965" 
d="M50 350v70l110 75q53 37 74 58t21 42q0 50 -70 50q-32 0 -71.5 -14t-68.5 -31v70q26 15 66 27.5t79 12.5q72 0 108.5 -29.5t36.5 -80.5q0 -37 -20 -63.5t-70 -61.5l-80 -55v-5h165v-65h-280zM310 0h-85l430 700h85zM688 -0.5q-37 9.5 -58 20.5v65q21 -11 58 -20.5
t77 -9.5q80 0 80 45q0 50 -80 50q-27 0 -47 -3t-28 -7v65l90 75v5h-145v65h270v-40l-115 -95v-5q61 0 98 -31t37 -74q0 -31 -18.5 -57t-55 -42t-86.5 -16q-40 0 -77 9.5z" />
    <glyph glyph-name="uni2155" unicode="&#x2155;" horiz-adv-x="915" 
d="M55 350v65h95v175h-95v60h55q26 0 38 12t12 38h70v-285h85v-65h-260zM275 0h-85l430 700h85zM657.5 -1q-37.5 9 -57.5 21v65q19 -12 54.5 -21t75.5 -9q44 0 64.5 13t20.5 32q0 50 -90 50q-32 0 -59.5 -7.5t-40.5 -17.5l-20 15l10 210h250v-65h-185l-5 -80q28 10 65 10
q48 0 83 -16t53.5 -42t18.5 -57q0 -28 -18.5 -53.5t-53.5 -41t-83 -15.5q-45 0 -82.5 9z" />
    <glyph glyph-name="uni2156" unicode="&#x2156;" horiz-adv-x="950" 
d="M50 350v70l110 75q53 37 74 58t21 42q0 50 -70 50q-32 0 -71.5 -14t-68.5 -31v70q26 15 66 27.5t79 12.5q72 0 108.5 -29.5t36.5 -80.5q0 -37 -20 -63.5t-70 -61.5l-80 -55v-5h165v-65h-280zM310 0h-85l430 700h85zM692.5 -1q-37.5 9 -57.5 21v65q19 -12 54.5 -21
t75.5 -9q44 0 64.5 13t20.5 32q0 50 -90 50q-32 0 -59.5 -7.5t-40.5 -17.5l-20 15l10 210h250v-65h-185l-5 -80q28 10 65 10q48 0 83 -16t53.5 -42t18.5 -57q0 -28 -18.5 -53.5t-53.5 -41t-83 -15.5q-45 0 -82.5 9z" />
    <glyph glyph-name="uni2157" unicode="&#x2157;" horiz-adv-x="950" 
d="M103 349.5q-37 9.5 -58 20.5v65q21 -11 58 -20.5t77 -9.5q80 0 80 45q0 50 -80 50q-27 0 -47 -3t-28 -7v65l90 75v5h-145v65h270v-40l-115 -95v-5q61 0 98 -31t37 -74q0 -31 -18.5 -57t-55 -42t-86.5 -16q-40 0 -77 9.5zM310 0h-85l430 700h85zM692.5 -1
q-37.5 9 -57.5 21v65q19 -12 54.5 -21t75.5 -9q44 0 64.5 13t20.5 32q0 50 -90 50q-32 0 -59.5 -7.5t-40.5 -17.5l-20 15l10 210h250v-65h-185l-5 -80q28 10 65 10q48 0 83 -16t53.5 -42t18.5 -57q0 -28 -18.5 -53.5t-53.5 -41t-83 -15.5q-45 0 -82.5 9z" />
    <glyph glyph-name="uni2158" unicode="&#x2158;" horiz-adv-x="945" 
d="M310 350h-80v85h-210v65l175 200h94l-174 -195v-5h115v90h80v-90h60v-65h-60v-85zM305 0h-85l430 700h85zM687.5 -1q-37.5 9 -57.5 21v65q19 -12 54.5 -21t75.5 -9q44 0 64.5 13t20.5 32q0 50 -90 50q-32 0 -59.5 -7.5t-40.5 -17.5l-20 15l10 210h250v-65h-185l-5 -80
q28 10 65 10q48 0 83 -16t53.5 -42t18.5 -57q0 -28 -18.5 -53.5t-53.5 -41t-83 -15.5q-45 0 -82.5 9z" />
    <glyph glyph-name="uni2159" unicode="&#x2159;" horiz-adv-x="925" 
d="M55 350v65h95v175h-95v60h55q26 0 38 12t12 38h70v-285h85v-65h-260zM275 0h-85l430 700h85zM616.5 21q-41.5 31 -41.5 79q0 40 40 86l145 164h94l-122 -135v-5h28q44 0 77 -15.5t50.5 -40.5t17.5 -54q0 -48 -41.5 -79t-123.5 -31t-123.5 31zM804 68q21 13 21 32t-21 32
t-64 13q-46 0 -65.5 -13t-19.5 -32t19.5 -32t65.5 -13q43 0 64 13z" />
    <glyph glyph-name="uni215A" unicode="&#x215a;" horiz-adv-x="945" 
d="M107.5 349q-37.5 9 -57.5 21v65q19 -12 54.5 -21t75.5 -9q44 0 64.5 13t20.5 32q0 50 -90 50q-32 0 -59.5 -7.5t-40.5 -17.5l-20 15l10 210h250v-65h-185l-5 -80q28 10 65 10q48 0 83 -16t53.5 -42t18.5 -57q0 -28 -18.5 -53.5t-53.5 -41t-83 -15.5q-45 0 -82.5 9zM295 0
h-85l430 700h85zM636.5 21q-41.5 31 -41.5 79q0 40 40 86l145 164h94l-122 -135v-5h28q44 0 77 -15.5t50.5 -40.5t17.5 -54q0 -48 -41.5 -79t-123.5 -31t-123.5 31zM824 68q21 13 21 32t-21 32t-64 13q-46 0 -65.5 -13t-19.5 -32t19.5 -32t65.5 -13q43 0 64 13z" />
    <glyph glyph-name="oneeighth" unicode="&#x215b;" horiz-adv-x="990" 
d="M55 350v65h95v175h-95v60h55q26 0 38 12t12 38h70v-285h85v-65h-260zM275 0h-85l430 700h85zM675 4q-38 14 -56.5 35.5t-18.5 45.5q0 33 26.5 56.5t68.5 23.5v5q-45 0 -75 26t-30 59q0 26 19.5 50.5t60.5 39.5t100 15t100 -15t60.5 -39.5t19.5 -50.5q0 -33 -30 -59
t-75 -26v-5q42 0 68.5 -23.5t26.5 -56.5q0 -24 -18.5 -45.5t-56.5 -35.5t-95 -14t-95 14zM846 214q24 14 24 33q0 20 -24 34t-76 14t-76 -14t-24 -34q0 -19 24 -33t76 -14t76 14zM839 66.5q21 11.5 21 28.5q0 45 -90 45t-90 -45q0 -17 21 -28.5t69 -11.5t69 11.5z" />
    <glyph glyph-name="threeeighths" unicode="&#x215c;" horiz-adv-x="1025" 
d="M103 349.5q-37 9.5 -58 20.5v65q21 -11 58 -20.5t77 -9.5q80 0 80 45q0 50 -80 50q-27 0 -47 -3t-28 -7v65l90 75v5h-145v65h270v-40l-115 -95v-5q61 0 98 -31t37 -74q0 -31 -18.5 -57t-55 -42t-86.5 -16q-40 0 -77 9.5zM310 0h-85l430 700h85zM710 4q-38 14 -56.5 35.5
t-18.5 45.5q0 33 26.5 56.5t68.5 23.5v5q-45 0 -75 26t-30 59q0 26 19.5 50.5t60.5 39.5t100 15t100 -15t60.5 -39.5t19.5 -50.5q0 -33 -30 -59t-75 -26v-5q42 0 68.5 -23.5t26.5 -56.5q0 -24 -18.5 -45.5t-56.5 -35.5t-95 -14t-95 14zM881 214q24 14 24 33q0 20 -24 34
t-76 14t-76 -14t-24 -34q0 -19 24 -33t76 -14t76 14zM874 66.5q21 11.5 21 28.5q0 45 -90 45t-90 -45q0 -17 21 -28.5t69 -11.5t69 11.5z" />
    <glyph glyph-name="fiveeighths" unicode="&#x215d;" horiz-adv-x="1010" 
d="M107.5 349q-37.5 9 -57.5 21v65q19 -12 54.5 -21t75.5 -9q44 0 64.5 13t20.5 32q0 50 -90 50q-32 0 -59.5 -7.5t-40.5 -17.5l-20 15l10 210h250v-65h-185l-5 -80q28 10 65 10q48 0 83 -16t53.5 -42t18.5 -57q0 -28 -18.5 -53.5t-53.5 -41t-83 -15.5q-45 0 -82.5 9zM295 0
h-85l430 700h85zM695 4q-38 14 -56.5 35.5t-18.5 45.5q0 33 26.5 56.5t68.5 23.5v5q-45 0 -75 26t-30 59q0 26 19.5 50.5t60.5 39.5t100 15t100 -15t60.5 -39.5t19.5 -50.5q0 -33 -30 -59t-75 -26v-5q42 0 68.5 -23.5t26.5 -56.5q0 -24 -18.5 -45.5t-56.5 -35.5t-95 -14
t-95 14zM866 214q24 14 24 33q0 20 -24 34t-76 14t-76 -14t-24 -34q0 -19 24 -33t76 -14t76 14zM859 66.5q21 11.5 21 28.5q0 45 -90 45t-90 -45q0 -17 21 -28.5t69 -11.5t69 11.5z" />
    <glyph glyph-name="seveneighths" unicode="&#x215e;" horiz-adv-x="985" 
d="M170 350h-85l145 285h-205v65h300v-44zM270 0h-85l430 700h85zM670 4q-38 14 -56.5 35.5t-18.5 45.5q0 33 26.5 56.5t68.5 23.5v5q-45 0 -75 26t-30 59q0 26 19.5 50.5t60.5 39.5t100 15t100 -15t60.5 -39.5t19.5 -50.5q0 -33 -30 -59t-75 -26v-5q42 0 68.5 -23.5
t26.5 -56.5q0 -24 -18.5 -45.5t-56.5 -35.5t-95 -14t-95 14zM841 214q24 14 24 33q0 20 -24 34t-76 14t-76 -14t-24 -34q0 -19 24 -33t76 -14t76 14zM834 66.5q21 11.5 21 28.5q0 45 -90 45t-90 -45q0 -17 21 -28.5t69 -11.5t69 11.5z" />
    <glyph glyph-name="uni215F" unicode="&#x215f;" horiz-adv-x="550" 
d="M55 350v65h95v175h-95v60h55q26 0 38 12t12 38h70v-285h85v-65h-260zM275 0h-85l430 700h85z" />
    <glyph glyph-name="arrowleft" unicode="&#x2190;" horiz-adv-x="980" 
d="M445 150l-54 -54l-251 239l251 239l54 -54l-150 -140v-5h535v-80h-535v-5z" />
    <glyph glyph-name="arrowup" unicode="&#x2191;" horiz-adv-x="980" 
d="M530 0h-80v545h-5l-140 -150l-54 54l239 251l239 -251l-54 -54l-140 150h-5v-545z" />
    <glyph glyph-name="arrowright" unicode="&#x2192;" horiz-adv-x="980" 
d="M840 335l-251 -239l-54 54l150 140v5h-535v80h535v5l-150 140l54 54z" />
    <glyph glyph-name="arrowdown" unicode="&#x2193;" horiz-adv-x="980" 
d="M729 251l-239 -251l-239 251l54 54l140 -150h5v545h80v-545h5l140 150z" />
    <glyph glyph-name="arrowboth" unicode="&#x2194;" horiz-adv-x="1000" 
d="M410 150l-54 -54l-251 239l251 239l54 -54l-150 -140v-5h480v5l-150 140l54 54l251 -239l-251 -239l-54 54l150 140v5h-480v-5z" />
    <glyph glyph-name="arrowupdn" unicode="&#x2195;" horiz-adv-x="980" 
d="M729 206l-239 -251l-239 251l54 54l140 -150h5v480h-5l-140 -150l-54 54l239 251l239 -251l-54 -54l-140 150h-5v-480h5l140 150z" />
    <glyph glyph-name="uni2196" unicode="&#x2196;" horiz-adv-x="1000" 
d="M760 134l-56 -57l-386 381l-3 -1v-211h-75v347h347v-75h-212l-1 -3z" />
    <glyph glyph-name="uni2197" unicode="&#x2197;" horiz-adv-x="1000" 
d="M682 458l-386 -381l-56 57l386 381l-1 3h-212v75h347v-347h-75v211z" />
    <glyph glyph-name="uni2198" unicode="&#x2198;" horiz-adv-x="1000" 
d="M760 77h-347v75h212l1 3l-386 381l56 57l386 -381l3 1v211h75v-347z" />
    <glyph glyph-name="uni2199" unicode="&#x2199;" horiz-adv-x="1000" 
d="M587 77h-347v347h75v-211l3 -1l386 381l56 -57l-386 -381l1 -3h212v-75z" />
    <glyph glyph-name="minus" unicode="&#x2212;" horiz-adv-x="610" 
d="M555 260h-500v90h500v-90z" />
    <glyph glyph-name="approxequal" unicode="&#x2248;" horiz-adv-x="635" 
d="M60 360q0 66 38 103t107 37q40 0 70.5 -12.5t69.5 -35.5q29 -17 46 -24.5t34 -7.5q27 0 41 15t14 45v15h95v-25q0 -66 -38 -103t-107 -37q-40 0 -70 12t-71 36q-27 16 -44.5 24t-34.5 8q-27 0 -41 -15t-14 -45v-15h-95v25zM60 130q0 66 38 103t107 37q40 0 70.5 -12.5
t69.5 -35.5q29 -17 46 -24.5t34 -7.5q27 0 41 15t14 45v15h95v-25q0 -66 -38 -103t-107 -37q-40 0 -70 12t-71 36q-27 16 -44.5 24t-34.5 8q-27 0 -41 -15t-14 -45v-15h-95v25z" />
    <glyph glyph-name="notequal" unicode="&#x2260;" horiz-adv-x="615" 
d="M550 460v-90h-167l-61 -130h228v-90h-271l-54 -115h-90l54 115h-124v90h167l61 130h-228v90h271l54 115h90l-54 -115h124z" />
    <glyph glyph-name="lessequal" unicode="&#x2264;" horiz-adv-x="655" 
d="M590 235v-95l-525 170v80l525 170v-95l-355 -110v-10zM590 0h-525v90h525v-90z" />
    <glyph glyph-name="greaterequal" unicode="&#x2265;" horiz-adv-x="655" 
d="M590 310l-525 -170v95l355 110v10l-355 110v95l525 -170v-80zM590 90v-90h-525v90h525z" />
    <glyph glyph-name="uni2460" unicode="&#x2460;" horiz-adv-x="1120" 
d="M307 -24q-109 56 -168 153.5t-59 220.5t59 220.5t168 153.5t253 56t253 -56t168 -153.5t59 -220.5t-59 -220.5t-168 -153.5t-253 -56t-253 56zM769.5 40.5q89.5 45.5 137.5 126t48 183.5t-48 183.5t-137.5 126t-209.5 45.5t-209.5 -45.5t-137.5 -126t-48 -183.5
t48 -183.5t137.5 -126t209.5 -45.5t209.5 45.5zM435 175v65h95v175h-95v60h55q26 0 38 12t12 38h70v-285h85v-65h-260z" />
    <glyph glyph-name="uni2461" unicode="&#x2461;" horiz-adv-x="1120" 
d="M307 -24q-109 56 -168 153.5t-59 220.5t59 220.5t168 153.5t253 56t253 -56t168 -153.5t59 -220.5t-59 -220.5t-168 -153.5t-253 -56t-253 56zM769.5 40.5q89.5 45.5 137.5 126t48 183.5t-48 183.5t-137.5 126t-209.5 45.5t-209.5 -45.5t-137.5 -126t-48 -183.5
t48 -183.5t137.5 -126t209.5 -45.5t209.5 45.5zM430 175v70l110 75q53 37 74 58t21 42q0 50 -70 50q-32 0 -71.5 -14t-68.5 -31v70q26 15 66 27.5t79 12.5q72 0 108.5 -29.5t36.5 -80.5q0 -37 -20 -63.5t-70 -61.5l-80 -55v-5h165v-65h-280z" />
    <glyph glyph-name="uni2462" unicode="&#x2462;" horiz-adv-x="1120" 
d="M307 -24q-109 56 -168 153.5t-59 220.5t59 220.5t168 153.5t253 56t253 -56t168 -153.5t59 -220.5t-59 -220.5t-168 -153.5t-253 -56t-253 56zM769.5 40.5q89.5 45.5 137.5 126t48 183.5t-48 183.5t-137.5 126t-209.5 45.5t-209.5 -45.5t-137.5 -126t-48 -183.5
t48 -183.5t137.5 -126t209.5 -45.5t209.5 45.5zM478 174.5q-37 9.5 -58 20.5v65q21 -11 58 -20.5t77 -9.5q80 0 80 45q0 50 -80 50q-27 0 -47 -3t-28 -7v65l90 75v5h-145v65h270v-40l-115 -95v-5q61 0 98 -31t37 -74q0 -31 -18.5 -57t-55 -42t-86.5 -16q-40 0 -77 9.5z" />
    <glyph glyph-name="uni2463" unicode="&#x2463;" horiz-adv-x="1120" 
d="M307 -24q-109 56 -168 153.5t-59 220.5t59 220.5t168 153.5t253 56t253 -56t168 -153.5t59 -220.5t-59 -220.5t-168 -153.5t-253 -56t-253 56zM769.5 40.5q89.5 45.5 137.5 126t48 183.5t-48 183.5t-137.5 126t-209.5 45.5t-209.5 -45.5t-137.5 -126t-48 -183.5
t48 -183.5t137.5 -126t209.5 -45.5t209.5 45.5zM655 175h-80v85h-210v65l175 200h94l-174 -195v-5h115v90h80v-90h60v-65h-60v-85z" />
    <glyph glyph-name="uni2464" unicode="&#x2464;" horiz-adv-x="1120" 
d="M307 -24q-109 56 -168 153.5t-59 220.5t59 220.5t168 153.5t253 56t253 -56t168 -153.5t59 -220.5t-59 -220.5t-168 -153.5t-253 -56t-253 56zM769.5 40.5q89.5 45.5 137.5 126t48 183.5t-48 183.5t-137.5 126t-209.5 45.5t-209.5 -45.5t-137.5 -126t-48 -183.5
t48 -183.5t137.5 -126t209.5 -45.5t209.5 45.5zM487.5 174q-37.5 9 -57.5 21v65q19 -12 54.5 -21t75.5 -9q44 0 64.5 13t20.5 32q0 50 -90 50q-32 0 -59.5 -7.5t-40.5 -17.5l-20 15l10 210h250v-65h-185l-5 -80q28 10 65 10q48 0 83 -16t53.5 -42t18.5 -57
q0 -28 -18.5 -53.5t-53.5 -41t-83 -15.5q-45 0 -82.5 9z" />
    <glyph glyph-name="uni2465" unicode="&#x2465;" horiz-adv-x="1120" 
d="M307 -24q-109 56 -168 153.5t-59 220.5t59 220.5t168 153.5t253 56t253 -56t168 -153.5t59 -220.5t-59 -220.5t-168 -153.5t-253 -56t-253 56zM769.5 40.5q89.5 45.5 137.5 126t48 183.5t-48 183.5t-137.5 126t-209.5 45.5t-209.5 -45.5t-137.5 -126t-48 -183.5
t48 -183.5t137.5 -126t209.5 -45.5t209.5 45.5zM426.5 196q-41.5 31 -41.5 79q0 40 40 86l145 164h94l-122 -135v-5h28q44 0 77 -15.5t50.5 -40.5t17.5 -54q0 -48 -41.5 -79t-123.5 -31t-123.5 31zM614 243q21 13 21 32t-21 32t-64 13q-46 0 -65.5 -13t-19.5 -32t19.5 -32
t65.5 -13q43 0 64 13z" />
    <glyph glyph-name="uni2466" unicode="&#x2466;" horiz-adv-x="1120" 
d="M307 -24q-109 56 -168 153.5t-59 220.5t59 220.5t168 153.5t253 56t253 -56t168 -153.5t59 -220.5t-59 -220.5t-168 -153.5t-253 -56t-253 56zM769.5 40.5q89.5 45.5 137.5 126t48 183.5t-48 183.5t-137.5 126t-209.5 45.5t-209.5 -45.5t-137.5 -126t-48 -183.5
t48 -183.5t137.5 -126t209.5 -45.5t209.5 45.5zM555 175h-85l145 285h-205v65h300v-44z" />
    <glyph glyph-name="uni2467" unicode="&#x2467;" horiz-adv-x="1120" 
d="M307 -24q-109 56 -168 153.5t-59 220.5t59 220.5t168 153.5t253 56t253 -56t168 -153.5t59 -220.5t-59 -220.5t-168 -153.5t-253 -56t-253 56zM769.5 40.5q89.5 45.5 137.5 126t48 183.5t-48 183.5t-137.5 126t-209.5 45.5t-209.5 -45.5t-137.5 -126t-48 -183.5
t48 -183.5t137.5 -126t209.5 -45.5t209.5 45.5zM465 179q-38 14 -56.5 35.5t-18.5 45.5q0 33 26.5 56.5t68.5 23.5v5q-45 0 -75 26t-30 59q0 26 19.5 50.5t60.5 39.5t100 15t100 -15t60.5 -39.5t19.5 -50.5q0 -33 -30 -59t-75 -26v-5q42 0 68.5 -23.5t26.5 -56.5
q0 -24 -18.5 -45.5t-56.5 -35.5t-95 -14t-95 14zM636 389q24 14 24 33q0 20 -24 34t-76 14t-76 -14t-24 -34q0 -19 24 -33t76 -14t76 14zM629 241.5q21 11.5 21 28.5q0 45 -90 45t-90 -45q0 -17 21 -28.5t69 -11.5t69 11.5z" />
    <glyph glyph-name="uni2468" unicode="&#x2468;" horiz-adv-x="1120" 
d="M307 -24q-109 56 -168 153.5t-59 220.5t59 220.5t168 153.5t253 56t253 -56t168 -153.5t59 -220.5t-59 -220.5t-168 -153.5t-253 -56t-253 56zM769.5 40.5q89.5 45.5 137.5 126t48 183.5t-48 183.5t-137.5 126t-209.5 45.5t-209.5 -45.5t-137.5 -126t-48 -183.5
t48 -183.5t137.5 -126t209.5 -45.5t209.5 45.5zM473 175l109 125v5h-20q-89 0 -135.5 33t-46.5 82t46 82t134 33t134 -33t46 -82q0 -17 -8.5 -35.5t-30.5 -45.5l-136 -164h-92zM636 384.5q24 14.5 24 35.5t-24 35.5t-76 14.5t-76 -14.5t-24 -35.5t24 -35.5t76 -14.5t76 14.5
z" />
    <glyph glyph-name="uni2469" unicode="&#x2469;" horiz-adv-x="1120" 
d="M307 -24q-109 56 -168 153.5t-59 220.5t59 220.5t168 153.5t253 56t253 -56t168 -153.5t59 -220.5t-59 -220.5t-168 -153.5t-253 -56t-253 56zM769.5 40.5q89.5 45.5 137.5 126t48 183.5t-48 183.5t-137.5 126t-209.5 45.5t-209.5 -45.5t-137.5 -126t-48 -183.5
t48 -183.5t137.5 -126t209.5 -45.5t209.5 45.5zM576.5 216.5q-51.5 51.5 -51.5 133.5q0 83 51.5 134t133.5 51q83 0 134 -51t51 -134q0 -82 -51 -133.5t-134 -51.5q-82 0 -133.5 51.5zM260 175v65h95v175h-95v60h55q26 0 38 12t12 38h70v-285h85v-65h-260zM785.5 262.5
q29.5 32.5 29.5 87.5t-29.5 87.5t-75.5 32.5t-75.5 -32.5t-29.5 -87.5t29.5 -87.5t75.5 -32.5t75.5 32.5z" />
    <glyph glyph-name="uni24EA" unicode="&#x24ea;" horiz-adv-x="1120" 
d="M307 -24q-109 56 -168 153.5t-59 220.5t59 220.5t168 153.5t253 56t253 -56t168 -153.5t59 -220.5t-59 -220.5t-168 -153.5t-253 -56t-253 56zM769.5 40.5q89.5 45.5 137.5 126t48 183.5t-48 183.5t-137.5 126t-209.5 45.5t-209.5 -45.5t-137.5 -126t-48 -183.5
t48 -183.5t137.5 -126t209.5 -45.5t209.5 45.5zM426.5 216.5q-51.5 51.5 -51.5 133.5q0 83 51.5 134t133.5 51q83 0 134 -51t51 -134q0 -82 -51 -133.5t-134 -51.5q-82 0 -133.5 51.5zM635.5 262.5q29.5 32.5 29.5 87.5t-29.5 87.5t-75.5 32.5t-75.5 -32.5t-29.5 -87.5
t29.5 -87.5t75.5 -32.5t75.5 32.5z" />
    <glyph glyph-name="uni24F5" unicode="&#x24f5;" horiz-adv-x="1130" 
d="M306 -25q-110 55 -168 152.5t-58 222.5t58 222.5t168 152.5t259 55t259 -55t168 -152.5t58 -222.5t-58 -222.5t-168 -152.5t-259 -55t-259 55zM808 -3q103 52 157.5 143.5t54.5 209.5t-54.5 209.5t-157.5 143.5t-243 52t-243 -52t-157.5 -143.5t-54.5 -209.5t54.5 -209.5
t157.5 -143.5t243 -52t243 52zM339 18.5q-96 48.5 -147.5 135t-51.5 196.5t51.5 196.5t147.5 135t226 48.5t226 -48.5t147.5 -135t51.5 -196.5t-51.5 -196.5t-147.5 -135t-226 -48.5t-226 48.5zM774.5 40.5q89.5 45.5 137.5 126t48 183.5t-48 183.5t-137.5 126t-209.5 45.5
t-209.5 -45.5t-137.5 -126t-48 -183.5t48 -183.5t137.5 -126t209.5 -45.5t209.5 45.5zM435 175v65h95v175h-95v60h55q26 0 38 12t12 38h70v-285h85v-65h-260z" />
    <glyph glyph-name="uni24F6" unicode="&#x24f6;" horiz-adv-x="1130" 
d="M306 -25q-110 55 -168 152.5t-58 222.5t58 222.5t168 152.5t259 55t259 -55t168 -152.5t58 -222.5t-58 -222.5t-168 -152.5t-259 -55t-259 55zM808 -3q103 52 157.5 143.5t54.5 209.5t-54.5 209.5t-157.5 143.5t-243 52t-243 -52t-157.5 -143.5t-54.5 -209.5t54.5 -209.5
t157.5 -143.5t243 -52t243 52zM339 18.5q-96 48.5 -147.5 135t-51.5 196.5t51.5 196.5t147.5 135t226 48.5t226 -48.5t147.5 -135t51.5 -196.5t-51.5 -196.5t-147.5 -135t-226 -48.5t-226 48.5zM774.5 40.5q89.5 45.5 137.5 126t48 183.5t-48 183.5t-137.5 126t-209.5 45.5
t-209.5 -45.5t-137.5 -126t-48 -183.5t48 -183.5t137.5 -126t209.5 -45.5t209.5 45.5zM430 175v70l110 75q53 37 74 58t21 42q0 50 -70 50q-32 0 -71.5 -14t-68.5 -31v70q26 15 66 27.5t79 12.5q72 0 108.5 -29.5t36.5 -80.5q0 -37 -20 -63.5t-70 -61.5l-80 -55v-5h165v-65
h-280z" />
    <glyph glyph-name="uni24F7" unicode="&#x24f7;" horiz-adv-x="1130" 
d="M306 -25q-110 55 -168 152.5t-58 222.5t58 222.5t168 152.5t259 55t259 -55t168 -152.5t58 -222.5t-58 -222.5t-168 -152.5t-259 -55t-259 55zM808 -3q103 52 157.5 143.5t54.5 209.5t-54.5 209.5t-157.5 143.5t-243 52t-243 -52t-157.5 -143.5t-54.5 -209.5t54.5 -209.5
t157.5 -143.5t243 -52t243 52zM339 18.5q-96 48.5 -147.5 135t-51.5 196.5t51.5 196.5t147.5 135t226 48.5t226 -48.5t147.5 -135t51.5 -196.5t-51.5 -196.5t-147.5 -135t-226 -48.5t-226 48.5zM774.5 40.5q89.5 45.5 137.5 126t48 183.5t-48 183.5t-137.5 126t-209.5 45.5
t-209.5 -45.5t-137.5 -126t-48 -183.5t48 -183.5t137.5 -126t209.5 -45.5t209.5 45.5zM478 174.5q-37 9.5 -58 20.5v65q21 -11 58 -20.5t77 -9.5q80 0 80 45q0 50 -80 50q-27 0 -47 -3t-28 -7v65l90 75v5h-145v65h270v-40l-115 -95v-5q61 0 98 -31t37 -74q0 -31 -18.5 -57
t-55 -42t-86.5 -16q-40 0 -77 9.5z" />
    <glyph glyph-name="uni24F8" unicode="&#x24f8;" horiz-adv-x="1130" 
d="M306 -25q-110 55 -168 152.5t-58 222.5t58 222.5t168 152.5t259 55t259 -55t168 -152.5t58 -222.5t-58 -222.5t-168 -152.5t-259 -55t-259 55zM808 -3q103 52 157.5 143.5t54.5 209.5t-54.5 209.5t-157.5 143.5t-243 52t-243 -52t-157.5 -143.5t-54.5 -209.5t54.5 -209.5
t157.5 -143.5t243 -52t243 52zM339 18.5q-96 48.5 -147.5 135t-51.5 196.5t51.5 196.5t147.5 135t226 48.5t226 -48.5t147.5 -135t51.5 -196.5t-51.5 -196.5t-147.5 -135t-226 -48.5t-226 48.5zM774.5 40.5q89.5 45.5 137.5 126t48 183.5t-48 183.5t-137.5 126t-209.5 45.5
t-209.5 -45.5t-137.5 -126t-48 -183.5t48 -183.5t137.5 -126t209.5 -45.5t209.5 45.5zM655 175h-80v85h-210v65l175 200h94l-174 -195v-5h115v90h80v-90h60v-65h-60v-85z" />
    <glyph glyph-name="uni24F9" unicode="&#x24f9;" horiz-adv-x="1130" 
d="M306 -25q-110 55 -168 152.5t-58 222.5t58 222.5t168 152.5t259 55t259 -55t168 -152.5t58 -222.5t-58 -222.5t-168 -152.5t-259 -55t-259 55zM808 -3q103 52 157.5 143.5t54.5 209.5t-54.5 209.5t-157.5 143.5t-243 52t-243 -52t-157.5 -143.5t-54.5 -209.5t54.5 -209.5
t157.5 -143.5t243 -52t243 52zM339 18.5q-96 48.5 -147.5 135t-51.5 196.5t51.5 196.5t147.5 135t226 48.5t226 -48.5t147.5 -135t51.5 -196.5t-51.5 -196.5t-147.5 -135t-226 -48.5t-226 48.5zM774.5 40.5q89.5 45.5 137.5 126t48 183.5t-48 183.5t-137.5 126t-209.5 45.5
t-209.5 -45.5t-137.5 -126t-48 -183.5t48 -183.5t137.5 -126t209.5 -45.5t209.5 45.5zM487.5 174q-37.5 9 -57.5 21v65q19 -12 54.5 -21t75.5 -9q44 0 64.5 13t20.5 32q0 50 -90 50q-32 0 -59.5 -7.5t-40.5 -17.5l-20 15l10 210h250v-65h-185l-5 -80q28 10 65 10
q48 0 83 -16t53.5 -42t18.5 -57q0 -28 -18.5 -53.5t-53.5 -41t-83 -15.5q-45 0 -82.5 9z" />
    <glyph glyph-name="uni24FA" unicode="&#x24fa;" horiz-adv-x="1130" 
d="M306 -25q-110 55 -168 152.5t-58 222.5t58 222.5t168 152.5t259 55t259 -55t168 -152.5t58 -222.5t-58 -222.5t-168 -152.5t-259 -55t-259 55zM808 -3q103 52 157.5 143.5t54.5 209.5t-54.5 209.5t-157.5 143.5t-243 52t-243 -52t-157.5 -143.5t-54.5 -209.5t54.5 -209.5
t157.5 -143.5t243 -52t243 52zM339 18.5q-96 48.5 -147.5 135t-51.5 196.5t51.5 196.5t147.5 135t226 48.5t226 -48.5t147.5 -135t51.5 -196.5t-51.5 -196.5t-147.5 -135t-226 -48.5t-226 48.5zM774.5 40.5q89.5 45.5 137.5 126t48 183.5t-48 183.5t-137.5 126t-209.5 45.5
t-209.5 -45.5t-137.5 -126t-48 -183.5t48 -183.5t137.5 -126t209.5 -45.5t209.5 45.5zM426.5 196q-41.5 31 -41.5 79q0 40 40 86l145 164h94l-122 -135v-5h28q44 0 77 -15.5t50.5 -40.5t17.5 -54q0 -48 -41.5 -79t-123.5 -31t-123.5 31zM614 243q21 13 21 32t-21 32t-64 13
q-46 0 -65.5 -13t-19.5 -32t19.5 -32t65.5 -13q43 0 64 13z" />
    <glyph glyph-name="uni24FB" unicode="&#x24fb;" horiz-adv-x="1130" 
d="M306 -25q-110 55 -168 152.5t-58 222.5t58 222.5t168 152.5t259 55t259 -55t168 -152.5t58 -222.5t-58 -222.5t-168 -152.5t-259 -55t-259 55zM808 -3q103 52 157.5 143.5t54.5 209.5t-54.5 209.5t-157.5 143.5t-243 52t-243 -52t-157.5 -143.5t-54.5 -209.5t54.5 -209.5
t157.5 -143.5t243 -52t243 52zM339 18.5q-96 48.5 -147.5 135t-51.5 196.5t51.5 196.5t147.5 135t226 48.5t226 -48.5t147.5 -135t51.5 -196.5t-51.5 -196.5t-147.5 -135t-226 -48.5t-226 48.5zM774.5 40.5q89.5 45.5 137.5 126t48 183.5t-48 183.5t-137.5 126t-209.5 45.5
t-209.5 -45.5t-137.5 -126t-48 -183.5t48 -183.5t137.5 -126t209.5 -45.5t209.5 45.5zM555 175h-85l145 285h-205v65h300v-44z" />
    <glyph glyph-name="uni24FC" unicode="&#x24fc;" horiz-adv-x="1130" 
d="M306 -25q-110 55 -168 152.5t-58 222.5t58 222.5t168 152.5t259 55t259 -55t168 -152.5t58 -222.5t-58 -222.5t-168 -152.5t-259 -55t-259 55zM808 -3q103 52 157.5 143.5t54.5 209.5t-54.5 209.5t-157.5 143.5t-243 52t-243 -52t-157.5 -143.5t-54.5 -209.5t54.5 -209.5
t157.5 -143.5t243 -52t243 52zM339 18.5q-96 48.5 -147.5 135t-51.5 196.5t51.5 196.5t147.5 135t226 48.5t226 -48.5t147.5 -135t51.5 -196.5t-51.5 -196.5t-147.5 -135t-226 -48.5t-226 48.5zM774.5 40.5q89.5 45.5 137.5 126t48 183.5t-48 183.5t-137.5 126t-209.5 45.5
t-209.5 -45.5t-137.5 -126t-48 -183.5t48 -183.5t137.5 -126t209.5 -45.5t209.5 45.5zM465 179q-38 14 -56.5 35.5t-18.5 45.5q0 33 26.5 56.5t68.5 23.5v5q-45 0 -75 26t-30 59q0 26 19.5 50.5t60.5 39.5t100 15t100 -15t60.5 -39.5t19.5 -50.5q0 -33 -30 -59t-75 -26v-5
q42 0 68.5 -23.5t26.5 -56.5q0 -24 -18.5 -45.5t-56.5 -35.5t-95 -14t-95 14zM636 389q24 14 24 33q0 20 -24 34t-76 14t-76 -14t-24 -34q0 -19 24 -33t76 -14t76 14zM629 241.5q21 11.5 21 28.5q0 45 -90 45t-90 -45q0 -17 21 -28.5t69 -11.5t69 11.5z" />
    <glyph glyph-name="uni24FD" unicode="&#x24fd;" horiz-adv-x="1130" 
d="M306 -25q-110 55 -168 152.5t-58 222.5t58 222.5t168 152.5t259 55t259 -55t168 -152.5t58 -222.5t-58 -222.5t-168 -152.5t-259 -55t-259 55zM808 -3q103 52 157.5 143.5t54.5 209.5t-54.5 209.5t-157.5 143.5t-243 52t-243 -52t-157.5 -143.5t-54.5 -209.5t54.5 -209.5
t157.5 -143.5t243 -52t243 52zM339 18.5q-96 48.5 -147.5 135t-51.5 196.5t51.5 196.5t147.5 135t226 48.5t226 -48.5t147.5 -135t51.5 -196.5t-51.5 -196.5t-147.5 -135t-226 -48.5t-226 48.5zM774.5 40.5q89.5 45.5 137.5 126t48 183.5t-48 183.5t-137.5 126t-209.5 45.5
t-209.5 -45.5t-137.5 -126t-48 -183.5t48 -183.5t137.5 -126t209.5 -45.5t209.5 45.5zM473 175l109 125v5h-20q-89 0 -135.5 33t-46.5 82t46 82t134 33t134 -33t46 -82q0 -17 -8.5 -35.5t-30.5 -45.5l-136 -164h-92zM636 384.5q24 14.5 24 35.5t-24 35.5t-76 14.5t-76 -14.5
t-24 -35.5t24 -35.5t76 -14.5t76 14.5z" />
    <glyph glyph-name="uni24FE" unicode="&#x24fe;" horiz-adv-x="1130" 
d="M306 -25q-110 55 -168 152.5t-58 222.5t58 222.5t168 152.5t259 55t259 -55t168 -152.5t58 -222.5t-58 -222.5t-168 -152.5t-259 -55t-259 55zM808 -3q103 52 157.5 143.5t54.5 209.5t-54.5 209.5t-157.5 143.5t-243 52t-243 -52t-157.5 -143.5t-54.5 -209.5t54.5 -209.5
t157.5 -143.5t243 -52t243 52zM339 18.5q-96 48.5 -147.5 135t-51.5 196.5t51.5 196.5t147.5 135t226 48.5t226 -48.5t147.5 -135t51.5 -196.5t-51.5 -196.5t-147.5 -135t-226 -48.5t-226 48.5zM774.5 40.5q89.5 45.5 137.5 126t48 183.5t-48 183.5t-137.5 126t-209.5 45.5
t-209.5 -45.5t-137.5 -126t-48 -183.5t48 -183.5t137.5 -126t209.5 -45.5t209.5 45.5zM576.5 219.5q-51.5 51.5 -51.5 133.5q0 83 51.5 134t133.5 51q83 0 134 -51t51 -134q0 -82 -51 -133.5t-134 -51.5q-82 0 -133.5 51.5zM260 173v66h96v176h-96v61h56q26 0 38 12t12 38
h71v-287h85v-66h-262zM785.5 265.5q29.5 32.5 29.5 87.5t-29.5 87.5t-75.5 32.5t-75.5 -32.5t-29.5 -87.5t29.5 -87.5t75.5 -32.5t75.5 32.5z" />
    <glyph glyph-name="uniF6D1" unicode="&#xf6d1;" horiz-adv-x="460" 
d="M81 797.5q-51 42.5 -51 112.5h90q0 -75 110 -75t110 75h90q0 -70 -51 -112.5t-149 -42.5t-149 42.5z" />
    <glyph glyph-name="uniF6D4" unicode="&#xf6d4;" horiz-adv-x="410" 
d="M73.5 597q-43.5 37 -43.5 103h80q0 -32 22.5 -48.5t72.5 -16.5t72.5 16.5t22.5 48.5h80q0 -66 -43.5 -103t-131.5 -37t-131.5 37z" />
    <glyph glyph-name="questiondown.alt" horiz-adv-x="585" 
d="M290 449q-20 19 -20 46t20 46t50 19t50 -19t20 -46t-20 -46t-50 -19t-50 19zM145 -173q-75 27 -110 72.5t-35 100.5q0 67 46.5 115t116.5 75t142 34v126h80l25 -200q-72 -2 -142 -18.5t-116.5 -48.5t-46.5 -78q0 -30 23.5 -56t75 -42.5t131.5 -16.5q85 0 157 19.5
t108 43.5v-100q-36 -20 -108 -36.5t-157 -16.5q-115 0 -190 27z" />
    <glyph glyph-name="Iacute_J.loclNLD" horiz-adv-x="1300" 
d="M700 700v-95h-280v-510h280v-95h-660v95h280v510h-280v95h660zM235 770h-10l-10 60l245 100h30l10 -105zM755 20v96q92 -31 172 -31q88 0 138 44.5t50 132.5v438h100v-443q0 -129 -75.5 -198t-212.5 -69q-83 0 -172 30zM1030 770h-10l-10 60l245 100h30l10 -105z" />
    <glyph glyph-name="i.loclTRK" horiz-adv-x="230" 
d="M63 614.5q-18 14.5 -18 40.5t18 40.5t52 14.5t52 -14.5t18 -40.5t-18 -40.5t-52 -14.5t-52 14.5zM65 0v550h5h45h45h5v-550h-100z" />
    <glyph glyph-name="iacute_j.loclNLD" horiz-adv-x="460" 
d="M30 620h-10l-10 60l165 100h30l10 -100zM260 620h-10l-10 60l165 100h30l10 -100zM165 0h-100v550h100v-550zM135 -187v86q35 -9 71 -9q40 0 64.5 27t24.5 73v560h100v-558q0 -93 -44 -142.5t-129 -49.5q-47 0 -87 13z" />
    <glyph glyph-name="F_O_R" horiz-adv-x="1900" 
d="M85 0v700h640v-35q33 17 93 31t127 14t127 -14t93 -31v35h395q90 0 151.5 -27t92.5 -74.5t31 -108.5q0 -55 -26 -98t-76 -67.5t-118 -24.5v-5q95 0 142.5 -41t47.5 -114v-140h-100v135q0 115 -145 115h-204q-32 -117 -138 -188.5t-273 -71.5q-132 0 -228 46.5
t-146.5 128.5t-50.5 185q0 85 34 153.5t76 101.5h-445v-235h280v-95h-280v-275h-100zM1115 115.5q73 35.5 111.5 97.5t38.5 137t-38.5 137t-111.5 97.5t-170 35.5t-170 -35.5t-111.5 -97.5t-38.5 -137t38.5 -137t111.5 -97.5t170 -35.5t170 35.5zM1686.5 569.5
q-43.5 35.5 -126.5 35.5h-300q55 -47 82.5 -114t27.5 -141v-5h190q83 0 126.5 35.5t43.5 94.5t-43.5 94.5z" />
    <glyph glyph-name="H_E" horiz-adv-x="1310" 
d="M755 305v-210h500v-95h-600v305h-470v-305h-100v700h100v-300h470v300h580v-95h-480v-205h440v-95h-440z" />
    <glyph glyph-name="M_E" horiz-adv-x="1525" 
d="M970 305v-210h500v-95h-600v615h-5l-335 -635l-340 635h-5v-615h-100v700h172l276 -519h5l265 519h647v-95h-480v-205h440v-95h-440z" />
    <glyph glyph-name="O_C" horiz-adv-x="1490" 
d="M273.5 36.5q-100.5 46.5 -152 128t-51.5 185.5t51.5 185.5t152 128t241.5 46.5q194 0 312 -88q120 88 313 88q88 0 165.5 -23t119.5 -52v-105q-40 34 -117.5 62t-167.5 28q-107 0 -183.5 -35.5t-116.5 -97t-40 -137.5q0 -75 38.5 -137t111.5 -97.5t170 -35.5
q84 0 158.5 21.5t116.5 47.5v-102q-41 -22 -116 -39.5t-159 -17.5q-180 0 -294 87q-117 -87 -311 -87q-141 0 -241.5 46.5zM756 149q-61 87 -61 201q0 115 62 200q-92 70 -242 70q-107 0 -183.5 -35.5t-116.5 -97t-40 -137.5t40 -137.5t116.5 -97t183.5 -35.5q150 0 241 69z
" />
    <glyph glyph-name="T_H_E" horiz-adv-x="1895" 
d="M1340 305v-210h500v-95h-600v305h-470v-305h-100v605h-270v-605h-100v605h-280v95h750v-300h470v300h580v-95h-480v-205h440v-95h-440z" />
    <glyph glyph-name="T_O" horiz-adv-x="1540" 
d="M1035 700q139 0 237 -45t148 -124.5t50 -180.5q0 -106 -50 -187.5t-148 -127t-237 -45.5t-237 45.5t-148 125.5t-50 184q0 85 37 153.5t83 101.5v5h-320v-605h-100v605h-280v95h1015zM1214.5 114.5q74.5 34.5 112.5 94.5t38 136t-38 136t-112.5 94.5t-179.5 34.5
t-179.5 -34.5t-112.5 -94.5t-38 -136t38 -136t112.5 -94.5t179.5 -34.5t179.5 34.5z" />
    <glyph glyph-name="W_A_S" horiz-adv-x="2275" 
d="M1708.5 453.5q28.5 -21.5 71 -32.5t118.5 -25q100 -19 162 -37.5t106 -60t44 -113.5q0 -52 -33.5 -96.5t-102.5 -71.5t-169 -27q-185 0 -302 49t-178 156h-367l-88 -195h-130l-212 575h-6l-212 -575h-130l-275 700h105l235 -605h5l220 605h110l225 -610h5l280 610h110
l197 -420q49 -105 144 -152.5t259 -47.5q71 0 117 15t67 39t21 51q0 35 -28.5 56.5t-71 32.5t-118.5 25q-100 19 -162 37.5t-106 60t-44 113.5q0 53 35.5 98.5t111 73.5t189.5 28q86 0 165.5 -23t123.5 -49v-104q-42 32 -121.5 59t-167.5 27q-82 0 -134 -16t-74.5 -41
t-22.5 -53q0 -35 28.5 -56.5zM1246 600h-6l-139 -310h280z" />
    <glyph glyph-name="a_n" horiz-adv-x="1135" 
d="M101.5 33.5q-56.5 43.5 -56.5 111.5q0 76 65 123t200 47q119 0 159.5 22t40.5 53q0 38 -40.5 61.5t-134.5 23.5q-70 0 -137.5 -21.5t-107.5 -48.5v95q33 23 100.5 41.5t149.5 18.5q77 0 131.5 -15t83.5 -38t35 -47h5q35 38 102.5 69t147.5 31q69 0 121 -28t80.5 -79
t28.5 -118v-335h-100v325q0 76 -39.5 115.5t-105.5 39.5q-68 0 -127.5 -35.5t-92.5 -79.5v-365h-100v70q-35 -30 -101.5 -55t-143.5 -25q-107 0 -163.5 43.5zM420 103q62 28 90 62v105q-13 -17 -68 -31t-142 -14q-84 0 -119.5 -20.5t-35.5 -54.5q0 -75 135 -75q78 0 140 28z
" />
    <glyph glyph-name="a_s" horiz-adv-x="1230" 
d="M101.5 33.5q-56.5 43.5 -56.5 111.5q0 76 65 123t200 47q119 0 159.5 22t40.5 53q0 85 -173 85q-68 0 -136 -21.5t-111 -48.5v95q37 23 104 41.5t146 18.5q144 0 207 -46.5t63 -133.5v-200q43 -40 133 -72.5t197 -32.5q83 0 119 20t36 50q0 36 -38.5 52.5t-119.5 31.5
q-79 15 -128 31t-84 50.5t-35 94.5q0 42 26.5 77t82 56.5t136.5 21.5q75 0 142 -18.5t103 -41.5v-95q-37 27 -102.5 48.5t-137.5 21.5q-52 0 -85.5 -10.5t-49 -26.5t-15.5 -33q0 -25 21 -41t52 -25t87 -20q76 -15 125.5 -31t84.5 -50.5t35 -92.5q0 -39 -28.5 -74.5t-86 -58
t-140.5 -22.5q-115 0 -216 34t-154 76h-5q-48 -42 -130.5 -76t-169.5 -34q-107 0 -163.5 43.5zM421.5 103q61.5 28 88.5 62v105q-15 -17 -70 -31t-140 -14q-84 0 -119.5 -20.5t-35.5 -54.5q0 -75 135 -75q80 0 141.5 28z" />
    <glyph glyph-name="o_f" horiz-adv-x="1110" 
d="M207 27.5q-76 37.5 -116.5 102.5t-40.5 145t40.5 145t116.5 102.5t178 37.5q68 0 120.5 -15.5t75.5 -34.5q7 15 29.5 27.5t54.5 12.5h180v18q0 74 44.5 118t120.5 44q55 0 100 -16v-85q-40 16 -83 16q-39 0 -60.5 -21t-21.5 -57v-17h145v-85h-145v-465h-100v465h-200v-5
q29 -23 52 -73t23 -112q0 -80 -40.5 -145t-116.5 -102.5t-178 -37.5t-178 37.5zM559.5 129q60.5 54 60.5 146t-60.5 146t-174.5 54t-174.5 -54t-60.5 -146t60.5 -146t174.5 -54t174.5 54z" />
    <glyph glyph-name="r_e" horiz-adv-x="1060" 
d="M65 0v550h100v-88h5q20 34 71 61t124 27h330q155 0 235 -72.5t80 -202.5v-40h-500q15 -73 77 -116.5t158 -43.5q65 0 125 21.5t95 48.5v-95q-35 -23 -95 -41.5t-125 -18.5q-100 0 -175 37.5t-115 102.5t-40 145q0 109 70 179v1h-150q-68 0 -112.5 -25.5t-57.5 -56.5v-373
h-100zM910 315q0 41 -23 75t-66 54.5t-101 20.5q-184 0 -205 -150h395z" />
    <glyph glyph-name="a.alt" horiz-adv-x="749" 
d="M200.5 27.5q-71.5 37.5 -111 102.5t-39.5 145t39.5 145t111 102.5t164.5 37.5q70 0 127.5 -25t86.5 -55h5v70h100v-550h-100v70h-5q-29 -30 -86.5 -55t-127.5 -25q-93 0 -164.5 37.5zM503.5 101q55.5 26 80.5 59v230q-25 33 -80.5 59t-128.5 26q-69 0 -119.5 -26t-78 -71
t-27.5 -103t27.5 -103t78 -71t119.5 -26q73 0 128.5 26z" />
    <glyph glyph-name="aacute.alt" horiz-adv-x="749" 
d="M200.5 27.5q-71.5 37.5 -111 102.5t-39.5 145t39.5 145t111 102.5t164.5 37.5q70 0 127.5 -25t86.5 -55h5v70h100v-550h-100v70h-5q-29 -30 -86.5 -55t-127.5 -25q-93 0 -164.5 37.5zM503.5 101q55.5 26 80.5 59v230q-25 33 -80.5 59t-128.5 26q-69 0 -119.5 -26t-78 -71
t-27.5 -103t27.5 -103t78 -71t119.5 -26q73 0 128.5 26zM235 620h-10l-10 60l245 100h30l10 -105z" />
    <glyph glyph-name="abreve.alt" horiz-adv-x="749" 
d="M200.5 27.5q-71.5 37.5 -111 102.5t-39.5 145t39.5 145t111 102.5t164.5 37.5q70 0 127.5 -25t86.5 -55h5v70h100v-550h-100v70h-5q-29 -30 -86.5 -55t-127.5 -25q-93 0 -164.5 37.5zM503.5 101q55.5 26 80.5 59v230q-25 33 -80.5 59t-128.5 26q-69 0 -119.5 -26t-78 -71
t-27.5 -103t27.5 -103t78 -71t119.5 -26q73 0 128.5 26zM232.5 668.5q-47.5 38.5 -47.5 101.5h90q0 -32 22.5 -48.5t72.5 -16.5t72.5 16.5t22.5 48.5h90q0 -63 -47.5 -101.5t-137.5 -38.5t-137.5 38.5z" />
    <glyph glyph-name="acircumflex.alt" horiz-adv-x="749" 
d="M200.5 27.5q-71.5 37.5 -111 102.5t-39.5 145t39.5 145t111 102.5t164.5 37.5q70 0 127.5 -25t86.5 -55h5v70h100v-550h-100v70h-5q-29 -30 -86.5 -55t-127.5 -25q-93 0 -164.5 37.5zM503.5 101q55.5 26 80.5 59v230q-25 33 -80.5 59t-128.5 26q-69 0 -119.5 -26t-78 -71
t-27.5 -103t27.5 -103t78 -71t119.5 -26q73 0 128.5 26zM265 630h-120l165 140h120l165 -140h-120l-100 85h-10z" />
    <glyph glyph-name="adieresis.alt" horiz-adv-x="749" 
d="M200.5 27.5q-71.5 37.5 -111 102.5t-39.5 145t39.5 145t111 102.5t164.5 37.5q70 0 127.5 -25t86.5 -55h5v70h100v-550h-100v70h-5q-29 -30 -86.5 -55t-127.5 -25q-93 0 -164.5 37.5zM503.5 101q55.5 26 80.5 59v230q-25 33 -80.5 59t-128.5 26q-69 0 -119.5 -26t-78 -71
t-27.5 -103t27.5 -103t78 -71t119.5 -26q73 0 128.5 26zM216.5 654.5q-19.5 19.5 -19.5 45.5t19.5 45.5t45.5 19.5t45.5 -19.5t19.5 -45.5t-19.5 -45.5t-45.5 -19.5t-45.5 19.5zM431.5 654.5q-19.5 19.5 -19.5 45.5t19.5 45.5t45.5 19.5t45.5 -19.5t19.5 -45.5t-19.5 -45.5
t-45.5 -19.5t-45.5 19.5z" />
    <glyph glyph-name="agrave.alt" horiz-adv-x="749" 
d="M200.5 27.5q-71.5 37.5 -111 102.5t-39.5 145t39.5 145t111 102.5t164.5 37.5q70 0 127.5 -25t86.5 -55h5v70h100v-550h-100v70h-5q-29 -30 -86.5 -55t-127.5 -25q-93 0 -164.5 37.5zM503.5 101q55.5 26 80.5 59v230q-25 33 -80.5 59t-128.5 26q-69 0 -119.5 -26t-78 -71
t-27.5 -103t27.5 -103t78 -71t119.5 -26q73 0 128.5 26zM515 620h-10l-265 55l10 105h30l245 -100z" />
    <glyph glyph-name="amacron.alt" horiz-adv-x="749" 
d="M200.5 27.5q-71.5 37.5 -111 102.5t-39.5 145t39.5 145t111 102.5t164.5 37.5q70 0 127.5 -25t86.5 -55h5v70h100v-550h-100v70h-5q-29 -30 -86.5 -55t-127.5 -25q-93 0 -164.5 37.5zM503.5 101q55.5 26 80.5 59v230q-25 33 -80.5 59t-128.5 26q-69 0 -119.5 -26t-78 -71
t-27.5 -103t27.5 -103t78 -71t119.5 -26q73 0 128.5 26zM560 655h-380v85h380v-85z" />
    </font>
</defs>
</svg>
