<?xml version="1.0" standalone="no"?>
<!DOCTYPE svg PUBLIC "-//W3C//DTD SVG 1.1//EN" "http://www.w3.org/Graphics/SVG/1.1/DTD/svg11.dtd" >
<svg xmlns="http://www.w3.org/2000/svg" xmlns:xlink="http://www.w3.org/1999/xlink" version="1.1">
<metadata>
Created by FontForge 20201107 at Mon Feb  6 14:54:41 2023
 By 
Copyright (c) 2020-2021 by TypeType. All rights reserved. Special version for DaFont.
</metadata>
<defs>
<font id="TTRunsTrial-DemiBoldItalic" horiz-adv-x="755" >
  <font-face 
    font-family="TT Runs Trial DemiBold"
    font-weight="600"
    font-style="italic"
    font-stretch="normal"
    units-per-em="1000"
    panose-1="2 0 0 0 0 0 0 0 6 7"
    ascent="800"
    descent="-200"
    x-height="550"
    cap-height="700"
    bbox="-501 -318 2321 960"
    underline-thickness="85"
    underline-position="-184"
    slope="-11"
    unicode-range="U+000D-FB03"
  />
<missing-glyph horiz-adv-x="900" 
d="M168 0v284h45v-139h33v139h50v31h-128v126l19 -61h23l34 106l33 -106h23l54 170h-32l-34 -110l-35 110h-19l-35 -110l-31 103v157h700v-150h-110v-170h110v-91q-6 13 -19.5 20t-30.5 7q-27 0 -43.5 -14.5t-16.5 -34.5q0 -22 14.5 -32.5t39.5 -17.5q17 -5 25.5 -9.5
t8.5 -13.5q0 -21 -28 -21q-14 0 -21 7t-7 18h-33q0 -24 17 -39.5t44 -15.5q17 0 30.5 6.5t19.5 13.5v-163h-700zM379 380h33v62h24l35 -62h37l-40 67q36 17 36 50q0 22 -16 37.5t-41 15.5h-68v-170zM537 550v-170h33v170h-33zM648 519v-139h32v139h50v31h-132v-31h50z
M412 473v46h35q10 0 17 -6.5t7 -16.5q0 -12 -7.5 -17.5t-16.5 -5.5h-35zM868 483h-78v36h78v-36zM868 411h-78v41h78v-41zM455.5 167.5q22.5 24.5 22.5 61.5t-23 62t-59 25t-59 -25t-23 -62t22.5 -61.5t59.5 -24.5t59.5 24.5zM701 162q19 19 19 47v106h-32v-106
q0 -15 -9.5 -25t-25.5 -10q-17 0 -26.5 10.5t-9.5 24.5v106h-32v-106q0 -28 19.5 -47t48.5 -19t48 19zM868 224q-15 14 -46 22q-16 5 -23 9t-7 12q0 9 7.5 14.5t18.5 5.5q10 0 18 -7t8 -18h24v-38zM359.5 190q-14.5 16 -14.5 39q0 25 14 40.5t37 15.5t37 -15.5t14 -40.5
q0 -23 -14.5 -39t-36.5 -16t-36.5 16z" />
    <glyph glyph-name="ff" unicode="ff" horiz-adv-x="805" 
d="M108 0l85 440h-108l16 80h108l6 33q16 87 69 132t141 45q59 0 111 -17l-21 -110q-41 12 -71 12q-36 0 -60 -17t-30 -52l-5 -26h245l6 33q16 88 69 132.5t147 44.5q62 0 121 -20l-21 -111q-44 16 -86 16t-64 -19.5t-29 -58.5l-3 -17h147l-16 -80h-147l-85 -440h-140
l85 440h-245l-85 -440h-140z" />
    <glyph glyph-name="fi" unicode="fi" horiz-adv-x="698" 
d="M108 0l85 440h-108l16 80h108l7 37q16 83 86 128t188 45q63 0 128.5 -8.5t147.5 -29.5l-21 -111q-75 20 -134 27t-121 7q-65 0 -98 -19.5t-40 -58.5l-3 -17h385l-101 -520h-140l85 440h-245l-85 -440h-140z" />
    <glyph glyph-name="ffi" unicode="ffi" horiz-adv-x="1083" 
d="M108 0l85 440h-108l16 80h108l6 33q16 87 69 132t141 45q59 0 111 -17l-21 -110q-41 12 -71 12q-36 0 -60 -17t-30 -52l-5 -26h245l7 37q16 83 86 128t188 45q63 0 128.5 -8.5t147.5 -29.5l-21 -111q-75 20 -134 27t-121 7q-65 0 -98 -19.5t-40 -58.5l-3 -17h385
l-101 -520h-140l85 440h-245l-85 -440h-140l85 440h-245l-85 -440h-140z" />
    <glyph glyph-name="f_f_j" unicode="ffj" horiz-adv-x="1083" 
d="M682 -186l22 112q40 -11 70 -11q46 0 70.5 23t33.5 68l83 434h-245l-85 -440h-140l85 440h-243l-85 -440h-140l85 440h-108l16 80h108l6 33q16 87 69 132t141 45q59 0 111 -17l-21 -110q-41 12 -71 12q-36 0 -60 -17t-30 -52l-5 -26h243l7 37q16 83 86 128t188 45
q63 0 128.5 -8.5t147.5 -29.5l-21 -111q-75 20 -134 27t-121 7q-65 0 -98 -19.5t-40 -58.5l-3 -17h385l-101 -527q-19 -100 -71.5 -148t-149.5 -48q-55 0 -113 17z" />
    <glyph glyph-name="f_j" unicode="fj" horiz-adv-x="700" 
d="M299 -186l22 112q40 -11 70 -11q46 0 70.5 23t33.5 68l83 434h-245l-85 -440h-140l85 440h-108l16 80h108l7 37q16 83 86 128t188 45q63 0 128.5 -8.5t147.5 -29.5l-21 -111q-75 20 -134 27t-121 7q-65 0 -98 -19.5t-40 -58.5l-3 -17h385l-101 -527q-19 -100 -71.5 -148
t-149.5 -48q-55 0 -113 17z" />
    <glyph glyph-name="f_t" unicode="ft" horiz-adv-x="838" 
d="M574 34.5q-46 44.5 -46 121.5q0 24 7 61l43 223h-245l-85 -440h-140l85 440h-108l16 80h108l6 33q32 177 204 177q59 0 111 -17l-21 -110q-41 12 -71 12q-71 0 -84 -69l-5 -26h201q22 0 35 13t18 40l22 110h140l-32 -163h165l-15 -80h-165l-44 -228q-4 -22 -4 -38
q0 -32 21 -50.5t60 -18.5q36 0 69 12l-22 -112q-23 -8 -43.5 -11.5t-49.5 -3.5q-85 0 -131 44.5z" />
    <glyph glyph-name=".notdef" horiz-adv-x="900" 
d="M168 0v284h45v-139h33v139h50v31h-128v126l19 -61h23l34 106l33 -106h23l54 170h-32l-34 -110l-35 110h-19l-35 -110l-31 103v157h700v-150h-110v-170h110v-91q-6 13 -19.5 20t-30.5 7q-27 0 -43.5 -14.5t-16.5 -34.5q0 -22 14.5 -32.5t39.5 -17.5q17 -5 25.5 -9.5
t8.5 -13.5q0 -21 -28 -21q-14 0 -21 7t-7 18h-33q0 -24 17 -39.5t44 -15.5q17 0 30.5 6.5t19.5 13.5v-163h-700zM379 380h33v62h24l35 -62h37l-40 67q36 17 36 50q0 22 -16 37.5t-41 15.5h-68v-170zM537 550v-170h33v170h-33zM648 519v-139h32v139h50v31h-132v-31h50z
M412 473v46h35q10 0 17 -6.5t7 -16.5q0 -12 -7.5 -17.5t-16.5 -5.5h-35zM868 483h-78v36h78v-36zM868 411h-78v41h78v-41zM455.5 167.5q22.5 24.5 22.5 61.5t-23 62t-59 25t-59 -25t-23 -62t22.5 -61.5t59.5 -24.5t59.5 24.5zM701 162q19 19 19 47v106h-32v-106
q0 -15 -9.5 -25t-25.5 -10q-17 0 -26.5 10.5t-9.5 24.5v106h-32v-106q0 -28 19.5 -47t48.5 -19t48 19zM868 224q-15 14 -46 22q-16 5 -23 9t-7 12q0 9 7.5 14.5t18.5 5.5q10 0 18 -7t8 -18h24v-38zM359.5 190q-14.5 16 -14.5 39q0 25 14 40.5t37 15.5t37 -15.5t14 -40.5
q0 -23 -14.5 -39t-36.5 -16t-36.5 16z" />
    <glyph glyph-name=".null" horiz-adv-x="0" 
 />
    <glyph glyph-name="nonmarkingreturn" unicode="&#xd;" horiz-adv-x="0" 
 />
    <glyph glyph-name="space" unicode=" " horiz-adv-x="300" 
 />
    <glyph glyph-name="exclam" unicode="!" horiz-adv-x="294" 
d="M231 212h-86l12 203l59 305h140l-59 -305zM102 10q-21 20 -21 49q0 33 26 57t64 24q33 0 54 -20t21 -49q0 -33 -26 -57t-64 -24q-33 0 -54 20z" />
    <glyph glyph-name="quotedbl" unicode="&#x22;" horiz-adv-x="470" 
d="M276 443h-115l53 277h115zM481 443h-115l53 277h115z" />
    <glyph glyph-name="numbersign" unicode="#" horiz-adv-x="784" 
d="M857 535l-18 -93h-124l-76 -179h124l-18 -93h-145l-72 -170h-124l72 170h-188l-72 -170h-124l72 170h-101l18 93h122l76 179h-122l18 93h143l70 165h124l-70 -165h188l70 165h124l-70 -165h103zM327 263h188l76 179h-188z" />
    <glyph glyph-name="dollar" unicode="$" horiz-adv-x="775" 
d="M337 560q-37 -25 -37 -56q0 -29 23.5 -47.5t57.5 -30t98 -27.5q86 -21 139.5 -41t92 -59t38.5 -103q0 -54 -31.5 -101t-97 -76t-160.5 -29h-3l-21 -110h-135l24 123q-70 13 -127 36.5t-89 46.5l26 136q45 -40 132.5 -73.5t191.5 -33.5q74 0 109 24.5t35 56.5
q0 29 -23.5 47.5t-58.5 30t-98 26.5q-85 20 -139 40t-92.5 59t-38.5 103q0 55 32.5 102t102 76.5t175.5 29.5l21 110h135l-24 -121q126 -23 228 -87l-27 -139q-50 43 -140.5 77.5t-200.5 34.5q-81 0 -118 -25z" />
    <glyph glyph-name="percent" unicode="%" horiz-adv-x="944" 
d="M186.5 409q-48.5 43 -48.5 109q0 55 25.5 99t70 68.5t99.5 24.5q82 0 130.5 -43t48.5 -109q0 -55 -25.5 -99t-70 -68.5t-99.5 -24.5q-82 0 -130.5 43zM324 0h-127l554 700h127zM380.5 480.5q26.5 26.5 26.5 69.5q0 32 -21 52t-53 20q-37 0 -63.5 -26.5t-26.5 -69.5
q0 -32 21 -52t53 -20q37 0 63.5 26.5zM611.5 33q-48.5 43 -48.5 109q0 55 25.5 99t70 68.5t99.5 24.5q82 0 130.5 -43t48.5 -109q0 -55 -25.5 -99t-70 -68.5t-99.5 -24.5q-82 0 -130.5 43zM805.5 104.5q26.5 26.5 26.5 69.5q0 32 -21 52t-53 20q-37 0 -63.5 -26.5
t-26.5 -69.5q0 -32 21 -52t53 -20q37 0 63.5 26.5z" />
    <glyph glyph-name="ampersand" unicode="&#x26;" horiz-adv-x="788" 
d="M836 363q-28 -43 -78.5 -98t-108.5 -101l168 -164h-178l-88 86q-48 -37 -116 -66.5t-152 -29.5q-104 0 -157 39t-53 105q0 86 61 141t144 77q-49 50 -70.5 91.5t-21.5 86.5q0 78 59 129t174 51q92 0 172.5 -27t122.5 -59l-26 -132q-129 99 -266 99q-50 0 -72.5 -17
t-22.5 -45q0 -33 30.5 -71t113.5 -119l102 -100q40 30 75.5 64.5t54.5 59.5h133zM467 167l-126 123q-58 -17 -101 -51t-43 -76q0 -26 22.5 -40.5t67.5 -14.5q94 0 180 59z" />
    <glyph glyph-name="quotesingle" unicode="'" horiz-adv-x="265" 
d="M276 443h-115l53 277h115z" />
    <glyph glyph-name="parenleft" unicode="(" horiz-adv-x="340" 
d="M233 -190q-74 0 -112 35.5t-38 99.5q0 28 5 51l123 629q16 79 57.5 117t115.5 38h102l-22 -115h-68q-52 0 -64 -60l-118 -610q-2 -12 -2 -20q0 -24 14 -37t39 -13h55l-22 -115h-65z" />
    <glyph glyph-name="parenright" unicode=")" horiz-adv-x="340" 
d="M-21 -190l22 115h68q52 0 64 60l118 610q2 14 2 20q0 24 -14 37t-39 13h-55l22 115h65q74 0 112 -35.5t38 -99.5q0 -28 -5 -51l-123 -629q-16 -79 -57.5 -117t-115.5 -38h-102z" />
    <glyph glyph-name="asterisk" unicode="*" horiz-adv-x="414" 
d="M302 513l-76 -94l-68 55l77 89l-120 47l30 75l114 -41v111h86v-111l114 41l30 -75l-120 -47l77 -89l-68 -55z" />
    <glyph glyph-name="plus" unicode="+" horiz-adv-x="630" 
d="M430 50h-110v200h-205v110h205v200h110v-200h205v-110h-205v-200z" />
    <glyph glyph-name="comma" unicode="," horiz-adv-x="225" 
d="M0 -175l21 105h38q41 0 65 21t29 58h-3h-2q-16 -19 -43 -19q-29 0 -46 17.5t-17 47.5q0 37 22 61t56 24q38 0 60 -26t22 -74q0 -104 -47 -159.5t-130 -55.5h-25z" />
    <glyph glyph-name="hyphen" unicode="-" horiz-adv-x="520" 
d="M514 255h-410l22 115h410z" />
    <glyph glyph-name="period" unicode="." horiz-adv-x="224" 
d="M62 10q-21 20 -21 49q0 33 26 57t64 24q33 0 54 -20t21 -49q0 -33 -26 -57t-64 -24q-33 0 -54 20z" />
    <glyph glyph-name="slash" unicode="/" horiz-adv-x="510" 
d="M126 -70h-139l542 840h140z" />
    <glyph glyph-name="zero" unicode="0" horiz-adv-x="960" 
d="M321 34.5q-89 44.5 -136.5 120t-47.5 166.5q0 107 56 196t153.5 141t217.5 52q121 0 210 -44.5t136.5 -120t47.5 -166.5q0 -107 -56 -196t-153.5 -141t-217.5 -52q-121 0 -210 44.5zM673.5 143q63.5 35 100.5 95.5t37 135.5q0 61 -30 111t-86.5 78.5t-132.5 28.5
q-77 0 -140.5 -35t-100.5 -95.5t-37 -135.5q0 -61 30 -111t86.5 -78.5t132.5 -28.5q77 0 140.5 35z" />
    <glyph glyph-name="one" unicode="1" horiz-adv-x="592" 
d="M45 0l22 115h205l79 408h-200l23 115h147q31 0 48.5 13t25.5 45l1 4h130l-114 -585h167l-22 -115h-512z" />
    <glyph glyph-name="two" unicode="2" horiz-adv-x="728" 
d="M65 0l21 113l252 128q109 55 167.5 97t80.5 75t22 69q0 46 -44.5 78t-128.5 32q-71 0 -148.5 -25.5t-133.5 -57.5l27 138q41 23 113.5 43t156.5 20q101 0 170.5 -27t104 -74.5t34.5 -108.5q0 -58 -27.5 -106.5t-98 -101t-200.5 -116.5l-93 -46l-1 -5h348l-24 -125h-598z
" />
    <glyph glyph-name="three" unicode="3" horiz-adv-x="737" 
d="M206.5 20q-88.5 30 -130.5 64l25 132q45 -41 125 -74.5t179 -33.5q57 0 95.5 16t57 41.5t18.5 53.5t-20 53.5t-61.5 41.5t-100.5 16q-51 0 -94 -6t-65 -14l17 90l267 173l1 7h-343l24 120h587l-17 -83l-293 -190l-2 -7q122 -11 182.5 -68.5t60.5 -137.5
q0 -59 -35.5 -110.5t-105.5 -82.5t-168 -31q-115 0 -203.5 30z" />
    <glyph glyph-name="four" unicode="4" horiz-adv-x="732" 
d="M587 0h-140l32 168h-427l22 113l450 419h182l-436 -406l-2 -6h234l37 187h140l-37 -187h140l-23 -120h-140z" />
    <glyph glyph-name="five" unicode="5" horiz-adv-x="725" 
d="M221.5 17.5q-88.5 27.5 -137.5 59.5l25 130q53 -37 133 -68t173 -31q57 0 95.5 16t57 41.5t18.5 53.5t-21.5 53.5t-63.5 41.5t-102 16q-51 0 -90 -12t-56 -26h-110l107 408h528l-25 -125h-408l-46 -178h5q19 11 58 18.5t93 7.5q84 0 146 -29.5t95 -77.5t33 -102
q0 -59 -35.5 -110.5t-105.5 -82.5t-168 -31q-110 0 -198.5 27.5z" />
    <glyph glyph-name="six" unicode="6" horiz-adv-x="739" 
d="M241.5 22.5q-80.5 32.5 -117.5 83t-37 103.5q0 58 30.5 104.5t85.5 99.5l296 287h171l-292 -279v-5q37 8 62 8q104 0 175.5 -31.5t107 -80.5t35.5 -103q0 -57 -35.5 -107t-106 -81t-171.5 -31q-123 0 -203.5 32.5zM533 115.5q39 15.5 58.5 40t19.5 50.5q0 28 -22 54
t-68.5 43.5t-115.5 17.5q-55 0 -94 -15.5t-58.5 -40t-19.5 -50.5q0 -28 22 -54t68.5 -43.5t115.5 -17.5q55 0 94 15.5z" />
    <glyph glyph-name="seven" unicode="7" horiz-adv-x="660" 
d="M297 0h-165l434 569l1 6h-436l25 125h615l-21 -106z" />
    <glyph glyph-name="eight" unicode="8" horiz-adv-x="826" 
d="M279 18.5q-84 28.5 -125 73t-41 94.5q0 76 60 116t149 40l2 7q-77 13 -122 60.5t-45 107.5q0 52 33.5 96t103.5 70.5t173 26.5q139 0 229.5 -29.5t131.5 -76t41 -99.5q0 -55 -34 -94.5t-90.5 -59.5t-120.5 -20l-1 -7q76 -14 119 -55t43 -96q0 -47 -32 -89t-99 -68
t-167 -26q-124 0 -208 28.5zM673 412q44 28 44 69q0 27 -24 52.5t-78.5 42t-140.5 16.5q-89 0 -133 -28t-44 -69q0 -27 24 -52.5t78.5 -42t140.5 -16.5q89 0 133 28zM603 132.5q39 25.5 39 59.5q0 24 -20.5 46.5t-69 37t-127.5 14.5q-80 0 -119 -25.5t-39 -59.5
q0 -24 20.5 -46.5t69 -37t127.5 -14.5q80 0 119 25.5z" />
    <glyph glyph-name="nine" unicode="9" horiz-adv-x="777" 
d="M220 0l290 263l1 5q-8 -4 -29.5 -7t-50.5 -3q-99 0 -171 32.5t-109 83.5t-37 105q0 61 37 113.5t111 85t179 32.5q128 0 214 -32t127 -83.5t41 -110.5q0 -51 -26.5 -99.5t-96.5 -111.5l-305 -273h-175zM591.5 379.5q42.5 16.5 63 42t20.5 54.5q0 30 -23.5 58.5t-74.5 47
t-127 18.5q-62 0 -104.5 -16.5t-63 -42t-20.5 -54.5q0 -30 23.5 -58.5t74.5 -47t127 -18.5q62 0 104.5 16.5z" />
    <glyph glyph-name="colon" unicode=":" horiz-adv-x="244" 
d="M72 10q-21 20 -21 49q0 33 26 57t64 24q33 0 54 -20t21 -49q0 -33 -26 -57t-64 -24q-33 0 -54 20zM153 431q-21 20 -21 49q0 33 26 57t64 24q33 0 54 -20t21 -49q0 -33 -26 -57t-64 -24q-33 0 -54 20z" />
    <glyph glyph-name="semicolon" unicode=";" horiz-adv-x="247" 
d="M153 431q-21 20 -21 49q0 33 26 57t64 24q33 0 54 -20t21 -49q0 -33 -26 -57t-64 -24q-33 0 -54 20zM12 -175l21 105h38q41 0 65 21t29 58h-3h-2q-16 -19 -43 -19q-29 0 -46 17.5t-17 47.5q0 37 22 61t56 24q38 0 60 -26t22 -74q0 -104 -47 -159.5t-130 -55.5h-25z" />
    <glyph glyph-name="less" unicode="&#x3c;" horiz-adv-x="630" 
d="M635 172v-117l-535 202v97l535 202v-116l-342 -130v-9z" />
    <glyph glyph-name="equal" unicode="=" horiz-adv-x="628" 
d="M628 368h-498v95h498v-95zM628 148h-498v95h498v-95z" />
    <glyph glyph-name="greater" unicode="&#x3e;" horiz-adv-x="630" 
d="M650 257l-535 -202v117l342 129v9l-342 130v116l535 -202v-97z" />
    <glyph glyph-name="question" unicode="?" horiz-adv-x="693" 
d="M291 212l5 178h29q51 0 116.5 9.5t116.5 34t51 67.5q0 24 -23 48t-75 40t-132 16q-75 0 -145.5 -18.5t-112.5 -41.5l27 142q43 16 109.5 29.5t140.5 13.5q122 0 203.5 -29.5t120 -76t38.5 -97.5q0 -69 -52 -115t-130 -67t-159 -21l-21 -112h-107zM264 10q-21 20 -21 49
q0 33 26 57t64 24q33 0 54 -20t21 -49q0 -33 -26 -57t-64 -24q-33 0 -54 20z" />
    <glyph glyph-name="at" unicode="@" horiz-adv-x="1030" 
d="M315 -72.5q-100 47.5 -149.5 126t-49.5 169.5q0 117 57 207t160 140t237 50q145 0 248 -46.5t155 -124.5t52 -172q0 -102 -49 -156t-136 -54q-57 0 -93.5 22t-46.5 50h-6q-19 -27 -64.5 -49.5t-105.5 -22.5q-56 0 -98 22t-65 60t-23 86q0 58 27 103t74 70t105 25
q55 0 96.5 -17.5t58.5 -39.5h1l9 47h108l-38 -196q-2 -12 -2 -21q0 -28 17 -44.5t46 -16.5q39 0 64 33t25 106q0 71 -41.5 129.5t-122.5 93.5t-194 35q-106 0 -188 -38.5t-127 -109t-45 -164.5q0 -75 41 -137t121.5 -98.5t192.5 -36.5q57 0 105 9t74 20l-16 -87
q-23 -8 -69.5 -14t-99.5 -6q-145 0 -245 47.5zM622 171.5q31 15.5 44 34.5l15 74q-12 25 -45 45t-78 20q-48 0 -78.5 -30t-30.5 -77q0 -36 26 -59t77 -23q39 0 70 15.5z" />
    <glyph glyph-name="A" unicode="A" horiz-adv-x="878" 
d="M908 0h-142l-51 168h-407l-116 -168h-162l487 700h176zM587 572l-210 -304h308l-92 304h-6z" />
    <glyph glyph-name="B" unicode="B" horiz-adv-x="832" 
d="M808.5 386q-69.5 -38 -192.5 -38l-2 -7q88 -5 134 -45.5t46 -101.5q0 -56 -28 -99.5t-84.5 -69t-137.5 -25.5h-459l136 700h401q83 0 141 -25.5t86.5 -66t28.5 -85.5q0 -99 -69.5 -137zM595 398q63 0 96.5 26t33.5 68q0 36 -32.5 62t-96.5 26h-259l-35 -182h293zM618 274
q-33 24 -97 24h-239l-34 -178h281q62 0 92 25.5t30 70.5q0 34 -33 58z" />
    <glyph glyph-name="C" unicode="C" horiz-adv-x="892" 
d="M342 34.5q-101 44.5 -153 120.5t-52 169q0 109 55.5 197t159 138.5t241.5 50.5q110 0 203.5 -30t145.5 -67l-26 -133q-42 42 -128 77t-193 35q-93 0 -163 -34t-108.5 -92t-38.5 -128q0 -63 35 -115.5t102.5 -83.5t161.5 -31q73 0 138 18.5t99 41.5l-24 -133
q-27 -17 -84 -31t-127 -14q-143 0 -244 44.5z" />
    <glyph glyph-name="D" unicode="D" horiz-adv-x="938" 
d="M85 0l136 700h311q127 0 219 -43t139 -115.5t47 -157.5q0 -113 -52 -199.5t-150.5 -135.5t-235.5 -49h-414zM498 120q92 0 157.5 32t100 89.5t34.5 131.5q0 57 -31 104t-92.5 75t-149.5 28h-180l-89 -460h250z" />
    <glyph glyph-name="E" unicode="E" horiz-adv-x="752" 
d="M813 700l-24 -120h-452l-34 -177h412l-20 -100h-412l-35 -183h472l-23 -120h-612l136 700h592z" />
    <glyph glyph-name="F" unicode="F" horiz-adv-x="727" 
d="M813 700l-25 -125h-452l-40 -205h407l-19 -100h-407l-52 -270h-140l136 700h592z" />
    <glyph glyph-name="G" unicode="G" horiz-adv-x="947" 
d="M342 34.5q-101 44.5 -153 120.5t-52 169q0 110 56.5 197.5t164 138t255.5 50.5q115 0 216.5 -28.5t166.5 -65.5l-25 -126q-60 39 -153 70.5t-203 31.5q-102 0 -176.5 -33.5t-114 -91.5t-39.5 -129q0 -63 35 -115.5t102.5 -83.5t161.5 -31q65 0 122 12t89 26l20 104h-295
l21 105h405l-59 -298q-46 -26 -128.5 -46.5t-172.5 -20.5q-143 0 -244 44.5z" />
    <glyph glyph-name="H" unicode="H" horiz-adv-x="890" 
d="M746 415l55 285h140l-136 -700h-140l56 290h-440l-56 -290h-140l136 700h140l-55 -285h440z" />
    <glyph glyph-name="I" unicode="I" horiz-adv-x="760" 
d="M856 700l-24 -120h-270l-89 -460h270l-23 -120h-680l23 120h270l89 460h-270l24 120h680z" />
    <glyph glyph-name="J" unicode="J" horiz-adv-x="600" 
d="M138 -1.5q-53 8.5 -113 28.5l24 120q57 -18 98.5 -24.5t84.5 -6.5q78 0 128 33t62 94l89 457h140l-95 -484q-21 -104 -101 -165t-206 -61q-58 0 -111 8.5z" />
    <glyph glyph-name="K" unicode="K" horiz-adv-x="802" 
d="M225 0h-140l136 700h140l-60 -307h2l465 307h205l-510 -342l-1 -5l321 -353h-177l-314 338h-2z" />
    <glyph glyph-name="L" unicode="L" horiz-adv-x="705" 
d="M705 0h-620l136 700h140l-112 -575h480z" />
    <glyph glyph-name="M" unicode="M" horiz-adv-x="1110" 
d="M990 571l-440 -596l-210 596h-5l-110 -571h-140l136 700h208l160 -472h5l339 472h228l-136 -700h-140l110 571h-5z" />
    <glyph glyph-name="N" unicode="N" horiz-adv-x="887" 
d="M225 0h-140l136 700h224l232 -580h7l114 580h140l-136 -700h-224l-233 580h-7z" />
    <glyph glyph-name="O" unicode="O" horiz-adv-x="1064" 
d="M348.5 34.5q-105.5 44.5 -158.5 120.5t-53 169q0 109 55.5 197t158.5 138.5t242 50.5q152 0 257.5 -44.5t158.5 -120.5t53 -169q0 -109 -55.5 -197t-158.5 -138.5t-242 -50.5q-152 0 -257.5 44.5zM767 142q70 34 108.5 92t38.5 128q0 63 -36 115.5t-108 83.5t-175 31
q-93 0 -163 -34t-108.5 -92t-38.5 -128q0 -63 36 -115.5t108 -83.5t175 -31q93 0 163 34z" />
    <glyph glyph-name="P" unicode="P" horiz-adv-x="835" 
d="M615 700q83 0 142 -28.5t89.5 -76t30.5 -105.5q0 -77 -34.5 -136t-99 -91.5t-153.5 -32.5h-321l-44 -230h-140l136 700h394zM584 350q68 0 106 35t38 91q0 44 -34.5 74t-97.5 30h-259l-44 -230h291z" />
    <glyph glyph-name="Q" unicode="Q" horiz-adv-x="1064" 
d="M1007.5 180.5q-54.5 -87.5 -153.5 -136.5l50 -114h-144l-31 71q-60 -11 -123 -11q-152 0 -257.5 44.5t-158.5 120.5t-53 169q0 109 55.5 197t158.5 138.5t242 50.5q152 0 257.5 -44.5t158.5 -120.5t53 -169q0 -108 -54.5 -195.5zM802 162q54 34 83 86.5t29 113.5
q0 63 -36 115.5t-108 83.5t-175 31q-93 0 -163 -34t-108.5 -92t-38.5 -128q0 -63 36 -115.5t108 -83.5t175 -31q41 0 75 6l-57 131h144z" />
    <glyph glyph-name="R" unicode="R" horiz-adv-x="857" 
d="M812 347.5q-69 -48.5 -188 -52.5l-1 -6q160 -12 160 -138q0 -19 -4 -38l-22 -113h-140l26 134q3 15 3 26q0 40 -29 63t-87 23h-257l-48 -246h-140l136 700h396q87 0 146.5 -28t88.5 -73.5t29 -97.5q0 -105 -69 -153.5zM581 346q61 0 104.5 33.5t43.5 94.5q0 45 -34 75.5
t-98 30.5h-260l-45 -234h289z" />
    <glyph glyph-name="S" unicode="S" horiz-adv-x="775" 
d="M252 20q-94 30 -143 66l26 136q45 -40 132.5 -73.5t191.5 -33.5q74 0 109 24.5t35 56.5q0 29 -23.5 47.5t-58.5 30t-98 26.5q-85 20 -139 40t-92.5 59t-38.5 103q0 55 32.5 102t103 76.5t176.5 29.5q120 0 208.5 -29.5t149.5 -68.5l-27 -139q-50 43 -140.5 77.5
t-200.5 34.5q-81 0 -118 -25t-37 -56q0 -29 23.5 -47.5t57.5 -30t98 -27.5q86 -21 139.5 -41t92 -59t38.5 -103q0 -54 -31.5 -101t-97 -76t-160.5 -29q-114 0 -208 30z" />
    <glyph glyph-name="T" unicode="T" horiz-adv-x="740" 
d="M141 700h700l-25 -125h-279l-112 -575h-140l112 575h-281z" />
    <glyph glyph-name="U" unicode="U" horiz-adv-x="876" 
d="M293.5 25.5q-80.5 35.5 -118.5 96.5t-38 140q0 34 8 77l71 361h140l-73 -370q-6 -28 -6 -53q0 -76 56 -119t168 -43q176 0 210 173l81 412h140l-83 -430q-26 -133 -115.5 -206.5t-235.5 -73.5q-124 0 -204.5 35.5z" />
    <glyph glyph-name="V" unicode="V" horiz-adv-x="855" 
d="M509 0h-193l-200 700h146l162 -585h7l390 585h160z" />
    <glyph glyph-name="W" unicode="W" horiz-adv-x="1273" 
d="M431 0h-192l-113 700h138l92 -578h6l312 578h149l86 -578h6l318 578h156l-385 -700h-198l-80 539h-7z" />
    <glyph glyph-name="X" unicode="X" horiz-adv-x="764" 
d="M175 0h-180l373 360l-224 340h156l156 -246h5l251 246h180l-358 -340l235 -360h-156l-167 262h-5z" />
    <glyph glyph-name="Y" unicode="Y" horiz-adv-x="820" 
d="M465 0h-140l30 155l-254 545h146l190 -415h6l352 415h166l-466 -545z" />
    <glyph glyph-name="Z" unicode="Z" horiz-adv-x="780" 
d="M735 0h-685l25 132l546 427l1 6h-456l27 135h658l-26 -131l-546 -427l-1 -7h483z" />
    <glyph glyph-name="bracketleft" unicode="[" horiz-adv-x="340" 
d="M298 -190h-245l188 970h245l-22 -115h-120l-144 -740h120z" />
    <glyph glyph-name="backslash" unicode="\" horiz-adv-x="510" 
d="M490 -70h-124l-217 840h124z" />
    <glyph glyph-name="bracketright" unicode="]" horiz-adv-x="340" 
d="M223 -190h-244l22 115h119l144 740h-120l22 115h245z" />
    <glyph glyph-name="asciicircum" unicode="^" horiz-adv-x="542" 
d="M249 450h-139l168 250h156l168 -250h-139l-102 156h-10z" />
    <glyph glyph-name="underscore" unicode="_" horiz-adv-x="608" 
d="M602 -210h-647l21 110h647z" />
    <glyph glyph-name="grave" unicode="`" horiz-adv-x="368" 
d="M438 568h-13l-275 52l33 118h40l236 -113z" />
    <glyph glyph-name="a" unicode="a" horiz-adv-x="718" 
d="M169.5 11q-50.5 21 -74 56t-23.5 76q0 81 63 132t184 51h163q63 0 85.5 13t22.5 36q0 27 -44.5 48.5t-145.5 21.5q-72 0 -141 -13t-105 -30l24 122q32 14 97.5 25t141.5 11q107 0 176.5 -25.5t101.5 -67.5t32 -94q0 -22 -4 -39l-65 -334h-140l15 80h-3q-33 -34 -97 -62
t-136 -28q-77 0 -127.5 21zM475.5 120q49.5 20 73.5 45l20 104q-8 -7 -37.5 -12.5t-74.5 -5.5h-110q-63 0 -93.5 -22t-30.5 -55q0 -31 32.5 -52.5t110.5 -21.5q60 0 109.5 20z" />
    <glyph glyph-name="b" unicode="b" horiz-adv-x="782" 
d="M318 18.5q-66 28.5 -92 63.5h-6l-15 -82h-140l139 720h140l-45 -237h6q24 29 78.5 53t124.5 24q87 0 150 -35t96 -93t33 -127q0 -91 -41 -163t-112.5 -112t-161.5 -40q-88 0 -154 28.5zM541.5 124.5q47.5 24.5 74 68t26.5 98.5q0 43 -21.5 79.5t-64.5 58t-103 21.5
q-57 0 -104.5 -21.5t-70.5 -48.5l-38 -195q19 -33 71 -59t123 -26q60 0 107.5 24.5z" />
    <glyph glyph-name="c" unicode="c" horiz-adv-x="682" 
d="M258.5 25.5q-76.5 35.5 -116.5 95t-40 132.5q0 86 44 156t124.5 110.5t185.5 40.5q91 0 162.5 -21.5t110.5 -46.5l-23 -116q-38 28 -103 51t-147 23q-62 0 -109.5 -24.5t-73.5 -68t-26 -99.5q0 -70 55 -114t159 -44q54 0 104 13t75 29l-22 -118q-24 -13 -73.5 -23.5
t-104.5 -10.5q-105 0 -181.5 35.5z" />
    <glyph glyph-name="d" unicode="d" horiz-adv-x="782" 
d="M230 25q-63 35 -96 93t-33 127q0 91 41 163t112.5 112t161.5 40q88 0 154 -28.5t92 -63.5h6l48 252h140l-139 -720h-140l12 67h-6q-24 -29 -78.5 -53t-124.5 -24q-87 0 -150 35zM539.5 121.5q47.5 21.5 70.5 48.5l38 195q-19 33 -71 59t-123 26q-60 0 -107.5 -24.5
t-74 -68t-26.5 -98.5q0 -43 21.5 -79.5t64.5 -58t103 -21.5q57 0 104.5 21.5z" />
    <glyph glyph-name="e" unicode="e" horiz-adv-x="727" 
d="M256.5 27.5q-78.5 37.5 -116.5 98.5t-38 131q0 85 42.5 154.5t117.5 109t169 39.5q93 0 162.5 -32.5t106.5 -90t37 -130.5q0 -34 -7 -66h-487q10 -59 69.5 -97.5t159.5 -38.5q58 0 110.5 11.5t79.5 27.5l-24 -120q-25 -14 -77 -24t-112 -10q-114 0 -192.5 37.5zM598 321
q-3 56 -43.5 96t-116.5 40q-41 0 -81 -16.5t-69 -47.5t-37 -72h347z" />
    <glyph glyph-name="f" unicode="f" horiz-adv-x="420" 
d="M108 0l85 440h-108l16 80h108l6 33q16 88 69 132.5t147 44.5q62 0 121 -20l-21 -111q-44 16 -86 16t-64 -19.5t-29 -58.5l-3 -17h147l-16 -80h-147l-85 -440h-140z" />
    <glyph glyph-name="g" unicode="g" horiz-adv-x="777" 
d="M212.5 -176q-79.5 24 -126.5 52l24 123q41 -31 112.5 -57.5t152.5 -26.5q89 0 140.5 41t68.5 114l7 31h-6q-25 -29 -82 -52.5t-130 -23.5q-81 0 -142.5 32.5t-94.5 88t-33 123.5q0 83 42 149t116.5 104t168.5 38q75 0 136 -28.5t90 -63.5h6l16 82h140l-95 -493
q-23 -121 -109 -189t-232 -68q-90 0 -169.5 24zM537 155q50 20 73 45l32 164q-21 33 -74.5 59.5t-125.5 26.5q-90 0 -142 -47.5t-52 -126.5q0 -60 45 -100.5t132 -40.5q62 0 112 20z" />
    <glyph glyph-name="h" unicode="h" horiz-adv-x="722" 
d="M65 0l139 720h140l-49 -252h6q25 35 78.5 63.5t119.5 28.5q111 0 170 -52t59 -137q0 -31 -5 -55l-61 -316h-140l60 314q3 17 3 31q0 50 -35.5 78.5t-101.5 28.5q-56 0 -103 -28.5t-70 -63.5l-70 -360h-140z" />
    <glyph glyph-name="i" unicode="i" horiz-adv-x="270" 
d="M197 609q-24 19 -24 49q0 36 26 58t66 22q42 0 66 -19t24 -49q0 -36 -26 -58t-66 -22q-42 0 -66 19zM65 0l106 550h6h64h63h7l-106 -550h-140z" />
    <glyph glyph-name="j" unicode="j" horiz-adv-x="270" 
d="M197 609q-24 19 -24 49q0 36 26 58t66 22q42 0 66 -19t24 -49q0 -36 -26 -58t-66 -22q-42 0 -66 19zM-131 -186l22 112q40 -11 70 -11q46 0 70.5 23t33.5 68l106 544h6h64h63h7l-108 -553q-20 -103 -72 -151.5t-149 -48.5q-55 0 -113 17z" />
    <glyph glyph-name="k" unicode="k" horiz-adv-x="672" 
d="M205 0h-140l139 720h140l-77 -399h1l334 229h201l-394 -264l264 -286h-175l-237 270h-4z" />
    <glyph glyph-name="l" unicode="l" horiz-adv-x="270" 
d="M205 0h-140l139 720h140z" />
    <glyph glyph-name="m" unicode="m" horiz-adv-x="1095" 
d="M65 0l106 550h140l-16 -82h6q22 35 71 63.5t109 28.5q71 0 119 -30.5t63 -67.5h6q32 37 91.5 67.5t125.5 30.5q103 0 158.5 -54t55.5 -140q0 -24 -5 -51l-60 -315h-140l61 316q3 15 3 30q0 49 -33 77.5t-92 28.5q-58 0 -97 -26.5t-53 -44.5q1 -3 1 -14q0 -24 -5 -52
l-60 -315h-140l61 316q3 15 3 30q0 50 -30.5 78t-84.5 28q-50 0 -92 -28.5t-62 -63.5l-70 -360h-140z" />
    <glyph glyph-name="n" unicode="n" horiz-adv-x="722" 
d="M65 0l106 550h140l-16 -82h6q25 35 78.5 63.5t119.5 28.5q111 0 170 -52t59 -137q0 -31 -5 -55l-61 -316h-140l60 314q3 17 3 31q0 50 -35.5 78.5t-101.5 28.5q-56 0 -103 -28.5t-70 -63.5l-70 -360h-140z" />
    <glyph glyph-name="o" unicode="o" horiz-adv-x="804" 
d="M262.5 25q-79.5 35 -120 95t-40.5 133q0 86 44 156t124.5 110.5t185.5 40.5q112 0 191.5 -35t120 -95t40.5 -133q0 -86 -44 -156t-124.5 -110.5t-185.5 -40.5q-112 0 -191.5 35zM563.5 124.5q47.5 24.5 73.5 68t26 99.5q0 70 -54 114t-153 44q-62 0 -109.5 -24.5
t-73.5 -68t-26 -99.5q0 -70 54 -114t153 -44q62 0 109.5 24.5z" />
    <glyph glyph-name="p" unicode="p" horiz-adv-x="782" 
d="M28 -190l143 740h140l-12 -67h6q24 29 78.5 53t124.5 24q87 0 150 -35t96 -93t33 -127q0 -91 -41 -163t-112.5 -112t-161.5 -40q-88 0 -154 28.5t-92 63.5h-6l-52 -272h-140zM541.5 124.5q47.5 24.5 74 68t26.5 98.5q0 43 -21.5 79.5t-64.5 58t-103 21.5
q-57 0 -104.5 -21.5t-70.5 -48.5l-38 -195q19 -33 71 -59t123 -26q60 0 107.5 24.5z" />
    <glyph glyph-name="q" unicode="q" horiz-adv-x="782" 
d="M540 -190l49 257h-6q-24 -29 -78.5 -53t-124.5 -24q-87 0 -150 35t-96 93t-33 127q0 91 41 163t112.5 112t161.5 40q88 0 154 -28.5t92 -63.5h6l15 82h140l-143 -740h-140zM539.5 121.5q47.5 21.5 70.5 48.5l38 195q-19 33 -71 59t-123 26q-60 0 -107.5 -24.5t-74 -68
t-26.5 -98.5q0 -43 21.5 -79.5t64.5 -58t103 -21.5q57 0 104.5 21.5z" />
    <glyph glyph-name="r" unicode="r" horiz-adv-x="463" 
d="M65 0l106 550h140l-16 -82h6q18 35 65 63.5t109 28.5h71l-26 -135h-89q-60 0 -102.5 -25t-57.5 -55l-66 -345h-140z" />
    <glyph glyph-name="s" unicode="s" horiz-adv-x="635" 
d="M199.5 16q-80.5 26 -118.5 58l23 120q39 -34 113.5 -61t162.5 -27q52 0 74 15t22 39q0 30 -34.5 45t-107.5 30q-72 15 -117 30t-77.5 47t-32.5 86q0 43 25 80t77.5 59.5t131.5 22.5q113 0 202.5 -27.5t137.5 -59.5l-23 -118q-48 33 -129.5 61.5t-174.5 28.5
q-55 0 -80.5 -16t-25.5 -40q0 -29 33 -43t107 -30q72 -15 118 -30.5t79 -48t33 -87.5q0 -40 -24.5 -76.5t-78 -60t-135.5 -23.5q-100 0 -180.5 26z" />
    <glyph glyph-name="t" unicode="t" horiz-adv-x="448" 
d="M184 34.5q-46 44.5 -46 121.5q0 24 7 61l49 253h-103l15 80h60q22 0 35 13t18 40l16 80h140l-26 -133h165l-15 -80h-165l-50 -258q-4 -22 -4 -38q0 -32 21 -50.5t60 -18.5q36 0 69 12l-22 -112q-23 -8 -43.5 -11.5t-49.5 -3.5q-85 0 -131 44.5z" />
    <glyph glyph-name="u" unicode="u" horiz-adv-x="722" 
d="M159 42q-59 52 -59 137q0 31 5 55l61 316h140l-60 -314q-3 -16 -3 -31q0 -50 35.5 -78.5t101.5 -28.5q56 0 103 28.5t70 63.5l70 360h140l-106 -550h-140l16 82h-6q-25 -35 -78.5 -63.5t-119.5 -28.5q-111 0 -170 52z" />
    <glyph glyph-name="v" unicode="v" horiz-adv-x="650" 
d="M399 0h-168l-140 550h133l105 -421h5l268 421h149z" />
    <glyph glyph-name="w" unicode="w" horiz-adv-x="1025" 
d="M360 0h-160l-94 550h129l69 -418h5l233 418h126l73 -418h5l230 418h145l-301 -550h-172l-69 388h-5z" />
    <glyph glyph-name="x" unicode="x" horiz-adv-x="627" 
d="M156 0h-166l296 278l-182 272h146l120 -178h6l190 178h166l-288 -269l188 -281h-146l-125 186h-6z" />
    <glyph glyph-name="y" unicode="y" horiz-adv-x="653" 
d="M246 -190h-155l172 253l-177 487h143l122 -350h5l238 350h155z" />
    <glyph glyph-name="z" unicode="z" horiz-adv-x="638" 
d="M603 0h-568l22 116l444 308l1 6h-379l23 120h553l-22 -116l-444 -308l-1 -6h394z" />
    <glyph glyph-name="braceleft" unicode="{" horiz-adv-x="367" 
d="M275 -190q-75 0 -113 35t-38 100q0 21 5 51l33 171q2 10 2 17q0 24 -15.5 38t-44.5 14h-19l22 110h25q33 0 50.5 13t24.5 44l44 222q16 79 57.5 117t115.5 38h84l-22 -115h-50q-52 0 -64 -60l-41 -214q-11 -59 -39 -81t-90 -22l-2 -10q45 -5 67 -26t22 -60q0 -18 -4 -37
l-31 -161q-2 -10 -2 -19q0 -24 13.5 -37t39.5 -13h37l-22 -115h-45z" />
    <glyph glyph-name="bar" unicode="|" horiz-adv-x="365" 
d="M315 -170h-125v970h125v-970z" />
    <glyph glyph-name="braceright" unicode="}" horiz-adv-x="367" 
d="M-21 -190l22 115h50q52 0 64 60l41 214q11 59 39 81t90 22l2 10q-45 5 -67 26t-22 60q0 18 4 37l31 161q2 11 2 19q0 24 -13.5 37t-39.5 13h-37l22 115h45q75 0 113 -35t38 -100q0 -21 -5 -51l-33 -171q-2 -12 -2 -17q0 -24 15.5 -38t44.5 -14h19l-22 -110h-25
q-33 0 -50.5 -13t-24.5 -44l-44 -222q-16 -79 -57.5 -117t-115.5 -38h-84z" />
    <glyph glyph-name="asciitilde" unicode="~" horiz-adv-x="633" 
d="M435 239q-30 16 -65 46q-26 22 -43.5 32.5t-38.5 10.5q-22 0 -35 -14t-13 -39v-42h-135v55q0 75 39 115t111 40q43 0 73 -16t65 -46q26 -22 43.5 -32.5t38.5 -10.5q22 0 35 14t13 39v42h135v-55q0 -75 -39 -115t-111 -40q-43 0 -73 16z" />
    <glyph glyph-name="uni00A0" unicode="&#xa0;" horiz-adv-x="300" 
 />
    <glyph glyph-name="exclamdown" unicode="&#xa1;" horiz-adv-x="294" 
d="M180 430q-21 20 -21 49q0 33 26 57t64 24q33 0 54 -20t21 -49q0 -33 -26 -57t-64 -24q-33 0 -54 20zM185 -190h-140l64 330l65 198h86l-11 -198z" />
    <glyph glyph-name="cent" unicode="&#xa2;" horiz-adv-x="682" 
d="M346.5 425.5q-47.5 -24.5 -73.5 -68t-26 -99.5q0 -70 55 -114t159 -44q54 0 104 13t75 29l-22 -118q-22 -12 -67 -22.5t-96 -11.5l-21 -105h-135l23 118q-104 26 -162 94t-58 156q0 82 40.5 150t115 109.5t172.5 46.5l21 109h135l-23 -117q55 -9 97.5 -25.5t68.5 -33.5
l-23 -116q-38 28 -103 51t-147 23q-62 0 -109.5 -24.5z" />
    <glyph glyph-name="sterling" unicode="&#xa3;" horiz-adv-x="717" 
d="M362.5 553.5q-38.5 -31.5 -38.5 -90.5q0 -31 9 -83h253l-15 -80h-223q6 -44 6 -61q0 -40 -19 -68.5t-42 -39.5l-2 -6h410l-24 -125h-632l20 108h21q62 0 96 40t34 107q0 24 -4 45h-102l15 80h73q-14 72 -14 105q0 66 35.5 117t101 79.5t151.5 28.5q92 0 177.5 -28
t135.5 -63l-25 -132q-49 37 -128 67.5t-159 30.5q-72 0 -110.5 -31.5z" />
    <glyph glyph-name="currency" unicode="&#xa4;" horiz-adv-x="751" 
d="M657 236l60 -60l-72 -71l-67 65q-59 -31 -136 -31q-78 0 -138 31l-67 -65l-73 71l61 61q-36 52 -36 114t36 114l-61 60l73 71l67 -65q60 31 138 31q77 0 136 -31l67 65l72 -71l-60 -60q36 -52 36 -114q0 -63 -36 -115zM545 269.5q38 30.5 38 81.5q0 50 -38 80.5
t-104 30.5q-65 0 -103.5 -30.5t-38.5 -80.5q0 -51 38 -81.5t104 -30.5t104 30.5z" />
    <glyph glyph-name="yen" unicode="&#xa5;" horiz-adv-x="830" 
d="M787 700h174l-368 -372h165l-15 -80h-225l-15 -78h225l-16 -80h-225l-17 -90h-140l17 90h-225l16 80h225l15 78h-225l15 80h165l-222 372h154l193 -331h6z" />
    <glyph glyph-name="brokenbar" unicode="&#xa6;" horiz-adv-x="365" 
d="M315 390h-125v410h125v-410zM315 -170h-125v410h125v-410z" />
    <glyph glyph-name="section" unicode="&#xa7;" horiz-adv-x="690" 
d="M207.5 -154.5q-78.5 25.5 -120.5 57.5l23 123q115 -93 261 -93q57 0 85.5 20.5t28.5 47.5q0 32 -36 53t-111 48q-68 24 -110.5 44.5t-72.5 53.5t-30 79q0 48 26 80t57.5 47t46.5 16l2 7q-81 44 -81 113q0 46 28 84t85 61t141 23q94 0 176 -25.5t133 -57.5l-24 -126
q-48 37 -125.5 66.5t-160.5 29.5q-62 0 -89 -18.5t-27 -47.5t35 -48t109 -44q70 -24 114.5 -44t76 -53.5t31.5 -80.5t-26 -79t-58.5 -47.5t-48.5 -16.5l-2 -6q38 -22 58.5 -50t20.5 -67q0 -46 -28 -86t-84.5 -64.5t-137.5 -24.5q-87 0 -165.5 25.5zM444 163q10 2 33 14.5
t43 35t20 51.5q0 28 -26 49t-81 40l-72 26q-10 -2 -33 -14.5t-43 -35t-20 -51.5q0 -28 26 -49t81 -40z" />
    <glyph glyph-name="dieresis" unicode="&#xa8;" horiz-adv-x="455" 
d="M173.5 580q-20.5 20 -20.5 49q0 33 25.5 57t61.5 24q31 0 51.5 -20t20.5 -49q0 -33 -25.5 -57t-61.5 -24q-31 0 -51.5 20zM410.5 580q-20.5 20 -20.5 49q0 33 25.5 57t61.5 24q31 0 51.5 -20t20.5 -49q0 -33 -25.5 -57t-61.5 -24q-31 0 -51.5 20z" />
    <glyph glyph-name="copyright" unicode="&#xa9;" horiz-adv-x="1032" 
d="M343 29q-101 49 -154.5 133.5t-53.5 187.5t53.5 187.5t154.5 133.5t238 49t238 -49t154.5 -133.5t53.5 -187.5t-53.5 -187.5t-154.5 -133.5t-238 -49t-238 49zM770.5 94q80.5 39 123.5 106.5t43 149.5t-43 149.5t-123.5 106.5t-189.5 39t-189.5 -39t-123.5 -106.5
t-43 -149.5t43 -149.5t123.5 -106.5t189.5 -39t189.5 39zM469 180.5q-52 25.5 -79.5 70t-27.5 99.5t28 99.5t80 70t122 25.5q48 0 93 -12t72 -26v-100q-26 15 -68.5 27.5t-86.5 12.5q-65 0 -97.5 -26.5t-32.5 -72.5q0 -43 32 -69t96 -26q44 0 82.5 12.5t59.5 28.5v-100
q-22 -15 -63.5 -27t-88.5 -12q-69 0 -121 25.5z" />
    <glyph glyph-name="ordfeminine" unicode="&#xaa;" horiz-adv-x="455" 
d="M154.5 398.5q-35.5 25.5 -35.5 63.5q0 96 141 96h95q38 0 52.5 9t14.5 24q0 16 -21 25t-83 9q-36 0 -76.5 -7t-67.5 -16l17 86q24 8 62.5 14t75.5 6q194 0 194 -110q0 -13 -3 -30l-37 -189h-100l8 41h-5q-22 -18 -58 -32.5t-72 -14.5q-66 0 -101.5 25.5zM355 454.5
q32 9.5 48 21.5l8 45q-9 -7 -30 -12.5t-50 -5.5h-52q-28 0 -39 -7.5t-11 -22.5q0 -12 13.5 -20t42.5 -8q38 0 70 9.5z" />
    <glyph glyph-name="guillemotleft" unicode="&#xab;" horiz-adv-x="599" 
d="M336 75h-137l-104 208l185 208h151l-194 -218zM578 75h-137l-104 208l185 208h151l-194 -218z" />
    <glyph glyph-name="logicalnot" unicode="&#xac;" horiz-adv-x="628" 
d="M628 193h-110v135h-398v110h508v-245z" />
    <glyph glyph-name="uni00AD" unicode="&#xad;" horiz-adv-x="520" 
d="M514 255h-410l22 115h410z" />
    <glyph glyph-name="registered" unicode="&#xae;" horiz-adv-x="320" 
d="M159 515q-39 35 -39 85t39 85t101 35t101 -35t39 -85t-39 -85t-101 -35t-101 35zM333.5 539.5q26.5 24.5 26.5 60.5t-26.5 60.5t-73.5 24.5t-73.5 -24.5t-26.5 -60.5t26.5 -60.5t73.5 -24.5t73.5 24.5zM205 545v110h69q23 0 34.5 -9t11.5 -23t-11 -22t-34 -8v-3h2
q38 0 38 -26v-19h-38v20q0 12 -12 12h-22v-32h-38zM265 604q13 0 13 10q0 11 -13 11h-22v-21h22z" />
    <glyph glyph-name="macron" unicode="&#xaf;" horiz-adv-x="454" 
d="M542 610h-394l20 100h394z" />
    <glyph glyph-name="degree" unicode="&#xb0;" horiz-adv-x="436" 
d="M222.5 411.5q-41.5 21.5 -64.5 58t-23 80.5t23 80.5t64.5 58t95.5 21.5t95.5 -21.5t64.5 -58t23 -80.5t-23 -80.5t-64.5 -58t-95.5 -21.5t-95.5 21.5zM374 500q22 20 22 50t-22 50t-56 20t-56 -20t-22 -50t22 -50t56 -20t56 20z" />
    <glyph glyph-name="plusminus" unicode="&#xb1;" horiz-adv-x="640" 
d="M642 10h-514v95h202v145h-205v110h205v200h110v-200h205v-110h-205v-145h202v-95z" />
    <glyph glyph-name="uni00B2" unicode="&#xb2;" horiz-adv-x="395" 
d="M132 450l14 73l127 72q65 37 88 56t23 39q0 18 -16.5 29.5t-49.5 11.5q-31 0 -71.5 -11.5t-71.5 -25.5l16 84q25 12 65 22t81 10q78 0 117 -29t39 -72q0 -35 -32 -65t-109 -73l-65 -36l-1 -5h166l-16 -80h-304z" />
    <glyph glyph-name="uni00B3" unicode="&#xb3;" horiz-adv-x="388" 
d="M207.5 452.5q-47.5 12.5 -73.5 27.5l16 78q25 -15 66.5 -26.5t81.5 -11.5q32 0 48 12t16 31q0 18 -18.5 29.5t-61.5 11.5q-44 0 -66 -6l10 52l97 65l1 5h-140l16 80h293l-10 -50l-127 -85l-1 -5q54 -7 82.5 -36t28.5 -68q0 -30 -18.5 -56.5t-55.5 -43t-89 -16.5
q-48 0 -95.5 12.5z" />
    <glyph glyph-name="acute" unicode="&#xb4;" horiz-adv-x="368" 
d="M163 568h-13l1 57l280 113h40l-13 -118z" />
    <glyph glyph-name="uni00B5" unicode="&#xb5;" horiz-adv-x="727" 
d="M28 -190l143 740h140l-60 -314q-3 -16 -3 -31q0 -50 35.5 -78.5t101.5 -28.5q56 0 103 28.5t70 63.5l70 360h140l-106 -550h-118l-6 82h-6q-25 -35 -74.5 -63.5t-107.5 -28.5q-50 0 -86.5 15t-50.5 34h-4l-44 -229h-137z" />
    <glyph glyph-name="paragraph" unicode="&#xb6;" horiz-adv-x="780" 
d="M365 -190v390h-10q-67 0 -120.5 31.5t-84 88t-30.5 130.5t30.5 130.5t84 88t120.5 31.5h475v-120h-83v-770h-125v770h-132v-770h-125z" />
    <glyph glyph-name="periodcentered" unicode="&#xb7;" horiz-adv-x="300" 
d="M149 263q-21 20 -21 49q0 33 26 57t64 24q33 0 54 -20t21 -49q0 -33 -26 -57t-64 -24q-33 0 -54 20z" />
    <glyph glyph-name="cedilla" unicode="&#xb8;" horiz-adv-x="302" 
d="M85 -56q49 0 76 -25t27 -64q0 -48 -36.5 -78t-104.5 -30q-61 0 -116 17l15 75q43 -14 84 -14q29 0 43.5 8t14.5 22q0 24 -42 24h-65l-16 21l55 100h98l-34 -56h1z" />
    <glyph glyph-name="uni00B9" unicode="&#xb9;" horiz-adv-x="363" 
d="M137 450l16 80h95l29 150h-95l14 73h55q48 0 57 47h97l-52 -270h88l-16 -80h-288z" />
    <glyph glyph-name="ordmasculine" unicode="&#xba;" horiz-adv-x="470" 
d="M225 396.5q-48 21.5 -72.5 57t-24.5 77.5q0 48 26.5 87.5t74 63t109.5 23.5q66 0 114 -21.5t72.5 -57t24.5 -77.5q0 -48 -26.5 -87.5t-74 -63t-109.5 -23.5q-66 0 -114 21.5zM411 483.5q30 23.5 30 59.5q0 33 -27.5 55t-74.5 22q-43 0 -73 -23.5t-30 -59.5
q0 -33 27.5 -55t74.5 -22q43 0 73 23.5z" />
    <glyph glyph-name="guillemotright" unicode="&#xbb;" horiz-adv-x="599" 
d="M186 75h-151l194 218l-99 198h137l104 -208zM428 75h-151l194 218l-99 198h137l104 -208z" />
    <glyph glyph-name="onequarter" unicode="&#xbc;" horiz-adv-x="921" 
d="M113 350l16 80h95l29 150h-95l14 73h55q48 0 57 47h97l-52 -270h88l-16 -80h-288zM335 0h-128l544 700h128zM848 0h-105l16 80h-212l11 60l198 210h118l-193 -204l-1 -6h90l26 88h96l-17 -88h53l-11 -60h-53z" />
    <glyph glyph-name="onehalf" unicode="&#xbd;" horiz-adv-x="968" 
d="M113 350l16 80h95l29 150h-95l14 73h55q48 0 57 47h97l-52 -270h88l-16 -80h-288zM335 0h-128l544 700h128zM607 0l14 73l127 72q65 37 88 56t23 39q0 18 -16.5 29.5t-49.5 11.5q-31 0 -71.5 -11.5t-71.5 -25.5l16 84q25 12 65 22t81 10q78 0 117 -29t39 -72
q0 -35 -32 -65t-109 -73l-65 -36l-1 -5h166l-16 -80h-304z" />
    <glyph glyph-name="threequarters" unicode="&#xbe;" horiz-adv-x="933" 
d="M197.5 352.5q-47.5 12.5 -73.5 27.5l16 78q25 -15 66.5 -26.5t81.5 -11.5q32 0 48 12t16 31q0 18 -18.5 29.5t-61.5 11.5q-44 0 -66 -6l10 52l97 65l1 5h-140l16 80h293l-10 -50l-127 -85l-1 -5q54 -7 82.5 -36t28.5 -68q0 -30 -18.5 -56.5t-55.5 -43t-89 -16.5
q-48 0 -95.5 12.5zM347 0h-128l544 700h128zM860 0h-105l16 80h-212l11 60l198 210h118l-193 -204l-1 -6h90l26 88h96l-17 -88h53l-11 -60h-53z" />
    <glyph glyph-name="questiondown" unicode="&#xbf;" horiz-adv-x="608" 
d="M380 430q-21 20 -21 49q0 33 26 57t64 24q33 0 54 -20t21 -49q0 -33 -26 -57t-64 -24q-33 0 -54 20zM171.5 -172q-81.5 28 -119 73.5t-37.5 97.5q0 74 50.5 122t126 70.5t152.5 22.5l24 124h107l-9 -190h-29q-48 0 -110.5 -10t-111.5 -37t-49 -74q0 -24 23 -48
t73.5 -39.5t130.5 -15.5q68 0 131.5 15t98.5 33l-27 -136q-33 -14 -92 -25t-126 -11q-125 0 -206.5 28z" />
    <glyph glyph-name="Agrave" unicode="&#xc0;" horiz-adv-x="878" 
d="M908 0h-142l-51 168h-407l-116 -168h-162l487 700h176zM587 572l-210 -304h308l-92 304h-6zM732 768h-13l-275 52l33 118h40l236 -113z" />
    <glyph glyph-name="Aacute" unicode="&#xc1;" horiz-adv-x="878" 
d="M908 0h-142l-51 168h-407l-116 -168h-162l487 700h176zM587 572l-210 -304h308l-92 304h-6zM495 768h-13l1 57l280 113h40l-13 -118z" />
    <glyph glyph-name="Acircumflex" unicode="&#xc2;" horiz-adv-x="878" 
d="M908 0h-142l-51 168h-407l-116 -168h-162l487 700h176zM587 572l-210 -304h308l-92 304h-6zM507 780h-143l193 142h148l139 -142h-129l-83 85h-10z" />
    <glyph glyph-name="Atilde" unicode="&#xc3;" horiz-adv-x="878" 
d="M908 0h-142l-51 168h-407l-116 -168h-162l487 700h176zM587 572l-210 -304h308l-92 304h-6zM657.5 789q-24.5 11 -53.5 31q-22 14 -32.5 19.5t-24.5 5.5q-26 0 -30 -27l-6 -35h-110l11 58q8 41 34.5 64t67.5 23q38 0 62.5 -11t53.5 -31q22 -14 32.5 -19.5t24.5 -5.5
q25 0 30 27l6 35h110l-11 -58q-8 -41 -34.5 -64t-67.5 -23q-38 0 -62.5 11z" />
    <glyph glyph-name="Adieresis" unicode="&#xc4;" horiz-adv-x="878" 
d="M908 0h-142l-51 168h-407l-116 -168h-162l487 700h176zM587 572l-210 -304h308l-92 304h-6zM439.5 795q-20.5 20 -20.5 49q0 33 25.5 57t61.5 24q31 0 51.5 -20t20.5 -49q0 -33 -25.5 -57t-61.5 -24q-31 0 -51.5 20zM676.5 795q-20.5 20 -20.5 49q0 33 25.5 57t61.5 24
q31 0 51.5 -20t20.5 -49q0 -33 -25.5 -57t-61.5 -24q-31 0 -51.5 20z" />
    <glyph glyph-name="Aring" unicode="&#xc5;" horiz-adv-x="878" 
d="M908 0h-142l-51 168h-407l-116 -168h-162l487 700h176zM587 572l-210 -304h308l-92 304h-6zM509.5 777.5q-35.5 27.5 -35.5 69.5q0 50 36 81.5t99 31.5q67 0 102.5 -27.5t35.5 -69.5q0 -50 -36 -81.5t-99 -31.5q-67 0 -102.5 27.5zM653.5 827.5q14.5 11.5 14.5 28.5
q0 16 -15.5 27t-45.5 11q-25 0 -39.5 -11.5t-14.5 -28.5q0 -16 15.5 -27t45.5 -11q25 0 39.5 11.5z" />
    <glyph glyph-name="AE" unicode="&#xc6;" horiz-adv-x="1188" 
d="M1249 700l-24 -120h-425l-34 -177h385l-20 -100h-385l-35 -183h445l-23 -120h-585l35 180h-304l-120 -180h-159l468 700h781zM346 280h256l58 300h-114z" />
    <glyph glyph-name="Ccedilla" unicode="&#xc7;" horiz-adv-x="892" 
d="M796.5 680q93.5 -30 145.5 -67l-26 -133q-42 42 -128 77t-193 35q-93 0 -163 -34t-108.5 -92t-38.5 -128q0 -63 35 -115.5t102.5 -83.5t161.5 -31q73 0 138 18.5t99 41.5l-24 -133q-27 -17 -84 -31t-127 -14q-25 0 -37 1l-28 -47h1q49 0 76 -25t27 -64q0 -48 -36.5 -78
t-104.5 -30q-61 0 -116 17l15 75q43 -14 84 -14q29 0 43.5 8t14.5 22q0 24 -42 24h-65l-16 21l55 100h5q-104 18 -177.5 65t-110.5 114t-37 145q0 109 55.5 197t159 138.5t241.5 50.5q110 0 203.5 -30z" />
    <glyph glyph-name="Egrave" unicode="&#xc8;" horiz-adv-x="752" 
d="M813 700l-24 -120h-452l-34 -177h412l-20 -100h-412l-35 -183h472l-23 -120h-612l136 700h592zM678 768h-13l-275 52l33 118h40l236 -113z" />
    <glyph glyph-name="Eacute" unicode="&#xc9;" horiz-adv-x="752" 
d="M813 700l-24 -120h-452l-34 -177h412l-20 -100h-412l-35 -183h472l-23 -120h-612l136 700h592zM406 768h-13l1 57l280 113h40l-13 -118z" />
    <glyph glyph-name="Ecircumflex" unicode="&#xca;" horiz-adv-x="752" 
d="M813 700l-24 -120h-452l-34 -177h412l-20 -100h-412l-35 -183h472l-23 -120h-612l136 700h592zM428 780h-143l193 142h148l139 -142h-129l-83 85h-10z" />
    <glyph glyph-name="Edieresis" unicode="&#xcb;" horiz-adv-x="752" 
d="M813 700l-24 -120h-452l-34 -177h412l-20 -100h-412l-35 -183h472l-23 -120h-612l136 700h592zM360.5 795q-20.5 20 -20.5 49q0 33 25.5 57t61.5 24q31 0 51.5 -20t20.5 -49q0 -33 -25.5 -57t-61.5 -24q-31 0 -51.5 20zM597.5 795q-20.5 20 -20.5 49q0 33 25.5 57
t61.5 24q31 0 51.5 -20t20.5 -49q0 -33 -25.5 -57t-61.5 -24q-31 0 -51.5 20z" />
    <glyph glyph-name="Igrave" unicode="&#xcc;" horiz-adv-x="760" 
d="M856 700l-24 -120h-270l-89 -460h270l-23 -120h-680l23 120h270l89 460h-270l24 120h680zM666 768h-13l-275 52l33 118h40l236 -113z" />
    <glyph glyph-name="Iacute" unicode="&#xcd;" horiz-adv-x="760" 
d="M856 700l-24 -120h-270l-89 -460h270l-23 -120h-680l23 120h270l89 460h-270l24 120h680zM369 768h-13l1 57l280 113h40l-13 -118z" />
    <glyph glyph-name="Icircumflex" unicode="&#xce;" horiz-adv-x="760" 
d="M856 700l-24 -120h-270l-89 -460h270l-23 -120h-680l23 120h270l89 460h-270l24 120h680zM416 780h-143l193 142h148l139 -142h-129l-83 85h-10z" />
    <glyph glyph-name="Idieresis" unicode="&#xcf;" horiz-adv-x="760" 
d="M856 700l-24 -120h-270l-89 -460h270l-23 -120h-680l23 120h270l89 460h-270l24 120h680zM348.5 795q-20.5 20 -20.5 49q0 33 25.5 57t61.5 24q31 0 51.5 -20t20.5 -49q0 -33 -25.5 -57t-61.5 -24q-31 0 -51.5 20zM585.5 795q-20.5 20 -20.5 49q0 33 25.5 57t61.5 24
q31 0 51.5 -20t20.5 -49q0 -33 -25.5 -57t-61.5 -24q-31 0 -51.5 20z" />
    <glyph glyph-name="Eth" unicode="&#xd0;" horiz-adv-x="953" 
d="M547 700q127 0 219 -43t139 -115.5t47 -157.5q0 -113 -52 -199.5t-150.5 -135.5t-235.5 -49h-414l56 290h-70l19 100h71l60 310h311zM513 120q92 0 157.5 32t100 89.5t34.5 131.5q0 57 -31 104t-92.5 75t-149.5 28h-180l-37 -190h237l-19 -100h-237l-33 -170h250z" />
    <glyph glyph-name="Ntilde" unicode="&#xd1;" horiz-adv-x="887" 
d="M225 0h-140l136 700h224l232 -580h7l114 580h140l-136 -700h-224l-233 580h-7zM644.5 789q-24.5 11 -53.5 31q-22 14 -32.5 19.5t-24.5 5.5q-26 0 -30 -27l-6 -35h-110l11 58q8 41 34.5 64t67.5 23q38 0 62.5 -11t53.5 -31q22 -14 32.5 -19.5t24.5 -5.5q25 0 30 27l6 35
h110l-11 -58q-8 -41 -34.5 -64t-67.5 -23q-38 0 -62.5 11z" />
    <glyph glyph-name="Ograve" unicode="&#xd2;" horiz-adv-x="1064" 
d="M348.5 34.5q-105.5 44.5 -158.5 120.5t-53 169q0 109 55.5 197t158.5 138.5t242 50.5q152 0 257.5 -44.5t158.5 -120.5t53 -169q0 -109 -55.5 -197t-158.5 -138.5t-242 -50.5q-152 0 -257.5 44.5zM767 142q70 34 108.5 92t38.5 128q0 63 -36 115.5t-108 83.5t-175 31
q-93 0 -163 -34t-108.5 -92t-38.5 -128q0 -63 36 -115.5t108 -83.5t175 -31q93 0 163 34zM781 768h-13l-275 52l33 118h40l236 -113z" />
    <glyph glyph-name="Oacute" unicode="&#xd3;" horiz-adv-x="1064" 
d="M348.5 34.5q-105.5 44.5 -158.5 120.5t-53 169q0 109 55.5 197t158.5 138.5t242 50.5q152 0 257.5 -44.5t158.5 -120.5t53 -169q0 -109 -55.5 -197t-158.5 -138.5t-242 -50.5q-152 0 -257.5 44.5zM767 142q70 34 108.5 92t38.5 128q0 63 -36 115.5t-108 83.5t-175 31
q-93 0 -163 -34t-108.5 -92t-38.5 -128q0 -63 36 -115.5t108 -83.5t175 -31q93 0 163 34zM484 768h-13l1 57l280 113h40l-13 -118z" />
    <glyph glyph-name="Ocircumflex" unicode="&#xd4;" horiz-adv-x="1064" 
d="M348.5 34.5q-105.5 44.5 -158.5 120.5t-53 169q0 109 55.5 197t158.5 138.5t242 50.5q152 0 257.5 -44.5t158.5 -120.5t53 -169q0 -109 -55.5 -197t-158.5 -138.5t-242 -50.5q-152 0 -257.5 44.5zM767 142q70 34 108.5 92t38.5 128q0 63 -36 115.5t-108 83.5t-175 31
q-93 0 -163 -34t-108.5 -92t-38.5 -128q0 -63 36 -115.5t108 -83.5t175 -31q93 0 163 34zM531 780h-143l193 142h148l139 -142h-129l-83 85h-10z" />
    <glyph glyph-name="Otilde" unicode="&#xd5;" horiz-adv-x="1064" 
d="M348.5 34.5q-105.5 44.5 -158.5 120.5t-53 169q0 109 55.5 197t158.5 138.5t242 50.5q152 0 257.5 -44.5t158.5 -120.5t53 -169q0 -109 -55.5 -197t-158.5 -138.5t-242 -50.5q-152 0 -257.5 44.5zM767 142q70 34 108.5 92t38.5 128q0 63 -36 115.5t-108 83.5t-175 31
q-93 0 -163 -34t-108.5 -92t-38.5 -128q0 -63 36 -115.5t108 -83.5t175 -31q93 0 163 34zM681.5 789q-24.5 11 -53.5 31q-22 14 -32.5 19.5t-24.5 5.5q-26 0 -30 -27l-6 -35h-110l11 58q8 41 34.5 64t67.5 23q38 0 62.5 -11t53.5 -31q22 -14 32.5 -19.5t24.5 -5.5
q25 0 30 27l6 35h110l-11 -58q-8 -41 -34.5 -64t-67.5 -23q-38 0 -62.5 11z" />
    <glyph glyph-name="Odieresis" unicode="&#xd6;" horiz-adv-x="1064" 
d="M348.5 34.5q-105.5 44.5 -158.5 120.5t-53 169q0 109 55.5 197t158.5 138.5t242 50.5q152 0 257.5 -44.5t158.5 -120.5t53 -169q0 -109 -55.5 -197t-158.5 -138.5t-242 -50.5q-152 0 -257.5 44.5zM767 142q70 34 108.5 92t38.5 128q0 63 -36 115.5t-108 83.5t-175 31
q-93 0 -163 -34t-108.5 -92t-38.5 -128q0 -63 36 -115.5t108 -83.5t175 -31q93 0 163 34zM463.5 795q-20.5 20 -20.5 49q0 33 25.5 57t61.5 24q31 0 51.5 -20t20.5 -49q0 -33 -25.5 -57t-61.5 -24q-31 0 -51.5 20zM700.5 795q-20.5 20 -20.5 49q0 33 25.5 57t61.5 24
q31 0 51.5 -20t20.5 -49q0 -33 -25.5 -57t-61.5 -24q-31 0 -51.5 20z" />
    <glyph glyph-name="multiply" unicode="&#xd7;" horiz-adv-x="624" 
d="M372 227l-157 -157l-80 80l157 157l-157 157l80 80l157 -157l157 157l80 -80l-157 -157l157 -157l-80 -80z" />
    <glyph glyph-name="Oslash" unicode="&#xd8;" horiz-adv-x="1064" 
d="M969 591q46 -43 69.5 -98t23.5 -117q0 -109 -55.5 -197t-158.5 -138.5t-242 -50.5q-187 0 -306 68l-73 -58h-134l137 109q-46 43 -69.5 98t-23.5 117q0 109 55.5 197t158.5 138.5t242 50.5q187 0 306 -68l73 58h134zM341 198l446 355q-80 39 -192 39q-93 0 -163 -34
t-108.5 -92t-38.5 -128q0 -81 56 -140zM767 142q70 34 108.5 92t38.5 128q0 81 -56 140l-446 -355q80 -39 192 -39q93 0 163 34z" />
    <glyph glyph-name="Ugrave" unicode="&#xd9;" horiz-adv-x="876" 
d="M293.5 25.5q-80.5 35.5 -118.5 96.5t-38 140q0 34 8 77l71 361h140l-73 -370q-6 -28 -6 -53q0 -76 56 -119t168 -43q176 0 210 173l81 412h140l-83 -430q-26 -133 -115.5 -206.5t-235.5 -73.5q-124 0 -204.5 35.5zM712 768h-13l-275 52l33 118h40l236 -113z" />
    <glyph glyph-name="Uacute" unicode="&#xda;" horiz-adv-x="876" 
d="M293.5 25.5q-80.5 35.5 -118.5 96.5t-38 140q0 34 8 77l71 361h140l-73 -370q-6 -28 -6 -53q0 -76 56 -119t168 -43q176 0 210 173l81 412h140l-83 -430q-26 -133 -115.5 -206.5t-235.5 -73.5q-124 0 -204.5 35.5zM445 768h-13l1 57l280 113h40l-13 -118z" />
    <glyph glyph-name="Ucircumflex" unicode="&#xdb;" horiz-adv-x="876" 
d="M293.5 25.5q-80.5 35.5 -118.5 96.5t-38 140q0 34 8 77l71 361h140l-73 -370q-6 -28 -6 -53q0 -76 56 -119t168 -43q176 0 210 173l81 412h140l-83 -430q-26 -133 -115.5 -206.5t-235.5 -73.5q-124 0 -204.5 35.5zM477 780h-143l193 142h148l139 -142h-129l-83 85h-10z
" />
    <glyph glyph-name="Udieresis" unicode="&#xdc;" horiz-adv-x="876" 
d="M293.5 25.5q-80.5 35.5 -118.5 96.5t-38 140q0 34 8 77l71 361h140l-73 -370q-6 -28 -6 -53q0 -76 56 -119t168 -43q176 0 210 173l81 412h140l-83 -430q-26 -133 -115.5 -206.5t-235.5 -73.5q-124 0 -204.5 35.5zM409.5 795q-20.5 20 -20.5 49q0 33 25.5 57t61.5 24
q31 0 51.5 -20t20.5 -49q0 -33 -25.5 -57t-61.5 -24q-31 0 -51.5 20zM646.5 795q-20.5 20 -20.5 49q0 33 25.5 57t61.5 24q31 0 51.5 -20t20.5 -49q0 -33 -25.5 -57t-61.5 -24q-31 0 -51.5 20z" />
    <glyph glyph-name="Yacute" unicode="&#xdd;" horiz-adv-x="820" 
d="M465 0h-140l30 155l-254 545h146l190 -415h6l352 415h166l-466 -545zM390 768h-13l1 57l280 113h40l-13 -118z" />
    <glyph glyph-name="Thorn" unicode="&#xde;" horiz-adv-x="885" 
d="M85 0l136 700h140l-25 -127h331q119 0 179 -56.5t60 -146.5q0 -65 -31.5 -116t-91.5 -80t-144 -29h-386l-28 -145h-140zM634 260q62 0 93 30t31 83q0 34 -30 59.5t-89 25.5h-325l-39 -198h359z" />
    <glyph glyph-name="germandbls" unicode="&#xdf;" horiz-adv-x="815" 
d="M468 11.5q-63 21.5 -93 48.5l24 122q29 -29 84.5 -52.5t119.5 -23.5q39 0 59 16.5t20 43.5q0 25 -24.5 44.5t-73.5 46.5q-43 24 -68.5 41.5t-44 42.5t-18.5 56q0 43 23.5 69.5t55.5 40t80 26.5q43 13 61.5 22t18.5 25q0 11 -8 18t-24 7h-228q-66 0 -80 -68l-104 -537
h-140l85 440h-108l16 80h108l8 42q15 79 59.5 118.5t120.5 39.5h278q71 0 110 -29t39 -72q0 -45 -24 -73t-57 -42t-85 -28q-53 -16 -76.5 -28.5t-23.5 -35.5t24.5 -41t76.5 -44t85 -47t56.5 -52.5t23.5 -72.5q0 -45 -25 -83t-73.5 -60t-116.5 -22q-78 0 -141 21.5z" />
    <glyph glyph-name="agrave" unicode="&#xe0;" horiz-adv-x="718" 
d="M169.5 11q-50.5 21 -74 56t-23.5 76q0 81 63 132t184 51h163q63 0 85.5 13t22.5 36q0 27 -44.5 48.5t-145.5 21.5q-72 0 -141 -13t-105 -30l24 122q32 14 97.5 25t141.5 11q107 0 176.5 -25.5t101.5 -67.5t32 -94q0 -22 -4 -39l-65 -334h-140l15 80h-3q-33 -34 -97 -62
t-136 -28q-77 0 -127.5 21zM475.5 120q49.5 20 73.5 45l20 104q-8 -7 -37.5 -12.5t-74.5 -5.5h-110q-63 0 -93.5 -22t-30.5 -55q0 -31 32.5 -52.5t110.5 -21.5q60 0 109.5 20zM623 618h-13l-275 52l33 118h40l236 -113z" />
    <glyph glyph-name="aacute" unicode="&#xe1;" horiz-adv-x="718" 
d="M169.5 11q-50.5 21 -74 56t-23.5 76q0 81 63 132t184 51h163q63 0 85.5 13t22.5 36q0 27 -44.5 48.5t-145.5 21.5q-72 0 -141 -13t-105 -30l24 122q32 14 97.5 25t141.5 11q107 0 176.5 -25.5t101.5 -67.5t32 -94q0 -22 -4 -39l-65 -334h-140l15 80h-3q-33 -34 -97 -62
t-136 -28q-77 0 -127.5 21zM475.5 120q49.5 20 73.5 45l20 104q-8 -7 -37.5 -12.5t-74.5 -5.5h-110q-63 0 -93.5 -22t-30.5 -55q0 -31 32.5 -52.5t110.5 -21.5q60 0 109.5 20zM352 618h-13l1 57l280 113h40l-13 -118z" />
    <glyph glyph-name="acircumflex" unicode="&#xe2;" horiz-adv-x="718" 
d="M169.5 11q-50.5 21 -74 56t-23.5 76q0 81 63 132t184 51h163q63 0 85.5 13t22.5 36q0 27 -44.5 48.5t-145.5 21.5q-72 0 -141 -13t-105 -30l24 122q32 14 97.5 25t141.5 11q107 0 176.5 -25.5t101.5 -67.5t32 -94q0 -22 -4 -39l-65 -334h-140l15 80h-3q-33 -34 -97 -62
t-136 -28q-77 0 -127.5 21zM475.5 120q49.5 20 73.5 45l20 104q-8 -7 -37.5 -12.5t-74.5 -5.5h-110q-63 0 -93.5 -22t-30.5 -55q0 -31 32.5 -52.5t110.5 -21.5q60 0 109.5 20zM369 630h-143l193 142h148l139 -142h-129l-83 85h-10z" />
    <glyph glyph-name="atilde" unicode="&#xe3;" horiz-adv-x="718" 
d="M169.5 11q-50.5 21 -74 56t-23.5 76q0 81 63 132t184 51h163q63 0 85.5 13t22.5 36q0 27 -44.5 48.5t-145.5 21.5q-72 0 -141 -13t-105 -30l24 122q32 14 97.5 25t141.5 11q107 0 176.5 -25.5t101.5 -67.5t32 -94q0 -22 -4 -39l-65 -334h-140l15 80h-3q-33 -34 -97 -62
t-136 -28q-77 0 -127.5 21zM475.5 120q49.5 20 73.5 45l20 104q-8 -7 -37.5 -12.5t-74.5 -5.5h-110q-63 0 -93.5 -22t-30.5 -55q0 -31 32.5 -52.5t110.5 -21.5q60 0 109.5 20zM519.5 639q-24.5 11 -53.5 31q-22 14 -32.5 19.5t-24.5 5.5q-26 0 -30 -27l-6 -35h-110l11 58
q8 41 34.5 64t67.5 23q38 0 62.5 -11t53.5 -31q22 -14 32.5 -19.5t24.5 -5.5q25 0 30 27l6 35h110l-11 -58q-8 -41 -34.5 -64t-67.5 -23q-38 0 -62.5 11z" />
    <glyph glyph-name="adieresis" unicode="&#xe4;" horiz-adv-x="718" 
d="M169.5 11q-50.5 21 -74 56t-23.5 76q0 81 63 132t184 51h163q63 0 85.5 13t22.5 36q0 27 -44.5 48.5t-145.5 21.5q-72 0 -141 -13t-105 -30l24 122q32 14 97.5 25t141.5 11q107 0 176.5 -25.5t101.5 -67.5t32 -94q0 -22 -4 -39l-65 -334h-140l15 80h-3q-33 -34 -97 -62
t-136 -28q-77 0 -127.5 21zM475.5 120q49.5 20 73.5 45l20 104q-8 -7 -37.5 -12.5t-74.5 -5.5h-110q-63 0 -93.5 -22t-30.5 -55q0 -31 32.5 -52.5t110.5 -21.5q60 0 109.5 20zM301.5 645q-20.5 20 -20.5 49q0 33 25.5 57t61.5 24q31 0 51.5 -20t20.5 -49q0 -33 -25.5 -57
t-61.5 -24q-31 0 -51.5 20zM538.5 645q-20.5 20 -20.5 49q0 33 25.5 57t61.5 24q31 0 51.5 -20t20.5 -49q0 -33 -25.5 -57t-61.5 -24q-31 0 -51.5 20z" />
    <glyph glyph-name="aring" unicode="&#xe5;" horiz-adv-x="718" 
d="M169.5 11q-50.5 21 -74 56t-23.5 76q0 81 63 132t184 51h163q63 0 85.5 13t22.5 36q0 27 -44.5 48.5t-145.5 21.5q-72 0 -141 -13t-105 -30l24 122q32 14 97.5 25t141.5 11q107 0 176.5 -25.5t101.5 -67.5t32 -94q0 -22 -4 -39l-65 -334h-140l15 80h-3q-33 -34 -97 -62
t-136 -28q-77 0 -127.5 21zM475.5 120q49.5 20 73.5 45l20 104q-8 -7 -37.5 -12.5t-74.5 -5.5h-110q-63 0 -93.5 -22t-30.5 -55q0 -31 32.5 -52.5t110.5 -21.5q60 0 109.5 20zM371.5 627.5q-35.5 27.5 -35.5 69.5q0 50 36 81.5t99 31.5q67 0 102.5 -27.5t35.5 -69.5
q0 -50 -36 -81.5t-99 -31.5q-67 0 -102.5 27.5zM515.5 677.5q14.5 11.5 14.5 28.5q0 16 -15.5 27t-45.5 11q-25 0 -39.5 -11.5t-14.5 -28.5q0 -16 15.5 -27t45.5 -11q25 0 39.5 11.5z" />
    <glyph glyph-name="ae" unicode="&#xe6;" horiz-adv-x="1144" 
d="M1147 241h-456q6 -64 57 -100t147 -36q54 0 104.5 11t79.5 27l-24 -123q-26 -13 -76 -21.5t-106 -8.5q-91 0 -159.5 29t-109.5 81h-9q-41 -42 -120 -76t-173 -34q-72 0 -123.5 22t-78.5 58.5t-27 79.5q0 77 58 124t169 47h261l4 20q2 8 2 23q0 38 -40 59.5t-142 21.5
q-112 0 -221 -32l23 121q91 26 209 26q120 0 181 -28t79 -62h8q24 35 79 62.5t128 27.5q83 0 147.5 -31t100.5 -88t36 -131q0 -38 -8 -69zM1015 321q0 58 -37 97t-108 39q-61 0 -108 -37t-64 -99h317zM475.5 123q54.5 23 88.5 51q-10 31 -12 67h-228q-50 0 -76.5 -20.5
t-26.5 -51.5q0 -28 31.5 -48.5t93.5 -20.5q75 0 129.5 23z" />
    <glyph glyph-name="ccedilla" unicode="&#xe7;" horiz-adv-x="682" 
d="M346.5 425.5q-47.5 -24.5 -73.5 -68t-26 -99.5q0 -70 55 -114t159 -44q54 0 104 13t75 29l-22 -118q-24 -13 -72.5 -23.5t-102.5 -10.5l-28 -46h1q49 0 76 -25t27 -64q0 -48 -36.5 -78t-104.5 -30q-61 0 -116 17l15 75q43 -14 84 -14q29 0 43.5 8t14.5 22q0 24 -42 24
h-65l-16 21l54 98q-78 14 -134 50.5t-85 89.5t-29 115q0 86 44 156t124.5 110.5t185.5 40.5q91 0 162.5 -21.5t110.5 -46.5l-23 -116q-38 28 -103 51t-147 23q-62 0 -109.5 -24.5z" />
    <glyph glyph-name="egrave" unicode="&#xe8;" horiz-adv-x="727" 
d="M256.5 27.5q-78.5 37.5 -116.5 98.5t-38 131q0 85 42.5 154.5t117.5 109t169 39.5q93 0 162.5 -32.5t106.5 -90t37 -130.5q0 -34 -7 -66h-487q10 -59 69.5 -97.5t159.5 -38.5q58 0 110.5 11.5t79.5 27.5l-24 -120q-25 -14 -77 -24t-112 -10q-114 0 -192.5 37.5zM598 321
q-3 56 -43.5 96t-116.5 40q-41 0 -81 -16.5t-69 -47.5t-37 -72h347zM609 618h-13l-275 52l33 118h40l236 -113z" />
    <glyph glyph-name="eacute" unicode="&#xe9;" horiz-adv-x="727" 
d="M256.5 27.5q-78.5 37.5 -116.5 98.5t-38 131q0 85 42.5 154.5t117.5 109t169 39.5q93 0 162.5 -32.5t106.5 -90t37 -130.5q0 -34 -7 -66h-487q10 -59 69.5 -97.5t159.5 -38.5q58 0 110.5 11.5t79.5 27.5l-24 -120q-25 -14 -77 -24t-112 -10q-114 0 -192.5 37.5zM598 321
q-3 56 -43.5 96t-116.5 40q-41 0 -81 -16.5t-69 -47.5t-37 -72h347zM312 618h-13l1 57l280 113h40l-13 -118z" />
    <glyph glyph-name="ecircumflex" unicode="&#xea;" horiz-adv-x="727" 
d="M256.5 27.5q-78.5 37.5 -116.5 98.5t-38 131q0 85 42.5 154.5t117.5 109t169 39.5q93 0 162.5 -32.5t106.5 -90t37 -130.5q0 -34 -7 -66h-487q10 -59 69.5 -97.5t159.5 -38.5q58 0 110.5 11.5t79.5 27.5l-24 -120q-25 -14 -77 -24t-112 -10q-114 0 -192.5 37.5zM598 321
q-3 56 -43.5 96t-116.5 40q-41 0 -81 -16.5t-69 -47.5t-37 -72h347zM359 630h-143l193 142h148l139 -142h-129l-83 85h-10z" />
    <glyph glyph-name="edieresis" unicode="&#xeb;" horiz-adv-x="727" 
d="M256.5 27.5q-78.5 37.5 -116.5 98.5t-38 131q0 85 42.5 154.5t117.5 109t169 39.5q93 0 162.5 -32.5t106.5 -90t37 -130.5q0 -34 -7 -66h-487q10 -59 69.5 -97.5t159.5 -38.5q58 0 110.5 11.5t79.5 27.5l-24 -120q-25 -14 -77 -24t-112 -10q-114 0 -192.5 37.5zM598 321
q-3 56 -43.5 96t-116.5 40q-41 0 -81 -16.5t-69 -47.5t-37 -72h347zM291.5 645q-20.5 20 -20.5 49q0 33 25.5 57t61.5 24q31 0 51.5 -20t20.5 -49q0 -33 -25.5 -57t-61.5 -24q-31 0 -51.5 20zM528.5 645q-20.5 20 -20.5 49q0 33 25.5 57t61.5 24q31 0 51.5 -20t20.5 -49
q0 -33 -25.5 -57t-61.5 -24q-31 0 -51.5 20z" />
    <glyph glyph-name="igrave" unicode="&#xec;" horiz-adv-x="270" 
d="M205 0h-140l106 550h140zM354 618h-13l-275 52l33 118h40l236 -113z" />
    <glyph glyph-name="iacute" unicode="&#xed;" horiz-adv-x="270" 
d="M205 0h-140l106 550h140zM157 618h-13l1 57l280 113h40l-13 -118z" />
    <glyph glyph-name="icircumflex" unicode="&#xee;" horiz-adv-x="270" 
d="M205 0h-140l106 550h140zM149 630h-143l193 142h148l139 -142h-129l-83 85h-10z" />
    <glyph glyph-name="idieresis" unicode="&#xef;" horiz-adv-x="270" 
d="M205 0h-140l106 550h140zM81.5 645q-20.5 20 -20.5 49q0 33 25.5 57t61.5 24q31 0 51.5 -20t20.5 -49q0 -33 -25.5 -57t-61.5 -24q-31 0 -51.5 20zM318.5 645q-20.5 20 -20.5 49q0 33 25.5 57t61.5 24q31 0 51.5 -20t20.5 -49q0 -33 -25.5 -57t-61.5 -24q-31 0 -51.5 20z
" />
    <glyph glyph-name="eth" unicode="&#xf0;" horiz-adv-x="805" 
d="M490 677q163 -21 246.5 -99t83.5 -198v-6q0 -186 -96 -285t-284 -99q-122 0 -201 31t-115.5 82.5t-36.5 113.5q0 66 34 117.5t103 81t171 29.5q99 0 161 -20t89 -43.5t33 -39.5h6q4 16 4 43q0 65 -56 112t-165 61l-65 8l-29 -65l-83 10l29 66l-97 12l50 116l99 -13l27 62
l83 -10l-28 -62zM601 141.5q47 36.5 47 93.5q0 54 -57 89.5t-175 35.5q-91 0 -137.5 -36.5t-46.5 -93.5q0 -54 56.5 -89.5t174.5 -35.5q91 0 138 36.5z" />
    <glyph glyph-name="ntilde" unicode="&#xf1;" horiz-adv-x="722" 
d="M65 0l106 550h140l-16 -82h6q25 35 78.5 63.5t119.5 28.5q111 0 170 -52t59 -137q0 -31 -5 -55l-61 -316h-140l60 314q3 17 3 31q0 50 -35.5 78.5t-101.5 28.5q-56 0 -103 -28.5t-70 -63.5l-70 -360h-140zM531.5 639q-24.5 11 -53.5 31q-22 14 -32.5 19.5t-24.5 5.5
q-26 0 -30 -27l-6 -35h-110l11 58q8 41 34.5 64t67.5 23q38 0 62.5 -11t53.5 -31q22 -14 32.5 -19.5t24.5 -5.5q25 0 30 27l6 35h110l-11 -58q-8 -41 -34.5 -64t-67.5 -23q-38 0 -62.5 11z" />
    <glyph glyph-name="ograve" unicode="&#xf2;" horiz-adv-x="804" 
d="M262.5 25q-79.5 35 -120 95t-40.5 133q0 86 44 156t124.5 110.5t185.5 40.5q112 0 191.5 -35t120 -95t40.5 -133q0 -86 -44 -156t-124.5 -110.5t-185.5 -40.5q-112 0 -191.5 35zM563.5 124.5q47.5 24.5 73.5 68t26 99.5q0 70 -54 114t-153 44q-62 0 -109.5 -24.5
t-73.5 -68t-26 -99.5q0 -70 54 -114t153 -44q62 0 109.5 24.5zM652 618h-13l-275 52l33 118h40l236 -113z" />
    <glyph glyph-name="oacute" unicode="&#xf3;" horiz-adv-x="804" 
d="M262.5 25q-79.5 35 -120 95t-40.5 133q0 86 44 156t124.5 110.5t185.5 40.5q112 0 191.5 -35t120 -95t40.5 -133q0 -86 -44 -156t-124.5 -110.5t-185.5 -40.5q-112 0 -191.5 35zM563.5 124.5q47.5 24.5 73.5 68t26 99.5q0 70 -54 114t-153 44q-62 0 -109.5 -24.5
t-73.5 -68t-26 -99.5q0 -70 54 -114t153 -44q62 0 109.5 24.5zM355 618h-13l1 57l280 113h40l-13 -118z" />
    <glyph glyph-name="ocircumflex" unicode="&#xf4;" horiz-adv-x="804" 
d="M262.5 25q-79.5 35 -120 95t-40.5 133q0 86 44 156t124.5 110.5t185.5 40.5q112 0 191.5 -35t120 -95t40.5 -133q0 -86 -44 -156t-124.5 -110.5t-185.5 -40.5q-112 0 -191.5 35zM563.5 124.5q47.5 24.5 73.5 68t26 99.5q0 70 -54 114t-153 44q-62 0 -109.5 -24.5
t-73.5 -68t-26 -99.5q0 -70 54 -114t153 -44q62 0 109.5 24.5zM402 630h-143l193 142h148l139 -142h-129l-83 85h-10z" />
    <glyph glyph-name="otilde" unicode="&#xf5;" horiz-adv-x="804" 
d="M262.5 25q-79.5 35 -120 95t-40.5 133q0 86 44 156t124.5 110.5t185.5 40.5q112 0 191.5 -35t120 -95t40.5 -133q0 -86 -44 -156t-124.5 -110.5t-185.5 -40.5q-112 0 -191.5 35zM563.5 124.5q47.5 24.5 73.5 68t26 99.5q0 70 -54 114t-153 44q-62 0 -109.5 -24.5
t-73.5 -68t-26 -99.5q0 -70 54 -114t153 -44q62 0 109.5 24.5zM552.5 639q-24.5 11 -53.5 31q-22 14 -32.5 19.5t-24.5 5.5q-26 0 -30 -27l-6 -35h-110l11 58q8 41 34.5 64t67.5 23q38 0 62.5 -11t53.5 -31q22 -14 32.5 -19.5t24.5 -5.5q25 0 30 27l6 35h110l-11 -58
q-8 -41 -34.5 -64t-67.5 -23q-38 0 -62.5 11z" />
    <glyph glyph-name="odieresis" unicode="&#xf6;" horiz-adv-x="804" 
d="M262.5 25q-79.5 35 -120 95t-40.5 133q0 86 44 156t124.5 110.5t185.5 40.5q112 0 191.5 -35t120 -95t40.5 -133q0 -86 -44 -156t-124.5 -110.5t-185.5 -40.5q-112 0 -191.5 35zM563.5 124.5q47.5 24.5 73.5 68t26 99.5q0 70 -54 114t-153 44q-62 0 -109.5 -24.5
t-73.5 -68t-26 -99.5q0 -70 54 -114t153 -44q62 0 109.5 24.5zM334.5 645q-20.5 20 -20.5 49q0 33 25.5 57t61.5 24q31 0 51.5 -20t20.5 -49q0 -33 -25.5 -57t-61.5 -24q-31 0 -51.5 20zM571.5 645q-20.5 20 -20.5 49q0 33 25.5 57t61.5 24q31 0 51.5 -20t20.5 -49
q0 -33 -25.5 -57t-61.5 -24q-31 0 -51.5 20z" />
    <glyph glyph-name="divide" unicode="&#xf7;" horiz-adv-x="624" 
d="M318 461.5q-23 21.5 -23 53.5t23 53.5t59 21.5t59 -21.5t23 -53.5t-23 -53.5t-59 -21.5t-59 21.5zM629 254h-504v110h504v-110zM318 49.5q-23 21.5 -23 53.5t23 53.5t59 21.5t59 -21.5t23 -53.5t-23 -53.5t-59 -21.5t-59 21.5z" />
    <glyph glyph-name="oslash" unicode="&#xf8;" horiz-adv-x="804" 
d="M735 468q36 -34 54.5 -78t18.5 -93q0 -86 -44 -156t-124.5 -110.5t-185.5 -40.5q-135 0 -227 53l-51 -43h-99l98 82q-36 34 -54.5 78t-18.5 93q0 86 44 156t124.5 110.5t185.5 40.5q135 0 227 -53l51 43h99zM277 168l305 255q-51 27 -126 27q-62 0 -109.5 -24.5
t-73.5 -68t-26 -99.5q0 -52 30 -90zM563.5 124.5q47.5 24.5 73.5 68t26 99.5q0 53 -30 90l-305 -255q51 -27 126 -27q62 0 109.5 24.5z" />
    <glyph glyph-name="ugrave" unicode="&#xf9;" horiz-adv-x="722" 
d="M159 42q-59 52 -59 137q0 31 5 55l61 316h140l-60 -314q-3 -16 -3 -31q0 -50 35.5 -78.5t101.5 -28.5q56 0 103 28.5t70 63.5l70 360h140l-106 -550h-140l16 82h-6q-25 -35 -78.5 -63.5t-119.5 -28.5q-111 0 -170 52zM612 618h-13l-275 52l33 118h40l236 -113z" />
    <glyph glyph-name="uacute" unicode="&#xfa;" horiz-adv-x="722" 
d="M159 42q-59 52 -59 137q0 31 5 55l61 316h140l-60 -314q-3 -16 -3 -31q0 -50 35.5 -78.5t101.5 -28.5q56 0 103 28.5t70 63.5l70 360h140l-106 -550h-140l16 82h-6q-25 -35 -78.5 -63.5t-119.5 -28.5q-111 0 -170 52zM337 618h-13l1 57l280 113h40l-13 -118z" />
    <glyph glyph-name="ucircumflex" unicode="&#xfb;" horiz-adv-x="722" 
d="M159 42q-59 52 -59 137q0 31 5 55l61 316h140l-60 -314q-3 -16 -3 -31q0 -50 35.5 -78.5t101.5 -28.5q56 0 103 28.5t70 63.5l70 360h140l-106 -550h-140l16 82h-6q-25 -35 -78.5 -63.5t-119.5 -28.5q-111 0 -170 52zM373 630h-143l193 142h148l139 -142h-129l-83 85h-10
z" />
    <glyph glyph-name="udieresis" unicode="&#xfc;" horiz-adv-x="722" 
d="M159 42q-59 52 -59 137q0 31 5 55l61 316h140l-60 -314q-3 -16 -3 -31q0 -50 35.5 -78.5t101.5 -28.5q56 0 103 28.5t70 63.5l70 360h140l-106 -550h-140l16 82h-6q-25 -35 -78.5 -63.5t-119.5 -28.5q-111 0 -170 52zM305.5 645q-20.5 20 -20.5 49q0 33 25.5 57t61.5 24
q31 0 51.5 -20t20.5 -49q0 -33 -25.5 -57t-61.5 -24q-31 0 -51.5 20zM542.5 645q-20.5 20 -20.5 49q0 33 25.5 57t61.5 24q31 0 51.5 -20t20.5 -49q0 -33 -25.5 -57t-61.5 -24q-31 0 -51.5 20z" />
    <glyph glyph-name="yacute" unicode="&#xfd;" horiz-adv-x="653" 
d="M246 -190h-155l172 253l-177 487h143l122 -350h5l238 350h155zM296 618h-13l1 57l280 113h40l-13 -118z" />
    <glyph glyph-name="thorn" unicode="&#xfe;" horiz-adv-x="782" 
d="M28 -190l176 910h140l-45 -237h6q24 29 78.5 53t124.5 24q87 0 150 -35t96 -93t33 -127q0 -91 -41 -163t-112.5 -112t-161.5 -40q-88 0 -154 28.5t-92 63.5h-6l-52 -272h-140zM541.5 124.5q47.5 24.5 74 68t26.5 98.5q0 43 -21.5 79.5t-64.5 58t-103 21.5
q-57 0 -104.5 -21.5t-70.5 -48.5l-38 -195q19 -33 71 -59t123 -26q60 0 107.5 24.5z" />
    <glyph glyph-name="ydieresis" unicode="&#xff;" horiz-adv-x="653" 
d="M246 -190h-155l172 253l-177 487h143l122 -350h5l238 350h155zM257.5 645q-20.5 20 -20.5 49q0 33 25.5 57t61.5 24q31 0 51.5 -20t20.5 -49q0 -33 -25.5 -57t-61.5 -24q-31 0 -51.5 20zM494.5 645q-20.5 20 -20.5 49q0 33 25.5 57t61.5 24q31 0 51.5 -20t20.5 -49
q0 -33 -25.5 -57t-61.5 -24q-31 0 -51.5 20z" />
    <glyph glyph-name="Amacron" unicode="&#x100;" horiz-adv-x="878" 
d="M908 0h-142l-51 168h-407l-116 -168h-162l487 700h176zM587 572l-210 -304h308l-92 304h-6zM804 800h-394l20 100h394z" />
    <glyph glyph-name="amacron" unicode="&#x101;" horiz-adv-x="718" 
d="M169.5 11q-50.5 21 -74 56t-23.5 76q0 81 63 132t184 51h163q63 0 85.5 13t22.5 36q0 27 -44.5 48.5t-145.5 21.5q-72 0 -141 -13t-105 -30l24 122q32 14 97.5 25t141.5 11q107 0 176.5 -25.5t101.5 -67.5t32 -94q0 -22 -4 -39l-65 -334h-140l15 80h-3q-33 -34 -97 -62
t-136 -28q-77 0 -127.5 21zM475.5 120q49.5 20 73.5 45l20 104q-8 -7 -37.5 -12.5t-74.5 -5.5h-110q-63 0 -93.5 -22t-30.5 -55q0 -31 32.5 -52.5t110.5 -21.5q60 0 109.5 20zM666 650h-394l20 100h394z" />
    <glyph glyph-name="Abreve" unicode="&#x102;" horiz-adv-x="878" 
d="M908 0h-142l-51 168h-407l-116 -168h-162l487 700h176zM587 572l-210 -304h308l-92 304h-6zM468 818.5q-50 38.5 -50 106.5h110q0 -63 91 -63q45 0 64 15.5t23 47.5h110q-6 -67 -55 -106t-142 -39q-101 0 -151 38.5z" />
    <glyph glyph-name="abreve" unicode="&#x103;" horiz-adv-x="718" 
d="M169.5 11q-50.5 21 -74 56t-23.5 76q0 81 63 132t184 51h163q63 0 85.5 13t22.5 36q0 27 -44.5 48.5t-145.5 21.5q-72 0 -141 -13t-105 -30l24 122q32 14 97.5 25t141.5 11q107 0 176.5 -25.5t101.5 -67.5t32 -94q0 -22 -4 -39l-65 -334h-140l15 80h-3q-33 -34 -97 -62
t-136 -28q-77 0 -127.5 21zM475.5 120q49.5 20 73.5 45l20 104q-8 -7 -37.5 -12.5t-74.5 -5.5h-110q-63 0 -93.5 -22t-30.5 -55q0 -31 32.5 -52.5t110.5 -21.5q60 0 109.5 20zM330 668.5q-50 38.5 -50 106.5h110q0 -63 91 -63q45 0 64 15.5t23 47.5h110q-6 -67 -55 -106
t-142 -39q-101 0 -151 38.5z" />
    <glyph glyph-name="Aogonek" unicode="&#x104;" horiz-adv-x="878" 
d="M885 0q-54 -18 -97 -47t-43 -59q0 -13 12 -21t37 -8q35 0 68 8l-17 -87q-44 -9 -92 -9q-61 0 -93.5 24t-32.5 60q0 78 139 139l-51 168h-407l-116 -168h-162l487 700h176l215 -700h-23zM587 572l-210 -304h308l-92 304h-6z" />
    <glyph glyph-name="aogonek" unicode="&#x105;" horiz-adv-x="718" 
d="M593.5 534.5q69.5 -25.5 101.5 -67.5t32 -94q0 -22 -4 -39l-65 -334q-54 -18 -97 -47t-43 -59q0 -13 12 -21t37 -8q35 0 68 8l-17 -87q-44 -9 -92 -9q-61 0 -93.5 24t-32.5 60q0 81 139 134l1 5h-22l15 80h-3q-33 -34 -97 -62t-136 -28q-77 0 -127.5 21t-74 56t-23.5 76
q0 81 63 132t184 51h163q63 0 85.5 13t22.5 36q0 27 -44.5 48.5t-145.5 21.5q-72 0 -141 -13t-105 -30l24 122q32 14 97.5 25t141.5 11q107 0 176.5 -25.5zM475.5 120q49.5 20 73.5 45l20 104q-8 -7 -37.5 -12.5t-74.5 -5.5h-110q-63 0 -93.5 -22t-30.5 -55
q0 -31 32.5 -52.5t110.5 -21.5q60 0 109.5 20z" />
    <glyph glyph-name="Cacute" unicode="&#x106;" horiz-adv-x="892" 
d="M342 34.5q-101 44.5 -153 120.5t-52 169q0 109 55.5 197t159 138.5t241.5 50.5q110 0 203.5 -30t145.5 -67l-26 -133q-42 42 -128 77t-193 35q-93 0 -163 -34t-108.5 -92t-38.5 -128q0 -63 35 -115.5t102.5 -83.5t161.5 -31q73 0 138 18.5t99 41.5l-24 -133
q-27 -17 -84 -31t-127 -14q-143 0 -244 44.5zM472 768h-13l1 57l280 113h40l-13 -118z" />
    <glyph glyph-name="cacute" unicode="&#x107;" horiz-adv-x="682" 
d="M258.5 25.5q-76.5 35.5 -116.5 95t-40 132.5q0 86 44 156t124.5 110.5t185.5 40.5q91 0 162.5 -21.5t110.5 -46.5l-23 -116q-38 28 -103 51t-147 23q-62 0 -109.5 -24.5t-73.5 -68t-26 -99.5q0 -70 55 -114t159 -44q54 0 104 13t75 29l-22 -118q-24 -13 -73.5 -23.5
t-104.5 -10.5q-105 0 -181.5 35.5zM335 618h-13l1 57l280 113h40l-13 -118z" />
    <glyph glyph-name="Ccircumflex" unicode="&#x108;" horiz-adv-x="892" 
d="M342 34.5q-101 44.5 -153 120.5t-52 169q0 109 55.5 197t159 138.5t241.5 50.5q110 0 203.5 -30t145.5 -67l-26 -133q-42 42 -128 77t-193 35q-93 0 -163 -34t-108.5 -92t-38.5 -128q0 -63 35 -115.5t102.5 -83.5t161.5 -31q73 0 138 18.5t99 41.5l-24 -133
q-27 -17 -84 -31t-127 -14q-143 0 -244 44.5zM519 780h-143l193 142h148l139 -142h-129l-83 85h-10z" />
    <glyph glyph-name="ccircumflex" unicode="&#x109;" horiz-adv-x="682" 
d="M258.5 25.5q-76.5 35.5 -116.5 95t-40 132.5q0 86 44 156t124.5 110.5t185.5 40.5q91 0 162.5 -21.5t110.5 -46.5l-23 -116q-38 28 -103 51t-147 23q-62 0 -109.5 -24.5t-73.5 -68t-26 -99.5q0 -70 55 -114t159 -44q54 0 104 13t75 29l-22 -118q-24 -13 -73.5 -23.5
t-104.5 -10.5q-105 0 -181.5 35.5zM382 630h-143l193 142h148l139 -142h-129l-83 85h-10z" />
    <glyph glyph-name="Cdotaccent" unicode="&#x10a;" horiz-adv-x="892" 
d="M342 34.5q-101 44.5 -153 120.5t-52 169q0 109 55.5 197t159 138.5t241.5 50.5q110 0 203.5 -30t145.5 -67l-26 -133q-42 42 -128 77t-193 35q-93 0 -163 -34t-108.5 -92t-38.5 -128q0 -63 35 -115.5t102.5 -83.5t161.5 -31q73 0 138 18.5t99 41.5l-24 -133
q-27 -17 -84 -31t-127 -14q-143 0 -244 44.5zM564.5 793.5q-22.5 21.5 -22.5 52.5q0 36 27.5 61t68.5 25q36 0 58.5 -21.5t22.5 -52.5q0 -36 -27.5 -61t-68.5 -25q-36 0 -58.5 21.5z" />
    <glyph glyph-name="cdotaccent" unicode="&#x10b;" horiz-adv-x="682" 
d="M258.5 25.5q-76.5 35.5 -116.5 95t-40 132.5q0 86 44 156t124.5 110.5t185.5 40.5q91 0 162.5 -21.5t110.5 -46.5l-23 -116q-38 28 -103 51t-147 23q-62 0 -109.5 -24.5t-73.5 -68t-26 -99.5q0 -70 55 -114t159 -44q54 0 104 13t75 29l-22 -118q-24 -13 -73.5 -23.5
t-104.5 -10.5q-105 0 -181.5 35.5zM427.5 643.5q-22.5 21.5 -22.5 52.5q0 36 27.5 61t68.5 25q36 0 58.5 -21.5t22.5 -52.5q0 -36 -27.5 -61t-68.5 -25q-36 0 -58.5 21.5z" />
    <glyph glyph-name="Ccaron" unicode="&#x10c;" horiz-adv-x="892" 
d="M342 34.5q-101 44.5 -153 120.5t-52 169q0 109 55.5 197t159 138.5t241.5 50.5q110 0 203.5 -30t145.5 -67l-26 -133q-42 42 -128 77t-193 35q-93 0 -163 -34t-108.5 -92t-38.5 -128q0 -63 35 -115.5t102.5 -83.5t161.5 -31q73 0 138 18.5t99 41.5l-24 -133
q-27 -17 -84 -31t-127 -14q-143 0 -244 44.5zM690 780h-148l-139 142h129l83 -85h10l115 85h143z" />
    <glyph glyph-name="ccaron" unicode="&#x10d;" horiz-adv-x="682" 
d="M258.5 25.5q-76.5 35.5 -116.5 95t-40 132.5q0 86 44 156t124.5 110.5t185.5 40.5q91 0 162.5 -21.5t110.5 -46.5l-23 -116q-38 28 -103 51t-147 23q-62 0 -109.5 -24.5t-73.5 -68t-26 -99.5q0 -70 55 -114t159 -44q54 0 104 13t75 29l-22 -118q-24 -13 -73.5 -23.5
t-104.5 -10.5q-105 0 -181.5 35.5zM553 630h-148l-139 142h129l83 -85h10l115 85h143z" />
    <glyph glyph-name="Dcaron" unicode="&#x10e;" horiz-adv-x="938" 
d="M85 0l136 700h311q127 0 219 -43t139 -115.5t47 -157.5q0 -113 -52 -199.5t-150.5 -135.5t-235.5 -49h-414zM498 120q92 0 157.5 32t100 89.5t34.5 131.5q0 57 -31 104t-92.5 75t-149.5 28h-180l-89 -460h250zM636 780h-148l-139 142h129l83 -85h10l115 85h143z" />
    <glyph glyph-name="dcaron" unicode="&#x10f;" horiz-adv-x="881" 
d="M840 450l17 90h31q33 0 55.5 19.5t27.5 51.5h-3h-2q-12 -15 -37 -15t-39.5 16.5t-14.5 43.5q0 29 19 51.5t50 22.5q35 0 55 -23t20 -67q0 -50 -17.5 -93.5t-52 -70t-82.5 -26.5h-27zM230 25q-63 35 -96 93t-33 127q0 91 41 163t112.5 112t161.5 40q88 0 154 -28.5
t92 -63.5h6l48 252h141l-1 -6l-8 -40l-65 -334l-66 -340h-140l12 67h-6q-24 -29 -78.5 -53t-124.5 -24q-87 0 -150 35zM539.5 121.5q47.5 21.5 70.5 48.5l38 195q-19 33 -71 59t-123 26q-60 0 -107.5 -24.5t-74 -68t-26.5 -98.5q0 -43 21.5 -79.5t64.5 -58t103 -21.5
q57 0 104.5 21.5z" />
    <glyph glyph-name="Dcroat" unicode="&#x110;" horiz-adv-x="953" 
d="M547 700q127 0 219 -43t139 -115.5t47 -157.5q0 -113 -52 -199.5t-150.5 -135.5t-235.5 -49h-414l56 290h-70l19 100h71l60 310h311zM513 120q92 0 157.5 32t100 89.5t34.5 131.5q0 57 -31 104t-92.5 75t-149.5 28h-180l-37 -190h237l-19 -100h-237l-33 -170h250z" />
    <glyph glyph-name="dcroat" unicode="&#x111;" horiz-adv-x="798" 
d="M916 608l-16 -80h-100l-102 -528h-140l13 69h-6q-27 -30 -87.5 -54.5t-137.5 -24.5q-82 0 -141.5 30t-91 79.5t-31.5 105.5q0 68 36.5 123.5t104 87.5t156.5 32q83 0 150.5 -26t99.5 -58h5l32 164h-215l16 80h214l22 112h140l-22 -112h101zM611 272q-31 25 -90 45.5
t-129 20.5q-84 0 -127.5 -35t-43.5 -91q0 -47 43.5 -79.5t130.5 -32.5q62 0 115 19t79 43z" />
    <glyph glyph-name="Emacron" unicode="&#x112;" horiz-adv-x="752" 
d="M813 700l-24 -120h-452l-34 -177h412l-20 -100h-412l-35 -183h472l-23 -120h-612l136 700h592zM725 800h-394l20 100h394z" />
    <glyph glyph-name="emacron" unicode="&#x113;" horiz-adv-x="727" 
d="M256.5 27.5q-78.5 37.5 -116.5 98.5t-38 131q0 85 42.5 154.5t117.5 109t169 39.5q93 0 162.5 -32.5t106.5 -90t37 -130.5q0 -34 -7 -66h-487q10 -59 69.5 -97.5t159.5 -38.5q58 0 110.5 11.5t79.5 27.5l-24 -120q-25 -14 -77 -24t-112 -10q-114 0 -192.5 37.5zM598 321
q-3 56 -43.5 96t-116.5 40q-41 0 -81 -16.5t-69 -47.5t-37 -72h347zM656 650h-394l20 100h394z" />
    <glyph glyph-name="Ebreve" unicode="&#x114;" horiz-adv-x="752" 
d="M813 700l-24 -120h-452l-34 -177h412l-20 -100h-412l-35 -183h472l-23 -120h-612l136 700h592zM389 818.5q-50 38.5 -50 106.5h110q0 -63 91 -63q45 0 64 15.5t23 47.5h110q-6 -67 -55 -106t-142 -39q-101 0 -151 38.5z" />
    <glyph glyph-name="ebreve" unicode="&#x115;" horiz-adv-x="727" 
d="M256.5 27.5q-78.5 37.5 -116.5 98.5t-38 131q0 85 42.5 154.5t117.5 109t169 39.5q93 0 162.5 -32.5t106.5 -90t37 -130.5q0 -34 -7 -66h-487q10 -59 69.5 -97.5t159.5 -38.5q58 0 110.5 11.5t79.5 27.5l-24 -120q-25 -14 -77 -24t-112 -10q-114 0 -192.5 37.5zM598 321
q-3 56 -43.5 96t-116.5 40q-41 0 -81 -16.5t-69 -47.5t-37 -72h347zM320 668.5q-50 38.5 -50 106.5h110q0 -63 91 -63q45 0 64 15.5t23 47.5h110q-6 -67 -55 -106t-142 -39q-101 0 -151 38.5z" />
    <glyph glyph-name="Edotaccent" unicode="&#x116;" horiz-adv-x="752" 
d="M813 700l-24 -120h-452l-34 -177h412l-20 -100h-412l-35 -183h472l-23 -120h-612l136 700h592zM473.5 793.5q-22.5 21.5 -22.5 52.5q0 36 27.5 61t68.5 25q36 0 58.5 -21.5t22.5 -52.5q0 -36 -27.5 -61t-68.5 -25q-36 0 -58.5 21.5z" />
    <glyph glyph-name="edotaccent" unicode="&#x117;" horiz-adv-x="727" 
d="M256.5 27.5q-78.5 37.5 -116.5 98.5t-38 131q0 85 42.5 154.5t117.5 109t169 39.5q93 0 162.5 -32.5t106.5 -90t37 -130.5q0 -34 -7 -66h-487q10 -59 69.5 -97.5t159.5 -38.5q58 0 110.5 11.5t79.5 27.5l-24 -120q-25 -14 -77 -24t-112 -10q-114 0 -192.5 37.5zM598 321
q-3 56 -43.5 96t-116.5 40q-41 0 -81 -16.5t-69 -47.5t-37 -72h347zM404.5 643.5q-22.5 21.5 -22.5 52.5q0 36 27.5 61t68.5 25q36 0 58.5 -21.5t22.5 -52.5q0 -36 -27.5 -61t-68.5 -25q-36 0 -58.5 21.5z" />
    <glyph glyph-name="Eogonek" unicode="&#x118;" horiz-adv-x="752" 
d="M789 580h-452l-34 -177h412l-20 -100h-412l-35 -183h472l-23 -120q-54 -18 -97 -47t-43 -59q0 -13 12 -21t37 -8q35 0 68 8l-17 -87q-44 -9 -92 -9q-61 0 -93.5 24t-32.5 60q0 81 139 134l1 5h-494l136 700h592z" />
    <glyph glyph-name="eogonek" unicode="&#x119;" horiz-adv-x="727" 
d="M290.5 -199q-32.5 24 -32.5 60q0 80 142 126l1 5q-99 8 -166 46.5t-100 96t-33 122.5q0 85 42.5 154.5t117.5 109t169 39.5q93 0 162.5 -32.5t106.5 -90t37 -130.5q0 -34 -7 -66h-487q10 -59 69.5 -97.5t159.5 -38.5q58 0 110.5 11.5t78.5 27.5l-23 -120
q-38 -17 -112 -34q-61 -14 -105.5 -39.5t-44.5 -56.5q0 -13 12 -21t37 -8q35 0 68 8l-17 -87q-43 -9 -92 -9q-61 0 -93.5 24zM598 321q-3 56 -43.5 96t-116.5 40q-41 0 -81 -16.5t-69 -47.5t-37 -72h347z" />
    <glyph glyph-name="Ecaron" unicode="&#x11a;" horiz-adv-x="752" 
d="M813 700l-24 -120h-452l-34 -177h412l-20 -100h-412l-35 -183h472l-23 -120h-612l136 700h592zM599 780h-148l-139 142h129l83 -85h10l115 85h143z" />
    <glyph glyph-name="ecaron" unicode="&#x11b;" horiz-adv-x="727" 
d="M256.5 27.5q-78.5 37.5 -116.5 98.5t-38 131q0 85 42.5 154.5t117.5 109t169 39.5q93 0 162.5 -32.5t106.5 -90t37 -130.5q0 -34 -7 -66h-487q10 -59 69.5 -97.5t159.5 -38.5q58 0 110.5 11.5t79.5 27.5l-24 -120q-25 -14 -77 -24t-112 -10q-114 0 -192.5 37.5zM598 321
q-3 56 -43.5 96t-116.5 40q-41 0 -81 -16.5t-69 -47.5t-37 -72h347zM530 630h-148l-139 142h129l83 -85h10l115 85h143z" />
    <glyph glyph-name="Gcircumflex" unicode="&#x11c;" horiz-adv-x="947" 
d="M342 34.5q-101 44.5 -153 120.5t-52 169q0 110 56.5 197.5t164 138t255.5 50.5q115 0 216.5 -28.5t166.5 -65.5l-25 -126q-60 39 -153 70.5t-203 31.5q-102 0 -176.5 -33.5t-114 -91.5t-39.5 -129q0 -63 35 -115.5t102.5 -83.5t161.5 -31q65 0 122 12t89 26l20 104h-295
l21 105h405l-59 -298q-46 -26 -128.5 -46.5t-172.5 -20.5q-143 0 -244 44.5zM521 780h-143l193 142h148l139 -142h-129l-83 85h-10z" />
    <glyph glyph-name="gcircumflex" unicode="&#x11d;" horiz-adv-x="777" 
d="M212.5 -176q-79.5 24 -126.5 52l24 123q41 -31 112.5 -57.5t152.5 -26.5q89 0 140.5 41t68.5 114l7 31h-6q-25 -29 -82 -52.5t-130 -23.5q-81 0 -142.5 32.5t-94.5 88t-33 123.5q0 83 42 149t116.5 104t168.5 38q75 0 136 -28.5t90 -63.5h6l16 82h140l-95 -493
q-23 -121 -109 -189t-232 -68q-90 0 -169.5 24zM537 155q50 20 73 45l32 164q-21 33 -74.5 59.5t-125.5 26.5q-90 0 -142 -47.5t-52 -126.5q0 -60 45 -100.5t132 -40.5q62 0 112 20zM389 630h-143l193 142h148l139 -142h-129l-83 85h-10z" />
    <glyph glyph-name="Gbreve" unicode="&#x11e;" horiz-adv-x="947" 
d="M342 34.5q-101 44.5 -153 120.5t-52 169q0 110 56.5 197.5t164 138t255.5 50.5q115 0 216.5 -28.5t166.5 -65.5l-25 -126q-60 39 -153 70.5t-203 31.5q-102 0 -176.5 -33.5t-114 -91.5t-39.5 -129q0 -63 35 -115.5t102.5 -83.5t161.5 -31q65 0 122 12t89 26l20 104h-295
l21 105h405l-59 -298q-46 -26 -128.5 -46.5t-172.5 -20.5q-143 0 -244 44.5zM482 818.5q-50 38.5 -50 106.5h110q0 -63 91 -63q45 0 64 15.5t23 47.5h110q-6 -67 -55 -106t-142 -39q-101 0 -151 38.5z" />
    <glyph glyph-name="gbreve" unicode="&#x11f;" horiz-adv-x="777" 
d="M212.5 -176q-79.5 24 -126.5 52l24 123q41 -31 112.5 -57.5t152.5 -26.5q89 0 140.5 41t68.5 114l7 31h-6q-25 -29 -82 -52.5t-130 -23.5q-81 0 -142.5 32.5t-94.5 88t-33 123.5q0 83 42 149t116.5 104t168.5 38q75 0 136 -28.5t90 -63.5h6l16 82h140l-95 -493
q-23 -121 -109 -189t-232 -68q-90 0 -169.5 24zM537 155q50 20 73 45l32 164q-21 33 -74.5 59.5t-125.5 26.5q-90 0 -142 -47.5t-52 -126.5q0 -60 45 -100.5t132 -40.5q62 0 112 20zM350 668.5q-50 38.5 -50 106.5h110q0 -63 91 -63q45 0 64 15.5t23 47.5h110
q-6 -67 -55 -106t-142 -39q-101 0 -151 38.5z" />
    <glyph glyph-name="Gdotaccent" unicode="&#x120;" horiz-adv-x="947" 
d="M342 34.5q-101 44.5 -153 120.5t-52 169q0 110 56.5 197.5t164 138t255.5 50.5q115 0 216.5 -28.5t166.5 -65.5l-25 -126q-60 39 -153 70.5t-203 31.5q-102 0 -176.5 -33.5t-114 -91.5t-39.5 -129q0 -63 35 -115.5t102.5 -83.5t161.5 -31q65 0 122 12t89 26l20 104h-295
l21 105h405l-59 -298q-46 -26 -128.5 -46.5t-172.5 -20.5q-143 0 -244 44.5zM566.5 793.5q-22.5 21.5 -22.5 52.5q0 36 27.5 61t68.5 25q36 0 58.5 -21.5t22.5 -52.5q0 -36 -27.5 -61t-68.5 -25q-36 0 -58.5 21.5z" />
    <glyph glyph-name="gdotaccent" unicode="&#x121;" horiz-adv-x="777" 
d="M212.5 -176q-79.5 24 -126.5 52l24 123q41 -31 112.5 -57.5t152.5 -26.5q89 0 140.5 41t68.5 114l7 31h-6q-25 -29 -82 -52.5t-130 -23.5q-81 0 -142.5 32.5t-94.5 88t-33 123.5q0 83 42 149t116.5 104t168.5 38q75 0 136 -28.5t90 -63.5h6l16 82h140l-95 -493
q-23 -121 -109 -189t-232 -68q-90 0 -169.5 24zM537 155q50 20 73 45l32 164q-21 33 -74.5 59.5t-125.5 26.5q-90 0 -142 -47.5t-52 -126.5q0 -60 45 -100.5t132 -40.5q62 0 112 20zM434.5 643.5q-22.5 21.5 -22.5 52.5q0 36 27.5 61t68.5 25q36 0 58.5 -21.5t22.5 -52.5
q0 -36 -27.5 -61t-68.5 -25q-36 0 -58.5 21.5z" />
    <glyph glyph-name="uni0122" unicode="&#x122;" horiz-adv-x="947" 
d="M342 34.5q-101 44.5 -153 120.5t-52 169q0 110 56.5 197.5t164 138t255.5 50.5q115 0 216.5 -28.5t166.5 -65.5l-25 -126q-60 39 -153 70.5t-203 31.5q-102 0 -176.5 -33.5t-114 -91.5t-39.5 -129q0 -63 35 -115.5t102.5 -83.5t161.5 -31q65 0 122 12t89 26l20 104h-295
l21 105h405l-59 -298q-46 -26 -128.5 -46.5t-172.5 -20.5q-143 0 -244 44.5zM415 -318l14 75h36q31 0 47.5 15t20.5 40h-4h-1q-12 -15 -35 -15q-24 0 -39 16t-15 39q0 33 20.5 53t50.5 20q33 0 53.5 -22t20.5 -63q0 -71 -38.5 -114.5t-100.5 -43.5h-30z" />
    <glyph glyph-name="uni0123" unicode="&#x123;" horiz-adv-x="778" 
d="M447.5 637q-20.5 22 -20.5 63q0 71 38.5 114.5t100.5 43.5h30l-14 -75h-36q-31 0 -47.5 -15t-20.5 -40h3h2q13 15 35 15q24 0 39 -16t15 -39q0 -33 -20.5 -53t-50.5 -20q-33 0 -53.5 22zM210.5 -174.5q-80.5 25.5 -123.5 57.5l24 123q38 -35 110.5 -63t154.5 -28
q90 0 141 41t68 114l7 31h-6q-25 -29 -82 -52.5t-130 -23.5q-81 0 -142.5 32.5t-94.5 88t-33 123.5q0 83 42 149t116.5 104t168.5 38q75 0 136 -28.5t90 -63.5h6l16 82h140l-95 -493q-23 -121 -109 -189t-232 -68q-92 0 -172.5 25.5zM538 155q50 20 73 45l32 164
q-21 33 -74.5 59.5t-125.5 26.5q-90 0 -142 -47.5t-52 -126.5q0 -60 45 -100.5t132 -40.5q62 0 112 20z" />
    <glyph glyph-name="Hcircumflex" unicode="&#x124;" horiz-adv-x="890" 
d="M746 415l55 285h140l-136 -700h-140l56 290h-440l-56 -290h-140l136 700h140l-55 -285h440zM486 780h-143l193 142h148l139 -142h-129l-83 85h-10z" />
    <glyph glyph-name="hcircumflex" unicode="&#x125;" horiz-adv-x="722" 
d="M65 0l139 720h140l-49 -252h6q25 35 78.5 63.5t119.5 28.5q111 0 170 -52t59 -137q0 -31 -5 -55l-61 -316h-140l60 314q3 17 3 31q0 50 -35.5 78.5t-101.5 28.5q-56 0 -103 -28.5t-70 -63.5l-70 -360h-140zM174 780h-143l193 142h148l139 -142h-129l-83 85h-10z" />
    <glyph glyph-name="Hbar" unicode="&#x126;" horiz-adv-x="925" 
d="M938 608h100l-20 -100h-99l-99 -508h-140l56 290h-435l-56 -290h-140l99 508h-101l20 100h100l18 92h140l-18 -92h435l18 92h140zM325 410h435l19 98h-435z" />
    <glyph glyph-name="hbar" unicode="&#x127;" horiz-adv-x="742" 
d="M689 508q59 -52 59 -137q0 -31 -5 -55l-61 -316h-140l60 314q3 17 3 31q0 50 -35.5 78.5t-101.5 28.5q-56 0 -103 -28.5t-70 -63.5l-70 -360h-140l116 600h-85l15 75h84l9 45h140l-9 -45h169l-15 -75h-168l-26 -132h6q25 35 78.5 63.5t119.5 28.5q111 0 170 -52z" />
    <glyph glyph-name="Itilde" unicode="&#x128;" horiz-adv-x="760" 
d="M856 700l-24 -120h-270l-89 -460h270l-23 -120h-680l23 120h270l89 460h-270l24 120h680zM566.5 789q-24.5 11 -53.5 31q-22 14 -32.5 19.5t-24.5 5.5q-26 0 -30 -27l-6 -35h-110l11 58q8 41 34.5 64t67.5 23q38 0 62.5 -11t53.5 -31q22 -14 32.5 -19.5t24.5 -5.5
q25 0 30 27l6 35h110l-11 -58q-8 -41 -34.5 -64t-67.5 -23q-38 0 -62.5 11z" />
    <glyph glyph-name="itilde" unicode="&#x129;" horiz-adv-x="270" 
d="M205 0h-140l106 550h140zM299.5 639q-24.5 11 -53.5 31q-22 14 -32.5 19.5t-24.5 5.5q-26 0 -30 -27l-6 -35h-110l11 58q8 41 34.5 64t67.5 23q38 0 62.5 -11t53.5 -31q22 -14 32.5 -19.5t24.5 -5.5q25 0 30 27l6 35h110l-11 -58q-8 -41 -34.5 -64t-67.5 -23
q-38 0 -62.5 11z" />
    <glyph glyph-name="Imacron" unicode="&#x12a;" horiz-adv-x="760" 
d="M856 700l-24 -120h-270l-89 -460h270l-23 -120h-680l23 120h270l89 460h-270l24 120h680zM713 800h-394l20 100h394z" />
    <glyph glyph-name="imacron" unicode="&#x12b;" horiz-adv-x="270" 
d="M205 0h-140l106 550h140zM446 650h-394l20 100h394z" />
    <glyph glyph-name="Ibreve" unicode="&#x12c;" horiz-adv-x="760" 
d="M856 700l-24 -120h-270l-89 -460h270l-23 -120h-680l23 120h270l89 460h-270l24 120h680zM377 818.5q-50 38.5 -50 106.5h110q0 -63 91 -63q45 0 64 15.5t23 47.5h110q-6 -67 -55 -106t-142 -39q-101 0 -151 38.5z" />
    <glyph glyph-name="ibreve" unicode="&#x12d;" horiz-adv-x="270" 
d="M205 0h-140l106 550h140zM110 668.5q-50 38.5 -50 106.5h110q0 -63 91 -63q45 0 64 15.5t23 47.5h110q-6 -67 -55 -106t-142 -39q-101 0 -151 38.5z" />
    <glyph glyph-name="Iogonek" unicode="&#x12e;" horiz-adv-x="760" 
d="M832 580h-270l-89 -460h270l-23 -120h-280q-54 -18 -97 -47t-43 -59q0 -13 12 -21t37 -8q35 0 68 8l-17 -87q-43 -9 -92 -9q-61 0 -93.5 24t-32.5 60q0 81 139 134l1 5h-282l23 120h270l89 460h-270l24 120h680z" />
    <glyph glyph-name="iogonek" unicode="&#x12f;" horiz-adv-x="270" 
d="M331 719q24 -19 24 -49q0 -36 -26 -58t-66 -22q-42 0 -66 19t-24 49q0 36 26 58t66 22q42 0 66 -19zM304 550h7l-106 -550q-57 -19 -97 -47t-40 -59q0 -13 10.5 -21t29.5 -8h75l-17 -88h-118q-43 0 -70.5 24t-27.5 56q0 51 45.5 85.5t93.5 52.5l1 5h-25l106 550h6h64h63z
" />
    <glyph glyph-name="Idotaccent" unicode="&#x130;" horiz-adv-x="760" 
d="M856 700l-24 -120h-270l-89 -460h270l-23 -120h-680l23 120h270l89 460h-270l24 120h680zM461.5 793.5q-22.5 21.5 -22.5 52.5q0 36 27.5 61t68.5 25q36 0 58.5 -21.5t22.5 -52.5q0 -36 -27.5 -61t-68.5 -25q-36 0 -58.5 21.5z" />
    <glyph glyph-name="dotlessi" unicode="&#x131;" horiz-adv-x="270" 
d="M205 0h-140l106 550h140z" />
    <glyph glyph-name="IJ" unicode="&#x132;" horiz-adv-x="1360" 
d="M856 700l-24 -120h-270l-89 -460h270l-23 -120h-680l23 120h270l89 460h-270l24 120h680zM898 -1.5q-53 8.5 -113 28.5l24 120q57 -18 98.5 -24.5t84.5 -6.5q78 0 128 33t62 94l89 457h140l-95 -484q-21 -104 -101 -165t-206 -61q-58 0 -111 8.5z" />
    <glyph glyph-name="ij" unicode="&#x133;" horiz-adv-x="535" 
d="M197 609q-24 19 -24 49q0 36 26 58t66 22q42 0 66 -19t24 -49q0 -36 -26 -58t-66 -22q-42 0 -66 19zM462 609q-24 19 -24 49q0 36 26 58t66 22q42 0 66 -19t24 -49q0 -36 -26 -58t-66 -22q-42 0 -66 19zM65 0l106 550h6h64h63h7l-106 -550h-140zM134 -186l21 107
q40 -11 70 -11q46 0 70.5 23t33.5 68l107 549h6h64h63h7l-109 -557q-20 -101 -71.5 -148.5t-148.5 -47.5q-55 0 -113 17z" />
    <glyph glyph-name="Jcircumflex" unicode="&#x134;" horiz-adv-x="600" 
d="M138 -1.5q-53 8.5 -113 28.5l24 120q57 -18 98.5 -24.5t84.5 -6.5q78 0 128 33t62 94l89 457h140l-95 -484q-21 -104 -101 -165t-206 -61q-58 0 -111 8.5zM484 780h-143l193 142h148l139 -142h-129l-83 85h-10z" />
    <glyph glyph-name="jcircumflex" unicode="&#x135;" horiz-adv-x="270" 
d="M-131 -186l21 109q40 -11 70 -11q46 0 71 23.5t34 70.5l106 544h140l-109 -557q-19 -100 -71 -148t-149 -48q-55 0 -113 17zM149 630h-143l193 142h148l139 -142h-129l-83 85h-10z" />
    <glyph glyph-name="uni0136" unicode="&#x136;" horiz-adv-x="802" 
d="M225 0h-140l136 700h140l-60 -307h2l465 307h205l-510 -342l-1 -5l321 -353h-177l-314 338h-2zM322 -318l14 75h36q31 0 47.5 15t20.5 40h-4h-1q-12 -15 -35 -15q-24 0 -39 16t-15 39q0 33 20.5 53t50.5 20q33 0 53.5 -22t20.5 -63q0 -71 -38.5 -114.5t-100.5 -43.5h-30z
" />
    <glyph glyph-name="uni0137" unicode="&#x137;" horiz-adv-x="672" 
d="M205 0h-140l139 720h140l-77 -399h1l334 229h201l-394 -264l264 -286h-175l-237 270h-4zM253 -318l14 75h36q31 0 47.5 15t20.5 40h-4h-1q-12 -15 -35 -15q-24 0 -39 16t-15 39q0 33 20.5 53t50.5 20q33 0 53.5 -22t20.5 -63q0 -71 -38.5 -114.5t-100.5 -43.5h-30z" />
    <glyph glyph-name="Lacute" unicode="&#x139;" horiz-adv-x="705" 
d="M705 0h-620l136 700h140l-112 -575h480zM198 768h-13l1 57l280 113h40l-13 -118z" />
    <glyph glyph-name="lacute" unicode="&#x13a;" horiz-adv-x="270" 
d="M205 0h-140l139 720h140zM176 768h-13l1 57l280 113h40l-13 -118z" />
    <glyph glyph-name="uni013B" unicode="&#x13b;" horiz-adv-x="705" 
d="M705 0h-620l136 700h140l-112 -575h480zM299 -318l14 75h36q31 0 47.5 15t20.5 40h-4h-1q-12 -15 -35 -15q-24 0 -39 16t-15 39q0 33 20.5 53t50.5 20q33 0 53.5 -22t20.5 -63q0 -71 -38.5 -114.5t-100.5 -43.5h-30z" />
    <glyph glyph-name="uni013C" unicode="&#x13c;" horiz-adv-x="270" 
d="M205 0h-140l139 720h140zM20 -318l14 75h36q31 0 47.5 15t20.5 40h-4h-1q-12 -15 -35 -15q-24 0 -39 16t-15 39q0 33 20.5 53t50.5 20q33 0 53.5 -22t20.5 -63q0 -71 -38.5 -114.5t-100.5 -43.5h-30z" />
    <glyph glyph-name="Lcaron" unicode="&#x13d;" horiz-adv-x="705" 
d="M354 430l17 90h31q33 0 55.5 19.5t27.5 51.5h-4h-1q-12 -15 -37 -15t-39.5 16.5t-14.5 43.5q0 29 19 51.5t50 22.5q35 0 55 -23t20 -67q0 -50 -17.5 -93.5t-52 -70t-82.5 -26.5h-27zM705 0h-620l136 700h140l-112 -575h480z" />
    <glyph glyph-name="lcaron" unicode="&#x13e;" horiz-adv-x="369" 
d="M328 450l17 90h31q33 0 55.5 19.5t27.5 51.5h-3h-2q-12 -15 -37 -15t-39.5 16.5t-14.5 43.5q0 29 19 51.5t50 22.5q35 0 55 -23t20 -67q0 -50 -17.5 -93.5t-52 -70t-82.5 -26.5h-27zM205 0h-140l139 720h141l-1 -6l-8 -40l-65 -334z" />
    <glyph glyph-name="Ldot" unicode="&#x13f;" horiz-adv-x="705" 
d="M705 0h-620l136 700h140l-112 -575h480zM512.5 331.5q-22.5 21.5 -22.5 52.5q0 36 27.5 61t68.5 25q36 0 58.5 -21.5t22.5 -52.5q0 -36 -27.5 -61t-68.5 -25q-36 0 -58.5 21.5z" />
    <glyph glyph-name="ldot" unicode="&#x140;" horiz-adv-x="426" 
d="M205 0h-140l139 720h140zM350.5 301.5q-22.5 21.5 -22.5 52.5q0 36 27.5 61t68.5 25q36 0 58.5 -21.5t22.5 -52.5q0 -36 -27.5 -61t-68.5 -25q-36 0 -58.5 21.5z" />
    <glyph glyph-name="Lslash" unicode="&#x141;" horiz-adv-x="712" 
d="M296 328l-40 -203h480l-24 -125h-620l53 275l-83 -30l21 105l83 30l62 320h140l-52 -267l252 90l-20 -105z" />
    <glyph glyph-name="lslash" unicode="&#x142;" horiz-adv-x="334" 
d="M325 457l94 33l-18 -92l-94 -33l-70 -365h-140l60 312l-93 -33l18 92l93 33l61 316h140z" />
    <glyph glyph-name="Nacute" unicode="&#x143;" horiz-adv-x="887" 
d="M225 0h-140l136 700h224l232 -580h7l114 580h140l-136 -700h-224l-233 580h-7zM457 768h-13l1 57l280 113h40l-13 -118z" />
    <glyph glyph-name="nacute" unicode="&#x144;" horiz-adv-x="722" 
d="M65 0l106 550h140l-16 -82h6q25 35 78.5 63.5t119.5 28.5q111 0 170 -52t59 -137q0 -31 -5 -55l-61 -316h-140l60 314q3 17 3 31q0 50 -35.5 78.5t-101.5 28.5q-56 0 -103 -28.5t-70 -63.5l-70 -360h-140zM352 618h-13l1 57l280 113h40l-13 -118z" />
    <glyph glyph-name="uni0145" unicode="&#x145;" horiz-adv-x="887" 
d="M225 0h-140l136 700h224l232 -580h7l114 580h140l-136 -700h-224l-233 580h-7zM351 -318l14 75h36q31 0 47.5 15t20.5 40h-4h-1q-12 -15 -35 -15q-24 0 -39 16t-15 39q0 33 20.5 53t50.5 20q33 0 53.5 -22t20.5 -63q0 -71 -38.5 -114.5t-100.5 -43.5h-30z" />
    <glyph glyph-name="uni0146" unicode="&#x146;" horiz-adv-x="722" 
d="M65 0l106 550h140l-16 -82h6q25 35 78.5 63.5t119.5 28.5q111 0 170 -52t59 -137q0 -31 -5 -55l-61 -316h-140l60 314q3 17 3 31q0 50 -35.5 78.5t-101.5 28.5q-56 0 -103 -28.5t-70 -63.5l-70 -360h-140zM270 -318l14 75h36q31 0 47.5 15t20.5 40h-4h-1q-12 -15 -35 -15
q-24 0 -39 16t-15 39q0 33 20.5 53t50.5 20q33 0 53.5 -22t20.5 -63q0 -71 -38.5 -114.5t-100.5 -43.5h-30z" />
    <glyph glyph-name="Ncaron" unicode="&#x147;" horiz-adv-x="887" 
d="M225 0h-140l136 700h224l232 -580h7l114 580h140l-136 -700h-224l-233 580h-7zM665 780h-148l-139 142h129l83 -85h10l115 85h143z" />
    <glyph glyph-name="ncaron" unicode="&#x148;" horiz-adv-x="722" 
d="M65 0l106 550h140l-16 -82h6q25 35 78.5 63.5t119.5 28.5q111 0 170 -52t59 -137q0 -31 -5 -55l-61 -316h-140l60 314q3 17 3 31q0 50 -35.5 78.5t-101.5 28.5q-56 0 -103 -28.5t-70 -63.5l-70 -360h-140zM552 630h-148l-139 142h129l83 -85h10l115 85h143z" />
    <glyph glyph-name="napostrophe" unicode="&#x149;" horiz-adv-x="820" 
d="M82 450l17 90h31q33 0 55.5 19.5t27.5 51.5h-4h-1q-5 -6 -14.5 -10.5t-22.5 -4.5q-25 0 -39.5 16.5t-14.5 43.5q0 29 19 51.5t50 22.5q35 0 55 -23t20 -67q0 -50 -17.5 -93.5t-52 -70t-82.5 -26.5h-27zM163 0l106 550h140l-16 -82h6q25 35 78.5 63.5t119.5 28.5
q111 0 170 -52t59 -137q0 -31 -5 -55l-61 -316h-140l60 314q3 17 3 31q0 50 -35.5 78.5t-101.5 28.5q-56 0 -103 -28.5t-70 -63.5l-70 -360h-140z" />
    <glyph glyph-name="Eng" unicode="&#x14a;" horiz-adv-x="887" 
d="M467 -186l21 107q40 -11 70 -11q44 0 69.5 22t32.5 60l2 8h-84l-233 580h-7l-113 -580h-140l136 700h224l232 -580h7l114 580h140l-138 -707q-19 -100 -71 -148t-149 -48q-55 0 -113 17z" />
    <glyph glyph-name="eng" unicode="&#x14b;" horiz-adv-x="722" 
d="M322 -186l21 109q40 -11 72 -11q48 0 73.5 23.5t34.5 70.5l59 308q3 17 3 31q0 50 -35.5 78.5t-101.5 28.5q-56 0 -103 -28.5t-70 -63.5l-70 -360h-140l106 550h140l-16 -82h6q25 35 78.5 63.5t119.5 28.5q111 0 170 -52t59 -137q0 -31 -5 -55l-63 -323
q-19 -100 -71.5 -148t-151.5 -48q-57 0 -115 17z" />
    <glyph glyph-name="Omacron" unicode="&#x14c;" horiz-adv-x="1064" 
d="M348.5 34.5q-105.5 44.5 -158.5 120.5t-53 169q0 109 55.5 197t158.5 138.5t242 50.5q152 0 257.5 -44.5t158.5 -120.5t53 -169q0 -109 -55.5 -197t-158.5 -138.5t-242 -50.5q-152 0 -257.5 44.5zM767 142q70 34 108.5 92t38.5 128q0 63 -36 115.5t-108 83.5t-175 31
q-93 0 -163 -34t-108.5 -92t-38.5 -128q0 -63 36 -115.5t108 -83.5t175 -31q93 0 163 34zM828 800h-394l20 100h394z" />
    <glyph glyph-name="omacron" unicode="&#x14d;" horiz-adv-x="804" 
d="M262.5 25q-79.5 35 -120 95t-40.5 133q0 86 44 156t124.5 110.5t185.5 40.5q112 0 191.5 -35t120 -95t40.5 -133q0 -86 -44 -156t-124.5 -110.5t-185.5 -40.5q-112 0 -191.5 35zM563.5 124.5q47.5 24.5 73.5 68t26 99.5q0 70 -54 114t-153 44q-62 0 -109.5 -24.5
t-73.5 -68t-26 -99.5q0 -70 54 -114t153 -44q62 0 109.5 24.5zM699 650h-394l20 100h394z" />
    <glyph glyph-name="Obreve" unicode="&#x14e;" horiz-adv-x="1064" 
d="M348.5 34.5q-105.5 44.5 -158.5 120.5t-53 169q0 109 55.5 197t158.5 138.5t242 50.5q152 0 257.5 -44.5t158.5 -120.5t53 -169q0 -109 -55.5 -197t-158.5 -138.5t-242 -50.5q-152 0 -257.5 44.5zM767 142q70 34 108.5 92t38.5 128q0 63 -36 115.5t-108 83.5t-175 31
q-93 0 -163 -34t-108.5 -92t-38.5 -128q0 -63 36 -115.5t108 -83.5t175 -31q93 0 163 34zM492 818.5q-50 38.5 -50 106.5h110q0 -63 91 -63q45 0 64 15.5t23 47.5h110q-6 -67 -55 -106t-142 -39q-101 0 -151 38.5z" />
    <glyph glyph-name="obreve" unicode="&#x14f;" horiz-adv-x="804" 
d="M262.5 25q-79.5 35 -120 95t-40.5 133q0 86 44 156t124.5 110.5t185.5 40.5q112 0 191.5 -35t120 -95t40.5 -133q0 -86 -44 -156t-124.5 -110.5t-185.5 -40.5q-112 0 -191.5 35zM563.5 124.5q47.5 24.5 73.5 68t26 99.5q0 70 -54 114t-153 44q-62 0 -109.5 -24.5
t-73.5 -68t-26 -99.5q0 -70 54 -114t153 -44q62 0 109.5 24.5zM363 668.5q-50 38.5 -50 106.5h110q0 -63 91 -63q45 0 64 15.5t23 47.5h110q-6 -67 -55 -106t-142 -39q-101 0 -151 38.5z" />
    <glyph glyph-name="Ohungarumlaut" unicode="&#x150;" horiz-adv-x="1064" 
d="M348.5 34.5q-105.5 44.5 -158.5 120.5t-53 169q0 109 55.5 197t158.5 138.5t242 50.5q152 0 257.5 -44.5t158.5 -120.5t53 -169q0 -109 -55.5 -197t-158.5 -138.5t-242 -50.5q-152 0 -257.5 44.5zM767 142q70 34 108.5 92t38.5 128q0 63 -36 115.5t-108 83.5t-175 31
q-93 0 -163 -34t-108.5 -92t-38.5 -128q0 -63 36 -115.5t108 -83.5t175 -31q93 0 163 34zM377 768h-12l1 55l237 115h43l-8 -93zM647 768h-12l1 55l237 115h43l-8 -93z" />
    <glyph glyph-name="ohungarumlaut" unicode="&#x151;" horiz-adv-x="804" 
d="M262.5 25q-79.5 35 -120 95t-40.5 133q0 86 44 156t124.5 110.5t185.5 40.5q112 0 191.5 -35t120 -95t40.5 -133q0 -86 -44 -156t-124.5 -110.5t-185.5 -40.5q-112 0 -191.5 35zM563.5 124.5q47.5 24.5 73.5 68t26 99.5q0 70 -54 114t-153 44q-62 0 -109.5 -24.5
t-73.5 -68t-26 -99.5q0 -70 54 -114t153 -44q62 0 109.5 24.5zM248 618h-12l1 55l237 115h43l-8 -93zM518 618h-12l1 55l237 115h43l-8 -93z" />
    <glyph glyph-name="OE" unicode="&#x152;" horiz-adv-x="1279" 
d="M1316 580h-431l-34 -177h391l-20 -100h-391l-35 -183h451l-23 -120h-509q-75 -10 -132 -10q-140 0 -241 42t-153.5 117t-52.5 172q0 110 57 198.5t166 139.5t260 51q83 0 158 -10h563zM746 579q-15 5 -51 9t-83 4q-103 0 -177 -34.5t-112.5 -93.5t-38.5 -132
q0 -59 31.5 -110t98.5 -82.5t168 -31.5q55 0 73 4z" />
    <glyph glyph-name="oe" unicode="&#x153;" horiz-adv-x="1242" 
d="M251.5 25q-73.5 35 -112 95t-38.5 132q0 86 44 156.5t122.5 111t177.5 40.5q70 0 127 -17.5t95 -44.5t55 -54h6q15 27 49 54t85 44.5t112 17.5q84 0 147.5 -32t97.5 -88.5t34 -126.5q0 -35 -7 -67h-461q7 -64 61.5 -103t146.5 -39q54 0 104 11t80 27l-23 -120
q-28 -13 -76 -22.5t-110 -9.5q-67 0 -121.5 18t-90.5 45.5t-52 55.5h-6q-33 -46 -105.5 -82.5t-166.5 -36.5q-101 0 -174.5 35zM1113 326q-2 54 -42 92.5t-110 38.5q-59 0 -107.5 -37t-59.5 -94h319zM542 124.5q46 24.5 72 69t26 101.5q0 69 -51 112t-142 43
q-59 0 -105 -24.5t-72 -69t-26 -101.5q0 -69 51 -112t142 -43q59 0 105 24.5z" />
    <glyph glyph-name="Racute" unicode="&#x154;" horiz-adv-x="857" 
d="M812 347.5q-69 -48.5 -188 -52.5l-1 -6q160 -12 160 -138q0 -19 -4 -38l-22 -113h-140l26 134q3 15 3 26q0 40 -29 63t-87 23h-257l-48 -246h-140l136 700h396q87 0 146.5 -28t88.5 -73.5t29 -97.5q0 -105 -69 -153.5zM581 346q61 0 104.5 33.5t43.5 94.5q0 45 -34 75.5
t-98 30.5h-260l-45 -234h289zM411 768h-13l1 57l280 113h40l-13 -118z" />
    <glyph glyph-name="racute" unicode="&#x155;" horiz-adv-x="463" 
d="M65 0l106 550h140l-16 -82h6q18 35 65 63.5t109 28.5h71l-26 -135h-89q-60 0 -102.5 -25t-57.5 -55l-66 -345h-140zM227 618h-13l1 57l280 113h40l-13 -118z" />
    <glyph glyph-name="uni0156" unicode="&#x156;" horiz-adv-x="857" 
d="M812 347.5q-69 -48.5 -188 -52.5l-1 -6q160 -12 160 -138q0 -19 -4 -38l-22 -113h-140l26 134q3 15 3 26q0 40 -29 63t-87 23h-257l-48 -246h-140l136 700h396q87 0 146.5 -28t88.5 -73.5t29 -97.5q0 -105 -69 -153.5zM581 346q61 0 104.5 33.5t43.5 94.5q0 45 -34 75.5
t-98 30.5h-260l-45 -234h289zM315 -318l14 75h36q31 0 47.5 15t20.5 40h-4h-1q-12 -15 -35 -15q-24 0 -39 16t-15 39q0 33 20.5 53t50.5 20q33 0 53.5 -22t20.5 -63q0 -71 -38.5 -114.5t-100.5 -43.5h-30z" />
    <glyph glyph-name="uni0157" unicode="&#x157;" horiz-adv-x="463" 
d="M65 0l106 550h140l-16 -82h6q18 35 65 63.5t109 28.5h71l-26 -135h-89q-60 0 -102.5 -25t-57.5 -55l-66 -345h-140zM20 -318l14 75h36q31 0 47.5 15t20.5 40h-4h-1q-12 -15 -35 -15q-24 0 -39 16t-15 39q0 33 20.5 53t50.5 20q33 0 53.5 -22t20.5 -63q0 -71 -38.5 -114.5
t-100.5 -43.5h-30z" />
    <glyph glyph-name="Rcaron" unicode="&#x158;" horiz-adv-x="857" 
d="M812 347.5q-69 -48.5 -188 -52.5l-1 -6q160 -12 160 -138q0 -19 -4 -38l-22 -113h-140l26 134q3 15 3 26q0 40 -29 63t-87 23h-257l-48 -246h-140l136 700h396q87 0 146.5 -28t88.5 -73.5t29 -97.5q0 -105 -69 -153.5zM581 346q61 0 104.5 33.5t43.5 94.5q0 45 -34 75.5
t-98 30.5h-260l-45 -234h289zM616 780h-148l-139 142h129l83 -85h10l115 85h143z" />
    <glyph glyph-name="rcaron" unicode="&#x159;" horiz-adv-x="463" 
d="M65 0l106 550h140l-16 -82h6q18 35 65 63.5t109 28.5h71l-26 -135h-89q-60 0 -102.5 -25t-57.5 -55l-66 -345h-140zM445 630h-148l-139 142h129l83 -85h10l115 85h143z" />
    <glyph glyph-name="Sacute" unicode="&#x15a;" horiz-adv-x="775" 
d="M252 20q-94 30 -143 66l26 136q45 -40 132.5 -73.5t191.5 -33.5q74 0 109 24.5t35 56.5q0 29 -23.5 47.5t-58.5 30t-98 26.5q-85 20 -139 40t-92.5 59t-38.5 103q0 55 32.5 102t103 76.5t176.5 29.5q120 0 208.5 -29.5t149.5 -68.5l-27 -139q-50 43 -140.5 77.5
t-200.5 34.5q-81 0 -118 -25t-37 -56q0 -29 23.5 -47.5t57.5 -30t98 -27.5q86 -21 139.5 -41t92 -59t38.5 -103q0 -54 -31.5 -101t-97 -76t-160.5 -29q-114 0 -208 30zM367 768h-13l1 57l280 113h40l-13 -118z" />
    <glyph glyph-name="sacute" unicode="&#x15b;" horiz-adv-x="635" 
d="M199.5 16q-80.5 26 -118.5 58l23 120q39 -34 113.5 -61t162.5 -27q52 0 74 15t22 39q0 30 -34.5 45t-107.5 30q-72 15 -117 30t-77.5 47t-32.5 86q0 43 25 80t77.5 59.5t131.5 22.5q113 0 202.5 -27.5t137.5 -59.5l-23 -118q-48 33 -129.5 61.5t-174.5 28.5
q-55 0 -80.5 -16t-25.5 -40q0 -29 33 -43t107 -30q72 -15 118 -30.5t79 -48t33 -87.5q0 -40 -24.5 -76.5t-78 -60t-135.5 -23.5q-100 0 -180.5 26zM287 618h-13l1 57l280 113h40l-13 -118z" />
    <glyph glyph-name="Scircumflex" unicode="&#x15c;" horiz-adv-x="775" 
d="M252 20q-94 30 -143 66l26 136q45 -40 132.5 -73.5t191.5 -33.5q74 0 109 24.5t35 56.5q0 29 -23.5 47.5t-58.5 30t-98 26.5q-85 20 -139 40t-92.5 59t-38.5 103q0 55 32.5 102t103 76.5t176.5 29.5q120 0 208.5 -29.5t149.5 -68.5l-27 -139q-50 43 -140.5 77.5
t-200.5 34.5q-81 0 -118 -25t-37 -56q0 -29 23.5 -47.5t57.5 -30t98 -27.5q86 -21 139.5 -41t92 -59t38.5 -103q0 -54 -31.5 -101t-97 -76t-160.5 -29q-114 0 -208 30zM414 780h-143l193 142h148l139 -142h-129l-83 85h-10z" />
    <glyph glyph-name="scircumflex" unicode="&#x15d;" horiz-adv-x="635" 
d="M199.5 16q-80.5 26 -118.5 58l23 120q39 -34 113.5 -61t162.5 -27q52 0 74 15t22 39q0 30 -34.5 45t-107.5 30q-72 15 -117 30t-77.5 47t-32.5 86q0 43 25 80t77.5 59.5t131.5 22.5q113 0 202.5 -27.5t137.5 -59.5l-23 -118q-48 33 -129.5 61.5t-174.5 28.5
q-55 0 -80.5 -16t-25.5 -40q0 -29 33 -43t107 -30q72 -15 118 -30.5t79 -48t33 -87.5q0 -40 -24.5 -76.5t-78 -60t-135.5 -23.5q-100 0 -180.5 26zM316 630h-143l193 142h148l139 -142h-129l-83 85h-10z" />
    <glyph glyph-name="Scedilla" unicode="&#x15e;" horiz-adv-x="775" 
d="M337 560q-37 -25 -37 -56q0 -29 23.5 -47.5t57.5 -30t98 -27.5q86 -21 139.5 -41t92 -59t38.5 -103q0 -54 -31.5 -101t-97 -76t-160.5 -29h-3l-28 -46h1q49 0 76 -25t27 -64q0 -48 -36.5 -78t-104.5 -30q-61 0 -116 17l15 75q43 -14 84 -14q29 0 43.5 8t14.5 22
q0 24 -42 24h-65l-16 21l53 96q-83 12 -149.5 37.5t-104.5 52.5l26 136q45 -40 132.5 -73.5t191.5 -33.5q74 0 109 24.5t35 56.5q0 29 -23.5 47.5t-58.5 30t-98 26.5q-85 20 -139 40t-92.5 59t-38.5 103q0 55 32.5 102t103 76.5t176.5 29.5q120 0 208.5 -29.5t149.5 -68.5
l-27 -139q-50 43 -140.5 77.5t-200.5 34.5q-81 0 -118 -25z" />
    <glyph glyph-name="scedilla" unicode="&#x15f;" horiz-adv-x="635" 
d="M273.5 429q-25.5 -16 -25.5 -40q0 -29 33 -43t107 -30q72 -15 118 -30.5t79 -48t33 -87.5q0 -40 -24.5 -76.5t-77.5 -60t-134 -23.5l-28 -46h1q49 0 76 -25t27 -64q0 -48 -36.5 -78t-104.5 -30q-61 0 -116 17l15 75q43 -14 84 -14q28 0 43 8t15 22q0 24 -42 24h-65
l-16 21l53 96q-70 10 -124.5 32.5t-82.5 45.5l23 120q39 -34 113.5 -61t162.5 -27q52 0 74 15t22 39q0 30 -34.5 45t-107.5 30q-72 15 -117 30t-77.5 47t-32.5 86q0 43 25 80t77.5 59.5t131.5 22.5q113 0 202.5 -27.5t137.5 -59.5l-23 -118q-48 33 -129.5 61.5t-174.5 28.5
q-55 0 -80.5 -16z" />
    <glyph glyph-name="Scaron" unicode="&#x160;" horiz-adv-x="775" 
d="M252 20q-94 30 -143 66l26 136q45 -40 132.5 -73.5t191.5 -33.5q74 0 109 24.5t35 56.5q0 29 -23.5 47.5t-58.5 30t-98 26.5q-85 20 -139 40t-92.5 59t-38.5 103q0 55 32.5 102t103 76.5t176.5 29.5q120 0 208.5 -29.5t149.5 -68.5l-27 -139q-50 43 -140.5 77.5
t-200.5 34.5q-81 0 -118 -25t-37 -56q0 -29 23.5 -47.5t57.5 -30t98 -27.5q86 -21 139.5 -41t92 -59t38.5 -103q0 -54 -31.5 -101t-97 -76t-160.5 -29q-114 0 -208 30zM585 780h-148l-139 142h129l83 -85h10l115 85h143z" />
    <glyph glyph-name="scaron" unicode="&#x161;" horiz-adv-x="635" 
d="M199.5 16q-80.5 26 -118.5 58l23 120q39 -34 113.5 -61t162.5 -27q52 0 74 15t22 39q0 30 -34.5 45t-107.5 30q-72 15 -117 30t-77.5 47t-32.5 86q0 43 25 80t77.5 59.5t131.5 22.5q113 0 202.5 -27.5t137.5 -59.5l-23 -118q-48 33 -129.5 61.5t-174.5 28.5
q-55 0 -80.5 -16t-25.5 -40q0 -29 33 -43t107 -30q72 -15 118 -30.5t79 -48t33 -87.5q0 -40 -24.5 -76.5t-78 -60t-135.5 -23.5q-100 0 -180.5 26zM487 630h-148l-139 142h129l83 -85h10l115 85h143z" />
    <glyph glyph-name="uni0162" unicode="&#x162;" horiz-adv-x="740" 
d="M425 0h-17l-34 -56h1q49 0 76 -25t27 -64q0 -48 -36.5 -78t-104.5 -30q-61 0 -116 17l15 75q43 -14 84 -14q29 0 43.5 8t14.5 22q0 24 -42 24h-65l-16 21l55 100h-25l112 575h-281l25 125h700l-25 -125h-279z" />
    <glyph glyph-name="uni0163" unicode="&#x163;" horiz-adv-x="448" 
d="M334 470l-50 -258q-4 -22 -4 -38q0 -32 21 -50.5t60 -18.5q36 0 69 12l-22 -112q-34 -12 -76 -15l-28 -46h1q49 0 76 -25t27 -64q0 -48 -36.5 -78t-104.5 -30q-61 0 -116 17l15 75q43 -14 84 -14q28 0 43 8t15 22q0 24 -42 24h-65l-16 21l56 101q-50 16 -76.5 56.5
t-26.5 98.5q0 24 7 61l49 253h-103l15 80h60q22 0 35 13t18 40l16 80h140l-26 -133h165l-15 -80h-165z" />
    <glyph glyph-name="Tcaron" unicode="&#x164;" horiz-adv-x="740" 
d="M141 700h700l-25 -125h-279l-112 -575h-140l112 575h-281zM572 780h-148l-139 142h129l83 -85h10l115 85h143z" />
    <glyph glyph-name="tcaron" unicode="&#x165;" horiz-adv-x="453" 
d="M368 413l17 90h31q33 0 55.5 19.5t27.5 51.5h-3h-2q-12 -15 -37 -15t-39.5 16.5t-14.5 43.5q0 29 19 51.5t50 22.5q35 0 55 -23t20 -67q0 -50 -17.5 -93.5t-52 -70t-82.5 -26.5h-27zM184 34.5q-46 44.5 -46 121.5q0 24 7 61l49 253h-103l15 80h60q22 0 35 13t18 40l16 80
h140l-91 -471q-4 -22 -4 -38q0 -32 21 -50.5t60 -18.5q36 0 69 12l-22 -112q-23 -8 -43.5 -11.5t-49.5 -3.5q-85 0 -131 44.5z" />
    <glyph glyph-name="Tbar" unicode="&#x166;" horiz-adv-x="740" 
d="M841 700l-25 -125h-279l-26 -130h160l-19 -100h-160l-67 -345h-140l67 345h-160l19 100h160l26 130h-281l25 125h700z" />
    <glyph glyph-name="tbar" unicode="&#x167;" horiz-adv-x="478" 
d="M519 470h-165l-18 -95h164l-15 -80h-165l-16 -83q-4 -22 -4 -38q0 -32 21 -50.5t60 -18.5q36 0 69 12l-22 -112q-23 -8 -43.5 -11.5t-49.5 -3.5q-85 0 -131 44.5t-46 121.5q0 24 7 61l15 78h-103l15 80h104l18 95h-103l15 80h60q22 0 35 13t18 40l16 80h140l-26 -133h165
z" />
    <glyph glyph-name="Utilde" unicode="&#x168;" horiz-adv-x="876" 
d="M293.5 25.5q-80.5 35.5 -118.5 96.5t-38 140q0 34 8 77l71 361h140l-73 -370q-6 -28 -6 -53q0 -76 56 -119t168 -43q176 0 210 173l81 412h140l-83 -430q-26 -133 -115.5 -206.5t-235.5 -73.5q-124 0 -204.5 35.5zM627.5 789q-24.5 11 -53.5 31q-22 14 -32.5 19.5
t-24.5 5.5q-26 0 -30 -27l-6 -35h-110l11 58q8 41 34.5 64t67.5 23q38 0 62.5 -11t53.5 -31q22 -14 32.5 -19.5t24.5 -5.5q25 0 30 27l6 35h110l-11 -58q-8 -41 -34.5 -64t-67.5 -23q-38 0 -62.5 11z" />
    <glyph glyph-name="utilde" unicode="&#x169;" horiz-adv-x="722" 
d="M159 42q-59 52 -59 137q0 31 5 55l61 316h140l-60 -314q-3 -16 -3 -31q0 -50 35.5 -78.5t101.5 -28.5q56 0 103 28.5t70 63.5l70 360h140l-106 -550h-140l16 82h-6q-25 -35 -78.5 -63.5t-119.5 -28.5q-111 0 -170 52zM523.5 639q-24.5 11 -53.5 31q-22 14 -32.5 19.5
t-24.5 5.5q-26 0 -30 -27l-6 -35h-110l11 58q8 41 34.5 64t67.5 23q38 0 62.5 -11t53.5 -31q22 -14 32.5 -19.5t24.5 -5.5q25 0 30 27l6 35h110l-11 -58q-8 -41 -34.5 -64t-67.5 -23q-38 0 -62.5 11z" />
    <glyph glyph-name="Umacron" unicode="&#x16a;" horiz-adv-x="876" 
d="M293.5 25.5q-80.5 35.5 -118.5 96.5t-38 140q0 34 8 77l71 361h140l-73 -370q-6 -28 -6 -53q0 -76 56 -119t168 -43q176 0 210 173l81 412h140l-83 -430q-26 -133 -115.5 -206.5t-235.5 -73.5q-124 0 -204.5 35.5zM774 800h-394l20 100h394z" />
    <glyph glyph-name="umacron" unicode="&#x16b;" horiz-adv-x="722" 
d="M159 42q-59 52 -59 137q0 31 5 55l61 316h140l-60 -314q-3 -16 -3 -31q0 -50 35.5 -78.5t101.5 -28.5q56 0 103 28.5t70 63.5l70 360h140l-106 -550h-140l16 82h-6q-25 -35 -78.5 -63.5t-119.5 -28.5q-111 0 -170 52zM670 650h-394l20 100h394z" />
    <glyph glyph-name="Ubreve" unicode="&#x16c;" horiz-adv-x="876" 
d="M293.5 25.5q-80.5 35.5 -118.5 96.5t-38 140q0 34 8 77l71 361h140l-73 -370q-6 -28 -6 -53q0 -76 56 -119t168 -43q176 0 210 173l81 412h140l-83 -430q-26 -133 -115.5 -206.5t-235.5 -73.5q-124 0 -204.5 35.5zM438 818.5q-50 38.5 -50 106.5h110q0 -63 91 -63
q45 0 64 15.5t23 47.5h110q-6 -67 -55 -106t-142 -39q-101 0 -151 38.5z" />
    <glyph glyph-name="ubreve" unicode="&#x16d;" horiz-adv-x="722" 
d="M159 42q-59 52 -59 137q0 31 5 55l61 316h140l-60 -314q-3 -16 -3 -31q0 -50 35.5 -78.5t101.5 -28.5q56 0 103 28.5t70 63.5l70 360h140l-106 -550h-140l16 82h-6q-25 -35 -78.5 -63.5t-119.5 -28.5q-111 0 -170 52zM334 668.5q-50 38.5 -50 106.5h110q0 -63 91 -63
q45 0 64 15.5t23 47.5h110q-6 -67 -55 -106t-142 -39q-101 0 -151 38.5z" />
    <glyph glyph-name="Uring" unicode="&#x16e;" horiz-adv-x="876" 
d="M293.5 25.5q-80.5 35.5 -118.5 96.5t-38 140q0 34 8 77l71 361h140l-73 -370q-6 -28 -6 -53q0 -76 56 -119t168 -43q176 0 210 173l81 412h140l-83 -430q-26 -133 -115.5 -206.5t-235.5 -73.5q-124 0 -204.5 35.5zM479.5 777.5q-35.5 27.5 -35.5 69.5q0 50 36 81.5
t99 31.5q67 0 102.5 -27.5t35.5 -69.5q0 -50 -36 -81.5t-99 -31.5q-67 0 -102.5 27.5zM623.5 827.5q14.5 11.5 14.5 28.5q0 16 -15.5 27t-45.5 11q-25 0 -39.5 -11.5t-14.5 -28.5q0 -16 15.5 -27t45.5 -11q25 0 39.5 11.5z" />
    <glyph glyph-name="uring" unicode="&#x16f;" horiz-adv-x="722" 
d="M159 42q-59 52 -59 137q0 31 5 55l61 316h140l-60 -314q-3 -16 -3 -31q0 -50 35.5 -78.5t101.5 -28.5q56 0 103 28.5t70 63.5l70 360h140l-106 -550h-140l16 82h-6q-25 -35 -78.5 -63.5t-119.5 -28.5q-111 0 -170 52zM375.5 627.5q-35.5 27.5 -35.5 69.5q0 50 36 81.5
t99 31.5q67 0 102.5 -27.5t35.5 -69.5q0 -50 -36 -81.5t-99 -31.5q-67 0 -102.5 27.5zM519.5 677.5q14.5 11.5 14.5 28.5q0 16 -15.5 27t-45.5 11q-25 0 -39.5 -11.5t-14.5 -28.5q0 -16 15.5 -27t45.5 -11q25 0 39.5 11.5z" />
    <glyph glyph-name="Uhungarumlaut" unicode="&#x170;" horiz-adv-x="876" 
d="M293.5 25.5q-80.5 35.5 -118.5 96.5t-38 140q0 34 8 77l71 361h140l-73 -370q-6 -28 -6 -53q0 -76 56 -119t168 -43q176 0 210 173l81 412h140l-83 -430q-26 -133 -115.5 -206.5t-235.5 -73.5q-124 0 -204.5 35.5zM323 768h-12l1 55l237 115h43l-8 -93zM593 768h-12l1 55
l237 115h43l-8 -93z" />
    <glyph glyph-name="uhungarumlaut" unicode="&#x171;" horiz-adv-x="722" 
d="M159 42q-59 52 -59 137q0 31 5 55l61 316h140l-60 -314q-3 -16 -3 -31q0 -50 35.5 -78.5t101.5 -28.5q56 0 103 28.5t70 63.5l70 360h140l-106 -550h-140l16 82h-6q-25 -35 -78.5 -63.5t-119.5 -28.5q-111 0 -170 52zM219 618h-12l1 55l237 115h43l-8 -93zM489 618h-12
l1 55l237 115h43l-8 -93z" />
    <glyph glyph-name="Uogonek" unicode="&#x172;" horiz-adv-x="876" 
d="M792 700h140l-83 -430q-40 -209 -244 -269q-55 -16 -95 -46t-40 -61q0 -13 12 -21t37 -8q35 0 68 8l-17 -87q-44 -9 -92 -9q-61 0 -93.5 24t-32.5 60q0 48 36.5 76t84.5 47l1 7q-170 4 -253.5 79t-83.5 192q0 34 8 77l71 361h140l-73 -370q-6 -28 -6 -53q0 -76 56 -119
t168 -43q176 0 210 173z" />
    <glyph glyph-name="uogonek" unicode="&#x173;" horiz-adv-x="722" 
d="M657 0q-54 -18 -97 -47t-43 -59q0 -13 12 -21t37 -8q35 0 68 8l-17 -87q-44 -9 -92 -9q-61 0 -93.5 24t-32.5 60q0 81 139 134l1 5h-22l16 82h-6q-25 -35 -78.5 -63.5t-119.5 -28.5q-111 0 -170 52t-59 137q0 31 5 55l61 316h140l-60 -314q-3 -16 -3 -31
q0 -50 35.5 -78.5t101.5 -28.5q56 0 103 28.5t70 63.5l70 360h140z" />
    <glyph glyph-name="Wcircumflex" unicode="&#x174;" horiz-adv-x="1273" 
d="M431 0h-192l-113 700h138l92 -578h6l312 578h149l86 -578h6l318 578h156l-385 -700h-198l-80 539h-7zM654 780h-143l193 142h148l139 -142h-129l-83 85h-10z" />
    <glyph glyph-name="wcircumflex" unicode="&#x175;" horiz-adv-x="1025" 
d="M360 0h-160l-94 550h129l69 -418h5l233 418h126l73 -418h5l230 418h145l-301 -550h-172l-69 388h-5zM504 630h-143l193 142h148l139 -142h-129l-83 85h-10z" />
    <glyph glyph-name="Ycircumflex" unicode="&#x176;" horiz-adv-x="820" 
d="M465 0h-140l30 155l-254 545h146l190 -415h6l352 415h166l-466 -545zM419 780h-143l193 142h148l139 -142h-129l-83 85h-10z" />
    <glyph glyph-name="ycircumflex" unicode="&#x177;" horiz-adv-x="653" 
d="M246 -190h-155l172 253l-177 487h143l122 -350h5l238 350h155zM325 630h-143l193 142h148l139 -142h-129l-83 85h-10z" />
    <glyph glyph-name="Ydieresis" unicode="&#x178;" horiz-adv-x="820" 
d="M465 0h-140l30 155l-254 545h146l190 -415h6l352 415h166l-466 -545zM351.5 795q-20.5 20 -20.5 49q0 33 25.5 57t61.5 24q31 0 51.5 -20t20.5 -49q0 -33 -25.5 -57t-61.5 -24q-31 0 -51.5 20zM588.5 795q-20.5 20 -20.5 49q0 33 25.5 57t61.5 24q31 0 51.5 -20t20.5 -49
q0 -33 -25.5 -57t-61.5 -24q-31 0 -51.5 20z" />
    <glyph glyph-name="Zacute" unicode="&#x179;" horiz-adv-x="780" 
d="M735 0h-685l25 132l546 427l1 6h-456l27 135h658l-26 -131l-546 -427l-1 -7h483zM393 768h-13l1 57l280 113h40l-13 -118z" />
    <glyph glyph-name="zacute" unicode="&#x17a;" horiz-adv-x="638" 
d="M603 0h-568l22 116l444 308l1 6h-379l23 120h553l-22 -116l-444 -308l-1 -6h394zM305 618h-13l1 57l280 113h40l-13 -118z" />
    <glyph glyph-name="Zdotaccent" unicode="&#x17b;" horiz-adv-x="780" 
d="M735 0h-685l25 132l546 427l1 6h-456l27 135h658l-26 -131l-546 -427l-1 -7h483zM468.5 793.5q-22.5 21.5 -22.5 52.5q0 36 27.5 61t68.5 25q36 0 58.5 -21.5t22.5 -52.5q0 -36 -27.5 -61t-68.5 -25q-36 0 -58.5 21.5z" />
    <glyph glyph-name="zdotaccent" unicode="&#x17c;" horiz-adv-x="638" 
d="M603 0h-568l22 116l444 308l1 6h-379l23 120h553l-22 -116l-444 -308l-1 -6h394zM376.5 643.5q-22.5 21.5 -22.5 52.5q0 36 27.5 61t68.5 25q36 0 58.5 -21.5t22.5 -52.5q0 -36 -27.5 -61t-68.5 -25q-36 0 -58.5 21.5z" />
    <glyph glyph-name="Zcaron" unicode="&#x17d;" horiz-adv-x="780" 
d="M735 0h-685l25 132l546 427l1 6h-456l27 135h658l-26 -131l-546 -427l-1 -7h483zM594 780h-148l-139 142h129l83 -85h10l115 85h143z" />
    <glyph glyph-name="zcaron" unicode="&#x17e;" horiz-adv-x="638" 
d="M603 0h-568l22 116l444 308l1 6h-379l23 120h553l-22 -116l-444 -308l-1 -6h394zM502 630h-148l-139 142h129l83 -85h10l115 85h143z" />
    <glyph glyph-name="uni018F" unicode="&#x18f;" horiz-adv-x="1025" 
d="M807.5 666.5q107.5 -43.5 161.5 -119t54 -172.5q0 -108 -55 -196t-156 -138.5t-232 -50.5q-140 0 -240 44.5t-151 120.5t-51 171q0 39 6 67h730q-11 91 -99 145t-251 54q-81 0 -158.5 -18t-124.5 -40l24 126q44 19 120 34.5t159 15.5q156 0 263.5 -43.5zM763 158.5
q76 50.5 101 134.5h-581q8 -52 43.5 -93.5t99.5 -66.5t153 -25q108 0 184 50.5z" />
    <glyph glyph-name="florin" unicode="&#x192;" horiz-adv-x="557" 
d="M-72 -190l38 120h78q45 0 64 14t32 56l135 440h-105l25 80h105l7 25q18 61 44.5 99t70 57t111.5 19h139l-36 -115h-96q-31 0 -47.5 -6.5t-27 -22t-19.5 -46.5l-3 -10h146l-25 -80h-146l-139 -450q-21 -68 -48 -106t-72.5 -56t-121.5 -18h-109z" />
    <glyph glyph-name="uni01F4" unicode="&#x1f4;" horiz-adv-x="947" 
d="M342 34.5q-101 44.5 -153 120.5t-52 169q0 110 56.5 197.5t164 138t255.5 50.5q115 0 216.5 -28.5t166.5 -65.5l-25 -126q-60 39 -153 70.5t-203 31.5q-102 0 -176.5 -33.5t-114 -91.5t-39.5 -129q0 -63 35 -115.5t102.5 -83.5t161.5 -31q65 0 122 12t89 26l20 104h-295
l21 105h405l-59 -298q-46 -26 -128.5 -46.5t-172.5 -20.5q-143 0 -244 44.5zM474 768h-13l1 57l280 113h40l-13 -118z" />
    <glyph glyph-name="uni01F5" unicode="&#x1f5;" horiz-adv-x="777" 
d="M212.5 -176q-79.5 24 -126.5 52l24 123q41 -31 112.5 -57.5t152.5 -26.5q89 0 140.5 41t68.5 114l7 31h-6q-25 -29 -82 -52.5t-130 -23.5q-81 0 -142.5 32.5t-94.5 88t-33 123.5q0 83 42 149t116.5 104t168.5 38q75 0 136 -28.5t90 -63.5h6l16 82h140l-95 -493
q-23 -121 -109 -189t-232 -68q-90 0 -169.5 24zM537 155q50 20 73 45l32 164q-21 33 -74.5 59.5t-125.5 26.5q-90 0 -142 -47.5t-52 -126.5q0 -60 45 -100.5t132 -40.5q62 0 112 20zM342 618h-13l1 57l280 113h40l-13 -118z" />
    <glyph glyph-name="Aringacute" unicode="&#x1fa;" horiz-adv-x="878" 
d="M766 0l-51 168h-407l-116 -168h-162l479 688q-29 25 -29 64q0 33 17 59.5t49 40.5l188 103h38l-7 -90l-69 -16q28 -12 42.5 -33.5t14.5 -47.5q0 -30 -13.5 -54t-38.5 -39l207 -675h-142zM573.5 787.5q-14.5 -11.5 -14.5 -28.5q0 -16 15.5 -27t45.5 -11q25 0 39.5 11.5
t14.5 28.5q0 16 -15.5 27t-45.5 11q-25 0 -39.5 -11.5zM587 572l-210 -304h308l-92 304h-6z" />
    <glyph glyph-name="aringacute" unicode="&#x1fb;" horiz-adv-x="718" 
d="M371.5 627.5q-35.5 27.5 -35.5 69.5q0 33 17 59.5t49 40.5l188 103h38l-7 -90l-69 -16q28 -12 42.5 -33.5t14.5 -47.5q0 -50 -36 -81.5t-99 -31.5q-67 0 -102.5 27.5zM515.5 677.5q14.5 11.5 14.5 28.5q0 16 -15.5 27t-45.5 11q-25 0 -39.5 -11.5t-14.5 -28.5
q0 -16 15.5 -27t45.5 -11q25 0 39.5 11.5zM169.5 11q-50.5 21 -74 56t-23.5 76q0 81 63 132t184 51h163q63 0 85.5 13t22.5 36q0 27 -44.5 48.5t-145.5 21.5q-72 0 -141 -13t-105 -30l24 122q32 14 97.5 25t141.5 11q107 0 176.5 -25.5t101.5 -67.5t32 -94q0 -22 -4 -39
l-65 -334h-140l15 80h-3q-33 -34 -97 -62t-136 -28q-77 0 -127.5 21zM475.5 120q49.5 20 73.5 45l20 104q-8 -7 -37.5 -12.5t-74.5 -5.5h-110q-63 0 -93.5 -22t-30.5 -55q0 -31 32.5 -52.5t110.5 -21.5q60 0 109.5 20z" />
    <glyph glyph-name="AEacute" unicode="&#x1fc;" horiz-adv-x="1188" 
d="M1249 700l-24 -120h-425l-34 -177h385l-20 -100h-385l-35 -183h445l-23 -120h-585l35 180h-304l-120 -180h-159l468 700h781zM346 280h256l58 300h-114zM708 768h-13l1 57l280 113h40l-13 -118z" />
    <glyph glyph-name="aeacute" unicode="&#x1fd;" horiz-adv-x="1144" 
d="M1147 241h-456q6 -64 57 -100t147 -36q54 0 104.5 11t79.5 27l-24 -123q-26 -13 -76 -21.5t-106 -8.5q-91 0 -159.5 29t-109.5 81h-9q-41 -42 -120 -76t-173 -34q-72 0 -123.5 22t-78.5 58.5t-27 79.5q0 77 58 124t169 47h261l4 20q2 8 2 23q0 38 -40 59.5t-142 21.5
q-112 0 -221 -32l23 121q91 26 209 26q120 0 181 -28t79 -62h8q24 35 79 62.5t128 27.5q83 0 147.5 -31t100.5 -88t36 -131q0 -38 -8 -69zM1015 321q0 58 -37 97t-108 39q-61 0 -108 -37t-64 -99h317zM475.5 123q54.5 23 88.5 51q-10 31 -12 67h-228q-50 0 -76.5 -20.5
t-26.5 -51.5q0 -28 31.5 -48.5t93.5 -20.5q75 0 129.5 23zM567 618h-13l1 57l280 113h40l-13 -118z" />
    <glyph glyph-name="Oslashacute" unicode="&#x1fe;" horiz-adv-x="1064" 
d="M969 591q46 -43 69.5 -98t23.5 -117q0 -109 -55.5 -197t-158.5 -138.5t-242 -50.5q-187 0 -306 68l-73 -58h-134l137 109q-46 43 -69.5 98t-23.5 117q0 109 55.5 197t158.5 138.5t242 50.5q187 0 306 -68l73 58h134zM341 198l446 355q-80 39 -192 39q-93 0 -163 -34
t-108.5 -92t-38.5 -128q0 -81 56 -140zM767 142q70 34 108.5 92t38.5 128q0 81 -56 140l-446 -355q80 -39 192 -39q93 0 163 34zM484 768h-13l1 57l280 113h40l-13 -118z" />
    <glyph glyph-name="oslashacute" unicode="&#x1ff;" horiz-adv-x="804" 
d="M735 468q36 -34 54.5 -78t18.5 -93q0 -86 -44 -156t-124.5 -110.5t-185.5 -40.5q-135 0 -227 53l-51 -43h-99l98 82q-36 34 -54.5 78t-18.5 93q0 86 44 156t124.5 110.5t185.5 40.5q135 0 227 -53l51 43h99zM277 168l305 255q-51 27 -126 27q-62 0 -109.5 -24.5
t-73.5 -68t-26 -99.5q0 -52 30 -90zM563.5 124.5q47.5 24.5 73.5 68t26 99.5q0 53 -30 90l-305 -255q51 -27 126 -27q62 0 109.5 24.5zM355 618h-13l1 57l280 113h40l-13 -118z" />
    <glyph glyph-name="uni0218" unicode="&#x218;" horiz-adv-x="775" 
d="M252 20q-94 30 -143 66l26 136q45 -40 132.5 -73.5t191.5 -33.5q74 0 109 24.5t35 56.5q0 29 -23.5 47.5t-58.5 30t-98 26.5q-85 20 -139 40t-92.5 59t-38.5 103q0 55 32.5 102t103 76.5t176.5 29.5q120 0 208.5 -29.5t149.5 -68.5l-27 -139q-50 43 -140.5 77.5
t-200.5 34.5q-81 0 -118 -25t-37 -56q0 -29 23.5 -47.5t57.5 -30t98 -27.5q86 -21 139.5 -41t92 -59t38.5 -103q0 -54 -31.5 -101t-97 -76t-160.5 -29q-114 0 -208 30zM312 -318l14 75h36q31 0 47.5 15t20.5 40h-4h-1q-12 -15 -35 -15q-24 0 -39 16t-15 39q0 33 20.5 53
t50.5 20q33 0 53.5 -22t20.5 -63q0 -71 -38.5 -114.5t-100.5 -43.5h-30z" />
    <glyph glyph-name="uni0219" unicode="&#x219;" horiz-adv-x="635" 
d="M199.5 16q-80.5 26 -118.5 58l23 120q39 -34 113.5 -61t162.5 -27q52 0 74 15t22 39q0 30 -34.5 45t-107.5 30q-72 15 -117 30t-77.5 47t-32.5 86q0 43 25 80t77.5 59.5t131.5 22.5q113 0 202.5 -27.5t137.5 -59.5l-23 -118q-48 33 -129.5 61.5t-174.5 28.5
q-55 0 -80.5 -16t-25.5 -40q0 -29 33 -43t107 -30q72 -15 118 -30.5t79 -48t33 -87.5q0 -40 -24.5 -76.5t-78 -60t-135.5 -23.5q-100 0 -180.5 26zM235 -318l14 75h36q31 0 47.5 15t20.5 40h-4h-1q-12 -15 -35 -15q-24 0 -39 16t-15 39q0 33 20.5 53t50.5 20q33 0 53.5 -22
t20.5 -63q0 -71 -38.5 -114.5t-100.5 -43.5h-30z" />
    <glyph glyph-name="uni021A" unicode="&#x21a;" horiz-adv-x="740" 
d="M141 700h700l-25 -125h-279l-112 -575h-140l112 575h-281zM240 -318l14 75h36q31 0 47.5 15t20.5 40h-4h-1q-12 -15 -35 -15q-24 0 -39 16t-15 39q0 33 20.5 53t50.5 20q33 0 53.5 -22t20.5 -63q0 -71 -38.5 -114.5t-100.5 -43.5h-30z" />
    <glyph glyph-name="uni021B" unicode="&#x21b;" horiz-adv-x="448" 
d="M184 34.5q-46 44.5 -46 121.5q0 24 7 61l49 253h-103l15 80h60q22 0 35 13t18 40l16 80h140l-26 -133h165l-15 -80h-165l-50 -258q-4 -22 -4 -38q0 -32 21 -50.5t60 -18.5q36 0 69 12l-22 -112q-23 -8 -43.5 -11.5t-49.5 -3.5q-85 0 -131 44.5zM155 -318l14 75h36
q31 0 47.5 15t20.5 40h-4h-1q-12 -15 -35 -15q-24 0 -39 16t-15 39q0 33 20.5 53t50.5 20q33 0 53.5 -22t20.5 -63q0 -71 -38.5 -114.5t-100.5 -43.5h-30z" />
    <glyph glyph-name="uni0232" unicode="&#x232;" horiz-adv-x="820" 
d="M465 0h-140l30 155l-254 545h146l190 -415h6l352 415h166l-466 -545zM716 800h-394l20 100h394z" />
    <glyph glyph-name="uni0233" unicode="&#x233;" horiz-adv-x="653" 
d="M246 -190h-155l172 253l-177 487h143l122 -350h5l238 350h155zM622 650h-394l20 100h394z" />
    <glyph glyph-name="uni0237" unicode="&#x237;" horiz-adv-x="270" 
d="M-131 -186l21 109q40 -11 70 -11q46 0 71 23.5t34 70.5l106 544h140l-109 -557q-19 -100 -71 -148t-149 -48q-55 0 -113 17z" />
    <glyph glyph-name="uni0244" unicode="&#x244;" horiz-adv-x="922" 
d="M1012 490l-20 -100h-100l-23 -120q-26 -134 -114.5 -207t-234.5 -73q-183 0 -270.5 75t-87.5 197q0 34 8 77l10 51h-100l20 100h100l41 210h140l-41 -210h431l41 210h140l-41 -210h101zM751 390h-431l-12 -60q-6 -28 -6 -53q0 -77 54.5 -119.5t166.5 -42.5
q90 0 140.5 43.5t67.5 129.5z" />
    <glyph glyph-name="uni0259" unicode="&#x259;" horiz-adv-x="779" 
d="M620 525q82 -35 122.5 -94.5t40.5 -133.5q0 -85 -43.5 -155.5t-122 -111t-180.5 -40.5q-106 0 -182 35t-115 95t-39 133q0 22 5 54h530q-10 63 -72.5 100.5t-171.5 37.5q-63 0 -121.5 -12t-90.5 -27l23 117q34 14 94 25.5t122 11.5q119 0 201 -35zM558.5 129.5
q53.5 36.5 71.5 97.5h-388q8 -59 56 -96.5t137 -37.5q70 0 123.5 36.5z" />
    <glyph glyph-name="uni0289" unicode="&#x289;" horiz-adv-x="767" 
d="M845 430l-15 -80h-81l-67 -350h-140l16 82h-6q-25 -35 -78.5 -63.5t-119.5 -28.5q-111 0 -170 52t-59 137q0 31 5 55l22 116h-79l15 80h80l23 120h140l-23 -120h317l23 120h140l-23 -120h80zM609 350h-316l-22 -114q-3 -16 -3 -31q0 -50 35.5 -78.5t101.5 -28.5
q56 0 103 28.5t70 63.5z" />
    <glyph glyph-name="uni02BC" unicode="&#x2bc;" horiz-adv-x="208" 
d="M122 450l17 90h31q33 0 55.5 19.5t27.5 51.5h-4h-1q-12 -15 -37 -15t-39.5 16.5t-14.5 43.5q0 29 19 51.5t50 22.5q35 0 55 -23t20 -67q0 -50 -17.5 -93.5t-52 -70t-82.5 -26.5h-27z" />
    <glyph glyph-name="circumflex" unicode="&#x2c6;" horiz-adv-x="540" 
d="M287 588h-143l193 142h148l139 -142h-129l-83 85h-10z" />
    <glyph glyph-name="caron" unicode="&#x2c7;" horiz-adv-x="540" 
d="M458 588h-148l-139 142h129l83 -85h10l115 85h143z" />
    <glyph glyph-name="breve" unicode="&#x2d8;" horiz-adv-x="458" 
d="M217 626.5q-50 38.5 -50 106.5h110q0 -63 91 -63q45 0 64 15.5t23 47.5h110q-6 -67 -55 -106t-142 -39q-101 0 -151 38.5z" />
    <glyph glyph-name="dotaccent" unicode="&#x2d9;" horiz-adv-x="236" 
d="M174.5 576.5q-22.5 21.5 -22.5 52.5q0 36 27.5 61t68.5 25q36 0 58.5 -21.5t22.5 -52.5q0 -36 -27.5 -61t-68.5 -25q-36 0 -58.5 21.5z" />
    <glyph glyph-name="ring" unicode="&#x2da;" horiz-adv-x="334" 
d="M193.5 577.5q-35.5 27.5 -35.5 69.5q0 50 36 81.5t99 31.5q67 0 102.5 -27.5t35.5 -69.5q0 -50 -36 -81.5t-99 -31.5q-67 0 -102.5 27.5zM337.5 627.5q14.5 11.5 14.5 28.5q0 16 -15.5 27t-45.5 11q-25 0 -39.5 -11.5t-14.5 -28.5q0 -16 15.5 -27t45.5 -11
q25 0 39.5 11.5z" />
    <glyph glyph-name="ogonek" unicode="&#x2db;" horiz-adv-x="294" 
d="M-16.5 -199q-32.5 24 -32.5 60q0 81 139 134l2 15l117 -10q-54 -18 -97 -47t-43 -59q0 -13 12 -21t37 -8q35 0 68 8l-17 -87q-44 -9 -92 -9q-61 0 -93.5 24z" />
    <glyph glyph-name="tilde" unicode="&#x2dc;" horiz-adv-x="465" 
d="M400.5 594q-24.5 11 -53.5 31q-22 14 -32.5 19.5t-24.5 5.5q-25 0 -30 -27l-6 -35h-110l11 58q8 41 34.5 64t67.5 23q38 0 62.5 -11t53.5 -31q22 -14 32.5 -19.5t24.5 -5.5q26 0 30 27l6 35h110l-11 -58q-8 -41 -34.5 -64t-67.5 -23q-38 0 -62.5 11z" />
    <glyph glyph-name="hungarumlaut" unicode="&#x2dd;" horiz-adv-x="598" 
d="M162 568h-12l1 55l237 115h43l-8 -93zM432 568h-12l1 55l237 115h43l-8 -93z" />
    <glyph glyph-name="gravecomb" unicode="&#x300;" horiz-adv-x="0" 
d="M17 568h-13l-275 52l33 118h40l236 -113z" />
    <glyph glyph-name="acutecomb" unicode="&#x301;" horiz-adv-x="0" 
d="M-258 568h-13l1 57l280 113h40l-13 -118z" />
    <glyph glyph-name="uni0302" unicode="&#x302;" horiz-adv-x="0" 
d="M-306 588h-143l193 142h148l139 -142h-129l-83 85h-10z" />
    <glyph glyph-name="tildecomb" unicode="&#x303;" horiz-adv-x="0" 
d="M-117.5 594q-24.5 11 -53.5 31q-22 14 -32.5 19.5t-24.5 5.5q-26 0 -30 -27l-6 -35h-110l11 58q8 41 34.5 64t67.5 23q38 0 62.5 -11t53.5 -31q22 -14 32.5 -19.5t24.5 -5.5q25 0 30 27l6 35h110l-11 -58q-8 -41 -34.5 -64t-67.5 -23q-38 0 -62.5 11z" />
    <glyph glyph-name="uni0304" unicode="&#x304;" horiz-adv-x="0" 
d="M35 610h-394l20 100h394z" />
    <glyph glyph-name="uni0306" unicode="&#x306;" horiz-adv-x="0" 
d="M-290 626.5q-50 38.5 -50 106.5h110q0 -63 91 -63q45 0 64 15.5t23 47.5h110q-6 -67 -55 -106t-142 -39q-101 0 -151 38.5z" />
    <glyph glyph-name="uni0307" unicode="&#x307;" horiz-adv-x="0" 
d="M-114.5 576.5q-22.5 21.5 -22.5 52.5q0 36 27.5 61t68.5 25q36 0 58.5 -21.5t22.5 -52.5q0 -36 -27.5 -61t-68.5 -25q-36 0 -58.5 21.5z" />
    <glyph glyph-name="uni0308" unicode="&#x308;" horiz-adv-x="0" 
d="M-335.5 580q-20.5 20 -20.5 49q0 33 25.5 57t61.5 24q31 0 51.5 -20t20.5 -49q0 -33 -25.5 -57t-61.5 -24q-31 0 -51.5 20zM-98.5 580q-20.5 20 -20.5 49q0 33 25.5 57t61.5 24q31 0 51.5 -20t20.5 -49q0 -33 -25.5 -57t-61.5 -24q-31 0 -51.5 20z" />
    <glyph glyph-name="uni030A" unicode="&#x30a;" horiz-adv-x="0" 
d="M-194.5 577.5q-35.5 27.5 -35.5 69.5q0 50 36 81.5t99 31.5q67 0 102.5 -27.5t35.5 -69.5q0 -50 -36 -81.5t-99 -31.5q-67 0 -102.5 27.5zM-50.5 627.5q14.5 11.5 14.5 28.5q0 16 -15.5 27t-45.5 11q-25 0 -39.5 -11.5t-14.5 -28.5q0 -16 15.5 -27t45.5 -11
q25 0 39.5 11.5z" />
    <glyph glyph-name="uni030B" unicode="&#x30b;" horiz-adv-x="0" 
d="M-489 568h-12l1 55l237 115h43l-8 -93zM-219 568h-12l1 55l237 115h43l-8 -93z" />
    <glyph glyph-name="uni030C" unicode="&#x30c;" horiz-adv-x="0" 
d="M-135 588h-148l-139 142h129l83 -85h10l115 85h143z" />
    <glyph glyph-name="uni0326" unicode="&#x326;" horiz-adv-x="0" 
d="M-282 -288l14 75h36q31 0 47.5 15t20.5 40h-4h-1q-12 -15 -35 -15q-24 0 -39 16t-15 39q0 33 20.5 53t50.5 20q33 0 53.5 -22t20.5 -63q0 -71 -38.5 -114.5t-100.5 -43.5h-30z" />
    <glyph glyph-name="uni0327" unicode="&#x327;" horiz-adv-x="0" 
d="M-217 -56q49 0 76 -25t27 -64q0 -48 -36.5 -78t-104.5 -30q-61 0 -116 17l15 75q43 -14 84 -14q28 0 43 8t15 22q0 24 -42 24h-65l-16 21l55 100h98l-34 -56h1z" />
    <glyph glyph-name="uni0328" unicode="&#x328;" horiz-adv-x="0" 
d="M-310.5 -199q-32.5 24 -32.5 60q0 81 139 134l2 15l117 -10q-54 -18 -97 -47t-43 -59q0 -13 12 -21t37 -8q35 0 68 8l-17 -87q-44 -9 -92 -9q-61 0 -93.5 24z" />
    <glyph glyph-name="uni0400" unicode="&#x400;" horiz-adv-x="752" 
d="M813 700l-24 -120h-452l-34 -177h412l-20 -100h-412l-35 -183h472l-23 -120h-612l136 700h592zM678 768h-13l-275 52l33 118h40l236 -113z" />
    <glyph glyph-name="uni0401" unicode="&#x401;" horiz-adv-x="752" 
d="M813 700l-24 -120h-452l-34 -177h412l-20 -100h-412l-35 -183h472l-23 -120h-612l136 700h592zM360.5 795q-20.5 20 -20.5 49q0 33 25.5 57t61.5 24q31 0 51.5 -20t20.5 -49q0 -33 -25.5 -57t-61.5 -24q-31 0 -51.5 20zM597.5 795q-20.5 20 -20.5 49q0 33 25.5 57
t61.5 24q31 0 51.5 -20t20.5 -49q0 -33 -25.5 -57t-61.5 -24q-31 0 -51.5 20z" />
    <glyph glyph-name="uni0402" unicode="&#x402;" horiz-adv-x="990" 
d="M861.5 402q62.5 -28 92 -74.5t29.5 -101.5q0 -109 -73 -172.5t-210 -63.5q-65 0 -121 14l23 116q34 -10 90 -10q69 0 106.5 31.5t37.5 81.5q0 45 -39.5 73t-120.5 28q-109 0 -244 -40l-55 -284h-140l112 580h-232l24 120h640l-24 -120h-268l-36 -187q67 19 127 28t124 9
q95 0 157.5 -28z" />
    <glyph glyph-name="uni0403" unicode="&#x403;" horiz-adv-x="725" 
d="M225 0h-140l136 700h615l-25 -125h-475zM405 768h-13l1 57l280 113h40l-13 -118z" />
    <glyph glyph-name="uni0404" unicode="&#x404;" horiz-adv-x="891" 
d="M453 567.5q-63 -24.5 -104 -68t-56 -99.5h354l-19 -100h-340q10 -54 47.5 -97.5t101 -69t147.5 -25.5q72 0 136.5 17t101.5 39l-26 -132q-27 -16 -83.5 -29t-126.5 -13q-143 0 -244 44.5t-153 120.5t-52 169q0 109 55.5 197t159 138.5t241.5 50.5q107 0 200.5 -28.5
t147.5 -64.5l-26 -133q-44 41 -129.5 74.5t-190.5 33.5q-79 0 -142 -24.5z" />
    <glyph glyph-name="uni0405" unicode="&#x405;" horiz-adv-x="775" 
d="M252 20q-94 30 -143 66l26 136q45 -40 132.5 -73.5t191.5 -33.5q74 0 109 24.5t35 56.5q0 29 -23.5 47.5t-58.5 30t-98 26.5q-85 20 -139 40t-92.5 59t-38.5 103q0 55 32.5 102t103 76.5t176.5 29.5q120 0 208.5 -29.5t149.5 -68.5l-27 -139q-50 43 -140.5 77.5
t-200.5 34.5q-81 0 -118 -25t-37 -56q0 -29 23.5 -47.5t57.5 -30t98 -27.5q86 -21 139.5 -41t92 -59t38.5 -103q0 -54 -31.5 -101t-97 -76t-160.5 -29q-114 0 -208 30z" />
    <glyph glyph-name="uni0406" unicode="&#x406;" horiz-adv-x="760" 
d="M856 700l-24 -120h-270l-89 -460h270l-23 -120h-680l23 120h270l89 460h-270l24 120h680z" />
    <glyph glyph-name="uni0407" unicode="&#x407;" horiz-adv-x="760" 
d="M856 700l-24 -120h-270l-89 -460h270l-23 -120h-680l23 120h270l89 460h-270l24 120h680zM348.5 795q-20.5 20 -20.5 49q0 33 25.5 57t61.5 24q31 0 51.5 -20t20.5 -49q0 -33 -25.5 -57t-61.5 -24q-31 0 -51.5 20zM585.5 795q-20.5 20 -20.5 49q0 33 25.5 57t61.5 24
q31 0 51.5 -20t20.5 -49q0 -33 -25.5 -57t-61.5 -24q-31 0 -51.5 20z" />
    <glyph glyph-name="uni0408" unicode="&#x408;" horiz-adv-x="600" 
d="M138 -1.5q-53 8.5 -113 28.5l24 120q57 -18 98.5 -24.5t84.5 -6.5q78 0 128 33t62 94l89 457h140l-95 -484q-21 -104 -101 -165t-206 -61q-58 0 -111 8.5z" />
    <glyph glyph-name="uni0409" unicode="&#x409;" horiz-adv-x="1289" 
d="M1039 435q129 0 194.5 -54.5t65.5 -139.5q0 -111 -71.5 -176t-202.5 -65h-445l111 575h-295l-27 -115q-38 -161 -94.5 -284.5t-102.5 -175.5h-157l2 12q34 34 74 98.5t78 156t62 198.5l54 235h571l-52 -265h235zM1019 120q63 0 97.5 32t34.5 85q0 40 -33.5 66.5
t-98.5 26.5h-235l-41 -210h276z" />
    <glyph glyph-name="uni040A" unicode="&#x40a;" horiz-adv-x="1344" 
d="M1094 430q130 0 195 -52.5t65 -136.5q0 -111 -71.5 -176t-202.5 -65h-445l63 325h-410l-63 -325h-140l136 700h140l-52 -270h410l52 270h140l-53 -270h236zM1074 120q63 0 97.5 32t34.5 85q0 40 -33.5 64t-98.5 24h-236l-40 -205h276z" />
    <glyph glyph-name="uni040B" unicode="&#x40b;" horiz-adv-x="997" 
d="M883.5 370q82.5 -60 82.5 -180q0 -37 -7 -73l-22 -117h-140l23 120q5 24 5 52q0 73 -50.5 103t-146.5 30q-106 0 -198 -28l-53 -277h-140l112 580h-232l24 120h640l-24 -120h-268l-34 -177q49 13 104 20t103 7q139 0 221.5 -60z" />
    <glyph glyph-name="uni040C" unicode="&#x40c;" horiz-adv-x="802" 
d="M225 0h-140l136 700h140l-60 -307h2l465 307h205l-510 -342l-1 -5l321 -353h-177l-314 338h-2zM432 768h-13l1 57l280 113h40l-13 -118z" />
    <glyph glyph-name="uni040D" unicode="&#x40d;" horiz-adv-x="867" 
d="M272 0h-187l136 700h140l-103 -530h5l468 530h187l-136 -700h-140l102 530h-5zM719 768h-13l-275 52l33 118h40l236 -113z" />
    <glyph glyph-name="uni040E" unicode="&#x40e;" horiz-adv-x="775" 
d="M737 700h164l-394 -531q-50 -68 -90.5 -106t-86.5 -55.5t-109 -17.5q-61 0 -118 12l19 98q48 -8 79 -8q45 0 76.5 13t56.5 43l-223 552h148l167 -412h7zM356 809q-55 42 -55 121h112q0 -32 28.5 -51t82.5 -19q86 0 95 70h112q-7 -74 -59.5 -118.5t-148.5 -44.5
q-112 0 -167 42z" />
    <glyph glyph-name="uni040F" unicode="&#x40f;" horiz-adv-x="887" 
d="M488 -183h-161l9 48l45 115l4 20h-300l136 700h140l-112 -575h437l112 575h140l-136 -700h-300l-4 -20l-1 -115z" />
    <glyph glyph-name="uni0410" unicode="&#x410;" horiz-adv-x="878" 
d="M908 0h-142l-51 168h-407l-116 -168h-162l487 700h176zM587 572l-210 -304h308l-92 304h-6z" />
    <glyph glyph-name="uni0411" unicode="&#x411;" horiz-adv-x="797" 
d="M806 580h-469l-30 -155h231q86 0 145 -25.5t88 -69t29 -95.5q0 -67 -33 -120.5t-95.5 -84t-148.5 -30.5h-438l136 700h609zM288 325l-40 -205h269q65 0 100.5 31.5t35.5 80.5q0 39 -35 66t-98 27h-232z" />
    <glyph glyph-name="uni0412" unicode="&#x412;" horiz-adv-x="832" 
d="M808.5 386q-69.5 -38 -192.5 -38l-2 -7q88 -5 134 -45.5t46 -101.5q0 -56 -28 -99.5t-84.5 -69t-137.5 -25.5h-459l136 700h401q83 0 141 -25.5t86.5 -66t28.5 -85.5q0 -99 -69.5 -137zM595 398q63 0 96.5 26t33.5 68q0 36 -32.5 62t-96.5 26h-259l-35 -182h293zM618 274
q-33 24 -97 24h-239l-34 -178h281q62 0 92 25.5t30 70.5q0 34 -33 58z" />
    <glyph glyph-name="uni0413" unicode="&#x413;" horiz-adv-x="725" 
d="M225 0h-140l136 700h615l-25 -125h-475z" />
    <glyph glyph-name="uni0414" unicode="&#x414;" horiz-adv-x="870" 
d="M883 700l-113 -580h98l-59 -303h-140l36 183h-560l-36 -183h-139l58 303h73q23 21 53.5 72t60.5 132t50 183l38 193h580zM255 120h375l89 460h-300l-15 -78q-27 -141 -71 -240t-77 -137z" />
    <glyph glyph-name="uni0415" unicode="&#x415;" horiz-adv-x="752" 
d="M813 700l-24 -120h-452l-34 -177h412l-20 -100h-412l-35 -183h472l-23 -120h-612l136 700h592z" />
    <glyph glyph-name="uni0416" unicode="&#x416;" horiz-adv-x="1221" 
d="M173 0h-195l459 372l1 5l-327 323h180l314 -310h3l61 310h140l-61 -310h3l436 310h204l-481 -343l-1 -5l299 -352h-175l-291 343h-3l-66 -343h-140l66 343h-3z" />
    <glyph glyph-name="uni0417" unicode="&#x417;" horiz-adv-x="775" 
d="M234 18q-95 28 -140 62l25 131q45 -39 132.5 -71t188.5 -32q85 0 122.5 27t37.5 67q0 43 -48 72t-155 29h-134l20 100h206q84 0 123 25.5t39 63.5q0 41 -54.5 70.5t-177.5 29.5q-75 0 -142 -16.5t-110 -36.5l26 130q35 15 102 28t141 13q128 0 210.5 -28.5t119.5 -73.5
t37 -95q0 -46 -25 -83.5t-75 -60.5t-123 -23l-2 -6q81 -15 124 -55t43 -101q0 -50 -32.5 -94t-101 -72t-170.5 -28q-112 0 -207 28z" />
    <glyph glyph-name="uni0418" unicode="&#x418;" horiz-adv-x="867" 
d="M272 0h-187l136 700h140l-103 -530h5l468 530h187l-136 -700h-140l102 530h-5z" />
    <glyph glyph-name="uni0419" unicode="&#x419;" horiz-adv-x="867" 
d="M272 0h-187l136 700h140l-103 -530h5l468 530h187l-136 -700h-140l102 530h-5zM426 809q-55 42 -55 121h112q0 -32 28.5 -51t82.5 -19q86 0 95 70h112q-7 -74 -59.5 -118.5t-148.5 -44.5q-112 0 -167 42z" />
    <glyph glyph-name="uni041A" unicode="&#x41a;" horiz-adv-x="802" 
d="M225 0h-140l136 700h140l-60 -307h2l465 307h205l-510 -342l-1 -5l321 -353h-177l-314 338h-2z" />
    <glyph glyph-name="uni041B" unicode="&#x41b;" horiz-adv-x="833" 
d="M17 12q34 34 74 99.5t78 157t62 196.5l54 235h599l-136 -700h-140l111 575h-323l-27 -115q-38 -161 -94.5 -284.5t-102.5 -175.5h-157z" />
    <glyph glyph-name="uni041C" unicode="&#x41c;" horiz-adv-x="1110" 
d="M990 571l-440 -596l-210 596h-5l-110 -571h-140l136 700h208l160 -472h5l339 472h228l-136 -700h-140l110 571h-5z" />
    <glyph glyph-name="uni041D" unicode="&#x41d;" horiz-adv-x="890" 
d="M746 415l55 285h140l-136 -700h-140l56 290h-440l-56 -290h-140l136 700h140l-55 -285h440z" />
    <glyph glyph-name="uni041E" unicode="&#x41e;" horiz-adv-x="1064" 
d="M348.5 34.5q-105.5 44.5 -158.5 120.5t-53 169q0 109 55.5 197t158.5 138.5t242 50.5q152 0 257.5 -44.5t158.5 -120.5t53 -169q0 -109 -55.5 -197t-158.5 -138.5t-242 -50.5q-152 0 -257.5 44.5zM767 142q70 34 108.5 92t38.5 128q0 63 -36 115.5t-108 83.5t-175 31
q-93 0 -163 -34t-108.5 -92t-38.5 -128q0 -63 36 -115.5t108 -83.5t175 -31q93 0 163 34z" />
    <glyph glyph-name="uni041F" unicode="&#x41f;" horiz-adv-x="887" 
d="M225 0h-140l136 700h717l-136 -700h-140l111 575h-437z" />
    <glyph glyph-name="uni0420" unicode="&#x420;" horiz-adv-x="835" 
d="M615 700q83 0 142 -28.5t89.5 -76t30.5 -105.5q0 -77 -34.5 -136t-99 -91.5t-153.5 -32.5h-321l-44 -230h-140l136 700h394zM584 350q68 0 106 35t38 91q0 44 -34.5 74t-97.5 30h-259l-44 -230h291z" />
    <glyph glyph-name="uni0421" unicode="&#x421;" horiz-adv-x="892" 
d="M342 34.5q-101 44.5 -153 120.5t-52 169q0 109 55.5 197t159 138.5t241.5 50.5q110 0 203.5 -30t145.5 -67l-26 -133q-42 42 -128 77t-193 35q-93 0 -163 -34t-108.5 -92t-38.5 -128q0 -63 35 -115.5t102.5 -83.5t161.5 -31q73 0 138 18.5t99 41.5l-24 -133
q-27 -17 -84 -31t-127 -14q-143 0 -244 44.5z" />
    <glyph glyph-name="uni0422" unicode="&#x422;" horiz-adv-x="740" 
d="M141 700h700l-25 -125h-279l-112 -575h-140l112 575h-281z" />
    <glyph glyph-name="uni0423" unicode="&#x423;" horiz-adv-x="775" 
d="M737 700h164l-394 -531q-50 -68 -90.5 -106t-86.5 -55.5t-109 -17.5q-61 0 -118 12l19 98q48 -8 79 -8q45 0 76.5 13t56.5 43l-223 552h148l167 -412h7z" />
    <glyph glyph-name="uni0424" unicode="&#x424;" horiz-adv-x="1150" 
d="M881 620q86 0 150.5 -32.5t99 -87.5t34.5 -120q0 -84 -40.5 -151.5t-113.5 -105.5t-168 -38h-182l-18 -95h-140l18 95h-115q-86 0 -150.5 32.5t-99 87.5t-34.5 120q0 84 40.5 151.5t113.5 105.5t168 38h182l17 90h140l-17 -90h115zM545 205l57 295h-157q-80 0 -127 -45.5
t-47 -121.5q0 -55 40.5 -91.5t112.5 -36.5h121zM842 205q80 0 127 45.5t47 121.5q0 55 -40.5 91.5t-112.5 36.5h-121l-57 -295h157z" />
    <glyph glyph-name="uni0425" unicode="&#x425;" horiz-adv-x="764" 
d="M175 0h-180l373 360l-224 340h156l156 -246h5l251 246h180l-358 -340l235 -360h-156l-167 262h-5z" />
    <glyph glyph-name="uni0426" unicode="&#x426;" horiz-adv-x="898" 
d="M837 -183h-140l36 183h-648l136 700h140l-112 -575h410l112 575h140l-112 -575h98z" />
    <glyph glyph-name="uni0427" unicode="&#x427;" horiz-adv-x="855" 
d="M766 700h140l-136 -700h-140l50 255q-48 -15 -101 -22.5t-101 -7.5q-146 0 -231.5 60t-85.5 179q0 37 7 73l32 163h139l-32 -166q-6 -28 -6 -52q0 -74 52 -103t149 -29q112 0 202 31z" />
    <glyph glyph-name="uni0428" unicode="&#x428;" horiz-adv-x="1164" 
d="M1079 0h-994l136 700h140l-112 -575h287l112 575h140l-112 -575h287l112 575h140z" />
    <glyph glyph-name="uni0429" unicode="&#x429;" horiz-adv-x="1202" 
d="M1141 -183h-140l36 183h-952l136 700h140l-112 -575h287l112 575h140l-112 -575h287l112 575h140l-112 -575h98z" />
    <glyph glyph-name="uni042A" unicode="&#x42a;" horiz-adv-x="885" 
d="M172 0l111 575h-160l25 125h300l-48 -244h230q87 0 147 -27t90 -72.5t30 -102.5q0 -117 -73 -185.5t-204 -68.5h-448zM613 120q65 0 100 33t35 88q0 41 -34.5 68t-99.5 27h-237l-42 -216h278z" />
    <glyph glyph-name="uni042B" unicode="&#x42b;" horiz-adv-x="1055" 
d="M85 0l136 700h140l-48 -244h221q87 0 147 -27t90 -72.5t30 -102.5q0 -117 -73 -185.5t-204 -68.5h-439zM970 0h-140l136 700h140zM517 120q65 0 100 33t35 88q0 41 -34.5 68t-99.5 27h-228l-42 -216h269z" />
    <glyph glyph-name="uni042C" unicode="&#x42c;" horiz-adv-x="827" 
d="M85 0l136 700h140l-48 -244h259q87 0 147 -27t90 -72.5t30 -102.5q0 -117 -73 -185.5t-204 -68.5h-477zM555 120q65 0 100 33t35 88q0 41 -34.5 68t-99.5 27h-266l-42 -216h307z" />
    <glyph glyph-name="uni042D" unicode="&#x42d;" horiz-adv-x="883" 
d="M675.5 665q102.5 -45 154 -120.5t51.5 -167.5q0 -109 -55.5 -197.5t-156 -139t-230.5 -50.5q-111 0 -199 29.5t-129 66.5l24 132q36 -42 116 -76t181 -34q73 0 133.5 24.5t101 68t56.5 99.5h-352l19 100h339q-9 55 -48 98.5t-107 69t-163 25.5q-77 0 -145 -19.5
t-105 -44.5l26 133q35 18 100.5 33t139.5 15q146 0 248.5 -45z" />
    <glyph glyph-name="uni042E" unicode="&#x42e;" horiz-adv-x="1264" 
d="M1067.5 665.5q96.5 -44.5 146 -119.5t49.5 -167q0 -110 -55 -198.5t-155 -139.5t-229 -51q-131 0 -226 42t-145.5 113.5t-55.5 159.5h-113l-59 -305h-140l136 700h140l-57 -295h102q20 89 78.5 158t149 108t202.5 39q135 0 231.5 -44.5zM972.5 142.5q66.5 34.5 104 94
t37.5 131.5q0 62 -32.5 113t-95 81t-148.5 30q-84 0 -150.5 -34.5t-104 -94t-37.5 -131.5q0 -62 32.5 -113t95 -81t148.5 -30q84 0 150.5 34.5z" />
    <glyph glyph-name="uni042F" unicode="&#x42f;" horiz-adv-x="843" 
d="M894 700l-136 -700h-140l47 243h-199l-212 -243h-170l227 260q-68 17 -116.5 67t-48.5 126q0 71 34.5 127.5t98.5 88t149 31.5h466zM684 343l46 237h-289q-70 0 -109.5 -36t-39.5 -94q0 -45 36 -76t102 -31h254z" />
    <glyph glyph-name="uni0430" unicode="&#x430;" horiz-adv-x="718" 
d="M169.5 11q-50.5 21 -74 56t-23.5 76q0 81 63 132t184 51h163q63 0 85.5 13t22.5 36q0 27 -44.5 48.5t-145.5 21.5q-72 0 -141 -13t-105 -30l24 122q32 14 97.5 25t141.5 11q107 0 176.5 -25.5t101.5 -67.5t32 -94q0 -22 -4 -39l-65 -334h-140l15 80h-3q-33 -34 -97 -62
t-136 -28q-77 0 -127.5 21zM475.5 120q49.5 20 73.5 45l20 104q-8 -7 -37.5 -12.5t-74.5 -5.5h-110q-63 0 -93.5 -22t-30.5 -55q0 -31 32.5 -52.5t110.5 -21.5q60 0 109.5 20z" />
    <glyph glyph-name="uni0431" unicode="&#x431;" horiz-adv-x="790" 
d="M192 60.5q-87 70.5 -87 188.5q0 22 4 49t11 62q32 161 113.5 244.5t231.5 83.5h177h202v0l-22 -115h-202h-156q-88 0 -138.5 -50.5t-70.5 -132.5h6q24 31 75 52t125 21q109 0 183.5 -30t110.5 -80t36 -110q0 -72 -37 -129.5t-110.5 -90.5t-177.5 -33q-187 0 -274 70.5z
M596 143.5q52 38.5 52 102.5q0 58 -56.5 95t-159.5 37q-87 0 -139 -38.5t-52 -102.5q0 -58 56.5 -95t159.5 -37q87 0 139 38.5z" />
    <glyph glyph-name="uni0432" unicode="&#x432;" horiz-adv-x="702" 
d="M677.5 298q-56.5 -35 -144.5 -35l-1 -6q78 -5 115.5 -35.5t37.5 -80.5q0 -39 -23 -71t-68 -51t-108 -19h-421l106 550h348q70 0 118.5 -21t72.5 -54t24 -71q0 -71 -56.5 -106zM486 303q50 0 75.5 20.5t25.5 53.5q0 28 -27.5 48t-79.5 20h-189l-28 -142h223zM525 206
q-23 17 -67 17h-210l-23 -118h235q44 0 66 16.5t22 44.5q0 23 -23 40z" />
    <glyph glyph-name="uni0433" unicode="&#x433;" horiz-adv-x="577" 
d="M205 0h-140l106 550h492l-22 -115h-352z" />
    <glyph glyph-name="uni0434" unicode="&#x434;" horiz-adv-x="732" 
d="M-29 -153l50 263h70q29 33 63 111t54 181l29 148h504l-85 -440h87l-51 -263h-140l30 153h-442l-30 -153h-139zM233 110h283l64 330h-225l-8 -41q-18 -93 -51 -169t-62 -114z" />
    <glyph glyph-name="uni0435" unicode="&#x435;" horiz-adv-x="727" 
d="M256.5 27.5q-78.5 37.5 -116.5 98.5t-38 131q0 85 42.5 154.5t117.5 109t169 39.5q93 0 162.5 -32.5t106.5 -90t37 -130.5q0 -34 -7 -66h-487q10 -59 69.5 -97.5t159.5 -38.5q58 0 110.5 11.5t79.5 27.5l-24 -120q-25 -14 -77 -24t-112 -10q-114 0 -192.5 37.5zM598 321
q-3 56 -43.5 96t-116.5 40q-41 0 -81 -16.5t-69 -47.5t-37 -72h347z" />
    <glyph glyph-name="uni0436" unicode="&#x436;" horiz-adv-x="996" 
d="M162 0h-192l369 293l-243 257h170l216 -235h2l45 235h140l-45 -235h2l306 235h194l-369 -277l238 -273h-171l-211 252h-2l-48 -252h-140l48 252h-2z" />
    <glyph glyph-name="uni0437" unicode="&#x437;" horiz-adv-x="630" 
d="M205 12q-81 22 -126 48l22 112q41 -27 111.5 -49.5t143.5 -22.5q63 0 91.5 18t28.5 43q0 29 -38 49t-114 20h-103l16 80h151q66 0 95 19.5t29 46.5q0 29 -42 51.5t-129 22.5q-64 0 -119 -9t-90 -20l22 114q32 10 85.5 17.5t113.5 7.5q105 0 173 -23t99 -59t31 -77
q0 -71 -64.5 -103t-148.5 -32l-1 -6q86 -6 127 -39t41 -83q0 -40 -26 -73.5t-79.5 -54t-132.5 -20.5q-86 0 -167 22z" />
    <glyph glyph-name="uni0438" unicode="&#x438;" horiz-adv-x="727" 
d="M244 0h-179l106 550h140l-81 -421h5l354 421h179l-106 -550h-140l81 421h-5z" />
    <glyph glyph-name="uni0439" unicode="&#x439;" horiz-adv-x="727" 
d="M244 0h-179l106 550h140l-81 -421h5l354 421h179l-106 -550h-140l81 421h-5zM347 667.5q-48 37.5 -48 107.5h100q0 -63 83 -63q42 0 60.5 16t20.5 47h100q-6 -67 -51.5 -106t-124.5 -39q-92 0 -140 37.5z" />
    <glyph glyph-name="uni043A" unicode="&#x43a;" horiz-adv-x="670" 
d="M205 0h-140l106 550h140l-46 -239h1l334 239h200l-395 -277l264 -273h-175l-239 255h-1z" />
    <glyph glyph-name="uni043B" unicode="&#x43b;" horiz-adv-x="675" 
d="M11 7q39 39 85 135t75 228l40 180h505l-106 -550h-140l84 435h-226l-21 -85q-32 -129 -72 -221.5t-69 -128.5h-156z" />
    <glyph glyph-name="uni043C" unicode="&#x43c;" horiz-adv-x="925" 
d="M796 419l-337 -445l-168 445h-5l-81 -419h-140l106 550h199l125 -337h5l251 337h215l-106 -550h-140l81 419h-5z" />
    <glyph glyph-name="uni043D" unicode="&#x43d;" horiz-adv-x="730" 
d="M591 340l40 210h140l-106 -550h-140l43 225h-320l-43 -225h-140l106 550h140l-40 -210h320z" />
    <glyph glyph-name="uni043E" unicode="&#x43e;" horiz-adv-x="804" 
d="M262.5 25q-79.5 35 -120 95t-40.5 133q0 86 44 156t124.5 110.5t185.5 40.5q112 0 191.5 -35t120 -95t40.5 -133q0 -86 -44 -156t-124.5 -110.5t-185.5 -40.5q-112 0 -191.5 35zM563.5 124.5q47.5 24.5 73.5 68t26 99.5q0 70 -54 114t-153 44q-62 0 -109.5 -24.5
t-73.5 -68t-26 -99.5q0 -70 54 -114t153 -44q62 0 109.5 24.5z" />
    <glyph glyph-name="uni043F" unicode="&#x43f;" horiz-adv-x="727" 
d="M205 0h-140l106 550h597l-106 -550h-140l84 435h-317z" />
    <glyph glyph-name="uni0440" unicode="&#x440;" horiz-adv-x="782" 
d="M28 -190l143 740h140l-12 -67h6q24 29 78.5 53t124.5 24q87 0 150 -35t96 -93t33 -127q0 -91 -41 -163t-112.5 -112t-161.5 -40q-88 0 -154 28.5t-92 63.5h-6l-52 -272h-140zM541.5 124.5q47.5 24.5 74 68t26.5 98.5q0 43 -21.5 79.5t-64.5 58t-103 21.5
q-57 0 -104.5 -21.5t-70.5 -48.5l-38 -195q19 -33 71 -59t123 -26q60 0 107.5 24.5z" />
    <glyph glyph-name="uni0441" unicode="&#x441;" horiz-adv-x="682" 
d="M258.5 25.5q-76.5 35.5 -116.5 95t-40 132.5q0 86 44 156t124.5 110.5t185.5 40.5q91 0 162.5 -21.5t110.5 -46.5l-23 -116q-38 28 -103 51t-147 23q-62 0 -109.5 -24.5t-73.5 -68t-26 -99.5q0 -70 55 -114t159 -44q54 0 104 13t75 29l-22 -118q-24 -13 -73.5 -23.5
t-104.5 -10.5q-105 0 -181.5 35.5z" />
    <glyph glyph-name="uni0442" unicode="&#x442;" horiz-adv-x="644" 
d="M382 0h-140l84 435h-242l22 115h624l-22 -115h-242z" />
    <glyph glyph-name="uni0443" unicode="&#x443;" horiz-adv-x="653" 
d="M246 -190h-155l172 253l-177 487h143l122 -350h5l238 350h155z" />
    <glyph glyph-name="uni0444" unicode="&#x444;" horiz-adv-x="996" 
d="M723 560q82 0 145.5 -33t98.5 -89t35 -123q0 -93 -40.5 -164.5t-113 -111t-164.5 -39.5h-116l-37 -190h-140l37 190h-47q-82 0 -145.5 33t-98.5 89t-35 123q0 93 40.5 164.5t113 111t164.5 39.5h116l31 160h140l-31 -160h47zM449 110l66 340h-85q-52 0 -93.5 -24
t-65.5 -68.5t-24 -105.5t40.5 -101.5t107.5 -40.5h54zM674 110q52 0 93.5 24t65.5 68.5t24 105.5q0 62 -40 102t-108 40h-54l-66 -340h85z" />
    <glyph glyph-name="uni0445" unicode="&#x445;" horiz-adv-x="627" 
d="M156 0h-166l296 278l-182 272h146l120 -178h6l190 178h166l-288 -269l188 -281h-146l-125 186h-6z" />
    <glyph glyph-name="uni0446" unicode="&#x446;" horiz-adv-x="739" 
d="M699 -153h-140l30 153h-524l106 550h140l-84 -435h297l84 435h140l-84 -435h87z" />
    <glyph glyph-name="uni0447" unicode="&#x447;" horiz-adv-x="687" 
d="M588 550h140l-106 -550h-140l33 169q-57 -14 -125 -14q-123 0 -196.5 52.5t-73.5 153.5q0 27 6 57l25 132h140l-28 -143q-3 -16 -3 -32q0 -54 40 -79.5t106 -25.5q73 0 131 16z" />
    <glyph glyph-name="uni0448" unicode="&#x448;" horiz-adv-x="990" 
d="M925 0h-860l106 550h140l-84 -435h220l84 435h140l-84 -435h220l84 435h140z" />
    <glyph glyph-name="uni0449" unicode="&#x449;" horiz-adv-x="1022" 
d="M982 -153h-140l30 153h-807l106 550h140l-84 -435h220l84 435h140l-84 -435h220l84 435h140l-84 -435h87z" />
    <glyph glyph-name="uni044A" unicode="&#x44a;" horiz-adv-x="768" 
d="M557 368q68 0 118 -23.5t75.5 -61.5t25.5 -83q0 -58 -28 -103.5t-81.5 -71t-125.5 -25.5h-391l84 435h-148l22 115h288l-35 -182h196zM525 105q49 0 77 23.5t28 60.5q0 30 -26 52t-73 22h-190l-31 -158h215z" />
    <glyph glyph-name="uni044B" unicode="&#x44b;" horiz-adv-x="922" 
d="M471 368q68 0 118 -23.5t75.5 -61.5t25.5 -83q0 -58 -28 -103.5t-81.5 -71t-125.5 -25.5h-390l106 550h140l-35 -182h195zM717 0l106 550h140l-106 -550h-140zM439 105q49 0 77 23.5t28 60.5q0 30 -26 52t-73 22h-190l-30 -158h214z" />
    <glyph glyph-name="uni044C" unicode="&#x44c;" horiz-adv-x="697" 
d="M486 368q68 0 118 -23.5t75.5 -61.5t25.5 -83q0 -58 -28 -103.5t-81.5 -71t-125.5 -25.5h-405l106 550h140l-35 -182h210zM454 105q49 0 77 23.5t28 60.5q0 30 -26 52t-73 22h-204l-31 -158h229z" />
    <glyph glyph-name="uni044D" unicode="&#x44d;" horiz-adv-x="688" 
d="M534 525q78 -35 118 -95t40 -133q0 -89 -44 -158.5t-125 -109t-189 -39.5q-78 0 -146 21.5t-100 46.5l22 116q33 -30 90.5 -52t133.5 -22q79 0 133.5 37t72.5 100h-314l15 80h304q-9 61 -64.5 97t-152.5 36q-59 0 -111 -10t-81 -22l22 111q90 31 190 31q108 0 186 -35z
" />
    <glyph glyph-name="uni044E" unicode="&#x44e;" horiz-adv-x="994" 
d="M848 526q74 -34 112.5 -92.5t38.5 -131.5q0 -88 -43.5 -159.5t-121.5 -112t-178 -40.5t-173.5 32t-112.5 87.5t-43 125.5h-77l-45 -235h-140l106 550h140l-45 -235h68q15 72 61 127.5t117 86.5t158 31q104 0 178 -34zM760.5 125q44.5 25 69.5 70.5t25 103.5
q0 68 -48.5 109.5t-139.5 41.5q-57 0 -101.5 -25t-69.5 -70.5t-25 -103.5q0 -68 48.5 -109.5t138.5 -41.5q58 0 102.5 25z" />
    <glyph glyph-name="uni044F" unicode="&#x44f;" horiz-adv-x="687" 
d="M50 0l206 199l1 5q-35 5 -69.5 24t-57 51t-22.5 75q0 56 28 100.5t80.5 70t125.5 25.5h386l-106 -550h-140l37 193h-104l-200 -193h-165zM535 273l33 172h-202q-55 0 -84.5 -26t-29.5 -66q0 -33 30 -56.5t85 -23.5h168z" />
    <glyph glyph-name="uni0450" unicode="&#x450;" horiz-adv-x="727" 
d="M256.5 27.5q-78.5 37.5 -116.5 98.5t-38 131q0 85 42.5 154.5t117.5 109t169 39.5q93 0 162.5 -32.5t106.5 -90t37 -130.5q0 -34 -7 -66h-487q10 -59 69.5 -97.5t159.5 -38.5q58 0 110.5 11.5t79.5 27.5l-24 -120q-25 -14 -77 -24t-112 -10q-114 0 -192.5 37.5zM598 321
q-3 56 -43.5 96t-116.5 40q-41 0 -81 -16.5t-69 -47.5t-37 -72h347zM609 618h-13l-275 52l33 118h40l236 -113z" />
    <glyph glyph-name="uni0451" unicode="&#x451;" horiz-adv-x="727" 
d="M256.5 27.5q-78.5 37.5 -116.5 98.5t-38 131q0 85 42.5 154.5t117.5 109t169 39.5q93 0 162.5 -32.5t106.5 -90t37 -130.5q0 -34 -7 -66h-487q10 -59 69.5 -97.5t159.5 -38.5q58 0 110.5 11.5t79.5 27.5l-24 -120q-25 -14 -77 -24t-112 -10q-114 0 -192.5 37.5zM598 321
q-3 56 -43.5 96t-116.5 40q-41 0 -81 -16.5t-69 -47.5t-37 -72h347zM291.5 645q-20.5 20 -20.5 49q0 33 25.5 57t61.5 24q31 0 51.5 -20t20.5 -49q0 -33 -25.5 -57t-61.5 -24q-31 0 -51.5 20zM528.5 645q-20.5 20 -20.5 49q0 33 25.5 57t61.5 24q31 0 51.5 -20t20.5 -49
q0 -33 -25.5 -57t-61.5 -24q-31 0 -51.5 20z" />
    <glyph glyph-name="uni0452" unicode="&#x452;" horiz-adv-x="745" 
d="M677 378q59 -52 59 -137q0 -31 -5 -55l-38 -193q-20 -100 -71 -148t-146 -48q-52 0 -110 17l21 109q40 -11 67 -11q44 0 68.5 24t33.5 70l34 178q3 17 3 31q0 50 -35.5 78.5t-101.5 28.5q-56 0 -103 -28.5t-70 -63.5l-45 -230h-140l98 505h-98l15 80h99l26 135h140
l-27 -135h217l-15 -80h-217l-33 -167h6q25 35 78.5 63.5t119.5 28.5q111 0 170 -52z" />
    <glyph glyph-name="uni0453" unicode="&#x453;" horiz-adv-x="577" 
d="M205 0h-140l106 550h492l-22 -115h-352zM299 618h-13l1 57l280 113h40l-13 -118z" />
    <glyph glyph-name="uni0454" unicode="&#x454;" horiz-adv-x="682" 
d="M326.5 414q-53.5 -36 -71.5 -97h313l-15 -80h-305q9 -62 63.5 -99.5t149.5 -37.5q54 0 104 13t75 29l-22 -118q-24 -13 -73.5 -23.5t-104.5 -10.5q-105 0 -181.5 35.5t-116.5 95t-40 132.5q0 86 44 156t124.5 110.5t185.5 40.5q91 0 162.5 -21.5t110.5 -46.5l-23 -116
q-38 28 -103 51t-147 23q-76 0 -129.5 -36z" />
    <glyph glyph-name="uni0455" unicode="&#x455;" horiz-adv-x="635" 
d="M199.5 16q-80.5 26 -118.5 58l23 120q39 -34 113.5 -61t162.5 -27q52 0 74 15t22 39q0 30 -34.5 45t-107.5 30q-72 15 -117 30t-77.5 47t-32.5 86q0 43 25 80t77.5 59.5t131.5 22.5q113 0 202.5 -27.5t137.5 -59.5l-23 -118q-48 33 -129.5 61.5t-174.5 28.5
q-55 0 -80.5 -16t-25.5 -40q0 -29 33 -43t107 -30q72 -15 118 -30.5t79 -48t33 -87.5q0 -40 -24.5 -76.5t-78 -60t-135.5 -23.5q-100 0 -180.5 26z" />
    <glyph glyph-name="uni0456" unicode="&#x456;" horiz-adv-x="270" 
d="M197 609q-24 19 -24 49q0 36 26 58t66 22q42 0 66 -19t24 -49q0 -36 -26 -58t-66 -22q-42 0 -66 19zM65 0l106 550h6h64h63h7l-106 -550h-140z" />
    <glyph glyph-name="uni0457" unicode="&#x457;" horiz-adv-x="270" 
d="M205 0h-140l106 550h140zM81.5 645q-20.5 20 -20.5 49q0 33 25.5 57t61.5 24q31 0 51.5 -20t20.5 -49q0 -33 -25.5 -57t-61.5 -24q-31 0 -51.5 20zM318.5 645q-20.5 20 -20.5 49q0 33 25.5 57t61.5 24q31 0 51.5 -20t20.5 -49q0 -33 -25.5 -57t-61.5 -24q-31 0 -51.5 20z
" />
    <glyph glyph-name="uni0458" unicode="&#x458;" horiz-adv-x="270" 
d="M197 609q-24 19 -24 49q0 36 26 58t66 22q42 0 66 -19t24 -49q0 -36 -26 -58t-66 -22q-42 0 -66 19zM-131 -186l22 112q40 -11 70 -11q46 0 70.5 23t33.5 68l106 544h6h64h63h7l-108 -553q-20 -103 -72 -151.5t-149 -48.5q-55 0 -113 17z" />
    <glyph glyph-name="uni0459" unicode="&#x459;" horiz-adv-x="1083" 
d="M874 352q66 0 115 -22.5t75 -59.5t26 -78q0 -56 -28 -99.5t-79.5 -68t-119.5 -24.5h-400l84 435h-219l-21 -85q-32 -129 -72 -221.5t-69 -128.5h-156l1 7q39 39 85 135t75 228l40 180h498l-38 -198h203zM834 105q52 0 81.5 24.5t29.5 62.5q0 32 -29 56t-79 24h-182
l-32 -167h211z" />
    <glyph glyph-name="uni045A" unicode="&#x45a;" horiz-adv-x="1131" 
d="M923 338q68 0 116.5 -21t72.5 -56.5t24 -78.5q0 -53 -26.5 -94.5t-76.5 -64.5t-117 -23h-406l50 258h-305l-50 -258h-140l106 550h140l-41 -212h305l41 212h140l-41 -212h208zM887 105q49 0 76.5 23t27.5 58q0 29 -26 50.5t-72 21.5h-193l-30 -153h217z" />
    <glyph glyph-name="uni045B" unicode="&#x45b;" horiz-adv-x="745" 
d="M677 378q59 -52 59 -137q0 -31 -5 -55l-36 -186h-140l35 184q3 17 3 31q0 50 -35.5 78.5t-101.5 28.5q-56 0 -103 -28.5t-70 -63.5l-45 -230h-140l97 505h-97l15 80h98l26 135h140l-26 -135h217l-15 -80h-218l-32 -167h6q25 35 78.5 63.5t119.5 28.5q111 0 170 -52z" />
    <glyph glyph-name="uni045C" unicode="&#x45c;" horiz-adv-x="670" 
d="M205 0h-140l106 550h140l-46 -239h1l334 239h200l-395 -277l264 -273h-175l-239 255h-1zM330 618h-13l1 57l280 113h40l-13 -118z" />
    <glyph glyph-name="uni045D" unicode="&#x45d;" horiz-adv-x="727" 
d="M244 0h-179l106 550h140l-81 -421h5l354 421h179l-106 -550h-140l81 421h-5zM626 618h-13l-275 52l33 118h40l236 -113z" />
    <glyph glyph-name="uni045E" unicode="&#x45e;" horiz-adv-x="653" 
d="M246 -190h-155l172 253l-177 487h143l122 -350h5l238 350h155zM296 667.5q-48 37.5 -48 107.5h100q0 -63 83 -63q42 0 60.5 16t20.5 47h100q-6 -67 -51.5 -106t-124.5 -39q-92 0 -140 37.5z" />
    <glyph glyph-name="uni045F" unicode="&#x45f;" horiz-adv-x="727" 
d="M411 -153h-155l8 40l39 100l3 13h-241l106 550h140l-84 -435h317l84 435h140l-106 -550h-241l-3 -13l1 -100z" />
    <glyph glyph-name="uni0490" unicode="&#x490;" horiz-adv-x="725" 
d="M225 0h-140l136 700h480l41 120h117l-48 -245h-475z" />
    <glyph glyph-name="uni0491" unicode="&#x491;" horiz-adv-x="577" 
d="M205 0h-140l106 550h355l46 105h112l-43 -220h-352z" />
    <glyph glyph-name="uni0492" unicode="&#x492;" 
d="M861 700l-25 -125h-475l-36 -187h357l-20 -100h-356l-56 -288h-140l56 288h-101l20 100h100l61 312h615z" />
    <glyph glyph-name="uni0493" unicode="&#x493;" horiz-adv-x="609" 
d="M685 550l-22 -115h-352l-24 -125h243l-16 -80h-243l-44 -230h-140l44 230h-82l16 80h82l46 240h492z" />
    <glyph glyph-name="uni0494" unicode="&#x494;" horiz-adv-x="832" 
d="M382 -148l18 97q28 -4 58 -4q61 0 109 25.5t75 73t27 112.5q0 69 -49.5 111.5t-135.5 42.5q-71 0 -130 -30t-88 -67l-41 -213h-140l136 700h615l-25 -125h-475l-48 -249h6q31 39 96.5 70.5t145.5 31.5q89 0 153.5 -31.5t98 -87.5t33.5 -128q0 -98 -44.5 -174.5t-124 -119
t-182.5 -42.5q-52 0 -88 7z" />
    <glyph glyph-name="uni0495" unicode="&#x495;" horiz-adv-x="717" 
d="M283 -182l15 76q28 -4 53 -4q58 0 105 26t74.5 75t27.5 115t-41.5 102.5t-114.5 36.5q-54 0 -99 -26t-67 -59l-31 -160h-140l106 550h492l-15 -80h-352l-40 -206h6q25 34 80 61.5t124 27.5q74 0 128.5 -28.5t83.5 -79.5t29 -116q0 -92 -42 -164.5t-119 -113.5t-178 -41
q-44 0 -85 8z" />
    <glyph glyph-name="uni0496" unicode="&#x496;" horiz-adv-x="1226" 
d="M1167 -183h-140l36 183h-30l-291 343h-3l-66 -343h-140l66 343h-3l-423 -343h-195l459 372l1 5l-327 323h180l314 -310h3l61 310h140l-61 -310h3l436 310h204l-481 -343l-1 -5l193 -227h125z" />
    <glyph glyph-name="uni0497" unicode="&#x497;" horiz-adv-x="1001" 
d="M958 -153h-140l30 153h-24l-211 252h-2l-48 -252h-140l48 252h-2l-307 -252h-192l369 293l-243 257h170l216 -235h2l45 235h140l-45 -235h2l306 235h194l-369 -277l138 -158h115z" />
    <glyph glyph-name="uni049A" unicode="&#x49a;" horiz-adv-x="792" 
d="M733 -183h-140l36 183h-23l-314 338h-2l-65 -338h-140l136 700h140l-60 -307h2l465 307h205l-510 -342l-1 -5l207 -228h124z" />
    <glyph glyph-name="uni049B" unicode="&#x49b;" horiz-adv-x="665" 
d="M626 -153h-140l30 153h-22l-239 255h-1l-49 -255h-140l106 550h140l-46 -239h1l334 239h200l-395 -277l153 -158h120z" />
    <glyph glyph-name="uni049C" unicode="&#x49c;" horiz-adv-x="807" 
d="M966 700l-343 -345l-1 -5l159 -350h-156l-143 315h-52l-23 -120h-85l23 120h-59l-61 -315h-140l136 700h140l-55 -285h59l23 120h85l-23 -120h60l283 285h173z" />
    <glyph glyph-name="uni049D" unicode="&#x49d;" horiz-adv-x="690" 
d="M642 550h164l-276 -277l154 -273h-148l-137 242h-31l-21 -109h-75l21 109h-41l-47 -242h-140l106 550h140l-44 -228h42l21 108h75l-21 -108h31z" />
    <glyph glyph-name="uni04A2" unicode="&#x4a2;" horiz-adv-x="928" 
d="M801 700h140l-112 -575h98l-60 -308h-140l36 183h-98l56 290h-440l-56 -290h-140l136 700h140l-55 -285h440z" />
    <glyph glyph-name="uni04A3" unicode="&#x4a3;" horiz-adv-x="762" 
d="M771 550l-84 -435h87l-52 -268h-140l30 153h-87l43 225h-320l-43 -225h-140l106 550h140l-40 -210h320l40 210h140z" />
    <glyph glyph-name="uni04AA" unicode="&#x4aa;" horiz-adv-x="892" 
d="M796.5 680q93.5 -30 145.5 -67l-26 -133q-42 42 -128 77t-193 35q-93 0 -163 -34t-108.5 -92t-38.5 -128q0 -63 35 -115.5t102.5 -83.5t161.5 -31q73 0 138 18.5t99 41.5l-24 -133q-26 -17 -81.5 -30.5t-124.5 -14.5l-34 -180h-140l36 192q-101 19 -172.5 65.5
t-107.5 113t-36 143.5q0 109 55.5 197t159 138.5t241.5 50.5q110 0 203.5 -30z" />
    <glyph glyph-name="uni04AB" unicode="&#x4ab;" horiz-adv-x="682" 
d="M346.5 425.5q-47.5 -24.5 -73.5 -68t-26 -99.5q0 -70 55 -114t159 -44q54 0 104 13t75 29l-22 -118q-19 -10 -57 -19.5t-83 -13.5l-30 -151h-140l31 160q-112 23 -174.5 92t-62.5 161q0 86 44 156t124.5 110.5t185.5 40.5q91 0 162.5 -21.5t110.5 -46.5l-23 -116
q-38 28 -103 51t-147 23q-62 0 -109.5 -24.5z" />
    <glyph glyph-name="uni04AE" unicode="&#x4ae;" horiz-adv-x="820" 
d="M465 0h-140l30 155l-254 545h146l190 -415h6l352 415h166l-466 -545z" />
    <glyph glyph-name="uni04AF" unicode="&#x4af;" horiz-adv-x="662" 
d="M354 -190h-140l37 190l-160 550h134l112 -406h6l270 406h150l-372 -550z" />
    <glyph glyph-name="uni04B0" unicode="&#x4b0;" horiz-adv-x="820" 
d="M795 700h166l-380 -445h145l-19 -100h-212l-30 -155h-140l30 155h-212l19 100h146l-207 445h146l190 -415h6z" />
    <glyph glyph-name="uni04B1" unicode="&#x4b1;" horiz-adv-x="662" 
d="M613 550h150l-314 -470h118l-15 -80h-161l-37 -190h-140l37 190h-161l15 80h118l-132 470h134l111 -416h6z" />
    <glyph glyph-name="uni04B2" unicode="&#x4b2;" horiz-adv-x="751" 
d="M735 -183h-140l36 183h-18l-167 262h-5l-266 -262h-180l373 360l-224 340h156l156 -246h5l251 246h180l-358 -340l153 -235h108z" />
    <glyph glyph-name="uni04B3" unicode="&#x4b3;" horiz-adv-x="629" 
d="M609 -153h-140l30 153h-13l-125 186h-6l-199 -186h-166l296 278l-182 272h146l120 -178h6l190 178h166l-288 -269l111 -166h106z" />
    <glyph glyph-name="uni04B6" unicode="&#x4b6;" horiz-adv-x="893" 
d="M692 -183l36 183h-98l50 255q-48 -15 -101 -22.5t-101 -7.5q-146 0 -231.5 60t-85.5 179q0 37 7 73l32 163h139l-32 -166q-6 -28 -6 -52q0 -74 52 -103t149 -29q112 0 202 31l62 319h140l-112 -575h98l-60 -308h-140z" />
    <glyph glyph-name="uni04B7" unicode="&#x4b7;" horiz-adv-x="719" 
d="M539 -153l30 153h-87l33 169q-57 -14 -125 -14q-123 0 -196.5 52.5t-73.5 153.5q0 27 6 57l25 132h140l-28 -143q-3 -16 -3 -32q0 -54 40 -79.5t106 -25.5q73 0 131 16l51 264h140l-84 -435h87l-52 -268h-140z" />
    <glyph glyph-name="uni04B8" unicode="&#x4b8;" horiz-adv-x="855" 
d="M766 700h140l-136 -700h-140l50 255q-84 -26 -171 -29l-25 -128h-95l25 130q-119 12 -186.5 71.5t-67.5 164.5q0 31 8 73l32 163h139l-32 -166q-5 -24 -5 -52q0 -61 35 -91t101 -38l28 145h95l-28 -147q93 3 171 30z" />
    <glyph glyph-name="uni04B9" unicode="&#x4b9;" horiz-adv-x="687" 
d="M588 550h140l-106 -550h-140l33 169q-56 -12 -108 -14l-18 -90h-81l18 94q-96 13 -151 63.5t-55 137.5q0 27 6 58l25 132h140l-28 -143q-4 -24 -4 -33q0 -40 24 -64.5t66 -33.5l23 117h81l-24 -123q62 3 108 16z" />
    <glyph glyph-name="uni04BA" unicode="&#x4ba;" horiz-adv-x="836" 
d="M746 425q85 -60 85 -180q0 -37 -7 -73l-33 -172h-140l34 175q5 24 5 52q0 73 -50.5 103t-146.5 30q-109 0 -204 -30l-64 -330h-140l136 700h140l-47 -244q48 14 102.5 21.5t98.5 7.5q146 0 231 -60z" />
    <glyph glyph-name="uni04BB" unicode="&#x4bb;" horiz-adv-x="722" 
d="M65 0l139 720h140l-49 -252h6q25 35 78.5 63.5t119.5 28.5q111 0 170 -52t59 -137q0 -31 -5 -55l-61 -316h-140l60 314q3 17 3 31q0 50 -35.5 78.5t-101.5 28.5q-56 0 -103 -28.5t-70 -63.5l-70 -360h-140z" />
    <glyph glyph-name="uni04C1" unicode="&#x4c1;" horiz-adv-x="1221" 
d="M173 0h-195l459 372l1 5l-327 323h180l314 -310h3l61 310h140l-61 -310h3l436 310h204l-481 -343l-1 -5l299 -352h-175l-291 343h-3l-66 -343h-140l66 343h-3zM592 809q-55 42 -55 121h112q0 -32 28.5 -51t82.5 -19q86 0 95 70h112q-7 -74 -59.5 -118.5t-148.5 -44.5
q-112 0 -167 42z" />
    <glyph glyph-name="uni04C2" unicode="&#x4c2;" horiz-adv-x="996" 
d="M162 0h-192l369 293l-243 257h170l216 -235h2l45 235h140l-45 -235h2l306 235h194l-369 -277l238 -273h-171l-211 252h-2l-48 -252h-140l48 252h-2zM480 667.5q-48 37.5 -48 107.5h100q0 -63 83 -63q42 0 60.5 16t20.5 47h100q-6 -67 -51.5 -106t-124.5 -39
q-92 0 -140 37.5z" />
    <glyph glyph-name="uni04D2" unicode="&#x4d2;" horiz-adv-x="878" 
d="M908 0h-142l-51 168h-407l-116 -168h-162l487 700h176zM587 572l-210 -304h308l-92 304h-6zM439.5 795q-20.5 20 -20.5 49q0 33 25.5 57t61.5 24q31 0 51.5 -20t20.5 -49q0 -33 -25.5 -57t-61.5 -24q-31 0 -51.5 20zM676.5 795q-20.5 20 -20.5 49q0 33 25.5 57t61.5 24
q31 0 51.5 -20t20.5 -49q0 -33 -25.5 -57t-61.5 -24q-31 0 -51.5 20z" />
    <glyph glyph-name="uni04D3" unicode="&#x4d3;" horiz-adv-x="718" 
d="M169.5 11q-50.5 21 -74 56t-23.5 76q0 81 63 132t184 51h163q63 0 85.5 13t22.5 36q0 27 -44.5 48.5t-145.5 21.5q-72 0 -141 -13t-105 -30l24 122q32 14 97.5 25t141.5 11q107 0 176.5 -25.5t101.5 -67.5t32 -94q0 -22 -4 -39l-65 -334h-140l15 80h-3q-33 -34 -97 -62
t-136 -28q-77 0 -127.5 21zM475.5 120q49.5 20 73.5 45l20 104q-8 -7 -37.5 -12.5t-74.5 -5.5h-110q-63 0 -93.5 -22t-30.5 -55q0 -31 32.5 -52.5t110.5 -21.5q60 0 109.5 20zM301.5 645q-20.5 20 -20.5 49q0 33 25.5 57t61.5 24q31 0 51.5 -20t20.5 -49q0 -33 -25.5 -57
t-61.5 -24q-31 0 -51.5 20zM538.5 645q-20.5 20 -20.5 49q0 33 25.5 57t61.5 24q31 0 51.5 -20t20.5 -49q0 -33 -25.5 -57t-61.5 -24q-31 0 -51.5 20z" />
    <glyph glyph-name="uni04D8" unicode="&#x4d8;" horiz-adv-x="1025" 
d="M807.5 666.5q107.5 -43.5 161.5 -119t54 -172.5q0 -108 -55 -196t-156 -138.5t-232 -50.5q-140 0 -240 44.5t-151 120.5t-51 171q0 39 6 67h730q-11 91 -99 145t-251 54q-81 0 -158.5 -18t-124.5 -40l24 126q44 19 120 34.5t159 15.5q156 0 263.5 -43.5zM763 158.5
q76 50.5 101 134.5h-581q8 -52 43.5 -93.5t99.5 -66.5t153 -25q108 0 184 50.5z" />
    <glyph glyph-name="uni04D9" unicode="&#x4d9;" horiz-adv-x="779" 
d="M620 525q82 -35 122.5 -94.5t40.5 -133.5q0 -85 -43.5 -155.5t-122 -111t-180.5 -40.5q-106 0 -182 35t-115 95t-39 133q0 22 5 54h530q-10 63 -72.5 100.5t-171.5 37.5q-63 0 -121.5 -12t-90.5 -27l23 117q34 14 94 25.5t122 11.5q119 0 201 -35zM558.5 129.5
q53.5 36.5 71.5 97.5h-388q8 -59 56 -96.5t137 -37.5q70 0 123.5 36.5z" />
    <glyph glyph-name="uni04E0" unicode="&#x4e0;" horiz-adv-x="747" 
d="M218 17.5q-99 27.5 -148 60.5l25 130q54 -38 142.5 -69t180.5 -31q89 0 133 32t44 77q0 30 -23 55.5t-69 40.5t-114 15q-54 0 -96 -5.5t-61 -12.5l19 94l300 163l1 8h-406l25 125h660l-18 -90l-335 -182l-2 -8q137 -13 201.5 -69t64.5 -136q0 -64 -35 -115t-104.5 -80.5
t-169.5 -29.5q-116 0 -215 27.5z" />
    <glyph glyph-name="uni04E1" unicode="&#x4e1;" horiz-adv-x="675" 
d="M152 -174q-89 26 -136 59l24 124q41 -34 121 -61.5t172 -27.5q90 0 135.5 31.5t45.5 78.5q0 54 -52.5 87t-171.5 33q-30 0 -63.5 -4.5t-55.5 -9.5l15 79l304 209l1 6h-373l23 120h585l-16 -82l-324 -223l-2 -10q89 -5 150 -33.5t91 -73t30 -97.5q0 -62 -36.5 -115
t-107 -84.5t-167.5 -31.5q-103 0 -192 26z" />
    <glyph glyph-name="uni04E2" unicode="&#x4e2;" horiz-adv-x="867" 
d="M272 0h-187l136 700h140l-103 -530h5l468 530h187l-136 -700h-140l102 530h-5zM766 800h-394l20 100h394z" />
    <glyph glyph-name="uni04E3" unicode="&#x4e3;" horiz-adv-x="727" 
d="M244 0h-179l106 550h140l-81 -421h5l354 421h179l-106 -550h-140l81 421h-5zM673 650h-394l20 100h394z" />
    <glyph glyph-name="uni04E6" unicode="&#x4e6;" horiz-adv-x="1064" 
d="M348.5 34.5q-105.5 44.5 -158.5 120.5t-53 169q0 109 55.5 197t158.5 138.5t242 50.5q152 0 257.5 -44.5t158.5 -120.5t53 -169q0 -109 -55.5 -197t-158.5 -138.5t-242 -50.5q-152 0 -257.5 44.5zM767 142q70 34 108.5 92t38.5 128q0 63 -36 115.5t-108 83.5t-175 31
q-93 0 -163 -34t-108.5 -92t-38.5 -128q0 -63 36 -115.5t108 -83.5t175 -31q93 0 163 34zM463.5 795q-20.5 20 -20.5 49q0 33 25.5 57t61.5 24q31 0 51.5 -20t20.5 -49q0 -33 -25.5 -57t-61.5 -24q-31 0 -51.5 20zM700.5 795q-20.5 20 -20.5 49q0 33 25.5 57t61.5 24
q31 0 51.5 -20t20.5 -49q0 -33 -25.5 -57t-61.5 -24q-31 0 -51.5 20z" />
    <glyph glyph-name="uni04E7" unicode="&#x4e7;" horiz-adv-x="804" 
d="M262.5 25q-79.5 35 -120 95t-40.5 133q0 86 44 156t124.5 110.5t185.5 40.5q112 0 191.5 -35t120 -95t40.5 -133q0 -86 -44 -156t-124.5 -110.5t-185.5 -40.5q-112 0 -191.5 35zM563.5 124.5q47.5 24.5 73.5 68t26 99.5q0 70 -54 114t-153 44q-62 0 -109.5 -24.5
t-73.5 -68t-26 -99.5q0 -70 54 -114t153 -44q62 0 109.5 24.5zM334.5 645q-20.5 20 -20.5 49q0 33 25.5 57t61.5 24q31 0 51.5 -20t20.5 -49q0 -33 -25.5 -57t-61.5 -24q-31 0 -51.5 20zM571.5 645q-20.5 20 -20.5 49q0 33 25.5 57t61.5 24q31 0 51.5 -20t20.5 -49
q0 -33 -25.5 -57t-61.5 -24q-31 0 -51.5 20z" />
    <glyph glyph-name="uni04E8" unicode="&#x4e8;" horiz-adv-x="1064" 
d="M850.5 665.5q105.5 -44.5 158.5 -120.5t53 -169q0 -109 -55.5 -197t-158.5 -138.5t-242 -50.5q-152 0 -257.5 44.5t-158.5 120.5t-53 169q0 109 55.5 197t158.5 138.5t242 50.5q152 0 257.5 -44.5zM453 567.5q-63 -24.5 -104 -68t-56 -99.5h618q-10 55 -49 98
t-106.5 68.5t-160.5 25.5q-79 0 -142 -24.5zM746 132.5q63 24.5 104 68t56 99.5h-618q10 -55 49 -98t106.5 -68.5t160.5 -25.5q79 0 142 24.5z" />
    <glyph glyph-name="uni04E9" unicode="&#x4e9;" horiz-adv-x="804" 
d="M647.5 525q79.5 -35 120 -95t40.5 -133q0 -86 -44 -156t-124.5 -110.5t-185.5 -40.5q-112 0 -191.5 35t-120 95t-40.5 133q0 86 44 156t124.5 110.5t185.5 40.5q112 0 191.5 -35zM326 413.5q-54 -36.5 -71 -98.5h406q-9 61 -61.5 98t-143.5 37q-76 0 -130 -36.5z
M584 136.5q54 36.5 71 98.5h-406q9 -61 61.5 -98t143.5 -37q76 0 130 36.5z" />
    <glyph glyph-name="uni04EE" unicode="&#x4ee;" horiz-adv-x="775" 
d="M737 700h164l-394 -531q-50 -68 -90.5 -106t-86.5 -55.5t-109 -17.5q-61 0 -118 12l19 98q48 -8 79 -8q45 0 76.5 13t56.5 43l-223 552h148l167 -412h7zM696 800h-394l20 100h394z" />
    <glyph glyph-name="uni04EF" unicode="&#x4ef;" horiz-adv-x="653" 
d="M246 -190h-155l172 253l-177 487h143l122 -350h5l238 350h155zM622 650h-394l20 100h394z" />
    <glyph glyph-name="uni04F0" unicode="&#x4f0;" horiz-adv-x="775" 
d="M737 700h164l-394 -531q-50 -68 -90.5 -106t-86.5 -55.5t-109 -17.5q-61 0 -118 12l19 98q48 -8 79 -8q45 0 76.5 13t56.5 43l-223 552h148l167 -412h7zM331.5 795q-20.5 20 -20.5 49q0 33 25.5 57t61.5 24q31 0 51.5 -20t20.5 -49q0 -33 -25.5 -57t-61.5 -24
q-31 0 -51.5 20zM568.5 795q-20.5 20 -20.5 49q0 33 25.5 57t61.5 24q31 0 51.5 -20t20.5 -49q0 -33 -25.5 -57t-61.5 -24q-31 0 -51.5 20z" />
    <glyph glyph-name="uni04F1" unicode="&#x4f1;" horiz-adv-x="653" 
d="M246 -190h-155l172 253l-177 487h143l122 -350h5l238 350h155zM257.5 645q-20.5 20 -20.5 49q0 33 25.5 57t61.5 24q31 0 51.5 -20t20.5 -49q0 -33 -25.5 -57t-61.5 -24q-31 0 -51.5 20zM494.5 645q-20.5 20 -20.5 49q0 33 25.5 57t61.5 24q31 0 51.5 -20t20.5 -49
q0 -33 -25.5 -57t-61.5 -24q-31 0 -51.5 20z" />
    <glyph glyph-name="Wgrave" unicode="&#x1e80;" horiz-adv-x="1273" 
d="M431 0h-192l-113 700h138l92 -578h6l312 578h149l86 -578h6l318 578h156l-385 -700h-198l-80 539h-7zM904 768h-13l-275 52l33 118h40l236 -113z" />
    <glyph glyph-name="wgrave" unicode="&#x1e81;" horiz-adv-x="1025" 
d="M360 0h-160l-94 550h129l69 -418h5l233 418h126l73 -418h5l230 418h145l-301 -550h-172l-69 388h-5zM754 618h-13l-275 52l33 118h40l236 -113z" />
    <glyph glyph-name="Wacute" unicode="&#x1e82;" horiz-adv-x="1273" 
d="M431 0h-192l-113 700h138l92 -578h6l312 578h149l86 -578h6l318 578h156l-385 -700h-198l-80 539h-7zM607 768h-13l1 57l280 113h40l-13 -118z" />
    <glyph glyph-name="wacute" unicode="&#x1e83;" horiz-adv-x="1025" 
d="M360 0h-160l-94 550h129l69 -418h5l233 418h126l73 -418h5l230 418h145l-301 -550h-172l-69 388h-5zM457 618h-13l1 57l280 113h40l-13 -118z" />
    <glyph glyph-name="Wdieresis" unicode="&#x1e84;" horiz-adv-x="1273" 
d="M431 0h-192l-113 700h138l92 -578h6l312 578h149l86 -578h6l318 578h156l-385 -700h-198l-80 539h-7zM586.5 795q-20.5 20 -20.5 49q0 33 25.5 57t61.5 24q31 0 51.5 -20t20.5 -49q0 -33 -25.5 -57t-61.5 -24q-31 0 -51.5 20zM823.5 795q-20.5 20 -20.5 49q0 33 25.5 57
t61.5 24q31 0 51.5 -20t20.5 -49q0 -33 -25.5 -57t-61.5 -24q-31 0 -51.5 20z" />
    <glyph glyph-name="wdieresis" unicode="&#x1e85;" horiz-adv-x="1025" 
d="M360 0h-160l-94 550h129l69 -418h5l233 418h126l73 -418h5l230 418h145l-301 -550h-172l-69 388h-5zM436.5 645q-20.5 20 -20.5 49q0 33 25.5 57t61.5 24q31 0 51.5 -20t20.5 -49q0 -33 -25.5 -57t-61.5 -24q-31 0 -51.5 20zM673.5 645q-20.5 20 -20.5 49q0 33 25.5 57
t61.5 24q31 0 51.5 -20t20.5 -49q0 -33 -25.5 -57t-61.5 -24q-31 0 -51.5 20z" />
    <glyph glyph-name="uni1E9E" unicode="&#x1e9e;" horiz-adv-x="977" 
d="M544.5 11q-80.5 22 -123.5 50l27 138q41 -33 112.5 -59t157.5 -26q67 0 97.5 22.5t30.5 53.5q0 28 -20 47.5t-49.5 32.5t-82.5 32q-64 22 -104.5 41t-68.5 51.5t-28 80.5q0 31 15.5 56.5t34.5 38.5l1 5h-208l-111 -575h-140l136 700h620l-23 -115h-43q-152 0 -152 -84
q0 -27 19 -46t48.5 -32t80.5 -30q71 -25 114.5 -46.5t75 -60t31.5 -97.5q0 -54 -28.5 -99t-88.5 -73t-151 -28q-99 0 -179.5 22z" />
    <glyph glyph-name="uni1EBC" unicode="&#x1ebc;" horiz-adv-x="752" 
d="M813 700l-24 -120h-452l-34 -177h412l-20 -100h-412l-35 -183h472l-23 -120h-612l136 700h592zM578.5 789q-24.5 11 -53.5 31q-22 14 -32.5 19.5t-24.5 5.5q-26 0 -30 -27l-6 -35h-110l11 58q8 41 34.5 64t67.5 23q38 0 62.5 -11t53.5 -31q22 -14 32.5 -19.5t24.5 -5.5
q25 0 30 27l6 35h110l-11 -58q-8 -41 -34.5 -64t-67.5 -23q-38 0 -62.5 11z" />
    <glyph glyph-name="uni1EBD" unicode="&#x1ebd;" horiz-adv-x="727" 
d="M256.5 27.5q-78.5 37.5 -116.5 98.5t-38 131q0 85 42.5 154.5t117.5 109t169 39.5q93 0 162.5 -32.5t106.5 -90t37 -130.5q0 -34 -7 -66h-487q10 -59 69.5 -97.5t159.5 -38.5q58 0 110.5 11.5t79.5 27.5l-24 -120q-25 -14 -77 -24t-112 -10q-114 0 -192.5 37.5zM598 321
q-3 56 -43.5 96t-116.5 40q-41 0 -81 -16.5t-69 -47.5t-37 -72h347zM509.5 639q-24.5 11 -53.5 31q-22 14 -32.5 19.5t-24.5 5.5q-26 0 -30 -27l-6 -35h-110l11 58q8 41 34.5 64t67.5 23q38 0 62.5 -11t53.5 -31q22 -14 32.5 -19.5t24.5 -5.5q25 0 30 27l6 35h110l-11 -58
q-8 -41 -34.5 -64t-67.5 -23q-38 0 -62.5 11z" />
    <glyph glyph-name="Ygrave" unicode="&#x1ef2;" horiz-adv-x="820" 
d="M465 0h-140l30 155l-254 545h146l190 -415h6l352 415h166l-466 -545zM651 768h-13l-275 52l33 118h40l236 -113z" />
    <glyph glyph-name="ygrave" unicode="&#x1ef3;" horiz-adv-x="653" 
d="M246 -190h-155l172 253l-177 487h143l122 -350h5l238 350h155zM573 618h-13l-275 52l33 118h40l236 -113z" />
    <glyph glyph-name="uni1EF8" unicode="&#x1ef8;" horiz-adv-x="820" 
d="M465 0h-140l30 155l-254 545h146l190 -415h6l352 415h166l-466 -545zM569.5 789q-24.5 11 -53.5 31q-22 14 -32.5 19.5t-24.5 5.5q-26 0 -30 -27l-6 -35h-110l11 58q8 41 34.5 64t67.5 23q38 0 62.5 -11t53.5 -31q22 -14 32.5 -19.5t24.5 -5.5q25 0 30 27l6 35h110
l-11 -58q-8 -41 -34.5 -64t-67.5 -23q-38 0 -62.5 11z" />
    <glyph glyph-name="uni1EF9" unicode="&#x1ef9;" horiz-adv-x="653" 
d="M246 -190h-155l172 253l-177 487h143l122 -350h5l238 350h155zM475.5 639q-24.5 11 -53.5 31q-22 14 -32.5 19.5t-24.5 5.5q-26 0 -30 -27l-6 -35h-110l11 58q8 41 34.5 64t67.5 23q38 0 62.5 -11t53.5 -31q22 -14 32.5 -19.5t24.5 -5.5q25 0 30 27l6 35h110l-11 -58
q-8 -41 -34.5 -64t-67.5 -23q-38 0 -62.5 11z" />
    <glyph glyph-name="endash" unicode="&#x2013;" horiz-adv-x="765" 
d="M760 260h-655l21 110h655z" />
    <glyph glyph-name="emdash" unicode="&#x2014;" horiz-adv-x="1063" 
d="M1058 260h-953l21 110h953z" />
    <glyph glyph-name="quoteleft" unicode="&#x2018;" horiz-adv-x="322" 
d="M203 436q-22 26 -22 74q0 104 47 159.5t130 55.5h25l-21 -105h-38q-41 0 -65 -21t-29 -58h3h2q16 19 43 19q29 0 46 -17.5t17 -47.5q0 -37 -22 -61t-56 -24q-38 0 -60 26z" />
    <glyph glyph-name="quoteright" unicode="&#x2019;" horiz-adv-x="322" 
d="M159 410l21 105h38q41 0 65 21t29 58h-3h-2q-16 -19 -43 -19q-29 0 -46 17.5t-17 47.5q0 37 22 61t56 24q38 0 60 -26t22 -74q0 -104 -47 -159.5t-130 -55.5h-25z" />
    <glyph glyph-name="quotesinglbase" unicode="&#x201a;" horiz-adv-x="225" 
d="M0 -175l21 105h38q41 0 65 21t29 58h-3h-2q-16 -19 -43 -19q-29 0 -46 17.5t-17 47.5q0 37 22 61t56 24q38 0 60 -26t22 -74q0 -104 -47 -159.5t-130 -55.5h-25z" />
    <glyph glyph-name="quotedblleft" unicode="&#x201c;" horiz-adv-x="517" 
d="M203 436q-22 26 -22 74q0 104 47 159.5t130 55.5h25l-21 -105h-38q-41 0 -65 -21t-29 -58h3h2q16 19 43 19q29 0 46 -17.5t17 -47.5q0 -37 -22 -61t-56 -24q-38 0 -60 26zM398 436q-22 26 -22 74q0 104 47 159.5t130 55.5h25l-21 -105h-38q-41 0 -65 -21t-29 -58h3h2
q16 19 43 19q29 0 46 -17.5t17 -47.5q0 -37 -22 -61t-56 -24q-38 0 -60 26z" />
    <glyph glyph-name="quotedblright" unicode="&#x201d;" horiz-adv-x="517" 
d="M159 410l21 105h38q41 0 65 21t29 58h-3h-2q-16 -19 -43 -19q-29 0 -46 17.5t-17 47.5q0 37 22 61t56 24q38 0 60 -26t22 -74q0 -104 -47 -159.5t-130 -55.5h-25zM354 410l21 105h38q41 0 65 21t29 58h-3h-2q-16 -19 -43 -19q-29 0 -46 17.5t-17 47.5q0 37 22 61t56 24
q38 0 60 -26t22 -74q0 -104 -47 -159.5t-130 -55.5h-25z" />
    <glyph glyph-name="quotedblbase" unicode="&#x201e;" horiz-adv-x="420" 
d="M0 -175l21 105h38q41 0 65 21t29 58h-3h-2q-16 -19 -43 -19q-29 0 -46 17.5t-17 47.5q0 37 22 61t56 24q38 0 60 -26t22 -74q0 -104 -47 -159.5t-130 -55.5h-25zM195 -175l21 105h38q41 0 65 21t29 58h-3h-2q-16 -19 -43 -19q-29 0 -46 17.5t-17 47.5q0 37 22 61t56 24
q38 0 60 -26t22 -74q0 -104 -47 -159.5t-130 -55.5h-25z" />
    <glyph glyph-name="dagger" unicode="&#x2020;" horiz-adv-x="615" 
d="M323 -190h-125l118 610l-207 -12l23 117l202 -12l40 207h125l-40 -207l208 12l-23 -117l-203 12z" />
    <glyph glyph-name="daggerdbl" unicode="&#x2021;" horiz-adv-x="615" 
d="M323 -190h-125l32 169l-169 -12l24 121l164 -12l67 344l-207 -12l23 117l202 -12l40 207h125l-40 -207l208 12l-23 -117l-203 12l-67 -344l170 12l-24 -121l-165 12z" />
    <glyph glyph-name="bullet" unicode="&#x2022;" horiz-adv-x="448" 
d="M204 228.5q-26 25.5 -26 66.5q0 49 32 80.5t82 31.5q43 0 69 -25.5t26 -66.5q0 -49 -32 -80.5t-82 -31.5q-43 0 -69 25.5z" />
    <glyph glyph-name="ellipsis" unicode="&#x2026;" horiz-adv-x="838" 
d="M62 10q-21 20 -21 49q0 33 26 57t64 24q33 0 54 -20t21 -49q0 -33 -26 -57t-64 -24q-33 0 -54 20zM369 10q-21 20 -21 49q0 33 26 57t64 24q33 0 54 -20t21 -49q0 -33 -26 -57t-64 -24q-33 0 -54 20zM676 10q-21 20 -21 49q0 33 26 57t64 24q33 0 54 -20t21 -49
q0 -33 -26 -57t-64 -24q-33 0 -54 20z" />
    <glyph glyph-name="perthousand" unicode="&#x2030;" horiz-adv-x="1359" 
d="M186.5 409q-48.5 43 -48.5 109q0 55 25.5 99t70 68.5t99.5 24.5q82 0 130.5 -43t48.5 -109q0 -55 -25.5 -99t-70 -68.5t-99.5 -24.5q-82 0 -130.5 43zM324 0h-127l554 700h127zM380.5 480.5q26.5 26.5 26.5 69.5q0 32 -21 52t-53 20q-37 0 -63.5 -26.5t-26.5 -69.5
q0 -32 21 -52t53 -20q37 0 63.5 26.5zM596.5 33q-48.5 43 -48.5 109q0 55 25.5 99t70 68.5t99.5 24.5q82 0 130.5 -43t48.5 -109q0 -55 -25.5 -99t-70 -68.5t-99.5 -24.5q-82 0 -130.5 43zM1026.5 33q-48.5 43 -48.5 109q0 55 25.5 99t70 68.5t99.5 24.5q82 0 130.5 -43
t48.5 -109q0 -55 -25.5 -99t-70 -68.5t-99.5 -24.5q-82 0 -130.5 43zM790.5 104.5q26.5 26.5 26.5 69.5q0 32 -21 52t-53 20q-37 0 -63.5 -26.5t-26.5 -69.5q0 -32 21 -52t53 -20q37 0 63.5 26.5zM1220.5 104.5q26.5 26.5 26.5 69.5q0 32 -21 52t-53 20q-37 0 -63.5 -26.5
t-26.5 -69.5q0 -32 21 -52t53 -20q37 0 63.5 26.5z" />
    <glyph glyph-name="guilsinglleft" unicode="&#x2039;" horiz-adv-x="390" 
d="M360 34h-134l-134 238l227 238h150l-237 -248z" />
    <glyph glyph-name="guilsinglright" unicode="&#x203a;" horiz-adv-x="390" 
d="M180 34h-150l237 248l-128 228h134l134 -238z" />
    <glyph glyph-name="fraction" unicode="&#x2044;" horiz-adv-x="236" 
d="M-17 0h-128l544 700h128z" />
    <glyph glyph-name="uni2070" unicode="&#x2070;" horiz-adv-x="460" 
d="M204.5 485q-50.5 45 -50.5 118q0 60 27 107t74 73.5t105 26.5q86 0 136.5 -45t50.5 -118q0 -60 -27 -107t-74 -73.5t-105 -26.5q-86 0 -136.5 45zM388 533q24 15 39 43.5t15 67.5q0 40 -21.5 64t-57.5 24q-26 0 -50 -15t-39 -43.5t-15 -67.5q0 -40 21.5 -64t57.5 -24
q26 0 50 15z" />
    <glyph glyph-name="uni2074" unicode="&#x2074;" horiz-adv-x="395" 
d="M424 450h-105l16 80h-212l11 60l198 210h118l-193 -204l-1 -6h90l26 88h96l-17 -88h53l-11 -60h-53z" />
    <glyph glyph-name="uni2075" unicode="&#x2075;" horiz-adv-x="373" 
d="M208 453q-48 13 -74 29l15 77q24 -15 66 -27t82 -12q33 0 49 12t16 31q0 18 -21 29.5t-64 11.5q-28 0 -52 -4.5t-36 -10.5l-23 18l47 193h267l-16 -80h-187l-14 -61q25 5 46 5q79 0 118 -32t39 -78q0 -29 -18.5 -55t-54 -42.5t-85.5 -16.5q-52 0 -100 13z" />
    <glyph glyph-name="uni2076" unicode="&#x2076;" horiz-adv-x="383" 
d="M171.5 473q-45.5 33 -45.5 79q0 23 14.5 48.5t53.5 62.5l144 137h119l-141 -134l-1 -4q75 -1 116.5 -32.5t41.5 -76.5q0 -49 -41.5 -81t-116.5 -32q-98 0 -143.5 33zM359 530q16 12 16 32q0 19 -19.5 31.5t-61.5 12.5q-33 0 -49 -12t-16 -32q0 -19 19.5 -31.5t61.5 -12.5
q33 0 49 12z" />
    <glyph glyph-name="uni2077" unicode="&#x2077;" horiz-adv-x="353" 
d="M280 450h-118l187 270h-190l16 80h318l-12 -60z" />
    <glyph glyph-name="uni2078" unicode="&#x2078;" horiz-adv-x="454" 
d="M236.5 455q-46.5 15 -66.5 38t-20 47q0 39 31.5 60.5t82.5 21.5l2 6q-43 5 -68 28t-25 54q0 41 42 70.5t124 29.5q75 0 123.5 -16t70.5 -41t22 -52q0 -42 -32.5 -65.5t-92.5 -23.5l-1 -6q40 -8 61 -28t21 -48q0 -37 -36.5 -63.5t-115.5 -26.5q-76 0 -122.5 15zM434 659
q18 12 18 29q0 19 -26.5 33t-81.5 14q-38 0 -56 -12t-18 -29q0 -19 26.5 -33t81.5 -14q38 0 56 12zM400.5 524.5q15.5 9.5 15.5 22.5q0 16 -23 28t-77 12q-31 0 -46.5 -9.5t-15.5 -22.5q0 -16 23 -28t77 -12q31 0 46.5 9.5z" />
    <glyph glyph-name="uni2079" unicode="&#x2079;" horiz-adv-x="417" 
d="M203 450l129 128v5q-88 0 -132 31.5t-44 77.5q0 49 44 83.5t126 34.5q70 0 116 -16.5t67.5 -43t21.5 -55.5q0 -22 -15.5 -46.5t-58.5 -66.5l-137 -132h-117zM411 650q19 13 19 33t-25 34.5t-77 14.5q-37 0 -56 -13.5t-19 -33.5t25 -34t77 -14q37 0 56 13z" />
    <glyph glyph-name="uni2080" unicode="&#x2080;" horiz-adv-x="460" 
d="M107.5 -65q-50.5 45 -50.5 118q0 60 27 107t74 73.5t105 26.5q86 0 136.5 -45t50.5 -118q0 -60 -27 -107t-74 -73.5t-105 -26.5q-86 0 -136.5 45zM291 -17q24 15 39 43.5t15 67.5q0 40 -21.5 64t-57.5 24q-26 0 -50 -15t-39 -43.5t-15 -67.5q0 -40 21.5 -64t57.5 -24
q26 0 50 15z" />
    <glyph glyph-name="uni2081" unicode="&#x2081;" horiz-adv-x="363" 
d="M40 -100l16 80h95l29 150h-95l14 73h55q48 0 57 47h97l-52 -270h88l-16 -80h-288z" />
    <glyph glyph-name="uni2082" unicode="&#x2082;" horiz-adv-x="395" 
d="M35 -100l14 73l127 72q65 37 88 56t23 39q0 18 -16.5 29.5t-49.5 11.5q-31 0 -71.5 -11.5t-71.5 -25.5l16 84q25 12 65 22t81 10q78 0 117 -29t39 -72q0 -35 -32 -65t-109 -73l-65 -36l-1 -5h166l-16 -80h-304z" />
    <glyph glyph-name="uni2083" unicode="&#x2083;" horiz-adv-x="388" 
d="M110.5 -97.5q-47.5 12.5 -73.5 27.5l16 78q25 -15 66.5 -26.5t81.5 -11.5q32 0 48 12t16 31q0 18 -18.5 29.5t-61.5 11.5q-44 0 -66 -6l10 52l97 65l1 5h-140l16 80h293l-10 -50l-127 -85l-1 -5q54 -7 82.5 -36t28.5 -68q0 -30 -18.5 -56.5t-55.5 -43t-89 -16.5
q-48 0 -95.5 12.5z" />
    <glyph glyph-name="uni2084" unicode="&#x2084;" horiz-adv-x="395" 
d="M327 -100h-105l16 80h-212l11 60l198 210h118l-193 -204l-1 -6h90l26 88h96l-17 -88h53l-11 -60h-53z" />
    <glyph glyph-name="uni2085" unicode="&#x2085;" horiz-adv-x="373" 
d="M111 -97q-48 13 -74 29l15 77q24 -15 66 -27t82 -12q33 0 49 12t16 31q0 18 -21 29.5t-64 11.5q-28 0 -52 -4.5t-36 -10.5l-23 18l47 193h267l-16 -80h-187l-14 -61q25 5 46 5q79 0 118 -32t39 -78q0 -29 -18.5 -55t-54 -42.5t-85.5 -16.5q-52 0 -100 13z" />
    <glyph glyph-name="uni2086" unicode="&#x2086;" horiz-adv-x="384" 
d="M75.5 -77q-45.5 33 -45.5 79q0 23 14.5 48.5t53.5 62.5l144 137h119l-141 -134l-1 -4q75 -1 116.5 -32.5t41.5 -76.5q0 -49 -41.5 -81t-116.5 -32q-98 0 -143.5 33zM263 -20q16 12 16 32q0 19 -19.5 31.5t-61.5 12.5q-33 0 -49 -12t-16 -32q0 -19 19.5 -31.5t61.5 -12.5
q33 0 49 12z" />
    <glyph glyph-name="uni2087" unicode="&#x2087;" horiz-adv-x="354" 
d="M184 -100h-118l187 270h-190l16 80h318l-12 -60z" />
    <glyph glyph-name="uni2088" unicode="&#x2088;" horiz-adv-x="454" 
d="M139.5 -95q-46.5 15 -66.5 38t-20 47q0 39 31.5 60.5t82.5 21.5l2 6q-43 5 -68 28t-25 54q0 41 42 70.5t124 29.5q75 0 123.5 -16t70.5 -41t22 -52q0 -42 -32.5 -65.5t-92.5 -23.5l-1 -6q40 -8 61 -28t21 -48q0 -37 -36.5 -63.5t-115.5 -26.5q-76 0 -122.5 15zM337 109
q18 12 18 29q0 19 -26.5 33t-81.5 14q-38 0 -56 -12t-18 -29q0 -19 26.5 -33t81.5 -14q38 0 56 12zM303.5 -25.5q15.5 9.5 15.5 22.5q0 16 -23 28t-77 12q-31 0 -46.5 -9.5t-15.5 -22.5q0 -16 23 -28t77 -12q31 0 46.5 9.5z" />
    <glyph glyph-name="uni2089" unicode="&#x2089;" horiz-adv-x="417" 
d="M106 -100l129 128v5q-88 0 -132 31.5t-44 77.5q0 49 44 83.5t126 34.5q70 0 116 -16.5t67.5 -43t21.5 -55.5q0 -22 -15.5 -46.5t-58.5 -66.5l-137 -132h-117zM314 100q19 13 19 33t-25 34.5t-77 14.5q-37 0 -56 -13.5t-19 -33.5t25 -34t77 -14q37 0 56 13z" />
    <glyph glyph-name="uni20A9" unicode="&#x20a9;" horiz-adv-x="1197" 
d="M1116 700h147l-116 -245h108l-16 -80h-130l-38 -82h152l-15 -80h-175l-101 -213h-197l-34 539h-7l-242 -539h-187l-21 213h-173l15 80h150l-8 82h-126l16 80h102l-24 245h137l49 -578h6l262 578h149l36 -578h6z" />
    <glyph glyph-name="Euro" unicode="&#x20ac;" horiz-adv-x="906" 
d="M810.5 680q93.5 -30 145.5 -67l-26 -133q-42 42 -128 77t-193 35q-92 0 -162 -33.5t-109 -90.5h360l-15 -80h-379q-5 -27 -5 -50q0 -8 2 -26h367l-15 -80h-325q34 -57 103 -90.5t167 -33.5q73 0 138 18.5t99 41.5l-24 -133q-27 -17 -84 -31t-127 -14q-118 0 -208 31
t-147 85.5t-80 125.5h-104l15 80h75v12q0 29 5 64h-65l15 80h73q45 111 157.5 176.5t270.5 65.5q110 0 203.5 -30z" />
    <glyph glyph-name="uni20B4" unicode="&#x20b4;" horiz-adv-x="829" 
d="M859 440l-16 -80h-719l16 80h525q28 26 28 58q0 24 -23.5 45.5t-76.5 35.5t-136 14q-74 0 -142.5 -17t-110.5 -37l25 127q39 17 106.5 31.5t141.5 14.5q124 0 206.5 -27.5t122 -69t39.5 -84.5q0 -26 -10 -50t-26 -41h50zM98 223l15 80h719l-15 -80h-532q-10 -13 -10 -31
q0 -36 52.5 -60.5t171.5 -24.5q72 0 138 12.5t103 28.5l-24 -125q-34 -13 -97.5 -24t-135.5 -11q-123 0 -204 27t-118.5 66.5t-37.5 78.5q0 38 18 63h-43z" />
    <glyph glyph-name="uni20B8" unicode="&#x20b8;" horiz-adv-x="770" 
d="M143 610l18 90h690l-18 -90h-690zM386 445h-275l17 90h690l-17 -90h-275l-86 -445h-140z" />
    <glyph glyph-name="uni20B9" unicode="&#x20b9;" 
d="M819 590h-166l-1 -4q37 -31 48 -76h104l-16 -80h-87q-10 -54 -46 -97t-96 -68t-138 -25h-23l-1 -5l245 -235h-178l-251 240h-107l22 110h286q55 0 92.5 21.5t52.5 58.5h-416l16 80h406q-11 35 -48 57.5t-94 22.5h-249l22 110h645z" />
    <glyph glyph-name="uni20BA" unicode="&#x20ba;" horiz-adv-x="730" 
d="M762 283q-22 -146 -132 -214.5t-278 -68.5h-222l44 226l-130 -46l17 85l129 46l15 73l-130 -46l17 85l129 46l45 231h140l-35 -178l252 89l-16 -85l-252 -89l-15 -73l253 89l-17 -85l-252 -89l-32 -164h75q104 0 166.5 37t90.5 131h138z" />
    <glyph glyph-name="uni20BD" unicode="&#x20bd;" horiz-adv-x="842" 
d="M647 700q79 0 135 -24.5t84.5 -66.5t28.5 -94q0 -104 -66 -164.5t-191 -60.5h-342l-13 -67h355l-20 -100h-354l-24 -123h-140l24 123h-71l20 100h70l13 67h-70l19 100h71l60 310h411zM619 390q62 0 94.5 28t32.5 76q0 37 -31 61.5t-92 24.5h-271l-37 -190h304z" />
    <glyph glyph-name="uni20BF" unicode="&#x20bf;" horiz-adv-x="832" 
d="M808.5 386q-69.5 -38 -192.5 -38l-2 -7q88 -5 134 -45.5t46 -101.5q0 -83 -61.5 -137t-176.5 -57l-23 -120h-110l23 120h-130l-24 -120h-110l24 120h-121l136 700h121l23 120h110l-23 -120h131l23 120h110l-24 -125q90 -15 138 -64t48 -108q0 -99 -69.5 -137zM595 398
q63 0 96.5 26t33.5 68q0 36 -32.5 62t-96.5 26h-259l-35 -182h293zM618 274q-33 24 -97 24h-239l-34 -178h281q62 0 92 25.5t30 70.5q0 34 -33 58z" />
    <glyph glyph-name="uni2116" unicode="&#x2116;" horiz-adv-x="1322" 
d="M1041 402.5q-49 44.5 -49 113.5q0 55 26.5 99.5t72.5 69.5t102 25q83 0 132 -44.5t49 -113.5q0 -55 -26.5 -99.5t-72.5 -69.5t-102 -25q-83 0 -132 44.5zM225 0h-140l136 700h224l232 -580h7l114 580h140l-136 -700h-224l-233 580h-7zM1241.5 473q28.5 28 28.5 74
q0 34 -21.5 55t-56.5 21q-39 0 -67.5 -28t-28.5 -74q0 -34 21.5 -55t56.5 -21q39 0 67.5 28zM1303 214h-360l19 95h360z" />
    <glyph glyph-name="trademark" unicode="&#x2122;" horiz-adv-x="951" 
d="M317 370h-103v248h-119v82h341v-82h-119v-248zM737 360h-1l-136 227h-5v-217h-103v330h136l109 -186h5l106 186h133v-330h-103v217h-5z" />
    <glyph glyph-name="uni2150" unicode="&#x2150;" horiz-adv-x="953" 
d="M123 350l16 80h95l29 150h-95l14 73h55q48 0 57 47h97l-52 -270h88l-16 -80h-288zM347 0h-128l544 700h128zM803 0h-118l187 270h-190l16 80h318l-12 -60z" />
    <glyph glyph-name="uni2151" unicode="&#x2151;" horiz-adv-x="1016" 
d="M123 350l16 80h95l29 150h-95l14 73h55q48 0 57 47h97l-52 -270h88l-16 -80h-288zM347 0h-128l544 700h128zM725 0l129 128v5q-88 0 -132 31.5t-44 77.5q0 49 44 83.5t126 34.5q70 0 116 -16.5t67.5 -43t21.5 -55.5q0 -22 -15.5 -46.5t-58.5 -66.5l-137 -132h-117z
M933 200q19 13 19 33t-25 34.5t-77 14.5q-37 0 -56 -13.5t-19 -33.5t25 -34t77 -14q37 0 56 13z" />
    <glyph glyph-name="uni2153" unicode="&#x2153;" horiz-adv-x="988" 
d="M123 350l16 80h95l29 150h-95l14 73h55q48 0 57 47h97l-52 -270h88l-16 -80h-288zM347 0h-128l544 700h128zM729.5 2.5q-47.5 12.5 -73.5 27.5l16 78q25 -15 66.5 -26.5t81.5 -11.5q32 0 48 12t16 31q0 18 -18.5 29.5t-61.5 11.5q-44 0 -66 -6l10 52l97 65l1 5h-140
l16 80h293l-10 -50l-127 -85l-1 -5q54 -7 82.5 -36t28.5 -68q0 -30 -18.5 -56.5t-55.5 -43t-89 -16.5q-48 0 -95.5 12.5z" />
    <glyph glyph-name="uni2154" unicode="&#x2154;" horiz-adv-x="1019" 
d="M117 350l14 73l127 72q65 37 88 56t23 39q0 18 -16.5 29.5t-49.5 11.5q-31 0 -71.5 -11.5t-71.5 -25.5l16 84q25 12 65 22t81 10q78 0 117 -29t39 -72q0 -35 -32 -65t-109 -73l-65 -36l-1 -5h166l-16 -80h-304zM378 0h-128l544 700h128zM760.5 2.5q-47.5 12.5 -73.5 27.5
l16 78q25 -15 66.5 -26.5t81.5 -11.5q32 0 48 12t16 31q0 18 -18.5 29.5t-61.5 11.5q-44 0 -66 -6l10 52l97 65l1 5h-140l16 80h293l-10 -50l-127 -85l-1 -5q54 -7 82.5 -36t28.5 -68q0 -30 -18.5 -56.5t-55.5 -43t-89 -16.5q-48 0 -95.5 12.5z" />
    <glyph glyph-name="uni2155" unicode="&#x2155;" horiz-adv-x="974" 
d="M123 350l16 80h95l29 150h-95l14 73h55q48 0 57 47h97l-52 -270h88l-16 -80h-288zM347 0h-128l544 700h128zM731 3q-48 13 -74 29l15 77q24 -15 66 -27t82 -12q33 0 49 12t16 31q0 18 -21 29.5t-64 11.5q-28 0 -52 -4.5t-36 -10.5l-23 18l47 193h267l-16 -80h-187
l-14 -61q25 5 46 5q79 0 118 -32t39 -78q0 -29 -18.5 -55t-54 -42.5t-85.5 -16.5q-52 0 -100 13z" />
    <glyph glyph-name="uni2156" unicode="&#x2156;" horiz-adv-x="1005" 
d="M117 350l14 73l127 72q65 37 88 56t23 39q0 18 -16.5 29.5t-49.5 11.5q-31 0 -71.5 -11.5t-71.5 -25.5l16 84q25 12 65 22t81 10q78 0 117 -29t39 -72q0 -35 -32 -65t-109 -73l-65 -36l-1 -5h166l-16 -80h-304zM378 0h-128l544 700h128zM762 3q-48 13 -74 29l15 77
q24 -15 66 -27t82 -12q33 0 49 12t16 31q0 18 -21 29.5t-64 11.5q-28 0 -52 -4.5t-36 -10.5l-23 18l47 193h267l-16 -80h-187l-14 -61q25 5 46 5q79 0 118 -32t39 -78q0 -29 -18.5 -55t-54 -42.5t-85.5 -16.5q-52 0 -100 13z" />
    <glyph glyph-name="uni2157" unicode="&#x2157;" horiz-adv-x="998" 
d="M192.5 352.5q-47.5 12.5 -73.5 27.5l16 78q25 -15 66.5 -26.5t81.5 -11.5q32 0 48 12t16 31q0 18 -18.5 29.5t-61.5 11.5q-44 0 -66 -6l10 52l97 65l1 5h-140l16 80h293l-10 -50l-127 -85l-1 -5q54 -7 82.5 -36t28.5 -68q0 -30 -18.5 -56.5t-55.5 -43t-89 -16.5
q-48 0 -95.5 12.5zM371 0h-128l544 700h128zM755 3q-48 13 -74 29l15 77q24 -15 66 -27t82 -12q33 0 49 12t16 31q0 18 -21 29.5t-64 11.5q-28 0 -52 -4.5t-36 -10.5l-23 18l47 193h267l-16 -80h-187l-14 -61q25 5 46 5q79 0 118 -32t39 -78q0 -29 -18.5 -55t-54 -42.5
t-85.5 -16.5q-52 0 -100 13z" />
    <glyph glyph-name="uni2158" unicode="&#x2158;" horiz-adv-x="1006" 
d="M410 350h-105l16 80h-212l11 60l198 210h118l-193 -204l-1 -6h90l26 88h96l-17 -88h53l-11 -60h-53zM379 0h-128l544 700h128zM763 3q-48 13 -74 29l15 77q24 -15 66 -27t82 -12q33 0 49 12t16 31q0 18 -21 29.5t-64 11.5q-28 0 -52 -4.5t-36 -10.5l-23 18l47 193h267
l-16 -80h-187l-14 -61q25 5 46 5q79 0 118 -32t39 -78q0 -29 -18.5 -55t-54 -42.5t-85.5 -16.5q-52 0 -100 13z" />
    <glyph glyph-name="uni2159" unicode="&#x2159;" horiz-adv-x="983" 
d="M123 350l16 80h95l29 150h-95l14 73h55q48 0 57 47h97l-52 -270h88l-16 -80h-288zM347 0h-128l544 700h128zM694.5 23q-45.5 33 -45.5 79q0 23 14.5 48.5t53.5 62.5l144 137h119l-141 -134l-1 -4q75 -1 116.5 -32.5t41.5 -76.5q0 -49 -41.5 -81t-116.5 -32
q-98 0 -143.5 33zM882 80q16 12 16 32q0 19 -19.5 31.5t-61.5 12.5q-33 0 -49 -12t-16 -32q0 -19 19.5 -31.5t61.5 -12.5q33 0 49 12z" />
    <glyph glyph-name="uni215A" unicode="&#x215a;" horiz-adv-x="993" 
d="M194 353q-48 13 -74 29l15 77q24 -15 66 -27t82 -12q33 0 49 12t16 31q0 18 -21 29.5t-64 11.5q-28 0 -52 -4.5t-36 -10.5l-23 18l47 193h267l-16 -80h-187l-14 -61q25 5 46 5q79 0 118 -32t39 -78q0 -29 -18.5 -55t-54 -42.5t-85.5 -16.5q-52 0 -100 13zM357 0h-128
l544 700h128zM704.5 23q-45.5 33 -45.5 79q0 23 14.5 48.5t53.5 62.5l144 137h119l-141 -134l-1 -4q75 -1 116.5 -32.5t41.5 -76.5q0 -49 -41.5 -81t-116.5 -32q-98 0 -143.5 33zM892 80q16 12 16 32q0 19 -19.5 31.5t-61.5 12.5q-33 0 -49 -12t-16 -32q0 -19 19.5 -31.5
t61.5 -12.5q33 0 49 12z" />
    <glyph glyph-name="oneeighth" unicode="&#x215b;" horiz-adv-x="1053" 
d="M123 350l16 80h95l29 150h-95l14 73h55q48 0 57 47h97l-52 -270h88l-16 -80h-288zM347 0h-128l544 700h128zM758.5 5q-46.5 15 -66.5 38t-20 47q0 39 31.5 60.5t82.5 21.5l2 6q-43 5 -68 28t-25 54q0 41 42 70.5t124 29.5q75 0 123.5 -16t70.5 -41t22 -52
q0 -42 -32.5 -65.5t-92.5 -23.5l-1 -6q40 -8 61 -28t21 -48q0 -37 -36.5 -63.5t-115.5 -26.5q-76 0 -122.5 15zM956 209q18 12 18 29q0 19 -26.5 33t-81.5 14q-38 0 -56 -12t-18 -29q0 -19 26.5 -33t81.5 -14q38 0 56 12zM922.5 74.5q15.5 9.5 15.5 22.5q0 16 -23 28t-77 12
q-31 0 -46.5 -9.5t-15.5 -22.5q0 -16 23 -28t77 -12q31 0 46.5 9.5z" />
    <glyph glyph-name="threeeighths" unicode="&#x215c;" horiz-adv-x="1077" 
d="M192.5 352.5q-47.5 12.5 -73.5 27.5l16 78q25 -15 66.5 -26.5t81.5 -11.5q32 0 48 12t16 31q0 18 -18.5 29.5t-61.5 11.5q-44 0 -66 -6l10 52l97 65l1 5h-140l16 80h293l-10 -50l-127 -85l-1 -5q54 -7 82.5 -36t28.5 -68q0 -30 -18.5 -56.5t-55.5 -43t-89 -16.5
q-48 0 -95.5 12.5zM371 0h-128l544 700h128zM782.5 5q-46.5 15 -66.5 38t-20 47q0 39 31.5 60.5t82.5 21.5l2 6q-43 5 -68 28t-25 54q0 41 42 70.5t124 29.5q75 0 123.5 -16t70.5 -41t22 -52q0 -42 -32.5 -65.5t-92.5 -23.5l-1 -6q40 -8 61 -28t21 -48q0 -37 -36.5 -63.5
t-115.5 -26.5q-76 0 -122.5 15zM980 209q18 12 18 29q0 19 -26.5 33t-81.5 14q-38 0 -56 -12t-18 -29q0 -19 26.5 -33t81.5 -14q38 0 56 12zM946.5 74.5q15.5 9.5 15.5 22.5q0 16 -23 28t-77 12q-31 0 -46.5 -9.5t-15.5 -22.5q0 -16 23 -28t77 -12q31 0 46.5 9.5z" />
    <glyph glyph-name="fiveeighths" unicode="&#x215d;" horiz-adv-x="1063" 
d="M194 353q-48 13 -74 29l15 77q24 -15 66 -27t82 -12q33 0 49 12t16 31q0 18 -21 29.5t-64 11.5q-28 0 -52 -4.5t-36 -10.5l-23 18l47 193h267l-16 -80h-187l-14 -61q25 5 46 5q79 0 118 -32t39 -78q0 -29 -18.5 -55t-54 -42.5t-85.5 -16.5q-52 0 -100 13zM357 0h-128
l544 700h128zM768.5 5q-46.5 15 -66.5 38t-20 47q0 39 31.5 60.5t82.5 21.5l2 6q-43 5 -68 28t-25 54q0 41 42 70.5t124 29.5q75 0 123.5 -16t70.5 -41t22 -52q0 -42 -32.5 -65.5t-92.5 -23.5l-1 -6q40 -8 61 -28t21 -48q0 -37 -36.5 -63.5t-115.5 -26.5q-76 0 -122.5 15z
M966 209q18 12 18 29q0 19 -26.5 33t-81.5 14q-38 0 -56 -12t-18 -29q0 -19 26.5 -33t81.5 -14q38 0 56 12zM932.5 74.5q15.5 9.5 15.5 22.5q0 16 -23 28t-77 12q-31 0 -46.5 -9.5t-15.5 -22.5q0 -16 23 -28t77 -12q31 0 46.5 9.5z" />
    <glyph glyph-name="seveneighths" unicode="&#x215e;" horiz-adv-x="1047" 
d="M266 350h-118l187 270h-190l16 80h318l-12 -60zM341 0h-128l544 700h128zM752.5 5q-46.5 15 -66.5 38t-20 47q0 39 31.5 60.5t82.5 21.5l2 6q-43 5 -68 28t-25 54q0 41 42 70.5t124 29.5q75 0 123.5 -16t70.5 -41t22 -52q0 -42 -32.5 -65.5t-92.5 -23.5l-1 -6
q40 -8 61 -28t21 -48q0 -37 -36.5 -63.5t-115.5 -26.5q-76 0 -122.5 15zM950 209q18 12 18 29q0 19 -26.5 33t-81.5 14q-38 0 -56 -12t-18 -29q0 -19 26.5 -33t81.5 -14q38 0 56 12zM916.5 74.5q15.5 9.5 15.5 22.5q0 16 -23 28t-77 12q-31 0 -46.5 -9.5t-15.5 -22.5
q0 -16 23 -28t77 -12q31 0 46.5 9.5z" />
    <glyph glyph-name="uni215F" unicode="&#x215f;" horiz-adv-x="600" 
d="M123 350l16 80h95l29 150h-95l14 73h55q48 0 57 47h97l-52 -270h88l-16 -80h-288zM347 0h-128l544 700h128z" />
    <glyph glyph-name="arrowleft" unicode="&#x2190;" horiz-adv-x="995" 
d="M528 149l-67 -66l-256 252l256 252l67 -66l-133 -131v-5h515v-100h-515v-5z" />
    <glyph glyph-name="arrowup" unicode="&#x2191;" horiz-adv-x="996" 
d="M613 0h-100v510h-5l-131 -133l-66 67l252 256l252 -256l-66 -67l-131 133h-5v-510z" />
    <glyph glyph-name="arrowright" unicode="&#x2192;" horiz-adv-x="995" 
d="M910 335l-256 -252l-67 66l133 131v5h-515v100h515v5l-133 131l67 66z" />
    <glyph glyph-name="arrowdown" unicode="&#x2193;" horiz-adv-x="996" 
d="M815 256l-252 -256l-252 256l66 67l131 -133h5v510h100v-510h5l131 133z" />
    <glyph glyph-name="arrowboth" unicode="&#x2194;" horiz-adv-x="1000" 
d="M421 149l-67 -66l-256 252l256 252l67 -66l-133 -131v-5h425v5l-133 131l67 66l256 -252l-256 -252l-67 66l133 131v5h-425v-5z" />
    <glyph glyph-name="arrowupdn" unicode="&#x2195;" horiz-adv-x="996" 
d="M750 204l-252 -257l-252 256l66 68l130 -133h5v425h-5l-130 -133l-66 67l251 256l252 -256l-65 -67l-131 133h-6v-425h5l132 133z" />
    <glyph glyph-name="uni2196" unicode="&#x2196;" horiz-adv-x="1000" 
d="M765 141l-71 -71l-362 364l-3 -3v-188h-94v357h360v-94h-188l-2 -4z" />
    <glyph glyph-name="uni2197" unicode="&#x2197;" horiz-adv-x="1000" 
d="M668 434l-362 -364l-71 71l360 361l-2 4h-188v94h360v-357h-94v188z" />
    <glyph glyph-name="uni2198" unicode="&#x2198;" horiz-adv-x="1000" 
d="M765 70h-360v94h188l2 4l-360 361l71 71l362 -364l3 3v188h94v-357z" />
    <glyph glyph-name="uni2199" unicode="&#x2199;" horiz-adv-x="1000" 
d="M595 70h-360v357h94v-188l3 -3l362 364l71 -71l-360 -361l2 -4h188v-94z" />
    <glyph glyph-name="minus" unicode="&#x2212;" horiz-adv-x="620" 
d="M630 253h-510v110h510v-110z" />
    <glyph glyph-name="approxequal" unicode="&#x2248;" horiz-adv-x="648" 
d="M444.5 347q-29.5 12 -64.5 33q-26 16 -43.5 24t-37.5 8q-24 0 -37.5 -14.5t-13.5 -42.5v-15h-133v28q0 68 36.5 105t103.5 37q41 0 70.5 -12t63.5 -34q28 -16 44.5 -23.5t35.5 -7.5q24 0 37.5 14.5t13.5 42.5v15h133v-28q0 -68 -36.5 -105t-103.5 -37q-39 0 -68.5 12z
M444.5 107q-29.5 12 -64.5 33q-26 16 -43.5 24t-37.5 8q-24 0 -37.5 -14.5t-13.5 -42.5v-15h-133v28q0 68 36.5 105t103.5 37q41 0 70.5 -12t63.5 -34q28 -16 44.5 -23.5t35.5 -7.5q24 0 37.5 14.5t13.5 42.5v15h133v-28q0 -68 -36.5 -105t-103.5 -37q-39 0 -68.5 12z" />
    <glyph glyph-name="notequal" unicode="&#x2260;" horiz-adv-x="628" 
d="M628 463v-95h-175l-58 -125h233v-95h-277l-53 -113h-90l53 113h-131v95h175l58 125h-233v95h278l52 112h90l-52 -112h130z" />
    <glyph glyph-name="lessequal" unicode="&#x2264;" horiz-adv-x="680" 
d="M652 244v-107l-535 165v96l535 165v-107l-328 -101v-10zM652 0h-535v95h535v-95z" />
    <glyph glyph-name="greaterequal" unicode="&#x2265;" horiz-adv-x="712" 
d="M684 302l-535 -165v107l328 101v10l-328 101v107l535 -165v-96zM684 0h-535v95h535v-95z" />
    <glyph glyph-name="uni2460" unicode="&#x2460;" horiz-adv-x="1124" 
d="M372.5 -28.5q-109.5 56.5 -169 156t-59.5 222.5t59.5 222.5t169 156t253.5 56.5t253.5 -56.5t169 -156t59.5 -222.5t-59.5 -222.5t-169 -156t-253.5 -56.5t-253.5 56.5zM836 38q90 46 138.5 127.5t48.5 184.5t-48.5 184.5t-138.5 127.5t-210 46t-210 -46t-138.5 -127.5
t-48.5 -184.5t48.5 -184.5t138.5 -127.5t210 -46t210 46zM486 175v80h95v150h-95v73h55q25 0 36.5 11.5t11.5 35.5h97v-270h88v-80h-288z" />
    <glyph glyph-name="uni2461" unicode="&#x2461;" horiz-adv-x="1124" 
d="M372.5 -28.5q-109.5 56.5 -169 156t-59.5 222.5t59.5 222.5t169 156t253.5 56.5t253.5 -56.5t169 -156t59.5 -222.5t-59.5 -222.5t-169 -156t-253.5 -56.5t-253.5 56.5zM836 38q90 46 138.5 127.5t48.5 184.5t-48.5 184.5t-138.5 127.5t-210 46t-210 -46t-138.5 -127.5
t-48.5 -184.5t48.5 -184.5t138.5 -127.5t210 -46t210 46zM478 175v73l113 72q48 31 70 52t22 39q0 21 -15 32.5t-47 11.5t-73.5 -16.5t-74.5 -36.5v85q27 18 73.5 33t93.5 15q74 0 111 -28.5t37 -75.5q0 -34 -25.5 -62t-89.5 -69l-62 -40v-5h171v-80h-304z" />
    <glyph glyph-name="uni2462" unicode="&#x2462;" horiz-adv-x="1124" 
d="M372.5 -28.5q-109.5 56.5 -169 156t-59.5 222.5t59.5 222.5t169 156t253.5 56.5t253.5 -56.5t169 -156t59.5 -222.5t-59.5 -222.5t-169 -156t-253.5 -56.5t-253.5 56.5zM836 38q90 46 138.5 127.5t48.5 184.5t-48.5 184.5t-138.5 127.5t-210 46t-210 -46t-138.5 -127.5
t-48.5 -184.5t48.5 -184.5t138.5 -127.5t210 -46t210 46zM539.5 174q-40.5 9 -64.5 21v80q24 -11 62 -20.5t76 -9.5q39 0 57 12t18 30q0 19 -18 30.5t-57 11.5q-24 0 -45.5 -3t-32.5 -7v56l95 65v5h-150v80h293v-50l-124 -85v-2v-3q68 0 106 -30.5t38 -74.5
q0 -29 -19.5 -55.5t-58 -43t-91.5 -16.5q-44 0 -84.5 9z" />
    <glyph glyph-name="uni2463" unicode="&#x2463;" horiz-adv-x="1124" 
d="M372.5 -28.5q-109.5 56.5 -169 156t-59.5 222.5t59.5 222.5t169 156t253.5 56.5t253.5 -56.5t169 -156t59.5 -222.5t-59.5 -222.5t-169 -156t-253.5 -56.5t-253.5 56.5zM836 38q90 46 138.5 127.5t48.5 184.5t-48.5 184.5t-138.5 127.5t-210 46t-210 -46t-138.5 -127.5
t-48.5 -184.5t48.5 -184.5t138.5 -127.5t210 -46t210 46zM745 175h-105v80h-212v60l157 210h112l-153 -204v-6h96l9 88h96v-88h53v-60h-53v-80z" />
    <glyph glyph-name="uni2464" unicode="&#x2464;" horiz-adv-x="1124" 
d="M372.5 -28.5q-109.5 56.5 -169 156t-59.5 222.5t59.5 222.5t169 156t253.5 56.5t253.5 -56.5t169 -156t59.5 -222.5t-59.5 -222.5t-169 -156t-253.5 -56.5t-253.5 56.5zM836 38q90 46 138.5 127.5t48.5 184.5t-48.5 184.5t-138.5 127.5t-210 46t-210 -46t-138.5 -127.5
t-48.5 -184.5t48.5 -184.5t138.5 -127.5t210 -46t210 46zM541 174q-41 9 -61 21v80q20 -11 56.5 -20.5t76.5 -9.5q42 0 61 12t19 30t-19.5 30t-62.5 12q-31 0 -57.5 -7t-40.5 -16l-25 15l10 204h267v-80h-187l-3 -66q23 9 61 9q79 0 120.5 -32t41.5 -81q0 -28 -19 -53.5
t-57 -41t-91 -15.5q-49 0 -90 9z" />
    <glyph glyph-name="uni2465" unicode="&#x2465;" horiz-adv-x="1124" 
d="M372.5 -28.5q-109.5 56.5 -169 156t-59.5 222.5t59.5 222.5t169 156t253.5 56.5t253.5 -56.5t169 -156t59.5 -222.5t-59.5 -222.5t-169 -156t-253.5 -56.5t-253.5 56.5zM836 38q90 46 138.5 127.5t48.5 184.5t-48.5 184.5t-138.5 127.5t-210 46t-210 -46t-138.5 -127.5
t-48.5 -184.5t48.5 -184.5t138.5 -127.5t210 -46t210 46zM483.5 197q-43.5 32 -43.5 81q0 21 10 44t37 54l129 149h116l-115 -133v-5h23q69 0 108.5 -32t39.5 -77q0 -49 -43.5 -81t-130.5 -32t-130.5 32zM670 255q18 12 18 32t-18 32t-56 12t-56 -12t-18 -32t18 -32t56 -12
t56 12z" />
    <glyph glyph-name="uni2466" unicode="&#x2466;" horiz-adv-x="1124" 
d="M372.5 -28.5q-109.5 56.5 -169 156t-59.5 222.5t59.5 222.5t169 156t253.5 56.5t253.5 -56.5t169 -156t59.5 -222.5t-59.5 -222.5t-169 -156t-253.5 -56.5t-253.5 56.5zM836 38q90 46 138.5 127.5t48.5 184.5t-48.5 184.5t-138.5 127.5t-210 46t-210 -46t-138.5 -127.5
t-48.5 -184.5t48.5 -184.5t138.5 -127.5t210 -46t210 46zM638 175h-110l135 270h-198v80h318v-60z" />
    <glyph glyph-name="uni2467" unicode="&#x2467;" horiz-adv-x="1124" 
d="M372.5 -28.5q-109.5 56.5 -169 156t-59.5 222.5t59.5 222.5t169 156t253.5 56.5t253.5 -56.5t169 -156t59.5 -222.5t-59.5 -222.5t-169 -156t-253.5 -56.5t-253.5 56.5zM836 38q90 46 138.5 127.5t48.5 184.5t-48.5 184.5t-138.5 127.5t-210 46t-210 -46t-138.5 -127.5
t-48.5 -184.5t48.5 -184.5t138.5 -127.5t210 -46t210 46zM488.5 192.5q-44.5 27.5 -44.5 66.5q0 35 26.5 57.5t72.5 22.5v6q-49 1 -79 26t-30 61q0 42 47.5 72.5t144.5 30.5t144.5 -30.5t47.5 -72.5q0 -36 -30 -61t-79 -26v-6q46 0 72.5 -22.5t26.5 -57.5q0 -39 -44.5 -66.5
t-137.5 -27.5t-137.5 27.5zM696 385q22 13 22 31t-22 31t-70 13t-70 -13t-22 -31t22 -31t70 -13t70 13zM689 250q19 10 19 26t-19 26t-63 10t-63 -10t-19 -26t19 -26t63 -10t63 10z" />
    <glyph glyph-name="uni2468" unicode="&#x2468;" horiz-adv-x="1124" 
d="M372.5 -28.5q-109.5 56.5 -169 156t-59.5 222.5t59.5 222.5t169 156t253.5 56.5t253.5 -56.5t169 -156t59.5 -222.5t-59.5 -222.5t-169 -156t-253.5 -56.5t-253.5 56.5zM836 38q90 46 138.5 127.5t48.5 184.5t-48.5 184.5t-138.5 127.5t-210 46t-210 -46t-138.5 -127.5
t-48.5 -184.5t48.5 -184.5t138.5 -127.5t210 -46t210 46zM532 175l105 126v5h-17q-89 0 -134.5 32.5t-45.5 79.5q0 50 47.5 83.5t141.5 33.5q93 0 140.5 -33t47.5 -81q0 -20 -11 -41.5t-43 -59.5l-121 -145h-110zM696 375.5q21 13.5 21 34.5q0 20 -21.5 33.5t-66.5 13.5
q-46 0 -67.5 -13.5t-21.5 -33.5q0 -21 21.5 -34.5t67.5 -13.5t67 13.5z" />
    <glyph glyph-name="uni2469" unicode="&#x2469;" horiz-adv-x="1124" 
d="M372.5 -28.5q-109.5 56.5 -169 156t-59.5 222.5t59.5 222.5t169 156t253.5 56.5t253.5 -56.5t169 -156t59.5 -222.5t-59.5 -222.5t-169 -156t-253.5 -56.5t-253.5 56.5zM836 38q90 46 138.5 127.5t48.5 184.5t-48.5 184.5t-138.5 127.5t-210 46t-210 -46t-138.5 -127.5
t-48.5 -184.5t48.5 -184.5t138.5 -127.5t210 -46t210 46zM669.5 188.5q-43.5 23.5 -67 65.5t-23.5 96t23.5 96t67 65.5t99.5 23.5t99.5 -23.5t67 -65.5t23.5 -96t-23.5 -96t-67 -65.5t-99.5 -23.5t-99.5 23.5zM314 175v78h79v152h-79v73h39q25 0 36.5 11.5t11.5 35.5h87
v-272h75v-78h-249zM833.5 271.5q25.5 28.5 25.5 78.5t-25.5 78.5t-64.5 28.5t-64.5 -28.5t-25.5 -78.5t25.5 -78.5t64.5 -28.5t64.5 28.5z" />
    <glyph glyph-name="uni24EA" unicode="&#x24ea;" horiz-adv-x="1124" 
d="M372.5 -28.5q-109.5 56.5 -169 156t-59.5 222.5t59.5 222.5t169 156t253.5 56.5t253.5 -56.5t169 -156t59.5 -222.5t-59.5 -222.5t-169 -156t-253.5 -56.5t-253.5 56.5zM836 38q90 46 138.5 127.5t48.5 184.5t-48.5 184.5t-138.5 127.5t-210 46t-210 -46t-138.5 -127.5
t-48.5 -184.5t48.5 -184.5t138.5 -127.5t210 -46t210 46zM484 216.5q-53 51.5 -53 133.5t53 133.5t142 51.5t142 -51.5t53 -133.5t-53 -133.5t-142 -51.5t-142 51.5zM690.5 271.5q25.5 28.5 25.5 78.5t-25.5 78.5t-64.5 28.5t-64.5 -28.5t-25.5 -78.5t25.5 -78.5t64.5 -28.5
t64.5 28.5z" />
    <glyph glyph-name="uni24F5" unicode="&#x24f5;" horiz-adv-x="1134" 
d="M371 -29.5q-110 55.5 -168.5 154t-58.5 225.5t58.5 225.5t168.5 154t260 55.5t260 -55.5t168.5 -154t58.5 -225.5t-58.5 -225.5t-168.5 -154t-260 -55.5t-260 55.5zM874.5 -7.5q103.5 52.5 158.5 145.5t55 212t-55 212t-158.5 145.5t-243.5 52.5t-243.5 -52.5
t-158.5 -145.5t-55 -212t55 -212t158.5 -145.5t243.5 -52.5t243.5 52.5zM404.5 14.5q-96.5 49.5 -148.5 136.5t-52 199t52 199t148.5 136.5t226.5 49.5t226.5 -49.5t148.5 -136.5t52 -199t-52 -199t-148.5 -136.5t-226.5 -49.5t-226.5 49.5zM841 36q90 46 138.5 128
t48.5 186t-48.5 186t-138.5 128t-210 46t-210 -46t-138.5 -128t-48.5 -186t48.5 -186t138.5 -128t210 -46t210 46zM491 175v80h95v150h-95v73h55q25 0 36.5 11.5t11.5 35.5h97v-270h88v-80h-288z" />
    <glyph glyph-name="uni24F6" unicode="&#x24f6;" horiz-adv-x="1134" 
d="M371 -29.5q-110 55.5 -168.5 154t-58.5 225.5t58.5 225.5t168.5 154t260 55.5t260 -55.5t168.5 -154t58.5 -225.5t-58.5 -225.5t-168.5 -154t-260 -55.5t-260 55.5zM874.5 -7.5q103.5 52.5 158.5 145.5t55 212t-55 212t-158.5 145.5t-243.5 52.5t-243.5 -52.5
t-158.5 -145.5t-55 -212t55 -212t158.5 -145.5t243.5 -52.5t243.5 52.5zM404.5 14.5q-96.5 49.5 -148.5 136.5t-52 199t52 199t148.5 136.5t226.5 49.5t226.5 -49.5t148.5 -136.5t52 -199t-52 -199t-148.5 -136.5t-226.5 -49.5t-226.5 49.5zM841 36q90 46 138.5 128
t48.5 186t-48.5 186t-138.5 128t-210 46t-210 -46t-138.5 -128t-48.5 -186t48.5 -186t138.5 -128t210 -46t210 46zM483 175v73l113 72q48 31 70 52t22 39q0 21 -15 32.5t-47 11.5t-73.5 -16.5t-74.5 -36.5v85q27 18 73.5 33t93.5 15q74 0 111 -28.5t37 -75.5
q0 -34 -25.5 -62t-89.5 -69l-62 -40v-5h171v-80h-304z" />
    <glyph glyph-name="uni24F7" unicode="&#x24f7;" horiz-adv-x="1134" 
d="M371 -29.5q-110 55.5 -168.5 154t-58.5 225.5t58.5 225.5t168.5 154t260 55.5t260 -55.5t168.5 -154t58.5 -225.5t-58.5 -225.5t-168.5 -154t-260 -55.5t-260 55.5zM874.5 -7.5q103.5 52.5 158.5 145.5t55 212t-55 212t-158.5 145.5t-243.5 52.5t-243.5 -52.5
t-158.5 -145.5t-55 -212t55 -212t158.5 -145.5t243.5 -52.5t243.5 52.5zM404.5 14.5q-96.5 49.5 -148.5 136.5t-52 199t52 199t148.5 136.5t226.5 49.5t226.5 -49.5t148.5 -136.5t52 -199t-52 -199t-148.5 -136.5t-226.5 -49.5t-226.5 49.5zM841 36q90 46 138.5 128
t48.5 186t-48.5 186t-138.5 128t-210 46t-210 -46t-138.5 -128t-48.5 -186t48.5 -186t138.5 -128t210 -46t210 46zM544.5 174q-40.5 9 -64.5 21v80q24 -11 62 -20.5t76 -9.5q39 0 57 12t18 30q0 19 -18 30.5t-57 11.5q-24 0 -45.5 -3t-32.5 -7v56l95 65v5h-150v80h293v-50
l-124 -85v-2v-3q68 0 106 -30.5t38 -74.5q0 -29 -19.5 -55.5t-58 -43t-91.5 -16.5q-44 0 -84.5 9z" />
    <glyph glyph-name="uni24F8" unicode="&#x24f8;" horiz-adv-x="1134" 
d="M371 -29.5q-110 55.5 -168.5 154t-58.5 225.5t58.5 225.5t168.5 154t260 55.5t260 -55.5t168.5 -154t58.5 -225.5t-58.5 -225.5t-168.5 -154t-260 -55.5t-260 55.5zM874.5 -7.5q103.5 52.5 158.5 145.5t55 212t-55 212t-158.5 145.5t-243.5 52.5t-243.5 -52.5
t-158.5 -145.5t-55 -212t55 -212t158.5 -145.5t243.5 -52.5t243.5 52.5zM404.5 14.5q-96.5 49.5 -148.5 136.5t-52 199t52 199t148.5 136.5t226.5 49.5t226.5 -49.5t148.5 -136.5t52 -199t-52 -199t-148.5 -136.5t-226.5 -49.5t-226.5 49.5zM841 36q90 46 138.5 128
t48.5 186t-48.5 186t-138.5 128t-210 46t-210 -46t-138.5 -128t-48.5 -186t48.5 -186t138.5 -128t210 -46t210 46zM750 175h-105v80h-212v60l157 210h112l-153 -204v-6h96l9 88h96v-88h53v-60h-53v-80z" />
    <glyph glyph-name="uni24F9" unicode="&#x24f9;" horiz-adv-x="1134" 
d="M371 -29.5q-110 55.5 -168.5 154t-58.5 225.5t58.5 225.5t168.5 154t260 55.5t260 -55.5t168.5 -154t58.5 -225.5t-58.5 -225.5t-168.5 -154t-260 -55.5t-260 55.5zM874.5 -7.5q103.5 52.5 158.5 145.5t55 212t-55 212t-158.5 145.5t-243.5 52.5t-243.5 -52.5
t-158.5 -145.5t-55 -212t55 -212t158.5 -145.5t243.5 -52.5t243.5 52.5zM404.5 14.5q-96.5 49.5 -148.5 136.5t-52 199t52 199t148.5 136.5t226.5 49.5t226.5 -49.5t148.5 -136.5t52 -199t-52 -199t-148.5 -136.5t-226.5 -49.5t-226.5 49.5zM841 36q90 46 138.5 128
t48.5 186t-48.5 186t-138.5 128t-210 46t-210 -46t-138.5 -128t-48.5 -186t48.5 -186t138.5 -128t210 -46t210 46zM546 174q-41 9 -61 21v80q20 -11 56.5 -20.5t76.5 -9.5q42 0 61 12t19 30t-19.5 30t-62.5 12q-31 0 -57.5 -7t-40.5 -16l-25 15l10 204h267v-80h-187l-3 -66
q23 9 61 9q79 0 120.5 -32t41.5 -81q0 -28 -19 -53.5t-57 -41t-91 -15.5q-49 0 -90 9z" />
    </font>
</defs>
</svg>
