<?xml version="1.0" standalone="no"?>
<!DOCTYPE svg PUBLIC "-//W3C//DTD SVG 1.1//EN" "http://www.w3.org/Graphics/SVG/1.1/DTD/svg11.dtd" >
<svg xmlns="http://www.w3.org/2000/svg" xmlns:xlink="http://www.w3.org/1999/xlink" version="1.1">
<metadata>
Created by FontForge 20201107 at Mon Feb  6 14:54:41 2023
 By 
Copyright (c) 2020-2021 by TypeType. All rights reserved. Special version for DaFont.
</metadata>
<defs>
<font id="TTRunsTrial-Light" horiz-adv-x="690" >
  <font-face 
    font-family="TT Runs Trial Light"
    font-weight="300"
    font-stretch="normal"
    units-per-em="1000"
    panose-1="2 0 0 0 0 0 0 0 6 7"
    ascent="800"
    descent="-200"
    x-height="530"
    cap-height="700"
    bbox="-462 -290 2160 938"
    underline-thickness="60"
    underline-position="-185"
    unicode-range="U+000D-FB03"
  />
<missing-glyph horiz-adv-x="900" 
d="M100 0v284h45v-139h33v139h50v31h-128v126l19 -61h23l34 106l33 -106h23l54 170h-32l-34 -110l-35 110h-19l-35 -110l-31 103v157h700v-150h-110v-170h110v-91q-6 13 -19.5 20t-30.5 7q-27 0 -43.5 -14.5t-16.5 -34.5q0 -22 14.5 -32.5t39.5 -17.5q17 -5 25.5 -9.5
t8.5 -13.5q0 -21 -28 -21q-14 0 -21 7t-7 18h-33q0 -24 17 -39.5t44 -15.5q17 0 30.5 6.5t19.5 13.5v-163h-700zM311 380h33v62h24l35 -62h37l-40 67q36 17 36 50q0 22 -16 37.5t-41 15.5h-68v-170zM469 550v-170h33v170h-33zM580 519v-139h32v139h50v31h-132v-31h50z
M344 473v46h35q10 0 17 -6.5t7 -16.5q0 -12 -7.5 -17.5t-16.5 -5.5h-35zM800 483h-78v36h78v-36zM800 411h-78v41h78v-41zM387.5 167.5q22.5 24.5 22.5 61.5t-23 62t-59 25t-59 -25t-23 -62t22.5 -61.5t59.5 -24.5t59.5 24.5zM633 162q19 19 19 47v106h-32v-106
q0 -15 -9.5 -25t-25.5 -10q-17 0 -26.5 10.5t-9.5 24.5v106h-32v-106q0 -28 19.5 -47t48.5 -19t48 19zM800 224q-15 14 -46 22q-16 5 -23 9t-7 12q0 9 7.5 14.5t18.5 5.5q10 0 18 -7t8 -18h24v-38zM291.5 190q-14.5 16 -14.5 39q0 25 14 40.5t37 15.5q24 0 37.5 -15.5
t13.5 -40.5q0 -23 -14.5 -39t-36.5 -16t-36.5 16z" />
    <glyph glyph-name="ff" unicode="ff" horiz-adv-x="629" 
d="M110 0v488h-110v42h110v54q0 71 36.5 108.5t99.5 37.5q42 0 81 -14v-45q-37 17 -78 17q-94 0 -94 -108v-50h277v54q0 71 36.5 108.5t99.5 37.5q42 0 81 -14v-45q-37 17 -78 17q-94 0 -94 -108v-50h159v-42h-159v-488h-45v488h-277v-488h-45z" />
    <glyph glyph-name="fi" unicode="fi" horiz-adv-x="567" 
d="M110 0v488h-110v42h110v25q0 86 56 130.5t153 44.5q75 0 158 -19v-45q-84 22 -158 22q-164 0 -164 -137v-21h322v-530h-45v488h-277v-488h-45z" />
    <glyph glyph-name="ffi" unicode="ffi" horiz-adv-x="889" 
d="M110 0v488h-110v42h110v54q0 71 36.5 108.5t99.5 37.5q42 0 81 -14v-45q-37 17 -78 17q-94 0 -94 -108v-50h277v25q0 86 56 130.5t153 44.5q75 0 158 -19v-45q-84 22 -158 22q-164 0 -164 -137v-21h322v-530h-45v488h-277v-488h-45v488h-277v-488h-45z" />
    <glyph glyph-name="f_f_j" unicode="ffj" horiz-adv-x="889" 
d="M584 -185v44q40 -16 77 -16q44 0 68.5 28t24.5 82v535h-277v-488h-45v488h-277v-488h-45v488h-110v42h110v54q0 71 36.5 108.5t99.5 37.5q42 0 81 -14v-45q-37 17 -78 17q-94 0 -94 -108v-50h277v25q0 86 56 130.5t153 44.5q75 0 158 -19v-45q-84 22 -158 22
q-164 0 -164 -137v-21h322v-577q0 -76 -35.5 -114.5t-101.5 -38.5q-35 0 -78 15z" />
    <glyph glyph-name="f_j" unicode="fj" horiz-adv-x="567" 
d="M262 -185v44q40 -16 77 -16q44 0 68.5 28t24.5 82v535h-277v-488h-45v488h-110v42h110v25q0 86 56 130.5t153 44.5q75 0 158 -19v-45q-84 22 -158 22q-164 0 -164 -137v-21h322v-577q0 -76 -35.5 -114.5t-101.5 -38.5q-35 0 -78 15z" />
    <glyph glyph-name="f_t" unicode="ft" horiz-adv-x="682" 
d="M471 30q-39 40 -39 118v340h-277v-488h-45v488h-110v42h110v54q0 71 36.5 108.5t99.5 37.5q41 0 81 -13v-46q-37 17 -78 17q-94 0 -94 -108v-50h233q24 0 34 10.5t10 36.5v93h45v-140h170v-42h-170v-342q0 -56 27.5 -85t71.5 -29q33 0 71 12v-42q-39 -12 -72 -12
q-65 0 -104 40z" />
    <glyph glyph-name=".notdef" horiz-adv-x="900" 
d="M100 0v284h45v-139h33v139h50v31h-128v126l19 -61h23l34 106l33 -106h23l54 170h-32l-34 -110l-35 110h-19l-35 -110l-31 103v157h700v-150h-110v-170h110v-91q-6 13 -19.5 20t-30.5 7q-27 0 -43.5 -14.5t-16.5 -34.5q0 -22 14.5 -32.5t39.5 -17.5q17 -5 25.5 -9.5
t8.5 -13.5q0 -21 -28 -21q-14 0 -21 7t-7 18h-33q0 -24 17 -39.5t44 -15.5q17 0 30.5 6.5t19.5 13.5v-163h-700zM311 380h33v62h24l35 -62h37l-40 67q36 17 36 50q0 22 -16 37.5t-41 15.5h-68v-170zM469 550v-170h33v170h-33zM580 519v-139h32v139h50v31h-132v-31h50z
M344 473v46h35q10 0 17 -6.5t7 -16.5q0 -12 -7.5 -17.5t-16.5 -5.5h-35zM800 483h-78v36h78v-36zM800 411h-78v41h78v-41zM387.5 167.5q22.5 24.5 22.5 61.5t-23 62t-59 25t-59 -25t-23 -62t22.5 -61.5t59.5 -24.5t59.5 24.5zM633 162q19 19 19 47v106h-32v-106
q0 -15 -9.5 -25t-25.5 -10q-17 0 -26.5 10.5t-9.5 24.5v106h-32v-106q0 -28 19.5 -47t48.5 -19t48 19zM800 224q-15 14 -46 22q-16 5 -23 9t-7 12q0 9 7.5 14.5t18.5 5.5q10 0 18 -7t8 -18h24v-38zM291.5 190q-14.5 16 -14.5 39q0 25 14 40.5t37 15.5q24 0 37.5 -15.5
t13.5 -40.5q0 -23 -14.5 -39t-36.5 -16t-36.5 16z" />
    <glyph glyph-name=".null" horiz-adv-x="0" 
 />
    <glyph glyph-name="nonmarkingreturn" unicode="&#xd;" horiz-adv-x="0" 
 />
    <glyph glyph-name="space" unicode=" " horiz-adv-x="310" 
 />
    <glyph glyph-name="exclam" unicode="!" horiz-adv-x="246" 
d="M136 179h-25l-10 155v386h45v-386zM92.5 4.5q-12.5 11.5 -12.5 26.5t12.5 26.5t30.5 11.5t30.5 -11.5t12.5 -26.5t-12.5 -26.5t-30.5 -11.5t-30.5 11.5z" />
    <glyph glyph-name="quotedbl" unicode="&#x22;" horiz-adv-x="323" 
d="M120 460h-45v260h45v-260zM248 460h-45v260h45v-260z" />
    <glyph glyph-name="numbersign" unicode="#" horiz-adv-x="720" 
d="M685 516v-40h-122l-55 -242h140v-40h-148l-44 -194h-40l44 194h-272l-44 -194h-40l44 194h-113v40h121l55 242h-139v40h148l41 184h40l-41 -184h272l41 184h40l-41 -184h113zM196 234h272l55 242h-272z" />
    <glyph glyph-name="dollar" unicode="$" horiz-adv-x="742" 
d="M651.5 82.5q-30.5 -40.5 -93 -66t-155.5 -26.5v-110h-45v111q-80 3 -148.5 20.5t-104.5 38.5v50q41 -26 118 -46.5t164 -20.5q84 0 140 19.5t82 51t26 67.5q0 48 -36 77.5t-89 45t-143 33.5q-102 21 -162 40t-102.5 56.5t-42.5 100.5q0 47 31.5 87.5t98.5 67.5t168 30
v111h45v-110q86 -2 158.5 -22t110.5 -44v-48q-39 27 -115.5 49t-169.5 22q-97 0 -160 -20.5t-91.5 -53t-28.5 -69.5q0 -46 35 -74.5t87 -43.5t141 -33q103 -21 164.5 -40.5t104.5 -58t43 -103.5q0 -48 -30.5 -88.5z" />
    <glyph glyph-name="percent" unicode="%" horiz-adv-x="838" 
d="M90.5 442q-45.5 44 -45.5 112t45.5 112t117.5 44t117.5 -44t45.5 -112t-45.5 -112t-117.5 -44t-117.5 44zM229 0h-48l428 700h48zM294.5 469q34.5 34 34.5 85t-34.5 85t-86.5 34t-86.5 -34t-34.5 -85t34.5 -85t86.5 -34t86.5 34zM512.5 34q-45.5 44 -45.5 112t45.5 112
t117.5 44t117.5 -44t45.5 -112t-45.5 -112t-117.5 -44t-117.5 44zM716.5 61q34.5 34 34.5 85t-34.5 85t-86.5 34t-86.5 -34t-34.5 -85t34.5 -85t86.5 -34t86.5 34z" />
    <glyph glyph-name="ampersand" unicode="&#x26;" horiz-adv-x="734" 
d="M744 0h-69l-164 129q-61 -60 -134.5 -99.5t-152.5 -39.5q-87 0 -133 39t-46 104q0 82 63.5 133t130.5 75l-27 21q-71 55 -104 98t-33 97q0 41 27 75.5t84 56t141 21.5q71 0 135 -17.5t100 -38.5v-50q-36 24 -100 44t-135 20q-103 0 -154 -33t-51 -80q0 -43 32.5 -82
t107.5 -97l247 -193q47 47 82.5 95t55.5 82h48q-20 -36 -60.5 -92t-93.5 -110zM355 66q65 34 123 88l-203 159q-64 -21 -123.5 -66t-59.5 -107q0 -51 33 -79.5t99 -28.5t131 34z" />
    <glyph glyph-name="quotesingle" unicode="'" horiz-adv-x="195" 
d="M120 460h-45v260h45v-260z" />
    <glyph glyph-name="parenleft" unicode="(" horiz-adv-x="280" 
d="M207 -190q-107 0 -107 102v766q0 102 107 102h58v-43h-56q-64 0 -64 -64v-756q0 -64 64 -64h56v-43h-58z" />
    <glyph glyph-name="parenright" unicode=")" horiz-adv-x="280" 
d="M15 -190v43h56q64 0 64 64v756q0 64 -64 64h-56v43h58q107 0 107 -102v-766q0 -102 -107 -102h-58z" />
    <glyph glyph-name="asterisk" unicode="*" horiz-adv-x="390" 
d="M195 552l-93 -113l-30 25l90 109l-137 55l16 34l134 -54v142h40v-142l134 54l16 -34l-137 -55l90 -109l-30 -25z" />
    <glyph glyph-name="plus" unicode="+" horiz-adv-x="610" 
d="M326 69h-42v219h-224v41h224v219h42v-219h224v-41h-224v-219z" />
    <glyph glyph-name="comma" unicode="," horiz-adv-x="183" 
d="M32 -145q39 0 63.5 28t24.5 78q0 43 -17 56q-10 -24 -35 -24q-18 0 -28 10.5t-10 26.5q0 17 12 27.5t32 10.5q33 0 56 -28t23 -78q0 -64 -34 -101.5t-87 -37.5v32z" />
    <glyph glyph-name="hyphen" unicode="-" horiz-adv-x="496" 
d="M441 296h-386v43h386v-43z" />
    <glyph glyph-name="period" unicode="." horiz-adv-x="146" 
d="M42.5 4.5q-12.5 11.5 -12.5 26.5t12.5 26.5t30.5 11.5t30.5 -11.5t12.5 -26.5t-12.5 -26.5t-30.5 -11.5t-30.5 11.5z" />
    <glyph glyph-name="slash" unicode="/" horiz-adv-x="443" 
d="M45 -70h-45l398 840h45z" />
    <glyph glyph-name="zero" unicode="0" horiz-adv-x="926" 
d="M261 37.5q-88 47.5 -137 129.5t-49 183t49 183t137 129.5t202 47.5t202 -47.5t137 -129.5t49 -183t-49 -183t-137 -129.5t-202 -47.5t-202 47.5zM641 74.5q78 41.5 120.5 113.5t42.5 162t-42.5 162t-120.5 113.5t-178 41.5t-178 -41.5t-120.5 -113.5t-42.5 -162
t42.5 -162t120.5 -113.5t178 -41.5t178 41.5z" />
    <glyph glyph-name="one" unicode="1" horiz-adv-x="475" 
d="M45 0v43h188v544h-183v43h140q25 0 35.5 10.5t10.5 35.5v24h42v-657h162v-43h-395z" />
    <glyph glyph-name="two" unicode="2" horiz-adv-x="696" 
d="M65 0v42l257 159q141 88 196.5 155t55.5 136q0 47 -28 87t-81.5 64t-127.5 24q-81 0 -157.5 -29.5t-124.5 -67.5v50q43 34 118.5 62t166.5 28q88 0 151.5 -29.5t96.5 -79t33 -108.5q0 -53 -23.5 -100.5t-83.5 -102t-169 -124.5l-185 -118v-5h461v-43h-556z" />
    <glyph glyph-name="three" unicode="3" horiz-adv-x="696" 
d="M167 11.5q-74 21.5 -112 48.5v50q38 -29 112 -53t159 -24q86 0 145 23t88.5 60.5t29.5 78.5t-29.5 78.5t-88.5 60.5t-145 23q-46 0 -89 -7t-68 -16v47l348 270v6h-457v43h546v-31l-350 -271v-5q30 7 72 7q98 0 168 -29t105 -76t35 -100t-35 -100t-105.5 -76t-169.5 -29
q-85 0 -159 21.5z" />
    <glyph glyph-name="four" unicode="4" horiz-adv-x="663" 
d="M512 0h-45v203h-452v41l401 456h58l-395 -449v-5h388v249h45v-249h146v-43h-146v-203z" />
    <glyph glyph-name="five" unicode="5" horiz-adv-x="696" 
d="M172 11.5q-74 21.5 -112 48.5v50q38 -29 112 -53t159 -24q86 0 145 23t88.5 60.5t29.5 78.5q0 44 -29 80.5t-87 59t-142 22.5q-68 0 -121.5 -17.5t-77.5 -38.5h-44l29 399h469v-43h-428l-22 -302h5q23 17 75 31t118 14q96 0 164 -29t103 -76t35 -100t-35 -100t-105.5 -76
t-169.5 -29q-85 0 -159 21.5z" />
    <glyph glyph-name="six" unicode="6" horiz-adv-x="702" 
d="M182 19q-71 29 -106.5 75.5t-35.5 100.5q0 34 14.5 66.5t38.5 60.5l317 378h54l-275 -328l2 -4q24 14 69 23t100 9q98 0 167.5 -29t104.5 -76t35 -100q0 -54 -35.5 -100.5t-106 -75.5t-171.5 -29t-172 29zM501 56q60 23 89.5 60t29.5 79t-29.5 79t-89.5 60t-147 23
t-147.5 -23t-90 -60t-29.5 -79t29.5 -79t90 -60t147.5 -23t147 23z" />
    <glyph glyph-name="seven" unicode="7" horiz-adv-x="604" 
d="M206 0h-49l363 652v5h-500v43h554v-40z" />
    <glyph glyph-name="eight" unicode="8" horiz-adv-x="796" 
d="M220.5 15q-70.5 25 -103 65t-32.5 88q0 63 45 107t120 54v5q-83 12 -134 62t-51 117q0 54 35 98.5t109.5 71.5t188.5 27t188.5 -27t109.5 -71.5t35 -98.5q0 -67 -51 -117t-134 -62v-5q75 -10 120 -54t45 -107q0 -48 -32.5 -88t-103 -65t-177.5 -25t-177.5 25zM561 376
q64 22 93.5 57t29.5 77t-29.5 77.5t-93.5 57.5t-163 22t-163 -22t-93.5 -57.5t-29.5 -77.5t29.5 -77t93.5 -57t163 -22t163 22zM550.5 52.5q59.5 19.5 86.5 50.5t27 68q0 38 -27 69.5t-86.5 51t-152.5 19.5t-152.5 -19.5t-86.5 -51t-27 -69.5q0 -37 27 -68t86.5 -50.5
t152.5 -19.5t152.5 19.5z" />
    <glyph glyph-name="nine" unicode="9" horiz-adv-x="747" 
d="M273 0l275 316l-2 5q-28 -15 -73.5 -24.5t-103.5 -9.5q-106 0 -180.5 30t-111.5 78.5t-37 103.5q0 54 37.5 102.5t113 78.5t183.5 30t183 -30t112.5 -78.5t37.5 -102.5q0 -63 -57 -129l-322 -370h-55zM532 354.5q65 24.5 96.5 63.5t31.5 81t-31.5 80.5t-96.5 63
t-158 24.5q-94 0 -158.5 -24.5t-96.5 -63t-32 -80.5t32 -81t96.5 -63.5t158.5 -24.5q93 0 158 24.5z" />
    <glyph glyph-name="colon" unicode=":" horiz-adv-x="166" 
d="M52.5 4.5q-12.5 11.5 -12.5 26.5t12.5 26.5t30.5 11.5t30.5 -11.5t12.5 -26.5t-12.5 -26.5t-30.5 -11.5t-30.5 11.5zM52.5 472.5q-12.5 11.5 -12.5 26.5t12.5 26.5t30.5 11.5t30.5 -11.5t12.5 -26.5t-12.5 -26.5t-30.5 -11.5t-30.5 11.5z" />
    <glyph glyph-name="semicolon" unicode=";" horiz-adv-x="203" 
d="M52.5 472.5q-12.5 11.5 -12.5 26.5t12.5 26.5t30.5 11.5t30.5 -11.5t12.5 -26.5t-12.5 -26.5t-30.5 -11.5t-30.5 11.5zM42 -145q39 0 63.5 28t24.5 78q0 43 -17 56q-10 -24 -35 -24q-18 0 -28 10.5t-10 26.5q0 17 12 27.5t32 10.5q33 0 56 -28t23 -78q0 -64 -34 -101.5
t-87 -37.5v32z" />
    <glyph glyph-name="less" unicode="&#x3c;" horiz-adv-x="618" 
d="M548 123v-43l-498 204v42l498 204v-43l-436 -178v-8z" />
    <glyph glyph-name="equal" unicode="=" horiz-adv-x="605" 
d="M540 398h-475v41h475v-41zM540 178h-475v41h475v-41z" />
    <glyph glyph-name="greater" unicode="&#x3e;" horiz-adv-x="618" 
d="M568 284l-498 -204v43l436 178v8l-436 178v43l498 -204v-42z" />
    <glyph glyph-name="question" unicode="?" horiz-adv-x="666" 
d="M276 179v184h7q82 0 152 20t112 58.5t42 91.5q0 40 -29 75t-92 57t-158 22q-90 0 -166 -22.5t-119 -50.5v50q45 25 121.5 45.5t163.5 20.5q109 0 182.5 -27.5t108.5 -71.5t35 -96q0 -65 -49 -112.5t-122.5 -72t-143.5 -24.5v-147h-45zM268.5 4.5q-12.5 11.5 -12.5 26.5
t12.5 26.5t30.5 11.5t30.5 -11.5t12.5 -26.5t-12.5 -26.5t-30.5 -11.5t-30.5 11.5z" />
    <glyph glyph-name="at" unicode="@" horiz-adv-x="1006" 
d="M275.5 -71q-99.5 49 -152.5 133.5t-53 187.5t53 187.5t152.5 133.5t232.5 49t232.5 -50t152.5 -132t53 -178q0 -90 -43 -140t-113 -50q-51 0 -86.5 23.5t-47.5 52.5h-5q-23 -29 -67.5 -52.5t-96.5 -23.5q-58 0 -102 23t-67.5 64t-23.5 93t23.5 93t67.5 64t102 23
q52 0 95 -22t63 -49v61h40v-215q0 -40 30.5 -69t74.5 -29q52 0 84 39.5t32 113.5q0 87 -48 161t-138.5 118t-211.5 44t-211 -44.5t-138.5 -120.5t-48.5 -168t48.5 -168t138.5 -120.5t211 -44.5q78 0 138.5 17t86.5 38v-42q-30 -19 -91 -34.5t-134 -15.5q-133 0 -232.5 49z
M582 134.5q43 27.5 63 61.5v108q-20 34 -63 61.5t-94 27.5q-70 0 -112 -40t-42 -103t42 -103t112 -40q51 0 94 27.5z" />
    <glyph glyph-name="A" unicode="A" horiz-adv-x="784" 
d="M784 0h-48l-109 211h-470l-109 -211h-48l363 700h58zM389 658l-209 -404h424l-209 404h-6z" />
    <glyph glyph-name="B" unicode="B" horiz-adv-x="796" 
d="M566 345q60 -11 95 -56t35 -109q0 -51 -27.5 -92t-83 -64.5t-135.5 -23.5h-350v700h361q83 0 140.5 -24t86 -65t28.5 -91q0 -68 -40 -114.5t-110 -55.5v-5zM145 657v-286h316q103 0 155.5 40t52.5 103t-52.5 103t-155.5 40h-316zM448 43q100 0 150.5 39.5t50.5 103.5
q0 63 -50 102.5t-148 39.5h-306v-285h303z" />
    <glyph glyph-name="C" unicode="C" horiz-adv-x="856" 
d="M266.5 37.5q-94.5 47.5 -145.5 129.5t-51 183q0 102 52 184t151 129t235 47q88 0 163.5 -23t114.5 -52v-50q-37 31 -112.5 56.5t-165.5 25.5q-121 0 -209.5 -42t-135 -114t-46.5 -161q0 -88 45.5 -160.5t130 -114.5t195.5 -42q84 0 156.5 20.5t110.5 45.5v-50
q-39 -22 -112.5 -40.5t-154.5 -18.5q-127 0 -221.5 47.5z" />
    <glyph glyph-name="D" unicode="D" horiz-adv-x="886" 
d="M100 0v700h278q141 0 239.5 -44.5t148.5 -123.5t50 -182t-50 -182t-148.5 -123.5t-239.5 -44.5h-278zM378 43q126 0 214 39.5t132.5 109t44.5 158.5t-44.5 158.5t-132.5 109t-214 39.5h-233v-614h233z" />
    <glyph glyph-name="E" unicode="E" horiz-adv-x="712" 
d="M145 336v-293h507v-43h-552v700h532v-43h-487v-278h447v-43h-447z" />
    <glyph glyph-name="F" unicode="F" horiz-adv-x="672" 
d="M632 700v-43h-487v-308h442v-43h-442v-306h-45v700h532z" />
    <glyph glyph-name="G" unicode="G" horiz-adv-x="908" 
d="M273 37q-99 47 -151 129t-52 184q0 103 52.5 184.5t155 128.5t245.5 47q95 0 177.5 -23t132.5 -52v-49q-47 32 -129.5 56.5t-180.5 24.5q-128 0 -219.5 -42t-139 -114t-47.5 -161t46.5 -161t135 -114t209.5 -42q78 0 152.5 20.5t117.5 46.5v181h-328v43h373v-251
q-49 -32 -136 -57.5t-179 -25.5q-136 0 -235 47z" />
    <glyph glyph-name="H" unicode="H" horiz-adv-x="839" 
d="M694 379v321h45v-700h-45v336h-549v-336h-45v700h45v-321h549z" />
    <glyph glyph-name="I" unicode="I" horiz-adv-x="696" 
d="M661 700v-43h-291v-614h291v-43h-626v43h290v614h-290v43h626z" />
    <glyph glyph-name="J" unicode="J" horiz-adv-x="546" 
d="M20 20v45q78 -32 163 -32q107 0 162.5 53t55.5 160v454h45v-456q0 -124 -67.5 -189t-193.5 -65q-85 0 -165 30z" />
    <glyph glyph-name="K" unicode="K" horiz-adv-x="736" 
d="M145 0h-45v700h45v-312l514 312h77l-543 -330v-5l509 -365h-72l-485 348v-348z" />
    <glyph glyph-name="L" unicode="L" horiz-adv-x="672" 
d="M652 0h-552v700h45v-657h507v-43z" />
    <glyph glyph-name="M" unicode="M" horiz-adv-x="1041" 
d="M891 660l-370 -680l-371 680h-5v-660h-45v700h78l340 -623h5l340 623h78v-700h-45v660h-5z" />
    <glyph glyph-name="N" unicode="N" horiz-adv-x="836" 
d="M145 0h-45v700h72l514 -658h5v658h45v-700h-72l-514 658h-5v-658z" />
    <glyph glyph-name="O" unicode="O" horiz-adv-x="1016" 
d="M273 37q-99 47 -151 129t-52 184t52 184t151 129t235 47t235 -47t151 -129t52 -184t-52 -184t-151 -129t-235 -47t-235 47zM717.5 75q88.5 42 135 114t46.5 161t-46.5 161t-135 114t-209.5 42t-209.5 -42t-135 -114t-46.5 -161t46.5 -161t135 -114t209.5 -42t209.5 42z
" />
    <glyph glyph-name="P" unicode="P" horiz-adv-x="798" 
d="M475 700q132 0 200 -57.5t68 -153.5q0 -97 -68 -154t-200 -57h-330v-278h-45v700h375zM475 321q109 0 165 45.5t56 122.5t-56 122.5t-165 45.5h-330v-336h330z" />
    <glyph glyph-name="Q" unicode="Q" horiz-adv-x="1016" 
d="M898 172.5q-48 -79.5 -137 -126.5l70 -116h-50l-59 98q-95 -38 -214 -38q-136 0 -235 47t-151 129t-52 184t52 184t151 129t235 47t235 -47t151 -129t52 -184q0 -98 -48 -177.5zM737 85q78 42 120 112t42 154q0 88 -46.5 160t-135 114t-209.5 42t-209.5 -42t-135 -114
t-46.5 -160q0 -89 46.5 -161.5t135 -114.5t209.5 -42q108 0 190 34l-86 143h50z" />
    <glyph glyph-name="R" unicode="R" horiz-adv-x="816" 
d="M599 298q53 -10 81.5 -48.5t28.5 -104.5v-145h-45v145q0 64 -39 98.5t-116 34.5h-364v-278h-45v700h378q131 0 199.5 -56.5t68.5 -150.5q0 -74 -39.5 -124t-107.5 -65v-6zM478 321q109 0 165 46t56 122t-56 122t-165 46h-333v-336h333z" />
    <glyph glyph-name="S" unicode="S" horiz-adv-x="742" 
d="M224 8.5q-78 18.5 -119 41.5v50q41 -26 118 -46.5t164 -20.5q84 0 140 19.5t82 51t26 67.5q0 48 -36 77.5t-89 45t-143 33.5q-102 21 -162 40t-102.5 56.5t-42.5 100.5q0 49 34.5 91t108 68.5t184.5 26.5q90 0 167.5 -20.5t117.5 -45.5v-48q-39 27 -115.5 49t-169.5 22
q-97 0 -160 -20.5t-91.5 -53t-28.5 -69.5q0 -46 35 -74.5t87 -43.5t141 -33q103 -21 164.5 -40.5t104.5 -58t43 -103.5q0 -49 -31.5 -90t-96.5 -66t-162 -25q-90 0 -168 18.5z" />
    <glyph glyph-name="T" unicode="T" horiz-adv-x="676" 
d="M15 700h646v-43h-300v-657h-45v657h-301v43z" />
    <glyph glyph-name="U" unicode="U" horiz-adv-x="829" 
d="M241 25q-72 35 -109 99.5t-37 151.5v424h45v-420q0 -116 71 -181.5t204 -65.5q132 0 203 65.5t71 181.5v420h45v-424q0 -87 -37 -151.5t-109 -99.5t-173 -35q-102 0 -174 35z" />
    <glyph glyph-name="V" unicode="V" horiz-adv-x="774" 
d="M417 0h-60l-357 700h50l335 -658h4l335 658h50z" />
    <glyph glyph-name="W" unicode="W" horiz-adv-x="1202" 
d="M355 0h-67l-278 700h48l261 -657h5l247 657h59l248 -657h5l261 657h48l-278 -700h-67l-244 647h-5z" />
    <glyph glyph-name="X" unicode="X" horiz-adv-x="677" 
d="M58 0h-58l310 357v4l-295 339h58l263 -303h5l263 303h58l-295 -339v-4l310 -357h-58l-278 321h-5z" />
    <glyph glyph-name="Y" unicode="Y" horiz-adv-x="733" 
d="M389 0h-45v160l-364 540h50l334 -493h5l334 493h50l-364 -540v-160z" />
    <glyph glyph-name="Z" unicode="Z" horiz-adv-x="673" 
d="M648 0h-618v42l534 610v5h-517v43h581v-42l-534 -610v-5h554v-43z" />
    <glyph glyph-name="bracketleft" unicode="[" horiz-adv-x="280" 
d="M265 -190h-165v970h165v-43h-120v-884h120v-43z" />
    <glyph glyph-name="backslash" unicode="\" horiz-adv-x="443" 
d="M443 -70h-45l-398 840h45z" />
    <glyph glyph-name="bracketright" unicode="]" horiz-adv-x="280" 
d="M180 -190h-165v43h120v884h-120v43h165v-970z" />
    <glyph glyph-name="asciicircum" unicode="^" horiz-adv-x="469" 
d="M80 450h-50l181 250h47l181 -250h-50l-151 209h-7z" />
    <glyph glyph-name="underscore" unicode="_" horiz-adv-x="515" 
d="M535 -164h-555v43h555v-43z" />
    <glyph glyph-name="grave" unicode="`" horiz-adv-x="322" 
d="M281 590l-251 72l3 54h19l240 -96l-8 -30h-3z" />
    <glyph glyph-name="a" unicode="a" horiz-adv-x="681" 
d="M109.5 32q-54.5 42 -54.5 110q0 75 64.5 119.5t204.5 44.5q91 0 141 11t68 30t18 47q0 27 -21.5 50.5t-68 38.5t-119.5 15q-75 0 -146 -20t-112 -45v47q36 23 107 41.5t153 18.5q87 0 143.5 -21t82.5 -54.5t26 -73.5v-391h-45v98q-38 -41 -114 -74.5t-170 -33.5
q-103 0 -157.5 42zM442 69.5q74 37.5 109 84.5v164q-8 -20 -66.5 -36t-162.5 -16q-117 0 -169.5 -34t-52.5 -89q0 -50 43.5 -80.5t131.5 -30.5q93 0 167 37.5z" />
    <glyph glyph-name="b" unicode="b" horiz-adv-x="745" 
d="M238 23q-65 33 -98 74h-5v-97h-45v720h45v-287h5q33 41 99 74t144 33q88 0 155.5 -35.5t104.5 -98.5t37 -141t-37 -141t-105.5 -98.5t-157.5 -35.5q-77 0 -142 33zM511.5 62q59.5 30 91.5 83t32 120q0 66 -32 119.5t-90.5 83.5t-136.5 30q-54 0 -102.5 -20.5t-84 -51
t-54.5 -62.5v-197q31 -51 95.5 -93t142.5 -42q79 0 138.5 30z" />
    <glyph glyph-name="c" unicode="c" horiz-adv-x="667" 
d="M209 26.5q-71 36.5 -110 99t-39 139.5t39 139.5t111.5 99t167.5 36.5q73 0 135 -18t99 -42v-47q-36 26 -98.5 45.5t-135.5 19.5q-83 0 -145 -30.5t-95 -83.5t-33 -119t33 -119t93.5 -83.5t141.5 -30.5q75 0 132 18t87 40v-46q-28 -20 -87 -37t-132 -17q-93 0 -164 36.5z
" />
    <glyph glyph-name="d" unicode="d" horiz-adv-x="746" 
d="M208 25.5q-68 35.5 -105.5 98.5t-37.5 141t37 141t104.5 98.5t155.5 35.5q79 0 145 -33t99 -74h5v287h45v-720h-45v97h-5q-33 -41 -98 -74t-142 -33q-90 0 -158 35.5zM515.5 74q64.5 42 95.5 93v197q-31 51 -96.5 92.5t-145.5 41.5q-78 0 -136.5 -30t-90.5 -83.5
t-32 -119.5q0 -67 32 -120t91.5 -83t139.5 -30q78 0 142.5 42z" />
    <glyph glyph-name="e" unicode="e" horiz-adv-x="698" 
d="M210.5 26q-72.5 36 -111.5 98.5t-39 140.5t37 140.5t103.5 98.5t152.5 36q83 0 148 -35.5t101 -98t36 -141.5v-25h-534q6 -60 41 -107t95.5 -74t139.5 -27q69 0 128 19t89 43v-47q-30 -22 -89 -39.5t-128 -17.5q-97 0 -169.5 36zM593 282q-3 61 -34 110.5t-84 77.5
t-120 28q-72 0 -128 -28t-88 -77.5t-35 -110.5h489z" />
    <glyph glyph-name="f" unicode="f" horiz-adv-x="307" 
d="M110 0v488h-110v42h110v54q0 71 36.5 108.5t99.5 37.5q42 0 81 -14v-45q-37 17 -78 17q-94 0 -94 -108v-50h159v-42h-159v-488h-45z" />
    <glyph glyph-name="g" unicode="g" horiz-adv-x="744" 
d="M217.5 -184.5q-62.5 15.5 -94.5 34.5v47q33 -21 95 -38t135 -17q80 0 137.5 28.5t88 79.5t30.5 118v49h-5q-33 -41 -98.5 -74t-142.5 -33q-91 0 -158.5 34t-103.5 94.5t-36 136.5t36 136.5t103 94.5t156 34q79 0 145 -33t99 -74h5v97h45v-462q0 -78 -36 -139t-104 -95
t-161 -34q-73 0 -135.5 15.5zM470.5 72.5q48.5 20.5 84 51t54.5 62.5v178q-19 32 -55 62.5t-85 51t-104 20.5q-79 0 -136.5 -28t-88 -78.5t-30.5 -116.5t30.5 -116.5t89 -78.5t138.5 -28q54 0 102.5 20.5z" />
    <glyph glyph-name="h" unicode="h" 
d="M90 0v720h45v-298h5q27 45 88 81.5t138 36.5q114 0 176.5 -59t62.5 -162v-319h-45v319q0 83 -51.5 131t-145.5 48q-56 0 -102.5 -24t-78.5 -60.5t-47 -73.5v-340h-45z" />
    <glyph glyph-name="i" unicode="i" horiz-adv-x="225" 
d="M81.5 613q-11.5 10 -11.5 25t11.5 25t31.5 10q19 0 30.5 -10t11.5 -25t-11.5 -25t-30.5 -10q-20 0 -31.5 10zM90 0v530h2h21h21h1v-530h-45z" />
    <glyph glyph-name="j" unicode="j" horiz-adv-x="225" 
d="M81.5 613q-11.5 10 -11.5 25t11.5 25t31.5 10q19 0 30.5 -10t11.5 -25t-11.5 -25t-30.5 -10q-20 0 -31.5 10zM-80 -185v44q40 -16 77 -16q44 0 68.5 28t24.5 82v577h3h20h20h2v-577q0 -76 -35.5 -114.5t-101.5 -38.5q-35 0 -78 15z" />
    <glyph glyph-name="k" unicode="k" horiz-adv-x="583" 
d="M135 0h-45v720h45v-415l373 225h75l-401 -243l401 -287h-69l-379 271v-271z" />
    <glyph glyph-name="l" unicode="l" horiz-adv-x="225" 
d="M135 0h-45v720h45v-720z" />
    <glyph glyph-name="m" unicode="m" horiz-adv-x="1067" 
d="M90 0v529h45v-104h5q24 43 78.5 78.5t123.5 35.5q78 0 128 -34.5t69 -80.5h5q28 44 86 79.5t131 35.5q106 0 163.5 -57t57.5 -161v-321h-45v321q0 82 -47.5 129t-131.5 47q-55 0 -97.5 -23.5t-68 -53.5t-36.5 -54q4 -18 4 -45v-321h-45v321q0 80 -48 128t-128 48
q-49 0 -90.5 -23.5t-70.5 -59t-43 -71.5v-343h-45z" />
    <glyph glyph-name="n" unicode="n" 
d="M90 0v530h45v-108h5q27 45 88 81.5t138 36.5q114 0 176.5 -59t62.5 -162v-319h-45v319q0 83 -51.5 131t-145.5 48q-56 0 -102.5 -24t-78.5 -60.5t-47 -73.5v-340h-45z" />
    <glyph glyph-name="o" unicode="o" horiz-adv-x="770" 
d="M212.5 26.5q-73.5 36.5 -113 99t-39.5 139.5t39.5 139.5t113 99t172.5 36.5t172.5 -36.5t113 -99t39.5 -139.5t-39.5 -139.5t-113 -99t-172.5 -36.5t-172.5 36.5zM535 62.5q63 30.5 96.5 83.5t33.5 119t-33.5 119t-96.5 83.5t-150 30.5t-150 -30.5t-96.5 -83.5
t-33.5 -119t33.5 -119t96.5 -83.5t150 -30.5t150 30.5z" />
    <glyph glyph-name="p" unicode="p" horiz-adv-x="744" 
d="M90 -190v720h45v-97h5q33 41 98 74t142 33q89 0 157 -35.5t105 -98.5t37 -141t-37 -140.5t-104.5 -98.5t-154.5 -36q-78 0 -144 33t-99 74h-5v-287h-45zM514 62q58 30 89 83t31 120q0 68 -31.5 120.5t-90 82.5t-136.5 30q-54 0 -102.5 -20.5t-84 -51t-54.5 -62.5v-197
q19 -32 55 -63t85 -51.5t104 -20.5q77 0 135 30z" />
    <glyph glyph-name="q" unicode="q" horiz-adv-x="746" 
d="M611 -190v287h-5q-33 -41 -99 -74t-145 -33q-88 0 -155.5 35.5t-104.5 98.5t-37 141t37.5 141t105.5 98.5t158 35.5q77 0 142 -33t98 -74h5v97h45v-720h-45zM471 52.5q49 20.5 85 51.5t55 63v197q-19 32 -54.5 62.5t-84 51t-102.5 20.5q-78 0 -137 -30t-91 -83t-32 -120
q0 -66 31.5 -119t90 -83.5t134.5 -30.5q56 0 105 20.5z" />
    <glyph glyph-name="r" unicode="r" horiz-adv-x="396" 
d="M90 0v530h45v-113h5q23 43 78 78t128 35h35v-42h-36q-53 0 -96 -22.5t-72 -56.5t-42 -69v-340h-45z" />
    <glyph glyph-name="s" unicode="s" horiz-adv-x="598" 
d="M171.5 5.5q-61.5 15.5 -97.5 34.5v47q36 -21 97.5 -38t135.5 -17q100 0 148 26t48 67q0 34 -27.5 55.5t-68.5 34t-111 27.5q-82 18 -131.5 33.5t-84.5 46.5t-35 80q0 59 62 98.5t196 39.5q75 0 141 -17.5t102 -38.5v-47q-37 23 -103 42t-140 19q-113 0 -163 -28t-50 -68
q0 -34 27.5 -55.5t68.5 -34t111 -27.5q82 -18 131.5 -33.5t84.5 -46.5t35 -80q0 -58 -61 -96.5t-180 -38.5q-74 0 -135.5 15.5z" />
    <glyph glyph-name="t" unicode="t" horiz-adv-x="364" 
d="M152 30q-39 40 -39 118v340h-113v42h69q24 0 34 10.5t10 36.5v93h45v-140h171v-42h-171v-342q0 -56 27.5 -85t72.5 -29q33 0 71 12v-42q-39 -12 -72 -12q-66 0 -105 40z" />
    <glyph glyph-name="u" unicode="u" 
d="M147.5 49q-62.5 59 -62.5 163v318h45v-318q0 -83 52 -131.5t146 -48.5q55 0 101.5 24t78.5 60.5t47 73.5v340h45v-530h-45v108h-5q-27 -45 -87.5 -81.5t-137.5 -36.5q-115 0 -177.5 59z" />
    <glyph glyph-name="v" unicode="v" horiz-adv-x="580" 
d="M319 0h-58l-261 530h48l239 -486h6l239 486h48z" />
    <glyph glyph-name="w" unicode="w" horiz-adv-x="937" 
d="M279 0h-58l-216 530h45l198 -485h4l190 485h53l190 -485h4l198 485h45l-216 -530h-58l-187 477h-5z" />
    <glyph glyph-name="x" unicode="x" horiz-adv-x="541" 
d="M56 0h-56l242 269v2l-233 259h56l203 -228h5l203 228h56l-233 -257v-2l242 -271h-56l-212 238h-5z" />
    <glyph glyph-name="y" unicode="y" horiz-adv-x="561" 
d="M197 -190h-48l121 240l-270 480h50l241 -428h5l217 428h48z" />
    <glyph glyph-name="z" unicode="z" horiz-adv-x="554" 
d="M534 0h-509v40l431 444v4h-426v42h489v-40l-431 -444v-4h446v-42z" />
    <glyph glyph-name="braceleft" unicode="{" horiz-adv-x="305" 
d="M236 -190q-107 0 -107 102v290q0 35 -17 53t-48 18h-24v43h24q31 0 48 18t17 53v291q0 102 107 102h54v-43h-52q-64 0 -64 -64v-292q0 -45 -19 -64t-38 -19v-6q19 0 38 -19t19 -64v-292q0 -64 64 -64h52v-43h-54z" />
    <glyph glyph-name="bar" unicode="|" horiz-adv-x="285" 
d="M165 -170h-45v970h45v-970z" />
    <glyph glyph-name="braceright" unicode="}" horiz-adv-x="305" 
d="M15 -190v43h52q64 0 64 64v292q0 45 19 64t38 19v6q-19 0 -38 19t-19 64v292q0 64 -64 64h-52v43h54q107 0 107 -102v-291q0 -35 17 -53t48 -18h24v-43h-24q-31 0 -48 -18t-17 -53v-290q0 -102 -107 -102h-54z" />
    <glyph glyph-name="asciitilde" unicode="~" horiz-adv-x="609" 
d="M359 250q-30 17 -68 50q-34 29 -57.5 43t-52.5 14q-38 0 -60.5 -23t-22.5 -64v-30h-43v31q0 61 33.5 95.5t92.5 34.5q39 0 68.5 -17t67.5 -50q35 -29 58.5 -43t52.5 -14q38 0 60 23t22 64v30h44v-31q0 -60 -34 -95t-92 -35q-39 0 -69 17z" />
    <glyph glyph-name="uni00A0" unicode="&#xa0;" horiz-adv-x="310" 
 />
    <glyph glyph-name="exclamdown" unicode="&#xa1;" horiz-adv-x="246" 
d="M92.5 475.5q-12.5 11.5 -12.5 26.5t12.5 26.5t30.5 11.5t30.5 -11.5t12.5 -26.5t-12.5 -26.5t-30.5 -11.5t-30.5 11.5zM146 -190h-45v392l10 155h25l10 -155v-392z" />
    <glyph glyph-name="cent" unicode="&#xa2;" horiz-adv-x="667" 
d="M233 467.5q-62 -30.5 -95 -83.5t-33 -119t33 -119t93.5 -83.5t141.5 -30.5q75 0 132 18t87 40v-46q-25 -17 -76 -33.5t-115 -19.5v-106h-45v105q-88 3 -155.5 40.5t-104 99t-36.5 135.5t36.5 135t103.5 98t156 41v107h45v-107q66 -3 121.5 -20t89.5 -39v-47
q-36 26 -98.5 45.5t-135.5 19.5q-83 0 -145 -30.5z" />
    <glyph glyph-name="sterling" unicode="&#xa3;" horiz-adv-x="686" 
d="M170 43h466v-43h-581v47q59 0 95.5 38.5t36.5 103.5q0 31 -9.5 62t-26.5 70h-91v43h72q-15 37 -23.5 66.5t-8.5 59.5q0 63 34 113t100.5 78.5t158.5 28.5q70 0 133.5 -16t99.5 -36v-49q-34 22 -97 40t-136 18q-77 0 -132.5 -23t-84.5 -63t-29 -91q0 -29 8.5 -59t23.5 -67
h307v-43h-288q17 -40 26.5 -72t9.5 -63q0 -52 -19.5 -88.5t-44.5 -49.5v-5z" />
    <glyph glyph-name="currency" unicode="&#xa4;" horiz-adv-x="669" 
d="M519 224l70 -70l-28 -27l-73 70q-59 -42 -153 -42q-95 0 -154 42l-73 -70l-28 27l70 70q-48 50 -48 126q0 75 48 126l-70 70l28 27l73 -70q61 41 154 41t153 -41l73 70l28 -27l-70 -70q48 -51 48 -126q0 -76 -48 -126zM475 238q52 43 52 112t-52 111.5t-141 42.5
q-88 0 -140 -43t-52 -111q0 -69 52 -112t140 -43q89 0 141 43z" />
    <glyph glyph-name="yen" unicode="&#xa5;" horiz-adv-x="753" 
d="M710 700h53l-344 -427h205v-43h-225v-83h225v-43h-225v-104h-45v104h-225v43h225v83h-225v43h205l-344 427h54l330 -410h5z" />
    <glyph glyph-name="brokenbar" unicode="&#xa6;" horiz-adv-x="285" 
d="M165 390h-45v410h45v-410zM165 -170h-45v410h45v-410z" />
    <glyph glyph-name="section" unicode="&#xa7;" horiz-adv-x="638" 
d="M193 -165.5q-62 14.5 -96 32.5v47q32 -20 94 -36t134 -16q66 0 111.5 17t67.5 44.5t22 57.5q0 37 -27.5 61t-67 37t-111.5 31q-81 20 -131 37.5t-84.5 51.5t-34.5 88q0 44 34.5 82.5t77.5 59.5v1q-55 20 -83.5 49t-28.5 75q0 40 28.5 75.5t88.5 58t150 22.5q72 0 136 -16
t98 -36v-47q-34 21 -98 39t-136 18q-77 0 -126.5 -17t-72.5 -43t-23 -54q0 -35 27 -57t67.5 -34.5t110.5 -28.5q83 -19 134.5 -36.5t87.5 -51.5t36 -88q0 -45 -35 -85t-78 -60v-2q51 -20 78.5 -51t27.5 -79q0 -41 -28 -78t-84 -60t-134 -23q-70 0 -132 14.5zM146.5 219
q31.5 -26 77.5 -41t123 -33l30 -7l42 -10q31 14 72.5 49.5t41.5 82.5q0 37 -28.5 61t-71 38.5t-113.5 31.5l-48 12l-43 11q-13 -5 -40 -22.5t-50.5 -45.5t-23.5 -61q0 -40 31.5 -66z" />
    <glyph glyph-name="dieresis" unicode="&#xa8;" horiz-adv-x="326" 
d="M42 600.5q-12 11.5 -12 27.5t12 27.5t30 11.5t30 -11.5t12 -27.5t-12 -27.5t-30 -11.5t-30 11.5zM224 600.5q-12 11.5 -12 27.5t12 27.5t30 11.5t30 -11.5t12 -27.5t-12 -27.5t-30 -11.5t-30 11.5z" />
    <glyph glyph-name="copyright" unicode="&#xa9;" horiz-adv-x="1016" 
d="M275.5 29q-99.5 49 -152.5 133.5t-53 187.5t53 187.5t152.5 133.5t232.5 49t232.5 -49t152.5 -133.5t53 -187.5t-53 -187.5t-152.5 -133.5t-232.5 -49t-232.5 49zM714 67q89 44 137 119t48 164t-48 164t-137 119t-206 44t-206 -44t-137 -119t-48 -164t48 -164t137 -119
t206 -44t206 44zM401 184q-51 24 -78.5 67t-27.5 99q0 53 27.5 96.5t79 68.5t121.5 25q45 0 87.5 -12.5t67.5 -27.5v-47q-25 17 -67.5 30.5t-87.5 13.5q-55 0 -96 -19.5t-63 -53.5t-22 -74q0 -66 48 -106.5t132 -40.5q45 0 83.5 10.5t57.5 23.5v-40q-20 -14 -58 -25.5
t-83 -11.5q-70 0 -121 24z" />
    <glyph glyph-name="ordfeminine" unicode="&#xaa;" horiz-adv-x="432" 
d="M69 400.5q-34 25.5 -34 62.5q0 42 35 65t119 23q83 0 113.5 16.5t30.5 44.5q0 26 -28.5 42.5t-93.5 16.5q-45 0 -86.5 -8.5t-64.5 -19.5v37q23 10 65 17.5t89 7.5q84 0 121 -25t37 -73v-227h-39v52h-5q-22 -22 -66 -39.5t-96 -17.5q-63 0 -97 25.5zM265 431q45 22 68 49
v71q-9 -13 -47 -23.5t-100 -10.5q-63 0 -87.5 -14t-24.5 -40q0 -23 23 -38.5t71 -15.5q52 0 97 22z" />
    <glyph glyph-name="guillemotleft" unicode="&#xab;" horiz-adv-x="473" 
d="M247 75h-52l-150 205l150 205h52l-150 -205zM428 75h-52l-150 205l150 205h52l-150 -205z" />
    <glyph glyph-name="logicalnot" unicode="&#xac;" horiz-adv-x="606" 
d="M541 200h-42v173h-444v41h486v-214z" />
    <glyph glyph-name="uni00AD" unicode="&#xad;" horiz-adv-x="496" 
d="M441 296h-386v43h386v-43z" />
    <glyph glyph-name="registered" unicode="&#xae;" horiz-adv-x="314" 
d="M58.5 508q-38.5 35 -38.5 85t38.5 85t98.5 35t98.5 -35t38.5 -85t-38.5 -85t-98.5 -35t-98.5 35zM235.5 527q30.5 27 30.5 66t-30.5 66t-78.5 27t-78.5 -27t-30.5 -66t30.5 -66t78.5 -27t78.5 27zM107 538v110h66q21 0 31.5 -8.5t10.5 -21.5q0 -15 -9.5 -22.5t-20.5 -7.5
v-3q10 0 17.5 -5.5t7.5 -17.5v-24h-27v20q0 16 -20 16h-29v-36h-27zM170 599q17 0 17 13q0 12 -17 12h-36v-25h36z" />
    <glyph glyph-name="macron" unicode="&#xaf;" horiz-adv-x="413" 
d="M383 642h-353v38h353v-38z" />
    <glyph glyph-name="degree" unicode="&#xb0;" horiz-adv-x="396" 
d="M116 440q-36 19 -56 52t-20 73q0 62 44 103.5t114 41.5t114 -41.5t44 -103.5q0 -40 -20 -73t-56 -52t-82 -19t-82 19zM281.5 490.5q32.5 30.5 32.5 74.5q0 45 -32.5 75.5t-83.5 30.5t-83.5 -30.5t-32.5 -75.5q0 -44 32.5 -74.5t83.5 -30.5t83.5 30.5z" />
    <glyph glyph-name="plusminus" unicode="&#xb1;" horiz-adv-x="602" 
d="M540 42h-478v41h218v205h-220v41h220v219h42v-219h220v-41h-220v-205h218v-41z" />
    <glyph glyph-name="uni00B2" unicode="&#xb2;" horiz-adv-x="370" 
d="M50 450v41l124 83q64 43 87 71t23 57q0 32 -26 52t-76 20q-35 0 -73.5 -13.5t-63.5 -29.5v39q25 15 63.5 27.5t74.5 12.5q70 0 106 -29t36 -78q0 -37 -24 -69.5t-88 -75.5l-101 -67v-5h204v-36h-266z" />
    <glyph glyph-name="uni00B3" unicode="&#xb3;" horiz-adv-x="370" 
d="M102.5 449q-36.5 9 -57.5 21v39q22 -13 58 -23t74 -10q54 0 83 21t29 50t-30 50t-86 21q-45 0 -68 -9v41l134 110v4h-189v36h256v-26l-144 -118v-5q14 3 26 3q43 0 75.5 -15t49.5 -39t17 -52q0 -45 -40.5 -76.5t-112.5 -31.5q-38 0 -74.5 9z" />
    <glyph glyph-name="acute" unicode="&#xb4;" horiz-adv-x="322" 
d="M41 590h-3l-8 30l240 96h19l3 -54z" />
    <glyph glyph-name="uni00B5" unicode="&#xb5;" horiz-adv-x="695" 
d="M90 -190v720h45v-307q0 -90 52.5 -140.5t148.5 -50.5q54 0 100 24t77.5 60t46.5 73v341h45v-530h-38l-7 107h-5q-28 -45 -87.5 -81t-134.5 -36q-76 0 -124.5 26.5t-68.5 66.5h-5v-273h-45z" />
    <glyph glyph-name="paragraph" unicode="&#xb6;" horiz-adv-x="685" 
d="M262 -190v456h-10q-60 0 -107 27t-73.5 76.5t-26.5 113.5t26.5 113.5t73.5 76.5t107 27h383v-43h-85v-847h-45v847h-198v-847h-45z" />
    <glyph glyph-name="periodcentered" unicode="&#xb7;" horiz-adv-x="310" 
d="M124.5 290.5q-12.5 11.5 -12.5 26.5t12.5 26.5t30.5 11.5t30.5 -11.5t12.5 -26.5t-12.5 -26.5t-30.5 -11.5t-30.5 11.5z" />
    <glyph glyph-name="cedilla" unicode="&#xb8;" horiz-adv-x="269" 
d="M134 -55q50 0 77.5 -23.5t27.5 -62.5q0 -41 -31.5 -65t-89.5 -24q-46 0 -88 11v39q47 -12 87 -12q39 0 59 14t20 37q0 22 -17.5 35t-52.5 13h-71l-13 14l26 85l41 -6l-17 -55h42z" />
    <glyph glyph-name="uni00B9" unicode="&#xb9;" horiz-adv-x="331" 
d="M55 450v36h108v217h-108v36h69q23 0 32.5 10t9.5 32v19h38v-314h97v-36h-246z" />
    <glyph glyph-name="ordmasculine" unicode="&#xba;" horiz-adv-x="450" 
d="M122.5 397q-44.5 22 -68.5 60t-24 83t24 83t68.5 60t102.5 22t102.5 -22t68.5 -60t24 -83t-24 -83t-68.5 -60t-102.5 -22t-102.5 22zM338.5 446.5q42.5 37.5 42.5 93.5t-42.5 93.5t-113.5 37.5t-113.5 -37.5t-42.5 -93.5t42.5 -93.5t113.5 -37.5t113.5 37.5z" />
    <glyph glyph-name="guillemotright" unicode="&#xbb;" horiz-adv-x="473" 
d="M247 280l-150 -205h-52l150 205l-150 205h52zM428 280l-150 -205h-52l150 205l-150 205h52z" />
    <glyph glyph-name="onequarter" unicode="&#xbc;" horiz-adv-x="819" 
d="M45 350v36h108v217h-108v36h69q23 0 32.5 10t9.5 32v19h38v-314h97v-36h-246zM236 0h-45l397 700h45zM715 0h-41v93h-223v40l203 217h50l-202 -216v-5h172v111h41v-111h69v-36h-69v-93z" />
    <glyph glyph-name="onehalf" unicode="&#xbd;" horiz-adv-x="886" 
d="M45 350v36h108v217h-108v36h69q23 0 32.5 10t9.5 32v19h38v-314h97v-36h-246zM236 0h-45l397 700h45zM541 0v41l124 83q64 43 87 71t23 57q0 32 -26 52t-76 20q-35 0 -73.5 -13.5t-63.5 -29.5v39q25 15 63.5 27.5t74.5 12.5q70 0 106 -29t36 -78q0 -37 -24 -69.5
t-88 -75.5l-101 -67v-5h204v-36h-266z" />
    <glyph glyph-name="threequarters" unicode="&#xbe;" horiz-adv-x="834" 
d="M102.5 349q-36.5 9 -57.5 21v39q22 -13 58 -23t74 -10q54 0 83 21t29 50t-30 50t-86 21q-45 0 -68 -9v41l134 110v4h-189v36h256v-26l-144 -118v-5q14 3 26 3q43 0 75.5 -15t49.5 -39t17 -52q0 -45 -40.5 -76.5t-112.5 -31.5q-38 0 -74.5 9zM251 0h-45l397 700h45zM730 0
h-41v93h-223v40l203 217h50l-202 -216v-5h172v111h41v-111h69v-36h-69v-93z" />
    <glyph glyph-name="questiondown" unicode="&#xbf;" horiz-adv-x="591" 
d="M315.5 475.5q-12.5 11.5 -12.5 26.5t12.5 26.5t30.5 11.5t30.5 -11.5t12.5 -26.5t-12.5 -26.5t-30.5 -11.5t-30.5 11.5zM156 -173q-76 27 -111 71t-35 97q0 69 48 117t121 72t145 24v149h45v-186h-7q-82 0 -152 -20.5t-111.5 -60t-41.5 -93.5q0 -41 29.5 -75.5t95 -56.5
t166.5 -22q80 0 147 19t101 43v-50q-34 -21 -101.5 -38t-146.5 -17q-116 0 -192 27z" />
    <glyph glyph-name="Agrave" unicode="&#xc0;" horiz-adv-x="784" 
d="M784 0h-48l-109 211h-470l-109 -211h-48l363 700h58zM389 658l-209 -404h424l-209 404h-6zM479 780h-3l-251 72l3 54h19l240 -96z" />
    <glyph glyph-name="Aacute" unicode="&#xc1;" horiz-adv-x="784" 
d="M784 0h-48l-109 211h-470l-109 -211h-48l363 700h58zM389 658l-209 -404h424l-209 404h-6zM313 780h-3l-8 30l240 96h19l3 -54z" />
    <glyph glyph-name="Acircumflex" unicode="&#xc2;" horiz-adv-x="784" 
d="M784 0h-48l-109 211h-470l-109 -211h-48l363 700h58zM389 658l-209 -404h424l-209 404h-6zM259 777h-60l163 133h60l163 -133h-60l-129 105h-8z" />
    <glyph glyph-name="Atilde" unicode="&#xc3;" horiz-adv-x="784" 
d="M784 0h-48l-109 211h-470l-109 -211h-48l363 700h58zM389 658l-209 -404h424l-209 404h-6zM432 806q-22 11 -51 32q-27 18 -41.5 26t-30.5 8q-20 0 -32.5 -13t-12.5 -34v-25h-42v28q0 39 22.5 62t61.5 23q25 0 45.5 -10.5t52.5 -32.5q25 -18 40.5 -26.5t31.5 -8.5
q20 0 32.5 13.5t12.5 36.5v23h42v-28q0 -40 -22.5 -62.5t-61.5 -22.5q-25 0 -47 11z" />
    <glyph glyph-name="Adieresis" unicode="&#xc4;" horiz-adv-x="784" 
d="M784 0h-48l-109 211h-470l-109 -211h-48l363 700h58zM389 658l-209 -404h424l-209 404h-6zM271 815.5q-12 11.5 -12 27.5t12 27.5t30 11.5t30 -11.5t12 -27.5t-12 -27.5t-30 -11.5t-30 11.5zM453 815.5q-12 11.5 -12 27.5t12 27.5t30 11.5t30 -11.5t12 -27.5t-12 -27.5
t-30 -11.5t-30 11.5z" />
    <glyph glyph-name="Aring" unicode="&#xc5;" horiz-adv-x="784" 
d="M784 0h-48l-109 211h-470l-109 -211h-48l363 700h58zM389 658l-209 -404h424l-209 404h-6zM304.5 777.5q-32.5 25.5 -32.5 67.5t32.5 67.5t87.5 25.5t87.5 -25.5t32.5 -67.5t-32.5 -67.5t-87.5 -25.5t-87.5 25.5zM451.5 802.5q22.5 16.5 22.5 42.5t-22.5 42.5t-59.5 16.5
t-59.5 -16.5t-22.5 -42.5t22.5 -42.5t59.5 -16.5t59.5 16.5z" />
    <glyph glyph-name="AE" unicode="&#xc6;" horiz-adv-x="1115" 
d="M565 336v-293h490v-43h-535v211h-385l-102 -211h-48l340 700h710v-43h-470v-278h430v-43h-430zM352 657l-196 -403h364v403h-168z" />
    <glyph glyph-name="Ccedilla" unicode="&#xc7;" horiz-adv-x="856" 
d="M298.5 625q-88.5 -42 -135 -114t-46.5 -161q0 -88 45.5 -160.5t130 -114.5t195.5 -42q84 0 156.5 20.5t110.5 45.5v-50q-39 -22 -112.5 -40.5t-154.5 -18.5h-16l-14 -45h42q50 0 77.5 -23.5t27.5 -62.5q0 -41 -31.5 -65t-89.5 -24q-46 0 -88 11v39q47 -12 87 -12
q39 0 59 14t20 37q0 22 -17.5 35t-52.5 13h-71l-13 14l22 72q-110 11 -191.5 60t-125 126.5t-43.5 170.5q0 102 52 184t151 129t235 47q88 0 163.5 -23t114.5 -52v-50q-37 31 -112.5 56.5t-165.5 25.5q-121 0 -209.5 -42z" />
    <glyph glyph-name="Egrave" unicode="&#xc8;" horiz-adv-x="712" 
d="M145 336v-293h507v-43h-552v700h532v-43h-487v-278h447v-43h-447zM493 780h-3l-251 72l3 54h19l240 -96z" />
    <glyph glyph-name="Eacute" unicode="&#xc9;" horiz-adv-x="712" 
d="M145 336v-293h507v-43h-552v700h532v-43h-487v-278h447v-43h-447zM258 780h-3l-8 30l240 96h19l3 -54z" />
    <glyph glyph-name="Ecircumflex" unicode="&#xca;" horiz-adv-x="712" 
d="M145 336v-293h507v-43h-552v700h532v-43h-487v-278h447v-43h-447zM233 777h-60l163 133h60l163 -133h-60l-129 105h-8z" />
    <glyph glyph-name="Edieresis" unicode="&#xcb;" horiz-adv-x="712" 
d="M145 336v-293h507v-43h-552v700h532v-43h-487v-278h447v-43h-447zM245 815.5q-12 11.5 -12 27.5t12 27.5t30 11.5t30 -11.5t12 -27.5t-12 -27.5t-30 -11.5t-30 11.5zM427 815.5q-12 11.5 -12 27.5t12 27.5t30 11.5t30 -11.5t12 -27.5t-12 -27.5t-30 -11.5t-30 11.5z" />
    <glyph glyph-name="Igrave" unicode="&#xcc;" horiz-adv-x="696" 
d="M661 700v-43h-291v-614h291v-43h-626v43h290v614h-290v43h626zM475 780h-3l-251 72l3 54h19l240 -96z" />
    <glyph glyph-name="Iacute" unicode="&#xcd;" horiz-adv-x="696" 
d="M661 700v-43h-291v-614h291v-43h-626v43h290v614h-290v43h626zM224 780h-3l-8 30l240 96h19l3 -54z" />
    <glyph glyph-name="Icircumflex" unicode="&#xce;" horiz-adv-x="696" 
d="M661 700v-43h-291v-614h291v-43h-626v43h290v614h-290v43h626zM215 777h-60l163 133h60l163 -133h-60l-129 105h-8z" />
    <glyph glyph-name="Idieresis" unicode="&#xcf;" horiz-adv-x="696" 
d="M661 700v-43h-291v-614h291v-43h-626v43h290v614h-290v43h626zM227 815.5q-12 11.5 -12 27.5t12 27.5t30 11.5t30 -11.5t12 -27.5t-12 -27.5t-30 -11.5t-30 11.5zM409 815.5q-12 11.5 -12 27.5t12 27.5t30 11.5t30 -11.5t12 -27.5t-12 -27.5t-30 -11.5t-30 11.5z" />
    <glyph glyph-name="Eth" unicode="&#xd0;" horiz-adv-x="890" 
d="M382 700q141 0 239.5 -44.5t148.5 -123.5t50 -182t-50 -182t-148.5 -123.5t-239.5 -44.5h-278v321h-79v43h79v336h278zM382 43q126 0 214 39.5t132.5 109t44.5 158.5t-44.5 158.5t-132.5 109t-214 39.5h-233v-293h261v-43h-261v-278h233z" />
    <glyph glyph-name="Ntilde" unicode="&#xd1;" horiz-adv-x="836" 
d="M145 0h-45v700h72l514 -658h5v658h45v-700h-72l-514 658h-5v-658zM470 806q-22 11 -51 32q-27 18 -41.5 26t-30.5 8q-20 0 -32.5 -13t-12.5 -34v-25h-42v28q0 39 22.5 62t61.5 23q25 0 45.5 -10.5t52.5 -32.5q25 -18 40.5 -26.5t31.5 -8.5q20 0 32.5 13.5t12.5 36.5v23
h42v-28q0 -40 -22.5 -62.5t-61.5 -22.5q-25 0 -47 11z" />
    <glyph glyph-name="Ograve" unicode="&#xd2;" horiz-adv-x="1016" 
d="M273 37q-99 47 -151 129t-52 184t52 184t151 129t235 47t235 -47t151 -129t52 -184t-52 -184t-151 -129t-235 -47t-235 47zM717.5 75q88.5 42 135 114t46.5 161t-46.5 161t-135 114t-209.5 42t-209.5 -42t-135 -114t-46.5 -161t46.5 -161t135 -114t209.5 -42t209.5 42z
M635 780h-3l-251 72l3 54h19l240 -96z" />
    <glyph glyph-name="Oacute" unicode="&#xd3;" horiz-adv-x="1016" 
d="M273 37q-99 47 -151 129t-52 184t52 184t151 129t235 47t235 -47t151 -129t52 -184t-52 -184t-151 -129t-235 -47t-235 47zM717.5 75q88.5 42 135 114t46.5 161t-46.5 161t-135 114t-209.5 42t-209.5 -42t-135 -114t-46.5 -161t46.5 -161t135 -114t209.5 -42t209.5 42z
M384 780h-3l-8 30l240 96h19l3 -54z" />
    <glyph glyph-name="Ocircumflex" unicode="&#xd4;" horiz-adv-x="1016" 
d="M273 37q-99 47 -151 129t-52 184t52 184t151 129t235 47t235 -47t151 -129t52 -184t-52 -184t-151 -129t-235 -47t-235 47zM717.5 75q88.5 42 135 114t46.5 161t-46.5 161t-135 114t-209.5 42t-209.5 -42t-135 -114t-46.5 -161t46.5 -161t135 -114t209.5 -42t209.5 42z
M375 777h-60l163 133h60l163 -133h-60l-129 105h-8z" />
    <glyph glyph-name="Otilde" unicode="&#xd5;" horiz-adv-x="1016" 
d="M273 37q-99 47 -151 129t-52 184t52 184t151 129t235 47t235 -47t151 -129t52 -184t-52 -184t-151 -129t-235 -47t-235 47zM717.5 75q88.5 42 135 114t46.5 161t-46.5 161t-135 114t-209.5 42t-209.5 -42t-135 -114t-46.5 -161t46.5 -161t135 -114t209.5 -42t209.5 42z
M548 806q-22 11 -51 32q-27 18 -41.5 26t-30.5 8q-20 0 -32.5 -13t-12.5 -34v-25h-42v28q0 39 22.5 62t61.5 23q25 0 45.5 -10.5t52.5 -32.5q25 -18 40.5 -26.5t31.5 -8.5q20 0 32.5 13.5t12.5 36.5v23h42v-28q0 -40 -22.5 -62.5t-61.5 -22.5q-25 0 -47 11z" />
    <glyph glyph-name="Odieresis" unicode="&#xd6;" horiz-adv-x="1016" 
d="M273 37q-99 47 -151 129t-52 184t52 184t151 129t235 47t235 -47t151 -129t52 -184t-52 -184t-151 -129t-235 -47t-235 47zM717.5 75q88.5 42 135 114t46.5 161t-46.5 161t-135 114t-209.5 42t-209.5 -42t-135 -114t-46.5 -161t46.5 -161t135 -114t209.5 -42t209.5 42z
M387 815.5q-12 11.5 -12 27.5t12 27.5t30 11.5t30 -11.5t12 -27.5t-12 -27.5t-30 -11.5t-30 11.5zM569 815.5q-12 11.5 -12 27.5t12 27.5t30 11.5t30 -11.5t12 -27.5t-12 -27.5t-30 -11.5t-30 11.5z" />
    <glyph glyph-name="multiply" unicode="&#xd7;" horiz-adv-x="610" 
d="M515 123l-30 -31l-180 181l-180 -181l-30 31l180 180l-180 180l30 30l180 -180l180 180l30 -30l-180 -180z" />
    <glyph glyph-name="Oslash" unicode="&#xd8;" horiz-adv-x="1016" 
d="M817 618q63 -49 96 -118t33 -150q0 -102 -52 -184t-151 -129t-235 -47q-160 0 -273 67l-59 -57h-62l85 82q-63 49 -96 118t-33 150q0 102 52 184t151 129t235 47q160 0 273 -67l59 57h62zM146.5 219q29.5 -61 86.5 -104l513 495q-98 57 -238 57q-121 0 -209.5 -42
t-135 -114t-46.5 -161q0 -70 29.5 -131zM717.5 75q88.5 42 135 114t46.5 161q0 70 -29.5 131t-86.5 104l-513 -495q98 -57 238 -57q121 0 209.5 42z" />
    <glyph glyph-name="Ugrave" unicode="&#xd9;" horiz-adv-x="829" 
d="M241 25q-72 35 -109 99.5t-37 151.5v424h45v-420q0 -116 71 -181.5t204 -65.5q132 0 203 65.5t71 181.5v420h45v-424q0 -87 -37 -151.5t-109 -99.5t-173 -35q-102 0 -174 35zM536 780h-3l-251 72l3 54h19l240 -96z" />
    <glyph glyph-name="Uacute" unicode="&#xda;" horiz-adv-x="829" 
d="M241 25q-72 35 -109 99.5t-37 151.5v424h45v-420q0 -116 71 -181.5t204 -65.5q132 0 203 65.5t71 181.5v420h45v-424q0 -87 -37 -151.5t-109 -99.5t-173 -35q-102 0 -174 35zM298 780h-3l-8 30l240 96h19l3 -54z" />
    <glyph glyph-name="Ucircumflex" unicode="&#xdb;" horiz-adv-x="829" 
d="M241 25q-72 35 -109 99.5t-37 151.5v424h45v-420q0 -116 71 -181.5t204 -65.5q132 0 203 65.5t71 181.5v420h45v-424q0 -87 -37 -151.5t-109 -99.5t-173 -35q-102 0 -174 35zM282 777h-60l163 133h60l163 -133h-60l-129 105h-8z" />
    <glyph glyph-name="Udieresis" unicode="&#xdc;" horiz-adv-x="829" 
d="M241 25q-72 35 -109 99.5t-37 151.5v424h45v-420q0 -116 71 -181.5t204 -65.5q132 0 203 65.5t71 181.5v420h45v-424q0 -87 -37 -151.5t-109 -99.5t-173 -35q-102 0 -174 35zM294 815.5q-12 11.5 -12 27.5t12 27.5t30 11.5t30 -11.5t12 -27.5t-12 -27.5t-30 -11.5
t-30 11.5zM476 815.5q-12 11.5 -12 27.5t12 27.5t30 11.5t30 -11.5t12 -27.5t-12 -27.5t-30 -11.5t-30 11.5z" />
    <glyph glyph-name="Yacute" unicode="&#xdd;" horiz-adv-x="733" 
d="M389 0h-45v160l-364 540h50l334 -493h5l334 493h50l-364 -540v-160zM250 780h-3l-8 30l240 96h19l3 -54z" />
    <glyph glyph-name="Thorn" unicode="&#xde;" horiz-adv-x="834" 
d="M100 0v700h45v-147h383q122 0 186.5 -53t64.5 -140t-64.5 -140t-186.5 -53h-383v-167h-45zM528 210q102 0 153 41t51 109t-51 109t-153 41h-383v-300h383z" />
    <glyph glyph-name="germandbls" unicode="&#xdf;" horiz-adv-x="756" 
d="M405.5 3q-53.5 13 -86.5 29v47q32 -18 86.5 -32.5t110.5 -14.5q53 0 89 13.5t53.5 35t17.5 45.5q0 34 -24.5 58t-60 39.5t-95.5 35.5q-62 21 -99 37t-62.5 41.5t-25.5 62.5t22.5 63t55 42t83.5 35q60 23 88.5 40.5t28.5 45.5q0 23 -19.5 37.5t-59.5 14.5h-249
q-54 0 -79 -25t-25 -79v-574h-45v494h-110v42h110v38q0 76 35 111t111 35h247q63 0 95 -25.5t32 -67.5q0 -33 -20.5 -55.5t-49.5 -37t-78 -32.5q-44 -17 -69 -28.5t-42 -29.5t-17 -42q0 -25 20 -43t49.5 -30t82.5 -29q70 -23 112 -41.5t72.5 -51t30.5 -81.5q0 -36 -23 -67
t-69.5 -50t-112.5 -19q-57 0 -110.5 13z" />
    <glyph glyph-name="agrave" unicode="&#xe0;" horiz-adv-x="681" 
d="M109.5 32q-54.5 42 -54.5 110q0 75 64.5 119.5t204.5 44.5q91 0 141 11t68 30t18 47q0 27 -21.5 50.5t-68 38.5t-119.5 15q-75 0 -146 -20t-112 -45v47q36 23 107 41.5t153 18.5q87 0 143.5 -21t82.5 -54.5t26 -73.5v-391h-45v98q-38 -41 -114 -74.5t-170 -33.5
q-103 0 -157.5 42zM442 69.5q74 37.5 109 84.5v164q-8 -20 -66.5 -36t-162.5 -16q-117 0 -169.5 -34t-52.5 -89q0 -50 43.5 -80.5t131.5 -30.5q93 0 167 37.5zM467 620h-3l-251 72l3 54h19l240 -96z" />
    <glyph glyph-name="aacute" unicode="&#xe1;" horiz-adv-x="681" 
d="M109.5 32q-54.5 42 -54.5 110q0 75 64.5 119.5t204.5 44.5q91 0 141 11t68 30t18 47q0 27 -21.5 50.5t-68 38.5t-119.5 15q-75 0 -146 -20t-112 -45v47q36 23 107 41.5t153 18.5q87 0 143.5 -21t82.5 -54.5t26 -73.5v-391h-45v98q-38 -41 -114 -74.5t-170 -33.5
q-103 0 -157.5 42zM442 69.5q74 37.5 109 84.5v164q-8 -20 -66.5 -36t-162.5 -16q-117 0 -169.5 -34t-52.5 -89q0 -50 43.5 -80.5t131.5 -30.5q93 0 167 37.5zM216 620h-3l-8 30l240 96h19l3 -54z" />
    <glyph glyph-name="acircumflex" unicode="&#xe2;" horiz-adv-x="681" 
d="M109.5 32q-54.5 42 -54.5 110q0 75 64.5 119.5t204.5 44.5q91 0 141 11t68 30t18 47q0 27 -21.5 50.5t-68 38.5t-119.5 15q-75 0 -146 -20t-112 -45v47q36 23 107 41.5t153 18.5q87 0 143.5 -21t82.5 -54.5t26 -73.5v-391h-45v98q-38 -41 -114 -74.5t-170 -33.5
q-103 0 -157.5 42zM442 69.5q74 37.5 109 84.5v164q-8 -20 -66.5 -36t-162.5 -16q-117 0 -169.5 -34t-52.5 -89q0 -50 43.5 -80.5t131.5 -30.5q93 0 167 37.5zM197 617h-60l163 133h60l163 -133h-60l-129 105h-8z" />
    <glyph glyph-name="atilde" unicode="&#xe3;" horiz-adv-x="681" 
d="M109.5 32q-54.5 42 -54.5 110q0 75 64.5 119.5t204.5 44.5q91 0 141 11t68 30t18 47q0 27 -21.5 50.5t-68 38.5t-119.5 15q-75 0 -146 -20t-112 -45v47q36 23 107 41.5t153 18.5q87 0 143.5 -21t82.5 -54.5t26 -73.5v-391h-45v98q-38 -41 -114 -74.5t-170 -33.5
q-103 0 -157.5 42zM442 69.5q74 37.5 109 84.5v164q-8 -20 -66.5 -36t-162.5 -16q-117 0 -169.5 -34t-52.5 -89q0 -50 43.5 -80.5t131.5 -30.5q93 0 167 37.5zM370 646q-22 11 -51 32q-27 18 -41.5 26t-30.5 8q-20 0 -32.5 -13t-12.5 -34v-25h-42v28q0 39 22.5 62t61.5 23
q25 0 45.5 -10.5t52.5 -32.5q25 -18 40.5 -26.5t31.5 -8.5q20 0 32.5 13.5t12.5 36.5v23h42v-28q0 -40 -22.5 -62.5t-61.5 -22.5q-25 0 -47 11z" />
    <glyph glyph-name="adieresis" unicode="&#xe4;" horiz-adv-x="681" 
d="M109.5 32q-54.5 42 -54.5 110q0 75 64.5 119.5t204.5 44.5q91 0 141 11t68 30t18 47q0 27 -21.5 50.5t-68 38.5t-119.5 15q-75 0 -146 -20t-112 -45v47q36 23 107 41.5t153 18.5q87 0 143.5 -21t82.5 -54.5t26 -73.5v-391h-45v98q-38 -41 -114 -74.5t-170 -33.5
q-103 0 -157.5 42zM442 69.5q74 37.5 109 84.5v164q-8 -20 -66.5 -36t-162.5 -16q-117 0 -169.5 -34t-52.5 -89q0 -50 43.5 -80.5t131.5 -30.5q93 0 167 37.5zM209 655.5q-12 11.5 -12 27.5t12 27.5t30 11.5t30 -11.5t12 -27.5t-12 -27.5t-30 -11.5t-30 11.5zM391 655.5
q-12 11.5 -12 27.5t12 27.5t30 11.5t30 -11.5t12 -27.5t-12 -27.5t-30 -11.5t-30 11.5z" />
    <glyph glyph-name="aring" unicode="&#xe5;" horiz-adv-x="681" 
d="M109.5 32q-54.5 42 -54.5 110q0 75 64.5 119.5t204.5 44.5q91 0 141 11t68 30t18 47q0 27 -21.5 50.5t-68 38.5t-119.5 15q-75 0 -146 -20t-112 -45v47q36 23 107 41.5t153 18.5q87 0 143.5 -21t82.5 -54.5t26 -73.5v-391h-45v98q-38 -41 -114 -74.5t-170 -33.5
q-103 0 -157.5 42zM442 69.5q74 37.5 109 84.5v164q-8 -20 -66.5 -36t-162.5 -16q-117 0 -169.5 -34t-52.5 -89q0 -50 43.5 -80.5t131.5 -30.5q93 0 167 37.5zM242.5 617.5q-32.5 25.5 -32.5 67.5t32.5 67.5t87.5 25.5t87.5 -25.5t32.5 -67.5t-32.5 -67.5t-87.5 -25.5
t-87.5 25.5zM389.5 642.5q22.5 16.5 22.5 42.5t-22.5 42.5t-59.5 16.5t-59.5 -16.5t-22.5 -42.5t22.5 -42.5t59.5 -16.5t59.5 16.5z" />
    <glyph glyph-name="ae" unicode="&#xe6;" horiz-adv-x="1154" 
d="M1094 252h-514q5 -102 73.5 -161t185.5 -59q68 0 126 19t88 43v-47q-30 -22 -88 -39.5t-127 -17.5q-91 0 -159 33t-105 94h-4q-41 -45 -119.5 -86t-178.5 -41q-106 0 -161.5 41t-55.5 107q0 72 56 114t172 42h253v73q0 63 -45 97t-151 34q-72 0 -142.5 -19.5
t-113.5 -44.5v49q41 22 111 39.5t149 17.5t129.5 -18.5t74 -48t24.5 -63.5h4q14 31 46.5 61t82.5 49.5t113 19.5q79 0 142 -34.5t98.5 -95t35.5 -133.5v-25zM1049 294q-3 58 -34 104.5t-83 73t-116 26.5q-100 0 -163.5 -55.5t-71.5 -148.5h468zM438 72.5q75 40.5 116 87.5
q-16 42 -18 92h-256q-91 0 -135.5 -31t-44.5 -81q0 -48 43.5 -78t131.5 -30t163 40.5z" />
    <glyph glyph-name="ccedilla" unicode="&#xe7;" horiz-adv-x="667" 
d="M233 467.5q-62 -30.5 -95 -83.5t-33 -119t33 -119t93.5 -83.5t141.5 -30.5q75 0 132 18t87 40v-46q-28 -20 -87 -37t-132 -17h-11l-14 -45h42q50 0 77.5 -23.5t27.5 -62.5q0 -41 -31.5 -65t-89.5 -24q-46 0 -88 11v39q47 -12 87 -12q39 0 59 14t20 37q0 22 -17.5 35
t-52.5 13h-71l-13 14l22 72q-79 10 -137.5 48.5t-90.5 96.5t-32 127q0 77 39 139.5t111.5 99t167.5 36.5q73 0 135 -18t99 -42v-47q-36 26 -98.5 45.5t-135.5 19.5q-83 0 -145 -30.5z" />
    <glyph glyph-name="egrave" unicode="&#xe8;" horiz-adv-x="698" 
d="M210.5 26q-72.5 36 -111.5 98.5t-39 140.5t37 140.5t103.5 98.5t152.5 36q83 0 148 -35.5t101 -98t36 -141.5v-25h-534q6 -60 41 -107t95.5 -74t139.5 -27q69 0 128 19t89 43v-47q-30 -22 -89 -39.5t-128 -17.5q-97 0 -169.5 36zM593 282q-3 61 -34 110.5t-84 77.5
t-120 28q-72 0 -128 -28t-88 -77.5t-35 -110.5h489zM472 620h-3l-251 72l3 54h19l240 -96z" />
    <glyph glyph-name="eacute" unicode="&#xe9;" horiz-adv-x="698" 
d="M210.5 26q-72.5 36 -111.5 98.5t-39 140.5t37 140.5t103.5 98.5t152.5 36q83 0 148 -35.5t101 -98t36 -141.5v-25h-534q6 -60 41 -107t95.5 -74t139.5 -27q69 0 128 19t89 43v-47q-30 -22 -89 -39.5t-128 -17.5q-97 0 -169.5 36zM593 282q-3 61 -34 110.5t-84 77.5
t-120 28q-72 0 -128 -28t-88 -77.5t-35 -110.5h489zM221 620h-3l-8 30l240 96h19l3 -54z" />
    <glyph glyph-name="ecircumflex" unicode="&#xea;" horiz-adv-x="698" 
d="M210.5 26q-72.5 36 -111.5 98.5t-39 140.5t37 140.5t103.5 98.5t152.5 36q83 0 148 -35.5t101 -98t36 -141.5v-25h-534q6 -60 41 -107t95.5 -74t139.5 -27q69 0 128 19t89 43v-47q-30 -22 -89 -39.5t-128 -17.5q-97 0 -169.5 36zM593 282q-3 61 -34 110.5t-84 77.5
t-120 28q-72 0 -128 -28t-88 -77.5t-35 -110.5h489zM212 617h-60l163 133h60l163 -133h-60l-129 105h-8z" />
    <glyph glyph-name="edieresis" unicode="&#xeb;" horiz-adv-x="698" 
d="M210.5 26q-72.5 36 -111.5 98.5t-39 140.5t37 140.5t103.5 98.5t152.5 36q83 0 148 -35.5t101 -98t36 -141.5v-25h-534q6 -60 41 -107t95.5 -74t139.5 -27q69 0 128 19t89 43v-47q-30 -22 -89 -39.5t-128 -17.5q-97 0 -169.5 36zM593 282q-3 61 -34 110.5t-84 77.5
t-120 28q-72 0 -128 -28t-88 -77.5t-35 -110.5h489zM224 655.5q-12 11.5 -12 27.5t12 27.5t30 11.5t30 -11.5t12 -27.5t-12 -27.5t-30 -11.5t-30 11.5zM406 655.5q-12 11.5 -12 27.5t12 27.5t30 11.5t30 -11.5t12 -27.5t-12 -27.5t-30 -11.5t-30 11.5z" />
    <glyph glyph-name="igrave" unicode="&#xec;" horiz-adv-x="225" 
d="M135 0h-45v530h45v-530zM180 620h-3l-251 72l3 54h19l240 -96z" />
    <glyph glyph-name="iacute" unicode="&#xed;" horiz-adv-x="225" 
d="M135 0h-45v530h45v-530zM49 620h-3l-8 30l240 96h19l3 -54z" />
    <glyph glyph-name="icircumflex" unicode="&#xee;" horiz-adv-x="225" 
d="M135 0h-45v530h45v-530zM-20 617h-60l163 133h60l163 -133h-60l-129 105h-8z" />
    <glyph glyph-name="idieresis" unicode="&#xef;" horiz-adv-x="225" 
d="M135 0h-45v530h45v-530zM-8 655.5q-12 11.5 -12 27.5t12 27.5t30 11.5t30 -11.5t12 -27.5t-12 -27.5t-30 -11.5t-30 11.5zM174 655.5q-12 11.5 -12 27.5t12 27.5t30 11.5t30 -11.5t12 -27.5t-12 -27.5t-30 -11.5t-30 11.5z" />
    <glyph glyph-name="eth" unicode="&#xf0;" horiz-adv-x="784" 
d="M369 656q121 -16 195 -57.5t109.5 -118.5t35.5 -201q0 -146 -86 -217.5t-248 -71.5q-108 0 -181 30t-108.5 81.5t-35.5 116.5t35 116.5t106.5 81.5t175.5 30q120 0 193 -32.5t99 -78.5h6q-4 85 -37 141.5t-99 90t-173 48.5l-68 10l-22 -83l-42 7l21 82l-103 14l9 41
l105 -14l19 71l42 -7l-18 -70zM531 57q63 25 93 67t30 94q0 82 -69.5 134t-209.5 52t-210 -52t-70 -134t70 -134t210 -52q93 0 156 25z" />
    <glyph glyph-name="ntilde" unicode="&#xf1;" 
d="M90 0v530h45v-108h5q27 45 88 81.5t138 36.5q114 0 176.5 -59t62.5 -162v-319h-45v319q0 83 -51.5 131t-145.5 48q-56 0 -102.5 -24t-78.5 -60.5t-47 -73.5v-340h-45zM385 646q-22 11 -51 32q-27 18 -41.5 26t-30.5 8q-20 0 -32.5 -13t-12.5 -34v-25h-42v28q0 39 22.5 62
t61.5 23q25 0 45.5 -10.5t52.5 -32.5q25 -18 40.5 -26.5t31.5 -8.5q20 0 32.5 13.5t12.5 36.5v23h42v-28q0 -40 -22.5 -62.5t-61.5 -22.5q-25 0 -47 11z" />
    <glyph glyph-name="ograve" unicode="&#xf2;" horiz-adv-x="770" 
d="M212.5 26.5q-73.5 36.5 -113 99t-39.5 139.5t39.5 139.5t113 99t172.5 36.5t172.5 -36.5t113 -99t39.5 -139.5t-39.5 -139.5t-113 -99t-172.5 -36.5t-172.5 36.5zM535 62.5q63 30.5 96.5 83.5t33.5 119t-33.5 119t-96.5 83.5t-150 30.5t-150 -30.5t-96.5 -83.5
t-33.5 -119t33.5 -119t96.5 -83.5t150 -30.5t150 30.5zM512 620h-3l-251 72l3 54h19l240 -96z" />
    <glyph glyph-name="oacute" unicode="&#xf3;" horiz-adv-x="770" 
d="M212.5 26.5q-73.5 36.5 -113 99t-39.5 139.5t39.5 139.5t113 99t172.5 36.5t172.5 -36.5t113 -99t39.5 -139.5t-39.5 -139.5t-113 -99t-172.5 -36.5t-172.5 36.5zM535 62.5q63 30.5 96.5 83.5t33.5 119t-33.5 119t-96.5 83.5t-150 30.5t-150 -30.5t-96.5 -83.5
t-33.5 -119t33.5 -119t96.5 -83.5t150 -30.5t150 30.5zM261 620h-3l-8 30l240 96h19l3 -54z" />
    <glyph glyph-name="ocircumflex" unicode="&#xf4;" horiz-adv-x="770" 
d="M212.5 26.5q-73.5 36.5 -113 99t-39.5 139.5t39.5 139.5t113 99t172.5 36.5t172.5 -36.5t113 -99t39.5 -139.5t-39.5 -139.5t-113 -99t-172.5 -36.5t-172.5 36.5zM535 62.5q63 30.5 96.5 83.5t33.5 119t-33.5 119t-96.5 83.5t-150 30.5t-150 -30.5t-96.5 -83.5
t-33.5 -119t33.5 -119t96.5 -83.5t150 -30.5t150 30.5zM252 617h-60l163 133h60l163 -133h-60l-129 105h-8z" />
    <glyph glyph-name="otilde" unicode="&#xf5;" horiz-adv-x="770" 
d="M212.5 26.5q-73.5 36.5 -113 99t-39.5 139.5t39.5 139.5t113 99t172.5 36.5t172.5 -36.5t113 -99t39.5 -139.5t-39.5 -139.5t-113 -99t-172.5 -36.5t-172.5 36.5zM535 62.5q63 30.5 96.5 83.5t33.5 119t-33.5 119t-96.5 83.5t-150 30.5t-150 -30.5t-96.5 -83.5
t-33.5 -119t33.5 -119t96.5 -83.5t150 -30.5t150 30.5zM425 646q-22 11 -51 32q-27 18 -41.5 26t-30.5 8q-20 0 -32.5 -13t-12.5 -34v-25h-42v28q0 39 22.5 62t61.5 23q25 0 45.5 -10.5t52.5 -32.5q25 -18 40.5 -26.5t31.5 -8.5q20 0 32.5 13.5t12.5 36.5v23h42v-28
q0 -40 -22.5 -62.5t-61.5 -22.5q-25 0 -47 11z" />
    <glyph glyph-name="odieresis" unicode="&#xf6;" horiz-adv-x="770" 
d="M212.5 26.5q-73.5 36.5 -113 99t-39.5 139.5t39.5 139.5t113 99t172.5 36.5t172.5 -36.5t113 -99t39.5 -139.5t-39.5 -139.5t-113 -99t-172.5 -36.5t-172.5 36.5zM535 62.5q63 30.5 96.5 83.5t33.5 119t-33.5 119t-96.5 83.5t-150 30.5t-150 -30.5t-96.5 -83.5
t-33.5 -119t33.5 -119t96.5 -83.5t150 -30.5t150 30.5zM264 655.5q-12 11.5 -12 27.5t12 27.5t30 11.5t30 -11.5t12 -27.5t-12 -27.5t-30 -11.5t-30 11.5zM446 655.5q-12 11.5 -12 27.5t12 27.5t30 11.5t30 -11.5t12 -27.5t-12 -27.5t-30 -11.5t-30 11.5z" />
    <glyph glyph-name="divide" unicode="&#xf7;" horiz-adv-x="602" 
d="M273 472.5q-11 11.5 -11 29.5t11 29.5t28 11.5t28 -11.5t11 -29.5t-11 -29.5t-28 -11.5t-28 11.5zM542 288h-482v41h482v-41zM273 85.5q-11 11.5 -11 29.5t11 29.5t28 11.5t28 -11.5t11 -29.5t-11 -29.5t-28 -11.5t-28 11.5z" />
    <glyph glyph-name="oslash" unicode="&#xf8;" horiz-adv-x="770" 
d="M613 469q47 -37 72 -90t25 -114q0 -77 -39.5 -139.5t-113 -99t-172.5 -36.5q-114 0 -198 50l-40 -40h-57l64 64q-46 37 -70 89t-24 112q0 77 39.5 139.5t113 99t172.5 36.5q111 0 194 -48l43 44h58zM125.5 170.5q20.5 -43.5 58.5 -75.5l364 366q-68 37 -163 37
q-87 0 -150 -30.5t-96.5 -83.5t-33.5 -119q0 -51 20.5 -94.5zM535 62.5q63 30.5 96.5 83.5t33.5 119q0 52 -21 96.5t-61 76.5l-365 -367q69 -39 167 -39q87 0 150 30.5z" />
    <glyph glyph-name="ugrave" unicode="&#xf9;" 
d="M147.5 49q-62.5 59 -62.5 163v318h45v-318q0 -83 52 -131.5t146 -48.5q55 0 101.5 24t78.5 60.5t47 73.5v340h45v-530h-45v108h-5q-27 -45 -87.5 -81.5t-137.5 -36.5q-115 0 -177.5 59zM465 620h-3l-251 72l3 54h19l240 -96z" />
    <glyph glyph-name="uacute" unicode="&#xfa;" 
d="M147.5 49q-62.5 59 -62.5 163v318h45v-318q0 -83 52 -131.5t146 -48.5q55 0 101.5 24t78.5 60.5t47 73.5v340h45v-530h-45v108h-5q-27 -45 -87.5 -81.5t-137.5 -36.5q-115 0 -177.5 59zM228 620h-3l-8 30l240 96h19l3 -54z" />
    <glyph glyph-name="ucircumflex" unicode="&#xfb;" 
d="M147.5 49q-62.5 59 -62.5 163v318h45v-318q0 -83 52 -131.5t146 -48.5q55 0 101.5 24t78.5 60.5t47 73.5v340h45v-530h-45v108h-5q-27 -45 -87.5 -81.5t-137.5 -36.5q-115 0 -177.5 59zM212 617h-60l163 133h60l163 -133h-60l-129 105h-8z" />
    <glyph glyph-name="udieresis" unicode="&#xfc;" 
d="M147.5 49q-62.5 59 -62.5 163v318h45v-318q0 -83 52 -131.5t146 -48.5q55 0 101.5 24t78.5 60.5t47 73.5v340h45v-530h-45v108h-5q-27 -45 -87.5 -81.5t-137.5 -36.5q-115 0 -177.5 59zM224 655.5q-12 11.5 -12 27.5t12 27.5t30 11.5t30 -11.5t12 -27.5t-12 -27.5
t-30 -11.5t-30 11.5zM406 655.5q-12 11.5 -12 27.5t12 27.5t30 11.5t30 -11.5t12 -27.5t-12 -27.5t-30 -11.5t-30 11.5z" />
    <glyph glyph-name="yacute" unicode="&#xfd;" horiz-adv-x="561" 
d="M197 -190h-48l121 240l-270 480h50l241 -428h5l217 428h48zM168 620h-3l-8 30l240 96h19l3 -54z" />
    <glyph glyph-name="thorn" unicode="&#xfe;" horiz-adv-x="744" 
d="M90 -190v910h45v-287h5q33 41 97.5 74t141.5 33q89 0 157.5 -35.5t105.5 -98.5t37 -141t-37 -140.5t-104.5 -98.5t-154.5 -36q-78 0 -144 33t-99 74h-5v-287h-45zM513.5 62q57.5 30 89 83t31.5 120q0 68 -31.5 120.5t-90 82.5t-136.5 30q-54 0 -102.5 -20.5t-84 -51
t-54.5 -62.5v-197q19 -32 55 -63t85 -51.5t104 -20.5q77 0 134.5 30z" />
    <glyph glyph-name="ydieresis" unicode="&#xff;" horiz-adv-x="561" 
d="M197 -190h-48l121 240l-270 480h50l241 -428h5l217 428h48zM159 655.5q-12 11.5 -12 27.5t12 27.5t30 11.5t30 -11.5t12 -27.5t-12 -27.5t-30 -11.5t-30 11.5zM341 655.5q-12 11.5 -12 27.5t12 27.5t30 11.5t30 -11.5t12 -27.5t-12 -27.5t-30 -11.5t-30 11.5z" />
    <glyph glyph-name="Amacron" unicode="&#x100;" horiz-adv-x="784" 
d="M784 0h-48l-109 211h-470l-109 -211h-48l363 700h58zM389 658l-209 -404h424l-209 404h-6zM569 823h-353v42h353v-42z" />
    <glyph glyph-name="amacron" unicode="&#x101;" horiz-adv-x="681" 
d="M109.5 32q-54.5 42 -54.5 110q0 75 64.5 119.5t204.5 44.5q91 0 141 11t68 30t18 47q0 27 -21.5 50.5t-68 38.5t-119.5 15q-75 0 -146 -20t-112 -45v47q36 23 107 41.5t153 18.5q87 0 143.5 -21t82.5 -54.5t26 -73.5v-391h-45v98q-38 -41 -114 -74.5t-170 -33.5
q-103 0 -157.5 42zM442 69.5q74 37.5 109 84.5v164q-8 -20 -66.5 -36t-162.5 -16q-117 0 -169.5 -34t-52.5 -89q0 -50 43.5 -80.5t131.5 -30.5q93 0 167 37.5zM507 663h-353v42h353v-42z" />
    <glyph glyph-name="Abreve" unicode="&#x102;" horiz-adv-x="784" 
d="M784 0h-48l-109 211h-470l-109 -211h-48l363 700h58zM389 658l-209 -404h424l-209 404h-6zM272.5 812q-41.5 34 -41.5 88h44q0 -36 30 -59t87 -23t87 23t30 59h44q0 -54 -41.5 -88t-119.5 -34t-119.5 34z" />
    <glyph glyph-name="abreve" unicode="&#x103;" horiz-adv-x="681" 
d="M109.5 32q-54.5 42 -54.5 110q0 75 64.5 119.5t204.5 44.5q91 0 141 11t68 30t18 47q0 27 -21.5 50.5t-68 38.5t-119.5 15q-75 0 -146 -20t-112 -45v47q36 23 107 41.5t153 18.5q87 0 143.5 -21t82.5 -54.5t26 -73.5v-391h-45v98q-38 -41 -114 -74.5t-170 -33.5
q-103 0 -157.5 42zM442 69.5q74 37.5 109 84.5v164q-8 -20 -66.5 -36t-162.5 -16q-117 0 -169.5 -34t-52.5 -89q0 -50 43.5 -80.5t131.5 -30.5q93 0 167 37.5zM210.5 652q-41.5 34 -41.5 88h44q0 -36 30 -59t87 -23t87 23t30 59h44q0 -54 -41.5 -88t-119.5 -34t-119.5 34z
" />
    <glyph glyph-name="Aogonek" unicode="&#x104;" horiz-adv-x="784" 
d="M707 -167q38 0 74 8v-39q-45 -8 -75 -8q-54 0 -82.5 20.5t-28.5 56.5q0 41 40.5 77.5t96.5 59.5l-105 203h-470l-109 -211h-48l363 700h58l363 -700q-55 -24 -97.5 -57.5t-42.5 -66.5q0 -43 63 -43zM389 658l-209 -404h424l-209 404h-6z" />
    <glyph glyph-name="aogonek" unicode="&#x105;" horiz-adv-x="681" 
d="M596 0q-56 -25 -98 -57.5t-42 -65.5q0 -44 61 -44q40 0 76 8v-39q-45 -8 -75 -8q-54 0 -82.5 20.5t-28.5 56.5q0 39 40.5 77.5t103.5 65.5v84q-38 -41 -114 -74.5t-170 -33.5q-103 0 -157.5 42t-54.5 110q0 75 64.5 119.5t204.5 44.5q91 0 141 11t68 30t18 47
q0 27 -21.5 50.5t-68 38.5t-119.5 15q-75 0 -146 -20t-112 -45v47q36 23 107 41.5t153 18.5q87 0 143.5 -21t82.5 -54.5t26 -73.5v-391zM442 69.5q74 37.5 109 84.5v164q-8 -20 -66.5 -36t-162.5 -16q-117 0 -169.5 -34t-52.5 -89q0 -50 43.5 -80.5t131.5 -30.5
q93 0 167 37.5z" />
    <glyph glyph-name="Cacute" unicode="&#x106;" horiz-adv-x="856" 
d="M266.5 37.5q-94.5 47.5 -145.5 129.5t-51 183q0 102 52 184t151 129t235 47q88 0 163.5 -23t114.5 -52v-50q-37 31 -112.5 56.5t-165.5 25.5q-121 0 -209.5 -42t-135 -114t-46.5 -161q0 -88 45.5 -160.5t130 -114.5t195.5 -42q84 0 156.5 20.5t110.5 45.5v-50
q-39 -22 -112.5 -40.5t-154.5 -18.5q-127 0 -221.5 47.5zM366 780h-3l-8 30l240 96h19l3 -54z" />
    <glyph glyph-name="cacute" unicode="&#x107;" horiz-adv-x="667" 
d="M209 26.5q-71 36.5 -110 99t-39 139.5t39 139.5t111.5 99t167.5 36.5q73 0 135 -18t99 -42v-47q-36 26 -98.5 45.5t-135.5 19.5q-83 0 -145 -30.5t-95 -83.5t-33 -119t33 -119t93.5 -83.5t141.5 -30.5q75 0 132 18t87 40v-46q-28 -20 -87 -37t-132 -17q-93 0 -164 36.5z
M241 620h-3l-8 30l240 96h19l3 -54z" />
    <glyph glyph-name="Ccircumflex" unicode="&#x108;" horiz-adv-x="856" 
d="M266.5 37.5q-94.5 47.5 -145.5 129.5t-51 183q0 102 52 184t151 129t235 47q88 0 163.5 -23t114.5 -52v-50q-37 31 -112.5 56.5t-165.5 25.5q-121 0 -209.5 -42t-135 -114t-46.5 -161q0 -88 45.5 -160.5t130 -114.5t195.5 -42q84 0 156.5 20.5t110.5 45.5v-50
q-39 -22 -112.5 -40.5t-154.5 -18.5q-127 0 -221.5 47.5zM357 777h-60l163 133h60l163 -133h-60l-129 105h-8z" />
    <glyph glyph-name="ccircumflex" unicode="&#x109;" horiz-adv-x="667" 
d="M209 26.5q-71 36.5 -110 99t-39 139.5t39 139.5t111.5 99t167.5 36.5q73 0 135 -18t99 -42v-47q-36 26 -98.5 45.5t-135.5 19.5q-83 0 -145 -30.5t-95 -83.5t-33 -119t33 -119t93.5 -83.5t141.5 -30.5q75 0 132 18t87 40v-46q-28 -20 -87 -37t-132 -17q-93 0 -164 36.5z
M232 617h-60l163 133h60l163 -133h-60l-129 105h-8z" />
    <glyph glyph-name="Cdotaccent" unicode="&#x10a;" horiz-adv-x="856" 
d="M266.5 37.5q-94.5 47.5 -145.5 129.5t-51 183q0 102 52 184t151 129t235 47q88 0 163.5 -23t114.5 -52v-50q-37 31 -112.5 56.5t-165.5 25.5q-121 0 -209.5 -42t-135 -114t-46.5 -161q0 -88 45.5 -160.5t130 -114.5t195.5 -42q84 0 156.5 20.5t110.5 45.5v-50
q-39 -22 -112.5 -40.5t-154.5 -18.5q-127 0 -221.5 47.5zM461 816.5q-12 11.5 -12 26.5t12 26.5t29 11.5t29 -11.5t12 -26.5t-12 -26.5t-29 -11.5t-29 11.5z" />
    <glyph glyph-name="cdotaccent" unicode="&#x10b;" horiz-adv-x="667" 
d="M209 26.5q-71 36.5 -110 99t-39 139.5t39 139.5t111.5 99t167.5 36.5q73 0 135 -18t99 -42v-47q-36 26 -98.5 45.5t-135.5 19.5q-83 0 -145 -30.5t-95 -83.5t-33 -119t33 -119t93.5 -83.5t141.5 -30.5q75 0 132 18t87 40v-46q-28 -20 -87 -37t-132 -17q-93 0 -164 36.5z
M336 656.5q-12 11.5 -12 26.5t12 26.5t29 11.5t29 -11.5t12 -26.5t-12 -26.5t-29 -11.5t-29 11.5z" />
    <glyph glyph-name="Ccaron" unicode="&#x10c;" horiz-adv-x="856" 
d="M266.5 37.5q-94.5 47.5 -145.5 129.5t-51 183q0 102 52 184t151 129t235 47q88 0 163.5 -23t114.5 -52v-50q-37 31 -112.5 56.5t-165.5 25.5q-121 0 -209.5 -42t-135 -114t-46.5 -161q0 -88 45.5 -160.5t130 -114.5t195.5 -42q84 0 156.5 20.5t110.5 45.5v-50
q-39 -22 -112.5 -40.5t-154.5 -18.5q-127 0 -221.5 47.5zM520 777h-60l-163 133h60l129 -105h8l129 105h60z" />
    <glyph glyph-name="ccaron" unicode="&#x10d;" horiz-adv-x="667" 
d="M209 26.5q-71 36.5 -110 99t-39 139.5t39 139.5t111.5 99t167.5 36.5q73 0 135 -18t99 -42v-47q-36 26 -98.5 45.5t-135.5 19.5q-83 0 -145 -30.5t-95 -83.5t-33 -119t33 -119t93.5 -83.5t141.5 -30.5q75 0 132 18t87 40v-46q-28 -20 -87 -37t-132 -17q-93 0 -164 36.5z
M395 617h-60l-163 133h60l129 -105h8l129 105h60z" />
    <glyph glyph-name="Dcaron" unicode="&#x10e;" horiz-adv-x="886" 
d="M100 0v700h278q141 0 239.5 -44.5t148.5 -123.5t50 -182t-50 -182t-148.5 -123.5t-239.5 -44.5h-278zM378 43q126 0 214 39.5t132.5 109t44.5 158.5t-44.5 158.5t-132.5 109t-214 39.5h-233v-614h233zM455 777h-60l-163 133h60l129 -105h8l129 105h60z" />
    <glyph glyph-name="dcaron" unicode="&#x10f;" horiz-adv-x="765" 
d="M699.5 716.5q11.5 10.5 29.5 10.5q31 0 53.5 -24t22.5 -63q0 -54 -31.5 -86.5t-83.5 -32.5v32q37 0 59.5 23t22.5 61q0 34 -16 45q-3 -9 -11.5 -16.5t-20.5 -7.5q-16 0 -26 9.5t-10 23.5q0 15 11.5 25.5zM208 25.5q-68 35.5 -105.5 98.5t-37.5 141t37 141t104.5 98.5
t155.5 35.5q79 0 145 -33t99 -74h5v287h45v-5v-23v-692h-45v97h-5q-33 -41 -98 -74t-142 -33q-90 0 -158 35.5zM515.5 74q64.5 42 95.5 93v197q-31 51 -96.5 92.5t-145.5 41.5q-78 0 -136.5 -30t-90.5 -83.5t-32 -119.5q0 -67 32 -120t91.5 -83t139.5 -30q78 0 142.5 42z
" />
    <glyph glyph-name="Dcroat" unicode="&#x110;" horiz-adv-x="890" 
d="M382 700q141 0 239.5 -44.5t148.5 -123.5t50 -182t-50 -182t-148.5 -123.5t-239.5 -44.5h-278v321h-79v43h79v336h278zM382 43q126 0 214 39.5t132.5 109t44.5 158.5t-44.5 158.5t-132.5 109t-214 39.5h-233v-293h261v-43h-261v-278h233z" />
    <glyph glyph-name="dcroat" unicode="&#x111;" horiz-adv-x="746" 
d="M741 574v-42h-104v-532h-45v81h-5q-37 -35 -107.5 -63t-149.5 -28q-89 0 -153.5 29.5t-98 78.5t-33.5 107t33.5 106.5t98.5 78t155 29.5q79 0 148.5 -28t106.5 -63h5v204h-216v42h216v146h45v-146h104zM592 264q-37 43 -107.5 78t-151.5 35q-77 0 -132 -23.5t-83 -63
t-28 -85.5q0 -47 28 -86.5t83 -63t132 -23.5q81 0 151.5 35t107.5 78v119z" />
    <glyph glyph-name="Emacron" unicode="&#x112;" horiz-adv-x="712" 
d="M145 336v-293h507v-43h-552v700h532v-43h-487v-278h447v-43h-447zM543 823h-353v42h353v-42z" />
    <glyph glyph-name="emacron" unicode="&#x113;" horiz-adv-x="698" 
d="M210.5 26q-72.5 36 -111.5 98.5t-39 140.5t37 140.5t103.5 98.5t152.5 36q83 0 148 -35.5t101 -98t36 -141.5v-25h-534q6 -60 41 -107t95.5 -74t139.5 -27q69 0 128 19t89 43v-47q-30 -22 -89 -39.5t-128 -17.5q-97 0 -169.5 36zM593 282q-3 61 -34 110.5t-84 77.5
t-120 28q-72 0 -128 -28t-88 -77.5t-35 -110.5h489zM522 663h-353v42h353v-42z" />
    <glyph glyph-name="Ebreve" unicode="&#x114;" horiz-adv-x="712" 
d="M145 336v-293h507v-43h-552v700h532v-43h-487v-278h447v-43h-447zM246.5 812q-41.5 34 -41.5 88h44q0 -36 30 -59t87 -23t87 23t30 59h44q0 -54 -41.5 -88t-119.5 -34t-119.5 34z" />
    <glyph glyph-name="ebreve" unicode="&#x115;" horiz-adv-x="698" 
d="M210.5 26q-72.5 36 -111.5 98.5t-39 140.5t37 140.5t103.5 98.5t152.5 36q83 0 148 -35.5t101 -98t36 -141.5v-25h-534q6 -60 41 -107t95.5 -74t139.5 -27q69 0 128 19t89 43v-47q-30 -22 -89 -39.5t-128 -17.5q-97 0 -169.5 36zM593 282q-3 61 -34 110.5t-84 77.5
t-120 28q-72 0 -128 -28t-88 -77.5t-35 -110.5h489zM225.5 652q-41.5 34 -41.5 88h44q0 -36 30 -59t87 -23t87 23t30 59h44q0 -54 -41.5 -88t-119.5 -34t-119.5 34z" />
    <glyph glyph-name="Edotaccent" unicode="&#x116;" horiz-adv-x="712" 
d="M145 336v-293h507v-43h-552v700h532v-43h-487v-278h447v-43h-447zM337 816.5q-12 11.5 -12 26.5t12 26.5t29 11.5t29 -11.5t12 -26.5t-12 -26.5t-29 -11.5t-29 11.5z" />
    <glyph glyph-name="edotaccent" unicode="&#x117;" horiz-adv-x="698" 
d="M210.5 26q-72.5 36 -111.5 98.5t-39 140.5t37 140.5t103.5 98.5t152.5 36q83 0 148 -35.5t101 -98t36 -141.5v-25h-534q6 -60 41 -107t95.5 -74t139.5 -27q69 0 128 19t89 43v-47q-30 -22 -89 -39.5t-128 -17.5q-97 0 -169.5 36zM593 282q-3 61 -34 110.5t-84 77.5
t-120 28q-72 0 -128 -28t-88 -77.5t-35 -110.5h489zM316 656.5q-12 11.5 -12 26.5t12 26.5t29 11.5t29 -11.5t12 -26.5t-12 -26.5t-29 -11.5t-29 11.5z" />
    <glyph glyph-name="Eogonek" unicode="&#x118;" horiz-adv-x="712" 
d="M652 0q-56 -25 -98 -57.5t-42 -65.5q0 -44 61 -44q40 0 76 8v-39q-45 -8 -75 -8q-54 0 -82.5 20.5t-28.5 56.5q0 38 34.5 71t73.5 53v5h-471v700h532v-43h-487v-278h447v-43h-447v-293h507v-43z" />
    <glyph glyph-name="eogonek" unicode="&#x119;" horiz-adv-x="698" 
d="M299.5 -185.5q-28.5 20.5 -28.5 56.5q0 30 24 60t65 55v4q-91 4 -159 40.5t-104.5 97.5t-36.5 137q0 78 37 140.5t103.5 98.5t152.5 36q83 0 148 -35.5t101 -98t36 -141.5v-25h-534q6 -60 41 -107t95.5 -74t139.5 -27q69 0 127.5 19t89.5 43v-47q-24 -15 -65 -30.5
t-93 -26.5q-26 -6 -54 -23.5t-46.5 -41.5t-18.5 -48q0 -44 61 -44q40 0 76 8v-39q-45 -8 -75 -8q-54 0 -82.5 20.5zM593 282q-3 61 -34 110.5t-84 77.5t-120 28q-72 0 -128 -28t-88 -77.5t-35 -110.5h489z" />
    <glyph glyph-name="Ecaron" unicode="&#x11a;" horiz-adv-x="712" 
d="M145 336v-293h507v-43h-552v700h532v-43h-487v-278h447v-43h-447zM396 777h-60l-163 133h60l129 -105h8l129 105h60z" />
    <glyph glyph-name="ecaron" unicode="&#x11b;" horiz-adv-x="698" 
d="M210.5 26q-72.5 36 -111.5 98.5t-39 140.5t37 140.5t103.5 98.5t152.5 36q83 0 148 -35.5t101 -98t36 -141.5v-25h-534q6 -60 41 -107t95.5 -74t139.5 -27q69 0 128 19t89 43v-47q-30 -22 -89 -39.5t-128 -17.5q-97 0 -169.5 36zM593 282q-3 61 -34 110.5t-84 77.5
t-120 28q-72 0 -128 -28t-88 -77.5t-35 -110.5h489zM375 617h-60l-163 133h60l129 -105h8l129 105h60z" />
    <glyph glyph-name="Gcircumflex" unicode="&#x11c;" horiz-adv-x="908" 
d="M273 37q-99 47 -151 129t-52 184q0 103 52.5 184.5t155 128.5t245.5 47q95 0 177.5 -23t132.5 -52v-49q-47 32 -129.5 56.5t-180.5 24.5q-128 0 -219.5 -42t-139 -114t-47.5 -161t46.5 -161t135 -114t209.5 -42q78 0 152.5 20.5t117.5 46.5v181h-328v43h373v-251
q-49 -32 -136 -57.5t-179 -25.5q-136 0 -235 47zM352 777h-60l163 133h60l163 -133h-60l-129 105h-8z" />
    <glyph glyph-name="gcircumflex" unicode="&#x11d;" horiz-adv-x="744" 
d="M217.5 -184.5q-62.5 15.5 -94.5 34.5v47q33 -21 95 -38t135 -17q80 0 137.5 28.5t88 79.5t30.5 118v49h-5q-33 -41 -98.5 -74t-142.5 -33q-91 0 -158.5 34t-103.5 94.5t-36 136.5t36 136.5t103 94.5t156 34q79 0 145 -33t99 -74h5v97h45v-462q0 -78 -36 -139t-104 -95
t-161 -34q-73 0 -135.5 15.5zM470.5 72.5q48.5 20.5 84 51t54.5 62.5v178q-19 32 -55 62.5t-85 51t-104 20.5q-79 0 -136.5 -28t-88 -78.5t-30.5 -116.5t30.5 -116.5t89 -78.5t138.5 -28q54 0 102.5 20.5zM232 617h-60l163 133h60l163 -133h-60l-129 105h-8z" />
    <glyph glyph-name="Gbreve" unicode="&#x11e;" horiz-adv-x="908" 
d="M273 37q-99 47 -151 129t-52 184q0 103 52.5 184.5t155 128.5t245.5 47q95 0 177.5 -23t132.5 -52v-49q-47 32 -129.5 56.5t-180.5 24.5q-128 0 -219.5 -42t-139 -114t-47.5 -161t46.5 -161t135 -114t209.5 -42q78 0 152.5 20.5t117.5 46.5v181h-328v43h373v-251
q-49 -32 -136 -57.5t-179 -25.5q-136 0 -235 47zM365.5 812q-41.5 34 -41.5 88h44q0 -36 30 -59t87 -23t87 23t30 59h44q0 -54 -41.5 -88t-119.5 -34t-119.5 34z" />
    <glyph glyph-name="gbreve" unicode="&#x11f;" horiz-adv-x="744" 
d="M217.5 -184.5q-62.5 15.5 -94.5 34.5v47q33 -21 95 -38t135 -17q80 0 137.5 28.5t88 79.5t30.5 118v49h-5q-33 -41 -98.5 -74t-142.5 -33q-91 0 -158.5 34t-103.5 94.5t-36 136.5t36 136.5t103 94.5t156 34q79 0 145 -33t99 -74h5v97h45v-462q0 -78 -36 -139t-104 -95
t-161 -34q-73 0 -135.5 15.5zM470.5 72.5q48.5 20.5 84 51t54.5 62.5v178q-19 32 -55 62.5t-85 51t-104 20.5q-79 0 -136.5 -28t-88 -78.5t-30.5 -116.5t30.5 -116.5t89 -78.5t138.5 -28q54 0 102.5 20.5zM245.5 652q-41.5 34 -41.5 88h44q0 -36 30 -59t87 -23t87 23t30 59
h44q0 -54 -41.5 -88t-119.5 -34t-119.5 34z" />
    <glyph glyph-name="Gdotaccent" unicode="&#x120;" horiz-adv-x="908" 
d="M273 37q-99 47 -151 129t-52 184q0 103 52.5 184.5t155 128.5t245.5 47q95 0 177.5 -23t132.5 -52v-49q-47 32 -129.5 56.5t-180.5 24.5q-128 0 -219.5 -42t-139 -114t-47.5 -161t46.5 -161t135 -114t209.5 -42q78 0 152.5 20.5t117.5 46.5v181h-328v43h373v-251
q-49 -32 -136 -57.5t-179 -25.5q-136 0 -235 47zM456 816.5q-12 11.5 -12 26.5t12 26.5t29 11.5t29 -11.5t12 -26.5t-12 -26.5t-29 -11.5t-29 11.5z" />
    <glyph glyph-name="gdotaccent" unicode="&#x121;" horiz-adv-x="744" 
d="M217.5 -184.5q-62.5 15.5 -94.5 34.5v47q33 -21 95 -38t135 -17q80 0 137.5 28.5t88 79.5t30.5 118v49h-5q-33 -41 -98.5 -74t-142.5 -33q-91 0 -158.5 34t-103.5 94.5t-36 136.5t36 136.5t103 94.5t156 34q79 0 145 -33t99 -74h5v97h45v-462q0 -78 -36 -139t-104 -95
t-161 -34q-73 0 -135.5 15.5zM470.5 72.5q48.5 20.5 84 51t54.5 62.5v178q-19 32 -55 62.5t-85 51t-104 20.5q-79 0 -136.5 -28t-88 -78.5t-30.5 -116.5t30.5 -116.5t89 -78.5t138.5 -28q54 0 102.5 20.5zM336 656.5q-12 11.5 -12 26.5t12 26.5t29 11.5t29 -11.5t12 -26.5
t-12 -26.5t-29 -11.5t-29 11.5z" />
    <glyph glyph-name="uni0122" unicode="&#x122;" horiz-adv-x="908" 
d="M273 37q-99 47 -151 129t-52 184q0 103 52.5 184.5t155 128.5t245.5 47q95 0 177.5 -23t132.5 -52v-49q-47 32 -129.5 56.5t-180.5 24.5q-128 0 -219.5 -42t-139 -114t-47.5 -161t46.5 -161t135 -114t209.5 -42q78 0 152.5 20.5t117.5 46.5v181h-328v43h373v-251
q-49 -32 -136 -57.5t-179 -25.5q-136 0 -235 47zM437 -258q37 0 59.5 23t22.5 61q0 34 -16 45q-3 -9 -11.5 -16.5t-20.5 -7.5q-16 0 -26 9.5t-10 23.5q0 15 11.5 25.5t29.5 10.5q31 0 53.5 -24t22.5 -63q0 -54 -31.5 -86.5t-83.5 -32.5v32z" />
    <glyph glyph-name="uni0123" unicode="&#x123;" horiz-adv-x="744" 
d="M396.5 615.5q-11.5 -10.5 -29.5 -10.5q-31 0 -53.5 24t-22.5 63q0 54 31.5 86.5t83.5 32.5v-32q-37 0 -59.5 -23t-22.5 -61q0 -34 16 -45q3 9 11.5 16.5t20.5 7.5q16 0 26 -9.5t10 -23.5q0 -15 -11.5 -25.5zM217.5 -184.5q-62.5 15.5 -94.5 34.5v47q33 -21 95 -38
t135 -17q80 0 137.5 28.5t88 79.5t30.5 118v49h-5q-33 -41 -98.5 -74t-142.5 -33q-91 0 -158.5 34t-103.5 94.5t-36 136.5t36 136.5t103 94.5t156 34q79 0 145 -33t99 -74h5v97h45v-462q0 -78 -36 -139t-104 -95t-161 -34q-73 0 -135.5 15.5zM470.5 72.5q48.5 20.5 84 51
t54.5 62.5v178q-19 32 -55 62.5t-85 51t-104 20.5q-79 0 -136.5 -28t-88 -78.5t-30.5 -116.5t30.5 -116.5t89 -78.5t138.5 -28q54 0 102.5 20.5z" />
    <glyph glyph-name="Hcircumflex" unicode="&#x124;" horiz-adv-x="839" 
d="M694 379v321h45v-700h-45v336h-549v-336h-45v700h45v-321h549zM287 777h-60l163 133h60l163 -133h-60l-129 105h-8z" />
    <glyph glyph-name="hcircumflex" unicode="&#x125;" 
d="M90 0v720h45v-298h5q27 45 88 81.5t138 36.5q114 0 176.5 -59t62.5 -162v-319h-45v319q0 83 -51.5 131t-145.5 48q-56 0 -102.5 -24t-78.5 -60.5t-47 -73.5v-340h-45zM-20 777h-60l163 133h60l163 -133h-60l-129 105h-8z" />
    <glyph glyph-name="Hbar" unicode="&#x126;" horiz-adv-x="869" 
d="M754 565h100v-43h-100v-522h-45v336h-549v-336h-45v522h-100v43h100v135h45v-135h549v135h45v-135zM160 379h549v143h-549v-143z" />
    <glyph glyph-name="hbar" unicode="&#x127;" 
d="M542.5 481q62.5 -59 62.5 -162v-319h-45v319q0 83 -51.5 131t-145.5 48q-56 0 -102.5 -24t-78.5 -60.5t-47 -73.5v-340h-45v608h-85v42h85v70h45v-70h215v-42h-215v-186h5q27 45 88 81.5t138 36.5q114 0 176.5 -59z" />
    <glyph glyph-name="Itilde" unicode="&#x128;" horiz-adv-x="696" 
d="M661 700v-43h-291v-614h291v-43h-626v43h290v614h-290v43h626zM388 806q-22 11 -51 32q-27 18 -41.5 26t-30.5 8q-20 0 -32.5 -13t-12.5 -34v-25h-42v28q0 39 22.5 62t61.5 23q25 0 45.5 -10.5t52.5 -32.5q25 -18 40.5 -26.5t31.5 -8.5q20 0 32.5 13.5t12.5 36.5v23h42
v-28q0 -40 -22.5 -62.5t-61.5 -22.5q-25 0 -47 11z" />
    <glyph glyph-name="itilde" unicode="&#x129;" horiz-adv-x="225" 
d="M135 0h-45v530h45v-530zM153 646q-22 11 -51 32q-27 18 -41.5 26t-30.5 8q-20 0 -32.5 -13t-12.5 -34v-25h-42v28q0 39 22.5 62t61.5 23q25 0 45.5 -10.5t52.5 -32.5q25 -18 40.5 -26.5t31.5 -8.5q20 0 32.5 13.5t12.5 36.5v23h42v-28q0 -40 -22.5 -62.5t-61.5 -22.5
q-25 0 -47 11z" />
    <glyph glyph-name="Imacron" unicode="&#x12a;" horiz-adv-x="696" 
d="M661 700v-43h-291v-614h291v-43h-626v43h290v614h-290v43h626zM525 823h-353v42h353v-42z" />
    <glyph glyph-name="imacron" unicode="&#x12b;" horiz-adv-x="225" 
d="M135 0h-45v530h45v-530zM290 663h-353v42h353v-42z" />
    <glyph glyph-name="Ibreve" unicode="&#x12c;" horiz-adv-x="696" 
d="M661 700v-43h-291v-614h291v-43h-626v43h290v614h-290v43h626zM228.5 812q-41.5 34 -41.5 88h44q0 -36 30 -59t87 -23t87 23t30 59h44q0 -54 -41.5 -88t-119.5 -34t-119.5 34z" />
    <glyph glyph-name="ibreve" unicode="&#x12d;" horiz-adv-x="225" 
d="M135 0h-45v530h45v-530zM-6.5 652q-41.5 34 -41.5 88h44q0 -36 30 -59t87 -23t87 23t30 59h44q0 -54 -41.5 -88t-119.5 -34t-119.5 34z" />
    <glyph glyph-name="Iogonek" unicode="&#x12e;" horiz-adv-x="696" 
d="M661 657h-291v-614h291v-43h-255q-56 -25 -98 -57.5t-42 -65.5q0 -44 61 -44q40 0 76 8v-39q-45 -8 -75 -8q-54 0 -82.5 20.5t-28.5 56.5q0 38 34.5 71t73.5 53v5h-290v43h290v614h-290v43h626v-43z" />
    <glyph glyph-name="iogonek" unicode="&#x12f;" horiz-adv-x="225" 
d="M143.5 663q11.5 -10 11.5 -25t-11.5 -25t-30.5 -10q-20 0 -31.5 10t-11.5 25t11.5 25t31.5 10q19 0 30.5 -10zM134 530h1v-530q-59 -24 -99.5 -57t-40.5 -67q0 -20 14 -31.5t42 -11.5h81v-39h-95q-45 0 -68 20t-23 54q0 52 48.5 88.5t95.5 56.5v517h2h21h21z" />
    <glyph glyph-name="Idotaccent" unicode="&#x130;" horiz-adv-x="696" 
d="M661 700v-43h-291v-614h291v-43h-626v43h290v614h-290v43h626zM319 816.5q-12 11.5 -12 26.5t12 26.5t29 11.5t29 -11.5t12 -26.5t-12 -26.5t-29 -11.5t-29 11.5z" />
    <glyph glyph-name="dotlessi" unicode="&#x131;" horiz-adv-x="225" 
d="M135 0h-45v530h45v-530z" />
    <glyph glyph-name="IJ" unicode="&#x132;" horiz-adv-x="1242" 
d="M661 700v-43h-291v-614h291v-43h-626v43h290v614h-290v43h626zM716 20v45q78 -32 163 -32q107 0 162.5 53t55.5 160v454h45v-456q0 -124 -67.5 -189t-193.5 -65q-85 0 -165 30z" />
    <glyph glyph-name="ij" unicode="&#x133;" horiz-adv-x="449" 
d="M81.5 613q-11.5 10 -11.5 25t11.5 25t31.5 10q19 0 30.5 -10t11.5 -25t-11.5 -25t-30.5 -10q-20 0 -31.5 10zM304 613q-12 10 -12 25t12 25t32 10t31.5 -10t11.5 -25t-11.5 -25t-31.5 -10t-32 10zM90 0v530h2h21h19h3v-530h-45zM143 -185v44q40 -16 77 -16q44 0 68.5 28
t24.5 82v577h3h20h20h2v-577q0 -76 -35.5 -114.5t-101.5 -38.5q-35 0 -78 15z" />
    <glyph glyph-name="Jcircumflex" unicode="&#x134;" horiz-adv-x="546" 
d="M20 20v45q78 -32 163 -32q107 0 162.5 53t55.5 160v454h45v-456q0 -124 -67.5 -189t-193.5 -65q-85 0 -165 30zM291 777h-60l163 133h60l163 -133h-60l-129 105h-8z" />
    <glyph glyph-name="jcircumflex" unicode="&#x135;" horiz-adv-x="224" 
d="M-80 -185v44q40 -16 77 -16q44 0 68.5 28t24.5 82v577h45v-577q0 -76 -35.5 -114.5t-101.5 -38.5q-35 0 -78 15zM-21 617h-60l163 133h60l163 -133h-60l-129 105h-8z" />
    <glyph glyph-name="uni0136" unicode="&#x136;" horiz-adv-x="736" 
d="M145 0h-45v700h45v-312l514 312h77l-543 -330v-5l509 -365h-72l-485 348v-348zM335 -258q37 0 59.5 23t22.5 61q0 34 -16 45q-3 -9 -11.5 -16.5t-20.5 -7.5q-16 0 -26 9.5t-10 23.5q0 15 11.5 25.5t29.5 10.5q31 0 53.5 -24t22.5 -63q0 -54 -31.5 -86.5t-83.5 -32.5v32z
" />
    <glyph glyph-name="uni0137" unicode="&#x137;" horiz-adv-x="583" 
d="M135 0h-45v720h45v-415l373 225h75l-401 -243l401 -287h-69l-379 271v-271zM272 -258q37 0 59.5 23t22.5 61q0 34 -16 45q-3 -9 -11.5 -16.5t-20.5 -7.5q-16 0 -26 9.5t-10 23.5q0 15 11.5 25.5t29.5 10.5q31 0 53.5 -24t22.5 -63q0 -54 -31.5 -86.5t-83.5 -32.5v32z" />
    <glyph glyph-name="Lacute" unicode="&#x139;" horiz-adv-x="672" 
d="M652 0h-552v700h45v-657h507v-43zM63 780h-3l-8 30l240 96h19l3 -54z" />
    <glyph glyph-name="lacute" unicode="&#x13a;" horiz-adv-x="225" 
d="M135 0h-45v720h45v-720zM48 780h-3l-8 30l240 96h19l3 -54z" />
    <glyph glyph-name="uni013B" unicode="&#x13b;" horiz-adv-x="672" 
d="M652 0h-552v700h45v-657h507v-43zM323 -258q37 0 59.5 23t22.5 61q0 34 -16 45q-3 -9 -11.5 -16.5t-20.5 -7.5q-16 0 -26 9.5t-10 23.5q0 15 11.5 25.5t29.5 10.5q31 0 53.5 -24t22.5 -63q0 -54 -31.5 -86.5t-83.5 -32.5v32z" />
    <glyph glyph-name="uni013C" unicode="&#x13c;" horiz-adv-x="225" 
d="M135 0h-45v720h45v-720zM59 -258q37 0 59.5 23t22.5 61q0 34 -16 45q-3 -9 -11.5 -16.5t-20.5 -7.5q-16 0 -26 9.5t-10 23.5q0 15 11.5 25.5t29.5 10.5q31 0 53.5 -24t22.5 -63q0 -54 -31.5 -86.5t-83.5 -32.5v32z" />
    <glyph glyph-name="Lcaron" unicode="&#x13d;" horiz-adv-x="672" 
d="M195.5 699.5q11.5 10.5 29.5 10.5q31 0 53.5 -24t22.5 -63q0 -54 -31.5 -86.5t-83.5 -32.5v32q37 0 59.5 23t22.5 61q0 34 -16 45q-3 -9 -11.5 -16.5t-20.5 -7.5q-16 0 -26 9.5t-10 23.5q0 15 11.5 25.5zM652 0h-552v700h45v-657h507v-43z" />
    <glyph glyph-name="lcaron" unicode="&#x13e;" horiz-adv-x="249" 
d="M183.5 716.5q11.5 10.5 29.5 10.5q31 0 53.5 -24t22.5 -63q0 -61 -30 -93.5t-83 -32.5h-2v32h2q35 0 57.5 22.5t22.5 68.5q0 34 -16 45q-3 -9 -11.5 -16.5t-20.5 -7.5q-16 0 -26 9.5t-10 23.5q0 15 11.5 25.5zM90 0v720h45v-2v-26v-692h-45z" />
    <glyph glyph-name="Ldot" unicode="&#x13f;" horiz-adv-x="672" 
d="M652 0h-552v700h45v-657h507v-43zM421 343.5q-12 11.5 -12 26.5t12 26.5t29 11.5t29 -11.5t12 -26.5t-12 -26.5t-29 -11.5t-29 11.5z" />
    <glyph glyph-name="ldot" unicode="&#x140;" horiz-adv-x="297" 
d="M135 0h-45v720h45v-720zM232 333.5q-12 11.5 -12 26.5t12 26.5t29 11.5t29 -11.5t12 -26.5t-12 -26.5t-29 -11.5t-29 11.5z" />
    <glyph glyph-name="Lslash" unicode="&#x141;" horiz-adv-x="684" 
d="M157 338v-295h507v-43h-552v318l-97 -43v46l97 43v336h45v-316l265 118v-46z" />
    <glyph glyph-name="lslash" unicode="&#x142;" horiz-adv-x="294" 
d="M162 422l127 47v-45l-127 -47v-377h-45v360l-112 -41v45l112 41v315h45v-298z" />
    <glyph glyph-name="Nacute" unicode="&#x143;" horiz-adv-x="836" 
d="M145 0h-45v700h72l514 -658h5v658h45v-700h-72l-514 658h-5v-658zM318 780h-3l-8 30l240 96h19l3 -54z" />
    <glyph glyph-name="nacute" unicode="&#x144;" 
d="M90 0v530h45v-108h5q27 45 88 81.5t138 36.5q114 0 176.5 -59t62.5 -162v-319h-45v319q0 83 -51.5 131t-145.5 48q-56 0 -102.5 -24t-78.5 -60.5t-47 -73.5v-340h-45zM243 620h-3l-8 30l240 96h19l3 -54z" />
    <glyph glyph-name="uni0145" unicode="&#x145;" horiz-adv-x="836" 
d="M145 0h-45v700h72l514 -658h5v658h45v-700h-72l-514 658h-5v-658zM372 -258q37 0 59.5 23t22.5 61q0 34 -16 45q-3 -9 -11.5 -16.5t-20.5 -7.5q-16 0 -26 9.5t-10 23.5q0 15 11.5 25.5t29.5 10.5q31 0 53.5 -24t22.5 -63q0 -54 -31.5 -86.5t-83.5 -32.5v32z" />
    <glyph glyph-name="uni0146" unicode="&#x146;" 
d="M90 0v530h45v-108h5q27 45 88 81.5t138 36.5q114 0 176.5 -59t62.5 -162v-319h-45v319q0 83 -51.5 131t-145.5 48q-56 0 -102.5 -24t-78.5 -60.5t-47 -73.5v-340h-45zM297 -258q37 0 59.5 23t22.5 61q0 34 -16 45q-3 -9 -11.5 -16.5t-20.5 -7.5q-16 0 -26 9.5t-10 23.5
q0 15 11.5 25.5t29.5 10.5q31 0 53.5 -24t22.5 -63q0 -54 -31.5 -86.5t-83.5 -32.5v32z" />
    <glyph glyph-name="Ncaron" unicode="&#x147;" horiz-adv-x="836" 
d="M145 0h-45v700h72l514 -658h5v658h45v-700h-72l-514 658h-5v-658zM460 777h-60l-163 133h60l129 -105h8l129 105h60z" />
    <glyph glyph-name="ncaron" unicode="&#x148;" 
d="M90 0v530h45v-108h5q27 45 88 81.5t138 36.5q114 0 176.5 -59t62.5 -162v-319h-45v319q0 83 -51.5 131t-145.5 48q-56 0 -102.5 -24t-78.5 -60.5t-47 -73.5v-340h-45zM375 617h-60l-163 133h60l129 -105h8l129 105h60z" />
    <glyph glyph-name="napostrophe" unicode="&#x149;" horiz-adv-x="710" 
d="M1.5 714.5q11.5 10.5 29.5 10.5q31 0 53.5 -24t22.5 -63q0 -60 -31 -93t-84 -33v32q38 0 60 23.5t22 67.5q0 34 -16 45q-3 -9 -11.5 -16.5t-20.5 -7.5q-16 0 -26 9.5t-10 23.5q0 15 11.5 25.5zM110 0v530h45v-108h5q27 45 88 81.5t138 36.5q114 0 176.5 -59t62.5 -162
v-319h-45v319q0 83 -51.5 131t-145.5 48q-56 0 -102.5 -24t-78.5 -60.5t-47 -73.5v-340h-45z" />
    <glyph glyph-name="Eng" unicode="&#x14a;" horiz-adv-x="836" 
d="M516 -185v44q40 -16 80 -16q45 0 70 28t25 82v47h-27l-514 658h-5v-658h-45v700h72l514 -658h5v658h45v-747q0 -76 -36 -114.5t-103 -38.5q-38 0 -81 15z" />
    <glyph glyph-name="eng" unicode="&#x14b;" 
d="M385 -185v44q40 -16 80 -16q45 0 70 28t25 82v366q0 83 -51.5 131t-145.5 48q-56 0 -102.5 -24t-78.5 -60.5t-47 -73.5v-340h-45v530h45v-108h5q27 45 88 81.5t138 36.5q114 0 176.5 -59t62.5 -162v-366q0 -76 -36 -114.5t-103 -38.5q-38 0 -81 15z" />
    <glyph glyph-name="Omacron" unicode="&#x14c;" horiz-adv-x="1016" 
d="M273 37q-99 47 -151 129t-52 184t52 184t151 129t235 47t235 -47t151 -129t52 -184t-52 -184t-151 -129t-235 -47t-235 47zM717.5 75q88.5 42 135 114t46.5 161t-46.5 161t-135 114t-209.5 42t-209.5 -42t-135 -114t-46.5 -161t46.5 -161t135 -114t209.5 -42t209.5 42z
M685 823h-353v42h353v-42z" />
    <glyph glyph-name="omacron" unicode="&#x14d;" horiz-adv-x="770" 
d="M212.5 26.5q-73.5 36.5 -113 99t-39.5 139.5t39.5 139.5t113 99t172.5 36.5t172.5 -36.5t113 -99t39.5 -139.5t-39.5 -139.5t-113 -99t-172.5 -36.5t-172.5 36.5zM535 62.5q63 30.5 96.5 83.5t33.5 119t-33.5 119t-96.5 83.5t-150 30.5t-150 -30.5t-96.5 -83.5
t-33.5 -119t33.5 -119t96.5 -83.5t150 -30.5t150 30.5zM562 663h-353v42h353v-42z" />
    <glyph glyph-name="Obreve" unicode="&#x14e;" horiz-adv-x="1016" 
d="M273 37q-99 47 -151 129t-52 184t52 184t151 129t235 47t235 -47t151 -129t52 -184t-52 -184t-151 -129t-235 -47t-235 47zM717.5 75q88.5 42 135 114t46.5 161t-46.5 161t-135 114t-209.5 42t-209.5 -42t-135 -114t-46.5 -161t46.5 -161t135 -114t209.5 -42t209.5 42z
M388.5 812q-41.5 34 -41.5 88h44q0 -36 30 -59t87 -23t87 23t30 59h44q0 -54 -41.5 -88t-119.5 -34t-119.5 34z" />
    <glyph glyph-name="obreve" unicode="&#x14f;" horiz-adv-x="770" 
d="M212.5 26.5q-73.5 36.5 -113 99t-39.5 139.5t39.5 139.5t113 99t172.5 36.5t172.5 -36.5t113 -99t39.5 -139.5t-39.5 -139.5t-113 -99t-172.5 -36.5t-172.5 36.5zM535 62.5q63 30.5 96.5 83.5t33.5 119t-33.5 119t-96.5 83.5t-150 30.5t-150 -30.5t-96.5 -83.5
t-33.5 -119t33.5 -119t96.5 -83.5t150 -30.5t150 30.5zM265.5 652q-41.5 34 -41.5 88h44q0 -36 30 -59t87 -23t87 23t30 59h44q0 -54 -41.5 -88t-119.5 -34t-119.5 34z" />
    <glyph glyph-name="Ohungarumlaut" unicode="&#x150;" horiz-adv-x="1016" 
d="M273 37q-99 47 -151 129t-52 184t52 184t151 129t235 47t235 -47t151 -129t52 -184t-52 -184t-151 -129t-235 -47t-235 47zM717.5 75q88.5 42 135 114t46.5 161t-46.5 161t-135 114t-209.5 42t-209.5 -42t-135 -114t-46.5 -161t46.5 -161t135 -114t209.5 -42t209.5 42z
M309 780h-3l-8 28l200 98h19l3 -45zM519 780h-3l-8 28l200 98h19l3 -45z" />
    <glyph glyph-name="ohungarumlaut" unicode="&#x151;" horiz-adv-x="770" 
d="M212.5 26.5q-73.5 36.5 -113 99t-39.5 139.5t39.5 139.5t113 99t172.5 36.5t172.5 -36.5t113 -99t39.5 -139.5t-39.5 -139.5t-113 -99t-172.5 -36.5t-172.5 36.5zM535 62.5q63 30.5 96.5 83.5t33.5 119t-33.5 119t-96.5 83.5t-150 30.5t-150 -30.5t-96.5 -83.5
t-33.5 -119t33.5 -119t96.5 -83.5t150 -30.5t150 30.5zM186 620h-3l-8 28l200 98h19l3 -45zM396 620h-3l-8 28l200 98h19l3 -45z" />
    <glyph glyph-name="OE" unicode="&#x152;" horiz-adv-x="1251" 
d="M691 43h500v-43h-545q-70 -10 -138 -10q-136 0 -235 47t-151 129t-52 184t52 184t151 129t235 47q71 0 138 -10h525v-43h-480v-278h440v-43h-440v-293zM646 655q-23 5 -61 8.5t-77 3.5q-121 0 -209.5 -42t-135 -114t-46.5 -161t46.5 -161t135 -114t209.5 -42q73 0 138 12
v610z" />
    <glyph glyph-name="oe" unicode="&#x153;" horiz-adv-x="1266" 
d="M209.5 26.5q-71.5 36.5 -110.5 99t-39 139.5t39 139.5t110.5 99t165.5 36.5q78 0 138 -25t98 -63.5t54 -80.5h5q14 42 48.5 80.5t87.5 63.5t118 25q81 0 145 -35t100.5 -97.5t36.5 -140.5v-25h-516q5 -59 39.5 -107t92 -75.5t129.5 -27.5q68 0 125.5 19t87.5 43v-47
q-30 -22 -88 -39.5t-127 -17.5q-71 0 -129.5 25.5t-97 64.5t-52.5 79h-5q-16 -42 -54 -80.5t-98 -63.5t-138 -25q-94 0 -165.5 36.5zM518 62.5q61 30.5 94 83.5t33 119t-33 119t-94 83.5t-143 30.5t-143.5 -30t-94 -83t-32.5 -120q0 -66 33 -119t94 -83.5t143 -30.5
t143 30.5zM1161 284q-3 61 -34.5 110t-84.5 76.5t-118 27.5q-67 0 -119 -28t-81.5 -77t-32.5 -109h470z" />
    <glyph glyph-name="Racute" unicode="&#x154;" horiz-adv-x="816" 
d="M599 298q53 -10 81.5 -48.5t28.5 -104.5v-145h-45v145q0 64 -39 98.5t-116 34.5h-364v-278h-45v700h378q131 0 199.5 -56.5t68.5 -150.5q0 -74 -39.5 -124t-107.5 -65v-6zM478 321q109 0 165 46t56 122t-56 122t-165 46h-333v-336h333zM288 780h-3l-8 30l240 96h19l3 -54
z" />
    <glyph glyph-name="racute" unicode="&#x155;" horiz-adv-x="396" 
d="M90 0v530h45v-113h5q23 43 78 78t128 35h35v-42h-36q-53 0 -96 -22.5t-72 -56.5t-42 -69v-340h-45zM111 620h-3l-8 30l240 96h19l3 -54z" />
    <glyph glyph-name="uni0156" unicode="&#x156;" horiz-adv-x="816" 
d="M599 298q53 -10 81.5 -48.5t28.5 -104.5v-145h-45v145q0 64 -39 98.5t-116 34.5h-364v-278h-45v700h378q131 0 199.5 -56.5t68.5 -150.5q0 -74 -39.5 -124t-107.5 -65v-6zM478 321q109 0 165 46t56 122t-56 122t-165 46h-333v-336h333zM352 -258q37 0 59.5 23t22.5 61
q0 34 -16 45q-3 -9 -11.5 -16.5t-20.5 -7.5q-16 0 -26 9.5t-10 23.5q0 15 11.5 25.5t29.5 10.5q31 0 53.5 -24t22.5 -63q0 -54 -31.5 -86.5t-83.5 -32.5v32z" />
    <glyph glyph-name="uni0157" unicode="&#x157;" horiz-adv-x="396" 
d="M90 0v530h45v-113h5q23 43 78 78t128 35h35v-42h-36q-53 0 -96 -22.5t-72 -56.5t-42 -69v-340h-45zM60 -258q37 0 59.5 23t22.5 61q0 34 -16 45q-3 -9 -11.5 -16.5t-20.5 -7.5q-16 0 -26 9.5t-10 23.5q0 15 11.5 25.5t29.5 10.5q31 0 53.5 -24t22.5 -63
q0 -54 -31.5 -86.5t-83.5 -32.5v32z" />
    <glyph glyph-name="Rcaron" unicode="&#x158;" horiz-adv-x="816" 
d="M599 298q53 -10 81.5 -48.5t28.5 -104.5v-145h-45v145q0 64 -39 98.5t-116 34.5h-364v-278h-45v700h378q131 0 199.5 -56.5t68.5 -150.5q0 -74 -39.5 -124t-107.5 -65v-6zM478 321q109 0 165 46t56 122t-56 122t-165 46h-333v-336h333zM430 777h-60l-163 133h60l129 -105
h8l129 105h60z" />
    <glyph glyph-name="rcaron" unicode="&#x159;" horiz-adv-x="396" 
d="M90 0v530h45v-113h5q23 43 78 78t128 35h35v-42h-36q-53 0 -96 -22.5t-72 -56.5t-42 -69v-340h-45zM265 617h-60l-163 133h60l129 -105h8l129 105h60z" />
    <glyph glyph-name="Sacute" unicode="&#x15a;" horiz-adv-x="742" 
d="M224 8.5q-78 18.5 -119 41.5v50q41 -26 118 -46.5t164 -20.5q84 0 140 19.5t82 51t26 67.5q0 48 -36 77.5t-89 45t-143 33.5q-102 21 -162 40t-102.5 56.5t-42.5 100.5q0 49 34.5 91t108 68.5t184.5 26.5q90 0 167.5 -20.5t117.5 -45.5v-48q-39 27 -115.5 49t-169.5 22
q-97 0 -160 -20.5t-91.5 -53t-28.5 -69.5q0 -46 35 -74.5t87 -43.5t141 -33q103 -21 164.5 -40.5t104.5 -58t43 -103.5q0 -49 -31.5 -90t-96.5 -66t-162 -25q-90 0 -168 18.5zM256 780h-3l-8 30l240 96h19l3 -54z" />
    <glyph glyph-name="sacute" unicode="&#x15b;" horiz-adv-x="598" 
d="M171.5 5.5q-61.5 15.5 -97.5 34.5v47q36 -21 97.5 -38t135.5 -17q100 0 148 26t48 67q0 34 -27.5 55.5t-68.5 34t-111 27.5q-82 18 -131.5 33.5t-84.5 46.5t-35 80q0 59 62 98.5t196 39.5q75 0 141 -17.5t102 -38.5v-47q-37 23 -103 42t-140 19q-113 0 -163 -28t-50 -68
q0 -34 27.5 -55.5t68.5 -34t111 -27.5q82 -18 131.5 -33.5t84.5 -46.5t35 -80q0 -58 -61 -96.5t-180 -38.5q-74 0 -135.5 15.5zM193 620h-3l-8 30l240 96h19l3 -54z" />
    <glyph glyph-name="Scircumflex" unicode="&#x15c;" horiz-adv-x="742" 
d="M224 8.5q-78 18.5 -119 41.5v50q41 -26 118 -46.5t164 -20.5q84 0 140 19.5t82 51t26 67.5q0 48 -36 77.5t-89 45t-143 33.5q-102 21 -162 40t-102.5 56.5t-42.5 100.5q0 49 34.5 91t108 68.5t184.5 26.5q90 0 167.5 -20.5t117.5 -45.5v-48q-39 27 -115.5 49t-169.5 22
q-97 0 -160 -20.5t-91.5 -53t-28.5 -69.5q0 -46 35 -74.5t87 -43.5t141 -33q103 -21 164.5 -40.5t104.5 -58t43 -103.5q0 -49 -31.5 -90t-96.5 -66t-162 -25q-90 0 -168 18.5zM247 777h-60l163 133h60l163 -133h-60l-129 105h-8z" />
    <glyph glyph-name="scircumflex" unicode="&#x15d;" horiz-adv-x="598" 
d="M171.5 5.5q-61.5 15.5 -97.5 34.5v47q36 -21 97.5 -38t135.5 -17q100 0 148 26t48 67q0 34 -27.5 55.5t-68.5 34t-111 27.5q-82 18 -131.5 33.5t-84.5 46.5t-35 80q0 59 62 98.5t196 39.5q75 0 141 -17.5t102 -38.5v-47q-37 23 -103 42t-140 19q-113 0 -163 -28t-50 -68
q0 -34 27.5 -55.5t68.5 -34t111 -27.5q82 -18 131.5 -33.5t84.5 -46.5t35 -80q0 -58 -61 -96.5t-180 -38.5q-74 0 -135.5 15.5zM167 617h-60l163 133h60l163 -133h-60l-129 105h-8z" />
    <glyph glyph-name="Scedilla" unicode="&#x15e;" horiz-adv-x="742" 
d="M389 -10l-14 -45h42q50 0 77.5 -23.5t27.5 -62.5q0 -41 -31.5 -65t-89.5 -24q-46 0 -88 11v39q47 -12 87 -12q39 0 59 14t20 37q0 22 -17.5 35t-52.5 13h-71l-13 14l22 70q-77 5 -142 22t-100 37v50q41 -26 118 -46.5t164 -20.5q84 0 140 19.5t82 51t26 67.5
q0 48 -36 77.5t-89 45t-143 33.5q-102 21 -162 40t-102.5 56.5t-42.5 100.5q0 49 34.5 91t108 68.5t184.5 26.5q90 0 167.5 -20.5t117.5 -45.5v-48q-39 27 -115.5 49t-169.5 22q-97 0 -160 -20.5t-91.5 -53t-28.5 -69.5q0 -46 35 -74.5t87 -43.5t141 -33
q103 -21 164.5 -40.5t104.5 -58t43 -103.5q0 -49 -31.5 -90t-96.5 -66t-162 -25h-3z" />
    <glyph glyph-name="scedilla" unicode="&#x15f;" horiz-adv-x="598" 
d="M302 -10l-14 -45h42q50 0 77.5 -23.5t27.5 -62.5q0 -41 -31.5 -65t-89.5 -24q-46 0 -88 11v39q47 -12 87 -12q39 0 59 14t20 37q0 22 -17.5 35t-52.5 13h-71l-13 14l22 71q-59 5 -108 18.5t-78 29.5v47q36 -21 97.5 -38t135.5 -17q100 0 148 26t48 67q0 34 -27.5 55.5
t-68.5 34t-111 27.5q-82 18 -131.5 33.5t-84.5 46.5t-35 80q0 59 62 98.5t196 39.5q75 0 141 -17.5t102 -38.5v-47q-37 23 -103 42t-140 19q-113 0 -163 -28t-50 -68q0 -34 27.5 -55.5t68.5 -34t111 -27.5q82 -18 131.5 -33.5t84.5 -46.5t35 -80q0 -58 -61 -96.5t-180 -38.5
h-5z" />
    <glyph glyph-name="Scaron" unicode="&#x160;" horiz-adv-x="742" 
d="M224 8.5q-78 18.5 -119 41.5v50q41 -26 118 -46.5t164 -20.5q84 0 140 19.5t82 51t26 67.5q0 48 -36 77.5t-89 45t-143 33.5q-102 21 -162 40t-102.5 56.5t-42.5 100.5q0 49 34.5 91t108 68.5t184.5 26.5q90 0 167.5 -20.5t117.5 -45.5v-48q-39 27 -115.5 49t-169.5 22
q-97 0 -160 -20.5t-91.5 -53t-28.5 -69.5q0 -46 35 -74.5t87 -43.5t141 -33q103 -21 164.5 -40.5t104.5 -58t43 -103.5q0 -49 -31.5 -90t-96.5 -66t-162 -25q-90 0 -168 18.5zM410 777h-60l-163 133h60l129 -105h8l129 105h60z" />
    <glyph glyph-name="scaron" unicode="&#x161;" horiz-adv-x="598" 
d="M171.5 5.5q-61.5 15.5 -97.5 34.5v47q36 -21 97.5 -38t135.5 -17q100 0 148 26t48 67q0 34 -27.5 55.5t-68.5 34t-111 27.5q-82 18 -131.5 33.5t-84.5 46.5t-35 80q0 59 62 98.5t196 39.5q75 0 141 -17.5t102 -38.5v-47q-37 23 -103 42t-140 19q-113 0 -163 -28t-50 -68
q0 -34 27.5 -55.5t68.5 -34t111 -27.5q82 -18 131.5 -33.5t84.5 -46.5t35 -80q0 -58 -61 -96.5t-180 -38.5q-74 0 -135.5 15.5zM330 617h-60l-163 133h60l129 -105h8l129 105h60z" />
    <glyph glyph-name="uni0162" unicode="&#x162;" horiz-adv-x="676" 
d="M361 0h-2l-17 -55h42q50 0 77.5 -23.5t27.5 -62.5q0 -41 -31.5 -65t-89.5 -24q-46 0 -88 11v39q47 -12 87 -12q39 0 59 14t20 37q0 22 -17.5 35t-52.5 13h-71l-13 14l24 79v657h-301v43h646v-43h-300v-657z" />
    <glyph glyph-name="uni0163" unicode="&#x163;" horiz-adv-x="364" 
d="M260 -55q50 0 77.5 -23.5t27.5 -62.5q0 -41 -31.5 -65t-89.5 -24q-46 0 -88 11v39q46 -12 87 -12q39 0 59 14t20 37q0 22 -17.5 35t-52.5 13h-71l-13 14l25 81q-38 16 -59 53t-21 93v340h-113v42h69q24 0 34 10.5t10 36.5v93h45v-140h171v-42h-171v-342q0 -37 13 -63
t35 -38l2 7l10 -13q17 -7 40 -7q33 0 71 12v-42q-39 -12 -72 -12q-17 0 -24 1l-15 -46h42z" />
    <glyph glyph-name="Tcaron" unicode="&#x164;" horiz-adv-x="676" 
d="M15 700h646v-43h-300v-657h-45v657h-301v43zM368 777h-60l-163 133h60l129 -105h8l129 105h60z" />
    <glyph glyph-name="tcaron" unicode="&#x165;" horiz-adv-x="344" 
d="M214.5 666.5q11.5 10.5 29.5 10.5q31 0 53.5 -24t22.5 -63q0 -54 -31.5 -86.5t-83.5 -32.5v32q37 0 59.5 23t22.5 61q0 34 -16 45q-3 -9 -11.5 -16.5t-20.5 -7.5q-16 0 -26 9.5t-10 23.5q0 15 11.5 25.5zM152 30q-39 40 -39 118v340h-113v42h69q24 0 34 10.5t10 36.5v93
h45v-524q0 -56 27.5 -85t72.5 -29q33 0 71 12v-42q-39 -12 -72 -12q-66 0 -105 40z" />
    <glyph glyph-name="Tbar" unicode="&#x166;" horiz-adv-x="676" 
d="M661 700v-43h-300v-207h179v-43h-179v-407h-45v407h-181v43h181v207h-301v43h646z" />
    <glyph glyph-name="tbar" unicode="&#x167;" horiz-adv-x="394" 
d="M344 488h-171v-148h171v-42h-171v-152q0 -56 27.5 -85t72.5 -29q33 0 71 12v-42q-39 -12 -72 -12q-66 0 -105 40t-39 118v150h-113v42h113v148h-113v42h69q24 0 34 10.5t10 36.5v93h45v-140h171v-42z" />
    <glyph glyph-name="Utilde" unicode="&#x168;" horiz-adv-x="829" 
d="M241 25q-72 35 -109 99.5t-37 151.5v424h45v-420q0 -116 71 -181.5t204 -65.5q132 0 203 65.5t71 181.5v420h45v-424q0 -87 -37 -151.5t-109 -99.5t-173 -35q-102 0 -174 35zM455 806q-22 11 -51 32q-27 18 -41.5 26t-30.5 8q-20 0 -32.5 -13t-12.5 -34v-25h-42v28
q0 39 22.5 62t61.5 23q25 0 45.5 -10.5t52.5 -32.5q25 -18 40.5 -26.5t31.5 -8.5q20 0 32.5 13.5t12.5 36.5v23h42v-28q0 -40 -22.5 -62.5t-61.5 -22.5q-25 0 -47 11z" />
    <glyph glyph-name="utilde" unicode="&#x169;" 
d="M147.5 49q-62.5 59 -62.5 163v318h45v-318q0 -83 52 -131.5t146 -48.5q55 0 101.5 24t78.5 60.5t47 73.5v340h45v-530h-45v108h-5q-27 -45 -87.5 -81.5t-137.5 -36.5q-115 0 -177.5 59zM385 646q-22 11 -51 32q-27 18 -41.5 26t-30.5 8q-20 0 -32.5 -13t-12.5 -34v-25
h-42v28q0 39 22.5 62t61.5 23q25 0 45.5 -10.5t52.5 -32.5q25 -18 40.5 -26.5t31.5 -8.5q20 0 32.5 13.5t12.5 36.5v23h42v-28q0 -40 -22.5 -62.5t-61.5 -22.5q-25 0 -47 11z" />
    <glyph glyph-name="Umacron" unicode="&#x16a;" horiz-adv-x="829" 
d="M241 25q-72 35 -109 99.5t-37 151.5v424h45v-420q0 -116 71 -181.5t204 -65.5q132 0 203 65.5t71 181.5v420h45v-424q0 -87 -37 -151.5t-109 -99.5t-173 -35q-102 0 -174 35zM592 823h-353v42h353v-42z" />
    <glyph glyph-name="umacron" unicode="&#x16b;" 
d="M147.5 49q-62.5 59 -62.5 163v318h45v-318q0 -83 52 -131.5t146 -48.5q55 0 101.5 24t78.5 60.5t47 73.5v340h45v-530h-45v108h-5q-27 -45 -87.5 -81.5t-137.5 -36.5q-115 0 -177.5 59zM522 663h-353v42h353v-42z" />
    <glyph glyph-name="Ubreve" unicode="&#x16c;" horiz-adv-x="829" 
d="M241 25q-72 35 -109 99.5t-37 151.5v424h45v-420q0 -116 71 -181.5t204 -65.5q132 0 203 65.5t71 181.5v420h45v-424q0 -87 -37 -151.5t-109 -99.5t-173 -35q-102 0 -174 35zM295.5 812q-41.5 34 -41.5 88h44q0 -36 30 -59t87 -23t87 23t30 59h44q0 -54 -41.5 -88
t-119.5 -34t-119.5 34z" />
    <glyph glyph-name="ubreve" unicode="&#x16d;" 
d="M147.5 49q-62.5 59 -62.5 163v318h45v-318q0 -83 52 -131.5t146 -48.5q55 0 101.5 24t78.5 60.5t47 73.5v340h45v-530h-45v108h-5q-27 -45 -87.5 -81.5t-137.5 -36.5q-115 0 -177.5 59zM225.5 652q-41.5 34 -41.5 88h44q0 -36 30 -59t87 -23t87 23t30 59h44
q0 -54 -41.5 -88t-119.5 -34t-119.5 34z" />
    <glyph glyph-name="Uring" unicode="&#x16e;" horiz-adv-x="829" 
d="M241 25q-72 35 -109 99.5t-37 151.5v424h45v-420q0 -116 71 -181.5t204 -65.5q132 0 203 65.5t71 181.5v420h45v-424q0 -87 -37 -151.5t-109 -99.5t-173 -35q-102 0 -174 35zM327.5 777.5q-32.5 25.5 -32.5 67.5t32.5 67.5t87.5 25.5t87.5 -25.5t32.5 -67.5t-32.5 -67.5
t-87.5 -25.5t-87.5 25.5zM474.5 802.5q22.5 16.5 22.5 42.5t-22.5 42.5t-59.5 16.5t-59.5 -16.5t-22.5 -42.5t22.5 -42.5t59.5 -16.5t59.5 16.5z" />
    <glyph glyph-name="uring" unicode="&#x16f;" 
d="M147.5 49q-62.5 59 -62.5 163v318h45v-318q0 -83 52 -131.5t146 -48.5q55 0 101.5 24t78.5 60.5t47 73.5v340h45v-530h-45v108h-5q-27 -45 -87.5 -81.5t-137.5 -36.5q-115 0 -177.5 59zM257.5 617.5q-32.5 25.5 -32.5 67.5t32.5 67.5t87.5 25.5t87.5 -25.5t32.5 -67.5
t-32.5 -67.5t-87.5 -25.5t-87.5 25.5zM404.5 642.5q22.5 16.5 22.5 42.5t-22.5 42.5t-59.5 16.5t-59.5 -16.5t-22.5 -42.5t22.5 -42.5t59.5 -16.5t59.5 16.5z" />
    <glyph glyph-name="Uhungarumlaut" unicode="&#x170;" horiz-adv-x="829" 
d="M241 25q-72 35 -109 99.5t-37 151.5v424h45v-420q0 -116 71 -181.5t204 -65.5q132 0 203 65.5t71 181.5v420h45v-424q0 -87 -37 -151.5t-109 -99.5t-173 -35q-102 0 -174 35zM226 780h-3l-8 28l200 98h19l3 -45zM436 780h-3l-8 28l200 98h19l3 -45z" />
    <glyph glyph-name="uhungarumlaut" unicode="&#x171;" 
d="M147.5 49q-62.5 59 -62.5 163v318h45v-318q0 -83 52 -131.5t146 -48.5q55 0 101.5 24t78.5 60.5t47 73.5v340h45v-530h-45v108h-5q-27 -45 -87.5 -81.5t-137.5 -36.5q-115 0 -177.5 59zM171 620h-3l-8 28l200 98h19l3 -45zM381 620h-3l-8 28l200 98h19l3 -45z" />
    <glyph glyph-name="Uogonek" unicode="&#x172;" horiz-adv-x="829" 
d="M689 700h45v-424q0 -90 -40.5 -156t-116.5 -100q-78 -35 -127.5 -72t-49.5 -71q0 -44 61 -44q40 0 76 8v-39q-45 -8 -75 -8q-54 0 -82.5 20.5t-28.5 56.5q0 33 27.5 63t63.5 52v4h-28q-102 0 -173.5 35t-108.5 99.5t-37 151.5v424h45v-420q0 -116 71 -181.5t204 -65.5
q132 0 203 65.5t71 181.5v420z" />
    <glyph glyph-name="uogonek" unicode="&#x173;" 
d="M600 0q-56 -25 -98 -57.5t-42 -65.5q0 -44 61 -44q40 0 76 8v-39q-45 -8 -75 -8q-54 0 -82.5 20.5t-28.5 56.5q0 39 40.5 77.5t103.5 65.5v94h-5q-27 -45 -87.5 -81.5t-137.5 -36.5q-115 0 -177.5 59t-62.5 163v318h45v-318q0 -83 52 -131.5t146 -48.5q55 0 101.5 24
t78.5 60.5t47 73.5v340h45v-530z" />
    <glyph glyph-name="Wcircumflex" unicode="&#x174;" horiz-adv-x="1202" 
d="M355 0h-67l-278 700h48l261 -657h5l247 657h59l248 -657h5l261 657h48l-278 -700h-67l-244 647h-5zM468 777h-60l163 133h60l163 -133h-60l-129 105h-8z" />
    <glyph glyph-name="wcircumflex" unicode="&#x175;" horiz-adv-x="937" 
d="M279 0h-58l-216 530h45l198 -485h4l190 485h53l190 -485h4l198 485h45l-216 -530h-58l-187 477h-5zM336 617h-60l163 133h60l163 -133h-60l-129 105h-8z" />
    <glyph glyph-name="Ycircumflex" unicode="&#x176;" horiz-adv-x="733" 
d="M389 0h-45v160l-364 540h50l334 -493h5l334 493h50l-364 -540v-160zM234 777h-60l163 133h60l163 -133h-60l-129 105h-8z" />
    <glyph glyph-name="ycircumflex" unicode="&#x177;" horiz-adv-x="561" 
d="M197 -190h-48l121 240l-270 480h50l241 -428h5l217 428h48zM147 617h-60l163 133h60l163 -133h-60l-129 105h-8z" />
    <glyph glyph-name="Ydieresis" unicode="&#x178;" horiz-adv-x="733" 
d="M389 0h-45v160l-364 540h50l334 -493h5l334 493h50l-364 -540v-160zM246 815.5q-12 11.5 -12 27.5t12 27.5t30 11.5t30 -11.5t12 -27.5t-12 -27.5t-30 -11.5t-30 11.5zM428 815.5q-12 11.5 -12 27.5t12 27.5t30 11.5t30 -11.5t12 -27.5t-12 -27.5t-30 -11.5t-30 11.5z
" />
    <glyph glyph-name="Zacute" unicode="&#x179;" horiz-adv-x="673" 
d="M648 0h-618v42l534 610v5h-517v43h581v-42l-534 -610v-5h554v-43zM228 780h-3l-8 30l240 96h19l3 -54z" />
    <glyph glyph-name="zacute" unicode="&#x17a;" horiz-adv-x="554" 
d="M534 0h-509v40l431 444v4h-426v42h489v-40l-431 -444v-4h446v-42zM163 620h-3l-8 30l240 96h19l3 -54z" />
    <glyph glyph-name="Zdotaccent" unicode="&#x17b;" horiz-adv-x="673" 
d="M648 0h-618v42l534 610v5h-517v43h581v-42l-534 -610v-5h554v-43zM309 816.5q-12 11.5 -12 26.5t12 26.5t29 11.5t29 -11.5t12 -26.5t-12 -26.5t-29 -11.5t-29 11.5z" />
    <glyph glyph-name="zdotaccent" unicode="&#x17c;" horiz-adv-x="554" 
d="M534 0h-509v40l431 444v4h-426v42h489v-40l-431 -444v-4h446v-42zM246 656.5q-12 11.5 -12 26.5t12 26.5t29 11.5t29 -11.5t12 -26.5t-12 -26.5t-29 -11.5t-29 11.5z" />
    <glyph glyph-name="Zcaron" unicode="&#x17d;" horiz-adv-x="673" 
d="M648 0h-618v42l534 610v5h-517v43h581v-42l-534 -610v-5h554v-43zM368 777h-60l-163 133h60l129 -105h8l129 105h60z" />
    <glyph glyph-name="zcaron" unicode="&#x17e;" horiz-adv-x="554" 
d="M534 0h-509v40l431 444v4h-426v42h489v-40l-431 -444v-4h446v-42zM305 617h-60l-163 133h60l129 -105h8l129 105h60z" />
    <glyph glyph-name="uni018F" unicode="&#x18f;" horiz-adv-x="965" 
d="M696.5 663.5q97.5 -46.5 148 -128t50.5 -185.5q0 -103 -49.5 -185t-142.5 -128.5t-218 -46.5q-124 0 -218.5 47.5t-145.5 129.5t-51 182v27h777q-7 84 -54 150t-131 103.5t-198 37.5q-102 0 -184.5 -21.5t-136.5 -48.5v50q57 24 139 43.5t182 19.5q135 0 232.5 -46.5z
M672 72q81 39 126 107t50 154h-731q2 -81 48 -149.5t129 -109.5t191 -41q106 0 187 39z" />
    <glyph glyph-name="florin" unicode="&#x192;" horiz-adv-x="461" 
d="M-95 -190l9 42h62q53 0 84.5 28t42.5 78l113 529h-110l9 43h110l9 44q16 76 56 111t114 35h92l-9 -42h-90q-52 0 -79 -24.5t-39 -82.5l-9 -41h173l-9 -43h-173l-113 -528q-16 -75 -59 -112t-121 -37h-63z" />
    <glyph glyph-name="uni01F4" unicode="&#x1f4;" horiz-adv-x="908" 
d="M273 37q-99 47 -151 129t-52 184q0 103 52.5 184.5t155 128.5t245.5 47q95 0 177.5 -23t132.5 -52v-49q-47 32 -129.5 56.5t-180.5 24.5q-128 0 -219.5 -42t-139 -114t-47.5 -161t46.5 -161t135 -114t209.5 -42q78 0 152.5 20.5t117.5 46.5v181h-328v43h373v-251
q-49 -32 -136 -57.5t-179 -25.5q-136 0 -235 47zM361 780h-3l-8 30l240 96h19l3 -54z" />
    <glyph glyph-name="uni01F5" unicode="&#x1f5;" horiz-adv-x="744" 
d="M217.5 -184.5q-62.5 15.5 -94.5 34.5v47q33 -21 95 -38t135 -17q80 0 137.5 28.5t88 79.5t30.5 118v49h-5q-33 -41 -98.5 -74t-142.5 -33q-91 0 -158.5 34t-103.5 94.5t-36 136.5t36 136.5t103 94.5t156 34q79 0 145 -33t99 -74h5v97h45v-462q0 -78 -36 -139t-104 -95
t-161 -34q-73 0 -135.5 15.5zM470.5 72.5q48.5 20.5 84 51t54.5 62.5v178q-19 32 -55 62.5t-85 51t-104 20.5q-79 0 -136.5 -28t-88 -78.5t-30.5 -116.5t30.5 -116.5t89 -78.5t138.5 -28q54 0 102.5 20.5zM241 620h-3l-8 30l240 96h19l3 -54z" />
    <glyph glyph-name="Aringacute" unicode="&#x1fa;" horiz-adv-x="784" 
d="M736 0l-109 211h-470l-109 -211h-48l348 671q-36 9 -56 32.5t-20 55.5q0 49 52 80l158 95h19l5 -53l-80 -32q36 -7 61 -29.5t25 -60.5q0 -32 -20 -55.5t-56 -32.5l348 -671h-48zM332.5 717q22.5 -16 59.5 -16t59.5 16t22.5 42t-22.5 42.5t-59.5 16.5t-59.5 -16.5
t-22.5 -42.5t22.5 -42zM389 658l-209 -404h424l-209 404h-6z" />
    <glyph glyph-name="aringacute" unicode="&#x1fb;" horiz-adv-x="681" 
d="M242.5 617.5q-32.5 25.5 -32.5 67.5q0 49 52 80l158 95h19l5 -53l-80 -32q36 -7 61 -29.5t25 -60.5q0 -42 -32.5 -67.5t-87.5 -25.5t-87.5 25.5zM389.5 642.5q22.5 16.5 22.5 42.5t-22.5 42.5t-59.5 16.5t-59.5 -16.5t-22.5 -42.5t22.5 -42.5t59.5 -16.5t59.5 16.5z
M109.5 32q-54.5 42 -54.5 110q0 75 64.5 119.5t204.5 44.5q91 0 141 11t68 30t18 47q0 27 -21.5 50.5t-68 38.5t-119.5 15q-75 0 -146 -20t-112 -45v47q36 23 107 41.5t153 18.5q87 0 143.5 -21t82.5 -54.5t26 -73.5v-391h-45v98q-38 -41 -114 -74.5t-170 -33.5
q-103 0 -157.5 42zM442 69.5q74 37.5 109 84.5v164q-8 -20 -66.5 -36t-162.5 -16q-117 0 -169.5 -34t-52.5 -89q0 -50 43.5 -80.5t131.5 -30.5q93 0 167 37.5z" />
    <glyph glyph-name="AEacute" unicode="&#x1fc;" horiz-adv-x="1115" 
d="M565 336v-293h490v-43h-535v211h-385l-102 -211h-48l340 700h710v-43h-470v-278h430v-43h-430zM352 657l-196 -403h364v403h-168zM538 780h-3l-8 30l240 96h19l3 -54z" />
    <glyph glyph-name="aeacute" unicode="&#x1fd;" horiz-adv-x="1154" 
d="M1094 252h-514q5 -102 73.5 -161t185.5 -59q68 0 126 19t88 43v-47q-30 -22 -88 -39.5t-127 -17.5q-91 0 -159 33t-105 94h-4q-41 -45 -119.5 -86t-178.5 -41q-106 0 -161.5 41t-55.5 107q0 72 56 114t172 42h253v73q0 63 -45 97t-151 34q-72 0 -142.5 -19.5
t-113.5 -44.5v49q41 22 111 39.5t149 17.5t129.5 -18.5t74 -48t24.5 -63.5h4q14 31 46.5 61t82.5 49.5t113 19.5q79 0 142 -34.5t98.5 -95t35.5 -133.5v-25zM1049 294q-3 58 -34 104.5t-83 73t-116 26.5q-100 0 -163.5 -55.5t-71.5 -148.5h468zM438 72.5q75 40.5 116 87.5
q-16 42 -18 92h-256q-91 0 -135.5 -31t-44.5 -81q0 -48 43.5 -78t131.5 -30t163 40.5zM471 620h-3l-8 30l240 96h19l3 -54z" />
    <glyph glyph-name="Oslashacute" unicode="&#x1fe;" horiz-adv-x="1016" 
d="M817 618q63 -49 96 -118t33 -150q0 -102 -52 -184t-151 -129t-235 -47q-160 0 -273 67l-59 -57h-62l85 82q-63 49 -96 118t-33 150q0 102 52 184t151 129t235 47q160 0 273 -67l59 57h62zM146.5 219q29.5 -61 86.5 -104l513 495q-98 57 -238 57q-121 0 -209.5 -42
t-135 -114t-46.5 -161q0 -70 29.5 -131zM717.5 75q88.5 42 135 114t46.5 161q0 70 -29.5 131t-86.5 104l-513 -495q98 -57 238 -57q121 0 209.5 42zM384 780h-3l-8 30l240 96h19l3 -54z" />
    <glyph glyph-name="oslashacute" unicode="&#x1ff;" horiz-adv-x="770" 
d="M613 469q47 -37 72 -90t25 -114q0 -77 -39.5 -139.5t-113 -99t-172.5 -36.5q-114 0 -198 50l-40 -40h-57l64 64q-46 37 -70 89t-24 112q0 77 39.5 139.5t113 99t172.5 36.5q111 0 194 -48l43 44h58zM125.5 170.5q20.5 -43.5 58.5 -75.5l364 366q-68 37 -163 37
q-87 0 -150 -30.5t-96.5 -83.5t-33.5 -119q0 -51 20.5 -94.5zM535 62.5q63 30.5 96.5 83.5t33.5 119q0 52 -21 96.5t-61 76.5l-365 -367q69 -39 167 -39q87 0 150 30.5zM261 620h-3l-8 30l240 96h19l3 -54z" />
    <glyph glyph-name="uni0218" unicode="&#x218;" horiz-adv-x="742" 
d="M224 8.5q-78 18.5 -119 41.5v50q41 -26 118 -46.5t164 -20.5q84 0 140 19.5t82 51t26 67.5q0 48 -36 77.5t-89 45t-143 33.5q-102 21 -162 40t-102.5 56.5t-42.5 100.5q0 49 34.5 91t108 68.5t184.5 26.5q90 0 167.5 -20.5t117.5 -45.5v-48q-39 27 -115.5 49t-169.5 22
q-97 0 -160 -20.5t-91.5 -53t-28.5 -69.5q0 -46 35 -74.5t87 -43.5t141 -33q103 -21 164.5 -40.5t104.5 -58t43 -103.5q0 -49 -31.5 -90t-96.5 -66t-162 -25q-90 0 -168 18.5zM345 -258q37 0 59.5 23t22.5 61q0 34 -16 45q-3 -9 -11.5 -16.5t-20.5 -7.5q-16 0 -26 9.5
t-10 23.5q0 15 11.5 25.5t29.5 10.5q31 0 53.5 -24t22.5 -63q0 -54 -31.5 -86.5t-83.5 -32.5v32z" />
    <glyph glyph-name="uni0219" unicode="&#x219;" horiz-adv-x="598" 
d="M171.5 5.5q-61.5 15.5 -97.5 34.5v47q36 -21 97.5 -38t135.5 -17q100 0 148 26t48 67q0 34 -27.5 55.5t-68.5 34t-111 27.5q-82 18 -131.5 33.5t-84.5 46.5t-35 80q0 59 62 98.5t196 39.5q75 0 141 -17.5t102 -38.5v-47q-37 23 -103 42t-140 19q-113 0 -163 -28t-50 -68
q0 -34 27.5 -55.5t68.5 -34t111 -27.5q82 -18 131.5 -33.5t84.5 -46.5t35 -80q0 -58 -61 -96.5t-180 -38.5q-74 0 -135.5 15.5zM267 -258q37 0 59.5 23t22.5 61q0 34 -16 45q-3 -9 -11.5 -16.5t-20.5 -7.5q-16 0 -26 9.5t-10 23.5q0 15 11.5 25.5t29.5 10.5q31 0 53.5 -24
t22.5 -63q0 -54 -31.5 -86.5t-83.5 -32.5v32z" />
    <glyph glyph-name="uni021A" unicode="&#x21a;" horiz-adv-x="676" 
d="M15 700h646v-43h-300v-657h-45v657h-301v43zM286 -258q37 0 59.5 23t22.5 61q0 34 -16 45q-3 -9 -11.5 -16.5t-20.5 -7.5q-16 0 -26 9.5t-10 23.5q0 15 11.5 25.5t29.5 10.5q31 0 53.5 -24t22.5 -63q0 -54 -31.5 -86.5t-83.5 -32.5v32z" />
    <glyph glyph-name="uni021B" unicode="&#x21b;" horiz-adv-x="364" 
d="M152 30q-39 40 -39 118v340h-113v42h69q24 0 34 10.5t10 36.5v93h45v-140h171v-42h-171v-342q0 -56 27.5 -85t72.5 -29q33 0 71 12v-42q-39 -12 -72 -12q-66 0 -105 40zM152 -258q37 0 59.5 23t22.5 61q0 34 -16 45q-3 -9 -11.5 -16.5t-20.5 -7.5q-16 0 -26 9.5t-10 23.5
q0 15 11.5 25.5t29.5 10.5q31 0 53.5 -24t22.5 -63q0 -54 -31.5 -86.5t-83.5 -32.5v32z" />
    <glyph glyph-name="uni0232" unicode="&#x232;" horiz-adv-x="733" 
d="M389 0h-45v160l-364 540h50l334 -493h5l334 493h50l-364 -540v-160zM544 823h-353v42h353v-42z" />
    <glyph glyph-name="uni0233" unicode="&#x233;" horiz-adv-x="561" 
d="M197 -190h-48l121 240l-270 480h50l241 -428h5l217 428h48zM457 663h-353v42h353v-42z" />
    <glyph glyph-name="uni0237" unicode="&#x237;" horiz-adv-x="224" 
d="M-80 -185v44q40 -16 77 -16q44 0 68.5 28t24.5 82v577h45v-577q0 -76 -35.5 -114.5t-101.5 -38.5q-35 0 -78 15z" />
    <glyph glyph-name="uni0244" unicode="&#x244;" horiz-adv-x="869" 
d="M854 450v-43h-100v-131q0 -87 -37 -151.5t-109 -99.5t-173 -35q-102 0 -174 35t-109 99.5t-37 151.5v131h-100v43h100v250h45v-250h549v250h45v-250h100zM709 407h-549v-127q0 -116 71 -181.5t204 -65.5q132 0 203 65.5t71 181.5v127z" />
    <glyph glyph-name="uni0259" unicode="&#x259;" horiz-adv-x="745" 
d="M533 504q74 -36 113 -98.5t39 -140.5q0 -77 -38.5 -139.5t-109 -99t-162.5 -36.5q-95 0 -166.5 36t-110 99t-38.5 140v25h579q-6 61 -40.5 108t-95.5 73.5t-143 26.5q-77 0 -143.5 -18.5t-106.5 -41.5v47q40 21 106.5 38t143.5 17q99 0 173 -36zM510.5 60
q58.5 28 91.5 77t37 111h-534q4 -60 37 -109t92.5 -78t140.5 -29q77 0 135.5 28z" />
    <glyph glyph-name="uni0289" unicode="&#x289;" horiz-adv-x="708" 
d="M685 405v-42h-80v-363h-45v108h-5q-27 -45 -87.5 -81.5t-137.5 -36.5q-115 0 -177.5 59t-62.5 163v151h-80v42h80v125h45v-125h425v125h45v-125h80zM560 363h-425v-151q0 -83 52 -131.5t146 -48.5q55 0 101.5 24t78.5 60.5t47 73.5v173z" />
    <glyph glyph-name="uni02BC" unicode="&#x2bc;" horiz-adv-x="177" 
d="M41.5 716.5q11.5 10.5 29.5 10.5q31 0 53.5 -24t22.5 -63q0 -60 -31 -93t-84 -33v32q38 0 60 23.5t22 67.5q0 34 -16 45q-3 -9 -11.5 -16.5t-20.5 -7.5q-16 0 -26 9.5t-10 23.5q0 15 11.5 25.5z" />
    <glyph glyph-name="circumflex" unicode="&#x2c6;" horiz-adv-x="446" 
d="M90 597h-60l163 133h60l163 -133h-60l-129 105h-8z" />
    <glyph glyph-name="caron" unicode="&#x2c7;" horiz-adv-x="446" 
d="M253 597h-60l-163 133h60l129 -105h8l129 105h60z" />
    <glyph glyph-name="breve" unicode="&#x2d8;" horiz-adv-x="382" 
d="M71.5 642q-41.5 34 -41.5 88h44q0 -36 30 -59t87 -23t87 23t30 59h44q0 -54 -41.5 -88t-119.5 -34t-119.5 34z" />
    <glyph glyph-name="dotaccent" unicode="&#x2d9;" horiz-adv-x="142" 
d="M42 601.5q-12 11.5 -12 26.5t12 26.5t29 11.5t29 -11.5t12 -26.5t-12 -26.5t-29 -11.5t-29 11.5z" />
    <glyph glyph-name="ring" unicode="&#x2da;" horiz-adv-x="300" 
d="M62.5 587.5q-32.5 25.5 -32.5 67.5t32.5 67.5t87.5 25.5t87.5 -25.5t32.5 -67.5t-32.5 -67.5t-87.5 -25.5t-87.5 25.5zM209.5 612.5q22.5 16.5 22.5 42.5t-22.5 42.5t-59.5 16.5t-59.5 -16.5t-22.5 -42.5t22.5 -42.5t59.5 -16.5t59.5 16.5z" />
    <glyph glyph-name="ogonek" unicode="&#x2db;" horiz-adv-x="249" 
d="M58.5 -185.5q-28.5 20.5 -28.5 56.5q0 38 34.5 71t73.5 53v8l81 -3q-56 -25 -98 -57.5t-42 -65.5q0 -44 61 -44q40 0 76 8v-39q-45 -8 -75 -8q-54 0 -82.5 20.5z" />
    <glyph glyph-name="tilde" unicode="&#x2dc;" horiz-adv-x="401" 
d="M240 596q-22 11 -51 32q-27 18 -41.5 26t-30.5 8q-20 0 -32.5 -13t-12.5 -34v-25h-42v28q0 39 22.5 62t61.5 23q25 0 45.5 -10.5t52.5 -32.5q25 -18 40.5 -26.5t31.5 -8.5q20 0 32.5 13.5t12.5 36.5v23h42v-28q0 -40 -22.5 -62.5t-61.5 -22.5q-25 0 -47 11z" />
    <glyph glyph-name="hungarumlaut" unicode="&#x2dd;" horiz-adv-x="492" 
d="M41 590h-3l-8 28l200 98h19l3 -45zM251 590h-3l-8 28l200 98h19l3 -45z" />
    <glyph glyph-name="gravecomb" unicode="&#x300;" horiz-adv-x="0" 
d="M-38 590h-3l-251 72l3 54h19l240 -96z" />
    <glyph glyph-name="acutecomb" unicode="&#x301;" horiz-adv-x="0" 
d="M-281 590h-3l-8 30l240 96h19l3 -54z" />
    <glyph glyph-name="uni0302" unicode="&#x302;" horiz-adv-x="0" 
d="M-356 597h-60l163 133h60l163 -133h-60l-129 105h-8z" />
    <glyph glyph-name="tildecomb" unicode="&#x303;" horiz-adv-x="0" 
d="M-161 596q-22 11 -51 32q-27 18 -41.5 26t-30.5 8q-20 0 -32.5 -13t-12.5 -34v-25h-42v28q0 39 22.5 62t61.5 23q25 0 45.5 -10.5t52.5 -32.5q25 -18 40.5 -26.5t31.5 -8.5q20 0 32.5 13.5t12.5 36.5v23h42v-28q0 -40 -22.5 -62.5t-61.5 -22.5q-25 0 -47 11z" />
    <glyph glyph-name="uni0304" unicode="&#x304;" horiz-adv-x="0" 
d="M-30 638h-353v42h353v-42z" />
    <glyph glyph-name="uni0306" unicode="&#x306;" horiz-adv-x="0" 
d="M-310.5 642q-41.5 34 -41.5 88h44q0 -36 30 -59t87 -23t87 23t30 59h44q0 -54 -41.5 -88t-119.5 -34t-119.5 34z" />
    <glyph glyph-name="uni0307" unicode="&#x307;" horiz-adv-x="0" 
d="M-100 601.5q-12 11.5 -12 26.5t12 26.5t29 11.5t29 -11.5t12 -26.5t-12 -26.5t-29 -11.5t-29 11.5z" />
    <glyph glyph-name="uni0308" unicode="&#x308;" horiz-adv-x="0" 
d="M-284 600.5q-12 11.5 -12 27.5t12 27.5t30 11.5t30 -11.5t12 -27.5t-12 -27.5t-30 -11.5t-30 11.5zM-102 600.5q-12 11.5 -12 27.5t12 27.5t30 11.5t30 -11.5t12 -27.5t-12 -27.5t-30 -11.5t-30 11.5z" />
    <glyph glyph-name="uni030A" unicode="&#x30a;" horiz-adv-x="0" 
d="M-237.5 587.5q-32.5 25.5 -32.5 67.5t32.5 67.5t87.5 25.5t87.5 -25.5t32.5 -67.5t-32.5 -67.5t-87.5 -25.5t-87.5 25.5zM-90.5 612.5q22.5 16.5 22.5 42.5t-22.5 42.5t-59.5 16.5t-59.5 -16.5t-22.5 -42.5t22.5 -42.5t59.5 -16.5t59.5 16.5z" />
    <glyph glyph-name="uni030B" unicode="&#x30b;" horiz-adv-x="0" 
d="M-451 590h-3l-8 28l200 98h19l3 -45zM-241 590h-3l-8 28l200 98h19l3 -45z" />
    <glyph glyph-name="uni030C" unicode="&#x30c;" horiz-adv-x="0" 
d="M-193 597h-60l-163 133h60l129 -105h8l129 105h60z" />
    <glyph glyph-name="uni0326" unicode="&#x326;" horiz-adv-x="0" 
d="M-145 -243q37 0 59.5 23t22.5 61q0 34 -16 45q-3 -9 -11.5 -16.5t-20.5 -7.5q-16 0 -26 9.5t-10 23.5q0 15 11.5 25.5t29.5 10.5q31 0 53.5 -24t22.5 -63q0 -54 -31.5 -86.5t-83.5 -32.5v32z" />
    <glyph glyph-name="uni0327" unicode="&#x327;" horiz-adv-x="0" 
d="M-135 -55q50 0 77.5 -23.5t27.5 -62.5q0 -41 -31.5 -65t-89.5 -24q-46 0 -88 11v39q46 -12 87 -12q39 0 59 14t20 37q0 22 -17.5 35t-52.5 13h-71l-13 14l26 85l41 -6l-17 -55h42z" />
    <glyph glyph-name="uni0328" unicode="&#x328;" horiz-adv-x="0" 
d="M-190.5 -185.5q-28.5 20.5 -28.5 56.5q0 38 34.5 71t73.5 53v8l81 -3q-56 -25 -98 -57.5t-42 -65.5q0 -44 61 -44q40 0 76 8v-39q-45 -8 -75 -8q-54 0 -82.5 20.5z" />
    <glyph glyph-name="uni0400" unicode="&#x400;" horiz-adv-x="712" 
d="M145 336v-293h507v-43h-552v700h532v-43h-487v-278h447v-43h-447zM493 780h-3l-251 72l3 54h19l240 -96z" />
    <glyph glyph-name="uni0401" unicode="&#x401;" horiz-adv-x="712" 
d="M145 336v-293h507v-43h-552v700h532v-43h-487v-278h447v-43h-447zM245 815.5q-12 11.5 -12 27.5t12 27.5t30 11.5t30 -11.5t12 -27.5t-12 -27.5t-30 -11.5t-30 11.5zM427 815.5q-12 11.5 -12 27.5t12 27.5t30 11.5t30 -11.5t12 -27.5t-12 -27.5t-30 -11.5t-30 11.5z" />
    <glyph glyph-name="uni0402" unicode="&#x402;" horiz-adv-x="946" 
d="M815.5 368q75.5 -60 75.5 -157q0 -105 -67 -163t-201 -58q-45 0 -79 5v43q34 -5 79 -5q112 0 166.5 46.5t54.5 131.5q0 77 -63 125.5t-196 48.5q-139 0 -271 -49v-336h-45v657h-254v43h588v-43h-289v-277q136 48 271 48q155 0 230.5 -60z" />
    <glyph glyph-name="uni0403" unicode="&#x403;" horiz-adv-x="666" 
d="M145 0h-45v700h546v-43h-501v-657zM261 780h-3l-8 30l240 96h19l3 -54z" />
    <glyph glyph-name="uni0404" unicode="&#x404;" horiz-adv-x="856" 
d="M308.5 629q-85.5 -38 -134 -103t-56.5 -147h405v-43h-406q4 -85 50.5 -154t129 -109t191.5 -40q81 0 153 22.5t110 49.5v-50q-38 -25 -110 -45t-153 -20q-127 0 -221.5 47.5t-145.5 129.5t-51 183q0 102 52 184t151 129t235 47q88 0 163.5 -23t114.5 -52v-50
q-37 31 -112.5 56.5t-165.5 25.5q-114 0 -199.5 -38z" />
    <glyph glyph-name="uni0405" unicode="&#x405;" horiz-adv-x="742" 
d="M224 8.5q-78 18.5 -119 41.5v50q41 -26 118 -46.5t164 -20.5q84 0 140 19.5t82 51t26 67.5q0 48 -36 77.5t-89 45t-143 33.5q-102 21 -162 40t-102.5 56.5t-42.5 100.5q0 49 34.5 91t108 68.5t184.5 26.5q90 0 167.5 -20.5t117.5 -45.5v-48q-39 27 -115.5 49t-169.5 22
q-97 0 -160 -20.5t-91.5 -53t-28.5 -69.5q0 -46 35 -74.5t87 -43.5t141 -33q103 -21 164.5 -40.5t104.5 -58t43 -103.5q0 -49 -31.5 -90t-96.5 -66t-162 -25q-90 0 -168 18.5z" />
    <glyph glyph-name="uni0406" unicode="&#x406;" horiz-adv-x="696" 
d="M661 700v-43h-291v-614h291v-43h-626v43h290v614h-290v43h626z" />
    <glyph glyph-name="uni0407" unicode="&#x407;" horiz-adv-x="696" 
d="M661 700v-43h-291v-614h291v-43h-626v43h290v614h-290v43h626zM227 815.5q-12 11.5 -12 27.5t12 27.5t30 11.5t30 -11.5t12 -27.5t-12 -27.5t-30 -11.5t-30 11.5zM409 815.5q-12 11.5 -12 27.5t12 27.5t30 11.5t30 -11.5t12 -27.5t-12 -27.5t-30 -11.5t-30 11.5z" />
    <glyph glyph-name="uni0408" unicode="&#x408;" horiz-adv-x="546" 
d="M20 20v45q78 -32 163 -32q107 0 162.5 53t55.5 160v454h45v-456q0 -124 -67.5 -189t-193.5 -65q-85 0 -165 30z" />
    <glyph glyph-name="uni0409" unicode="&#x409;" horiz-adv-x="1266" 
d="M943 419q133 0 200.5 -56t67.5 -153t-67.5 -153.5t-200.5 -56.5h-341v657h-403l-8 -187q-5 -120 -24.5 -217t-45.5 -161t-51 -92h-45v10q25 29 51 91.5t45.5 157.5t24.5 211l9 230h492v-281h296zM943 43q111 0 166 45t55 122t-55 121.5t-166 44.5h-296v-333h296z" />
    <glyph glyph-name="uni040A" unicode="&#x40a;" horiz-adv-x="1333" 
d="M1018 403q127 0 193.5 -55.5t66.5 -146.5t-66.5 -146t-193.5 -55h-349v360h-524v-360h-45v700h45v-297h524v297h45v-297h304zM1018 43q105 0 159 43.5t54 114.5q0 72 -54 115.5t-159 43.5h-304v-317h304z" />
    <glyph glyph-name="uni040B" unicode="&#x40b;" horiz-adv-x="959" 
d="M800.5 364q83.5 -64 83.5 -192v-172h-45v171q0 108 -71 161t-198 53q-128 0 -256 -49v-336h-45v657h-254v43h588v-43h-289v-278q136 49 256 49q147 0 230.5 -64z" />
    <glyph glyph-name="uni040C" unicode="&#x40c;" horiz-adv-x="736" 
d="M145 0h-45v700h45v-312l514 312h77l-543 -330v-5l509 -365h-72l-485 348v-348zM291 780h-3l-8 30l240 96h19l3 -54z" />
    <glyph glyph-name="uni040D" unicode="&#x40d;" horiz-adv-x="833" 
d="M170 0h-70v700h45v-653h5l513 653h70v-700h-45v653h-5zM534 780h-3l-251 72l3 54h19l240 -96z" />
    <glyph glyph-name="uni040E" unicode="&#x40e;" horiz-adv-x="719" 
d="M673 700h51l-331 -574q-41 -71 -89.5 -103.5t-114.5 -32.5q-31 0 -61 5v43q30 -5 61 -5q96 0 155 93l15 24l-354 550h51l323 -503h5zM232.5 806.5q-44.5 37.5 -44.5 98.5h44q0 -42 33 -69t95 -27t95 27t33 69h44q0 -61 -44.5 -98.5t-127.5 -37.5t-127.5 37.5z" />
    <glyph glyph-name="uni040F" unicode="&#x40f;" horiz-adv-x="839" 
d="M442 -190h-45v190h-297v700h45v-657h549v657h45v-700h-297v-190z" />
    <glyph glyph-name="uni0410" unicode="&#x410;" horiz-adv-x="784" 
d="M784 0h-48l-109 211h-470l-109 -211h-48l363 700h58zM389 658l-209 -404h424l-209 404h-6z" />
    <glyph glyph-name="uni0411" unicode="&#x411;" horiz-adv-x="781" 
d="M450 409q130 0 198 -56t68 -148q0 -93 -68 -149t-200 -56h-348v700h553v-43h-508v-248h305zM448 43q110 0 165.5 44.5t55.5 117.5t-55.5 117t-165.5 44h-303v-323h303z" />
    <glyph glyph-name="uni0412" unicode="&#x412;" horiz-adv-x="796" 
d="M566 345q60 -11 95 -56t35 -109q0 -51 -27.5 -92t-83 -64.5t-135.5 -23.5h-350v700h361q83 0 140.5 -24t86 -65t28.5 -91q0 -68 -40 -114.5t-110 -55.5v-5zM145 657v-286h316q103 0 155.5 40t52.5 103t-52.5 103t-155.5 40h-316zM448 43q100 0 150.5 39.5t50.5 103.5
q0 63 -50 102.5t-148 39.5h-306v-285h303z" />
    <glyph glyph-name="uni0413" unicode="&#x413;" horiz-adv-x="666" 
d="M145 0h-45v700h546v-43h-501v-657z" />
    <glyph glyph-name="uni0414" unicode="&#x414;" horiz-adv-x="782" 
d="M660 43h92v-233h-45v190h-667v-190h-45v233h74q22 26 44 88.5t36 160.5t14 223v185h497v-657zM122 43h493v614h-407v-147q0 -118 -13 -214t-33 -160t-40 -92v-1z" />
    <glyph glyph-name="uni0415" unicode="&#x415;" horiz-adv-x="712" 
d="M145 336v-293h507v-43h-552v700h532v-43h-487v-278h447v-43h-447z" />
    <glyph glyph-name="uni0416" unicode="&#x416;" horiz-adv-x="1185" 
d="M96 0h-67l493 365v5l-522 330h73l497 -314v314h45v-314l497 314h73l-522 -330v-5l494 -365h-67l-475 351v-351h-45v351z" />
    <glyph glyph-name="uni0417" unicode="&#x417;" horiz-adv-x="741" 
d="M193.5 6q-74.5 16 -113.5 35v50q37 -22 113.5 -40t156.5 -18q90 0 149.5 20.5t87 54t27.5 74.5q0 40 -27.5 74t-88.5 55.5t-157 21.5h-143v43h142q91 0 151.5 20.5t89 53.5t28.5 70q0 38 -28 71.5t-87.5 54.5t-150.5 21q-87 0 -163.5 -22.5t-119.5 -49.5v50
q42 25 118.5 45t164.5 20q105 0 175.5 -26.5t104 -69t33.5 -91.5q0 -70 -46.5 -110t-115.5 -56v-5q73 -14 120 -56t47 -117q0 -52 -33 -95t-103 -68.5t-175 -25.5q-82 0 -156.5 16z" />
    <glyph glyph-name="uni0418" unicode="&#x418;" horiz-adv-x="833" 
d="M170 0h-70v700h45v-653h5l513 653h70v-700h-45v653h-5z" />
    <glyph glyph-name="uni0419" unicode="&#x419;" horiz-adv-x="833" 
d="M170 0h-70v700h45v-653h5l513 653h70v-700h-45v653h-5zM294.5 806.5q-44.5 37.5 -44.5 98.5h44q0 -42 33 -69t95 -27t95 27t33 69h44q0 -61 -44.5 -98.5t-127.5 -37.5t-127.5 37.5z" />
    <glyph glyph-name="uni041A" unicode="&#x41a;" horiz-adv-x="736" 
d="M145 0h-45v700h45v-312l514 312h77l-543 -330v-5l509 -365h-72l-485 348v-348z" />
    <glyph glyph-name="uni041B" unicode="&#x41b;" horiz-adv-x="776" 
d="M25 10q25 29 51 91.5t45.5 157.5t24.5 211l9 230h521v-700h-45v657h-432l-8 -187q-5 -120 -24.5 -217t-45.5 -161t-51 -92h-45v10z" />
    <glyph glyph-name="uni041C" unicode="&#x41c;" horiz-adv-x="1041" 
d="M891 660l-370 -680l-371 680h-5v-660h-45v700h78l340 -623h5l340 623h78v-700h-45v660h-5z" />
    <glyph glyph-name="uni041D" unicode="&#x41d;" horiz-adv-x="839" 
d="M694 379v321h45v-700h-45v336h-549v-336h-45v700h45v-321h549z" />
    <glyph glyph-name="uni041E" unicode="&#x41e;" horiz-adv-x="1016" 
d="M273 37q-99 47 -151 129t-52 184t52 184t151 129t235 47t235 -47t151 -129t52 -184t-52 -184t-151 -129t-235 -47t-235 47zM717.5 75q88.5 42 135 114t46.5 161t-46.5 161t-135 114t-209.5 42t-209.5 -42t-135 -114t-46.5 -161t46.5 -161t135 -114t209.5 -42t209.5 42z
" />
    <glyph glyph-name="uni041F" unicode="&#x41f;" horiz-adv-x="839" 
d="M145 0h-45v700h639v-700h-45v657h-549v-657z" />
    <glyph glyph-name="uni0420" unicode="&#x420;" horiz-adv-x="798" 
d="M475 700q132 0 200 -57.5t68 -153.5q0 -97 -68 -154t-200 -57h-330v-278h-45v700h375zM475 321q109 0 165 45.5t56 122.5t-56 122.5t-165 45.5h-330v-336h330z" />
    <glyph glyph-name="uni0421" unicode="&#x421;" horiz-adv-x="856" 
d="M266.5 37.5q-94.5 47.5 -145.5 129.5t-51 183q0 102 52 184t151 129t235 47q88 0 163.5 -23t114.5 -52v-50q-37 31 -112.5 56.5t-165.5 25.5q-121 0 -209.5 -42t-135 -114t-46.5 -161q0 -88 45.5 -160.5t130 -114.5t195.5 -42q84 0 156.5 20.5t110.5 45.5v-50
q-39 -22 -112.5 -40.5t-154.5 -18.5q-127 0 -221.5 47.5z" />
    <glyph glyph-name="uni0422" unicode="&#x422;" horiz-adv-x="676" 
d="M15 700h646v-43h-300v-657h-45v657h-301v43z" />
    <glyph glyph-name="uni0423" unicode="&#x423;" horiz-adv-x="719" 
d="M673 700h51l-331 -574q-41 -71 -89.5 -103.5t-114.5 -32.5q-31 0 -61 5v43q30 -5 61 -5q96 0 155 93l15 24l-354 550h51l323 -503h5z" />
    <glyph glyph-name="uni0424" unicode="&#x424;" horiz-adv-x="1077" 
d="M712 613q95 0 164 -33t105 -91.5t36 -133.5t-36 -133.5t-105 -91.5t-164 -33h-151v-107h-45v107h-151q-95 0 -164 33t-105 91.5t-36 133.5t36 133.5t105 91.5t164 33h151v97h45v-97h151zM516 140v430h-151q-81 0 -139 -27.5t-88.5 -76.5t-30.5 -111t30.5 -111t88.5 -76.5
t139 -27.5h151zM712 140q81 0 139 27.5t88.5 76.5t30.5 111t-30.5 111t-88.5 76.5t-139 27.5h-151v-430h151z" />
    <glyph glyph-name="uni0425" unicode="&#x425;" horiz-adv-x="677" 
d="M58 0h-58l310 357v4l-295 339h58l263 -303h5l263 303h58l-295 -339v-4l310 -357h-58l-278 321h-5z" />
    <glyph glyph-name="uni0426" unicode="&#x426;" horiz-adv-x="834" 
d="M804 -190h-45v190h-659v700h45v-657h522v657h45v-657h92v-233z" />
    <glyph glyph-name="uni0427" unicode="&#x427;" horiz-adv-x="812" 
d="M667 700h45v-700h-45v317q-139 -52 -263 -52q-147 0 -230.5 64t-83.5 192v179h45v-178q0 -108 71 -161t198 -53q132 0 263 52v340z" />
    <glyph glyph-name="uni0428" unicode="&#x428;" horiz-adv-x="1078" 
d="M978 0h-878v700h45v-657h371v657h45v-657h372v657h45v-700z" />
    <glyph glyph-name="uni0429" unicode="&#x429;" horiz-adv-x="1099" 
d="M1069 -190h-45v190h-924v700h45v-657h371v657h45v-657h372v657h45v-657h91v-233z" />
    <glyph glyph-name="uni042A" unicode="&#x42a;" horiz-adv-x="850" 
d="M182 0v657h-177v43h222v-281h299q134 0 201.5 -56t67.5 -153t-67.5 -153.5t-201.5 -56.5h-344zM526 43q111 0 166.5 45t55.5 122q0 76 -55.5 121t-166.5 45h-299v-333h299z" />
    <glyph glyph-name="uni042B" unicode="&#x42b;" horiz-adv-x="972" 
d="M100 0v700h45v-281h300q133 0 200.5 -56t67.5 -153t-67.5 -153.5t-200.5 -56.5h-345zM872 0h-45v700h45v-700zM445 43q111 0 166 45t55 122t-55 121.5t-166 44.5h-300v-333h300z" />
    <glyph glyph-name="uni042C" unicode="&#x42c;" horiz-adv-x="791" 
d="M100 0v700h45v-281h323q133 0 200.5 -56t67.5 -153t-67.5 -153.5t-200.5 -56.5h-368zM468 43q111 0 166 45t55 122t-55 121.5t-166 44.5h-323v-333h323z" />
    <glyph glyph-name="uni042D" unicode="&#x42d;" horiz-adv-x="841" 
d="M568 663q99 -47 151 -129t52 -184q0 -101 -51 -183t-145.5 -129.5t-221.5 -47.5q-81 0 -155 18.5t-112 40.5v50q37 -25 111 -45.5t156 -20.5q109 0 191.5 40t129 109t50.5 154h-419v43h418q-8 82 -56.5 147t-134 103t-199.5 38q-90 0 -165.5 -25.5t-112.5 -56.5v50
q39 29 114.5 52t163.5 23q136 0 235 -47z" />
    <glyph glyph-name="uni042E" unicode="&#x42e;" horiz-adv-x="1211" 
d="M946 663.5q95 -46.5 145 -128.5t50 -185t-50 -185t-145 -128.5t-223 -46.5q-126 0 -219.5 45t-144.5 124t-54 179h-160v-338h-45v700h45v-319h161q8 95 60 169.5t143.5 117t213.5 42.5q128 0 223 -46.5zM921 74.5q84 41.5 128.5 113.5t44.5 162t-44.5 162t-128.5 113.5
t-198 41.5t-198 -41.5t-128.5 -113.5t-44.5 -162t44.5 -162t128.5 -113.5t198 -41.5t198 41.5z" />
    <glyph glyph-name="uni042F" unicode="&#x42f;" horiz-adv-x="811" 
d="M711 700v-700h-45v278h-303l-204 -278h-54l204 278q-118 5 -181 61t-63 150q0 96 68.5 153.5t199.5 57.5h378zM666 321v336h-333q-109 0 -165 -46t-56 -122t56 -122t165 -46h333z" />
    <glyph glyph-name="uni0430" unicode="&#x430;" horiz-adv-x="681" 
d="M109.5 32q-54.5 42 -54.5 110q0 75 64.5 119.5t204.5 44.5q91 0 141 11t68 30t18 47q0 27 -21.5 50.5t-68 38.5t-119.5 15q-75 0 -146 -20t-112 -45v47q36 23 107 41.5t153 18.5q87 0 143.5 -21t82.5 -54.5t26 -73.5v-391h-45v98q-38 -41 -114 -74.5t-170 -33.5
q-103 0 -157.5 42zM442 69.5q74 37.5 109 84.5v164q-8 -20 -66.5 -36t-162.5 -16q-117 0 -169.5 -34t-52.5 -89q0 -50 43.5 -80.5t131.5 -30.5q93 0 167 37.5z" />
    <glyph glyph-name="uni0431" unicode="&#x431;" horiz-adv-x="769" 
d="M155.5 56.5q-80.5 66.5 -80.5 178.5v133q0 137 64 202t197 65h189q137 0 137 113v7h44v-7q0 -75 -45 -115t-136 -40h-189q-112 0 -165.5 -51.5t-53.5 -158.5v-40h5q27 43 95 74.5t179 31.5q105 0 176.5 -29.5t106.5 -81.5t35 -118t-35.5 -118t-107.5 -82t-177 -30
q-158 0 -238.5 66.5zM546 56.5q62 24.5 92.5 67t30.5 96.5q0 53 -30.5 95.5t-92.5 67t-152 24.5q-89 0 -151 -24.5t-92.5 -67t-30.5 -95.5q0 -54 30.5 -96.5t92 -67t151.5 -24.5t152 24.5z" />
    <glyph glyph-name="uni0432" unicode="&#x432;" horiz-adv-x="684" 
d="M499 252q51 -9 78 -41.5t27 -77.5q0 -57 -50.5 -95t-147.5 -38h-316v530h299q106 0 160.5 -40.5t54.5 -102.5q0 -48 -30 -85t-75 -45v-5zM135 488v-213h253q86 0 128.5 30.5t42.5 76.5t-42.5 76t-128.5 30h-253zM404 42q78 0 116.5 27t38.5 68q0 42 -38.5 69t-116.5 27
h-269v-191h269z" />
    <glyph glyph-name="uni0433" unicode="&#x433;" horiz-adv-x="527" 
d="M135 0h-45v530h427v-42h-382v-488z" />
    <glyph glyph-name="uni0434" unicode="&#x434;" horiz-adv-x="660" 
d="M-5 -160v202h67q18 22 36 70t31 122t13 165v131h410v-488h83v-202h-45v160h-550v-160h-45zM507 42v446h-320v-89q0 -124 -24 -219.5t-52 -137.5h396z" />
    <glyph glyph-name="uni0435" unicode="&#x435;" horiz-adv-x="698" 
d="M210.5 26q-72.5 36 -111.5 98.5t-39 140.5t37 140.5t103.5 98.5t152.5 36q83 0 148 -35.5t101 -98t36 -141.5v-25h-534q6 -60 41 -107t95.5 -74t139.5 -27q69 0 128 19t89 43v-47q-30 -22 -89 -39.5t-128 -17.5q-97 0 -169.5 36zM593 282q-3 61 -34 110.5t-84 77.5
t-120 28q-72 0 -128 -28t-88 -77.5t-35 -110.5h489z" />
    <glyph glyph-name="uni0436" unicode="&#x436;" horiz-adv-x="877" 
d="M66 0h-66l375 268l-375 262h65l351 -245v245h45v-245l351 245h65l-375 -262l375 -268h-66l-350 250v-250h-45v250z" />
    <glyph glyph-name="uni0437" unicode="&#x437;" horiz-adv-x="607" 
d="M170.5 4.5q-62.5 14.5 -100.5 31.5v47q36 -19 98.5 -35t127.5 -16q107 0 154 30t47 77q0 48 -50 77.5t-164 29.5h-113v42h110q109 0 160.5 30.5t51.5 76.5q0 26 -21.5 49.5t-68 38.5t-118.5 15q-67 0 -130 -17t-99 -38v47q36 19 99 34.5t130 15.5q86 0 143 -20
t83.5 -52.5t26.5 -69.5q0 -45 -35 -81t-92 -47v-5q64 -13 98 -46t34 -83q0 -65 -58.5 -105.5t-185.5 -40.5q-65 0 -127.5 14.5z" />
    <glyph glyph-name="uni0438" unicode="&#x438;" horiz-adv-x="694" 
d="M153 0h-63v530h45v-481h5l401 481h63v-530h-45v481h-5z" />
    <glyph glyph-name="uni0439" unicode="&#x439;" horiz-adv-x="694" 
d="M153 0h-63v530h45v-481h5l401 481h63v-530h-45v481h-5zM227 652q-40 33 -40 88h41q0 -36 30 -59t87 -23t87 23t30 59h41q0 -55 -40 -88t-118 -33t-118 33z" />
    <glyph glyph-name="uni043A" unicode="&#x43a;" horiz-adv-x="578" 
d="M135 0h-45v530h45v-244l374 244h69l-401 -262l401 -268h-69l-374 250v-250z" />
    <glyph glyph-name="uni043B" unicode="&#x43b;" horiz-adv-x="632" 
d="M20 8q31 37 58.5 136t32.5 236l5 150h426v-530h-45v488h-336l-5 -111q-6 -139 -34 -239.5t-58 -137.5h-44v8z" />
    <glyph glyph-name="uni043C" unicode="&#x43c;" horiz-adv-x="872" 
d="M733 487l-297 -507l-297 507h-4v-487h-45v530h76l268 -458h4l270 458h74v-530h-45v487h-4z" />
    <glyph glyph-name="uni043D" unicode="&#x43d;" horiz-adv-x="695" 
d="M560 296v234h45v-530h-45v254h-425v-254h-45v530h45v-234h425z" />
    <glyph glyph-name="uni043E" unicode="&#x43e;" horiz-adv-x="770" 
d="M212.5 26.5q-73.5 36.5 -113 99t-39.5 139.5t39.5 139.5t113 99t172.5 36.5t172.5 -36.5t113 -99t39.5 -139.5t-39.5 -139.5t-113 -99t-172.5 -36.5t-172.5 36.5zM535 62.5q63 30.5 96.5 83.5t33.5 119t-33.5 119t-96.5 83.5t-150 30.5t-150 -30.5t-96.5 -83.5
t-33.5 -119t33.5 -119t96.5 -83.5t150 -30.5t150 30.5z" />
    <glyph glyph-name="uni043F" unicode="&#x43f;" horiz-adv-x="695" 
d="M135 0h-45v530h515v-530h-45v488h-425v-488z" />
    <glyph glyph-name="uni0440" unicode="&#x440;" horiz-adv-x="744" 
d="M90 -190v720h45v-97h5q33 41 98 74t142 33q89 0 157 -35.5t105 -98.5t37 -141t-37 -140.5t-104.5 -98.5t-154.5 -36q-78 0 -144 33t-99 74h-5v-287h-45zM514 62q58 30 89 83t31 120q0 68 -31.5 120.5t-90 82.5t-136.5 30q-54 0 -102.5 -20.5t-84 -51t-54.5 -62.5v-197
q19 -32 55 -63t85 -51.5t104 -20.5q77 0 135 30z" />
    <glyph glyph-name="uni0441" unicode="&#x441;" horiz-adv-x="667" 
d="M209 26.5q-71 36.5 -110 99t-39 139.5t39 139.5t111.5 99t167.5 36.5q73 0 135 -18t99 -42v-47q-36 26 -98.5 45.5t-135.5 19.5q-83 0 -145 -30.5t-95 -83.5t-33 -119t33 -119t93.5 -83.5t141.5 -30.5q75 0 132 18t87 40v-46q-28 -20 -87 -37t-132 -17q-93 0 -164 36.5z
" />
    <glyph glyph-name="uni0442" unicode="&#x442;" horiz-adv-x="569" 
d="M307 0h-45v488h-257v42h559v-42h-257v-488z" />
    <glyph glyph-name="uni0443" unicode="&#x443;" horiz-adv-x="561" 
d="M197 -190h-48l121 240l-270 480h50l241 -428h5l217 428h48z" />
    <glyph glyph-name="uni0444" unicode="&#x444;" horiz-adv-x="947" 
d="M591 530q93 0 160 -33t101.5 -92.5t34.5 -139.5t-34.5 -139.5t-101.5 -92.5t-160 -33h-95v-190h-45v190h-95q-93 0 -160 33t-101.5 92.5t-34.5 139.5t34.5 139.5t101.5 92.5t160 33h95v190h45v-190h95zM451 42v446h-95q-120 0 -185.5 -60t-65.5 -163t65.5 -163t185.5 -60
h95zM591 42q120 0 185.5 60t65.5 163t-65.5 163t-185.5 60h-95v-446h95z" />
    <glyph glyph-name="uni0445" unicode="&#x445;" horiz-adv-x="541" 
d="M56 0h-56l242 269v2l-233 259h56l203 -228h5l203 228h56l-233 -257v-2l242 -271h-56l-212 238h-5z" />
    <glyph glyph-name="uni0446" unicode="&#x446;" horiz-adv-x="704" 
d="M679 -160h-45v160h-544v530h45v-488h416v488h45v-488h83v-202z" />
    <glyph glyph-name="uni0447" unicode="&#x447;" horiz-adv-x="652" 
d="M517 530h45v-530h-45v219q-97 -29 -198 -29q-124 0 -186.5 53.5t-62.5 154.5v132h45v-134q0 -79 52 -121.5t155 -42.5t195 28v270z" />
    <glyph glyph-name="uni0448" unicode="&#x448;" horiz-adv-x="935" 
d="M845 0h-755v530h45v-488h310v488h45v-488h310v488h45v-530z" />
    <glyph glyph-name="uni0449" unicode="&#x449;" horiz-adv-x="953" 
d="M928 -160h-45v160h-793v530h45v-488h310v488h45v-488h310v488h45v-488h83v-202z" />
    <glyph glyph-name="uni044A" unicode="&#x44a;" horiz-adv-x="722" 
d="M454 336q111 0 167 -46t56 -122t-56 -122t-167 -46h-299v488h-155v42h200v-194h254zM454 42q90 0 134 35t44 91t-44 91t-134 35h-254v-252h254z" />
    <glyph glyph-name="uni044B" unicode="&#x44b;" horiz-adv-x="823" 
d="M389 336q111 0 167 -46t56 -122t-56 -122t-167 -46h-299v530h45v-194h254zM688 0v530h45v-530h-45zM389 42q90 0 134 35t44 91t-44 91t-134 35h-254v-252h254z" />
    <glyph glyph-name="uni044C" unicode="&#x44c;" horiz-adv-x="667" 
d="M399 336q111 0 167 -46t56 -122t-56 -122t-167 -46h-309v530h45v-194h264zM399 42q90 0 134 35t44 91t-44 91t-134 35h-264v-252h264z" />
    <glyph glyph-name="uni044D" unicode="&#x44d;" horiz-adv-x="656" 
d="M446 503.5q72 -36.5 111 -99t39 -139.5t-39 -139.5t-111 -99t-168 -36.5q-68 0 -126.5 17t-86.5 37v46q28 -21 86.5 -39.5t126.5 -18.5q80 0 139.5 27.5t93.5 76.5t39 110h-375v42h375q-6 60 -40 108t-93.5 75t-138.5 27q-78 0 -139 -20.5t-94 -44.5v47q35 23 95.5 41.5
t137.5 18.5q96 0 168 -36.5z" />
    <glyph glyph-name="uni044E" unicode="&#x44e;" horiz-adv-x="943" 
d="M733.5 504q72.5 -36 111 -98.5t38.5 -140.5t-38.5 -140.5t-111 -98.5t-170.5 -36q-94 0 -164.5 33.5t-110.5 92t-44 131.5h-109v-247h-45v530h45v-241h109q6 72 46 129t110 89.5t163 32.5q98 0 170.5 -36zM711.5 61.5q62.5 29.5 94.5 82.5t32 121t-32 121t-94.5 82.5
t-148.5 29.5t-148.5 -29.5t-94.5 -82.5t-32 -121t32 -121t94.5 -82.5t148.5 -29.5t148.5 29.5z" />
    <glyph glyph-name="uni044F" unicode="&#x44f;" horiz-adv-x="650" 
d="M65 0l203 204q-88 0 -150.5 41.5t-62.5 121.5q0 75 55.5 119t167.5 44h282v-530h-45v204h-190l-203 -204h-57zM515 246v242h-237q-90 0 -134 -33t-44 -88t44 -88t134 -33h237z" />
    <glyph glyph-name="uni0450" unicode="&#x450;" horiz-adv-x="698" 
d="M210.5 26q-72.5 36 -111.5 98.5t-39 140.5t37 140.5t103.5 98.5t152.5 36q83 0 148 -35.5t101 -98t36 -141.5v-25h-534q6 -60 41 -107t95.5 -74t139.5 -27q69 0 128 19t89 43v-47q-30 -22 -89 -39.5t-128 -17.5q-97 0 -169.5 36zM593 282q-3 61 -34 110.5t-84 77.5
t-120 28q-72 0 -128 -28t-88 -77.5t-35 -110.5h489zM472 620h-3l-251 72l3 54h19l240 -96z" />
    <glyph glyph-name="uni0451" unicode="&#x451;" horiz-adv-x="698" 
d="M210.5 26q-72.5 36 -111.5 98.5t-39 140.5t37 140.5t103.5 98.5t152.5 36q83 0 148 -35.5t101 -98t36 -141.5v-25h-534q6 -60 41 -107t95.5 -74t139.5 -27q69 0 128 19t89 43v-47q-30 -22 -89 -39.5t-128 -17.5q-97 0 -169.5 36zM593 282q-3 61 -34 110.5t-84 77.5
t-120 28q-72 0 -128 -28t-88 -77.5t-35 -110.5h489zM224 655.5q-12 11.5 -12 27.5t12 27.5t30 11.5t30 -11.5t12 -27.5t-12 -27.5t-30 -11.5t-30 11.5zM406 655.5q-12 11.5 -12 27.5t12 27.5t30 11.5t30 -11.5t12 -27.5t-12 -27.5t-30 -11.5t-30 11.5z" />
    <glyph glyph-name="uni0452" unicode="&#x452;" horiz-adv-x="704" 
d="M566.5 366q62.5 -59 62.5 -163v-250q0 -76 -36 -114.5t-103 -38.5q-38 0 -81 15v44q40 -16 80 -16q45 0 70 28t25 82v250q0 83 -52 131.5t-145 48.5q-56 0 -102.5 -24t-78.5 -60.5t-47 -73.5v-225h-45v529h-109v42h109v149h45v-149h220v-42h-220v-222h5q27 45 88 81.5
t138 36.5q114 0 176.5 -59z" />
    <glyph glyph-name="uni0453" unicode="&#x453;" horiz-adv-x="527" 
d="M135 0h-45v530h427v-42h-382v-488zM196 620h-3l-8 30l240 96h19l3 -54z" />
    <glyph glyph-name="uni0454" unicode="&#x454;" horiz-adv-x="667" 
d="M241 471q-59 -27 -93.5 -73.5t-41.5 -106.5h362v-42h-362q4 -62 38 -111.5t94 -77.5t140 -28q69 0 127.5 18.5t86.5 39.5v-46q-28 -20 -86.5 -37t-127.5 -17q-96 0 -168 36.5t-111 99t-39 139.5t39 139.5t111 99t168 36.5q78 0 138.5 -18.5t95.5 -41.5v-47
q-33 24 -94.5 44.5t-139.5 20.5t-137 -27z" />
    <glyph glyph-name="uni0455" unicode="&#x455;" horiz-adv-x="598" 
d="M171.5 5.5q-61.5 15.5 -97.5 34.5v47q36 -21 97.5 -38t135.5 -17q100 0 148 26t48 67q0 34 -27.5 55.5t-68.5 34t-111 27.5q-82 18 -131.5 33.5t-84.5 46.5t-35 80q0 59 62 98.5t196 39.5q75 0 141 -17.5t102 -38.5v-47q-37 23 -103 42t-140 19q-113 0 -163 -28t-50 -68
q0 -34 27.5 -55.5t68.5 -34t111 -27.5q82 -18 131.5 -33.5t84.5 -46.5t35 -80q0 -58 -61 -96.5t-180 -38.5q-74 0 -135.5 15.5z" />
    <glyph glyph-name="uni0456" unicode="&#x456;" horiz-adv-x="225" 
d="M81.5 613q-11.5 10 -11.5 25t11.5 25t31.5 10q19 0 30.5 -10t11.5 -25t-11.5 -25t-30.5 -10q-20 0 -31.5 10zM90 0v530h2h21h21h1v-530h-45z" />
    <glyph glyph-name="uni0457" unicode="&#x457;" horiz-adv-x="225" 
d="M135 0h-45v530h45v-530zM-8 655.5q-12 11.5 -12 27.5t12 27.5t30 11.5t30 -11.5t12 -27.5t-12 -27.5t-30 -11.5t-30 11.5zM174 655.5q-12 11.5 -12 27.5t12 27.5t30 11.5t30 -11.5t12 -27.5t-12 -27.5t-30 -11.5t-30 11.5z" />
    <glyph glyph-name="uni0458" unicode="&#x458;" horiz-adv-x="225" 
d="M81.5 613q-11.5 10 -11.5 25t11.5 25t31.5 10q19 0 30.5 -10t11.5 -25t-11.5 -25t-30.5 -10q-20 0 -31.5 10zM-80 -185v44q40 -16 77 -16q44 0 68.5 28t24.5 82v577h3h20h20h2v-577q0 -76 -35.5 -114.5t-101.5 -38.5q-35 0 -78 15z" />
    <glyph glyph-name="uni0459" unicode="&#x459;" horiz-adv-x="1042" 
d="M774 336q111 0 167 -46t56 -122t-56 -122t-167 -46h-292v488h-321l-5 -111q-6 -139 -34 -239.5t-58 -137.5h-44v8q31 37 58.5 136t32.5 236l5 150h411v-194h247zM774 42q90 0 134 35t44 91t-44 91t-134 35h-247v-252h247z" />
    <glyph glyph-name="uni045A" unicode="&#x45a;" horiz-adv-x="1100" 
d="M841 326q105 0 159.5 -45.5t54.5 -117.5t-54.5 -117.5t-159.5 -45.5h-301v284h-405v-284h-45v530h45v-204h405v204h45v-204h256zM841 42q83 0 126 34.5t43 86.5t-43 86.5t-126 34.5h-256v-242h256z" />
    <glyph glyph-name="uni045B" unicode="&#x45b;" horiz-adv-x="704" 
d="M566.5 366q62.5 -59 62.5 -163v-203h-45v203q0 83 -52 131.5t-145 48.5q-56 0 -102.5 -24t-78.5 -60.5t-47 -73.5v-225h-45v530h-109v42h109v148h45v-148h220v-42h-220v-223h5q27 45 88 81.5t138 36.5q114 0 176.5 -59z" />
    <glyph glyph-name="uni045C" unicode="&#x45c;" horiz-adv-x="578" 
d="M135 0h-45v530h45v-244l374 244h69l-401 -262l401 -268h-69l-374 250v-250zM206 620h-3l-8 30l240 96h19l3 -54z" />
    <glyph glyph-name="uni045D" unicode="&#x45d;" horiz-adv-x="694" 
d="M153 0h-63v530h45v-481h5l401 481h63v-530h-45v481h-5zM472 620h-3l-251 72l3 54h19l240 -96z" />
    <glyph glyph-name="uni045E" unicode="&#x45e;" horiz-adv-x="561" 
d="M197 -190h-48l121 240l-270 480h50l241 -428h5l217 428h48zM162 652q-40 33 -40 88h41q0 -36 30 -59t87 -23t87 23t30 59h41q0 -55 -40 -88t-118 -33t-118 33z" />
    <glyph glyph-name="uni045F" unicode="&#x45f;" horiz-adv-x="692" 
d="M369 -160h-45v160h-234v530h45v-488h422v488h45v-530h-233v-160z" />
    <glyph glyph-name="uni0490" unicode="&#x490;" horiz-adv-x="666" 
d="M145 0h-45v700h501v120h45v-163h-501v-657z" />
    <glyph glyph-name="uni0491" unicode="&#x491;" horiz-adv-x="527" 
d="M135 0h-45v530h382v119h45v-161h-382v-488z" />
    <glyph glyph-name="uni0492" unicode="&#x492;" horiz-adv-x="686" 
d="M661 700v-43h-501v-278h351v-43h-351v-336h-45v336h-100v43h100v321h546z" />
    <glyph glyph-name="uni0493" unicode="&#x493;" horiz-adv-x="542" 
d="M522 530v-42h-382v-192h257v-42h-257v-254h-45v254h-85v42h85v234h427z" />
    <glyph glyph-name="uni0494" unicode="&#x494;" horiz-adv-x="758" 
d="M360 -151v43q20 -4 51 -4q74 0 129.5 30t85.5 84.5t30 127.5q0 69 -29.5 122.5t-83 84t-123.5 30.5q-69 0 -126 -26t-94.5 -65.5t-54.5 -79.5v-196h-45v700h546v-43h-501v-374h5q19 30 56.5 59t92.5 48.5t121 19.5q86 0 150 -35.5t98.5 -99t34.5 -145.5q0 -86 -35 -150.5
t-100 -99.5t-154 -35q-33 0 -54 4z" />
    <glyph glyph-name="uni0495" unicode="&#x495;" horiz-adv-x="648" 
d="M303 -187v42q19 -3 39 -3q66 0 117.5 28.5t80 79.5t28.5 116q0 100 -51 159t-145 59q-59 0 -107.5 -24t-81.5 -60.5t-48 -73.5v-136h-45v530h427v-42h-382v-270h5q28 45 89.5 81.5t142.5 36.5q75 0 129.5 -33t83 -92t28.5 -135t-34.5 -136.5t-96 -95t-138.5 -34.5
q-22 0 -41 3z" />
    <glyph glyph-name="uni0496" unicode="&#x496;" horiz-adv-x="1175" 
d="M96 0h-67l493 365v5l-522 330h73l497 -314v314h45v-314l497 314h73l-522 -330v-5l436 -322h81v-233h-45v190h-45l-475 351v-351h-45v351z" />
    <glyph glyph-name="uni0497" unicode="&#x497;" horiz-adv-x="885" 
d="M66 0h-66l375 268l-375 262h65l351 -245v245h45v-245l351 245h65l-375 -262l316 -226h72v-202h-45v160h-34l-350 250v-250h-45v250z" />
    <glyph glyph-name="uni049A" unicode="&#x49a;" horiz-adv-x="726" 
d="M145 0h-45v700h45v-312l514 312h77l-543 -330v-5l449 -322h79v-233h-45v190h-46l-485 348v-348z" />
    <glyph glyph-name="uni049B" unicode="&#x49b;" horiz-adv-x="585" 
d="M135 0h-45v530h45v-244l374 244h69l-401 -262l338 -226h75v-202h-45v160h-36l-374 250v-250z" />
    <glyph glyph-name="uni049C" unicode="&#x49c;" horiz-adv-x="735" 
d="M735 700l-341 -330v-5l307 -365h-60l-291 346h-69v-141h-45v141h-91v-346h-45v700h45v-311h91v141h45v-141h68l321 311h65z" />
    <glyph glyph-name="uni049D" unicode="&#x49d;" horiz-adv-x="578" 
d="M518 530h60l-246 -262l246 -268h-60l-229 250h-44v-110h-45v110h-65v-250h-45v530h45v-240h65v110h45v-110h48z" />
    <glyph glyph-name="uni04A2" unicode="&#x4a2;" horiz-adv-x="861" 
d="M739 700v-657h92v-233h-45v190h-92v336h-549v-336h-45v700h45v-321h549v321h45z" />
    <glyph glyph-name="uni04A3" unicode="&#x4a3;" horiz-adv-x="713" 
d="M605 530v-488h83v-202h-45v160h-83v254h-425v-254h-45v530h45v-234h425v234h45z" />
    <glyph glyph-name="uni04AA" unicode="&#x4aa;" horiz-adv-x="856" 
d="M298.5 625q-88.5 -42 -135 -114t-46.5 -161q0 -88 45.5 -160.5t130 -114.5t195.5 -42q84 0 156.5 20.5t110.5 45.5v-50q-37 -20 -103.5 -38t-141.5 -21v-180h-45v180q-120 4 -209.5 52.5t-137.5 129t-48 178.5q0 102 52 184t151 129t235 47q88 0 163.5 -23t114.5 -52v-50
q-37 31 -112.5 56.5t-165.5 25.5q-121 0 -209.5 -42z" />
    <glyph glyph-name="uni04AB" unicode="&#x4ab;" horiz-adv-x="667" 
d="M233 467.5q-62 -30.5 -95 -83.5t-33 -119t33 -119t93.5 -83.5t141.5 -30.5q75 0 132 18t87 40v-46q-24 -17 -74 -33t-113 -20v-151h-45v150q-89 3 -157.5 40t-105.5 98.5t-37 136.5q0 77 39 139.5t111.5 99t167.5 36.5q73 0 135 -18t99 -42v-47q-36 26 -98.5 45.5
t-135.5 19.5q-83 0 -145 -30.5z" />
    <glyph glyph-name="uni04AE" unicode="&#x4ae;" horiz-adv-x="733" 
d="M389 0h-45v160l-364 540h50l334 -493h5l334 493h50l-364 -540v-160z" />
    <glyph glyph-name="uni04AF" unicode="&#x4af;" horiz-adv-x="580" 
d="M267 0l-267 530h48l239 -476h6l239 476h48l-268 -530v-190h-45v190z" />
    <glyph glyph-name="uni04B0" unicode="&#x4b0;" horiz-adv-x="733" 
d="M703 700h50l-335 -497h191v-43h-220v-160h-45v160h-220v43h191l-335 497h50l334 -495h5z" />
    <glyph glyph-name="uni04B1" unicode="&#x4b1;" horiz-adv-x="580" 
d="M532 530h48l-240 -488h139v-42h-167v-190h-45v190h-166v42h139l-240 488h48l239 -486h6z" />
    <glyph glyph-name="uni04B2" unicode="&#x4b2;" horiz-adv-x="710" 
d="M58 0h-58l310 357v4l-295 339h58l263 -303h5l263 303h58l-295 -339v-4l273 -314h75v-233h-45v190h-51l-278 321h-5z" />
    <glyph glyph-name="uni04B3" unicode="&#x4b3;" horiz-adv-x="570" 
d="M56 0h-56l242 269v2l-233 259h56l203 -228h5l203 228h56l-233 -257v-2l204 -229h67v-202h-45v160h-40l-212 238h-5z" />
    <glyph glyph-name="uni04B6" unicode="&#x4b6;" horiz-adv-x="834" 
d="M759 -190v190h-92v317q-139 -52 -263 -52q-147 0 -230.5 64t-83.5 192v179h45v-178q0 -108 71 -161t198 -53q132 0 263 52v340h45v-657h92v-233h-45z" />
    <glyph glyph-name="uni04B7" unicode="&#x4b7;" horiz-adv-x="670" 
d="M600 -160v160h-83v219q-97 -29 -198 -29q-124 0 -186.5 53.5t-62.5 154.5v132h45v-134q0 -79 52 -121.5t155 -42.5t195 28v270h45v-488h83v-202h-45z" />
    <glyph glyph-name="uni04B8" unicode="&#x4b8;" horiz-adv-x="812" 
d="M667 700h45v-700h-45v317q-126 -47 -234 -51v-156h-45v155q-140 4 -219 68t-79 188v179h45v-178q0 -105 66.5 -158t186.5 -56v177h45v-176q117 5 234 51v340z" />
    <glyph glyph-name="uni04B9" unicode="&#x4b9;" horiz-adv-x="652" 
d="M517 530h45v-530h-45v219q-81 -25 -168 -28v-116h-45v115q-117 4 -175.5 57.5t-58.5 150.5v132h45v-134q0 -75 47.5 -117.5t141.5 -46.5v138h45v-138q87 3 168 28v270z" />
    <glyph glyph-name="uni04BA" unicode="&#x4ba;" horiz-adv-x="797" 
d="M638.5 381q83.5 -64 83.5 -192v-189h-45v188q0 108 -71 161t-198 53q-132 0 -263 -52v-350h-45v700h45v-307q139 52 263 52q147 0 230.5 -64z" />
    <glyph glyph-name="uni04BB" unicode="&#x4bb;" 
d="M90 0v720h45v-298h5q27 45 88 81.5t138 36.5q114 0 176.5 -59t62.5 -162v-319h-45v319q0 83 -51.5 131t-145.5 48q-56 0 -102.5 -24t-78.5 -60.5t-47 -73.5v-340h-45z" />
    <glyph glyph-name="uni04C1" unicode="&#x4c1;" horiz-adv-x="1185" 
d="M96 0h-67l493 365v5l-522 330h73l497 -314v314h45v-314l497 314h73l-522 -330v-5l494 -365h-67l-475 351v-351h-45v351zM465.5 806.5q-44.5 37.5 -44.5 98.5h44q0 -42 33 -69t95 -27t95 27t33 69h44q0 -61 -44.5 -98.5t-127.5 -37.5t-127.5 37.5z" />
    <glyph glyph-name="uni04C2" unicode="&#x4c2;" horiz-adv-x="877" 
d="M66 0h-66l375 268l-375 262h65l351 -245v245h45v-245l351 245h65l-375 -262l375 -268h-66l-350 250v-250h-45v250zM321 652q-40 33 -40 88h41q0 -36 30 -59t87 -23t87 23t30 59h41q0 -55 -40 -88t-118 -33t-118 33z" />
    <glyph glyph-name="uni04D2" unicode="&#x4d2;" horiz-adv-x="784" 
d="M784 0h-48l-109 211h-470l-109 -211h-48l363 700h58zM389 658l-209 -404h424l-209 404h-6zM271 815.5q-12 11.5 -12 27.5t12 27.5t30 11.5t30 -11.5t12 -27.5t-12 -27.5t-30 -11.5t-30 11.5zM453 815.5q-12 11.5 -12 27.5t12 27.5t30 11.5t30 -11.5t12 -27.5t-12 -27.5
t-30 -11.5t-30 11.5z" />
    <glyph glyph-name="uni04D3" unicode="&#x4d3;" horiz-adv-x="681" 
d="M109.5 32q-54.5 42 -54.5 110q0 75 64.5 119.5t204.5 44.5q91 0 141 11t68 30t18 47q0 27 -21.5 50.5t-68 38.5t-119.5 15q-75 0 -146 -20t-112 -45v47q36 23 107 41.5t153 18.5q87 0 143.5 -21t82.5 -54.5t26 -73.5v-391h-45v98q-38 -41 -114 -74.5t-170 -33.5
q-103 0 -157.5 42zM442 69.5q74 37.5 109 84.5v164q-8 -20 -66.5 -36t-162.5 -16q-117 0 -169.5 -34t-52.5 -89q0 -50 43.5 -80.5t131.5 -30.5q93 0 167 37.5zM209 655.5q-12 11.5 -12 27.5t12 27.5t30 11.5t30 -11.5t12 -27.5t-12 -27.5t-30 -11.5t-30 11.5zM391 655.5
q-12 11.5 -12 27.5t12 27.5t30 11.5t30 -11.5t12 -27.5t-12 -27.5t-30 -11.5t-30 11.5z" />
    <glyph glyph-name="uni04D8" unicode="&#x4d8;" horiz-adv-x="965" 
d="M696.5 663.5q97.5 -46.5 148 -128t50.5 -185.5q0 -103 -49.5 -185t-142.5 -128.5t-218 -46.5q-124 0 -218.5 47.5t-145.5 129.5t-51 182v27h777q-7 84 -54 150t-131 103.5t-198 37.5q-102 0 -184.5 -21.5t-136.5 -48.5v50q57 24 139 43.5t182 19.5q135 0 232.5 -46.5z
M672 72q81 39 126 107t50 154h-731q2 -81 48 -149.5t129 -109.5t191 -41q106 0 187 39z" />
    <glyph glyph-name="uni04D9" unicode="&#x4d9;" horiz-adv-x="745" 
d="M533 504q74 -36 113 -98.5t39 -140.5q0 -77 -38.5 -139.5t-109 -99t-162.5 -36.5q-95 0 -166.5 36t-110 99t-38.5 140v25h579q-6 61 -40.5 108t-95.5 73.5t-143 26.5q-77 0 -143.5 -18.5t-106.5 -41.5v47q40 21 106.5 38t143.5 17q99 0 173 -36zM510.5 60
q58.5 28 91.5 77t37 111h-534q4 -60 37 -109t92.5 -78t140.5 -29q77 0 135.5 28z" />
    <glyph glyph-name="uni04E0" unicode="&#x4e0;" horiz-adv-x="710" 
d="M161 10.5q-81 20.5 -119 46.5v50q38 -28 119 -51t180 -23q88 0 147 22.5t87 59t28 80.5q0 45 -28 82t-88 59.5t-149 22.5q-62 0 -112.5 -7.5t-73.5 -16.5v47l404 269v6h-526v43h625v-31l-406 -270v-5q26 6 89 6q104 0 174 -27.5t104 -74t34 -103.5t-34 -103.5t-103.5 -74
t-171.5 -27.5q-99 0 -180 20.5z" />
    <glyph glyph-name="uni04E1" unicode="&#x4e1;" horiz-adv-x="610" 
d="M125.5 -182.5q-68.5 17.5 -100.5 38.5v47q32 -23 100.5 -42t154.5 -19q84 0 141.5 23t85.5 61t28 84q0 45 -27.5 82.5t-84 60t-138.5 22.5q-54 0 -98.5 -7.5t-66.5 -16.5v44l345 288v5h-425v42h505v-32l-337 -281v-7q28 7 77 7q95 0 161.5 -28t100 -75t33.5 -104
q0 -58 -33.5 -106t-101 -76t-165.5 -28q-86 0 -154.5 17.5z" />
    <glyph glyph-name="uni04E2" unicode="&#x4e2;" horiz-adv-x="833" 
d="M170 0h-70v700h45v-653h5l513 653h70v-700h-45v653h-5zM599 823h-353v42h353v-42z" />
    <glyph glyph-name="uni04E3" unicode="&#x4e3;" horiz-adv-x="694" 
d="M153 0h-63v530h45v-481h5l401 481h63v-530h-45v481h-5zM522 663h-353v42h353v-42z" />
    <glyph glyph-name="uni04E6" unicode="&#x4e6;" horiz-adv-x="1016" 
d="M273 37q-99 47 -151 129t-52 184t52 184t151 129t235 47t235 -47t151 -129t52 -184t-52 -184t-151 -129t-235 -47t-235 47zM717.5 75q88.5 42 135 114t46.5 161t-46.5 161t-135 114t-209.5 42t-209.5 -42t-135 -114t-46.5 -161t46.5 -161t135 -114t209.5 -42t209.5 42z
M387 815.5q-12 11.5 -12 27.5t12 27.5t30 11.5t30 -11.5t12 -27.5t-12 -27.5t-30 -11.5t-30 11.5zM569 815.5q-12 11.5 -12 27.5t12 27.5t30 11.5t30 -11.5t12 -27.5t-12 -27.5t-30 -11.5t-30 11.5z" />
    <glyph glyph-name="uni04E7" unicode="&#x4e7;" horiz-adv-x="770" 
d="M212.5 26.5q-73.5 36.5 -113 99t-39.5 139.5t39.5 139.5t113 99t172.5 36.5t172.5 -36.5t113 -99t39.5 -139.5t-39.5 -139.5t-113 -99t-172.5 -36.5t-172.5 36.5zM535 62.5q63 30.5 96.5 83.5t33.5 119t-33.5 119t-96.5 83.5t-150 30.5t-150 -30.5t-96.5 -83.5
t-33.5 -119t33.5 -119t96.5 -83.5t150 -30.5t150 30.5zM264 655.5q-12 11.5 -12 27.5t12 27.5t30 11.5t30 -11.5t12 -27.5t-12 -27.5t-30 -11.5t-30 11.5zM446 655.5q-12 11.5 -12 27.5t12 27.5t30 11.5t30 -11.5t12 -27.5t-12 -27.5t-30 -11.5t-30 11.5z" />
    <glyph glyph-name="uni04E8" unicode="&#x4e8;" horiz-adv-x="1016" 
d="M743 663q99 -47 151 -129t52 -184t-52 -184t-151 -129t-235 -47t-235 47t-151 129t-52 184t52 184t151 129t235 47t235 -47zM306 628.5q-86 -38.5 -134 -106t-54 -150.5h780q-6 83 -54 150.5t-134 106t-202 38.5t-202 -38.5zM710.5 72q86.5 39 134 106t53.5 151h-780
q6 -84 53.5 -151t134 -106t202.5 -39t202.5 39z" />
    <glyph glyph-name="uni04E9" unicode="&#x4e9;" horiz-adv-x="770" 
d="M557.5 503.5q73.5 -36.5 113 -99t39.5 -139.5t-39.5 -139.5t-113 -99t-172.5 -36.5t-172.5 36.5t-113 99t-39.5 139.5t39.5 139.5t113 99t172.5 36.5t172.5 -36.5zM241.5 470.5q-61.5 -27.5 -96 -75.5t-39.5 -109h558q-5 61 -39.5 109t-96 75.5t-143.5 27.5t-143.5 -27.5
zM528.5 59.5q61.5 27.5 96 75.5t39.5 109h-558q5 -61 39.5 -109t96 -75.5t143.5 -27.5t143.5 27.5z" />
    <glyph glyph-name="uni04EE" unicode="&#x4ee;" horiz-adv-x="719" 
d="M673 700h51l-331 -574q-41 -71 -89.5 -103.5t-114.5 -32.5q-31 0 -61 5v43q30 -5 61 -5q96 0 155 93l15 24l-354 550h51l323 -503h5zM537 823h-353v42h353v-42z" />
    <glyph glyph-name="uni04EF" unicode="&#x4ef;" horiz-adv-x="561" 
d="M197 -190h-48l121 240l-270 480h50l241 -428h5l217 428h48zM457 663h-353v42h353v-42z" />
    <glyph glyph-name="uni04F0" unicode="&#x4f0;" horiz-adv-x="719" 
d="M673 700h51l-331 -574q-41 -71 -89.5 -103.5t-114.5 -32.5q-31 0 -61 5v43q30 -5 61 -5q96 0 155 93l15 24l-354 550h51l323 -503h5zM239 815.5q-12 11.5 -12 27.5t12 27.5t30 11.5t30 -11.5t12 -27.5t-12 -27.5t-30 -11.5t-30 11.5zM421 815.5q-12 11.5 -12 27.5
t12 27.5t30 11.5t30 -11.5t12 -27.5t-12 -27.5t-30 -11.5t-30 11.5z" />
    <glyph glyph-name="uni04F1" unicode="&#x4f1;" horiz-adv-x="561" 
d="M197 -190h-48l121 240l-270 480h50l241 -428h5l217 428h48zM159 655.5q-12 11.5 -12 27.5t12 27.5t30 11.5t30 -11.5t12 -27.5t-12 -27.5t-30 -11.5t-30 11.5zM341 655.5q-12 11.5 -12 27.5t12 27.5t30 11.5t30 -11.5t12 -27.5t-12 -27.5t-30 -11.5t-30 11.5z" />
    <glyph glyph-name="Wgrave" unicode="&#x1e80;" horiz-adv-x="1202" 
d="M355 0h-67l-278 700h48l261 -657h5l247 657h59l248 -657h5l261 657h48l-278 -700h-67l-244 647h-5zM728 780h-3l-251 72l3 54h19l240 -96z" />
    <glyph glyph-name="wgrave" unicode="&#x1e81;" horiz-adv-x="937" 
d="M279 0h-58l-216 530h45l198 -485h4l190 485h53l190 -485h4l198 485h45l-216 -530h-58l-187 477h-5zM596 620h-3l-251 72l3 54h19l240 -96z" />
    <glyph glyph-name="Wacute" unicode="&#x1e82;" horiz-adv-x="1202" 
d="M355 0h-67l-278 700h48l261 -657h5l247 657h59l248 -657h5l261 657h48l-278 -700h-67l-244 647h-5zM477 780h-3l-8 30l240 96h19l3 -54z" />
    <glyph glyph-name="wacute" unicode="&#x1e83;" horiz-adv-x="937" 
d="M279 0h-58l-216 530h45l198 -485h4l190 485h53l190 -485h4l198 485h45l-216 -530h-58l-187 477h-5zM345 620h-3l-8 30l240 96h19l3 -54z" />
    <glyph glyph-name="Wdieresis" unicode="&#x1e84;" horiz-adv-x="1202" 
d="M355 0h-67l-278 700h48l261 -657h5l247 657h59l248 -657h5l261 657h48l-278 -700h-67l-244 647h-5zM480 815.5q-12 11.5 -12 27.5t12 27.5t30 11.5t30 -11.5t12 -27.5t-12 -27.5t-30 -11.5t-30 11.5zM662 815.5q-12 11.5 -12 27.5t12 27.5t30 11.5t30 -11.5t12 -27.5
t-12 -27.5t-30 -11.5t-30 11.5z" />
    <glyph glyph-name="wdieresis" unicode="&#x1e85;" horiz-adv-x="937" 
d="M279 0h-58l-216 530h45l198 -485h4l190 485h53l190 -485h4l198 485h45l-216 -530h-58l-187 477h-5zM348 655.5q-12 11.5 -12 27.5t12 27.5t30 11.5t30 -11.5t12 -27.5t-12 -27.5t-30 -11.5t-30 11.5zM530 655.5q-12 11.5 -12 27.5t12 27.5t30 11.5t30 -11.5t12 -27.5
t-12 -27.5t-30 -11.5t-30 11.5z" />
    <glyph glyph-name="uni1E9E" unicode="&#x1e9e;" horiz-adv-x="956" 
d="M504.5 3q-67.5 13 -104.5 29v50q36 -19 103 -34t142 -15q117 0 173 38t56 94q0 47 -31.5 77t-78.5 47t-127 37q-88 22 -141 42t-90 57t-37 96q0 50 25.5 85t57.5 46v5h-307v-657h-45v700h556v-40q-124 0 -182 -37.5t-58 -95.5q0 -46 31 -75.5t77.5 -46t124.5 -36.5
q90 -23 143.5 -43.5t91 -59t37.5 -101.5q0 -48 -29 -87.5t-91 -63.5t-156 -24q-73 0 -140.5 13z" />
    <glyph glyph-name="uni1EBC" unicode="&#x1ebc;" horiz-adv-x="712" 
d="M145 336v-293h507v-43h-552v700h532v-43h-487v-278h447v-43h-447zM406 806q-22 11 -51 32q-27 18 -41.5 26t-30.5 8q-20 0 -32.5 -13t-12.5 -34v-25h-42v28q0 39 22.5 62t61.5 23q25 0 45.5 -10.5t52.5 -32.5q25 -18 40.5 -26.5t31.5 -8.5q20 0 32.5 13.5t12.5 36.5v23
h42v-28q0 -40 -22.5 -62.5t-61.5 -22.5q-25 0 -47 11z" />
    <glyph glyph-name="uni1EBD" unicode="&#x1ebd;" horiz-adv-x="698" 
d="M210.5 26q-72.5 36 -111.5 98.5t-39 140.5t37 140.5t103.5 98.5t152.5 36q83 0 148 -35.5t101 -98t36 -141.5v-25h-534q6 -60 41 -107t95.5 -74t139.5 -27q69 0 128 19t89 43v-47q-30 -22 -89 -39.5t-128 -17.5q-97 0 -169.5 36zM593 282q-3 61 -34 110.5t-84 77.5
t-120 28q-72 0 -128 -28t-88 -77.5t-35 -110.5h489zM385 646q-22 11 -51 32q-27 18 -41.5 26t-30.5 8q-20 0 -32.5 -13t-12.5 -34v-25h-42v28q0 39 22.5 62t61.5 23q25 0 45.5 -10.5t52.5 -32.5q25 -18 40.5 -26.5t31.5 -8.5q20 0 32.5 13.5t12.5 36.5v23h42v-28
q0 -40 -22.5 -62.5t-61.5 -22.5q-25 0 -47 11z" />
    <glyph glyph-name="Ygrave" unicode="&#x1ef2;" horiz-adv-x="733" 
d="M389 0h-45v160l-364 540h50l334 -493h5l334 493h50l-364 -540v-160zM487 780h-3l-251 72l3 54h19l240 -96z" />
    <glyph glyph-name="ygrave" unicode="&#x1ef3;" horiz-adv-x="561" 
d="M197 -190h-48l121 240l-270 480h50l241 -428h5l217 428h48zM395 620h-3l-251 72l3 54h19l240 -96z" />
    <glyph glyph-name="uni1EF8" unicode="&#x1ef8;" horiz-adv-x="733" 
d="M389 0h-45v160l-364 540h50l334 -493h5l334 493h50l-364 -540v-160zM407 806q-22 11 -51 32q-27 18 -41.5 26t-30.5 8q-20 0 -32.5 -13t-12.5 -34v-25h-42v28q0 39 22.5 62t61.5 23q25 0 45.5 -10.5t52.5 -32.5q25 -18 40.5 -26.5t31.5 -8.5q20 0 32.5 13.5t12.5 36.5v23
h42v-28q0 -40 -22.5 -62.5t-61.5 -22.5q-25 0 -47 11z" />
    <glyph glyph-name="uni1EF9" unicode="&#x1ef9;" horiz-adv-x="561" 
d="M197 -190h-48l121 240l-270 480h50l241 -428h5l217 428h48zM320 646q-22 11 -51 32q-27 18 -41.5 26t-30.5 8q-20 0 -32.5 -13t-12.5 -34v-25h-42v28q0 39 22.5 62t61.5 23q25 0 45.5 -10.5t52.5 -32.5q25 -18 40.5 -26.5t31.5 -8.5q20 0 32.5 13.5t12.5 36.5v23h42v-28
q0 -40 -22.5 -62.5t-61.5 -22.5q-25 0 -47 11z" />
    <glyph glyph-name="endash" unicode="&#x2013;" horiz-adv-x="717" 
d="M662 296h-607v43h607v-43z" />
    <glyph glyph-name="emdash" unicode="&#x2014;" horiz-adv-x="1012" 
d="M957 296h-902v43h902v-43z" />
    <glyph glyph-name="quoteleft" unicode="&#x2018;" horiz-adv-x="183" 
d="M53 508q-23 28 -23 78q0 64 34 101.5t87 37.5v-32q-39 0 -63.5 -28t-24.5 -78q0 -43 17 -56q10 24 35 24q18 0 28 -10.5t10 -26.5q0 -17 -12 -27.5t-32 -10.5q-33 0 -56 28z" />
    <glyph glyph-name="quoteright" unicode="&#x2019;" horiz-adv-x="183" 
d="M32 512q39 0 63.5 28t24.5 78q0 43 -17 56q-10 -24 -35 -24q-18 0 -28 10.5t-10 26.5q0 17 12 27.5t32 10.5q33 0 56 -28t23 -78q0 -64 -34 -101.5t-87 -37.5v32z" />
    <glyph glyph-name="quotesinglbase" unicode="&#x201a;" horiz-adv-x="183" 
d="M32 -145q39 0 63.5 28t24.5 78q0 43 -17 56q-10 -24 -35 -24q-18 0 -28 10.5t-10 26.5q0 17 12 27.5t32 10.5q33 0 56 -28t23 -78q0 -64 -34 -101.5t-87 -37.5v32z" />
    <glyph glyph-name="quotedblleft" unicode="&#x201c;" horiz-adv-x="341" 
d="M53 508q-23 28 -23 78q0 64 34 101.5t87 37.5v-32q-39 0 -63.5 -28t-24.5 -78q0 -43 17 -56q10 24 35 24q18 0 28 -10.5t10 -26.5q0 -17 -12 -27.5t-32 -10.5q-33 0 -56 28zM211 508q-23 28 -23 78q0 64 34 101.5t87 37.5v-32q-39 0 -63.5 -28t-24.5 -78q0 -43 17 -56
q10 24 35 24q18 0 28 -10.5t10 -26.5q0 -17 -12 -27.5t-32 -10.5q-33 0 -56 28z" />
    <glyph glyph-name="quotedblright" unicode="&#x201d;" horiz-adv-x="341" 
d="M32 512q39 0 63.5 28t24.5 78q0 43 -17 56q-10 -24 -35 -24q-18 0 -28 10.5t-10 26.5q0 17 12 27.5t32 10.5q33 0 56 -28t23 -78q0 -64 -34 -101.5t-87 -37.5v32zM190 512q39 0 63.5 28t24.5 78q0 43 -17 56q-10 -24 -35 -24q-18 0 -28 10.5t-10 26.5q0 17 12 27.5
t32 10.5q33 0 56 -28t23 -78q0 -64 -34 -101.5t-87 -37.5v32z" />
    <glyph glyph-name="quotedblbase" unicode="&#x201e;" horiz-adv-x="341" 
d="M32 -145q39 0 63.5 28t24.5 78q0 43 -17 56q-10 -24 -35 -24q-18 0 -28 10.5t-10 26.5q0 17 12 27.5t32 10.5q33 0 56 -28t23 -78q0 -64 -34 -101.5t-87 -37.5v32zM190 -145q39 0 63.5 28t24.5 78q0 43 -17 56q-10 -24 -35 -24q-18 0 -28 10.5t-10 26.5q0 17 12 27.5
t32 10.5q33 0 56 -28t23 -78q0 -64 -34 -101.5t-87 -37.5v32z" />
    <glyph glyph-name="dagger" unicode="&#x2020;" horiz-adv-x="535" 
d="M290 -190h-45v653l-205 -7v45l205 -6v225h45v-225l205 6v-45l-205 7v-653z" />
    <glyph glyph-name="daggerdbl" unicode="&#x2021;" horiz-adv-x="535" 
d="M290 -190h-45v185l-165 -6v45l165 -6v435l-205 -7v45l205 -6v225h45v-225l205 6v-45l-205 7v-435l165 6v-45l-165 6v-185z" />
    <glyph glyph-name="bullet" unicode="&#x2022;" horiz-adv-x="356" 
d="M136.5 280.5q-16.5 16.5 -16.5 41.5t16.5 41.5t41.5 16.5t41.5 -16.5t16.5 -41.5t-16.5 -41.5t-41.5 -16.5t-41.5 16.5z" />
    <glyph glyph-name="ellipsis" unicode="&#x2026;" horiz-adv-x="560" 
d="M42.5 4.5q-12.5 11.5 -12.5 26.5t12.5 26.5t30.5 11.5t30.5 -11.5t12.5 -26.5t-12.5 -26.5t-30.5 -11.5t-30.5 11.5zM249.5 4.5q-12.5 11.5 -12.5 26.5t12.5 26.5t30.5 11.5t30.5 -11.5t12.5 -26.5t-12.5 -26.5t-30.5 -11.5t-30.5 11.5zM456.5 4.5q-12.5 11.5 -12.5 26.5
t12.5 26.5t30.5 11.5t30.5 -11.5t12.5 -26.5t-12.5 -26.5t-30.5 -11.5t-30.5 11.5z" />
    <glyph glyph-name="perthousand" unicode="&#x2030;" horiz-adv-x="1224" 
d="M90.5 442q-45.5 44 -45.5 112t45.5 112t117.5 44t117.5 -44t45.5 -112t-45.5 -112t-117.5 -44t-117.5 44zM229 0h-48l428 700h48zM294.5 469q34.5 34 34.5 85t-34.5 85t-86.5 34t-86.5 -34t-34.5 -85t34.5 -85t86.5 -34t86.5 34zM497.5 34q-45.5 44 -45.5 112t45.5 112
t117.5 44t117.5 -44t45.5 -112t-45.5 -112t-117.5 -44t-117.5 44zM898.5 34q-45.5 44 -45.5 112t45.5 112t117.5 44t117.5 -44t45.5 -112t-45.5 -112t-117.5 -44t-117.5 44zM701.5 61q34.5 34 34.5 85t-34.5 85t-86.5 34t-86.5 -34t-34.5 -85t34.5 -85t86.5 -34t86.5 34z
M1102.5 61q34.5 34 34.5 85t-34.5 85t-86.5 34t-86.5 -34t-34.5 -85t34.5 -85t86.5 -34t86.5 34z" />
    <glyph glyph-name="guilsinglleft" unicode="&#x2039;" horiz-adv-x="322" 
d="M277 35h-52l-185 235l185 235h52l-185 -235z" />
    <glyph glyph-name="guilsinglright" unicode="&#x203a;" horiz-adv-x="322" 
d="M97 35h-52l185 235l-185 235h52l185 -235z" />
    <glyph glyph-name="fraction" unicode="&#x2044;" horiz-adv-x="182" 
d="M-85 0h-45l397 700h45z" />
    <glyph glyph-name="uni2070" unicode="&#x2070;" horiz-adv-x="426" 
d="M121.5 463.5q-40.5 23.5 -63.5 65.5t-23 96t23 96t63.5 65.5t91.5 23.5t91.5 -23.5t63.5 -65.5t23 -96t-23 -96t-63.5 -65.5t-91.5 -23.5t-91.5 23.5zM311 517.5q39 41.5 39 107.5t-39 107.5t-98 41.5t-98 -41.5t-39 -107.5t39 -107.5t98 -41.5t98 41.5z" />
    <glyph glyph-name="uni2074" unicode="&#x2074;" horiz-adv-x="358" 
d="M284 450h-41v93h-223v40l203 217h50l-202 -216v-5h172v111h41v-111h69v-36h-69v-93z" />
    <glyph glyph-name="uni2075" unicode="&#x2075;" horiz-adv-x="360" 
d="M107 449.5q-37 9.5 -57 20.5v39q20 -12 56 -22.5t74 -10.5q55 0 84.5 21t29.5 50q0 30 -30.5 51t-88.5 21q-32 0 -59 -7t-41 -15l-17 14l10 189h241v-36h-205l-6 -123q11 5 33 9.5t49 4.5q73 0 114 -31.5t41 -76.5q0 -28 -17.5 -52.5t-52 -39.5t-81.5 -15q-40 0 -77 9.5z
" />
    <glyph glyph-name="uni2076" unicode="&#x2076;" horiz-adv-x="368" 
d="M66 469.5q-41 29.5 -41 73.5q0 17 7 34t28 41l157 182h47l-136 -158l2 -5q21 9 63 9q75 0 115 -29.5t40 -73.5t-41 -73.5t-120 -29.5q-80 0 -121 29.5zM277 495.5q30 19.5 30 47.5t-30 47.5t-90 19.5q-61 0 -91 -19.5t-30 -47.5t30 -47.5t91 -19.5q60 0 90 19.5z" />
    <glyph glyph-name="uni2077" unicode="&#x2077;" horiz-adv-x="323" 
d="M143 450h-43l160 314h-235v36h283v-26z" />
    <glyph glyph-name="uni2078" unicode="&#x2078;" horiz-adv-x="434" 
d="M92.5 468q-42.5 28 -42.5 67q0 29 22 52t60 29v5q-41 6 -66.5 31t-25.5 56q0 26 19 49.5t59 38t99 14.5t99 -14.5t59 -38t19 -49.5q0 -31 -25.5 -56t-66.5 -31v-5q38 -6 60 -29t22 -52q0 -39 -42.5 -67t-124.5 -28t-124.5 28zM319.5 659q33.5 20 33.5 47q0 28 -33.5 48
t-102.5 20t-102.5 -20t-33.5 -48q0 -27 33.5 -47t102.5 -20t102.5 20zM311.5 495q31.5 19 31.5 43q0 25 -31.5 44t-94.5 19t-94.5 -19t-31.5 -44q0 -24 31.5 -43t94.5 -19t94.5 19z" />
    <glyph glyph-name="uni2079" unicode="&#x2079;" horiz-adv-x="404" 
d="M147 450l123 142l-2 5q-23 -10 -65 -10q-59 0 -99 15.5t-59.5 41t-19.5 54.5q0 47 45.5 79.5t131.5 32.5t131.5 -32.5t45.5 -79.5q0 -17 -8 -35t-29 -41l-149 -172h-46zM303.5 645.5q34.5 22.5 34.5 52.5t-34.5 53t-101.5 23t-101.5 -23t-34.5 -53t34.5 -52.5
t101.5 -22.5t101.5 22.5z" />
    <glyph glyph-name="uni2080" unicode="&#x2080;" horiz-adv-x="426" 
d="M121.5 -86.5q-40.5 23.5 -63.5 65.5t-23 96t23 96t63.5 65.5t91.5 23.5t91.5 -23.5t63.5 -65.5t23 -96t-23 -96t-63.5 -65.5t-91.5 -23.5t-91.5 23.5zM311 -32.5q39 41.5 39 107.5t-39 107.5t-98 41.5t-98 -41.5t-39 -107.5t39 -107.5t98 -41.5t98 41.5z" />
    <glyph glyph-name="uni2081" unicode="&#x2081;" horiz-adv-x="331" 
d="M55 -100v36h108v217h-108v36h69q23 0 32.5 10t9.5 32v19h38v-314h97v-36h-246z" />
    <glyph glyph-name="uni2082" unicode="&#x2082;" horiz-adv-x="370" 
d="M50 -100v41l124 83q64 43 87 71t23 57q0 32 -26 52t-76 20q-35 0 -73.5 -13.5t-63.5 -29.5v39q25 15 63.5 27.5t74.5 12.5q70 0 106 -29t36 -78q0 -37 -24 -69.5t-88 -75.5l-101 -67v-5h204v-36h-266z" />
    <glyph glyph-name="uni2083" unicode="&#x2083;" horiz-adv-x="370" 
d="M102.5 -101q-36.5 9 -57.5 21v39q22 -13 58 -23t74 -10q54 0 83 21t29 50t-30 50t-86 21q-45 0 -68 -9v41l134 110v4h-189v36h256v-26l-144 -118v-5q14 3 26 3q43 0 75.5 -15t49.5 -39t17 -52q0 -45 -40.5 -76.5t-112.5 -31.5q-38 0 -74.5 9z" />
    <glyph glyph-name="uni2084" unicode="&#x2084;" horiz-adv-x="358" 
d="M284 -100h-41v93h-223v40l203 217h50l-202 -216v-5h172v111h41v-111h69v-36h-69v-93z" />
    <glyph glyph-name="uni2085" unicode="&#x2085;" horiz-adv-x="360" 
d="M107 -100.5q-37 9.5 -57 20.5v39q20 -12 56 -22.5t74 -10.5q55 0 84.5 21t29.5 50q0 30 -30.5 51t-88.5 21q-32 0 -59 -7t-41 -15l-17 14l10 189h241v-36h-205l-6 -123q11 5 33 9.5t49 4.5q73 0 114 -31.5t41 -76.5q0 -28 -17.5 -52.5t-52 -39.5t-81.5 -15q-40 0 -77 9.5
z" />
    <glyph glyph-name="uni2086" unicode="&#x2086;" horiz-adv-x="368" 
d="M66 -80.5q-41 29.5 -41 73.5q0 17 7 34t28 41l157 182h47l-136 -158l2 -5q21 9 63 9q75 0 115 -29.5t40 -73.5t-41 -73.5t-120 -29.5q-80 0 -121 29.5zM277 -54.5q30 19.5 30 47.5t-30 47.5t-90 19.5q-61 0 -91 -19.5t-30 -47.5t30 -47.5t91 -19.5q60 0 90 19.5z" />
    <glyph glyph-name="uni2087" unicode="&#x2087;" horiz-adv-x="323" 
d="M143 -100h-43l160 314h-235v36h283v-26z" />
    <glyph glyph-name="uni2088" unicode="&#x2088;" horiz-adv-x="434" 
d="M92.5 -82q-42.5 28 -42.5 67q0 29 22 52t60 29v5q-41 6 -66.5 31t-25.5 56q0 26 19 49.5t59 38t99 14.5t99 -14.5t59 -38t19 -49.5q0 -31 -25.5 -56t-66.5 -31v-5q38 -6 60 -29t22 -52q0 -39 -42.5 -67t-124.5 -28t-124.5 28zM319.5 109q33.5 20 33.5 47q0 28 -33.5 48
t-102.5 20t-102.5 -20t-33.5 -48q0 -27 33.5 -47t102.5 -20t102.5 20zM311.5 -55q31.5 19 31.5 43q0 25 -31.5 44t-94.5 19t-94.5 -19t-31.5 -44q0 -24 31.5 -43t94.5 -19t94.5 19z" />
    <glyph glyph-name="uni2089" unicode="&#x2089;" horiz-adv-x="404" 
d="M147 -100l123 142l-2 5q-23 -10 -65 -10q-59 0 -99 15.5t-59.5 41t-19.5 54.5q0 47 45.5 79.5t131.5 32.5t131.5 -32.5t45.5 -79.5q0 -17 -8 -35t-29 -41l-149 -172h-46zM303.5 95.5q34.5 22.5 34.5 52.5t-34.5 53t-101.5 23t-101.5 -23t-34.5 -53t34.5 -52.5
t101.5 -22.5t101.5 22.5z" />
    <glyph glyph-name="uni20A9" unicode="&#x20a9;" horiz-adv-x="1122" 
d="M1087 455v-43h-134l-41 -127h175v-43h-189l-79 -242h-66l-190 647h-5l-189 -647h-66l-79 242h-189v43h175l-41 127h-134v43h120l-80 245h45l214 -657h5l192 657h59l193 -657h5l214 657h45l-80 -245h120z" />
    <glyph glyph-name="Euro" unicode="&#x20ac;" horiz-adv-x="881" 
d="M290 607q-98 -60 -132 -159h434v-43h-445q-5 -30 -5 -55t5 -55h445v-43h-434q33 -98 127 -158.5t228 -60.5q83 0 156.5 20.5t110.5 45.5v-50q-39 -22 -112.5 -40.5t-154.5 -18.5q-106 0 -189.5 33t-138.5 92.5t-77 136.5h-83v43h74q-4 24 -4 55t4 55h-74v43h83
q22 78 78.5 137t144.5 92t202 33q88 0 163.5 -23t114.5 -52v-50q-37 31 -112.5 56.5t-165.5 25.5q-145 0 -243 -60z" />
    <glyph glyph-name="uni20B4" unicode="&#x20b4;" horiz-adv-x="806" 
d="M746 424v-43h-686v43h563q18 15 32 38.5t14 54.5q0 35 -31 69.5t-94 57.5t-154 23q-94 0 -171 -25.5t-114 -56.5v50q39 29 116.5 52t168.5 23q105 0 179 -28t110.5 -71.5t36.5 -88.5q0 -57 -41 -98h71zM60 231v43h686v-43h-584q-21 -28 -21 -61q0 -35 27.5 -66t86.5 -51
t149 -20q84 0 158 23t114 51v-50q-40 -26 -114 -46.5t-158 -20.5q-103 0 -172.5 25.5t-103 65.5t-33.5 84q0 34 20 66h-55z" />
    <glyph glyph-name="uni20B8" unicode="&#x20b8;" horiz-adv-x="706" 
d="M30 657v43h646v-43h-646zM331 527h-301v43h646v-43h-300v-527h-45v527z" />
    <glyph glyph-name="uni20B9" unicode="&#x20b9;" horiz-adv-x="729" 
d="M679 657h-168v-6q38 -24 59.5 -59.5t26.5 -80.5h82v-43h-82q-7 -87 -71.5 -138.5t-175.5 -51.5h-106v-5l340 -273h-68l-346 278h-95v43h275q89 0 140.5 40t59.5 107h-475v43h475q-8 66 -60 106t-140 40h-275v43h604v-43z" />
    <glyph glyph-name="uni20BA" unicode="&#x20ba;" horiz-adv-x="680" 
d="M645 270q-13 -84 -59 -143t-144.5 -93t-261.5 -34h-45v259l-125 -46v45l125 46v118l-125 -46v45l125 46v233h45v-217l306 112v-45l-306 -112v-118l306 112v-45l-306 -112v-232q146 0 234 28t130.5 77.5t55.5 121.5h45z" />
    <glyph glyph-name="uni20BD" unicode="&#x20bd;" horiz-adv-x="811" 
d="M166 318v-120h390v-43h-390v-155h-45v155h-91v43h91v120h-91v43h91v339h384q125 0 188 -50.5t63 -140.5q0 -87 -63.5 -139t-187.5 -52h-339zM166 657v-296h339q101 0 152.5 41t51.5 107t-51.5 107t-152.5 41h-339z" />
    <glyph glyph-name="uni20BF" unicode="&#x20bf;" horiz-adv-x="796" 
d="M566 345q60 -11 95 -56t35 -109q0 -69 -49 -117t-142 -60v-123h-45v120h-10h-175v-120h-45v120h-130v700h130v120h45v-120h184v120h45v-122q103 -9 157.5 -58t54.5 -120q0 -68 -40 -114.5t-110 -55.5v-5zM145 657v-286h316q103 0 155.5 40t52.5 103t-52.5 103t-155.5 40
h-316zM448 43q100 0 150.5 39.5t50.5 103.5q0 63 -50 102.5t-148 39.5h-306v-285h303z" />
    <glyph glyph-name="uni2116" unicode="&#x2116;" horiz-adv-x="1268" 
d="M937 383q-42 23 -65.5 62.5t-23.5 89.5t23.5 89.5t65.5 62.5t96 23t96 -23t65.5 -62.5t23.5 -89.5t-23.5 -89.5t-65.5 -62.5t-96 -23t-96 23zM145 0h-45v700h72l514 -658h5v658h45v-700h-72l-514 658h-5v-658zM1133.5 439.5q39.5 38.5 39.5 95.5t-39.5 95.5t-100.5 38.5
t-100.5 -38.5t-39.5 -95.5t39.5 -95.5t100.5 -38.5t100.5 38.5zM1208 249h-350v43h350v-43z" />
    <glyph glyph-name="trademark" unicode="&#x2122;" horiz-adv-x="870" 
d="M177 370h-45v288h-122v42h289v-42h-122v-288zM421 370h-45v330h68l142 -249h4l142 249h68v-330h-45v274h-5l-162 -284l-162 284h-5v-274z" />
    <glyph glyph-name="uni2150" unicode="&#x2150;" horiz-adv-x="836" 
d="M55 350v36h108v217h-108v36h69q23 0 32.5 10t9.5 32v19h38v-314h97v-36h-246zM246 0h-45l397 700h45zM656 0h-43l160 314h-235v36h283v-26z" />
    <glyph glyph-name="uni2151" unicode="&#x2151;" horiz-adv-x="917" 
d="M55 350v36h108v217h-108v36h69q23 0 32.5 10t9.5 32v19h38v-314h97v-36h-246zM246 0h-45l397 700h45zM660 0l123 142l-2 5q-23 -10 -65 -10q-59 0 -99 15.5t-59.5 41t-19.5 54.5q0 47 45.5 79.5t131.5 32.5t131.5 -32.5t45.5 -79.5q0 -17 -8 -35t-29 -41l-149 -172h-46z
M816.5 195.5q34.5 22.5 34.5 52.5t-34.5 53t-101.5 23t-101.5 -23t-34.5 -53t34.5 -52.5t101.5 -22.5t101.5 22.5z" />
    <glyph glyph-name="uni2153" unicode="&#x2153;" horiz-adv-x="883" 
d="M55 350v36h108v217h-108v36h69q23 0 32.5 10t9.5 32v19h38v-314h97v-36h-246zM246 0h-45l397 700h45zM615.5 -1q-36.5 9 -57.5 21v39q22 -13 58 -23t74 -10q54 0 83 21t29 50t-30 50t-86 21q-45 0 -68 -9v41l134 110v4h-189v36h256v-26l-144 -118v-5q14 3 26 3
q43 0 75.5 -15t49.5 -39t17 -52q0 -45 -40.5 -76.5t-112.5 -31.5q-38 0 -74.5 9z" />
    <glyph glyph-name="uni2154" unicode="&#x2154;" horiz-adv-x="922" 
d="M50 350v41l124 83q64 43 87 71t23 57q0 32 -26 52t-76 20q-35 0 -73.5 -13.5t-63.5 -29.5v39q25 15 63.5 27.5t74.5 12.5q70 0 106 -29t36 -78q0 -37 -24 -69.5t-88 -75.5l-101 -67v-5h204v-36h-266zM285 0h-45l397 700h45zM654.5 -1q-36.5 9 -57.5 21v39q22 -13 58 -23
t74 -10q54 0 83 21t29 50t-30 50t-86 21q-45 0 -68 -9v41l134 110v4h-189v36h256v-26l-144 -118v-5q14 3 26 3q43 0 75.5 -15t49.5 -39t17 -52q0 -45 -40.5 -76.5t-112.5 -31.5q-38 0 -74.5 9z" />
    <glyph glyph-name="uni2155" unicode="&#x2155;" horiz-adv-x="873" 
d="M55 350v36h108v217h-108v36h69q23 0 32.5 10t9.5 32v19h38v-314h97v-36h-246zM246 0h-45l397 700h45zM620 -0.5q-37 9.5 -57 20.5v39q20 -12 56 -22.5t74 -10.5q55 0 84.5 21t29.5 50q0 30 -30.5 51t-88.5 21q-32 0 -59 -7t-41 -15l-17 14l10 189h241v-36h-205l-6 -123
q11 5 33 9.5t49 4.5q73 0 114 -31.5t41 -76.5q0 -28 -17.5 -52.5t-52 -39.5t-81.5 -15q-40 0 -77 9.5z" />
    <glyph glyph-name="uni2156" unicode="&#x2156;" horiz-adv-x="912" 
d="M50 350v41l124 83q64 43 87 71t23 57q0 32 -26 52t-76 20q-35 0 -73.5 -13.5t-63.5 -29.5v39q25 15 63.5 27.5t74.5 12.5q70 0 106 -29t36 -78q0 -37 -24 -69.5t-88 -75.5l-101 -67v-5h204v-36h-266zM285 0h-45l397 700h45zM659 -0.5q-37 9.5 -57 20.5v39
q20 -12 56 -22.5t74 -10.5q55 0 84.5 21t29.5 50q0 30 -30.5 51t-88.5 21q-32 0 -59 -7t-41 -15l-17 14l10 189h241v-36h-205l-6 -123q11 5 33 9.5t49 4.5q73 0 114 -31.5t41 -76.5q0 -28 -17.5 -52.5t-52 -39.5t-81.5 -15q-40 0 -77 9.5z" />
    <glyph glyph-name="uni2157" unicode="&#x2157;" horiz-adv-x="912" 
d="M102.5 349q-36.5 9 -57.5 21v39q22 -13 58 -23t74 -10q54 0 83 21t29 50t-30 50t-86 21q-45 0 -68 -9v41l134 110v4h-189v36h256v-26l-144 -118v-5q14 3 26 3q43 0 75.5 -15t49.5 -39t17 -52q0 -45 -40.5 -76.5t-112.5 -31.5q-38 0 -74.5 9zM285 0h-45l397 700h45z
M659 -0.5q-37 9.5 -57 20.5v39q20 -12 56 -22.5t74 -10.5q55 0 84.5 21t29.5 50q0 30 -30.5 51t-88.5 21q-32 0 -59 -7t-41 -15l-17 14l10 189h241v-36h-205l-6 -123q11 5 33 9.5t49 4.5q73 0 114 -31.5t41 -76.5q0 -28 -17.5 -52.5t-52 -39.5t-81.5 -15q-40 0 -77 9.5z" />
    <glyph glyph-name="uni2158" unicode="&#x2158;" horiz-adv-x="900" 
d="M284 350h-41v93h-223v40l203 217h50l-202 -216v-5h172v111h41v-111h69v-36h-69v-93zM273 0h-45l397 700h45zM647 -0.5q-37 9.5 -57 20.5v39q20 -12 56 -22.5t74 -10.5q55 0 84.5 21t29.5 50q0 30 -30.5 51t-88.5 21q-32 0 -59 -7t-41 -15l-17 14l10 189h241v-36h-205
l-6 -123q11 5 33 9.5t49 4.5q73 0 114 -31.5t41 -76.5q0 -28 -17.5 -52.5t-52 -39.5t-81.5 -15q-40 0 -77 9.5z" />
    <glyph glyph-name="uni2159" unicode="&#x2159;" horiz-adv-x="881" 
d="M55 350v36h108v217h-108v36h69q23 0 32.5 10t9.5 32v19h38v-314h97v-36h-246zM246 0h-45l397 700h45zM579 19.5q-41 29.5 -41 73.5q0 17 7 34t28 41l157 182h47l-136 -158l2 -5q21 9 63 9q75 0 115 -29.5t40 -73.5t-41 -73.5t-120 -29.5q-80 0 -121 29.5zM790 45.5
q30 19.5 30 47.5t-30 47.5t-90 19.5q-61 0 -91 -19.5t-30 -47.5t30 -47.5t91 -19.5q60 0 90 19.5z" />
    <glyph glyph-name="uni215A" unicode="&#x215a;" horiz-adv-x="910" 
d="M107 349.5q-37 9.5 -57 20.5v39q20 -12 56 -22.5t74 -10.5q55 0 84.5 21t29.5 50q0 30 -30.5 51t-88.5 21q-32 0 -59 -7t-41 -15l-17 14l10 189h241v-36h-205l-6 -123q11 5 33 9.5t49 4.5q73 0 114 -31.5t41 -76.5q0 -28 -17.5 -52.5t-52 -39.5t-81.5 -15q-40 0 -77 9.5z
M275 0h-45l397 700h45zM608 19.5q-41 29.5 -41 73.5q0 17 7 34t28 41l157 182h47l-136 -158l2 -5q21 9 63 9q75 0 115 -29.5t40 -73.5t-41 -73.5t-120 -29.5q-80 0 -121 29.5zM819 45.5q30 19.5 30 47.5t-30 47.5t-90 19.5q-61 0 -91 -19.5t-30 -47.5t30 -47.5t91 -19.5
q60 0 90 19.5z" />
    <glyph glyph-name="oneeighth" unicode="&#x215b;" horiz-adv-x="947" 
d="M55 350v36h108v217h-108v36h69q23 0 32.5 10t9.5 32v19h38v-314h97v-36h-246zM246 0h-45l397 700h45zM605.5 18q-42.5 28 -42.5 67q0 29 22 52t60 29v5q-41 6 -66.5 31t-25.5 56q0 26 19 49.5t59 38t99 14.5t99 -14.5t59 -38t19 -49.5q0 -31 -25.5 -56t-66.5 -31v-5
q38 -6 60 -29t22 -52q0 -39 -42.5 -67t-124.5 -28t-124.5 28zM832.5 209q33.5 20 33.5 47q0 28 -33.5 48t-102.5 20t-102.5 -20t-33.5 -48q0 -27 33.5 -47t102.5 -20t102.5 20zM824.5 45q31.5 19 31.5 43q0 25 -31.5 44t-94.5 19t-94.5 -19t-31.5 -44q0 -24 31.5 -43
t94.5 -19t94.5 19z" />
    <glyph glyph-name="threeeighths" unicode="&#x215c;" horiz-adv-x="986" 
d="M102.5 349q-36.5 9 -57.5 21v39q22 -13 58 -23t74 -10q54 0 83 21t29 50t-30 50t-86 21q-45 0 -68 -9v41l134 110v4h-189v36h256v-26l-144 -118v-5q14 3 26 3q43 0 75.5 -15t49.5 -39t17 -52q0 -45 -40.5 -76.5t-112.5 -31.5q-38 0 -74.5 9zM285 0h-45l397 700h45z
M644.5 18q-42.5 28 -42.5 67q0 29 22 52t60 29v5q-41 6 -66.5 31t-25.5 56q0 26 19 49.5t59 38t99 14.5t99 -14.5t59 -38t19 -49.5q0 -31 -25.5 -56t-66.5 -31v-5q38 -6 60 -29t22 -52q0 -39 -42.5 -67t-124.5 -28t-124.5 28zM871.5 209q33.5 20 33.5 47q0 28 -33.5 48
t-102.5 20t-102.5 -20t-33.5 -48q0 -27 33.5 -47t102.5 -20t102.5 20zM863.5 45q31.5 19 31.5 43q0 25 -31.5 44t-94.5 19t-94.5 -19t-31.5 -44q0 -24 31.5 -43t94.5 -19t94.5 19z" />
    <glyph glyph-name="fiveeighths" unicode="&#x215d;" horiz-adv-x="976" 
d="M107 349.5q-37 9.5 -57 20.5v39q20 -12 56 -22.5t74 -10.5q55 0 84.5 21t29.5 50q0 30 -30.5 51t-88.5 21q-32 0 -59 -7t-41 -15l-17 14l10 189h241v-36h-205l-6 -123q11 5 33 9.5t49 4.5q73 0 114 -31.5t41 -76.5q0 -28 -17.5 -52.5t-52 -39.5t-81.5 -15q-40 0 -77 9.5z
M275 0h-45l397 700h45zM634.5 18q-42.5 28 -42.5 67q0 29 22 52t60 29v5q-41 6 -66.5 31t-25.5 56q0 26 19 49.5t59 38t99 14.5t99 -14.5t59 -38t19 -49.5q0 -31 -25.5 -56t-66.5 -31v-5q38 -6 60 -29t22 -52q0 -39 -42.5 -67t-124.5 -28t-124.5 28zM861.5 209
q33.5 20 33.5 47q0 28 -33.5 48t-102.5 20t-102.5 -20t-33.5 -48q0 -27 33.5 -47t102.5 -20t102.5 20zM853.5 45q31.5 19 31.5 43q0 25 -31.5 44t-94.5 19t-94.5 -19t-31.5 -44q0 -24 31.5 -43t94.5 -19t94.5 19z" />
    <glyph glyph-name="seveneighths" unicode="&#x215e;" horiz-adv-x="939" 
d="M143 350h-43l160 314h-235v36h283v-26zM238 0h-45l397 700h45zM597.5 18q-42.5 28 -42.5 67q0 29 22 52t60 29v5q-41 6 -66.5 31t-25.5 56q0 26 19 49.5t59 38t99 14.5t99 -14.5t59 -38t19 -49.5q0 -31 -25.5 -56t-66.5 -31v-5q38 -6 60 -29t22 -52q0 -39 -42.5 -67
t-124.5 -28t-124.5 28zM824.5 209q33.5 20 33.5 47q0 28 -33.5 48t-102.5 20t-102.5 -20t-33.5 -48q0 -27 33.5 -47t102.5 -20t102.5 20zM816.5 45q31.5 19 31.5 43q0 25 -31.5 44t-94.5 19t-94.5 -19t-31.5 -44q0 -24 31.5 -43t94.5 -19t94.5 19z" />
    <glyph glyph-name="uni215F" unicode="&#x215f;" horiz-adv-x="513" 
d="M55 350v36h108v217h-108v36h69q23 0 32.5 10t9.5 32v19h38v-314h97v-36h-246zM246 0h-45l397 700h45z" />
    <glyph glyph-name="arrowleft" unicode="&#x2190;" horiz-adv-x="970" 
d="M410 139l-29 -29l-241 225l241 225l29 -29l-181 -170v-5h601v-43h-601v-5z" />
    <glyph glyph-name="arrowup" unicode="&#x2191;" horiz-adv-x="970" 
d="M506 0h-43v611h-5l-169 -181l-29 29l225 241l225 -241l-29 -29l-170 181h-5v-611z" />
    <glyph glyph-name="arrowright" unicode="&#x2192;" horiz-adv-x="970" 
d="M830 335l-241 -225l-29 29l181 169v5h-601v43h601v5l-181 170l29 29z" />
    <glyph glyph-name="arrowdown" unicode="&#x2193;" horiz-adv-x="970" 
d="M710 241l-225 -241l-225 241l29 29l169 -181h5v611h43v-611h5l170 181z" />
    <glyph glyph-name="arrowboth" unicode="&#x2194;" horiz-adv-x="1000" 
d="M375 139l-29 -29l-241 225l241 225l29 -29l-181 -170v-5h612v5l-181 170l29 29l241 -225l-241 -225l-29 29l181 169v5h-612v-5z" />
    <glyph glyph-name="arrowupdn" unicode="&#x2195;" horiz-adv-x="970" 
d="M710 196l-225 -241l-225 241l29 29l169 -181h5v612h-5l-169 -181l-29 29l225 241l225 -241l-29 -29l-170 181h-5v-612h5l170 181z" />
    <glyph glyph-name="uni2196" unicode="&#x2196;" horiz-adv-x="1000" 
d="M750 114l-30 -31l-426 429l-3 -2v-253h-41v330h330v-41h-254l-2 -3z" />
    <glyph glyph-name="uni2197" unicode="&#x2197;" horiz-adv-x="1000" 
d="M706 512l-426 -429l-30 31l426 429l-2 3h-254v41h330v-330h-41v253z" />
    <glyph glyph-name="uni2198" unicode="&#x2198;" horiz-adv-x="1000" 
d="M750 83h-330v41h254l2 3l-426 429l30 31l426 -429l3 2v253h41v-330z" />
    <glyph glyph-name="uni2199" unicode="&#x2199;" horiz-adv-x="1000" 
d="M580 83h-330v330h41v-253l3 -2l426 429l30 -31l-426 -429l2 -3h254v-41z" />
    <glyph glyph-name="minus" unicode="&#x2212;" horiz-adv-x="607" 
d="M547 288h-487v41h487v-41z" />
    <glyph glyph-name="approxequal" unicode="&#x2248;" horiz-adv-x="620" 
d="M65 377q0 51 33.5 82t92.5 31q39 0 67.5 -12.5t64.5 -36.5q33 -21 55 -31.5t51 -10.5q40 0 61.5 19t21.5 52v10h43v-10q0 -52 -33.5 -83t-92.5 -31q-39 0 -67.5 12.5t-64.5 36.5q-33 21 -55 31.5t-51 10.5q-40 0 -61.5 -19t-21.5 -52v-10h-43v11zM65 141q0 51 33.5 82
t92.5 31q39 0 67.5 -12.5t64.5 -36.5q33 -21 55 -31.5t51 -10.5q40 0 61.5 19t21.5 52v10h43v-10q0 -52 -33.5 -83t-92.5 -31q-39 0 -67.5 12.5t-64.5 36.5q-33 21 -55 31.5t-51 10.5q-40 0 -61.5 -19t-21.5 -52v-10h-43v11z" />
    <glyph glyph-name="notequal" unicode="&#x2260;" horiz-adv-x="605" 
d="M540 439v-41h-173l-84 -179h257v-41h-277l-62 -133h-46l62 133h-152v41h172l84 179h-256v41h275l64 136h46l-64 -136h154z" />
    <glyph glyph-name="lessequal" unicode="&#x2264;" horiz-adv-x="628" 
d="M563 188v-48l-498 184v42l498 184v-48l-423 -153v-8zM563 0h-498v43h498v-43z" />
    <glyph glyph-name="greaterequal" unicode="&#x2265;" horiz-adv-x="628" 
d="M563 324l-498 -184v48l423 153v8l-423 153v48l498 -184v-42zM563 43v-43h-498v43h498z" />
    <glyph glyph-name="uni2460" unicode="&#x2460;" horiz-adv-x="1070" 
d="M294.5 -11.5q-103.5 53.5 -159 147.5t-55.5 214t55.5 214t159 147.5t240.5 53.5t240.5 -53.5t159 -147.5t55.5 -214t-55.5 -214t-159 -147.5t-240.5 -53.5t-240.5 53.5zM753.5 21q94.5 49 146 135.5t51.5 193.5t-51.5 193.5t-146 135.5t-218.5 49t-218.5 -49t-146 -135.5
t-51.5 -193.5t51.5 -193.5t146 -135.5t218.5 -49t218.5 49zM425 175v36h108v217h-108v36h69q23 0 32.5 10t9.5 32v19h38v-314h97v-36h-246z" />
    <glyph glyph-name="uni2461" unicode="&#x2461;" horiz-adv-x="1070" 
d="M294.5 -11.5q-103.5 53.5 -159 147.5t-55.5 214t55.5 214t159 147.5t240.5 53.5t240.5 -53.5t159 -147.5t55.5 -214t-55.5 -214t-159 -147.5t-240.5 -53.5t-240.5 53.5zM753.5 21q94.5 49 146 135.5t51.5 193.5t-51.5 193.5t-146 135.5t-218.5 49t-218.5 -49t-146 -135.5
t-51.5 -193.5t51.5 -193.5t146 -135.5t218.5 -49t218.5 49zM400 175v41l124 83q64 43 87 71t23 57q0 32 -26 52t-76 20q-35 0 -73.5 -13.5t-63.5 -29.5v39q25 15 63.5 27.5t74.5 12.5q70 0 106 -29t36 -78q0 -37 -24 -69.5t-88 -75.5l-101 -67v-5h204v-36h-266z" />
    <glyph glyph-name="uni2462" unicode="&#x2462;" horiz-adv-x="1070" 
d="M294.5 -11.5q-103.5 53.5 -159 147.5t-55.5 214t55.5 214t159 147.5t240.5 53.5t240.5 -53.5t159 -147.5t55.5 -214t-55.5 -214t-159 -147.5t-240.5 -53.5t-240.5 53.5zM753.5 21q94.5 49 146 135.5t51.5 193.5t-51.5 193.5t-146 135.5t-218.5 49t-218.5 -49t-146 -135.5
t-51.5 -193.5t51.5 -193.5t146 -135.5t218.5 -49t218.5 49zM462.5 174q-36.5 9 -57.5 21v39q22 -13 58 -23t74 -10q54 0 83 21t29 50t-30 50t-86 21q-45 0 -68 -9v41l134 110v4h-189v36h256v-26l-144 -118v-5q14 3 26 3q43 0 75.5 -15t49.5 -39t17 -52q0 -45 -40.5 -76.5
t-112.5 -31.5q-38 0 -74.5 9z" />
    <glyph glyph-name="uni2463" unicode="&#x2463;" horiz-adv-x="1070" 
d="M294.5 -11.5q-103.5 53.5 -159 147.5t-55.5 214t55.5 214t159 147.5t240.5 53.5t240.5 -53.5t159 -147.5t55.5 -214t-55.5 -214t-159 -147.5t-240.5 -53.5t-240.5 53.5zM753.5 21q94.5 49 146 135.5t51.5 193.5t-51.5 193.5t-146 135.5t-218.5 49t-218.5 -49t-146 -135.5
t-51.5 -193.5t51.5 -193.5t146 -135.5t218.5 -49t218.5 49zM614 175h-41v93h-223v40l203 217h50l-202 -216v-5h172v111h41v-111h69v-36h-69v-93z" />
    <glyph glyph-name="uni2464" unicode="&#x2464;" horiz-adv-x="1070" 
d="M294.5 -11.5q-103.5 53.5 -159 147.5t-55.5 214t55.5 214t159 147.5t240.5 53.5t240.5 -53.5t159 -147.5t55.5 -214t-55.5 -214t-159 -147.5t-240.5 -53.5t-240.5 53.5zM753.5 21q94.5 49 146 135.5t51.5 193.5t-51.5 193.5t-146 135.5t-218.5 49t-218.5 -49t-146 -135.5
t-51.5 -193.5t51.5 -193.5t146 -135.5t218.5 -49t218.5 49zM462 174.5q-37 9.5 -57 20.5v39q20 -12 56 -22.5t74 -10.5q55 0 84.5 21t29.5 50q0 30 -30.5 51t-88.5 21q-32 0 -59 -7t-41 -15l-17 14l10 189h241v-36h-205l-6 -123q11 5 33 9.5t49 4.5q73 0 114 -31.5t41 -76.5
q0 -28 -17.5 -52.5t-52 -39.5t-81.5 -15q-40 0 -77 9.5z" />
    <glyph glyph-name="uni2465" unicode="&#x2465;" horiz-adv-x="1070" 
d="M294.5 -11.5q-103.5 53.5 -159 147.5t-55.5 214t55.5 214t159 147.5t240.5 53.5t240.5 -53.5t159 -147.5t55.5 -214t-55.5 -214t-159 -147.5t-240.5 -53.5t-240.5 53.5zM753.5 21q94.5 49 146 135.5t51.5 193.5t-51.5 193.5t-146 135.5t-218.5 49t-218.5 -49t-146 -135.5
t-51.5 -193.5t51.5 -193.5t146 -135.5t218.5 -49t218.5 49zM406 194.5q-41 29.5 -41 73.5q0 17 7 34t28 41l157 182h47l-136 -158l2 -5q21 9 63 9q75 0 115 -29.5t40 -73.5t-41 -73.5t-120 -29.5q-80 0 -121 29.5zM617 220.5q30 19.5 30 47.5t-30 47.5t-90 19.5
q-61 0 -91 -19.5t-30 -47.5t30 -47.5t91 -19.5q60 0 90 19.5z" />
    <glyph glyph-name="uni2466" unicode="&#x2466;" horiz-adv-x="1070" 
d="M294.5 -11.5q-103.5 53.5 -159 147.5t-55.5 214t55.5 214t159 147.5t240.5 53.5t240.5 -53.5t159 -147.5t55.5 -214t-55.5 -214t-159 -147.5t-240.5 -53.5t-240.5 53.5zM753.5 21q94.5 49 146 135.5t51.5 193.5t-51.5 193.5t-146 135.5t-218.5 49t-218.5 -49t-146 -135.5
t-51.5 -193.5t51.5 -193.5t146 -135.5t218.5 -49t218.5 49zM508 175h-43l160 314h-235v36h283v-26z" />
    <glyph glyph-name="uni2467" unicode="&#x2467;" horiz-adv-x="1070" 
d="M294.5 -11.5q-103.5 53.5 -159 147.5t-55.5 214t55.5 214t159 147.5t240.5 53.5t240.5 -53.5t159 -147.5t55.5 -214t-55.5 -214t-159 -147.5t-240.5 -53.5t-240.5 53.5zM753.5 21q94.5 49 146 135.5t51.5 193.5t-51.5 193.5t-146 135.5t-218.5 49t-218.5 -49t-146 -135.5
t-51.5 -193.5t51.5 -193.5t146 -135.5t218.5 -49t218.5 49zM410.5 193q-42.5 28 -42.5 67q0 29 22 52t60 29v5q-41 6 -66.5 31t-25.5 56q0 26 19 49.5t59 38t99 14.5t99 -14.5t59 -38t19 -49.5q0 -31 -25.5 -56t-66.5 -31v-5q38 -6 60 -29t22 -52q0 -39 -42.5 -67
t-124.5 -28t-124.5 28zM637.5 384q33.5 20 33.5 47q0 28 -33.5 48t-102.5 20t-102.5 -20t-33.5 -48q0 -27 33.5 -47t102.5 -20t102.5 20zM629.5 220q31.5 19 31.5 43q0 25 -31.5 44t-94.5 19t-94.5 -19t-31.5 -44q0 -24 31.5 -43t94.5 -19t94.5 19z" />
    <glyph glyph-name="uni2468" unicode="&#x2468;" horiz-adv-x="1070" 
d="M294.5 -11.5q-103.5 53.5 -159 147.5t-55.5 214t55.5 214t159 147.5t240.5 53.5t240.5 -53.5t159 -147.5t55.5 -214t-55.5 -214t-159 -147.5t-240.5 -53.5t-240.5 53.5zM753.5 21q94.5 49 146 135.5t51.5 193.5t-51.5 193.5t-146 135.5t-218.5 49t-218.5 -49t-146 -135.5
t-51.5 -193.5t51.5 -193.5t146 -135.5t218.5 -49t218.5 49zM477 175l123 142l-2 5q-23 -10 -65 -10q-59 0 -99 15.5t-59.5 41t-19.5 54.5q0 47 45.5 79.5t131.5 32.5t131.5 -32.5t45.5 -79.5q0 -17 -8 -35t-29 -41l-149 -172h-46zM633.5 370.5q34.5 22.5 34.5 52.5t-34.5 53
t-101.5 23t-101.5 -23t-34.5 -53t34.5 -52.5t101.5 -22.5t101.5 22.5z" />
    <glyph glyph-name="uni2469" unicode="&#x2469;" horiz-adv-x="1070" 
d="M294.5 -11.5q-103.5 53.5 -159 147.5t-55.5 214t55.5 214t159 147.5t240.5 53.5t240.5 -53.5t159 -147.5t55.5 -214t-55.5 -214t-159 -147.5t-240.5 -53.5t-240.5 53.5zM753.5 21q94.5 49 146 135.5t51.5 193.5t-51.5 193.5t-146 135.5t-218.5 49t-218.5 -49t-146 -135.5
t-51.5 -193.5t51.5 -193.5t146 -135.5t218.5 -49t218.5 49zM585.5 188.5q-40.5 23.5 -63.5 65.5t-23 96t23 96t63.5 65.5t91.5 23.5t91.5 -23.5t63.5 -65.5t23 -96t-23 -96t-63.5 -65.5t-91.5 -23.5t-91.5 23.5zM242 175v36h108v217h-108v36h69q23 0 32.5 10t9.5 32v19h38
v-314h97v-36h-246zM775 242.5q39 41.5 39 107.5t-39 107.5t-98 41.5t-98 -41.5t-39 -107.5t39 -107.5t98 -41.5t98 41.5z" />
    <glyph glyph-name="uni24EA" unicode="&#x24ea;" horiz-adv-x="1070" 
d="M294.5 -11.5q-103.5 53.5 -159 147.5t-55.5 214t55.5 214t159 147.5t240.5 53.5t240.5 -53.5t159 -147.5t55.5 -214t-55.5 -214t-159 -147.5t-240.5 -53.5t-240.5 53.5zM753.5 21q94.5 49 146 135.5t51.5 193.5t-51.5 193.5t-146 135.5t-218.5 49t-218.5 -49t-146 -135.5
t-51.5 -193.5t51.5 -193.5t146 -135.5t218.5 -49t218.5 49zM442.5 188.5q-40.5 23.5 -63.5 65.5t-23 96t23 96t63.5 65.5t91.5 23.5t91.5 -23.5t63.5 -65.5t23 -96t-23 -96t-63.5 -65.5t-91.5 -23.5t-91.5 23.5zM632 242.5q39 41.5 39 107.5t-39 107.5t-98 41.5t-98 -41.5
t-39 -107.5t39 -107.5t98 -41.5t98 41.5z" />
    <glyph glyph-name="uni24F5" unicode="&#x24f5;" horiz-adv-x="1090" 
d="M301.5 -19.5q-105.5 55.5 -163.5 152.5t-58 217t58 217t163.5 152.5t243.5 55.5t243.5 -55.5t163.5 -152.5t58 -217t-58 -217t-163.5 -152.5t-243.5 -55.5t-243.5 55.5zM775.5 0q100.5 53 155.5 144.5t55 205.5t-55 205.5t-155.5 144.5t-230.5 53t-230.5 -53
t-155.5 -144.5t-55 -205.5t55 -205.5t155.5 -144.5t230.5 -53t230.5 53zM327 19q-95 50 -147 137t-52 194t52 194t147 137t218 50t218 -50t147 -137t52 -194t-52 -194t-147 -137t-218 -50t-218 50zM750 38q89 47 138.5 129t49.5 183t-49.5 183t-138.5 129t-205 47t-205 -47
t-138.5 -129t-49.5 -183t49.5 -183t138.5 -129t205 -47t205 47zM435 175v36h108v217h-108v36h69q23 0 32.5 10t9.5 32v19h38v-314h97v-36h-246z" />
    <glyph glyph-name="uni24F6" unicode="&#x24f6;" horiz-adv-x="1090" 
d="M301.5 -19.5q-105.5 55.5 -163.5 152.5t-58 217t58 217t163.5 152.5t243.5 55.5t243.5 -55.5t163.5 -152.5t58 -217t-58 -217t-163.5 -152.5t-243.5 -55.5t-243.5 55.5zM775.5 0q100.5 53 155.5 144.5t55 205.5t-55 205.5t-155.5 144.5t-230.5 53t-230.5 -53
t-155.5 -144.5t-55 -205.5t55 -205.5t155.5 -144.5t230.5 -53t230.5 53zM327 19q-95 50 -147 137t-52 194t52 194t147 137t218 50t218 -50t147 -137t52 -194t-52 -194t-147 -137t-218 -50t-218 50zM750 38q89 47 138.5 129t49.5 183t-49.5 183t-138.5 129t-205 47t-205 -47
t-138.5 -129t-49.5 -183t49.5 -183t138.5 -129t205 -47t205 47zM415 175v41l124 83q64 43 87 71t23 57q0 32 -26 52t-76 20q-35 0 -73.5 -13.5t-63.5 -29.5v39q25 15 63.5 27.5t74.5 12.5q70 0 106 -29t36 -78q0 -37 -24 -69.5t-88 -75.5l-101 -67v-5h204v-36h-266z" />
    <glyph glyph-name="uni24F7" unicode="&#x24f7;" horiz-adv-x="1090" 
d="M301.5 -19.5q-105.5 55.5 -163.5 152.5t-58 217t58 217t163.5 152.5t243.5 55.5t243.5 -55.5t163.5 -152.5t58 -217t-58 -217t-163.5 -152.5t-243.5 -55.5t-243.5 55.5zM775.5 0q100.5 53 155.5 144.5t55 205.5t-55 205.5t-155.5 144.5t-230.5 53t-230.5 -53
t-155.5 -144.5t-55 -205.5t55 -205.5t155.5 -144.5t230.5 -53t230.5 53zM327 19q-95 50 -147 137t-52 194t52 194t147 137t218 50t218 -50t147 -137t52 -194t-52 -194t-147 -137t-218 -50t-218 50zM750 38q89 47 138.5 129t49.5 183t-49.5 183t-138.5 129t-205 47t-205 -47
t-138.5 -129t-49.5 -183t49.5 -183t138.5 -129t205 -47t205 47zM472.5 174q-36.5 9 -57.5 21v39q22 -13 58 -23t74 -10q54 0 83 21t29 50t-30 50t-86 21q-45 0 -68 -9v41l134 110v4h-189v36h256v-26l-144 -118v-5q14 3 26 3q43 0 75.5 -15t49.5 -39t17 -52
q0 -45 -40.5 -76.5t-112.5 -31.5q-38 0 -74.5 9z" />
    <glyph glyph-name="uni24F8" unicode="&#x24f8;" horiz-adv-x="1090" 
d="M301.5 -19.5q-105.5 55.5 -163.5 152.5t-58 217t58 217t163.5 152.5t243.5 55.5t243.5 -55.5t163.5 -152.5t58 -217t-58 -217t-163.5 -152.5t-243.5 -55.5t-243.5 55.5zM775.5 0q100.5 53 155.5 144.5t55 205.5t-55 205.5t-155.5 144.5t-230.5 53t-230.5 -53
t-155.5 -144.5t-55 -205.5t55 -205.5t155.5 -144.5t230.5 -53t230.5 53zM327 19q-95 50 -147 137t-52 194t52 194t147 137t218 50t218 -50t147 -137t52 -194t-52 -194t-147 -137t-218 -50t-218 50zM750 38q89 47 138.5 129t49.5 183t-49.5 183t-138.5 129t-205 47t-205 -47
t-138.5 -129t-49.5 -183t49.5 -183t138.5 -129t205 -47t205 47zM624 175h-41v93h-223v40l203 217h50l-202 -216v-5h172v111h41v-111h69v-36h-69v-93z" />
    <glyph glyph-name="uni24F9" unicode="&#x24f9;" horiz-adv-x="1090" 
d="M301.5 -19.5q-105.5 55.5 -163.5 152.5t-58 217t58 217t163.5 152.5t243.5 55.5t243.5 -55.5t163.5 -152.5t58 -217t-58 -217t-163.5 -152.5t-243.5 -55.5t-243.5 55.5zM775.5 0q100.5 53 155.5 144.5t55 205.5t-55 205.5t-155.5 144.5t-230.5 53t-230.5 -53
t-155.5 -144.5t-55 -205.5t55 -205.5t155.5 -144.5t230.5 -53t230.5 53zM327 19q-95 50 -147 137t-52 194t52 194t147 137t218 50t218 -50t147 -137t52 -194t-52 -194t-147 -137t-218 -50t-218 50zM750 38q89 47 138.5 129t49.5 183t-49.5 183t-138.5 129t-205 47t-205 -47
t-138.5 -129t-49.5 -183t49.5 -183t138.5 -129t205 -47t205 47zM472 174.5q-37 9.5 -57 20.5v39q20 -12 56 -22.5t74 -10.5q55 0 84.5 21t29.5 50q0 30 -30.5 51t-88.5 21q-32 0 -59 -7t-41 -15l-17 14l10 189h241v-36h-205l-6 -123q11 5 33 9.5t49 4.5q73 0 114 -31.5
t41 -76.5q0 -28 -17.5 -52.5t-52 -39.5t-81.5 -15q-40 0 -77 9.5z" />
    <glyph glyph-name="uni24FA" unicode="&#x24fa;" horiz-adv-x="1090" 
d="M301.5 -19.5q-105.5 55.5 -163.5 152.5t-58 217t58 217t163.5 152.5t243.5 55.5t243.5 -55.5t163.5 -152.5t58 -217t-58 -217t-163.5 -152.5t-243.5 -55.5t-243.5 55.5zM775.5 0q100.5 53 155.5 144.5t55 205.5t-55 205.5t-155.5 144.5t-230.5 53t-230.5 -53
t-155.5 -144.5t-55 -205.5t55 -205.5t155.5 -144.5t230.5 -53t230.5 53zM327 19q-95 50 -147 137t-52 194t52 194t147 137t218 50t218 -50t147 -137t52 -194t-52 -194t-147 -137t-218 -50t-218 50zM750 38q89 47 138.5 129t49.5 183t-49.5 183t-138.5 129t-205 47t-205 -47
t-138.5 -129t-49.5 -183t49.5 -183t138.5 -129t205 -47t205 47zM421 194.5q-41 29.5 -41 73.5q0 17 7 34t28 41l157 182h47l-136 -158l2 -5q21 9 63 9q75 0 115 -29.5t40 -73.5t-41 -73.5t-120 -29.5q-80 0 -121 29.5zM632 220.5q30 19.5 30 47.5t-30 47.5t-90 19.5
q-61 0 -91 -19.5t-30 -47.5t30 -47.5t91 -19.5q60 0 90 19.5z" />
    <glyph glyph-name="uni24FB" unicode="&#x24fb;" horiz-adv-x="1090" 
d="M301.5 -19.5q-105.5 55.5 -163.5 152.5t-58 217t58 217t163.5 152.5t243.5 55.5t243.5 -55.5t163.5 -152.5t58 -217t-58 -217t-163.5 -152.5t-243.5 -55.5t-243.5 55.5zM775.5 0q100.5 53 155.5 144.5t55 205.5t-55 205.5t-155.5 144.5t-230.5 53t-230.5 -53
t-155.5 -144.5t-55 -205.5t55 -205.5t155.5 -144.5t230.5 -53t230.5 53zM327 19q-95 50 -147 137t-52 194t52 194t147 137t218 50t218 -50t147 -137t52 -194t-52 -194t-147 -137t-218 -50t-218 50zM750 38q89 47 138.5 129t49.5 183t-49.5 183t-138.5 129t-205 47t-205 -47
t-138.5 -129t-49.5 -183t49.5 -183t138.5 -129t205 -47t205 47zM523 175h-43l160 314h-235v36h283v-26z" />
    <glyph glyph-name="uni24FC" unicode="&#x24fc;" horiz-adv-x="1090" 
d="M301.5 -19.5q-105.5 55.5 -163.5 152.5t-58 217t58 217t163.5 152.5t243.5 55.5t243.5 -55.5t163.5 -152.5t58 -217t-58 -217t-163.5 -152.5t-243.5 -55.5t-243.5 55.5zM775.5 0q100.5 53 155.5 144.5t55 205.5t-55 205.5t-155.5 144.5t-230.5 53t-230.5 -53
t-155.5 -144.5t-55 -205.5t55 -205.5t155.5 -144.5t230.5 -53t230.5 53zM327 19q-95 50 -147 137t-52 194t52 194t147 137t218 50t218 -50t147 -137t52 -194t-52 -194t-147 -137t-218 -50t-218 50zM750 38q89 47 138.5 129t49.5 183t-49.5 183t-138.5 129t-205 47t-205 -47
t-138.5 -129t-49.5 -183t49.5 -183t138.5 -129t205 -47t205 47zM420.5 193q-42.5 28 -42.5 67q0 29 22 52t60 29v5q-41 6 -66.5 31t-25.5 56q0 26 19 49.5t59 38t99 14.5t99 -14.5t59 -38t19 -49.5q0 -31 -25.5 -56t-66.5 -31v-5q38 -6 60 -29t22 -52q0 -39 -42.5 -67
t-124.5 -28t-124.5 28zM647.5 384q33.5 20 33.5 47q0 28 -33.5 48t-102.5 20t-102.5 -20t-33.5 -48q0 -27 33.5 -47t102.5 -20t102.5 20zM639.5 220q31.5 19 31.5 43q0 25 -31.5 44t-94.5 19t-94.5 -19t-31.5 -44q0 -24 31.5 -43t94.5 -19t94.5 19z" />
    <glyph glyph-name="uni24FD" unicode="&#x24fd;" horiz-adv-x="1090" 
d="M301.5 -19.5q-105.5 55.5 -163.5 152.5t-58 217t58 217t163.5 152.5t243.5 55.5t243.5 -55.5t163.5 -152.5t58 -217t-58 -217t-163.5 -152.5t-243.5 -55.5t-243.5 55.5zM775.5 0q100.5 53 155.5 144.5t55 205.5t-55 205.5t-155.5 144.5t-230.5 53t-230.5 -53
t-155.5 -144.5t-55 -205.5t55 -205.5t155.5 -144.5t230.5 -53t230.5 53zM327 19q-95 50 -147 137t-52 194t52 194t147 137t218 50t218 -50t147 -137t52 -194t-52 -194t-147 -137t-218 -50t-218 50zM750 38q89 47 138.5 129t49.5 183t-49.5 183t-138.5 129t-205 47t-205 -47
t-138.5 -129t-49.5 -183t49.5 -183t138.5 -129t205 -47t205 47zM487 175l123 142l-2 5q-23 -10 -65 -10q-59 0 -99 15.5t-59.5 41t-19.5 54.5q0 47 45.5 79.5t131.5 32.5t131.5 -32.5t45.5 -79.5q0 -17 -8 -35t-29 -41l-149 -172h-46zM643.5 370.5q34.5 22.5 34.5 52.5
t-34.5 53t-101.5 23t-101.5 -23t-34.5 -53t34.5 -52.5t101.5 -22.5t101.5 22.5z" />
    <glyph glyph-name="uni24FE" unicode="&#x24fe;" horiz-adv-x="1090" 
d="M301.5 -19.5q-105.5 55.5 -163.5 152.5t-58 217t58 217t163.5 152.5t243.5 55.5t243.5 -55.5t163.5 -152.5t58 -217t-58 -217t-163.5 -152.5t-243.5 -55.5t-243.5 55.5zM775.5 0q100.5 53 155.5 144.5t55 205.5t-55 205.5t-155.5 144.5t-230.5 53t-230.5 -53
t-155.5 -144.5t-55 -205.5t55 -205.5t155.5 -144.5t230.5 -53t230.5 53zM327 19q-95 50 -147 137t-52 194t52 194t147 137t218 50t218 -50t147 -137t52 -194t-52 -194t-147 -137t-218 -50t-218 50zM750 38q89 47 138.5 129t49.5 183t-49.5 183t-138.5 129t-205 47t-205 -47
t-138.5 -129t-49.5 -183t49.5 -183t138.5 -129t205 -47t205 47zM600.5 188.5q-40.5 23.5 -63.5 65.5t-23 96t23 96t63.5 65.5t91.5 23.5t91.5 -23.5t63.5 -65.5t23 -96t-23 -96t-63.5 -65.5t-91.5 -23.5t-91.5 23.5zM257 175v36h108v217h-108v36h69q23 0 32.5 10t9.5 32v19
h38v-314h97v-36h-246zM790 242.5q39 41.5 39 107.5t-39 107.5t-98 41.5t-98 -41.5t-39 -107.5t39 -107.5t98 -41.5t98 41.5z" />
    <glyph glyph-name="uniF6D1" unicode="&#xf6d1;" horiz-adv-x="404" 
d="M74.5 811.5q-44.5 37.5 -44.5 98.5h44q0 -42 33 -69t95 -27t95 27t33 69h44q0 -61 -44.5 -98.5t-127.5 -37.5t-127.5 37.5z" />
    <glyph glyph-name="uniF6D4" unicode="&#xf6d4;" horiz-adv-x="376" 
d="M70 612q-40 33 -40 88h41q0 -36 30 -59t87 -23t87 23t30 59h41q0 -55 -40 -88t-118 -33t-118 33z" />
    <glyph glyph-name="questiondown.alt" horiz-adv-x="581" 
d="M315.5 475.5q-12.5 11.5 -12.5 26.5t12.5 26.5t30.5 11.5t30.5 -11.5t12.5 -26.5t-12.5 -26.5t-30.5 -11.5t-30.5 11.5zM156 -173q-76 27 -111 71t-35 97q0 69 48 117t121 72t145 24v149h45v-186h-6q-82 0 -152 -20.5t-112 -60t-42 -93.5q0 -41 29.5 -75.5t95 -56.5
t166.5 -22q80 0 147 19t101 43v-50q-34 -21 -101.5 -38t-146.5 -17q-116 0 -192 27z" />
    <glyph glyph-name="Iacute_J.loclNLD" horiz-adv-x="1242" 
d="M661 700v-43h-291v-614h291v-43h-626v43h290v614h-290v43h626zM224 780h-3l-8 30l240 96h19l3 -54zM716 20v45q78 -32 163 -32q107 0 162.5 53t55.5 160v454h45v-456q0 -124 -67.5 -189t-193.5 -65q-85 0 -165 30zM996 780h-3l-8 30l240 96h19l3 -54z" />
    <glyph glyph-name="i.loclTRK" horiz-adv-x="225" 
d="M81.5 613q-11.5 10 -11.5 25t11.5 25t31.5 10q19 0 30.5 -10t11.5 -25t-11.5 -25t-30.5 -10q-20 0 -31.5 10zM90 0v530h2h21h21h1v-530h-45z" />
    <glyph glyph-name="iacute_j.loclNLD" horiz-adv-x="449" 
d="M33 620h-3l-8 30l173 96h19l3 -48zM255 620h-3l-8 30l173 96h19l3 -48zM135 0h-45v530h45v-530zM143 -185v44q40 -16 77 -16q44 0 68.5 28t24.5 82v577h45v-577q0 -76 -35.5 -114.5t-101.5 -38.5q-35 0 -78 15z" />
    <glyph glyph-name="F_O_R" horiz-adv-x="1882" 
d="M100 0v700h651v-22q27 12 76.5 22t105.5 10q76 0 142 -19t102 -42v51h367q131 0 199.5 -56.5t68.5 -150.5q0 -72 -41.5 -123t-112.5 -66v-6q56 -8 86.5 -48t30.5 -105v-145h-45v145q0 64 -39 98.5t-116 34.5h-232q-17 -84 -70.5 -149t-140.5 -102t-199 -37
q-127 0 -221.5 47.5t-145.5 129.5t-51 183q0 75 27.5 138t72.5 106t97 63h-567v-308h301v-43h-301v-306h-45zM1128.5 75q84.5 42 130 114.5t45.5 160.5t-45.5 160.5t-130 114.5t-195.5 42t-195.5 -42t-130 -114.5t-45.5 -160.5t45.5 -160.5t130 -114.5t195.5 -42t195.5 42z
M1709 611q-56 46 -165 46h-324v-36q64 -50 97.5 -120t33.5 -151l-2 -29h195q109 0 165 46t56 122t-56 122z" />
    <glyph glyph-name="H_E" horiz-adv-x="1289" 
d="M722 336v-293h507v-43h-552v336h-532v-336h-45v700h45v-321h532v321h532v-43h-487v-278h447v-43h-447z" />
    <glyph glyph-name="M_E" horiz-adv-x="1507" 
d="M941 336v-293h506v-43h-551v660h-5l-370 -680l-371 680h-5v-660h-45v700h78l340 -623h5l340 623h564v-43h-486v-278h446v-43h-446z" />
    <glyph glyph-name="O_C" horiz-adv-x="1481" 
d="M273 37q-99 47 -151 129t-52 184t52 184t151 129t235 47q97 0 176 -25t136 -70q57 45 136.5 70t176.5 25q88 0 163.5 -23t114.5 -52v-50q-37 31 -112.5 56.5t-165.5 25.5q-121 0 -209.5 -42t-135 -114t-46.5 -161q0 -88 45.5 -160.5t130 -114.5t195.5 -42
q84 0 156.5 20.5t110.5 45.5v-50q-39 -22 -112.5 -40.5t-154.5 -18.5q-91 0 -165.5 24.5t-128.5 69.5q-57 -45 -135.5 -69.5t-175.5 -24.5q-136 0 -235 47zM663.5 55q70.5 22 121.5 61q-44 47 -67 107t-23 127q0 68 23 127.5t68 106.5q-52 39 -122.5 61t-155.5 22
q-121 0 -209.5 -42t-135 -114t-46.5 -161t46.5 -161t135 -114t209.5 -42q85 0 155.5 22z" />
    <glyph glyph-name="T_H_E" horiz-adv-x="1830" 
d="M1263 336v-293h507v-43h-552v336h-532v-336h-45v657h-287v-657h-45v657h-294v43h671v-321h532v321h532v-43h-487v-278h447v-43h-447z" />
    <glyph glyph-name="T_O" horiz-adv-x="1501" 
d="M1003 700q133 0 230 -46t147.5 -126t50.5 -181q0 -102 -50.5 -183t-147 -127.5t-230.5 -46.5t-230.5 46.5t-147 127.5t-50.5 183q0 75 29.5 138t76 106t98.5 61v5h-439v-657h-45v657h-280v43h988zM1208 74q86 41 131 112.5t45 160.5t-45 160t-131 112t-205 41t-205 -41
t-131 -112t-45 -160t45 -160.5t131 -112.5t205 -41t205 41z" />
    <glyph glyph-name="W_A_S" horiz-adv-x="2220" 
d="M1620 449.5q35 -28.5 87 -43.5t141 -33q103 -21 164.5 -40.5t104.5 -58t43 -103.5q0 -49 -31 -90t-96.5 -66t-163.5 -25q-166 0 -278 49t-169 172l-2 5h-411l-100 -216h-62l-246 647h-3l-243 -647h-67l-278 700h48l261 -657h5l247 657h59l248 -657h5l304 657h55l220 -475
q49 -107 149.5 -149.5t250.5 -42.5q86 0 142.5 19.5t82.5 51t26 67.5q0 48 -36 77.5t-89 45t-143 33.5q-102 21 -162 40t-102.5 56.5t-42.5 100.5q0 49 34.5 91t108 68.5t184.5 26.5q91 0 168.5 -20.5t116.5 -45.5v-48q-39 27 -115.5 49t-169.5 22q-97 0 -160 -20.5
t-91.5 -53t-28.5 -69.5q0 -46 35 -74.5zM1212 655l-183 -396h371l-183 396h-5z" />
    <glyph glyph-name="a_n" horiz-adv-x="1150" 
d="M109 32.5q-54 42.5 -54 109.5q0 70 64 112.5t205 42.5q130 0 177 25t47 71q0 26 -21 50t-67.5 39t-117.5 15q-73 0 -143.5 -20t-111.5 -45v47q36 23 106 41.5t151 18.5q107 0 166.5 -30.5t76.5 -83.5h5q31 44 95.5 79.5t143.5 35.5q110 0 172 -58.5t62 -156.5v-325h-45
v322q0 85 -51.5 132.5t-141.5 47.5q-77 0 -140 -43t-94 -96v-363h-45v91q-44 -39 -120 -70t-159 -31q-106 0 -160 42.5zM438.5 69.5q73.5 37.5 109.5 83.5v157q-3 -7 -21 -19t-68 -24t-138 -12q-119 0 -170 -30.5t-51 -81.5q0 -49 43 -80t130 -31q92 0 165.5 37.5z" />
    <glyph glyph-name="a_s" horiz-adv-x="1231" 
d="M109 32.5q-54 42.5 -54 109.5q0 70 64 112.5t205 42.5q130 0 177 25t47 71q0 27 -21 51t-67.5 39t-117.5 15q-73 0 -143.5 -20t-111.5 -45v47q36 23 106 41.5t151 18.5q126 0 187.5 -42.5t61.5 -107.5v-235q51 -47 147 -85t204 -38q98 0 145 26.5t47 66.5
q0 34 -26.5 55.5t-67 33t-108.5 25.5q-79 16 -128.5 31.5t-84 46.5t-34.5 82q0 61 61.5 101t190.5 40q73 0 136.5 -17t101.5 -39v-47q-38 24 -101.5 42.5t-135.5 18.5q-109 0 -158.5 -28.5t-49.5 -70.5q0 -35 27 -56.5t68 -33.5t109 -26q81 -17 129 -32.5t82 -45.5t34 -80
q0 -37 -26 -68t-79 -49t-132 -18q-110 0 -211 38.5t-159 86.5h-1q-44 -48 -127 -86.5t-177 -38.5q-106 0 -160 42.5zM438.5 69.5q73.5 37.5 109.5 83.5v157q-3 -7 -21 -19t-68 -24t-138 -12q-119 0 -170 -30.5t-51 -81.5q0 -49 43 -80t130 -31q92 0 165.5 37.5z" />
    <glyph glyph-name="o_f" horiz-adv-x="1056" 
d="M212.5 26.5q-73.5 36.5 -113 99t-39.5 139.5t39.5 139.5t113 99t172.5 36.5q68 0 121.5 -16t78.5 -36q9 16 35 29t62 13h177v54q0 71 36.5 108.5t99.5 37.5q42 0 81 -14v-45q-37 17 -78 17q-94 0 -94 -108v-50h159v-42h-159v-488h-45v488h-183q-21 0 -36 -7.5t-20 -17.5
q37 -31 63.5 -81.5t26.5 -116.5q0 -77 -39.5 -139.5t-113 -99t-172.5 -36.5t-172.5 36.5zM535 62.5q63 30.5 96.5 83.5t33.5 119t-33.5 119t-96.5 83.5t-150 30.5t-150 -30.5t-96.5 -83.5t-33.5 -119t33.5 -119t96.5 -83.5t150 -30.5t150 30.5z" />
    <glyph glyph-name="r_e" horiz-adv-x="1057" 
d="M90 0v530h45v-113h5q23 43 80.5 78t135.5 35h350q86 0 152 -34.5t102.5 -94.5t36.5 -133v-28h-534q6 -60 41 -107t95.5 -74t139.5 -27q69 0 128 19t89 43v-47q-30 -22 -89 -39.5t-128 -17.5q-97 0 -169.5 36t-111.5 98.5t-39 140.5q0 68 33 128t81 90v4h-187
q-54 0 -97.5 -22.5t-72 -56t-41.5 -68.5v-340h-45zM952 282q-1 59 -32.5 106.5t-85 74.5t-120.5 27q-112 0 -178.5 -55.5t-71.5 -152.5h488z" />
    <glyph glyph-name="a.alt" horiz-adv-x="745" 
d="M207 25.5q-68 35.5 -105 98t-37 141.5t36.5 141.5t104.5 98t157 35.5q77 0 143 -33t99 -74h5v97h45v-530h-45v97h-5q-33 -41 -98 -74t-141 -33q-91 0 -159 35.5zM472 52.5q48 20.5 83.5 51t54.5 62.5v198q-19 32 -55 62.5t-85 51t-104 20.5q-78 0 -136 -30t-89 -83
t-31 -120q0 -68 31.5 -120.5t90.5 -82.5t138 -30q54 0 102 20.5z" />
    <glyph glyph-name="aacute.alt" horiz-adv-x="745" 
d="M207 25.5q-68 35.5 -105 98t-37 141.5t36.5 141.5t104.5 98t157 35.5q77 0 143 -33t99 -74h5v97h45v-530h-45v97h-5q-33 -41 -98 -74t-141 -33q-91 0 -159 35.5zM472 52.5q48 20.5 83.5 51t54.5 62.5v198q-19 32 -55 62.5t-85 51t-104 20.5q-78 0 -136 -30t-89 -83
t-31 -120q0 -68 31.5 -120.5t90.5 -82.5t138 -30q54 0 102 20.5zM236 620h-3l-8 30l240 96h19l3 -54z" />
    <glyph glyph-name="abreve.alt" horiz-adv-x="745" 
d="M207 25.5q-68 35.5 -105 98t-37 141.5t36.5 141.5t104.5 98t157 35.5q77 0 143 -33t99 -74h5v97h45v-530h-45v97h-5q-33 -41 -98 -74t-141 -33q-91 0 -159 35.5zM472 52.5q48 20.5 83.5 51t54.5 62.5v198q-19 32 -55 62.5t-85 51t-104 20.5q-78 0 -136 -30t-89 -83
t-31 -120q0 -68 31.5 -120.5t90.5 -82.5t138 -30q54 0 102 20.5zM240.5 652q-41.5 34 -41.5 88h44q0 -36 30 -59t87 -23t87 23t30 59h44q0 -54 -41.5 -88t-119.5 -34t-119.5 34z" />
    <glyph glyph-name="acircumflex.alt" horiz-adv-x="745" 
d="M207 25.5q-68 35.5 -105 98t-37 141.5t36.5 141.5t104.5 98t157 35.5q77 0 143 -33t99 -74h5v97h45v-530h-45v97h-5q-33 -41 -98 -74t-141 -33q-91 0 -159 35.5zM472 52.5q48 20.5 83.5 51t54.5 62.5v198q-19 32 -55 62.5t-85 51t-104 20.5q-78 0 -136 -30t-89 -83
t-31 -120q0 -68 31.5 -120.5t90.5 -82.5t138 -30q54 0 102 20.5zM227 617h-60l163 133h60l163 -133h-60l-129 105h-8z" />
    </font>
</defs>
</svg>
