<?xml version="1.0" standalone="no"?>
<!DOCTYPE svg PUBLIC "-//W3C//DTD SVG 1.1//EN" "http://www.w3.org/Graphics/SVG/1.1/DTD/svg11.dtd" >
<svg xmlns="http://www.w3.org/2000/svg" xmlns:xlink="http://www.w3.org/1999/xlink" version="1.1">
<metadata>
Created by FontForge 20201107 at Mon Feb  6 14:54:41 2023
 By 
Copyright (c) 2020-2021 by TypeType. All rights reserved. Special version for DaFont.
</metadata>
<defs>
<font id="TTRunsTrial-ExtraBold" horiz-adv-x="785" >
  <font-face 
    font-family="TT Runs Trial ExtraBold"
    font-weight="800"
    font-stretch="normal"
    units-per-em="1000"
    panose-1="2 0 0 0 0 0 0 0 6 7"
    ascent="800"
    descent="-200"
    x-height="570"
    cap-height="700"
    bbox="-658 -340 2260 985"
    underline-thickness="90"
    underline-position="-185"
    unicode-range="U+000D-FB03"
  />
<missing-glyph horiz-adv-x="900" 
d="M100 0v284h45v-139h33v139h50v31h-128v126l19 -61h23l34 106l33 -106h23l54 170h-32l-34 -110l-35 110h-19l-35 -110l-31 103v157h700v-150h-110v-170h110v-91q-6 13 -19.5 20t-30.5 7q-27 0 -43.5 -14.5t-16.5 -34.5q0 -22 14.5 -32.5t39.5 -17.5q17 -5 25.5 -9.5
t8.5 -13.5q0 -21 -28 -21q-14 0 -21 7t-7 18h-33q0 -24 17 -39.5t44 -15.5q17 0 30.5 6.5t19.5 13.5v-163h-700zM311 380h33v62h24l35 -62h37l-40 67q36 17 36 50q0 22 -16 37.5t-41 15.5h-68v-170zM469 550v-170h33v170h-33zM580 519v-139h32v139h50v31h-132v-31h50z
M344 473v46h35q10 0 17 -6.5t7 -16.5q0 -12 -7.5 -17.5t-16.5 -5.5h-35zM800 483h-78v36h78v-36zM800 411h-78v41h78v-41zM387.5 167.5q22.5 24.5 22.5 61.5t-23 62t-59 25t-59 -25t-23 -62t22.5 -61.5t59.5 -24.5t59.5 24.5zM633 162q19 19 19 47v106h-32v-106
q0 -15 -9.5 -25t-25.5 -10q-17 0 -26.5 10.5t-9.5 24.5v106h-32v-106q0 -28 19.5 -47t48.5 -19t48 19zM800 224q-15 14 -46 22q-16 5 -23 9t-7 12q0 9 7.5 14.5t18.5 5.5q10 0 18 -7t8 -18h24v-38zM291.5 190q-14.5 16 -14.5 39q0 25 14 40.5t37 15.5q24 0 37.5 -15.5
t13.5 -40.5q0 -23 -14.5 -39t-36.5 -16t-36.5 16z" />
    <glyph glyph-name="ff" unicode="ff" horiz-adv-x="908" 
d="M105 0v393h-105v72h105v47q0 107 64 165t168 58q42 0 67.5 -3t67.5 -12v-169q-25 7 -41.5 9.5t-37.5 2.5q-73 0 -73 -71v-27h195v47q0 107 66 165t171 58q44 0 74.5 -4.5t76.5 -16.5v-167q-48 16 -91 16q-82 0 -82 -71v-27h153v-72h-153v-393h-215v393h-195v-393h-215z
" />
    <glyph glyph-name="fi" unicode="fi" horiz-adv-x="790" 
d="M105 0v393h-105v72h105v38q0 123 90 177.5t248 54.5q78 0 128 -5.5t159 -23.5v-165q-161 27 -248 27q-79 0 -120.5 -19.5t-41.5 -65.5v-18h410v-465h-215v393h-195v-393h-215z" />
    <glyph glyph-name="ffi" unicode="ffi" horiz-adv-x="1200" 
d="M105 0v393h-105v72h105v47q0 107 64 165t168 58q42 0 67.5 -3t67.5 -12v-169q-25 7 -41.5 9.5t-37.5 2.5q-73 0 -73 -71v-27h195v38q0 123 90 177.5t248 54.5q78 0 128 -5.5t159 -23.5v-165q-161 27 -248 27q-79 0 -120.5 -19.5t-41.5 -65.5v-18h410v-465h-215v393h-195
v-393h-215v393h-195v-393h-215z" />
    <glyph glyph-name="f_f_j" unicode="ffj" horiz-adv-x="1200" 
d="M780 -190v153q31 -9 63 -9q39 0 60.5 23t21.5 68v348h-195v-393h-215v393h-195v-393h-215v393h-105v72h105v47q0 107 64 165t168 58q42 0 67.5 -3t67.5 -12v-169q-25 7 -41.5 9.5t-37.5 2.5q-73 0 -73 -71v-27h195v38q0 123 90 177.5t248 54.5q78 0 128 -5.5t159 -23.5
v-165q-161 27 -248 27q-79 0 -120.5 -19.5t-41.5 -65.5v-18h410v-433q0 -110 -56 -173.5t-171 -63.5q-75 0 -133 15z" />
    <glyph glyph-name="f_j" unicode="fj" horiz-adv-x="790" 
d="M370 -190v153q31 -9 63 -9q39 0 60.5 23t21.5 68v348h-195v-393h-215v393h-105v72h105v38q0 123 90 177.5t248 54.5q78 0 128 -5.5t159 -23.5v-165q-161 27 -248 27q-79 0 -120.5 -19.5t-41.5 -65.5v-18h410v-433q0 -110 -56 -173.5t-171 -63.5q-75 0 -133 15z" />
    <glyph glyph-name="f_t" unicode="ft" horiz-adv-x="938" 
d="M581 47.5q-66 62.5 -66 181.5v164h-195v-393h-215v393h-105v72h105v47q0 107 63 165t164 58q43 0 64.5 -3t58.5 -13v-168q-22 7 -34.5 9.5t-30.5 2.5q-70 0 -70 -71v-27h148q26 0 36.5 11.5t10.5 41.5v190h215v-243h173v-72h-173v-149q0 -42 24 -64.5t67 -22.5
q42 0 82 12v-167q-40 -10 -68.5 -13.5t-68.5 -3.5q-119 0 -185 62.5z" />
    <glyph glyph-name=".notdef" horiz-adv-x="900" 
d="M100 0v284h45v-139h33v139h50v31h-128v126l19 -61h23l34 106l33 -106h23l54 170h-32l-34 -110l-35 110h-19l-35 -110l-31 103v157h700v-150h-110v-170h110v-91q-6 13 -19.5 20t-30.5 7q-27 0 -43.5 -14.5t-16.5 -34.5q0 -22 14.5 -32.5t39.5 -17.5q17 -5 25.5 -9.5
t8.5 -13.5q0 -21 -28 -21q-14 0 -21 7t-7 18h-33q0 -24 17 -39.5t44 -15.5q17 0 30.5 6.5t19.5 13.5v-163h-700zM311 380h33v62h24l35 -62h37l-40 67q36 17 36 50q0 22 -16 37.5t-41 15.5h-68v-170zM469 550v-170h33v170h-33zM580 519v-139h32v139h50v31h-132v-31h50z
M344 473v46h35q10 0 17 -6.5t7 -16.5q0 -12 -7.5 -17.5t-16.5 -5.5h-35zM800 483h-78v36h78v-36zM800 411h-78v41h78v-41zM387.5 167.5q22.5 24.5 22.5 61.5t-23 62t-59 25t-59 -25t-23 -62t22.5 -61.5t59.5 -24.5t59.5 24.5zM633 162q19 19 19 47v106h-32v-106
q0 -15 -9.5 -25t-25.5 -10q-17 0 -26.5 10.5t-9.5 24.5v106h-32v-106q0 -28 19.5 -47t48.5 -19t48 19zM800 224q-15 14 -46 22q-16 5 -23 9t-7 12q0 9 7.5 14.5t18.5 5.5q10 0 18 -7t8 -18h24v-38zM291.5 190q-14.5 16 -14.5 39q0 25 14 40.5t37 15.5q24 0 37.5 -15.5
t13.5 -40.5q0 -23 -14.5 -39t-36.5 -16t-36.5 16z" />
    <glyph glyph-name=".null" horiz-adv-x="0" 
 />
    <glyph glyph-name="nonmarkingreturn" unicode="&#xd;" horiz-adv-x="0" 
 />
    <glyph glyph-name="space" unicode=" " horiz-adv-x="290" 
 />
    <glyph glyph-name="exclam" unicode="!" horiz-adv-x="344" 
d="M239 238h-134l-40 187v295h214v-295zM95.5 6.5q-28.5 26.5 -28.5 67.5t28.5 67.5t76.5 26.5t76.5 -26.5t28.5 -67.5t-28.5 -67.5t-76.5 -26.5t-76.5 26.5z" />
    <glyph glyph-name="quotedbl" unicode="&#x22;" horiz-adv-x="530" 
d="M222 408h-162v312h162v-312zM470 408h-162v312h162v-312z" />
    <glyph glyph-name="numbersign" unicode="#" horiz-adv-x="840" 
d="M815 530v-105h-121l-33 -145h106v-105h-130l-40 -175h-191l40 175h-138l-40 -175h-191l40 175h-92v105h116l33 145h-102v105h126l39 170h191l-39 -170h138l39 170h191l-39 -170h97zM332 280h138l33 145h-138z" />
    <glyph glyph-name="dollar" unicode="$" horiz-adv-x="815" 
d="M697 53.5q-63 -55.5 -190 -69.5v-104h-200v108q-67 10 -122 27t-84 35v197q53 -32 145 -58t186 -26q53 0 78 16t25 41q0 23 -22 37.5t-55.5 22t-95.5 18.5q-95 16 -156.5 34t-106 59t-44.5 112q0 81 63.5 138.5t193.5 73.5v105h200v-107q73 -9 132.5 -28t92.5 -40v-205
q-50 37 -144.5 67t-202.5 30q-58 0 -84 -16t-26 -41q0 -32 40 -46.5t127 -28.5q97 -17 159.5 -35.5t108 -61.5t45.5 -118q0 -81 -63 -136.5z" />
    <glyph glyph-name="percent" unicode="%" horiz-adv-x="1018" 
d="M129 379.5q-45 23.5 -69.5 65t-24.5 93.5t24.5 93.5t69.5 65t104 23.5t104 -23.5t69.5 -65t24.5 -93.5t-24.5 -93.5t-69.5 -65t-104 -23.5t-104 23.5zM404 0h-185l395 700h185zM278.5 487.5q17.5 18.5 17.5 50.5t-17.5 50.5t-45.5 18.5t-45.5 -18.5t-17.5 -50.5
t17.5 -50.5t45.5 -18.5t45.5 18.5zM681 3.5q-45 23.5 -69.5 65t-24.5 93.5t24.5 93.5t69.5 65t104 23.5t104 -23.5t69.5 -65t24.5 -93.5t-24.5 -93.5t-69.5 -65t-104 -23.5t-104 23.5zM830.5 111.5q17.5 18.5 17.5 50.5t-17.5 50.5t-45.5 18.5t-45.5 -18.5t-17.5 -50.5
t17.5 -50.5t45.5 -18.5t45.5 18.5z" />
    <glyph glyph-name="ampersand" unicode="&#x26;" horiz-adv-x="835" 
d="M855 0h-273l-70 61q-39 -31 -103.5 -56t-151.5 -25q-112 0 -169.5 47t-57.5 133q0 67 41.5 116t107.5 77q-49 47 -73 88.5t-24 91.5q0 86 66 136.5t202 50.5q77 0 149.5 -19.5t113.5 -43.5v-185q-43 31 -108.5 55.5t-127.5 24.5q-72 0 -72 -42q0 -20 20 -43.5t75 -70.5
l121 -106q46 47 65 78h200q-16 -32 -54 -83t-87 -102zM369 186l-116 101q-30 -15 -49 -37t-19 -47q0 -55 68 -55q65 0 116 38z" />
    <glyph glyph-name="quotesingle" unicode="'" horiz-adv-x="282" 
d="M222 408h-162v312h162v-312z" />
    <glyph glyph-name="parenleft" unicode="(" horiz-adv-x="405" 
d="M305 -190q-119 0 -174.5 54.5t-55.5 170.5v520q0 116 55.5 170.5t174.5 54.5h80v-172h-50q-70 0 -70 -73v-480q0 -73 70 -73h50v-172h-80z" />
    <glyph glyph-name="parenright" unicode=")" horiz-adv-x="405" 
d="M20 -190v172h50q70 0 70 73v480q0 73 -70 73h-50v172h80q119 0 174.5 -54.5t55.5 -170.5v-520q0 -116 -55.5 -170.5t-174.5 -54.5h-80z" />
    <glyph glyph-name="asterisk" unicode="*" horiz-adv-x="429" 
d="M215 491l-66 -85l-93 76l69 76l-110 42l41 102l97 -33v96h123v-96l97 33l41 -102l-110 -42l69 -76l-93 -76z" />
    <glyph glyph-name="plus" unicode="+" horiz-adv-x="650" 
d="M400 40h-150v190h-195v150h195v190h150v-190h195v-150h-195v-190z" />
    <glyph glyph-name="comma" unicode="," horiz-adv-x="260" 
d="M30 -185v119h43q56 0 83 22t27 61h-5q-7 -12 -24.5 -22t-41.5 -10q-39 0 -63 24.5t-24 65.5q0 40 27.5 66.5t71.5 26.5q51 0 81 -35.5t30 -114.5q0 -100 -46.5 -151.5t-130.5 -51.5h-28z" />
    <glyph glyph-name="hyphen" unicode="-" horiz-adv-x="530" 
d="M480 237h-430v153h430v-153z" />
    <glyph glyph-name="period" unicode="." horiz-adv-x="260" 
d="M53.5 6.5q-28.5 26.5 -28.5 67.5t28.5 67.5t76.5 26.5t76.5 -26.5t28.5 -67.5t-28.5 -67.5t-76.5 -26.5t-76.5 26.5z" />
    <glyph glyph-name="slash" unicode="/" horiz-adv-x="555" 
d="M195 -70h-195l360 840h195z" />
    <glyph glyph-name="zero" unicode="0" horiz-adv-x="994" 
d="M263.5 28.5q-98.5 48.5 -151 132.5t-52.5 189t52.5 189t151 132.5t233.5 48.5t233.5 -48.5t151 -132.5t52.5 -189t-52.5 -189t-151 -132.5t-233.5 -48.5t-233.5 48.5zM607.5 174q48.5 26 75 72t26.5 104t-26.5 104t-75 72t-110.5 26t-110.5 -26t-75 -72t-26.5 -104
t26.5 -104t75 -72t110.5 -26t110.5 26z" />
    <glyph glyph-name="one" unicode="1" horiz-adv-x="702" 
d="M50 0v163h220v307h-215v163h165q60 0 60 60v7h215v-537h182v-163h-627z" />
    <glyph glyph-name="two" unicode="2" horiz-adv-x="780" 
d="M65 0v155l192 106q93 51 143.5 88t70 65.5t19.5 55.5q0 35 -31 58.5t-89 23.5q-83 0 -169.5 -37.5t-145.5 -84.5v192q57 39 142 68.5t198 29.5q106 0 177.5 -29.5t107 -80t35.5 -112.5q0 -73 -51.5 -139.5t-189.5 -141.5l-59 -32v-5h300v-180h-650z" />
    <glyph glyph-name="three" unicode="3" horiz-adv-x="780" 
d="M181 2.5q-85 22.5 -126 50.5v185q44 -34 125.5 -62t172.5 -28q76 0 114 25t38 62t-38 62t-114 25q-51 0 -101.5 -9.5t-81.5 -20.5v98l185 126v9h-295v175h640v-120l-238 -151v-9q80 0 141 -26.5t94 -72t33 -101.5q0 -68 -39 -122t-120 -86t-203 -32q-102 0 -187 22.5z
" />
    <glyph glyph-name="four" unicode="4" horiz-adv-x="798" 
d="M673 0h-220v138h-438v153l346 409h257l-330 -388v-9h165v135h220v-135h120v-165h-120v-138z" />
    <glyph glyph-name="five" unicode="5" horiz-adv-x="770" 
d="M187.5 0q-86.5 20 -127.5 45v186q43 -32 120.5 -57.5t161.5 -25.5q85 0 124 25.5t39 65.5t-35.5 65.5t-107.5 25.5q-45 0 -80.5 -11.5t-51.5 -25.5h-153l27 407h577v-180h-402l-8 -120h5q16 12 56 21t95 9q98 0 166.5 -29t102.5 -78t34 -110q0 -64 -38.5 -117t-117 -84.5
t-193.5 -31.5q-107 0 -193.5 20z" />
    <glyph glyph-name="six" unicode="6" 
d="M187 11q-83 31 -122.5 82t-39.5 112q0 56 22 104.5t77 110.5l247 280h248l-236 -267v-5h22q124 0 204.5 -29.5t118 -80t37.5 -113.5q0 -61 -39.5 -112t-122.5 -82t-208 -31t-208 31zM503 150q37 25 37 59t-37 59t-108 25t-108 -25t-37 -59t37 -59t108 -25t108 25z" />
    <glyph glyph-name="seven" unicode="7" horiz-adv-x="708" 
d="M355 0h-240l308 512v8h-408v180h673v-146z" />
    <glyph glyph-name="eight" unicode="8" horiz-adv-x="880" 
d="M227.5 8q-82.5 28 -120 73.5t-37.5 101.5q0 62 45.5 104.5t112.5 47.5v9q-80 6 -129 52t-49 114q0 92 93 151t297 59t297 -59t93 -151q0 -68 -49 -114t-129 -52v-9q67 -5 112.5 -47.5t45.5 -104.5q0 -56 -37.5 -101.5t-120 -73.5t-212.5 -28t-212.5 28zM566 416.5
q39 23.5 39 60.5q0 38 -39 61.5t-126 23.5t-126 -23.5t-39 -61.5q0 -37 39 -60.5t126 -23.5t126 23.5zM550.5 159q34.5 21 34.5 52t-34.5 51.5t-110.5 20.5t-110.5 -20.5t-34.5 -51.5t34.5 -52t110.5 -21t110.5 21z" />
    <glyph glyph-name="nine" unicode="9" horiz-adv-x="827" 
d="M182 0l243 248v5h-25q-194 0 -284.5 63.5t-90.5 168.5q0 66 40.5 119t127 84.5t218.5 31.5q133 0 219 -32t126.5 -86.5t40.5 -123.5q0 -55 -25 -107t-90 -118l-248 -253h-252zM531.5 420q40.5 27 40.5 65q0 40 -40.5 67.5t-120.5 27.5t-120.5 -27.5t-40.5 -67.5
q0 -38 40.5 -65t120.5 -27t120.5 27z" />
    <glyph glyph-name="colon" unicode=":" horiz-adv-x="280" 
d="M63.5 6.5q-28.5 26.5 -28.5 67.5t28.5 67.5t76.5 26.5t76.5 -26.5t28.5 -67.5t-28.5 -67.5t-76.5 -26.5t-76.5 26.5zM63.5 423.5q-28.5 26.5 -28.5 67.5t28.5 67.5t76.5 26.5t76.5 -26.5t28.5 -67.5t-28.5 -67.5t-76.5 -26.5t-76.5 26.5z" />
    <glyph glyph-name="semicolon" unicode=";" horiz-adv-x="284" 
d="M63.5 423.5q-28.5 26.5 -28.5 67.5t28.5 67.5t76.5 26.5t76.5 -26.5t28.5 -67.5t-28.5 -67.5t-76.5 -26.5t-76.5 26.5zM44 -185v119h43q56 0 83 22t27 61h-5q-7 -12 -24.5 -22t-41.5 -10q-39 0 -63 24.5t-24 65.5q0 40 27.5 66.5t71.5 26.5q51 0 81 -35.5t30 -114.5
q0 -100 -46.5 -151.5t-130.5 -51.5h-28z" />
    <glyph glyph-name="less" unicode="&#x3c;" horiz-adv-x="650" 
d="M595 202v-156l-555 187v146l555 187v-156l-293 -99v-10z" />
    <glyph glyph-name="equal" unicode="=" horiz-adv-x="650" 
d="M585 363h-520v105h520v-105zM585 143h-520v105h520v-105z" />
    <glyph glyph-name="greater" unicode="&#x3e;" horiz-adv-x="650" 
d="M610 233l-555 -187v156l293 99v10l-293 99v156l555 -187v-146z" />
    <glyph glyph-name="question" unicode="?" horiz-adv-x="740" 
d="M275 239l-37 151q96 5 174 31.5t78 70.5q0 26 -28.5 43t-91.5 17q-95 0 -185.5 -27.5t-144.5 -61.5v198q53 28 146.5 51t200.5 23q112 0 185.5 -26.5t108 -69.5t34.5 -94q0 -60 -43.5 -104.5t-108.5 -69.5t-132 -32v-100h-156zM279.5 7.5q-28.5 26.5 -28.5 67.5
t28.5 67.5t76.5 26.5t76.5 -26.5t28.5 -67.5t-28.5 -67.5t-76.5 -26.5t-76.5 26.5z" />
    <glyph glyph-name="at" unicode="@" horiz-adv-x="1035" 
d="M272 -81q-105 49 -158.5 135t-53.5 196q0 106 54.5 192.5t158 137t243.5 50.5q146 0 251 -49t159 -133.5t54 -187.5q0 -94 -47 -145.5t-126 -51.5q-59 0 -97.5 24t-49.5 53h-9q-17 -29 -62 -53t-107 -24t-108.5 24t-71.5 66.5t-25 96.5t24.5 97t69 67t101.5 24
q44 0 78.5 -14.5t49.5 -32.5h4v34h158v-195q0 -74 53 -74q25 0 38.5 22t13.5 75q0 136 -92 210t-259 74q-109 0 -186.5 -36.5t-117 -101.5t-39.5 -149t40 -149t117.5 -101.5t186.5 -36.5q75 0 138 14t95 31v-99q-30 -15 -91 -27t-134 -12q-148 0 -253 49zM571 187.5
q22 11.5 33 24.5v77q-11 13 -33 24.5t-48 11.5q-37 0 -57.5 -20t-20.5 -55q0 -34 21 -54t57 -20q26 0 48 11.5z" />
    <glyph glyph-name="A" unicode="A" horiz-adv-x="949" 
d="M949 0h-240l-66 143h-337l-66 -143h-240l334 700h281zM470 500l-114 -247h237l-114 247h-9z" />
    <glyph glyph-name="B" unicode="B" horiz-adv-x="890" 
d="M617 345q96 0 147 -43t51 -114q0 -86 -67.5 -137t-205.5 -51h-462v700h462q150 0 221.5 -50t71.5 -130q0 -75 -55.5 -120.5t-162.5 -45.5v-9zM515 403q48 0 71.5 18t23.5 49q0 29 -23.5 47t-71.5 18h-220v-132h220zM495 165q49 0 72 17.5t23 46.5t-23 46.5t-72 17.5h-200
v-128h200z" />
    <glyph glyph-name="C" unicode="C" horiz-adv-x="915" 
d="M272 28.5q-104 48.5 -158 132.5t-54 189t55 189t163 132.5t262 48.5q104 0 189.5 -22t125.5 -49v-186q-41 32 -122 58t-178 26q-87 0 -148 -26t-91.5 -71t-30.5 -100t30 -100t88 -71t139 -26q91 0 167.5 23.5t115.5 51.5v-185q-41 -24 -123.5 -43.5t-181.5 -19.5
q-144 0 -248 48.5z" />
    <glyph glyph-name="D" unicode="D" horiz-adv-x="982" 
d="M80 0v700h377q153 0 257.5 -44.5t156 -123.5t51.5 -182t-51.5 -182t-156 -123.5t-257.5 -44.5h-377zM455 175q127 0 184.5 45t57.5 130t-57.5 130t-184.5 45h-160v-350h160z" />
    <glyph glyph-name="E" unicode="E" horiz-adv-x="767" 
d="M295 295v-130h422v-165h-637v700h617v-165h-402v-130h362v-110h-362z" />
    <glyph glyph-name="F" unicode="F" horiz-adv-x="737" 
d="M697 700v-180h-402v-150h357v-110h-357v-260h-215v700h617z" />
    <glyph glyph-name="G" unicode="G" horiz-adv-x="988" 
d="M280.5 28.5q-109.5 48.5 -165 132t-55.5 189.5t56 189.5t167.5 132t273.5 48.5q120 0 217.5 -20.5t153.5 -47.5v-178q-53 30 -147 54t-204 24q-145 0 -218.5 -56t-73.5 -146q0 -58 31 -103.5t95 -72t159 -26.5q68 0 125.5 13t87.5 29v52h-278v130h418v-299
q-51 -35 -153.5 -64t-222.5 -29q-157 0 -266.5 48.5z" />
    <glyph glyph-name="H" unicode="H" horiz-adv-x="955" 
d="M660 440v260h215v-700h-215v260h-365v-260h-215v700h215v-260h365z" />
    <glyph glyph-name="I" unicode="I" horiz-adv-x="793" 
d="M753 700v-165h-249v-370h249v-165h-713v165h249v370h-249v165h713z" />
    <glyph glyph-name="J" unicode="J" horiz-adv-x="655" 
d="M15 18v179q60 -19 99.5 -25.5t80.5 -6.5q165 0 165 154v381h215v-388q0 -161 -88.5 -244t-250.5 -83q-106 0 -221 33z" />
    <glyph glyph-name="K" unicode="K" horiz-adv-x="887" 
d="M295 0h-215v700h215v-295h5l332 295h275l-377 -335v-5l347 -360h-270l-307 318h-5v-318z" />
    <glyph glyph-name="L" unicode="L" horiz-adv-x="765" 
d="M755 0h-675v700h215v-520h460v-180z" />
    <glyph glyph-name="M" unicode="M" horiz-adv-x="1205" 
d="M905 489l-302 -524l-303 524h-5v-489h-215v700h312l212 -385h5l210 385h306v-700h-215v489h-5z" />
    <glyph glyph-name="N" unicode="N" horiz-adv-x="967" 
d="M287 0h-207v700h344l247 -499h9v499h207v-700h-344l-247 499h-9v-499z" />
    <glyph glyph-name="O" unicode="O" horiz-adv-x="1110" 
d="M282.5 28.5q-111.5 48.5 -167 132t-55.5 189.5t55.5 189.5t167 132t272.5 48.5t272.5 -48.5t167 -132t55.5 -189.5t-55.5 -189.5t-167 -132t-272.5 -48.5t-272.5 48.5zM703.5 174.5q60.5 26.5 91 72t30.5 103.5t-30.5 103.5t-91 72t-148.5 26.5t-148.5 -26.5t-91 -72
t-30.5 -103.5t30.5 -103.5t91 -72t148.5 -26.5t148.5 26.5z" />
    <glyph glyph-name="P" unicode="P" horiz-adv-x="882" 
d="M512 700q160 0 242.5 -68.5t82.5 -183.5t-82.5 -184t-242.5 -69h-217v-195h-215v700h432zM500 360q56 0 84 23.5t28 64.5q0 40 -28 63.5t-84 23.5h-205v-175h205z" />
    <glyph glyph-name="Q" unicode="Q" horiz-adv-x="1110" 
d="M1002.5 173q-47.5 -79 -139.5 -128l77 -115h-205l-41 61q-66 -11 -139 -11q-161 0 -272.5 48.5t-167 132t-55.5 189.5t55.5 189.5t167 132t272.5 48.5t272.5 -48.5t167 -132t55.5 -189.5q0 -98 -47.5 -177zM700 290l56 -85q34 27 51.5 64.5t17.5 80.5q0 58 -30.5 103.5
t-91 72t-148.5 26.5t-148.5 -26.5t-91 -72t-30.5 -103.5t30.5 -103.5t91 -72t148.5 -26.5q23 0 34 1l-94 141h205z" />
    <glyph glyph-name="R" unicode="R" horiz-adv-x="902" 
d="M630 291q90 0 136 -41t46 -115v-135h-215v148q0 72 -92 72h-210v-220h-215v700h460q101 0 168.5 -28t100.5 -76.5t33 -110.5q0 -84 -56 -134.5t-156 -50.5v-9zM497 350q120 0 120 90q0 95 -120 95h-202v-185h202z" />
    <glyph glyph-name="S" unicode="S" horiz-adv-x="815" 
d="M235 1.5q-90 21.5 -134 48.5v197q53 -32 145 -58t186 -26q53 0 78 16t25 41q0 23 -22 37.5t-55.5 22t-95.5 18.5q-95 16 -156.5 34t-106 59t-44.5 112q0 61 36.5 110t115.5 78t200 29q106 0 195 -23t135 -52v-205q-50 37 -144.5 67t-202.5 30q-58 0 -84 -16t-26 -41
q0 -32 40 -46.5t127 -28.5q97 -17 159.5 -35.5t108 -61.5t45.5 -118q0 -60 -35 -107t-109 -75t-186 -28q-105 0 -195 21.5z" />
    <glyph glyph-name="T" unicode="T" horiz-adv-x="805" 
d="M15 700h775v-180h-280v-520h-215v520h-280v180z" />
    <glyph glyph-name="U" unicode="U" horiz-adv-x="936" 
d="M75 308v392h215v-377q0 -81 43.5 -122t134.5 -41t134.5 41t43.5 122v377h215v-392q0 -328 -393 -328t-393 328z" />
    <glyph glyph-name="V" unicode="V" horiz-adv-x="917" 
d="M619 0h-321l-308 700h238l226 -532h9l226 532h238z" />
    <glyph glyph-name="W" unicode="W" horiz-adv-x="1324" 
d="M525 0h-317l-198 700h227l147 -528h9l159 528h220l159 -528h9l147 528h227l-198 -700h-316l-133 472h-10z" />
    <glyph glyph-name="X" unicode="X" horiz-adv-x="844" 
d="M249 0h-259l302 360l-295 340h259l164 -201h5l163 201h259l-295 -340l302 -360h-259l-171 210h-5z" />
    <glyph glyph-name="Y" unicode="Y" horiz-adv-x="895" 
d="M555 0h-215v148l-360 552h239l224 -347h9l224 347h239l-360 -552v-148z" />
    <glyph glyph-name="Z" unicode="Z" horiz-adv-x="862" 
d="M802 0h-732v209l435 272v9h-433v210h710v-209l-435 -272v-9h455v-210z" />
    <glyph glyph-name="bracketleft" unicode="[" horiz-adv-x="405" 
d="M385 -190h-310v970h310v-172h-120v-626h120v-172z" />
    <glyph glyph-name="backslash" unicode="\" horiz-adv-x="555" 
d="M555 -70h-195l-360 840h195z" />
    <glyph glyph-name="bracketright" unicode="]" horiz-adv-x="405" 
d="M330 -190h-310v172h120v626h-120v172h310v-970z" />
    <glyph glyph-name="asciicircum" unicode="^" horiz-adv-x="613" 
d="M212 450h-192l163 250h247l163 -250h-192l-90 138h-9z" />
    <glyph glyph-name="underscore" unicode="_" horiz-adv-x="643" 
d="M663 -243h-683v143h683v-143z" />
    <glyph glyph-name="grave" unicode="`" horiz-adv-x="408" 
d="M353 563l-323 50l10 140h55l283 -135l-10 -55h-15z" />
    <glyph glyph-name="a" unicode="a" horiz-adv-x="772" 
d="M87.5 27.5q-52.5 42.5 -52.5 112.5q0 82 68 126.5t224 49.5q75 2 112.5 8t50 15t12.5 24q0 24 -31 38t-111 14q-82 0 -159.5 -19t-123.5 -42v171q43 23 125.5 41.5t177.5 18.5q175 0 256 -60t81 -165v-360h-215v78h-8q-34 -36 -102 -64.5t-150 -28.5q-102 0 -154.5 42.5z
M437 144q43 16 65 36v91q-11 -9 -44.5 -17t-82.5 -10q-115 -5 -115 -62q0 -25 20 -39.5t62 -14.5q52 0 95 16z" />
    <glyph glyph-name="b" unicode="b" horiz-adv-x="827" 
d="M371.5 12.5q-60.5 27.5 -88.5 61.5h-8v-74h-215v720h215v-224h8q28 34 88.5 61.5t135.5 27.5q83 0 146.5 -36t98.5 -104t35 -160t-35 -160t-98.5 -104t-146.5 -36q-75 0 -135.5 27.5zM523 181q39 38 39 104t-39 104t-108 38q-45 0 -83.5 -17.5t-56.5 -39.5v-170
q18 -22 56.5 -39.5t83.5 -17.5q69 0 108 38z" />
    <glyph glyph-name="c" unicode="c" horiz-adv-x="725" 
d="M211 23.5q-85 38.5 -128 106.5t-43 155q0 88 43.5 155.5t131 106t212.5 38.5q77 0 146.5 -18.5t111.5 -42.5v-158q-39 26 -101 45t-129 19q-92 0 -141 -40t-49 -105t47 -105t133 -40q64 0 122.5 17t97.5 41v-155q-41 -23 -108.5 -40.5t-139.5 -17.5q-121 0 -206 38.5z
" />
    <glyph glyph-name="d" unicode="d" horiz-adv-x="827" 
d="M173.5 21q-63.5 36 -98.5 104t-35 160t35 160t98.5 104t146.5 36q75 0 135.5 -27.5t88.5 -61.5h8v224h215v-720h-215v74h-8q-28 -34 -88.5 -61.5t-135.5 -27.5q-83 0 -146.5 36zM495.5 160.5q38.5 17.5 56.5 39.5v170q-18 22 -56.5 39.5t-83.5 17.5q-69 0 -108 -38
t-39 -104t39 -104t108 -38q45 0 83.5 17.5z" />
    <glyph glyph-name="e" unicode="e" 
d="M215 24q-88 39 -131.5 107t-43.5 154q0 88 41.5 156t122 106t193.5 38q108 0 186.5 -38.5t120 -107t41.5 -154.5v-17h-481q9 -53 60 -83t148 -30q61 0 121 17.5t92 38.5v-171q-33 -21 -103.5 -38t-151.5 -17q-127 0 -215 39zM524 340q-6 50 -38.5 80t-88.5 30
q-57 0 -92 -30t-41 -80h260z" />
    <glyph glyph-name="f" unicode="f" horiz-adv-x="498" 
d="M105 0v393h-105v72h105v47q0 107 66 165t171 58q44 0 74.5 -4.5t76.5 -16.5v-167q-48 16 -91 16q-82 0 -82 -71v-27h153v-72h-153v-393h-215z" />
    <glyph glyph-name="g" unicode="g" horiz-adv-x="825" 
d="M213.5 -189q-78.5 16 -121.5 36v177q40 -22 108 -40.5t140 -18.5q104 0 157 43.5t53 116.5v16h-9q-26 -35 -84.5 -62.5t-134.5 -27.5q-86 0 -149.5 33.5t-98 94t-34.5 139.5t34.5 139.5t98 94t149.5 33.5q76 0 134.5 -27.5t84.5 -62.5h9v75h215v-445q0 -156 -97.5 -243
t-287.5 -87q-88 0 -166.5 16zM491 219.5q40 18.5 59 41.5v114q-19 23 -59 41.5t-89 18.5q-68 0 -102.5 -30.5t-34.5 -86.5t34.5 -86.5t102.5 -30.5q49 0 89 18.5z" />
    <glyph glyph-name="h" unicode="h" 
d="M60 0v720h215v-235h8q25 38 84 69t138 31q107 0 166 -57t59 -160v-368h-215v320q0 53 -28.5 81.5t-81.5 28.5q-45 0 -79.5 -22t-50.5 -49v-359h-215z" />
    <glyph glyph-name="i" unicode="i" horiz-adv-x="335" 
d="M70.5 626q-35.5 31 -35.5 78t35.5 78t96.5 31q62 0 97.5 -31t35.5 -78t-35.5 -78t-97.5 -31q-61 0 -96.5 31zM60 0v570h9q16 -10 41.5 -16.5t56.5 -6.5t57 6.5t42 16.5h9v-570h-215z" />
    <glyph glyph-name="j" unicode="j" horiz-adv-x="335" 
d="M70.5 626q-35.5 31 -35.5 78t35.5 78t96.5 31q62 0 97.5 -31t35.5 -78t-35.5 -78t-97.5 -31q-61 0 -96.5 31zM-21.5 -201q-32.5 4 -73.5 14v153q41 -12 74 -12q39 0 60 23t21 68v525h9q13 -9 39.5 -16t58.5 -7t59 7t40 16h9v-538q0 -110 -55.5 -173.5t-170.5 -63.5
q-38 0 -70.5 4z" />
    <glyph glyph-name="k" unicode="k" horiz-adv-x="775" 
d="M275 0h-215v720h215v-378h3l239 228h268l-293 -269l292 -301h-266l-240 260h-3v-260z" />
    <glyph glyph-name="l" unicode="l" horiz-adv-x="335" 
d="M275 0h-215v720h215v-720z" />
    <glyph glyph-name="m" unicode="m" horiz-adv-x="1160" 
d="M60 0v570h215v-77h8q21 35 70.5 63.5t113.5 28.5q69 0 117 -27t73 -66h8q25 35 80.5 64t126.5 29q110 0 171.5 -58.5t61.5 -158.5v-368h-215v331q0 47 -25 73t-70 26q-38 0 -66.5 -18t-40.5 -40q2 -6 2 -13v-359h-215v331q0 47 -25 73t-68 26q-39 0 -68 -20t-39 -44v-366
h-215z" />
    <glyph glyph-name="n" unicode="n" 
d="M60 0v570h215v-85h8q25 38 84 69t138 31q107 0 166 -57t59 -160v-368h-215v320q0 53 -28.5 81.5t-81.5 28.5q-45 0 -79.5 -22t-50.5 -49v-359h-215z" />
    <glyph glyph-name="o" unicode="o" horiz-adv-x="850" 
d="M214 23.5q-87 38.5 -130.5 106.5t-43.5 155t43.5 155t130.5 106.5t211 38.5t211 -38.5t130.5 -106.5t43.5 -155t-43.5 -155t-130.5 -106.5t-211 -38.5t-211 38.5zM542.5 175.5q42.5 40.5 42.5 109.5t-42.5 109.5t-117.5 40.5t-117.5 -40.5t-42.5 -109.5t42.5 -109.5
t117.5 -40.5t117.5 40.5z" />
    <glyph glyph-name="p" unicode="p" horiz-adv-x="827" 
d="M60 -190v760h215v-74h8q28 34 88.5 61.5t135.5 27.5q83 0 146.5 -36t98.5 -104t35 -160t-35 -160t-98.5 -104t-146.5 -36q-75 0 -135.5 27.5t-88.5 61.5h-8v-264h-215zM523 181q39 38 39 104t-39 104t-108 38q-45 0 -83.5 -17.5t-56.5 -39.5v-170q18 -22 56.5 -39.5
t83.5 -17.5q69 0 108 38z" />
    <glyph glyph-name="q" unicode="q" horiz-adv-x="827" 
d="M552 -190v264h-8q-28 -34 -88.5 -61.5t-135.5 -27.5q-83 0 -146.5 36t-98.5 104t-35 160t35 160t98.5 104t146.5 36q75 0 135.5 -27.5t88.5 -61.5h8v74h215v-760h-215zM495.5 160.5q38.5 17.5 56.5 39.5v170q-18 22 -56.5 39.5t-83.5 17.5q-69 0 -108 -38t-39 -104
t39 -104t108 -38q45 0 83.5 17.5z" />
    <glyph glyph-name="r" unicode="r" horiz-adv-x="547" 
d="M60 0v570h215v-90h8q24 40 74 72.5t110 32.5h55v-207h-55q-80 0 -130 -23.5t-62 -52.5v-302h-215z" />
    <glyph glyph-name="s" unicode="s" horiz-adv-x="680" 
d="M190 5.5q-79 20.5 -118 47.5v172q48 -27 123 -48.5t145 -21.5q43 0 61.5 11t18.5 29q0 23 -32 33.5t-100 19.5q-78 10 -130 24t-90 47.5t-38 93.5q0 77 73.5 124.5t233.5 47.5q94 0 175 -21t123 -47v-177q-54 29 -137.5 52t-160.5 23q-82 0 -82 -41q0 -24 31 -33.5
t100 -19.5q81 -12 132 -26t89 -48.5t38 -96.5q0 -45 -29.5 -82.5t-93 -60t-160.5 -22.5q-93 0 -172 20.5z" />
    <glyph glyph-name="t" unicode="t" horiz-adv-x="513" 
d="M156 47.5q-66 62.5 -66 181.5v269h-90v72h43q26 0 36.5 11.5t10.5 41.5v85h215v-138h173v-72h-173v-254q0 -42 24 -64.5t67 -22.5q42 0 82 12v-167q-40 -10 -68.5 -13.5t-68.5 -3.5q-119 0 -185 62.5z" />
    <glyph glyph-name="u" unicode="u" 
d="M114 42.5q-59 57.5 -59 160.5v367h215v-320q0 -52 29 -81t81 -29q44 0 79 22.5t51 49.5v358h215v-570h-215v86h-9q-25 -38 -83.5 -69.5t-135.5 -31.5q-109 0 -168 57.5z" />
    <glyph glyph-name="v" unicode="v" horiz-adv-x="738" 
d="M503 0h-268l-240 570h218l154 -379h5l155 379h216z" />
    <glyph glyph-name="w" unicode="w" horiz-adv-x="1083" 
d="M434 0h-261l-168 570h212l107 -378h5l118 378h189l118 -378h5l107 378h212l-168 -570h-260l-105 338h-6z" />
    <glyph glyph-name="x" unicode="x" horiz-adv-x="710" 
d="M230 0h-240l246 290l-240 280h240l115 -144h8l115 144h240l-240 -280l246 -290h-240l-121 151h-8z" />
    <glyph glyph-name="y" unicode="y" horiz-adv-x="733" 
d="M378 -190h-223l123 259l-283 501h231l152 -279h7l127 279h226z" />
    <glyph glyph-name="z" unicode="z" horiz-adv-x="698" 
d="M648 0h-602v174l390 212v9h-386v175h598v-174l-391 -212v-9h391v-175z" />
    <glyph glyph-name="braceleft" unicode="{" horiz-adv-x="438" 
d="M358 -190q-119 0 -174.5 54.5t-55.5 170.5v95q0 73 -73 73h-25v162h25q73 0 73 73v117q0 116 55.5 170.5t174.5 54.5h60v-172h-30q-70 0 -70 -73v-97q0 -78 -35.5 -113.5t-114.5 -35.5v-10q79 0 114.5 -35.5t35.5 -113.5v-75q0 -73 70 -73h30v-172h-60z" />
    <glyph glyph-name="bar" unicode="|" horiz-adv-x="430" 
d="M310 -170h-190v970h190v-970z" />
    <glyph glyph-name="braceright" unicode="}" horiz-adv-x="438" 
d="M20 -190v172h30q70 0 70 73v75q0 78 35.5 113.5t114.5 35.5v10q-79 0 -114.5 35.5t-35.5 113.5v97q0 73 -70 73h-30v172h60q119 0 174.5 -54.5t55.5 -170.5v-117q0 -73 73 -73h25v-162h-25q-73 0 -73 -73v-95q0 -116 -55.5 -170.5t-174.5 -54.5h-60z" />
    <glyph glyph-name="asciitilde" unicode="~" horiz-adv-x="653" 
d="M395 224q-27 16 -55 45q-19 19 -31 27.5t-29 8.5q-16 0 -25.5 -10.5t-9.5 -29.5v-47h-205v75q0 81 38 123t107 42q46 0 73 -16t55 -45q19 -19 31 -27.5t29 -8.5q16 0 25.5 10.5t9.5 29.5v47h205v-75q0 -81 -38 -123t-107 -42q-46 0 -73 16z" />
    <glyph glyph-name="uni00A0" unicode="&#xa0;" horiz-adv-x="290" 
 />
    <glyph glyph-name="exclamdown" unicode="&#xa1;" horiz-adv-x="344" 
d="M95.5 423.5q-28.5 26.5 -28.5 67.5t28.5 67.5t76.5 26.5t76.5 -26.5t28.5 -67.5t-28.5 -67.5t-76.5 -26.5t-76.5 26.5zM279 -190h-214v331l40 186h134l40 -186v-331z" />
    <glyph glyph-name="cent" unicode="&#xa2;" horiz-adv-x="725" 
d="M314 390q-49 -40 -49 -105t47 -105t133 -40q64 0 122.5 17t97.5 41v-155q-28 -15 -69.5 -29t-88.5 -22v-107h-200v110q-129 23 -198 101t-69 189q0 110 68.5 187t198.5 102v104h200v-99q54 -7 101 -22.5t77 -32.5v-158q-39 26 -101 45t-129 19q-92 0 -141 -40z" />
    <glyph glyph-name="sterling" unicode="&#xa3;" horiz-adv-x="772" 
d="M331 180h391v-180h-682v135q60 0 92.5 30t32.5 80q0 27 -8 53h-105v72h73q-22 41 -32.5 70t-10.5 65q0 61 33.5 109.5t101.5 77t168 28.5q95 0 184 -24t142 -53v-192q-57 33 -143 59.5t-161 26.5q-100 0 -100 -74q0 -20 8 -40t24 -53h200v-72h-172q3 -12 3 -25
q0 -26 -12 -49t-27 -35v-9z" />
    <glyph glyph-name="currency" unicode="&#xa4;" horiz-adv-x="682" 
d="M569 239l58 -58l-86 -85l-66 64q-59 -28 -133 -28q-75 0 -134 28l-67 -64l-86 85l59 58q-33 52 -33 112q0 61 33 111l-59 58l86 85l66 -64q58 29 135 29q73 0 134 -28l65 63l86 -85l-57 -57q33 -52 33 -112q0 -63 -34 -112zM426.5 287.5q31.5 23.5 31.5 63.5t-31.5 63.5
t-85.5 23.5q-53 0 -84 -23.5t-31 -63.5t31 -63.5t84 -23.5q54 0 85.5 23.5z" />
    <glyph glyph-name="yen" unicode="&#xa5;" horiz-adv-x="885" 
d="M647 700h248l-292 -367h169v-72h-222v-81h222v-72h-222v-108h-215v108h-222v72h222v81h-222v72h169l-292 367h248l200 -259h9z" />
    <glyph glyph-name="brokenbar" unicode="&#xa6;" horiz-adv-x="430" 
d="M310 390h-190v410h190v-410zM310 -170h-190v410h190v-410z" />
    <glyph glyph-name="section" unicode="&#xa7;" horiz-adv-x="740" 
d="M225.5 -170q-79.5 20 -123.5 44v174q52 -29 126 -52t139 -23q46 0 67 13t21 35q0 27 -35.5 43t-113.5 39q-76 22 -125.5 41.5t-85 53.5t-35.5 84t38 79t83 38v9q-56 20 -88.5 53t-32.5 79q0 83 72.5 131.5t234.5 48.5q96 0 176.5 -17t126.5 -38v-180q-53 28 -132 50
t-156 22q-62 0 -84.5 -12.5t-22.5 -37.5q0 -24 36.5 -40t112.5 -36q83 -23 134 -42t89 -53.5t38 -85.5q0 -50 -40.5 -80.5t-89.5 -37.5v-9q55 -24 85 -57t30 -84q0 -75 -69.5 -123.5t-210.5 -48.5q-85 0 -164.5 20zM393 180l25 -6q21 7 40 27.5t19 48.5q0 74 -124 103l-25 6
q-22 -7 -41 -27.5t-19 -48.5q0 -73 125 -103z" />
    <glyph glyph-name="dieresis" unicode="&#xa8;" horiz-adv-x="548" 
d="M59.5 587.5q-29.5 27.5 -29.5 67.5t29.5 67.5t75.5 27.5t75.5 -27.5t29.5 -67.5t-29.5 -67.5t-75.5 -27.5t-75.5 27.5zM337.5 587.5q-29.5 27.5 -29.5 67.5t29.5 67.5t75.5 27.5t75.5 -27.5t29.5 -67.5t-29.5 -67.5t-75.5 -27.5t-75.5 27.5z" />
    <glyph glyph-name="copyright" unicode="&#xa9;" horiz-adv-x="1026" 
d="M273.5 29q-101.5 49 -155 133.5t-53.5 187.5t53.5 187.5t155 133.5t239.5 49t239.5 -49t155 -133.5t53.5 -187.5t-53.5 -187.5t-155 -133.5t-239.5 -49t-239.5 49zM701.5 101q79.5 38 121 103t41.5 146t-41.5 146t-121 103t-188.5 38t-188.5 -38t-121 -103t-41.5 -146
t41.5 -146t121 -103t188.5 -38t188.5 38zM390.5 171.5q-55.5 26.5 -84.5 73.5t-29 105t29 105t84 73.5t130 26.5q54 0 103.5 -11t78.5 -25v-127q-27 13 -69.5 23t-85.5 10q-56 0 -83 -20.5t-27 -54.5t27 -54.5t83 -20.5q42 0 79.5 10t60.5 23v-127q-25 -14 -69.5 -25
t-95.5 -11q-76 0 -131.5 26.5z" />
    <glyph glyph-name="ordfeminine" unicode="&#xaa;" horiz-adv-x="465" 
d="M50 391q-30 23 -30 60q0 44 40 67.5t143 23.5q53 0 70 7.5t17 21.5q0 24 -59 24q-53 0 -102 -9.5t-76 -20.5v115q34 13 90 23t113 10q91 0 132.5 -34.5t41.5 -103.5v-199h-140v44h-5q-21 -20 -60.5 -36t-85.5 -16q-59 0 -89 23zM256.5 463.5q22.5 7.5 33.5 17.5v34
q-8 -6 -28 -10.5t-46 -4.5q-28 0 -38.5 -5.5t-10.5 -16.5q0 -22 40 -22q27 0 49.5 7.5z" />
    <glyph glyph-name="guillemotleft" unicode="&#xab;" horiz-adv-x="701" 
d="M371 76h-203l-138 212l138 212h203l-138 -212zM666 76h-203l-138 212l138 212h203l-138 -212z" />
    <glyph glyph-name="logicalnot" unicode="&#xac;" horiz-adv-x="650" 
d="M585 175h-155v115h-375v150h530v-265z" />
    <glyph glyph-name="uni00AD" unicode="&#xad;" horiz-adv-x="530" 
d="M480 237h-430v153h430v-153z" />
    <glyph glyph-name="registered" unicode="&#xae;" horiz-adv-x="320" 
d="M59 515q-39 35 -39 85t39 85t101 35t101 -35t39 -85t-39 -85t-101 -35t-101 35zM233.5 539.5q26.5 24.5 26.5 60.5t-26.5 60.5t-73.5 24.5t-73.5 -24.5t-26.5 -60.5t26.5 -60.5t73.5 -24.5t73.5 24.5zM105 545v110h66q25 0 37 -9t12 -23t-11 -22t-34 -8v-4h6q34 0 34 -28
v-16h-42v22q0 12 -13 12h-13v-34h-42zM160 601q13 0 13 12t-13 12h-13v-24h13z" />
    <glyph glyph-name="macron" unicode="&#xaf;" horiz-adv-x="484" 
d="M454 598h-424v122h424v-122z" />
    <glyph glyph-name="degree" unicode="&#xb0;" horiz-adv-x="450" 
d="M122.5 403.5q-44.5 22.5 -68.5 60.5t-24 84t24 84t68.5 60.5t102.5 22.5t102.5 -22.5t68.5 -60.5t24 -84t-24 -84t-68.5 -60.5t-102.5 -22.5t-102.5 22.5zM268.5 511q16.5 15 16.5 37t-16.5 37t-43.5 15t-43.5 -15t-16.5 -37t16.5 -37t43.5 -15t43.5 15z" />
    <glyph glyph-name="plusminus" unicode="&#xb1;" horiz-adv-x="650" 
d="M595 10h-540v105h195v115h-195v150h195v190h150v-190h195v-150h-195v-115h195v-105z" />
    <glyph glyph-name="uni00B2" unicode="&#xb2;" horiz-adv-x="427" 
d="M40 450v78l117 64q46 25 67 44.5t21 36.5q0 37 -47 37q-31 0 -77.5 -18t-85.5 -40v115q34 20 90.5 36.5t115.5 16.5q79 0 117.5 -27.5t38.5 -69.5q0 -28 -16.5 -49.5t-49 -43t-96.5 -56.5l-20 -11v-5h174v-108h-349z" />
    <glyph glyph-name="uni00B3" unicode="&#xb3;" horiz-adv-x="412" 
d="M111 439.5q-48 9.5 -76 20.5v107q30 -12 70 -21t72 -9q63 0 63 36q0 35 -63 35q-34 0 -82 -8v40l90 48v5h-145v107h332v-70l-141 -65v-5q81 0 121 -29t40 -76q0 -34 -20.5 -62.5t-62.5 -45.5t-101 -17q-49 0 -97 9.5z" />
    <glyph glyph-name="acute" unicode="&#xb4;" horiz-adv-x="408" 
d="M55 563h-15l-10 55l283 135h55l10 -140z" />
    <glyph glyph-name="uni00B5" unicode="&#xb5;" horiz-adv-x="790" 
d="M60 -190v760h215v-312q0 -58 29.5 -88t85.5 -30q40 0 74 22t51 48v360h215v-570h-187l-28 83h-8q-19 -35 -62.5 -64t-98.5 -29q-24 0 -43 4t-28 9v-193h-215z" />
    <glyph glyph-name="paragraph" unicode="&#xb6;" horiz-adv-x="860" 
d="M280 -190v370h-10q-67 0 -120.5 32t-84 91t-30.5 137t30.5 137t84 91t120.5 32h560v-190h-88v-700h-190v700h-82v-700h-190z" />
    <glyph glyph-name="periodcentered" unicode="&#xb7;" horiz-adv-x="290" 
d="M68.5 254.5q-28.5 26.5 -28.5 67.5t28.5 67.5t76.5 26.5t76.5 -26.5t28.5 -67.5t-28.5 -67.5t-76.5 -26.5t-76.5 26.5z" />
    <glyph glyph-name="cedilla" unicode="&#xb8;" horiz-adv-x="333" 
d="M187 -66q56 0 86 -24.5t30 -65.5q0 -47 -39 -75.5t-113 -28.5q-63 0 -121 16v94q57 -15 93 -15q50 0 50 23q0 10 -7.5 15.5t-22.5 5.5h-81l-20 21l32 106l105 -6l-20 -66h28z" />
    <glyph glyph-name="uni00B9" unicode="&#xb9;" horiz-adv-x="402" 
d="M45 450v103h95v110h-95v95h55q20 0 31 11t11 31h148v-247h92v-103h-337z" />
    <glyph glyph-name="ordmasculine" unicode="&#xba;" horiz-adv-x="480" 
d="M121 392q-50 23 -75.5 62t-25.5 88t25.5 88t75.5 62t119 23t119 -23t75.5 -62t25.5 -88t-25.5 -88t-75.5 -62t-119 -23t-119 23zM291 492.5q19 18.5 19 49.5t-19 49.5t-51 18.5t-51 -18.5t-19 -49.5t19 -49.5t51 -18.5t51 18.5z" />
    <glyph glyph-name="guillemotright" unicode="&#xbb;" horiz-adv-x="701" 
d="M376 288l-138 -212h-203l138 212l-138 212h203zM671 288l-138 -212h-203l138 212l-138 212h203z" />
    <glyph glyph-name="onequarter" unicode="&#xbc;" horiz-adv-x="1038" 
d="M45 350v103h95v110h-95v95h55q20 0 31 11t11 31h148v-247h92v-103h-337zM430 0h-188l368 700h188zM971 0h-150v65h-218v58l125 227h154l-122 -221v-6h61l26 80h124v-80h37v-58h-37v-65z" />
    <glyph glyph-name="onehalf" unicode="&#xbd;" horiz-adv-x="1073" 
d="M45 350v103h95v110h-95v95h55q20 0 31 11t11 31h148v-247h92v-103h-337zM430 0h-188l368 700h188zM666 0v78l117 64q46 25 67 44.5t21 36.5q0 37 -47 37q-31 0 -77.5 -18t-85.5 -40v115q34 20 90.5 36.5t115.5 16.5q79 0 117.5 -27.5t38.5 -69.5q0 -28 -16.5 -49.5
t-49 -43t-96.5 -56.5l-20 -11v-5h174v-108h-349z" />
    <glyph glyph-name="threequarters" unicode="&#xbe;" horiz-adv-x="1055" 
d="M126 339.5q-48 9.5 -76 20.5v107q30 -12 70 -21t72 -9q63 0 63 36q0 35 -63 35q-34 0 -82 -8v40l90 48v5h-145v107h332v-70l-141 -65v-5q81 0 121 -29t40 -76q0 -34 -20.5 -62.5t-62.5 -45.5t-101 -17q-49 0 -97 9.5zM446 0h-188l368 700h188zM988 0h-150v65h-218v58
l125 227h154l-122 -221v-6h61l26 80h124v-80h37v-58h-37v-65z" />
    <glyph glyph-name="questiondown" unicode="&#xbf;" horiz-adv-x="657" 
d="M274.5 423.5q-28.5 26.5 -28.5 67.5t28.5 67.5t76.5 26.5t76.5 -26.5t28.5 -67.5t-28.5 -67.5t-76.5 -26.5t-76.5 26.5zM91 -152q-76 53 -76 137q0 59 39 103.5t98 70.5t120 35v133h157l36 -184q-87 -5 -156 -31.5t-69 -71.5q0 -27 28 -44.5t89 -17.5q82 0 163.5 26
t131.5 59v-197q-48 -27 -136.5 -49t-190.5 -22q-158 0 -234 53z" />
    <glyph glyph-name="Agrave" unicode="&#xc0;" horiz-adv-x="949" 
d="M949 0h-240l-66 143h-337l-66 -143h-240l334 700h281zM470 500l-114 -247h237l-114 247h-9zM642 763h-15l-323 50l10 140h55l283 -135z" />
    <glyph glyph-name="Aacute" unicode="&#xc1;" horiz-adv-x="949" 
d="M949 0h-240l-66 143h-337l-66 -143h-240l334 700h281zM470 500l-114 -247h237l-114 247h-9zM322 763h-15l-10 55l283 135h55l10 -140z" />
    <glyph glyph-name="Acircumflex" unicode="&#xc2;" horiz-adv-x="949" 
d="M949 0h-240l-66 143h-337l-66 -143h-240l334 700h281zM470 500l-114 -247h237l-114 247h-9zM377 780h-169l169 147h196l169 -147h-169l-93 85h-10z" />
    <glyph glyph-name="Atilde" unicode="&#xc3;" horiz-adv-x="949" 
d="M949 0h-240l-66 143h-337l-66 -143h-240l334 700h281zM470 500l-114 -247h237l-114 247h-9zM539 783q-23 10 -52 29q-16 12 -27 17.5t-23 5.5q-27 0 -27 -30v-27h-160v51q0 50 27 77t77 27q34 0 57 -10t52 -29q16 -12 27 -17.5t23 -5.5q27 0 27 30v27h160v-53
q0 -49 -27 -75.5t-77 -26.5q-34 0 -57 10z" />
    <glyph glyph-name="Adieresis" unicode="&#xc4;" horiz-adv-x="949" 
d="M949 0h-240l-66 143h-337l-66 -143h-240l334 700h281zM470 500l-114 -247h237l-114 247h-9zM260.5 787.5q-29.5 27.5 -29.5 67.5t29.5 67.5t75.5 27.5t75.5 -27.5t29.5 -67.5t-29.5 -67.5t-75.5 -27.5t-75.5 27.5zM538.5 787.5q-29.5 27.5 -29.5 67.5t29.5 67.5
t75.5 27.5t75.5 -27.5t29.5 -67.5t-29.5 -67.5t-75.5 -27.5t-75.5 27.5z" />
    <glyph glyph-name="Aring" unicode="&#xc5;" horiz-adv-x="949" 
d="M949 0h-240l-66 143h-337l-66 -143h-240l334 700h281zM470 500l-114 -247h237l-114 247h-9zM362 778.5q-39 31.5 -39 83.5t39 83.5t113 31.5t113 -31.5t39 -83.5t-39 -83.5t-113 -31.5t-113 31.5zM514 836q13 10 13 26t-13 26t-39 10t-39 -10t-13 -26t13 -26t39 -10
t39 10z" />
    <glyph glyph-name="AE" unicode="&#xc6;" horiz-adv-x="1208" 
d="M778 295v-130h380v-165h-595v178h-262l-80 -178h-231l314 700h834v-165h-360v-130h320v-110h-320zM461 535l-111 -247h213v247h-102z" />
    <glyph glyph-name="Ccedilla" unicode="&#xc7;" horiz-adv-x="915" 
d="M407 521q-61 -26 -91.5 -71t-30.5 -100t30 -100t88 -71t139 -26q91 0 167.5 23.5t115.5 51.5v-185q-38 -23 -117 -42t-173 -21l-14 -46h28q56 0 86 -24.5t30 -65.5q0 -47 -39 -75.5t-113 -28.5q-63 0 -121 16v94q57 -15 93 -15q50 0 50 23q0 10 -7.5 15.5t-22.5 5.5h-81
l-20 21l26 85q-117 15 -200.5 66t-126.5 128.5t-43 170.5q0 105 55 189t163 132.5t262 48.5q104 0 189.5 -22t125.5 -49v-186q-41 32 -122 58t-178 26q-87 0 -148 -26z" />
    <glyph glyph-name="Egrave" unicode="&#xc8;" horiz-adv-x="767" 
d="M295 295v-130h422v-165h-637v700h617v-165h-402v-130h362v-110h-362zM563 763h-15l-323 50l10 140h55l283 -135z" />
    <glyph glyph-name="Eacute" unicode="&#xc9;" horiz-adv-x="767" 
d="M295 295v-130h422v-165h-637v700h617v-165h-402v-130h362v-110h-362zM254 763h-15l-10 55l283 135h55l10 -140z" />
    <glyph glyph-name="Ecircumflex" unicode="&#xca;" horiz-adv-x="767" 
d="M295 295v-130h422v-165h-637v700h617v-165h-402v-130h362v-110h-362zM291 780h-169l169 147h196l169 -147h-169l-93 85h-10z" />
    <glyph glyph-name="Edieresis" unicode="&#xcb;" horiz-adv-x="767" 
d="M295 295v-130h422v-165h-637v700h617v-165h-402v-130h362v-110h-362zM174.5 787.5q-29.5 27.5 -29.5 67.5t29.5 67.5t75.5 27.5t75.5 -27.5t29.5 -67.5t-29.5 -67.5t-75.5 -27.5t-75.5 27.5zM452.5 787.5q-29.5 27.5 -29.5 67.5t29.5 67.5t75.5 27.5t75.5 -27.5
t29.5 -67.5t-29.5 -67.5t-75.5 -27.5t-75.5 27.5z" />
    <glyph glyph-name="Igrave" unicode="&#xcc;" horiz-adv-x="793" 
d="M753 700v-165h-249v-370h249v-165h-713v165h249v370h-249v165h713zM572 763h-15l-323 50l10 140h55l283 -135z" />
    <glyph glyph-name="Iacute" unicode="&#xcd;" horiz-adv-x="793" 
d="M753 700v-165h-249v-370h249v-165h-713v165h249v370h-249v165h713zM237 763h-15l-10 55l283 135h55l10 -140z" />
    <glyph glyph-name="Icircumflex" unicode="&#xce;" horiz-adv-x="793" 
d="M753 700v-165h-249v-370h249v-165h-713v165h249v370h-249v165h713zM299 780h-169l169 147h196l169 -147h-169l-93 85h-10z" />
    <glyph glyph-name="Idieresis" unicode="&#xcf;" horiz-adv-x="793" 
d="M753 700v-165h-249v-370h249v-165h-713v165h249v370h-249v165h713zM182.5 787.5q-29.5 27.5 -29.5 67.5t29.5 67.5t75.5 27.5t75.5 -27.5t29.5 -67.5t-29.5 -67.5t-75.5 -27.5t-75.5 27.5zM460.5 787.5q-29.5 27.5 -29.5 67.5t29.5 67.5t75.5 27.5t75.5 -27.5t29.5 -67.5
t-29.5 -67.5t-75.5 -27.5t-75.5 27.5z" />
    <glyph glyph-name="Eth" unicode="&#xd0;" horiz-adv-x="983" 
d="M458 700q153 0 257.5 -44.5t156 -123.5t51.5 -182t-51.5 -182t-156 -123.5t-257.5 -44.5h-370v290h-68v110h68v300h370zM455 165q124 0 183.5 48.5t59.5 136.5t-59.5 136.5t-183.5 48.5h-152v-135h196v-110h-196v-125h152z" />
    <glyph glyph-name="Ntilde" unicode="&#xd1;" horiz-adv-x="967" 
d="M287 0h-207v700h344l247 -499h9v499h207v-700h-344l-247 499h-9v-499zM556 783q-23 10 -52 29q-16 12 -27 17.5t-23 5.5q-27 0 -27 -30v-27h-160v51q0 50 27 77t77 27q34 0 57 -10t52 -29q16 -12 27 -17.5t23 -5.5q27 0 27 30v27h160v-53q0 -49 -27 -75.5t-77 -26.5
q-34 0 -57 10z" />
    <glyph glyph-name="Ograve" unicode="&#xd2;" horiz-adv-x="1110" 
d="M282.5 28.5q-111.5 48.5 -167 132t-55.5 189.5t55.5 189.5t167 132t272.5 48.5t272.5 -48.5t167 -132t55.5 -189.5t-55.5 -189.5t-167 -132t-272.5 -48.5t-272.5 48.5zM703.5 174.5q60.5 26.5 91 72t30.5 103.5t-30.5 103.5t-91 72t-148.5 26.5t-148.5 -26.5t-91 -72
t-30.5 -103.5t30.5 -103.5t91 -72t148.5 -26.5t148.5 26.5zM730 763h-15l-323 50l10 140h55l283 -135z" />
    <glyph glyph-name="Oacute" unicode="&#xd3;" horiz-adv-x="1110" 
d="M282.5 28.5q-111.5 48.5 -167 132t-55.5 189.5t55.5 189.5t167 132t272.5 48.5t272.5 -48.5t167 -132t55.5 -189.5t-55.5 -189.5t-167 -132t-272.5 -48.5t-272.5 48.5zM703.5 174.5q60.5 26.5 91 72t30.5 103.5t-30.5 103.5t-91 72t-148.5 26.5t-148.5 -26.5t-91 -72
t-30.5 -103.5t30.5 -103.5t91 -72t148.5 -26.5t148.5 26.5zM395 763h-15l-10 55l283 135h55l10 -140z" />
    <glyph glyph-name="Ocircumflex" unicode="&#xd4;" horiz-adv-x="1110" 
d="M282.5 28.5q-111.5 48.5 -167 132t-55.5 189.5t55.5 189.5t167 132t272.5 48.5t272.5 -48.5t167 -132t55.5 -189.5t-55.5 -189.5t-167 -132t-272.5 -48.5t-272.5 48.5zM703.5 174.5q60.5 26.5 91 72t30.5 103.5t-30.5 103.5t-91 72t-148.5 26.5t-148.5 -26.5t-91 -72
t-30.5 -103.5t30.5 -103.5t91 -72t148.5 -26.5t148.5 26.5zM457 780h-169l169 147h196l169 -147h-169l-93 85h-10z" />
    <glyph glyph-name="Otilde" unicode="&#xd5;" horiz-adv-x="1110" 
d="M282.5 28.5q-111.5 48.5 -167 132t-55.5 189.5t55.5 189.5t167 132t272.5 48.5t272.5 -48.5t167 -132t55.5 -189.5t-55.5 -189.5t-167 -132t-272.5 -48.5t-272.5 48.5zM703.5 174.5q60.5 26.5 91 72t30.5 103.5t-30.5 103.5t-91 72t-148.5 26.5t-148.5 -26.5t-91 -72
t-30.5 -103.5t30.5 -103.5t91 -72t148.5 -26.5t148.5 26.5zM619 783q-23 10 -52 29q-16 12 -27 17.5t-23 5.5q-27 0 -27 -30v-27h-160v51q0 50 27 77t77 27q34 0 57 -10t52 -29q16 -12 27 -17.5t23 -5.5q27 0 27 30v27h160v-53q0 -49 -27 -75.5t-77 -26.5q-34 0 -57 10z" />
    <glyph glyph-name="Odieresis" unicode="&#xd6;" horiz-adv-x="1110" 
d="M282.5 28.5q-111.5 48.5 -167 132t-55.5 189.5t55.5 189.5t167 132t272.5 48.5t272.5 -48.5t167 -132t55.5 -189.5t-55.5 -189.5t-167 -132t-272.5 -48.5t-272.5 48.5zM703.5 174.5q60.5 26.5 91 72t30.5 103.5t-30.5 103.5t-91 72t-148.5 26.5t-148.5 -26.5t-91 -72
t-30.5 -103.5t30.5 -103.5t91 -72t148.5 -26.5t148.5 26.5zM340.5 787.5q-29.5 27.5 -29.5 67.5t29.5 67.5t75.5 27.5t75.5 -27.5t29.5 -67.5t-29.5 -67.5t-75.5 -27.5t-75.5 27.5zM618.5 787.5q-29.5 27.5 -29.5 67.5t29.5 67.5t75.5 27.5t75.5 -27.5t29.5 -67.5
t-29.5 -67.5t-75.5 -27.5t-75.5 27.5z" />
    <glyph glyph-name="multiply" unicode="&#xd7;" horiz-adv-x="656" 
d="M581 165l-110 -110l-143 143l-143 -143l-110 110l143 143l-143 143l110 110l143 -143l143 143l110 -110l-143 -143z" />
    <glyph glyph-name="Oslash" unicode="&#xd8;" horiz-adv-x="1110" 
d="M933 608q58 -49 87.5 -115t29.5 -143q0 -106 -55.5 -189.5t-167 -132t-272.5 -48.5q-167 0 -286 54l-40 -34h-159l107 92q-58 50 -87.5 116t-29.5 142q0 106 55.5 189.5t167 132t272.5 48.5q167 0 285 -54l40 34h159zM332 226l354 306q-55 20 -131 20q-88 0 -148.5 -26.5
t-91 -72t-30.5 -103.5q0 -74 47 -124zM703.5 174.5q60.5 26.5 91 72t30.5 103.5q0 72 -47 124l-355 -306q57 -20 132 -20q88 0 148.5 26.5z" />
    <glyph glyph-name="Ugrave" unicode="&#xd9;" horiz-adv-x="936" 
d="M75 308v392h215v-377q0 -81 43.5 -122t134.5 -41t134.5 41t43.5 122v377h215v-392q0 -328 -393 -328t-393 328zM631 763h-15l-323 50l10 140h55l283 -135z" />
    <glyph glyph-name="Uacute" unicode="&#xda;" horiz-adv-x="936" 
d="M75 308v392h215v-377q0 -81 43.5 -122t134.5 -41t134.5 41t43.5 122v377h215v-392q0 -328 -393 -328t-393 328zM320 763h-15l-10 55l283 135h55l10 -140z" />
    <glyph glyph-name="Ucircumflex" unicode="&#xdb;" horiz-adv-x="936" 
d="M75 308v392h215v-377q0 -81 43.5 -122t134.5 -41t134.5 41t43.5 122v377h215v-392q0 -328 -393 -328t-393 328zM370 780h-169l169 147h196l169 -147h-169l-93 85h-10z" />
    <glyph glyph-name="Udieresis" unicode="&#xdc;" horiz-adv-x="936" 
d="M75 308v392h215v-377q0 -81 43.5 -122t134.5 -41t134.5 41t43.5 122v377h215v-392q0 -328 -393 -328t-393 328zM253.5 787.5q-29.5 27.5 -29.5 67.5t29.5 67.5t75.5 27.5t75.5 -27.5t29.5 -67.5t-29.5 -67.5t-75.5 -27.5t-75.5 27.5zM531.5 787.5q-29.5 27.5 -29.5 67.5
t29.5 67.5t75.5 27.5t75.5 -27.5t29.5 -67.5t-29.5 -67.5t-75.5 -27.5t-75.5 27.5z" />
    <glyph glyph-name="Yacute" unicode="&#xdd;" horiz-adv-x="895" 
d="M555 0h-215v148l-360 552h239l224 -347h9l224 347h239l-360 -552v-148zM308 763h-15l-10 55l283 135h55l10 -140z" />
    <glyph glyph-name="Thorn" unicode="&#xde;" horiz-adv-x="932" 
d="M80 0v700h215v-122h285q157 0 232 -58.5t75 -163.5q0 -104 -75 -162.5t-232 -58.5h-285v-135h-215zM565 290q97 0 97 66q0 67 -97 67h-270v-133h270z" />
    <glyph glyph-name="germandbls" unicode="&#xdf;" horiz-adv-x="895" 
d="M498.5 -2.5q-57.5 12.5 -90.5 27.5v172q31 -16 79 -29t98 -13q32 0 47.5 11.5t15.5 30.5q0 23 -20.5 41.5t-62.5 42.5q-50 29 -76 54t-26 60q0 32 19 50.5t54 38.5q23 12 33.5 21t10.5 20q0 21 -33 21h-167q-60 0 -60 -53v-493h-215v393h-105v72h105v70q0 185 195 185
h295q86 0 125.5 -28.5t39.5 -78.5q0 -36 -17 -61t-40.5 -40t-61.5 -33q-37 -18 -54 -30t-17 -31q0 -23 26 -40t84 -42q60 -26 97.5 -47t65 -55.5t27.5 -83.5q0 -45 -27.5 -82.5t-83.5 -60t-139 -22.5q-64 0 -121.5 12.5z" />
    <glyph glyph-name="agrave" unicode="&#xe0;" horiz-adv-x="772" 
d="M87.5 27.5q-52.5 42.5 -52.5 112.5q0 82 68 126.5t224 49.5q75 2 112.5 8t50 15t12.5 24q0 24 -31 38t-111 14q-82 0 -159.5 -19t-123.5 -42v171q43 23 125.5 41.5t177.5 18.5q175 0 256 -60t81 -165v-360h-215v78h-8q-34 -36 -102 -64.5t-150 -28.5q-102 0 -154.5 42.5z
M437 144q43 16 65 36v91q-11 -9 -44.5 -17t-82.5 -10q-115 -5 -115 -62q0 -25 20 -39.5t62 -14.5q52 0 95 16zM562 623h-15l-323 50l10 140h55l283 -135z" />
    <glyph glyph-name="aacute" unicode="&#xe1;" horiz-adv-x="772" 
d="M87.5 27.5q-52.5 42.5 -52.5 112.5q0 82 68 126.5t224 49.5q75 2 112.5 8t50 15t12.5 24q0 24 -31 38t-111 14q-82 0 -159.5 -19t-123.5 -42v171q43 23 125.5 41.5t177.5 18.5q175 0 256 -60t81 -165v-360h-215v78h-8q-34 -36 -102 -64.5t-150 -28.5q-102 0 -154.5 42.5z
M437 144q43 16 65 36v91q-11 -9 -44.5 -17t-82.5 -10q-115 -5 -115 -62q0 -25 20 -39.5t62 -14.5q52 0 95 16zM257 623h-15l-10 55l283 135h55l10 -140z" />
    <glyph glyph-name="acircumflex" unicode="&#xe2;" horiz-adv-x="772" 
d="M87.5 27.5q-52.5 42.5 -52.5 112.5q0 82 68 126.5t224 49.5q75 2 112.5 8t50 15t12.5 24q0 24 -31 38t-111 14q-82 0 -159.5 -19t-123.5 -42v171q43 23 125.5 41.5t177.5 18.5q175 0 256 -60t81 -165v-360h-215v78h-8q-34 -36 -102 -64.5t-150 -28.5q-102 0 -154.5 42.5z
M437 144q43 16 65 36v91q-11 -9 -44.5 -17t-82.5 -10q-115 -5 -115 -62q0 -25 20 -39.5t62 -14.5q52 0 95 16zM287 640h-169l169 147h196l169 -147h-169l-93 85h-10z" />
    <glyph glyph-name="atilde" unicode="&#xe3;" horiz-adv-x="772" 
d="M87.5 27.5q-52.5 42.5 -52.5 112.5q0 82 68 126.5t224 49.5q75 2 112.5 8t50 15t12.5 24q0 24 -31 38t-111 14q-82 0 -159.5 -19t-123.5 -42v171q43 23 125.5 41.5t177.5 18.5q175 0 256 -60t81 -165v-360h-215v78h-8q-34 -36 -102 -64.5t-150 -28.5q-102 0 -154.5 42.5z
M437 144q43 16 65 36v91q-11 -9 -44.5 -17t-82.5 -10q-115 -5 -115 -62q0 -25 20 -39.5t62 -14.5q52 0 95 16zM449 643q-23 10 -52 29q-16 12 -27 17.5t-23 5.5q-27 0 -27 -30v-27h-160v51q0 50 27 77t77 27q34 0 57 -10t52 -29q16 -12 27 -17.5t23 -5.5q27 0 27 30v27h160
v-53q0 -49 -27 -75.5t-77 -26.5q-34 0 -57 10z" />
    <glyph glyph-name="adieresis" unicode="&#xe4;" horiz-adv-x="772" 
d="M87.5 27.5q-52.5 42.5 -52.5 112.5q0 82 68 126.5t224 49.5q75 2 112.5 8t50 15t12.5 24q0 24 -31 38t-111 14q-82 0 -159.5 -19t-123.5 -42v171q43 23 125.5 41.5t177.5 18.5q175 0 256 -60t81 -165v-360h-215v78h-8q-34 -36 -102 -64.5t-150 -28.5q-102 0 -154.5 42.5z
M437 144q43 16 65 36v91q-11 -9 -44.5 -17t-82.5 -10q-115 -5 -115 -62q0 -25 20 -39.5t62 -14.5q52 0 95 16zM170.5 647.5q-29.5 27.5 -29.5 67.5t29.5 67.5t75.5 27.5t75.5 -27.5t29.5 -67.5t-29.5 -67.5t-75.5 -27.5t-75.5 27.5zM448.5 647.5q-29.5 27.5 -29.5 67.5
t29.5 67.5t75.5 27.5t75.5 -27.5t29.5 -67.5t-29.5 -67.5t-75.5 -27.5t-75.5 27.5z" />
    <glyph glyph-name="aring" unicode="&#xe5;" horiz-adv-x="772" 
d="M87.5 27.5q-52.5 42.5 -52.5 112.5q0 82 68 126.5t224 49.5q75 2 112.5 8t50 15t12.5 24q0 24 -31 38t-111 14q-82 0 -159.5 -19t-123.5 -42v171q43 23 125.5 41.5t177.5 18.5q175 0 256 -60t81 -165v-360h-215v78h-8q-34 -36 -102 -64.5t-150 -28.5q-102 0 -154.5 42.5z
M437 144q43 16 65 36v91q-11 -9 -44.5 -17t-82.5 -10q-115 -5 -115 -62q0 -25 20 -39.5t62 -14.5q52 0 95 16zM272 638.5q-39 31.5 -39 83.5t39 83.5t113 31.5t113 -31.5t39 -83.5t-39 -83.5t-113 -31.5t-113 31.5zM424 696q13 10 13 26t-13 26t-39 10t-39 -10t-13 -26
t13 -26t39 -10t39 10z" />
    <glyph glyph-name="ae" unicode="&#xe6;" horiz-adv-x="1190" 
d="M1150 256h-450q12 -51 53.5 -76t126.5 -25q64 0 121 15.5t89 34.5v-171q-31 -19 -96 -34t-144 -15q-100 0 -176 28t-124 80h-11q-27 -30 -94.5 -69t-174.5 -39q-120 0 -177.5 44.5t-57.5 122.5q0 84 63.5 130t208.5 46h168q0 31 -9 49.5t-37 28t-82 9.5q-79 0 -153 -16
t-117 -36v173q44 18 121 33.5t162 15.5q67 0 118 -12.5t82 -31.5t41 -38h8q27 31 88 56.5t140 25.5q92 0 163.5 -39t110.5 -110t39 -163v-17zM928 328q-2 56 -32.5 89t-80.5 33q-52 0 -83 -32.5t-36 -89.5h232zM442.5 141q36.5 13 57.5 30q-16 36 -23 85h-115q-52 0 -77 -18
t-25 -46q0 -29 22.5 -46.5t69.5 -17.5q54 0 90.5 13z" />
    <glyph glyph-name="ccedilla" unicode="&#xe7;" horiz-adv-x="725" 
d="M314 390q-49 -40 -49 -105t47 -105t133 -40q64 0 122.5 17t97.5 41v-155q-38 -21 -99.5 -38t-128.5 -20l-16 -51h28q56 0 86 -24.5t30 -65.5q0 -47 -39 -75.5t-113 -28.5q-63 0 -121 16v94q57 -15 93 -15q50 0 50 23q0 10 -7.5 15.5t-22.5 5.5h-81l-20 21l27 91
q-141 19 -216 98.5t-75 195.5q0 88 43.5 155.5t131 106t212.5 38.5q77 0 146.5 -18.5t111.5 -42.5v-158q-39 26 -101 45t-129 19q-92 0 -141 -40z" />
    <glyph glyph-name="egrave" unicode="&#xe8;" 
d="M215 24q-88 39 -131.5 107t-43.5 154q0 88 41.5 156t122 106t193.5 38q108 0 186.5 -38.5t120 -107t41.5 -154.5v-17h-481q9 -53 60 -83t148 -30q61 0 121 17.5t92 38.5v-171q-33 -21 -103.5 -38t-151.5 -17q-127 0 -215 39zM524 340q-6 50 -38.5 80t-88.5 30
q-57 0 -92 -30t-41 -80h260zM567 623h-15l-323 50l10 140h55l283 -135z" />
    <glyph glyph-name="eacute" unicode="&#xe9;" 
d="M215 24q-88 39 -131.5 107t-43.5 154q0 88 41.5 156t122 106t193.5 38q108 0 186.5 -38.5t120 -107t41.5 -154.5v-17h-481q9 -53 60 -83t148 -30q61 0 121 17.5t92 38.5v-171q-33 -21 -103.5 -38t-151.5 -17q-127 0 -215 39zM524 340q-6 50 -38.5 80t-88.5 30
q-57 0 -92 -30t-41 -80h260zM232 623h-15l-10 55l283 135h55l10 -140z" />
    <glyph glyph-name="ecircumflex" unicode="&#xea;" 
d="M215 24q-88 39 -131.5 107t-43.5 154q0 88 41.5 156t122 106t193.5 38q108 0 186.5 -38.5t120 -107t41.5 -154.5v-17h-481q9 -53 60 -83t148 -30q61 0 121 17.5t92 38.5v-171q-33 -21 -103.5 -38t-151.5 -17q-127 0 -215 39zM524 340q-6 50 -38.5 80t-88.5 30
q-57 0 -92 -30t-41 -80h260zM294 640h-169l169 147h196l169 -147h-169l-93 85h-10z" />
    <glyph glyph-name="edieresis" unicode="&#xeb;" 
d="M215 24q-88 39 -131.5 107t-43.5 154q0 88 41.5 156t122 106t193.5 38q108 0 186.5 -38.5t120 -107t41.5 -154.5v-17h-481q9 -53 60 -83t148 -30q61 0 121 17.5t92 38.5v-171q-33 -21 -103.5 -38t-151.5 -17q-127 0 -215 39zM524 340q-6 50 -38.5 80t-88.5 30
q-57 0 -92 -30t-41 -80h260zM177.5 647.5q-29.5 27.5 -29.5 67.5t29.5 67.5t75.5 27.5t75.5 -27.5t29.5 -67.5t-29.5 -67.5t-75.5 -27.5t-75.5 27.5zM455.5 647.5q-29.5 27.5 -29.5 67.5t29.5 67.5t75.5 27.5t75.5 -27.5t29.5 -67.5t-29.5 -67.5t-75.5 -27.5t-75.5 27.5z
" />
    <glyph glyph-name="igrave" unicode="&#xec;" horiz-adv-x="335" 
d="M275 0h-215v570h215v-570zM310 623h-15l-323 50l10 140h55l283 -135z" />
    <glyph glyph-name="iacute" unicode="&#xed;" horiz-adv-x="335" 
d="M275 0h-215v570h215v-570zM40 623h-15l-10 55l283 135h55l10 -140z" />
    <glyph glyph-name="icircumflex" unicode="&#xee;" horiz-adv-x="335" 
d="M275 0h-215v570h215v-570zM70 640h-169l169 147h196l169 -147h-169l-93 85h-10z" />
    <glyph glyph-name="idieresis" unicode="&#xef;" horiz-adv-x="335" 
d="M275 0h-215v570h215v-570zM-46.5 647.5q-29.5 27.5 -29.5 67.5t29.5 67.5t75.5 27.5t75.5 -27.5t29.5 -67.5t-29.5 -67.5t-75.5 -27.5t-75.5 27.5zM231.5 647.5q-29.5 27.5 -29.5 67.5t29.5 67.5t75.5 27.5t75.5 -27.5t29.5 -67.5t-29.5 -67.5t-75.5 -27.5t-75.5 27.5z
" />
    <glyph glyph-name="eth" unicode="&#xf0;" horiz-adv-x="850" 
d="M400 677q145 -20 234 -64.5t130 -116t41 -176.5q0 -335 -400 -335q-126 0 -207.5 29.5t-119.5 79t-38 112.5q0 94 76 151.5t231 57.5q100 0 161 -22t84 -58h9q0 65 -49.5 106.5t-177.5 59.5l-99 14l-15 -60l-74 10l15 60l-111 16l40 174l114 -16l16 62l74 -10l-16 -63z
M540.5 162.5q39.5 27.5 39.5 68.5q0 43 -39 69.5t-119 26.5q-79 0 -118 -27.5t-39 -68.5t39 -68.5t118 -27.5t118.5 27.5z" />
    <glyph glyph-name="ntilde" unicode="&#xf1;" 
d="M60 0v570h215v-85h8q25 38 84 69t138 31q107 0 166 -57t59 -160v-368h-215v320q0 53 -28.5 81.5t-81.5 28.5q-45 0 -79.5 -22t-50.5 -49v-359h-215zM471 643q-23 10 -52 29q-16 12 -27 17.5t-23 5.5q-27 0 -27 -30v-27h-160v51q0 50 27 77t77 27q34 0 57 -10t52 -29
q16 -12 27 -17.5t23 -5.5q27 0 27 30v27h160v-53q0 -49 -27 -75.5t-77 -26.5q-34 0 -57 10z" />
    <glyph glyph-name="ograve" unicode="&#xf2;" horiz-adv-x="850" 
d="M214 23.5q-87 38.5 -130.5 106.5t-43.5 155t43.5 155t130.5 106.5t211 38.5t211 -38.5t130.5 -106.5t43.5 -155t-43.5 -155t-130.5 -106.5t-211 -38.5t-211 38.5zM542.5 175.5q42.5 40.5 42.5 109.5t-42.5 109.5t-117.5 40.5t-117.5 -40.5t-42.5 -109.5t42.5 -109.5
t117.5 -40.5t117.5 40.5zM600 623h-15l-323 50l10 140h55l283 -135z" />
    <glyph glyph-name="oacute" unicode="&#xf3;" horiz-adv-x="850" 
d="M214 23.5q-87 38.5 -130.5 106.5t-43.5 155t43.5 155t130.5 106.5t211 38.5t211 -38.5t130.5 -106.5t43.5 -155t-43.5 -155t-130.5 -106.5t-211 -38.5t-211 38.5zM542.5 175.5q42.5 40.5 42.5 109.5t-42.5 109.5t-117.5 40.5t-117.5 -40.5t-42.5 -109.5t42.5 -109.5
t117.5 -40.5t117.5 40.5zM265 623h-15l-10 55l283 135h55l10 -140z" />
    <glyph glyph-name="ocircumflex" unicode="&#xf4;" horiz-adv-x="850" 
d="M214 23.5q-87 38.5 -130.5 106.5t-43.5 155t43.5 155t130.5 106.5t211 38.5t211 -38.5t130.5 -106.5t43.5 -155t-43.5 -155t-130.5 -106.5t-211 -38.5t-211 38.5zM542.5 175.5q42.5 40.5 42.5 109.5t-42.5 109.5t-117.5 40.5t-117.5 -40.5t-42.5 -109.5t42.5 -109.5
t117.5 -40.5t117.5 40.5zM327 640h-169l169 147h196l169 -147h-169l-93 85h-10z" />
    <glyph glyph-name="otilde" unicode="&#xf5;" horiz-adv-x="850" 
d="M214 23.5q-87 38.5 -130.5 106.5t-43.5 155t43.5 155t130.5 106.5t211 38.5t211 -38.5t130.5 -106.5t43.5 -155t-43.5 -155t-130.5 -106.5t-211 -38.5t-211 38.5zM542.5 175.5q42.5 40.5 42.5 109.5t-42.5 109.5t-117.5 40.5t-117.5 -40.5t-42.5 -109.5t42.5 -109.5
t117.5 -40.5t117.5 40.5zM489 643q-23 10 -52 29q-16 12 -27 17.5t-23 5.5q-27 0 -27 -30v-27h-160v51q0 50 27 77t77 27q34 0 57 -10t52 -29q16 -12 27 -17.5t23 -5.5q27 0 27 30v27h160v-53q0 -49 -27 -75.5t-77 -26.5q-34 0 -57 10z" />
    <glyph glyph-name="odieresis" unicode="&#xf6;" horiz-adv-x="850" 
d="M214 23.5q-87 38.5 -130.5 106.5t-43.5 155t43.5 155t130.5 106.5t211 38.5t211 -38.5t130.5 -106.5t43.5 -155t-43.5 -155t-130.5 -106.5t-211 -38.5t-211 38.5zM542.5 175.5q42.5 40.5 42.5 109.5t-42.5 109.5t-117.5 40.5t-117.5 -40.5t-42.5 -109.5t42.5 -109.5
t117.5 -40.5t117.5 40.5zM210.5 647.5q-29.5 27.5 -29.5 67.5t29.5 67.5t75.5 27.5t75.5 -27.5t29.5 -67.5t-29.5 -67.5t-75.5 -27.5t-75.5 27.5zM488.5 647.5q-29.5 27.5 -29.5 67.5t29.5 67.5t75.5 27.5t75.5 -27.5t29.5 -67.5t-29.5 -67.5t-75.5 -27.5t-75.5 27.5z" />
    <glyph glyph-name="divide" unicode="&#xf7;" horiz-adv-x="650" 
d="M248.5 467q-28.5 26 -28.5 66t28.5 66t76.5 26t76.5 -26t28.5 -66t-28.5 -66t-76.5 -26t-76.5 26zM590 260h-530v110h530v-110zM248.5 31q-28.5 26 -28.5 66t28.5 66t76.5 26t76.5 -26t28.5 -66t-28.5 -66t-76.5 -26t-76.5 26z" />
    <glyph glyph-name="oslash" unicode="&#xf8;" horiz-adv-x="850" 
d="M706 505q51 -40 77.5 -96.5t26.5 -123.5q0 -87 -43.5 -155t-130.5 -106.5t-211 -38.5q-138 0 -231 48l-36 -33h-86l71 66q-51 39 -77 95.5t-26 123.5q0 87 43.5 155t130.5 106.5t211 38.5q136 0 230 -47l35 32h86zM288 199l231 213q-38 23 -94 23q-75 0 -117.5 -40.5
t-42.5 -109.5q0 -49 23 -86zM542.5 175.5q42.5 40.5 42.5 109.5q0 51 -24 87l-231 -213q38 -24 95 -24q75 0 117.5 40.5z" />
    <glyph glyph-name="ugrave" unicode="&#xf9;" 
d="M114 42.5q-59 57.5 -59 160.5v367h215v-320q0 -52 29 -81t81 -29q44 0 79 22.5t51 49.5v358h215v-570h-215v86h-9q-25 -38 -83.5 -69.5t-135.5 -31.5q-109 0 -168 57.5zM554 623h-15l-323 50l10 140h55l283 -135z" />
    <glyph glyph-name="uacute" unicode="&#xfa;" 
d="M114 42.5q-59 57.5 -59 160.5v367h215v-320q0 -52 29 -81t81 -29q44 0 79 22.5t51 49.5v358h215v-570h-215v86h-9q-25 -38 -83.5 -69.5t-135.5 -31.5q-109 0 -168 57.5zM241 623h-15l-10 55l283 135h55l10 -140z" />
    <glyph glyph-name="ucircumflex" unicode="&#xfb;" 
d="M114 42.5q-59 57.5 -59 160.5v367h215v-320q0 -52 29 -81t81 -29q44 0 79 22.5t51 49.5v358h215v-570h-215v86h-9q-25 -38 -83.5 -69.5t-135.5 -31.5q-109 0 -168 57.5zM292 640h-169l169 147h196l169 -147h-169l-93 85h-10z" />
    <glyph glyph-name="udieresis" unicode="&#xfc;" 
d="M114 42.5q-59 57.5 -59 160.5v367h215v-320q0 -52 29 -81t81 -29q44 0 79 22.5t51 49.5v358h215v-570h-215v86h-9q-25 -38 -83.5 -69.5t-135.5 -31.5q-109 0 -168 57.5zM175.5 647.5q-29.5 27.5 -29.5 67.5t29.5 67.5t75.5 27.5t75.5 -27.5t29.5 -67.5t-29.5 -67.5
t-75.5 -27.5t-75.5 27.5zM453.5 647.5q-29.5 27.5 -29.5 67.5t29.5 67.5t75.5 27.5t75.5 -27.5t29.5 -67.5t-29.5 -67.5t-75.5 -27.5t-75.5 27.5z" />
    <glyph glyph-name="yacute" unicode="&#xfd;" horiz-adv-x="733" 
d="M378 -190h-223l123 259l-283 501h231l152 -279h7l127 279h226zM224 623h-15l-10 55l283 135h55l10 -140z" />
    <glyph glyph-name="thorn" unicode="&#xfe;" horiz-adv-x="827" 
d="M60 -190v910h215v-224h8q28 34 88.5 61.5t135.5 27.5q83 0 146.5 -36t98.5 -104t35 -160t-35 -160t-98.5 -104t-146.5 -36q-75 0 -135.5 27.5t-88.5 61.5h-8v-264h-215zM523 181q39 38 39 104t-39 104t-108 38q-45 0 -83.5 -17.5t-56.5 -39.5v-170q18 -22 56.5 -39.5
t83.5 -17.5q69 0 108 38z" />
    <glyph glyph-name="ydieresis" unicode="&#xff;" horiz-adv-x="733" 
d="M378 -190h-223l123 259l-283 501h231l152 -279h7l127 279h226zM158.5 647.5q-29.5 27.5 -29.5 67.5t29.5 67.5t75.5 27.5t75.5 -27.5t29.5 -67.5t-29.5 -67.5t-75.5 -27.5t-75.5 27.5zM436.5 647.5q-29.5 27.5 -29.5 67.5t29.5 67.5t75.5 27.5t75.5 -27.5t29.5 -67.5
t-29.5 -67.5t-75.5 -27.5t-75.5 27.5z" />
    <glyph glyph-name="Amacron" unicode="&#x100;" horiz-adv-x="949" 
d="M949 0h-240l-66 143h-337l-66 -143h-240l334 700h281zM470 500l-114 -247h237l-114 247h-9zM687 790h-424v122h424v-122z" />
    <glyph glyph-name="amacron" unicode="&#x101;" horiz-adv-x="772" 
d="M87.5 27.5q-52.5 42.5 -52.5 112.5q0 82 68 126.5t224 49.5q75 2 112.5 8t50 15t12.5 24q0 24 -31 38t-111 14q-82 0 -159.5 -19t-123.5 -42v171q43 23 125.5 41.5t177.5 18.5q175 0 256 -60t81 -165v-360h-215v78h-8q-34 -36 -102 -64.5t-150 -28.5q-102 0 -154.5 42.5z
M437 144q43 16 65 36v91q-11 -9 -44.5 -17t-82.5 -10q-115 -5 -115 -62q0 -25 20 -39.5t62 -14.5q52 0 95 16zM597 650h-424v122h424v-122z" />
    <glyph glyph-name="Abreve" unicode="&#x102;" horiz-adv-x="949" 
d="M949 0h-240l-66 143h-337l-66 -143h-240l334 700h281zM470 500l-114 -247h237l-114 247h-9zM306 818q-55 40 -55 112h148q3 -55 76 -55t76 55h148q0 -72 -55 -112t-169 -40t-169 40z" />
    <glyph glyph-name="abreve" unicode="&#x103;" horiz-adv-x="772" 
d="M87.5 27.5q-52.5 42.5 -52.5 112.5q0 82 68 126.5t224 49.5q75 2 112.5 8t50 15t12.5 24q0 24 -31 38t-111 14q-82 0 -159.5 -19t-123.5 -42v171q43 23 125.5 41.5t177.5 18.5q175 0 256 -60t81 -165v-360h-215v78h-8q-34 -36 -102 -64.5t-150 -28.5q-102 0 -154.5 42.5z
M437 144q43 16 65 36v91q-11 -9 -44.5 -17t-82.5 -10q-115 -5 -115 -62q0 -25 20 -39.5t62 -14.5q52 0 95 16zM216 678q-55 40 -55 112h148q3 -55 76 -55t76 55h148q0 -72 -55 -112t-169 -40t-169 40z" />
    <glyph glyph-name="Aogonek" unicode="&#x104;" horiz-adv-x="949" 
d="M767 -122q34 0 73 7v-107q-49 -8 -107 -8q-72 0 -106.5 25t-34.5 66q0 44 32.5 80t84.5 59l-66 143h-337l-66 -143h-240l334 700h281l334 -700h-114q-47 -19 -83 -44t-36 -49q0 -29 51 -29zM470 500l-114 -247h237l-114 247h-9z" />
    <glyph glyph-name="aogonek" unicode="&#x105;" horiz-adv-x="772" 
d="M722 -115v-107q-49 -8 -107 -8q-72 0 -106.5 25t-34.5 66q0 42 33 76t84 58v5h-89v78h-8q-34 -36 -102 -64.5t-150 -28.5q-102 0 -154.5 42.5t-52.5 112.5q0 82 68 126.5t224 49.5q75 2 112.5 8t50 15t12.5 24q0 24 -31 38t-111 14q-82 0 -159.5 -19t-123.5 -42v171
q43 23 125.5 41.5t177.5 18.5q175 0 256 -60t81 -165v-360q-48 -20 -83.5 -44.5t-35.5 -48.5q0 -29 51 -29q34 0 73 7zM502 271q-11 -9 -44.5 -17t-82.5 -10q-115 -5 -115 -62q0 -25 20 -39.5t62 -14.5q52 0 95 16t65 36v91z" />
    <glyph glyph-name="Cacute" unicode="&#x106;" horiz-adv-x="915" 
d="M272 28.5q-104 48.5 -158 132.5t-54 189t55 189t163 132.5t262 48.5q104 0 189.5 -22t125.5 -49v-186q-41 32 -122 58t-178 26q-87 0 -148 -26t-91.5 -71t-30.5 -100t30 -100t88 -71t139 -26q91 0 167.5 23.5t115.5 51.5v-185q-41 -24 -123.5 -43.5t-181.5 -19.5
q-144 0 -248 48.5zM352 763h-15l-10 55l283 135h55l10 -140z" />
    <glyph glyph-name="cacute" unicode="&#x107;" horiz-adv-x="725" 
d="M211 23.5q-85 38.5 -128 106.5t-43 155q0 88 43.5 155.5t131 106t212.5 38.5q77 0 146.5 -18.5t111.5 -42.5v-158q-39 26 -101 45t-129 19q-92 0 -141 -40t-49 -105t47 -105t133 -40q64 0 122.5 17t97.5 41v-155q-41 -23 -108.5 -40.5t-139.5 -17.5q-121 0 -206 38.5z
M240 623h-15l-10 55l283 135h55l10 -140z" />
    <glyph glyph-name="Ccircumflex" unicode="&#x108;" horiz-adv-x="915" 
d="M272 28.5q-104 48.5 -158 132.5t-54 189t55 189t163 132.5t262 48.5q104 0 189.5 -22t125.5 -49v-186q-41 32 -122 58t-178 26q-87 0 -148 -26t-91.5 -71t-30.5 -100t30 -100t88 -71t139 -26q91 0 167.5 23.5t115.5 51.5v-185q-41 -24 -123.5 -43.5t-181.5 -19.5
q-144 0 -248 48.5zM414 780h-169l169 147h196l169 -147h-169l-93 85h-10z" />
    <glyph glyph-name="ccircumflex" unicode="&#x109;" horiz-adv-x="725" 
d="M211 23.5q-85 38.5 -128 106.5t-43 155q0 88 43.5 155.5t131 106t212.5 38.5q77 0 146.5 -18.5t111.5 -42.5v-158q-39 26 -101 45t-129 19q-92 0 -141 -40t-49 -105t47 -105t133 -40q64 0 122.5 17t97.5 41v-155q-41 -23 -108.5 -40.5t-139.5 -17.5q-121 0 -206 38.5z
M302 640h-169l169 147h196l169 -147h-169l-93 85h-10z" />
    <glyph glyph-name="Cdotaccent" unicode="&#x10a;" horiz-adv-x="915" 
d="M272 28.5q-104 48.5 -158 132.5t-54 189t55 189t163 132.5t262 48.5q104 0 189.5 -22t125.5 -49v-186q-41 32 -122 58t-178 26q-87 0 -148 -26t-91.5 -71t-30.5 -100t30 -100t88 -71t139 -26q91 0 167.5 23.5t115.5 51.5v-185q-41 -24 -123.5 -43.5t-181.5 -19.5
q-144 0 -248 48.5zM424.5 790.5q-32.5 28.5 -32.5 71.5t32.5 71.5t87.5 28.5t87.5 -28.5t32.5 -71.5t-32.5 -71.5t-87.5 -28.5t-87.5 28.5z" />
    <glyph glyph-name="cdotaccent" unicode="&#x10b;" horiz-adv-x="725" 
d="M211 23.5q-85 38.5 -128 106.5t-43 155q0 88 43.5 155.5t131 106t212.5 38.5q77 0 146.5 -18.5t111.5 -42.5v-158q-39 26 -101 45t-129 19q-92 0 -141 -40t-49 -105t47 -105t133 -40q64 0 122.5 17t97.5 41v-155q-41 -23 -108.5 -40.5t-139.5 -17.5q-121 0 -206 38.5z
M312.5 650.5q-32.5 28.5 -32.5 71.5t32.5 71.5t87.5 28.5t87.5 -28.5t32.5 -71.5t-32.5 -71.5t-87.5 -28.5t-87.5 28.5z" />
    <glyph glyph-name="Ccaron" unicode="&#x10c;" horiz-adv-x="915" 
d="M272 28.5q-104 48.5 -158 132.5t-54 189t55 189t163 132.5t262 48.5q104 0 189.5 -22t125.5 -49v-186q-41 32 -122 58t-178 26q-87 0 -148 -26t-91.5 -71t-30.5 -100t30 -100t88 -71t139 -26q91 0 167.5 23.5t115.5 51.5v-185q-41 -24 -123.5 -43.5t-181.5 -19.5
q-144 0 -248 48.5zM610 780h-196l-169 147h169l93 -85h10l93 85h169z" />
    <glyph glyph-name="ccaron" unicode="&#x10d;" horiz-adv-x="725" 
d="M211 23.5q-85 38.5 -128 106.5t-43 155q0 88 43.5 155.5t131 106t212.5 38.5q77 0 146.5 -18.5t111.5 -42.5v-158q-39 26 -101 45t-129 19q-92 0 -141 -40t-49 -105t47 -105t133 -40q64 0 122.5 17t97.5 41v-155q-41 -23 -108.5 -40.5t-139.5 -17.5q-121 0 -206 38.5z
M498 640h-196l-169 147h169l93 -85h10l93 85h169z" />
    <glyph glyph-name="Dcaron" unicode="&#x10e;" horiz-adv-x="982" 
d="M80 0v700h377q153 0 257.5 -44.5t156 -123.5t51.5 -182t-51.5 -182t-156 -123.5t-257.5 -44.5h-377zM455 175q127 0 184.5 45t57.5 130t-57.5 130t-184.5 45h-160v-350h160zM583 780h-196l-169 147h169l93 -85h10l93 85h169z" />
    <glyph glyph-name="dcaron" unicode="&#x10f;" horiz-adv-x="897" 
d="M173.5 21q-63.5 36 -98.5 104t-35 160t35 160t98.5 104t146.5 36q75 0 135.5 -27.5t88.5 -61.5h8v224h143v-5q-12 -6 -22.5 -29t-10.5 -58v-278h105v-350h-215v74h-8q-28 -34 -88.5 -61.5t-135.5 -27.5q-83 0 -146.5 36zM720.5 695q25.5 25 66.5 25q49 0 77 -32.5
t28 -96.5q0 -104 -43.5 -155t-121.5 -51h-27v115h40q51 0 75.5 20t24.5 54h-5q-5 -11 -21 -20t-39 -9q-38 0 -59 22t-21 63q0 40 25.5 65zM495.5 160.5q38.5 17.5 56.5 39.5v170q-18 22 -56.5 39.5t-83.5 17.5q-69 0 -108 -38t-39 -104t39 -104t108 -38q45 0 83.5 17.5z" />
    <glyph glyph-name="Dcroat" unicode="&#x110;" horiz-adv-x="983" 
d="M458 700q153 0 257.5 -44.5t156 -123.5t51.5 -182t-51.5 -182t-156 -123.5t-257.5 -44.5h-370v290h-68v110h68v300h370zM455 165q124 0 183.5 48.5t59.5 136.5t-59.5 136.5t-183.5 48.5h-152v-135h196v-110h-196v-125h152z" />
    <glyph glyph-name="dcroat" unicode="&#x111;" horiz-adv-x="840" 
d="M840 610v-72h-92v-538h-215v74h-9q-29 -34 -91.5 -61.5t-139.5 -27.5q-79 0 -137.5 30t-89.5 84t-31 124t31 123.5t89.5 83.5t137.5 30q77 0 139.5 -26t91.5 -58h9v162h-213v72h213v110h215v-110h92zM533 257q-22 17 -63.5 31t-91.5 14q-58 0 -88 -22t-30 -57t29.5 -57.5
t88.5 -22.5q50 0 91.5 15.5t63.5 34.5v64z" />
    <glyph glyph-name="Emacron" unicode="&#x112;" horiz-adv-x="767" 
d="M295 295v-130h422v-165h-637v700h617v-165h-402v-130h362v-110h-362zM601 790h-424v122h424v-122z" />
    <glyph glyph-name="emacron" unicode="&#x113;" 
d="M215 24q-88 39 -131.5 107t-43.5 154q0 88 41.5 156t122 106t193.5 38q108 0 186.5 -38.5t120 -107t41.5 -154.5v-17h-481q9 -53 60 -83t148 -30q61 0 121 17.5t92 38.5v-171q-33 -21 -103.5 -38t-151.5 -17q-127 0 -215 39zM524 340q-6 50 -38.5 80t-88.5 30
q-57 0 -92 -30t-41 -80h260zM604 650h-424v122h424v-122z" />
    <glyph glyph-name="Ebreve" unicode="&#x114;" horiz-adv-x="767" 
d="M295 295v-130h422v-165h-637v700h617v-165h-402v-130h362v-110h-362zM220 818q-55 40 -55 112h148q3 -55 76 -55t76 55h148q0 -72 -55 -112t-169 -40t-169 40z" />
    <glyph glyph-name="ebreve" unicode="&#x115;" 
d="M215 24q-88 39 -131.5 107t-43.5 154q0 88 41.5 156t122 106t193.5 38q108 0 186.5 -38.5t120 -107t41.5 -154.5v-17h-481q9 -53 60 -83t148 -30q61 0 121 17.5t92 38.5v-171q-33 -21 -103.5 -38t-151.5 -17q-127 0 -215 39zM524 340q-6 50 -38.5 80t-88.5 30
q-57 0 -92 -30t-41 -80h260zM223 678q-55 40 -55 112h148q3 -55 76 -55t76 55h148q0 -72 -55 -112t-169 -40t-169 40z" />
    <glyph glyph-name="Edotaccent" unicode="&#x116;" horiz-adv-x="767" 
d="M295 295v-130h422v-165h-637v700h617v-165h-402v-130h362v-110h-362zM301.5 790.5q-32.5 28.5 -32.5 71.5t32.5 71.5t87.5 28.5t87.5 -28.5t32.5 -71.5t-32.5 -71.5t-87.5 -28.5t-87.5 28.5z" />
    <glyph glyph-name="edotaccent" unicode="&#x117;" 
d="M215 24q-88 39 -131.5 107t-43.5 154q0 88 41.5 156t122 106t193.5 38q108 0 186.5 -38.5t120 -107t41.5 -154.5v-17h-481q9 -53 60 -83t148 -30q61 0 121 17.5t92 38.5v-171q-33 -21 -103.5 -38t-151.5 -17q-127 0 -215 39zM524 340q-6 50 -38.5 80t-88.5 30
q-57 0 -92 -30t-41 -80h260zM304.5 650.5q-32.5 28.5 -32.5 71.5t32.5 71.5t87.5 28.5t87.5 -28.5t32.5 -71.5t-32.5 -71.5t-87.5 -28.5t-87.5 28.5z" />
    <glyph glyph-name="Eogonek" unicode="&#x118;" horiz-adv-x="767" 
d="M722 -115v-107q-49 -8 -107 -8q-72 0 -106.5 25t-34.5 66q0 74 117 134v5h-511v700h617v-165h-402v-130h362v-110h-362v-130h422v-165q-48 -20 -83.5 -44.5t-35.5 -48.5q0 -29 51 -29q34 0 73 7z" />
    <glyph glyph-name="eogonek" unicode="&#x119;" 
d="M318.5 -205q-34.5 25 -34.5 66q0 36 24.5 66t64.5 53v7q-109 9 -184 49.5t-112 104.5t-37 144q0 88 41.5 156t122 106t193.5 38q108 0 186.5 -38.5t120 -107t41.5 -154.5v-17h-481q9 -53 60 -83t148 -30q61 0 121 17.5t92 38.5v-171q-23 -11 -68.5 -25t-101.5 -26
q-49 -11 -78 -34t-29 -48q0 -29 51 -29q34 0 73 7v-107q-49 -8 -107 -8q-72 0 -106.5 25zM524 340q-6 50 -38.5 80t-88.5 30q-57 0 -92 -30t-41 -80h260z" />
    <glyph glyph-name="Ecaron" unicode="&#x11a;" horiz-adv-x="767" 
d="M295 295v-130h422v-165h-637v700h617v-165h-402v-130h362v-110h-362zM487 780h-196l-169 147h169l93 -85h10l93 85h169z" />
    <glyph glyph-name="ecaron" unicode="&#x11b;" 
d="M215 24q-88 39 -131.5 107t-43.5 154q0 88 41.5 156t122 106t193.5 38q108 0 186.5 -38.5t120 -107t41.5 -154.5v-17h-481q9 -53 60 -83t148 -30q61 0 121 17.5t92 38.5v-171q-33 -21 -103.5 -38t-151.5 -17q-127 0 -215 39zM524 340q-6 50 -38.5 80t-88.5 30
q-57 0 -92 -30t-41 -80h260zM490 640h-196l-169 147h169l93 -85h10l93 85h169z" />
    <glyph glyph-name="Gcircumflex" unicode="&#x11c;" horiz-adv-x="988" 
d="M280.5 28.5q-109.5 48.5 -165 132t-55.5 189.5t56 189.5t167.5 132t273.5 48.5q120 0 217.5 -20.5t153.5 -47.5v-178q-53 30 -147 54t-204 24q-145 0 -218.5 -56t-73.5 -146q0 -58 31 -103.5t95 -72t159 -26.5q68 0 125.5 13t87.5 29v52h-278v130h418v-299
q-51 -35 -153.5 -64t-222.5 -29q-157 0 -266.5 48.5zM422 780h-169l169 147h196l169 -147h-169l-93 85h-10z" />
    <glyph glyph-name="gcircumflex" unicode="&#x11d;" horiz-adv-x="825" 
d="M213.5 -189q-78.5 16 -121.5 36v177q40 -22 108 -40.5t140 -18.5q104 0 157 43.5t53 116.5v16h-9q-26 -35 -84.5 -62.5t-134.5 -27.5q-86 0 -149.5 33.5t-98 94t-34.5 139.5t34.5 139.5t98 94t149.5 33.5q76 0 134.5 -27.5t84.5 -62.5h9v75h215v-445q0 -156 -97.5 -243
t-287.5 -87q-88 0 -166.5 16zM491 219.5q40 18.5 59 41.5v114q-19 23 -59 41.5t-89 18.5q-68 0 -102.5 -30.5t-34.5 -86.5t34.5 -86.5t102.5 -30.5q49 0 89 18.5zM304 640h-169l169 147h196l169 -147h-169l-93 85h-10z" />
    <glyph glyph-name="Gbreve" unicode="&#x11e;" horiz-adv-x="988" 
d="M280.5 28.5q-109.5 48.5 -165 132t-55.5 189.5t56 189.5t167.5 132t273.5 48.5q120 0 217.5 -20.5t153.5 -47.5v-178q-53 30 -147 54t-204 24q-145 0 -218.5 -56t-73.5 -146q0 -58 31 -103.5t95 -72t159 -26.5q68 0 125.5 13t87.5 29v52h-278v130h418v-299
q-51 -35 -153.5 -64t-222.5 -29q-157 0 -266.5 48.5zM351 818q-55 40 -55 112h148q3 -55 76 -55t76 55h148q0 -72 -55 -112t-169 -40t-169 40z" />
    <glyph glyph-name="gbreve" unicode="&#x11f;" horiz-adv-x="825" 
d="M213.5 -189q-78.5 16 -121.5 36v177q40 -22 108 -40.5t140 -18.5q104 0 157 43.5t53 116.5v16h-9q-26 -35 -84.5 -62.5t-134.5 -27.5q-86 0 -149.5 33.5t-98 94t-34.5 139.5t34.5 139.5t98 94t149.5 33.5q76 0 134.5 -27.5t84.5 -62.5h9v75h215v-445q0 -156 -97.5 -243
t-287.5 -87q-88 0 -166.5 16zM491 219.5q40 18.5 59 41.5v114q-19 23 -59 41.5t-89 18.5q-68 0 -102.5 -30.5t-34.5 -86.5t34.5 -86.5t102.5 -30.5q49 0 89 18.5zM233 678q-55 40 -55 112h148q3 -55 76 -55t76 55h148q0 -72 -55 -112t-169 -40t-169 40z" />
    <glyph glyph-name="Gdotaccent" unicode="&#x120;" horiz-adv-x="988" 
d="M280.5 28.5q-109.5 48.5 -165 132t-55.5 189.5t56 189.5t167.5 132t273.5 48.5q120 0 217.5 -20.5t153.5 -47.5v-178q-53 30 -147 54t-204 24q-145 0 -218.5 -56t-73.5 -146q0 -58 31 -103.5t95 -72t159 -26.5q68 0 125.5 13t87.5 29v52h-278v130h418v-299
q-51 -35 -153.5 -64t-222.5 -29q-157 0 -266.5 48.5zM432.5 790.5q-32.5 28.5 -32.5 71.5t32.5 71.5t87.5 28.5t87.5 -28.5t32.5 -71.5t-32.5 -71.5t-87.5 -28.5t-87.5 28.5z" />
    <glyph glyph-name="gdotaccent" unicode="&#x121;" horiz-adv-x="825" 
d="M213.5 -189q-78.5 16 -121.5 36v177q40 -22 108 -40.5t140 -18.5q104 0 157 43.5t53 116.5v16h-9q-26 -35 -84.5 -62.5t-134.5 -27.5q-86 0 -149.5 33.5t-98 94t-34.5 139.5t34.5 139.5t98 94t149.5 33.5q76 0 134.5 -27.5t84.5 -62.5h9v75h215v-445q0 -156 -97.5 -243
t-287.5 -87q-88 0 -166.5 16zM491 219.5q40 18.5 59 41.5v114q-19 23 -59 41.5t-89 18.5q-68 0 -102.5 -30.5t-34.5 -86.5t34.5 -86.5t102.5 -30.5q49 0 89 18.5zM314.5 650.5q-32.5 28.5 -32.5 71.5t32.5 71.5t87.5 28.5t87.5 -28.5t32.5 -71.5t-32.5 -71.5t-87.5 -28.5
t-87.5 28.5z" />
    <glyph glyph-name="uni0122" unicode="&#x122;" horiz-adv-x="988" 
d="M280.5 28.5q-109.5 48.5 -165 132t-55.5 189.5t56 189.5t167.5 132t273.5 48.5q120 0 217.5 -20.5t153.5 -47.5v-178q-53 30 -147 54t-204 24q-145 0 -218.5 -56t-73.5 -146q0 -58 31 -103.5t95 -72t159 -26.5q68 0 125.5 13t87.5 29v52h-278v130h418v-299
q-51 -35 -153.5 -64t-222.5 -29q-157 0 -266.5 48.5zM444 -340v65h37q49 0 70.5 17.5t21.5 51.5h-5q-6 -12 -20.5 -20.5t-37.5 -8.5q-36 0 -57.5 21t-21.5 56t25.5 59t66.5 24q49 0 77.5 -30.5t28.5 -83.5q0 -72 -40 -111.5t-113 -39.5h-32z" />
    <glyph glyph-name="uni0123" unicode="&#x123;" horiz-adv-x="825" 
d="M472.5 639q-25.5 -24 -66.5 -24q-49 0 -77.5 30.5t-28.5 83.5q0 72 40 111.5t113 39.5h32v-65h-37q-49 0 -70.5 -17.5t-21.5 -51.5h5q5 11 20 20t38 9q35 0 57 -21.5t22 -55.5q0 -35 -25.5 -59zM213.5 -189q-78.5 16 -121.5 36v177q40 -22 108 -40.5t140 -18.5
q104 0 157 43.5t53 116.5v16h-9q-26 -35 -84.5 -62.5t-134.5 -27.5q-86 0 -149.5 33.5t-98 94t-34.5 139.5t34.5 139.5t98 94t149.5 33.5q76 0 134.5 -27.5t84.5 -62.5h9v75h215v-445q0 -156 -97.5 -243t-287.5 -87q-88 0 -166.5 16zM491 219.5q40 18.5 59 41.5v114
q-19 23 -59 41.5t-89 18.5q-68 0 -102.5 -30.5t-34.5 -86.5t34.5 -86.5t102.5 -30.5q49 0 89 18.5z" />
    <glyph glyph-name="Hcircumflex" unicode="&#x124;" horiz-adv-x="955" 
d="M660 440v260h215v-700h-215v260h-365v-260h-215v700h215v-260h365zM380 780h-169l169 147h196l169 -147h-169l-93 85h-10z" />
    <glyph glyph-name="hcircumflex" unicode="&#x125;" 
d="M60 0v720h215v-235h8q25 38 84 69t138 31q107 0 166 -57t59 -160v-368h-215v320q0 53 -28.5 81.5t-81.5 28.5q-45 0 -79.5 -22t-50.5 -49v-359h-215zM69 780h-169l169 147h196l169 -147h-169l-93 85h-10z" />
    <glyph glyph-name="Hbar" unicode="&#x126;" horiz-adv-x="1001" 
d="M898 620h98v-110h-98v-510h-215v260h-365v-260h-215v510h-98v110h98v80h215v-80h365v80h215v-80zM318 430h365v80h-365v-80z" />
    <glyph glyph-name="hbar" unicode="&#x127;" horiz-adv-x="805" 
d="M691 528q59 -57 59 -160v-368h-215v320q0 53 -28.5 81.5t-81.5 28.5q-45 0 -79.5 -22t-50.5 -49v-359h-215v607h-80v72h80v41h215v-41h150v-72h-150v-122h8q25 38 84 69t138 31q107 0 166 -57z" />
    <glyph glyph-name="Itilde" unicode="&#x128;" horiz-adv-x="793" 
d="M753 700v-165h-249v-370h249v-165h-713v165h249v370h-249v165h713zM461 783q-23 10 -52 29q-16 12 -27 17.5t-23 5.5q-27 0 -27 -30v-27h-160v51q0 50 27 77t77 27q34 0 57 -10t52 -29q16 -12 27 -17.5t23 -5.5q27 0 27 30v27h160v-53q0 -49 -27 -75.5t-77 -26.5
q-34 0 -57 10z" />
    <glyph glyph-name="itilde" unicode="&#x129;" horiz-adv-x="335" 
d="M275 0h-215v570h215v-570zM232 643q-23 10 -52 29q-16 12 -27 17.5t-23 5.5q-27 0 -27 -30v-27h-160v51q0 50 27 77t77 27q34 0 57 -10t52 -29q16 -12 27 -17.5t23 -5.5q27 0 27 30v27h160v-53q0 -49 -27 -75.5t-77 -26.5q-34 0 -57 10z" />
    <glyph glyph-name="Imacron" unicode="&#x12a;" horiz-adv-x="793" 
d="M753 700v-165h-249v-370h249v-165h-713v165h249v370h-249v165h713zM609 790h-424v122h424v-122z" />
    <glyph glyph-name="imacron" unicode="&#x12b;" horiz-adv-x="335" 
d="M275 0h-215v570h215v-570zM380 650h-424v122h424v-122z" />
    <glyph glyph-name="Ibreve" unicode="&#x12c;" horiz-adv-x="793" 
d="M753 700v-165h-249v-370h249v-165h-713v165h249v370h-249v165h713zM228 818q-55 40 -55 112h148q3 -55 76 -55t76 55h148q0 -72 -55 -112t-169 -40t-169 40z" />
    <glyph glyph-name="ibreve" unicode="&#x12d;" horiz-adv-x="335" 
d="M275 0h-215v570h215v-570zM-1 678q-55 40 -55 112h148q3 -55 76 -55t76 55h148q0 -72 -55 -112t-169 -40t-169 40z" />
    <glyph glyph-name="Iogonek" unicode="&#x12e;" horiz-adv-x="793" 
d="M753 535h-249v-370h249v-165h-268q-48 -20 -83.5 -44.5t-35.5 -48.5q0 -29 51 -29q34 0 73 7v-107q-49 -8 -107 -8q-72 0 -106.5 25t-34.5 66q0 74 117 134v5h-319v165h249v370h-249v165h713v-165z" />
    <glyph glyph-name="iogonek" unicode="&#x12f;" horiz-adv-x="335" 
d="M70.5 626q-35.5 31 -35.5 78t35.5 78t96.5 31q62 0 97.5 -31t35.5 -78t-35.5 -78t-97.5 -31q-61 0 -96.5 31zM165.5 -108q9.5 -7 31.5 -7h83v-115h-134q-55 0 -84.5 25.5t-29.5 65.5q0 42 34 77t83 57v5h-89v570h9q16 -10 41.5 -16.5t56.5 -6.5t57 6.5t42 16.5h9v-570
q-50 -18 -84.5 -41t-34.5 -47q0 -13 9.5 -20z" />
    <glyph glyph-name="Idotaccent" unicode="&#x130;" horiz-adv-x="793" 
d="M753 700v-165h-249v-370h249v-165h-713v165h249v370h-249v165h713zM309.5 790.5q-32.5 28.5 -32.5 71.5t32.5 71.5t87.5 28.5t87.5 -28.5t32.5 -71.5t-32.5 -71.5t-87.5 -28.5t-87.5 28.5z" />
    <glyph glyph-name="dotlessi" unicode="&#x131;" horiz-adv-x="335" 
d="M275 0h-215v570h215v-570z" />
    <glyph glyph-name="IJ" unicode="&#x132;" horiz-adv-x="1448" 
d="M753 700v-165h-249v-370h249v-165h-713v165h249v370h-249v165h713zM808 18v179q60 -19 99.5 -25.5t80.5 -6.5q165 0 165 154v381h215v-388q0 -161 -88.5 -244t-250.5 -83q-106 0 -221 33z" />
    <glyph glyph-name="ij" unicode="&#x133;" horiz-adv-x="665" 
d="M70.5 626q-35.5 31 -35.5 78t35.5 78t96.5 31q62 0 97.5 -31t35.5 -78t-35.5 -78t-97.5 -31q-61 0 -96.5 31zM400.5 626q-35.5 31 -35.5 78t35.5 78t96.5 31q62 0 97.5 -31t35.5 -78t-35.5 -78t-97.5 -31q-61 0 -96.5 31zM60 0v570h9q13 -9 39.5 -16t58.5 -7t59 7t40 16
h9v-570h-215zM308.5 -201q-32.5 4 -73.5 14v148q41 -12 74 -12q39 0 60 23t21 68v530h9q13 -9 39.5 -16t58.5 -7t59 7t40 16h9v-538q0 -110 -55.5 -173.5t-170.5 -63.5q-38 0 -70.5 4z" />
    <glyph glyph-name="Jcircumflex" unicode="&#x134;" horiz-adv-x="655" 
d="M15 18v179q60 -19 99.5 -25.5t80.5 -6.5q165 0 165 154v381h215v-388q0 -161 -88.5 -244t-250.5 -83q-106 0 -221 33zM370 780h-169l169 147h196l169 -147h-169l-93 85h-10z" />
    <glyph glyph-name="jcircumflex" unicode="&#x135;" horiz-adv-x="335" 
d="M-21.5 -201q-32.5 4 -73.5 14v153q41 -12 74 -12q39 0 60 23t21 68v525h215v-538q0 -110 -55.5 -173.5t-170.5 -63.5q-38 0 -70.5 4zM70 640h-169l169 147h196l169 -147h-169l-93 85h-10z" />
    <glyph glyph-name="uni0136" unicode="&#x136;" horiz-adv-x="887" 
d="M295 0h-215v700h215v-295h5l332 295h275l-377 -335v-5l347 -360h-270l-307 318h-5v-318zM367 -340v65h37q49 0 70.5 17.5t21.5 51.5h-5q-6 -12 -20.5 -20.5t-37.5 -8.5q-36 0 -57.5 21t-21.5 56t25.5 59t66.5 24q49 0 77.5 -30.5t28.5 -83.5q0 -72 -40 -111.5t-113 -39.5
h-32z" />
    <glyph glyph-name="uni0137" unicode="&#x137;" horiz-adv-x="775" 
d="M275 0h-215v720h215v-378h3l239 228h268l-293 -269l292 -301h-266l-240 260h-3v-260zM312 -340v65h37q49 0 70.5 17.5t21.5 51.5h-5q-6 -12 -20.5 -20.5t-37.5 -8.5q-36 0 -57.5 21t-21.5 56t25.5 59t66.5 24q49 0 77.5 -30.5t28.5 -83.5q0 -72 -40 -111.5t-113 -39.5
h-32z" />
    <glyph glyph-name="Lacute" unicode="&#x139;" horiz-adv-x="765" 
d="M755 0h-675v700h215v-520h460v-180zM60 763h-15l-10 55l283 135h55l10 -140z" />
    <glyph glyph-name="lacute" unicode="&#x13a;" horiz-adv-x="335" 
d="M275 0h-215v720h215v-720zM40 763h-15l-10 55l283 135h55l10 -140z" />
    <glyph glyph-name="uni013B" unicode="&#x13b;" horiz-adv-x="765" 
d="M755 0h-675v700h215v-520h460v-180zM334 -340v65h37q49 0 70.5 17.5t21.5 51.5h-5q-6 -12 -20.5 -20.5t-37.5 -8.5q-36 0 -57.5 21t-21.5 56t25.5 59t66.5 24q49 0 77.5 -30.5t28.5 -83.5q0 -72 -40 -111.5t-113 -39.5h-32z" />
    <glyph glyph-name="uni013C" unicode="&#x13c;" horiz-adv-x="335" 
d="M275 0h-215v720h215v-720zM81 -340v65h37q49 0 70.5 17.5t21.5 51.5h-5q-6 -12 -20.5 -20.5t-37.5 -8.5q-36 0 -57.5 21t-21.5 56t25.5 59t66.5 24q49 0 77.5 -30.5t28.5 -83.5q0 -72 -40 -111.5t-113 -39.5h-32z" />
    <glyph glyph-name="Lcaron" unicode="&#x13d;" horiz-adv-x="765" 
d="M358.5 685q25.5 25 66.5 25q49 0 77 -32.5t28 -96.5q0 -104 -43.5 -155t-121.5 -51h-27v115h40q51 0 75.5 20t24.5 54h-5q-7 -12 -22.5 -20.5t-37.5 -8.5q-38 0 -59 22t-21 63q0 40 25.5 65zM755 0h-675v700h215v-520h460v-180z" />
    <glyph glyph-name="lcaron" unicode="&#x13e;" horiz-adv-x="405" 
d="M60 720h143v-5q-14 -9 -23.5 -31t-9.5 -56v-278h105v-350h-215v720zM228.5 695q25.5 25 66.5 25q49 0 77 -32.5t28 -96.5q0 -104 -43.5 -155t-121.5 -51h-27v115h40q51 0 75.5 20t24.5 54h-5q-7 -12 -22.5 -20.5t-37.5 -8.5q-38 0 -59 22t-21 63q0 40 25.5 65z" />
    <glyph glyph-name="Ldot" unicode="&#x13f;" horiz-adv-x="765" 
d="M755 0h-675v700h215v-550h460v-150zM470.5 331.5q-35.5 31.5 -35.5 78.5t35.5 78.5t94.5 31.5t94.5 -31.5t35.5 -78.5t-35.5 -78.5t-94.5 -31.5t-94.5 31.5z" />
    <glyph glyph-name="ldot" unicode="&#x140;" horiz-adv-x="555" 
d="M275 0h-215v720h215v-720zM350.5 281.5q-35.5 31.5 -35.5 78.5t35.5 78.5t94.5 31.5t94.5 -31.5t35.5 -78.5t-35.5 -78.5t-94.5 -31.5t-94.5 31.5z" />
    <glyph glyph-name="Lslash" unicode="&#x141;" horiz-adv-x="770" 
d="M300 340v-160h460v-180h-675v273l-75 -23v110l75 23v317h215v-250l217 68v-110z" />
    <glyph glyph-name="lslash" unicode="&#x142;" horiz-adv-x="398" 
d="M303 462l85 33v-77l-85 -33v-385h-215v303l-78 -30v77l78 30v340h215v-258z" />
    <glyph glyph-name="Nacute" unicode="&#x143;" horiz-adv-x="967" 
d="M287 0h-207v700h344l247 -499h9v499h207v-700h-344l-247 499h-9v-499zM333 763h-15l-10 55l283 135h55l10 -140z" />
    <glyph glyph-name="nacute" unicode="&#x144;" 
d="M60 0v570h215v-85h8q25 38 84 69t138 31q107 0 166 -57t59 -160v-368h-215v320q0 53 -28.5 81.5t-81.5 28.5q-45 0 -79.5 -22t-50.5 -49v-359h-215zM260 623h-15l-10 55l283 135h55l10 -140z" />
    <glyph glyph-name="uni0145" unicode="&#x145;" horiz-adv-x="967" 
d="M287 0h-207v700h344l247 -499h9v499h207v-700h-344l-247 499h-9v-499zM413 -340v65h37q49 0 70.5 17.5t21.5 51.5h-5q-6 -12 -20.5 -20.5t-37.5 -8.5q-36 0 -57.5 21t-21.5 56t25.5 59t66.5 24q49 0 77.5 -30.5t28.5 -83.5q0 -72 -40 -111.5t-113 -39.5h-32z" />
    <glyph glyph-name="uni0146" unicode="&#x146;" 
d="M60 0v570h215v-85h8q25 38 84 69t138 31q107 0 166 -57t59 -160v-368h-215v320q0 53 -28.5 81.5t-81.5 28.5q-45 0 -79.5 -22t-50.5 -49v-359h-215zM309 -340v65h37q49 0 70.5 17.5t21.5 51.5h-5q-6 -12 -20.5 -20.5t-37.5 -8.5q-36 0 -57.5 21t-21.5 56t25.5 59t66.5 24
q49 0 77.5 -30.5t28.5 -83.5q0 -72 -40 -111.5t-113 -39.5h-32z" />
    <glyph glyph-name="Ncaron" unicode="&#x147;" horiz-adv-x="967" 
d="M287 0h-207v700h344l247 -499h9v499h207v-700h-344l-247 499h-9v-499zM590 780h-196l-169 147h169l93 -85h10l93 85h169z" />
    <glyph glyph-name="ncaron" unicode="&#x148;" 
d="M60 0v570h215v-85h8q25 38 84 69t138 31q107 0 166 -57t59 -160v-368h-215v320q0 53 -28.5 81.5t-81.5 28.5q-45 0 -79.5 -22t-50.5 -49v-359h-215zM505 640h-196l-169 147h169l93 -85h10l93 85h169z" />
    <glyph glyph-name="napostrophe" unicode="&#x149;" horiz-adv-x="935" 
d="M10.5 705q25.5 25 66.5 25q51 0 78.5 -32.5t27.5 -97.5q0 -103 -43.5 -154t-121.5 -51h-28v115h40q51 0 75.5 19.5t24.5 53.5h-5q-5 -11 -21 -20t-38 -9q-37 0 -59 23t-22 64q0 39 25.5 64zM210 0v570h215v-85h8q25 38 84 69t138 31q107 0 166 -57t59 -160v-368h-215v320
q0 53 -28.5 81.5t-81.5 28.5q-45 0 -79.5 -22t-50.5 -49v-359h-215z" />
    <glyph glyph-name="Eng" unicode="&#x14a;" horiz-adv-x="967" 
d="M517 -187v119q25 -7 40.5 -9.5t34.5 -2.5q38 0 63 19t25 56v5h-137l-247 499h-9v-499h-207v700h344l247 -499h9v499h207v-668q0 -111 -55.5 -174t-172.5 -63q-70 0 -142 18z" />
    <glyph glyph-name="eng" unicode="&#x14b;" 
d="M429 -201q-33 4 -74 14v139q24 -7 40.5 -9.5t36.5 -2.5q40 0 61.5 23t21.5 68v289q0 53 -28.5 81.5t-81.5 28.5q-45 0 -79.5 -22t-50.5 -49v-359h-215v570h215v-85h8q25 38 84 69t138 31q107 0 166 -57t59 -160v-336q0 -111 -55.5 -174t-172.5 -63q-40 0 -73 4z" />
    <glyph glyph-name="Omacron" unicode="&#x14c;" horiz-adv-x="1110" 
d="M282.5 28.5q-111.5 48.5 -167 132t-55.5 189.5t55.5 189.5t167 132t272.5 48.5t272.5 -48.5t167 -132t55.5 -189.5t-55.5 -189.5t-167 -132t-272.5 -48.5t-272.5 48.5zM703.5 174.5q60.5 26.5 91 72t30.5 103.5t-30.5 103.5t-91 72t-148.5 26.5t-148.5 -26.5t-91 -72
t-30.5 -103.5t30.5 -103.5t91 -72t148.5 -26.5t148.5 26.5zM767 790h-424v122h424v-122z" />
    <glyph glyph-name="omacron" unicode="&#x14d;" horiz-adv-x="850" 
d="M214 23.5q-87 38.5 -130.5 106.5t-43.5 155t43.5 155t130.5 106.5t211 38.5t211 -38.5t130.5 -106.5t43.5 -155t-43.5 -155t-130.5 -106.5t-211 -38.5t-211 38.5zM542.5 175.5q42.5 40.5 42.5 109.5t-42.5 109.5t-117.5 40.5t-117.5 -40.5t-42.5 -109.5t42.5 -109.5
t117.5 -40.5t117.5 40.5zM637 650h-424v122h424v-122z" />
    <glyph glyph-name="Obreve" unicode="&#x14e;" horiz-adv-x="1110" 
d="M282.5 28.5q-111.5 48.5 -167 132t-55.5 189.5t55.5 189.5t167 132t272.5 48.5t272.5 -48.5t167 -132t55.5 -189.5t-55.5 -189.5t-167 -132t-272.5 -48.5t-272.5 48.5zM703.5 174.5q60.5 26.5 91 72t30.5 103.5t-30.5 103.5t-91 72t-148.5 26.5t-148.5 -26.5t-91 -72
t-30.5 -103.5t30.5 -103.5t91 -72t148.5 -26.5t148.5 26.5zM386 818q-55 40 -55 112h148q3 -55 76 -55t76 55h148q0 -72 -55 -112t-169 -40t-169 40z" />
    <glyph glyph-name="obreve" unicode="&#x14f;" horiz-adv-x="850" 
d="M214 23.5q-87 38.5 -130.5 106.5t-43.5 155t43.5 155t130.5 106.5t211 38.5t211 -38.5t130.5 -106.5t43.5 -155t-43.5 -155t-130.5 -106.5t-211 -38.5t-211 38.5zM542.5 175.5q42.5 40.5 42.5 109.5t-42.5 109.5t-117.5 40.5t-117.5 -40.5t-42.5 -109.5t42.5 -109.5
t117.5 -40.5t117.5 40.5zM256 678q-55 40 -55 112h148q3 -55 76 -55t76 55h148q0 -72 -55 -112t-169 -40t-169 40z" />
    <glyph glyph-name="Ohungarumlaut" unicode="&#x150;" horiz-adv-x="1110" 
d="M282.5 28.5q-111.5 48.5 -167 132t-55.5 189.5t55.5 189.5t167 132t272.5 48.5t272.5 -48.5t167 -132t55.5 -189.5t-55.5 -189.5t-167 -132t-272.5 -48.5t-272.5 48.5zM703.5 174.5q60.5 26.5 91 72t30.5 103.5t-30.5 103.5t-91 72t-148.5 26.5t-148.5 -26.5t-91 -72
t-30.5 -103.5t30.5 -103.5t91 -72t148.5 -26.5t148.5 26.5zM267 763h-14l-10 55l235 135h63l10 -118zM587 763h-14l-10 55l235 135h63l10 -118z" />
    <glyph glyph-name="ohungarumlaut" unicode="&#x151;" horiz-adv-x="850" 
d="M214 23.5q-87 38.5 -130.5 106.5t-43.5 155t43.5 155t130.5 106.5t211 38.5t211 -38.5t130.5 -106.5t43.5 -155t-43.5 -155t-130.5 -106.5t-211 -38.5t-211 38.5zM542.5 175.5q42.5 40.5 42.5 109.5t-42.5 109.5t-117.5 40.5t-117.5 -40.5t-42.5 -109.5t42.5 -109.5
t117.5 -40.5t117.5 40.5zM137 623h-14l-10 55l235 135h63l10 -118zM457 623h-14l-10 55l235 135h63l10 -118z" />
    <glyph glyph-name="OE" unicode="&#x152;" horiz-adv-x="1302" 
d="M857 165h395v-165h-525q-30 -8 -80.5 -14t-101.5 -6q-157 0 -266 48t-164 132t-55 190q0 105 55 189t164.5 132.5t265.5 48.5q51 0 101.5 -6t80.5 -14h505v-165h-375v-130h335v-110h-335v-130zM642 547q-53 5 -90 5q-86 0 -146.5 -26.5t-90.5 -72t-30 -103.5t30 -103.5
t90.5 -72t146.5 -26.5q35 0 90 5v394z" />
    <glyph glyph-name="oe" unicode="&#x153;" horiz-adv-x="1277" 
d="M205 24q-81 39 -123 107t-42 154t42 154t123 107t192 39q92 0 163 -29.5t103 -65.5h8q32 36 98.5 65.5t147.5 29.5q95 0 168 -38.5t112.5 -106t39.5 -152.5v-18h-452q7 -53 52.5 -84t129.5 -31q64 0 121.5 16.5t88.5 37.5v-171q-31 -20 -94.5 -36.5t-140.5 -16.5
q-92 0 -164.5 29.5t-106.5 66.5h-8q-32 -37 -103 -66.5t-163 -29.5q-111 0 -192 39zM1016 342q-4 49 -36.5 78.5t-82.5 29.5q-48 0 -80 -30.5t-36 -77.5h235zM517.5 175.5q39.5 40.5 39.5 109.5t-39.5 109.5t-106.5 40.5t-106.5 -40.5t-39.5 -109.5t39.5 -109.5t106.5 -40.5
t106.5 40.5z" />
    <glyph glyph-name="Racute" unicode="&#x154;" horiz-adv-x="902" 
d="M630 291q90 0 136 -41t46 -115v-135h-215v148q0 72 -92 72h-210v-220h-215v700h460q101 0 168.5 -28t100.5 -76.5t33 -110.5q0 -84 -56 -134.5t-156 -50.5v-9zM497 350q120 0 120 90q0 95 -120 95h-202v-185h202zM300 763h-15l-10 55l283 135h55l10 -140z" />
    <glyph glyph-name="racute" unicode="&#x155;" horiz-adv-x="547" 
d="M60 0v570h215v-90h8q24 40 74 72.5t110 32.5h55v-207h-55q-80 0 -130 -23.5t-62 -52.5v-302h-215zM133 623h-15l-10 55l283 135h55l10 -140z" />
    <glyph glyph-name="uni0156" unicode="&#x156;" horiz-adv-x="902" 
d="M630 291q90 0 136 -41t46 -115v-135h-215v148q0 72 -92 72h-210v-220h-215v700h460q101 0 168.5 -28t100.5 -76.5t33 -110.5q0 -84 -56 -134.5t-156 -50.5v-9zM497 350q120 0 120 90q0 95 -120 95h-202v-185h202zM360 -340v65h37q49 0 70.5 17.5t21.5 51.5h-5
q-6 -12 -20.5 -20.5t-37.5 -8.5q-36 0 -57.5 21t-21.5 56t25.5 59t66.5 24q49 0 77.5 -30.5t28.5 -83.5q0 -72 -40 -111.5t-113 -39.5h-32z" />
    <glyph glyph-name="uni0157" unicode="&#x157;" horiz-adv-x="547" 
d="M60 0v570h215v-90h8q24 40 74 72.5t110 32.5h55v-207h-55q-80 0 -130 -23.5t-62 -52.5v-302h-215zM81 -340v65h37q49 0 70.5 17.5t21.5 51.5h-5q-6 -12 -20.5 -20.5t-37.5 -8.5q-36 0 -57.5 21t-21.5 56t25.5 59t66.5 24q49 0 77.5 -30.5t28.5 -83.5q0 -72 -40 -111.5
t-113 -39.5h-32z" />
    <glyph glyph-name="Rcaron" unicode="&#x158;" horiz-adv-x="902" 
d="M630 291q90 0 136 -41t46 -115v-135h-215v148q0 72 -92 72h-210v-220h-215v700h460q101 0 168.5 -28t100.5 -76.5t33 -110.5q0 -84 -56 -134.5t-156 -50.5v-9zM497 350q120 0 120 90q0 95 -120 95h-202v-185h202zM542 780h-196l-169 147h169l93 -85h10l93 85h169z" />
    <glyph glyph-name="rcaron" unicode="&#x159;" horiz-adv-x="547" 
d="M60 0v570h215v-90h8q24 40 74 72.5t110 32.5h55v-207h-55q-80 0 -130 -23.5t-62 -52.5v-302h-215zM391 640h-196l-169 147h169l93 -85h10l93 85h169z" />
    <glyph glyph-name="Sacute" unicode="&#x15a;" horiz-adv-x="815" 
d="M235 1.5q-90 21.5 -134 48.5v197q53 -32 145 -58t186 -26q53 0 78 16t25 41q0 23 -22 37.5t-55.5 22t-95.5 18.5q-95 16 -156.5 34t-106 59t-44.5 112q0 61 36.5 110t115.5 78t200 29q106 0 195 -23t135 -52v-205q-50 37 -144.5 67t-202.5 30q-58 0 -84 -16t-26 -41
q0 -32 40 -46.5t127 -28.5q97 -17 159.5 -35.5t108 -61.5t45.5 -118q0 -60 -35 -107t-109 -75t-186 -28q-105 0 -195 21.5zM252 763h-15l-10 55l283 135h55l10 -140z" />
    <glyph glyph-name="sacute" unicode="&#x15b;" horiz-adv-x="680" 
d="M190 5.5q-79 20.5 -118 47.5v172q48 -27 123 -48.5t145 -21.5q43 0 61.5 11t18.5 29q0 23 -32 33.5t-100 19.5q-78 10 -130 24t-90 47.5t-38 93.5q0 77 73.5 124.5t233.5 47.5q94 0 175 -21t123 -47v-177q-54 29 -137.5 52t-160.5 23q-82 0 -82 -41q0 -24 31 -33.5
t100 -19.5q81 -12 132 -26t89 -48.5t38 -96.5q0 -45 -29.5 -82.5t-93 -60t-160.5 -22.5q-93 0 -172 20.5zM200 623h-15l-10 55l283 135h55l10 -140z" />
    <glyph glyph-name="Scircumflex" unicode="&#x15c;" horiz-adv-x="815" 
d="M235 1.5q-90 21.5 -134 48.5v197q53 -32 145 -58t186 -26q53 0 78 16t25 41q0 23 -22 37.5t-55.5 22t-95.5 18.5q-95 16 -156.5 34t-106 59t-44.5 112q0 61 36.5 110t115.5 78t200 29q106 0 195 -23t135 -52v-205q-50 37 -144.5 67t-202.5 30q-58 0 -84 -16t-26 -41
q0 -32 40 -46.5t127 -28.5q97 -17 159.5 -35.5t108 -61.5t45.5 -118q0 -60 -35 -107t-109 -75t-186 -28q-105 0 -195 21.5zM314 780h-169l169 147h196l169 -147h-169l-93 85h-10z" />
    <glyph glyph-name="scircumflex" unicode="&#x15d;" horiz-adv-x="680" 
d="M190 5.5q-79 20.5 -118 47.5v172q48 -27 123 -48.5t145 -21.5q43 0 61.5 11t18.5 29q0 23 -32 33.5t-100 19.5q-78 10 -130 24t-90 47.5t-38 93.5q0 77 73.5 124.5t233.5 47.5q94 0 175 -21t123 -47v-177q-54 29 -137.5 52t-160.5 23q-82 0 -82 -41q0 -24 31 -33.5
t100 -19.5q81 -12 132 -26t89 -48.5t38 -96.5q0 -45 -29.5 -82.5t-93 -60t-160.5 -22.5q-93 0 -172 20.5zM247 640h-169l169 147h196l169 -147h-169l-93 85h-10z" />
    <glyph glyph-name="Scedilla" unicode="&#x15e;" horiz-adv-x="815" 
d="M683.5 42.5q-76.5 -58.5 -233.5 -62.5l-14 -46h28q56 0 86 -24.5t30 -65.5q0 -47 -39 -75.5t-113 -28.5q-63 0 -121 16v94q57 -15 93 -15q50 0 50 23q0 10 -7.5 15.5t-22.5 5.5h-81l-20 21l25 84q-79 8 -144 26.5t-99 39.5v197q53 -32 145 -58t186 -26q53 0 78 16t25 41
q0 23 -22 37.5t-55.5 22t-95.5 18.5q-95 16 -156.5 34t-106 59t-44.5 112q0 61 36.5 110t115.5 78t200 29q106 0 195 -23t135 -52v-205q-50 37 -144.5 67t-202.5 30q-58 0 -84 -16t-26 -41q0 -32 40 -46.5t127 -28.5q97 -17 159.5 -35.5t108 -61.5t45.5 -118
q0 -89 -76.5 -147.5z" />
    <glyph glyph-name="scedilla" unicode="&#x15f;" horiz-adv-x="680" 
d="M618 70.5q-27 -36.5 -85.5 -59.5t-147.5 -26l-16 -51h28q56 0 86 -24.5t30 -65.5q0 -47 -39 -75.5t-113 -28.5q-63 0 -121 16v94q57 -15 93 -15q50 0 50 23q0 10 -7.5 15.5t-22.5 5.5h-81l-20 21l27 90q-67 8 -122 25.5t-85 37.5v172q48 -27 123 -48.5t145 -21.5
q43 0 61.5 11t18.5 29q0 23 -32 33.5t-100 19.5q-78 10 -130 24t-90 47.5t-38 93.5q0 77 73.5 124.5t233.5 47.5q94 0 175 -21t123 -47v-177q-54 29 -137.5 52t-160.5 23q-82 0 -82 -41q0 -24 31 -33.5t100 -19.5q81 -12 132 -26t89 -48.5t38 -96.5q0 -43 -27 -79.5z" />
    <glyph glyph-name="Scaron" unicode="&#x160;" horiz-adv-x="815" 
d="M235 1.5q-90 21.5 -134 48.5v197q53 -32 145 -58t186 -26q53 0 78 16t25 41q0 23 -22 37.5t-55.5 22t-95.5 18.5q-95 16 -156.5 34t-106 59t-44.5 112q0 61 36.5 110t115.5 78t200 29q106 0 195 -23t135 -52v-205q-50 37 -144.5 67t-202.5 30q-58 0 -84 -16t-26 -41
q0 -32 40 -46.5t127 -28.5q97 -17 159.5 -35.5t108 -61.5t45.5 -118q0 -60 -35 -107t-109 -75t-186 -28q-105 0 -195 21.5zM510 780h-196l-169 147h169l93 -85h10l93 85h169z" />
    <glyph glyph-name="scaron" unicode="&#x161;" horiz-adv-x="680" 
d="M190 5.5q-79 20.5 -118 47.5v172q48 -27 123 -48.5t145 -21.5q43 0 61.5 11t18.5 29q0 23 -32 33.5t-100 19.5q-78 10 -130 24t-90 47.5t-38 93.5q0 77 73.5 124.5t233.5 47.5q94 0 175 -21t123 -47v-177q-54 29 -137.5 52t-160.5 23q-82 0 -82 -41q0 -24 31 -33.5
t100 -19.5q81 -12 132 -26t89 -48.5t38 -96.5q0 -45 -29.5 -82.5t-93 -60t-160.5 -22.5q-93 0 -172 20.5zM443 640h-196l-169 147h169l93 -85h10l93 85h169z" />
    <glyph glyph-name="uni0162" unicode="&#x162;" horiz-adv-x="805" 
d="M510 0h-54l-20 -66h28q56 0 86 -24.5t30 -65.5q0 -47 -39 -75.5t-113 -28.5q-63 0 -121 16v94q57 -15 93 -15q50 0 50 23q0 10 -7.5 15.5t-22.5 5.5h-81l-20 21l30 100h-54v520h-280v180h775v-180h-280v-520z" />
    <glyph glyph-name="uni0163" unicode="&#x163;" horiz-adv-x="513" 
d="M478 498h-173v-254q0 -42 24 -64.5t67 -22.5q42 0 82 12v-167q-39 -10 -66.5 -13.5t-61.5 -3.5l-16 -51h28q56 0 86 -24.5t30 -65.5q0 -47 -39 -75.5t-113 -28.5q-63 0 -121 16v94q57 -15 93 -15q50 0 50 23q0 10 -7.5 15.5t-22.5 5.5h-81l-20 21l29 97
q-75 22 -115.5 80.5t-40.5 151.5v269h-90v72h43q26 0 36.5 11.5t10.5 41.5v85h215v-138h173v-72z" />
    <glyph glyph-name="Tcaron" unicode="&#x164;" horiz-adv-x="805" 
d="M15 700h775v-180h-280v-520h-215v520h-280v180zM501 780h-196l-169 147h169l93 -85h10l93 85h169z" />
    <glyph glyph-name="tcaron" unicode="&#x165;" horiz-adv-x="557" 
d="M370.5 705q25.5 25 66.5 25q49 0 77 -32.5t28 -96.5q0 -104 -43.5 -155t-121.5 -51h-27v115h40q51 0 75.5 20t24.5 54h-5q-7 -12 -22.5 -20.5t-37.5 -8.5q-38 0 -59 22t-21 63q0 40 25.5 65zM156 47.5q-66 62.5 -66 181.5v269h-90v72h43q26 0 36.5 11.5t10.5 41.5v85h215
v-464q0 -42 24 -64.5t67 -22.5q42 0 82 12v-167q-40 -10 -68.5 -13.5t-68.5 -3.5q-119 0 -185 62.5z" />
    <glyph glyph-name="Tbar" unicode="&#x166;" horiz-adv-x="805" 
d="M790 700v-180h-280v-112h140v-110h-140v-298h-215v298h-140v110h140v112h-280v180h775z" />
    <glyph glyph-name="tbar" unicode="&#x167;" horiz-adv-x="543" 
d="M498 498h-173v-93h173v-72h-173v-89q0 -42 24 -64.5t67 -22.5q42 0 82 12v-167q-40 -10 -68.5 -13.5t-68.5 -3.5q-119 0 -185 62.5t-66 181.5v104h-90v72h90v93h-90v72h43q26 0 36.5 11.5t10.5 41.5v85h215v-138h173v-72z" />
    <glyph glyph-name="Utilde" unicode="&#x168;" horiz-adv-x="936" 
d="M75 308v392h215v-377q0 -81 43.5 -122t134.5 -41t134.5 41t43.5 122v377h215v-392q0 -328 -393 -328t-393 328zM532 783q-23 10 -52 29q-16 12 -27 17.5t-23 5.5q-27 0 -27 -30v-27h-160v51q0 50 27 77t77 27q34 0 57 -10t52 -29q16 -12 27 -17.5t23 -5.5q27 0 27 30v27
h160v-53q0 -49 -27 -75.5t-77 -26.5q-34 0 -57 10z" />
    <glyph glyph-name="utilde" unicode="&#x169;" 
d="M114 42.5q-59 57.5 -59 160.5v367h215v-320q0 -52 29 -81t81 -29q44 0 79 22.5t51 49.5v358h215v-570h-215v86h-9q-25 -38 -83.5 -69.5t-135.5 -31.5q-109 0 -168 57.5zM454 643q-23 10 -52 29q-16 12 -27 17.5t-23 5.5q-27 0 -27 -30v-27h-160v51q0 50 27 77t77 27
q34 0 57 -10t52 -29q16 -12 27 -17.5t23 -5.5q27 0 27 30v27h160v-53q0 -49 -27 -75.5t-77 -26.5q-34 0 -57 10z" />
    <glyph glyph-name="Umacron" unicode="&#x16a;" horiz-adv-x="936" 
d="M75 308v392h215v-377q0 -81 43.5 -122t134.5 -41t134.5 41t43.5 122v377h215v-392q0 -328 -393 -328t-393 328zM680 790h-424v122h424v-122z" />
    <glyph glyph-name="umacron" unicode="&#x16b;" 
d="M114 42.5q-59 57.5 -59 160.5v367h215v-320q0 -52 29 -81t81 -29q44 0 79 22.5t51 49.5v358h215v-570h-215v86h-9q-25 -38 -83.5 -69.5t-135.5 -31.5q-109 0 -168 57.5zM602 650h-424v122h424v-122z" />
    <glyph glyph-name="Ubreve" unicode="&#x16c;" horiz-adv-x="936" 
d="M75 308v392h215v-377q0 -81 43.5 -122t134.5 -41t134.5 41t43.5 122v377h215v-392q0 -328 -393 -328t-393 328zM299 818q-55 40 -55 112h148q3 -55 76 -55t76 55h148q0 -72 -55 -112t-169 -40t-169 40z" />
    <glyph glyph-name="ubreve" unicode="&#x16d;" 
d="M114 42.5q-59 57.5 -59 160.5v367h215v-320q0 -52 29 -81t81 -29q44 0 79 22.5t51 49.5v358h215v-570h-215v86h-9q-25 -38 -83.5 -69.5t-135.5 -31.5q-109 0 -168 57.5zM221 678q-55 40 -55 112h148q3 -55 76 -55t76 55h148q0 -72 -55 -112t-169 -40t-169 40z" />
    <glyph glyph-name="Uring" unicode="&#x16e;" horiz-adv-x="936" 
d="M75 308v392h215v-377q0 -81 43.5 -122t134.5 -41t134.5 41t43.5 122v377h215v-392q0 -328 -393 -328t-393 328zM355 778.5q-39 31.5 -39 83.5t39 83.5t113 31.5t113 -31.5t39 -83.5t-39 -83.5t-113 -31.5t-113 31.5zM507 836q13 10 13 26t-13 26t-39 10t-39 -10t-13 -26
t13 -26t39 -10t39 10z" />
    <glyph glyph-name="uring" unicode="&#x16f;" 
d="M114 42.5q-59 57.5 -59 160.5v367h215v-320q0 -52 29 -81t81 -29q44 0 79 22.5t51 49.5v358h215v-570h-215v86h-9q-25 -38 -83.5 -69.5t-135.5 -31.5q-109 0 -168 57.5zM277 638.5q-39 31.5 -39 83.5t39 83.5t113 31.5t113 -31.5t39 -83.5t-39 -83.5t-113 -31.5
t-113 31.5zM429 696q13 10 13 26t-13 26t-39 10t-39 -10t-13 -26t13 -26t39 -10t39 10z" />
    <glyph glyph-name="Uhungarumlaut" unicode="&#x170;" horiz-adv-x="936" 
d="M75 308v392h215v-377q0 -81 43.5 -122t134.5 -41t134.5 41t43.5 122v377h215v-392q0 -328 -393 -328t-393 328zM189 763h-14l-10 55l235 135h63l10 -118zM509 763h-14l-10 55l235 135h63l10 -118z" />
    <glyph glyph-name="uhungarumlaut" unicode="&#x171;" 
d="M114 42.5q-59 57.5 -59 160.5v367h215v-320q0 -52 29 -81t81 -29q44 0 79 22.5t51 49.5v358h215v-570h-215v86h-9q-25 -38 -83.5 -69.5t-135.5 -31.5q-109 0 -168 57.5zM126 623h-14l-10 55l235 135h63l10 -118zM446 623h-14l-10 55l235 135h63l10 -118z" />
    <glyph glyph-name="Uogonek" unicode="&#x172;" horiz-adv-x="936" 
d="M646 700h215v-392q0 -120 -55 -197t-168 -111q-53 -16 -92.5 -42t-39.5 -51q0 -29 51 -29q34 0 73 7v-107q-49 -8 -107 -8q-72 0 -106.5 25t-34.5 66q0 61 80 113v6q-197 1 -292 85.5t-95 242.5v392h215v-377q0 -81 43.5 -122t134.5 -41t134.5 41t43.5 122v377z" />
    <glyph glyph-name="uogonek" unicode="&#x173;" 
d="M730 -115v-107q-49 -8 -107 -8q-72 0 -106.5 25t-34.5 66q0 42 33 76t84 58v5h-89v86h-9q-25 -38 -83.5 -69.5t-135.5 -31.5q-109 0 -168 57.5t-59 160.5v367h215v-320q0 -52 29 -81t81 -29q44 0 79 22.5t51 49.5v358h215v-570q-48 -20 -83.5 -44.5t-35.5 -48.5
q0 -29 51 -29q34 0 73 7z" />
    <glyph glyph-name="Wcircumflex" unicode="&#x174;" horiz-adv-x="1324" 
d="M525 0h-317l-198 700h227l147 -528h9l159 528h220l159 -528h9l147 528h227l-198 -700h-316l-133 472h-10zM564 780h-169l169 147h196l169 -147h-169l-93 85h-10z" />
    <glyph glyph-name="wcircumflex" unicode="&#x175;" horiz-adv-x="1083" 
d="M434 0h-261l-168 570h212l107 -378h5l118 378h189l118 -378h5l107 378h212l-168 -570h-260l-105 338h-6zM444 640h-169l169 147h196l169 -147h-169l-93 85h-10z" />
    <glyph glyph-name="Ycircumflex" unicode="&#x176;" horiz-adv-x="895" 
d="M555 0h-215v148l-360 552h239l224 -347h9l224 347h239l-360 -552v-148zM350 780h-169l169 147h196l169 -147h-169l-93 85h-10z" />
    <glyph glyph-name="ycircumflex" unicode="&#x177;" horiz-adv-x="733" 
d="M378 -190h-223l123 259l-283 501h231l152 -279h7l127 279h226zM275 640h-169l169 147h196l169 -147h-169l-93 85h-10z" />
    <glyph glyph-name="Ydieresis" unicode="&#x178;" horiz-adv-x="895" 
d="M555 0h-215v148l-360 552h239l224 -347h9l224 347h239l-360 -552v-148zM233.5 787.5q-29.5 27.5 -29.5 67.5t29.5 67.5t75.5 27.5t75.5 -27.5t29.5 -67.5t-29.5 -67.5t-75.5 -27.5t-75.5 27.5zM511.5 787.5q-29.5 27.5 -29.5 67.5t29.5 67.5t75.5 27.5t75.5 -27.5
t29.5 -67.5t-29.5 -67.5t-75.5 -27.5t-75.5 27.5z" />
    <glyph glyph-name="Zacute" unicode="&#x179;" horiz-adv-x="862" 
d="M802 0h-732v209l435 272v9h-433v210h710v-209l-435 -272v-9h455v-210zM290 763h-15l-10 55l283 135h55l10 -140z" />
    <glyph glyph-name="zacute" unicode="&#x17a;" horiz-adv-x="698" 
d="M648 0h-602v174l390 212v9h-386v175h598v-174l-391 -212v-9h391v-175zM210 623h-15l-10 55l283 135h55l10 -140z" />
    <glyph glyph-name="Zdotaccent" unicode="&#x17b;" horiz-adv-x="862" 
d="M802 0h-732v209l435 272v9h-433v210h710v-209l-435 -272v-9h455v-210zM341.5 790.5q-32.5 28.5 -32.5 71.5t32.5 71.5t87.5 28.5t87.5 -28.5t32.5 -71.5t-32.5 -71.5t-87.5 -28.5t-87.5 28.5z" />
    <glyph glyph-name="zdotaccent" unicode="&#x17c;" horiz-adv-x="698" 
d="M648 0h-602v174l390 212v9h-386v175h598v-174l-391 -212v-9h391v-175zM261.5 650.5q-32.5 28.5 -32.5 71.5t32.5 71.5t87.5 28.5t87.5 -28.5t32.5 -71.5t-32.5 -71.5t-87.5 -28.5t-87.5 28.5z" />
    <glyph glyph-name="Zcaron" unicode="&#x17d;" horiz-adv-x="862" 
d="M802 0h-732v209l435 272v9h-433v210h710v-209l-435 -272v-9h455v-210zM527 780h-196l-169 147h169l93 -85h10l93 85h169z" />
    <glyph glyph-name="zcaron" unicode="&#x17e;" horiz-adv-x="698" 
d="M648 0h-602v174l390 212v9h-386v175h598v-174l-391 -212v-9h391v-175zM447 640h-196l-169 147h169l93 -85h10l93 85h169z" />
    <glyph glyph-name="uni018F" unicode="&#x18f;" horiz-adv-x="1070" 
d="M787.5 671q110.5 -49 166.5 -132.5t56 -188.5t-55 -189t-163 -132.5t-262 -48.5q-149 0 -255 49t-160.5 135t-54.5 196v33h720q-16 73 -90 116t-210 43q-99 0 -193 -23.5t-155 -52.5v177q64 25 168 46t220 21q157 0 267.5 -49zM693.5 174.5q61.5 39.5 82.5 108.5h-491
q16 -68 78.5 -108t171.5 -40q97 0 158.5 39.5z" />
    <glyph glyph-name="florin" unicode="&#x192;" horiz-adv-x="636" 
d="M-80 -190l37 175h85q38 0 53.5 13t23.5 49l74 346h-105l15 72h105l15 70q21 97 75.5 141t157.5 44h195l-37 -172h-116q-33 0 -48 -12.5t-21 -42.5l-6 -28h152l-15 -72h-152l-82 -384q-22 -99 -83.5 -149t-171.5 -50h-151z" />
    <glyph glyph-name="uni01F4" unicode="&#x1f4;" horiz-adv-x="988" 
d="M280.5 28.5q-109.5 48.5 -165 132t-55.5 189.5t56 189.5t167.5 132t273.5 48.5q120 0 217.5 -20.5t153.5 -47.5v-178q-53 30 -147 54t-204 24q-145 0 -218.5 -56t-73.5 -146q0 -58 31 -103.5t95 -72t159 -26.5q68 0 125.5 13t87.5 29v52h-278v130h418v-299
q-51 -35 -153.5 -64t-222.5 -29q-157 0 -266.5 48.5zM360 763h-15l-10 55l283 135h55l10 -140z" />
    <glyph glyph-name="uni01F5" unicode="&#x1f5;" horiz-adv-x="825" 
d="M213.5 -189q-78.5 16 -121.5 36v177q40 -22 108 -40.5t140 -18.5q104 0 157 43.5t53 116.5v16h-9q-26 -35 -84.5 -62.5t-134.5 -27.5q-86 0 -149.5 33.5t-98 94t-34.5 139.5t34.5 139.5t98 94t149.5 33.5q76 0 134.5 -27.5t84.5 -62.5h9v75h215v-445q0 -156 -97.5 -243
t-287.5 -87q-88 0 -166.5 16zM491 219.5q40 18.5 59 41.5v114q-19 23 -59 41.5t-89 18.5q-68 0 -102.5 -30.5t-34.5 -86.5t34.5 -86.5t102.5 -30.5q49 0 89 18.5zM242 623h-15l-10 55l283 135h55l10 -140z" />
    <glyph glyph-name="Aringacute" unicode="&#x1fa;" horiz-adv-x="949" 
d="M709 0l-66 143h-337l-66 -143h-240l334 700h20q-31 30 -31 77q0 61 60 98l176 110h45l10 -100l-53 -11q30 -12 48 -38t18 -59q0 -47 -31 -77h19l334 -700h-240zM436 803q-13 -10 -13 -26t13 -26t39 -10t39 10t13 26t-13 26t-39 10t-39 -10zM470 500l-114 -247h237
l-114 247h-9z" />
    <glyph glyph-name="aringacute" unicode="&#x1fb;" horiz-adv-x="772" 
d="M272 638.5q-39 31.5 -39 83.5q0 61 60 98l176 110h45l10 -100l-53 -11q30 -12 48 -38t18 -59q0 -52 -39 -83.5t-113 -31.5t-113 31.5zM424 696q13 10 13 26t-13 26t-39 10t-39 -10t-13 -26t13 -26t39 -10t39 10zM87.5 27.5q-52.5 42.5 -52.5 112.5q0 82 68 126.5
t224 49.5q75 2 112.5 8t50 15t12.5 24q0 24 -31 38t-111 14q-82 0 -159.5 -19t-123.5 -42v171q43 23 125.5 41.5t177.5 18.5q175 0 256 -60t81 -165v-360h-215v78h-8q-34 -36 -102 -64.5t-150 -28.5q-102 0 -154.5 42.5zM437 144q43 16 65 36v91q-11 -9 -44.5 -17t-82.5 -10
q-115 -5 -115 -62q0 -25 20 -39.5t62 -14.5q52 0 95 16z" />
    <glyph glyph-name="AEacute" unicode="&#x1fc;" horiz-adv-x="1208" 
d="M778 295v-130h380v-165h-595v178h-262l-80 -178h-231l314 700h834v-165h-360v-130h320v-110h-320zM461 535l-111 -247h213v247h-102zM578 763h-15l-10 55l283 135h55l10 -140z" />
    <glyph glyph-name="aeacute" unicode="&#x1fd;" horiz-adv-x="1190" 
d="M1150 256h-450q12 -51 53.5 -76t126.5 -25q64 0 121 15.5t89 34.5v-171q-31 -19 -96 -34t-144 -15q-100 0 -176 28t-124 80h-11q-27 -30 -94.5 -69t-174.5 -39q-120 0 -177.5 44.5t-57.5 122.5q0 84 63.5 130t208.5 46h168q0 31 -9 49.5t-37 28t-82 9.5q-79 0 -153 -16
t-117 -36v173q44 18 121 33.5t162 15.5q67 0 118 -12.5t82 -31.5t41 -38h8q27 31 88 56.5t140 25.5q92 0 163.5 -39t110.5 -110t39 -163v-17zM928 328q-2 56 -32.5 89t-80.5 33q-52 0 -83 -32.5t-36 -89.5h232zM442.5 141q36.5 13 57.5 30q-16 36 -23 85h-115q-52 0 -77 -18
t-25 -46q0 -29 22.5 -46.5t69.5 -17.5q54 0 90.5 13zM473 623h-15l-10 55l283 135h55l10 -140z" />
    <glyph glyph-name="Oslashacute" unicode="&#x1fe;" horiz-adv-x="1110" 
d="M933 608q58 -49 87.5 -115t29.5 -143q0 -106 -55.5 -189.5t-167 -132t-272.5 -48.5q-167 0 -286 54l-40 -34h-159l107 92q-58 50 -87.5 116t-29.5 142q0 106 55.5 189.5t167 132t272.5 48.5q167 0 285 -54l40 34h159zM332 226l354 306q-55 20 -131 20q-88 0 -148.5 -26.5
t-91 -72t-30.5 -103.5q0 -74 47 -124zM703.5 174.5q60.5 26.5 91 72t30.5 103.5q0 72 -47 124l-355 -306q57 -20 132 -20q88 0 148.5 26.5zM395 763h-15l-10 55l283 135h55l10 -140z" />
    <glyph glyph-name="oslashacute" unicode="&#x1ff;" horiz-adv-x="850" 
d="M706 505q51 -40 77.5 -96.5t26.5 -123.5q0 -87 -43.5 -155t-130.5 -106.5t-211 -38.5q-138 0 -231 48l-36 -33h-86l71 66q-51 39 -77 95.5t-26 123.5q0 87 43.5 155t130.5 106.5t211 38.5q136 0 230 -47l35 32h86zM288 199l231 213q-38 23 -94 23q-75 0 -117.5 -40.5
t-42.5 -109.5q0 -49 23 -86zM542.5 175.5q42.5 40.5 42.5 109.5q0 51 -24 87l-231 -213q38 -24 95 -24q75 0 117.5 40.5zM265 623h-15l-10 55l283 135h55l10 -140z" />
    <glyph glyph-name="uni0218" unicode="&#x218;" horiz-adv-x="815" 
d="M235 1.5q-90 21.5 -134 48.5v197q53 -32 145 -58t186 -26q53 0 78 16t25 41q0 23 -22 37.5t-55.5 22t-95.5 18.5q-95 16 -156.5 34t-106 59t-44.5 112q0 61 36.5 110t115.5 78t200 29q106 0 195 -23t135 -52v-205q-50 37 -144.5 67t-202.5 30q-58 0 -84 -16t-26 -41
q0 -32 40 -46.5t127 -28.5q97 -17 159.5 -35.5t108 -61.5t45.5 -118q0 -60 -35 -107t-109 -75t-186 -28q-105 0 -195 21.5zM344 -340v65h37q49 0 70.5 17.5t21.5 51.5h-5q-6 -12 -20.5 -20.5t-37.5 -8.5q-36 0 -57.5 21t-21.5 56t25.5 59t66.5 24q49 0 77.5 -30.5
t28.5 -83.5q0 -72 -40 -111.5t-113 -39.5h-32z" />
    <glyph glyph-name="uni0219" unicode="&#x219;" horiz-adv-x="680" 
d="M190 5.5q-79 20.5 -118 47.5v172q48 -27 123 -48.5t145 -21.5q43 0 61.5 11t18.5 29q0 23 -32 33.5t-100 19.5q-78 10 -130 24t-90 47.5t-38 93.5q0 77 73.5 124.5t233.5 47.5q94 0 175 -21t123 -47v-177q-54 29 -137.5 52t-160.5 23q-82 0 -82 -41q0 -24 31 -33.5
t100 -19.5q81 -12 132 -26t89 -48.5t38 -96.5q0 -45 -29.5 -82.5t-93 -60t-160.5 -22.5q-93 0 -172 20.5zM274 -340v65h37q49 0 70.5 17.5t21.5 51.5h-5q-6 -12 -20.5 -20.5t-37.5 -8.5q-36 0 -57.5 21t-21.5 56t25.5 59t66.5 24q49 0 77.5 -30.5t28.5 -83.5
q0 -72 -40 -111.5t-113 -39.5h-32z" />
    <glyph glyph-name="uni021A" unicode="&#x21a;" horiz-adv-x="805" 
d="M15 700h775v-180h-280v-520h-215v520h-280v180zM317 -340v65h37q49 0 70.5 17.5t21.5 51.5h-5q-6 -12 -20.5 -20.5t-37.5 -8.5q-36 0 -57.5 21t-21.5 56t25.5 59t66.5 24q49 0 77.5 -30.5t28.5 -83.5q0 -72 -40 -111.5t-113 -39.5h-32z" />
    <glyph glyph-name="uni021B" unicode="&#x21b;" horiz-adv-x="513" 
d="M156 47.5q-66 62.5 -66 181.5v269h-90v72h43q26 0 36.5 11.5t10.5 41.5v85h215v-138h173v-72h-173v-254q0 -42 24 -64.5t67 -22.5q42 0 82 12v-167q-40 -10 -68.5 -13.5t-68.5 -3.5q-119 0 -185 62.5zM192 -340v65h37q49 0 70.5 17.5t21.5 51.5h-5q-6 -12 -20.5 -20.5
t-37.5 -8.5q-36 0 -57.5 21t-21.5 56t25.5 59t66.5 24q49 0 77.5 -30.5t28.5 -83.5q0 -72 -40 -111.5t-113 -39.5h-32z" />
    <glyph glyph-name="uni0232" unicode="&#x232;" horiz-adv-x="895" 
d="M555 0h-215v148l-360 552h239l224 -347h9l224 347h239l-360 -552v-148zM660 790h-424v122h424v-122z" />
    <glyph glyph-name="uni0233" unicode="&#x233;" horiz-adv-x="733" 
d="M378 -190h-223l123 259l-283 501h231l152 -279h7l127 279h226zM585 650h-424v122h424v-122z" />
    <glyph glyph-name="uni0237" unicode="&#x237;" horiz-adv-x="335" 
d="M-21.5 -201q-32.5 4 -73.5 14v153q41 -12 74 -12q39 0 60 23t21 68v525h215v-538q0 -110 -55.5 -173.5t-170.5 -63.5q-38 0 -70.5 4z" />
    <glyph glyph-name="uni0244" unicode="&#x244;" horiz-adv-x="992" 
d="M987 510v-110h-98v-92q0 -328 -393 -328t-393 328v92h-98v110h98v190h215v-190h356v190h215v-190h98zM674 400h-356v-77q0 -81 43.5 -122t134.5 -41t134.5 41t43.5 122v77z" />
    <glyph glyph-name="uni0259" unicode="&#x259;" horiz-adv-x="822" 
d="M603 546q89 -39 134 -107t45 -154q0 -89 -42 -156.5t-126 -105.5t-204 -38q-117 0 -200.5 39t-126.5 107t-43 154v15h514q-11 54 -62.5 84.5t-146.5 30.5q-70 0 -135 -16t-108 -36v174q45 18 121.5 33t163.5 15q127 0 216 -39zM506.5 147.5q36.5 27.5 46.5 80.5h-291
q8 -49 44.5 -78.5t103.5 -29.5q60 0 96.5 27.5z" />
    <glyph glyph-name="uni0289" unicode="&#x289;" horiz-adv-x="840" 
d="M835 425v-72h-80v-353h-215v86h-9q-25 -38 -83.5 -69.5t-135.5 -31.5q-109 0 -168 57.5t-59 160.5v150h-80v72h80v145h215v-145h240v145h215v-145h80zM540 353h-240v-103q0 -52 29 -81t81 -29q44 0 79 22.5t51 49.5v141z" />
    <glyph glyph-name="uni02BC" unicode="&#x2bc;" horiz-adv-x="258" 
d="M55.5 710q25.5 25 66.5 25q51 0 78.5 -32.5t27.5 -97.5q0 -103 -43.5 -154t-121.5 -51h-28v115h40q51 0 75.5 19.5t24.5 53.5h-5q-7 -12 -22 -20.5t-37 -8.5q-37 0 -59 23t-22 64q0 39 25.5 64z" />
    <glyph glyph-name="circumflex" unicode="&#x2c6;" horiz-adv-x="594" 
d="M199 583h-169l169 147h196l169 -147h-169l-93 85h-10z" />
    <glyph glyph-name="caron" unicode="&#x2c7;" horiz-adv-x="594" 
d="M395 583h-196l-169 147h169l93 -85h10l93 85h169z" />
    <glyph glyph-name="breve" unicode="&#x2d8;" horiz-adv-x="508" 
d="M85 623q-55 40 -55 112h148q3 -55 76 -55t76 55h148q0 -72 -55 -112t-169 -40t-169 40z" />
    <glyph glyph-name="dotaccent" unicode="&#x2d9;" horiz-adv-x="300" 
d="M62.5 583.5q-32.5 28.5 -32.5 71.5t32.5 71.5t87.5 28.5t87.5 -28.5t32.5 -71.5t-32.5 -71.5t-87.5 -28.5t-87.5 28.5z" />
    <glyph glyph-name="ring" unicode="&#x2da;" horiz-adv-x="364" 
d="M69 571.5q-39 31.5 -39 83.5t39 83.5t113 31.5t113 -31.5t39 -83.5t-39 -83.5t-113 -31.5t-113 31.5zM221 629q13 10 13 26t-13 26t-39 10t-39 -10t-13 -26t13 -26t39 -10t39 10z" />
    <glyph glyph-name="ogonek" unicode="&#x2db;" horiz-adv-x="308" 
d="M64.5 -205q-34.5 25 -34.5 66q0 74 117 134v17l126 -12q-48 -20 -83.5 -44.5t-35.5 -48.5q0 -29 51 -29q34 0 73 7v-107q-49 -8 -107 -8q-72 0 -106.5 25z" />
    <glyph glyph-name="tilde" unicode="&#x2dc;" horiz-adv-x="510" 
d="M319 588q-23 10 -52 29q-16 12 -27 17.5t-23 5.5q-27 0 -27 -30v-27h-160v51q0 50 27 77t77 27q34 0 57 -10t52 -29q16 -12 27 -17.5t23 -5.5q27 0 27 30v27h160v-53q0 -49 -27 -75.5t-77 -26.5q-34 0 -57 10z" />
    <glyph glyph-name="hungarumlaut" unicode="&#x2dd;" horiz-adv-x="688" 
d="M54 563h-14l-10 55l235 135h63l10 -118zM374 563h-14l-10 55l235 135h63l10 -118z" />
    <glyph glyph-name="gravecomb" unicode="&#x300;" horiz-adv-x="0" 
d="M-40 563h-15l-323 50l10 140h55l283 -135z" />
    <glyph glyph-name="acutecomb" unicode="&#x301;" horiz-adv-x="0" 
d="M-353 563h-15l-10 55l283 135h55l10 -140z" />
    <glyph glyph-name="uni0302" unicode="&#x302;" horiz-adv-x="0" 
d="M-395 583h-169l169 147h196l169 -147h-169l-93 85h-10z" />
    <glyph glyph-name="tildecomb" unicode="&#x303;" horiz-adv-x="0" 
d="M-191 588q-23 10 -52 29q-16 12 -27 17.5t-23 5.5q-27 0 -27 -30v-27h-160v51q0 50 27 77t77 27q34 0 57 -10t52 -29q16 -12 27 -17.5t23 -5.5q27 0 27 30v27h160v-53q0 -49 -27 -75.5t-77 -26.5q-34 0 -57 10z" />
    <glyph glyph-name="uni0304" unicode="&#x304;" horiz-adv-x="0" 
d="M-30 598h-424v122h424v-122z" />
    <glyph glyph-name="uni0306" unicode="&#x306;" horiz-adv-x="0" 
d="M-423 623q-55 40 -55 112h148q3 -55 76 -55t76 55h148q0 -72 -55 -112t-169 -40t-169 40z" />
    <glyph glyph-name="uni0307" unicode="&#x307;" horiz-adv-x="0" 
d="M-237.5 583.5q-32.5 28.5 -32.5 71.5t32.5 71.5t87.5 28.5t87.5 -28.5t32.5 -71.5t-32.5 -71.5t-87.5 -28.5t-87.5 28.5z" />
    <glyph glyph-name="uni0308" unicode="&#x308;" horiz-adv-x="0" 
d="M-488.5 587.5q-29.5 27.5 -29.5 67.5t29.5 67.5t75.5 27.5t75.5 -27.5t29.5 -67.5t-29.5 -67.5t-75.5 -27.5t-75.5 27.5zM-210.5 587.5q-29.5 27.5 -29.5 67.5t29.5 67.5t75.5 27.5t75.5 -27.5t29.5 -67.5t-29.5 -67.5t-75.5 -27.5t-75.5 27.5z" />
    <glyph glyph-name="uni030A" unicode="&#x30a;" horiz-adv-x="0" 
d="M-295 571.5q-39 31.5 -39 83.5t39 83.5t113 31.5t113 -31.5t39 -83.5t-39 -83.5t-113 -31.5t-113 31.5zM-143 629q13 10 13 26t-13 26t-39 10t-39 -10t-13 -26t13 -26t39 -10t39 10z" />
    <glyph glyph-name="uni030B" unicode="&#x30b;" horiz-adv-x="0" 
d="M-634 563h-14l-10 55l235 135h63l10 -118zM-314 563h-14l-10 55l235 135h63l10 -118z" />
    <glyph glyph-name="uni030C" unicode="&#x30c;" horiz-adv-x="0" 
d="M-199 583h-196l-169 147h169l93 -85h10l93 85h169z" />
    <glyph glyph-name="uni0326" unicode="&#x326;" horiz-adv-x="0" 
d="M-215 -310v65h37q49 0 70.5 17.5t21.5 51.5h-5q-6 -12 -20.5 -20.5t-37.5 -8.5q-36 0 -57.5 21t-21.5 56t25.5 59t66.5 24q49 0 77.5 -30.5t28.5 -83.5q0 -72 -40 -111.5t-113 -39.5h-32z" />
    <glyph glyph-name="uni0327" unicode="&#x327;" horiz-adv-x="0" 
d="M-146 -66q56 0 86 -24.5t30 -65.5q0 -47 -39 -75.5t-113 -28.5q-63 0 -121 16v94q57 -15 93 -15q50 0 50 23q0 10 -7.5 15.5t-22.5 5.5h-81l-20 21l32 106l105 -6l-20 -66h28z" />
    <glyph glyph-name="uni0328" unicode="&#x328;" horiz-adv-x="0" 
d="M-243.5 -205q-34.5 25 -34.5 66q0 74 117 134v17l126 -12q-48 -20 -83.5 -44.5t-35.5 -48.5q0 -29 51 -29q34 0 73 7v-107q-49 -8 -107 -8q-72 0 -106.5 25z" />
    <glyph glyph-name="uni0400" unicode="&#x400;" horiz-adv-x="767" 
d="M295 295v-130h422v-165h-637v700h617v-165h-402v-130h362v-110h-362zM563 763h-15l-323 50l10 140h55l283 -135z" />
    <glyph glyph-name="uni0401" unicode="&#x401;" horiz-adv-x="767" 
d="M295 295v-130h422v-165h-637v700h617v-165h-402v-130h362v-110h-362zM174.5 787.5q-29.5 27.5 -29.5 67.5t29.5 67.5t75.5 27.5t75.5 -27.5t29.5 -67.5t-29.5 -67.5t-75.5 -27.5t-75.5 27.5zM452.5 787.5q-29.5 27.5 -29.5 67.5t29.5 67.5t75.5 27.5t75.5 -27.5
t29.5 -67.5t-29.5 -67.5t-75.5 -27.5t-75.5 27.5z" />
    <glyph glyph-name="uni0402" unicode="&#x402;" horiz-adv-x="1032" 
d="M918 363q79 -57 79 -153q0 -102 -76.5 -163.5t-227.5 -61.5q-62 0 -106 7v160q34 -7 79 -7q51 0 78.5 21t27.5 58q0 36 -28.5 56t-85.5 20t-107 -6.5t-101 -23.5v-270h-215v535h-220v165h685v-165h-250v-148q106 33 226 33q163 0 242 -57z" />
    <glyph glyph-name="uni0403" unicode="&#x403;" horiz-adv-x="757" 
d="M295 0h-215v700h662v-180h-447v-520zM272 763h-15l-10 55l283 135h55l10 -140z" />
    <glyph glyph-name="uni0404" unicode="&#x404;" horiz-adv-x="915" 
d="M378 511.5q-67 -40.5 -86 -108.5h308v-110h-307q20 -66 84.5 -105.5t164.5 -39.5q90 0 164.5 23.5t113.5 53.5v-178q-38 -26 -119.5 -46.5t-180.5 -20.5q-144 0 -248 48.5t-158 132.5t-54 189t55 189t163 132.5t262 48.5q104 0 189.5 -22t125.5 -49v-183
q-41 33 -122 59.5t-178 26.5q-110 0 -177 -40.5z" />
    <glyph glyph-name="uni0405" unicode="&#x405;" horiz-adv-x="815" 
d="M235 1.5q-90 21.5 -134 48.5v197q53 -32 145 -58t186 -26q53 0 78 16t25 41q0 23 -22 37.5t-55.5 22t-95.5 18.5q-95 16 -156.5 34t-106 59t-44.5 112q0 61 36.5 110t115.5 78t200 29q106 0 195 -23t135 -52v-205q-50 37 -144.5 67t-202.5 30q-58 0 -84 -16t-26 -41
q0 -32 40 -46.5t127 -28.5q97 -17 159.5 -35.5t108 -61.5t45.5 -118q0 -60 -35 -107t-109 -75t-186 -28q-105 0 -195 21.5z" />
    <glyph glyph-name="uni0406" unicode="&#x406;" horiz-adv-x="793" 
d="M753 700v-165h-249v-370h249v-165h-713v165h249v370h-249v165h713z" />
    <glyph glyph-name="uni0407" unicode="&#x407;" horiz-adv-x="793" 
d="M753 700v-165h-249v-370h249v-165h-713v165h249v370h-249v165h713zM182.5 787.5q-29.5 27.5 -29.5 67.5t29.5 67.5t75.5 27.5t75.5 -27.5t29.5 -67.5t-29.5 -67.5t-75.5 -27.5t-75.5 27.5zM460.5 787.5q-29.5 27.5 -29.5 67.5t29.5 67.5t75.5 27.5t75.5 -27.5t29.5 -67.5
t-29.5 -67.5t-75.5 -27.5t-75.5 27.5z" />
    <glyph glyph-name="uni0408" unicode="&#x408;" horiz-adv-x="655" 
d="M15 18v179q60 -19 99.5 -25.5t80.5 -6.5q165 0 165 154v381h215v-388q0 -161 -88.5 -244t-250.5 -83q-106 0 -221 33z" />
    <glyph glyph-name="uni0409" unicode="&#x409;" horiz-adv-x="1335" 
d="M985 430q159 0 234.5 -57.5t75.5 -157.5t-75.5 -157.5t-234.5 -57.5h-422v520h-230l-1 -65q-3 -150 -35.5 -273t-70.5 -182h-221v14q40 56 74 175.5t39 265.5l8 245h652v-270h207zM974 165q48 0 70.5 18t22.5 50q0 31 -22.5 49t-70.5 18h-196v-135h196z" />
    <glyph glyph-name="uni040A" unicode="&#x40a;" horiz-adv-x="1395" 
d="M1045 430q159 0 234.5 -57.5t75.5 -157.5t-75.5 -157.5t-234.5 -57.5h-423v300h-327v-300h-215v700h215v-270h327v270h215v-270h208zM1034 165q48 0 70.5 18t22.5 50q0 31 -22.5 49t-70.5 18h-197v-135h197z" />
    <glyph glyph-name="uni040B" unicode="&#x40b;" horiz-adv-x="1035" 
d="M828.5 385.5q75.5 -34.5 118.5 -101.5t43 -161v-123h-215v123q0 71 -45 104t-119 33q-85 0 -161 -28v-232h-215v535h-220v165h685v-165h-250v-148q96 33 206 33q97 0 172.5 -34.5z" />
    <glyph glyph-name="uni040C" unicode="&#x40c;" horiz-adv-x="887" 
d="M295 0h-215v700h215v-295h5l332 295h275l-377 -335v-5l347 -360h-270l-307 318h-5v-318zM315 763h-15l-10 55l283 135h55l10 -140z" />
    <glyph glyph-name="uni040D" unicode="&#x40d;" horiz-adv-x="927" 
d="M347 0h-267v700h215v-446h5l280 446h267v-700h-215v446h-5zM633 763h-15l-323 50l10 140h55l283 -135z" />
    <glyph glyph-name="uni040E" unicode="&#x40e;" horiz-adv-x="825" 
d="M613 700h232l-253 -496q-54 -105 -132.5 -162t-198.5 -57q-83 0 -158 17v128q38 -6 58.5 -8t45.5 -2q32 0 59.5 6.5t45.5 18.5l-312 555h248l192 -342h9zM252.5 810.5q-61.5 48.5 -61.5 126.5h152q2 -27 24 -43.5t66 -16.5t66 16.5t24 43.5h152q0 -78 -61.5 -126.5
t-180.5 -48.5t-180.5 48.5z" />
    <glyph glyph-name="uni040F" unicode="&#x40f;" horiz-adv-x="947" 
d="M591 -168h-235v43l24 105v20h-300v700h215v-520h357v520h215v-700h-300v-20l24 -105v-43z" />
    <glyph glyph-name="uni0410" unicode="&#x410;" horiz-adv-x="949" 
d="M949 0h-240l-66 143h-337l-66 -143h-240l334 700h281zM470 500l-114 -247h237l-114 247h-9z" />
    <glyph glyph-name="uni0411" unicode="&#x411;" horiz-adv-x="842" 
d="M507 420q305 0 305 -200q0 -63 -34 -112.5t-103 -78.5t-170 -29h-425v700h664v-165h-449v-115h212zM482 165q53 0 79 20t26 53t-26 52.5t-79 19.5h-187v-145h187z" />
    <glyph glyph-name="uni0412" unicode="&#x412;" horiz-adv-x="890" 
d="M617 345q96 0 147 -43t51 -114q0 -86 -67.5 -137t-205.5 -51h-462v700h462q150 0 221.5 -50t71.5 -130q0 -75 -55.5 -120.5t-162.5 -45.5v-9zM515 403q48 0 71.5 18t23.5 49q0 29 -23.5 47t-71.5 18h-220v-132h220zM495 165q49 0 72 17.5t23 46.5t-23 46.5t-72 17.5h-200
v-128h200z" />
    <glyph glyph-name="uni0413" unicode="&#x413;" horiz-adv-x="757" 
d="M295 0h-215v700h662v-180h-447v-520z" />
    <glyph glyph-name="uni0414" unicode="&#x414;" horiz-adv-x="955" 
d="M820 175h110v-343h-215v168h-495v-168h-215v343h94q24 33 44.5 117t20.5 200v208h656v-525zM325 175h280v350h-226v-38q0 -112 -17.5 -193t-36.5 -114v-5z" />
    <glyph glyph-name="uni0415" unicode="&#x415;" horiz-adv-x="767" 
d="M295 295v-130h422v-165h-637v700h617v-165h-402v-130h362v-110h-362z" />
    <glyph glyph-name="uni0416" unicode="&#x416;" horiz-adv-x="1305" 
d="M270 0h-263l307 360v5l-334 335h268l289 -298h8v298h215v-298h8l289 298h268l-334 -335v-5l307 -360h-263l-268 315h-7v-315h-215v315h-7z" />
    <glyph glyph-name="uni0417" unicode="&#x417;" horiz-adv-x="820" 
d="M211.5 0q-86.5 20 -131.5 45v180q40 -29 123 -53t177 -24q83 0 119 21t36 53q0 37 -37.5 56.5t-137.5 19.5h-163v110h163q92 0 131 20t39 50q0 33 -38 53.5t-129 20.5q-93 0 -175 -25.5t-128 -56.5v180q46 27 137.5 48.5t197.5 21.5q125 0 205.5 -28t117.5 -73.5
t37 -101.5q0 -46 -27 -80.5t-69.5 -53.5t-89.5 -23v-9q76 -8 133.5 -48.5t57.5 -112.5q0 -57 -38 -104.5t-120 -76.5t-207 -29q-97 0 -183.5 20z" />
    <glyph glyph-name="uni0418" unicode="&#x418;" horiz-adv-x="927" 
d="M347 0h-267v700h215v-446h5l280 446h267v-700h-215v446h-5z" />
    <glyph glyph-name="uni0419" unicode="&#x419;" horiz-adv-x="927" 
d="M347 0h-267v700h215v-446h5l280 446h267v-700h-215v446h-5zM284.5 810.5q-61.5 48.5 -61.5 126.5h152q2 -27 24 -43.5t66 -16.5t66 16.5t24 43.5h152q0 -78 -61.5 -126.5t-180.5 -48.5t-180.5 48.5z" />
    <glyph glyph-name="uni041A" unicode="&#x41a;" horiz-adv-x="887" 
d="M295 0h-215v700h215v-295h5l332 295h275l-377 -335v-5l347 -360h-270l-307 318h-5v-318z" />
    <glyph glyph-name="uni041B" unicode="&#x41b;" horiz-adv-x="888" 
d="M5 14q40 56 74 175.5t39 265.5l8 245h682v-700h-215v520h-260l-1 -65q-3 -150 -35.5 -273t-70.5 -182h-221v14z" />
    <glyph glyph-name="uni041C" unicode="&#x41c;" horiz-adv-x="1205" 
d="M905 489l-302 -524l-303 524h-5v-489h-215v700h312l212 -385h5l210 385h306v-700h-215v489h-5z" />
    <glyph glyph-name="uni041D" unicode="&#x41d;" horiz-adv-x="955" 
d="M660 440v260h215v-700h-215v260h-365v-260h-215v700h215v-260h365z" />
    <glyph glyph-name="uni041E" unicode="&#x41e;" horiz-adv-x="1110" 
d="M282.5 28.5q-111.5 48.5 -167 132t-55.5 189.5t55.5 189.5t167 132t272.5 48.5t272.5 -48.5t167 -132t55.5 -189.5t-55.5 -189.5t-167 -132t-272.5 -48.5t-272.5 48.5zM703.5 174.5q60.5 26.5 91 72t30.5 103.5t-30.5 103.5t-91 72t-148.5 26.5t-148.5 -26.5t-91 -72
t-30.5 -103.5t30.5 -103.5t91 -72t148.5 -26.5t148.5 26.5z" />
    <glyph glyph-name="uni041F" unicode="&#x41f;" horiz-adv-x="947" 
d="M295 0h-215v700h787v-700h-215v520h-357v-520z" />
    <glyph glyph-name="uni0420" unicode="&#x420;" horiz-adv-x="882" 
d="M512 700q160 0 242.5 -68.5t82.5 -183.5t-82.5 -184t-242.5 -69h-217v-195h-215v700h432zM500 360q56 0 84 23.5t28 64.5q0 40 -28 63.5t-84 23.5h-205v-175h205z" />
    <glyph glyph-name="uni0421" unicode="&#x421;" horiz-adv-x="915" 
d="M272 28.5q-104 48.5 -158 132.5t-54 189t55 189t163 132.5t262 48.5q104 0 189.5 -22t125.5 -49v-186q-41 32 -122 58t-178 26q-87 0 -148 -26t-91.5 -71t-30.5 -100t30 -100t88 -71t139 -26q91 0 167.5 23.5t115.5 51.5v-185q-41 -24 -123.5 -43.5t-181.5 -19.5
q-144 0 -248 48.5z" />
    <glyph glyph-name="uni0422" unicode="&#x422;" horiz-adv-x="805" 
d="M15 700h775v-180h-280v-520h-215v520h-280v180z" />
    <glyph glyph-name="uni0423" unicode="&#x423;" horiz-adv-x="825" 
d="M613 700h232l-253 -496q-54 -105 -132.5 -162t-198.5 -57q-83 0 -158 17v128q38 -6 58.5 -8t45.5 -2q32 0 59.5 6.5t45.5 18.5l-312 555h248l192 -342h9z" />
    <glyph glyph-name="uni0424" unicode="&#x424;" horiz-adv-x="1239" 
d="M854 625q108 0 184.5 -35.5t116 -97t39.5 -139.5q0 -79 -39.5 -140.5t-116 -97t-184.5 -35.5h-127v-100h-215v100h-127q-108 0 -184.5 35.5t-116 97t-39.5 140.5q0 78 39.5 139.5t116 97t184.5 35.5h127v95h215v-95h127zM512 240v225h-120q-63 0 -95 -29.5t-32 -82.5
q0 -54 32 -83.5t95 -29.5h120zM847 240q63 0 95 29.5t32 83.5q0 53 -32 82.5t-95 29.5h-120v-225h120z" />
    <glyph glyph-name="uni0425" unicode="&#x425;" horiz-adv-x="844" 
d="M249 0h-259l302 360l-295 340h259l164 -201h5l163 201h259l-295 -340l302 -360h-259l-171 210h-5z" />
    <glyph glyph-name="uni0426" unicode="&#x426;" horiz-adv-x="962" 
d="M937 -168h-215v168h-642v700h215v-520h317v520h215v-520h110v-348z" />
    <glyph glyph-name="uni0427" unicode="&#x427;" horiz-adv-x="920" 
d="M625 700h215v-700h-215v234q-100 -39 -221 -39q-97 0 -172.5 34.5t-118.5 101.5t-43 161v208h215v-188q0 -71 45 -104t119 -33q89 0 176 33v292z" />
    <glyph glyph-name="uni0428" unicode="&#x428;" horiz-adv-x="1225" 
d="M1145 0h-1065v700h215v-520h210v520h215v-520h210v520h215v-700z" />
    <glyph glyph-name="uni0429" unicode="&#x429;" horiz-adv-x="1280" 
d="M1255 -168h-215v168h-960v700h215v-520h210v520h215v-520h210v520h215v-520h110v-348z" />
    <glyph glyph-name="uni042A" unicode="&#x42a;" horiz-adv-x="943" 
d="M147 0v520h-142v180h357v-220h223q160 0 239 -64t79 -176t-79 -176t-239 -64h-438zM578 165q50 0 75 20.5t25 54.5t-25 54.5t-75 20.5h-216v-150h216z" />
    <glyph glyph-name="uni042B" unicode="&#x42b;" horiz-adv-x="1167" 
d="M80 0v700h215v-220h192q160 0 239 -64t79 -176t-79 -176t-239 -64h-407zM1087 0h-215v700h215v-700zM480 165q50 0 75 20.5t25 54.5t-25 54.5t-75 20.5h-185v-150h185z" />
    <glyph glyph-name="uni042C" unicode="&#x42c;" horiz-adv-x="900" 
d="M80 0v700h215v-220h247q160 0 239 -64t79 -176t-79 -176t-239 -64h-462zM535 165q50 0 75 20.5t25 54.5t-25 54.5t-75 20.5h-240v-150h240z" />
    <glyph glyph-name="uni042D" unicode="&#x42d;" horiz-adv-x="915" 
d="M637 671.5q108 -48.5 163 -132.5t55 -189t-54 -189t-158 -132.5t-248 -48.5q-102 0 -183.5 19.5t-121.5 43.5v180q38 -29 113.5 -52t169.5 -23q100 0 164.5 39.5t84.5 105.5h-307v110h308q-19 68 -86 108.5t-177 40.5q-95 0 -176 -25.5t-124 -56.5v179q40 27 125 49
t190 22q154 0 262 -48.5z" />
    <glyph glyph-name="uni042E" unicode="&#x42e;" horiz-adv-x="1319" 
d="M1051.5 671.5q101.5 -48.5 154.5 -133t53 -188.5t-53 -188.5t-154.5 -133t-239.5 -48.5q-127 0 -222.5 41t-151.5 113t-69 164h-74v-298h-215v700h215v-292h74q14 91 70.5 161.5t152 110.5t220.5 40q138 0 239.5 -48.5zM929 174q50 26 77.5 72t27.5 104t-27.5 104
t-77.5 72t-117 26t-117 -26t-77.5 -72t-27.5 -104t27.5 -104t77.5 -72t117 -26t117 26z" />
    <glyph glyph-name="uni042F" unicode="&#x42f;" horiz-adv-x="895" 
d="M815 700v-700h-215v228h-132l-149 -228h-243l162 244q-28 6 -71 27.5t-80 69t-37 119.5q0 70 35 124t104.5 85t170.5 31h455zM600 338v197h-197q-62 0 -95 -27t-33 -71q0 -45 33 -72t95 -27h197z" />
    <glyph glyph-name="uni0430" unicode="&#x430;" horiz-adv-x="772" 
d="M87.5 27.5q-52.5 42.5 -52.5 112.5q0 82 68 126.5t224 49.5q75 2 112.5 8t50 15t12.5 24q0 24 -31 38t-111 14q-82 0 -159.5 -19t-123.5 -42v171q43 23 125.5 41.5t177.5 18.5q175 0 256 -60t81 -165v-360h-215v78h-8q-34 -36 -102 -64.5t-150 -28.5q-102 0 -154.5 42.5z
M437 144q43 16 65 36v91q-11 -9 -44.5 -17t-82.5 -10q-115 -5 -115 -62q0 -25 20 -39.5t62 -14.5q52 0 95 16z" />
    <glyph glyph-name="uni0431" unicode="&#x431;" horiz-adv-x="850" 
d="M141.5 76.5q-96.5 91.5 -96.5 263.5q0 182 102 281t300 99h114h209v-172h-210h-80q-125 0 -178 -42.5t-54 -135.5h9q28 37 85.5 61t147.5 24q106 0 178 -29.5t107 -79.5t35 -113q0 -112 -94 -180t-289 -68q-189 0 -285.5 91.5zM542 168.5q43 33.5 43 82.5t-43 82.5
t-115 33.5t-114.5 -33.5t-42.5 -82.5t42.5 -82.5t114.5 -33.5t115 33.5z" />
    <glyph glyph-name="uni0432" unicode="&#x432;" horiz-adv-x="767" 
d="M565 270q75 -3 116 -36.5t41 -87.5q0 -66 -57.5 -106t-179.5 -40h-425v570h412q128 0 189 -43t61 -112q0 -57 -43 -95t-114 -41v-9zM420 310q85 0 85 61t-85 61h-153v-122h153zM432 138q39 0 56 13t17 37t-17 37t-56 13h-165v-100h165z" />
    <glyph glyph-name="uni0433" unicode="&#x433;" horiz-adv-x="615" 
d="M275 0h-215v570h545v-160h-330v-410z" />
    <glyph glyph-name="uni0434" unicode="&#x434;" horiz-adv-x="803" 
d="M5 -138v293h70q18 32 33.5 93.5t15.5 133.5v188h584v-415h85v-293h-215v138h-358v-138h-215zM288 155h207v260h-159v-41q0 -68 -15.5 -125t-32.5 -85v-9z" />
    <glyph glyph-name="uni0435" unicode="&#x435;" 
d="M215 24q-88 39 -131.5 107t-43.5 154q0 88 41.5 156t122 106t193.5 38q108 0 186.5 -38.5t120 -107t41.5 -154.5v-17h-481q9 -53 60 -83t148 -30q61 0 121 17.5t92 38.5v-171q-33 -21 -103.5 -38t-151.5 -17q-127 0 -215 39zM524 340q-6 50 -38.5 80t-88.5 30
q-57 0 -92 -30t-41 -80h260z" />
    <glyph glyph-name="uni0436" unicode="&#x436;" horiz-adv-x="1161" 
d="M254 0h-259l270 290l-270 280h259l215 -236h4v236h215v-236h4l215 236h259l-270 -280l270 -290h-259l-215 247h-4v-247h-215v247h-4z" />
    <glyph glyph-name="uni0437" unicode="&#x437;" horiz-adv-x="685" 
d="M186.5 3.5q-82.5 18.5 -126.5 41.5v149q37 -21 102.5 -38.5t132.5 -17.5q77 0 106 15t29 41q0 23 -30 37t-108 14h-117v72h108q80 0 111 14.5t31 39.5q0 26 -31.5 43.5t-100.5 17.5q-75 0 -143 -17.5t-105 -38.5v156q47 20 126 36.5t172 16.5q153 0 225 -46.5t72 -117.5
q0 -57 -48 -95t-124 -41v-8q83 -3 130 -38.5t47 -90.5q0 -73 -67.5 -118t-217.5 -45q-91 0 -173.5 18.5z" />
    <glyph glyph-name="uni0438" unicode="&#x438;" horiz-adv-x="797" 
d="M321 0h-261v570h215v-457h5l196 457h261v-570h-215v457h-5z" />
    <glyph glyph-name="uni0439" unicode="&#x439;" horiz-adv-x="797" 
d="M321 0h-261v570h215v-457h5l196 457h261v-570h-215v457h-5zM249 676q-50 41 -50 114h138q0 -55 57 -55t57 55h138q0 -73 -50 -114t-145 -41t-145 41z" />
    <glyph glyph-name="uni043A" unicode="&#x43a;" horiz-adv-x="780" 
d="M275 0h-215v570h215v-238h4l238 238h268l-293 -280l292 -290h-268l-237 249h-4v-249z" />
    <glyph glyph-name="uni043B" unicode="&#x43b;" horiz-adv-x="735" 
d="M0 9q28 41 52.5 138.5t27.5 225.5l5 197h590v-570h-215v410h-160l-3 -47q-8 -134 -30 -230.5t-43 -132.5h-224v9z" />
    <glyph glyph-name="uni043C" unicode="&#x43c;" horiz-adv-x="1020" 
d="M740 372l-230 -408l-230 408h-5v-372h-215v570h296l152 -291h6l152 291h294v-570h-215v372h-5z" />
    <glyph glyph-name="uni043D" unicode="&#x43d;" horiz-adv-x="795" 
d="M520 370v200h215v-570h-215v210h-245v-210h-215v570h215v-200h245z" />
    <glyph glyph-name="uni043E" unicode="&#x43e;" horiz-adv-x="850" 
d="M214 23.5q-87 38.5 -130.5 106.5t-43.5 155t43.5 155t130.5 106.5t211 38.5t211 -38.5t130.5 -106.5t43.5 -155t-43.5 -155t-130.5 -106.5t-211 -38.5t-211 38.5zM542.5 175.5q42.5 40.5 42.5 109.5t-42.5 109.5t-117.5 40.5t-117.5 -40.5t-42.5 -109.5t42.5 -109.5
t117.5 -40.5t117.5 40.5z" />
    <glyph glyph-name="uni043F" unicode="&#x43f;" horiz-adv-x="790" 
d="M275 0h-215v570h670v-570h-215v410h-240v-410z" />
    <glyph glyph-name="uni0440" unicode="&#x440;" horiz-adv-x="827" 
d="M60 -190v760h215v-74h8q28 34 88.5 61.5t135.5 27.5q83 0 146.5 -36t98.5 -104t35 -160t-35 -160t-98.5 -104t-146.5 -36q-75 0 -135.5 27.5t-88.5 61.5h-8v-264h-215zM523 181q39 38 39 104t-39 104t-108 38q-45 0 -83.5 -17.5t-56.5 -39.5v-170q18 -22 56.5 -39.5
t83.5 -17.5q69 0 108 38z" />
    <glyph glyph-name="uni0441" unicode="&#x441;" horiz-adv-x="725" 
d="M211 23.5q-85 38.5 -128 106.5t-43 155q0 88 43.5 155.5t131 106t212.5 38.5q77 0 146.5 -18.5t111.5 -42.5v-158q-39 26 -101 45t-129 19q-92 0 -141 -40t-49 -105t47 -105t133 -40q64 0 122.5 17t97.5 41v-155q-41 -23 -108.5 -40.5t-139.5 -17.5q-121 0 -206 38.5z
" />
    <glyph glyph-name="uni0442" unicode="&#x442;" horiz-adv-x="690" 
d="M453 0h-215v410h-228v160h670v-160h-227v-410z" />
    <glyph glyph-name="uni0443" unicode="&#x443;" horiz-adv-x="733" 
d="M378 -190h-223l123 259l-283 501h231l152 -279h7l127 279h226z" />
    <glyph glyph-name="uni0444" unicode="&#x444;" horiz-adv-x="1079" 
d="M717 585q101 0 173.5 -37t110.5 -104.5t38 -158.5t-38 -158.5t-110.5 -104.5t-173.5 -37h-70v-175h-215v175h-70q-101 0 -173.5 37t-110.5 104.5t-38 158.5t38 158.5t110.5 104.5t173.5 37h70v135h215v-135h70zM436 135v300h-44q-63 0 -98.5 -38.5t-35.5 -111.5
t35.5 -111.5t98.5 -38.5h44zM785.5 173.5q35.5 38.5 35.5 111.5t-35.5 111.5t-98.5 38.5h-44v-300h44q63 0 98.5 38.5z" />
    <glyph glyph-name="uni0445" unicode="&#x445;" horiz-adv-x="710" 
d="M230 0h-240l246 290l-240 280h240l115 -144h8l115 144h240l-240 -280l246 -290h-240l-121 151h-8z" />
    <glyph glyph-name="uni0446" unicode="&#x446;" horiz-adv-x="802" 
d="M792 -138h-215v138h-517v570h215v-410h217v410h215v-410h85v-298z" />
    <glyph glyph-name="uni0447" unicode="&#x447;" horiz-adv-x="757" 
d="M482 570h215v-570h-215v167q-38 -10 -67.5 -13.5t-70.5 -3.5q-143 0 -218.5 66t-75.5 187v167h215v-158q0 -49 29 -75.5t86 -26.5q52 0 102 15v245z" />
    <glyph glyph-name="uni0448" unicode="&#x448;" horiz-adv-x="1069" 
d="M1009 0h-949v570h215v-410h152v410h215v-410h152v410h215v-570z" />
    <glyph glyph-name="uni0449" unicode="&#x449;" horiz-adv-x="1104" 
d="M1094 -138h-215v138h-819v570h215v-410h152v410h215v-410h152v410h215v-410h85v-298z" />
    <glyph glyph-name="uni044A" unicode="&#x44a;" horiz-adv-x="810" 
d="M520 393q129 0 194.5 -53.5t65.5 -142.5t-65.5 -143t-194.5 -54h-387v410h-133v160h348v-177h172zM477 135q78 0 78 62q0 61 -78 61h-133v-123h133z" />
    <glyph glyph-name="uni044B" unicode="&#x44b;" horiz-adv-x="1032" 
d="M440 393q129 0 194.5 -53.5t65.5 -142.5t-65.5 -143t-194.5 -54h-380v566h215v-173h165zM757 0v566h215v-566h-215zM397 135q78 0 78 62q0 61 -78 61h-126v-123h126z" />
    <glyph glyph-name="uni044C" unicode="&#x44c;" horiz-adv-x="755" 
d="M465 393q128 0 194 -53.5t66 -142.5t-66 -143t-194 -54h-405v570h215v-177h190zM422 135q78 0 78 62q0 61 -78 61h-151v-123h151z" />
    <glyph glyph-name="uni044D" unicode="&#x44d;" horiz-adv-x="720" 
d="M507.5 546.5q85.5 -38.5 129 -106.5t43.5 -155t-43.5 -155t-129 -106.5t-209.5 -38.5q-74 0 -141 17t-102 36v154q34 -21 93.5 -39t121.5 -18q78 0 123.5 29.5t57.5 81.5h-274v72h275q-10 56 -55.5 86.5t-126.5 30.5q-77 0 -139.5 -18t-95.5 -41v156q35 20 104.5 36.5
t158.5 16.5q124 0 209.5 -38.5z" />
    <glyph glyph-name="uni044E" unicode="&#x44e;" horiz-adv-x="1057" 
d="M856 546.5q78 -38.5 119.5 -107t41.5 -154.5t-41.5 -154.5t-119.5 -107t-184 -38.5q-99 0 -173.5 33.5t-118 93.5t-51.5 138h-54v-250h-215v570h215v-242h55q10 75 53.5 133.5t117.5 91t171 32.5q106 0 184 -38.5zM766 174.5q36 39.5 36 110.5t-36 110.5t-94 39.5
t-94 -39.5t-36 -110.5t36 -110.5t94 -39.5t94 39.5z" />
    <glyph glyph-name="uni044F" unicode="&#x44f;" horiz-adv-x="757" 
d="M45 0l142 194v5q-36 5 -70.5 26.5t-58 59t-23.5 89.5q0 56 29.5 100.5t88 70t142.5 25.5h402v-570h-215v190h-67l-139 -190h-231zM482 262v173h-107q-60 0 -87.5 -22t-27.5 -65q0 -42 27.5 -64t87.5 -22h107z" />
    <glyph glyph-name="uni0450" unicode="&#x450;" 
d="M215 24q-88 39 -131.5 107t-43.5 154q0 88 41.5 156t122 106t193.5 38q108 0 186.5 -38.5t120 -107t41.5 -154.5v-17h-481q9 -53 60 -83t148 -30q61 0 121 17.5t92 38.5v-171q-33 -21 -103.5 -38t-151.5 -17q-127 0 -215 39zM524 340q-6 50 -38.5 80t-88.5 30
q-57 0 -92 -30t-41 -80h260zM567 623h-15l-323 50l10 140h55l283 -135z" />
    <glyph glyph-name="uni0451" unicode="&#x451;" 
d="M215 24q-88 39 -131.5 107t-43.5 154q0 88 41.5 156t122 106t193.5 38q108 0 186.5 -38.5t120 -107t41.5 -154.5v-17h-481q9 -53 60 -83t148 -30q61 0 121 17.5t92 38.5v-171q-33 -21 -103.5 -38t-151.5 -17q-127 0 -215 39zM524 340q-6 50 -38.5 80t-88.5 30
q-57 0 -92 -30t-41 -80h260zM177.5 647.5q-29.5 27.5 -29.5 67.5t29.5 67.5t75.5 27.5t75.5 -27.5t29.5 -67.5t-29.5 -67.5t-75.5 -27.5t-75.5 27.5zM455.5 647.5q-29.5 27.5 -29.5 67.5t29.5 67.5t75.5 27.5t75.5 -27.5t29.5 -67.5t-29.5 -67.5t-75.5 -27.5t-75.5 27.5z
" />
    <glyph glyph-name="uni0452" unicode="&#x452;" horiz-adv-x="795" 
d="M691 378q59 -57 59 -160v-186q0 -110 -55.5 -173.5t-168.5 -63.5q-38 0 -70 4t-71 14v139q23 -7 37.5 -9.5t32.5 -2.5q37 0 58.5 22.5t21.5 66.5v141q0 52 -28.5 81t-78.5 29q-43 0 -77.5 -22t-50.5 -49v-209h-215v503h-85v72h85v145h215v-145h213v-72h-213v-168h9
q25 38 82.5 69t133.5 31q107 0 166 -57z" />
    <glyph glyph-name="uni0453" unicode="&#x453;" horiz-adv-x="615" 
d="M275 0h-215v570h545v-160h-330v-410zM195 623h-15l-10 55l283 135h55l10 -140z" />
    <glyph glyph-name="uni0454" unicode="&#x454;" horiz-adv-x="724" 
d="M321.5 404q-47.5 -31 -58.5 -86h279v-72h-278q13 -52 60.5 -81.5t125.5 -29.5q62 0 121.5 18t93.5 39v-154q-35 -19 -102 -36t-141 -17q-124 0 -209.5 38.5t-129 106.5t-43.5 155t43.5 155t129 106.5t209.5 38.5q88 0 157.5 -16.5t104.5 -36.5v-156q-33 23 -95.5 41
t-138.5 18q-81 0 -128.5 -31z" />
    <glyph glyph-name="uni0455" unicode="&#x455;" horiz-adv-x="680" 
d="M190 5.5q-79 20.5 -118 47.5v172q48 -27 123 -48.5t145 -21.5q43 0 61.5 11t18.5 29q0 23 -32 33.5t-100 19.5q-78 10 -130 24t-90 47.5t-38 93.5q0 77 73.5 124.5t233.5 47.5q94 0 175 -21t123 -47v-177q-54 29 -137.5 52t-160.5 23q-82 0 -82 -41q0 -24 31 -33.5
t100 -19.5q81 -12 132 -26t89 -48.5t38 -96.5q0 -45 -29.5 -82.5t-93 -60t-160.5 -22.5q-93 0 -172 20.5z" />
    <glyph glyph-name="uni0456" unicode="&#x456;" horiz-adv-x="335" 
d="M70.5 626q-35.5 31 -35.5 78t35.5 78t96.5 31q62 0 97.5 -31t35.5 -78t-35.5 -78t-97.5 -31q-61 0 -96.5 31zM60 0v570h9q16 -10 41.5 -16.5t56.5 -6.5t57 6.5t42 16.5h9v-570h-215z" />
    <glyph glyph-name="uni0457" unicode="&#x457;" horiz-adv-x="335" 
d="M275 0h-215v570h215v-570zM-46.5 647.5q-29.5 27.5 -29.5 67.5t29.5 67.5t75.5 27.5t75.5 -27.5t29.5 -67.5t-29.5 -67.5t-75.5 -27.5t-75.5 27.5zM231.5 647.5q-29.5 27.5 -29.5 67.5t29.5 67.5t75.5 27.5t75.5 -27.5t29.5 -67.5t-29.5 -67.5t-75.5 -27.5t-75.5 27.5z
" />
    <glyph glyph-name="uni0458" unicode="&#x458;" horiz-adv-x="335" 
d="M70.5 626q-35.5 31 -35.5 78t35.5 78t96.5 31q62 0 97.5 -31t35.5 -78t-35.5 -78t-97.5 -31q-61 0 -96.5 31zM-21.5 -201q-32.5 4 -73.5 14v153q41 -12 74 -12q39 0 60 23t21 68v525h9q13 -9 39.5 -16t58.5 -7t59 7t40 16h9v-538q0 -110 -55.5 -173.5t-170.5 -63.5
q-38 0 -70.5 4z" />
    <glyph glyph-name="uni0459" unicode="&#x459;" horiz-adv-x="1125" 
d="M843 362q83 0 140 -23t84.5 -62t27.5 -87q0 -87 -63.5 -138.5t-188.5 -51.5h-395v410h-148l-3 -47q-8 -134 -30 -230.5t-43 -132.5h-224v9q28 41 52.5 138.5t27.5 225.5l5 197h578v-208h180zM768 140q54 0 80.5 20.5t26.5 54.5t-26.5 54.5t-80.5 20.5h-105v-150h105z" />
    <glyph glyph-name="uni045A" unicode="&#x45a;" horiz-adv-x="1172" 
d="M897 338q124 0 184.5 -44.5t60.5 -118.5q0 -82 -60 -128.5t-185 -46.5h-402v266h-220v-266h-215v570h215v-232h220v232h215v-232h187zM832 140q44 0 67 17.5t23 45.5t-23 45.5t-67 17.5h-122v-126h122z" />
    <glyph glyph-name="uni045B" unicode="&#x45b;" horiz-adv-x="795" 
d="M691 378q59 -57 59 -160v-218h-215v170q0 52 -28.5 81t-78.5 29q-43 0 -77.5 -22t-50.5 -49v-209h-215v503h-85v72h85v145h215v-145h213v-72h-213v-168h9q25 38 82.5 69t133.5 31q107 0 166 -57z" />
    <glyph glyph-name="uni045C" unicode="&#x45c;" horiz-adv-x="780" 
d="M275 0h-215v570h215v-238h4l238 238h268l-293 -280l292 -290h-268l-237 249h-4v-249zM243 623h-15l-10 55l283 135h55l10 -140z" />
    <glyph glyph-name="uni045D" unicode="&#x45d;" horiz-adv-x="797" 
d="M321 0h-261v570h215v-457h5l196 457h261v-570h-215v457h-5zM569 623h-15l-323 50l10 140h55l283 -135z" />
    <glyph glyph-name="uni045E" unicode="&#x45e;" horiz-adv-x="733" 
d="M378 -190h-223l123 259l-283 501h231l152 -279h7l127 279h226zM228 676q-50 41 -50 114h138q0 -55 57 -55t57 55h138q0 -73 -50 -114t-145 -41t-145 41z" />
    <glyph glyph-name="uni045F" unicode="&#x45f;" horiz-adv-x="787" 
d="M508 -138h-230v40l20 83v15h-238v570h215v-410h237v410h215v-570h-239v-15l20 -83v-40z" />
    <glyph glyph-name="uni0490" unicode="&#x490;" horiz-adv-x="757" 
d="M295 0h-215v700h450l26 120h186v-300h-447v-520z" />
    <glyph glyph-name="uni0491" unicode="&#x491;" horiz-adv-x="615" 
d="M275 0h-215v570h337l36 105h172v-265h-330v-410z" />
    <glyph glyph-name="uni0492" unicode="&#x492;" horiz-adv-x="782" 
d="M757 700v-180h-447v-152h338v-110h-338v-258h-215v258h-100v110h100v332h662z" />
    <glyph glyph-name="uni0493" unicode="&#x493;" horiz-adv-x="636" 
d="M621 570v-160h-330v-112h207v-72h-207v-226h-215v226h-81v72h81v272h545z" />
    <glyph glyph-name="uni0494" unicode="&#x494;" horiz-adv-x="892" 
d="M432 -150v108q17 -3 32 -3q72 0 117.5 45t45.5 125q0 74 -42.5 116t-117.5 42q-52 0 -90 -18.5t-60 -40.5t-22 -26v-198h-215v700h662v-135h-447v-237h8q18 28 55 54.5t91 44.5t118 18q134 0 209.5 -75.5t75.5 -209.5q0 -94 -41.5 -165t-122.5 -110.5t-197 -39.5
q-31 0 -59 5z" />
    <glyph glyph-name="uni0495" unicode="&#x495;" horiz-adv-x="790" 
d="M342 -186v74q18 -3 36 -3q73 0 117.5 47.5t44.5 132.5q0 75 -35 114t-98 39q-45 0 -80.5 -22t-51.5 -49v-147h-215v570h545v-72h-330v-225h8q26 38 85.5 69t138.5 31q118 0 185.5 -71.5t67.5 -193.5q0 -85 -43 -153t-124.5 -106.5t-193.5 -38.5q-32 0 -57 4z" />
    <glyph glyph-name="uni0496" unicode="&#x496;" horiz-adv-x="1315" 
d="M270 0h-263l307 360v5l-334 335h268l289 -298h8v298h215v-298h8l289 298h268l-334 -335v-5l154 -180h151v-348h-205v168h-56l-268 315h-7v-315h-215v315h-7z" />
    <glyph glyph-name="uni0497" unicode="&#x497;" horiz-adv-x="1171" 
d="M254 0h-259l270 290l-270 280h259l215 -236h4v236h215v-236h4l215 236h259l-270 -280l121 -130h141v-298h-205v138h-46l-215 247h-4v-247h-215v247h-4z" />
    <glyph glyph-name="uni049A" unicode="&#x49a;" horiz-adv-x="897" 
d="M295 0h-215v700h215v-295h5l332 295h275l-377 -335v-5l174 -180h152v-348h-205v168h-44l-307 318h-5v-318z" />
    <glyph glyph-name="uni049B" unicode="&#x49b;" horiz-adv-x="790" 
d="M275 0h-215v570h215v-238h4l238 238h268l-293 -280l131 -130h143v-298h-205v138h-45l-237 249h-4v-249z" />
    <glyph glyph-name="uni049C" unicode="&#x49c;" horiz-adv-x="910" 
d="M920 700l-243 -335v-5l213 -360h-248l-180 305h-39v-121h-80v121h-48v-305h-215v700h215v-285h48v120h80v-120h43l207 285h247z" />
    <glyph glyph-name="uni049D" unicode="&#x49d;" horiz-adv-x="802" 
d="M574 570h228l-197 -280l197 -290h-227l-172 253h-25v-113h-72v113h-31v-253h-215v570h215v-245h31v108h72v-108h24z" />
    <glyph glyph-name="uni04A2" unicode="&#x4a2;" horiz-adv-x="1010" 
d="M875 700v-520h110v-348h-215v168h-110v260h-365v-260h-215v700h215v-260h365v260h215z" />
    <glyph glyph-name="uni04A3" unicode="&#x4a3;" horiz-adv-x="830" 
d="M735 570v-410h85v-298h-215v138h-85v210h-245v-210h-215v570h215v-200h245v200h215z" />
    <glyph glyph-name="uni04AA" unicode="&#x4aa;" horiz-adv-x="915" 
d="M407 521q-61 -26 -91.5 -71t-30.5 -100t30 -100t88 -71t139 -26q91 0 167.5 23.5t115.5 51.5v-185q-29 -17 -81 -32.5t-117 -23.5v-177h-215v178q-112 17 -191 68t-120 127t-41 167q0 105 55 189t163 132.5t262 48.5q104 0 189.5 -22t125.5 -49v-186q-41 32 -122 58
t-178 26q-87 0 -148 -26z" />
    <glyph glyph-name="uni04AB" unicode="&#x4ab;" horiz-adv-x="725" 
d="M314 390q-49 -40 -49 -105t47 -105t133 -40q64 0 122.5 17t97.5 41v-155q-56 -31 -135 -46v-157h-215v153q-133 23 -204 101t-71 191q0 88 43.5 155.5t131 106t212.5 38.5q77 0 146.5 -18.5t111.5 -42.5v-158q-39 26 -101 45t-129 19q-92 0 -141 -40z" />
    <glyph glyph-name="uni04AE" unicode="&#x4ae;" horiz-adv-x="895" 
d="M555 0h-215v148l-360 552h239l224 -347h9l224 347h239l-360 -552v-148z" />
    <glyph glyph-name="uni04AF" unicode="&#x4af;" horiz-adv-x="761" 
d="M273 0l-278 570h218l165 -366h5l165 366h218l-278 -570v-190h-215v190z" />
    <glyph glyph-name="uni04B0" unicode="&#x4b0;" horiz-adv-x="895" 
d="M676 700h239l-288 -442h145v-110h-217v-148h-215v148h-217v110h145l-288 442h239l224 -347h9z" />
    <glyph glyph-name="uni04B1" unicode="&#x4b1;" horiz-adv-x="761" 
d="M548 570h218l-241 -498h128v-72h-165v-190h-215v190h-165v72h128l-241 498h218l165 -369h5z" />
    <glyph glyph-name="uni04B2" unicode="&#x4b2;" horiz-adv-x="858" 
d="M249 0h-259l302 360l-295 340h259l164 -201h5l163 201h259l-295 -340l151 -180h145v-348h-205v168h-48l-171 210h-5z" />
    <glyph glyph-name="uni04B3" unicode="&#x4b3;" horiz-adv-x="738" 
d="M230 0h-240l246 289l-240 281h240l115 -144h8l115 144h240l-240 -280l110 -130h144v-298h-205v138h-43l-121 151h-8z" />
    <glyph glyph-name="uni04B6" unicode="&#x4b6;" horiz-adv-x="975" 
d="M735 -168v168h-110v234q-100 -39 -221 -39q-97 0 -172.5 34.5t-118.5 101.5t-43 161v208h215v-188q0 -71 45 -104t119 -33q89 0 176 33v292h215v-520h110v-348h-215z" />
    <glyph glyph-name="uni04B7" unicode="&#x4b7;" horiz-adv-x="792" 
d="M567 -138v138h-85v167q-38 -10 -67.5 -13.5t-70.5 -3.5q-143 0 -218.5 66t-75.5 187v167h215v-158q0 -49 29 -75.5t86 -26.5q52 0 102 15v245h215v-410h85v-298h-215z" />
    <glyph glyph-name="uni04B8" unicode="&#x4b8;" horiz-adv-x="920" 
d="M625 700h215v-700h-215v234q-61 -23 -127 -32v-124h-80v117h-14q-97 0 -172.5 34.5t-118.5 101.5t-43 161v208h215v-188q0 -63 36 -96t97 -39v146h80v-146q61 6 127 31v292z" />
    <glyph glyph-name="uni04B9" unicode="&#x4b9;" horiz-adv-x="762" 
d="M487 570h215v-570h-215v167q-36 -9 -72 -14v-83h-72v80q-143 1 -218 67t-75 186v167h215v-158q0 -82 78 -98v116h72v-119q36 3 72 14v245z" />
    <glyph glyph-name="uni04BA" unicode="&#x4ba;" horiz-adv-x="910" 
d="M688.5 480.5q75.5 -34.5 118.5 -101.5t43 -161v-218h-215v198q0 71 -45 104t-119 33q-89 0 -176 -33v-302h-215v700h215v-224q100 39 221 39q97 0 172.5 -34.5z" />
    <glyph glyph-name="uni04BB" unicode="&#x4bb;" 
d="M60 0v720h215v-235h8q25 38 84 69t138 31q107 0 166 -57t59 -160v-368h-215v320q0 53 -28.5 81.5t-81.5 28.5q-45 0 -79.5 -22t-50.5 -49v-359h-215z" />
    <glyph glyph-name="uni04C1" unicode="&#x4c1;" horiz-adv-x="1305" 
d="M270 0h-263l307 360v5l-334 335h268l289 -298h8v298h215v-298h8l289 298h268l-334 -335v-5l307 -360h-263l-268 315h-7v-315h-215v315h-7zM472.5 810.5q-61.5 48.5 -61.5 126.5h152q2 -27 24 -43.5t66 -16.5t66 16.5t24 43.5h152q0 -78 -61.5 -126.5t-180.5 -48.5
t-180.5 48.5z" />
    <glyph glyph-name="uni04C2" unicode="&#x4c2;" horiz-adv-x="1161" 
d="M254 0h-259l270 290l-270 280h259l215 -236h4v236h215v-236h4l215 236h259l-270 -280l270 -290h-259l-215 247h-4v-247h-215v247h-4zM436 676q-50 41 -50 114h138q0 -55 57 -55t57 55h138q0 -73 -50 -114t-145 -41t-145 41z" />
    <glyph glyph-name="uni04D2" unicode="&#x4d2;" horiz-adv-x="949" 
d="M949 0h-240l-66 143h-337l-66 -143h-240l334 700h281zM470 500l-114 -247h237l-114 247h-9zM260.5 787.5q-29.5 27.5 -29.5 67.5t29.5 67.5t75.5 27.5t75.5 -27.5t29.5 -67.5t-29.5 -67.5t-75.5 -27.5t-75.5 27.5zM538.5 787.5q-29.5 27.5 -29.5 67.5t29.5 67.5
t75.5 27.5t75.5 -27.5t29.5 -67.5t-29.5 -67.5t-75.5 -27.5t-75.5 27.5z" />
    <glyph glyph-name="uni04D3" unicode="&#x4d3;" horiz-adv-x="772" 
d="M87.5 27.5q-52.5 42.5 -52.5 112.5q0 82 68 126.5t224 49.5q75 2 112.5 8t50 15t12.5 24q0 24 -31 38t-111 14q-82 0 -159.5 -19t-123.5 -42v171q43 23 125.5 41.5t177.5 18.5q175 0 256 -60t81 -165v-360h-215v78h-8q-34 -36 -102 -64.5t-150 -28.5q-102 0 -154.5 42.5z
M437 144q43 16 65 36v91q-11 -9 -44.5 -17t-82.5 -10q-115 -5 -115 -62q0 -25 20 -39.5t62 -14.5q52 0 95 16zM170.5 647.5q-29.5 27.5 -29.5 67.5t29.5 67.5t75.5 27.5t75.5 -27.5t29.5 -67.5t-29.5 -67.5t-75.5 -27.5t-75.5 27.5zM448.5 647.5q-29.5 27.5 -29.5 67.5
t29.5 67.5t75.5 27.5t75.5 -27.5t29.5 -67.5t-29.5 -67.5t-75.5 -27.5t-75.5 27.5z" />
    <glyph glyph-name="uni04D8" unicode="&#x4d8;" horiz-adv-x="1070" 
d="M787.5 671q110.5 -49 166.5 -132.5t56 -188.5t-55 -189t-163 -132.5t-262 -48.5q-149 0 -255 49t-160.5 135t-54.5 196v33h720q-16 73 -90 116t-210 43q-99 0 -193 -23.5t-155 -52.5v177q64 25 168 46t220 21q157 0 267.5 -49zM693.5 174.5q61.5 39.5 82.5 108.5h-491
q16 -68 78.5 -108t171.5 -40q97 0 158.5 39.5z" />
    <glyph glyph-name="uni04D9" unicode="&#x4d9;" horiz-adv-x="822" 
d="M603 546q89 -39 134 -107t45 -154q0 -89 -42 -156.5t-126 -105.5t-204 -38q-117 0 -200.5 39t-126.5 107t-43 154v15h514q-11 54 -62.5 84.5t-146.5 30.5q-70 0 -135 -16t-108 -36v174q45 18 121.5 33t163.5 15q127 0 216 -39zM506.5 147.5q36.5 27.5 46.5 80.5h-291
q8 -49 44.5 -78.5t103.5 -29.5q60 0 96.5 27.5z" />
    <glyph glyph-name="uni04E0" unicode="&#x4e0;" horiz-adv-x="817" 
d="M201 -1q-91 19 -136 42v181q50 -28 134 -51t168 -23q95 0 137.5 25t42.5 62t-41 62t-130 25q-63 0 -113 -8.5t-73 -19.5v102l237 119v10h-387v175h722v-125l-287 -145v-10q100 0 166.5 -26.5t98.5 -71.5t32 -102q0 -111 -89.5 -175.5t-280.5 -64.5q-110 0 -201 19z" />
    <glyph glyph-name="uni04E1" unicode="&#x4e1;" horiz-adv-x="710" 
d="M166.5 -184.5q-88.5 20.5 -131.5 45.5v174q45 -27 119 -48.5t149 -21.5q86 0 126.5 26.5t40.5 67.5t-38.5 67.5t-118.5 26.5q-47 0 -88 -9.5t-62 -20.5v85l248 178v9h-376v175h630v-125l-280 -202v-10q104 0 173.5 -27.5t103 -75t33.5 -107.5q0 -65 -36 -116.5
t-111 -81.5t-185 -30q-108 0 -196.5 20.5z" />
    <glyph glyph-name="uni04E2" unicode="&#x4e2;" horiz-adv-x="927" 
d="M347 0h-267v700h215v-446h5l280 446h267v-700h-215v446h-5zM677 790h-424v122h424v-122z" />
    <glyph glyph-name="uni04E3" unicode="&#x4e3;" horiz-adv-x="797" 
d="M321 0h-261v570h215v-457h5l196 457h261v-570h-215v457h-5zM606 650h-424v122h424v-122z" />
    <glyph glyph-name="uni04E6" unicode="&#x4e6;" horiz-adv-x="1110" 
d="M282.5 28.5q-111.5 48.5 -167 132t-55.5 189.5t55.5 189.5t167 132t272.5 48.5t272.5 -48.5t167 -132t55.5 -189.5t-55.5 -189.5t-167 -132t-272.5 -48.5t-272.5 48.5zM703.5 174.5q60.5 26.5 91 72t30.5 103.5t-30.5 103.5t-91 72t-148.5 26.5t-148.5 -26.5t-91 -72
t-30.5 -103.5t30.5 -103.5t91 -72t148.5 -26.5t148.5 26.5zM340.5 787.5q-29.5 27.5 -29.5 67.5t29.5 67.5t75.5 27.5t75.5 -27.5t29.5 -67.5t-29.5 -67.5t-75.5 -27.5t-75.5 27.5zM618.5 787.5q-29.5 27.5 -29.5 67.5t29.5 67.5t75.5 27.5t75.5 -27.5t29.5 -67.5
t-29.5 -67.5t-75.5 -27.5t-75.5 27.5z" />
    <glyph glyph-name="uni04E7" unicode="&#x4e7;" horiz-adv-x="850" 
d="M214 23.5q-87 38.5 -130.5 106.5t-43.5 155t43.5 155t130.5 106.5t211 38.5t211 -38.5t130.5 -106.5t43.5 -155t-43.5 -155t-130.5 -106.5t-211 -38.5t-211 38.5zM542.5 175.5q42.5 40.5 42.5 109.5t-42.5 109.5t-117.5 40.5t-117.5 -40.5t-42.5 -109.5t42.5 -109.5
t117.5 -40.5t117.5 40.5zM210.5 647.5q-29.5 27.5 -29.5 67.5t29.5 67.5t75.5 27.5t75.5 -27.5t29.5 -67.5t-29.5 -67.5t-75.5 -27.5t-75.5 27.5zM488.5 647.5q-29.5 27.5 -29.5 67.5t29.5 67.5t75.5 27.5t75.5 -27.5t29.5 -67.5t-29.5 -67.5t-75.5 -27.5t-75.5 27.5z" />
    <glyph glyph-name="uni04E8" unicode="&#x4e8;" horiz-adv-x="1110" 
d="M827.5 671.5q111.5 -48.5 167 -132t55.5 -189.5t-55.5 -189.5t-167 -132t-272.5 -48.5t-272.5 48.5t-167 132t-55.5 189.5t55.5 189.5t167 132t272.5 48.5t272.5 -48.5zM378 516q-67 -41 -86 -111h526q-19 70 -86 111t-177 41t-177 -41zM732 184q67 41 86 111h-526
q19 -70 86 -111t177 -41t177 41z" />
    <glyph glyph-name="uni04E9" unicode="&#x4e9;" horiz-adv-x="850" 
d="M636 546.5q87 -38.5 130.5 -106.5t43.5 -155t-43.5 -155t-130.5 -106.5t-211 -38.5t-211 38.5t-130.5 106.5t-43.5 155t43.5 155t130.5 106.5t211 38.5t211 -38.5zM318 412.5q-41 -32.5 -50 -91.5h314q-9 59 -50 91.5t-107 32.5t-107 -32.5zM532 157.5q41 32.5 50 91.5
h-314q9 -59 50 -91.5t107 -32.5t107 32.5z" />
    <glyph glyph-name="uni04EE" unicode="&#x4ee;" horiz-adv-x="825" 
d="M613 700h232l-253 -496q-54 -105 -132.5 -162t-198.5 -57q-83 0 -158 17v128q38 -6 58.5 -8t45.5 -2q32 0 59.5 6.5t45.5 18.5l-312 555h248l192 -342h9zM645 790h-424v122h424v-122z" />
    <glyph glyph-name="uni04EF" unicode="&#x4ef;" horiz-adv-x="733" 
d="M378 -190h-223l123 259l-283 501h231l152 -279h7l127 279h226zM585 650h-424v122h424v-122z" />
    <glyph glyph-name="uni04F0" unicode="&#x4f0;" horiz-adv-x="825" 
d="M613 700h232l-253 -496q-54 -105 -132.5 -162t-198.5 -57q-83 0 -158 17v128q38 -6 58.5 -8t45.5 -2q32 0 59.5 6.5t45.5 18.5l-312 555h248l192 -342h9zM218.5 787.5q-29.5 27.5 -29.5 67.5t29.5 67.5t75.5 27.5t75.5 -27.5t29.5 -67.5t-29.5 -67.5t-75.5 -27.5
t-75.5 27.5zM496.5 787.5q-29.5 27.5 -29.5 67.5t29.5 67.5t75.5 27.5t75.5 -27.5t29.5 -67.5t-29.5 -67.5t-75.5 -27.5t-75.5 27.5z" />
    <glyph glyph-name="uni04F1" unicode="&#x4f1;" horiz-adv-x="733" 
d="M378 -190h-223l123 259l-283 501h231l152 -279h7l127 279h226zM158.5 647.5q-29.5 27.5 -29.5 67.5t29.5 67.5t75.5 27.5t75.5 -27.5t29.5 -67.5t-29.5 -67.5t-75.5 -27.5t-75.5 27.5zM436.5 647.5q-29.5 27.5 -29.5 67.5t29.5 67.5t75.5 27.5t75.5 -27.5t29.5 -67.5
t-29.5 -67.5t-75.5 -27.5t-75.5 27.5z" />
    <glyph glyph-name="Wgrave" unicode="&#x1e80;" horiz-adv-x="1324" 
d="M525 0h-317l-198 700h227l147 -528h9l159 528h220l159 -528h9l147 528h227l-198 -700h-316l-133 472h-10zM837 763h-15l-323 50l10 140h55l283 -135z" />
    <glyph glyph-name="wgrave" unicode="&#x1e81;" horiz-adv-x="1083" 
d="M434 0h-261l-168 570h212l107 -378h5l118 378h189l118 -378h5l107 378h212l-168 -570h-260l-105 338h-6zM717 623h-15l-323 50l10 140h55l283 -135z" />
    <glyph glyph-name="Wacute" unicode="&#x1e82;" horiz-adv-x="1324" 
d="M525 0h-317l-198 700h227l147 -528h9l159 528h220l159 -528h9l147 528h227l-198 -700h-316l-133 472h-10zM502 763h-15l-10 55l283 135h55l10 -140z" />
    <glyph glyph-name="wacute" unicode="&#x1e83;" horiz-adv-x="1083" 
d="M434 0h-261l-168 570h212l107 -378h5l118 378h189l118 -378h5l107 378h212l-168 -570h-260l-105 338h-6zM382 623h-15l-10 55l283 135h55l10 -140z" />
    <glyph glyph-name="Wdieresis" unicode="&#x1e84;" horiz-adv-x="1324" 
d="M525 0h-317l-198 700h227l147 -528h9l159 528h220l159 -528h9l147 528h227l-198 -700h-316l-133 472h-10zM447.5 787.5q-29.5 27.5 -29.5 67.5t29.5 67.5t75.5 27.5t75.5 -27.5t29.5 -67.5t-29.5 -67.5t-75.5 -27.5t-75.5 27.5zM725.5 787.5q-29.5 27.5 -29.5 67.5
t29.5 67.5t75.5 27.5t75.5 -27.5t29.5 -67.5t-29.5 -67.5t-75.5 -27.5t-75.5 27.5z" />
    <glyph glyph-name="wdieresis" unicode="&#x1e85;" horiz-adv-x="1083" 
d="M434 0h-261l-168 570h212l107 -378h5l118 378h189l118 -378h5l107 378h212l-168 -570h-260l-105 338h-6zM327.5 647.5q-29.5 27.5 -29.5 67.5t29.5 67.5t75.5 27.5t75.5 -27.5t29.5 -67.5t-29.5 -67.5t-75.5 -27.5t-75.5 27.5zM605.5 647.5q-29.5 27.5 -29.5 67.5
t29.5 67.5t75.5 27.5t75.5 -27.5t29.5 -67.5t-29.5 -67.5t-75.5 -27.5t-75.5 27.5z" />
    <glyph glyph-name="uni1E9E" unicode="&#x1e9e;" horiz-adv-x="1010" 
d="M525 -4.5q-75 15.5 -113 35.5v197q38 -25 105 -45t140 -20q54 0 78.5 15.5t24.5 41.5q0 29 -32.5 47t-100.5 39q-60 19 -96.5 34t-62.5 42t-26 66q0 24 10.5 42t22.5 25v5h-180v-520h-215v700h675v-170h-43q-58 0 -84 -14.5t-26 -36.5q0 -26 31.5 -42.5t101.5 -38.5
q77 -25 127 -47.5t86.5 -64.5t36.5 -106q0 -57 -32 -102t-98 -71.5t-165 -26.5q-90 0 -165 15.5z" />
    <glyph glyph-name="uni1EBC" unicode="&#x1ebc;" horiz-adv-x="767" 
d="M295 295v-130h422v-165h-637v700h617v-165h-402v-130h362v-110h-362zM453 783q-23 10 -52 29q-16 12 -27 17.5t-23 5.5q-27 0 -27 -30v-27h-160v51q0 50 27 77t77 27q34 0 57 -10t52 -29q16 -12 27 -17.5t23 -5.5q27 0 27 30v27h160v-53q0 -49 -27 -75.5t-77 -26.5
q-34 0 -57 10z" />
    <glyph glyph-name="uni1EBD" unicode="&#x1ebd;" 
d="M215 24q-88 39 -131.5 107t-43.5 154q0 88 41.5 156t122 106t193.5 38q108 0 186.5 -38.5t120 -107t41.5 -154.5v-17h-481q9 -53 60 -83t148 -30q61 0 121 17.5t92 38.5v-171q-33 -21 -103.5 -38t-151.5 -17q-127 0 -215 39zM524 340q-6 50 -38.5 80t-88.5 30
q-57 0 -92 -30t-41 -80h260zM456 643q-23 10 -52 29q-16 12 -27 17.5t-23 5.5q-27 0 -27 -30v-27h-160v51q0 50 27 77t77 27q34 0 57 -10t52 -29q16 -12 27 -17.5t23 -5.5q27 0 27 30v27h160v-53q0 -49 -27 -75.5t-77 -26.5q-34 0 -57 10z" />
    <glyph glyph-name="Ygrave" unicode="&#x1ef2;" horiz-adv-x="895" 
d="M555 0h-215v148l-360 552h239l224 -347h9l224 347h239l-360 -552v-148zM603 763h-15l-323 50l10 140h55l283 -135z" />
    <glyph glyph-name="ygrave" unicode="&#x1ef3;" horiz-adv-x="733" 
d="M378 -190h-223l123 259l-283 501h231l152 -279h7l127 279h226zM542 623h-15l-323 50l10 140h55l283 -135z" />
    <glyph glyph-name="uni1EF8" unicode="&#x1ef8;" horiz-adv-x="895" 
d="M555 0h-215v148l-360 552h239l224 -347h9l224 347h239l-360 -552v-148zM512 783q-23 10 -52 29q-16 12 -27 17.5t-23 5.5q-27 0 -27 -30v-27h-160v51q0 50 27 77t77 27q34 0 57 -10t52 -29q16 -12 27 -17.5t23 -5.5q27 0 27 30v27h160v-53q0 -49 -27 -75.5t-77 -26.5
q-34 0 -57 10z" />
    <glyph glyph-name="uni1EF9" unicode="&#x1ef9;" horiz-adv-x="733" 
d="M378 -190h-223l123 259l-283 501h231l152 -279h7l127 279h226zM437 643q-23 10 -52 29q-16 12 -27 17.5t-23 5.5q-27 0 -27 -30v-27h-160v51q0 50 27 77t77 27q34 0 57 -10t52 -29q16 -12 27 -17.5t23 -5.5q27 0 27 30v27h160v-53q0 -49 -27 -75.5t-77 -26.5
q-34 0 -57 10z" />
    <glyph glyph-name="endash" unicode="&#x2013;" horiz-adv-x="820" 
d="M770 240h-720v143h720v-143z" />
    <glyph glyph-name="emdash" unicode="&#x2014;" horiz-adv-x="1123" 
d="M1073 240h-1023v143h1023v-143z" />
    <glyph glyph-name="quoteleft" unicode="&#x2018;" horiz-adv-x="260" 
d="M55 407.5q-30 35.5 -30 114.5q0 100 46.5 151.5t130.5 51.5h28v-119h-43q-56 0 -83 -22t-27 -61h5q7 12 24.5 22t41.5 10q39 0 63 -24.5t24 -65.5q0 -40 -27.5 -66.5t-71.5 -26.5q-51 0 -81 35.5z" />
    <glyph glyph-name="quoteright" unicode="&#x2019;" horiz-adv-x="260" 
d="M30 372v119h43q56 0 83 22t27 61h-5q-7 -12 -24.5 -22t-41.5 -10q-39 0 -63 24.5t-24 65.5q0 40 27.5 66.5t71.5 26.5q51 0 81 -35.5t30 -114.5q0 -100 -46.5 -151.5t-130.5 -51.5h-28z" />
    <glyph glyph-name="quotesinglbase" unicode="&#x201a;" horiz-adv-x="260" 
d="M30 -185v119h43q56 0 83 22t27 61h-5q-7 -12 -24.5 -22t-41.5 -10q-39 0 -63 24.5t-24 65.5q0 40 27.5 66.5t71.5 26.5q51 0 81 -35.5t30 -114.5q0 -100 -46.5 -151.5t-130.5 -51.5h-28z" />
    <glyph glyph-name="quotedblleft" unicode="&#x201c;" horiz-adv-x="503" 
d="M55 407.5q-30 35.5 -30 114.5q0 100 46.5 151.5t130.5 51.5h28v-119h-43q-56 0 -83 -22t-27 -61h5q7 12 24.5 22t41.5 10q39 0 63 -24.5t24 -65.5q0 -40 -27.5 -66.5t-71.5 -26.5q-51 0 -81 35.5zM298 407.5q-30 35.5 -30 114.5q0 100 46.5 151.5t130.5 51.5h28v-119h-43
q-56 0 -83 -22t-27 -61h5q7 12 24.5 22t41.5 10q39 0 63 -24.5t24 -65.5q0 -40 -27.5 -66.5t-71.5 -26.5q-51 0 -81 35.5z" />
    <glyph glyph-name="quotedblright" unicode="&#x201d;" horiz-adv-x="503" 
d="M30 372v119h43q56 0 83 22t27 61h-5q-7 -12 -24.5 -22t-41.5 -10q-39 0 -63 24.5t-24 65.5q0 40 27.5 66.5t71.5 26.5q51 0 81 -35.5t30 -114.5q0 -100 -46.5 -151.5t-130.5 -51.5h-28zM273 372v119h43q56 0 83 22t27 61h-5q-7 -12 -24.5 -22t-41.5 -10q-39 0 -63 24.5
t-24 65.5q0 40 27.5 66.5t71.5 26.5q51 0 81 -35.5t30 -114.5q0 -100 -46.5 -151.5t-130.5 -51.5h-28z" />
    <glyph glyph-name="quotedblbase" unicode="&#x201e;" horiz-adv-x="503" 
d="M30 -185v119h43q56 0 83 22t27 61h-5q-7 -12 -24.5 -22t-41.5 -10q-39 0 -63 24.5t-24 65.5q0 40 27.5 66.5t71.5 26.5q51 0 81 -35.5t30 -114.5q0 -100 -46.5 -151.5t-130.5 -51.5h-28zM273 -185v119h43q56 0 83 22t27 61h-5q-7 -12 -24.5 -22t-41.5 -10q-39 0 -63 24.5
t-24 65.5q0 40 27.5 66.5t71.5 26.5q51 0 81 -35.5t30 -114.5q0 -100 -46.5 -151.5t-130.5 -51.5h-28z" />
    <glyph glyph-name="dagger" unicode="&#x2020;" horiz-adv-x="676" 
d="M433 -190h-190v580l-208 -17v172l208 -17v192h190v-192l208 17v-172l-208 17v-580z" />
    <glyph glyph-name="daggerdbl" unicode="&#x2021;" horiz-adv-x="686" 
d="M438 -190h-190v160l-173 -18v175l173 -18v281l-208 -17v172l208 -17v192h190v-192l208 17v-172l-208 17v-281l173 18v-175l-173 18v-160z" />
    <glyph glyph-name="bullet" unicode="&#x2022;" horiz-adv-x="518" 
d="M158.5 207.5q-38.5 37.5 -38.5 97.5t38.5 97.5t100.5 37.5t100.5 -37.5t38.5 -97.5t-38.5 -97.5t-100.5 -37.5t-100.5 37.5z" />
    <glyph glyph-name="ellipsis" unicode="&#x2026;" horiz-adv-x="899" 
d="M53.5 6.5q-28.5 26.5 -28.5 67.5t28.5 67.5t76.5 26.5t76.5 -26.5t28.5 -67.5t-28.5 -67.5t-76.5 -26.5t-76.5 26.5zM372.5 6.5q-28.5 26.5 -28.5 67.5t28.5 67.5t76.5 26.5t76.5 -26.5t28.5 -67.5t-28.5 -67.5t-76.5 -26.5t-76.5 26.5zM692.5 6.5q-28.5 26.5 -28.5 67.5
t28.5 67.5t76.5 26.5t76.5 -26.5t28.5 -67.5t-28.5 -67.5t-76.5 -26.5t-76.5 26.5z" />
    <glyph glyph-name="perthousand" unicode="&#x2030;" horiz-adv-x="1449" 
d="M129 379.5q-45 23.5 -69.5 65t-24.5 93.5t24.5 93.5t69.5 65t104 23.5t104 -23.5t69.5 -65t24.5 -93.5t-24.5 -93.5t-69.5 -65t-104 -23.5t-104 23.5zM404 0h-185l395 700h185zM278.5 487.5q17.5 18.5 17.5 50.5t-17.5 50.5t-45.5 18.5t-45.5 -18.5t-17.5 -50.5
t17.5 -50.5t45.5 -18.5t45.5 18.5zM671 3.5q-45 23.5 -69.5 65t-24.5 93.5t24.5 93.5t69.5 65t104 23.5t104 -23.5t69.5 -65t24.5 -93.5t-24.5 -93.5t-69.5 -65t-104 -23.5t-104 23.5zM1112 3.5q-45 23.5 -69.5 65t-24.5 93.5t24.5 93.5t69.5 65t104 23.5t104 -23.5
t69.5 -65t24.5 -93.5t-24.5 -93.5t-69.5 -65t-104 -23.5t-104 23.5zM820.5 111.5q17.5 18.5 17.5 50.5t-17.5 50.5t-45.5 18.5t-45.5 -18.5t-17.5 -50.5t17.5 -50.5t45.5 -18.5t45.5 18.5zM1261.5 111.5q17.5 18.5 17.5 50.5t-17.5 50.5t-45.5 18.5t-45.5 -18.5t-17.5 -50.5
t17.5 -50.5t45.5 -18.5t45.5 18.5z" />
    <glyph glyph-name="guilsinglleft" unicode="&#x2039;" horiz-adv-x="438" 
d="M403 36h-203l-170 242l170 242h203l-170 -242z" />
    <glyph glyph-name="guilsinglright" unicode="&#x203a;" horiz-adv-x="438" 
d="M238 36h-203l170 242l-170 242h203l170 -242z" />
    <glyph glyph-name="fraction" unicode="&#x2044;" horiz-adv-x="256" 
d="M38 0h-188l368 700h188z" />
    <glyph glyph-name="uni2070" unicode="&#x2070;" horiz-adv-x="484" 
d="M86.5 483q-56.5 53 -56.5 142t56.5 142t155.5 53t155.5 -53t56.5 -142t-56.5 -142t-155.5 -53t-155.5 53zM285.5 553q16.5 23 16.5 72t-16.5 72t-43.5 23t-43.5 -23t-16.5 -72t16.5 -72t43.5 -23t43.5 23z" />
    <glyph glyph-name="uni2074" unicode="&#x2074;" horiz-adv-x="425" 
d="M383 450h-150v65h-218v58l125 227h154l-122 -221v-6h61l26 80h124v-80h37v-58h-37v-65z" />
    <glyph glyph-name="uni2075" unicode="&#x2075;" horiz-adv-x="392" 
d="M93.5 439.5q-46.5 9.5 -68.5 20.5v107q22 -11 60 -20.5t78 -9.5q35 0 51 10t16 26q0 15 -15.5 25t-49.5 10q-26 0 -51 -5.5t-41 -11.5l-35 15l10 194h297v-107h-187l-2 -42q21 7 55 7q87 0 129 -30t42 -78q0 -50 -47.5 -85t-138.5 -35q-56 0 -102.5 9.5z" />
    <glyph glyph-name="uni2076" unicode="&#x2076;" horiz-adv-x="409" 
d="M63 466q-48 36 -48 92q0 24 13 50.5t47 69.5l98 122h157l-103 -128v-5h15q76 0 116.5 -31t40.5 -78q0 -56 -48.5 -92t-144.5 -36q-95 0 -143 36zM246 543.5q15 13.5 15 32.5t-15 32.5t-39 13.5t-39 -13.5t-15 -32.5q0 -20 15 -33t39 -13t39 13.5z" />
    <glyph glyph-name="uni2077" unicode="&#x2077;" horiz-adv-x="387" 
d="M240 450h-155l119 242h-189v108h352v-91z" />
    <glyph glyph-name="uni2078" unicode="&#x2078;" horiz-adv-x="474" 
d="M35 531q0 34 26.5 56t80.5 24v9q-56 3 -86.5 27.5t-30.5 61.5q0 47 51.5 79t160.5 32t160.5 -32t51.5 -79q0 -37 -30.5 -61.5t-86.5 -27.5v-9q54 -2 80.5 -24t26.5 -56q0 -101 -202 -101t-202 101zM291.5 656.5q17.5 11.5 17.5 28.5t-17.5 28.5t-54.5 11.5t-54.5 -11.5
t-17.5 -28.5t17.5 -28.5t54.5 -11.5t54.5 11.5zM304 557q0 30 -67 30t-67 -30q0 -32 67 -32t67 32z" />
    <glyph glyph-name="uni2079" unicode="&#x2079;" horiz-adv-x="442" 
d="M96 450l110 126v5h-15q-89 0 -132.5 31t-43.5 79q0 57 51 93t155 36q103 0 154.5 -35t51.5 -86q0 -29 -16 -55.5t-66 -84.5l-95 -109h-154zM272 638.5q17 12.5 17 33.5q0 22 -16.5 35t-51.5 13t-51.5 -13t-16.5 -35q0 -21 17 -33.5t51 -12.5t51 12.5z" />
    <glyph glyph-name="uni2080" unicode="&#x2080;" horiz-adv-x="484" 
d="M86.5 -67q-56.5 53 -56.5 142t56.5 142t155.5 53t155.5 -53t56.5 -142t-56.5 -142t-155.5 -53t-155.5 53zM285.5 3q16.5 23 16.5 72t-16.5 72t-43.5 23t-43.5 -23t-16.5 -72t16.5 -72t43.5 -23t43.5 23z" />
    <glyph glyph-name="uni2081" unicode="&#x2081;" horiz-adv-x="402" 
d="M45 -100v103h95v110h-95v95h55q20 0 31 11t11 31h148v-247h92v-103h-337z" />
    <glyph glyph-name="uni2082" unicode="&#x2082;" horiz-adv-x="427" 
d="M40 -100v78l117 64q46 25 67 44.5t21 36.5q0 37 -47 37q-31 0 -77.5 -18t-85.5 -40v115q34 20 90.5 36.5t115.5 16.5q79 0 117.5 -27.5t38.5 -69.5q0 -28 -16.5 -49.5t-49 -43t-96.5 -56.5l-20 -11v-5h174v-108h-349z" />
    <glyph glyph-name="uni2083" unicode="&#x2083;" horiz-adv-x="412" 
d="M111 -110.5q-48 9.5 -76 20.5v107q30 -12 70 -21t72 -9q63 0 63 36q0 35 -63 35q-34 0 -82 -8v40l90 48v5h-145v107h332v-70l-141 -65v-5q81 0 121 -29t40 -76q0 -34 -20.5 -62.5t-62.5 -45.5t-101 -17q-49 0 -97 9.5z" />
    <glyph glyph-name="uni2084" unicode="&#x2084;" horiz-adv-x="425" 
d="M383 -100h-150v65h-218v58l125 227h154l-122 -221v-6h61l26 80h124v-80h37v-58h-37v-65z" />
    <glyph glyph-name="uni2085" unicode="&#x2085;" horiz-adv-x="392" 
d="M93.5 -110.5q-46.5 9.5 -68.5 20.5v107q22 -11 60 -20.5t78 -9.5q35 0 51 10t16 26q0 15 -15.5 25t-49.5 10q-26 0 -51 -5.5t-41 -11.5l-35 15l10 194h297v-107h-187l-2 -42q21 7 55 7q87 0 129 -30t42 -78q0 -50 -47.5 -85t-138.5 -35q-56 0 -102.5 9.5z" />
    <glyph glyph-name="uni2086" unicode="&#x2086;" horiz-adv-x="409" 
d="M63 -84q-48 36 -48 92q0 24 13 50.5t47 69.5l98 122h157l-103 -128v-5h15q76 0 116.5 -31t40.5 -78q0 -56 -48.5 -92t-144.5 -36q-95 0 -143 36zM246 -6.5q15 13.5 15 32.5t-15 32.5t-39 13.5t-39 -13.5t-15 -32.5q0 -20 15 -33t39 -13t39 13.5z" />
    <glyph glyph-name="uni2087" unicode="&#x2087;" horiz-adv-x="387" 
d="M240 -100h-155l119 242h-189v108h352v-91z" />
    <glyph glyph-name="uni2088" unicode="&#x2088;" horiz-adv-x="474" 
d="M35 -19q0 34 26.5 56t80.5 24v9q-56 3 -86.5 27.5t-30.5 61.5q0 47 51.5 79t160.5 32t160.5 -32t51.5 -79q0 -37 -30.5 -61.5t-86.5 -27.5v-9q54 -2 80.5 -24t26.5 -56q0 -101 -202 -101t-202 101zM291.5 106.5q17.5 11.5 17.5 28.5t-17.5 28.5t-54.5 11.5t-54.5 -11.5
t-17.5 -28.5t17.5 -28.5t54.5 -11.5t54.5 11.5zM304 7q0 30 -67 30t-67 -30q0 -32 67 -32t67 32z" />
    <glyph glyph-name="uni2089" unicode="&#x2089;" horiz-adv-x="442" 
d="M96 -100l110 126v5h-15q-89 0 -132.5 31t-43.5 79q0 57 51 93t155 36q103 0 154.5 -35t51.5 -86q0 -29 -16 -55.5t-66 -84.5l-95 -109h-154zM272 88.5q17 12.5 17 33.5q0 22 -16.5 35t-51.5 13t-51.5 -13t-16.5 -35q0 -21 17 -33.5t51 -12.5t51 12.5z" />
    <glyph glyph-name="uni20A9" unicode="&#x20a9;" horiz-adv-x="1254" 
d="M1229 475v-95h-113l-18 -80h131v-95h-152l-45 -205h-291l-109 477h-10l-109 -477h-291l-45 205h-152v95h131l-18 80h-113v95h92l-50 225h223l108 -528h9l123 528h194l123 -528h9l108 528h223l-50 -225h92z" />
    <glyph glyph-name="Euro" unicode="&#x20ac;" horiz-adv-x="940" 
d="M437.5 523q-59.5 -24 -91.5 -66h286v-72h-319q-3 -16 -3 -35q0 -18 3 -35h319v-72h-287q31 -42 87.5 -66t134.5 -24q92 0 167.5 23.5t115.5 51.5v-184q-40 -24 -121.5 -44t-183.5 -20q-118 0 -210 33.5t-151 92.5t-83 137h-86v72h72q-2 24 -2 35t2 35h-72v72h86
q38 120 157 191.5t307 71.5q103 0 188 -22t127 -49v-187q-42 32 -123 58.5t-177 26.5q-83 0 -142.5 -24z" />
    <glyph glyph-name="uni20B4" unicode="&#x20b4;" horiz-adv-x="844" 
d="M799 432v-72h-754v72h497q13 19 13 40q0 34 -30.5 54.5t-99.5 20.5q-94 0 -184.5 -21.5t-143.5 -48.5v168q49 29 141.5 52t198.5 23q116 0 193 -28t113.5 -74t36.5 -100q0 -53 -31 -86h50zM45 247v72h754v-72h-493q-6 -9 -6 -21q0 -35 30.5 -54t106.5 -19q88 0 171 18
t132 40v-168q-45 -24 -135.5 -43.5t-197.5 -19.5q-113 0 -187.5 26.5t-109.5 69.5t-35 93q0 46 23 78h-53z" />
    <glyph glyph-name="uni20B8" unicode="&#x20b8;" horiz-adv-x="845" 
d="M35 620v80h775v-80h-775zM315 465h-280v80h775v-80h-280v-465h-215v465z" />
    <glyph glyph-name="uni20B9" unicode="&#x20b9;" horiz-adv-x="787" 
d="M737 582h-139v-8q36 -33 48 -74h91v-72h-86q-9 -78 -71 -130.5t-172 -64.5v-7l279 -226h-246l-284 230h-97v118h230q126 0 148 80h-378v72h379q-23 82 -149 82h-230v118h677v-118z" />
    <glyph glyph-name="uni20BA" unicode="&#x20ba;" horiz-adv-x="792" 
d="M772 288q0 -85 -47.5 -150t-147.5 -101.5t-252 -36.5h-215v227l-100 -37v78l100 37v77l-100 -37v78l100 37v240h215v-160l212 78v-78l-212 -78v-77l212 78v-78l-212 -78v-167q111 0 165 36.5t62 111.5h220z" />
    <glyph glyph-name="uni20BD" unicode="&#x20bd;" horiz-adv-x="880" 
d="M312 290v-72h323v-110h-323v-108h-215v108h-72v110h72v72h-72v110h72v300h445q150 0 226.5 -57.5t76.5 -154.5q0 -198 -303 -198h-230zM312 535v-135h210q50 0 74 18t24 50q0 31 -24 49t-74 18h-210z" />
    <glyph glyph-name="uni20BF" unicode="&#x20bf;" horiz-adv-x="890" 
d="M617 345q96 0 147 -43t51 -114q0 -76 -52.5 -125t-160.5 -60v-123h-145v120h-104v-120h-145v120h-128v700h128v120h145v-120h104v120h145v-122q119 -10 176 -58t57 -120q0 -75 -55.5 -120.5t-162.5 -45.5v-9zM515 403q48 0 71.5 18t23.5 49q0 29 -23.5 47t-71.5 18h-220
v-132h220zM495 165q49 0 72 17.5t23 46.5t-23 46.5t-72 17.5h-200v-128h200z" />
    <glyph glyph-name="uni2116" unicode="&#x2116;" horiz-adv-x="1417" 
d="M1061.5 377.5q-45.5 23.5 -70 65t-24.5 94.5t24.5 94.5t70 65t105.5 23.5t105.5 -23.5t70 -65t24.5 -94.5t-24.5 -94.5t-70 -65t-105.5 -23.5t-105.5 23.5zM287 0h-207v700h344l247 -499h9v499h207v-700h-344l-247 499h-9v-499zM1214 485q18 19 18 52t-18 52t-47 19
t-47 -19t-18 -52t18 -52t47 -19t47 19zM1357 195h-380v108h380v-108z" />
    <glyph glyph-name="trademark" unicode="&#x2122;" horiz-adv-x="1012" 
d="M271 370h-143v225h-108v105h359v-105h-108v-225zM574 370h-143v330h159l108 -189h5l107 189h157v-330h-143v184h-5l-118 -194h-4l-118 194h-5v-184z" />
    <glyph glyph-name="uni2150" unicode="&#x2150;" horiz-adv-x="1045" 
d="M45 350v103h95v110h-95v95h55q20 0 31 11t11 31h148v-247h92v-103h-337zM440 0h-188l368 700h188zM898 0h-155l119 242h-189v108h352v-91z" />
    <glyph glyph-name="uni2151" unicode="&#x2151;" horiz-adv-x="1100" 
d="M45 350v103h95v110h-95v95h55q20 0 31 11t11 31h148v-247h92v-103h-337zM440 0h-188l368 700h188zM754 0l110 126v5h-15q-89 0 -132.5 31t-43.5 79q0 57 51 93t155 36q103 0 154.5 -35t51.5 -86q0 -29 -16 -55.5t-66 -84.5l-95 -109h-154zM930 188.5q17 12.5 17 33.5
q0 22 -16.5 35t-51.5 13t-51.5 -13t-16.5 -35q0 -21 17 -33.5t51 -12.5t51 12.5z" />
    <glyph glyph-name="uni2153" unicode="&#x2153;" horiz-adv-x="1070" 
d="M45 350v103h95v110h-95v95h55q20 0 31 11t11 31h148v-247h92v-103h-337zM440 0h-188l368 700h188zM769 -10.5q-48 9.5 -76 20.5v107q30 -12 70 -21t72 -9q63 0 63 36q0 35 -63 35q-34 0 -82 -8v40l90 48v5h-145v107h332v-70l-141 -65v-5q81 0 121 -29t40 -76
q0 -34 -20.5 -62.5t-62.5 -45.5t-101 -17q-49 0 -97 9.5z" />
    <glyph glyph-name="uni2154" unicode="&#x2154;" horiz-adv-x="1095" 
d="M40 350v78l117 64q46 25 67 44.5t21 36.5q0 37 -47 37q-31 0 -77.5 -18t-85.5 -40v115q34 20 90.5 36.5t115.5 16.5q79 0 117.5 -27.5t38.5 -69.5q0 -28 -16.5 -49.5t-49 -43t-96.5 -56.5l-20 -11v-5h174v-108h-349zM465 0h-188l368 700h188zM794 -10.5q-48 9.5 -76 20.5
v107q30 -12 70 -21t72 -9q63 0 63 36q0 35 -63 35q-34 0 -82 -8v40l90 48v5h-145v107h332v-70l-141 -65v-5q81 0 121 -29t40 -76q0 -34 -20.5 -62.5t-62.5 -45.5t-101 -17q-49 0 -97 9.5z" />
    <glyph glyph-name="uni2155" unicode="&#x2155;" horiz-adv-x="1050" 
d="M45 350v103h95v110h-95v95h55q20 0 31 11t11 31h148v-247h92v-103h-337zM440 0h-188l368 700h188zM751.5 -10.5q-46.5 9.5 -68.5 20.5v107q22 -11 60 -20.5t78 -9.5q35 0 51 10t16 26q0 15 -15.5 25t-49.5 10q-26 0 -51 -5.5t-41 -11.5l-35 15l10 194h297v-107h-187
l-2 -42q21 7 55 7q87 0 129 -30t42 -78q0 -50 -47.5 -85t-138.5 -35q-56 0 -102.5 9.5z" />
    <glyph glyph-name="uni2156" unicode="&#x2156;" horiz-adv-x="1075" 
d="M40 350v78l117 64q46 25 67 44.5t21 36.5q0 37 -47 37q-31 0 -77.5 -18t-85.5 -40v115q34 20 90.5 36.5t115.5 16.5q79 0 117.5 -27.5t38.5 -69.5q0 -28 -16.5 -49.5t-49 -43t-96.5 -56.5l-20 -11v-5h174v-108h-349zM465 0h-188l368 700h188zM776.5 -10.5
q-46.5 9.5 -68.5 20.5v107q22 -11 60 -20.5t78 -9.5q35 0 51 10t16 26q0 15 -15.5 25t-49.5 10q-26 0 -51 -5.5t-41 -11.5l-35 15l10 194h297v-107h-187l-2 -42q21 7 55 7q87 0 129 -30t42 -78q0 -50 -47.5 -85t-138.5 -35q-56 0 -102.5 9.5z" />
    <glyph glyph-name="uni2157" unicode="&#x2157;" horiz-adv-x="1060" 
d="M111 339.5q-48 9.5 -76 20.5v107q30 -12 70 -21t72 -9q63 0 63 36q0 35 -63 35q-34 0 -82 -8v40l90 48v5h-145v107h332v-70l-141 -65v-5q81 0 121 -29t40 -76q0 -34 -20.5 -62.5t-62.5 -45.5t-101 -17q-49 0 -97 9.5zM450 0h-188l368 700h188zM761.5 -10.5
q-46.5 9.5 -68.5 20.5v107q22 -11 60 -20.5t78 -9.5q35 0 51 10t16 26q0 15 -15.5 25t-49.5 10q-26 0 -51 -5.5t-41 -11.5l-35 15l10 194h297v-107h-187l-2 -42q21 7 55 7q87 0 129 -30t42 -78q0 -50 -47.5 -85t-138.5 -35q-56 0 -102.5 9.5z" />
    <glyph glyph-name="uni2158" unicode="&#x2158;" horiz-adv-x="1073" 
d="M383 350h-150v65h-218v58l125 227h154l-122 -221v-6h61l26 80h124v-80h37v-58h-37v-65zM463 0h-188l368 700h188zM774.5 -10.5q-46.5 9.5 -68.5 20.5v107q22 -11 60 -20.5t78 -9.5q35 0 51 10t16 26q0 15 -15.5 25t-49.5 10q-26 0 -51 -5.5t-41 -11.5l-35 15l10 194h297
v-107h-187l-2 -42q21 7 55 7q87 0 129 -30t42 -78q0 -50 -47.5 -85t-138.5 -35q-56 0 -102.5 9.5z" />
    <glyph glyph-name="uni2159" unicode="&#x2159;" horiz-adv-x="1067" 
d="M45 350v103h95v110h-95v95h55q20 0 31 11t11 31h148v-247h92v-103h-337zM440 0h-188l368 700h188zM721 16q-48 36 -48 92q0 24 13 50.5t47 69.5l98 122h157l-103 -128v-5h15q76 0 116.5 -31t40.5 -78q0 -56 -48.5 -92t-144.5 -36q-95 0 -143 36zM904 93.5
q15 13.5 15 32.5t-15 32.5t-39 13.5t-39 -13.5t-15 -32.5q0 -20 15 -33t39 -13t39 13.5z" />
    <glyph glyph-name="uni215A" unicode="&#x215a;" horiz-adv-x="1057" 
d="M93.5 339.5q-46.5 9.5 -68.5 20.5v107q22 -11 60 -20.5t78 -9.5q35 0 51 10t16 26q0 15 -15.5 25t-49.5 10q-26 0 -51 -5.5t-41 -11.5l-35 15l10 194h297v-107h-187l-2 -42q21 7 55 7q87 0 129 -30t42 -78q0 -50 -47.5 -85t-138.5 -35q-56 0 -102.5 9.5zM430 0h-188
l368 700h188zM711 16q-48 36 -48 92q0 24 13 50.5t47 69.5l98 122h157l-103 -128v-5h15q76 0 116.5 -31t40.5 -78q0 -56 -48.5 -92t-144.5 -36q-95 0 -143 36zM894 93.5q15 13.5 15 32.5t-15 32.5t-39 13.5t-39 -13.5t-15 -32.5q0 -20 15 -33t39 -13t39 13.5z" />
    <glyph glyph-name="oneeighth" unicode="&#x215b;" horiz-adv-x="1132" 
d="M45 350v103h95v110h-95v95h55q20 0 31 11t11 31h148v-247h92v-103h-337zM440 0h-188l368 700h188zM693 81q0 34 26.5 56t80.5 24v9q-56 3 -86.5 27.5t-30.5 61.5q0 47 51.5 79t160.5 32t160.5 -32t51.5 -79q0 -37 -30.5 -61.5t-86.5 -27.5v-9q54 -2 80.5 -24t26.5 -56
q0 -101 -202 -101t-202 101zM949.5 206.5q17.5 11.5 17.5 28.5t-17.5 28.5t-54.5 11.5t-54.5 -11.5t-17.5 -28.5t17.5 -28.5t54.5 -11.5t54.5 11.5zM962 107q0 30 -67 30t-67 -30q0 -32 67 -32t67 32z" />
    <glyph glyph-name="threeeighths" unicode="&#x215c;" horiz-adv-x="1142" 
d="M111 339.5q-48 9.5 -76 20.5v107q30 -12 70 -21t72 -9q63 0 63 36q0 35 -63 35q-34 0 -82 -8v40l90 48v5h-145v107h332v-70l-141 -65v-5q81 0 121 -29t40 -76q0 -34 -20.5 -62.5t-62.5 -45.5t-101 -17q-49 0 -97 9.5zM450 0h-188l368 700h188zM703 81q0 34 26.5 56
t80.5 24v9q-56 3 -86.5 27.5t-30.5 61.5q0 47 51.5 79t160.5 32t160.5 -32t51.5 -79q0 -37 -30.5 -61.5t-86.5 -27.5v-9q54 -2 80.5 -24t26.5 -56q0 -101 -202 -101t-202 101zM959.5 206.5q17.5 11.5 17.5 28.5t-17.5 28.5t-54.5 11.5t-54.5 -11.5t-17.5 -28.5t17.5 -28.5
t54.5 -11.5t54.5 11.5zM972 107q0 30 -67 30t-67 -30q0 -32 67 -32t67 32z" />
    <glyph glyph-name="fiveeighths" unicode="&#x215d;" horiz-adv-x="1122" 
d="M93.5 339.5q-46.5 9.5 -68.5 20.5v107q22 -11 60 -20.5t78 -9.5q35 0 51 10t16 26q0 15 -15.5 25t-49.5 10q-26 0 -51 -5.5t-41 -11.5l-35 15l10 194h297v-107h-187l-2 -42q21 7 55 7q87 0 129 -30t42 -78q0 -50 -47.5 -85t-138.5 -35q-56 0 -102.5 9.5zM430 0h-188
l368 700h188zM683 81q0 34 26.5 56t80.5 24v9q-56 3 -86.5 27.5t-30.5 61.5q0 47 51.5 79t160.5 32t160.5 -32t51.5 -79q0 -37 -30.5 -61.5t-86.5 -27.5v-9q54 -2 80.5 -24t26.5 -56q0 -101 -202 -101t-202 101zM939.5 206.5q17.5 11.5 17.5 28.5t-17.5 28.5t-54.5 11.5
t-54.5 -11.5t-17.5 -28.5t17.5 -28.5t54.5 -11.5t54.5 11.5zM952 107q0 30 -67 30t-67 -30q0 -32 67 -32t67 32z" />
    <glyph glyph-name="seveneighths" unicode="&#x215e;" horiz-adv-x="1117" 
d="M240 350h-155l119 242h-189v108h352v-91zM425 0h-188l368 700h188zM678 81q0 34 26.5 56t80.5 24v9q-56 3 -86.5 27.5t-30.5 61.5q0 47 51.5 79t160.5 32t160.5 -32t51.5 -79q0 -37 -30.5 -61.5t-86.5 -27.5v-9q54 -2 80.5 -24t26.5 -56q0 -101 -202 -101t-202 101z
M934.5 206.5q17.5 11.5 17.5 28.5t-17.5 28.5t-54.5 11.5t-54.5 -11.5t-17.5 -28.5t17.5 -28.5t54.5 -11.5t54.5 11.5zM947 107q0 30 -67 30t-67 -30q0 -32 67 -32t67 32z" />
    <glyph glyph-name="uni215F" unicode="&#x215f;" horiz-adv-x="658" 
d="M45 350v103h95v110h-95v95h55q20 0 31 11t11 31h148v-247h92v-103h-337zM440 0h-188l368 700h188z" />
    <glyph glyph-name="arrowleft" unicode="&#x2190;" horiz-adv-x="1005" 
d="M488 148l-88 -90l-270 277l270 277l88 -90l-113 -115v-5h475v-134h-475v-5z" />
    <glyph glyph-name="arrowup" unicode="&#x2191;" horiz-adv-x="1006" 
d="M570 0h-134v455h-5l-115 -113l-90 88l277 270l277 -270l-90 -88l-115 113h-5v-455z" />
    <glyph glyph-name="arrowright" unicode="&#x2192;" horiz-adv-x="1005" 
d="M875 335l-270 -277l-88 90l113 115v5h-475v134h475v5l-113 115l88 90z" />
    <glyph glyph-name="arrowdown" unicode="&#x2193;" horiz-adv-x="1006" 
d="M780 270l-277 -270l-277 270l90 88l115 -113h5v455h134v-455h5l115 113z" />
    <glyph glyph-name="arrowboth" unicode="&#x2194;" horiz-adv-x="1000" 
d="M448 148l-88 -90l-270 277l270 277l88 -90l-113 -115v-5h330v5l-113 115l88 90l270 -277l-270 -277l-88 90l113 115v5h-330v-5z" />
    <glyph glyph-name="arrowupdn" unicode="&#x2195;" horiz-adv-x="1006" 
d="M780 210l-277 -270l-277 270l90 88l115 -113h5v330h-5l-115 -113l-90 88l277 270l277 -270l-90 -88l-115 113h-5v-330h5l115 113z" />
    <glyph glyph-name="uni2196" unicode="&#x2196;" horiz-adv-x="1000" 
d="M780 149l-95 -95l-339 337l-3 -2v-165h-123v387h389v-123h-165l-2 -3z" />
    <glyph glyph-name="uni2197" unicode="&#x2197;" horiz-adv-x="1000" 
d="M654 391l-339 -337l-95 95l338 336l-2 3h-165v123h389v-387h-123v165z" />
    <glyph glyph-name="uni2198" unicode="&#x2198;" horiz-adv-x="1000" 
d="M780 54h-389v123h165l2 3l-338 336l95 95l339 -337l3 2v165h123v-387z" />
    <glyph glyph-name="uni2199" unicode="&#x2199;" horiz-adv-x="1000" 
d="M609 54h-389v387h123v-165l3 -2l339 337l95 -95l-338 -336l2 -3h165v-123z" />
    <glyph glyph-name="minus" unicode="&#x2212;" horiz-adv-x="645" 
d="M590 233h-535v150h535v-150z" />
    <glyph glyph-name="approxequal" unicode="&#x2248;" horiz-adv-x="665" 
d="M50 380q0 68 35 105t98 37q39 0 65 -11t56 -32q22 -15 36.5 -22t32.5 -7q44 0 44 50v17h198v-35q0 -68 -35 -105t-98 -37q-39 0 -65 11t-56 32q-22 15 -36.5 22t-32.5 7q-44 0 -44 -50v-17h-198v35zM50 128q0 68 35 105t98 37q39 0 65 -11t56 -32q22 -15 36.5 -22
t32.5 -7q44 0 44 50v17h198v-35q0 -68 -35 -105t-98 -37q-39 0 -65 11t-56 32q-22 15 -36.5 22t-32.5 7q-44 0 -44 -50v-17h-198v35z" />
    <glyph glyph-name="notequal" unicode="&#x2260;" horiz-adv-x="650" 
d="M585 468v-105h-193l-54 -115h247v-105h-296l-51 -108h-80l51 108h-144v105h193l54 115h-247v105h297l50 107h80l-50 -107h143z" />
    <glyph glyph-name="lessequal" unicode="&#x2264;" horiz-adv-x="685" 
d="M620 273v-136l-555 144v142l555 144v-136l-306 -74v-10zM620 0h-555v100h555v-100z" />
    <glyph glyph-name="greaterequal" unicode="&#x2265;" horiz-adv-x="685" 
d="M620 281l-555 -144v136l306 74v10l-306 74v136l555 -144v-142zM620 100v-100h-555v100h555z" />
    <glyph glyph-name="uni2460" unicode="&#x2460;" horiz-adv-x="1130" 
d="M307 -37.5q-111 57.5 -171.5 159t-60.5 228.5t60.5 228.5t171.5 159t258 57.5t258 -57.5t171.5 -159t60.5 -228.5t-60.5 -228.5t-171.5 -159t-258 -57.5t-258 57.5zM776 36q90 46 138.5 128t48.5 186t-48.5 186t-138.5 128t-211 46t-211 -46t-138.5 -128t-48.5 -186
t48.5 -186t139 -128t210.5 -46q121 0 211 46zM406 175v103h95v110h-95v95h55q20 0 31 11t11 31h148v-247h92v-103h-337z" />
    <glyph glyph-name="uni2461" unicode="&#x2461;" horiz-adv-x="1130" 
d="M307 -37.5q-111 57.5 -171.5 159t-60.5 228.5t60.5 228.5t171.5 159t258 57.5t258 -57.5t171.5 -159t60.5 -228.5t-60.5 -228.5t-171.5 -159t-258 -57.5t-258 57.5zM776 36q90 46 138.5 128t48.5 186t-48.5 186t-138.5 128t-211 46t-211 -46t-138.5 -128t-48.5 -186
t48.5 -186t139 -128t210.5 -46q121 0 211 46zM393 175v78l117 64q46 25 67 44.5t21 36.5q0 37 -47 37q-31 0 -77.5 -18t-85.5 -40v115q34 20 90.5 36.5t115.5 16.5q79 0 117.5 -27.5t38.5 -69.5q0 -28 -16.5 -49.5t-49 -43t-96.5 -56.5l-20 -11v-5h174v-108h-349z" />
    <glyph glyph-name="uni2462" unicode="&#x2462;" horiz-adv-x="1130" 
d="M307 -37.5q-111 57.5 -171.5 159t-60.5 228.5t60.5 228.5t171.5 159t258 57.5t258 -57.5t171.5 -159t60.5 -228.5t-60.5 -228.5t-171.5 -159t-258 -57.5t-258 57.5zM776 36q90 46 138.5 128t48.5 186t-48.5 186t-138.5 128t-211 46t-211 -46t-138.5 -128t-48.5 -186
t48.5 -186t139 -128t210.5 -46q121 0 211 46zM473 164.5q-48 9.5 -76 20.5v107q30 -12 70 -21t72 -9q63 0 63 36q0 35 -63 35q-34 0 -82 -8v40l90 48v5h-145v107h332v-70l-141 -65v-5q81 0 121 -29t40 -76q0 -34 -20.5 -62.5t-62.5 -45.5t-101 -17q-49 0 -97 9.5z" />
    <glyph glyph-name="uni2463" unicode="&#x2463;" horiz-adv-x="1130" 
d="M307 -37.5q-111 57.5 -171.5 159t-60.5 228.5t60.5 228.5t171.5 159t258 57.5t258 -57.5t171.5 -159t60.5 -228.5t-60.5 -228.5t-171.5 -159t-258 -57.5t-258 57.5zM776 36q90 46 138.5 128t48.5 186t-48.5 186t-138.5 128t-211 46t-211 -46t-138.5 -128t-48.5 -186
t48.5 -186t139 -128t210.5 -46q121 0 211 46zM719 175h-150v65h-218v58l125 227h154l-122 -221v-6h61l26 80h124v-80h37v-58h-37v-65z" />
    <glyph glyph-name="uni2464" unicode="&#x2464;" horiz-adv-x="1130" 
d="M307 -37.5q-111 57.5 -171.5 159t-60.5 228.5t60.5 228.5t171.5 159t258 57.5t258 -57.5t171.5 -159t60.5 -228.5t-60.5 -228.5t-171.5 -159t-258 -57.5t-258 57.5zM776 36q90 46 138.5 128t48.5 186t-48.5 186t-138.5 128t-211 46t-211 -46t-138.5 -128t-48.5 -186
t48.5 -186t139 -128t210.5 -46q121 0 211 46zM462.5 164.5q-46.5 9.5 -68.5 20.5v107q22 -11 60 -20.5t78 -9.5q35 0 51 10t16 26q0 15 -15.5 25t-49.5 10q-26 0 -51 -5.5t-41 -11.5l-35 15l10 194h297v-107h-187l-2 -42q21 7 55 7q87 0 129 -30t42 -78q0 -50 -47.5 -85
t-138.5 -35q-56 0 -102.5 9.5z" />
    <glyph glyph-name="uni2465" unicode="&#x2465;" horiz-adv-x="1130" 
d="M307 -37.5q-111 57.5 -171.5 159t-60.5 228.5t60.5 228.5t171.5 159t258 57.5t258 -57.5t171.5 -159t60.5 -228.5t-60.5 -228.5t-171.5 -159t-258 -57.5t-258 57.5zM776 36q90 46 138.5 128t48.5 186t-48.5 186t-138.5 128t-211 46t-211 -46t-138.5 -128t-48.5 -186
t48.5 -186t139 -128t210.5 -46q121 0 211 46zM409 191q-48 36 -48 92q0 24 13 50.5t47 69.5l98 122h157l-103 -128v-5h15q76 0 116.5 -31t40.5 -78q0 -56 -48.5 -92t-144.5 -36q-95 0 -143 36zM592 268.5q15 13.5 15 32.5t-15 32.5t-39 13.5t-39 -13.5t-15 -32.5
q0 -20 15 -33t39 -13t39 13.5z" />
    <glyph glyph-name="uni2466" unicode="&#x2466;" horiz-adv-x="1130" 
d="M307 -37.5q-111 57.5 -171.5 159t-60.5 228.5t60.5 228.5t171.5 159t258 57.5t258 -57.5t171.5 -159t60.5 -228.5t-60.5 -228.5t-171.5 -159t-258 -57.5t-258 57.5zM776 36q90 46 138.5 128t48.5 186t-48.5 186t-138.5 128t-211 46t-211 -46t-138.5 -128t-48.5 -186
t48.5 -186t139 -128t210.5 -46q121 0 211 46zM611 175h-155l119 242h-189v108h352v-91z" />
    <glyph glyph-name="uni2467" unicode="&#x2467;" horiz-adv-x="1130" 
d="M307 -37.5q-111 57.5 -171.5 159t-60.5 228.5t60.5 228.5t171.5 159t258 57.5t258 -57.5t171.5 -159t60.5 -228.5t-60.5 -228.5t-171.5 -159t-258 -57.5t-258 57.5zM776 36q90 46 138.5 128t48.5 186t-48.5 186t-138.5 128t-211 46t-211 -46t-138.5 -128t-48.5 -186
t48.5 -186t139 -128t210.5 -46q121 0 211 46zM363 256q0 34 26.5 56t80.5 24v9q-56 3 -86.5 27.5t-30.5 61.5q0 47 51.5 79t160.5 32t160.5 -32t51.5 -79q0 -37 -30.5 -61.5t-86.5 -27.5v-9q54 -2 80.5 -24t26.5 -56q0 -101 -202 -101t-202 101zM619.5 381.5
q17.5 11.5 17.5 28.5t-17.5 28.5t-54.5 11.5t-54.5 -11.5t-17.5 -28.5t17.5 -28.5t54.5 -11.5t54.5 11.5zM632 282q0 30 -67 30t-67 -30q0 -32 67 -32t67 32z" />
    <glyph glyph-name="uni2468" unicode="&#x2468;" horiz-adv-x="1130" 
d="M307 -37.5q-111 57.5 -171.5 159t-60.5 228.5t60.5 228.5t171.5 159t258 57.5t258 -57.5t171.5 -159t60.5 -228.5t-60.5 -228.5t-171.5 -159t-258 -57.5t-258 57.5zM776 36q90 46 138.5 128t48.5 186t-48.5 186t-138.5 128t-211 46t-211 -46t-138.5 -128t-48.5 -186
t48.5 -186t139 -128t210.5 -46q121 0 211 46zM445 175l110 126v5h-15q-89 0 -132.5 31t-43.5 79q0 57 51 93t155 36q103 0 154.5 -35t51.5 -86q0 -29 -16 -55.5t-66 -84.5l-95 -109h-154zM621 363.5q17 12.5 17 33.5q0 22 -16.5 35t-51.5 13t-51.5 -13t-16.5 -35
q0 -21 17 -33.5t51 -12.5t51 12.5z" />
    <glyph glyph-name="uni2469" unicode="&#x2469;" horiz-adv-x="1130" 
d="M307 -37.5q-111 57.5 -171.5 159t-60.5 228.5t60.5 228.5t171.5 159t258 57.5t258 -57.5t171.5 -159t60.5 -228.5t-60.5 -228.5t-171.5 -159t-258 -57.5t-258 57.5zM776 36q90 46 138.5 128t48.5 186t-48.5 186t-138.5 128t-211 46t-211 -46t-138.5 -128t-48.5 -186
t48.5 -186t139 -128t210.5 -46q121 0 211 46zM549.5 208q-55.5 53 -55.5 142t55.5 142t150.5 53t150.5 -53t55.5 -142t-55.5 -142t-150.5 -53t-150.5 53zM307 175v213h-75v95h35q21 0 32 11t11 31h140v-350h-143zM743.5 278q16.5 23 16.5 72t-16.5 72t-43.5 23t-43.5 -23
t-16.5 -72t16.5 -72t43.5 -23t43.5 23z" />
    <glyph glyph-name="uni24EA" unicode="&#x24ea;" horiz-adv-x="1130" 
d="M307 -37.5q-111 57.5 -171.5 159t-60.5 228.5t60.5 228.5t171.5 159t258 57.5t258 -57.5t171.5 -159t60.5 -228.5t-60.5 -228.5t-171.5 -159t-258 -57.5t-258 57.5zM776 36q90 46 138.5 128t48.5 186t-48.5 186t-138.5 128t-211 46t-211 -46t-138.5 -128t-48.5 -186
t48.5 -186t139 -128t210.5 -46q121 0 211 46zM409.5 208q-56.5 53 -56.5 142t56.5 142t155.5 53t155.5 -53t56.5 -142t-56.5 -142t-155.5 -53t-155.5 53zM608.5 278q16.5 23 16.5 72t-16.5 72t-43.5 23t-43.5 -23t-16.5 -72t16.5 -72t43.5 -23t43.5 23z" />
    <glyph glyph-name="uni24F5" unicode="&#x24f5;" horiz-adv-x="1134" 
d="M304 -39q-111 56 -170 157t-59 232t59 232t170 157t263 56t263 -56t170 -157t59 -232t-59 -232t-170 -157t-263 -56t-263 56zM813.5 -17q104.5 53 160 148t55.5 219t-55.5 219t-160 148t-246.5 53t-246.5 -53t-160 -148t-55.5 -219t55.5 -219t160 -148t246.5 -53
t246.5 53zM337 5q-98 50 -150 139.5t-52 205.5t52 205.5t150 139.5t230 50t230 -50t150 -139.5t52 -205.5t-52 -205.5t-150 -139.5t-230 -50t-230 50zM780 27q91 47 140 131t49 192t-49 192t-140 131t-213 47t-213 -47t-140 -131t-49 -192t49 -192t140 -131t213 -47t213 47z
M408 175v103h95v110h-95v95h55q20 0 31 11t11 31h148v-247h92v-103h-337z" />
    <glyph glyph-name="uni24F6" unicode="&#x24f6;" horiz-adv-x="1134" 
d="M304 -39q-111 56 -170 157t-59 232t59 232t170 157t263 56t263 -56t170 -157t59 -232t-59 -232t-170 -157t-263 -56t-263 56zM813.5 -17q104.5 53 160 148t55.5 219t-55.5 219t-160 148t-246.5 53t-246.5 -53t-160 -148t-55.5 -219t55.5 -219t160 -148t246.5 -53
t246.5 53zM337 5q-98 50 -150 139.5t-52 205.5t52 205.5t150 139.5t230 50t230 -50t150 -139.5t52 -205.5t-52 -205.5t-150 -139.5t-230 -50t-230 50zM780 27q91 47 140 131t49 192t-49 192t-140 131t-213 47t-213 -47t-140 -131t-49 -192t49 -192t140 -131t213 -47t213 47z
M395 175v78l117 64q46 25 67 44.5t21 36.5q0 37 -47 37q-31 0 -77.5 -18t-85.5 -40v115q34 20 90.5 36.5t115.5 16.5q79 0 117.5 -27.5t38.5 -69.5q0 -28 -16.5 -49.5t-49 -43t-96.5 -56.5l-20 -11v-5h174v-108h-349z" />
    <glyph glyph-name="uni24F7" unicode="&#x24f7;" horiz-adv-x="1134" 
d="M304 -39q-111 56 -170 157t-59 232t59 232t170 157t263 56t263 -56t170 -157t59 -232t-59 -232t-170 -157t-263 -56t-263 56zM813.5 -17q104.5 53 160 148t55.5 219t-55.5 219t-160 148t-246.5 53t-246.5 -53t-160 -148t-55.5 -219t55.5 -219t160 -148t246.5 -53
t246.5 53zM337 5q-98 50 -150 139.5t-52 205.5t52 205.5t150 139.5t230 50t230 -50t150 -139.5t52 -205.5t-52 -205.5t-150 -139.5t-230 -50t-230 50zM780 27q91 47 140 131t49 192t-49 192t-140 131t-213 47t-213 -47t-140 -131t-49 -192t49 -192t140 -131t213 -47t213 47z
M475 164.5q-48 9.5 -76 20.5v107q30 -12 70 -21t72 -9q63 0 63 36q0 35 -63 35q-34 0 -82 -8v40l90 48v5h-145v107h332v-70l-141 -65v-5q81 0 121 -29t40 -76q0 -34 -20.5 -62.5t-62.5 -45.5t-101 -17q-49 0 -97 9.5z" />
    <glyph glyph-name="uni24F8" unicode="&#x24f8;" horiz-adv-x="1134" 
d="M304 -39q-111 56 -170 157t-59 232t59 232t170 157t263 56t263 -56t170 -157t59 -232t-59 -232t-170 -157t-263 -56t-263 56zM813.5 -17q104.5 53 160 148t55.5 219t-55.5 219t-160 148t-246.5 53t-246.5 -53t-160 -148t-55.5 -219t55.5 -219t160 -148t246.5 -53
t246.5 53zM337 5q-98 50 -150 139.5t-52 205.5t52 205.5t150 139.5t230 50t230 -50t150 -139.5t52 -205.5t-52 -205.5t-150 -139.5t-230 -50t-230 50zM780 27q91 47 140 131t49 192t-49 192t-140 131t-213 47t-213 -47t-140 -131t-49 -192t49 -192t140 -131t213 -47t213 47z
M721 175h-150v65h-218v58l125 227h154l-122 -221v-6h61l26 80h124v-80h37v-58h-37v-65z" />
    <glyph glyph-name="uni24F9" unicode="&#x24f9;" horiz-adv-x="1134" 
d="M304 -39q-111 56 -170 157t-59 232t59 232t170 157t263 56t263 -56t170 -157t59 -232t-59 -232t-170 -157t-263 -56t-263 56zM813.5 -17q104.5 53 160 148t55.5 219t-55.5 219t-160 148t-246.5 53t-246.5 -53t-160 -148t-55.5 -219t55.5 -219t160 -148t246.5 -53
t246.5 53zM337 5q-98 50 -150 139.5t-52 205.5t52 205.5t150 139.5t230 50t230 -50t150 -139.5t52 -205.5t-52 -205.5t-150 -139.5t-230 -50t-230 50zM780 27q91 47 140 131t49 192t-49 192t-140 131t-213 47t-213 -47t-140 -131t-49 -192t49 -192t140 -131t213 -47t213 47z
M464.5 164.5q-46.5 9.5 -68.5 20.5v107q22 -11 60 -20.5t78 -9.5q35 0 51 10t16 26q0 15 -15.5 25t-49.5 10q-26 0 -51 -5.5t-41 -11.5l-35 15l10 194h297v-107h-187l-2 -42q21 7 55 7q87 0 129 -30t42 -78q0 -50 -47.5 -85t-138.5 -35q-56 0 -102.5 9.5z" />
    <glyph glyph-name="uni24FA" unicode="&#x24fa;" horiz-adv-x="1134" 
d="M304 -39q-111 56 -170 157t-59 232t59 232t170 157t263 56t263 -56t170 -157t59 -232t-59 -232t-170 -157t-263 -56t-263 56zM813.5 -17q104.5 53 160 148t55.5 219t-55.5 219t-160 148t-246.5 53t-246.5 -53t-160 -148t-55.5 -219t55.5 -219t160 -148t246.5 -53
t246.5 53zM337 5q-98 50 -150 139.5t-52 205.5t52 205.5t150 139.5t230 50t230 -50t150 -139.5t52 -205.5t-52 -205.5t-150 -139.5t-230 -50t-230 50zM780 27q91 47 140 131t49 192t-49 192t-140 131t-213 47t-213 -47t-140 -131t-49 -192t49 -192t140 -131t213 -47t213 47z
M411 191q-48 36 -48 92q0 24 13 50.5t47 69.5l98 122h157l-103 -128v-5h15q76 0 116.5 -31t40.5 -78q0 -56 -48.5 -92t-144.5 -36q-95 0 -143 36zM594 268.5q15 13.5 15 32.5t-15 32.5t-39 13.5t-39 -13.5t-15 -32.5q0 -20 15 -33t39 -13t39 13.5z" />
    <glyph glyph-name="uni24FB" unicode="&#x24fb;" horiz-adv-x="1134" 
d="M304 -39q-111 56 -170 157t-59 232t59 232t170 157t263 56t263 -56t170 -157t59 -232t-59 -232t-170 -157t-263 -56t-263 56zM813.5 -17q104.5 53 160 148t55.5 219t-55.5 219t-160 148t-246.5 53t-246.5 -53t-160 -148t-55.5 -219t55.5 -219t160 -148t246.5 -53
t246.5 53zM337 5q-98 50 -150 139.5t-52 205.5t52 205.5t150 139.5t230 50t230 -50t150 -139.5t52 -205.5t-52 -205.5t-150 -139.5t-230 -50t-230 50zM780 27q91 47 140 131t49 192t-49 192t-140 131t-213 47t-213 -47t-140 -131t-49 -192t49 -192t140 -131t213 -47t213 47z
M613 175h-155l119 242h-189v108h352v-91z" />
    <glyph glyph-name="uni24FC" unicode="&#x24fc;" horiz-adv-x="1134" 
d="M304 -39q-111 56 -170 157t-59 232t59 232t170 157t263 56t263 -56t170 -157t59 -232t-59 -232t-170 -157t-263 -56t-263 56zM813.5 -17q104.5 53 160 148t55.5 219t-55.5 219t-160 148t-246.5 53t-246.5 -53t-160 -148t-55.5 -219t55.5 -219t160 -148t246.5 -53
t246.5 53zM337 5q-98 50 -150 139.5t-52 205.5t52 205.5t150 139.5t230 50t230 -50t150 -139.5t52 -205.5t-52 -205.5t-150 -139.5t-230 -50t-230 50zM780 27q91 47 140 131t49 192t-49 192t-140 131t-213 47t-213 -47t-140 -131t-49 -192t49 -192t140 -131t213 -47t213 47z
M365 256q0 34 26.5 56t80.5 24v9q-56 3 -86.5 27.5t-30.5 61.5q0 47 51.5 79t160.5 32t160.5 -32t51.5 -79q0 -37 -30.5 -61.5t-86.5 -27.5v-9q54 -2 80.5 -24t26.5 -56q0 -101 -202 -101t-202 101zM621.5 381.5q17.5 11.5 17.5 28.5t-17.5 28.5t-54.5 11.5t-54.5 -11.5
t-17.5 -28.5t17.5 -28.5t54.5 -11.5t54.5 11.5zM634 282q0 30 -67 30t-67 -30q0 -32 67 -32t67 32z" />
    <glyph glyph-name="uni24FD" unicode="&#x24fd;" horiz-adv-x="1134" 
d="M304 -39q-111 56 -170 157t-59 232t59 232t170 157t263 56t263 -56t170 -157t59 -232t-59 -232t-170 -157t-263 -56t-263 56zM813.5 -17q104.5 53 160 148t55.5 219t-55.5 219t-160 148t-246.5 53t-246.5 -53t-160 -148t-55.5 -219t55.5 -219t160 -148t246.5 -53
t246.5 53zM337 5q-98 50 -150 139.5t-52 205.5t52 205.5t150 139.5t230 50t230 -50t150 -139.5t52 -205.5t-52 -205.5t-150 -139.5t-230 -50t-230 50zM780 27q91 47 140 131t49 192t-49 192t-140 131t-213 47t-213 -47t-140 -131t-49 -192t49 -192t140 -131t213 -47t213 47z
M447 175l110 126v5h-15q-89 0 -132.5 31t-43.5 79q0 57 51 93t155 36q103 0 154.5 -35t51.5 -86q0 -29 -16 -55.5t-66 -84.5l-95 -109h-154zM623 363.5q17 12.5 17 33.5q0 22 -16.5 35t-51.5 13t-51.5 -13t-16.5 -35q0 -21 17 -33.5t51 -12.5t51 12.5z" />
    <glyph glyph-name="uni24FE" unicode="&#x24fe;" horiz-adv-x="1134" 
d="M304 -39q-111 56 -170 157t-59 232t59 232t170 157t263 56t263 -56t170 -157t59 -232t-59 -232t-170 -157t-263 -56t-263 56zM813.5 -17q104.5 53 160 148t55.5 219t-55.5 219t-160 148t-246.5 53t-246.5 -53t-160 -148t-55.5 -219t55.5 -219t160 -148t246.5 -53
t246.5 53zM337 5q-98 50 -150 139.5t-52 205.5t52 205.5t150 139.5t230 50t230 -50t150 -139.5t52 -205.5t-52 -205.5t-150 -139.5t-230 -50t-230 50zM780 27q91 47 140 131t49 192t-49 192t-140 131t-213 47t-213 -47t-140 -131t-49 -192t49 -192t140 -131t213 -47t213 47z
M551.5 208q-55.5 53 -55.5 142t55.5 142t150.5 53t150.5 -53t55.5 -142t-55.5 -142t-150.5 -53t-150.5 53zM309 175v213h-75v95h35q21 0 32 11t11 31h140v-350h-143zM745.5 278q16.5 23 16.5 72t-16.5 72t-43.5 23t-43.5 -23t-16.5 -72t16.5 -72t43.5 -23t43.5 23z" />
    <glyph glyph-name="uniF6D1" unicode="&#xf6d1;" horiz-adv-x="544" 
d="M91.5 788.5q-61.5 48.5 -61.5 126.5h152q2 -27 24 -43.5t66 -16.5t66 16.5t24 43.5h152q0 -78 -61.5 -126.5t-180.5 -48.5t-180.5 48.5z" />
    <glyph glyph-name="uniF6D4" unicode="&#xf6d4;" horiz-adv-x="450" 
d="M80 594q-50 41 -50 114h138q0 -55 57 -55t57 55h138q0 -73 -50 -114t-145 -41t-145 41z" />
    <glyph glyph-name="questiondown.alt" horiz-adv-x="660" 
d="M275.5 423.5q-28.5 26.5 -28.5 67.5t28.5 67.5t76.5 26.5t76.5 -26.5t28.5 -67.5t-28.5 -67.5t-76.5 -26.5t-76.5 26.5zM92 -152q-77 53 -77 137q0 59 39 103.5t98 70.5t120 35v133h157l36 -184q-87 -5 -156 -31.5t-69 -71.5q0 -27 28 -44.5t89 -17.5q78 0 148.5 20.5
t109.5 46.5v-195q-39 -21 -117 -38t-168 -17q-161 0 -238 53z" />
    <glyph glyph-name="Iacute_J.loclNLD" horiz-adv-x="1448" 
d="M753 700v-165h-249v-370h249v-165h-713v165h249v370h-249v165h713zM237 763h-15l-10 55l283 135h55l10 -140zM808 18v179q60 -19 99.5 -25.5t80.5 -6.5q165 0 165 154v381h215v-388q0 -161 -88.5 -244t-250.5 -83q-106 0 -221 33zM1101 763h-15l-10 55l283 135h55
l10 -140z" />
    <glyph glyph-name="i.loclTRK" horiz-adv-x="335" 
d="M70.5 626q-35.5 31 -35.5 78t35.5 78t96.5 31q62 0 97.5 -31t35.5 -78t-35.5 -78t-97.5 -31q-61 0 -96.5 31zM60 0v570h9q16 -10 41.5 -16.5t56.5 -6.5t57 6.5t42 16.5h9v-570h-215z" />
    <glyph glyph-name="iacute_j.loclNLD" horiz-adv-x="665" 
d="M40 623h-15l-10 55l225 135h53l12 -130zM370 623h-15l-10 55l225 135h53l12 -130zM275 0h-215v570h215v-570zM308.5 -201q-32.5 4 -73.5 14v148q41 -12 74 -12q39 0 60 23t21 68v530h215v-538q0 -110 -55.5 -173.5t-170.5 -63.5q-38 0 -70.5 4z" />
    <glyph glyph-name="F_O_R" horiz-adv-x="2032" 
d="M80 0v700h632v-62q49 36 126 59t174 23t174 -23t124 -59v62h360q101 0 168.5 -28t100.5 -76.5t33 -110.5q0 -84 -56 -134.5t-156 -50.5v-9q90 0 136 -41t46 -114v-136h-215v147q0 73 -91 73h-191q-43 -111 -154.5 -175.5t-278.5 -64.5q-144 0 -248 48.5t-158 132.5
t-54 189q0 81 53 170h-310v-150h207v-110h-207v-260h-215zM1137 174.5q53 26.5 81.5 72.5t28.5 103t-28.5 103t-81.5 72.5t-125 26.5t-125 -26.5t-81.5 -72.5t-28.5 -103t28.5 -103t81.5 -72.5t125 -26.5t125 26.5zM1718.5 511q-28.5 24 -90.5 24h-213q28 -37 42.5 -85
t14.5 -99v-1h156q119 0 119 90q0 47 -28.5 71z" />
    <glyph glyph-name="H_E" horiz-adv-x="1325" 
d="M860 295v-130h415v-165h-630v295h-350v-295h-215v700h215v-295h350v295h610v-165h-395v-130h355v-110h-355z" />
    <glyph glyph-name="M_E" horiz-adv-x="1597" 
d="M1125 295v-130h422v-165h-637v489h-5l-302 -524l-303 524h-5v-489h-215v700h312l212 -385h5l210 385h708v-165h-402v-130h362v-110h-362z" />
    <glyph glyph-name="O_C" horiz-adv-x="1475" 
d="M270 28.5q-103 48.5 -156.5 132.5t-53.5 189t53.5 189t157 132.5t246.5 48.5q163 0 279 -70q123 70 304 70q104 0 189.5 -22t125.5 -49v-186q-41 32 -122 58t-178 26q-87 0 -148 -26t-91.5 -71t-30.5 -100t30 -100t88 -71t139 -26q91 0 167.5 23.5t115.5 51.5v-185
q-41 -24 -123.5 -43.5t-181.5 -19.5q-169 0 -286 68q-116 -68 -279 -68q-142 0 -245 48.5zM616.5 155.5q33.5 7.5 49.5 18.5q-46 80 -46 176q0 97 47 176q-16 11 -49.5 18.5t-82.5 7.5q-79 0 -135.5 -26.5t-85.5 -72t-29 -103.5t29 -103.5t85.5 -72t135.5 -26.5
q48 0 81.5 7.5z" />
    <glyph glyph-name="T_H_E" horiz-adv-x="2017" 
d="M1552 295v-130h415v-165h-630v295h-350v-295h-215v520h-270v-520h-215v520h-272v180h972v-295h350v295h610v-165h-395v-130h355v-110h-355z" />
    <glyph glyph-name="T_O" horiz-adv-x="1682" 
d="M1141 700q157 0 265 -46.5t162 -127.5t54 -183q0 -104 -54 -186.5t-162 -129.5t-265 -47q-155 0 -263.5 46t-163 124t-54.5 173q0 62 22.5 113t50.5 76v8h-223v-520h-215v520h-280v180h1126zM1281.5 173.5q57.5 25.5 86.5 69.5t29 100q0 53 -29 96t-86.5 68t-140.5 25
t-140.5 -25t-86.5 -68t-29 -96q0 -56 29 -100t86.5 -69.5t140.5 -25.5t140.5 25.5z" />
    <glyph glyph-name="W_A_S" horiz-adv-x="2315" 
d="M1832 444.5q20 -13.5 49.5 -21.5t86.5 -19q90 -17 148.5 -36.5t101 -62t42.5 -115.5q0 -94 -84.5 -152t-265.5 -58q-151 0 -273 42t-206 123h-338l-47 -145h-251l-124 472h-9l-123 -472h-315l-214 700h227l162 -529h9l148 529h221l148 -529h9l172 529h293l88 -249
q43 -121 109.5 -184t146.5 -83.5t187 -20.5q55 0 80 16t25 41q0 30 -38 44.5t-118 28.5q-90 17 -148.5 35.5t-101 60.5t-42.5 114q0 61 37 110t116 78t200 29q97 0 178 -20.5t122 -46.5v-205q-45 34 -132 61.5t-186 27.5q-58 0 -84 -16t-26 -41q0 -22 20 -35.5zM1222 543
l-93 -288h214q-29 51 -45 98l-67 190h-9z" />
    <glyph glyph-name="a_n" horiz-adv-x="1227" 
d="M87.5 27.5q-52.5 42.5 -52.5 112.5q0 82 68 126.5t224 49.5q74 2 111.5 8t49.5 15t12 24q0 24 -30.5 38t-110.5 14q-81 0 -157 -19t-122 -42v171q43 23 124.5 41.5t175.5 18.5q138 0 208 -37t95 -100h9q42 52 114 94.5t149 42.5q102 0 159.5 -57.5t57.5 -160.5v-367h-215
v321q0 51 -28 80t-77 29q-40 0 -77.5 -15.5t-59.5 -34.5v-380h-215v78h-8q-34 -35 -101.5 -64t-148.5 -29q-102 0 -154.5 42.5zM436 144q43 16 64 36v91q-9 -7 -38 -15.5t-87 -11.5q-115 -5 -115 -62q0 -25 20 -39.5t62 -14.5q51 0 94 16z" />
    <glyph glyph-name="a_s" horiz-adv-x="1397" 
d="M92 27.5q-57 42.5 -57 112.5q0 82 68 126.5t224 49.5q74 2 111.5 8t49.5 15t12 24q0 24 -30.5 38t-110.5 14q-81 0 -157 -19t-122 -42v171q43 23 124.5 41.5t175.5 18.5q174 0 254.5 -60.5t80.5 -166.5v-101q25 -24 74 -47.5t118.5 -39t149.5 -15.5q43 0 61.5 11t18.5 29
q0 23 -30.5 33.5t-96.5 19.5q-75 10 -125 24t-86.5 47.5t-36.5 93.5q0 76 70 124t218 48q96 0 178 -21t124 -47v-177q-54 29 -134.5 52t-152.5 23q-78 0 -78 -41q0 -23 30 -33t96 -20q78 -12 127 -26t85.5 -48.5t36.5 -96.5q0 -45 -29.5 -82.5t-93 -60t-159.5 -22.5
q-95 0 -182.5 18t-154.5 45.5t-107 55.5h-8q-55 -45 -154 -82t-207 -37q-118 0 -175 42.5zM436 144q43 16 64 36v91l-9.5 -5.5t-41 -12.5t-74.5 -9q-115 -5 -115 -62q0 -24 20 -39t62 -15q51 0 94 16z" />
    <glyph glyph-name="o_f" horiz-adv-x="1295" 
d="M214 23.5q-87 38.5 -130.5 106.5t-43.5 155t43.5 155t130.5 106.5t211 38.5q127 0 214 -39.5t129 -111.5q4 12 22 21.5t45 9.5h67v47q0 107 66 165t171 58q44 0 74.5 -4.5t76.5 -16.5v-167q-48 16 -91 16q-82 0 -82 -71v-27h153v-72h-153v-393h-215v393h-114v-1
q8 -18 15 -48.5t7 -63.5q0 -85 -43.5 -151.5t-130.5 -105t-211 -38.5t-211 38.5zM542.5 175.5q42.5 40.5 42.5 109.5t-42.5 109.5t-117.5 40.5t-117.5 -40.5t-42.5 -109.5t42.5 -109.5t117.5 -40.5t117.5 40.5z" />
    <glyph glyph-name="r_e" horiz-adv-x="1257" 
d="M60 0v570h215v-90h8q19 31 86 68t206 37h245q201 0 299 -79.5t98 -219.5v-18h-481q9 -54 60.5 -83.5t149.5 -29.5q61 0 119 17.5t92 38.5v-171q-34 -21 -102.5 -38t-154.5 -17q-126 0 -213 38.5t-131 104.5t-44 150q0 31 7 57.5t15 41.5v1h-66q-79 0 -129.5 -23.5
t-63.5 -52.5v-302h-215zM997 340q-6 46 -39.5 75.5t-88.5 29.5q-56 0 -91 -28.5t-42 -76.5h261z" />
    <glyph glyph-name="a.alt" horiz-adv-x="827" 
d="M173.5 21q-63.5 36 -98.5 104t-35 160t35 160t98.5 104t146.5 36q75 0 135.5 -27.5t88.5 -61.5h8v74h215v-570h-215v74h-8q-28 -34 -88.5 -61.5t-135.5 -27.5q-83 0 -146.5 36zM495.5 160.5q38.5 17.5 56.5 39.5v170q-18 22 -56.5 39.5t-83.5 17.5q-69 0 -108 -38
t-39 -104t39 -104t108 -38q45 0 83.5 17.5z" />
    <glyph glyph-name="aacute.alt" horiz-adv-x="827" 
d="M173.5 21q-63.5 36 -98.5 104t-35 160t35 160t98.5 104t146.5 36q75 0 135.5 -27.5t88.5 -61.5h8v74h215v-570h-215v74h-8q-28 -34 -88.5 -61.5t-135.5 -27.5q-83 0 -146.5 36zM495.5 160.5q38.5 17.5 56.5 39.5v170q-18 22 -56.5 39.5t-83.5 17.5q-69 0 -108 -38
t-39 -104t39 -104t108 -38q45 0 83.5 17.5zM260 623h-15l-10 55l283 135h55l10 -140z" />
    <glyph glyph-name="abreve.alt" horiz-adv-x="827" 
d="M173.5 21q-63.5 36 -98.5 104t-35 160t35 160t98.5 104t146.5 36q75 0 135.5 -27.5t88.5 -61.5h8v74h215v-570h-215v74h-8q-28 -34 -88.5 -61.5t-135.5 -27.5q-83 0 -146.5 36zM495.5 160.5q38.5 17.5 56.5 39.5v170q-18 22 -56.5 39.5t-83.5 17.5q-69 0 -108 -38
t-39 -104t39 -104t108 -38q45 0 83.5 17.5zM251 678q-55 40 -55 112h148q3 -55 76 -55t76 55h148q0 -72 -55 -112t-169 -40t-169 40z" />
    <glyph glyph-name="acircumflex.alt" horiz-adv-x="827" 
d="M173.5 21q-63.5 36 -98.5 104t-35 160t35 160t98.5 104t146.5 36q75 0 135.5 -27.5t88.5 -61.5h8v74h215v-570h-215v74h-8q-28 -34 -88.5 -61.5t-135.5 -27.5q-83 0 -146.5 36zM495.5 160.5q38.5 17.5 56.5 39.5v170q-18 22 -56.5 39.5t-83.5 17.5q-69 0 -108 -38
t-39 -104t39 -104t108 -38q45 0 83.5 17.5zM322 640h-169l169 147h196l169 -147h-169l-93 85h-10z" />
    <glyph glyph-name="adieresis.alt" horiz-adv-x="827" 
d="M173.5 21q-63.5 36 -98.5 104t-35 160t35 160t98.5 104t146.5 36q75 0 135.5 -27.5t88.5 -61.5h8v74h215v-570h-215v74h-8q-28 -34 -88.5 -61.5t-135.5 -27.5q-83 0 -146.5 36zM495.5 160.5q38.5 17.5 56.5 39.5v170q-18 22 -56.5 39.5t-83.5 17.5q-69 0 -108 -38
t-39 -104t39 -104t108 -38q45 0 83.5 17.5zM205.5 647.5q-29.5 27.5 -29.5 67.5t29.5 67.5t75.5 27.5t75.5 -27.5t29.5 -67.5t-29.5 -67.5t-75.5 -27.5t-75.5 27.5zM483.5 647.5q-29.5 27.5 -29.5 67.5t29.5 67.5t75.5 27.5t75.5 -27.5t29.5 -67.5t-29.5 -67.5t-75.5 -27.5
t-75.5 27.5z" />
    <glyph glyph-name="agrave.alt" horiz-adv-x="827" 
d="M173.5 21q-63.5 36 -98.5 104t-35 160t35 160t98.5 104t146.5 36q75 0 135.5 -27.5t88.5 -61.5h8v74h215v-570h-215v74h-8q-28 -34 -88.5 -61.5t-135.5 -27.5q-83 0 -146.5 36zM495.5 160.5q38.5 17.5 56.5 39.5v170q-18 22 -56.5 39.5t-83.5 17.5q-69 0 -108 -38
t-39 -104t39 -104t108 -38q45 0 83.5 17.5zM595 623h-15l-323 50l10 140h55l283 -135z" />
    <glyph glyph-name="amacron.alt" horiz-adv-x="827" 
d="M173.5 21q-63.5 36 -98.5 104t-35 160t35 160t98.5 104t146.5 36q75 0 135.5 -27.5t88.5 -61.5h8v74h215v-570h-215v74h-8q-28 -34 -88.5 -61.5t-135.5 -27.5q-83 0 -146.5 36zM495.5 160.5q38.5 17.5 56.5 39.5v170q-18 22 -56.5 39.5t-83.5 17.5q-69 0 -108 -38
t-39 -104t39 -104t108 -38q45 0 83.5 17.5zM632 650h-424v122h424v-122z" />
    <glyph glyph-name="aogonek.alt" horiz-adv-x="827" 
d="M772 -115v-107q-49 -8 -107 -8q-72 0 -106.5 25t-34.5 66q0 42 33 76t84 58v5h-89v74h-8q-28 -34 -88.5 -61.5t-135.5 -27.5q-83 0 -146.5 36t-98.5 104t-35 160t35 160t98.5 104t146.5 36q75 0 135.5 -27.5t88.5 -61.5h8v74h215v-570q-48 -20 -83.5 -44.5t-35.5 -48.5
q0 -29 51 -29q34 0 73 7zM552 370q-18 22 -56.5 39.5t-83.5 17.5q-69 0 -108 -38t-39 -104t39 -104t108 -38q45 0 83.5 17.5t56.5 39.5v170z" />
    <glyph glyph-name="aring.alt" horiz-adv-x="827" 
d="M173.5 21q-63.5 36 -98.5 104t-35 160t35 160t98.5 104t146.5 36q75 0 135.5 -27.5t88.5 -61.5h8v74h215v-570h-215v74h-8q-28 -34 -88.5 -61.5t-135.5 -27.5q-83 0 -146.5 36zM495.5 160.5q38.5 17.5 56.5 39.5v170q-18 22 -56.5 39.5t-83.5 17.5q-69 0 -108 -38
t-39 -104t39 -104t108 -38q45 0 83.5 17.5zM307 638.5q-39 31.5 -39 83.5t39 83.5t113 31.5t113 -31.5t39 -83.5t-39 -83.5t-113 -31.5t-113 31.5zM459 696q13 10 13 26t-13 26t-39 10t-39 -10t-13 -26t13 -26t39 -10t39 10z" />
    <glyph glyph-name="aringacute.alt" horiz-adv-x="827" 
d="M328 820l176 110h45l10 -100l-53 -11q30 -12 48 -38t18 -59q0 -52 -39 -83.5t-113 -31.5t-113 31.5t-39 83.5q0 61 60 98zM381 696q13 -10 39 -10t39 10t13 26t-13 26t-39 10t-39 -10t-13 -26t13 -26zM173.5 21q-63.5 36 -98.5 104t-35 160t35 160t98.5 104t146.5 36
q75 0 135.5 -27.5t88.5 -61.5h8v74h215v-570h-215v74h-8q-28 -34 -88.5 -61.5t-135.5 -27.5q-83 0 -146.5 36zM495.5 160.5q38.5 17.5 56.5 39.5v170q-18 22 -56.5 39.5t-83.5 17.5q-69 0 -108 -38t-39 -104t39 -104t108 -38q45 0 83.5 17.5z" />
    <glyph glyph-name="atilde.alt" horiz-adv-x="827" 
d="M173.5 21q-63.5 36 -98.5 104t-35 160t35 160t98.5 104t146.5 36q75 0 135.5 -27.5t88.5 -61.5h8v74h215v-570h-215v74h-8q-28 -34 -88.5 -61.5t-135.5 -27.5q-83 0 -146.5 36zM495.5 160.5q38.5 17.5 56.5 39.5v170q-18 22 -56.5 39.5t-83.5 17.5q-69 0 -108 -38
t-39 -104t39 -104t108 -38q45 0 83.5 17.5zM484 643q-23 10 -52 29q-16 12 -27 17.5t-23 5.5q-27 0 -27 -30v-27h-160v51q0 50 27 77t77 27q34 0 57 -10t52 -29q16 -12 27 -17.5t23 -5.5q27 0 27 30v27h160v-53q0 -49 -27 -75.5t-77 -26.5q-34 0 -57 10z" />
    <glyph glyph-name="g.alt" horiz-adv-x="827" 
d="M225 -189q-85 16 -127 36v177q39 -22 110 -40.5t150 -18.5q111 0 165 29.5t54 80.5q0 21 -7 39t-15 27h-9q-27 -34 -87.5 -62t-136.5 -28q-86 0 -149.5 33.5t-98 94t-34.5 139.5t34.5 139.5t98 94t149.5 33.5q76 0 135 -28t85 -62h8v75h215v-407q14 -19 25.5 -52.5
t11.5 -67.5q0 -113 -96.5 -180.5t-295.5 -67.5q-100 0 -185 16zM491 219.5q40 18.5 59 41.5v114q-19 23 -59 41.5t-89 18.5q-68 0 -102.5 -30.5t-34.5 -86.5t34.5 -86.5t102.5 -30.5q49 0 89 18.5z" />
    <glyph glyph-name="uni01F5.alt" horiz-adv-x="827" 
d="M225 -189q-85 16 -127 36v177q39 -22 110 -40.5t150 -18.5q111 0 165 29.5t54 80.5q0 21 -7 39t-15 27h-9q-27 -34 -87.5 -62t-136.5 -28q-86 0 -149.5 33.5t-98 94t-34.5 139.5t34.5 139.5t98 94t149.5 33.5q76 0 135 -28t85 -62h8v75h215v-407q14 -19 25.5 -52.5
t11.5 -67.5q0 -113 -96.5 -180.5t-295.5 -67.5q-100 0 -185 16zM491 219.5q40 18.5 59 41.5v114q-19 23 -59 41.5t-89 18.5q-68 0 -102.5 -30.5t-34.5 -86.5t34.5 -86.5t102.5 -30.5q49 0 89 18.5zM257 623h-15l-10 55l283 135h55l10 -140z" />
    </font>
</defs>
</svg>
