<?xml version="1.0" standalone="no"?>
<!DOCTYPE svg PUBLIC "-//W3C//DTD SVG 1.1//EN" "http://www.w3.org/Graphics/SVG/1.1/DTD/svg11.dtd" >
<svg xmlns="http://www.w3.org/2000/svg" xmlns:xlink="http://www.w3.org/1999/xlink" version="1.1">
<metadata>
Created by FontForge 20201107 at Mon Feb  6 14:54:41 2023
 By 
Copyright (c) 2020-2021 by TypeType. All rights reserved. Special version for DaFont.
</metadata>
<defs>
<font id="TTRunsTrial-DemiBold" horiz-adv-x="755" >
  <font-face 
    font-family="TT Runs Trial DemiBold"
    font-weight="600"
    font-stretch="normal"
    units-per-em="1000"
    panose-1="2 0 0 0 0 0 0 0 6 7"
    ascent="800"
    descent="-200"
    x-height="550"
    cap-height="700"
    bbox="-568 -318 2225 960"
    underline-thickness="85"
    underline-position="-184"
    unicode-range="U+000D-FB03"
  />
<missing-glyph horiz-adv-x="900" 
d="M100 0v284h45v-139h33v139h50v31h-128v126l19 -61h23l34 106l33 -106h23l54 170h-32l-34 -110l-35 110h-19l-35 -110l-31 103v157h700v-150h-110v-170h110v-91q-6 13 -19.5 20t-30.5 7q-27 0 -43.5 -14.5t-16.5 -34.5q0 -22 14.5 -32.5t39.5 -17.5q17 -5 25.5 -9.5
t8.5 -13.5q0 -21 -28 -21q-14 0 -21 7t-7 18h-33q0 -24 17 -39.5t44 -15.5q17 0 30.5 6.5t19.5 13.5v-163h-700zM311 380h33v62h24l35 -62h37l-40 67q36 17 36 50q0 22 -16 37.5t-41 15.5h-68v-170zM469 550v-170h33v170h-33zM580 519v-139h32v139h50v31h-132v-31h50z
M344 473v46h35q10 0 17 -6.5t7 -16.5q0 -12 -7.5 -17.5t-16.5 -5.5h-35zM800 483h-78v36h78v-36zM800 411h-78v41h78v-41zM387.5 167.5q22.5 24.5 22.5 61.5t-23 62t-59 25t-59 -25t-23 -62t22.5 -61.5t59.5 -24.5t59.5 24.5zM633 162q19 19 19 47v106h-32v-106
q0 -15 -9.5 -25t-25.5 -10q-17 0 -26.5 10.5t-9.5 24.5v106h-32v-106q0 -28 19.5 -47t48.5 -19t48 19zM800 224q-15 14 -46 22q-16 5 -23 9t-7 12q0 9 7.5 14.5t18.5 5.5q10 0 18 -7t8 -18h24v-38zM291.5 190q-14.5 16 -14.5 39q0 25 14 40.5t37 15.5q24 0 37.5 -15.5
t13.5 -40.5q0 -23 -14.5 -39t-36.5 -16t-36.5 16z" />
    <glyph glyph-name="ff" unicode="ff" horiz-adv-x="803" 
d="M108 0v440h-108v80h108v26q0 87 51 135.5t137 48.5q34 0 60.5 -4t58.5 -13v-114q-44 16 -87 16q-38 0 -59 -19.5t-21 -56.5v-19h245v26q0 87 51 135.5t137 48.5q34 0 60.5 -4t58.5 -13v-114q-44 16 -87 16q-38 0 -59 -19.5t-21 -56.5v-19h147v-80h-147v-440h-140v440
h-245v-440h-140z" />
    <glyph glyph-name="fi" unicode="fi" horiz-adv-x="698" 
d="M108 0v440h-108v80h108v12q0 98 69.5 148t207.5 50q113 0 248 -26v-114q-128 25 -227 25q-85 0 -121.5 -20.5t-36.5 -64.5v-10h385v-520h-140v440h-245v-440h-140z" />
    <glyph glyph-name="ffi" unicode="ffi" horiz-adv-x="1083" 
d="M108 0v440h-108v80h108v26q0 87 51 135.5t137 48.5q34 0 60.5 -4t58.5 -13v-114q-44 16 -87 16q-38 0 -59 -19.5t-21 -56.5v-19h245v12q0 98 69.5 148t207.5 50q113 0 248 -26v-114q-128 25 -227 25q-85 0 -121.5 -20.5t-36.5 -64.5v-10h385v-520h-140v440h-245v-440
h-140v440h-245v-440h-140z" />
    <glyph glyph-name="f_f_j" unicode="ffj" horiz-adv-x="1083" 
d="M718 -186v112q40 -11 76 -11q39 0 61.5 25t22.5 73v427h-245v-440h-140v440h-245v-440h-140v440h-108v80h108v26q0 87 51 135.5t137 48.5q34 0 60.5 -4t58.5 -13v-114q-44 16 -87 16q-38 0 -59 -19.5t-21 -56.5v-19h245v12q0 98 69.5 148t207.5 50q113 0 248 -26v-114
q-128 25 -227 25q-85 0 -121.5 -20.5t-36.5 -64.5v-10h385v-519q0 -98 -49.5 -149.5t-147.5 -51.5q-50 0 -103 14z" />
    <glyph glyph-name="f_j" unicode="fj" horiz-adv-x="698" 
d="M333 -186v112q40 -11 76 -11q39 0 61.5 25t22.5 73v427h-245v-440h-140v440h-108v80h108v12q0 98 69.5 148t207.5 50q113 0 248 -26v-114q-128 25 -227 25q-85 0 -121.5 -20.5t-36.5 -64.5v-10h385v-519q0 -98 -49.5 -149.5t-147.5 -51.5q-50 0 -103 14z" />
    <glyph glyph-name="f_t" unicode="ft" horiz-adv-x="838" 
d="M547.5 43.5q-54.5 53.5 -54.5 156.5v240h-245v-440h-140v440h-108v80h108v26q0 87 50 135.5t131 48.5q35 0 59 -3t55 -13v-115q-44 16 -82 16q-34 0 -53.5 -20t-19.5 -56v-19h192q27 0 40 14t13 44v105h140v-163h165v-80h-165v-241q0 -45 24 -69.5t66 -24.5t75 11v-114
q-28 -7 -49 -9.5t-49 -2.5q-98 0 -152.5 53.5z" />
    <glyph glyph-name=".notdef" horiz-adv-x="900" 
d="M100 0v284h45v-139h33v139h50v31h-128v126l19 -61h23l34 106l33 -106h23l54 170h-32l-34 -110l-35 110h-19l-35 -110l-31 103v157h700v-150h-110v-170h110v-91q-6 13 -19.5 20t-30.5 7q-27 0 -43.5 -14.5t-16.5 -34.5q0 -22 14.5 -32.5t39.5 -17.5q17 -5 25.5 -9.5
t8.5 -13.5q0 -21 -28 -21q-14 0 -21 7t-7 18h-33q0 -24 17 -39.5t44 -15.5q17 0 30.5 6.5t19.5 13.5v-163h-700zM311 380h33v62h24l35 -62h37l-40 67q36 17 36 50q0 22 -16 37.5t-41 15.5h-68v-170zM469 550v-170h33v170h-33zM580 519v-139h32v139h50v31h-132v-31h50z
M344 473v46h35q10 0 17 -6.5t7 -16.5q0 -12 -7.5 -17.5t-16.5 -5.5h-35zM800 483h-78v36h78v-36zM800 411h-78v41h78v-41zM387.5 167.5q22.5 24.5 22.5 61.5t-23 62t-59 25t-59 -25t-23 -62t22.5 -61.5t59.5 -24.5t59.5 24.5zM633 162q19 19 19 47v106h-32v-106
q0 -15 -9.5 -25t-25.5 -10q-17 0 -26.5 10.5t-9.5 24.5v106h-32v-106q0 -28 19.5 -47t48.5 -19t48 19zM800 224q-15 14 -46 22q-16 5 -23 9t-7 12q0 9 7.5 14.5t18.5 5.5q10 0 18 -7t8 -18h24v-38zM291.5 190q-14.5 16 -14.5 39q0 25 14 40.5t37 15.5q24 0 37.5 -15.5
t13.5 -40.5q0 -23 -14.5 -39t-36.5 -16t-36.5 16z" />
    <glyph glyph-name=".null" horiz-adv-x="0" 
 />
    <glyph glyph-name="nonmarkingreturn" unicode="&#xd;" horiz-adv-x="0" 
 />
    <glyph glyph-name="space" unicode=" " horiz-adv-x="300" 
 />
    <glyph glyph-name="exclam" unicode="!" horiz-adv-x="294" 
d="M190 212h-86l-27 203v305h140v-305zM88.5 12q-23.5 22 -23.5 53t23.5 53t58.5 22t58.5 -22t23.5 -53t-23.5 -53t-58.5 -22t-58.5 22z" />
    <glyph glyph-name="quotedbl" unicode="&#x22;" horiz-adv-x="470" 
d="M190 443h-115v277h115v-277zM395 443h-115v277h115v-277z" />
    <glyph glyph-name="numbersign" unicode="#" horiz-adv-x="784" 
d="M754 535v-93h-125l-41 -179h124v-93h-145l-39 -170h-124l39 170h-188l-39 -170h-124l39 170h-101v93h122l41 179h-121v93h142l38 165h124l-38 -165h188l38 165h124l-38 -165h104zM276 263h188l41 179h-188z" />
    <glyph glyph-name="dollar" unicode="$" horiz-adv-x="775" 
d="M687.5 98.5q-27.5 -41.5 -85 -69.5t-142.5 -36v-113h-135v114q-72 7 -132.5 26.5t-92.5 40.5v137q43 -32 124.5 -57.5t171.5 -25.5q87 0 129 25t42 58q0 30 -26 48.5t-64.5 28t-109.5 22.5q-99 18 -161 37t-106.5 60.5t-44.5 113.5q0 48 28.5 89.5t89.5 71t152 38.5v113
h135v-113q76 -7 139.5 -27t100.5 -43v-140q-43 34 -127 61t-181 27q-66 0 -108.5 -13t-61.5 -32.5t-19 -39.5q0 -30 26 -49t65.5 -29.5t110.5 -23.5q98 -18 160 -36.5t106 -60.5t44 -113q0 -48 -27.5 -89.5z" />
    <glyph glyph-name="percent" unicode="%" horiz-adv-x="944" 
d="M91 414q-51 48 -51 124t51 124t135 48t135 -48t51 -124t-51 -124t-135 -48t-135 48zM324 0h-122l418 700h122zM284 477.5q23 23.5 23 60.5t-23 60.5t-58 23.5t-58 -23.5t-23 -60.5t23 -60.5t58 -23.5t58 23.5zM583 38q-51 48 -51 124t51 124t135 48t135 -48t51 -124
t-51 -124t-135 -48t-135 48zM776 101.5q23 23.5 23 60.5t-23 60.5t-58 23.5t-58 -23.5t-23 -60.5t23 -60.5t58 -23.5t58 23.5z" />
    <glyph glyph-name="ampersand" unicode="&#x26;" horiz-adv-x="788" 
d="M808 0h-193l-110 91q-47 -39 -115 -70t-155 -31q-99 0 -149.5 42.5t-50.5 115.5q0 71 48 120t118 76q-70 59 -99 102t-29 99q0 72 63 118.5t189 46.5q77 0 147.5 -18t111.5 -39v-133q-44 27 -112 49.5t-137 22.5q-120 0 -120 -62q0 -18 11.5 -35.5t38 -42t81.5 -70.5
l162 -134q33 31 58.5 62.5t37.5 52.5h138q-18 -34 -57.5 -86t-88.5 -102zM329 126.5q45 18.5 80 44.5l-138 115q-49 -19 -82.5 -50t-33.5 -68q0 -28 19.5 -44t59.5 -16q50 0 95 18.5z" />
    <glyph glyph-name="quotesingle" unicode="'" horiz-adv-x="265" 
d="M190 443h-115v277h115v-277z" />
    <glyph glyph-name="parenleft" unicode="(" horiz-adv-x="340" 
d="M260 -190q-90 0 -132.5 41.5t-42.5 128.5v630q0 87 42.5 128.5t132.5 41.5h70v-115h-58q-62 0 -62 -65v-610q0 -65 62 -65h58v-115h-70z" />
    <glyph glyph-name="parenright" unicode=")" horiz-adv-x="340" 
d="M10 -190v115h57q63 0 63 65v610q0 65 -63 65h-57v115h70q90 0 132.5 -41.5t42.5 -128.5v-630q0 -87 -42.5 -128.5t-132.5 -41.5h-70z" />
    <glyph glyph-name="asterisk" unicode="*" horiz-adv-x="414" 
d="M207 513l-76 -94l-68 55l77 89l-120 47l30 75l114 -41v111h86v-111l114 41l30 -75l-120 -47l77 -89l-68 -55z" />
    <glyph glyph-name="plus" unicode="+" horiz-adv-x="630" 
d="M370 50h-110v200h-205v110h205v200h110v-200h205v-110h-205v-200z" />
    <glyph glyph-name="comma" unicode="," horiz-adv-x="225" 
d="M35 -175v105h25q44 0 67 21.5t23 60.5h-5q-6 -8 -17.5 -15t-27.5 -7q-31 0 -50.5 20t-19.5 53q0 35 21.5 56t56.5 21q38 0 62.5 -31.5t24.5 -92.5q0 -92 -41 -141.5t-107 -49.5h-12z" />
    <glyph glyph-name="hyphen" unicode="-" horiz-adv-x="520" 
d="M465 255h-410v115h410v-115z" />
    <glyph glyph-name="period" unicode="." horiz-adv-x="224" 
d="M53.5 12q-23.5 22 -23.5 53t23.5 53t58.5 22t58.5 -22t23.5 -53t-23.5 -53t-58.5 -22t-58.5 22z" />
    <glyph glyph-name="slash" unicode="/" horiz-adv-x="510" 
d="M130 -70h-130l380 840h130z" />
    <glyph glyph-name="zero" unicode="0" horiz-adv-x="960" 
d="M265.5 38q-93.5 48 -144.5 130t-51 182t51 182t144.5 130t214.5 48t214.5 -48t144.5 -130t51 -182t-51 -182t-144.5 -130t-214.5 -48t-214.5 48zM617 139.5q60 31.5 92.5 86.5t32.5 124t-32.5 124t-92.5 86.5t-137 31.5t-137 -31.5t-92.5 -86.5t-32.5 -124t32.5 -124
t92.5 -86.5t137 -31.5t137 31.5z" />
    <glyph glyph-name="one" unicode="1" horiz-adv-x="592" 
d="M45 0v115h205v408h-200v115h150q60 0 60 60v2h130v-585h167v-115h-512z" />
    <glyph glyph-name="two" unicode="2" horiz-adv-x="728" 
d="M65 0v113l227 128q93 52 141.5 94t65 75.5t16.5 69.5q0 47 -42.5 79.5t-122.5 32.5q-74 0 -155 -37t-140 -83v137q52 39 134 70t176 31q95 0 162.5 -29.5t101.5 -79t34 -108.5q0 -79 -56 -153t-210 -160l-89 -50v-5h355v-125h-598z" />
    <glyph glyph-name="three" unicode="3" horiz-adv-x="737" 
d="M177 14q-78 24 -117 54v131q41 -34 117.5 -62.5t164.5 -28.5q64 0 107.5 16t64 41t20.5 54t-20.5 54t-64 41t-107.5 16q-49 0 -95 -9.5t-72 -20.5v100l243 173v7h-353v120h587v-83l-268 -190v-7q93 0 160.5 -28.5t102.5 -76.5t35 -105q0 -59 -37 -109t-112.5 -80.5
t-185.5 -30.5q-92 0 -170 24z" />
    <glyph glyph-name="four" unicode="4" horiz-adv-x="732" 
d="M587 0h-140v168h-427v113l368 419h172l-357 -406v-6h244v187h140v-187h140v-120h-140v-168z" />
    <glyph glyph-name="five" unicode="5" horiz-adv-x="730" 
d="M188.5 13q-78.5 23 -118.5 50v130q42 -32 117 -58.5t160 -26.5q65 0 109 16t65 41t21 54q0 28 -20.5 53.5t-62 41.5t-102.5 16q-58 0 -100.5 -16t-59.5 -36h-112l29 422h528v-125h-408l-12 -185h5q19 13 61.5 23t98.5 10q96 0 164.5 -29.5t103.5 -78.5t35 -107
t-37 -107.5t-111.5 -80t-180.5 -30.5q-94 0 -172.5 23z" />
    <glyph glyph-name="six" unicode="6" horiz-adv-x="739" 
d="M186 20q-76 30 -113.5 79.5t-37.5 105.5q0 49 21.5 92t61.5 91l263 312h162l-238 -282v-5q9 4 32 7t53 3q103 0 175 -30t108 -79.5t36 -108.5q0 -56 -37.5 -105.5t-113.5 -79.5t-186 -30t-186 30zM476.5 116q42.5 16 63.5 41t21 52t-21 52t-63.5 41t-104.5 16t-104.5 -16
t-63.5 -41t-21 -52t21 -52t63.5 -41t104.5 -16t104.5 16z" />
    <glyph glyph-name="seven" unicode="7" horiz-adv-x="660" 
d="M297 0h-155l324 569v6h-446v125h615v-106z" />
    <glyph glyph-name="eight" unicode="8" horiz-adv-x="826" 
d="M223 17q-76 27 -112 70t-36 91q0 42 22.5 77.5t63.5 56.5t92 22v7q-59 1 -104 25t-69.5 62.5t-24.5 81.5q0 55 36.5 100t117 72.5t204.5 27.5t204.5 -27.5t117 -72.5t36.5 -100q0 -43 -24.5 -81.5t-69.5 -62.5t-104 -25v-7q51 -1 92 -22t63.5 -56.5t22.5 -77.5
q0 -48 -36 -91t-112 -70t-190 -27t-190 27zM572.5 414q50.5 30 50.5 74t-50.5 74t-159.5 30t-159.5 -30t-50.5 -74t50.5 -74t159.5 -30t159.5 30zM557 135q46 27 46 64t-46 64t-144 27t-144 -27t-46 -64t46 -64t144 -27t144 27z" />
    <glyph glyph-name="nine" unicode="9" horiz-adv-x="777" 
d="M218 0l237 263v5q-11 -4 -33.5 -7t-49.5 -3q-113 0 -190 31t-114.5 82.5t-37.5 113.5q0 60 39 111t119 82.5t198 31.5t198 -31.5t119 -83t39 -112.5q0 -42 -20.5 -86t-69.5 -99l-268 -298h-166zM502 380q47 17 69.5 44t22.5 57t-22.5 57.5t-69.5 44.5t-116 17t-116 -17
t-69.5 -44.5t-22.5 -57.5t22.5 -57t69.5 -44t116 -17t116 17z" />
    <glyph glyph-name="colon" unicode=":" horiz-adv-x="244" 
d="M63.5 12q-23.5 22 -23.5 53t23.5 53t58.5 22t58.5 -22t23.5 -53t-23.5 -53t-58.5 -22t-58.5 22zM63.5 433q-23.5 22 -23.5 53t23.5 53t58.5 22t58.5 -22t23.5 -53t-23.5 -53t-58.5 -22t-58.5 22z" />
    <glyph glyph-name="semicolon" unicode=";" horiz-adv-x="247" 
d="M63.5 433q-23.5 22 -23.5 53t23.5 53t58.5 22t58.5 -22t23.5 -53t-23.5 -53t-58.5 -22t-58.5 22zM47 -175v105h25q44 0 67 21.5t23 60.5h-5q-6 -8 -17.5 -15t-27.5 -7q-31 0 -50.5 20t-19.5 53q0 35 21.5 56t56.5 21q38 0 62.5 -31.5t24.5 -92.5q0 -92 -41 -141.5
t-107 -49.5h-12z" />
    <glyph glyph-name="less" unicode="&#x3c;" horiz-adv-x="630" 
d="M575 172v-117l-535 202v97l535 202v-116l-342 -130v-9z" />
    <glyph glyph-name="equal" unicode="=" horiz-adv-x="628" 
d="M563 368h-498v95h498v-95zM563 148h-498v95h498v-95z" />
    <glyph glyph-name="greater" unicode="&#x3e;" horiz-adv-x="630" 
d="M590 257l-535 -202v117l342 129v9l-342 130v116l535 -202v-97z" />
    <glyph glyph-name="question" unicode="?" horiz-adv-x="693" 
d="M265 212l-29 178q109 5 199 36.5t90 84.5q0 23 -20 44.5t-63.5 35.5t-111.5 14q-90 0 -172 -25.5t-128 -57.5v139q50 27 133 48t175 21q113 0 188.5 -27.5t111 -72.5t35.5 -97q0 -61 -46 -106.5t-115 -70.5t-140 -32v-112h-107zM264.5 12q-23.5 22 -23.5 53t23.5 53
t58.5 22t58.5 -22t23.5 -53t-23.5 -53t-58.5 -22t-58.5 22z" />
    <glyph glyph-name="at" unicode="@" horiz-adv-x="1030" 
d="M279.5 -71.5q-102.5 48.5 -156 132.5t-53.5 189q0 103 54 187.5t155.5 133.5t239.5 49q141 0 243 -49.5t155 -132t53 -178.5q0 -91 -46.5 -142t-123.5 -51q-57 0 -93.5 22.5t-46.5 49.5h-6q-19 -27 -63.5 -49.5t-100.5 -22.5q-60 0 -105 23.5t-69 65t-24 94.5t24 94.5
t68 65t103 23.5q44 0 82 -16t57 -36h1v42h108v-203q0 -35 18 -55t49 -20q34 0 53.5 27t19.5 86q0 78 -42 143t-122.5 103t-191.5 38q-109 0 -189 -38.5t-122.5 -105t-42.5 -148.5t42.5 -148.5t123 -105t189.5 -38.5q76 0 137.5 17t89.5 38v-87q-30 -18 -91 -32t-134 -14
q-140 0 -242.5 48.5zM579.5 173q32.5 18 47.5 40v74q-15 22 -47.5 40t-72.5 18q-48 0 -76.5 -26.5t-28.5 -68.5t28 -68.5t77 -26.5q40 0 72.5 18z" />
    <glyph glyph-name="A" unicode="A" horiz-adv-x="878" 
d="M878 0h-152l-83 168h-408l-83 -168h-152l351 700h176zM436 572l-151 -304h308l-151 304h-6z" />
    <glyph glyph-name="B" unicode="B" horiz-adv-x="837" 
d="M547 345q103 0 156.5 -44.5t53.5 -117.5q0 -82 -67 -132.5t-203 -50.5h-402v700h412q95 0 157.5 -24t92.5 -64.5t30 -91.5q0 -77 -57.5 -122.5t-172.5 -45.5v-7zM225 580v-182h262q74 0 108 25t34 67q0 41 -34.5 65.5t-107.5 24.5h-262zM467 120q76 0 109 23.5t33 66.5
q0 88 -142 88h-242v-178h242z" />
    <glyph glyph-name="C" unicode="C" horiz-adv-x="887" 
d="M272.5 37q-98.5 47 -150.5 129t-52 184q0 103 53 184.5t156 128.5t248 47q93 0 173 -23t122 -51v-133q-40 34 -119 61.5t-171 27.5q-99 0 -170 -32t-107.5 -87t-36.5 -123q0 -67 35.5 -122.5t103 -87.5t158.5 -32q88 0 163 23t114 51v-130q-40 -23 -117 -42.5t-168 -19.5
q-136 0 -234.5 47z" />
    <glyph glyph-name="D" unicode="D" horiz-adv-x="937" 
d="M85 0v700h330q149 0 250.5 -44t151.5 -123t50 -183t-50 -183t-151.5 -123t-250.5 -44h-330zM415 120q151 0 227.5 62t76.5 168t-76.5 168t-227.5 62h-190v-460h190z" />
    <glyph glyph-name="E" unicode="E" horiz-adv-x="752" 
d="M225 303v-183h472v-120h-612v700h592v-120h-452v-177h412v-100h-412z" />
    <glyph glyph-name="F" unicode="F" horiz-adv-x="722" 
d="M677 700v-125h-452v-205h407v-100h-407v-270h-140v700h592z" />
    <glyph glyph-name="G" unicode="G" horiz-adv-x="952" 
d="M279.5 37q-103.5 47 -156.5 128.5t-53 184.5t53.5 184.5t160.5 128.5t261 47q103 0 192.5 -22t144.5 -50v-130q-51 33 -139 58.5t-191 25.5q-108 0 -183.5 -32t-113 -87t-37.5 -123q0 -67 37 -122t109 -87.5t173 -32.5q63 0 126.5 15.5t103.5 35.5v91h-295v105h405v-274
q-56 -35 -151 -63t-196 -28q-147 0 -250.5 47z" />
    <glyph glyph-name="H" unicode="H" horiz-adv-x="890" 
d="M665 415v285h140v-700h-140v290h-440v-290h-140v700h140v-285h440z" />
    <glyph glyph-name="I" unicode="I" horiz-adv-x="760" 
d="M720 700v-120h-270v-460h270v-120h-680v120h270v460h-270v120h680z" />
    <glyph glyph-name="J" unicode="J" horiz-adv-x="595" 
d="M15 18v128q96 -31 180 -31q82 0 128.5 39t46.5 117v429h140v-429q0 -139 -81 -210t-227 -71q-87 0 -187 28z" />
    <glyph glyph-name="K" unicode="K" horiz-adv-x="802" 
d="M225 0h-140v700h140v-307h2l405 307h190l-430 -332v-5l400 -363h-186l-379 338h-2v-338z" />
    <glyph glyph-name="L" unicode="L" horiz-adv-x="720" 
d="M705 0h-620v700h140v-575h480v-125z" />
    <glyph glyph-name="M" unicode="M" horiz-adv-x="1110" 
d="M880 571l-325 -596l-325 596h-5v-571h-140v700h220l252 -472h5l247 472h216v-700h-140v571h-5z" />
    <glyph glyph-name="N" unicode="N" horiz-adv-x="887" 
d="M225 0h-140v700h224l346 -567h7v567h140v-700h-224l-346 567h-7v-567z" />
    <glyph glyph-name="O" unicode="O" horiz-adv-x="1064" 
d="M280 37q-104 47 -157 128.5t-53 184.5t53 184.5t157 128.5t252 47t252 -47t157 -128.5t53 -184.5t-53 -184.5t-157 -128.5t-252 -47t-252 47zM702 140q71 32 107.5 87t36.5 123t-36.5 123t-107.5 87t-170 32t-170 -32t-107.5 -87t-36.5 -123t36.5 -123t107.5 -87t170 -32
t170 32z" />
    <glyph glyph-name="P" unicode="P" horiz-adv-x="830" 
d="M492 700q144 0 218.5 -63t74.5 -172t-74.5 -172t-218.5 -63h-267v-230h-140v700h407zM487 350q74 0 112 31.5t38 83.5t-38 83.5t-112 31.5h-262v-230h262z" />
    <glyph glyph-name="Q" unicode="Q" horiz-adv-x="1064" 
d="M949.5 179q-44.5 -77 -130.5 -124l79 -125h-144l-50 80q-78 -20 -172 -20q-148 0 -252 47t-157 128.5t-53 184.5t53 184.5t157 128.5t252 47t252 -47t157 -128.5t53 -184.5q0 -94 -44.5 -171zM749 166q47 33 72 81t25 103q0 68 -36.5 123t-107.5 87t-170 32t-170 -32
t-107.5 -87t-36.5 -123t36.5 -123t107.5 -87t170 -32q51 0 103 10l-80 127h144z" />
    <glyph glyph-name="R" unicode="R" horiz-adv-x="852" 
d="M567 294q95 0 142.5 -41t47.5 -115v-138h-140v145q0 50 -30.5 75.5t-96.5 25.5h-265v-246h-140v700h417q140 0 212.5 -58.5t72.5 -153.5q0 -85 -58 -136.5t-162 -51.5v-6zM487 346q75 0 113.5 31.5t38.5 85.5t-38.5 85.5t-113.5 31.5h-262v-234h262z" />
    <glyph glyph-name="S" unicode="S" horiz-adv-x="775" 
d="M221.5 12q-81.5 22 -121.5 49v137q43 -32 124.5 -57.5t171.5 -25.5q87 0 129 25t42 58q0 30 -26 48.5t-64.5 28t-109.5 22.5q-99 18 -161 37t-106.5 60.5t-44.5 113.5q0 54 36.5 100t113.5 74t194 28q94 0 175.5 -22.5t125.5 -50.5v-140q-43 34 -127 61t-181 27
q-66 0 -108.5 -13t-61.5 -32.5t-19 -39.5q0 -30 26 -49t65.5 -29.5t110.5 -23.5q98 -18 160 -36.5t106 -60.5t44 -113q0 -53 -34.5 -98t-105.5 -72.5t-177 -27.5q-95 0 -176.5 22z" />
    <glyph glyph-name="T" unicode="T" horiz-adv-x="740" 
d="M20 700h700v-125h-280v-575h-140v575h-280v125z" />
    <glyph glyph-name="U" unicode="U" horiz-adv-x="876" 
d="M171.5 72.5q-91.5 82.5 -91.5 230.5v397h140v-392q0 -193 218 -193t218 193v392h140v-397q0 -148 -91.5 -230.5t-266.5 -82.5t-266.5 82.5z" />
    <glyph glyph-name="V" unicode="V" horiz-adv-x="855" 
d="M524 0h-193l-336 700h153l276 -585h7l276 585h153z" />
    <glyph glyph-name="W" unicode="W" horiz-adv-x="1273" 
d="M449 0h-195l-249 700h147l205 -578h6l199 578h149l199 -578h6l205 578h147l-249 -700h-195l-184 539h-7z" />
    <glyph glyph-name="X" unicode="X" horiz-adv-x="764" 
d="M163 0h-168l304 360l-291 340h168l204 -246h5l203 246h168l-291 -340l304 -360h-168l-217 262h-5z" />
    <glyph glyph-name="Y" unicode="Y" horiz-adv-x="820" 
d="M480 0h-140v155l-360 545h156l271 -415h6l271 415h156l-360 -545v-155z" />
    <glyph glyph-name="Z" unicode="Z" horiz-adv-x="780" 
d="M735 0h-685v132l473 427v6h-466v135h658v-131l-473 -427v-7h493v-135z" />
    <glyph glyph-name="bracketleft" unicode="[" horiz-adv-x="340" 
d="M330 -190h-245v970h245v-115h-120v-740h120v-115z" />
    <glyph glyph-name="backslash" unicode="\" horiz-adv-x="510" 
d="M510 -70h-130l-380 840h130z" />
    <glyph glyph-name="bracketright" unicode="]" horiz-adv-x="340" 
d="M255 -190h-245v115h120v740h-120v115h245v-970z" />
    <glyph glyph-name="asciicircum" unicode="^" horiz-adv-x="542" 
d="M164 450h-139l168 250h156l168 -250h-139l-102 156h-10z" />
    <glyph glyph-name="underscore" unicode="_" horiz-adv-x="608" 
d="M628 -210h-648v110h648v-110z" />
    <glyph glyph-name="grave" unicode="`" horiz-adv-x="368" 
d="M315 568l-285 52l10 118h40l258 -113l-10 -57h-13z" />
    <glyph glyph-name="a" unicode="a" horiz-adv-x="713" 
d="M95 34.5q-55 44.5 -55 115.5q0 79 66 126t209 47q84 0 127 7t57 18.5t14 28.5q0 29 -38.5 48.5t-131.5 19.5q-75 0 -148.5 -20.5t-116.5 -46.5v122q37 23 112 41.5t163 18.5q300 0 300 -190v-370h-140v85h-3q-33 -36 -102 -65.5t-155 -29.5q-103 0 -158 44.5zM433 122.5
q56 22.5 80 50.5v106q-20 -12 -58 -20.5t-127 -10.5q-76 -1 -109.5 -22t-33.5 -54q0 -31 29.5 -51.5t88.5 -20.5q74 0 130 22.5z" />
    <glyph glyph-name="b" unicode="b" horiz-adv-x="782" 
d="M298.5 15.5q-59.5 25.5 -87.5 56.5h-6v-72h-140v720h140v-242h6q28 31 87.5 56.5t131.5 25.5q89 0 157.5 -37t106.5 -101.5t38 -146.5q0 -81 -38 -146t-106.5 -102t-157.5 -37q-72 0 -131.5 25.5zM533 148.5q54 48.5 54 126.5t-54 126.5t-148 48.5q-60 0 -109 -23.5
t-71 -51.5v-200q22 -28 71 -51.5t109 -23.5q94 0 148 48.5z" />
    <glyph glyph-name="c" unicode="c" horiz-adv-x="682" 
d="M209 27.5q-77 37.5 -118 102.5t-41 145t42 145t121.5 102.5t187.5 37.5q73 0 136 -18.5t105 -42.5v-118q-43 29 -104 49t-130 20q-103 0 -158 -48t-55 -127t53.5 -127t149.5 -48q67 0 127.5 19t96.5 44v-118q-37 -21 -99 -38t-133 -17q-104 0 -181 37.5z" />
    <glyph glyph-name="d" unicode="d" horiz-adv-x="782" 
d="M194.5 27q-68.5 37 -106.5 101.5t-38 146.5t38 146.5t106.5 101.5t157.5 37q72 0 131.5 -25.5t87.5 -56.5h6v242h140v-720h-140v72h-6q-28 -31 -87.5 -56.5t-131.5 -25.5q-89 0 -157.5 37zM506 123.5q49 23.5 71 51.5v200q-22 28 -71 51.5t-109 23.5q-94 0 -148 -48.5
t-54 -126.5t54 -126.5t148 -48.5q60 0 109 23.5z" />
    <glyph glyph-name="e" unicode="e" horiz-adv-x="732" 
d="M212 28q-79 38 -120.5 102.5t-41.5 144.5t39.5 145t112.5 102.5t168 37.5q93 0 164 -37t109.5 -102t38.5 -146v-34h-491q13 -61 71 -98.5t153 -37.5q65 0 125 20t92 44v-121q-33 -22 -96 -40t-136 -18q-109 0 -188 38zM539 321q-8 56 -51 96t-116 40t-122 -38t-59 -98
h348z" />
    <glyph glyph-name="f" unicode="f" horiz-adv-x="418" 
d="M108 0v440h-108v80h108v26q0 87 51 135.5t137 48.5q34 0 60.5 -4t58.5 -13v-114q-44 16 -87 16q-38 0 -59 -19.5t-21 -56.5v-19h147v-80h-147v-440h-140z" />
    <glyph glyph-name="g" unicode="g" horiz-adv-x="777" 
d="M218.5 -182q-70.5 18 -108.5 40v123q38 -25 104 -45.5t138 -20.5q109 0 164.5 47t55.5 128v16h-6q-27 -31 -86.5 -56t-132.5 -25q-89 0 -156.5 35t-104 96t-36.5 136q0 76 36.5 137t104 96t156.5 35q73 0 132 -25.5t87 -56.5h6v72h140v-460q0 -86 -39.5 -151.5t-117 -102
t-188.5 -36.5q-78 0 -148.5 18zM497 158q50 23 75 51v166q-25 29 -75.5 52t-111.5 23q-92 0 -141 -42.5t-49 -115.5q0 -72 49 -114.5t141 -42.5q62 0 112 23z" />
    <glyph glyph-name="h" unicode="h" horiz-adv-x="722" 
d="M65 0v720h140v-257h6q24 37 80 67t131 30q116 0 178 -58.5t62 -161.5v-340h-140v323q0 60 -37 94.5t-105 34.5q-65 0 -111.5 -30t-63.5 -66v-356h-140z" />
    <glyph glyph-name="i" unicode="i" horiz-adv-x="270" 
d="M69 610q-24 20 -24 54t24 54t66 20t66 -20t24 -54t-24 -54t-66 -20t-66 20zM65 0v550h6h64h63h7v-550h-140z" />
    <glyph glyph-name="j" unicode="j" horiz-adv-x="270" 
d="M69 610q-24 20 -24 54t24 54t66 20t66 -20t24 -54t-24 -54t-66 -20t-66 20zM-95 -186v112q40 -11 76 -11q39 0 61.5 25t22.5 73v537h6h64h63h7v-549q0 -98 -49.5 -149.5t-147.5 -51.5q-50 0 -103 14z" />
    <glyph glyph-name="k" unicode="k" horiz-adv-x="672" 
d="M205 0h-140v720h140v-399h1l290 229h186l-330 -254l330 -296h-184l-292 270h-1v-270z" />
    <glyph glyph-name="l" unicode="l" horiz-adv-x="270" 
d="M205 0h-140v720h140v-720z" />
    <glyph glyph-name="m" unicode="m" horiz-adv-x="1095" 
d="M65 0v550h140v-87h6q22 37 71.5 67t112.5 30q85 0 129.5 -32.5t64.5 -65.5h6q27 37 82 67.5t123 30.5q111 0 173 -59t62 -161v-340h-140v328q0 57 -34.5 90.5t-93.5 33.5q-51 0 -91.5 -24t-59.5 -54q4 -16 4 -37v-337h-140v328q0 56 -33 90t-87 34q-57 0 -98.5 -30
t-56.5 -66v-356h-140z" />
    <glyph glyph-name="n" unicode="n" horiz-adv-x="722" 
d="M65 0v550h140v-87h6q24 37 80 67t131 30q116 0 178 -58.5t62 -161.5v-340h-140v323q0 60 -37 94.5t-105 34.5q-65 0 -111.5 -30t-63.5 -66v-356h-140z" />
    <glyph glyph-name="o" unicode="o" horiz-adv-x="804" 
d="M212.5 27.5q-79.5 37.5 -121 102.5t-41.5 145t41.5 145t121 102.5t189.5 37.5t189.5 -37.5t121 -102.5t41.5 -145t-41.5 -145t-121 -102.5t-189.5 -37.5t-189.5 37.5zM554.5 148q54.5 48 54.5 127t-54.5 127t-152.5 48t-152.5 -48t-54.5 -127t54.5 -127t152.5 -48
t152.5 48z" />
    <glyph glyph-name="p" unicode="p" horiz-adv-x="782" 
d="M65 -190v740h140v-72h6q27 29 84.5 55.5t134.5 26.5q89 0 157.5 -37t106.5 -101.5t38 -146.5t-38 -146.5t-106.5 -101.5t-157.5 -37q-73 0 -132 25.5t-87 56.5h-6v-262h-140zM494.5 122.5q44.5 22.5 68.5 62t24 90.5t-24 90.5t-68.5 62t-104.5 22.5q-65 0 -114.5 -23
t-70.5 -52v-200q21 -29 70.5 -52t114.5 -23q60 0 104.5 22.5z" />
    <glyph glyph-name="q" unicode="q" horiz-adv-x="782" 
d="M577 -190v262h-6q-28 -31 -87.5 -56.5t-131.5 -25.5q-89 0 -157.5 37t-106.5 101.5t-38 146.5t38 146.5t107 101.5t158 37q71 0 130.5 -25.5t87.5 -56.5h6v72h140v-740h-140zM505 123.5q50 23.5 72 51.5v200q-22 28 -72 51.5t-113 23.5q-60 0 -104.5 -22.5t-68.5 -62
t-24 -90.5t24 -90.5t68.5 -62t104.5 -22.5q63 0 113 23.5z" />
    <glyph glyph-name="r" unicode="r" horiz-adv-x="463" 
d="M65 0v550h140v-87h6q22 37 68.5 67t102.5 30h56v-135h-56q-73 0 -119 -25.5t-58 -56.5v-343h-140z" />
    <glyph glyph-name="s" unicode="s" horiz-adv-x="635" 
d="M176 9q-71 19 -106 41v121q37 -24 108 -45t145 -21q127 0 127 56q0 22 -20.5 35.5t-50 21t-86.5 16.5q-82 13 -133 27.5t-88 48.5t-37 93q0 43 29 78.5t92 57t160 21.5q82 0 158.5 -19t113.5 -42v-123q-42 26 -119.5 47.5t-152.5 21.5q-136 0 -136 -60q0 -28 36 -41
t114 -25q84 -14 136 -29t90.5 -50t38.5 -97q0 -39 -29 -74t-88.5 -57t-147.5 -22q-83 0 -154 19z" />
    <glyph glyph-name="t" unicode="t" horiz-adv-x="448" 
d="M157.5 43.5q-54.5 53.5 -54.5 156.5v270h-103v80h50q27 0 40 14t13 44v75h140v-133h165v-80h-165v-271q0 -45 24 -69.5t66 -24.5q43 0 75 12v-113q-29 -8 -50 -11t-48 -3q-98 0 -152.5 53.5z" />
    <glyph glyph-name="u" unicode="u" horiz-adv-x="722" 
d="M122.5 48.5q-62.5 58.5 -62.5 161.5v340h140v-322q0 -61 37 -95.5t105 -34.5q64 0 110.5 29.5t64.5 66.5v356h140v-550h-140v87h-6q-24 -37 -80 -67t-129 -30q-117 0 -179.5 58.5z" />
    <glyph glyph-name="v" unicode="v" horiz-adv-x="650" 
d="M409 0h-168l-246 550h143l186 -421h5l187 421h139z" />
    <glyph glyph-name="w" unicode="w" horiz-adv-x="1025" 
d="M371 0h-166l-200 550h139l150 -418h5l152 418h126l154 -418h5l149 418h135l-195 -550h-166l-144 388h-5z" />
    <glyph glyph-name="x" unicode="x" horiz-adv-x="632" 
d="M150 0h-155l242 278l-234 272h157l154 -178h6l156 178h155l-236 -269l242 -281h-157l-161 186h-6z" />
    <glyph glyph-name="y" unicode="y" horiz-adv-x="653" 
d="M298 -190h-143l118 242l-278 498h153l190 -350h5l170 350h145z" />
    <glyph glyph-name="z" unicode="z" horiz-adv-x="638" 
d="M603 0h-568v116l396 308v6h-391v120h553v-116l-396 -308v-6h406v-120z" />
    <glyph glyph-name="braceleft" unicode="{" horiz-adv-x="367" 
d="M300 -190q-90 0 -132.5 41.5t-42.5 128.5v193q0 32 -16.5 47.5t-51.5 15.5h-22v110h22q35 0 51.5 16t16.5 48v200q0 87 42.5 128.5t132.5 41.5h52v-115h-40q-62 0 -62 -65v-190q0 -59 -26.5 -86.5t-81.5 -27.5v-10q55 0 81.5 -27.5t26.5 -85.5v-183q0 -65 62 -65h40v-115
h-52z" />
    <glyph glyph-name="bar" unicode="|" horiz-adv-x="365" 
d="M245 -170h-125v970h125v-970z" />
    <glyph glyph-name="braceright" unicode="}" horiz-adv-x="367" 
d="M15 -190v115h40q62 0 62 65v183q0 58 26.5 85.5t81.5 27.5v10q-55 0 -81.5 27.5t-26.5 86.5v190q0 65 -62 65h-40v115h52q90 0 132.5 -41.5t42.5 -128.5v-200q0 -32 16.5 -48t51.5 -16h22v-110h-22q-35 0 -51.5 -15.5t-16.5 -47.5v-193q0 -87 -42.5 -128.5t-132.5 -41.5
h-52z" />
    <glyph glyph-name="asciitilde" unicode="~" horiz-adv-x="633" 
d="M370 239q-30 16 -65 46q-26 22 -43.5 32.5t-38.5 10.5q-22 0 -35 -14t-13 -39v-42h-135v55q0 75 39 115t111 40q43 0 73 -16t65 -46q26 -22 43.5 -32.5t38.5 -10.5q22 0 35 14t13 39v42h135v-55q0 -75 -39 -115t-111 -40q-43 0 -73 16z" />
    <glyph glyph-name="uni00A0" unicode="&#xa0;" horiz-adv-x="300" 
 />
    <glyph glyph-name="exclamdown" unicode="&#xa1;" horiz-adv-x="294" 
d="M88.5 432q-23.5 22 -23.5 53t23.5 53t58.5 22t58.5 -22t23.5 -53t-23.5 -53t-58.5 -22t-58.5 22zM217 -190h-140v330l27 198h86l27 -198v-330z" />
    <glyph glyph-name="cent" unicode="&#xa2;" horiz-adv-x="682" 
d="M250 402q-55 -48 -55 -127t53.5 -127t149.5 -48q67 0 127.5 19t96.5 44v-118q-26 -15 -70 -29.5t-95 -21.5v-109h-135v110q-84 12 -145.5 51.5t-94 98.5t-32.5 130q0 70 32 128.5t93.5 98t146.5 52.5v114h135v-111q56 -6 104 -22.5t81 -35.5v-118q-43 29 -104 49t-130 20
q-103 0 -158 -48z" />
    <glyph glyph-name="sterling" unicode="&#xa3;" horiz-adv-x="722" 
d="M254 125h423v-125h-632v108q62 0 93.5 29.5t31.5 85.5q0 33 -17 77h-101v80h67q-14 36 -21.5 62.5t-7.5 52.5q0 63 35 111.5t102.5 76t162.5 27.5q79 0 155.5 -19t120.5 -42v-133q-47 26 -121.5 47.5t-147.5 21.5q-77 0 -119.5 -27.5t-42.5 -77.5q0 -39 25 -100h253v-80
h-220q17 -44 17 -75q0 -33 -17.5 -58t-38.5 -36v-6z" />
    <glyph glyph-name="currency" unicode="&#xa4;" horiz-adv-x="683" 
d="M558 236l60 -60l-72 -71l-67 65q-59 -31 -136 -31q-78 0 -138 31l-67 -65l-73 71l61 61q-36 52 -36 114t36 114l-61 60l73 71l67 -65q60 31 138 31q77 0 136 -31l67 65l72 -71l-60 -60q36 -52 36 -114q0 -63 -36 -115zM446 269.5q38 30.5 38 81.5q0 50 -38 80.5
t-104 30.5q-65 0 -103.5 -30.5t-38.5 -80.5q0 -51 38 -81.5t104 -30.5t104 30.5z" />
    <glyph glyph-name="yen" unicode="&#xa5;" horiz-adv-x="830" 
d="M676 700h164l-295 -372h165v-80h-225v-78h225v-80h-225v-90h-140v90h-225v80h225v78h-225v80h165l-295 372h164l258 -331h6z" />
    <glyph glyph-name="brokenbar" unicode="&#xa6;" horiz-adv-x="365" 
d="M245 390h-125v410h125v-410zM245 -170h-125v410h125v-410z" />
    <glyph glyph-name="section" unicode="&#xa7;" horiz-adv-x="690" 
d="M214 -163q-69 17 -109 38v123q43 -25 110 -45t135 -20t101.5 21t33.5 49q0 26 -21.5 43t-55 27.5t-90.5 24.5q-80 20 -129 38t-84 53t-35 91q0 39 20.5 66.5t45.5 42.5t38 17v7q-104 41 -104 127q0 74 71 122t219 48q79 0 148.5 -16t108.5 -36v-126q-43 24 -111.5 44.5
t-140.5 20.5q-155 0 -155 -69q0 -23 21 -38.5t52.5 -25t89.5 -22.5q81 -18 132 -36t88 -53.5t37 -92.5q0 -38 -21 -65.5t-47 -43t-40 -17.5v-6q50 -22 76.5 -54.5t26.5 -83.5q0 -45 -29.5 -83.5t-90 -62.5t-148.5 -24q-74 0 -143 17zM240 223.5q30 -20.5 95 -36.5l77 -19
q9 3 27.5 16t34.5 33.5t16 45.5q0 34 -30.5 54.5t-95.5 36.5l-77 19q-8 -3 -27 -16.5t-34.5 -34t-15.5 -44.5q0 -34 30 -54.5z" />
    <glyph glyph-name="dieresis" unicode="&#xa8;" horiz-adv-x="455" 
d="M53 582q-23 22 -23 53t23 53t56 22t56 -22t23 -53t-23 -53t-56 -22t-56 22zM290 582q-23 22 -23 53t23 53t56 22t56 -22t23 -53t-23 -53t-56 -22t-56 22z" />
    <glyph glyph-name="copyright" unicode="&#xa9;" horiz-adv-x="1032" 
d="M278 29q-101 49 -154.5 133.5t-53.5 187.5t53.5 187.5t154.5 133.5t238 49t238 -49t154.5 -133.5t53.5 -187.5t-53.5 -187.5t-154.5 -133.5t-238 -49t-238 49zM705.5 94q80.5 39 123.5 106.5t43 149.5t-43 149.5t-123.5 106.5t-189.5 39t-189.5 -39t-123.5 -106.5
t-43 -149.5t43 -149.5t123.5 -106.5t189.5 -39t189.5 39zM404 180.5q-52 25.5 -79.5 70t-27.5 99.5t28 99.5t80 70t122 25.5q48 0 93 -12t72 -26v-100q-26 15 -68.5 27.5t-86.5 12.5q-65 0 -97.5 -26.5t-32.5 -72.5q0 -43 32 -69t96 -26q44 0 82.5 12.5t59.5 28.5v-100
q-22 -15 -63.5 -27t-88.5 -12q-69 0 -121 25.5z" />
    <glyph glyph-name="ordfeminine" unicode="&#xaa;" horiz-adv-x="455" 
d="M64.5 399q-34.5 26 -34.5 65q0 46 39 70t139 24q61 0 81.5 8.5t20.5 24.5q0 33 -89 33q-47 0 -92.5 -9.5t-70.5 -20.5v86q28 11 76.5 19.5t101.5 8.5q91 0 132.5 -31t41.5 -92v-206h-100v41h-5q-21 -18 -58.5 -32.5t-80.5 -14.5q-67 0 -101.5 26zM262.5 456
q31.5 11 47.5 24v47q-11 -9 -38.5 -16.5t-65.5 -7.5q-40 0 -54.5 -7.5t-14.5 -21.5t12.5 -21.5t43.5 -7.5q38 0 69.5 11z" />
    <glyph glyph-name="guillemotleft" unicode="&#xab;" horiz-adv-x="599" 
d="M322 75h-142l-145 208l145 208h142l-145 -208zM564 75h-142l-145 208l145 208h142l-145 -208z" />
    <glyph glyph-name="logicalnot" unicode="&#xac;" horiz-adv-x="628" 
d="M563 193h-110v135h-398v110h508v-245z" />
    <glyph glyph-name="uni00AD" unicode="&#xad;" horiz-adv-x="520" 
d="M465 255h-410v115h410v-115z" />
    <glyph glyph-name="registered" unicode="&#xae;" horiz-adv-x="320" 
d="M59 515q-39 35 -39 85t39 85t101 35t101 -35t39 -85t-39 -85t-101 -35t-101 35zM233.5 539.5q26.5 24.5 26.5 60.5t-26.5 60.5t-73.5 24.5t-73.5 -24.5t-26.5 -60.5t26.5 -60.5t73.5 -24.5t73.5 24.5zM105 545v110h69q23 0 34.5 -9t11.5 -23t-11 -22t-34 -8v-3h2
q38 0 38 -26v-19h-38v20q0 12 -12 12h-22v-32h-38zM165 604q13 0 13 10q0 11 -13 11h-22v-21h22z" />
    <glyph glyph-name="macron" unicode="&#xaf;" horiz-adv-x="454" 
d="M424 610h-394v100h394v-100z" />
    <glyph glyph-name="degree" unicode="&#xb0;" horiz-adv-x="436" 
d="M122.5 411.5q-41.5 21.5 -64.5 58t-23 80.5t23 80.5t64.5 58t95.5 21.5t95.5 -21.5t64.5 -58t23 -80.5t-23 -80.5t-64.5 -58t-95.5 -21.5t-95.5 21.5zM274 500q22 20 22 50t-22 50t-56 20t-56 -20t-22 -50t22 -50t56 -20t56 20z" />
    <glyph glyph-name="plusminus" unicode="&#xb1;" horiz-adv-x="640" 
d="M577 10h-514v95h202v145h-205v110h205v200h110v-200h205v-110h-205v-145h202v-95z" />
    <glyph glyph-name="uni00B2" unicode="&#xb2;" horiz-adv-x="395" 
d="M45 450v73l113 72q48 31 70 52t22 39q0 21 -15 32.5t-47 11.5q-31 0 -73 -15t-75 -34v85q27 17 73.5 30.5t93.5 13.5q74 0 111 -28.5t37 -75.5q0 -34 -25.5 -62t-89.5 -69l-62 -40v-5h171v-80h-304z" />
    <glyph glyph-name="uni00B3" unicode="&#xb3;" horiz-adv-x="388" 
d="M104.5 449q-40.5 9 -64.5 21v80q24 -11 62 -20.5t76 -9.5q39 0 57 12t18 30q0 19 -18 30.5t-57 11.5q-24 0 -45.5 -3t-32.5 -7v56l95 65v5h-150v80h293v-50l-124 -85v-5q68 0 106 -30.5t38 -74.5q0 -29 -19.5 -55.5t-58 -43t-91.5 -16.5q-44 0 -84.5 9z" />
    <glyph glyph-name="acute" unicode="&#xb4;" horiz-adv-x="368" 
d="M53 568h-13l-10 57l258 113h40l10 -118z" />
    <glyph glyph-name="uni00B5" unicode="&#xb5;" horiz-adv-x="727" 
d="M65 -190v740h139v-300q0 -77 38 -114.5t115 -37.5q54 0 98.5 26t66.5 59v367h140v-550h-118l-22 86h-6q-27 -37 -78 -66.5t-111 -29.5q-44 0 -76.5 12.5t-44.5 27.5h-4v-220h-137z" />
    <glyph glyph-name="paragraph" unicode="&#xb6;" horiz-adv-x="780" 
d="M285 -190v390h-10q-67 0 -120.5 31.5t-84 88t-30.5 130.5t30.5 130.5t84 88t120.5 31.5h475v-120h-83v-770h-125v770h-132v-770h-125z" />
    <glyph glyph-name="periodcentered" unicode="&#xb7;" horiz-adv-x="300" 
d="M91.5 265q-23.5 22 -23.5 53t23.5 53t58.5 22t58.5 -22t23.5 -53t-23.5 -53t-58.5 -22t-58.5 22z" />
    <glyph glyph-name="cedilla" unicode="&#xb8;" horiz-adv-x="308" 
d="M170 -56q51 0 79.5 -25.5t28.5 -69.5q0 -46 -37.5 -74t-101.5 -28q-57 0 -109 15v77q50 -14 95 -14q53 0 53 28q0 26 -41 26h-77l-20 21l32 106l90 -6l-17 -56h25z" />
    <glyph glyph-name="uni00B9" unicode="&#xb9;" horiz-adv-x="363" 
d="M50 450v80h95v150h-95v73h55q25 0 36.5 11.5t11.5 35.5h97v-270h88v-80h-288z" />
    <glyph glyph-name="ordmasculine" unicode="&#xba;" horiz-adv-x="470" 
d="M122.5 397.5q-47.5 22.5 -72.5 60t-25 82.5t25 82.5t72.5 60t112.5 22.5t112.5 -22.5t72.5 -60t25 -82.5t-25 -82.5t-72.5 -60t-112.5 -22.5t-112.5 22.5zM309 483q28 23 28 57t-28 57t-74 23t-74 -23t-28 -57t28 -57t74 -23t74 23z" />
    <glyph glyph-name="guillemotright" unicode="&#xbb;" horiz-adv-x="599" 
d="M322 283l-145 -208h-142l145 208l-145 208h142zM564 283l-145 -208h-142l145 208l-145 208h142z" />
    <glyph glyph-name="onequarter" unicode="&#xbc;" horiz-adv-x="921" 
d="M40 350v80h95v150h-95v73h55q25 0 36.5 11.5t11.5 35.5h97v-270h88v-80h-288zM315 0h-118l408 700h118zM838 0h-105v80h-212v60l157 210h112l-153 -204v-6h96l9 88h96v-88h53v-60h-53v-80z" />
    <glyph glyph-name="onehalf" unicode="&#xbd;" horiz-adv-x="968" 
d="M40 350v80h95v150h-95v73h55q25 0 36.5 11.5t11.5 35.5h97v-270h88v-80h-288zM315 0h-118l408 700h118zM598 0v73l113 72q48 31 70 52t22 39q0 21 -15 32.5t-47 11.5q-31 0 -73 -15t-75 -34v85q27 17 73.5 30.5t93.5 13.5q74 0 111 -28.5t37 -75.5q0 -34 -25.5 -62
t-89.5 -69l-62 -40v-5h171v-80h-304z" />
    <glyph glyph-name="threequarters" unicode="&#xbe;" horiz-adv-x="933" 
d="M109.5 349q-40.5 9 -64.5 21v80q24 -11 62 -20.5t76 -9.5q39 0 57 12t18 30q0 19 -18 30.5t-57 11.5q-24 0 -45.5 -3t-32.5 -7v56l95 65v5h-150v80h293v-50l-124 -85v-5q68 0 106 -30.5t38 -74.5q0 -29 -19.5 -55.5t-58 -43t-91.5 -16.5q-44 0 -84.5 9zM327 0h-118
l408 700h118zM850 0h-105v80h-212v60l157 210h112l-153 -204v-6h96l9 88h96v-88h53v-60h-53v-80z" />
    <glyph glyph-name="questiondown" unicode="&#xbf;" horiz-adv-x="608" 
d="M283.5 432q-23.5 22 -23.5 53t23.5 53t58.5 22t58.5 -22t23.5 -53t-23.5 -53t-58.5 -22t-58.5 22zM146 -173.5q-73 26.5 -107 70.5t-34 98q0 64 44 111t110 73.5t134 34.5v124h107l28 -190q-105 -4 -190 -37.5t-85 -92.5q0 -23 19.5 -44.5t62 -35t108.5 -13.5
q83 0 158 22.5t117 50.5v-137q-41 -23 -119 -42t-169 -19q-111 0 -184 26.5z" />
    <glyph glyph-name="Agrave" unicode="&#xc0;" horiz-adv-x="878" 
d="M878 0h-152l-83 168h-408l-83 -168h-152l351 700h176zM436 572l-151 -304h308l-151 304h-6zM572 768h-13l-285 52l10 118h40l258 -113z" />
    <glyph glyph-name="Aacute" unicode="&#xc1;" horiz-adv-x="878" 
d="M878 0h-152l-83 168h-408l-83 -168h-152l351 700h176zM436 572l-151 -304h308l-151 304h-6zM326 768h-13l-10 57l258 113h40l10 -118z" />
    <glyph glyph-name="Acircumflex" unicode="&#xc2;" horiz-adv-x="878" 
d="M878 0h-152l-83 168h-408l-83 -168h-152l351 700h176zM436 572l-151 -304h308l-151 304h-6zM335 780h-136l166 142h148l166 -142h-136l-99 85h-10z" />
    <glyph glyph-name="Atilde" unicode="&#xc3;" horiz-adv-x="878" 
d="M878 0h-152l-83 168h-408l-83 -168h-152l351 700h176zM436 572l-151 -304h308l-151 304h-6zM482.5 788.5q-23.5 10.5 -51.5 30.5q-17 13 -30 19.5t-26 6.5q-14 0 -21.5 -8t-7.5 -22v-32h-110v48q0 45 27 71t75 26q33 0 56.5 -10.5t51.5 -30.5q17 -13 30 -19.5t26 -6.5
q14 0 21.5 8t7.5 22v32h110v-48q0 -45 -27 -71t-75 -26q-33 0 -56.5 10.5z" />
    <glyph glyph-name="Adieresis" unicode="&#xc4;" horiz-adv-x="878" 
d="M878 0h-152l-83 168h-408l-83 -168h-152l351 700h176zM436 572l-151 -304h308l-151 304h-6zM264 797q-23 22 -23 53t23 53t56 22t56 -22t23 -53t-23 -53t-56 -22t-56 22zM501 797q-23 22 -23 53t23 53t56 22t56 -22t23 -53t-23 -53t-56 -22t-56 22z" />
    <glyph glyph-name="Aring" unicode="&#xc5;" horiz-adv-x="878" 
d="M878 0h-152l-83 168h-408l-83 -168h-152l351 700h176zM436 572l-151 -304h308l-151 304h-6zM337.5 779.5q-35.5 29.5 -35.5 75.5t35.5 75.5t101.5 29.5t101.5 -29.5t35.5 -75.5t-35.5 -75.5t-101.5 -29.5t-101.5 29.5zM481.5 827q14.5 11 14.5 28t-14.5 28t-42.5 11
t-42.5 -11t-14.5 -28t14.5 -28t42.5 -11t42.5 11z" />
    <glyph glyph-name="AE" unicode="&#xc6;" horiz-adv-x="1173" 
d="M673 303v-183h445v-120h-585v180h-314l-85 -180h-149l332 700h781v-120h-425v-177h385v-100h-385zM409 580l-142 -300h266v300h-124z" />
    <glyph glyph-name="Ccedilla" unicode="&#xc7;" horiz-adv-x="887" 
d="M362 560q-71 -32 -107.5 -87t-36.5 -123q0 -67 35.5 -122.5t103 -87.5t158.5 -32q88 0 163 23t114 51v-130q-39 -22 -113.5 -41.5t-162.5 -20.5l-14 -46h25q51 0 79.5 -25.5t28.5 -69.5q0 -46 -37.5 -74t-101.5 -28q-57 0 -109 15v77q50 -14 95 -14q53 0 53 28
q0 26 -41 26h-77l-20 21l29 95q-112 14 -192.5 63.5t-122 125t-41.5 166.5q0 103 53 184.5t156 128.5t248 47q93 0 173 -23t122 -51v-133q-40 34 -119 61.5t-171 27.5q-99 0 -170 -32z" />
    <glyph glyph-name="Egrave" unicode="&#xc8;" horiz-adv-x="752" 
d="M225 303v-183h472v-120h-612v700h592v-120h-452v-177h412v-100h-412zM536 768h-13l-285 52l10 118h40l258 -113z" />
    <glyph glyph-name="Eacute" unicode="&#xc9;" horiz-adv-x="752" 
d="M225 303v-183h472v-120h-612v700h592v-120h-452v-177h412v-100h-412zM264 768h-13l-10 57l258 113h40l10 -118z" />
    <glyph glyph-name="Ecircumflex" unicode="&#xca;" horiz-adv-x="752" 
d="M225 303v-183h472v-120h-612v700h592v-120h-452v-177h412v-100h-412zM277 780h-136l166 142h148l166 -142h-136l-99 85h-10z" />
    <glyph glyph-name="Edieresis" unicode="&#xcb;" horiz-adv-x="752" 
d="M225 303v-183h472v-120h-612v700h592v-120h-452v-177h412v-100h-412zM206 797q-23 22 -23 53t23 53t56 22t56 -22t23 -53t-23 -53t-56 -22t-56 22zM443 797q-23 22 -23 53t23 53t56 22t56 -22t23 -53t-23 -53t-56 -22t-56 22z" />
    <glyph glyph-name="Igrave" unicode="&#xcc;" horiz-adv-x="760" 
d="M720 700v-120h-270v-460h270v-120h-680v120h270v460h-270v120h680zM535 768h-13l-285 52l10 118h40l258 -113z" />
    <glyph glyph-name="Iacute" unicode="&#xcd;" horiz-adv-x="760" 
d="M720 700v-120h-270v-460h270v-120h-680v120h270v460h-270v120h680zM238 768h-13l-10 57l258 113h40l10 -118z" />
    <glyph glyph-name="Icircumflex" unicode="&#xce;" horiz-adv-x="760" 
d="M720 700v-120h-270v-460h270v-120h-680v120h270v460h-270v120h680zM276 780h-136l166 142h148l166 -142h-136l-99 85h-10z" />
    <glyph glyph-name="Idieresis" unicode="&#xcf;" horiz-adv-x="760" 
d="M720 700v-120h-270v-460h270v-120h-680v120h270v460h-270v120h680zM205 797q-23 22 -23 53t23 53t56 22t56 -22t23 -53t-23 -53t-56 -22t-56 22zM442 797q-23 22 -23 53t23 53t56 22t56 -22t23 -53t-23 -53t-56 -22t-56 22z" />
    <glyph glyph-name="Eth" unicode="&#xd0;" horiz-adv-x="952" 
d="M430 700q149 0 250.5 -44t151.5 -123t50 -183t-50 -183t-151.5 -123t-250.5 -44h-330v290h-70v100h70v310h330zM430 120q151 0 227.5 62t76.5 168t-76.5 168t-227.5 62h-190v-190h237v-100h-237v-170h190z" />
    <glyph glyph-name="Ntilde" unicode="&#xd1;" horiz-adv-x="887" 
d="M225 0h-140v700h224l346 -567h7v567h140v-700h-224l-346 567h-7v-567zM493.5 788.5q-23.5 10.5 -51.5 30.5q-17 13 -30 19.5t-26 6.5q-14 0 -21.5 -8t-7.5 -22v-32h-110v48q0 45 27 71t75 26q33 0 56.5 -10.5t51.5 -30.5q17 -13 30 -19.5t26 -6.5q14 0 21.5 8t7.5 22v32
h110v-48q0 -45 -27 -71t-75 -26q-33 0 -56.5 10.5z" />
    <glyph glyph-name="Ograve" unicode="&#xd2;" horiz-adv-x="1064" 
d="M280 37q-104 47 -157 128.5t-53 184.5t53 184.5t157 128.5t252 47t252 -47t157 -128.5t53 -184.5t-53 -184.5t-157 -128.5t-252 -47t-252 47zM702 140q71 32 107.5 87t36.5 123t-36.5 123t-107.5 87t-170 32t-170 -32t-107.5 -87t-36.5 -123t36.5 -123t107.5 -87t170 -32
t170 32zM687 768h-13l-285 52l10 118h40l258 -113z" />
    <glyph glyph-name="Oacute" unicode="&#xd3;" horiz-adv-x="1064" 
d="M280 37q-104 47 -157 128.5t-53 184.5t53 184.5t157 128.5t252 47t252 -47t157 -128.5t53 -184.5t-53 -184.5t-157 -128.5t-252 -47t-252 47zM702 140q71 32 107.5 87t36.5 123t-36.5 123t-107.5 87t-170 32t-170 -32t-107.5 -87t-36.5 -123t36.5 -123t107.5 -87t170 -32
t170 32zM390 768h-13l-10 57l258 113h40l10 -118z" />
    <glyph glyph-name="Ocircumflex" unicode="&#xd4;" horiz-adv-x="1064" 
d="M280 37q-104 47 -157 128.5t-53 184.5t53 184.5t157 128.5t252 47t252 -47t157 -128.5t53 -184.5t-53 -184.5t-157 -128.5t-252 -47t-252 47zM702 140q71 32 107.5 87t36.5 123t-36.5 123t-107.5 87t-170 32t-170 -32t-107.5 -87t-36.5 -123t36.5 -123t107.5 -87t170 -32
t170 32zM428 780h-136l166 142h148l166 -142h-136l-99 85h-10z" />
    <glyph glyph-name="Otilde" unicode="&#xd5;" horiz-adv-x="1064" 
d="M280 37q-104 47 -157 128.5t-53 184.5t53 184.5t157 128.5t252 47t252 -47t157 -128.5t53 -184.5t-53 -184.5t-157 -128.5t-252 -47t-252 47zM702 140q71 32 107.5 87t36.5 123t-36.5 123t-107.5 87t-170 32t-170 -32t-107.5 -87t-36.5 -123t36.5 -123t107.5 -87t170 -32
t170 32zM575.5 788.5q-23.5 10.5 -51.5 30.5q-17 13 -30 19.5t-26 6.5q-14 0 -21.5 -8t-7.5 -22v-32h-110v48q0 45 27 71t75 26q33 0 56.5 -10.5t51.5 -30.5q17 -13 30 -19.5t26 -6.5q14 0 21.5 8t7.5 22v32h110v-48q0 -45 -27 -71t-75 -26q-33 0 -56.5 10.5z" />
    <glyph glyph-name="Odieresis" unicode="&#xd6;" horiz-adv-x="1064" 
d="M280 37q-104 47 -157 128.5t-53 184.5t53 184.5t157 128.5t252 47t252 -47t157 -128.5t53 -184.5t-53 -184.5t-157 -128.5t-252 -47t-252 47zM702 140q71 32 107.5 87t36.5 123t-36.5 123t-107.5 87t-170 32t-170 -32t-107.5 -87t-36.5 -123t36.5 -123t107.5 -87t170 -32
t170 32zM357 797q-23 22 -23 53t23 53t56 22t56 -22t23 -53t-23 -53t-56 -22t-56 22zM594 797q-23 22 -23 53t23 53t56 22t56 -22t23 -53t-23 -53t-56 -22t-56 22z" />
    <glyph glyph-name="multiply" unicode="&#xd7;" horiz-adv-x="624" 
d="M549 150l-80 -80l-157 157l-157 -157l-80 80l157 157l-157 157l80 80l157 -157l157 157l80 -80l-157 -157z" />
    <glyph glyph-name="Oslash" unicode="&#xd8;" horiz-adv-x="1064" 
d="M873 609q60 -48 90.5 -114.5t30.5 -144.5q0 -103 -53 -184.5t-157 -128.5t-252 -47q-156 0 -267 54l-48 -44h-124l98 91q-60 48 -90.5 114.5t-30.5 144.5q0 103 53 184.5t157 128.5t252 47q156 0 267 -54l48 44h124zM237 259.5q19 -42.5 55 -74.5l406 377q-71 30 -166 30
q-99 0 -170 -32t-107.5 -87t-36.5 -123q0 -48 19 -90.5zM702 140q71 32 107.5 87t36.5 123q0 48 -19 90.5t-55 74.5l-406 -377q71 -30 166 -30q99 0 170 32z" />
    <glyph glyph-name="Ugrave" unicode="&#xd9;" horiz-adv-x="876" 
d="M171.5 72.5q-91.5 82.5 -91.5 230.5v397h140v-392q0 -193 218 -193t218 193v392h140v-397q0 -148 -91.5 -230.5t-266.5 -82.5t-266.5 82.5zM578 768h-13l-285 52l10 118h40l258 -113z" />
    <glyph glyph-name="Uacute" unicode="&#xda;" horiz-adv-x="876" 
d="M171.5 72.5q-91.5 82.5 -91.5 230.5v397h140v-392q0 -193 218 -193t218 193v392h140v-397q0 -148 -91.5 -230.5t-266.5 -82.5t-266.5 82.5zM311 768h-13l-10 57l258 113h40l10 -118z" />
    <glyph glyph-name="Ucircumflex" unicode="&#xdb;" horiz-adv-x="876" 
d="M171.5 72.5q-91.5 82.5 -91.5 230.5v397h140v-392q0 -193 218 -193t218 193v392h140v-397q0 -148 -91.5 -230.5t-266.5 -82.5t-266.5 82.5zM334 780h-136l166 142h148l166 -142h-136l-99 85h-10z" />
    <glyph glyph-name="Udieresis" unicode="&#xdc;" horiz-adv-x="876" 
d="M171.5 72.5q-91.5 82.5 -91.5 230.5v397h140v-392q0 -193 218 -193t218 193v392h140v-397q0 -148 -91.5 -230.5t-266.5 -82.5t-266.5 82.5zM263 797q-23 22 -23 53t23 53t56 22t56 -22t23 -53t-23 -53t-56 -22t-56 22zM500 797q-23 22 -23 53t23 53t56 22t56 -22t23 -53
t-23 -53t-56 -22t-56 22z" />
    <glyph glyph-name="Yacute" unicode="&#xdd;" horiz-adv-x="820" 
d="M480 0h-140v155l-360 545h156l271 -415h6l271 415h156l-360 -545v-155zM286 768h-13l-10 57l258 113h40l10 -118z" />
    <glyph glyph-name="Thorn" unicode="&#xde;" horiz-adv-x="885" 
d="M85 0v700h140v-127h330q140 0 210 -57.5t70 -156.5t-70 -156.5t-210 -57.5h-330v-145h-140zM550 260q137 0 137 99t-137 99h-325v-198h325z" />
    <glyph glyph-name="germandbls" unicode="&#xdf;" horiz-adv-x="825" 
d="M448 2.5q-55 12.5 -85 27.5v123q33 -18 84.5 -33t107.5 -15q95 0 95 58q0 28 -28.5 47t-87.5 43q-52 21 -83 38t-53.5 43.5t-22.5 63.5q0 36 19.5 60.5t46.5 39t68 30.5q37 15 54 25.5t17 25.5q0 12 -9 19t-28 7h-215q-80 0 -80 -75v-530h-140v440h-108v80h108v25
q0 88 45 131.5t140 43.5h252q83 0 121.5 -29.5t38.5 -80.5q0 -37 -20 -62t-47.5 -40t-72.5 -33t-66 -31.5t-21 -33.5q0 -26 28.5 -42.5t88.5 -38.5q62 -23 102 -43t69 -54.5t29 -85.5q0 -43 -25.5 -78.5t-76.5 -56.5t-125 -21q-65 0 -120 12.5z" />
    <glyph glyph-name="agrave" unicode="&#xe0;" horiz-adv-x="713" 
d="M95 34.5q-55 44.5 -55 115.5q0 79 66 126t209 47q84 0 127 7t57 18.5t14 28.5q0 29 -38.5 48.5t-131.5 19.5q-75 0 -148.5 -20.5t-116.5 -46.5v122q37 23 112 41.5t163 18.5q300 0 300 -190v-370h-140v85h-3q-33 -36 -102 -65.5t-155 -29.5q-103 0 -158 44.5zM433 122.5
q56 22.5 80 50.5v106q-20 -12 -58 -20.5t-127 -10.5q-76 -1 -109.5 -22t-33.5 -54q0 -31 29.5 -51.5t88.5 -20.5q74 0 130 22.5zM514 618h-13l-285 52l10 118h40l258 -113z" />
    <glyph glyph-name="aacute" unicode="&#xe1;" horiz-adv-x="713" 
d="M95 34.5q-55 44.5 -55 115.5q0 79 66 126t209 47q84 0 127 7t57 18.5t14 28.5q0 29 -38.5 48.5t-131.5 19.5q-75 0 -148.5 -20.5t-116.5 -46.5v122q37 23 112 41.5t163 18.5q300 0 300 -190v-370h-140v85h-3q-33 -36 -102 -65.5t-155 -29.5q-103 0 -158 44.5zM433 122.5
q56 22.5 80 50.5v106q-20 -12 -58 -20.5t-127 -10.5q-76 -1 -109.5 -22t-33.5 -54q0 -31 29.5 -51.5t88.5 -20.5q74 0 130 22.5zM243 618h-13l-10 57l258 113h40l10 -118z" />
    <glyph glyph-name="acircumflex" unicode="&#xe2;" horiz-adv-x="713" 
d="M95 34.5q-55 44.5 -55 115.5q0 79 66 126t209 47q84 0 127 7t57 18.5t14 28.5q0 29 -38.5 48.5t-131.5 19.5q-75 0 -148.5 -20.5t-116.5 -46.5v122q37 23 112 41.5t163 18.5q300 0 300 -190v-370h-140v85h-3q-33 -36 -102 -65.5t-155 -29.5q-103 0 -158 44.5zM433 122.5
q56 22.5 80 50.5v106q-20 -12 -58 -20.5t-127 -10.5q-76 -1 -109.5 -22t-33.5 -54q0 -31 29.5 -51.5t88.5 -20.5q74 0 130 22.5zM251 630h-136l166 142h148l166 -142h-136l-99 85h-10z" />
    <glyph glyph-name="atilde" unicode="&#xe3;" horiz-adv-x="713" 
d="M95 34.5q-55 44.5 -55 115.5q0 79 66 126t209 47q84 0 127 7t57 18.5t14 28.5q0 29 -38.5 48.5t-131.5 19.5q-75 0 -148.5 -20.5t-116.5 -46.5v122q37 23 112 41.5t163 18.5q300 0 300 -190v-370h-140v85h-3q-33 -36 -102 -65.5t-155 -29.5q-103 0 -158 44.5zM433 122.5
q56 22.5 80 50.5v106q-20 -12 -58 -20.5t-127 -10.5q-76 -1 -109.5 -22t-33.5 -54q0 -31 29.5 -51.5t88.5 -20.5q74 0 130 22.5zM398.5 638.5q-23.5 10.5 -51.5 30.5q-17 13 -30 19.5t-26 6.5q-14 0 -21.5 -8t-7.5 -22v-32h-110v48q0 45 27 71t75 26q33 0 56.5 -10.5
t51.5 -30.5q17 -13 30 -19.5t26 -6.5q14 0 21.5 8t7.5 22v32h110v-48q0 -45 -27 -71t-75 -26q-33 0 -56.5 10.5z" />
    <glyph glyph-name="adieresis" unicode="&#xe4;" horiz-adv-x="713" 
d="M95 34.5q-55 44.5 -55 115.5q0 79 66 126t209 47q84 0 127 7t57 18.5t14 28.5q0 29 -38.5 48.5t-131.5 19.5q-75 0 -148.5 -20.5t-116.5 -46.5v122q37 23 112 41.5t163 18.5q300 0 300 -190v-370h-140v85h-3q-33 -36 -102 -65.5t-155 -29.5q-103 0 -158 44.5zM433 122.5
q56 22.5 80 50.5v106q-20 -12 -58 -20.5t-127 -10.5q-76 -1 -109.5 -22t-33.5 -54q0 -31 29.5 -51.5t88.5 -20.5q74 0 130 22.5zM180 647q-23 22 -23 53t23 53t56 22t56 -22t23 -53t-23 -53t-56 -22t-56 22zM417 647q-23 22 -23 53t23 53t56 22t56 -22t23 -53t-23 -53
t-56 -22t-56 22z" />
    <glyph glyph-name="aring" unicode="&#xe5;" horiz-adv-x="713" 
d="M95 34.5q-55 44.5 -55 115.5q0 79 66 126t209 47q84 0 127 7t57 18.5t14 28.5q0 29 -38.5 48.5t-131.5 19.5q-75 0 -148.5 -20.5t-116.5 -46.5v122q37 23 112 41.5t163 18.5q300 0 300 -190v-370h-140v85h-3q-33 -36 -102 -65.5t-155 -29.5q-103 0 -158 44.5zM433 122.5
q56 22.5 80 50.5v106q-20 -12 -58 -20.5t-127 -10.5q-76 -1 -109.5 -22t-33.5 -54q0 -31 29.5 -51.5t88.5 -20.5q74 0 130 22.5zM253.5 629.5q-35.5 29.5 -35.5 75.5t35.5 75.5t101.5 29.5t101.5 -29.5t35.5 -75.5t-35.5 -75.5t-101.5 -29.5t-101.5 29.5zM397.5 677
q14.5 11 14.5 28t-14.5 28t-42.5 11t-42.5 -11t-14.5 -28t14.5 -28t42.5 -11t42.5 11z" />
    <glyph glyph-name="ae" unicode="&#xe6;" horiz-adv-x="1145" 
d="M1095 241h-458q13 -65 62.5 -100.5t135.5 -35.5q64 0 121 19.5t89 43.5v-121q-32 -22 -92.5 -39.5t-129.5 -17.5q-86 0 -155.5 30.5t-113.5 83.5h-10q-119 -114 -271 -114q-114 0 -173.5 46.5t-59.5 118.5q0 77 61.5 121.5t193.5 44.5h198v25q0 33 -12.5 54t-47 33
t-98.5 12q-73 0 -144 -19t-113 -43v124q43 19 113 36t154 17q68 0 118.5 -13.5t80 -34.5t38.5 -42h6q25 35 82.5 62.5t134.5 27.5q84 0 150 -36.5t103 -101.5t37 -147v-34zM951 321q-6 57 -47 96.5t-109 39.5q-62 0 -105.5 -37.5t-53.5 -98.5h315zM424 124q54 24 87 54
q-11 28 -16 63h-194q-59 0 -87.5 -20t-28.5 -51q0 -29 30.5 -49.5t90.5 -20.5q64 0 118 24z" />
    <glyph glyph-name="ccedilla" unicode="&#xe7;" horiz-adv-x="682" 
d="M250 402q-55 -48 -55 -127t53.5 -127t149.5 -48q67 0 127.5 19t96.5 44v-118q-33 -19 -89 -35.5t-121 -19.5l-14 -46h25q51 0 79.5 -25.5t28.5 -69.5q0 -46 -37.5 -74t-101.5 -28q-57 0 -109 15v77q50 -14 95 -14q53 0 53 28q0 26 -41 26h-77l-20 21l29 95
q-84 12 -145.5 51.5t-94 98.5t-32.5 130q0 80 42 145t121.5 102.5t187.5 37.5q73 0 136 -18.5t105 -42.5v-118q-43 29 -104 49t-130 20q-103 0 -158 -48z" />
    <glyph glyph-name="egrave" unicode="&#xe8;" horiz-adv-x="732" 
d="M212 28q-79 38 -120.5 102.5t-41.5 144.5t39.5 145t112.5 102.5t168 37.5q93 0 164 -37t109.5 -102t38.5 -146v-34h-491q13 -61 71 -98.5t153 -37.5q65 0 125 20t92 44v-121q-33 -22 -96 -40t-136 -18q-109 0 -188 38zM539 321q-8 56 -51 96t-116 40t-122 -38t-59 -98
h348zM520 618h-13l-285 52l10 118h40l258 -113z" />
    <glyph glyph-name="eacute" unicode="&#xe9;" horiz-adv-x="732" 
d="M212 28q-79 38 -120.5 102.5t-41.5 144.5t39.5 145t112.5 102.5t168 37.5q93 0 164 -37t109.5 -102t38.5 -146v-34h-491q13 -61 71 -98.5t153 -37.5q65 0 125 20t92 44v-121q-33 -22 -96 -40t-136 -18q-109 0 -188 38zM539 321q-8 56 -51 96t-116 40t-122 -38t-59 -98
h348zM223 618h-13l-10 57l258 113h40l10 -118z" />
    <glyph glyph-name="ecircumflex" unicode="&#xea;" horiz-adv-x="732" 
d="M212 28q-79 38 -120.5 102.5t-41.5 144.5t39.5 145t112.5 102.5t168 37.5q93 0 164 -37t109.5 -102t38.5 -146v-34h-491q13 -61 71 -98.5t153 -37.5q65 0 125 20t92 44v-121q-33 -22 -96 -40t-136 -18q-109 0 -188 38zM539 321q-8 56 -51 96t-116 40t-122 -38t-59 -98
h348zM261 630h-136l166 142h148l166 -142h-136l-99 85h-10z" />
    <glyph glyph-name="edieresis" unicode="&#xeb;" horiz-adv-x="732" 
d="M212 28q-79 38 -120.5 102.5t-41.5 144.5t39.5 145t112.5 102.5t168 37.5q93 0 164 -37t109.5 -102t38.5 -146v-34h-491q13 -61 71 -98.5t153 -37.5q65 0 125 20t92 44v-121q-33 -22 -96 -40t-136 -18q-109 0 -188 38zM539 321q-8 56 -51 96t-116 40t-122 -38t-59 -98
h348zM190 647q-23 22 -23 53t23 53t56 22t56 -22t23 -53t-23 -53t-56 -22t-56 22zM427 647q-23 22 -23 53t23 53t56 22t56 -22t23 -53t-23 -53t-56 -22t-56 22z" />
    <glyph glyph-name="igrave" unicode="&#xec;" horiz-adv-x="270" 
d="M205 0h-140v550h140v-550zM248 623h-13l-285 52l10 118h40l258 -113z" />
    <glyph glyph-name="iacute" unicode="&#xed;" horiz-adv-x="270" 
d="M205 0h-140v550h140v-550zM35 623h-13l-10 57l258 113h40l10 -118z" />
    <glyph glyph-name="icircumflex" unicode="&#xee;" horiz-adv-x="270" 
d="M205 0h-140v550h140v-550zM31 630h-136l166 142h148l166 -142h-136l-99 85h-10z" />
    <glyph glyph-name="idieresis" unicode="&#xef;" horiz-adv-x="270" 
d="M205 0h-140v550h140v-550zM-40 647q-23 22 -23 53t23 53t56 22t56 -22t23 -53t-23 -53t-56 -22t-56 22zM197 647q-23 22 -23 53t23 53t56 22t56 -22t23 -53t-23 -53t-56 -22t-56 22z" />
    <glyph glyph-name="eth" unicode="&#xf0;" horiz-adv-x="805" 
d="M400 673q181 -22 265.5 -105t84.5 -248q0 -167 -88 -248.5t-277 -81.5q-116 0 -193.5 30.5t-114.5 82.5t-37 118q0 63 34.5 114t104.5 80.5t171 29.5q83 0 138.5 -15.5t83 -34.5t36.5 -34l6 1q0 81 -56 130t-186 65l-75 9l-16 -65l-85 10l16 66l-99 12l27 116l102 -12
l15 61l85 -10l-16 -62zM549 140.5q51 35.5 51 91.5q0 57 -50.5 92.5t-156.5 35.5t-157 -35.5t-51 -92.5q0 -56 51 -91.5t157 -35.5q105 0 156 35.5z" />
    <glyph glyph-name="ntilde" unicode="&#xf1;" horiz-adv-x="722" 
d="M65 0v550h140v-87h6q24 37 80 67t131 30q116 0 178 -58.5t62 -161.5v-340h-140v323q0 60 -37 94.5t-105 34.5q-65 0 -111.5 -30t-63.5 -66v-356h-140zM415.5 638.5q-23.5 10.5 -51.5 30.5q-17 13 -30 19.5t-26 6.5q-14 0 -21.5 -8t-7.5 -22v-32h-110v48q0 45 27 71t75 26
q33 0 56.5 -10.5t51.5 -30.5q17 -13 30 -19.5t26 -6.5q14 0 21.5 8t7.5 22v32h110v-48q0 -45 -27 -71t-75 -26q-33 0 -56.5 10.5z" />
    <glyph glyph-name="ograve" unicode="&#xf2;" horiz-adv-x="804" 
d="M212.5 27.5q-79.5 37.5 -121 102.5t-41.5 145t41.5 145t121 102.5t189.5 37.5t189.5 -37.5t121 -102.5t41.5 -145t-41.5 -145t-121 -102.5t-189.5 -37.5t-189.5 37.5zM554.5 148q54.5 48 54.5 127t-54.5 127t-152.5 48t-152.5 -48t-54.5 -127t54.5 -127t152.5 -48
t152.5 48zM557 618h-13l-285 52l10 118h40l258 -113z" />
    <glyph glyph-name="oacute" unicode="&#xf3;" horiz-adv-x="804" 
d="M212.5 27.5q-79.5 37.5 -121 102.5t-41.5 145t41.5 145t121 102.5t189.5 37.5t189.5 -37.5t121 -102.5t41.5 -145t-41.5 -145t-121 -102.5t-189.5 -37.5t-189.5 37.5zM554.5 148q54.5 48 54.5 127t-54.5 127t-152.5 48t-152.5 -48t-54.5 -127t54.5 -127t152.5 -48
t152.5 48zM260 618h-13l-10 57l258 113h40l10 -118z" />
    <glyph glyph-name="ocircumflex" unicode="&#xf4;" horiz-adv-x="804" 
d="M212.5 27.5q-79.5 37.5 -121 102.5t-41.5 145t41.5 145t121 102.5t189.5 37.5t189.5 -37.5t121 -102.5t41.5 -145t-41.5 -145t-121 -102.5t-189.5 -37.5t-189.5 37.5zM554.5 148q54.5 48 54.5 127t-54.5 127t-152.5 48t-152.5 -48t-54.5 -127t54.5 -127t152.5 -48
t152.5 48zM298 630h-136l166 142h148l166 -142h-136l-99 85h-10z" />
    <glyph glyph-name="otilde" unicode="&#xf5;" horiz-adv-x="804" 
d="M212.5 27.5q-79.5 37.5 -121 102.5t-41.5 145t41.5 145t121 102.5t189.5 37.5t189.5 -37.5t121 -102.5t41.5 -145t-41.5 -145t-121 -102.5t-189.5 -37.5t-189.5 37.5zM554.5 148q54.5 48 54.5 127t-54.5 127t-152.5 48t-152.5 -48t-54.5 -127t54.5 -127t152.5 -48
t152.5 48zM445.5 638.5q-23.5 10.5 -51.5 30.5q-17 13 -30 19.5t-26 6.5q-14 0 -21.5 -8t-7.5 -22v-32h-110v48q0 45 27 71t75 26q33 0 56.5 -10.5t51.5 -30.5q17 -13 30 -19.5t26 -6.5q14 0 21.5 8t7.5 22v32h110v-48q0 -45 -27 -71t-75 -26q-33 0 -56.5 10.5z" />
    <glyph glyph-name="odieresis" unicode="&#xf6;" horiz-adv-x="804" 
d="M212.5 27.5q-79.5 37.5 -121 102.5t-41.5 145t41.5 145t121 102.5t189.5 37.5t189.5 -37.5t121 -102.5t41.5 -145t-41.5 -145t-121 -102.5t-189.5 -37.5t-189.5 37.5zM554.5 148q54.5 48 54.5 127t-54.5 127t-152.5 48t-152.5 -48t-54.5 -127t54.5 -127t152.5 -48
t152.5 48zM227 647q-23 22 -23 53t23 53t56 22t56 -22t23 -53t-23 -53t-56 -22t-56 22zM464 647q-23 22 -23 53t23 53t56 22t56 -22t23 -53t-23 -53t-56 -22t-56 22z" />
    <glyph glyph-name="divide" unicode="&#xf7;" horiz-adv-x="624" 
d="M253 461.5q-23 21.5 -23 53.5t23 53.5t59 21.5t59 -21.5t23 -53.5t-23 -53.5t-59 -21.5t-59 21.5zM564 254h-504v110h504v-110zM253 49.5q-23 21.5 -23 53.5t23 53.5t59 21.5t59 -21.5t23 -53.5t-23 -53.5t-59 -21.5t-59 21.5z" />
    <glyph glyph-name="oslash" unicode="&#xf8;" horiz-adv-x="804" 
d="M652 486q50 -39 76 -93.5t26 -117.5q0 -80 -41.5 -145t-121 -102.5t-189.5 -37.5q-117 0 -202 44l-34 -34h-89l69 69q-47 39 -71.5 92t-24.5 114q0 80 41.5 145t121 102.5t189.5 37.5q111 0 196 -40l40 40h89zM237 160l271 270q-45 20 -106 20q-98 0 -152.5 -48
t-54.5 -127q0 -70 42 -115zM554.5 148q54.5 48 54.5 127q0 75 -47 120l-273 -272q48 -23 113 -23q98 0 152.5 48z" />
    <glyph glyph-name="ugrave" unicode="&#xf9;" horiz-adv-x="722" 
d="M122.5 48.5q-62.5 58.5 -62.5 161.5v340h140v-322q0 -61 37 -95.5t105 -34.5q64 0 110.5 29.5t64.5 66.5v356h140v-550h-140v87h-6q-24 -37 -80 -67t-129 -30q-117 0 -179.5 58.5zM503 618h-13l-285 52l10 118h40l258 -113z" />
    <glyph glyph-name="uacute" unicode="&#xfa;" horiz-adv-x="722" 
d="M122.5 48.5q-62.5 58.5 -62.5 161.5v340h140v-322q0 -61 37 -95.5t105 -34.5q64 0 110.5 29.5t64.5 66.5v356h140v-550h-140v87h-6q-24 -37 -80 -67t-129 -30q-117 0 -179.5 58.5zM228 618h-13l-10 57l258 113h40l10 -118z" />
    <glyph glyph-name="ucircumflex" unicode="&#xfb;" horiz-adv-x="722" 
d="M122.5 48.5q-62.5 58.5 -62.5 161.5v340h140v-322q0 -61 37 -95.5t105 -34.5q64 0 110.5 29.5t64.5 66.5v356h140v-550h-140v87h-6q-24 -37 -80 -67t-129 -30q-117 0 -179.5 58.5zM255 630h-136l166 142h148l166 -142h-136l-99 85h-10z" />
    <glyph glyph-name="udieresis" unicode="&#xfc;" horiz-adv-x="722" 
d="M122.5 48.5q-62.5 58.5 -62.5 161.5v340h140v-322q0 -61 37 -95.5t105 -34.5q64 0 110.5 29.5t64.5 66.5v356h140v-550h-140v87h-6q-24 -37 -80 -67t-129 -30q-117 0 -179.5 58.5zM184 647q-23 22 -23 53t23 53t56 22t56 -22t23 -53t-23 -53t-56 -22t-56 22zM421 647
q-23 22 -23 53t23 53t56 22t56 -22t23 -53t-23 -53t-56 -22t-56 22z" />
    <glyph glyph-name="yacute" unicode="&#xfd;" horiz-adv-x="653" 
d="M298 -190h-143l118 242l-278 498h153l190 -350h5l170 350h145zM204 618h-13l-10 57l258 113h40l10 -118z" />
    <glyph glyph-name="thorn" unicode="&#xfe;" horiz-adv-x="782" 
d="M65 -190v910h140v-242h6q28 31 87 56.5t132 25.5q89 0 157.5 -37t106.5 -101.5t38 -146.5t-38 -146.5t-106.5 -101.5t-157.5 -37q-73 0 -132 25.5t-87 56.5h-6v-262h-140zM494.5 122.5q44.5 22.5 68.5 62t24 90.5t-24 90.5t-68.5 62t-104.5 22.5q-66 0 -115.5 -23
t-69.5 -51v-201q21 -29 70.5 -52t114.5 -23q60 0 104.5 22.5z" />
    <glyph glyph-name="ydieresis" unicode="&#xff;" horiz-adv-x="653" 
d="M298 -190h-143l118 242l-278 498h153l190 -350h5l170 350h145zM153 647q-23 22 -23 53t23 53t56 22t56 -22t23 -53t-23 -53t-56 -22t-56 22zM390 647q-23 22 -23 53t23 53t56 22t56 -22t23 -53t-23 -53t-56 -22t-56 22z" />
    <glyph glyph-name="Amacron" unicode="&#x100;" horiz-adv-x="878" 
d="M878 0h-152l-83 168h-408l-83 -168h-152l351 700h176zM436 572l-151 -304h308l-151 304h-6zM636 800h-394v100h394v-100z" />
    <glyph glyph-name="amacron" unicode="&#x101;" horiz-adv-x="713" 
d="M95 34.5q-55 44.5 -55 115.5q0 79 66 126t209 47q84 0 127 7t57 18.5t14 28.5q0 29 -38.5 48.5t-131.5 19.5q-75 0 -148.5 -20.5t-116.5 -46.5v122q37 23 112 41.5t163 18.5q300 0 300 -190v-370h-140v85h-3q-33 -36 -102 -65.5t-155 -29.5q-103 0 -158 44.5zM433 122.5
q56 22.5 80 50.5v106q-20 -12 -58 -20.5t-127 -10.5q-76 -1 -109.5 -22t-33.5 -54q0 -31 29.5 -51.5t88.5 -20.5q74 0 130 22.5zM552 650h-394v100h394v-100z" />
    <glyph glyph-name="Abreve" unicode="&#x102;" horiz-adv-x="878" 
d="M878 0h-152l-83 168h-408l-83 -168h-152l351 700h176zM436 572l-151 -304h308l-151 304h-6zM289.5 819.5q-49.5 39.5 -49.5 105.5h110q1 -31 22 -47t67 -16t67 16t22 47h110q0 -66 -49.5 -105.5t-149.5 -39.5t-149.5 39.5z" />
    <glyph glyph-name="abreve" unicode="&#x103;" horiz-adv-x="713" 
d="M95 34.5q-55 44.5 -55 115.5q0 79 66 126t209 47q84 0 127 7t57 18.5t14 28.5q0 29 -38.5 48.5t-131.5 19.5q-75 0 -148.5 -20.5t-116.5 -46.5v122q37 23 112 41.5t163 18.5q300 0 300 -190v-370h-140v85h-3q-33 -36 -102 -65.5t-155 -29.5q-103 0 -158 44.5zM433 122.5
q56 22.5 80 50.5v106q-20 -12 -58 -20.5t-127 -10.5q-76 -1 -109.5 -22t-33.5 -54q0 -31 29.5 -51.5t88.5 -20.5q74 0 130 22.5zM205.5 669.5q-49.5 39.5 -49.5 105.5h110q1 -31 22 -47t67 -16t67 16t22 47h110q0 -66 -49.5 -105.5t-149.5 -39.5t-149.5 39.5z" />
    <glyph glyph-name="Aogonek" unicode="&#x104;" horiz-adv-x="878" 
d="M774 -135q38 0 73 8v-87q-50 -9 -102 -9q-61 0 -95.5 23t-34.5 70q0 74 111 130l-83 168h-408l-83 -168h-152l351 700h176l351 -700h-36q-115 -58 -115 -104q0 -31 47 -31zM436 572l-151 -304h308l-151 304h-6z" />
    <glyph glyph-name="aogonek" unicode="&#x105;" horiz-adv-x="713" 
d="M658 -127v-87q-50 -9 -100 -9q-62 0 -97 22t-35 66q0 36 31 70t81 60v5h-25v85h-3q-33 -36 -102 -65.5t-155 -29.5q-103 0 -158 44.5t-55 115.5q0 79 66 126t209 47q84 0 127 7t57 18.5t14 28.5q0 29 -38.5 48.5t-131.5 19.5q-75 0 -148.5 -20.5t-116.5 -46.5v122
q37 23 112 41.5t163 18.5q300 0 300 -190v-370q-115 -58 -115 -104q0 -31 47 -31q38 0 73 8zM513 279q-20 -12 -58 -20.5t-127 -10.5q-76 -1 -109.5 -22t-33.5 -54q0 -31 29.5 -51.5t88.5 -20.5q74 0 130 22.5t80 50.5v106z" />
    <glyph glyph-name="Cacute" unicode="&#x106;" horiz-adv-x="887" 
d="M272.5 37q-98.5 47 -150.5 129t-52 184q0 103 53 184.5t156 128.5t248 47q93 0 173 -23t122 -51v-133q-40 34 -119 61.5t-171 27.5q-99 0 -170 -32t-107.5 -87t-36.5 -123q0 -67 35.5 -122.5t103 -87.5t158.5 -32q88 0 163 23t114 51v-130q-40 -23 -117 -42.5t-168 -19.5
q-136 0 -234.5 47zM353 768h-13l-10 57l258 113h40l10 -118z" />
    <glyph glyph-name="cacute" unicode="&#x107;" horiz-adv-x="682" 
d="M209 27.5q-77 37.5 -118 102.5t-41 145t42 145t121.5 102.5t187.5 37.5q73 0 136 -18.5t105 -42.5v-118q-43 29 -104 49t-130 20q-103 0 -158 -48t-55 -127t53.5 -127t149.5 -48q67 0 127.5 19t96.5 44v-118q-37 -21 -99 -38t-133 -17q-104 0 -181 37.5zM236 618h-13
l-10 57l258 113h40l10 -118z" />
    <glyph glyph-name="Ccircumflex" unicode="&#x108;" horiz-adv-x="887" 
d="M272.5 37q-98.5 47 -150.5 129t-52 184q0 103 53 184.5t156 128.5t248 47q93 0 173 -23t122 -51v-133q-40 34 -119 61.5t-171 27.5q-99 0 -170 -32t-107.5 -87t-36.5 -123q0 -67 35.5 -122.5t103 -87.5t158.5 -32q88 0 163 23t114 51v-130q-40 -23 -117 -42.5t-168 -19.5
q-136 0 -234.5 47zM391 780h-136l166 142h148l166 -142h-136l-99 85h-10z" />
    <glyph glyph-name="ccircumflex" unicode="&#x109;" horiz-adv-x="682" 
d="M209 27.5q-77 37.5 -118 102.5t-41 145t42 145t121.5 102.5t187.5 37.5q73 0 136 -18.5t105 -42.5v-118q-43 29 -104 49t-130 20q-103 0 -158 -48t-55 -127t53.5 -127t149.5 -48q67 0 127.5 19t96.5 44v-118q-37 -21 -99 -38t-133 -17q-104 0 -181 37.5zM274 630h-136
l166 142h148l166 -142h-136l-99 85h-10z" />
    <glyph glyph-name="Cdotaccent" unicode="&#x10a;" horiz-adv-x="887" 
d="M272.5 37q-98.5 47 -150.5 129t-52 184q0 103 53 184.5t156 128.5t248 47q93 0 173 -23t122 -51v-133q-40 34 -119 61.5t-171 27.5q-99 0 -170 -32t-107.5 -87t-36.5 -123q0 -67 35.5 -122.5t103 -87.5t158.5 -32q88 0 163 23t114 51v-130q-40 -23 -117 -42.5t-168 -19.5
q-136 0 -234.5 47zM432 795q-25 23 -25 57t25 57t63 23t63 -23t25 -57t-25 -57t-63 -23t-63 23z" />
    <glyph glyph-name="cdotaccent" unicode="&#x10b;" horiz-adv-x="682" 
d="M209 27.5q-77 37.5 -118 102.5t-41 145t42 145t121.5 102.5t187.5 37.5q73 0 136 -18.5t105 -42.5v-118q-43 29 -104 49t-130 20q-103 0 -158 -48t-55 -127t53.5 -127t149.5 -48q67 0 127.5 19t96.5 44v-118q-37 -21 -99 -38t-133 -17q-104 0 -181 37.5zM315 645
q-25 23 -25 57t25 57t63 23t63 -23t25 -57t-25 -57t-63 -23t-63 23z" />
    <glyph glyph-name="Ccaron" unicode="&#x10c;" horiz-adv-x="887" 
d="M272.5 37q-98.5 47 -150.5 129t-52 184q0 103 53 184.5t156 128.5t248 47q93 0 173 -23t122 -51v-133q-40 34 -119 61.5t-171 27.5q-99 0 -170 -32t-107.5 -87t-36.5 -123q0 -67 35.5 -122.5t103 -87.5t158.5 -32q88 0 163 23t114 51v-130q-40 -23 -117 -42.5t-168 -19.5
q-136 0 -234.5 47zM569 780h-148l-166 142h136l99 -85h10l99 85h136z" />
    <glyph glyph-name="ccaron" unicode="&#x10d;" horiz-adv-x="682" 
d="M209 27.5q-77 37.5 -118 102.5t-41 145t42 145t121.5 102.5t187.5 37.5q73 0 136 -18.5t105 -42.5v-118q-43 29 -104 49t-130 20q-103 0 -158 -48t-55 -127t53.5 -127t149.5 -48q67 0 127.5 19t96.5 44v-118q-37 -21 -99 -38t-133 -17q-104 0 -181 37.5zM452 630h-148
l-166 142h136l99 -85h10l99 85h136z" />
    <glyph glyph-name="Dcaron" unicode="&#x10e;" horiz-adv-x="937" 
d="M85 0v700h330q149 0 250.5 -44t151.5 -123t50 -183t-50 -183t-151.5 -123t-250.5 -44h-330zM415 120q151 0 227.5 62t76.5 168t-76.5 168t-227.5 62h-190v-460h190zM534 780h-148l-166 142h136l99 -85h10l99 85h136z" />
    <glyph glyph-name="dcaron" unicode="&#x10f;" horiz-adv-x="881" 
d="M767 711q19 19 49 19q36 0 58 -25t22 -80q0 -87 -35.5 -131t-94.5 -44h-13v90h18q39 0 59.5 19t20.5 54h-5q-4 -6 -14 -11.5t-24 -5.5q-27 0 -43.5 18t-16.5 48t19 49zM194.5 27q-68.5 37 -106.5 101.5t-38 146.5t38 146.5t106.5 101.5t157.5 37q72 0 131.5 -25.5
t87.5 -56.5h6v242h140v-5v-57v-658h-140v72h-6q-28 -31 -87.5 -56.5t-131.5 -25.5q-89 0 -157.5 37zM506 123.5q49 23.5 71 51.5v200q-22 28 -71 51.5t-109 23.5q-94 0 -148 -48.5t-54 -126.5t54 -126.5t148 -48.5q60 0 109 23.5z" />
    <glyph glyph-name="Dcroat" unicode="&#x110;" horiz-adv-x="952" 
d="M430 700q149 0 250.5 -44t151.5 -123t50 -183t-50 -183t-151.5 -123t-250.5 -44h-330v290h-70v100h70v310h330zM430 120q151 0 227.5 62t76.5 168t-76.5 168t-227.5 62h-190v-190h237v-100h-237v-170h190z" />
    <glyph glyph-name="dcroat" unicode="&#x111;" horiz-adv-x="798" 
d="M798 608v-80h-100v-528h-140v74h-6q-30 -32 -93.5 -58t-140.5 -26q-89 0 -153 30t-97 82t-33 117q0 64 33.5 116t98.5 82.5t154 30.5q77 0 139.5 -23t91.5 -51h6v154h-215v80h215v112h140v-112h100zM558 281q-28 22 -84 39.5t-121 17.5q-87 0 -130 -33t-43 -86t43 -86
t130 -33q65 0 121 20.5t84 46.5v114z" />
    <glyph glyph-name="Emacron" unicode="&#x112;" horiz-adv-x="752" 
d="M225 303v-183h472v-120h-612v700h592v-120h-452v-177h412v-100h-412zM578 800h-394v100h394v-100z" />
    <glyph glyph-name="emacron" unicode="&#x113;" horiz-adv-x="732" 
d="M212 28q-79 38 -120.5 102.5t-41.5 144.5t39.5 145t112.5 102.5t168 37.5q93 0 164 -37t109.5 -102t38.5 -146v-34h-491q13 -61 71 -98.5t153 -37.5q65 0 125 20t92 44v-121q-33 -22 -96 -40t-136 -18q-109 0 -188 38zM539 321q-8 56 -51 96t-116 40t-122 -38t-59 -98
h348zM562 650h-394v100h394v-100z" />
    <glyph glyph-name="Ebreve" unicode="&#x114;" horiz-adv-x="752" 
d="M225 303v-183h472v-120h-612v700h592v-120h-452v-177h412v-100h-412zM231.5 819.5q-49.5 39.5 -49.5 105.5h110q1 -31 22 -47t67 -16t67 16t22 47h110q0 -66 -49.5 -105.5t-149.5 -39.5t-149.5 39.5z" />
    <glyph glyph-name="ebreve" unicode="&#x115;" horiz-adv-x="732" 
d="M212 28q-79 38 -120.5 102.5t-41.5 144.5t39.5 145t112.5 102.5t168 37.5q93 0 164 -37t109.5 -102t38.5 -146v-34h-491q13 -61 71 -98.5t153 -37.5q65 0 125 20t92 44v-121q-33 -22 -96 -40t-136 -18q-109 0 -188 38zM539 321q-8 56 -51 96t-116 40t-122 -38t-59 -98
h348zM215.5 669.5q-49.5 39.5 -49.5 105.5h110q1 -31 22 -47t67 -16t67 16t22 47h110q0 -66 -49.5 -105.5t-149.5 -39.5t-149.5 39.5z" />
    <glyph glyph-name="Edotaccent" unicode="&#x116;" horiz-adv-x="752" 
d="M225 303v-183h472v-120h-612v700h592v-120h-452v-177h412v-100h-412zM318 795q-25 23 -25 57t25 57t63 23t63 -23t25 -57t-25 -57t-63 -23t-63 23z" />
    <glyph glyph-name="edotaccent" unicode="&#x117;" horiz-adv-x="732" 
d="M212 28q-79 38 -120.5 102.5t-41.5 144.5t39.5 145t112.5 102.5t168 37.5q93 0 164 -37t109.5 -102t38.5 -146v-34h-491q13 -61 71 -98.5t153 -37.5q65 0 125 20t92 44v-121q-33 -22 -96 -40t-136 -18q-109 0 -188 38zM539 321q-8 56 -51 96t-116 40t-122 -38t-59 -98
h348zM302 645q-25 23 -25 57t25 57t63 23t63 -23t25 -57t-25 -57t-63 -23t-63 23z" />
    <glyph glyph-name="Eogonek" unicode="&#x118;" horiz-adv-x="752" 
d="M702 -127v-87q-50 -9 -100 -9q-62 0 -97 22t-35 66q0 36 31 70t81 60v5h-497v700h592v-120h-452v-177h412v-100h-412v-183h472v-120q-115 -58 -115 -104q0 -31 47 -31q38 0 73 8z" />
    <glyph glyph-name="eogonek" unicode="&#x119;" horiz-adv-x="732" 
d="M300 -201q-35 22 -35 66q0 35 27.5 66.5t68.5 54.5v5q-97 7 -167.5 46t-107 101t-36.5 137q0 80 39.5 145t112.5 102.5t168 37.5q93 0 164 -37t109.5 -102t38.5 -146v-34h-491q13 -61 71 -98.5t153 -37.5q65 0 125 20t92 44v-121q-26 -15 -66.5 -30t-81.5 -24
q-47 -10 -77 -39t-30 -59q0 -31 47 -31q38 0 73 8v-87q-50 -9 -100 -9q-62 0 -97 22zM539 321q-8 56 -51 96t-116 40t-122 -38t-59 -98h348z" />
    <glyph glyph-name="Ecaron" unicode="&#x11a;" horiz-adv-x="752" 
d="M225 303v-183h472v-120h-612v700h592v-120h-452v-177h412v-100h-412zM455 780h-148l-166 142h136l99 -85h10l99 85h136z" />
    <glyph glyph-name="ecaron" unicode="&#x11b;" horiz-adv-x="732" 
d="M212 28q-79 38 -120.5 102.5t-41.5 144.5t39.5 145t112.5 102.5t168 37.5q93 0 164 -37t109.5 -102t38.5 -146v-34h-491q13 -61 71 -98.5t153 -37.5q65 0 125 20t92 44v-121q-33 -22 -96 -40t-136 -18q-109 0 -188 38zM539 321q-8 56 -51 96t-116 40t-122 -38t-59 -98
h348zM439 630h-148l-166 142h136l99 -85h10l99 85h136z" />
    <glyph glyph-name="Gcircumflex" unicode="&#x11c;" horiz-adv-x="952" 
d="M279.5 37q-103.5 47 -156.5 128.5t-53 184.5t53.5 184.5t160.5 128.5t261 47q103 0 192.5 -22t144.5 -50v-130q-51 33 -139 58.5t-191 25.5q-108 0 -183.5 -32t-113 -87t-37.5 -123q0 -67 37 -122t109 -87.5t173 -32.5q63 0 126.5 15.5t103.5 35.5v91h-295v105h405v-274
q-56 -35 -151 -63t-196 -28q-147 0 -250.5 47zM398 780h-136l166 142h148l166 -142h-136l-99 85h-10z" />
    <glyph glyph-name="gcircumflex" unicode="&#x11d;" horiz-adv-x="777" 
d="M218.5 -182q-70.5 18 -108.5 40v123q38 -25 104 -45.5t138 -20.5q109 0 164.5 47t55.5 128v16h-6q-27 -31 -86.5 -56t-132.5 -25q-89 0 -156.5 35t-104 96t-36.5 136q0 76 36.5 137t104 96t156.5 35q73 0 132 -25.5t87 -56.5h6v72h140v-460q0 -86 -39.5 -151.5t-117 -102
t-188.5 -36.5q-78 0 -148.5 18zM497 158q50 23 75 51v166q-25 29 -75.5 52t-111.5 23q-92 0 -141 -42.5t-49 -115.5q0 -72 49 -114.5t141 -42.5q62 0 112 23zM271 630h-136l166 142h148l166 -142h-136l-99 85h-10z" />
    <glyph glyph-name="Gbreve" unicode="&#x11e;" horiz-adv-x="952" 
d="M279.5 37q-103.5 47 -156.5 128.5t-53 184.5t53.5 184.5t160.5 128.5t261 47q103 0 192.5 -22t144.5 -50v-130q-51 33 -139 58.5t-191 25.5q-108 0 -183.5 -32t-113 -87t-37.5 -123q0 -67 37 -122t109 -87.5t173 -32.5q63 0 126.5 15.5t103.5 35.5v91h-295v105h405v-274
q-56 -35 -151 -63t-196 -28q-147 0 -250.5 47zM352.5 819.5q-49.5 39.5 -49.5 105.5h110q1 -31 22 -47t67 -16t67 16t22 47h110q0 -66 -49.5 -105.5t-149.5 -39.5t-149.5 39.5z" />
    <glyph glyph-name="gbreve" unicode="&#x11f;" horiz-adv-x="777" 
d="M218.5 -182q-70.5 18 -108.5 40v123q38 -25 104 -45.5t138 -20.5q109 0 164.5 47t55.5 128v16h-6q-27 -31 -86.5 -56t-132.5 -25q-89 0 -156.5 35t-104 96t-36.5 136q0 76 36.5 137t104 96t156.5 35q73 0 132 -25.5t87 -56.5h6v72h140v-460q0 -86 -39.5 -151.5t-117 -102
t-188.5 -36.5q-78 0 -148.5 18zM497 158q50 23 75 51v166q-25 29 -75.5 52t-111.5 23q-92 0 -141 -42.5t-49 -115.5q0 -72 49 -114.5t141 -42.5q62 0 112 23zM225.5 669.5q-49.5 39.5 -49.5 105.5h110q1 -31 22 -47t67 -16t67 16t22 47h110q0 -66 -49.5 -105.5t-149.5 -39.5
t-149.5 39.5z" />
    <glyph glyph-name="Gdotaccent" unicode="&#x120;" horiz-adv-x="952" 
d="M279.5 37q-103.5 47 -156.5 128.5t-53 184.5t53.5 184.5t160.5 128.5t261 47q103 0 192.5 -22t144.5 -50v-130q-51 33 -139 58.5t-191 25.5q-108 0 -183.5 -32t-113 -87t-37.5 -123q0 -67 37 -122t109 -87.5t173 -32.5q63 0 126.5 15.5t103.5 35.5v91h-295v105h405v-274
q-56 -35 -151 -63t-196 -28q-147 0 -250.5 47zM439 795q-25 23 -25 57t25 57t63 23t63 -23t25 -57t-25 -57t-63 -23t-63 23z" />
    <glyph glyph-name="gdotaccent" unicode="&#x121;" horiz-adv-x="777" 
d="M218.5 -182q-70.5 18 -108.5 40v123q38 -25 104 -45.5t138 -20.5q109 0 164.5 47t55.5 128v16h-6q-27 -31 -86.5 -56t-132.5 -25q-89 0 -156.5 35t-104 96t-36.5 136q0 76 36.5 137t104 96t156.5 35q73 0 132 -25.5t87 -56.5h6v72h140v-460q0 -86 -39.5 -151.5t-117 -102
t-188.5 -36.5q-78 0 -148.5 18zM497 158q50 23 75 51v166q-25 29 -75.5 52t-111.5 23q-92 0 -141 -42.5t-49 -115.5q0 -72 49 -114.5t141 -42.5q62 0 112 23zM312 645q-25 23 -25 57t25 57t63 23t63 -23t25 -57t-25 -57t-63 -23t-63 23z" />
    <glyph glyph-name="uni0122" unicode="&#x122;" horiz-adv-x="952" 
d="M279.5 37q-103.5 47 -156.5 128.5t-53 184.5t53.5 184.5t160.5 128.5t261 47q103 0 192.5 -22t144.5 -50v-130q-51 33 -139 58.5t-191 25.5q-108 0 -183.5 -32t-113 -87t-37.5 -123q0 -67 37 -122t109 -87.5t173 -32.5q63 0 126.5 15.5t103.5 35.5v91h-295v105h405v-274
q-56 -35 -151 -63t-196 -28q-147 0 -250.5 47zM444 -318v75h20q74 0 74 57h-5q-10 -17 -37 -17q-26 0 -43 17t-17 45q0 29 19 47.5t49 18.5q36 0 58 -24.5t22 -74.5q0 -68 -34.5 -106t-89.5 -38h-16z" />
    <glyph glyph-name="uni0123" unicode="&#x123;" horiz-adv-x="777" 
d="M431 633.5q-19 -18.5 -49 -18.5q-36 0 -58 24.5t-22 74.5q0 68 34.5 106t89.5 38h16v-75h-20q-74 0 -74 -57h5q4 6 13.5 11.5t23.5 5.5q26 0 43 -17t17 -45q0 -29 -19 -47.5zM218.5 -182q-70.5 18 -108.5 40v123q38 -25 104 -45.5t138 -20.5q109 0 164.5 47t55.5 128v16
h-6q-27 -31 -86.5 -56t-132.5 -25q-89 0 -156.5 35t-104 96t-36.5 136q0 76 36.5 137t104 96t156.5 35q73 0 132 -25.5t87 -56.5h6v72h140v-460q0 -86 -39.5 -151.5t-117 -102t-188.5 -36.5q-78 0 -148.5 18zM497 158q50 23 75 51v166q-25 29 -75.5 52t-111.5 23
q-92 0 -141 -42.5t-49 -115.5q0 -72 49 -114.5t141 -42.5q62 0 112 23z" />
    <glyph glyph-name="Hcircumflex" unicode="&#x124;" horiz-adv-x="890" 
d="M665 415v285h140v-700h-140v290h-440v-290h-140v700h140v-285h440zM341 780h-136l166 142h148l166 -142h-136l-99 85h-10z" />
    <glyph glyph-name="hcircumflex" unicode="&#x125;" horiz-adv-x="722" 
d="M65 0v720h140v-257h6q24 37 80 67t131 30q116 0 178 -58.5t62 -161.5v-340h-140v323q0 60 -37 94.5t-105 34.5q-65 0 -111.5 -30t-63.5 -66v-356h-140zM31 780h-136l166 142h148l166 -142h-136l-99 85h-10z" />
    <glyph glyph-name="Hbar" unicode="&#x126;" horiz-adv-x="925" 
d="M820 608h100v-100h-100v-508h-140v290h-435v-290h-140v508h-100v100h100v92h140v-92h435v92h140v-92zM245 410h435v98h-435v-98z" />
    <glyph glyph-name="hbar" unicode="&#x127;" horiz-adv-x="742" 
d="M620 501.5q62 -58.5 62 -161.5v-340h-140v323q0 60 -37 94.5t-105 34.5q-65 0 -111.5 -30t-63.5 -66v-356h-140v600h-85v75h85v45h140v-45h168v-75h-168v-137h6q24 37 80 67t131 30q116 0 178 -58.5z" />
    <glyph glyph-name="Itilde" unicode="&#x128;" horiz-adv-x="760" 
d="M720 700v-120h-270v-460h270v-120h-680v120h270v460h-270v120h680zM423.5 788.5q-23.5 10.5 -51.5 30.5q-17 13 -30 19.5t-26 6.5q-14 0 -21.5 -8t-7.5 -22v-32h-110v48q0 45 27 71t75 26q33 0 56.5 -10.5t51.5 -30.5q17 -13 30 -19.5t26 -6.5q14 0 21.5 8t7.5 22v32h110
v-48q0 -45 -27 -71t-75 -26q-33 0 -56.5 10.5z" />
    <glyph glyph-name="itilde" unicode="&#x129;" horiz-adv-x="270" 
d="M205 0h-140v550h140v-550zM178.5 638.5q-23.5 10.5 -51.5 30.5q-17 13 -30 19.5t-26 6.5q-14 0 -21.5 -8t-7.5 -22v-32h-110v48q0 45 27 71t75 26q33 0 56.5 -10.5t51.5 -30.5q17 -13 30 -19.5t26 -6.5q14 0 21.5 8t7.5 22v32h110v-48q0 -45 -27 -71t-75 -26
q-33 0 -56.5 10.5z" />
    <glyph glyph-name="Imacron" unicode="&#x12a;" horiz-adv-x="760" 
d="M720 700v-120h-270v-460h270v-120h-680v120h270v460h-270v120h680zM577 800h-394v100h394v-100z" />
    <glyph glyph-name="imacron" unicode="&#x12b;" horiz-adv-x="270" 
d="M205 0h-140v550h140v-550zM332 650h-394v100h394v-100z" />
    <glyph glyph-name="Ibreve" unicode="&#x12c;" horiz-adv-x="760" 
d="M720 700v-120h-270v-460h270v-120h-680v120h270v460h-270v120h680zM230.5 819.5q-49.5 39.5 -49.5 105.5h110q1 -31 22 -47t67 -16t67 16t22 47h110q0 -66 -49.5 -105.5t-149.5 -39.5t-149.5 39.5z" />
    <glyph glyph-name="ibreve" unicode="&#x12d;" horiz-adv-x="270" 
d="M205 0h-140v550h140v-550zM-14.5 669.5q-49.5 39.5 -49.5 105.5h110q1 -31 22 -47t67 -16t67 16t22 47h110q0 -66 -49.5 -105.5t-149.5 -39.5t-149.5 39.5z" />
    <glyph glyph-name="Iogonek" unicode="&#x12e;" horiz-adv-x="760" 
d="M720 580h-270v-460h270v-120h-275q-115 -58 -115 -104q0 -31 47 -31q38 0 73 8v-87q-50 -9 -100 -9q-62 0 -97 22t-35 66q0 36 31 70t81 60v5h-290v120h270v460h-270v120h680v-120z" />
    <glyph glyph-name="iogonek" unicode="&#x12f;" horiz-adv-x="270" 
d="M69 610q-24 20 -24 54t24 54t66 20t66 -20t24 -54t-24 -54t-66 -20t-66 20zM100 -127.5q10 -7.5 33 -7.5h77v-88h-126q-50 0 -78 24t-28 63q0 40 32.5 74t79.5 57v5h-25v550h6h64h63h7v-550q-48 -21 -81.5 -48.5t-33.5 -55.5q0 -16 10 -23.5z" />
    <glyph glyph-name="Idotaccent" unicode="&#x130;" horiz-adv-x="760" 
d="M720 700v-120h-270v-460h270v-120h-680v120h270v460h-270v120h680zM317 795q-25 23 -25 57t25 57t63 23t63 -23t25 -57t-25 -57t-63 -23t-63 23z" />
    <glyph glyph-name="dotlessi" unicode="&#x131;" horiz-adv-x="270" 
d="M205 0h-140v550h140v-550z" />
    <glyph glyph-name="IJ" unicode="&#x132;" horiz-adv-x="1355" 
d="M720 700v-120h-270v-460h270v-120h-680v120h270v460h-270v120h680zM775 18v128q96 -31 180 -31q82 0 128.5 39t46.5 117v429h140v-429q0 -139 -81 -210t-227 -71q-87 0 -187 28z" />
    <glyph glyph-name="ij" unicode="&#x133;" horiz-adv-x="535" 
d="M69 610q-24 20 -24 54t24 54t66 20t66 -20t24 -54t-24 -54t-66 -20t-66 20zM334 610q-24 20 -24 54t24 54t66 20t66 -20t24 -54t-24 -54t-66 -20t-66 20zM65 0v550h6h64h63h7v-550h-140zM170 -186v107q40 -11 76 -11q39 0 61.5 25t22.5 73v542h6h64h63h7v-549
q0 -98 -49.5 -149.5t-147.5 -51.5q-50 0 -103 14z" />
    <glyph glyph-name="Jcircumflex" unicode="&#x134;" horiz-adv-x="595" 
d="M15 18v128q96 -31 180 -31q82 0 128.5 39t46.5 117v429h140v-429q0 -139 -81 -210t-227 -71q-87 0 -187 28zM336 780h-136l166 142h148l166 -142h-136l-99 85h-10z" />
    <glyph glyph-name="jcircumflex" unicode="&#x135;" horiz-adv-x="270" 
d="M-95 -186v112q40 -11 76 -11q39 0 61.5 25t22.5 73v537h140v-549q0 -98 -49.5 -149.5t-147.5 -51.5q-50 0 -103 14zM31 630h-136l166 142h148l166 -142h-136l-99 85h-10z" />
    <glyph glyph-name="uni0136" unicode="&#x136;" horiz-adv-x="802" 
d="M225 0h-140v700h140v-307h2l405 307h190l-430 -332v-5l400 -363h-186l-379 338h-2v-338zM353 -318v75h20q74 0 74 57h-5q-10 -17 -37 -17q-26 0 -43 17t-17 45q0 29 19 47.5t49 18.5q36 0 58 -24.5t22 -74.5q0 -68 -34.5 -106t-89.5 -38h-16z" />
    <glyph glyph-name="uni0137" unicode="&#x137;" horiz-adv-x="672" 
d="M205 0h-140v720h140v-399h1l290 229h186l-330 -254l330 -296h-184l-292 270h-1v-270zM282 -318v75h20q74 0 74 57h-5q-10 -17 -37 -17q-26 0 -43 17t-17 45q0 29 19 47.5t49 18.5q36 0 58 -24.5t22 -74.5q0 -68 -34.5 -106t-89.5 -38h-16z" />
    <glyph glyph-name="Lacute" unicode="&#x139;" horiz-adv-x="720" 
d="M705 0h-620v700h140v-575h480v-125zM58 768h-13l-10 57l258 113h40l10 -118z" />
    <glyph glyph-name="lacute" unicode="&#x13a;" horiz-adv-x="270" 
d="M205 0h-140v720h140v-720zM38 768h-13l-10 57l258 113h40l10 -118z" />
    <glyph glyph-name="uni013B" unicode="&#x13b;" horiz-adv-x="720" 
d="M705 0h-620v700h140v-575h480v-125zM331 -318v75h20q74 0 74 57h-5q-10 -17 -37 -17q-26 0 -43 17t-17 45q0 29 19 47.5t49 18.5q36 0 58 -24.5t22 -74.5q0 -68 -34.5 -106t-89.5 -38h-16z" />
    <glyph glyph-name="uni013C" unicode="&#x13c;" horiz-adv-x="270" 
d="M205 0h-140v720h140v-720zM69 -318v75h20q74 0 74 57h-5q-10 -17 -37 -17q-26 0 -43 17t-17 45q0 29 19 47.5t49 18.5q36 0 58 -24.5t22 -74.5q0 -68 -34.5 -106t-89.5 -38h-16z" />
    <glyph glyph-name="Lcaron" unicode="&#x13d;" horiz-adv-x="720" 
d="M285 691q19 19 49 19q36 0 58 -25t22 -80q0 -87 -35.5 -131t-94.5 -44h-13v90h18q39 0 59.5 19t20.5 54h-5q-11 -17 -38 -17t-43.5 18t-16.5 48t19 49zM705 0h-620v700h140v-575h480v-125z" />
    <glyph glyph-name="lcaron" unicode="&#x13e;" horiz-adv-x="369" 
d="M255 711q19 19 49 19q36 0 58 -25t22 -80q0 -87 -35.5 -131t-94.5 -44h-13v90h18q39 0 59.5 19t20.5 54h-5q-11 -17 -38 -17t-43.5 18t-16.5 48t19 49zM65 0v720h140v-5v-53v-662h-140z" />
    <glyph glyph-name="Ldot" unicode="&#x13f;" horiz-adv-x="720" 
d="M705 0h-620v700h140v-575h480v-125zM449 333q-25 23 -25 57t25 57t63 23t63 -23t25 -57t-25 -57t-63 -23t-63 23z" />
    <glyph glyph-name="ldot" unicode="&#x140;" horiz-adv-x="426" 
d="M205 0h-140v720h140v-720zM285 303q-25 23 -25 57t25 57t63 23t63 -23t25 -57t-25 -57t-63 -23t-63 23z" />
    <glyph glyph-name="Lslash" unicode="&#x141;" horiz-adv-x="727" 
d="M232 333v-208h480v-125h-620v279l-77 -29v100l77 29v321h140v-267l235 90v-100z" />
    <glyph glyph-name="lslash" unicode="&#x142;" horiz-adv-x="334" 
d="M237 457l87 33v-87l-87 -33v-370h-140v317l-87 -33v87l87 33v316h140v-263z" />
    <glyph glyph-name="Nacute" unicode="&#x143;" horiz-adv-x="887" 
d="M225 0h-140v700h224l346 -567h7v567h140v-700h-224l-346 567h-7v-567zM318 768h-13l-10 57l258 113h40l10 -118z" />
    <glyph glyph-name="nacute" unicode="&#x144;" horiz-adv-x="722" 
d="M65 0v550h140v-87h6q24 37 80 67t131 30q116 0 178 -58.5t62 -161.5v-340h-140v323q0 60 -37 94.5t-105 34.5q-65 0 -111.5 -30t-63.5 -66v-356h-140zM248 618h-13l-10 57l258 113h40l10 -118z" />
    <glyph glyph-name="uni0145" unicode="&#x145;" horiz-adv-x="887" 
d="M225 0h-140v700h224l346 -567h7v567h140v-700h-224l-346 567h-7v-567zM382 -318v75h20q74 0 74 57h-5q-10 -17 -37 -17q-26 0 -43 17t-17 45q0 29 19 47.5t49 18.5q36 0 58 -24.5t22 -74.5q0 -68 -34.5 -106t-89.5 -38h-16z" />
    <glyph glyph-name="uni0146" unicode="&#x146;" horiz-adv-x="722" 
d="M65 0v550h140v-87h6q24 37 80 67t131 30q116 0 178 -58.5t62 -161.5v-340h-140v323q0 60 -37 94.5t-105 34.5q-65 0 -111.5 -30t-63.5 -66v-356h-140zM298 -318v75h20q74 0 74 57h-5q-10 -17 -37 -17q-26 0 -43 17t-17 45q0 29 19 47.5t49 18.5q36 0 58 -24.5t22 -74.5
q0 -68 -34.5 -106t-89.5 -38h-16z" />
    <glyph glyph-name="Ncaron" unicode="&#x147;" horiz-adv-x="887" 
d="M225 0h-140v700h224l346 -567h7v567h140v-700h-224l-346 567h-7v-567zM524 780h-148l-166 142h136l99 -85h10l99 85h136z" />
    <glyph glyph-name="ncaron" unicode="&#x148;" horiz-adv-x="722" 
d="M65 0v550h140v-87h6q24 37 80 67t131 30q116 0 178 -58.5t62 -161.5v-340h-140v323q0 60 -37 94.5t-105 34.5q-65 0 -111.5 -30t-63.5 -66v-356h-140zM446 630h-148l-166 142h136l99 -85h10l99 85h136z" />
    <glyph glyph-name="napostrophe" unicode="&#x149;" horiz-adv-x="820" 
d="M9 711q19 19 49 19q36 0 58 -25t22 -80q0 -87 -35.5 -131t-94.5 -44h-13v90h18q39 0 59.5 19t20.5 54h-5q-4 -6 -14 -11.5t-24 -5.5q-27 0 -43.5 18t-16.5 48t19 49zM163 0v550h140v-87h6q24 37 80 67t131 30q116 0 178 -58.5t62 -161.5v-340h-140v323q0 60 -37 94.5
t-105 34.5q-65 0 -111.5 -30t-63.5 -66v-356h-140z" />
    <glyph glyph-name="Eng" unicode="&#x14a;" horiz-adv-x="887" 
d="M497 -186v107q40 -11 78 -11q41 0 65.5 23t24.5 63v4h-87l-346 567h-7v-567h-140v700h224l346 -567h7v567h140v-704q0 -95 -50 -145.5t-149 -50.5q-53 0 -106 14z" />
    <glyph glyph-name="eng" unicode="&#x14b;" horiz-adv-x="722" 
d="M357 -186v112q40 -11 79 -11q41 0 63.5 25t22.5 73v310q0 60 -37 94.5t-105 34.5q-65 0 -111.5 -30t-63.5 -66v-356h-140v550h140v-87h6q24 37 80 67t131 30q116 0 178 -58.5t62 -161.5v-339q0 -98 -50 -149.5t-149 -51.5q-53 0 -106 14z" />
    <glyph glyph-name="Omacron" unicode="&#x14c;" horiz-adv-x="1064" 
d="M280 37q-104 47 -157 128.5t-53 184.5t53 184.5t157 128.5t252 47t252 -47t157 -128.5t53 -184.5t-53 -184.5t-157 -128.5t-252 -47t-252 47zM702 140q71 32 107.5 87t36.5 123t-36.5 123t-107.5 87t-170 32t-170 -32t-107.5 -87t-36.5 -123t36.5 -123t107.5 -87t170 -32
t170 32zM729 800h-394v100h394v-100z" />
    <glyph glyph-name="omacron" unicode="&#x14d;" horiz-adv-x="804" 
d="M212.5 27.5q-79.5 37.5 -121 102.5t-41.5 145t41.5 145t121 102.5t189.5 37.5t189.5 -37.5t121 -102.5t41.5 -145t-41.5 -145t-121 -102.5t-189.5 -37.5t-189.5 37.5zM554.5 148q54.5 48 54.5 127t-54.5 127t-152.5 48t-152.5 -48t-54.5 -127t54.5 -127t152.5 -48
t152.5 48zM599 650h-394v100h394v-100z" />
    <glyph glyph-name="Obreve" unicode="&#x14e;" horiz-adv-x="1064" 
d="M280 37q-104 47 -157 128.5t-53 184.5t53 184.5t157 128.5t252 47t252 -47t157 -128.5t53 -184.5t-53 -184.5t-157 -128.5t-252 -47t-252 47zM702 140q71 32 107.5 87t36.5 123t-36.5 123t-107.5 87t-170 32t-170 -32t-107.5 -87t-36.5 -123t36.5 -123t107.5 -87t170 -32
t170 32zM382.5 819.5q-49.5 39.5 -49.5 105.5h110q1 -31 22 -47t67 -16t67 16t22 47h110q0 -66 -49.5 -105.5t-149.5 -39.5t-149.5 39.5z" />
    <glyph glyph-name="obreve" unicode="&#x14f;" horiz-adv-x="804" 
d="M212.5 27.5q-79.5 37.5 -121 102.5t-41.5 145t41.5 145t121 102.5t189.5 37.5t189.5 -37.5t121 -102.5t41.5 -145t-41.5 -145t-121 -102.5t-189.5 -37.5t-189.5 37.5zM554.5 148q54.5 48 54.5 127t-54.5 127t-152.5 48t-152.5 -48t-54.5 -127t54.5 -127t152.5 -48
t152.5 48zM252.5 669.5q-49.5 39.5 -49.5 105.5h110q1 -31 22 -47t67 -16t67 16t22 47h110q0 -66 -49.5 -105.5t-149.5 -39.5t-149.5 39.5z" />
    <glyph glyph-name="Ohungarumlaut" unicode="&#x150;" horiz-adv-x="1064" 
d="M280 37q-104 47 -157 128.5t-53 184.5t53 184.5t157 128.5t252 47t252 -47t157 -128.5t53 -184.5t-53 -184.5t-157 -128.5t-252 -47t-252 47zM702 140q71 32 107.5 87t36.5 123t-36.5 123t-107.5 87t-170 32t-170 -32t-107.5 -87t-36.5 -123t36.5 -123t107.5 -87t170 -32
t170 32zM284 768h-12l-10 55l215 115h43l10 -93zM554 768h-12l-10 55l215 115h43l10 -93z" />
    <glyph glyph-name="ohungarumlaut" unicode="&#x151;" horiz-adv-x="804" 
d="M212.5 27.5q-79.5 37.5 -121 102.5t-41.5 145t41.5 145t121 102.5t189.5 37.5t189.5 -37.5t121 -102.5t41.5 -145t-41.5 -145t-121 -102.5t-189.5 -37.5t-189.5 37.5zM554.5 148q54.5 48 54.5 127t-54.5 127t-152.5 48t-152.5 -48t-54.5 -127t54.5 -127t152.5 -48
t152.5 48zM154 618h-12l-10 55l215 115h43l10 -93zM424 618h-12l-10 55l215 115h43l10 -93z" />
    <glyph glyph-name="OE" unicode="&#x152;" horiz-adv-x="1280" 
d="M775 120h450v-120h-561q-60 -10 -142 -10q-143 0 -245 47t-154.5 129t-52.5 184t52.5 184t154.5 129t245 47q82 0 142 -10h541v-120h-430v-177h390v-100h-390v-183zM635 584q-48 8 -110 8q-96 0 -165.5 -32t-105.5 -87t-36 -123t36 -123t105.5 -87t165.5 -32q54 0 110 8
v468z" />
    <glyph glyph-name="oe" unicode="&#x153;" horiz-adv-x="1250" 
d="M207 27.5q-76 37.5 -116.5 102.5t-40.5 145t41 145t117 102.5t177 37.5q67 0 123 -17.5t94 -44.5t56 -54h6q27 44 92 80t149 36q87 0 154 -36t104 -100t37 -144v-34h-464q10 -63 65 -102t139 -39q63 0 120.5 19.5t89.5 44.5v-121q-32 -22 -93 -40t-130 -18
q-63 0 -116.5 18t-90.5 45.5t-56 55.5h-6q-18 -28 -56 -55.5t-94 -45.5t-123 -18q-102 0 -178 37.5zM1056 326q-7 54 -50.5 92.5t-110.5 38.5q-43 0 -78 -18t-56 -48t-25 -65h320zM534.5 148q52.5 48 52.5 127t-52.5 127t-143.5 48t-143.5 -48t-52.5 -127t52.5 -127
t143.5 -48t143.5 48z" />
    <glyph glyph-name="Racute" unicode="&#x154;" horiz-adv-x="852" 
d="M567 294q95 0 142.5 -41t47.5 -115v-138h-140v145q0 50 -30.5 75.5t-96.5 25.5h-265v-246h-140v700h417q140 0 212.5 -58.5t72.5 -153.5q0 -85 -58 -136.5t-162 -51.5v-6zM487 346q75 0 113.5 31.5t38.5 85.5t-38.5 85.5t-113.5 31.5h-262v-234h262zM293 768h-13l-10 57
l258 113h40l10 -118z" />
    <glyph glyph-name="racute" unicode="&#x155;" horiz-adv-x="463" 
d="M65 0v550h140v-87h6q22 37 68.5 67t102.5 30h56v-135h-56q-73 0 -119 -25.5t-58 -56.5v-343h-140zM111 618h-13l-10 57l258 113h40l10 -118z" />
    <glyph glyph-name="uni0156" unicode="&#x156;" horiz-adv-x="852" 
d="M567 294q95 0 142.5 -41t47.5 -115v-138h-140v145q0 50 -30.5 75.5t-96.5 25.5h-265v-246h-140v700h417q140 0 212.5 -58.5t72.5 -153.5q0 -85 -58 -136.5t-162 -51.5v-6zM487 346q75 0 113.5 31.5t38.5 85.5t-38.5 85.5t-113.5 31.5h-262v-234h262zM355 -318v75h20
q74 0 74 57h-5q-10 -17 -37 -17q-26 0 -43 17t-17 45q0 29 19 47.5t49 18.5q36 0 58 -24.5t22 -74.5q0 -68 -34.5 -106t-89.5 -38h-16z" />
    <glyph glyph-name="uni0157" unicode="&#x157;" horiz-adv-x="463" 
d="M65 0v550h140v-87h6q22 37 68.5 67t102.5 30h56v-135h-56q-73 0 -119 -25.5t-58 -56.5v-343h-140zM69 -318v75h20q74 0 74 57h-5q-10 -17 -37 -17q-26 0 -43 17t-17 45q0 29 19 47.5t49 18.5q36 0 58 -24.5t22 -74.5q0 -68 -34.5 -106t-89.5 -38h-16z" />
    <glyph glyph-name="Rcaron" unicode="&#x158;" horiz-adv-x="852" 
d="M567 294q95 0 142.5 -41t47.5 -115v-138h-140v145q0 50 -30.5 75.5t-96.5 25.5h-265v-246h-140v700h417q140 0 212.5 -58.5t72.5 -153.5q0 -85 -58 -136.5t-162 -51.5v-6zM487 346q75 0 113.5 31.5t38.5 85.5t-38.5 85.5t-113.5 31.5h-262v-234h262zM496 780h-148
l-166 142h136l99 -85h10l99 85h136z" />
    <glyph glyph-name="rcaron" unicode="&#x159;" horiz-adv-x="463" 
d="M65 0v550h140v-87h6q22 37 68.5 67t102.5 30h56v-135h-56q-73 0 -119 -25.5t-58 -56.5v-343h-140zM327 630h-148l-166 142h136l99 -85h10l99 85h136z" />
    <glyph glyph-name="Sacute" unicode="&#x15a;" horiz-adv-x="775" 
d="M221.5 12q-81.5 22 -121.5 49v137q43 -32 124.5 -57.5t171.5 -25.5q87 0 129 25t42 58q0 30 -26 48.5t-64.5 28t-109.5 22.5q-99 18 -161 37t-106.5 60.5t-44.5 113.5q0 54 36.5 100t113.5 74t194 28q94 0 175.5 -22.5t125.5 -50.5v-140q-43 34 -127 61t-181 27
q-66 0 -108.5 -13t-61.5 -32.5t-19 -39.5q0 -30 26 -49t65.5 -29.5t110.5 -23.5q98 -18 160 -36.5t106 -60.5t44 -113q0 -53 -34.5 -98t-105.5 -72.5t-177 -27.5q-95 0 -176.5 22zM246 768h-13l-10 57l258 113h40l10 -118z" />
    <glyph glyph-name="sacute" unicode="&#x15b;" horiz-adv-x="635" 
d="M176 9q-71 19 -106 41v121q37 -24 108 -45t145 -21q127 0 127 56q0 22 -20.5 35.5t-50 21t-86.5 16.5q-82 13 -133 27.5t-88 48.5t-37 93q0 43 29 78.5t92 57t160 21.5q82 0 158.5 -19t113.5 -42v-123q-42 26 -119.5 47.5t-152.5 21.5q-136 0 -136 -60q0 -28 36 -41
t114 -25q84 -14 136 -29t90.5 -50t38.5 -97q0 -39 -29 -74t-88.5 -57t-147.5 -22q-83 0 -154 19zM193 618h-13l-10 57l258 113h40l10 -118z" />
    <glyph glyph-name="Scircumflex" unicode="&#x15c;" horiz-adv-x="775" 
d="M221.5 12q-81.5 22 -121.5 49v137q43 -32 124.5 -57.5t171.5 -25.5q87 0 129 25t42 58q0 30 -26 48.5t-64.5 28t-109.5 22.5q-99 18 -161 37t-106.5 60.5t-44.5 113.5q0 54 36.5 100t113.5 74t194 28q94 0 175.5 -22.5t125.5 -50.5v-140q-43 34 -127 61t-181 27
q-66 0 -108.5 -13t-61.5 -32.5t-19 -39.5q0 -30 26 -49t65.5 -29.5t110.5 -23.5q98 -18 160 -36.5t106 -60.5t44 -113q0 -53 -34.5 -98t-105.5 -72.5t-177 -27.5q-95 0 -176.5 22zM284 780h-136l166 142h148l166 -142h-136l-99 85h-10z" />
    <glyph glyph-name="scircumflex" unicode="&#x15d;" horiz-adv-x="635" 
d="M176 9q-71 19 -106 41v121q37 -24 108 -45t145 -21q127 0 127 56q0 22 -20.5 35.5t-50 21t-86.5 16.5q-82 13 -133 27.5t-88 48.5t-37 93q0 43 29 78.5t92 57t160 21.5q82 0 158.5 -19t113.5 -42v-123q-42 26 -119.5 47.5t-152.5 21.5q-136 0 -136 -60q0 -28 36 -41
t114 -25q84 -14 136 -29t90.5 -50t38.5 -97q0 -39 -29 -74t-88.5 -57t-147.5 -22q-83 0 -154 19zM213 630h-136l166 142h148l166 -142h-136l-99 85h-10z" />
    <glyph glyph-name="Scedilla" unicode="&#x15e;" horiz-adv-x="775" 
d="M683.5 93.5q-31.5 -43.5 -97 -71.5t-162.5 -32l-14 -46h25q51 0 79.5 -25.5t28.5 -69.5q0 -46 -37.5 -74t-101.5 -28q-57 0 -109 15v77q50 -14 95 -14q53 0 53 28q0 26 -41 26h-77l-20 21l28 93q-75 7 -137.5 26.5t-95.5 41.5v137q43 -32 124.5 -57.5t171.5 -25.5
q87 0 129 25t42 58q0 30 -26 48.5t-64.5 28t-109.5 22.5q-99 18 -161 37t-106.5 60.5t-44.5 113.5q0 54 36.5 100t113.5 74t194 28q94 0 175.5 -22.5t125.5 -50.5v-140q-43 34 -127 61t-181 27q-66 0 -108.5 -13t-61.5 -32.5t-19 -39.5q0 -30 26 -49t65.5 -29.5t110.5 -23.5
q98 -18 160 -36.5t106 -60.5t44 -113q0 -51 -31.5 -94.5z" />
    <glyph glyph-name="scedilla" unicode="&#x15f;" horiz-adv-x="635" 
d="M568.5 72.5q-26.5 -33.5 -80.5 -56.5t-134 -26l-14 -46h25q51 0 79.5 -25.5t28.5 -69.5q0 -46 -37.5 -74t-101.5 -28q-57 0 -109 15v77q50 -14 95 -14q53 0 53 28q0 26 -41 26h-77l-20 21l28 93q-62 7 -113.5 23.5t-79.5 33.5v121q37 -24 108 -45t145 -21q127 0 127 56
q0 22 -20.5 35.5t-50 21t-86.5 16.5q-82 13 -133 27.5t-88 48.5t-37 93q0 43 29 78.5t92 57t160 21.5q82 0 158.5 -19t113.5 -42v-123q-42 26 -119.5 47.5t-152.5 21.5q-136 0 -136 -60q0 -28 36 -41t114 -25q84 -14 136 -29t90.5 -50t38.5 -97q0 -37 -26.5 -70.5z" />
    <glyph glyph-name="Scaron" unicode="&#x160;" horiz-adv-x="775" 
d="M221.5 12q-81.5 22 -121.5 49v137q43 -32 124.5 -57.5t171.5 -25.5q87 0 129 25t42 58q0 30 -26 48.5t-64.5 28t-109.5 22.5q-99 18 -161 37t-106.5 60.5t-44.5 113.5q0 54 36.5 100t113.5 74t194 28q94 0 175.5 -22.5t125.5 -50.5v-140q-43 34 -127 61t-181 27
q-66 0 -108.5 -13t-61.5 -32.5t-19 -39.5q0 -30 26 -49t65.5 -29.5t110.5 -23.5q98 -18 160 -36.5t106 -60.5t44 -113q0 -53 -34.5 -98t-105.5 -72.5t-177 -27.5q-95 0 -176.5 22zM462 780h-148l-166 142h136l99 -85h10l99 85h136z" />
    <glyph glyph-name="scaron" unicode="&#x161;" horiz-adv-x="635" 
d="M176 9q-71 19 -106 41v121q37 -24 108 -45t145 -21q127 0 127 56q0 22 -20.5 35.5t-50 21t-86.5 16.5q-82 13 -133 27.5t-88 48.5t-37 93q0 43 29 78.5t92 57t160 21.5q82 0 158.5 -19t113.5 -42v-123q-42 26 -119.5 47.5t-152.5 21.5q-136 0 -136 -60q0 -28 36 -41
t114 -25q84 -14 136 -29t90.5 -50t38.5 -97q0 -39 -29 -74t-88.5 -57t-147.5 -22q-83 0 -154 19zM391 630h-148l-166 142h136l99 -85h10l99 85h136z" />
    <glyph glyph-name="uni0162" unicode="&#x162;" horiz-adv-x="740" 
d="M440 0h-25l-17 -56h25q51 0 79.5 -25.5t28.5 -69.5q0 -46 -37.5 -74t-101.5 -28q-57 0 -109 15v77q50 -14 95 -14q53 0 53 28q0 26 -41 26h-77l-20 21l30 100h-23v575h-280v125h700v-125h-280v-575z" />
    <glyph glyph-name="uni0163" unicode="&#x163;" horiz-adv-x="448" 
d="M320 -56q51 0 79.5 -25.5t28.5 -69.5q0 -46 -37.5 -74t-101.5 -28q-57 0 -109 15v77q50 -14 95 -14q53 0 53 28q0 26 -41 26h-77l-20 21l31 104q-57 21 -87.5 70.5t-30.5 125.5v270h-103v80h50q27 0 40 14t13 44v75h140v-133h165v-80h-165v-271q0 -45 24 -69.5t66 -24.5
q43 0 75 12v-113q-29 -8 -50 -11t-48 -3h-1l-14 -46h25z" />
    <glyph glyph-name="Tcaron" unicode="&#x164;" horiz-adv-x="740" 
d="M20 700h700v-125h-280v-575h-140v575h-280v125zM444 780h-148l-166 142h136l99 -85h10l99 85h136z" />
    <glyph glyph-name="tcaron" unicode="&#x165;" horiz-adv-x="453" 
d="M304 674q19 19 49 19q36 0 58 -25t22 -80q0 -87 -35.5 -131t-94.5 -44h-13v90h18q39 0 59.5 19t20.5 54h-5q-11 -17 -38 -17t-43.5 18t-16.5 48t19 49zM157.5 43.5q-54.5 53.5 -54.5 156.5v270h-103v80h50q27 0 40 14t13 44v75h140v-484q0 -45 24 -69.5t66 -24.5t75 11
v-114q-28 -7 -49 -9.5t-49 -2.5q-98 0 -152.5 53.5z" />
    <glyph glyph-name="Tbar" unicode="&#x166;" horiz-adv-x="740" 
d="M720 700v-125h-280v-130h160v-100h-160v-345h-140v345h-160v100h160v130h-280v125h700z" />
    <glyph glyph-name="tbar" unicode="&#x167;" horiz-adv-x="478" 
d="M428 470h-165v-95h165v-80h-165v-96q0 -45 24 -69.5t66 -24.5t75 11v-114q-28 -7 -49 -9.5t-49 -2.5q-98 0 -152.5 53.5t-54.5 156.5v95h-103v80h103v95h-103v80h50q27 0 40 14t13 44v75h140v-133h165v-80z" />
    <glyph glyph-name="Utilde" unicode="&#x168;" horiz-adv-x="876" 
d="M171.5 72.5q-91.5 82.5 -91.5 230.5v397h140v-392q0 -193 218 -193t218 193v392h140v-397q0 -148 -91.5 -230.5t-266.5 -82.5t-266.5 82.5zM481.5 788.5q-23.5 10.5 -51.5 30.5q-17 13 -30 19.5t-26 6.5q-14 0 -21.5 -8t-7.5 -22v-32h-110v48q0 45 27 71t75 26
q33 0 56.5 -10.5t51.5 -30.5q17 -13 30 -19.5t26 -6.5q14 0 21.5 8t7.5 22v32h110v-48q0 -45 -27 -71t-75 -26q-33 0 -56.5 10.5z" />
    <glyph glyph-name="utilde" unicode="&#x169;" horiz-adv-x="722" 
d="M122.5 48.5q-62.5 58.5 -62.5 161.5v340h140v-322q0 -61 37 -95.5t105 -34.5q64 0 110.5 29.5t64.5 66.5v356h140v-550h-140v87h-6q-24 -37 -80 -67t-129 -30q-117 0 -179.5 58.5zM402.5 638.5q-23.5 10.5 -51.5 30.5q-17 13 -30 19.5t-26 6.5q-14 0 -21.5 -8t-7.5 -22
v-32h-110v48q0 45 27 71t75 26q33 0 56.5 -10.5t51.5 -30.5q17 -13 30 -19.5t26 -6.5q14 0 21.5 8t7.5 22v32h110v-48q0 -45 -27 -71t-75 -26q-33 0 -56.5 10.5z" />
    <glyph glyph-name="Umacron" unicode="&#x16a;" horiz-adv-x="876" 
d="M171.5 72.5q-91.5 82.5 -91.5 230.5v397h140v-392q0 -193 218 -193t218 193v392h140v-397q0 -148 -91.5 -230.5t-266.5 -82.5t-266.5 82.5zM635 800h-394v100h394v-100z" />
    <glyph glyph-name="umacron" unicode="&#x16b;" horiz-adv-x="722" 
d="M122.5 48.5q-62.5 58.5 -62.5 161.5v340h140v-322q0 -61 37 -95.5t105 -34.5q64 0 110.5 29.5t64.5 66.5v356h140v-550h-140v87h-6q-24 -37 -80 -67t-129 -30q-117 0 -179.5 58.5zM556 650h-394v100h394v-100z" />
    <glyph glyph-name="Ubreve" unicode="&#x16c;" horiz-adv-x="876" 
d="M171.5 72.5q-91.5 82.5 -91.5 230.5v397h140v-392q0 -193 218 -193t218 193v392h140v-397q0 -148 -91.5 -230.5t-266.5 -82.5t-266.5 82.5zM288.5 819.5q-49.5 39.5 -49.5 105.5h110q1 -31 22 -47t67 -16t67 16t22 47h110q0 -66 -49.5 -105.5t-149.5 -39.5t-149.5 39.5z
" />
    <glyph glyph-name="ubreve" unicode="&#x16d;" horiz-adv-x="722" 
d="M122.5 48.5q-62.5 58.5 -62.5 161.5v340h140v-322q0 -61 37 -95.5t105 -34.5q64 0 110.5 29.5t64.5 66.5v356h140v-550h-140v87h-6q-24 -37 -80 -67t-129 -30q-117 0 -179.5 58.5zM209.5 669.5q-49.5 39.5 -49.5 105.5h110q1 -31 22 -47t67 -16t67 16t22 47h110
q0 -66 -49.5 -105.5t-149.5 -39.5t-149.5 39.5z" />
    <glyph glyph-name="Uring" unicode="&#x16e;" horiz-adv-x="876" 
d="M171.5 72.5q-91.5 82.5 -91.5 230.5v397h140v-392q0 -193 218 -193t218 193v392h140v-397q0 -148 -91.5 -230.5t-266.5 -82.5t-266.5 82.5zM336.5 779.5q-35.5 29.5 -35.5 75.5t35.5 75.5t101.5 29.5t101.5 -29.5t35.5 -75.5t-35.5 -75.5t-101.5 -29.5t-101.5 29.5z
M480.5 827q14.5 11 14.5 28t-14.5 28t-42.5 11t-42.5 -11t-14.5 -28t14.5 -28t42.5 -11t42.5 11z" />
    <glyph glyph-name="uring" unicode="&#x16f;" horiz-adv-x="722" 
d="M122.5 48.5q-62.5 58.5 -62.5 161.5v340h140v-322q0 -61 37 -95.5t105 -34.5q64 0 110.5 29.5t64.5 66.5v356h140v-550h-140v87h-6q-24 -37 -80 -67t-129 -30q-117 0 -179.5 58.5zM257.5 629.5q-35.5 29.5 -35.5 75.5t35.5 75.5t101.5 29.5t101.5 -29.5t35.5 -75.5
t-35.5 -75.5t-101.5 -29.5t-101.5 29.5zM401.5 677q14.5 11 14.5 28t-14.5 28t-42.5 11t-42.5 -11t-14.5 -28t14.5 -28t42.5 -11t42.5 11z" />
    <glyph glyph-name="Uhungarumlaut" unicode="&#x170;" horiz-adv-x="876" 
d="M171.5 72.5q-91.5 82.5 -91.5 230.5v397h140v-392q0 -193 218 -193t218 193v392h140v-397q0 -148 -91.5 -230.5t-266.5 -82.5t-266.5 82.5zM207 768h-12l-10 55l215 115h43l10 -93zM477 768h-12l-10 55l215 115h43l10 -93z" />
    <glyph glyph-name="uhungarumlaut" unicode="&#x171;" horiz-adv-x="722" 
d="M122.5 48.5q-62.5 58.5 -62.5 161.5v340h140v-322q0 -61 37 -95.5t105 -34.5q64 0 110.5 29.5t64.5 66.5v356h140v-550h-140v87h-6q-24 -37 -80 -67t-129 -30q-117 0 -179.5 58.5zM137 623h-12l-10 55l215 115h43l10 -93zM407 623h-12l-10 55l215 115h43l10 -93z" />
    <glyph glyph-name="Uogonek" unicode="&#x172;" horiz-adv-x="876" 
d="M656 700h140v-397q0 -194 -152 -271q-94 -48 -135.5 -78t-41.5 -58q0 -31 47 -31q38 0 73 8v-87q-50 -9 -100 -9q-62 0 -97 22t-35 66q0 32 24.5 62t65.5 56v7h-7q-175 0 -266.5 82.5t-91.5 230.5v397h140v-392q0 -193 218 -193t218 193v392z" />
    <glyph glyph-name="uogonek" unicode="&#x173;" horiz-adv-x="722" 
d="M662 -127v-87q-50 -9 -100 -9q-62 0 -97 22t-35 66q0 36 31 70t81 60v5h-25v87h-6q-24 -37 -80 -67t-129 -30q-117 0 -179.5 58.5t-62.5 161.5v340h140v-322q0 -61 37 -95.5t105 -34.5q64 0 110.5 29.5t64.5 66.5v356h140v-550q-115 -58 -115 -104q0 -31 47 -31
q38 0 73 8z" />
    <glyph glyph-name="Wcircumflex" unicode="&#x174;" horiz-adv-x="1273" 
d="M449 0h-195l-249 700h147l205 -578h6l199 578h149l199 -578h6l205 578h147l-249 -700h-195l-184 539h-7zM533 780h-136l166 142h148l166 -142h-136l-99 85h-10z" />
    <glyph glyph-name="wcircumflex" unicode="&#x175;" horiz-adv-x="1025" 
d="M371 0h-166l-200 550h139l150 -418h5l152 418h126l154 -418h5l149 418h135l-195 -550h-166l-144 388h-5zM410 630h-136l166 142h148l166 -142h-136l-99 85h-10z" />
    <glyph glyph-name="Ycircumflex" unicode="&#x176;" horiz-adv-x="820" 
d="M480 0h-140v155l-360 545h156l271 -415h6l271 415h156l-360 -545v-155zM306 780h-136l166 142h148l166 -142h-136l-99 85h-10z" />
    <glyph glyph-name="ycircumflex" unicode="&#x177;" horiz-adv-x="653" 
d="M298 -190h-143l118 242l-278 498h153l190 -350h5l170 350h145zM224 630h-136l166 142h148l166 -142h-136l-99 85h-10z" />
    <glyph glyph-name="Ydieresis" unicode="&#x178;" horiz-adv-x="820" 
d="M480 0h-140v155l-360 545h156l271 -415h6l271 415h156l-360 -545v-155zM235 797q-23 22 -23 53t23 53t56 22t56 -22t23 -53t-23 -53t-56 -22t-56 22zM472 797q-23 22 -23 53t23 53t56 22t56 -22t23 -53t-23 -53t-56 -22t-56 22z" />
    <glyph glyph-name="Zacute" unicode="&#x179;" horiz-adv-x="780" 
d="M735 0h-685v132l473 427v6h-466v135h658v-131l-473 -427v-7h493v-135zM263 768h-13l-10 57l258 113h40l10 -118z" />
    <glyph glyph-name="zacute" unicode="&#x17a;" horiz-adv-x="638" 
d="M603 0h-568v116l396 308v6h-391v120h553v-116l-396 -308v-6h406v-120zM196 618h-13l-10 57l258 113h40l10 -118z" />
    <glyph glyph-name="Zdotaccent" unicode="&#x17b;" horiz-adv-x="780" 
d="M735 0h-685v132l473 427v6h-466v135h658v-131l-473 -427v-7h493v-135zM325 795q-25 23 -25 57t25 57t63 23t63 -23t25 -57t-25 -57t-63 -23t-63 23z" />
    <glyph glyph-name="zdotaccent" unicode="&#x17c;" horiz-adv-x="638" 
d="M603 0h-568v116l396 308v6h-391v120h553v-116l-396 -308v-6h406v-120zM254 645q-25 23 -25 57t25 57t63 23t63 -23t25 -57t-25 -57t-63 -23t-63 23z" />
    <glyph glyph-name="Zcaron" unicode="&#x17d;" horiz-adv-x="780" 
d="M735 0h-685v132l473 427v6h-466v135h658v-131l-473 -427v-7h493v-135zM462 780h-148l-166 142h136l99 -85h10l99 85h136z" />
    <glyph glyph-name="zcaron" unicode="&#x17e;" horiz-adv-x="638" 
d="M603 0h-568v116l396 308v6h-391v120h553v-116l-396 -308v-6h406v-120zM391 630h-148l-166 142h136l99 -85h10l99 85h136z" />
    <glyph glyph-name="uni018F" unicode="&#x18f;" horiz-adv-x="1025" 
d="M745 662.5q103 -47.5 156.5 -129t53.5 -183.5t-52 -184t-152 -129t-239 -47q-137 0 -237 48t-152.5 130.5t-52.5 186.5v38h733q-16 90 -98 144.5t-225 54.5q-100 0 -193 -22.5t-150 -50.5v128q57 24 154.5 43.5t205.5 19.5q145 0 248 -47.5zM706 158.5q75 50.5 95 134.5
h-581q18 -81 93 -133t199 -52q119 0 194 50.5z" />
    <glyph glyph-name="florin" unicode="&#x192;" horiz-adv-x="557" 
d="M-85 -190l26 120h80q42 0 61.5 16.5t27.5 53.5l92 440h-105l17 80h105l5 25q18 86 70.5 130.5t148.5 44.5h129l-25 -115h-96q-40 0 -59.5 -17.5t-27.5 -57.5l-2 -10h146l-17 -80h-146l-95 -450q-20 -95 -72 -137.5t-158 -42.5h-105z" />
    <glyph glyph-name="uni01F4" unicode="&#x1f4;" horiz-adv-x="952" 
d="M279.5 37q-103.5 47 -156.5 128.5t-53 184.5t53.5 184.5t160.5 128.5t261 47q103 0 192.5 -22t144.5 -50v-130q-51 33 -139 58.5t-191 25.5q-108 0 -183.5 -32t-113 -87t-37.5 -123q0 -67 37 -122t109 -87.5t173 -32.5q63 0 126.5 15.5t103.5 35.5v91h-295v105h405v-274
q-56 -35 -151 -63t-196 -28q-147 0 -250.5 47zM360 768h-13l-10 57l258 113h40l10 -118z" />
    <glyph glyph-name="uni01F5" unicode="&#x1f5;" horiz-adv-x="777" 
d="M218.5 -182q-70.5 18 -108.5 40v123q38 -25 104 -45.5t138 -20.5q109 0 164.5 47t55.5 128v16h-6q-27 -31 -86.5 -56t-132.5 -25q-89 0 -156.5 35t-104 96t-36.5 136q0 76 36.5 137t104 96t156.5 35q73 0 132 -25.5t87 -56.5h6v72h140v-460q0 -86 -39.5 -151.5t-117 -102
t-188.5 -36.5q-78 0 -148.5 18zM497 158q50 23 75 51v166q-25 29 -75.5 52t-111.5 23q-92 0 -141 -42.5t-49 -115.5q0 -72 49 -114.5t141 -42.5q62 0 112 23zM233 618h-13l-10 57l258 113h40l10 -118z" />
    <glyph glyph-name="Aringacute" unicode="&#x1fa;" horiz-adv-x="878" 
d="M726 0l-83 168h-408l-83 -168h-152l342 681q-40 28 -40 79q0 32 16 52.5t54 44.5l157 98h38l10 -90l-63 -15q62 -27 62 -90q0 -51 -40 -79l342 -681h-152zM396.5 788q-14.5 -11 -14.5 -28t14.5 -28t42.5 -11t42.5 11t14.5 28t-14.5 28t-42.5 11t-42.5 -11zM436 572
l-151 -304h308l-151 304h-6z" />
    <glyph glyph-name="aringacute" unicode="&#x1fb;" horiz-adv-x="713" 
d="M253.5 629.5q-35.5 29.5 -35.5 75.5q0 32 16 52.5t54 44.5l157 98h38l10 -90l-63 -15q62 -27 62 -90q0 -46 -35.5 -75.5t-101.5 -29.5t-101.5 29.5zM397.5 677q14.5 11 14.5 28t-14.5 28t-42.5 11t-42.5 -11t-14.5 -28t14.5 -28t42.5 -11t42.5 11zM95 34.5
q-55 44.5 -55 115.5q0 79 66 126t209 47q84 0 127 7t57 18.5t14 28.5q0 29 -38.5 48.5t-131.5 19.5q-75 0 -148.5 -20.5t-116.5 -46.5v122q37 23 112 41.5t163 18.5q300 0 300 -190v-370h-140v85h-3q-33 -36 -102 -65.5t-155 -29.5q-103 0 -158 44.5zM433 122.5
q56 22.5 80 50.5v106q-48 -29 -185 -31q-76 -1 -109.5 -22t-33.5 -54q0 -31 29.5 -51.5t88.5 -20.5q74 0 130 22.5z" />
    <glyph glyph-name="AEacute" unicode="&#x1fc;" horiz-adv-x="1173" 
d="M673 303v-183h445v-120h-585v180h-314l-85 -180h-149l332 700h781v-120h-425v-177h385v-100h-385zM409 580l-142 -300h266v300h-124zM560 768h-13l-10 57l258 113h40l10 -118z" />
    <glyph glyph-name="aeacute" unicode="&#x1fd;" horiz-adv-x="1145" 
d="M1095 241h-458q13 -65 62.5 -100.5t135.5 -35.5q64 0 121 19.5t89 43.5v-121q-32 -22 -92.5 -39.5t-129.5 -17.5q-86 0 -155.5 30.5t-113.5 83.5h-10q-119 -114 -271 -114q-114 0 -173.5 46.5t-59.5 118.5q0 77 61.5 121.5t193.5 44.5h198v25q0 33 -12.5 54t-47 33
t-98.5 12q-73 0 -144 -19t-113 -43v124q43 19 113 36t154 17q68 0 118.5 -13.5t80 -34.5t38.5 -42h6q25 35 82.5 62.5t134.5 27.5q84 0 150 -36.5t103 -101.5t37 -147v-34zM951 321q-6 57 -47 96.5t-109 39.5q-62 0 -105.5 -37.5t-53.5 -98.5h315zM424 124q54 24 87 54
q-11 28 -16 63h-194q-59 0 -87.5 -20t-28.5 -51q0 -29 30.5 -49.5t90.5 -20.5q64 0 118 24zM470 618h-13l-10 57l258 113h40l10 -118z" />
    <glyph glyph-name="Oslashacute" unicode="&#x1fe;" horiz-adv-x="1064" 
d="M873 609q60 -48 90.5 -114.5t30.5 -144.5q0 -103 -53 -184.5t-157 -128.5t-252 -47q-156 0 -267 54l-48 -44h-124l98 91q-60 48 -90.5 114.5t-30.5 144.5q0 103 53 184.5t157 128.5t252 47q156 0 267 -54l48 44h124zM237 259.5q19 -42.5 55 -74.5l406 377q-71 30 -166 30
q-99 0 -170 -32t-107.5 -87t-36.5 -123q0 -48 19 -90.5zM702 140q71 32 107.5 87t36.5 123q0 48 -19 90.5t-55 74.5l-406 -377q71 -30 166 -30q99 0 170 32zM390 768h-13l-10 57l258 113h40l10 -118z" />
    <glyph glyph-name="oslashacute" unicode="&#x1ff;" horiz-adv-x="804" 
d="M652 486q50 -39 76 -93.5t26 -117.5q0 -80 -41.5 -145t-121 -102.5t-189.5 -37.5q-117 0 -202 44l-34 -34h-89l69 69q-47 39 -71.5 92t-24.5 114q0 80 41.5 145t121 102.5t189.5 37.5q111 0 196 -40l40 40h89zM237 160l271 270q-45 20 -106 20q-98 0 -152.5 -48
t-54.5 -127q0 -70 42 -115zM554.5 148q54.5 48 54.5 127q0 75 -47 120l-273 -272q48 -23 113 -23q98 0 152.5 48zM260 618h-13l-10 57l258 113h40l10 -118z" />
    <glyph glyph-name="uni0218" unicode="&#x218;" horiz-adv-x="775" 
d="M221.5 12q-81.5 22 -121.5 49v137q43 -32 124.5 -57.5t171.5 -25.5q87 0 129 25t42 58q0 30 -26 48.5t-64.5 28t-109.5 22.5q-99 18 -161 37t-106.5 60.5t-44.5 113.5q0 54 36.5 100t113.5 74t194 28q94 0 175.5 -22.5t125.5 -50.5v-140q-43 34 -127 61t-181 27
q-66 0 -108.5 -13t-61.5 -32.5t-19 -39.5q0 -30 26 -49t65.5 -29.5t110.5 -23.5q98 -18 160 -36.5t106 -60.5t44 -113q0 -53 -34.5 -98t-105.5 -72.5t-177 -27.5q-95 0 -176.5 22zM341 -318v75h20q74 0 74 57h-5q-10 -17 -37 -17q-26 0 -43 17t-17 45q0 29 19 47.5t49 18.5
q36 0 58 -24.5t22 -74.5q0 -68 -34.5 -106t-89.5 -38h-16z" />
    <glyph glyph-name="uni0219" unicode="&#x219;" horiz-adv-x="635" 
d="M176 9q-71 19 -106 41v121q37 -24 108 -45t145 -21q127 0 127 56q0 22 -20.5 35.5t-50 21t-86.5 16.5q-82 13 -133 27.5t-88 48.5t-37 93q0 43 29 78.5t92 57t160 21.5q82 0 158.5 -19t113.5 -42v-123q-42 26 -119.5 47.5t-152.5 21.5q-136 0 -136 -60q0 -28 36 -41
t114 -25q84 -14 136 -29t90.5 -50t38.5 -97q0 -39 -29 -74t-88.5 -57t-147.5 -22q-83 0 -154 19zM269 -318v75h20q74 0 74 57h-5q-10 -17 -37 -17q-26 0 -43 17t-17 45q0 29 19 47.5t49 18.5q36 0 58 -24.5t22 -74.5q0 -68 -34.5 -106t-89.5 -38h-16z" />
    <glyph glyph-name="uni021A" unicode="&#x21a;" horiz-adv-x="740" 
d="M20 700h700v-125h-280v-575h-140v575h-280v125zM303 -318v75h20q74 0 74 57h-5q-10 -17 -37 -17q-26 0 -43 17t-17 45q0 29 19 47.5t49 18.5q36 0 58 -24.5t22 -74.5q0 -68 -34.5 -106t-89.5 -38h-16z" />
    <glyph glyph-name="uni021B" unicode="&#x21b;" horiz-adv-x="448" 
d="M157.5 43.5q-54.5 53.5 -54.5 156.5v270h-103v80h50q27 0 40 14t13 44v75h140v-133h165v-80h-165v-271q0 -45 24 -69.5t66 -24.5q43 0 75 12v-113q-29 -8 -50 -11t-48 -3q-98 0 -152.5 53.5zM184 -318v75h20q74 0 74 57h-5q-10 -17 -37 -17q-26 0 -43 17t-17 45
q0 29 19 47.5t49 18.5q36 0 58 -24.5t22 -74.5q0 -68 -34.5 -106t-89.5 -38h-16z" />
    <glyph glyph-name="uni0232" unicode="&#x232;" horiz-adv-x="820" 
d="M480 0h-140v155l-360 545h156l271 -415h6l271 415h156l-360 -545v-155zM607 800h-394v100h394v-100z" />
    <glyph glyph-name="uni0233" unicode="&#x233;" horiz-adv-x="653" 
d="M298 -190h-143l118 242l-278 498h153l190 -350h5l170 350h145zM525 650h-394v100h394v-100z" />
    <glyph glyph-name="uni0237" unicode="&#x237;" horiz-adv-x="270" 
d="M-95 -186v112q40 -11 76 -11q39 0 61.5 25t22.5 73v537h140v-549q0 -98 -49.5 -149.5t-147.5 -51.5q-50 0 -103 14z" />
    <glyph glyph-name="uni0244" unicode="&#x244;" horiz-adv-x="922" 
d="M917 490v-100h-100v-92q0 -144 -91 -226t-265 -82t-265 82t-91 226v92h-100v100h100v210h140v-210h432v210h140v-210h100zM677 390h-432v-87q0 -92 53.5 -140t162.5 -48t162.5 48t53.5 140v87z" />
    <glyph glyph-name="uni0259" unicode="&#x259;" horiz-adv-x="782" 
d="M567 522q81 -38 123 -102.5t42 -144.5t-41 -145t-118 -102.5t-181 -37.5q-105 0 -182.5 37.5t-118.5 102.5t-41 145v32h533q-14 61 -72.5 99.5t-150.5 38.5q-73 0 -142.5 -20t-112.5 -44v123q45 21 118.5 38.5t151.5 17.5q111 0 192 -38zM518.5 129q50.5 36 63.5 98h-386
q13 -61 61.5 -97.5t132.5 -36.5q78 0 128.5 36z" />
    <glyph glyph-name="uni0289" unicode="&#x289;" horiz-adv-x="767" 
d="M762 430v-80h-80v-350h-140v87h-6q-24 -37 -80 -67t-129 -30q-117 0 -179.5 58.5t-62.5 161.5v140h-80v80h80v120h140v-120h317v120h140v-120h80zM542 350h-317v-122q0 -61 37 -95.5t105 -34.5q64 0 110.5 29.5t64.5 66.5v156z" />
    <glyph glyph-name="uni02BC" unicode="&#x2bc;" horiz-adv-x="208" 
d="M49 711q19 19 49 19q36 0 58 -25t22 -80q0 -87 -35.5 -131t-94.5 -44h-13v90h18q39 0 59.5 19t20.5 54h-5q-11 -17 -38 -17t-43.5 18t-16.5 48t19 49z" />
    <glyph glyph-name="circumflex" unicode="&#x2c6;" horiz-adv-x="540" 
d="M166 588h-136l166 142h148l166 -142h-136l-99 85h-10z" />
    <glyph glyph-name="caron" unicode="&#x2c7;" horiz-adv-x="540" 
d="M344 588h-148l-166 142h136l99 -85h10l99 85h136z" />
    <glyph glyph-name="breve" unicode="&#x2d8;" horiz-adv-x="458" 
d="M79.5 627.5q-49.5 39.5 -49.5 105.5h110q1 -31 22 -47t67 -16t67 16t22 47h110q0 -66 -49.5 -105.5t-149.5 -39.5t-149.5 39.5z" />
    <glyph glyph-name="dotaccent" unicode="&#x2d9;" horiz-adv-x="236" 
d="M55 578q-25 23 -25 57t25 57t63 23t63 -23t25 -57t-25 -57t-63 -23t-63 23z" />
    <glyph glyph-name="ring" unicode="&#x2da;" horiz-adv-x="334" 
d="M65.5 579.5q-35.5 29.5 -35.5 75.5t35.5 75.5t101.5 29.5t101.5 -29.5t35.5 -75.5t-35.5 -75.5t-101.5 -29.5t-101.5 29.5zM209.5 627q14.5 11 14.5 28t-14.5 28t-42.5 11t-42.5 -11t-14.5 -28t14.5 -28t42.5 -11t42.5 11z" />
    <glyph glyph-name="ogonek" unicode="&#x2db;" horiz-adv-x="292" 
d="M65 -201q-35 22 -35 66q0 36 31 70t81 60v9l115 -4q-115 -58 -115 -104q0 -31 47 -31q38 0 73 8v-87q-50 -9 -100 -9q-62 0 -97 22z" />
    <glyph glyph-name="tilde" unicode="&#x2dc;" horiz-adv-x="465" 
d="M276.5 593.5q-23.5 10.5 -51.5 30.5q-17 13 -30 19.5t-26 6.5q-14 0 -21.5 -8t-7.5 -22v-32h-110v48q0 45 27 71t75 26q33 0 56.5 -10.5t51.5 -30.5q17 -13 30 -19.5t26 -6.5q14 0 21.5 8t7.5 22v32h110v-48q0 -45 -27 -71t-75 -26q-33 0 -56.5 10.5z" />
    <glyph glyph-name="hungarumlaut" unicode="&#x2dd;" horiz-adv-x="598" 
d="M52 568h-12l-10 55l215 115h43l10 -93zM322 568h-12l-10 55l215 115h43l10 -93z" />
    <glyph glyph-name="gravecomb" unicode="&#x300;" horiz-adv-x="0" 
d="M-40 568h-13l-285 52l10 118h40l258 -113z" />
    <glyph glyph-name="acutecomb" unicode="&#x301;" horiz-adv-x="0" 
d="M-315 568h-13l-10 57l258 113h40l10 -118z" />
    <glyph glyph-name="uni0302" unicode="&#x302;" horiz-adv-x="0" 
d="M-374 588h-136l166 142h148l166 -142h-136l-99 85h-10z" />
    <glyph glyph-name="tildecomb" unicode="&#x303;" horiz-adv-x="0" 
d="M-188.5 593.5q-23.5 10.5 -51.5 30.5q-17 13 -30 19.5t-26 6.5q-14 0 -21.5 -8t-7.5 -22v-32h-110v48q0 45 27 71t75 26q33 0 56.5 -10.5t51.5 -30.5q17 -13 30 -19.5t26 -6.5q14 0 21.5 8t7.5 22v32h110v-48q0 -45 -27 -71t-75 -26q-33 0 -56.5 10.5z" />
    <glyph glyph-name="uni0304" unicode="&#x304;" horiz-adv-x="0" 
d="M-30 610h-394v100h394v-100z" />
    <glyph glyph-name="uni0306" unicode="&#x306;" horiz-adv-x="0" 
d="M-378.5 627.5q-49.5 39.5 -49.5 105.5h110q1 -31 22 -47t67 -16t67 16t22 47h110q0 -66 -49.5 -105.5t-149.5 -39.5t-149.5 39.5z" />
    <glyph glyph-name="uni0307" unicode="&#x307;" horiz-adv-x="0" 
d="M-181 578q-25 23 -25 57t25 57t63 23t63 -23t25 -57t-25 -57t-63 -23t-63 23z" />
    <glyph glyph-name="uni0308" unicode="&#x308;" horiz-adv-x="0" 
d="M-402 582q-23 22 -23 53t23 53t56 22t56 -22t23 -53t-23 -53t-56 -22t-56 22zM-165 582q-23 22 -23 53t23 53t56 22t56 -22t23 -53t-23 -53t-56 -22t-56 22z" />
    <glyph glyph-name="uni030A" unicode="&#x30a;" horiz-adv-x="0" 
d="M-268.5 579.5q-35.5 29.5 -35.5 75.5t35.5 75.5t101.5 29.5t101.5 -29.5t35.5 -75.5t-35.5 -75.5t-101.5 -29.5t-101.5 29.5zM-124.5 627q14.5 11 14.5 28t-14.5 28t-42.5 11t-42.5 -11t-14.5 -28t14.5 -28t42.5 -11t42.5 11z" />
    <glyph glyph-name="uni030B" unicode="&#x30b;" horiz-adv-x="0" 
d="M-546 568h-12l-10 55l215 115h43l10 -93zM-276 568h-12l-10 55l215 115h43l10 -93z" />
    <glyph glyph-name="uni030C" unicode="&#x30c;" horiz-adv-x="0" 
d="M-196 588h-148l-166 142h136l99 -85h10l99 85h136z" />
    <glyph glyph-name="uni0326" unicode="&#x326;" horiz-adv-x="0" 
d="M-170 -288v75h20q74 0 74 57h-5q-10 -17 -37 -17q-26 0 -43 17t-17 45q0 29 19 47.5t49 18.5q36 0 58 -24.5t22 -74.5q0 -68 -34.5 -106t-89.5 -38h-16z" />
    <glyph glyph-name="uni0327" unicode="&#x327;" horiz-adv-x="0" 
d="M-138 -56q51 0 79.5 -25.5t28.5 -69.5q0 -46 -37.5 -74t-101.5 -28q-57 0 -109 15v77q50 -14 95 -14q53 0 53 28q0 26 -41 26h-77l-20 21l32 106l90 -6l-17 -56h25z" />
    <glyph glyph-name="uni0328" unicode="&#x328;" horiz-adv-x="0" 
d="M-227 -201q-35 22 -35 66q0 36 31 70t81 60v9l115 -4q-115 -58 -115 -104q0 -31 47 -31q38 0 73 8v-87q-50 -9 -100 -9q-62 0 -97 22z" />
    <glyph glyph-name="uni0400" unicode="&#x400;" horiz-adv-x="752" 
d="M225 303v-183h472v-120h-612v700h592v-120h-452v-177h412v-100h-412zM536 768h-13l-285 52l10 118h40l258 -113z" />
    <glyph glyph-name="uni0401" unicode="&#x401;" horiz-adv-x="752" 
d="M225 303v-183h472v-120h-612v700h592v-120h-452v-177h412v-100h-412zM206 797q-23 22 -23 53t23 53t56 22t56 -22t23 -53t-23 -53t-56 -22t-56 22zM443 797q-23 22 -23 53t23 53t56 22t56 -22t23 -53t-23 -53t-56 -22t-56 22z" />
    <glyph glyph-name="uni0402" unicode="&#x402;" horiz-adv-x="1000" 
d="M880 373.5q75 -56.5 75 -159.5q0 -104 -73 -164t-216 -60q-54 0 -99 8v120q37 -8 86 -8q80 0 117 30t37 82q0 46 -41 74t-128 28q-65 0 -124.5 -9t-121.5 -32v-283h-140v580h-232v120h640v-120h-268v-190q71 21 130.5 30.5t123.5 9.5q159 0 234 -56.5z" />
    <glyph glyph-name="uni0403" unicode="&#x403;" horiz-adv-x="720" 
d="M225 0h-140v700h615v-125h-475v-575zM271 768h-13l-10 57l258 113h40l10 -118z" />
    <glyph glyph-name="uni0404" unicode="&#x404;" horiz-adv-x="887" 
d="M323 539q-80 -53 -100 -139h347v-100h-347q19 -85 96 -138.5t196 -53.5q86 0 159.5 25t112.5 55v-131q-40 -25 -116 -46t-164 -21q-136 0 -234.5 47t-150.5 129t-52 184q0 103 53 184.5t156 128.5t248 47q93 0 173 -23t122 -51v-133q-40 34 -119 61.5t-171 27.5
q-129 0 -209 -53z" />
    <glyph glyph-name="uni0405" unicode="&#x405;" horiz-adv-x="775" 
d="M221.5 12q-81.5 22 -121.5 49v137q43 -32 124.5 -57.5t171.5 -25.5q87 0 129 25t42 58q0 30 -26 48.5t-64.5 28t-109.5 22.5q-99 18 -161 37t-106.5 60.5t-44.5 113.5q0 54 36.5 100t113.5 74t194 28q94 0 175.5 -22.5t125.5 -50.5v-140q-43 34 -127 61t-181 27
q-66 0 -108.5 -13t-61.5 -32.5t-19 -39.5q0 -30 26 -49t65.5 -29.5t110.5 -23.5q98 -18 160 -36.5t106 -60.5t44 -113q0 -53 -34.5 -98t-105.5 -72.5t-177 -27.5q-95 0 -176.5 22z" />
    <glyph glyph-name="uni0406" unicode="&#x406;" horiz-adv-x="760" 
d="M720 700v-120h-270v-460h270v-120h-680v120h270v460h-270v120h680z" />
    <glyph glyph-name="uni0407" unicode="&#x407;" horiz-adv-x="760" 
d="M720 700v-120h-270v-460h270v-120h-680v120h270v460h-270v120h680zM205 797q-23 22 -23 53t23 53t56 22t56 -22t23 -53t-23 -53t-56 -22t-56 22zM442 797q-23 22 -23 53t23 53t56 22t56 -22t23 -53t-23 -53t-56 -22t-56 22z" />
    <glyph glyph-name="uni0408" unicode="&#x408;" horiz-adv-x="595" 
d="M15 18v128q96 -31 180 -31q82 0 128.5 39t46.5 117v429h140v-429q0 -139 -81 -210t-227 -71q-87 0 -187 28z" />
    <glyph glyph-name="uni0409" unicode="&#x409;" horiz-adv-x="1288" 
d="M955 435q146 0 217 -57.5t71 -159.5q0 -103 -70.5 -160.5t-217.5 -57.5h-385v575h-295l-4 -110q-4 -112 -23 -206.5t-45 -160.5t-51 -98h-147v12q27 32 54.5 96t47.5 156.5t24 200.5l8 235h571v-265h245zM953 120q72 0 107 28t35 77t-35 77t-107 28h-243v-210h243z" />
    <glyph glyph-name="uni040A" unicode="&#x40a;" horiz-adv-x="1352" 
d="M1022 430q144 0 214.5 -57t70.5 -158t-70.5 -158t-214.5 -57h-387v325h-410v-325h-140v700h140v-270h410v270h140v-270h247zM1020 120q71 0 105.5 27.5t34.5 75.5q0 47 -34.5 74.5t-105.5 27.5h-245v-205h245z" />
    <glyph glyph-name="uni040B" unicode="&#x40b;" horiz-adv-x="1007" 
d="M863 358.5q89 -71.5 89 -206.5v-152h-140v146q0 85 -55 124.5t-147 39.5q-60 0 -112 -8.5t-106 -30.5v-271h-140v580h-232v120h640v-120h-268v-190q114 40 231 40q151 0 240 -71.5z" />
    <glyph glyph-name="uni040C" unicode="&#x40c;" horiz-adv-x="802" 
d="M225 0h-140v700h140v-307h2l405 307h190l-430 -332v-5l400 -363h-186l-379 338h-2v-338zM301 768h-13l-10 57l258 113h40l10 -118z" />
    <glyph glyph-name="uni040D" unicode="&#x40d;" horiz-adv-x="867" 
d="M272 0h-187v700h140v-543h5l365 543h187v-700h-140v543h-5zM578 768h-13l-285 52l10 118h40l258 -113z" />
    <glyph glyph-name="uni040E" unicode="&#x40e;" horiz-adv-x="775" 
d="M636 700h154l-290 -531q-53 -97 -115.5 -138t-157.5 -41q-33 0 -53 2t-52 8v99q24 -3 43 -4.5t42 -1.5q40 0 74.5 13.5t51.5 38.5l2 2l-335 553h158l248 -412h7zM234.5 811.5q-54.5 44.5 -54.5 118.5h112q1 -33 26 -51.5t77 -18.5t77 18.5t26 51.5h112
q0 -74 -54.5 -118.5t-160.5 -44.5t-160.5 44.5z" />
    <glyph glyph-name="uni040F" unicode="&#x40f;" horiz-adv-x="887" 
d="M524 -183h-161v48l22 115v20h-300v700h140v-575h437v575h140v-700h-300v-20l22 -115v-48z" />
    <glyph glyph-name="uni0410" unicode="&#x410;" horiz-adv-x="878" 
d="M878 0h-152l-83 168h-408l-83 -168h-152l351 700h176zM436 572l-151 -304h308l-151 304h-6z" />
    <glyph glyph-name="uni0411" unicode="&#x411;" horiz-adv-x="807" 
d="M475 425q141 0 211.5 -56t70.5 -151q0 -98 -73.5 -158t-213.5 -60h-385v700h609v-120h-469v-155h250zM462 120q74 0 110.5 28t36.5 75q0 46 -36.5 74t-110.5 28h-237v-205h237z" />
    <glyph glyph-name="uni0412" unicode="&#x412;" horiz-adv-x="837" 
d="M547 345q103 0 156.5 -44.5t53.5 -117.5q0 -82 -67 -132.5t-203 -50.5h-402v700h412q95 0 157.5 -24t92.5 -64.5t30 -91.5q0 -77 -57.5 -122.5t-172.5 -45.5v-7zM225 580v-182h262q74 0 108 25t34 67q0 41 -34.5 65.5t-107.5 24.5h-262zM467 120q76 0 109 23.5t33 66.5
q0 88 -142 88h-242v-178h242z" />
    <glyph glyph-name="uni0413" unicode="&#x413;" horiz-adv-x="720" 
d="M225 0h-140v700h615v-125h-475v-575z" />
    <glyph glyph-name="uni0414" unicode="&#x414;" horiz-adv-x="870" 
d="M747 120h98v-303h-140v183h-560v-183h-140v303h78q18 20 36.5 71t31 132t12.5 184v193h584v-580zM235 120h372v460h-304v-78q0 -141 -21.5 -240.5t-46.5 -136.5v-5z" />
    <glyph glyph-name="uni0415" unicode="&#x415;" horiz-adv-x="752" 
d="M225 303v-183h472v-120h-612v700h592v-120h-452v-177h412v-100h-412z" />
    <glyph glyph-name="uni0416" unicode="&#x416;" horiz-adv-x="1236" 
d="M188 0h-183l377 362v5l-402 333h190l375 -310h3v310h140v-310h3l375 310h190l-402 -333v-5l377 -362h-183l-357 343h-3v-343h-140v343h-3z" />
    <glyph glyph-name="uni0417" unicode="&#x417;" horiz-adv-x="770" 
d="M202.5 10q-78.5 20 -117.5 45v133q39 -30 116 -55t164 -25q103 0 150 27.5t47 67.5q0 47 -48 73.5t-169 26.5h-139v100h139q112 0 162 26t50 66q0 42 -48 69.5t-157 27.5q-87 0 -164.5 -25.5t-122.5 -57.5v133q44 26 124.5 47t175.5 21q116 0 192.5 -27t112 -70.5
t35.5 -94.5q0 -91 -63.5 -122.5t-128.5 -37.5v-6q62 -6 129.5 -41.5t67.5 -127.5q0 -50 -36 -94t-112.5 -71.5t-191.5 -27.5q-89 0 -167.5 20z" />
    <glyph glyph-name="uni0418" unicode="&#x418;" horiz-adv-x="867" 
d="M272 0h-187v700h140v-543h5l365 543h187v-700h-140v543h-5z" />
    <glyph glyph-name="uni0419" unicode="&#x419;" horiz-adv-x="867" 
d="M272 0h-187v700h140v-543h5l365 543h187v-700h-140v543h-5zM273.5 811.5q-54.5 44.5 -54.5 118.5h112q1 -33 26 -51.5t77 -18.5t77 18.5t26 51.5h112q0 -74 -54.5 -118.5t-160.5 -44.5t-160.5 44.5z" />
    <glyph glyph-name="uni041A" unicode="&#x41a;" horiz-adv-x="802" 
d="M225 0h-140v700h140v-307h2l405 307h190l-430 -332v-5l400 -363h-186l-379 338h-2v-338z" />
    <glyph glyph-name="uni041B" unicode="&#x41b;" horiz-adv-x="823" 
d="M5 12q27 32 54.5 96t47.5 156.5t24 200.5l8 235h599v-700h-140v575h-323l-4 -110q-4 -112 -23 -206.5t-45 -160.5t-51 -98h-147v12z" />
    <glyph glyph-name="uni041C" unicode="&#x41c;" horiz-adv-x="1110" 
d="M880 571l-325 -596l-325 596h-5v-571h-140v700h220l252 -472h5l247 472h216v-700h-140v571h-5z" />
    <glyph glyph-name="uni041D" unicode="&#x41d;" horiz-adv-x="890" 
d="M665 415v285h140v-700h-140v290h-440v-290h-140v700h140v-285h440z" />
    <glyph glyph-name="uni041E" unicode="&#x41e;" horiz-adv-x="1064" 
d="M280 37q-104 47 -157 128.5t-53 184.5t53 184.5t157 128.5t252 47t252 -47t157 -128.5t53 -184.5t-53 -184.5t-157 -128.5t-252 -47t-252 47zM702 140q71 32 107.5 87t36.5 123t-36.5 123t-107.5 87t-170 32t-170 -32t-107.5 -87t-36.5 -123t36.5 -123t107.5 -87t170 -32
t170 32z" />
    <glyph glyph-name="uni041F" unicode="&#x41f;" horiz-adv-x="887" 
d="M225 0h-140v700h717v-700h-140v575h-437v-575z" />
    <glyph glyph-name="uni0420" unicode="&#x420;" horiz-adv-x="830" 
d="M492 700q144 0 218.5 -63t74.5 -172t-74.5 -172t-218.5 -63h-267v-230h-140v700h407zM487 350q74 0 112 31.5t38 83.5t-38 83.5t-112 31.5h-262v-230h262z" />
    <glyph glyph-name="uni0421" unicode="&#x421;" horiz-adv-x="887" 
d="M272.5 37q-98.5 47 -150.5 129t-52 184q0 103 53 184.5t156 128.5t248 47q93 0 173 -23t122 -51v-133q-40 34 -119 61.5t-171 27.5q-99 0 -170 -32t-107.5 -87t-36.5 -123q0 -67 35.5 -122.5t103 -87.5t158.5 -32q88 0 163 23t114 51v-130q-40 -23 -117 -42.5t-168 -19.5
q-136 0 -234.5 47z" />
    <glyph glyph-name="uni0422" unicode="&#x422;" horiz-adv-x="740" 
d="M20 700h700v-125h-280v-575h-140v575h-280v125z" />
    <glyph glyph-name="uni0423" unicode="&#x423;" horiz-adv-x="775" 
d="M636 700h154l-290 -531q-53 -97 -115.5 -138t-157.5 -41q-33 0 -53 2t-52 8v99q24 -3 43 -4.5t42 -1.5q40 0 74.5 13.5t51.5 38.5l2 2l-335 553h158l248 -412h7z" />
    <glyph glyph-name="uni0424" unicode="&#x424;" horiz-adv-x="1150" 
d="M777 620q100 0 172 -34t109 -94.5t37 -138.5t-37 -139t-109 -95t-172 -34h-132v-95h-140v95h-132q-100 0 -172 34t-109 95t-37 139t37 138.5t109 94.5t172 34h132v90h140v-90h132zM505 205v295h-130q-84 0 -128 -39.5t-44 -107.5q0 -69 44 -108.5t128 -39.5h130zM775 205
q84 0 128 39.5t44 108.5q0 68 -44 107.5t-128 39.5h-130v-295h130z" />
    <glyph glyph-name="uni0425" unicode="&#x425;" horiz-adv-x="764" 
d="M163 0h-168l304 360l-291 340h168l204 -246h5l203 246h168l-291 -340l304 -360h-168l-217 262h-5z" />
    <glyph glyph-name="uni0426" unicode="&#x426;" horiz-adv-x="898" 
d="M873 -183h-140v183h-648v700h140v-575h410v575h140v-575h98v-308z" />
    <glyph glyph-name="uni0427" unicode="&#x427;" horiz-adv-x="865" 
d="M640 700h140v-700h-140v267q-119 -42 -236 -42q-151 0 -240 71.5t-89 206.5v197h140v-186q0 -85 55 -124.5t147 -39.5q60 0 113.5 9.5t109.5 31.5v309z" />
    <glyph glyph-name="uni0428" unicode="&#x428;" horiz-adv-x="1164" 
d="M1079 0h-994v700h140v-575h287v575h140v-575h287v575h140v-700z" />
    <glyph glyph-name="uni0429" unicode="&#x429;" horiz-adv-x="1202" 
d="M1177 -183h-140v183h-952v700h140v-575h287v575h140v-575h287v575h140v-575h98v-308z" />
    <glyph glyph-name="uni042A" unicode="&#x42a;" horiz-adv-x="895" 
d="M170 0v575h-160v125h300v-244h250q146 0 218 -60t72 -168t-72 -168t-218 -60h-390zM557 120q74 0 109.5 28.5t35.5 79.5t-35.5 79.5t-109.5 28.5h-247v-216h247z" />
    <glyph glyph-name="uni042B" unicode="&#x42b;" horiz-adv-x="1055" 
d="M85 0v700h140v-244h240q146 0 218 -60t72 -168t-72 -168t-218 -60h-380zM970 0h-140v700h140v-700zM462 120q74 0 109.5 28.5t35.5 79.5t-35.5 79.5t-109.5 28.5h-237v-216h237z" />
    <glyph glyph-name="uni042C" unicode="&#x42c;" horiz-adv-x="837" 
d="M85 0v700h140v-244h277q146 0 218 -60t72 -168t-72 -168t-218 -60h-417zM500 120q73 0 108.5 28.5t35.5 79.5t-35.5 79.5t-108.5 28.5h-275v-216h275z" />
    <glyph glyph-name="uni042D" unicode="&#x42d;" horiz-adv-x="882" 
d="M603 663q103 -47 156 -128.5t53 -184.5q0 -102 -52 -184t-151 -129t-235 -47q-90 0 -168 19.5t-116 42.5v130q38 -28 114 -51t163 -23q119 0 196 53.5t96 138.5h-347v100h347q-20 86 -100.5 139t-209.5 53q-92 0 -170.5 -27.5t-118.5 -61.5v133q42 28 121.5 51t172.5 23
q146 0 249 -47z" />
    <glyph glyph-name="uni042E" unicode="&#x42e;" horiz-adv-x="1265" 
d="M994 663q98 -47 149.5 -129t51.5 -184t-51.5 -184t-149.5 -129t-232 -47q-124 0 -217 40.5t-147.5 112t-65.5 162.5h-107v-305h-140v700h140v-295h108q13 88 68 157.5t147.5 108.5t213.5 39q134 0 232 -47zM913 140q65 32 99.5 87.5t34.5 122.5t-34.5 122.5t-99.5 87.5
t-151 32t-151 -32t-99.5 -87.5t-34.5 -122.5t34.5 -122.5t99.5 -87.5t151 -32t151 32z" />
    <glyph glyph-name="uni042F" unicode="&#x42f;" horiz-adv-x="843" 
d="M758 700v-700h-140v243h-199l-171 -243h-164l177 252q-51 7 -98.5 33.5t-77.5 73.5t-30 111q0 67 33 119t97.5 81.5t157.5 29.5h415zM618 343v237h-260q-76 0 -115.5 -32.5t-39.5 -86.5q0 -53 39.5 -85.5t115.5 -32.5h260z" />
    <glyph glyph-name="uni0430" unicode="&#x430;" horiz-adv-x="713" 
d="M95 34.5q-55 44.5 -55 115.5q0 79 66 126t209 47q84 0 127 7t57 18.5t14 28.5q0 29 -38.5 48.5t-131.5 19.5q-75 0 -148.5 -20.5t-116.5 -46.5v122q37 23 112 41.5t163 18.5q300 0 300 -190v-370h-140v85h-3q-33 -36 -102 -65.5t-155 -29.5q-103 0 -158 44.5zM433 122.5
q56 22.5 80 50.5v106q-20 -12 -58 -20.5t-127 -10.5q-76 -1 -109.5 -22t-33.5 -54q0 -31 29.5 -51.5t88.5 -20.5q74 0 130 22.5z" />
    <glyph glyph-name="uni0431" unicode="&#x431;" horiz-adv-x="790" 
d="M137 69q-87 79 -87 227v30q0 172 82.5 267t244.5 95h120h196h18v-115h-26h-170h-142q-97 0 -143 -51.5t-51 -140.5h6q5 0 21 13q37 29 86 49t131 20q106 0 178.5 -30.5t108 -83t35.5 -119.5q0 -69 -37.5 -123t-115.5 -85.5t-194 -31.5q-174 0 -261 79zM547 142.5
q53 37.5 53 99.5t-53 99t-150 37q-96 0 -149 -37t-53 -99t53 -99.5t149 -37.5q97 0 150 37.5z" />
    <glyph glyph-name="uni0432" unicode="&#x432;" horiz-adv-x="707" 
d="M482 260q86 -1 130.5 -34.5t44.5 -84.5q0 -61 -54.5 -101t-162.5 -40h-375v550h357q119 0 177 -42t58 -108q0 -36 -21 -66t-60.5 -48.5t-93.5 -19.5v-6zM205 445v-142h195q60 0 87.5 19.5t27.5 51.5t-27.5 51.5t-87.5 19.5h-195zM417 105q51 0 74.5 16t23.5 43t-23.5 43
t-74.5 16h-212v-118h212z" />
    <glyph glyph-name="uni0433" unicode="&#x433;" horiz-adv-x="572" 
d="M205 0h-140v550h492v-115h-352v-435z" />
    <glyph glyph-name="uni0434" unicode="&#x434;" horiz-adv-x="732" 
d="M0 -153v263h70q24 34 43.5 111.5t19.5 180.5v148h502v-440h87v-263h-140v153h-442v-153h-140zM212 110h283v330h-223v-41q0 -92 -18.5 -168t-41.5 -115v-6z" />
    <glyph glyph-name="uni0435" unicode="&#x435;" horiz-adv-x="732" 
d="M212 28q-79 38 -120.5 102.5t-41.5 144.5t39.5 145t112.5 102.5t168 37.5q93 0 164 -37t109.5 -102t38.5 -146v-34h-491q13 -61 71 -98.5t153 -37.5q65 0 125 20t92 44v-121q-33 -22 -96 -40t-136 -18q-109 0 -188 38zM539 321q-8 56 -51 96t-116 40t-122 -38t-59 -98
h348z" />
    <glyph glyph-name="uni0436" unicode="&#x436;" horiz-adv-x="1006" 
d="M172 0h-179l301 283l-304 267h180l261 -235h2v235h140v-235h2l261 235h180l-304 -267l301 -283h-179l-259 252h-2v-252h-140v252h-2z" />
    <glyph glyph-name="uni0437" unicode="&#x437;" horiz-adv-x="635" 
d="M171.5 7q-69.5 17 -106.5 37v114q36 -22 99 -40t128 -18q85 0 119 17t34 50q0 32 -36 50t-127 18h-105v80h103q160 0 160 67q0 31 -35.5 49.5t-114.5 18.5q-72 0 -136.5 -15.5t-103.5 -34.5v111q42 18 110 33.5t147 15.5q93 0 154.5 -21.5t90 -56.5t28.5 -75
q0 -34 -22.5 -63t-64 -47t-96.5 -20v-6q89 -1 138.5 -36.5t49.5 -89.5q0 -42 -28 -77t-88 -56.5t-152 -21.5q-76 0 -145.5 17z" />
    <glyph glyph-name="uni0438" unicode="&#x438;" horiz-adv-x="727" 
d="M244 0h-179v550h140v-431h5l273 431h179v-550h-140v431h-5z" />
    <glyph glyph-name="uni0439" unicode="&#x439;" horiz-adv-x="727" 
d="M244 0h-179v550h140v-431h5l273 431h179v-550h-140v431h-5zM224 669q-46 39 -46 106h100q0 -63 82 -63t82 63h100q0 -67 -46 -106t-136 -39t-136 39z" />
    <glyph glyph-name="uni043A" unicode="&#x43a;" horiz-adv-x="670" 
d="M205 0h-140v550h140v-239h1l288 239h186l-330 -267l329 -283h-185l-288 255h-1v-255z" />
    <glyph glyph-name="uni043B" unicode="&#x43b;" horiz-adv-x="665" 
d="M0 7q31 38 58.5 135.5t31.5 230.5l5 177h505v-550h-140v435h-226l-4 -72q-8 -136 -32.5 -232t-51.5 -131h-146v7z" />
    <glyph glyph-name="uni043C" unicode="&#x43c;" horiz-adv-x="925" 
d="M715 419l-250 -445l-255 445h-5v-419h-140v550h209l190 -337h5l186 337h205v-550h-140v419h-5z" />
    <glyph glyph-name="uni043D" unicode="&#x43d;" horiz-adv-x="730" 
d="M525 340v210h140v-550h-140v225h-320v-225h-140v550h140v-210h320z" />
    <glyph glyph-name="uni043E" unicode="&#x43e;" horiz-adv-x="804" 
d="M212.5 27.5q-79.5 37.5 -121 102.5t-41.5 145t41.5 145t121 102.5t189.5 37.5t189.5 -37.5t121 -102.5t41.5 -145t-41.5 -145t-121 -102.5t-189.5 -37.5t-189.5 37.5zM554.5 148q54.5 48 54.5 127t-54.5 127t-152.5 48t-152.5 -48t-54.5 -127t54.5 -127t152.5 -48
t152.5 48z" />
    <glyph glyph-name="uni043F" unicode="&#x43f;" horiz-adv-x="727" 
d="M205 0h-140v550h597v-550h-140v435h-317v-435z" />
    <glyph glyph-name="uni0440" unicode="&#x440;" horiz-adv-x="782" 
d="M65 -190v740h140v-72h6q27 29 84.5 55.5t134.5 26.5q89 0 157.5 -37t106.5 -101.5t38 -146.5t-38 -146.5t-106.5 -101.5t-157.5 -37q-73 0 -132 25.5t-87 56.5h-6v-262h-140zM494.5 122.5q44.5 22.5 68.5 62t24 90.5t-24 90.5t-68.5 62t-104.5 22.5q-65 0 -114.5 -23
t-70.5 -52v-200q21 -29 70.5 -52t114.5 -23q60 0 104.5 22.5z" />
    <glyph glyph-name="uni0441" unicode="&#x441;" horiz-adv-x="682" 
d="M209 27.5q-77 37.5 -118 102.5t-41 145t42 145t121.5 102.5t187.5 37.5q73 0 136 -18.5t105 -42.5v-118q-43 29 -104 49t-130 20q-103 0 -158 -48t-55 -127t53.5 -127t149.5 -48q67 0 127.5 19t96.5 44v-118q-37 -21 -99 -38t-133 -17q-104 0 -181 37.5z" />
    <glyph glyph-name="uni0442" unicode="&#x442;" horiz-adv-x="644" 
d="M392 0h-140v435h-242v115h624v-115h-242v-435z" />
    <glyph glyph-name="uni0443" unicode="&#x443;" horiz-adv-x="653" 
d="M298 -190h-143l118 242l-278 498h153l190 -350h5l170 350h145z" />
    <glyph glyph-name="uni0444" unicode="&#x444;" horiz-adv-x="995" 
d="M638 560q96 0 165.5 -35t106 -98t36.5 -147t-36.5 -147t-106 -98t-165.5 -35h-70v-190h-140v190h-70q-96 0 -165.5 35t-106 98t-36.5 147t36.5 147t106 98t165.5 35h70v160h140v-160h70zM428 110v340h-60q-82 0 -127.5 -45t-45.5 -125t45.5 -125t127.5 -45h60zM628 110
q82 0 127.5 45t45.5 125t-45.5 125t-127.5 45h-60v-340h60z" />
    <glyph glyph-name="uni0445" unicode="&#x445;" horiz-adv-x="632" 
d="M150 0h-155l242 278l-234 272h157l154 -178h6l156 178h155l-236 -269l242 -281h-157l-161 186h-6z" />
    <glyph glyph-name="uni0446" unicode="&#x446;" horiz-adv-x="739" 
d="M729 -153h-140v153h-524v550h140v-435h297v435h140v-435h87v-268z" />
    <glyph glyph-name="uni0447" unicode="&#x447;" horiz-adv-x="697" 
d="M492 550h140v-550h-140v177q-45 -12 -80.5 -17t-79.5 -5q-132 0 -204.5 61t-72.5 176v158h140v-156q0 -60 40 -92t111 -32t146 22v258z" />
    <glyph glyph-name="uni0448" unicode="&#x448;" horiz-adv-x="990" 
d="M925 0h-860v550h140v-435h220v435h140v-435h220v435h140v-550z" />
    <glyph glyph-name="uni0449" unicode="&#x449;" horiz-adv-x="1022" 
d="M1012 -153h-140v153h-807v550h140v-435h220v435h140v-435h220v435h140v-435h87v-268z" />
    <glyph glyph-name="uni044A" unicode="&#x44a;" horiz-adv-x="778" 
d="M498 368q117 0 178.5 -50.5t61.5 -133.5t-61.5 -133.5t-178.5 -50.5h-350v435h-148v115h288v-182h210zM483 105q55 0 82.5 21.5t27.5 57.5t-27.5 57.5t-82.5 21.5h-195v-158h195z" />
    <glyph glyph-name="uni044B" unicode="&#x44b;" horiz-adv-x="922" 
d="M412 368q117 0 178.5 -50.5t61.5 -133.5t-61.5 -133.5t-178.5 -50.5h-347v550h140v-182h207zM717 0v550h140v-550h-140zM397 105q55 0 82.5 21.5t27.5 57.5t-27.5 57.5t-82.5 21.5h-192v-158h192z" />
    <glyph glyph-name="uni044C" unicode="&#x44c;" horiz-adv-x="707" 
d="M427 368q117 0 178.5 -50.5t61.5 -133.5t-61.5 -133.5t-178.5 -50.5h-362v550h140v-182h222zM412 105q55 0 82.5 21.5t27.5 57.5t-27.5 57.5t-82.5 21.5h-207v-158h207z" />
    <glyph glyph-name="uni044D" unicode="&#x44d;" horiz-adv-x="688" 
d="M476 522.5q78 -37.5 120 -102.5t42 -145t-41 -145t-118.5 -102.5t-182.5 -37.5q-71 0 -133 17t-98 38v118q33 -24 93 -43.5t128 -19.5q86 0 139.5 37t65.5 100h-311v80h311q-14 61 -67 97t-138 36q-79 0 -141.5 -21t-99.5 -48v118q38 23 102.5 42t147.5 19
q103 0 181 -37.5z" />
    <glyph glyph-name="uni044E" unicode="&#x44e;" horiz-adv-x="995" 
d="M789 523q76 -37 116 -101.5t40 -146.5t-40 -146.5t-116 -101.5t-179 -37q-95 0 -167 31t-114 86.5t-51 127.5h-73v-235h-140v550h140v-235h73q9 72 51 127.5t114 86.5t167 31q103 0 179 -37zM750.5 147.5q49.5 47.5 49.5 127.5t-49.5 127.5t-140.5 47.5t-140.5 -47.5
t-49.5 -127.5t49.5 -127.5t140.5 -47.5t140.5 47.5z" />
    <glyph glyph-name="uni044F" unicode="&#x44f;" horiz-adv-x="687" 
d="M50 0l170 194v5q-42 3 -83.5 22t-69 56.5t-27.5 91.5q0 80 62 130.5t178 50.5h342v-550h-140v193h-104l-169 -193h-159zM482 273v172h-172q-63 0 -94 -23.5t-31 -62.5t31 -62.5t94 -23.5h172z" />
    <glyph glyph-name="uni0450" unicode="&#x450;" horiz-adv-x="732" 
d="M212 28q-79 38 -120.5 102.5t-41.5 144.5t39.5 145t112.5 102.5t168 37.5q93 0 164 -37t109.5 -102t38.5 -146v-34h-491q13 -61 71 -98.5t153 -37.5q65 0 125 20t92 44v-121q-33 -22 -96 -40t-136 -18q-109 0 -188 38zM539 321q-8 56 -51 96t-116 40t-122 -38t-59 -98
h348zM520 618h-13l-285 52l10 118h40l258 -113z" />
    <glyph glyph-name="uni0451" unicode="&#x451;" horiz-adv-x="732" 
d="M212 28q-79 38 -120.5 102.5t-41.5 144.5t39.5 145t112.5 102.5t168 37.5q93 0 164 -37t109.5 -102t38.5 -146v-34h-491q13 -61 71 -98.5t153 -37.5q65 0 125 20t92 44v-121q-33 -22 -96 -40t-136 -18q-109 0 -188 38zM539 321q-8 56 -51 96t-116 40t-122 -38t-59 -98
h348zM190 647q-23 22 -23 53t23 53t56 22t56 -22t23 -53t-23 -53t-56 -22t-56 22zM427 647q-23 22 -23 53t23 53t56 22t56 -22t23 -53t-23 -53t-56 -22t-56 22z" />
    <glyph glyph-name="uni0452" unicode="&#x452;" horiz-adv-x="745" 
d="M633 371.5q62 -58.5 62 -163.5v-207q0 -98 -50 -149.5t-149 -51.5q-53 0 -106 14v112q40 -11 79 -11q41 0 63.5 25t22.5 73v177q0 62 -37 97t-105 35q-65 0 -111.5 -30t-63.5 -66v-226h-140v505h-98v80h98v135h140v-135h217v-80h-217v-172h6q24 37 80 67t131 30
q116 0 178 -58.5z" />
    <glyph glyph-name="uni0453" unicode="&#x453;" horiz-adv-x="572" 
d="M205 0h-140v550h492v-115h-352v-435zM193 618h-13l-10 57l258 113h40l10 -118z" />
    <glyph glyph-name="uni0454" unicode="&#x454;" horiz-adv-x="682" 
d="M265.5 414q-52.5 -36 -66.5 -97h308v-80h-308q12 -63 64.5 -100t138.5 -37q67 0 127 19.5t93 43.5v-118q-36 -21 -97.5 -38t-132.5 -17q-105 0 -182.5 37.5t-118.5 102.5t-41 145t42 145t120 102.5t181 37.5q82 0 146.5 -19t102.5 -42v-118q-37 26 -99.5 47.5
t-140.5 21.5q-84 0 -136.5 -36z" />
    <glyph glyph-name="uni0455" unicode="&#x455;" horiz-adv-x="635" 
d="M176 9q-71 19 -106 41v121q37 -24 108 -45t145 -21q127 0 127 56q0 22 -20.5 35.5t-50 21t-86.5 16.5q-82 13 -133 27.5t-88 48.5t-37 93q0 43 29 78.5t92 57t160 21.5q82 0 158.5 -19t113.5 -42v-123q-42 26 -119.5 47.5t-152.5 21.5q-136 0 -136 -60q0 -28 36 -41
t114 -25q84 -14 136 -29t90.5 -50t38.5 -97q0 -39 -29 -74t-88.5 -57t-147.5 -22q-83 0 -154 19z" />
    <glyph glyph-name="uni0456" unicode="&#x456;" horiz-adv-x="270" 
d="M69 610q-24 20 -24 54t24 54t66 20t66 -20t24 -54t-24 -54t-66 -20t-66 20zM65 0v550h6h64h63h7v-550h-140z" />
    <glyph glyph-name="uni0457" unicode="&#x457;" horiz-adv-x="270" 
d="M205 0h-140v550h140v-550zM-40 647q-23 22 -23 53t23 53t56 22t56 -22t23 -53t-23 -53t-56 -22t-56 22zM197 647q-23 22 -23 53t23 53t56 22t56 -22t23 -53t-23 -53t-56 -22t-56 22z" />
    <glyph glyph-name="uni0458" unicode="&#x458;" horiz-adv-x="270" 
d="M69 610q-24 20 -24 54t24 54t66 20t66 -20t24 -54t-24 -54t-66 -20t-66 20zM-95 -186v112q40 -11 76 -11q39 0 61.5 25t22.5 73v537h6h64h63h7v-549q0 -98 -49.5 -149.5t-147.5 -51.5q-50 0 -103 14z" />
    <glyph glyph-name="uni0459" unicode="&#x459;" horiz-adv-x="1083" 
d="M810 352q76 0 128.5 -22.5t78.5 -60.5t26 -86q0 -83 -59.5 -133t-173.5 -50h-357v435h-219l-4 -72q-8 -136 -32.5 -232t-51.5 -131h-146v7q31 38 58.5 135.5t31.5 230.5l5 177h498v-198h217zM780 105q58 0 88 23t30 60t-30 60.5t-88 23.5h-187v-167h187z" />
    <glyph glyph-name="uni045A" unicode="&#x45a;" horiz-adv-x="1140" 
d="M872 338q111 0 169.5 -46t58.5 -119q0 -78 -58 -125.5t-170 -47.5h-362v258h-305v-258h-140v550h140v-212h305v212h140v-212h222zM847 105q52 0 80 21.5t28 54.5t-28 55t-80 22h-197v-153h197z" />
    <glyph glyph-name="uni045B" unicode="&#x45b;" horiz-adv-x="745" 
d="M633 371.5q62 -58.5 62 -163.5v-208h-140v190q0 62 -37 97t-105 35q-65 0 -111.5 -30t-63.5 -66v-226h-140v505h-98v80h98v135h140v-135h217v-80h-217v-172h6q24 37 80 67t131 30q116 0 178 -58.5z" />
    <glyph glyph-name="uni045C" unicode="&#x45c;" horiz-adv-x="670" 
d="M205 0h-140v550h140v-239h1l288 239h186l-330 -267l329 -283h-185l-288 255h-1v-255zM221 618h-13l-10 57l258 113h40l10 -118z" />
    <glyph glyph-name="uni045D" unicode="&#x45d;" horiz-adv-x="727" 
d="M244 0h-179v550h140v-431h5l273 431h179v-550h-140v431h-5zM515 618h-13l-285 52l10 118h40l258 -113z" />
    <glyph glyph-name="uni045E" unicode="&#x45e;" horiz-adv-x="653" 
d="M298 -190h-143l118 242l-278 498h153l190 -350h5l170 350h145zM192 669q-46 39 -46 106h100q0 -63 82 -63t82 63h100q0 -67 -46 -106t-136 -39t-136 39z" />
    <glyph glyph-name="uni045F" unicode="&#x45f;" horiz-adv-x="727" 
d="M441 -153h-155v40l20 100v13h-241v550h140v-435h317v435h140v-550h-241v-13l20 -100v-40z" />
    <glyph glyph-name="uni0490" unicode="&#x490;" horiz-adv-x="720" 
d="M225 0h-140v700h480l18 120h117v-245h-475v-575z" />
    <glyph glyph-name="uni0491" unicode="&#x491;" horiz-adv-x="572" 
d="M205 0h-140v550h355l25 105h112v-220h-352v-435z" />
    <glyph glyph-name="uni0492" unicode="&#x492;" horiz-adv-x="750" 
d="M725 700v-125h-475v-187h357v-100h-357v-288h-140v288h-100v100h100v312h615z" />
    <glyph glyph-name="uni0493" unicode="&#x493;" horiz-adv-x="604" 
d="M579 550v-115h-352v-125h243v-80h-243v-230h-140v230h-82v80h82v240h492z" />
    <glyph glyph-name="uni0494" unicode="&#x494;" horiz-adv-x="832" 
d="M410 -150v99q19 -4 46 -4q86 0 137 49.5t51 135.5q0 82 -52.5 131t-146.5 49q-75 0 -134 -34.5t-86 -77.5v-198h-140v700h615v-125h-475v-259h6q32 43 103 77.5t161 34.5q91 0 158.5 -35t103 -99.5t35.5 -150.5q0 -87 -40 -155t-113 -105.5t-168 -37.5q-34 0 -61 5z" />
    <glyph glyph-name="uni0495" unicode="&#x495;" horiz-adv-x="717" 
d="M317 -186v73q16 -2 38 -2q86 0 136.5 51t50.5 139q0 81 -44 125.5t-119 44.5q-59 0 -106 -27.5t-68 -61.5v-156h-140v550h492v-80h-352v-211h6q26 36 84 65t132 29q79 0 138 -31.5t90.5 -90.5t31.5 -138q0 -82 -38.5 -146.5t-111 -100.5t-171.5 -36q-29 0 -49 4z" />
    <glyph glyph-name="uni0496" unicode="&#x496;" horiz-adv-x="1241" 
d="M188 0h-183l377 362v5l-402 333h190l375 -310h3v310h140v-310h3l375 310h190l-402 -333v-5l247 -237h117v-308h-140v183h-30l-357 343h-3v-343h-140v343h-3z" />
    <glyph glyph-name="uni0497" unicode="&#x497;" horiz-adv-x="1016" 
d="M172 0h-179l301 283l-304 267h180l261 -235h2v235h140v-235h2l261 235h180l-304 -267l179 -168h107v-268h-140v153h-24l-259 252h-2v-252h-140v252h-2z" />
    <glyph glyph-name="uni049A" unicode="&#x49a;" horiz-adv-x="807" 
d="M225 0h-140v700h140v-307h2l405 307h190l-430 -332v-5l262 -238h115v-308h-140v183h-23l-379 338h-2v-338z" />
    <glyph glyph-name="uni049B" unicode="&#x49b;" horiz-adv-x="680" 
d="M205 0h-140v550h140v-239h1l288 239h186l-330 -267l196 -168h110v-268h-140v153h-22l-288 255h-1v-255z" />
    <glyph glyph-name="uni049C" unicode="&#x49c;" horiz-adv-x="807" 
d="M817 700l-265 -332v-5l235 -363h-162l-204 315h-51v-120h-85v120h-60v-315h-140v700h140v-285h60v120h85v-120h60l227 285h160z" />
    <glyph glyph-name="uni049D" unicode="&#x49d;" horiz-adv-x="690" 
d="M536 550h154l-215 -267l215 -283h-154l-184 242h-30v-109h-75v109h-42v-242h-140v550h140v-228h42v108h75v-108h31z" />
    <glyph glyph-name="uni04A2" unicode="&#x4a2;" horiz-adv-x="928" 
d="M805 700v-575h98v-308h-140v183h-98v290h-440v-290h-140v700h140v-285h440v285h140z" />
    <glyph glyph-name="uni04A3" unicode="&#x4a3;" horiz-adv-x="762" 
d="M665 550v-435h87v-268h-140v153h-87v225h-320v-225h-140v550h140v-210h320v210h140z" />
    <glyph glyph-name="uni04AA" unicode="&#x4aa;" horiz-adv-x="887" 
d="M362 560q-71 -32 -107.5 -87t-36.5 -123q0 -67 35.5 -122.5t103 -87.5t158.5 -32q88 0 163 23t114 51v-130q-32 -18 -90 -35.5t-128 -23.5v-183h-140v184q-114 12 -196 61.5t-125 125.5t-43 169q0 103 53 184.5t156 128.5t248 47q93 0 173 -23t122 -51v-133
q-40 34 -119 61.5t-171 27.5q-99 0 -170 -32z" />
    <glyph glyph-name="uni04AB" unicode="&#x4ab;" horiz-adv-x="682" 
d="M250 402q-55 -48 -55 -127t53.5 -127t149.5 -48q67 0 127.5 19t96.5 44v-118q-27 -16 -69.5 -30t-92.5 -20v-155h-140v155q-84 12 -145 51t-93 98.5t-32 130.5q0 80 42 145t121.5 102.5t187.5 37.5q73 0 136 -18.5t105 -42.5v-118q-43 29 -104 49t-130 20
q-103 0 -158 -48z" />
    <glyph glyph-name="uni04AE" unicode="&#x4ae;" horiz-adv-x="820" 
d="M480 0h-140v155l-360 545h156l271 -415h6l271 415h156l-360 -545v-155z" />
    <glyph glyph-name="uni04AF" unicode="&#x4af;" horiz-adv-x="662" 
d="M261 0l-266 550h144l191 -406h6l191 406h140l-266 -550v-190h-140v190z" />
    <glyph glyph-name="uni04B0" unicode="&#x4b0;" horiz-adv-x="820" 
d="M684 700h156l-294 -445h146v-100h-212v-155h-140v155h-212v100h146l-294 445h156l271 -415h6z" />
    <glyph glyph-name="uni04B1" unicode="&#x4b1;" horiz-adv-x="662" 
d="M527 550h140l-223 -470h118v-80h-161v-190h-140v190h-161v80h118l-223 470h144l191 -416h6z" />
    <glyph glyph-name="uni04B2" unicode="&#x4b2;" horiz-adv-x="766" 
d="M163 0h-168l304 360l-291 340h168l204 -246h5l203 246h168l-291 -340l198 -235h108v-308h-140v183h-30l-217 262h-5z" />
    <glyph glyph-name="uni04B3" unicode="&#x4b3;" horiz-adv-x="644" 
d="M150 0h-155l242 278l-234 272h157l154 -178h6l156 178h155l-236 -269l143 -166h106v-268h-140v153h-24l-161 186h-6z" />
    <glyph glyph-name="uni04B6" unicode="&#x4b6;" horiz-adv-x="903" 
d="M738 -183v183h-98v267q-119 -42 -236 -42q-151 0 -240 71.5t-89 206.5v197h140v-186q0 -85 55 -124.5t147 -39.5q60 0 113.5 9.5t109.5 31.5v309h140v-575h98v-308h-140z" />
    <glyph glyph-name="uni04B7" unicode="&#x4b7;" horiz-adv-x="729" 
d="M579 -153v153h-87v177q-45 -12 -80.5 -17t-79.5 -5q-132 0 -204.5 61t-72.5 176v158h140v-156q0 -60 40 -92t111 -32t146 22v258h140v-435h87v-268h-140z" />
    <glyph glyph-name="uni04B8" unicode="&#x4b8;" horiz-adv-x="865" 
d="M640 700h140v-700h-140v267q-82 -29 -162 -38v-131h-95v127q-142 5 -225 76.5t-83 201.5v197h140v-186q0 -77 45 -116.5t123 -46.5v147h95v-146q85 8 162 39v309z" />
    <glyph glyph-name="uni04B9" unicode="&#x4b9;" horiz-adv-x="697" 
d="M492 550h140v-550h-140v177q-55 -15 -102 -19v-93h-81v91q-121 5 -187.5 66t-66.5 170v158h140v-156q0 -52 29.5 -83t84.5 -39v121h81v-121q51 5 102 20v258z" />
    <glyph glyph-name="uni04BA" unicode="&#x4ba;" horiz-adv-x="845" 
d="M701 413.5q89 -71.5 89 -206.5v-207h-140v196q0 85 -55 124.5t-147 39.5q-60 0 -113.5 -9.5t-109.5 -31.5v-319h-140v700h140v-257q119 42 236 42q151 0 240 -71.5z" />
    <glyph glyph-name="uni04BB" unicode="&#x4bb;" horiz-adv-x="722" 
d="M65 0v720h140v-257h6q24 37 80 67t131 30q116 0 178 -58.5t62 -161.5v-340h-140v323q0 60 -37 94.5t-105 34.5q-65 0 -111.5 -30t-63.5 -66v-356h-140z" />
    <glyph glyph-name="uni04C1" unicode="&#x4c1;" horiz-adv-x="1236" 
d="M188 0h-183l377 362v5l-402 333h190l375 -310h3v310h140v-310h3l375 310h190l-402 -333v-5l377 -362h-183l-357 343h-3v-343h-140v343h-3zM457.5 811.5q-54.5 44.5 -54.5 118.5h112q1 -33 26 -51.5t77 -18.5t77 18.5t26 51.5h112q0 -74 -54.5 -118.5t-160.5 -44.5
t-160.5 44.5z" />
    <glyph glyph-name="uni04C2" unicode="&#x4c2;" horiz-adv-x="1006" 
d="M172 0h-179l301 283l-304 267h180l261 -235h2v235h140v-235h2l261 235h180l-304 -267l301 -283h-179l-259 252h-2v-252h-140v252h-2zM367 669q-46 39 -46 106h100q0 -63 82 -63t82 63h100q0 -67 -46 -106t-136 -39t-136 39z" />
    <glyph glyph-name="uni04D2" unicode="&#x4d2;" horiz-adv-x="878" 
d="M878 0h-152l-83 168h-408l-83 -168h-152l351 700h176zM436 572l-151 -304h308l-151 304h-6zM264 797q-23 22 -23 53t23 53t56 22t56 -22t23 -53t-23 -53t-56 -22t-56 22zM501 797q-23 22 -23 53t23 53t56 22t56 -22t23 -53t-23 -53t-56 -22t-56 22z" />
    <glyph glyph-name="uni04D3" unicode="&#x4d3;" horiz-adv-x="713" 
d="M95 34.5q-55 44.5 -55 115.5q0 79 66 126t209 47q84 0 127 7t57 18.5t14 28.5q0 29 -38.5 48.5t-131.5 19.5q-75 0 -148.5 -20.5t-116.5 -46.5v122q37 23 112 41.5t163 18.5q300 0 300 -190v-370h-140v85h-3q-33 -36 -102 -65.5t-155 -29.5q-103 0 -158 44.5zM433 122.5
q56 22.5 80 50.5v106q-20 -12 -58 -20.5t-127 -10.5q-76 -1 -109.5 -22t-33.5 -54q0 -31 29.5 -51.5t88.5 -20.5q74 0 130 22.5zM180 647q-23 22 -23 53t23 53t56 22t56 -22t23 -53t-23 -53t-56 -22t-56 22zM417 647q-23 22 -23 53t23 53t56 22t56 -22t23 -53t-23 -53
t-56 -22t-56 22z" />
    <glyph glyph-name="uni04D8" unicode="&#x4d8;" horiz-adv-x="1025" 
d="M745 662.5q103 -47.5 156.5 -129t53.5 -183.5t-52 -184t-152 -129t-239 -47q-137 0 -237 48t-152.5 130.5t-52.5 186.5v38h733q-16 90 -98 144.5t-225 54.5q-100 0 -193 -22.5t-150 -50.5v128q57 24 154.5 43.5t205.5 19.5q145 0 248 -47.5zM706 158.5q75 50.5 95 134.5
h-581q18 -81 93 -133t199 -52q119 0 194 50.5z" />
    <glyph glyph-name="uni04D9" unicode="&#x4d9;" horiz-adv-x="782" 
d="M567 522q81 -38 123 -102.5t42 -144.5t-41 -145t-118 -102.5t-181 -37.5q-105 0 -182.5 37.5t-118.5 102.5t-41 145v32h533q-14 61 -72.5 99.5t-150.5 38.5q-73 0 -142.5 -20t-112.5 -44v123q45 21 118.5 38.5t151.5 17.5q111 0 192 -38zM518.5 129q50.5 36 63.5 98h-386
q13 -61 61.5 -97.5t132.5 -36.5q78 0 128.5 36z" />
    <glyph glyph-name="uni04E0" unicode="&#x4e0;" horiz-adv-x="752" 
d="M181 10.5q-82 20.5 -126 45.5v134q49 -31 128.5 -56.5t158.5 -25.5q109 0 160.5 31.5t51.5 78.5q0 46 -50 78t-153 32q-59 0 -107 -7.5t-71 -17.5v101l278 163v8h-416v125h660v-90l-310 -182v-8q106 0 177 -28t105.5 -75.5t34.5 -106.5q0 -98 -84.5 -159t-260.5 -61
q-94 0 -176 20.5z" />
    <glyph glyph-name="uni04E1" unicode="&#x4e1;" horiz-adv-x="675" 
d="M152.5 -182.5q-76.5 17.5 -114.5 38.5v128q39 -25 111 -44.5t151 -19.5q106 0 157 33.5t51 81.5q0 49 -49 82t-149 33q-52 0 -96.5 -8.5t-68.5 -18.5v92l273 209v6h-383v120h585v-82l-291 -223v-10h18q99 0 167.5 -28.5t102 -76t33.5 -106.5q0 -62 -36.5 -112.5t-111 -81
t-182.5 -30.5q-91 0 -167.5 17.5z" />
    <glyph glyph-name="uni04E2" unicode="&#x4e2;" horiz-adv-x="867" 
d="M272 0h-187v700h140v-543h5l365 543h187v-700h-140v543h-5zM631 800h-394v100h394v-100z" />
    <glyph glyph-name="uni04E3" unicode="&#x4e3;" horiz-adv-x="727" 
d="M244 0h-179v550h140v-431h5l273 431h179v-550h-140v431h-5zM557 650h-394v100h394v-100z" />
    <glyph glyph-name="uni04E6" unicode="&#x4e6;" horiz-adv-x="1064" 
d="M280 37q-104 47 -157 128.5t-53 184.5t53 184.5t157 128.5t252 47t252 -47t157 -128.5t53 -184.5t-53 -184.5t-157 -128.5t-252 -47t-252 47zM702 140q71 32 107.5 87t36.5 123t-36.5 123t-107.5 87t-170 32t-170 -32t-107.5 -87t-36.5 -123t36.5 -123t107.5 -87t170 -32
t170 32zM357 797q-23 22 -23 53t23 53t56 22t56 -22t23 -53t-23 -53t-56 -22t-56 22zM594 797q-23 22 -23 53t23 53t56 22t56 -22t23 -53t-23 -53t-56 -22t-56 22z" />
    <glyph glyph-name="uni04E7" unicode="&#x4e7;" horiz-adv-x="804" 
d="M212.5 27.5q-79.5 37.5 -121 102.5t-41.5 145t41.5 145t121 102.5t189.5 37.5t189.5 -37.5t121 -102.5t41.5 -145t-41.5 -145t-121 -102.5t-189.5 -37.5t-189.5 37.5zM554.5 148q54.5 48 54.5 127t-54.5 127t-152.5 48t-152.5 -48t-54.5 -127t54.5 -127t152.5 -48
t152.5 48zM227 647q-23 22 -23 53t23 53t56 22t56 -22t23 -53t-23 -53t-56 -22t-56 22zM464 647q-23 22 -23 53t23 53t56 22t56 -22t23 -53t-23 -53t-56 -22t-56 22z" />
    <glyph glyph-name="uni04E8" unicode="&#x4e8;" horiz-adv-x="1064" 
d="M784 663q104 -47 157 -128.5t53 -184.5t-53 -184.5t-157 -128.5t-252 -47t-252 47t-157 128.5t-53 184.5t53 184.5t157 128.5t252 47t252 -47zM323 539q-80 -53 -100 -139h618q-20 86 -100 139t-209 53t-209 -53zM741 161q80 53 100 139h-618q20 -86 100 -139t209 -53
t209 53z" />
    <glyph glyph-name="uni04E9" unicode="&#x4e9;" horiz-adv-x="804" 
d="M591.5 522.5q79.5 -37.5 121 -102.5t41.5 -145t-41.5 -145t-121 -102.5t-189.5 -37.5t-189.5 37.5t-121 102.5t-41.5 145t41.5 145t121 102.5t189.5 37.5t189.5 -37.5zM264.5 413.5q-52.5 -36.5 -65.5 -98.5h406q-13 62 -65.5 98.5t-137.5 36.5t-137.5 -36.5z
M539.5 136.5q52.5 36.5 65.5 98.5h-406q13 -62 65.5 -98.5t137.5 -36.5t137.5 36.5z" />
    <glyph glyph-name="uni04EE" unicode="&#x4ee;" horiz-adv-x="775" 
d="M636 700h154l-290 -531q-53 -97 -115.5 -138t-157.5 -41q-33 0 -53 2t-52 8v99q24 -3 43 -4.5t42 -1.5q40 0 74.5 13.5t51.5 38.5l2 2l-335 553h158l248 -412h7zM592 800h-394v100h394v-100z" />
    <glyph glyph-name="uni04EF" unicode="&#x4ef;" horiz-adv-x="653" 
d="M298 -190h-143l118 242l-278 498h153l190 -350h5l170 350h145zM525 650h-394v100h394v-100z" />
    <glyph glyph-name="uni04F0" unicode="&#x4f0;" horiz-adv-x="775" 
d="M636 700h154l-290 -531q-53 -97 -115.5 -138t-157.5 -41q-33 0 -53 2t-52 8v99q24 -3 43 -4.5t42 -1.5q40 0 74.5 13.5t51.5 38.5l2 2l-335 553h158l248 -412h7zM220 797q-23 22 -23 53t23 53t56 22t56 -22t23 -53t-23 -53t-56 -22t-56 22zM457 797q-23 22 -23 53t23 53
t56 22t56 -22t23 -53t-23 -53t-56 -22t-56 22z" />
    <glyph glyph-name="uni04F1" unicode="&#x4f1;" horiz-adv-x="653" 
d="M298 -190h-143l118 242l-278 498h153l190 -350h5l170 350h145zM153 647q-23 22 -23 53t23 53t56 22t56 -22t23 -53t-23 -53t-56 -22t-56 22zM390 647q-23 22 -23 53t23 53t56 22t56 -22t23 -53t-23 -53t-56 -22t-56 22z" />
    <glyph glyph-name="Wgrave" unicode="&#x1e80;" horiz-adv-x="1273" 
d="M449 0h-195l-249 700h147l205 -578h6l199 578h149l199 -578h6l205 578h147l-249 -700h-195l-184 539h-7zM792 768h-13l-285 52l10 118h40l258 -113z" />
    <glyph glyph-name="wgrave" unicode="&#x1e81;" horiz-adv-x="1025" 
d="M371 0h-166l-200 550h139l150 -418h5l152 418h126l154 -418h5l149 418h135l-195 -550h-166l-144 388h-5zM669 618h-13l-285 52l10 118h40l258 -113z" />
    <glyph glyph-name="Wacute" unicode="&#x1e82;" horiz-adv-x="1273" 
d="M449 0h-195l-249 700h147l205 -578h6l199 578h149l199 -578h6l205 578h147l-249 -700h-195l-184 539h-7zM495 768h-13l-10 57l258 113h40l10 -118z" />
    <glyph glyph-name="wacute" unicode="&#x1e83;" horiz-adv-x="1025" 
d="M371 0h-166l-200 550h139l150 -418h5l152 418h126l154 -418h5l149 418h135l-195 -550h-166l-144 388h-5zM372 618h-13l-10 57l258 113h40l10 -118z" />
    <glyph glyph-name="Wdieresis" unicode="&#x1e84;" horiz-adv-x="1273" 
d="M449 0h-195l-249 700h147l205 -578h6l199 578h149l199 -578h6l205 578h147l-249 -700h-195l-184 539h-7zM462 797q-23 22 -23 53t23 53t56 22t56 -22t23 -53t-23 -53t-56 -22t-56 22zM699 797q-23 22 -23 53t23 53t56 22t56 -22t23 -53t-23 -53t-56 -22t-56 22z" />
    <glyph glyph-name="wdieresis" unicode="&#x1e85;" horiz-adv-x="1025" 
d="M371 0h-166l-200 550h139l150 -418h5l152 418h126l154 -418h5l149 418h135l-195 -550h-166l-144 388h-5zM339 647q-23 22 -23 53t23 53t56 22t56 -22t23 -53t-23 -53t-56 -22t-56 22zM576 647q-23 22 -23 53t23 53t56 22t56 -22t23 -53t-23 -53t-56 -22t-56 22z" />
    <glyph glyph-name="uni1E9E" unicode="&#x1e9e;" horiz-adv-x="987" 
d="M513 5q-69 16 -103 35v139q34 -25 100.5 -45t144.5 -20q81 0 117.5 22t36.5 54q0 30 -23 50t-57 32t-96 29q-75 20 -121.5 38t-79 51t-32.5 85q0 33 15.5 58.5t34.5 36.5v5h-225v-575h-140v700h620v-115h-15q-83 0 -124 -25.5t-41 -59.5q0 -29 22 -48t56 -31.5t93 -28.5
q82 -22 134 -43t89.5 -62.5t37.5 -108.5q0 -51 -30.5 -94t-96 -69t-165.5 -26q-83 0 -152 16z" />
    <glyph glyph-name="uni1EBC" unicode="&#x1ebc;" horiz-adv-x="752" 
d="M225 303v-183h472v-120h-612v700h592v-120h-452v-177h412v-100h-412zM424.5 788.5q-23.5 10.5 -51.5 30.5q-17 13 -30 19.5t-26 6.5q-14 0 -21.5 -8t-7.5 -22v-32h-110v48q0 45 27 71t75 26q33 0 56.5 -10.5t51.5 -30.5q17 -13 30 -19.5t26 -6.5q14 0 21.5 8t7.5 22v32
h110v-48q0 -45 -27 -71t-75 -26q-33 0 -56.5 10.5z" />
    <glyph glyph-name="uni1EBD" unicode="&#x1ebd;" horiz-adv-x="732" 
d="M212 28q-79 38 -120.5 102.5t-41.5 144.5t39.5 145t112.5 102.5t168 37.5q93 0 164 -37t109.5 -102t38.5 -146v-34h-491q13 -61 71 -98.5t153 -37.5q65 0 125 20t92 44v-121q-33 -22 -96 -40t-136 -18q-109 0 -188 38zM539 321q-8 56 -51 96t-116 40t-122 -38t-59 -98
h348zM408.5 638.5q-23.5 10.5 -51.5 30.5q-17 13 -30 19.5t-26 6.5q-14 0 -21.5 -8t-7.5 -22v-32h-110v48q0 45 27 71t75 26q33 0 56.5 -10.5t51.5 -30.5q17 -13 30 -19.5t26 -6.5q14 0 21.5 8t7.5 22v32h110v-48q0 -45 -27 -71t-75 -26q-33 0 -56.5 10.5z" />
    <glyph glyph-name="Ygrave" unicode="&#x1ef2;" horiz-adv-x="820" 
d="M480 0h-140v155l-360 545h156l271 -415h6l271 415h156l-360 -545v-155zM547 768h-13l-285 52l10 118h40l258 -113z" />
    <glyph glyph-name="ygrave" unicode="&#x1ef3;" horiz-adv-x="653" 
d="M298 -190h-143l118 242l-278 498h153l190 -350h5l170 350h145zM481 618h-13l-285 52l10 118h40l258 -113z" />
    <glyph glyph-name="uni1EF8" unicode="&#x1ef8;" horiz-adv-x="820" 
d="M480 0h-140v155l-360 545h156l271 -415h6l271 415h156l-360 -545v-155zM453.5 788.5q-23.5 10.5 -51.5 30.5q-17 13 -30 19.5t-26 6.5q-14 0 -21.5 -8t-7.5 -22v-32h-110v48q0 45 27 71t75 26q33 0 56.5 -10.5t51.5 -30.5q17 -13 30 -19.5t26 -6.5q14 0 21.5 8t7.5 22v32
h110v-48q0 -45 -27 -71t-75 -26q-33 0 -56.5 10.5z" />
    <glyph glyph-name="uni1EF9" unicode="&#x1ef9;" horiz-adv-x="653" 
d="M298 -190h-143l118 242l-278 498h153l190 -350h5l170 350h145zM371.5 638.5q-23.5 10.5 -51.5 30.5q-17 13 -30 19.5t-26 6.5q-14 0 -21.5 -8t-7.5 -22v-32h-110v48q0 45 27 71t75 26q33 0 56.5 -10.5t51.5 -30.5q17 -13 30 -19.5t26 -6.5q14 0 21.5 8t7.5 22v32h110v-48
q0 -45 -27 -71t-75 -26q-33 0 -56.5 10.5z" />
    <glyph glyph-name="endash" unicode="&#x2013;" horiz-adv-x="765" 
d="M710 260h-655v110h655v-110z" />
    <glyph glyph-name="emdash" unicode="&#x2014;" horiz-adv-x="1063" 
d="M1008 260h-953v110h953v-110z" />
    <glyph glyph-name="quoteleft" unicode="&#x2018;" horiz-adv-x="225" 
d="M54.5 441.5q-24.5 31.5 -24.5 92.5q0 92 41 141.5t107 49.5h12v-105h-25q-44 0 -67 -21.5t-23 -60.5h5q6 8 17.5 15t27.5 7q31 0 50.5 -20t19.5 -53q0 -35 -21.5 -56t-56.5 -21q-38 0 -62.5 31.5z" />
    <glyph glyph-name="quoteright" unicode="&#x2019;" horiz-adv-x="225" 
d="M35 410v105h25q44 0 67 21.5t23 60.5h-5q-6 -8 -17.5 -15t-27.5 -7q-31 0 -50.5 20t-19.5 53q0 35 21.5 56t56.5 21q38 0 62.5 -31.5t24.5 -92.5q0 -92 -41 -141.5t-107 -49.5h-12z" />
    <glyph glyph-name="quotesinglbase" unicode="&#x201a;" horiz-adv-x="225" 
d="M35 -175v105h25q44 0 67 21.5t23 60.5h-5q-6 -8 -17.5 -15t-27.5 -7q-31 0 -50.5 20t-19.5 53q0 35 21.5 56t56.5 21q38 0 62.5 -31.5t24.5 -92.5q0 -92 -41 -141.5t-107 -49.5h-12z" />
    <glyph glyph-name="quotedblleft" unicode="&#x201c;" horiz-adv-x="420" 
d="M54.5 441.5q-24.5 31.5 -24.5 92.5q0 92 41 141.5t107 49.5h12v-105h-25q-44 0 -67 -21.5t-23 -60.5h5q6 8 17.5 15t27.5 7q31 0 50.5 -20t19.5 -53q0 -35 -21.5 -56t-56.5 -21q-38 0 -62.5 31.5zM249.5 441.5q-24.5 31.5 -24.5 92.5q0 92 41 141.5t107 49.5h12v-105h-25
q-44 0 -67 -21.5t-23 -60.5h5q6 8 17.5 15t27.5 7q31 0 50.5 -20t19.5 -53q0 -35 -21.5 -56t-56.5 -21q-38 0 -62.5 31.5z" />
    <glyph glyph-name="quotedblright" unicode="&#x201d;" horiz-adv-x="420" 
d="M35 410v105h25q44 0 67 21.5t23 60.5h-5q-6 -8 -17.5 -15t-27.5 -7q-31 0 -50.5 20t-19.5 53q0 35 21.5 56t56.5 21q38 0 62.5 -31.5t24.5 -92.5q0 -92 -41 -141.5t-107 -49.5h-12zM230 410v105h25q44 0 67 21.5t23 60.5h-5q-6 -8 -17.5 -15t-27.5 -7q-31 0 -50.5 20
t-19.5 53q0 35 21.5 56t56.5 21q38 0 62.5 -31.5t24.5 -92.5q0 -92 -41 -141.5t-107 -49.5h-12z" />
    <glyph glyph-name="quotedblbase" unicode="&#x201e;" horiz-adv-x="420" 
d="M35 -175v105h25q44 0 67 21.5t23 60.5h-5q-6 -8 -17.5 -15t-27.5 -7q-31 0 -50.5 20t-19.5 53q0 35 21.5 56t56.5 21q38 0 62.5 -31.5t24.5 -92.5q0 -92 -41 -141.5t-107 -49.5h-12zM230 -175v105h25q44 0 67 21.5t23 60.5h-5q-6 -8 -17.5 -15t-27.5 -7q-31 0 -50.5 20
t-19.5 53q0 35 21.5 56t56.5 21q38 0 62.5 -31.5t24.5 -92.5q0 -92 -41 -141.5t-107 -49.5h-12z" />
    <glyph glyph-name="dagger" unicode="&#x2020;" horiz-adv-x="615" 
d="M370 -190h-125v610l-205 -12v117l205 -12v207h125v-207l205 12v-117l-205 12v-610z" />
    <glyph glyph-name="daggerdbl" unicode="&#x2021;" horiz-adv-x="615" 
d="M370 -190h-125v169l-167 -12v121l167 -12v344l-205 -12v117l205 -12v207h125v-207l205 12v-117l-205 12v-344l167 12v-121l-167 12v-169z" />
    <glyph glyph-name="bullet" unicode="&#x2022;" horiz-adv-x="448" 
d="M149 231.5q-29 28.5 -29 73.5t29 73.5t75 28.5t75 -28.5t29 -73.5t-29 -73.5t-75 -28.5t-75 28.5z" />
    <glyph glyph-name="ellipsis" unicode="&#x2026;" horiz-adv-x="838" 
d="M53.5 12q-23.5 22 -23.5 53t23.5 53t58.5 22t58.5 -22t23.5 -53t-23.5 -53t-58.5 -22t-58.5 22zM360.5 12q-23.5 22 -23.5 53t23.5 53t58.5 22t58.5 -22t23.5 -53t-23.5 -53t-58.5 -22t-58.5 22zM667.5 12q-23.5 22 -23.5 53t23.5 53t58.5 22t58.5 -22t23.5 -53
t-23.5 -53t-58.5 -22t-58.5 22z" />
    <glyph glyph-name="perthousand" unicode="&#x2030;" horiz-adv-x="1359" 
d="M91 414q-51 48 -51 124t51 124t135 48t135 -48t51 -124t-51 -124t-135 -48t-135 48zM324 0h-122l418 700h122zM284 477.5q23 23.5 23 60.5t-23 60.5t-58 23.5t-58 -23.5t-23 -60.5t23 -60.5t58 -23.5t58 23.5zM568 38q-51 48 -51 124t51 124t135 48t135 -48t51 -124
t-51 -124t-135 -48t-135 48zM998 38q-51 48 -51 124t51 124t135 48t135 -48t51 -124t-51 -124t-135 -48t-135 48zM761 101.5q23 23.5 23 60.5t-23 60.5t-58 23.5t-58 -23.5t-23 -60.5t23 -60.5t58 -23.5t58 23.5zM1191 101.5q23 23.5 23 60.5t-23 60.5t-58 23.5t-58 -23.5
t-23 -60.5t23 -60.5t58 -23.5t58 23.5z" />
    <glyph glyph-name="guilsinglleft" unicode="&#x2039;" horiz-adv-x="390" 
d="M355 34h-140l-180 238l180 238h140l-180 -238z" />
    <glyph glyph-name="guilsinglright" unicode="&#x203a;" horiz-adv-x="390" 
d="M175 34h-140l180 238l-180 238h140l180 -238z" />
    <glyph glyph-name="fraction" unicode="&#x2044;" horiz-adv-x="216" 
d="M-37 0h-118l408 700h118z" />
    <glyph glyph-name="uni2070" unicode="&#x2070;" horiz-adv-x="460" 
d="M88 491.5q-53 51.5 -53 133.5t53 133.5t142 51.5t142 -51.5t53 -133.5t-53 -133.5t-142 -51.5t-142 51.5zM294.5 546.5q25.5 28.5 25.5 78.5t-25.5 78.5t-64.5 28.5t-64.5 -28.5t-25.5 -78.5t25.5 -78.5t64.5 -28.5t64.5 28.5z" />
    <glyph glyph-name="uni2074" unicode="&#x2074;" horiz-adv-x="395" 
d="M337 450h-105v80h-212v60l157 210h112l-153 -204v-6h96l9 88h96v-88h53v-60h-53v-80z" />
    <glyph glyph-name="uni2075" unicode="&#x2075;" horiz-adv-x="373" 
d="M101 449q-41 9 -61 21v80q20 -11 56.5 -20.5t76.5 -9.5q42 0 61 12t19 30t-19.5 30t-62.5 12q-31 0 -57.5 -7t-40.5 -16l-25 15l10 204h267v-80h-187l-3 -66q23 9 61 9q79 0 120.5 -32t41.5 -81q0 -28 -19 -53.5t-57 -41t-91 -15.5q-49 0 -90 9z" />
    <glyph glyph-name="uni2076" unicode="&#x2076;" horiz-adv-x="383" 
d="M63.5 472q-43.5 32 -43.5 81q0 20 10 43t37 55l129 149h116l-115 -133v-5h23q69 0 108.5 -32t39.5 -77q0 -49 -43.5 -81t-130.5 -32t-130.5 32zM250 530q18 12 18 32t-18 32t-56 12t-56 -12t-18 -32t18 -32t56 -12t56 12z" />
    <glyph glyph-name="uni2077" unicode="&#x2077;" horiz-adv-x="353" 
d="M193 450h-110l135 270h-198v80h318v-60z" />
    <glyph glyph-name="uni2078" unicode="&#x2078;" horiz-adv-x="454" 
d="M89.5 467.5q-44.5 27.5 -44.5 66.5q0 35 26.5 57.5t72.5 22.5v6q-49 1 -79 26t-30 61q0 42 47.5 72.5t144.5 30.5t144.5 -30.5t47.5 -72.5q0 -36 -30 -61t-79 -26v-6q46 0 72.5 -22.5t26.5 -57.5q0 -39 -44.5 -66.5t-137.5 -27.5t-137.5 27.5zM297 660q22 13 22 31
t-22 31t-70 13t-70 -13t-22 -31t22 -31t70 -13t70 13zM290 525q19 10 19 26t-19 26t-63 10t-63 -10t-19 -26t19 -26t63 -10t63 10z" />
    <glyph glyph-name="uni2079" unicode="&#x2079;" horiz-adv-x="417" 
d="M112 450l105 126v5h-17q-89 0 -134.5 32.5t-45.5 79.5q0 50 47.5 83.5t141.5 33.5q93 0 140.5 -33t47.5 -81q0 -20 -11 -41.5t-43 -59.5l-121 -145h-110zM276 650.5q21 13.5 21 34.5q0 20 -21.5 33.5t-66.5 13.5q-46 0 -67.5 -13.5t-21.5 -33.5q0 -21 21.5 -34.5
t67.5 -13.5t67 13.5z" />
    <glyph glyph-name="uni2080" unicode="&#x2080;" horiz-adv-x="460" 
d="M88 -58.5q-53 51.5 -53 133.5t53 133.5t142 51.5t142 -51.5t53 -133.5t-53 -133.5t-142 -51.5t-142 51.5zM294.5 -3.5q25.5 28.5 25.5 78.5t-25.5 78.5t-64.5 28.5t-64.5 -28.5t-25.5 -78.5t25.5 -78.5t64.5 -28.5t64.5 28.5z" />
    <glyph glyph-name="uni2081" unicode="&#x2081;" horiz-adv-x="363" 
d="M50 -100v80h95v150h-95v73h55q25 0 36.5 11.5t11.5 35.5h97v-270h88v-80h-288z" />
    <glyph glyph-name="uni2082" unicode="&#x2082;" horiz-adv-x="395" 
d="M45 -100v73l113 72q48 31 70 52t22 39q0 21 -15 32.5t-47 11.5q-31 0 -73 -15t-75 -34v85q27 17 73.5 30.5t93.5 13.5q74 0 111 -28.5t37 -75.5q0 -34 -25.5 -62t-89.5 -69l-62 -40v-5h171v-80h-304z" />
    <glyph glyph-name="uni2083" unicode="&#x2083;" horiz-adv-x="388" 
d="M104.5 -101q-40.5 9 -64.5 21v80q24 -11 62 -20.5t76 -9.5q39 0 57 12t18 30q0 19 -18 30.5t-57 11.5q-24 0 -45.5 -3t-32.5 -7v56l95 65v5h-150v80h293v-50l-124 -85v-5q68 0 106 -30.5t38 -74.5q0 -29 -19.5 -55.5t-58 -43t-91.5 -16.5q-44 0 -84.5 9z" />
    <glyph glyph-name="uni2084" unicode="&#x2084;" horiz-adv-x="395" 
d="M337 -100h-105v80h-212v60l157 210h112l-153 -204v-6h96l9 88h96v-88h53v-60h-53v-80z" />
    <glyph glyph-name="uni2085" unicode="&#x2085;" horiz-adv-x="373" 
d="M101 -101q-41 9 -61 21v80q20 -11 56.5 -20.5t76.5 -9.5q42 0 61 12t19 30t-19.5 30t-62.5 12q-31 0 -57.5 -7t-40.5 -16l-25 15l10 204h267v-80h-187l-3 -66q23 9 61 9q79 0 120.5 -32t41.5 -81q0 -28 -19 -53.5t-57 -41t-91 -15.5q-49 0 -90 9z" />
    <glyph glyph-name="uni2086" unicode="&#x2086;" horiz-adv-x="383" 
d="M63.5 -78q-43.5 32 -43.5 81q0 20 10 43t37 55l129 149h116l-115 -133v-5h23q69 0 108.5 -32t39.5 -77q0 -49 -43.5 -81t-130.5 -32t-130.5 32zM250 -20q18 12 18 32t-18 32t-56 12t-56 -12t-18 -32t18 -32t56 -12t56 12z" />
    <glyph glyph-name="uni2087" unicode="&#x2087;" horiz-adv-x="353" 
d="M193 -100h-110l135 270h-198v80h318v-60z" />
    <glyph glyph-name="uni2088" unicode="&#x2088;" horiz-adv-x="454" 
d="M89.5 -82.5q-44.5 27.5 -44.5 66.5q0 35 26.5 57.5t72.5 22.5v6q-49 1 -79 26t-30 61q0 42 47.5 72.5t144.5 30.5t144.5 -30.5t47.5 -72.5q0 -36 -30 -61t-79 -26v-6q46 0 72.5 -22.5t26.5 -57.5q0 -39 -44.5 -66.5t-137.5 -27.5t-137.5 27.5zM297 110q22 13 22 31
t-22 31t-70 13t-70 -13t-22 -31t22 -31t70 -13t70 13zM290 -25q19 10 19 26t-19 26t-63 10t-63 -10t-19 -26t19 -26t63 -10t63 10z" />
    <glyph glyph-name="uni2089" unicode="&#x2089;" horiz-adv-x="417" 
d="M112 -100l105 126v5h-17q-89 0 -134.5 32.5t-45.5 79.5q0 50 47.5 83.5t141.5 33.5q93 0 140.5 -33t47.5 -81q0 -20 -11 -41.5t-43 -59.5l-121 -145h-110zM276 100.5q21 13.5 21 34.5q0 20 -21.5 33.5t-66.5 13.5q-46 0 -67.5 -13.5t-21.5 -33.5q0 -21 21.5 -34.5
t67.5 -13.5t67 13.5z" />
    <glyph glyph-name="uni20A9" unicode="&#x20a9;" horiz-adv-x="1197" 
d="M1167 455v-80h-131l-22 -82h153v-80h-176l-59 -213h-192l-138 539h-7l-138 -539h-192l-59 213h-176v80h153l-22 82h-131v80h108l-68 245h137l162 -578h6l149 578h149l149 -578h6l162 578h137l-68 -245h108z" />
    <glyph glyph-name="Euro" unicode="&#x20ac;" horiz-adv-x="906" 
d="M378.5 559q-71.5 -33 -108.5 -91h342v-80h-372q-3 -18 -3 -38t3 -38h372v-80h-342q35 -57 103 -90.5t161 -33.5q87 0 162.5 22.5t114.5 51.5v-130q-40 -24 -117.5 -43t-167.5 -19q-162 0 -270 66t-147 176h-89v80h71q-2 24 -2 38t2 38h-71v80h89q40 111 152 176.5
t285 65.5q93 0 172.5 -22.5t122.5 -51.5v-133q-40 34 -119 61.5t-171 27.5q-101 0 -172.5 -33z" />
    <glyph glyph-name="uni20B4" unicode="&#x20b4;" horiz-adv-x="829" 
d="M774 440v-80h-719v80h521q23 27 23 57q0 22 -20 43.5t-64.5 35.5t-112.5 14q-91 0 -172.5 -25.5t-127.5 -56.5v127q44 28 127.5 51.5t177.5 23.5q113 0 190 -27.5t113.5 -70.5t36.5 -89q0 -53 -30 -83h57zM55 223v80h719v-80h-527q-11 -14 -11 -27q0 -38 43 -62t143 -24
q88 0 166 23.5t120 51.5v-127q-41 -26 -121.5 -47t-174.5 -21q-108 0 -181 26t-108 67t-35 84q0 33 16 56h-49z" />
    <glyph glyph-name="uni20B8" unicode="&#x20b8;" horiz-adv-x="770" 
d="M40 610v90h690v-90h-690zM315 445h-275v90h690v-90h-275v-445h-140v445z" />
    <glyph glyph-name="uni20B9" unicode="&#x20b9;" 
d="M710 590h-140v-7q33 -32 45 -73h95v-80h-90q-10 -79 -78.5 -131.5t-184.5 -57.5v-6l290 -235h-188l-297 240h-97v110h257q64 0 102.5 21t51.5 59h-411v80h411q-13 38 -51.5 59t-102.5 21h-257v110h645v-110z" />
    <glyph glyph-name="uni20BA" unicode="&#x20ba;" horiz-adv-x="730" 
d="M705 283q-8 -136 -119 -209.5t-346 -73.5h-110v231l-120 -46v80l120 46v78l-120 -46v80l120 46v231h140v-178l235 89v-80l-235 -89v-78l235 89v-80l-235 -89v-169q145 0 214 42t81 126h140z" />
    <glyph glyph-name="uni20BD" unicode="&#x20bd;" horiz-adv-x="842" 
d="M240 290v-67h355v-100h-355v-123h-140v123h-70v100h70v67h-70v100h70v310h420q138 0 207.5 -54t69.5 -153q0 -96 -67 -149.5t-210 -53.5h-280zM240 580v-190h272q71 0 104.5 25t33.5 70q0 44 -33.5 69.5t-104.5 25.5h-272z" />
    <glyph glyph-name="uni20BF" unicode="&#x20bf;" horiz-adv-x="837" 
d="M547 345q103 0 156.5 -44.5t53.5 -117.5q0 -70 -49.5 -118t-150.5 -61v-124h-110v120h-131v-120h-110v120h-121v700h121v120h110v-120h131v120h110v-123q110 -11 165 -59.5t55 -117.5q0 -77 -57.5 -122.5t-172.5 -45.5v-7zM594.5 555.5q-34.5 24.5 -107.5 24.5h-262v-182
h262q74 0 108 25t34 67q0 41 -34.5 65.5zM467 120q76 0 109 23.5t33 66.5q0 88 -142 88h-242v-178h242z" />
    <glyph glyph-name="uni2116" unicode="&#x2116;" horiz-adv-x="1322" 
d="M982.5 381q-43.5 23 -67 63t-23.5 90t23.5 90t67 63t99.5 23t99.5 -23t67 -63t23.5 -90t-23.5 -90t-67 -63t-99.5 -23t-99.5 23zM225 0h-140v700h224l346 -568h7v568h140v-700h-224l-346 567h-7v-567zM1143.5 469.5q23.5 24.5 23.5 64.5t-23.5 64.5t-61.5 24.5
t-61.5 -24.5t-23.5 -64.5t23.5 -64.5t61.5 -24.5t61.5 24.5zM1262 214h-360v95h360v-95z" />
    <glyph glyph-name="trademark" unicode="&#x2122;" horiz-adv-x="951" 
d="M237 370h-103v248h-119v82h341v-82h-119v-248zM515 370h-103v330h136l109 -186h5l106 186h133v-330h-103v217h-5l-136 -227h-1l-136 227h-5v-217z" />
    <glyph glyph-name="uni2150" unicode="&#x2150;" horiz-adv-x="932" 
d="M50 350v80h95v150h-95v73h55q25 0 36.5 11.5t11.5 35.5h97v-270h88v-80h-288zM326 0h-118l408 700h118zM772 0h-110l135 270h-198v80h318v-60z" />
    <glyph glyph-name="uni2151" unicode="&#x2151;" horiz-adv-x="996" 
d="M50 350v80h95v150h-95v73h55q25 0 36.5 11.5t11.5 35.5h97v-270h88v-80h-288zM326 0h-118l408 700h118zM691 0l105 126v5h-17q-89 0 -134.5 32.5t-45.5 79.5q0 50 47.5 83.5t141.5 33.5q93 0 140.5 -33t47.5 -81q0 -20 -11 -41.5t-43 -59.5l-121 -145h-110zM855 200.5
q21 13.5 21 34.5q0 20 -21.5 33.5t-66.5 13.5q-46 0 -67.5 -13.5t-21.5 -33.5q0 -21 21.5 -34.5t67.5 -13.5t67 13.5z" />
    <glyph glyph-name="uni2153" unicode="&#x2153;" horiz-adv-x="967" 
d="M50 350v80h95v150h-95v73h55q25 0 36.5 11.5t11.5 35.5h97v-270h88v-80h-288zM326 0h-118l408 700h118zM683.5 -1q-40.5 9 -64.5 21v80q24 -11 62 -20.5t76 -9.5q39 0 57 12t18 30q0 19 -18 30.5t-57 11.5q-24 0 -45.5 -3t-32.5 -7v56l95 65v5h-150v80h293v-50l-124 -85
v-5q68 0 106 -30.5t38 -74.5q0 -29 -19.5 -55.5t-58 -43t-91.5 -16.5q-44 0 -84.5 9z" />
    <glyph glyph-name="uni2154" unicode="&#x2154;" horiz-adv-x="999" 
d="M45 350v73l113 72q48 31 70 52t22 39q0 21 -15 32.5t-47 11.5q-31 0 -73 -15t-75 -34v85q27 17 73.5 30.5t93.5 13.5q74 0 111 -28.5t37 -75.5q0 -34 -25.5 -62t-89.5 -69l-62 -40v-5h171v-80h-304zM358 0h-118l408 700h118zM715.5 -1q-40.5 9 -64.5 21v80
q24 -11 62 -20.5t76 -9.5q39 0 57 12t18 30q0 19 -18 30.5t-57 11.5q-24 0 -45.5 -3t-32.5 -7v56l95 65v5h-150v80h293v-50l-124 -85v-5q68 0 106 -30.5t38 -74.5q0 -29 -19.5 -55.5t-58 -43t-91.5 -16.5q-44 0 -84.5 9z" />
    <glyph glyph-name="uni2155" unicode="&#x2155;" horiz-adv-x="952" 
d="M50 350v80h95v150h-95v73h55q25 0 36.5 11.5t11.5 35.5h97v-270h88v-80h-288zM326 0h-118l408 700h118zM680 -1q-41 9 -61 21v80q20 -11 56.5 -20.5t76.5 -9.5q42 0 61 12t19 30t-19.5 30t-62.5 12q-31 0 -57.5 -7t-40.5 -16l-25 15l10 204h267v-80h-187l-3 -66
q23 9 61 9q79 0 120.5 -32t41.5 -81q0 -28 -19 -53.5t-57 -41t-91 -15.5q-49 0 -90 9z" />
    <glyph glyph-name="uni2156" unicode="&#x2156;" horiz-adv-x="984" 
d="M45 350v73l113 72q48 31 70 52t22 39q0 21 -15 32.5t-47 11.5q-31 0 -73 -15t-75 -34v85q27 17 73.5 30.5t93.5 13.5q74 0 111 -28.5t37 -75.5q0 -34 -25.5 -62t-89.5 -69l-62 -40v-5h171v-80h-304zM358 0h-118l408 700h118zM712 -1q-41 9 -61 21v80q20 -11 56.5 -20.5
t76.5 -9.5q42 0 61 12t19 30t-19.5 30t-62.5 12q-31 0 -57.5 -7t-40.5 -16l-25 15l10 204h267v-80h-187l-3 -66q23 9 61 9q79 0 120.5 -32t41.5 -81q0 -28 -19 -53.5t-57 -41t-91 -15.5q-49 0 -90 9z" />
    <glyph glyph-name="uni2157" unicode="&#x2157;" horiz-adv-x="977" 
d="M104.5 349q-40.5 9 -64.5 21v80q24 -11 62 -20.5t76 -9.5q39 0 57 12t18 30q0 19 -18 30.5t-57 11.5q-24 0 -45.5 -3t-32.5 -7v56l95 65v5h-150v80h293v-50l-124 -85v-5q68 0 106 -30.5t38 -74.5q0 -29 -19.5 -55.5t-58 -43t-91.5 -16.5q-44 0 -84.5 9zM351 0h-118
l408 700h118zM705 -1q-41 9 -61 21v80q20 -11 56.5 -20.5t76.5 -9.5q42 0 61 12t19 30t-19.5 30t-62.5 12q-31 0 -57.5 -7t-40.5 -16l-25 15l10 204h267v-80h-187l-3 -66q23 9 61 9q79 0 120.5 -32t41.5 -81q0 -28 -19 -53.5t-57 -41t-91 -15.5q-49 0 -90 9z" />
    <glyph glyph-name="uni2158" unicode="&#x2158;" horiz-adv-x="984" 
d="M337 350h-105v80h-212v60l157 210h112l-153 -204v-6h96l9 88h96v-88h53v-60h-53v-80zM358 0h-118l408 700h118zM712 -1q-41 9 -61 21v80q20 -11 56.5 -20.5t76.5 -9.5q42 0 61 12t19 30t-19.5 30t-62.5 12q-31 0 -57.5 -7t-40.5 -16l-25 15l10 204h267v-80h-187l-3 -66
q23 9 61 9q79 0 120.5 -32t41.5 -81q0 -28 -19 -53.5t-57 -41t-91 -15.5q-49 0 -90 9z" />
    <glyph glyph-name="uni2159" unicode="&#x2159;" horiz-adv-x="962" 
d="M50 350v80h95v150h-95v73h55q25 0 36.5 11.5t11.5 35.5h97v-270h88v-80h-288zM326 0h-118l408 700h118zM642.5 22q-43.5 32 -43.5 81q0 20 10 43t37 55l129 149h116l-115 -133v-5h23q69 0 108.5 -32t39.5 -77q0 -49 -43.5 -81t-130.5 -32t-130.5 32zM829 80q18 12 18 32
t-18 32t-56 12t-56 -12t-18 -32t18 -32t56 -12t56 12z" />
    <glyph glyph-name="uni215A" unicode="&#x215a;" horiz-adv-x="972" 
d="M101 349q-41 9 -61 21v80q20 -11 56.5 -20.5t76.5 -9.5q42 0 61 12t19 30t-19.5 30t-62.5 12q-31 0 -57.5 -7t-40.5 -16l-25 15l10 204h267v-80h-187l-3 -66q23 9 61 9q79 0 120.5 -32t41.5 -81q0 -28 -19 -53.5t-57 -41t-91 -15.5q-49 0 -90 9zM336 0h-118l408 700h118z
M652.5 22q-43.5 32 -43.5 81q0 20 10 43t37 55l129 149h116l-115 -133v-5h23q69 0 108.5 -32t39.5 -77q0 -49 -43.5 -81t-130.5 -32t-130.5 32zM839 80q18 12 18 32t-18 32t-56 12t-56 -12t-18 -32t18 -32t56 -12t56 12z" />
    <glyph glyph-name="oneeighth" unicode="&#x215b;" horiz-adv-x="1033" 
d="M50 350v80h95v150h-95v73h55q25 0 36.5 11.5t11.5 35.5h97v-270h88v-80h-288zM326 0h-118l408 700h118zM668.5 17.5q-44.5 27.5 -44.5 66.5q0 35 26.5 57.5t72.5 22.5v6q-49 1 -79 26t-30 61q0 42 47.5 72.5t144.5 30.5t144.5 -30.5t47.5 -72.5q0 -36 -30 -61t-79 -26v-6
q46 0 72.5 -22.5t26.5 -57.5q0 -39 -44.5 -66.5t-137.5 -27.5t-137.5 27.5zM876 210q22 13 22 31t-22 31t-70 13t-70 -13t-22 -31t22 -31t70 -13t70 13zM869 75q19 10 19 26t-19 26t-63 10t-63 -10t-19 -26t19 -26t63 -10t63 10z" />
    <glyph glyph-name="threeeighths" unicode="&#x215c;" horiz-adv-x="1058" 
d="M104.5 349q-40.5 9 -64.5 21v80q24 -11 62 -20.5t76 -9.5q39 0 57 12t18 30q0 19 -18 30.5t-57 11.5q-24 0 -45.5 -3t-32.5 -7v56l95 65v5h-150v80h293v-50l-124 -85v-5q68 0 106 -30.5t38 -74.5q0 -29 -19.5 -55.5t-58 -43t-91.5 -16.5q-44 0 -84.5 9zM351 0h-118
l408 700h118zM693.5 17.5q-44.5 27.5 -44.5 66.5q0 35 26.5 57.5t72.5 22.5v6q-49 1 -79 26t-30 61q0 42 47.5 72.5t144.5 30.5t144.5 -30.5t47.5 -72.5q0 -36 -30 -61t-79 -26v-6q46 0 72.5 -22.5t26.5 -57.5q0 -39 -44.5 -66.5t-137.5 -27.5t-137.5 27.5zM901 210
q22 13 22 31t-22 31t-70 13t-70 -13t-22 -31t22 -31t70 -13t70 13zM894 75q19 10 19 26t-19 26t-63 10t-63 -10t-19 -26t19 -26t63 -10t63 10z" />
    <glyph glyph-name="fiveeighths" unicode="&#x215d;" horiz-adv-x="1043" 
d="M101 349q-41 9 -61 21v80q20 -11 56.5 -20.5t76.5 -9.5q42 0 61 12t19 30t-19.5 30t-62.5 12q-31 0 -57.5 -7t-40.5 -16l-25 15l10 204h267v-80h-187l-3 -66q23 9 61 9q79 0 120.5 -32t41.5 -81q0 -28 -19 -53.5t-57 -41t-91 -15.5q-49 0 -90 9zM336 0h-118l408 700h118z
M678.5 17.5q-44.5 27.5 -44.5 66.5q0 35 26.5 57.5t72.5 22.5v6q-49 1 -79 26t-30 61q0 42 47.5 72.5t144.5 30.5t144.5 -30.5t47.5 -72.5q0 -36 -30 -61t-79 -26v-6q46 0 72.5 -22.5t26.5 -57.5q0 -39 -44.5 -66.5t-137.5 -27.5t-137.5 27.5zM886 210q22 13 22 31t-22 31
t-70 13t-70 -13t-22 -31t22 -31t70 -13t70 13zM879 75q19 10 19 26t-19 26t-63 10t-63 -10t-19 -26t19 -26t63 -10t63 10z" />
    <glyph glyph-name="seveneighths" unicode="&#x215e;" horiz-adv-x="1023" 
d="M193 350h-110l135 270h-198v80h318v-60zM316 0h-118l408 700h118zM658.5 17.5q-44.5 27.5 -44.5 66.5q0 35 26.5 57.5t72.5 22.5v6q-49 1 -79 26t-30 61q0 42 47.5 72.5t144.5 30.5t144.5 -30.5t47.5 -72.5q0 -36 -30 -61t-79 -26v-6q46 0 72.5 -22.5t26.5 -57.5
q0 -39 -44.5 -66.5t-137.5 -27.5t-137.5 27.5zM866 210q22 13 22 31t-22 31t-70 13t-70 -13t-22 -31t22 -31t70 -13t70 13zM859 75q19 10 19 26t-19 26t-63 10t-63 -10t-19 -26t19 -26t63 -10t63 10z" />
    <glyph glyph-name="uni215F" unicode="&#x215f;" horiz-adv-x="579" 
d="M50 350v80h95v150h-95v73h55q25 0 36.5 11.5t11.5 35.5h97v-270h88v-80h-288zM326 0h-118l408 700h118z" />
    <glyph glyph-name="arrowleft" unicode="&#x2190;" horiz-adv-x="995" 
d="M458 149l-67 -66l-256 252l256 252l67 -66l-133 -131v-5h515v-100h-515v-5z" />
    <glyph glyph-name="arrowup" unicode="&#x2191;" horiz-adv-x="996" 
d="M548 0h-100v510h-5l-131 -133l-66 67l252 256l252 -256l-66 -67l-131 133h-5v-510z" />
    <glyph glyph-name="arrowright" unicode="&#x2192;" horiz-adv-x="995" 
d="M840 335l-256 -252l-67 66l133 131v5h-515v100h515v5l-133 131l67 66z" />
    <glyph glyph-name="arrowdown" unicode="&#x2193;" horiz-adv-x="996" 
d="M750 256l-252 -256l-252 256l66 67l131 -133h5v510h100v-510h5l131 133z" />
    <glyph glyph-name="arrowboth" unicode="&#x2194;" horiz-adv-x="1000" 
d="M421 149l-67 -66l-256 252l256 252l67 -66l-133 -131v-5h425v5l-133 131l67 66l256 -252l-256 -252l-67 66l133 131v5h-425v-5z" />
    <glyph glyph-name="arrowupdn" unicode="&#x2195;" horiz-adv-x="996" 
d="M750 204l-252 -257l-252 256l66 68l130 -133h5v425h-5l-130 -133l-66 67l251 256l252 -256l-65 -67l-131 133h-6v-425h5l132 133z" />
    <glyph glyph-name="uni2196" unicode="&#x2196;" horiz-adv-x="1000" 
d="M765 141l-71 -71l-362 364l-3 -3v-188h-94v357h360v-94h-188l-2 -4z" />
    <glyph glyph-name="uni2197" unicode="&#x2197;" horiz-adv-x="1000" 
d="M668 434l-362 -364l-71 71l360 361l-2 4h-188v94h360v-357h-94v188z" />
    <glyph glyph-name="uni2198" unicode="&#x2198;" horiz-adv-x="1000" 
d="M765 70h-360v94h188l2 4l-360 361l71 71l362 -364l3 3v188h94v-357z" />
    <glyph glyph-name="uni2199" unicode="&#x2199;" horiz-adv-x="1000" 
d="M595 70h-360v357h94v-188l3 -3l362 364l71 -71l-360 -361l2 -4h188v-94z" />
    <glyph glyph-name="minus" unicode="&#x2212;" horiz-adv-x="620" 
d="M565 253h-510v110h510v-110z" />
    <glyph glyph-name="approxequal" unicode="&#x2248;" horiz-adv-x="648" 
d="M55 368q0 68 36.5 105t103.5 37q41 0 70.5 -12t63.5 -34q28 -16 44.5 -23.5t35.5 -7.5q24 0 37.5 14.5t13.5 42.5v15h133v-28q0 -68 -36.5 -105t-103.5 -37q-39 0 -68.5 12t-64.5 33q-26 16 -43.5 24t-37.5 8q-24 0 -37.5 -14.5t-13.5 -42.5v-15h-133v28zM55 128
q0 68 36.5 105t103.5 37q41 0 70.5 -12t63.5 -34q28 -16 44.5 -23.5t35.5 -7.5q24 0 37.5 14.5t13.5 42.5v15h133v-28q0 -68 -36.5 -105t-103.5 -37q-39 0 -68.5 12t-64.5 33q-26 16 -43.5 24t-37.5 8q-24 0 -37.5 -14.5t-13.5 -42.5v-15h-133v28z" />
    <glyph glyph-name="notequal" unicode="&#x2260;" horiz-adv-x="628" 
d="M563 463v-95h-175l-58 -125h233v-95h-277l-53 -113h-90l53 113h-131v95h175l58 125h-233v95h278l52 112h90l-52 -112h130z" />
    <glyph glyph-name="lessequal" unicode="&#x2264;" horiz-adv-x="665" 
d="M600 244v-107l-535 165v96l535 165v-107l-328 -101v-10zM600 0h-535v95h535v-95z" />
    <glyph glyph-name="greaterequal" unicode="&#x2265;" horiz-adv-x="665" 
d="M600 302l-535 -165v107l328 101v10l-328 101v107l535 -165v-96zM600 95v-95h-535v95h535z" />
    <glyph glyph-name="uni2460" unicode="&#x2460;" horiz-adv-x="1124" 
d="M308.5 -28.5q-109.5 56.5 -169 156t-59.5 222.5t59.5 222.5t169 156t253.5 56.5t253.5 -56.5t169 -156t59.5 -222.5t-59.5 -222.5t-169 -156t-253.5 -56.5t-253.5 56.5zM772 38q90 46 138.5 127.5t48.5 184.5t-48.5 184.5t-138.5 127.5t-210 46t-210 -46t-138.5 -127.5
t-48.5 -184.5t48.5 -184.5t138.5 -127.5t210 -46t210 46zM422 175v80h95v150h-95v73h55q25 0 36.5 11.5t11.5 35.5h97v-270h88v-80h-288z" />
    <glyph glyph-name="uni2461" unicode="&#x2461;" horiz-adv-x="1124" 
d="M308.5 -28.5q-109.5 56.5 -169 156t-59.5 222.5t59.5 222.5t169 156t253.5 56.5t253.5 -56.5t169 -156t59.5 -222.5t-59.5 -222.5t-169 -156t-253.5 -56.5t-253.5 56.5zM772 38q90 46 138.5 127.5t48.5 184.5t-48.5 184.5t-138.5 127.5t-210 46t-210 -46t-138.5 -127.5
t-48.5 -184.5t48.5 -184.5t138.5 -127.5t210 -46t210 46zM414 175v73l113 72q48 31 70 52t22 39q0 21 -15 32.5t-47 11.5q-31 0 -73 -15t-75 -34v85q27 17 73.5 30.5t93.5 13.5q74 0 111 -28.5t37 -75.5q0 -34 -25.5 -62t-89.5 -69l-62 -40v-5h171v-80h-304z" />
    <glyph glyph-name="uni2462" unicode="&#x2462;" horiz-adv-x="1124" 
d="M308.5 -28.5q-109.5 56.5 -169 156t-59.5 222.5t59.5 222.5t169 156t253.5 56.5t253.5 -56.5t169 -156t59.5 -222.5t-59.5 -222.5t-169 -156t-253.5 -56.5t-253.5 56.5zM772 38q90 46 138.5 127.5t48.5 184.5t-48.5 184.5t-138.5 127.5t-210 46t-210 -46t-138.5 -127.5
t-48.5 -184.5t48.5 -184.5t138.5 -127.5t210 -46t210 46zM475.5 174q-40.5 9 -64.5 21v80q24 -11 62 -20.5t76 -9.5q39 0 57 12t18 30q0 19 -18 30.5t-57 11.5q-24 0 -45.5 -3t-32.5 -7v56l95 65v5h-150v80h293v-50l-124 -85v-5q68 0 106 -30.5t38 -74.5q0 -29 -19.5 -55.5
t-58 -43t-91.5 -16.5q-44 0 -84.5 9z" />
    <glyph glyph-name="uni2463" unicode="&#x2463;" horiz-adv-x="1124" 
d="M308.5 -28.5q-109.5 56.5 -169 156t-59.5 222.5t59.5 222.5t169 156t253.5 56.5t253.5 -56.5t169 -156t59.5 -222.5t-59.5 -222.5t-169 -156t-253.5 -56.5t-253.5 56.5zM772 38q90 46 138.5 127.5t48.5 184.5t-48.5 184.5t-138.5 127.5t-210 46t-210 -46t-138.5 -127.5
t-48.5 -184.5t48.5 -184.5t138.5 -127.5t210 -46t210 46zM681 175h-105v80h-212v60l157 210h112l-153 -204v-6h96l9 88h96v-88h53v-60h-53v-80z" />
    <glyph glyph-name="uni2464" unicode="&#x2464;" horiz-adv-x="1124" 
d="M308.5 -28.5q-109.5 56.5 -169 156t-59.5 222.5t59.5 222.5t169 156t253.5 56.5t253.5 -56.5t169 -156t59.5 -222.5t-59.5 -222.5t-169 -156t-253.5 -56.5t-253.5 56.5zM772 38q90 46 138.5 127.5t48.5 184.5t-48.5 184.5t-138.5 127.5t-210 46t-210 -46t-138.5 -127.5
t-48.5 -184.5t48.5 -184.5t138.5 -127.5t210 -46t210 46zM477 174q-41 9 -61 21v80q20 -11 56.5 -20.5t76.5 -9.5q42 0 61 12t19 30t-19.5 30t-62.5 12q-31 0 -57.5 -7t-40.5 -16l-25 15l10 204h267v-80h-187l-3 -66q23 9 61 9q79 0 120.5 -32t41.5 -81q0 -28 -19 -53.5
t-57 -41t-91 -15.5q-49 0 -90 9z" />
    <glyph glyph-name="uni2465" unicode="&#x2465;" horiz-adv-x="1124" 
d="M308.5 -28.5q-109.5 56.5 -169 156t-59.5 222.5t59.5 222.5t169 156t253.5 56.5t253.5 -56.5t169 -156t59.5 -222.5t-59.5 -222.5t-169 -156t-253.5 -56.5t-253.5 56.5zM772 38q90 46 138.5 127.5t48.5 184.5t-48.5 184.5t-138.5 127.5t-210 46t-210 -46t-138.5 -127.5
t-48.5 -184.5t48.5 -184.5t138.5 -127.5t210 -46t210 46zM419.5 197q-43.5 32 -43.5 81q0 20 10 43t37 55l129 149h116l-115 -133v-5h23q69 0 108.5 -32t39.5 -77q0 -49 -43.5 -81t-130.5 -32t-130.5 32zM606 255q18 12 18 32t-18 32t-56 12t-56 -12t-18 -32t18 -32t56 -12
t56 12z" />
    <glyph glyph-name="uni2466" unicode="&#x2466;" horiz-adv-x="1124" 
d="M308.5 -28.5q-109.5 56.5 -169 156t-59.5 222.5t59.5 222.5t169 156t253.5 56.5t253.5 -56.5t169 -156t59.5 -222.5t-59.5 -222.5t-169 -156t-253.5 -56.5t-253.5 56.5zM772 38q90 46 138.5 127.5t48.5 184.5t-48.5 184.5t-138.5 127.5t-210 46t-210 -46t-138.5 -127.5
t-48.5 -184.5t48.5 -184.5t138.5 -127.5t210 -46t210 46zM574 175h-110l135 270h-198v80h318v-60z" />
    <glyph glyph-name="uni2467" unicode="&#x2467;" horiz-adv-x="1124" 
d="M308.5 -28.5q-109.5 56.5 -169 156t-59.5 222.5t59.5 222.5t169 156t253.5 56.5t253.5 -56.5t169 -156t59.5 -222.5t-59.5 -222.5t-169 -156t-253.5 -56.5t-253.5 56.5zM772 38q90 46 138.5 127.5t48.5 184.5t-48.5 184.5t-138.5 127.5t-210 46t-210 -46t-138.5 -127.5
t-48.5 -184.5t48.5 -184.5t138.5 -127.5t210 -46t210 46zM424.5 192.5q-44.5 27.5 -44.5 66.5q0 35 26.5 57.5t72.5 22.5v6q-49 1 -79 26t-30 61q0 42 47.5 72.5t144.5 30.5t144.5 -30.5t47.5 -72.5q0 -36 -30 -61t-79 -26v-6q46 0 72.5 -22.5t26.5 -57.5q0 -39 -44.5 -66.5
t-137.5 -27.5t-137.5 27.5zM632 385q22 13 22 31t-22 31t-70 13t-70 -13t-22 -31t22 -31t70 -13t70 13zM625 250q19 10 19 26t-19 26t-63 10t-63 -10t-19 -26t19 -26t63 -10t63 10z" />
    <glyph glyph-name="uni2468" unicode="&#x2468;" horiz-adv-x="1124" 
d="M308.5 -28.5q-109.5 56.5 -169 156t-59.5 222.5t59.5 222.5t169 156t253.5 56.5t253.5 -56.5t169 -156t59.5 -222.5t-59.5 -222.5t-169 -156t-253.5 -56.5t-253.5 56.5zM772 38q90 46 138.5 127.5t48.5 184.5t-48.5 184.5t-138.5 127.5t-210 46t-210 -46t-138.5 -127.5
t-48.5 -184.5t48.5 -184.5t138.5 -127.5t210 -46t210 46zM468 175l105 126v5h-17q-89 0 -134.5 32.5t-45.5 79.5q0 50 47.5 83.5t141.5 33.5q93 0 140.5 -33t47.5 -81q0 -20 -11 -41.5t-43 -59.5l-121 -145h-110zM632 375.5q21 13.5 21 34.5q0 20 -21.5 33.5t-66.5 13.5
q-46 0 -67.5 -13.5t-21.5 -33.5q0 -21 21.5 -34.5t67.5 -13.5t67 13.5z" />
    <glyph glyph-name="uni2469" unicode="&#x2469;" horiz-adv-x="1124" 
d="M308.5 -28.5q-109.5 56.5 -169 156t-59.5 222.5t59.5 222.5t169 156t253.5 56.5t253.5 -56.5t169 -156t59.5 -222.5t-59.5 -222.5t-169 -156t-253.5 -56.5t-253.5 56.5zM772 38q90 46 138.5 127.5t48.5 184.5t-48.5 184.5t-138.5 127.5t-210 46t-210 -46t-138.5 -127.5
t-48.5 -184.5t48.5 -184.5t138.5 -127.5t210 -46t210 46zM605.5 188.5q-43.5 23.5 -67 65.5t-23.5 96t23.5 96t67 65.5t99.5 23.5t99.5 -23.5t67 -65.5t23.5 -96t-23.5 -96t-67 -65.5t-99.5 -23.5t-99.5 23.5zM250 175v78h79v152h-79v73h39q25 0 36.5 11.5t11.5 35.5h87
v-272h75v-78h-249zM769.5 271.5q25.5 28.5 25.5 78.5t-25.5 78.5t-64.5 28.5t-64.5 -28.5t-25.5 -78.5t25.5 -78.5t64.5 -28.5t64.5 28.5z" />
    <glyph glyph-name="uni24EA" unicode="&#x24ea;" horiz-adv-x="1124" 
d="M308.5 -28.5q-109.5 56.5 -169 156t-59.5 222.5t59.5 222.5t169 156t253.5 56.5t253.5 -56.5t169 -156t59.5 -222.5t-59.5 -222.5t-169 -156t-253.5 -56.5t-253.5 56.5zM772 38q90 46 138.5 127.5t48.5 184.5t-48.5 184.5t-138.5 127.5t-210 46t-210 -46t-138.5 -127.5
t-48.5 -184.5t48.5 -184.5t138.5 -127.5t210 -46t210 46zM420 216.5q-53 51.5 -53 133.5t53 133.5t142 51.5t142 -51.5t53 -133.5t-53 -133.5t-142 -51.5t-142 51.5zM626.5 271.5q25.5 28.5 25.5 78.5t-25.5 78.5t-64.5 28.5t-64.5 -28.5t-25.5 -78.5t25.5 -78.5t64.5 -28.5
t64.5 28.5z" />
    <glyph glyph-name="uni24F5" unicode="&#x24f5;" horiz-adv-x="1134" 
d="M307 -29.5q-110 55.5 -168.5 154t-58.5 225.5t58.5 225.5t168.5 154t260 55.5t260 -55.5t168.5 -154t58.5 -225.5t-58.5 -225.5t-168.5 -154t-260 -55.5t-260 55.5zM810.5 -7.5q103.5 52.5 158.5 145.5t55 212t-55 212t-158.5 145.5t-243.5 52.5t-243.5 -52.5
t-158.5 -145.5t-55 -212t55 -212t158.5 -145.5t243.5 -52.5t243.5 52.5zM340.5 14.5q-96.5 49.5 -148.5 136.5t-52 199t52 199t148.5 136.5t226.5 49.5t226.5 -49.5t148.5 -136.5t52 -199t-52 -199t-148.5 -136.5t-226.5 -49.5t-226.5 49.5zM777 36q90 46 138.5 128
t48.5 186t-48.5 186t-138.5 128t-210 46t-210 -46t-138.5 -128t-48.5 -186t48.5 -186t138.5 -128t210 -46t210 46zM427 175v80h95v150h-95v73h55q25 0 36.5 11.5t11.5 35.5h97v-270h88v-80h-288z" />
    <glyph glyph-name="uni24F6" unicode="&#x24f6;" horiz-adv-x="1134" 
d="M307 -29.5q-110 55.5 -168.5 154t-58.5 225.5t58.5 225.5t168.5 154t260 55.5t260 -55.5t168.5 -154t58.5 -225.5t-58.5 -225.5t-168.5 -154t-260 -55.5t-260 55.5zM810.5 -7.5q103.5 52.5 158.5 145.5t55 212t-55 212t-158.5 145.5t-243.5 52.5t-243.5 -52.5
t-158.5 -145.5t-55 -212t55 -212t158.5 -145.5t243.5 -52.5t243.5 52.5zM340.5 14.5q-96.5 49.5 -148.5 136.5t-52 199t52 199t148.5 136.5t226.5 49.5t226.5 -49.5t148.5 -136.5t52 -199t-52 -199t-148.5 -136.5t-226.5 -49.5t-226.5 49.5zM777 36q90 46 138.5 128
t48.5 186t-48.5 186t-138.5 128t-210 46t-210 -46t-138.5 -128t-48.5 -186t48.5 -186t138.5 -128t210 -46t210 46zM419 175v73l113 72q48 31 70 52t22 39q0 21 -15 32.5t-47 11.5q-31 0 -73 -15t-75 -34v85q27 17 73.5 30.5t93.5 13.5q74 0 111 -28.5t37 -75.5
q0 -34 -25.5 -62t-89.5 -69l-62 -40v-5h171v-80h-304z" />
    <glyph glyph-name="uni24F7" unicode="&#x24f7;" horiz-adv-x="1134" 
d="M307 -29.5q-110 55.5 -168.5 154t-58.5 225.5t58.5 225.5t168.5 154t260 55.5t260 -55.5t168.5 -154t58.5 -225.5t-58.5 -225.5t-168.5 -154t-260 -55.5t-260 55.5zM810.5 -7.5q103.5 52.5 158.5 145.5t55 212t-55 212t-158.5 145.5t-243.5 52.5t-243.5 -52.5
t-158.5 -145.5t-55 -212t55 -212t158.5 -145.5t243.5 -52.5t243.5 52.5zM340.5 14.5q-96.5 49.5 -148.5 136.5t-52 199t52 199t148.5 136.5t226.5 49.5t226.5 -49.5t148.5 -136.5t52 -199t-52 -199t-148.5 -136.5t-226.5 -49.5t-226.5 49.5zM777 36q90 46 138.5 128
t48.5 186t-48.5 186t-138.5 128t-210 46t-210 -46t-138.5 -128t-48.5 -186t48.5 -186t138.5 -128t210 -46t210 46zM480.5 174q-40.5 9 -64.5 21v80q24 -11 62 -20.5t76 -9.5q39 0 57 12t18 30q0 19 -18 30.5t-57 11.5q-24 0 -45.5 -3t-32.5 -7v56l95 65v5h-150v80h293v-50
l-124 -85v-5q68 0 106 -30.5t38 -74.5q0 -29 -19.5 -55.5t-58 -43t-91.5 -16.5q-44 0 -84.5 9z" />
    <glyph glyph-name="uni24F8" unicode="&#x24f8;" horiz-adv-x="1134" 
d="M307 -29.5q-110 55.5 -168.5 154t-58.5 225.5t58.5 225.5t168.5 154t260 55.5t260 -55.5t168.5 -154t58.5 -225.5t-58.5 -225.5t-168.5 -154t-260 -55.5t-260 55.5zM810.5 -7.5q103.5 52.5 158.5 145.5t55 212t-55 212t-158.5 145.5t-243.5 52.5t-243.5 -52.5
t-158.5 -145.5t-55 -212t55 -212t158.5 -145.5t243.5 -52.5t243.5 52.5zM340.5 14.5q-96.5 49.5 -148.5 136.5t-52 199t52 199t148.5 136.5t226.5 49.5t226.5 -49.5t148.5 -136.5t52 -199t-52 -199t-148.5 -136.5t-226.5 -49.5t-226.5 49.5zM777 36q90 46 138.5 128
t48.5 186t-48.5 186t-138.5 128t-210 46t-210 -46t-138.5 -128t-48.5 -186t48.5 -186t138.5 -128t210 -46t210 46zM686 175h-105v80h-212v60l157 210h112l-153 -204v-6h96l9 88h96v-88h53v-60h-53v-80z" />
    <glyph glyph-name="uni24F9" unicode="&#x24f9;" horiz-adv-x="1134" 
d="M307 -29.5q-110 55.5 -168.5 154t-58.5 225.5t58.5 225.5t168.5 154t260 55.5t260 -55.5t168.5 -154t58.5 -225.5t-58.5 -225.5t-168.5 -154t-260 -55.5t-260 55.5zM810.5 -7.5q103.5 52.5 158.5 145.5t55 212t-55 212t-158.5 145.5t-243.5 52.5t-243.5 -52.5
t-158.5 -145.5t-55 -212t55 -212t158.5 -145.5t243.5 -52.5t243.5 52.5zM340.5 14.5q-96.5 49.5 -148.5 136.5t-52 199t52 199t148.5 136.5t226.5 49.5t226.5 -49.5t148.5 -136.5t52 -199t-52 -199t-148.5 -136.5t-226.5 -49.5t-226.5 49.5zM777 36q90 46 138.5 128
t48.5 186t-48.5 186t-138.5 128t-210 46t-210 -46t-138.5 -128t-48.5 -186t48.5 -186t138.5 -128t210 -46t210 46zM482 174q-41 9 -61 21v80q20 -11 56.5 -20.5t76.5 -9.5q42 0 61 12t19 30t-19.5 30t-62.5 12q-31 0 -57.5 -7t-40.5 -16l-25 15l10 204h267v-80h-187l-3 -66
q23 9 61 9q79 0 120.5 -32t41.5 -81q0 -28 -19 -53.5t-57 -41t-91 -15.5q-49 0 -90 9z" />
    <glyph glyph-name="uni24FA" unicode="&#x24fa;" horiz-adv-x="1134" 
d="M307 -29.5q-110 55.5 -168.5 154t-58.5 225.5t58.5 225.5t168.5 154t260 55.5t260 -55.5t168.5 -154t58.5 -225.5t-58.5 -225.5t-168.5 -154t-260 -55.5t-260 55.5zM810.5 -7.5q103.5 52.5 158.5 145.5t55 212t-55 212t-158.5 145.5t-243.5 52.5t-243.5 -52.5
t-158.5 -145.5t-55 -212t55 -212t158.5 -145.5t243.5 -52.5t243.5 52.5zM340.5 14.5q-96.5 49.5 -148.5 136.5t-52 199t52 199t148.5 136.5t226.5 49.5t226.5 -49.5t148.5 -136.5t52 -199t-52 -199t-148.5 -136.5t-226.5 -49.5t-226.5 49.5zM777 36q90 46 138.5 128
t48.5 186t-48.5 186t-138.5 128t-210 46t-210 -46t-138.5 -128t-48.5 -186t48.5 -186t138.5 -128t210 -46t210 46zM424.5 197q-43.5 32 -43.5 81q0 20 10 43t37 55l129 149h116l-115 -133v-5h23q69 0 108.5 -32t39.5 -77q0 -49 -43.5 -81t-130.5 -32t-130.5 32zM611 255
q18 12 18 32t-18 32t-56 12t-56 -12t-18 -32t18 -32t56 -12t56 12z" />
    <glyph glyph-name="uni24FB" unicode="&#x24fb;" horiz-adv-x="1134" 
d="M307 -29.5q-110 55.5 -168.5 154t-58.5 225.5t58.5 225.5t168.5 154t260 55.5t260 -55.5t168.5 -154t58.5 -225.5t-58.5 -225.5t-168.5 -154t-260 -55.5t-260 55.5zM810.5 -7.5q103.5 52.5 158.5 145.5t55 212t-55 212t-158.5 145.5t-243.5 52.5t-243.5 -52.5
t-158.5 -145.5t-55 -212t55 -212t158.5 -145.5t243.5 -52.5t243.5 52.5zM340.5 14.5q-96.5 49.5 -148.5 136.5t-52 199t52 199t148.5 136.5t226.5 49.5t226.5 -49.5t148.5 -136.5t52 -199t-52 -199t-148.5 -136.5t-226.5 -49.5t-226.5 49.5zM777 36q90 46 138.5 128
t48.5 186t-48.5 186t-138.5 128t-210 46t-210 -46t-138.5 -128t-48.5 -186t48.5 -186t138.5 -128t210 -46t210 46zM579 175h-110l135 270h-198v80h318v-60z" />
    <glyph glyph-name="uni24FC" unicode="&#x24fc;" horiz-adv-x="1134" 
d="M307 -29.5q-110 55.5 -168.5 154t-58.5 225.5t58.5 225.5t168.5 154t260 55.5t260 -55.5t168.5 -154t58.5 -225.5t-58.5 -225.5t-168.5 -154t-260 -55.5t-260 55.5zM810.5 -7.5q103.5 52.5 158.5 145.5t55 212t-55 212t-158.5 145.5t-243.5 52.5t-243.5 -52.5
t-158.5 -145.5t-55 -212t55 -212t158.5 -145.5t243.5 -52.5t243.5 52.5zM340.5 14.5q-96.5 49.5 -148.5 136.5t-52 199t52 199t148.5 136.5t226.5 49.5t226.5 -49.5t148.5 -136.5t52 -199t-52 -199t-148.5 -136.5t-226.5 -49.5t-226.5 49.5zM777 36q90 46 138.5 128
t48.5 186t-48.5 186t-138.5 128t-210 46t-210 -46t-138.5 -128t-48.5 -186t48.5 -186t138.5 -128t210 -46t210 46zM429.5 192.5q-44.5 27.5 -44.5 66.5q0 35 26.5 57.5t72.5 22.5v6q-49 1 -79 26t-30 61q0 42 47.5 72.5t144.5 30.5t144.5 -30.5t47.5 -72.5q0 -36 -30 -61
t-79 -26v-6q46 0 72.5 -22.5t26.5 -57.5q0 -39 -44.5 -66.5t-137.5 -27.5t-137.5 27.5zM637 385q22 13 22 31t-22 31t-70 13t-70 -13t-22 -31t22 -31t70 -13t70 13zM630 250q19 10 19 26t-19 26t-63 10t-63 -10t-19 -26t19 -26t63 -10t63 10z" />
    <glyph glyph-name="uni24FD" unicode="&#x24fd;" horiz-adv-x="1134" 
d="M307 -29.5q-110 55.5 -168.5 154t-58.5 225.5t58.5 225.5t168.5 154t260 55.5t260 -55.5t168.5 -154t58.5 -225.5t-58.5 -225.5t-168.5 -154t-260 -55.5t-260 55.5zM810.5 -7.5q103.5 52.5 158.5 145.5t55 212t-55 212t-158.5 145.5t-243.5 52.5t-243.5 -52.5
t-158.5 -145.5t-55 -212t55 -212t158.5 -145.5t243.5 -52.5t243.5 52.5zM340.5 14.5q-96.5 49.5 -148.5 136.5t-52 199t52 199t148.5 136.5t226.5 49.5t226.5 -49.5t148.5 -136.5t52 -199t-52 -199t-148.5 -136.5t-226.5 -49.5t-226.5 49.5zM777 36q90 46 138.5 128
t48.5 186t-48.5 186t-138.5 128t-210 46t-210 -46t-138.5 -128t-48.5 -186t48.5 -186t138.5 -128t210 -46t210 46zM473 175l105 126v5h-17q-89 0 -134.5 32.5t-45.5 79.5q0 50 47.5 83.5t141.5 33.5q93 0 140.5 -33t47.5 -81q0 -20 -11 -41.5t-43 -59.5l-121 -145h-110z
M637 375.5q21 13.5 21 34.5q0 20 -21.5 33.5t-66.5 13.5q-46 0 -67.5 -13.5t-21.5 -33.5q0 -21 21.5 -34.5t67.5 -13.5t67 13.5z" />
    <glyph glyph-name="uni24FE" unicode="&#x24fe;" horiz-adv-x="1134" 
d="M307 -29.5q-110 55.5 -168.5 154t-58.5 225.5t58.5 225.5t168.5 154t260 55.5t260 -55.5t168.5 -154t58.5 -225.5t-58.5 -225.5t-168.5 -154t-260 -55.5t-260 55.5zM810.5 -7.5q103.5 52.5 158.5 145.5t55 212t-55 212t-158.5 145.5t-243.5 52.5t-243.5 -52.5
t-158.5 -145.5t-55 -212t55 -212t158.5 -145.5t243.5 -52.5t243.5 52.5zM340.5 14.5q-96.5 49.5 -148.5 136.5t-52 199t52 199t148.5 136.5t226.5 49.5t226.5 -49.5t148.5 -136.5t52 -199t-52 -199t-148.5 -136.5t-226.5 -49.5t-226.5 49.5zM777 36q90 46 138.5 128
t48.5 186t-48.5 186t-138.5 128t-210 46t-210 -46t-138.5 -128t-48.5 -186t48.5 -186t138.5 -128t210 -46t210 46zM610.5 188.5q-43.5 23.5 -67 65.5t-23.5 96t23.5 96t67 65.5t99.5 23.5t99.5 -23.5t67 -65.5t23.5 -96t-23.5 -96t-67 -65.5t-99.5 -23.5t-99.5 23.5z
M255 175v78h79v152h-79v73h39q25 0 36.5 11.5t11.5 35.5h87v-272h75v-78h-249zM774.5 271.5q25.5 28.5 25.5 78.5t-25.5 78.5t-64.5 28.5t-64.5 -28.5t-25.5 -78.5t25.5 -78.5t64.5 -28.5t64.5 28.5z" />
    <glyph glyph-name="uniF6D1" unicode="&#xf6d1;" horiz-adv-x="490" 
d="M84.5 794.5q-54.5 44.5 -54.5 118.5h112q1 -33 26 -51.5t77 -18.5t77 18.5t26 51.5h112q0 -74 -54.5 -118.5t-160.5 -44.5t-160.5 44.5z" />
    <glyph glyph-name="uniF6D4" unicode="&#xf6d4;" horiz-adv-x="424" 
d="M76 597q-46 39 -46 106h100q0 -63 82 -63t82 63h100q0 -67 -46 -106t-136 -39t-136 39z" />
    <glyph glyph-name="questiondown.alt" horiz-adv-x="615" 
d="M283.5 432q-23.5 22 -23.5 53t23.5 53t58.5 22t58.5 -22t23.5 -53t-23.5 -53t-58.5 -22t-58.5 22zM146 -173.5q-73 26.5 -107 70.5t-34 98q0 64 44 111t110 73.5t134 34.5v124h107l28 -190q-107 -4 -192.5 -37t-85.5 -93q0 -23 19.5 -44.5t63 -35t110.5 -13.5
q81 0 152.5 19.5t109.5 44.5v-135q-38 -21 -113 -37.5t-162 -16.5q-111 0 -184 26.5z" />
    <glyph glyph-name="Iacute_J.loclNLD" horiz-adv-x="1355" 
d="M720 700v-120h-270v-460h270v-120h-680v120h270v460h-270v120h680zM238 768h-13l-10 57l258 113h40l10 -118zM775 18v128q96 -31 180 -31q82 0 128.5 39t46.5 117v429h140v-429q0 -139 -81 -210t-227 -71q-87 0 -187 28zM1058 768h-13l-10 57l258 113h40l10 -118z" />
    <glyph glyph-name="i.loclTRK" horiz-adv-x="270" 
d="M69 610q-24 20 -24 54t24 54t66 20t66 -20t24 -54t-24 -54t-66 -20t-66 20zM65 0v550h6h64h63h7v-550h-140z" />
    <glyph glyph-name="iacute_j.loclNLD" horiz-adv-x="535" 
d="M38 623h-13l-10 57l188 113h37l10 -110zM303 623h-13l-10 57l188 113h37l10 -110zM205 0h-140v550h140v-550zM170 -186v107q40 -11 76 -11q39 0 61.5 25t22.5 73v542h140v-549q0 -98 -49.5 -149.5t-147.5 -51.5q-50 0 -103 14z" />
    <glyph glyph-name="F_O_R" horiz-adv-x="1950" 
d="M85 0v700h637v-44q24 17 91.5 35.5t156.5 18.5q62 0 113.5 -10t85.5 -22.5t46 -21.5v44h385q140 0 212.5 -58.5t72.5 -153.5q0 -85 -58 -136.5t-162 -51.5v-6q95 0 142.5 -41t47.5 -116v-137h-140v145q0 50 -30.5 75.5t-96.5 25.5h-197q-38 -118 -145.5 -187t-275.5 -69
q-136 0 -235 47t-151 129t-52 184q0 124 91 225h-398v-205h254v-100h-254v-270h-140zM1123.5 140.5q65.5 32.5 100.5 87.5t35 122t-35 122t-100.5 87.5t-153.5 32.5t-154 -32.5t-101 -87.5t-35 -122t35 -122t101 -87.5t154 -32.5t153.5 32.5zM1698.5 548.5
q-38.5 31.5 -113.5 31.5h-270q42 -47 67.5 -108.5t25.5 -121.5v-4h177q75 0 113.5 31.5t38.5 85.5t-38.5 85.5z" />
    <glyph glyph-name="H_E" horiz-adv-x="1317" 
d="M792 303v-183h470v-120h-610v303h-427v-303h-140v700h140v-297h427v297h590v-120h-450v-177h410v-100h-410z" />
    <glyph glyph-name="M_E" horiz-adv-x="1552" 
d="M1025 303v-183h472v-120h-612v571h-5l-325 -596l-325 596h-5v-571h-140v700h220l253 -472h5l246 472h668v-120h-452v-177h412v-100h-412z" />
    <glyph glyph-name="O_C" horiz-adv-x="1490" 
d="M280 37q-104 47 -157 128.5t-53 184.5t53 184.5t157 128.5t252 47q167 0 286 -82q122 82 312 82q93 0 173 -23t122 -51v-133q-40 34 -119 61.5t-171 27.5q-99 0 -170.5 -32t-108 -87t-36.5 -123q0 -67 36 -122.5t103.5 -87.5t158.5 -32q88 0 163 23t114 51v-130
q-40 -23 -117 -42.5t-168 -19.5q-89 0 -163 21t-130 59q-118 -80 -285 -80q-148 0 -252 47zM728 160q-56 83 -56 190q0 106 56 188q-76 54 -196 54q-99 0 -170 -32t-107.5 -87t-36.5 -123t36.5 -123t107.5 -87t170 -32q112 0 196 52z" />
    <glyph glyph-name="T_H_E" horiz-adv-x="1940" 
d="M1415 303v-183h470v-120h-610v303h-428v-303h-140v575h-270v-575h-140v575h-277v125h827v-297h428v297h590v-120h-450v-177h410v-100h-410z" />
    <glyph glyph-name="T_O" horiz-adv-x="1595" 
d="M1073 700q145 0 247 -45.5t153.5 -125.5t51.5 -181q0 -104 -51.5 -185t-153.5 -127t-247 -46t-247 45.5t-153.5 124.5t-51.5 178q0 76 32 138.5t72 92.5v6h-285v-575h-140v575h-280v125h1053zM1238.5 139q68.5 31 103.5 84.5t35 120.5q0 68 -35 122t-103.5 85t-165.5 31
t-165.5 -31t-103.5 -85t-35 -122q0 -67 35 -120.5t103.5 -84.5t165.5 -31t165.5 31z" />
    <glyph glyph-name="W_A_S" horiz-adv-x="2285" 
d="M1751.5 451q25.5 -19 64.5 -29.5t107 -23.5q95 -18 155.5 -37.5t103.5 -61t43 -111.5q0 -53 -34 -98t-105 -72.5t-176 -27.5q-344 0 -488 188h-355l-73 -178h-170l-182 539h-7l-183 -539h-193l-254 700h148l209 -579h7l195 579h149l197 -581h7l242 581h171l162 -360
q56 -125 154.5 -175t261.5 -50q85 0 127 25t42 58q0 30 -25.5 48.5t-63 28t-106.5 22.5q-96 18 -156.5 37t-104 60.5t-43.5 113.5q0 54 36.5 100t114 74t194.5 28q90 0 169 -21.5t121 -47.5v-140q-43 32 -124 58t-174 26q-66 0 -108.5 -13t-61.5 -32.5t-19 -39.5
q0 -30 25.5 -49zM1239 580h-7l-124 -302h257z" />
    <glyph glyph-name="a_n" horiz-adv-x="1168" 
d="M95 34.5q-55 44.5 -55 115.5q0 78 66 125t209 48q80 1 121.5 8.5t55 19t13.5 28.5q0 28 -37.5 47t-125.5 19q-72 0 -143 -20.5t-114 -46.5v122q37 23 110 41.5t158 18.5q137 0 193.5 -37t74.5 -78h7q37 44 105 79.5t147 35.5q106 0 167 -60t61 -163v-337h-140v316
q0 64 -35.5 100t-97.5 36q-58 0 -110 -28.5t-80 -63.5v-360h-140v85h-3q-34 -36 -101 -65.5t-146 -29.5q-105 0 -160 44.5zM424 122q55 22 81 50v108q-12 -11 -59 -21t-121 -11q-140 -3 -140 -76q0 -72 115 -72q69 0 124 22z" />
    <glyph glyph-name="a_s" horiz-adv-x="1293" 
d="M97 34.5q-57 44.5 -57 115.5q0 78 66 125t209 48q80 1 121.5 8.5t55 19t13.5 28.5q0 28 -37.5 47t-125.5 19q-72 0 -143 -20.5t-114 -46.5v122q37 23 110.5 41.5t157.5 18.5q154 0 223 -51.5t69 -145.5v-160q44 -37 134 -67.5t201 -30.5q128 0 128 56q0 23 -19.5 36
t-49 20.5t-84.5 16.5q-79 13 -128.5 27.5t-85.5 48.5t-36 93q0 42 28.5 77.5t89 57.5t152.5 22q81 0 151.5 -18.5t113.5 -42.5v-123q-44 25 -117.5 47t-144.5 22q-68 0 -98 -17t-30 -43q0 -30 36.5 -44t112.5 -26q78 -12 129.5 -27t88 -49.5t36.5 -95.5q0 -39 -29 -74
t-88.5 -57t-147.5 -22q-123 0 -231 34.5t-165 77.5h-6q-51 -43 -139 -77.5t-182 -34.5q-111 0 -168 44.5zM424 122q55 22 81 50v108q-12 -11 -59 -21t-121 -11q-140 -3 -140 -76q0 -72 115 -72q69 0 124 22z" />
    <glyph glyph-name="o_f" horiz-adv-x="1178" 
d="M212.5 27.5q-79.5 37.5 -121 102.5t-41.5 145t41.5 145t121 102.5t189.5 37.5q72 0 126.5 -14.5t86 -33t41.5 -31.5q5 15 24.5 27t49.5 12h138v26q0 87 51 135.5t137 48.5q34 0 60.5 -4t58.5 -13v-114q-44 16 -87 16q-38 0 -59 -19.5t-21 -56.5v-19h147v-80h-147v-440
h-140v440h-167v-3q26 -33 39.5 -75t13.5 -87q0 -80 -41.5 -145t-121 -102.5t-189.5 -37.5t-189.5 37.5zM554.5 148q54.5 48 54.5 127t-54.5 127t-152.5 48t-152.5 -48t-54.5 -127t54.5 -127t152.5 -48t152.5 48z" />
    <glyph glyph-name="r_e" horiz-adv-x="1132" 
d="M65 0v550h140v-87h6q13 23 43.5 45.5t78 37t107.5 14.5h330q93 0 164 -37t109.5 -102t38.5 -146v-34h-494q16 -61 74.5 -98.5t153.5 -37.5q65 0 124.5 20t91.5 44v-121q-33 -22 -96 -40t-136 -18q-109 0 -188 37.5t-120.5 102.5t-41.5 145q0 48 16 87.5t38 61.5v1h-121
q-72 0 -118.5 -25.5t-59.5 -56.5v-343h-140zM939 321q-8 55 -51 95.5t-116 40.5t-121.5 -37t-59.5 -99h348z" />
    <glyph glyph-name="a.alt" horiz-adv-x="782" 
d="M194.5 27q-68.5 37 -106.5 101.5t-38 146.5t38 146.5t106.5 101.5t157.5 37q72 0 131.5 -25.5t87.5 -56.5h6v72h140v-550h-140v72h-6q-28 -31 -87.5 -56.5t-131.5 -25.5q-89 0 -157.5 37zM506 123.5q49 23.5 71 51.5v200q-22 28 -71 51.5t-109 23.5q-94 0 -148 -48.5
t-54 -126.5t54 -126.5t148 -48.5q60 0 109 23.5z" />
    <glyph glyph-name="aacute.alt" horiz-adv-x="782" 
d="M194.5 27q-68.5 37 -106.5 101.5t-38 146.5t38 146.5t106.5 101.5t157.5 37q72 0 131.5 -25.5t87.5 -56.5h6v72h140v-550h-140v72h-6q-28 -31 -87.5 -56.5t-131.5 -25.5q-89 0 -157.5 37zM506 123.5q49 23.5 71 51.5v200q-22 28 -71 51.5t-109 23.5q-94 0 -148 -48.5
t-54 -126.5t54 -126.5t148 -48.5q60 0 109 23.5zM248 618h-13l-10 57l258 113h40l10 -118z" />
    <glyph glyph-name="abreve.alt" horiz-adv-x="782" 
d="M194.5 27q-68.5 37 -106.5 101.5t-38 146.5t38 146.5t106.5 101.5t157.5 37q72 0 131.5 -25.5t87.5 -56.5h6v72h140v-550h-140v72h-6q-28 -31 -87.5 -56.5t-131.5 -25.5q-89 0 -157.5 37zM506 123.5q49 23.5 71 51.5v200q-22 28 -71 51.5t-109 23.5q-94 0 -148 -48.5
t-54 -126.5t54 -126.5t148 -48.5q60 0 109 23.5zM240.5 669.5q-49.5 39.5 -49.5 105.5h110q1 -31 22 -47t67 -16t67 16t22 47h110q0 -66 -49.5 -105.5t-149.5 -39.5t-149.5 39.5z" />
    <glyph glyph-name="acircumflex.alt" horiz-adv-x="782" 
d="M194.5 27q-68.5 37 -106.5 101.5t-38 146.5t38 146.5t106.5 101.5t157.5 37q72 0 131.5 -25.5t87.5 -56.5h6v72h140v-550h-140v72h-6q-28 -31 -87.5 -56.5t-131.5 -25.5q-89 0 -157.5 37zM506 123.5q49 23.5 71 51.5v200q-22 28 -71 51.5t-109 23.5q-94 0 -148 -48.5
t-54 -126.5t54 -126.5t148 -48.5q60 0 109 23.5zM286 630h-136l166 142h148l166 -142h-136l-99 85h-10z" />
    <glyph glyph-name="adieresis.alt" horiz-adv-x="782" 
d="M194.5 27q-68.5 37 -106.5 101.5t-38 146.5t38 146.5t106.5 101.5t157.5 37q72 0 131.5 -25.5t87.5 -56.5h6v72h140v-550h-140v72h-6q-28 -31 -87.5 -56.5t-131.5 -25.5q-89 0 -157.5 37zM506 123.5q49 23.5 71 51.5v200q-22 28 -71 51.5t-109 23.5q-94 0 -148 -48.5
t-54 -126.5t54 -126.5t148 -48.5q60 0 109 23.5zM215 647q-23 22 -23 53t23 53t56 22t56 -22t23 -53t-23 -53t-56 -22t-56 22zM452 647q-23 22 -23 53t23 53t56 22t56 -22t23 -53t-23 -53t-56 -22t-56 22z" />
    <glyph glyph-name="agrave.alt" horiz-adv-x="782" 
d="M194.5 27q-68.5 37 -106.5 101.5t-38 146.5t38 146.5t106.5 101.5t157.5 37q72 0 131.5 -25.5t87.5 -56.5h6v72h140v-550h-140v72h-6q-28 -31 -87.5 -56.5t-131.5 -25.5q-89 0 -157.5 37zM506 123.5q49 23.5 71 51.5v200q-22 28 -71 51.5t-109 23.5q-94 0 -148 -48.5
t-54 -126.5t54 -126.5t148 -48.5q60 0 109 23.5zM545 618h-13l-285 52l10 118h40l258 -113z" />
    <glyph glyph-name="amacron.alt" horiz-adv-x="782" 
d="M194.5 27q-68.5 37 -106.5 101.5t-38 146.5t38 146.5t106.5 101.5t157.5 37q72 0 131.5 -25.5t87.5 -56.5h6v72h140v-550h-140v72h-6q-28 -31 -87.5 -56.5t-131.5 -25.5q-89 0 -157.5 37zM506 123.5q49 23.5 71 51.5v200q-22 28 -71 51.5t-109 23.5q-94 0 -148 -48.5
t-54 -126.5t54 -126.5t148 -48.5q60 0 109 23.5zM587 650h-394v100h394v-100z" />
    <glyph glyph-name="aogonek.alt" horiz-adv-x="782" 
d="M722 -127v-87q-50 -9 -100 -9q-62 0 -97 22t-35 66q0 36 31 70t81 60v5h-25v72h-6q-28 -31 -87.5 -56.5t-131.5 -25.5q-89 0 -157.5 37t-106.5 101.5t-38 146.5t38 146.5t106.5 101.5t157.5 37q72 0 131.5 -25.5t87.5 -56.5h6v72h140v-550q-115 -58 -115 -104
q0 -31 47 -31q38 0 73 8zM577 375q-22 28 -71 51.5t-109 23.5q-94 0 -148 -48.5t-54 -126.5t54 -126.5t148 -48.5q60 0 109 23.5t71 51.5v200z" />
    <glyph glyph-name="aring.alt" horiz-adv-x="782" 
d="M194.5 27q-68.5 37 -106.5 101.5t-38 146.5t38 146.5t106.5 101.5t157.5 37q72 0 131.5 -25.5t87.5 -56.5h6v72h140v-550h-140v72h-6q-28 -31 -87.5 -56.5t-131.5 -25.5q-89 0 -157.5 37zM506 123.5q49 23.5 71 51.5v200q-22 28 -71 51.5t-109 23.5q-94 0 -148 -48.5
t-54 -126.5t54 -126.5t148 -48.5q60 0 109 23.5zM288.5 629.5q-35.5 29.5 -35.5 75.5t35.5 75.5t101.5 29.5t101.5 -29.5t35.5 -75.5t-35.5 -75.5t-101.5 -29.5t-101.5 29.5zM432.5 677q14.5 11 14.5 28t-14.5 28t-42.5 11t-42.5 -11t-14.5 -28t14.5 -28t42.5 -11t42.5 11z
" />
    <glyph glyph-name="aringacute.alt" horiz-adv-x="782" 
d="M269 757.5q16 20.5 54 44.5l157 98h38l10 -90l-63 -15q62 -27 62 -90q0 -46 -35.5 -75.5t-101.5 -29.5t-101.5 29.5t-35.5 75.5q0 32 16 52.5zM347.5 677q14.5 -11 42.5 -11t42.5 11t14.5 28t-14.5 28t-42.5 11t-42.5 -11t-14.5 -28t14.5 -28zM194.5 27
q-68.5 37 -106.5 101.5t-38 146.5t38 146.5t106.5 101.5t157.5 37q72 0 131.5 -25.5t87.5 -56.5h6v72h140v-550h-140v72h-6q-28 -31 -87.5 -56.5t-131.5 -25.5q-89 0 -157.5 37zM506 123.5q49 23.5 71 51.5v200q-22 28 -71 51.5t-109 23.5q-94 0 -148 -48.5t-54 -126.5
t54 -126.5t148 -48.5q60 0 109 23.5z" />
    <glyph glyph-name="atilde.alt" horiz-adv-x="782" 
d="M194.5 27q-68.5 37 -106.5 101.5t-38 146.5t38 146.5t106.5 101.5t157.5 37q72 0 131.5 -25.5t87.5 -56.5h6v72h140v-550h-140v72h-6q-28 -31 -87.5 -56.5t-131.5 -25.5q-89 0 -157.5 37zM506 123.5q49 23.5 71 51.5v200q-22 28 -71 51.5t-109 23.5q-94 0 -148 -48.5
t-54 -126.5t54 -126.5t148 -48.5q60 0 109 23.5zM433.5 638.5q-23.5 10.5 -51.5 30.5q-17 13 -30 19.5t-26 6.5q-14 0 -21.5 -8t-7.5 -22v-32h-110v48q0 45 27 71t75 26q33 0 56.5 -10.5t51.5 -30.5q17 -13 30 -19.5t26 -6.5q14 0 21.5 8t7.5 22v32h110v-48q0 -45 -27 -71
t-75 -26q-33 0 -56.5 10.5z" />
    <glyph glyph-name="g.alt" horiz-adv-x="780" 
d="M237.5 -182q-74.5 18 -112.5 40v123q38 -25 107 -45.5t148 -20.5q225 0 225 118q0 24 -8.5 45t-18.5 31h-7q-29 -32 -90 -58t-134 -26q-89 0 -156.5 35t-104 96t-36.5 136q0 76 36.5 137t104 96t156.5 35q73 0 132.5 -25.5t87.5 -57.5h6v73h139v-425q13 -16 23 -44.5
t10 -60.5q0 -63 -36.5 -112.5t-114 -78.5t-196.5 -29q-86 0 -160.5 18zM497.5 158q50.5 23 75.5 51v165q-25 29 -75.5 52.5t-112.5 23.5q-92 0 -141 -42.5t-49 -115.5q0 -72 49 -114.5t141 -42.5q62 0 112.5 23z" />
    <glyph glyph-name="uni01F5.alt" horiz-adv-x="780" 
d="M237.5 -182q-74.5 18 -112.5 40v123q38 -25 107 -45.5t148 -20.5q225 0 225 118q0 24 -8.5 45t-18.5 31h-7q-29 -32 -90 -58t-134 -26q-89 0 -156.5 35t-104 96t-36.5 136q0 76 36.5 137t104 96t156.5 35q73 0 132.5 -25.5t87.5 -57.5h6v73h139v-425q13 -16 23 -44.5
t10 -60.5q0 -63 -36.5 -112.5t-114 -78.5t-196.5 -29q-86 0 -160.5 18zM497.5 158q50.5 23 75.5 51v165q-25 29 -75.5 52.5t-112.5 23.5q-92 0 -141 -42.5t-49 -115.5q0 -72 49 -114.5t141 -42.5q62 0 112.5 23zM238 618h-13l-10 57l258 113h40l10 -118z" />
    </font>
</defs>
</svg>
