<?xml version="1.0" standalone="no"?>
<!DOCTYPE svg PUBLIC "-//W3C//DTD SVG 1.1//EN" "http://www.w3.org/Graphics/SVG/1.1/DTD/svg11.dtd" >
<svg xmlns="http://www.w3.org/2000/svg" xmlns:xlink="http://www.w3.org/1999/xlink" version="1.1">
<metadata>
Created by FontForge 20201107 at Mon Feb  6 14:54:41 2023
 By 
Copyright (c) 2020-2021 by TypeType. All rights reserved. Special version for DaFont.
</metadata>
<defs>
<font id="TTRuns-BlackOutlineItalic" horiz-adv-x="800" >
  <font-face 
    font-family="TT Runs Black Outline"
    font-weight="910"
    font-style="italic"
    font-stretch="normal"
    units-per-em="1000"
    panose-1="2 0 0 0 0 0 0 0 6 7"
    ascent="800"
    descent="-200"
    x-height="570"
    cap-height="700"
    bbox="-575 -350 2363 1000"
    underline-thickness="40"
    underline-position="-175"
    slope="-11"
    unicode-range="U+000D-FB03"
  />
<missing-glyph horiz-adv-x="900" 
d="M168 0v284h45v-139h33v139h50v31h-128v126l19 -61h23l34 106l33 -106h23l54 170h-32l-34 -110l-35 110h-19l-35 -110l-31 103v157h700v-150h-110v-170h110v-91q-6 13 -19.5 20t-30.5 7q-27 0 -43.5 -14.5t-16.5 -34.5q0 -22 14.5 -32.5t39.5 -17.5q17 -5 25.5 -9.5
t8.5 -13.5q0 -21 -28 -21q-14 0 -21 7t-7 18h-33q0 -24 17 -39.5t44 -15.5q17 0 30.5 6.5t19.5 13.5v-163h-700zM379 380h33v62h24l35 -62h37l-40 67q36 17 36 50q0 22 -16 37.5t-41 15.5h-68v-170zM537 550v-170h33v170h-33zM648 519v-139h32v139h50v31h-132v-31h50z
M412 473v46h35q10 0 17 -6.5t7 -16.5q0 -12 -7.5 -17.5t-16.5 -5.5h-35zM868 483h-78v36h78v-36zM868 411h-78v41h78v-41zM455.5 167.5q22.5 24.5 22.5 61.5t-23 62t-59 25t-59 -25t-23 -62t22.5 -61.5t59.5 -24.5t59.5 24.5zM701 162q19 19 19 47v106h-32v-106
q0 -15 -9.5 -25t-25.5 -10q-17 0 -26.5 10.5t-9.5 24.5v106h-32v-106q0 -28 19.5 -47t48.5 -19t48 19zM868 224q-15 14 -46 22q-16 5 -23 9t-7 12q0 9 7.5 14.5t18.5 5.5q10 0 18 -7t8 -18h24v-38zM359.5 190q-14.5 16 -14.5 39q0 25 14 40.5t37 15.5t37 -15.5t14 -40.5
q0 -23 -14.5 -39t-36.5 -16t-36.5 16z" />
    <glyph glyph-name="ff" unicode="ff" horiz-adv-x="965" 
d="M105 0l65 333h-106l21 107h105l15 77q21 109 85 163.5t177 54.5q42 0 74.5 -5.5t74.5 -19.5l-41 -209q-39 12 -59 12q-40 0 -47 -42l-6 -31h138l15 77q20 105 94 161.5t189 56.5q53 0 96 -5.5t93 -19.5l-41 -211q-33 11 -53 15t-43 4q-63 0 -74 -57l-4 -21h143l-21 -107
h-144l-65 -333h-270l65 333h-139l-65 -333h-272zM143 30h207l65 333h204l-65 -333h206l65 333h144l9 47h-144l10 50q17 88 107 88q32 0 72 -10l29 150q-72 17 -153 17q-103 0 -167.5 -50t-83.5 -144l-20 -101h-204l13 67q6 31 26.5 48.5t52.5 17.5q14 0 34 -5l30 152
q-29 8 -54.5 11.5t-58.5 3.5q-101 0 -155 -47t-74 -147l-20 -101h-107l-9 -47h106z" />
    <glyph glyph-name="fi" unicode="fi" horiz-adv-x="830" 
d="M97 0l65 333h-98l21 107h98l11 58q23 121 115 179t258 58q164 0 343 -44l-40 -207q-155 34 -275 34q-72 0 -103 -14.5t-37 -51.5l-2 -12h408l-86 -440h-270l65 333h-138l-65 -333h-270zM135 30h206l65 333h202l-65 -333h206l74 380h-408l9 46q10 49 48.5 70.5t120.5 21.5
q113 0 251 -28l30 149q-158 36 -307 36q-155 0 -237.5 -51.5t-104.5 -161.5l-16 -82h-98l-9 -47h98z" />
    <glyph glyph-name="ffi" unicode="ffi" horiz-adv-x="1250" 
d="M105 0l65 333h-106l21 107h105l15 77q21 109 85 163.5t177 54.5q42 0 74.5 -5.5t74.5 -19.5l-41 -209q-39 12 -59 12q-40 0 -47 -42l-6 -31h139l11 58q23 121 115 179t258 58q165 0 344 -44l-40 -207q-155 34 -276 34q-72 0 -103 -14.5t-37 -51.5l-2 -12h409l-86 -440
h-270l65 333h-139l-65 -333h-270l65 333h-139l-65 -333h-272zM143 30h207l65 333h204l-65 -333h206l65 333h203l-65 -333h206l74 380h-409l9 46q10 49 48.5 70.5t120.5 21.5q114 0 252 -28l30 149q-158 36 -308 36q-155 0 -237.5 -51.5t-104.5 -161.5l-16 -82h-204l13 67
q6 31 26.5 48.5t52.5 17.5q14 0 34 -5l30 152q-29 8 -54.5 11.5t-58.5 3.5q-101 0 -155 -47t-74 -147l-20 -101h-107l-9 -47h106z" />
    <glyph glyph-name="f_f_j" unicode="ffj" horiz-adv-x="1250" 
d="M824 -199.5q-37 5.5 -81 18.5l31 161q44 -15 74 -15q71 0 85 73l57 295h-139l-65 -333h-270l65 333h-139l-65 -333h-272l65 333h-106l21 107h105l15 77q21 109 85 163.5t177 54.5q42 0 74.5 -5.5t74.5 -19.5l-41 -209q-39 12 -59 12q-40 0 -47 -42l-6 -31h139l11 58
q23 121 115 179t258 58q165 0 344 -44l-40 -207q-155 34 -276 34q-72 0 -103 -14.5t-37 -51.5l-2 -12h409l-80 -409q-24 -123 -94.5 -179.5t-202.5 -56.5q-43 0 -80 5.5zM1086.5 -126q61.5 49 83.5 161l73 375h-409l9 46q10 49 48.5 70.5t120.5 21.5q114 0 252 -28l30 149
q-158 36 -308 36q-155 0 -237.5 -51.5t-104.5 -161.5l-16 -82h-204l13 67q6 31 26.5 48.5t52.5 17.5q14 0 34 -5l30 152q-29 8 -54.5 11.5t-58.5 3.5q-101 0 -155 -47t-74 -147l-20 -101h-107l-9 -47h106l-65 -333h207l65 333h204l-65 -333h206l65 333h203l-65 -331
q-19 -97 -112 -97q-26 0 -54 7l-19 -101q30 -9 59 -12.5t67 -3.5q121 0 182.5 49z" />
    <glyph glyph-name="f_j" unicode="fj" horiz-adv-x="830" 
d="M402.5 -199.5q-37.5 5.5 -79.5 18.5l31 161q44 -15 74 -15q35 0 56 17.5t28 55.5l58 295h-138l-65 -333h-270l65 333h-98l21 107h98l11 58q23 121 115 179t258 58q164 0 343 -44l-40 -207q-155 34 -275 34q-72 0 -103 -14.5t-37 -51.5l-2 -12h408l-80 -409
q-24 -123 -94.5 -179.5t-202.5 -56.5q-44 0 -81.5 5.5zM666 -126q61 49 83 161l74 375h-408l9 46q10 49 48.5 70.5t120.5 21.5q113 0 251 -28l30 149q-158 36 -307 36q-155 0 -237.5 -51.5t-104.5 -161.5l-16 -82h-98l-9 -47h98l-65 -333h206l65 333h202l-65 -331
q-19 -97 -112 -97q-26 0 -54 7l-19 -102q53 -15 126 -15q121 0 182 49z" />
    <glyph glyph-name="f_t" unicode="ft" horiz-adv-x="985" 
d="M623.5 41q-61.5 56 -61.5 155q0 34 7 68l13 69h-141l-65 -333h-271l65 333h-106l21 107h105l15 77q21 109 85 163.5t177 54.5q42 0 74.5 -5.5t74.5 -19.5l-41 -209q-39 12 -59 12q-40 0 -48 -42l-6 -31h114q15 0 22.5 5.5t10.5 24.5l49 250h267l-55 -281h166l-21 -107
h-166l-9 -48q-2 -8 -2 -23q0 -52 62 -52q19 0 39 4.5t56 15.5l-43 -219q-42 -13 -77.5 -19t-75.5 -6q-114 0 -175.5 56zM924 33l30 153q-29 -7 -54 -7q-45 0 -69 21t-24 60q0 14 3 30l14 71h164l10 49h-165l55 280h-203l-44 -226q-6 -29 -21 -41.5t-44 -12.5h-153l13 67
q6 31 26.5 48.5t53.5 17.5q14 0 34 -5l30 152q-29 8 -54.5 11.5t-58.5 3.5q-101 0 -155 -47t-74 -147l-20 -101h-107l-9 -47h106l-65 -333h206l65 333h206l-20 -105q-6 -33 -6 -63q0 -87 53.5 -133.5t151.5 -46.5q63 0 125 18z" />
    <glyph glyph-name=".notdef" horiz-adv-x="900" 
d="M168 0v284h45v-139h33v139h50v31h-128v126l19 -61h23l34 106l33 -106h23l54 170h-32l-34 -110l-35 110h-19l-35 -110l-31 103v157h700v-150h-110v-170h110v-91q-6 13 -19.5 20t-30.5 7q-27 0 -43.5 -14.5t-16.5 -34.5q0 -22 14.5 -32.5t39.5 -17.5q17 -5 25.5 -9.5
t8.5 -13.5q0 -21 -28 -21q-14 0 -21 7t-7 18h-33q0 -24 17 -39.5t44 -15.5q17 0 30.5 6.5t19.5 13.5v-163h-700zM379 380h33v62h24l35 -62h37l-40 67q36 17 36 50q0 22 -16 37.5t-41 15.5h-68v-170zM537 550v-170h33v170h-33zM648 519v-139h32v139h50v31h-132v-31h50z
M412 473v46h35q10 0 17 -6.5t7 -16.5q0 -12 -7.5 -17.5t-16.5 -5.5h-35zM868 483h-78v36h78v-36zM868 411h-78v41h78v-41zM455.5 167.5q22.5 24.5 22.5 61.5t-23 62t-59 25t-59 -25t-23 -62t22.5 -61.5t59.5 -24.5t59.5 24.5zM701 162q19 19 19 47v106h-32v-106
q0 -15 -9.5 -25t-25.5 -10q-17 0 -26.5 10.5t-9.5 24.5v106h-32v-106q0 -28 19.5 -47t48.5 -19t48 19zM868 224q-15 14 -46 22q-16 5 -23 9t-7 12q0 9 7.5 14.5t18.5 5.5q10 0 18 -7t8 -18h24v-38zM359.5 190q-14.5 16 -14.5 39q0 25 14 40.5t37 15.5t37 -15.5t14 -40.5
q0 -23 -14.5 -39t-36.5 -16t-36.5 16z" />
    <glyph glyph-name=".null" horiz-adv-x="0" 
 />
    <glyph glyph-name="nonmarkingreturn" unicode="&#xd;" horiz-adv-x="0" 
 />
    <glyph glyph-name="space" unicode=" " horiz-adv-x="290" 
 />
    <glyph glyph-name="exclam" unicode="!" horiz-adv-x="360" 
d="M311 239h-179l-10 189l58 292h271l-59 -297zM154 426l8 -157h127l73 162l51 259h-207zM109 8.5q-35 28.5 -35 74.5q0 52 35.5 85.5t90.5 33.5q58 0 92.5 -28t34.5 -75q0 -53 -35 -86t-90 -33q-58 0 -93 28.5zM270 34q25 24 25 65q0 34 -25 53.5t-70 19.5q-42 0 -68 -24.5
t-26 -64.5q0 -34 25.5 -53.5t70.5 -19.5q43 0 68 24z" />
    <glyph glyph-name="quotedbl" unicode="&#x22;" horiz-adv-x="550" 
d="M317 390h-204l64 330h204zM203 690l-53 -270h141l53 270h-141zM582 390h-204l64 330h204zM468 690l-53 -270h141l53 270h-141z" />
    <glyph glyph-name="numbersign" unicode="#" horiz-adv-x="860" 
d="M305 0h-246l72 172h-78l26 136h109l40 94h-82l26 135h113l69 163h246l-68 -163h80l69 163h248l-69 -163h85l-26 -135h-116l-40 -94h89l-26 -136h-121l-72 -172h-248l73 172h-80zM177 202l-72 -172h178l73 172h150l-73 -172h178l72 172h117l14 76h-99l66 154h112l14 75
h-95l69 163h-178l-69 -163h-148l68 163h-178l-69 -163h-109l-14 -75h92l-66 -154h-105l-14 -76h86zM538 278h-150l66 154h148zM476 402l-40 -94h80l40 94h-80z" />
    <glyph glyph-name="dollar" unicode="$" horiz-adv-x="825" 
d="M276 12q-105 33 -172 73l47 242q31 -22 93.5 -51.5t131.5 -51t120 -21.5q24 0 34 6t10 19q0 20 -26 32.5t-100 29.5q-79 17 -136 38.5t-98.5 64t-41.5 110.5q0 100 73.5 153.5t213.5 62.5l19 101h259l-24 -128q37 -7 97.5 -33.5t86.5 -48.5l-47 -242q-66 51 -161.5 90
t-193.5 39q-48 0 -48 -26q0 -19 24.5 -31t98.5 -29q81 -19 138.5 -40.5t99 -64t41.5 -109.5q0 -71 -38.5 -120t-103.5 -73t-144 -24l-18 -100h-260zM289 -90h196l18 100q128 0 204 46t76 141q0 57 -36.5 93t-88.5 55t-129 37q-73 17 -110.5 35t-37.5 54q0 27 21.5 41.5
t58.5 14.5q90 0 180.5 -33t153.5 -74l35 176q-37 23 -89 43.5t-98 30.5l22 120h-195l-19 -100q-122 0 -201.5 -46.5t-79.5 -140.5q0 -57 35.5 -92.5t85.5 -53.5t130 -37q50 -12 80 -22t50.5 -27t20.5 -43q0 -55 -76 -55q-69 0 -165.5 34.5t-156.5 68.5l-35 -177
q31 -18 84.5 -38.5t88.5 -27.5z" />
    <glyph glyph-name="percent" unicode="%" horiz-adv-x="1050" 
d="M204.5 356.5q-48.5 22.5 -75 63.5t-26.5 94q0 59 27.5 106t75.5 73.5t109 26.5q62 0 110.5 -22.5t75.5 -63.5t27 -94q0 -59 -27.5 -106t-76 -73.5t-109.5 -26.5q-62 0 -110.5 22.5zM453 0h-245l523 700h245zM408.5 386.5q41.5 22.5 64.5 62.5t23 91q0 68 -49.5 109
t-131.5 41q-52 0 -93 -22.5t-64 -62.5t-23 -91q0 -68 49 -109t131 -41q52 0 93.5 22.5zM747 670l-477 -640h167l477 640h-167zM266 474q-19 19 -19 47q0 35 19.5 56.5t50.5 21.5q29 0 48 -18.5t19 -47.5q0 -35 -20 -56.5t-51 -21.5q-28 0 -47 19zM341.5 498q10.5 13 10.5 35
q0 16 -9.5 26t-25.5 10q-17 0 -27.5 -13t-10.5 -35q0 -17 9 -26.5t25 -9.5q18 0 28.5 13zM758.5 2.5q-48.5 22.5 -75.5 63.5t-27 94q0 59 27.5 106t76 73.5t109.5 26.5q62 0 110.5 -22.5t75 -63.5t26.5 -94q0 -59 -27.5 -106t-75.5 -73.5t-109 -26.5q-62 0 -110.5 22.5z
M962 32.5q41 22.5 64 62.5t23 91q0 68 -49 109t-131 41q-52 0 -93.5 -22.5t-64.5 -62.5t-23 -91q0 -68 49.5 -109t131.5 -41q52 0 93 22.5zM819 119.5q-19 18.5 -19 47.5q0 35 20 56.5t51 21.5q29 0 48 -19t19 -47q0 -35 -20 -56.5t-51 -21.5q-29 0 -48 18.5zM895.5 144
q10.5 13 10.5 35q0 16 -10 26t-25 10q-18 0 -28.5 -13t-10.5 -35q0 -16 9.5 -26t25.5 -10q18 0 28.5 13z" />
    <glyph glyph-name="ampersand" unicode="&#x26;" horiz-adv-x="855" 
d="M200.5 2.5q-55.5 22.5 -86.5 63t-31 92.5q0 150 172 211q-28 38 -41.5 71.5t-13.5 67.5q0 100 70 156t200 56q92 0 173 -28t126 -60l-46 -230q-54 46 -119.5 77t-110.5 31q-11 0 -18 -6t-7 -16q0 -13 11 -28t53 -60l62 -66q36 32 49 50h270q-33 -47 -83.5 -101.5
t-98.5 -97.5l172 -185h-311l-42 45q-45 -27 -103.5 -46t-117.5 -19q-73 0 -128.5 22.5zM447.5 30.5q61.5 20.5 107.5 55.5l51 -56h227l-146 157q45 39 89.5 85t72.5 82h-190q-29 -31 -67 -63l-84 89q-43 45 -57.5 66t-14.5 43q0 23 16 37t41 14q46 0 100.5 -24t106.5 -58
l33 163q-49 28 -116.5 48.5t-146.5 20.5q-117 0 -177.5 -47.5t-60.5 -134.5q0 -33 14 -65.5t45 -69.5l-5 -25q-171 -53 -171 -190q0 -66 58.5 -107t155.5 -41q57 0 118.5 20.5zM269.5 172.5q-18.5 13.5 -18.5 37.5q0 53 101 94l92 -99q-27 -21 -60 -33.5t-63 -12.5
q-33 0 -51.5 13.5zM397 211l-52 57q-62 -29 -62 -57q0 -22 38 -22q34 0 76 22z" />
    <glyph glyph-name="quotesingle" unicode="'" horiz-adv-x="285" 
d="M317 390h-204l64 330h204zM203 690l-53 -270h141l53 270h-141z" />
    <glyph glyph-name="parenleft" unicode="(" horiz-adv-x="435" 
d="M311 -190q-65 0 -116 25t-79.5 70.5t-28.5 103.5q0 41 7 77l89 457q23 121 86.5 179t172.5 58h147l-44 -224h-64q-26 0 -40 -13.5t-20 -45.5l-78 -398q-2 -12 -2 -20q0 -20 13.5 -32.5t37.5 -12.5h52l-44 -224h-89zM374 -160l32 164h-17q-38 0 -59.5 19.5t-21.5 53.5
q0 13 3 28l78 398q8 42 30 62.5t60 20.5h40l32 164h-108q-97 0 -151.5 -51t-76.5 -162l-89 -457q-7 -38 -7 -69q0 -50 24.5 -89t68.5 -60.5t100 -21.5h62z" />
    <glyph glyph-name="parenright" unicode=")" horiz-adv-x="435" 
d="M-32 -190l44 224h64q26 0 40 13.5t20 45.5l78 398q2 12 2 20q0 20 -13.5 32.5t-37.5 12.5h-52l44 224h89q65 0 116 -25t79.5 -70.5t28.5 -103.5q0 -41 -7 -77l-89 -457q-23 -121 -86.5 -179t-172.5 -58h-147zM114 -160q97 0 151.5 51t76.5 162l89 457q7 39 7 69
q0 50 -24.5 89t-68.5 60.5t-100 21.5h-62l-32 -164h17q38 0 59.5 -19.5t21.5 -53.5q0 -13 -3 -28l-78 -398q-8 -42 -30 -62.5t-60 -20.5h-40l-32 -164h108z" />
    <glyph glyph-name="asterisk" unicode="*" horiz-adv-x="440" 
d="M320 463l-52 -70l-123 98l56 60l-89 35l51 133l77 -26v77h160v-77l77 26l51 -133l-89 -35l56 -60l-123 -98zM191 495l71 -58l58 78l58 -78l71 58l-64 68l103 39l-31 79l-89 -30v89h-96v-89l-89 30l-31 -79l103 -39z" />
    <glyph glyph-name="plus" unicode="+" horiz-adv-x="660" 
d="M477 35h-174v185h-188v170h188v185h174v-185h188v-170h-188v-185zM335 250v-185h110v185h188v110h-188v185h-110v-185h-188v-110h188z" />
    <glyph glyph-name="comma" unicode="," horiz-adv-x="280" 
d="M-13 -190l26 133h66q37 0 59.5 8.5t31.5 28.5q-19 -9 -44 -9q-43 0 -69.5 26t-26.5 69q0 50 32.5 82t87.5 32q59 0 93.5 -37t34.5 -99q0 -69 -26.5 -122.5t-73.5 -82.5t-108 -29h-83zM70 -160q79 0 127.5 55.5t48.5 148.5q0 50 -25 78t-71 28q-42 0 -65 -23t-23 -61
q0 -30 18 -47.5t47 -17.5q39 0 62 27h26q-7 -58 -37.5 -86.5t-98.5 -28.5h-40l-14 -73h45z" />
    <glyph glyph-name="hyphen" unicode="-" horiz-adv-x="540" 
d="M535 230h-440l33 170h440zM154 370l-21 -110h376l21 110h-376z" />
    <glyph glyph-name="period" unicode="." horiz-adv-x="280" 
d="M74 5q-31 25 -31 68q0 47 32.5 77t82.5 30q53 0 84 -25t31 -68q0 -47 -32 -77t-83 -30q-53 0 -84 25zM218.5 31q22.5 21 22.5 56q0 29 -22 46t-61 17q-37 0 -60 -21.5t-23 -55.5q0 -29 22 -46t61 -17q38 0 60.5 21z" />
    <glyph glyph-name="slash" unicode="/" horiz-adv-x="575" 
d="M251 -70h-262l514 840h262zM522 740l-477 -780h187l477 780h-187z" />
    <glyph glyph-name="zero" unicode="0" horiz-adv-x="1020" 
d="M344 25.5q-100 45.5 -156.5 126.5t-56.5 184q0 110 58.5 197.5t163.5 137t239 49.5q126 0 226 -45.5t156 -126.5t56 -184q0 -110 -58.5 -197.5t-163.5 -137t-238 -49.5q-126 0 -226 45.5zM792.5 55.5q97.5 45.5 151.5 126t54 182.5q0 94 -52 168.5t-144 116t-210 41.5
q-125 0 -222.5 -45.5t-152 -126t-54.5 -182.5q0 -94 52 -168.5t144.5 -116t210.5 -41.5q125 0 222.5 45.5zM474 184q-45 22 -69.5 62.5t-24.5 92.5q0 54 27 99.5t74.5 72.5t104.5 27t101.5 -22t69 -62.5t24.5 -92.5q0 -54 -27 -99.5t-74 -72.5t-104 -27t-102 22z
M663.5 214.5q39.5 22.5 62.5 61.5t23 85q0 67 -44.5 107t-118.5 40q-49 0 -89 -22.5t-62.5 -61.5t-22.5 -85q0 -67 45 -107t119 -40q48 0 87.5 22.5z" />
    <glyph glyph-name="one" unicode="1" horiz-adv-x="750" 
d="M50 0l40 207h211l43 219h-207l41 207h177q23 0 33.5 9.5t14.5 34.5l4 23h281l-95 -493h177l-41 -207h-679zM88 30h614l29 147h-176l95 493h-215q-5 -37 -24.5 -52t-55.5 -15h-151l-29 -147h207l-54 -279h-211z" />
    <glyph glyph-name="two" unicode="2" horiz-adv-x="805" 
d="M565 226h220l-44 -226h-676l38 193l303 149q59 29 89.5 48.5t42.5 36t12 35.5q0 46 -99 46q-87 0 -171.5 -34t-145.5 -71l46 242q47 27 133.5 51t174.5 24q104 0 181.5 -26t119.5 -75t42 -114q0 -165 -205 -253zM715 30l32 166h-263l6 30l124 54q94 40 139.5 95.5
t45.5 129.5q0 56 -38 98t-108 64.5t-165 22.5q-77 0 -152 -19.5t-127 -44.5l-32 -163q58 32 130 53.5t144 21.5q62 0 96.5 -19.5t34.5 -56.5q0 -27 -14 -47.5t-48.5 -43.5t-99.5 -55l-289 -143l-28 -143h612z" />
    <glyph glyph-name="three" unicode="3" 
d="M865 700l-31 -159l-213 -114q83 -15 134 -69.5t51 -129.5q0 -77 -42.5 -133t-120 -85.5t-182.5 -29.5q-238 0 -388 88l45 229q67 -46 138.5 -75.5t171.5 -29.5q48 0 72.5 14.5t24.5 41.5q0 58 -111 58q-83 0 -185 -21l21 107l142 87h-235l43 221h665zM806 561l21 109
h-601l-31 -161h257l-8 -33l-166 -102l-10 -51q80 13 146 13q68 0 105.5 -22t37.5 -66q0 -41 -34.5 -63.5t-94.5 -22.5q-82 0 -158 24.5t-130 59.5l-32 -163q138 -73 353 -73q145 0 229 58t84 160q0 49 -26.5 88.5t-73.5 62.5t-106 24l4 32z" />
    <glyph glyph-name="four" unicode="4" horiz-adv-x="830" 
d="M808 422l-18 -95h103l-41 -207h-102l-23 -120h-260l23 120h-456l36 184l406 396h322l-387 -373h120l18 95h259zM724 150h102l29 147h-103l18 95h-195l-18 -95h-195l6 31l354 342h-232l-390 -380l-28 -140h456l-23 -120h196z" />
    <glyph glyph-name="five" unicode="5" horiz-adv-x="790" 
d="M668 414.5q66 -26.5 102.5 -74.5t36.5 -111q0 -77 -43 -133t-123.5 -86t-191.5 -30q-113 0 -216.5 26t-158.5 56l41 216q47 -33 129 -64.5t175 -31.5q52 0 80 18t28 54q0 61 -96 61q-29 0 -57.5 -7.5t-50.5 -20.5h-188l106 413h604l-43 -221h-370l-15 -51q44 13 98 13
q87 0 153 -26.5zM689.5 68q85.5 58 85.5 161q0 55 -32 96t-90.5 63.5t-137.5 22.5q-35 0 -65 -5.5t-45 -14.5h-30l32 118h369l31 161h-540l-92 -353h139q58 28 117 28q60 0 94 -23.5t34 -67.5q0 -49 -37.5 -75.5t-102.5 -26.5q-78 0 -152 22.5t-128 54.5l-29 -152
q60 -26 150.5 -46.5t188.5 -20.5q155 0 240.5 58z" />
    <glyph glyph-name="six" unicode="6" horiz-adv-x="815" 
d="M270 10q-89 30 -139.5 84t-50.5 122q0 57 28 107.5t93 109.5l293 267h344l-296 -260q92 -4 162.5 -31.5t109 -73.5t38.5 -105q0 -78 -46 -134t-132 -86t-204 -30q-111 0 -200 30zM728 68q92 58 92 162q0 54 -40 95t-115.5 64t-177.5 23l5 27l264 231h-249l-284 -259
q-61 -55 -86 -99.5t-25 -95.5q0 -59 46 -106t127.5 -73.5t184.5 -26.5q166 0 258 58zM366 155q-37 22 -37 58q0 41 37 63t103 22q59 0 96 -22.5t37 -58.5q0 -40 -37.5 -62t-103.5 -22q-58 0 -95 22zM542 177q28 14 28 40q0 22 -28 36.5t-73 14.5q-53 0 -80.5 -14.5
t-27.5 -40.5q0 -21 28 -35.5t72 -14.5q53 0 81 14z" />
    <glyph glyph-name="seven" unicode="7" horiz-adv-x="730" 
d="M102 474l44 226h700l-35 -179l-422 -521h-327l386 474h-346zM373 30l408 503l27 137h-635l-33 -166h352l-3 -31l-362 -443h246z" />
    <glyph glyph-name="eight" unicode="8" horiz-adv-x="900" 
d="M200.5 33q-103.5 53 -103.5 148q0 57 41 101t107 61q-50 20 -78 57.5t-28 85.5q0 112 105 173t296 61q195 0 304 -53.5t109 -149.5q0 -70 -45.5 -119.5t-123.5 -64.5q43 -19 66 -53t23 -78q0 -108 -100 -165t-286 -57q-183 0 -286.5 53zM750.5 59.5q90.5 49.5 90.5 142.5
t-126 122l6 29q95 7 147.5 51t52.5 113q0 81 -100.5 127t-280.5 46q-177 0 -273 -53t-96 -151q0 -49 36.5 -83t108.5 -49l-6 -31q-82 -7 -131.5 -46.5t-49.5 -95.5q0 -80 94.5 -125.5t263.5 -45.5q173 0 263.5 49.5zM424 399q-41 21 -41 59q0 43 41.5 66t117.5 23
q71 0 111.5 -21t40.5 -59q0 -43 -41 -66t-116 -23q-72 0 -113 21zM630 423.5q32 15.5 32 43.5q0 23 -32 36.5t-88 13.5q-63 0 -95 -15.5t-32 -43.5q0 -23 32 -36.5t90 -13.5q61 0 93 15.5zM393 171.5q-37 18.5 -37 49.5q0 38 36.5 57.5t105.5 19.5q58 0 94 -19t36 -50
q0 -38 -35.5 -57t-103.5 -19q-59 0 -96 18.5zM596 229q0 17 -27 28t-71 11q-110 0 -110 -47q0 -16 28 -27t73 -11q107 0 107 46z" />
    <glyph glyph-name="nine" unicode="9" horiz-adv-x="850" 
d="M713.5 689q91.5 -31 142.5 -86.5t51 -127.5q0 -66 -32 -121t-105 -115l-292 -239h-346l294 241q-148 7 -233 66.5t-85 157.5q0 79 47.5 136.5t137 88t212.5 30.5q117 0 208.5 -31zM750 263q68 56 96.5 104t28.5 108q0 62 -47 111t-131 76.5t-192 27.5q-173 0 -269 -59.5
t-96 -165.5q0 -60 39 -104t111.5 -67.5t172.5 -23.5l16 -18l-2 -10l-259 -212h248zM617.5 547q40.5 -24 40.5 -62q0 -46 -41 -71.5t-113 -25.5q-65 0 -106 24t-41 63q0 46 41 71t114 25q65 0 105.5 -24zM595 435.5q31 17.5 31 49.5q0 24 -31.5 40t-82.5 16q-60 0 -91.5 -17
t-31.5 -49q0 -24 32 -40.5t83 -16.5q60 0 91 17.5z" />
    <glyph glyph-name="colon" unicode=":" horiz-adv-x="300" 
d="M152 410q-31 25 -31 68q0 47 32.5 77t82.5 30q53 0 84 -25t31 -68q0 -47 -32 -77t-83 -30q-53 0 -84 25zM296.5 436q22.5 21 22.5 56q0 29 -22 46t-61 17q-37 0 -60 -21.5t-23 -55.5q0 -29 22 -46t61 -17q38 0 60.5 21zM80 5q-31 25 -31 68q0 47 32.5 77t82.5 30
q53 0 84 -25t31 -68q0 -47 -32 -77t-83 -30q-53 0 -84 25zM224.5 31q22.5 21 22.5 56q0 29 -22 46t-61 17q-37 0 -60 -21.5t-23 -55.5q0 -29 22 -46t61 -17q38 0 60.5 21z" />
    <glyph glyph-name="semicolon" unicode=";" horiz-adv-x="305" 
d="M152 410q-31 25 -31 68q0 47 32.5 77t82.5 30q53 0 84 -25t31 -68q0 -47 -32 -77t-83 -30q-53 0 -84 25zM296.5 436q22.5 21 22.5 56q0 29 -22 46t-61 17q-37 0 -60 -21.5t-23 -55.5q0 -29 22 -46t61 -17q38 0 60.5 21zM-6 -190l26 133h66q37 0 59.5 8.5t31.5 28.5
q-19 -9 -44 -9q-43 0 -69.5 26t-26.5 69q0 50 32.5 82t87.5 32q59 0 93.5 -37t34.5 -99q0 -69 -26.5 -122.5t-73.5 -82.5t-108 -29h-83zM77 -160q79 0 127.5 55.5t48.5 148.5q0 50 -25 78t-71 28q-42 0 -65 -23t-23 -61q0 -30 18 -47.5t47 -17.5q39 0 62 27h26
q-7 -58 -37.5 -86.5t-98.5 -28.5h-40l-14 -73h45z" />
    <glyph glyph-name="less" unicode="&#x3c;" horiz-adv-x="660" 
d="M106 395l563 181v-196l-237 -75l237 -75v-196l-563 181v180zM384 321l253 80v133l-499 -160v-138l499 -160v133l-253 80v32z" />
    <glyph glyph-name="equal" unicode="=" horiz-adv-x="660" 
d="M660 337h-530v133h530v-133zM162 440v-73h466v73h-466zM660 140h-530v133h530v-133zM162 243v-73h466v73h-466z" />
    <glyph glyph-name="greater" unicode="&#x3e;" horiz-adv-x="660" 
d="M112 380v196l562 -181v-180l-562 -181v196l236 75zM144 76l498 160v138l-498 160v-133l252 -80v-32l-252 -80v-133z" />
    <glyph glyph-name="question" unicode="?" horiz-adv-x="755" 
d="M299 410q69 1 124 10.5t86.5 24.5t31.5 32q0 14 -21 20t-67 6q-105 0 -188 -24t-156 -59l52 267q48 18 129.5 33t175.5 15q111 0 191.5 -24t123 -66.5t42.5 -99.5q0 -53 -37 -98t-103 -75t-150 -40l-19 -93h-201zM343 269h145l17 91q82 7 147 33t102 65.5t37 86.5
t-38.5 83t-112 56.5t-174.5 20.5q-81 0 -153 -12t-124 -28l-37 -191q152 59 301 59q59 0 89.5 -13t30.5 -43q0 -39 -64.5 -64t-175.5 -31zM304.5 8.5q-33.5 28.5 -33.5 74.5q0 52 35.5 85.5t92.5 33.5q56 0 90 -28.5t34 -74.5q0 -53 -35.5 -86t-93.5 -33q-56 0 -89.5 28.5z
M465 34q26 24 26 65q0 34 -25 53.5t-67 19.5q-43 0 -69.5 -24.5t-26.5 -64.5q0 -33 24.5 -53t66.5 -20q45 0 71 24z" />
    <glyph glyph-name="at" unicode="@" horiz-adv-x="1045" 
d="M333.5 -87q-104.5 43 -163 122.5t-58.5 183.5q0 121 60 214.5t168 145t247 51.5q136 0 243 -42.5t166.5 -118.5t59.5 -172q0 -114 -60 -179t-164 -65q-53 0 -93 19t-59 52q-25 -32 -71.5 -51.5t-99.5 -19.5q-57 0 -102.5 23.5t-71.5 65t-26 92.5q0 62 28.5 110.5t78.5 76
t114 27.5q33 0 66 -10.5t55 -28.5l5 24h174l-34 -175q-3 -16 -3 -28q0 -27 12.5 -39t32.5 -12q35 0 53 34t18 82q0 104 -81 156.5t-225 52.5q-108 0 -185.5 -34t-118 -96.5t-40.5 -146.5q0 -71 39 -123.5t111.5 -80t171.5 -27.5q49 0 101.5 9.5t83.5 22.5l-26 -135
q-72 -23 -168 -23q-134 0 -238.5 43zM711 -85l14 70q-85 -19 -144 -19q-107 0 -187 31.5t-123.5 90.5t-43.5 139q0 92 45 161.5t130 107.5t201 38q157 0 247.5 -60.5t90.5 -178.5q0 -62 -26 -104t-77 -42q-35 0 -56 20.5t-21 59.5q0 9 4 35l27 139h-110l-7 -34h-23
q-19 23 -53 36t-69 13q-55 0 -98 -23.5t-67 -65.5t-24 -95q0 -43 21.5 -77.5t60 -54t86.5 -19.5q51 0 95.5 20.5t66.5 55.5h28q12 -36 46.5 -56t86.5 -20q90 0 141 56.5t51 157.5q0 88 -55 157t-154.5 107.5t-227.5 38.5q-130 0 -230.5 -47.5t-156.5 -134t-56 -199.5
q0 -96 54 -168.5t151 -111.5t223 -39q77 0 139 15zM513.5 191.5q-20.5 18.5 -20.5 52.5q0 37 23.5 60t60.5 23q21 0 45 -11t37 -27l-16 -82q-8 -14 -29 -24t-43 -10q-37 0 -57.5 18.5zM595.5 207q11.5 4 17.5 11l12 60q-10 9 -23.5 14t-24.5 5q-24 0 -38 -14.5t-14 -38.5
q0 -21 11 -31t35 -10q13 0 24.5 4z" />
    <glyph glyph-name="A" unicode="A" horiz-adv-x="980" 
d="M471 700h339l190 -700h-291l-30 124h-271l-79 -124h-319zM390 154h315l30 -124h223l-172 640h-297l-421 -640h243zM441 235l153 240h31l59 -240h-243zM603 430l-106 -165h147z" />
    <glyph glyph-name="B" unicode="B" horiz-adv-x="910" 
d="M75 0l136 700h456q143 0 217 -45.5t74 -132.5q0 -71 -47 -116.5t-132 -60.5q47 -17 74.5 -54t27.5 -85q0 -95 -69 -150.5t-189 -55.5h-548zM623 30q107 0 166.5 47t59.5 129q0 55 -38.5 90t-101.5 40l5 29q101 4 156.5 44t55.5 113t-64.5 110.5t-194.5 37.5h-430
l-124 -640h510zM389 388l26 135h195q42 0 65 -17t23 -46q0 -32 -23 -52t-60 -20h-226zM615 418q24 0 37.5 11t13.5 31q0 16 -14 24.5t-42 8.5h-169l-14 -75h188zM348 177l25 131h175q41 0 65 -17t24 -46q0 -32 -22.5 -50t-62.5 -18h-204zM552 207q53 0 53 38q0 33 -57 33
h-149l-13 -71h166z" />
    <glyph glyph-name="C" unicode="C" horiz-adv-x="940" 
d="M356.5 24.5q-108.5 44.5 -168 125t-59.5 186.5q0 110 60.5 197.5t168 137t242.5 49.5q90 0 170 -16.5t138 -40t89 -46.5l-45 -229q-47 43 -136 81.5t-195 38.5q-95 0 -153 -44.5t-58 -118.5q0 -72 60 -112.5t164 -40.5q73 0 136 17.5t122 46.5l-45 -230
q-28 -17 -94.5 -31.5t-146.5 -14.5q-141 0 -249.5 44.5zM725.5 20.5q59.5 10.5 92.5 24.5l31 159q-42 -18 -97.5 -30t-117.5 -12q-117 0 -186.5 49t-69.5 134q0 58 30.5 101.5t85.5 67.5t127 24q91 0 173 -28.5t137 -66.5l31 162q-56 33 -151.5 59t-210.5 26
q-126 0 -226 -45.5t-156.5 -126.5t-56.5 -182q0 -98 55.5 -171.5t156 -114t233.5 -40.5q60 0 119.5 10.5z" />
    <glyph glyph-name="D" unicode="D" horiz-adv-x="1005" 
d="M75 0l136 700h359q130 0 231.5 -41t158 -115.5t56.5 -169.5q0 -110 -56 -195t-156 -132t-230 -47h-499zM574 30q121 0 214 43t144.5 121.5t51.5 179.5q0 87 -52 154t-146 104.5t-216 37.5h-333l-124 -640h461zM350 191l62 318h149q96 0 151 -38.5t55 -106.5
q0 -83 -50.5 -128t-143.5 -45h-223zM573 221q80 0 121 36.5t41 106.5q0 55 -45.5 85t-128.5 30h-122l-50 -258h184z" />
    <glyph glyph-name="E" unicode="E" horiz-adv-x="770" 
d="M725 0h-650l137 700h630l-41 -207h-360l-14 -75h322l-28 -140h-322l-13 -71h379zM238 670l-125 -640h586l28 147h-379l25 131h322l16 80h-322l26 135h360l29 147h-566z" />
    <glyph glyph-name="F" unicode="F" horiz-adv-x="745" 
d="M345 0h-270l137 700h629l-45 -226h-359l-17 -90h316l-27 -140h-317zM238 670l-125 -640h206l47 244h317l15 80h-316l29 150h359l33 166h-565z" />
    <glyph glyph-name="G" unicode="G" horiz-adv-x="1005" 
d="M368 23.5q-114 43.5 -176.5 125t-62.5 190.5q0 112 65.5 198.5t184.5 134.5t273 48q122 0 238.5 -29.5t180.5 -61.5l-40 -206q-55 30 -158 60t-216 30q-75 0 -131 -21t-85.5 -59t-29.5 -88q0 -46 30.5 -82t87 -56t132.5 -20q49 0 90.5 4.5t61.5 13.5l5 26h-244l32 165
h420l-69 -355q-41 -21 -130 -41t-194 -20q-151 0 -265 43.5zM803 25.5q78 15.5 126 34.5l60 306h-357l-20 -105h245l-15 -77q-64 -27 -181 -27q-84 0 -148 24t-99 66.5t-35 97.5q0 59 34 103.5t97 69.5t147 25q95 0 187 -22.5t163 -52.5l28 145q-67 30 -171 53.5t-212 23.5
q-146 0 -257.5 -44.5t-172.5 -124t-61 -182.5q0 -100 58 -174.5t165 -114.5t249 -40q92 0 170 15.5z" />
    <glyph glyph-name="H" unicode="H" horiz-adv-x="980" 
d="M345 0h-270l136 700h270l-47 -239h291l46 239h270l-136 -700h-270l46 235h-291zM237 670l-124 -640h206l45 235h355l-46 -235h206l124 640h-206l-46 -239h-355l47 239h-206z" />
    <glyph glyph-name="I" unicode="I" horiz-adv-x="810" 
d="M769 0h-729l40 207h230l55 286h-229l40 207h729l-40 -207h-229l-55 -286h229zM106 177l-29 -147h666l29 147h-229l67 346h229l29 147h-666l-29 -147h230l-67 -346h-230z" />
    <glyph glyph-name="J" unicode="J" horiz-adv-x="685" 
d="M163 -5.5q-63 9.5 -139 32.5l44 222q65 -22 105 -30t85 -8q59 0 95 25.5t46 74.5l76 389h271l-92 -474q-23 -119 -112.5 -180t-241.5 -61q-74 0 -137 9.5zM623 232l85 438h-206l-71 -365q-11 -59 -57 -91.5t-116 -32.5q-41 0 -79 6.5t-87 21.5l-32 -162q65 -18 120.5 -25
t119.5 -7q281 0 323 217z" />
    <glyph glyph-name="K" unicode="K" horiz-adv-x="925" 
d="M744 700h366l-445 -355l244 -345h-323l-189 272l-52 -272h-270l136 700h270l-50 -259zM402 321l202 -291h246l-219 310l4 20l389 310h-268l-337 -279h-30l54 279h-206l-124 -640h206l56 291h27z" />
    <glyph glyph-name="L" unicode="L" horiz-adv-x="770" 
d="M776 0h-701l136 700h271l-92 -473h430zM237 670l-124 -640h637l32 167h-430l92 473h-207z" />
    <glyph glyph-name="M" unicode="M" horiz-adv-x="1245" 
d="M680 381l240 319h384l-134 -700h-271l76 394l-359 -449l-193 455l-77 -400h-270l135 700h348zM938 30h206l122 640h-330l-249 -331h-24l-126 331h-300l-123 -640h206l83 431h29l193 -452l363 451h32z" />
    <glyph glyph-name="N" unicode="N" horiz-adv-x="1000" 
d="M720 280l81 420h260l-136 -700h-409l-100 421l-81 -421h-260l136 700h410zM544 30h355l124 640h-196l-89 -460h-35l-108 460h-358l-124 -640h196l89 460h35z" />
    <glyph glyph-name="O" unicode="O" horiz-adv-x="1140" 
d="M373 24.5q-117 44.5 -180.5 126t-63.5 189.5q0 112 63 198t178 134t264 48q155 0 271.5 -44.5t180 -126t63.5 -189.5q0 -111 -63 -197.5t-177.5 -134.5t-263.5 -48q-155 0 -272 44.5zM892 54q107 44 166 123.5t59 182.5q0 100 -59.5 174.5t-168.5 115t-255 40.5
q-141 0 -248 -44t-166 -123.5t-59 -182.5q0 -100 59.5 -174.5t169 -115t255.5 -40.5q140 0 247 44zM504 185q-60 23 -93 66t-33 99q0 55 32.5 97.5t91 66.5t133.5 24q79 0 139 -23t93 -66t33 -99q0 -55 -32.5 -97.5t-91 -66.5t-133.5 -24q-79 0 -139 23zM761 212
q51 20 79 56t28 82q0 72 -63 115t-170 43q-67 0 -118 -20t-79 -56t-28 -82q0 -72 63 -115t170 -43q67 0 118 20z" />
    <glyph glyph-name="P" unicode="P" horiz-adv-x="905" 
d="M75 0l136 700h403q98 0 173.5 -29.5t117 -84t41.5 -125.5q0 -87 -40.5 -152.5t-115 -101t-172.5 -35.5h-240l-33 -172h-270zM113 30h206l33 172h266q90 0 157 31.5t103 90t36 137.5q0 62 -37 109.5t-105 73.5t-158 26h-376zM381 349l34 174h179q47 0 75 -20.5t28 -56.5
q0 -47 -31.5 -72t-90.5 -25h-194zM575 379q46 0 68 16t22 51q0 23 -18 35t-53 12h-153l-22 -114h156z" />
    <glyph glyph-name="Q" unicode="Q" horiz-adv-x="1140" 
d="M702 -18q-36 -2 -57 -2q-154 0 -271 44.5t-181 125.5t-64 189q0 112 63.5 198.5t178 134.5t263.5 48q156 0 272.5 -45t179.5 -126.5t63 -189.5t-59 -191t-165 -134l50 -104h-248zM747 -40h178l-42 90q110 42 172 124.5t62 184.5q0 99 -58.5 174t-167.5 116t-257 41
q-140 0 -247.5 -44.5t-166.5 -124t-59 -182.5q0 -99 60 -173.5t169.5 -115t254.5 -40.5q31 0 77 4zM650 162q-127 0 -199.5 50.5t-72.5 136.5q0 55 31.5 98t89.5 67t136 24q79 0 139 -23t93 -65.5t33 -100.5q0 -45 -23.5 -83.5t-68.5 -64.5l-41 85h-178zM539 316h248l34 -68
q47 41 47 101q0 72 -63.5 115.5t-169.5 43.5q-69 0 -120 -20t-78 -56t-27 -83q0 -63 50.5 -104t138.5 -51z" />
    <glyph glyph-name="R" unicode="R" horiz-adv-x="925" 
d="M75 0l136 700h447q90 0 157 -25.5t103.5 -72t36.5 -108.5q0 -78 -47.5 -130t-130.5 -70q40 -17 63 -50.5t23 -78.5q0 -21 -4 -38l-25 -127h-269l29 151q1 4 1 12q0 18 -12 25.5t-39 7.5h-161l-38 -196h-270zM113 30h206l38 196h188q37 0 59 -16.5t22 -47.5q0 -5 -2 -17
l-22 -115h206l19 103q3 17 3 32q0 56 -39.5 84.5t-107.5 30.5l6 31q112 4 173 52t61 131q0 53 -32 92.5t-92 61.5t-141 22h-421zM378 335l35 183h171q53 0 83 -21.5t30 -59.5q0 -50 -31 -76t-91 -26h-197zM575 365q46 0 68 17.5t22 54.5q0 24 -21 37.5t-60 13.5h-145
l-23 -123h159z" />
    <glyph glyph-name="S" unicode="S" horiz-adv-x="825" 
d="M274.5 13q-108.5 33 -170.5 72l47 242q31 -22 93.5 -51.5t132.5 -51t124 -21.5q39 0 39 25q0 20 -26 32.5t-100 29.5q-80 18 -136.5 39.5t-98 64t-41.5 109.5q0 104 84.5 160.5t237.5 56.5q97 0 181.5 -19.5t142 -45.5t79.5 -45l-47 -242q-66 51 -162.5 90t-195.5 39
q-24 0 -34.5 -6.5t-10.5 -19.5q0 -19 25.5 -31t97.5 -29q80 -18 137.5 -40t99.5 -64.5t42 -109.5q0 -103 -80.5 -160t-220.5 -57q-131 0 -239.5 33zM712 59q71 49 71 138q0 57 -36.5 93t-88.5 55t-129 37q-73 17 -110.5 35t-37.5 54q0 27 20 41.5t57 14.5q92 0 183 -33
t154 -74l34 178q-52 34 -148.5 63t-220.5 29q-139 0 -214.5 -48.5t-75.5 -138.5q0 -57 35.5 -92.5t86.5 -54t129 -36.5q51 -12 81 -21.5t50 -26.5t20 -44t-18 -41t-53 -14q-72 0 -169 34t-158 69l-35 -177q64 -35 161.5 -62t213.5 -27q127 0 198 49z" />
    <glyph glyph-name="T" unicode="T" horiz-adv-x="830" 
d="M542 0h-271l92 474h-271l45 226h809l-44 -226h-268zM401 504l-92 -474h207l92 474h268l32 166h-745l-33 -166h271z" />
    <glyph glyph-name="U" unicode="U" horiz-adv-x="960" 
d="M312 14q-92 34 -140 99t-48 156q0 47 8 85l68 346h270l-69 -357q-4 -23 -4 -37q0 -47 36.5 -73.5t103.5 -26.5q64 0 96.5 28.5t45.5 96.5l71 369h270l-83 -427q-29 -150 -128 -221.5t-276 -71.5q-129 0 -221 34zM789 75q90 65 117 204l76 391h-206l-67 -345
q-15 -78 -55.5 -113.5t-116.5 -35.5q-79 0 -125.5 35t-46.5 95q0 20 5 44l62 320h-206l-62 -322q-8 -39 -8 -79q0 -124 98 -191.5t279 -67.5q166 0 256 65z" />
    <glyph glyph-name="V" unicode="V" horiz-adv-x="950" 
d="M497 232l276 468h320l-431 -700h-390l-159 700h289zM298 30h346l393 640h-246l-285 -483h-32l-98 483h-223z" />
    <glyph glyph-name="W" unicode="W" horiz-adv-x="1345" 
d="M969 248l198 452h306l-313 -700h-392l-21 390l-171 -390h-408l-40 700h294l17 -454l215 454h277zM798 30h340l287 640h-236l-211 -483h-36l-41 483h-227l-229 -483h-35l-18 483h-230l36 -640h356l184 421h37z" />
    <glyph glyph-name="X" unicode="X" horiz-adv-x="885" 
d="M700 700h351l-365 -342l228 -358h-312l-105 170l-171 -170h-346l372 362l-228 338h310l101 -165zM620 30h238l-212 332l327 308h-259l-172 -172h-21l-105 172h-234l210 -312l-336 -328h256l178 177h21z" />
    <glyph glyph-name="Y" unicode="Y" horiz-adv-x="930" 
d="M509 407l245 293h327l-467 -553l-29 -147h-270l29 152l-248 548h281zM559 30l25 128l431 512h-245l-252 -301h-28l-135 301h-211l233 -514l-25 -126h207z" />
    <glyph glyph-name="Z" unicode="Z" horiz-adv-x="900" 
d="M213 700h736l-51 -259l-392 -179h378l-52 -262h-755l51 262l393 176h-359zM435 232l8 34l427 195l41 209h-672l-39 -202h390l-7 -35l-427 -191l-41 -212h691l40 202h-411z" />
    <glyph glyph-name="bracketleft" unicode="[" horiz-adv-x="435" 
d="M400 -190h-360l189 970h360l-44 -224h-115l-102 -522h115zM255 750l-177 -910h296l31 164h-115l114 582h115l32 164h-296z" />
    <glyph glyph-name="backslash" unicode="\" horiz-adv-x="575" 
d="M560 -70h-230l-187 840h230zM183 740l173 -780h164l-173 780h-164z" />
    <glyph glyph-name="bracketright" unicode="]" horiz-adv-x="435" 
d="M328 -190h-360l44 224h115l102 522h-115l43 224h360zM38 4l-32 -164h296l177 910h-296l-31 -164h115l-114 -582h-115z" />
    <glyph glyph-name="asciicircum" unicode="^" horiz-adv-x="650" 
d="M546 700l159 -250h-239l-66 106l-66 -106h-239l159 250h292zM316 480l71 114h26l71 -114h165l-121 190h-256l-121 -190h165z" />
    <glyph glyph-name="underscore" unicode="_" horiz-adv-x="660" 
d="M630 -260h-700l31 160h700zM-13 -130l-20 -100h637l20 100h-637z" />
    <glyph glyph-name="grave" unicode="`" horiz-adv-x="395" 
d="M465 560h-24l-317 53l38 147h77l251 -139zM158 633l285 -47h2l11 23l-225 125h-47z" />
    <glyph glyph-name="a" unicode="a" 
d="M638.5 559.5q83.5 -25.5 131.5 -76.5t48 -125q0 -19 -5 -47l-61 -311h-271l11 53q-38 -29 -90.5 -48.5t-114.5 -19.5q-100 0 -158 41.5t-58 111.5q0 90 67.5 132t218.5 49l22 1q79 4 114 7.5t45.5 9t10.5 15.5q0 28 -128 28q-160 0 -277 -45l41 211q28 13 101 26t162 13
q107 0 190.5 -25.5zM781 316q4 20 4 42q0 99 -93.5 148t-243.5 49q-77 0 -139 -10t-96 -23l-27 -137q108 25 235 25q76 0 118 -12.5t42 -45.5q0 -22 -15.5 -33.5t-57 -18t-127.5 -10.5l-22 -1q-93 -4 -149 -20t-81.5 -48t-25.5 -83q0 -57 48.5 -90t135.5 -33q63 0 121 24
t90 62h35l-14 -71h206zM457 256q69 6 111 28l-19 -102q-19 -16 -59.5 -31t-90.5 -15q-35 0 -57 13t-22 39q0 29 26.5 44.5t81.5 20.5zM528 240q-21 -7 -69 -12l-29 -3q-44 -5 -62 -13t-18 -24q0 -11 13 -17.5t36 -6.5q36 0 67 9t53 23z" />
    <glyph glyph-name="b" unicode="b" horiz-adv-x="850" 
d="M800.5 517q67.5 -68 67.5 -187q0 -79 -32.5 -158.5t-103 -133t-177.5 -53.5q-62 0 -121.5 23t-95.5 60l-13 -68h-270l140 720h271l-39 -199q34 29 84 46.5t104 17.5q118 0 185.5 -68zM715 63q63 48 92 120t29 147q0 107 -58 166t-163 59q-61 0 -115.5 -24.5t-82.5 -62.5
h-33l44 222h-206l-129 -660h206l16 81h25q34 -44 92.5 -70t122.5 -26q97 0 160 48zM582 380.5q36 -31.5 36 -83.5q0 -64 -40.5 -105t-105.5 -41q-41 0 -80.5 18t-57.5 46l29 147q21 22 56 36t67 14q60 0 96 -31.5zM554.5 213q31.5 32 31.5 84q0 40 -26.5 62.5t-73.5 22.5
q-25 0 -50.5 -9.5t-43.5 -25.5l-24 -125q17 -18 45.5 -29.5t58.5 -11.5q51 0 82.5 32z" />
    <glyph glyph-name="c" unicode="c" horiz-adv-x="745" 
d="M284 19.5q-91 34.5 -139.5 98t-48.5 149.5q0 93 50 165.5t140 112.5t208 40q100 0 184.5 -23t122.5 -50l-40 -206q-32 33 -99 58t-131 25q-73 0 -114.5 -30t-41.5 -83q0 -45 41 -70t115 -25q59 0 105 10t88 27l-39 -197q-19 -12 -73.5 -24t-114.5 -12q-122 0 -213 34.5z
M585.5 22.5q42.5 7.5 70.5 17.5l26 135q-27 -10 -66.5 -17t-84.5 -7q-87 0 -137.5 33t-50.5 92q0 65 51 104t137 39q59 0 114 -17t94 -41l27 138q-45 22 -117 39t-155 17q-109 0 -192 -36t-128.5 -101.5t-45.5 -150.5q0 -77 44.5 -134t128 -87.5t196.5 -30.5q46 0 88.5 7.5z
" />
    <glyph glyph-name="d" unicode="d" horiz-adv-x="850" 
d="M162.5 49.5q-69.5 64.5 -69.5 186.5q0 77 32 157.5t103 136t180 55.5q60 0 119 -23.5t97 -61.5l42 220h270l-140 -720h-270l9 48q-34 -29 -83.5 -46t-101.5 -17q-118 0 -187.5 64.5zM461.5 39q52.5 24 83.5 62h33l-14 -71h206l128 660h-206l-44 -230h-31q-31 43 -89 69
t-120 26q-99 0 -162.5 -49.5t-92 -122.5t-28.5 -147q0 -109 60 -165t165 -56q59 0 111.5 24zM377.5 187q-35.5 31 -35.5 83q0 64 40.5 104t105.5 40q38 0 77.5 -18t60.5 -46l-28 -143q-21 -22 -56.5 -36.5t-68.5 -14.5q-60 0 -95.5 31zM524 195.5q26 9.5 44 25.5l24 122
q-20 18 -48.5 29.5t-55.5 11.5q-52 0 -83 -31.5t-31 -82.5q0 -39 26 -61.5t73 -22.5q25 0 51 9.5z" />
    <glyph glyph-name="e" unicode="e" horiz-adv-x="815" 
d="M292.5 18.5q-94.5 33.5 -145 97.5t-50.5 154q0 91 47 163t132.5 112t196.5 40q106 0 189 -33.5t129.5 -95t46.5 -142.5q0 -26 -6 -52h-451q12 -44 56.5 -61t125.5 -17q110 0 200 37l-39 -198q-23 -13 -80 -25.5t-128 -12.5q-129 0 -223.5 33.5zM696 42l27 136
q-70 -24 -160 -24q-104 0 -159.5 33.5t-59.5 103.5h461q1 7 1 23q0 72 -42 127t-117.5 84.5t-173.5 29.5q-103 0 -181 -36t-120.5 -101t-42.5 -148q0 -121 102.5 -188t284.5 -67q101 0 180 27zM347 331q11 54 47 84.5t90 30.5q53 0 87.5 -32t37.5 -83h-262zM572 360
q-8 27 -31 42t-58 15q-70 0 -94 -57h183z" />
    <glyph glyph-name="f" unicode="f" horiz-adv-x="545" 
d="M97 0l65 333h-98l21 107h97l15 77q20 105 94 161.5t188 56.5q53 0 96 -5.5t93 -19.5l-41 -211q-33 11 -53 15t-43 4q-30 0 -48.5 -13t-24.5 -44l-4 -21h142l-21 -107h-143l-65 -333h-270zM135 30h206l65 333h143l9 47h-143l10 50q17 88 106 88q32 0 72 -10l29 150
q-72 17 -153 17q-103 0 -167 -50t-83 -144l-20 -101h-98l-9 -47h98z" />
    <glyph glyph-name="g" unicode="g" horiz-adv-x="850" 
d="M636 570h270l-91 -468q-30 -156 -129 -231.5t-273 -75.5q-113 0 -210.5 26.5t-140.5 57.5l41 214q60 -39 124 -64.5t145 -25.5q76 0 120.5 32.5t57.5 91.5q-31 -31 -83.5 -49t-108.5 -18q-75 0 -134.5 31t-93 86.5t-33.5 124.5q0 85 37 149t107 99t167 35q64 0 122 -23.5
t93 -61.5zM868 540h-206l-15 -81h-29q-30 42 -87.5 69t-122.5 27q-132 0 -205.5 -68.5t-73.5 -184.5q0 -61 29 -109.5t81 -75.5t119 -27q61 0 116.5 23.5t78.5 57.5h39l-9 -47q-15 -77 -66 -114t-145 -37q-65 0 -131.5 20.5t-113.5 48.5l-29 -150q50 -27 133.5 -47
t181.5 -20q163 0 252.5 68.5t118.5 214.5zM562.5 401.5q43.5 -19.5 63.5 -49.5l-15 -77q-19 -25 -58 -41t-81 -16q-57 0 -93.5 27.5t-36.5 72.5q0 48 35 75.5t96 27.5q46 0 89.5 -19.5zM592 345q-19 20 -52 33t-67 13q-48 0 -73.5 -19t-25.5 -54q0 -32 27 -51t71 -19
q33 0 62.5 11t46.5 29z" />
    <glyph glyph-name="h" unicode="h" horiz-adv-x="810" 
d="M776.5 536q55.5 -49 55.5 -138q0 -33 -7 -65l-66 -333h-270l58 299q3 14 3 26q0 31 -16 47.5t-47 16.5q-26 0 -52.5 -13.5t-43.5 -34.5l-66 -341h-270l140 720h270l-41 -212q34 35 86.5 56t107.5 21q103 0 158.5 -49zM793 339q6 32 6 60q0 75 -46 115.5t-135 40.5
q-58 0 -113.5 -26.5t-88.5 -68.5h-34l45 230h-206l-128 -660h206l62 323q19 28 55 47t71 19q45 0 69.5 -25.5t24.5 -68.5q0 -15 -3 -32l-51 -263h206z" />
    <glyph glyph-name="i" unicode="i" horiz-adv-x="360" 
d="M190 618.5q-44 34.5 -44 87.5q0 58 45 96t119 38q72 0 114.5 -33.5t42.5 -86.5q0 -60 -44 -98t-117 -38q-72 0 -116 34.5zM400.5 644q34.5 30 34.5 76q0 40 -33 65t-92 25q-61 0 -96.5 -29t-35.5 -75q0 -40 34 -66t94 -26t94.5 30zM45 0l110 570h31q14 -13 42.5 -21.5
t60.5 -8.5q34 0 61 8t43 22h33l-110 -570h-271zM83 30h206l97 499q-40 -19 -97 -19q-30 0 -58.5 7t-49.5 18z" />
    <glyph glyph-name="j" unicode="j" horiz-adv-x="355" 
d="M184 618q-43 34 -43 88q0 58 45 96t119 38q72 0 114.5 -33.5t42.5 -86.5q0 -60 -44 -98t-117 -38q-74 0 -117 34zM395.5 644q34.5 30 34.5 76q0 40 -33 65t-92 25q-61 0 -96.5 -29t-35.5 -75q0 -40 34 -66t94 -26t94.5 30zM-65.5 -199.5q-37.5 5.5 -79.5 18.5l31 161
q44 -15 74 -15q72 0 86 73l103 532h31q14 -13 42.5 -21.5t60.5 -8.5q34 0 61 8t43 22h33l-104 -539q-23 -122 -95 -179t-205 -57q-44 0 -81.5 5.5zM199.5 -126q62.5 49 84.5 161l96 494q-41 -19 -97 -19q-30 0 -58.5 7t-49.5 18l-98 -503q-10 -48 -39 -72.5t-75 -24.5
q-26 0 -54 7l-19 -102q53 -15 126 -15q121 0 183.5 49z" />
    <glyph glyph-name="k" unicode="k" horiz-adv-x="825" 
d="M618 570h356l-348 -286l205 -284h-322l-142 216l-42 -216h-270l140 720h270l-66 -339zM527 30h244l-187 260l306 250h-260l-244 -211h-29l70 361h-206l-128 -660h206l46 237h26z" />
    <glyph glyph-name="l" unicode="l" horiz-adv-x="359" 
d="M315 0h-270l140 720h270zM211 690l-128 -660h206l128 660h-206z" />
    <glyph glyph-name="m" unicode="m" horiz-adv-x="1185" 
d="M55 0l111 570h270l-9 -46q32 28 76 44.5t88 16.5q54 0 101.5 -21.5t74.5 -57.5q39 36 98.5 57.5t122.5 21.5q102 0 161 -50.5t59 -137.5q0 -25 -6 -54l-67 -343h-271l61 314q2 8 2 22q0 26 -15 39.5t-42 13.5q-22 0 -38.5 -9t-32.5 -28l-68 -352h-271l61 314q3 12 3 23
q0 25 -14.5 38.5t-40.5 13.5q-22 0 -42 -10t-34 -26l-69 -353h-269zM93 30h205l65 335q18 23 47 38.5t59 15.5q40 0 63 -22t23 -61q0 -13 -3 -28l-54 -278h206l65 335q20 25 46 39.5t55 14.5q42 0 65.5 -22.5t23.5 -61.5q0 -12 -3 -27l-54 -278h207l62 319q5 27 5 47
q0 74 -49.5 116.5t-138.5 42.5q-63 0 -120 -23.5t-90 -61.5h-27q-23 40 -65.5 62.5t-94.5 22.5q-49 0 -97.5 -23.5t-76.5 -61.5h-33l13 70h-205z" />
    <glyph glyph-name="n" unicode="n" horiz-adv-x="810" 
d="M776.5 536q55.5 -49 55.5 -138q0 -33 -7 -65l-66 -333h-270l58 299q3 14 3 26q0 31 -16 47.5t-47 16.5q-26 0 -52.5 -13.5t-43.5 -34.5l-66 -341h-270l111 570h269l-12 -62q35 35 87.5 56t107.5 21q103 0 158.5 -49zM793 339q6 32 6 60q0 75 -46 115.5t-135 40.5
q-58 0 -113.5 -26.5t-88.5 -68.5h-34l15 80h-205l-99 -510h206l62 323q19 28 55 47t71 19q45 0 69.5 -25.5t24.5 -68.5q0 -15 -3 -32l-51 -263h206z" />
    <glyph glyph-name="o" unicode="o" horiz-adv-x="880" 
d="M285.5 20q-90.5 35 -140 99t-49.5 148q0 93 50.5 165.5t141 112.5t208.5 40q119 0 210 -35t140.5 -98.5t49.5 -147.5q0 -94 -50.5 -166t-141.5 -112.5t-209 -40.5q-119 0 -209.5 35zM688.5 51.5q83.5 36.5 129.5 102t46 150.5q0 75 -45.5 132t-129 88t-193.5 31
q-109 0 -192.5 -36t-129.5 -101.5t-46 -150.5q0 -76 45 -133t128.5 -88t193.5 -31t193.5 36.5zM385.5 181.5q-40.5 35.5 -40.5 93.5q0 42 19.5 76t54.5 53.5t79 19.5q67 0 108 -35.5t41 -92.5q0 -66 -43 -108t-110 -42q-68 0 -108.5 35.5zM582 209q33 33 33 87
q0 45 -32 71.5t-85 26.5q-54 0 -87.5 -33.5t-33.5 -85.5q0 -46 31.5 -72.5t85.5 -26.5q55 0 88 33z" />
    <glyph glyph-name="p" unicode="p" horiz-adv-x="849" 
d="M800.5 517q67.5 -68 67.5 -187q0 -79 -32.5 -158.5t-103 -133t-177.5 -53.5q-62 0 -121.5 23t-95.5 60l-50 -258h-270l147 760h271l-10 -49q35 30 85.5 47t103.5 17q118 0 185.5 -68zM715 63q63 48 92 120t29 147q0 107 -58 166t-163 59q-61 0 -115.5 -24.5t-82.5 -62.5
h-33l14 72h-206l-136 -700h206l53 271h25q34 -44 92.5 -70t122.5 -26q97 0 160 48zM582 380.5q36 -31.5 36 -83.5q0 -64 -40.5 -105t-105.5 -41q-41 0 -80.5 18t-57.5 46l29 147q21 22 56 36t67 14q60 0 96 -31.5zM554.5 213q31.5 32 31.5 84q0 40 -26.5 62.5t-73.5 22.5
q-25 0 -50.5 -9.5t-43.5 -25.5l-24 -125q17 -18 45.5 -29.5t58.5 -11.5q51 0 82.5 32z" />
    <glyph glyph-name="q" unicode="q" horiz-adv-x="851" 
d="M536 48q-34 -29 -83.5 -46t-102.5 -17q-118 0 -187.5 66t-69.5 187q0 76 32 156t103 135.5t180 55.5q62 0 121 -23.5t95 -61.5l13 70h270l-148 -760h-269zM528 -160h205l136 700h-206l-15 -80h-31q-30 43 -88 69t-121 26q-99 0 -162.5 -49.5t-92 -122t-28.5 -145.5
q0 -108 60.5 -165.5t164.5 -57.5q60 0 112.5 24t83.5 62h33zM377.5 187q-35.5 31 -35.5 83q0 64 40.5 104t105.5 40q40 0 79.5 -18t59.5 -46l-28 -143q-21 -22 -56.5 -36.5t-69.5 -14.5q-60 0 -95.5 31zM524.5 195.5q26.5 9.5 44.5 25.5l24 122q-19 18 -48 29.5t-57 11.5
q-52 0 -83 -31.5t-31 -82.5q0 -39 26 -61.5t73 -22.5q25 0 51.5 9.5z" />
    <glyph glyph-name="r" unicode="r" horiz-adv-x="585" 
d="M674 585l-50 -258h-88q-54 0 -99 -18.5t-62 -48.5l-50 -260h-270l111 570h270l-12 -59q33 34 79 54t91 20h80zM598 357l38 198h-39q-53 0 -104.5 -29.5t-73.5 -74.5h-39l18 89h-206l-99 -510h206l46 240q19 39 72.5 63t118.5 24h62z" />
    <glyph glyph-name="s" unicode="s" horiz-adv-x="700" 
d="M285.5 -0.5q-69.5 14.5 -121.5 35.5t-79 41l39 200q46 -32 122.5 -63t142.5 -31q22 0 31 5.5t9 16.5q0 10 -8 16t-26.5 11t-61.5 13q-66 13 -114.5 29t-84.5 48t-36 83q0 87 75.5 134t213.5 47q111 0 208.5 -30.5t149.5 -65.5l-39 -200q-49 34 -137 66.5t-161 32.5
q-35 0 -35 -17q0 -13 18 -20.5t72 -19.5q68 -15 115.5 -31.5t83 -50.5t35.5 -89q0 -82 -73 -128.5t-195 -46.5q-74 0 -143.5 14.5zM601 53.5q64 38.5 64 106.5q0 62 -56.5 92t-151.5 50q-63 13 -89.5 26.5t-26.5 42.5q0 24 18.5 35.5t48.5 11.5q63 0 138.5 -23.5
t137.5 -55.5l25 136q-55 31 -140.5 55.5t-181.5 24.5q-125 0 -191 -39t-66 -112q0 -41 30 -66t72 -38t107 -26q67 -13 94.5 -27t27.5 -43q0 -25 -19 -38.5t-53 -13.5q-57 0 -121 21.5t-121 51.5l-27 -136q50 -29 132.5 -51.5t176.5 -22.5q108 0 172 38.5z" />
    <glyph glyph-name="t" unicode="t" horiz-adv-x="545" 
d="M183.5 41q-61.5 56 -61.5 154q0 35 7 69l39 199h-78l21 107h54q15 0 22 6t11 25l23 119h266l-29 -150h163l-21 -107h-163l-35 -179q-3 -13 -3 -24q0 -51 61 -51q19 0 39 4.5t56 15.5l-43 -219q-42 -13 -77.5 -19t-75.5 -6q-114 0 -175.5 56zM484 33l30 153q-29 -7 -54 -7
q-45 0 -68 20.5t-23 59.5q0 15 3 31l39 202h162l10 49h-163l29 149h-201l-18 -95q-5 -29 -20.5 -41.5t-44.5 -12.5h-27l-10 -49h78l-46 -234q-6 -33 -6 -63q0 -86 53.5 -133t151.5 -47q63 0 125 18z" />
    <glyph glyph-name="u" unicode="u" horiz-adv-x="810" 
d="M596 570h270l-111 -570h-269l12 62q-35 -35 -87.5 -56t-107.5 -21q-103 0 -158.5 49t-55.5 138q0 33 7 65l66 333h270l-58 -299q-3 -13 -3 -26q0 -31 16 -47.5t47 -16.5q26 0 52.5 13.5t43.5 34.5zM729 30l99 510h-206l-62 -323q-19 -28 -55 -47t-71 -19
q-45 0 -69.5 25.5t-24.5 68.5q0 16 3 32l51 263h-206l-60 -309q-6 -31 -6 -60q0 -75 46 -115.5t135 -40.5q58 0 113.5 26.5t88.5 68.5h34l-15 -80h205z" />
    <glyph glyph-name="v" unicode="v" horiz-adv-x="780" 
d="M420 260l181 310h300l-351 -570h-335l-124 570h268zM241 30h291l313 510h-226l-194 -332h-27l-65 332h-202z" />
    <glyph glyph-name="w" unicode="w" horiz-adv-x="1110" 
d="M798 276l133 294h285l-266 -570h-334l-23 256l-122 -256h-331l-44 570h260l19 -293l142 293h253zM646 30h284l238 510h-215l-150 -332h-31l-32 332h-203l-161 -331h-29l-21 331h-196l40 -510h281l138 289h31z" />
    <glyph glyph-name="x" unicode="x" horiz-adv-x="745" 
d="M556 570h323l-300 -283l191 -287h-288l-72 123l-120 -123h-320l306 291l-187 279h284l69 -114zM500 30h212l-173 261l264 249h-233l-118 -118h-26l-71 118h-208l169 -253l-270 -257h230l124 128h25z" />
    <glyph glyph-name="y" unicode="y" horiz-adv-x="770" 
d="M434 349l141 221h304l-508 -760h-302l190 285l-181 475h277zM127 -160h226l468 700h-228l-147 -231h-30l-83 231h-209l171 -449z" />
    <glyph glyph-name="z" unicode="z" horiz-adv-x="730" 
d="M166 570h620l-42 -215l-350 -138h319l-43 -217h-618l40 215l350 138h-318zM324 187l7 36l385 152l32 165h-556l-30 -157h350l-7 -36l-383 -151l-32 -166h554l31 157h-351z" />
    <glyph glyph-name="braceleft" unicode="{" horiz-adv-x="470" 
d="M360 -190q-63 0 -114 25.5t-79.5 69t-28.5 96.5q0 26 4 50.5t5 28.5q7 33 7 51q0 19 -14 30.5t-38 11.5h-37l42 215h50q49 0 60 54l19 101q22 120 86.5 178.5t173.5 58.5h128l-44 -224h-47q-26 0 -40.5 -14t-20.5 -45l-12 -64q-14 -72 -44 -108.5t-89 -47.5
q36 -15 56 -43t20 -65q0 -14 -7 -54q-5 -23 -5 -34q0 -22 12.5 -34.5t36.5 -12.5h38l-43 -224h-75zM409 -160l32 164q-39 0 -60.5 19.5t-21.5 54.5q0 12 6 46t6 45q0 41 -30 67t-76 30l6 29q52 3 81.5 15.5t47 42.5t28.5 85l13 65q8 42 29.5 62.5t60.5 20.5h23l32 164h-90
q-97 0 -152.5 -51t-76.5 -162l-19 -101q-15 -78 -93 -78h-22l-30 -155q37 0 60 -18.5t23 -53.5q0 -17 -7 -50q-9 -54 -9 -80q0 -44 24.5 -81t68 -58.5t97.5 -21.5h49z" />
    <glyph glyph-name="bar" unicode="|" horiz-adv-x="460" 
d="M416 -170h-242v970h242v-970zM206 770v-910h178v910h-178z" />
    <glyph glyph-name="braceright" unicode="}" horiz-adv-x="470" 
d="M-32 -190l44 224h45q27 0 42 14t21 45l11 56q12 61 42.5 96t85.5 47q-35 15 -54 40t-19 64q0 13 3 33t4 28q7 35 7 52q0 47 -51 47h-35l43 224h68q74 0 125 -25t76.5 -68.5t25.5 -97.5q0 -34 -9 -95q-7 -37 -7 -58q0 -22 14 -35t43 -13h28l-42 -215h-42q-31 0 -48 -14
t-24 -47l-15 -76q-23 -118 -84.5 -172t-171.5 -54h-126zM94 -160q98 0 151.5 47t74.5 155l15 77q8 43 33 63.5t61 20.5h23l31 155q-79 3 -79 76q0 24 7 62q1 4 5 32t4 61q0 71 -49.5 116t-145.5 45h-42l-32 -164q39 0 59.5 -19t20.5 -55q0 -14 -6 -54q-7 -37 -7 -61
q0 -40 30 -65.5t77 -29.5l-6 -29q-75 -5 -109.5 -32.5t-47.5 -96.5l-11 -57q-17 -83 -93 -83h-20l-32 -164h88z" />
    <glyph glyph-name="asciitilde" unicode="~" horiz-adv-x="660" 
d="M454.5 215q-27.5 15 -48.5 39q-16 18 -23.5 24t-15.5 6q-13 0 -13 -19v-55h-254v89q0 80 38.5 123t111.5 43q50 0 77.5 -16t50.5 -43q14 -16 20 -20.5t15 -4.5q13 0 13 18v56h254v-89q0 -80 -38.5 -123t-111.5 -43q-48 0 -75.5 15zM648 366v59h-190v-28
q0 -21 -12.5 -33.5t-32.5 -12.5q-19 0 -31.5 9t-27.5 26q-21 24 -42.5 36.5t-61.5 12.5q-118 0 -118 -136v-59h190v25q0 22 12.5 35.5t32.5 13.5q17 0 31.5 -11.5t30.5 -29.5q20 -22 41 -32.5t60 -10.5q118 0 118 136z" />
    <glyph glyph-name="uni00A0" unicode="&#xa0;" horiz-adv-x="290" 
 />
    <glyph glyph-name="exclamdown" unicode="&#xa1;" horiz-adv-x="360" 
d="M173.5 390.5q-34.5 28.5 -34.5 75.5q0 52 35 85.5t89 33.5q58 0 92.5 -28t34.5 -75q0 -53 -35.5 -86.5t-90.5 -33.5q-56 0 -90.5 28.5zM332.5 416.5q25.5 24.5 25.5 65.5q0 34 -25 53.5t-70 19.5q-41 0 -66.5 -24.5t-25.5 -64.5q0 -34 25 -54t68 -20t68.5 24.5zM280 -190
h-270l65 331l80 184h178l10 -189zM106 133l-57 -293h204l58 298l-8 157h-126z" />
    <glyph glyph-name="cent" unicode="&#xa2;" horiz-adv-x="745" 
d="M301 14q-93 31 -149 94.5t-56 158.5q0 84 41.5 150.5t113 108t160.5 54.5l20 100h258l-23 -115q88 -21 135 -53l-40 -206q-32 33 -99 58t-131 25q-73 0 -114.5 -30t-41.5 -83q0 -45 41 -70t115 -25q59 0 105 10t88 27l-39 -197q-16 -10 -51 -19t-79 -14l-21 -103h-258z
M314 -85h194l20 101q30 1 65.5 8t62.5 16l26 135q-27 -10 -66.5 -17t-84.5 -7q-87 0 -137.5 33t-50.5 92q0 65 51 104t137 39q59 0 114 -17t94 -41l27 138q-61 30 -138 43l23 108h-194l-18 -97q-92 -10 -162 -47t-109.5 -98t-39.5 -141q0 -88 55 -146t154 -88z" />
    <glyph glyph-name="sterling" unicode="&#xa3;" horiz-adv-x="790" 
d="M455 478.5q-11 -10.5 -11 -34.5q0 -28 13 -64h174l-19 -97h-147q-6 -30 -25 -57h344l-44 -226h-705l32 166q146 0 146 117h-108l19 97h70q-15 35 -21.5 61t-6.5 52q0 107 79.5 167t223.5 60q109 0 213 -33t161 -72l-46 -239q-71 42 -161 77.5t-146 35.5q-24 0 -35 -10.5z
M433 350q-21 51 -21 94q0 36 20.5 55.5t57.5 19.5q53 0 131 -28t152 -67l35 178q-62 35 -152.5 61.5t-186.5 26.5q-131 0 -201 -51.5t-70 -145.5q0 -27 6.5 -50t18.5 -55q11 -25 13 -38h-86l-7 -37h102v-25q0 -70 -38.5 -108t-112.5 -41l-21 -109h641l32 166h-350l7 35
q15 15 23.5 38t8.5 44h151l7 37h-160z" />
    <glyph glyph-name="currency" unicode="&#xa4;" horiz-adv-x="748" 
d="M249 84l-108 107l57 57q-27 51 -27 103q0 54 27 103l-57 56l108 107l67 -64q55 22 122 22q68 0 121 -22l66 64l108 -107l-56 -56q27 -49 27 -103t-27 -104l56 -56l-108 -107l-67 64q-51 -22 -120 -22q-67 0 -122 22zM309 184q54 -28 129 -28q71 0 127 28l60 -56l64 63
l-52 52q35 50 35 108q0 55 -35 107l52 52l-64 63l-59 -56q-58 28 -128 28q-75 0 -129 -28l-60 56l-64 -63l53 -52q-35 -52 -35 -107t35 -108l-53 -52l64 -63zM353.5 286.5q-31.5 24.5 -31.5 64.5t32 64.5t83 24.5q52 0 84 -24.5t32 -64.5t-31.5 -64.5t-84.5 -24.5
q-52 0 -83.5 24.5zM499 307.5q22 15.5 22 43.5q0 27 -22.5 43t-61.5 16q-38 0 -60.5 -16t-22.5 -43t22 -43t61 -16q40 0 62 15.5z" />
    <glyph glyph-name="yen" unicode="&#xa5;" horiz-adv-x="910" 
d="M718 700h333l-343 -349h148l-19 -102h-211l-8 -42h211l-20 -102h-211l-20 -105h-270l21 105h-212l20 102h209l9 42h-210l20 102h144l-208 349h293l122 -210zM811 279l7 42h-184l343 349h-245l-207 -215h-26l-125 215h-219l208 -349h-172l-8 -42h211l-20 -102h-211l-8 -42
h212l-21 -105h206l20 105h211l8 42h-211l20 102h211z" />
    <glyph glyph-name="brokenbar" unicode="&#xa6;" horiz-adv-x="460" 
d="M416 373h-242v427h242v-427zM206 770v-367h178v367h-178zM416 -170h-242v427h242v-427zM206 227v-367h178v367h-178z" />
    <glyph glyph-name="section" unicode="&#xa7;" horiz-adv-x="770" 
d="M427 490q0 -15 24.5 -28.5t99.5 -39.5q80 -28 122.5 -48t67.5 -48.5t25 -70.5q0 -53 -38 -88t-107 -46q41 -23 62.5 -55.5t21.5 -71.5q0 -87 -71.5 -135.5t-197.5 -48.5q-102 0 -198 28.5t-145 60.5l41 218q44 -35 121 -68t142 -33q40 0 40 23q0 17 -25 31.5t-97 41.5
q-92 34 -146 69.5t-54 90.5q0 51 33.5 82.5t102.5 45.5q-48 25 -70.5 57t-22.5 74q0 90 80 139.5t222 49.5q104 0 204 -25.5t153 -54.5l-44 -226q-29 20 -80.5 43.5t-111.5 40t-111 16.5q-43 0 -43 -24zM452 427q-30 14 -43.5 28.5t-13.5 34.5q0 27 21 40.5t54 13.5
q68 0 141.5 -23.5t138.5 -56.5l31 160q-56 27 -143 46.5t-178 19.5q-128 0 -199 -41.5t-71 -117.5q0 -39 24.5 -67.5t82.5 -56.5l-5 -29q-78 -12 -111.5 -37t-33.5 -69q0 -42 46 -71t133 -61q58 -21 87.5 -35.5t42.5 -29.5t13 -36q0 -25 -18.5 -39t-53.5 -14
q-57 0 -120.5 22.5t-120.5 54.5l-27 -150q53 -29 135.5 -51t171.5 -22q113 0 175 40.5t62 113.5q0 75 -102 122l5 26q78 9 118 37.5t40 75.5t-50 77t-144 62q-58 19 -88 33zM363 332q20 24 56 34q121 -43 121 -112q0 -33 -21 -57t-57 -34q-57 19 -88 48.5t-31 63.5
q0 33 20 57zM375 275q0 -20 22.5 -41t63.5 -38q47 14 47 58q0 20 -23 41.5t-64 37.5q-46 -14 -46 -58z" />
    <glyph glyph-name="dieresis" unicode="&#xa8;" horiz-adv-x="562" 
d="M167 588q-32 28 -32 73q0 48 33.5 78.5t85.5 30.5t84 -28t32 -73q0 -47 -34 -78t-86 -31q-51 0 -83 28zM461 588q-32 28 -32 73q0 47 33.5 78t85.5 31t84 -28t32 -73q0 -48 -33.5 -78.5t-86.5 -30.5q-51 0 -83 28zM316.5 609.5q25.5 23.5 25.5 59.5q0 34 -24 54.5
t-64 20.5t-65.5 -23t-25.5 -60q0 -34 23.5 -54.5t63.5 -20.5q41 0 66.5 23.5zM610.5 609q25.5 23 25.5 60q0 34 -24 54.5t-64 20.5t-65.5 -23.5t-25.5 -59.5q0 -34 23.5 -54.5t63.5 -20.5q41 0 66.5 23z" />
    <glyph glyph-name="copyright" unicode="&#xa9;" horiz-adv-x="1020" 
d="M341.5 27q-102.5 47 -159.5 131t-57 192t57 192t159.5 131t233.5 47t233.5 -47t159.5 -131t57 -192t-57 -192t-159.5 -131t-233.5 -47t-233.5 47zM793 53q95 43 147.5 120t52.5 177t-52.5 177t-147.5 120t-218 43t-218 -43t-147.5 -120t-52.5 -177t52.5 -177t147.5 -120
t218 -43t218 43zM447 160.5q-59 26.5 -91 75.5t-32 114t31.5 114t89.5 75.5t135 26.5q61 0 118 -13t80 -26v-155q-87 30 -160 30q-40 0 -62.5 -13t-22.5 -39t23 -39t62 -13q40 0 80 10t66 25v-159q-19 -13 -70.5 -26.5t-108.5 -13.5q-79 0 -138 26.5zM664.5 171.5
q40.5 7.5 67.5 19.5v97q-60 -20 -114 -20q-51 0 -84 21.5t-33 60.5q0 40 32.5 61t84.5 21q58 0 128 -19v95q-30 11 -74 19.5t-92 8.5q-103 0 -163.5 -50t-60.5 -136t61.5 -136t167.5 -50q39 0 79.5 7.5z" />
    <glyph glyph-name="ordfeminine" unicode="&#xaa;" horiz-adv-x="470" 
d="M129 386q-30 21 -30 59q0 54 52 79t154 25q36 0 50 5t14 14q0 14 -37 14q-101 0 -179 -23l25 132q32 10 79 17t96 7q91 0 141.5 -30.5t50.5 -95.5q0 -11 -4 -37l-34 -178h-173l5 25q-32 -18 -61.5 -26t-64.5 -8q-54 0 -84 21zM288 403q37 12 61 32h25l-7 -35h117l29 152
q3 18 3 33q0 55 -42 79.5t-123 24.5q-38 0 -78.5 -5t-69.5 -13l-15 -78q67 13 143 13q31 0 49 -9t18 -27q0 -25 -23.5 -34.5t-73.5 -9.5q-89 0 -131.5 -19t-42.5 -62q0 -54 84 -54q40 0 77 12zM269.5 456q-10.5 8 -10.5 21q0 18 14 25t40 7q40 0 77 10l-9 -45
q-31 -26 -80 -26q-21 0 -31.5 8zM334 472q13 3 26 10l2 11q-30 -5 -53 -5q-27 0 -27 -10q0 -9 20 -9q19 0 32 3z" />
    <glyph glyph-name="guillemotleft" unicode="&#xab;" horiz-adv-x="750" 
d="M419 75h-248l-93 217l175 213h270l-195 -231zM737 75h-247l-93 217l174 213h271l-195 -231zM114 288l79 -183h178l-79 173l166 197h-189zM433 288l79 -183h177l-78 173l166 197h-190z" />
    <glyph glyph-name="logicalnot" unicode="&#xac;" horiz-adv-x="660" 
d="M655 165h-200v94h-340v181h540v-275zM487 289v-94h136v215h-476v-121h340z" />
    <glyph glyph-name="uni00AD" unicode="&#xad;" horiz-adv-x="540" 
d="M535 230h-440l33 170h440zM154 370l-21 -110h376l21 110h-376z" />
    <glyph glyph-name="registered" unicode="&#xae;" horiz-adv-x="320" 
d="M164 515q-39 35 -39 85t39 85t101 35t101 -35t39 -85t-39 -85t-101 -35t-101 35zM347.5 532.5q29.5 27.5 29.5 67.5t-29.5 67.5t-82.5 27.5t-82.5 -27.5t-29.5 -67.5t29.5 -67.5t82.5 -27.5t82.5 27.5zM210 545v110h65q26 0 38 -9t12 -23t-11 -22t-34 -8v-5h7
q33 0 33 -28v-15h-45v23q0 12 -13 12h-7v-35h-45zM262 600q13 0 13 12q0 13 -13 13h-7v-25h7z" />
    <glyph glyph-name="macron" unicode="&#xaf;" horiz-adv-x="471" 
d="M560 590h-440l26 135h440zM170 699l-16 -83h382l16 83h-382z" />
    <glyph glyph-name="degree" unicode="&#xb0;" horiz-adv-x="460" 
d="M221.5 396.5q-45.5 21.5 -71 60.5t-25.5 88t25.5 88t71 60.5t103.5 21.5t103.5 -21.5t71 -60.5t25.5 -88t-25.5 -88t-71 -60.5t-103.5 -21.5t-103.5 21.5zM449.5 441q47.5 40 47.5 104t-47.5 104t-124.5 40t-124.5 -40t-47.5 -104t47.5 -104t124.5 -40t124.5 40z
M281.5 505.5q-17.5 15.5 -17.5 39.5t17.5 39.5t43.5 15.5t43.5 -15.5t17.5 -39.5t-17.5 -39.5t-43.5 -15.5t-43.5 15.5zM349 524q9 8 9 21t-9 21t-24 8t-24 -8t-9 -21t9 -21t24 -8t24 8z" />
    <glyph glyph-name="plusminus" unicode="&#xb1;" horiz-adv-x="660" 
d="M665 10h-550v130h188v80h-188v170h188v185h174v-185h188v-170h-188v-80h188v-130zM147 110v-70h486v70h-188v140h188v110h-188v185h-110v-185h-188v-110h188v-140h-188z" />
    <glyph glyph-name="uni00B2" unicode="&#xb2;" horiz-adv-x="435" 
d="M517 654.5q-35 -34.5 -108 -66.5h112l-26 -138h-371l19 96l137 64q48 22 62.5 33t14.5 23t-22 12q-36 0 -90 -17t-94 -39l30 156q32 17 87 29.5t103 12.5q87 0 134 -24t47 -66q0 -41 -35 -75.5zM471 476l16 86h-143l6 29q89 33 131.5 66t42.5 71q0 30 -39.5 48t-113.5 18
q-39 0 -85.5 -9.5t-78.5 -22.5l-18 -94q34 15 74 25.5t72 10.5q24 0 37 -9.5t13 -28.5q0 -22 -19 -38.5t-74 -41.5l-124 -57l-10 -53h313z" />
    <glyph glyph-name="uni00B3" unicode="&#xb3;" horiz-adv-x="420" 
d="M205.5 444.5q-58.5 14.5 -85.5 30.5l24 121q25 -16 66.5 -28.5t75.5 -12.5q20 0 30 5.5t10 17.5q0 21 -39 21q-40 0 -92 -8l10 50l67 33h-109l24 126h350l-19 -95l-99 -40q41 -11 66.5 -39t25.5 -67q0 -57 -53 -93t-138 -36q-56 0 -114.5 14.5zM438.5 485
q44.5 29 44.5 74q0 38 -33 62.5t-89 28.5l4 21l128 51l10 52h-292l-14 -74h136l-7 -26l-95 -46l-2 -9q30 6 58 6q33 0 50 -12t17 -35q0 -24 -18.5 -36.5t-49.5 -12.5q-50 0 -121 28l-14 -69q31 -13 77.5 -22.5t91.5 -9.5q74 0 118.5 29z" />
    <glyph glyph-name="acute" unicode="&#xb4;" horiz-adv-x="397" 
d="M156 560h-28l-2 62l300 138h74l-10 -152zM154 606l1 -20l309 44l6 104h-38z" />
    <glyph glyph-name="uni00B5" unicode="&#xb5;" horiz-adv-x="815" 
d="M601 570h270l-111 -570h-236l-11 75q-25 -35 -78.5 -60t-112.5 -30l-34 -175h-270l148 760h270l-58 -299q-3 -13 -3 -32q0 -24 16 -41t46 -17q28 0 54.5 13t43.5 35zM734 30l99 510h-206l-62 -323q-20 -29 -56 -47.5t-72 -18.5q-42 0 -67.5 24.5t-25.5 67.5q0 21 3 34
l51 263h-206l-136 -700h206l34 175q68 0 125.5 27t88.5 68h33l9 -80h182z" />
    <glyph glyph-name="paragraph" unicode="&#xb6;" horiz-adv-x="895" 
d="M339 158q-67 0 -120.5 34t-84 96t-30.5 141q0 80 30 141.5t85 95.5t126 34h595v-241h-90v-649h-239v649h-33v-649h-239v348zM371 -160h175v649h97v-649h175v649h90v181h-563q-62 0 -109.5 -30t-73.5 -84.5t-26 -126.5t26 -126.5t73.5 -84.5t109.5 -30h26v-348z" />
    <glyph glyph-name="periodcentered" unicode="&#xb7;" horiz-adv-x="290" 
d="M124 250q-31 25 -31 68q0 47 32.5 77t82.5 30q53 0 84 -25t31 -68q0 -47 -32 -77t-83 -30q-53 0 -84 25zM268.5 276q22.5 21 22.5 56q0 29 -22 46t-61 17q-37 0 -60 -21.5t-23 -55.5q0 -29 22 -46t61 -17q38 0 60.5 21z" />
    <glyph glyph-name="cedilla" unicode="&#xb8;" horiz-adv-x="316" 
d="M-43 -243l19 98q43 -15 91 -15q17 0 25 3.5t8 11.5q0 7 -6.5 9t-18.5 2h-59l-23 30l63 114l134 -10l-34 -54q47 -3 75 -30.5t28 -64.5q0 -55 -43 -83t-122 -28q-71 0 -137 17zM231 -149q0 29 -23.5 49.5t-64.5 20.5h-31l32 53l-70 10l-49 -86l5 -6h45q23 0 38 -9t15 -28
q0 -41 -61 -41q-33 0 -69 9l-9 -46q39 -11 105 -11q137 0 137 85z" />
    <glyph glyph-name="uni00B9" unicode="&#xb9;" horiz-adv-x="415" 
d="M125 450l26 132h84l12 58h-85l23 120h54q34 0 44 40h181l-42 -218h89l-26 -132h-360zM159 476h302l16 80h-89l42 218h-129q-6 -18 -22.5 -29t-39.5 -11h-30l-13 -68h85l-22 -110h-84z" />
    <glyph glyph-name="ordmasculine" unicode="&#xba;" horiz-adv-x="480" 
d="M221.5 386q-51.5 21 -80 59.5t-28.5 88.5q0 83 60 132t162 49q68 0 119.5 -21t80 -59.5t28.5 -88.5q0 -83 -60 -132t-162 -49q-68 0 -119.5 21zM483.5 432.5q51.5 41.5 51.5 113.5q0 65 -54.5 104t-145.5 39t-142.5 -41.5t-51.5 -113.5q0 -65 54.5 -104t145.5 -39
t142.5 41.5zM289 489.5q-19 18.5 -19 48.5t19 50.5t49 20.5q31 0 49.5 -18.5t18.5 -48.5t-19 -50.5t-48 -20.5q-31 0 -50 18.5zM367 509.5q11 12.5 11 32.5q0 19 -10.5 30t-29.5 11q-18 0 -29 -12.5t-11 -32.5q0 -19 11 -30t30 -11q17 0 28 12.5z" />
    <glyph glyph-name="guillemotright" unicode="&#xbb;" horiz-adv-x="750" 
d="M289 75h-271l195 231l-90 199h247l93 -217zM607 75h-270l195 231l-91 199h248l93 -217zM249 302l-166 -197h190l154 187l-79 183h-177zM568 302l-166 -197h189l155 187l-79 183h-178z" />
    <glyph glyph-name="onequarter" unicode="&#xbc;" horiz-adv-x="1085" 
d="M111 350l26 132h84l12 58h-85l23 120h54q34 0 44 40h181l-42 -218h89l-26 -132h-360zM145 376h302l16 80h-89l42 218h-129q-6 -18 -22.5 -29t-39.5 -11h-30l-13 -68h85l-22 -110h-84zM501 0h-254l487 700h254zM751 670l-445 -640h178l445 640h-178zM1043 0h-175l11 54
h-220l13 70l150 226h194l-147 -218h29l46 70h138l-14 -70h30l-14 -78h-30zM913 80l-11 -54h117l11 54h30l4 26h-30l14 70h-88l-46 -70h-87l8 24l131 194h-128l-140 -210l-5 -34h220z" />
    <glyph glyph-name="onehalf" unicode="&#xbd;" horiz-adv-x="1115" 
d="M111 350l26 132h84l12 58h-85l23 120h54q34 0 44 40h181l-42 -218h89l-26 -132h-360zM145 376h302l16 80h-89l42 218h-129q-6 -18 -22.5 -29t-39.5 -11h-30l-13 -68h85l-22 -110h-84zM501 0h-254l487 700h254zM751 670l-445 -640h178l445 640h-178zM1094 204.5
q-35 -34.5 -108 -66.5h112l-26 -138h-371l19 96l137 64q48 22 62.5 33t14.5 23t-22 12q-36 0 -90 -17t-94 -39l30 156q32 17 87 29.5t103 12.5q87 0 134 -24t47 -66q0 -41 -35 -75.5zM1048 26l16 86h-143l6 29q89 33 131.5 66t42.5 71q0 30 -39.5 48t-113.5 18
q-39 0 -85.5 -9.5t-78.5 -22.5l-18 -94q34 15 74 25.5t72 10.5q24 0 37 -9.5t13 -28.5q0 -22 -19 -38.5t-74 -41.5l-124 -57l-10 -53h313z" />
    <glyph glyph-name="threequarters" unicode="&#xbe;" horiz-adv-x="1105" 
d="M205.5 344.5q-58.5 14.5 -85.5 30.5l24 121q25 -16 66.5 -28.5t75.5 -12.5q20 0 30 5.5t10 17.5q0 21 -39 21q-40 0 -92 -8l10 50l67 33h-109l24 126h350l-19 -95l-99 -40q41 -11 66.5 -39t25.5 -67q0 -57 -53 -93t-138 -36q-56 0 -114.5 14.5zM438.5 385
q44.5 29 44.5 74q0 38 -33 62.5t-89 28.5l4 21l128 51l10 52h-292l-14 -74h136l-7 -26l-95 -46l-2 -9q30 6 58 6q33 0 50 -12t17 -35q0 -24 -18.5 -36.5t-49.5 -12.5q-50 0 -121 28l-14 -69q31 -13 77.5 -22.5t91.5 -9.5q74 0 118.5 29zM521 0h-254l487 700h254zM771 670
l-445 -640h178l445 640h-178zM1063 0h-175l11 54h-220l13 70l150 226h194l-147 -218h29l46 70h138l-14 -70h30l-14 -78h-30zM933 80l-11 -54h117l11 54h30l4 26h-30l14 70h-88l-46 -70h-87l8 24l131 194h-128l-140 -210l-5 -34h220z" />
    <glyph glyph-name="questiondown" unicode="&#xbf;" horiz-adv-x="675" 
d="M334.5 391q-34.5 28 -34.5 75q0 53 35 86t90 33q58 0 93 -28.5t35 -75.5q0 -51 -35.5 -84.5t-90.5 -33.5q-58 0 -92.5 28zM495 417.5q26 24.5 26 63.5q0 35 -25 54.5t-71 19.5q-43 0 -68 -24t-25 -65q0 -34 25 -53.5t70 -19.5q42 0 68 24.5zM199 -180q-83 25 -129 70.5
t-46 104.5q0 50 33.5 93t92.5 72t134 38l25 127h203l7 -208q-98 -1 -155.5 -17t-57.5 -41q0 -32 92 -32q82 0 159.5 21t139.5 55l-48 -248q-29 -21 -101 -40.5t-159 -19.5q-107 0 -190 25zM524.5 -160.5q60.5 14.5 94.5 32.5l34 177q-49 -22 -116.5 -37t-138.5 -15
q-60 0 -92 15.5t-32 46.5q0 77 213 86l-5 150h-147l-24 -125q-72 -5 -130 -30t-91.5 -63t-33.5 -82q0 -50 42 -88.5t118 -60t173 -21.5q75 0 135.5 14.5z" />
    <glyph glyph-name="Agrave" unicode="&#xc0;" horiz-adv-x="980" 
d="M471 700h339l190 -700h-291l-30 124h-271l-79 -124h-319zM390 154h315l30 -124h223l-172 640h-297l-421 -640h243zM441 235l153 240h31l59 -240h-243zM603 430l-106 -165h147zM839 760h-24l-317 53l38 147h77l251 -139zM532 833l285 -47h2l11 23l-225 125h-47z" />
    <glyph glyph-name="Aacute" unicode="&#xc1;" horiz-adv-x="980" 
d="M471 700h339l190 -700h-291l-30 124h-271l-79 -124h-319zM390 154h315l30 -124h223l-172 640h-297l-421 -640h243zM441 235l153 240h31l59 -240h-243zM603 430l-106 -165h147zM483 760h-28l-2 62l300 138h74l-10 -152zM481 806l1 -20l309 44l6 104h-38z" />
    <glyph glyph-name="Acircumflex" unicode="&#xc2;" horiz-adv-x="980" 
d="M471 700h339l190 -700h-291l-30 124h-271l-79 -124h-319zM390 154h315l30 -124h223l-172 640h-297l-421 -640h243zM441 235l153 240h31l59 -240h-243zM603 430l-106 -165h147zM785 930l141 -150h-201l-55 63l-82 -63h-222l199 150h220zM578 806l84 65h20l57 -65h125
l-91 98h-198l-131 -98h134z" />
    <glyph glyph-name="Atilde" unicode="&#xc3;" horiz-adv-x="980" 
d="M471 700h339l190 -700h-291l-30 124h-271l-79 -124h-319zM390 154h315l30 -124h223l-172 640h-297l-421 -640h243zM441 235l153 240h31l59 -240h-243zM603 430l-106 -165h147zM711 780q-25 10 -47 26q-22 15 -33 15q-7 0 -11 -4.5t-6 -15.5l-5 -26h-198l13 68q8 44 38 68
t80 24q33 0 58 -10t51 -27q20 -14 36 -14q15 0 18 16l6 30h199l-14 -71q-9 -46 -37.5 -67.5t-86.5 -21.5q-36 0 -61 10zM839.5 811.5q20.5 15.5 28.5 53.5l8 39h-141l-2 -11q-6 -35 -44 -35q-21 0 -54 21q-23 14 -44 22t-49 8q-40 0 -60.5 -17t-28.5 -53l-8 -38h140l2 10
q8 36 42 36q22 0 52 -21q20 -14 40 -22t51 -8q47 0 67.5 15.5z" />
    <glyph glyph-name="Adieresis" unicode="&#xc4;" horiz-adv-x="980" 
d="M471 700h339l190 -700h-291l-30 124h-271l-79 -124h-319zM390 154h315l30 -124h223l-172 640h-297l-421 -640h243zM441 235l153 240h31l59 -240h-243zM603 430l-106 -165h147zM429 783q-32 28 -32 73q0 48 33.5 78.5t85.5 30.5t84 -28t32 -73q0 -47 -34 -78t-86 -31
q-51 0 -83 28zM723 783q-32 28 -32 73q0 47 33.5 78t85.5 31t84 -28t32 -73q0 -48 -33.5 -78.5t-86.5 -30.5q-51 0 -83 28zM578.5 804.5q25.5 23.5 25.5 59.5q0 34 -24 54.5t-64 20.5t-65.5 -23t-25.5 -60q0 -34 23.5 -54.5t63.5 -20.5q41 0 66.5 23.5zM872.5 804
q25.5 23 25.5 60q0 34 -24 54.5t-64 20.5t-65.5 -23.5t-25.5 -59.5q0 -34 23.5 -54.5t63.5 -20.5q41 0 66.5 23z" />
    <glyph glyph-name="Aring" unicode="&#xc5;" horiz-adv-x="980" 
d="M471 700h339l190 -700h-291l-30 124h-271l-79 -124h-319zM390 154h315l30 -124h223l-172 640h-297l-421 -640h243zM441 235l153 240h31l59 -240h-243zM603 430l-106 -165h147zM538 776.5q-44 31.5 -44 84.5q0 56 42 90t114 34q76 0 120 -31.5t44 -84.5q0 -56 -42 -90
t-114 -34q-76 0 -120 31.5zM752 797.5q34 26.5 34 71.5q0 42 -36 66t-100 24q-60 0 -94 -26.5t-34 -71.5q0 -42 36 -66t100 -24q60 0 94 26.5zM608 831.5q-16 11.5 -16 32.5q0 22 16 34t46 12q29 0 45.5 -11.5t16.5 -32.5q0 -22 -16 -34t-47 -12q-29 0 -45 11.5zM688 866
q0 18 -34 18t-34 -20q0 -18 33 -18q35 0 35 20z" />
    <glyph glyph-name="AE" unicode="&#xc6;" horiz-adv-x="1235" 
d="M315 0h-315l441 700h865l-40 -207h-322l-14 -75h283l-28 -140h-283l-13 -71h341l-41 -207h-610l32 168h-192zM459 670l-403 -640h241l104 168h248l-32 -168h546l29 147h-341l25 131h283l16 80h-283l26 135h322l28 147h-809zM664 278h-214l152 245h111zM620 493l-114 -185
h132l37 185h-55z" />
    <glyph glyph-name="Ccedilla" unicode="&#xc7;" horiz-adv-x="940" 
d="M374 -243l19 98q43 -15 91 -15q17 0 25 3.5t8 11.5q0 7 -6.5 9t-18.5 2h-59l-23 30l54 97q-102 19 -177.5 66.5t-116.5 118.5t-41 158q0 110 60.5 197.5t168 137t242.5 49.5q90 0 170 -16.5t138 -40t89 -46.5l-45 -229q-47 43 -136 81.5t-195 38.5q-95 0 -153 -44.5
t-58 -118.5q0 -72 60 -112.5t164 -40.5q73 0 136 17.5t122 46.5l-45 -230q-28 -17 -94.5 -31.5t-146.5 -14.5h-12l-21 -34q47 -3 75 -30.5t28 -64.5q0 -55 -43 -83t-122 -28q-71 0 -137 17zM648 -149q0 29 -23.5 49.5t-64.5 20.5h-31l55 89h22q60 0 119.5 10.5t92.5 24.5
l31 159q-42 -18 -97.5 -30t-117.5 -12q-117 0 -186.5 49t-69.5 134q0 58 30.5 101.5t85.5 67.5t127 24q91 0 173 -28.5t137 -66.5l31 162q-56 33 -151.5 59t-210.5 26q-126 0 -226 -45.5t-156.5 -126.5t-56.5 -182q0 -85 42.5 -152.5t121 -111t184.5 -56.5l-67 -118l5 -6h45
q23 0 38 -9t15 -28q0 -41 -61 -41q-33 0 -69 9l-9 -46q39 -11 105 -11q137 0 137 85z" />
    <glyph glyph-name="Egrave" unicode="&#xc8;" horiz-adv-x="770" 
d="M725 0h-650l137 700h630l-41 -207h-360l-14 -75h322l-28 -140h-322l-13 -71h379zM238 670l-125 -640h586l28 147h-379l25 131h322l16 80h-322l26 135h360l29 147h-566zM701 760h-24l-317 53l38 147h77l251 -139zM394 833l285 -47h2l11 23l-225 125h-47z" />
    <glyph glyph-name="Eacute" unicode="&#xc9;" horiz-adv-x="770" 
d="M725 0h-650l137 700h630l-41 -207h-360l-14 -75h322l-28 -140h-322l-13 -71h379zM238 670l-125 -640h586l28 147h-379l25 131h322l16 80h-322l26 135h360l29 147h-566zM390 760h-28l-2 62l300 138h74l-10 -152zM388 806l1 -20l309 44l6 104h-38z" />
    <glyph glyph-name="Ecircumflex" unicode="&#xca;" horiz-adv-x="770" 
d="M725 0h-650l137 700h630l-41 -207h-360l-14 -75h322l-28 -140h-322l-13 -71h379zM238 670l-125 -640h586l28 147h-379l25 131h322l16 80h-322l26 135h360l29 147h-566zM668 930l141 -150h-201l-55 63l-82 -63h-222l199 150h220zM461 806l84 65h20l57 -65h125l-91 98h-198
l-131 -98h134z" />
    <glyph glyph-name="Edieresis" unicode="&#xcb;" horiz-adv-x="770" 
d="M725 0h-650l137 700h630l-41 -207h-360l-14 -75h322l-28 -140h-322l-13 -71h379zM238 670l-125 -640h586l28 147h-379l25 131h322l16 80h-322l26 135h360l29 147h-566zM312 783q-32 28 -32 73q0 48 33.5 78.5t85.5 30.5t84 -28t32 -73q0 -47 -34 -78t-86 -31
q-51 0 -83 28zM606 783q-32 28 -32 73q0 47 33.5 78t85.5 31t84 -28t32 -73q0 -48 -33.5 -78.5t-86.5 -30.5q-51 0 -83 28zM461.5 804.5q25.5 23.5 25.5 59.5q0 34 -24 54.5t-64 20.5t-65.5 -23t-25.5 -60q0 -34 23.5 -54.5t63.5 -20.5q41 0 66.5 23.5zM755.5 804
q25.5 23 25.5 60q0 34 -24 54.5t-64 20.5t-65.5 -23.5t-25.5 -59.5q0 -34 23.5 -54.5t63.5 -20.5q41 0 66.5 23z" />
    <glyph glyph-name="Igrave" unicode="&#xcc;" horiz-adv-x="810" 
d="M769 0h-729l40 207h230l55 286h-229l40 207h729l-40 -207h-229l-55 -286h229zM106 177l-29 -147h666l29 147h-229l67 346h229l29 147h-666l-29 -147h230l-67 -346h-230zM704 760h-24l-317 53l38 147h77l251 -139zM397 833l285 -47h2l11 23l-225 125h-47z" />
    <glyph glyph-name="Iacute" unicode="&#xcd;" horiz-adv-x="810" 
d="M769 0h-729l40 207h230l55 286h-229l40 207h729l-40 -207h-229l-55 -286h229zM106 177l-29 -147h666l29 147h-229l67 346h229l29 147h-666l-29 -147h230l-67 -346h-230zM378 760h-28l-2 62l300 138h74l-10 -152zM376 806l1 -20l309 44l6 104h-38z" />
    <glyph glyph-name="Icircumflex" unicode="&#xce;" horiz-adv-x="810" 
d="M769 0h-729l40 207h230l55 286h-229l40 207h729l-40 -207h-229l-55 -286h229zM106 177l-29 -147h666l29 147h-229l67 346h229l29 147h-666l-29 -147h230l-67 -346h-230zM670 930l141 -150h-201l-55 63l-82 -63h-222l199 150h220zM463 806l84 65h20l57 -65h125l-91 98
h-198l-131 -98h134z" />
    <glyph glyph-name="Idieresis" unicode="&#xcf;" horiz-adv-x="810" 
d="M769 0h-729l40 207h230l55 286h-229l40 207h729l-40 -207h-229l-55 -286h229zM106 177l-29 -147h666l29 147h-229l67 346h229l29 147h-666l-29 -147h230l-67 -346h-230zM314 783q-32 28 -32 73q0 48 33.5 78.5t85.5 30.5t84 -28t32 -73q0 -47 -34 -78t-86 -31
q-51 0 -83 28zM608 783q-32 28 -32 73q0 47 33.5 78t85.5 31t84 -28t32 -73q0 -48 -33.5 -78.5t-86.5 -30.5q-51 0 -83 28zM463.5 804.5q25.5 23.5 25.5 59.5q0 34 -24 54.5t-64 20.5t-65.5 -23t-25.5 -60q0 -34 23.5 -54.5t63.5 -20.5q41 0 66.5 23.5zM757.5 804
q25.5 23 25.5 60q0 34 -24 54.5t-64 20.5t-65.5 -23.5t-25.5 -59.5q0 -34 23.5 -54.5t63.5 -20.5q41 0 66.5 23z" />
    <glyph glyph-name="Eth" unicode="&#xd0;" horiz-adv-x="1000" 
d="M70 0l54 278h-58l28 140h57l55 282h359q130 0 231.5 -40.5t158 -114t56.5 -169.5q0 -110 -56 -195.5t-156.5 -133t-229.5 -47.5h-499zM569 30q121 0 214 43.5t144.5 122t51.5 180.5q0 87 -52 154t-146 103.5t-216 36.5h-333l-55 -282h-57l-16 -80h58l-54 -278h461z
M344 191l23 117h176l16 80h-177l24 121h150q100 0 153 -38.5t53 -108.5q0 -81 -52 -126t-145 -45h-221zM565 221q80 0 122.5 36.5t42.5 104.5q0 57 -43.5 87t-130.5 30h-123l-12 -61h176l-28 -140h-175l-11 -57h182z" />
    <glyph glyph-name="Ntilde" unicode="&#xd1;" horiz-adv-x="1000" 
d="M720 280l81 420h260l-136 -700h-409l-100 421l-81 -421h-260l136 700h410zM544 30h355l124 640h-196l-89 -460h-35l-108 460h-358l-124 -640h196l89 460h35zM716 780q-25 10 -47 26q-22 15 -33 15q-7 0 -11 -4.5t-6 -15.5l-5 -26h-198l13 68q8 44 38 68t80 24
q33 0 58 -10t51 -27q20 -14 36 -14q15 0 18 16l6 30h199l-14 -71q-9 -46 -37.5 -67.5t-86.5 -21.5q-36 0 -61 10zM844.5 811.5q20.5 15.5 28.5 53.5l8 39h-141l-2 -11q-6 -35 -44 -35q-21 0 -54 21q-23 14 -44 22t-49 8q-40 0 -60.5 -17t-28.5 -53l-8 -38h140l2 10
q8 36 42 36q22 0 52 -21q20 -14 40 -22t51 -8q47 0 67.5 15.5z" />
    <glyph glyph-name="Ograve" unicode="&#xd2;" horiz-adv-x="1140" 
d="M373 24.5q-117 44.5 -180.5 126t-63.5 189.5q0 112 63 198t178 134t264 48q155 0 271.5 -44.5t180 -126t63.5 -189.5q0 -111 -63 -197.5t-177.5 -134.5t-263.5 -48q-155 0 -272 44.5zM892 54q107 44 166 123.5t59 182.5q0 100 -59.5 174.5t-168.5 115t-255 40.5
q-141 0 -248 -44t-166 -123.5t-59 -182.5q0 -100 59.5 -174.5t169 -115t255.5 -40.5q140 0 247 44zM504 185q-60 23 -93 66t-33 99q0 55 32.5 97.5t91 66.5t133.5 24q79 0 139 -23t93 -66t33 -99q0 -55 -32.5 -97.5t-91 -66.5t-133.5 -24q-79 0 -139 23zM761 212
q51 20 79 56t28 82q0 72 -63 115t-170 43q-67 0 -118 -20t-79 -56t-28 -82q0 -72 63 -115t170 -43q67 0 118 20zM839 760h-24l-317 53l38 147h77l251 -139zM532 833l285 -47h2l11 23l-225 125h-47z" />
    <glyph glyph-name="Oacute" unicode="&#xd3;" horiz-adv-x="1140" 
d="M373 24.5q-117 44.5 -180.5 126t-63.5 189.5q0 112 63 198t178 134t264 48q155 0 271.5 -44.5t180 -126t63.5 -189.5q0 -111 -63 -197.5t-177.5 -134.5t-263.5 -48q-155 0 -272 44.5zM892 54q107 44 166 123.5t59 182.5q0 100 -59.5 174.5t-168.5 115t-255 40.5
q-141 0 -248 -44t-166 -123.5t-59 -182.5q0 -100 59.5 -174.5t169 -115t255.5 -40.5q140 0 247 44zM504 185q-60 23 -93 66t-33 99q0 55 32.5 97.5t91 66.5t133.5 24q79 0 139 -23t93 -66t33 -99q0 -55 -32.5 -97.5t-91 -66.5t-133.5 -24q-79 0 -139 23zM761 212
q51 20 79 56t28 82q0 72 -63 115t-170 43q-67 0 -118 -20t-79 -56t-28 -82q0 -72 63 -115t170 -43q67 0 118 20zM513 760h-28l-2 62l300 138h74l-10 -152zM511 806l1 -20l309 44l6 104h-38z" />
    <glyph glyph-name="Ocircumflex" unicode="&#xd4;" horiz-adv-x="1140" 
d="M373 24.5q-117 44.5 -180.5 126t-63.5 189.5q0 112 63 198t178 134t264 48q155 0 271.5 -44.5t180 -126t63.5 -189.5q0 -111 -63 -197.5t-177.5 -134.5t-263.5 -48q-155 0 -272 44.5zM892 54q107 44 166 123.5t59 182.5q0 100 -59.5 174.5t-168.5 115t-255 40.5
q-141 0 -248 -44t-166 -123.5t-59 -182.5q0 -100 59.5 -174.5t169 -115t255.5 -40.5q140 0 247 44zM504 185q-60 23 -93 66t-33 99q0 55 32.5 97.5t91 66.5t133.5 24q79 0 139 -23t93 -66t33 -99q0 -55 -32.5 -97.5t-91 -66.5t-133.5 -24q-79 0 -139 23zM761 212
q51 20 79 56t28 82q0 72 -63 115t-170 43q-67 0 -118 -20t-79 -56t-28 -82q0 -72 63 -115t170 -43q67 0 118 20zM805 930l141 -150h-201l-55 63l-82 -63h-222l199 150h220zM598 806l84 65h20l57 -65h125l-91 98h-198l-131 -98h134z" />
    <glyph glyph-name="Otilde" unicode="&#xd5;" horiz-adv-x="1140" 
d="M373 24.5q-117 44.5 -180.5 126t-63.5 189.5q0 112 63 198t178 134t264 48q155 0 271.5 -44.5t180 -126t63.5 -189.5q0 -111 -63 -197.5t-177.5 -134.5t-263.5 -48q-155 0 -272 44.5zM892 54q107 44 166 123.5t59 182.5q0 100 -59.5 174.5t-168.5 115t-255 40.5
q-141 0 -248 -44t-166 -123.5t-59 -182.5q0 -100 59.5 -174.5t169 -115t255.5 -40.5q140 0 247 44zM504 185q-60 23 -93 66t-33 99q0 55 32.5 97.5t91 66.5t133.5 24q79 0 139 -23t93 -66t33 -99q0 -55 -32.5 -97.5t-91 -66.5t-133.5 -24q-79 0 -139 23zM761 212
q51 20 79 56t28 82q0 72 -63 115t-170 43q-67 0 -118 -20t-79 -56t-28 -82q0 -72 63 -115t170 -43q67 0 118 20zM731 780q-25 10 -47 26q-22 15 -33 15q-7 0 -11 -4.5t-6 -15.5l-5 -26h-198l13 68q8 44 38 68t80 24q33 0 58 -10t51 -27q20 -14 36 -14q15 0 18 16l6 30h199
l-14 -71q-9 -46 -37.5 -67.5t-86.5 -21.5q-36 0 -61 10zM859.5 811.5q20.5 15.5 28.5 53.5l8 39h-141l-2 -11q-6 -35 -44 -35q-21 0 -54 21q-23 14 -44 22t-49 8q-40 0 -60.5 -17t-28.5 -53l-8 -38h140l2 10q8 36 42 36q22 0 52 -21q20 -14 40 -22t51 -8q47 0 67.5 15.5z
" />
    <glyph glyph-name="Odieresis" unicode="&#xd6;" horiz-adv-x="1140" 
d="M373 24.5q-117 44.5 -180.5 126t-63.5 189.5q0 112 63 198t178 134t264 48q155 0 271.5 -44.5t180 -126t63.5 -189.5q0 -111 -63 -197.5t-177.5 -134.5t-263.5 -48q-155 0 -272 44.5zM892 54q107 44 166 123.5t59 182.5q0 100 -59.5 174.5t-168.5 115t-255 40.5
q-141 0 -248 -44t-166 -123.5t-59 -182.5q0 -100 59.5 -174.5t169 -115t255.5 -40.5q140 0 247 44zM504 185q-60 23 -93 66t-33 99q0 55 32.5 97.5t91 66.5t133.5 24q79 0 139 -23t93 -66t33 -99q0 -55 -32.5 -97.5t-91 -66.5t-133.5 -24q-79 0 -139 23zM761 212
q51 20 79 56t28 82q0 72 -63 115t-170 43q-67 0 -118 -20t-79 -56t-28 -82q0 -72 63 -115t170 -43q67 0 118 20zM449 783q-32 28 -32 73q0 48 33.5 78.5t85.5 30.5t84 -28t32 -73q0 -47 -34 -78t-86 -31q-51 0 -83 28zM743 783q-32 28 -32 73q0 47 33.5 78t85.5 31t84 -28
t32 -73q0 -48 -33.5 -78.5t-86.5 -30.5q-51 0 -83 28zM598.5 804.5q25.5 23.5 25.5 59.5q0 34 -24 54.5t-64 20.5t-65.5 -23t-25.5 -60q0 -34 23.5 -54.5t63.5 -20.5q41 0 66.5 23.5zM892.5 804q25.5 23 25.5 60q0 34 -24 54.5t-64 20.5t-65.5 -23.5t-25.5 -59.5
q0 -34 23.5 -54.5t63.5 -20.5q41 0 66.5 23z" />
    <glyph glyph-name="multiply" unicode="&#xd7;" horiz-adv-x="663" 
d="M392 167l-128 -128l-139 139l130 130l-127 126l139 139l124 -125l128 128l139 -139l-130 -129l127 -127l-139 -139zM169 178l95 -95l128 128l124 -125l95 95l-127 127l130 129l-95 95l-128 -128l-124 125l-95 -95l127 -126z" />
    <glyph glyph-name="Oslash" unicode="&#xd8;" horiz-adv-x="1140" 
d="M473 -3.5q-81 16.5 -145 48.5l-64 -45h-228l175 129q-82 88 -82 211q0 112 63 198t178 134t264 48q181 0 317 -64l63 44h228l-175 -129q82 -90 82 -211q0 -111 -63 -197.5t-177.5 -134.5t-263.5 -48q-91 0 -172 16.5zM892 54q107 44 166 123.5t59 182.5q0 129 -97 214
l128 96h-124l-70 -50q-64 34 -145.5 52t-174.5 18q-141 0 -248 -44t-166 -123.5t-59 -182.5q0 -130 98 -214l-129 -96h124l71 51q62 -35 144 -53t176 -18q140 0 247 44zM419 242q-41 46 -41 108q0 55 32.5 97.5t91 66.5t133.5 24q96 0 161 -34zM731 497q-46 11 -96 11
q-67 0 -118 -20t-79 -56t-28 -82q0 -35 16 -65zM483 194l376 264q41 -46 41 -108q0 -55 -32.5 -97.5t-91 -66.5t-133.5 -24q-94 0 -160 32zM761 212q51 20 79 56t28 82q0 35 -16 65l-305 -212q46 -11 96 -11q67 0 118 20z" />
    <glyph glyph-name="Ugrave" unicode="&#xd9;" horiz-adv-x="960" 
d="M312 14q-92 34 -140 99t-48 156q0 47 8 85l68 346h270l-69 -357q-4 -23 -4 -37q0 -47 36.5 -73.5t103.5 -26.5q64 0 96.5 28.5t45.5 96.5l71 369h270l-83 -427q-29 -150 -128 -221.5t-276 -71.5q-129 0 -221 34zM789 75q90 65 117 204l76 391h-206l-67 -345
q-15 -78 -55.5 -113.5t-116.5 -35.5q-79 0 -125.5 35t-46.5 95q0 20 5 44l62 320h-206l-62 -322q-8 -39 -8 -79q0 -124 98 -191.5t279 -67.5q166 0 256 65zM775 760h-24l-317 53l38 147h77l251 -139zM468 833l285 -47h2l11 23l-225 125h-47z" />
    <glyph glyph-name="Uacute" unicode="&#xda;" horiz-adv-x="960" 
d="M312 14q-92 34 -140 99t-48 156q0 47 8 85l68 346h270l-69 -357q-4 -23 -4 -37q0 -47 36.5 -73.5t103.5 -26.5q64 0 96.5 28.5t45.5 96.5l71 369h270l-83 -427q-29 -150 -128 -221.5t-276 -71.5q-129 0 -221 34zM789 75q90 65 117 204l76 391h-206l-67 -345
q-15 -78 -55.5 -113.5t-116.5 -35.5q-79 0 -125.5 35t-46.5 95q0 20 5 44l62 320h-206l-62 -322q-8 -39 -8 -79q0 -124 98 -191.5t279 -67.5q166 0 256 65zM459 760h-28l-2 62l300 138h74l-10 -152zM457 806l1 -20l309 44l6 104h-38z" />
    <glyph glyph-name="Ucircumflex" unicode="&#xdb;" horiz-adv-x="960" 
d="M312 14q-92 34 -140 99t-48 156q0 47 8 85l68 346h270l-69 -357q-4 -23 -4 -37q0 -47 36.5 -73.5t103.5 -26.5q64 0 96.5 28.5t45.5 96.5l71 369h270l-83 -427q-29 -150 -128 -221.5t-276 -71.5q-129 0 -221 34zM789 75q90 65 117 204l76 391h-206l-67 -345
q-15 -78 -55.5 -113.5t-116.5 -35.5q-79 0 -125.5 35t-46.5 95q0 20 5 44l62 320h-206l-62 -322q-8 -39 -8 -79q0 -124 98 -191.5t279 -67.5q166 0 256 65zM746 930l141 -150h-201l-55 63l-82 -63h-222l199 150h220zM539 806l84 65h20l57 -65h125l-91 98h-198l-131 -98h134z
" />
    <glyph glyph-name="Udieresis" unicode="&#xdc;" horiz-adv-x="960" 
d="M312 14q-92 34 -140 99t-48 156q0 47 8 85l68 346h270l-69 -357q-4 -23 -4 -37q0 -47 36.5 -73.5t103.5 -26.5q64 0 96.5 28.5t45.5 96.5l71 369h270l-83 -427q-29 -150 -128 -221.5t-276 -71.5q-129 0 -221 34zM789 75q90 65 117 204l76 391h-206l-67 -345
q-15 -78 -55.5 -113.5t-116.5 -35.5q-79 0 -125.5 35t-46.5 95q0 20 5 44l62 320h-206l-62 -322q-8 -39 -8 -79q0 -124 98 -191.5t279 -67.5q166 0 256 65zM390 783q-32 28 -32 73q0 48 33.5 78.5t85.5 30.5t84 -28t32 -73q0 -47 -34 -78t-86 -31q-51 0 -83 28zM684 783
q-32 28 -32 73q0 47 33.5 78t85.5 31t84 -28t32 -73q0 -48 -33.5 -78.5t-86.5 -30.5q-51 0 -83 28zM539.5 804.5q25.5 23.5 25.5 59.5q0 34 -24 54.5t-64 20.5t-65.5 -23t-25.5 -60q0 -34 23.5 -54.5t63.5 -20.5q41 0 66.5 23.5zM833.5 804q25.5 23 25.5 60q0 34 -24 54.5
t-64 20.5t-65.5 -23.5t-25.5 -59.5q0 -34 23.5 -54.5t63.5 -20.5q41 0 66.5 23z" />
    <glyph glyph-name="Yacute" unicode="&#xdd;" horiz-adv-x="930" 
d="M509 407l245 293h327l-467 -553l-29 -147h-270l29 152l-248 548h281zM559 30l25 128l431 512h-245l-252 -301h-28l-135 301h-211l233 -514l-25 -126h207zM423 760h-28l-2 62l300 138h74l-10 -152zM421 806l1 -20l309 44l6 104h-38z" />
    <glyph glyph-name="Thorn" unicode="&#xde;" horiz-adv-x="950" 
d="M75 0l137 700h270l-23 -115h220q91 0 159 -26.5t105 -75t37 -114.5q0 -74 -35.5 -129.5t-101 -85.5t-152.5 -30h-322l-25 -124h-269zM113 30h206l24 124h348q118 0 187.5 58t69.5 157q0 86 -71.5 136t-197.5 50h-258l23 115h-206zM370 292l25 126h244q40 0 64 -15.5
t24 -42.5q0 -33 -21.5 -50.5t-61.5 -17.5h-274zM644 322q28 0 39.5 9t11.5 29q0 13 -14 20.5t-42 7.5h-218l-13 -66h236z" />
    <glyph glyph-name="germandbls" unicode="&#xdf;" horiz-adv-x="920" 
d="M538.5 7.5q-74.5 22.5 -112.5 48.5l40 206q39 -24 82.5 -42t77.5 -18q20 0 29 6t9 20q0 9 -10 23t-36 40q-27 27 -41.5 47.5t-14.5 42.5q0 32 20 53.5t49 39.5q21 13 21 20q0 4 -7 4h-153q-13 0 -19.5 -6t-9.5 -21l-92 -471h-270l69 354h-100l17 97h102l18 92
q18 91 70 134t143 43h332q72 0 113 -31.5t41 -85.5q0 -42 -20.5 -71t-48.5 -46.5t-69 -36.5q-34 -16 -46 -26t-12 -21q0 -12 15 -24.5t59 -34.5q46 -22 77 -43t54.5 -54t23.5 -78q0 -55 -30 -96t-85.5 -64t-129.5 -23q-81 0 -155.5 22.5zM850 56.5q57 41.5 57 111.5
q0 37 -19.5 63.5t-46.5 44.5t-72 40q-45 23 -68 41.5t-23 44.5q0 23 17.5 39t58.5 35q40 19 63.5 33.5t40 37.5t16.5 56q0 41 -31.5 64t-90.5 23h-332q-79 0 -122.5 -36.5t-59.5 -116.5l-23 -116h-100l-7 -37h100l-69 -354h205l87 447q10 51 61 51h149q21 0 33 -7.5
t12 -22.5q0 -14 -9 -24.5t-31 -24.5q-27 -17 -39.5 -31t-12.5 -37q0 -13 10 -27.5t37 -41.5t41 -46t14 -38q0 -28 -18 -42t-52 -14q-32 0 -65 12t-71 32l-28 -145q42 -23 103 -39.5t129 -16.5q99 0 156 41.5z" />
    <glyph glyph-name="agrave" unicode="&#xe0;" 
d="M638.5 559.5q83.5 -25.5 131.5 -76.5t48 -125q0 -19 -5 -47l-61 -311h-271l11 53q-38 -29 -90.5 -48.5t-114.5 -19.5q-100 0 -158 41.5t-58 111.5q0 90 67.5 132t218.5 49l22 1q79 4 114 7.5t45.5 9t10.5 15.5q0 28 -128 28q-160 0 -277 -45l41 211q28 13 101 26t162 13
q107 0 190.5 -25.5zM781 316q4 20 4 42q0 99 -93.5 148t-243.5 49q-77 0 -139 -10t-96 -23l-27 -137q108 25 235 25q76 0 118 -12.5t42 -45.5q0 -22 -15.5 -33.5t-57 -18t-127.5 -10.5l-22 -1q-93 -4 -149 -20t-81.5 -48t-25.5 -83q0 -57 48.5 -90t135.5 -33q63 0 121 24
t90 62h35l-14 -71h206zM457 256q69 6 111 28l-19 -102q-19 -16 -59.5 -31t-90.5 -15q-35 0 -57 13t-22 39q0 29 26.5 44.5t81.5 20.5zM528 240q-21 -7 -69 -12l-29 -3q-44 -5 -62 -13t-18 -24q0 -11 13 -17.5t36 -6.5q36 0 67 9t53 23zM684 620h-24l-317 53l38 147h77
l251 -139zM377 693l285 -47h2l11 23l-225 125h-47z" />
    <glyph glyph-name="aacute" unicode="&#xe1;" 
d="M638.5 559.5q83.5 -25.5 131.5 -76.5t48 -125q0 -19 -5 -47l-61 -311h-271l11 53q-38 -29 -90.5 -48.5t-114.5 -19.5q-100 0 -158 41.5t-58 111.5q0 90 67.5 132t218.5 49l22 1q79 4 114 7.5t45.5 9t10.5 15.5q0 28 -128 28q-160 0 -277 -45l41 211q28 13 101 26t162 13
q107 0 190.5 -25.5zM781 316q4 20 4 42q0 99 -93.5 148t-243.5 49q-77 0 -139 -10t-96 -23l-27 -137q108 25 235 25q76 0 118 -12.5t42 -45.5q0 -22 -15.5 -33.5t-57 -18t-127.5 -10.5l-22 -1q-93 -4 -149 -20t-81.5 -48t-25.5 -83q0 -57 48.5 -90t135.5 -33q63 0 121 24
t90 62h35l-14 -71h206zM457 256q69 6 111 28l-19 -102q-19 -16 -59.5 -31t-90.5 -15q-35 0 -57 13t-22 39q0 29 26.5 44.5t81.5 20.5zM528 240q-21 -7 -69 -12l-29 -3q-44 -5 -62 -13t-18 -24q0 -11 13 -17.5t36 -6.5q36 0 67 9t53 23zM388 620h-28l-2 62l300 138h74
l-10 -152zM386 666l1 -20l309 44l6 104h-38z" />
    <glyph glyph-name="acircumflex" unicode="&#xe2;" 
d="M638.5 559.5q83.5 -25.5 131.5 -76.5t48 -125q0 -19 -5 -47l-61 -311h-271l11 53q-38 -29 -90.5 -48.5t-114.5 -19.5q-100 0 -158 41.5t-58 111.5q0 90 67.5 132t218.5 49l22 1q79 4 114 7.5t45.5 9t10.5 15.5q0 28 -128 28q-160 0 -277 -45l41 211q28 13 101 26t162 13
q107 0 190.5 -25.5zM781 316q4 20 4 42q0 99 -93.5 148t-243.5 49q-77 0 -139 -10t-96 -23l-27 -137q108 25 235 25q76 0 118 -12.5t42 -45.5q0 -22 -15.5 -33.5t-57 -18t-127.5 -10.5l-22 -1q-93 -4 -149 -20t-81.5 -48t-25.5 -83q0 -57 48.5 -90t135.5 -33q63 0 121 24
t90 62h35l-14 -71h206zM457 256q69 6 111 28l-19 -102q-19 -16 -59.5 -31t-90.5 -15q-35 0 -57 13t-22 39q0 29 26.5 44.5t81.5 20.5zM528 240q-21 -7 -69 -12l-29 -3q-44 -5 -62 -13t-18 -24q0 -11 13 -17.5t36 -6.5q36 0 67 9t53 23zM645 790l141 -150h-201l-55 63
l-82 -63h-222l199 150h220zM438 666l84 65h20l57 -65h125l-91 98h-198l-131 -98h134z" />
    <glyph glyph-name="atilde" unicode="&#xe3;" 
d="M638.5 559.5q83.5 -25.5 131.5 -76.5t48 -125q0 -19 -5 -47l-61 -311h-271l11 53q-38 -29 -90.5 -48.5t-114.5 -19.5q-100 0 -158 41.5t-58 111.5q0 90 67.5 132t218.5 49l22 1q79 4 114 7.5t45.5 9t10.5 15.5q0 28 -128 28q-160 0 -277 -45l41 211q28 13 101 26t162 13
q107 0 190.5 -25.5zM781 316q4 20 4 42q0 99 -93.5 148t-243.5 49q-77 0 -139 -10t-96 -23l-27 -137q108 25 235 25q76 0 118 -12.5t42 -45.5q0 -22 -15.5 -33.5t-57 -18t-127.5 -10.5l-22 -1q-93 -4 -149 -20t-81.5 -48t-25.5 -83q0 -57 48.5 -90t135.5 -33q63 0 121 24
t90 62h35l-14 -71h206zM457 256q69 6 111 28l-19 -102q-19 -16 -59.5 -31t-90.5 -15q-35 0 -57 13t-22 39q0 29 26.5 44.5t81.5 20.5zM528 240q-21 -7 -69 -12l-29 -3q-44 -5 -62 -13t-18 -24q0 -11 13 -17.5t36 -6.5q36 0 67 9t53 23zM571 640q-25 10 -47 26q-22 15 -33 15
q-7 0 -11 -4.5t-6 -15.5l-5 -26h-198l13 68q8 44 38 68t80 24q33 0 58 -10t51 -27q20 -14 36 -14q15 0 18 16l6 30h199l-14 -71q-9 -46 -37.5 -67.5t-86.5 -21.5q-36 0 -61 10zM699.5 671.5q20.5 15.5 28.5 53.5l8 39h-141l-2 -11q-6 -35 -44 -35q-21 0 -54 21
q-23 14 -44 22t-49 8q-40 0 -60.5 -17t-28.5 -53l-8 -38h140l2 10q8 36 42 36q22 0 52 -21q20 -14 40 -22t51 -8q47 0 67.5 15.5z" />
    <glyph glyph-name="adieresis" unicode="&#xe4;" 
d="M638.5 559.5q83.5 -25.5 131.5 -76.5t48 -125q0 -19 -5 -47l-61 -311h-271l11 53q-38 -29 -90.5 -48.5t-114.5 -19.5q-100 0 -158 41.5t-58 111.5q0 90 67.5 132t218.5 49l22 1q79 4 114 7.5t45.5 9t10.5 15.5q0 28 -128 28q-160 0 -277 -45l41 211q28 13 101 26t162 13
q107 0 190.5 -25.5zM781 316q4 20 4 42q0 99 -93.5 148t-243.5 49q-77 0 -139 -10t-96 -23l-27 -137q108 25 235 25q76 0 118 -12.5t42 -45.5q0 -22 -15.5 -33.5t-57 -18t-127.5 -10.5l-22 -1q-93 -4 -149 -20t-81.5 -48t-25.5 -83q0 -57 48.5 -90t135.5 -33q63 0 121 24
t90 62h35l-14 -71h206zM457 256q69 6 111 28l-19 -102q-19 -16 -59.5 -31t-90.5 -15q-35 0 -57 13t-22 39q0 29 26.5 44.5t81.5 20.5zM528 240q-21 -7 -69 -12l-29 -3q-44 -5 -62 -13t-18 -24q0 -11 13 -17.5t36 -6.5q36 0 67 9t53 23zM289 643q-32 28 -32 73
q0 48 33.5 78.5t85.5 30.5t84 -28t32 -73q0 -47 -34 -78t-86 -31q-51 0 -83 28zM583 643q-32 28 -32 73q0 47 33.5 78t85.5 31t84 -28t32 -73q0 -48 -33.5 -78.5t-86.5 -30.5q-51 0 -83 28zM438.5 664.5q25.5 23.5 25.5 59.5q0 34 -24 54.5t-64 20.5t-65.5 -23t-25.5 -60
q0 -34 23.5 -54.5t63.5 -20.5q41 0 66.5 23.5zM732.5 664q25.5 23 25.5 60q0 34 -24 54.5t-64 20.5t-65.5 -23.5t-25.5 -59.5q0 -34 23.5 -54.5t63.5 -20.5q41 0 66.5 23z" />
    <glyph glyph-name="aring" unicode="&#xe5;" 
d="M638.5 559.5q83.5 -25.5 131.5 -76.5t48 -125q0 -19 -5 -47l-61 -311h-271l11 53q-38 -29 -90.5 -48.5t-114.5 -19.5q-100 0 -158 41.5t-58 111.5q0 90 67.5 132t218.5 49l22 1q79 4 114 7.5t45.5 9t10.5 15.5q0 28 -128 28q-160 0 -277 -45l41 211q28 13 101 26t162 13
q107 0 190.5 -25.5zM781 316q4 20 4 42q0 99 -93.5 148t-243.5 49q-77 0 -139 -10t-96 -23l-27 -137q108 25 235 25q76 0 118 -12.5t42 -45.5q0 -22 -15.5 -33.5t-57 -18t-127.5 -10.5l-22 -1q-93 -4 -149 -20t-81.5 -48t-25.5 -83q0 -57 48.5 -90t135.5 -33q63 0 121 24
t90 62h35l-14 -71h206zM457 256q69 6 111 28l-19 -102q-19 -16 -59.5 -31t-90.5 -15q-35 0 -57 13t-22 39q0 29 26.5 44.5t81.5 20.5zM528 240q-21 -7 -69 -12l-29 -3q-44 -5 -62 -13t-18 -24q0 -11 13 -17.5t36 -6.5q36 0 67 9t53 23zM398 636.5q-44 31.5 -44 84.5
q0 56 42 90t114 34q76 0 120 -31.5t44 -84.5q0 -56 -42 -90t-114 -34q-76 0 -120 31.5zM612 657.5q34 26.5 34 71.5q0 42 -36 66t-100 24q-60 0 -94 -26.5t-34 -71.5q0 -42 36 -66t100 -24q60 0 94 26.5zM468 691.5q-16 11.5 -16 32.5q0 22 16 34t46 12q29 0 45.5 -11.5
t16.5 -32.5q0 -22 -16 -34t-47 -12q-29 0 -45 11.5zM548 726q0 18 -34 18t-34 -20q0 -18 33 -18q35 0 35 20z" />
    <glyph glyph-name="ae" unicode="&#xe6;" horiz-adv-x="1219" 
d="M139 29.5q-66 44.5 -66 122.5q0 85 64 135.5t174 50.5h206q-5 23 -32 32t-96 9q-132 0 -243 -37l41 211q103 32 246 32q84 0 150 -20.5t98 -56.5q36 35 102 56t142 21q98 0 169.5 -33.5t109.5 -95t38 -141.5q0 -20 -5 -50h-440q16 -38 58.5 -51.5t121.5 -13.5
q95 0 179 23l-41 -211q-21 -12 -77.5 -19.5t-121.5 -7.5q-95 0 -178 26.5t-139 73.5q-38 -38 -119.5 -69t-167.5 -31q-107 0 -173 44.5zM426 30q56 15 98 38.5t61 46.5h25q52 -47 132 -73.5t174 -26.5q58 0 104.5 5.5t65.5 12.5l29 152q-30 -6 -68 -10.5t-70 -4.5
q-107 0 -160.5 29.5t-60.5 95.5h453q1 8 1 20q0 72 -33.5 126.5t-97.5 84t-154 29.5q-78 0 -142 -22.5t-92 -58.5h-27q-22 38 -83 59.5t-148 21.5q-126 0 -217 -25l-28 -145q90 24 201 24q63 0 96 -8.5t48 -30t19 -62.5h-241q-97 0 -151.5 -42t-54.5 -114q0 -64 57 -100.5
t150 -36.5q58 0 114 15zM755 333q6 52 43 83t98 31q60 0 91 -31t31 -83h-263zM980 363q-3 24 -25 39t-59 15q-40 0 -63 -14t-34 -40h181zM345.5 154q-26.5 17 -26.5 49q0 31 24.5 48t65.5 17h139v-32q0 -37 20 -68q-25 -14 -63.5 -22.5t-82.5 -8.5q-50 0 -76.5 17zM526 182
q-10 32 -10 54v2h-106q-59 0 -59 -35q0 -36 71 -36q59 0 104 15z" />
    <glyph glyph-name="ccedilla" unicode="&#xe7;" horiz-adv-x="745" 
d="M277 -243l19 98q43 -15 91 -15q17 0 25 3.5t8 11.5q0 7 -6.5 9t-18.5 2h-59l-23 30l56 100q-129 24 -201 95t-72 176q0 93 50 165.5t140 112.5t208 40q100 0 184.5 -23t122.5 -50l-40 -206q-32 33 -99 58t-131 25q-73 0 -114.5 -30t-41.5 -83q0 -45 41 -70t115 -25
q59 0 105 10t88 27l-39 -197q-19 -12 -72.5 -24t-112.5 -12l-24 -39q47 -3 75 -30.5t28 -64.5q0 -55 -43 -83t-122 -28q-71 0 -137 17zM551 -149q0 29 -23.5 49.5t-64.5 20.5h-31l57 94h8q46 0 88.5 7.5t70.5 17.5l26 135q-27 -10 -66.5 -17t-84.5 -7q-87 0 -137.5 33
t-50.5 92q0 65 51 104t137 39q59 0 114 -17t94 -41l27 138q-45 22 -117 39t-155 17q-109 0 -192 -36t-128.5 -101.5t-45.5 -150.5q0 -102 75.5 -166.5t211.5 -80.5l-70 -122l5 -6h45q23 0 38 -9t15 -28q0 -41 -61 -41q-33 0 -69 9l-9 -46q39 -11 105 -11q137 0 137 85z" />
    <glyph glyph-name="egrave" unicode="&#xe8;" horiz-adv-x="815" 
d="M292.5 18.5q-94.5 33.5 -145 97.5t-50.5 154q0 91 47 163t132.5 112t196.5 40q106 0 189 -33.5t129.5 -95t46.5 -142.5q0 -26 -6 -52h-451q12 -44 56.5 -61t125.5 -17q110 0 200 37l-39 -198q-23 -13 -80 -25.5t-128 -12.5q-129 0 -223.5 33.5zM696 42l27 136
q-70 -24 -160 -24q-104 0 -159.5 33.5t-59.5 103.5h461q1 7 1 23q0 72 -42 127t-117.5 84.5t-173.5 29.5q-103 0 -181 -36t-120.5 -101t-42.5 -148q0 -121 102.5 -188t284.5 -67q101 0 180 27zM347 331q11 54 47 84.5t90 30.5q53 0 87.5 -32t37.5 -83h-262zM572 360
q-8 27 -31 42t-58 15q-70 0 -94 -57h183zM669 620h-24l-317 53l38 147h77l251 -139zM362 693l285 -47h2l11 23l-225 125h-47z" />
    <glyph glyph-name="eacute" unicode="&#xe9;" horiz-adv-x="815" 
d="M292.5 18.5q-94.5 33.5 -145 97.5t-50.5 154q0 91 47 163t132.5 112t196.5 40q106 0 189 -33.5t129.5 -95t46.5 -142.5q0 -26 -6 -52h-451q12 -44 56.5 -61t125.5 -17q110 0 200 37l-39 -198q-23 -13 -80 -25.5t-128 -12.5q-129 0 -223.5 33.5zM696 42l27 136
q-70 -24 -160 -24q-104 0 -159.5 33.5t-59.5 103.5h461q1 7 1 23q0 72 -42 127t-117.5 84.5t-173.5 29.5q-103 0 -181 -36t-120.5 -101t-42.5 -148q0 -121 102.5 -188t284.5 -67q101 0 180 27zM347 331q11 54 47 84.5t90 30.5q53 0 87.5 -32t37.5 -83h-262zM572 360
q-8 27 -31 42t-58 15q-70 0 -94 -57h183zM343 620h-28l-2 62l300 138h74l-10 -152zM341 666l1 -20l309 44l6 104h-38z" />
    <glyph glyph-name="ecircumflex" unicode="&#xea;" horiz-adv-x="815" 
d="M292.5 18.5q-94.5 33.5 -145 97.5t-50.5 154q0 91 47 163t132.5 112t196.5 40q106 0 189 -33.5t129.5 -95t46.5 -142.5q0 -26 -6 -52h-451q12 -44 56.5 -61t125.5 -17q110 0 200 37l-39 -198q-23 -13 -80 -25.5t-128 -12.5q-129 0 -223.5 33.5zM696 42l27 136
q-70 -24 -160 -24q-104 0 -159.5 33.5t-59.5 103.5h461q1 7 1 23q0 72 -42 127t-117.5 84.5t-173.5 29.5q-103 0 -181 -36t-120.5 -101t-42.5 -148q0 -121 102.5 -188t284.5 -67q101 0 180 27zM347 331q11 54 47 84.5t90 30.5q53 0 87.5 -32t37.5 -83h-262zM572 360
q-8 27 -31 42t-58 15q-70 0 -94 -57h183zM635 790l141 -150h-201l-55 63l-82 -63h-222l199 150h220zM428 666l84 65h20l57 -65h125l-91 98h-198l-131 -98h134z" />
    <glyph glyph-name="edieresis" unicode="&#xeb;" horiz-adv-x="815" 
d="M292.5 18.5q-94.5 33.5 -145 97.5t-50.5 154q0 91 47 163t132.5 112t196.5 40q106 0 189 -33.5t129.5 -95t46.5 -142.5q0 -26 -6 -52h-451q12 -44 56.5 -61t125.5 -17q110 0 200 37l-39 -198q-23 -13 -80 -25.5t-128 -12.5q-129 0 -223.5 33.5zM696 42l27 136
q-70 -24 -160 -24q-104 0 -159.5 33.5t-59.5 103.5h461q1 7 1 23q0 72 -42 127t-117.5 84.5t-173.5 29.5q-103 0 -181 -36t-120.5 -101t-42.5 -148q0 -121 102.5 -188t284.5 -67q101 0 180 27zM347 331q11 54 47 84.5t90 30.5q53 0 87.5 -32t37.5 -83h-262zM572 360
q-8 27 -31 42t-58 15q-70 0 -94 -57h183zM279 643q-32 28 -32 73q0 48 33.5 78.5t85.5 30.5t84 -28t32 -73q0 -47 -34 -78t-86 -31q-51 0 -83 28zM573 643q-32 28 -32 73q0 47 33.5 78t85.5 31t84 -28t32 -73q0 -48 -33.5 -78.5t-86.5 -30.5q-51 0 -83 28zM428.5 664.5
q25.5 23.5 25.5 59.5q0 34 -24 54.5t-64 20.5t-65.5 -23t-25.5 -60q0 -34 23.5 -54.5t63.5 -20.5q41 0 66.5 23.5zM722.5 664q25.5 23 25.5 60q0 34 -24 54.5t-64 20.5t-65.5 -23.5t-25.5 -59.5q0 -34 23.5 -54.5t63.5 -20.5q41 0 66.5 23z" />
    <glyph glyph-name="igrave" unicode="&#xec;" horiz-adv-x="360" 
d="M314 0h-269l111 570h270zM182 540l-99 -510h205l100 510h-206zM459 620h-24l-317 53l38 147h77l251 -139zM152 693l285 -47h2l11 23l-225 125h-47z" />
    <glyph glyph-name="iacute" unicode="&#xed;" horiz-adv-x="360" 
d="M314 0h-269l111 570h270zM182 540l-99 -510h205l100 510h-206zM153 620h-28l-2 62l300 138h74l-10 -152zM151 666l1 -20l309 44l6 104h-38z" />
    <glyph glyph-name="icircumflex" unicode="&#xee;" horiz-adv-x="360" 
d="M314 0h-269l111 570h270zM182 540l-99 -510h205l100 510h-206zM440 790l141 -150h-201l-55 63l-82 -63h-222l199 150h220zM233 666l84 65h20l57 -65h125l-91 98h-198l-131 -98h134z" />
    <glyph glyph-name="idieresis" unicode="&#xef;" horiz-adv-x="360" 
d="M314 0h-269l111 570h270zM182 540l-99 -510h205l100 510h-206zM84 643q-32 28 -32 73q0 48 33.5 78.5t85.5 30.5t84 -28t32 -73q0 -47 -34 -78t-86 -31q-51 0 -83 28zM378 643q-32 28 -32 73q0 47 33.5 78t85.5 31t84 -28t32 -73q0 -48 -33.5 -78.5t-86.5 -30.5
q-51 0 -83 28zM233.5 664.5q25.5 23.5 25.5 59.5q0 34 -24 54.5t-64 20.5t-65.5 -23t-25.5 -60q0 -34 23.5 -54.5t63.5 -20.5q41 0 66.5 23.5zM527.5 664q25.5 23 25.5 60q0 34 -24 54.5t-64 20.5t-65.5 -23.5t-25.5 -59.5q0 -34 23.5 -54.5t63.5 -20.5q41 0 66.5 23z" />
    <glyph glyph-name="eth" unicode="&#xf0;" horiz-adv-x="870" 
d="M272.5 12.5q-85.5 27.5 -132.5 77.5t-47 116q0 60 36.5 105t105.5 69t164 24q74 0 137.5 -16.5t98.5 -43.5q-13 51 -63.5 87.5t-138.5 51.5l-47 8l-24 -55l-105 13l25 56l-108 17l85 202l112 -17l26 59l105 -14l-26 -60l41 -8q184 -36 275 -117.5t91 -225.5
q0 -176 -107.5 -266t-304.5 -90q-113 0 -198.5 27.5zM753.5 97q97.5 82 97.5 244q0 136 -90 212t-289 108l-43 7l25 59l-37 5l-26 -59l-112 17l-61 -144l110 -17l-25 -56l39 -5l24 56l72 -12q112 -18 171 -73t59 -137h-25q-31 34 -95.5 53t-148.5 19q-130 0 -202 -45.5
t-72 -122.5q0 -57 42.5 -100.5t121 -67t182.5 -23.5q185 0 282.5 82zM384.5 160.5q-42.5 25.5 -42.5 64.5q0 45 37.5 69.5t103.5 24.5q64 0 106.5 -25.5t42.5 -64.5q0 -45 -37.5 -69.5t-103.5 -24.5q-64 0 -106.5 25.5zM572 181.5q28 16.5 28 47.5q0 26 -33 43t-84 17
q-54 0 -81.5 -16.5t-27.5 -47.5q0 -25 33.5 -42.5t83.5 -17.5q53 0 81 16.5z" />
    <glyph glyph-name="ntilde" unicode="&#xf1;" horiz-adv-x="810" 
d="M776.5 536q55.5 -49 55.5 -138q0 -33 -7 -65l-66 -333h-270l58 299q3 14 3 26q0 31 -16 47.5t-47 16.5q-26 0 -52.5 -13.5t-43.5 -34.5l-66 -341h-270l111 570h269l-12 -62q35 35 87.5 56t107.5 21q103 0 158.5 -49zM793 339q6 32 6 60q0 75 -46 115.5t-135 40.5
q-58 0 -113.5 -26.5t-88.5 -68.5h-34l15 80h-205l-99 -510h206l62 323q19 28 55 47t71 19q45 0 69.5 -25.5t24.5 -68.5q0 -15 -3 -32l-51 -263h206zM586 640q-25 10 -47 26q-22 15 -33 15q-7 0 -11 -4.5t-6 -15.5l-5 -26h-198l13 68q8 44 38 68t80 24q33 0 58 -10t51 -27
q20 -14 36 -14q15 0 18 16l6 30h199l-14 -71q-9 -46 -37.5 -67.5t-86.5 -21.5q-36 0 -61 10zM714.5 671.5q20.5 15.5 28.5 53.5l8 39h-141l-2 -11q-6 -35 -44 -35q-21 0 -54 21q-23 14 -44 22t-49 8q-40 0 -60.5 -17t-28.5 -53l-8 -38h140l2 10q8 36 42 36q22 0 52 -21
q20 -14 40 -22t51 -8q47 0 67.5 15.5z" />
    <glyph glyph-name="ograve" unicode="&#xf2;" horiz-adv-x="880" 
d="M285.5 20q-90.5 35 -140 99t-49.5 148q0 93 50.5 165.5t141 112.5t208.5 40q119 0 210 -35t140.5 -98.5t49.5 -147.5q0 -94 -50.5 -166t-141.5 -112.5t-209 -40.5q-119 0 -209.5 35zM688.5 51.5q83.5 36.5 129.5 102t46 150.5q0 75 -45.5 132t-129 88t-193.5 31
q-109 0 -192.5 -36t-129.5 -101.5t-46 -150.5q0 -76 45 -133t128.5 -88t193.5 -31t193.5 36.5zM385.5 181.5q-40.5 35.5 -40.5 93.5q0 42 19.5 76t54.5 53.5t79 19.5q67 0 108 -35.5t41 -92.5q0 -66 -43 -108t-110 -42q-68 0 -108.5 35.5zM582 209q33 33 33 87
q0 45 -32 71.5t-85 26.5q-54 0 -87.5 -33.5t-33.5 -85.5q0 -46 31.5 -72.5t85.5 -26.5q55 0 88 33zM699 620h-24l-317 53l38 147h77l251 -139zM392 693l285 -47h2l11 23l-225 125h-47z" />
    <glyph glyph-name="oacute" unicode="&#xf3;" horiz-adv-x="880" 
d="M285.5 20q-90.5 35 -140 99t-49.5 148q0 93 50.5 165.5t141 112.5t208.5 40q119 0 210 -35t140.5 -98.5t49.5 -147.5q0 -94 -50.5 -166t-141.5 -112.5t-209 -40.5q-119 0 -209.5 35zM688.5 51.5q83.5 36.5 129.5 102t46 150.5q0 75 -45.5 132t-129 88t-193.5 31
q-109 0 -192.5 -36t-129.5 -101.5t-46 -150.5q0 -76 45 -133t128.5 -88t193.5 -31t193.5 36.5zM385.5 181.5q-40.5 35.5 -40.5 93.5q0 42 19.5 76t54.5 53.5t79 19.5q67 0 108 -35.5t41 -92.5q0 -66 -43 -108t-110 -42q-68 0 -108.5 35.5zM582 209q33 33 33 87
q0 45 -32 71.5t-85 26.5q-54 0 -87.5 -33.5t-33.5 -85.5q0 -46 31.5 -72.5t85.5 -26.5q55 0 88 33zM373 620h-28l-2 62l300 138h74l-10 -152zM371 666l1 -20l309 44l6 104h-38z" />
    <glyph glyph-name="ocircumflex" unicode="&#xf4;" horiz-adv-x="880" 
d="M285.5 20q-90.5 35 -140 99t-49.5 148q0 93 50.5 165.5t141 112.5t208.5 40q119 0 210 -35t140.5 -98.5t49.5 -147.5q0 -94 -50.5 -166t-141.5 -112.5t-209 -40.5q-119 0 -209.5 35zM688.5 51.5q83.5 36.5 129.5 102t46 150.5q0 75 -45.5 132t-129 88t-193.5 31
q-109 0 -192.5 -36t-129.5 -101.5t-46 -150.5q0 -76 45 -133t128.5 -88t193.5 -31t193.5 36.5zM385.5 181.5q-40.5 35.5 -40.5 93.5q0 42 19.5 76t54.5 53.5t79 19.5q67 0 108 -35.5t41 -92.5q0 -66 -43 -108t-110 -42q-68 0 -108.5 35.5zM582 209q33 33 33 87
q0 45 -32 71.5t-85 26.5q-54 0 -87.5 -33.5t-33.5 -85.5q0 -46 31.5 -72.5t85.5 -26.5q55 0 88 33zM665 790l141 -150h-201l-55 63l-82 -63h-222l199 150h220zM458 666l84 65h20l57 -65h125l-91 98h-198l-131 -98h134z" />
    <glyph glyph-name="otilde" unicode="&#xf5;" horiz-adv-x="880" 
d="M285.5 20q-90.5 35 -140 99t-49.5 148q0 93 50.5 165.5t141 112.5t208.5 40q119 0 210 -35t140.5 -98.5t49.5 -147.5q0 -94 -50.5 -166t-141.5 -112.5t-209 -40.5q-119 0 -209.5 35zM688.5 51.5q83.5 36.5 129.5 102t46 150.5q0 75 -45.5 132t-129 88t-193.5 31
q-109 0 -192.5 -36t-129.5 -101.5t-46 -150.5q0 -76 45 -133t128.5 -88t193.5 -31t193.5 36.5zM385.5 181.5q-40.5 35.5 -40.5 93.5q0 42 19.5 76t54.5 53.5t79 19.5q67 0 108 -35.5t41 -92.5q0 -66 -43 -108t-110 -42q-68 0 -108.5 35.5zM582 209q33 33 33 87
q0 45 -32 71.5t-85 26.5q-54 0 -87.5 -33.5t-33.5 -85.5q0 -46 31.5 -72.5t85.5 -26.5q55 0 88 33zM591 640q-25 10 -47 26q-22 15 -33 15q-7 0 -11 -4.5t-6 -15.5l-5 -26h-198l13 68q8 44 38 68t80 24q33 0 58 -10t51 -27q20 -14 36 -14q15 0 18 16l6 30h199l-14 -71
q-9 -46 -37.5 -67.5t-86.5 -21.5q-36 0 -61 10zM719.5 671.5q20.5 15.5 28.5 53.5l8 39h-141l-2 -11q-6 -35 -44 -35q-21 0 -54 21q-23 14 -44 22t-49 8q-40 0 -60.5 -17t-28.5 -53l-8 -38h140l2 10q8 36 42 36q22 0 52 -21q20 -14 40 -22t51 -8q47 0 67.5 15.5z" />
    <glyph glyph-name="odieresis" unicode="&#xf6;" horiz-adv-x="880" 
d="M285.5 20q-90.5 35 -140 99t-49.5 148q0 93 50.5 165.5t141 112.5t208.5 40q119 0 210 -35t140.5 -98.5t49.5 -147.5q0 -94 -50.5 -166t-141.5 -112.5t-209 -40.5q-119 0 -209.5 35zM688.5 51.5q83.5 36.5 129.5 102t46 150.5q0 75 -45.5 132t-129 88t-193.5 31
q-109 0 -192.5 -36t-129.5 -101.5t-46 -150.5q0 -76 45 -133t128.5 -88t193.5 -31t193.5 36.5zM385.5 181.5q-40.5 35.5 -40.5 93.5q0 42 19.5 76t54.5 53.5t79 19.5q67 0 108 -35.5t41 -92.5q0 -66 -43 -108t-110 -42q-68 0 -108.5 35.5zM582 209q33 33 33 87
q0 45 -32 71.5t-85 26.5q-54 0 -87.5 -33.5t-33.5 -85.5q0 -46 31.5 -72.5t85.5 -26.5q55 0 88 33zM309 643q-32 28 -32 73q0 48 33.5 78.5t85.5 30.5t84 -28t32 -73q0 -47 -34 -78t-86 -31q-51 0 -83 28zM603 643q-32 28 -32 73q0 47 33.5 78t85.5 31t84 -28t32 -73
q0 -48 -33.5 -78.5t-86.5 -30.5q-51 0 -83 28zM458.5 664.5q25.5 23.5 25.5 59.5q0 34 -24 54.5t-64 20.5t-65.5 -23t-25.5 -60q0 -34 23.5 -54.5t63.5 -20.5q41 0 66.5 23.5zM752.5 664q25.5 23 25.5 60q0 34 -24 54.5t-64 20.5t-65.5 -23.5t-25.5 -59.5q0 -34 23.5 -54.5
t63.5 -20.5q41 0 66.5 23z" />
    <glyph glyph-name="divide" unicode="&#xf7;" horiz-adv-x="660" 
d="M305 453q-35 30 -35 79q0 48 35 78t91 30t91 -30t35 -78q0 -49 -35 -79t-91 -30t-91 30zM465 474.5q25 21.5 25 57.5t-25 57t-69 21t-69 -21t-25 -57t25 -57.5t69 -21.5t69 21.5zM665 244h-540v147h540v-147zM157 361v-87h476v87h-476zM305 25q-35 30 -35 78q0 49 35 79
t91 30t91 -30t35 -79q0 -48 -35 -78t-91 -30t-91 30zM465 46q25 21 25 57t-25 57.5t-69 21.5t-69 -21.5t-25 -57.5t25 -57t69 -21t69 21z" />
    <glyph glyph-name="oslash" unicode="&#xf8;" horiz-adv-x="880" 
d="M243 39l-53 -40h-146l123 95q-71 73 -71 173q0 93 50 165.5t141 112.5t209 40q150 0 253 -54l53 40h146l-123 -95q71 -73 71 -172q0 -94 -50 -166.5t-141 -112.5t-210 -40q-146 0 -252 54zM688 51.5q84 36.5 130 102t46 150.5q0 53 -21.5 95.5t-65.5 77.5l81 64h-44
l-64 -46q-49 30 -114 45t-140 15q-110 0 -193.5 -36t-129 -101.5t-45.5 -150.5q0 -105 87 -174l-81 -64h44l63 46q49 -29 114.5 -44.5t139.5 -15.5q109 0 193 36.5zM366 204q-21 32 -21 71q0 64 42.5 106.5t110.5 42.5q33 0 62 -10t47 -28zM553 384q-27 10 -55 10
q-54 0 -87.5 -33.5t-33.5 -85.5q0 -8 2 -22zM432 156q-29 10 -48 27l243 184q19 -35 19 -71q0 -67 -42.5 -108.5t-109.5 -41.5q-33 0 -62 10zM581 208.5q33 32.5 33 87.5q0 7 -2 21l-173 -131q27 -10 55 -10q54 0 87 32.5z" />
    <glyph glyph-name="ugrave" unicode="&#xf9;" horiz-adv-x="810" 
d="M596 570h270l-111 -570h-269l12 62q-35 -35 -87.5 -56t-107.5 -21q-103 0 -158.5 49t-55.5 138q0 33 7 65l66 333h270l-58 -299q-3 -13 -3 -26q0 -31 16 -47.5t47 -16.5q26 0 52.5 13.5t43.5 34.5zM729 30l99 510h-206l-62 -323q-19 -28 -55 -47t-71 -19
q-45 0 -69.5 25.5t-24.5 68.5q0 16 3 32l51 263h-206l-60 -309q-6 -31 -6 -60q0 -75 46 -115.5t135 -40.5q58 0 113.5 26.5t88.5 68.5h34l-15 -80h205zM674 620h-24l-317 53l38 147h77l251 -139zM367 693l285 -47h2l11 23l-225 125h-47z" />
    <glyph glyph-name="uacute" unicode="&#xfa;" horiz-adv-x="810" 
d="M596 570h270l-111 -570h-269l12 62q-35 -35 -87.5 -56t-107.5 -21q-103 0 -158.5 49t-55.5 138q0 33 7 65l66 333h270l-58 -299q-3 -13 -3 -26q0 -31 16 -47.5t47 -16.5q26 0 52.5 13.5t43.5 34.5zM729 30l99 510h-206l-62 -323q-19 -28 -55 -47t-71 -19
q-45 0 -69.5 25.5t-24.5 68.5q0 16 3 32l51 263h-206l-60 -309q-6 -31 -6 -60q0 -75 46 -115.5t135 -40.5q58 0 113.5 26.5t88.5 68.5h34l-15 -80h205zM368 620h-28l-2 62l300 138h74l-10 -152zM366 666l1 -20l309 44l6 104h-38z" />
    <glyph glyph-name="ucircumflex" unicode="&#xfb;" horiz-adv-x="810" 
d="M596 570h270l-111 -570h-269l12 62q-35 -35 -87.5 -56t-107.5 -21q-103 0 -158.5 49t-55.5 138q0 33 7 65l66 333h270l-58 -299q-3 -13 -3 -26q0 -31 16 -47.5t47 -16.5q26 0 52.5 13.5t43.5 34.5zM729 30l99 510h-206l-62 -323q-19 -28 -55 -47t-71 -19
q-45 0 -69.5 25.5t-24.5 68.5q0 16 3 32l51 263h-206l-60 -309q-6 -31 -6 -60q0 -75 46 -115.5t135 -40.5q58 0 113.5 26.5t88.5 68.5h34l-15 -80h205zM650 790l141 -150h-201l-55 63l-82 -63h-222l199 150h220zM443 666l84 65h20l57 -65h125l-91 98h-198l-131 -98h134z" />
    <glyph glyph-name="udieresis" unicode="&#xfc;" horiz-adv-x="810" 
d="M596 570h270l-111 -570h-269l12 62q-35 -35 -87.5 -56t-107.5 -21q-103 0 -158.5 49t-55.5 138q0 33 7 65l66 333h270l-58 -299q-3 -13 -3 -26q0 -31 16 -47.5t47 -16.5q26 0 52.5 13.5t43.5 34.5zM729 30l99 510h-206l-62 -323q-19 -28 -55 -47t-71 -19
q-45 0 -69.5 25.5t-24.5 68.5q0 16 3 32l51 263h-206l-60 -309q-6 -31 -6 -60q0 -75 46 -115.5t135 -40.5q58 0 113.5 26.5t88.5 68.5h34l-15 -80h205zM294 643q-32 28 -32 73q0 48 33.5 78.5t85.5 30.5t84 -28t32 -73q0 -47 -34 -78t-86 -31q-51 0 -83 28zM588 643
q-32 28 -32 73q0 47 33.5 78t85.5 31t84 -28t32 -73q0 -48 -33.5 -78.5t-86.5 -30.5q-51 0 -83 28zM443.5 664.5q25.5 23.5 25.5 59.5q0 34 -24 54.5t-64 20.5t-65.5 -23t-25.5 -60q0 -34 23.5 -54.5t63.5 -20.5q41 0 66.5 23.5zM737.5 664q25.5 23 25.5 60q0 34 -24 54.5
t-64 20.5t-65.5 -23.5t-25.5 -59.5q0 -34 23.5 -54.5t63.5 -20.5q41 0 66.5 23z" />
    <glyph glyph-name="yacute" unicode="&#xfd;" horiz-adv-x="770" 
d="M434 349l141 221h304l-508 -760h-302l190 285l-181 475h277zM127 -160h226l468 700h-228l-147 -231h-30l-83 231h-209l171 -449zM316 620h-28l-2 62l300 138h74l-10 -152zM314 666l1 -20l309 44l6 104h-38z" />
    <glyph glyph-name="thorn" unicode="&#xfe;" horiz-adv-x="849" 
d="M800 518q68 -67 68 -185q0 -80 -32.5 -160t-103 -134t-178.5 -54q-58 0 -119.5 23t-96.5 60l-50 -258h-270l177 910h270l-39 -199q35 29 85.5 46.5t103.5 17.5q117 0 185 -67zM715.5 63q63.5 48 92 121t28.5 149q0 106 -58.5 164t-162.5 58q-61 0 -116 -24.5t-82 -62.5
h-33l43 222h-206l-165 -850h206l53 271h25q34 -45 93 -70.5t121 -25.5q98 0 161.5 48zM582 381q36 -31 36 -86q0 -62 -40.5 -103t-105.5 -41q-40 0 -80 18t-58 46l29 147q21 22 56 36t68 14q59 0 95 -31zM554.5 213.5q31.5 32.5 31.5 81.5q0 43 -26.5 65t-72.5 22
q-25 0 -51 -9.5t-44 -24.5l-24 -126q17 -18 46.5 -29.5t57.5 -11.5q51 0 82.5 32.5z" />
    <glyph glyph-name="ydieresis" unicode="&#xff;" horiz-adv-x="770" 
d="M434 349l141 221h304l-508 -760h-302l190 285l-181 475h277zM127 -160h226l468 700h-228l-147 -231h-30l-83 231h-209l171 -449zM252 643q-32 28 -32 73q0 48 33.5 78.5t85.5 30.5t84 -28t32 -73q0 -47 -34 -78t-86 -31q-51 0 -83 28zM546 643q-32 28 -32 73
q0 47 33.5 78t85.5 31t84 -28t32 -73q0 -48 -33.5 -78.5t-86.5 -30.5q-51 0 -83 28zM401.5 664.5q25.5 23.5 25.5 59.5q0 34 -24 54.5t-64 20.5t-65.5 -23t-25.5 -60q0 -34 23.5 -54.5t63.5 -20.5q41 0 66.5 23.5zM695.5 664q25.5 23 25.5 60q0 34 -24 54.5t-64 20.5
t-65.5 -23.5t-25.5 -59.5q0 -34 23.5 -54.5t63.5 -20.5q41 0 66.5 23z" />
    <glyph glyph-name="Amacron" unicode="&#x100;" horiz-adv-x="980" 
d="M471 700h339l190 -700h-291l-30 124h-271l-79 -124h-319zM390 154h315l30 -124h223l-172 640h-297l-421 -640h243zM441 235l153 240h31l59 -240h-243zM603 430l-106 -165h147zM867 785h-440l26 135h440zM477 894l-16 -83h382l16 83h-382z" />
    <glyph glyph-name="amacron" unicode="&#x101;" 
d="M638.5 559.5q83.5 -25.5 131.5 -76.5t48 -125q0 -19 -5 -47l-61 -311h-271l11 53q-38 -29 -90.5 -48.5t-114.5 -19.5q-100 0 -158 41.5t-58 111.5q0 90 67.5 132t218.5 49l22 1q79 4 114 7.5t45.5 9t10.5 15.5q0 28 -128 28q-160 0 -277 -45l41 211q28 13 101 26t162 13
q107 0 190.5 -25.5zM781 316q4 20 4 42q0 99 -93.5 148t-243.5 49q-77 0 -139 -10t-96 -23l-27 -137q108 25 235 25q76 0 118 -12.5t42 -45.5q0 -22 -15.5 -33.5t-57 -18t-127.5 -10.5l-22 -1q-93 -4 -149 -20t-81.5 -48t-25.5 -83q0 -57 48.5 -90t135.5 -33q63 0 121 24
t90 62h35l-14 -71h206zM457 256q69 6 111 28l-19 -102q-19 -16 -59.5 -31t-90.5 -15q-35 0 -57 13t-22 39q0 29 26.5 44.5t81.5 20.5zM528 240q-21 -7 -69 -12l-29 -3q-44 -5 -62 -13t-18 -24q0 -11 13 -17.5t36 -6.5q36 0 67 9t53 23zM727 645h-440l26 135h440zM337 754
l-16 -83h382l16 83h-382z" />
    <glyph glyph-name="Abreve" unicode="&#x102;" horiz-adv-x="980" 
d="M471 700h339l190 -700h-291l-30 124h-271l-79 -124h-319zM390 154h315l30 -124h223l-172 640h-297l-421 -640h243zM441 235l153 240h31l59 -240h-243zM603 430l-106 -165h147zM484 815.5q-59 40.5 -62 114.5h167q5 -24 19 -35t46 -11q58 0 71 46h167q-16 -79 -73 -117
t-165 -38q-111 0 -170 40.5zM790 826q48 25 69 78h-114q-21 -46 -91 -46q-34 0 -56 12.5t-27 33.5h-117q8 -49 58.5 -76t141.5 -27q88 0 136 25z" />
    <glyph glyph-name="abreve" unicode="&#x103;" 
d="M638.5 559.5q83.5 -25.5 131.5 -76.5t48 -125q0 -19 -5 -47l-61 -311h-271l11 53q-38 -29 -90.5 -48.5t-114.5 -19.5q-100 0 -158 41.5t-58 111.5q0 90 67.5 132t218.5 49l22 1q79 4 114 7.5t45.5 9t10.5 15.5q0 28 -128 28q-160 0 -277 -45l41 211q28 13 101 26t162 13
q107 0 190.5 -25.5zM781 316q4 20 4 42q0 99 -93.5 148t-243.5 49q-77 0 -139 -10t-96 -23l-27 -137q108 25 235 25q76 0 118 -12.5t42 -45.5q0 -22 -15.5 -33.5t-57 -18t-127.5 -10.5l-22 -1q-93 -4 -149 -20t-81.5 -48t-25.5 -83q0 -57 48.5 -90t135.5 -33q63 0 121 24
t90 62h35l-14 -71h206zM457 256q69 6 111 28l-19 -102q-19 -16 -59.5 -31t-90.5 -15q-35 0 -57 13t-22 39q0 29 26.5 44.5t81.5 20.5zM528 240q-21 -7 -69 -12l-29 -3q-44 -5 -62 -13t-18 -24q0 -11 13 -17.5t36 -6.5q36 0 67 9t53 23zM344 675.5q-59 40.5 -62 114.5h167
q5 -24 19 -35t46 -11q58 0 71 46h167q-16 -79 -73 -117t-165 -38q-111 0 -170 40.5zM650 686q48 25 69 78h-114q-21 -46 -91 -46q-34 0 -56 12.5t-27 33.5h-117q8 -49 58.5 -76t141.5 -27q88 0 136 25z" />
    <glyph glyph-name="Aogonek" unicode="&#x104;" horiz-adv-x="980" 
d="M618.5 -206q-36.5 24 -36.5 67q0 37 28.5 73.5t94.5 81.5l-26 108h-271l-79 -124h-319l461 700h339l190 -700h-157q-58 -35 -87 -57.5t-29 -35.5q0 -8 7 -11t27 -3q36 0 79 11l-24 -123q-49 -11 -96 -11q-65 0 -101.5 24zM792 -197l13 70q-27 -5 -44 -5q-64 0 -64 37
q0 22 30.5 49t108.5 76h122l-172 640h-297l-421 -640h243l79 124h315l36 -146q-62 -37 -96.5 -75t-34.5 -72q0 -31 28.5 -48t81.5 -17q37 0 72 7zM684 235h-243l153 240h31zM603 430l-106 -165h147z" />
    <glyph glyph-name="aogonek" unicode="&#x105;" 
d="M532.5 -206q-36.5 24 -36.5 67q0 72 97 139h-112l11 53q-38 -29 -90.5 -48.5t-114.5 -19.5q-100 0 -158 41.5t-58 111.5q0 90 67.5 132t218.5 49l22 1q79 4 114 7.5t45.5 9t10.5 15.5q0 28 -128 28q-160 0 -277 -45l41 211q28 13 101 26t162 13q107 0 190.5 -25.5
t131.5 -76.5t48 -125q0 -19 -5 -47l-61 -311q-56 -36 -83.5 -58t-27.5 -35q0 -8 7 -11t27 -3q36 0 79 11l-24 -123q-49 -11 -96 -11q-65 0 -101.5 24zM706 -197l13 70q-27 -5 -44 -5q-64 0 -64 37q0 22 26 46t86 63l58 302q4 20 4 41q0 99 -93.5 148.5t-243.5 49.5
q-77 0 -139 -10t-96 -23l-27 -137q108 25 235 25q76 0 118 -12.5t42 -45.5q0 -22 -15.5 -33.5t-57 -18t-127.5 -10.5l-22 -1q-93 -4 -149 -20t-81.5 -48t-25.5 -83q0 -57 48.5 -90t135.5 -33q63 0 121 24t90 62h35l-14 -71h134l-5 -27q-58 -34 -91 -71t-33 -71
q0 -31 28.5 -48t81.5 -17q37 0 72 7zM342 149q-22 13 -22 39q0 29 26.5 44.5t81.5 20.5l29 3q69 6 111 28l-19 -102q-19 -16 -59.5 -31t-90.5 -15q-35 0 -57 13zM466 173q31 9 53 23l9 44q-21 -7 -69 -12l-29 -3q-44 -5 -62 -13t-18 -24q0 -11 13 -17.5t36 -6.5q36 0 67 9z
" />
    <glyph glyph-name="Cacute" unicode="&#x106;" horiz-adv-x="940" 
d="M356.5 24.5q-108.5 44.5 -168 125t-59.5 186.5q0 110 60.5 197.5t168 137t242.5 49.5q90 0 170 -16.5t138 -40t89 -46.5l-45 -229q-47 43 -136 81.5t-195 38.5q-95 0 -153 -44.5t-58 -118.5q0 -72 60 -112.5t164 -40.5q73 0 136 17.5t122 46.5l-45 -230
q-28 -17 -94.5 -31.5t-146.5 -14.5q-141 0 -249.5 44.5zM725.5 20.5q59.5 10.5 92.5 24.5l31 159q-42 -18 -97.5 -30t-117.5 -12q-117 0 -186.5 49t-69.5 134q0 58 30.5 101.5t85.5 67.5t127 24q91 0 173 -28.5t137 -66.5l31 162q-56 33 -151.5 59t-210.5 26
q-126 0 -226 -45.5t-156.5 -126.5t-56.5 -182q0 -98 55.5 -171.5t156 -114t233.5 -40.5q60 0 119.5 10.5zM483 760h-28l-2 62l300 138h74l-10 -152zM481 806l1 -20l309 44l6 104h-38z" />
    <glyph glyph-name="cacute" unicode="&#x107;" horiz-adv-x="745" 
d="M284 19.5q-91 34.5 -139.5 98t-48.5 149.5q0 93 50 165.5t140 112.5t208 40q100 0 184.5 -23t122.5 -50l-40 -206q-32 33 -99 58t-131 25q-73 0 -114.5 -30t-41.5 -83q0 -45 41 -70t115 -25q59 0 105 10t88 27l-39 -197q-19 -12 -73.5 -24t-114.5 -12q-122 0 -213 34.5z
M585.5 22.5q42.5 7.5 70.5 17.5l26 135q-27 -10 -66.5 -17t-84.5 -7q-87 0 -137.5 33t-50.5 92q0 65 51 104t137 39q59 0 114 -17t94 -41l27 138q-45 22 -117 39t-155 17q-109 0 -192 -36t-128.5 -101.5t-45.5 -150.5q0 -77 44.5 -134t128 -87.5t196.5 -30.5q46 0 88.5 7.5z
M353 620h-28l-2 62l300 138h74l-10 -152zM351 666l1 -20l309 44l6 104h-38z" />
    <glyph glyph-name="Ccircumflex" unicode="&#x108;" horiz-adv-x="940" 
d="M356.5 24.5q-108.5 44.5 -168 125t-59.5 186.5q0 110 60.5 197.5t168 137t242.5 49.5q90 0 170 -16.5t138 -40t89 -46.5l-45 -229q-47 43 -136 81.5t-195 38.5q-95 0 -153 -44.5t-58 -118.5q0 -72 60 -112.5t164 -40.5q73 0 136 17.5t122 46.5l-45 -230
q-28 -17 -94.5 -31.5t-146.5 -14.5q-141 0 -249.5 44.5zM725.5 20.5q59.5 10.5 92.5 24.5l31 159q-42 -18 -97.5 -30t-117.5 -12q-117 0 -186.5 49t-69.5 134q0 58 30.5 101.5t85.5 67.5t127 24q91 0 173 -28.5t137 -66.5l31 162q-56 33 -151.5 59t-210.5 26
q-126 0 -226 -45.5t-156.5 -126.5t-56.5 -182q0 -98 55.5 -171.5t156 -114t233.5 -40.5q60 0 119.5 10.5zM775 930l141 -150h-201l-55 63l-82 -63h-222l199 150h220zM568 806l84 65h20l57 -65h125l-91 98h-198l-131 -98h134z" />
    <glyph glyph-name="ccircumflex" unicode="&#x109;" horiz-adv-x="745" 
d="M284 19.5q-91 34.5 -139.5 98t-48.5 149.5q0 93 50 165.5t140 112.5t208 40q100 0 184.5 -23t122.5 -50l-40 -206q-32 33 -99 58t-131 25q-73 0 -114.5 -30t-41.5 -83q0 -45 41 -70t115 -25q59 0 105 10t88 27l-39 -197q-19 -12 -73.5 -24t-114.5 -12q-122 0 -213 34.5z
M585.5 22.5q42.5 7.5 70.5 17.5l26 135q-27 -10 -66.5 -17t-84.5 -7q-87 0 -137.5 33t-50.5 92q0 65 51 104t137 39q59 0 114 -17t94 -41l27 138q-45 22 -117 39t-155 17q-109 0 -192 -36t-128.5 -101.5t-45.5 -150.5q0 -77 44.5 -134t128 -87.5t196.5 -30.5q46 0 88.5 7.5z
M645 790l141 -150h-201l-55 63l-82 -63h-222l199 150h220zM438 666l84 65h20l57 -65h125l-91 98h-198l-131 -98h134z" />
    <glyph glyph-name="Cdotaccent" unicode="&#x10a;" horiz-adv-x="940" 
d="M356.5 24.5q-108.5 44.5 -168 125t-59.5 186.5q0 110 60.5 197.5t168 137t242.5 49.5q90 0 170 -16.5t138 -40t89 -46.5l-45 -229q-47 43 -136 81.5t-195 38.5q-95 0 -153 -44.5t-58 -118.5q0 -72 60 -112.5t164 -40.5q73 0 136 17.5t122 46.5l-45 -230
q-28 -17 -94.5 -31.5t-146.5 -14.5q-141 0 -249.5 44.5zM725.5 20.5q59.5 10.5 92.5 24.5l31 159q-42 -18 -97.5 -30t-117.5 -12q-117 0 -186.5 49t-69.5 134q0 58 30.5 101.5t85.5 67.5t127 24q91 0 173 -28.5t137 -66.5l31 162q-56 33 -151.5 59t-210.5 26
q-126 0 -226 -45.5t-156.5 -126.5t-56.5 -182q0 -98 55.5 -171.5t156 -114t233.5 -40.5q60 0 119.5 10.5zM545 794q-35 27 -35 72q0 48 35.5 77.5t95.5 29.5q58 0 93.5 -27t35.5 -71q0 -49 -35.5 -78.5t-95.5 -29.5q-59 0 -94 27zM714.5 815q27.5 22 27.5 60q0 33 -27 52.5
t-74 19.5q-48 0 -75.5 -22t-27.5 -59q0 -33 27 -53t74 -20q48 0 75.5 22z" />
    <glyph glyph-name="cdotaccent" unicode="&#x10b;" horiz-adv-x="745" 
d="M284 19.5q-91 34.5 -139.5 98t-48.5 149.5q0 93 50 165.5t140 112.5t208 40q100 0 184.5 -23t122.5 -50l-40 -206q-32 33 -99 58t-131 25q-73 0 -114.5 -30t-41.5 -83q0 -45 41 -70t115 -25q59 0 105 10t88 27l-39 -197q-19 -12 -73.5 -24t-114.5 -12q-122 0 -213 34.5z
M585.5 22.5q42.5 7.5 70.5 17.5l26 135q-27 -10 -66.5 -17t-84.5 -7q-87 0 -137.5 33t-50.5 92q0 65 51 104t137 39q59 0 114 -17t94 -41l27 138q-45 22 -117 39t-155 17q-109 0 -192 -36t-128.5 -101.5t-45.5 -150.5q0 -77 44.5 -134t128 -87.5t196.5 -30.5q46 0 88.5 7.5z
M415 654q-35 27 -35 72q0 48 35.5 77.5t95.5 29.5q58 0 93.5 -27t35.5 -71q0 -49 -35.5 -78.5t-95.5 -29.5q-59 0 -94 27zM584.5 675q27.5 22 27.5 60q0 33 -27 52.5t-74 19.5q-48 0 -75.5 -22t-27.5 -59q0 -33 27 -53t74 -20q48 0 75.5 22z" />
    <glyph glyph-name="Ccaron" unicode="&#x10c;" horiz-adv-x="940" 
d="M356.5 24.5q-108.5 44.5 -168 125t-59.5 186.5q0 110 60.5 197.5t168 137t242.5 49.5q90 0 170 -16.5t138 -40t89 -46.5l-45 -229q-47 43 -136 81.5t-195 38.5q-95 0 -153 -44.5t-58 -118.5q0 -72 60 -112.5t164 -40.5q73 0 136 17.5t122 46.5l-45 -230
q-28 -17 -94.5 -31.5t-146.5 -14.5q-141 0 -249.5 44.5zM725.5 20.5q59.5 10.5 92.5 24.5l31 159q-42 -18 -97.5 -30t-117.5 -12q-117 0 -186.5 49t-69.5 134q0 58 30.5 101.5t85.5 67.5t127 24q91 0 173 -28.5t137 -66.5l31 162q-56 33 -151.5 59t-210.5 26
q-126 0 -226 -45.5t-156.5 -126.5t-56.5 -182q0 -98 55.5 -171.5t156 -114t233.5 -40.5q60 0 119.5 10.5zM642 867l80 63h223l-198 -150h-221l-141 150h200zM538 806h199l130 98h-135l-82 -65h-20l-59 65h-124z" />
    <glyph glyph-name="ccaron" unicode="&#x10d;" horiz-adv-x="745" 
d="M284 19.5q-91 34.5 -139.5 98t-48.5 149.5q0 93 50 165.5t140 112.5t208 40q100 0 184.5 -23t122.5 -50l-40 -206q-32 33 -99 58t-131 25q-73 0 -114.5 -30t-41.5 -83q0 -45 41 -70t115 -25q59 0 105 10t88 27l-39 -197q-19 -12 -73.5 -24t-114.5 -12q-122 0 -213 34.5z
M585.5 22.5q42.5 7.5 70.5 17.5l26 135q-27 -10 -66.5 -17t-84.5 -7q-87 0 -137.5 33t-50.5 92q0 65 51 104t137 39q59 0 114 -17t94 -41l27 138q-45 22 -117 39t-155 17q-109 0 -192 -36t-128.5 -101.5t-45.5 -150.5q0 -77 44.5 -134t128 -87.5t196.5 -30.5q46 0 88.5 7.5z
M512 727l80 63h223l-198 -150h-221l-141 150h200zM408 666h199l130 98h-135l-82 -65h-20l-59 65h-124z" />
    <glyph glyph-name="Dcaron" unicode="&#x10e;" horiz-adv-x="1005" 
d="M75 0l136 700h359q130 0 231.5 -41t158 -115.5t56.5 -169.5q0 -110 -56 -195t-156 -132t-230 -47h-499zM574 30q121 0 214 43t144.5 121.5t51.5 179.5q0 87 -52 154t-146 104.5t-216 37.5h-333l-124 -640h461zM350 191l62 318h149q96 0 151 -38.5t55 -106.5
q0 -83 -50.5 -128t-143.5 -45h-223zM573 221q80 0 121 36.5t41 106.5q0 55 -45.5 85t-128.5 30h-122l-50 -258h184zM612 867l80 63h223l-198 -150h-221l-141 150h200zM508 806h199l130 98h-135l-82 -65h-20l-59 65h-124z" />
    <glyph glyph-name="dcaron" unicode="&#x10f;" horiz-adv-x="947" 
d="M162.5 49.5q-69.5 64.5 -69.5 186.5q0 77 32 157.5t103 136t180 55.5q60 0 119 -23.5t97 -61.5l42 220h163l-5 -26q-42 -23 -55 -89l-56 -283h146l-63 -322h-270l9 48q-34 -29 -83.5 -46t-101.5 -17q-118 0 -187.5 64.5zM761 345l27 139h54q48 0 71.5 14.5t33.5 41.5
q-21 -14 -49 -14q-40 0 -63 23t-23 64q0 49 33.5 78t81.5 29q60 0 93.5 -37.5t33.5 -109.5q0 -59 -28.5 -111.5t-78.5 -84.5t-110 -32h-76zM461.5 39q52.5 24 83.5 62h33l-14 -71h206l51 262h-146l62 319q9 48 35 79h-80l-44 -230h-31q-31 43 -89 69t-120 26
q-99 0 -162.5 -49.5t-92 -122.5t-28.5 -147q0 -109 60 -165t165 -56q59 0 111.5 24zM837 375q51 0 93.5 28t67 73.5t24.5 96.5q0 117 -95 117q-35 0 -59 -20t-24 -57q0 -57 54 -57q44 0 64 35h26q-3 -64 -38.5 -100.5t-107.5 -36.5h-28l-15 -79h38zM377.5 187
q-35.5 31 -35.5 83q0 64 40.5 104t105.5 40q37 0 76.5 -18t62.5 -44l-29 -145q-21 -22 -56.5 -36.5t-68.5 -14.5q-60 0 -95.5 31zM524 195.5q26 9.5 44 25.5l24 122q-20 18 -48.5 29.5t-55.5 11.5q-52 0 -83 -31.5t-31 -82.5q0 -39 26 -61.5t73 -22.5q25 0 51 9.5z" />
    <glyph glyph-name="Dcroat" unicode="&#x110;" horiz-adv-x="1000" 
d="M70 0l54 278h-58l28 140h57l55 282h359q130 0 231.5 -40.5t158 -114t56.5 -169.5q0 -110 -56 -195.5t-156.5 -133t-229.5 -47.5h-499zM569 30q121 0 214 43.5t144.5 122t51.5 180.5q0 87 -52 154t-146 103.5t-216 36.5h-333l-55 -282h-57l-16 -80h58l-54 -278h461z
M344 191l23 117h176l16 80h-177l24 121h150q100 0 153 -38.5t53 -108.5q0 -81 -52 -126t-145 -45h-221zM565 221q80 0 122.5 36.5t42.5 104.5q0 57 -43.5 87t-130.5 30h-123l-12 -61h176l-28 -140h-175l-11 -57h182z" />
    <glyph glyph-name="dcroat" unicode="&#x111;" horiz-adv-x="860" 
d="M892 616h90l-19 -97h-90l-101 -519h-270l10 51q-37 -30 -90 -48t-108 -18q-106 0 -168.5 59.5t-62.5 160.5q0 78 33.5 139.5t94 96t137.5 34.5q69 0 131 -24t99 -57l24 125h-198l19 97h198l21 104h271zM937 549l7 37h-90l21 104h-206l-21 -104h-198l-7 -37h198l-38 -195
h-30q-32 40 -96 65.5t-129 25.5q-69 0 -121.5 -30.5t-82 -85t-29.5 -124.5q0 -89 53 -139.5t146 -50.5q63 0 119.5 24t83.5 62h37l-14 -71h206l101 519h90zM362 282.5q29 20.5 77 20.5q43 0 85 -17.5t60 -34.5l-9 -47q-19 -20 -58 -33t-77 -13q-49 0 -78 18.5t-29 51.5
q0 34 29 54.5zM549 239q-23 15 -53.5 24.5t-56.5 9.5q-34 0 -54 -12.5t-20 -32.5q0 -19 19.5 -29.5t55.5 -10.5q28 0 58 8.5t47 22.5z" />
    <glyph glyph-name="Emacron" unicode="&#x112;" horiz-adv-x="770" 
d="M725 0h-650l137 700h630l-41 -207h-360l-14 -75h322l-28 -140h-322l-13 -71h379zM238 670l-125 -640h586l28 147h-379l25 131h322l16 80h-322l26 135h360l29 147h-566zM750 785h-440l26 135h440zM360 894l-16 -83h382l16 83h-382z" />
    <glyph glyph-name="emacron" unicode="&#x113;" horiz-adv-x="815" 
d="M292.5 18.5q-94.5 33.5 -145 97.5t-50.5 154q0 91 47 163t132.5 112t196.5 40q106 0 189 -33.5t129.5 -95t46.5 -142.5q0 -26 -6 -52h-451q12 -44 56.5 -61t125.5 -17q110 0 200 37l-39 -198q-23 -13 -80 -25.5t-128 -12.5q-129 0 -223.5 33.5zM696 42l27 136
q-70 -24 -160 -24q-104 0 -159.5 33.5t-59.5 103.5h461q1 7 1 23q0 72 -42 127t-117.5 84.5t-173.5 29.5q-103 0 -181 -36t-120.5 -101t-42.5 -148q0 -121 102.5 -188t284.5 -67q101 0 180 27zM347 331q11 54 47 84.5t90 30.5q53 0 87.5 -32t37.5 -83h-262zM572 360
q-8 27 -31 42t-58 15q-70 0 -94 -57h183zM717 645h-440l26 135h440zM327 754l-16 -83h382l16 83h-382z" />
    <glyph glyph-name="Ebreve" unicode="&#x114;" horiz-adv-x="770" 
d="M725 0h-650l137 700h630l-41 -207h-360l-14 -75h322l-28 -140h-322l-13 -71h379zM238 670l-125 -640h586l28 147h-379l25 131h322l16 80h-322l26 135h360l29 147h-566zM367 815.5q-59 40.5 -62 114.5h167q5 -24 19 -35t46 -11q58 0 71 46h167q-16 -79 -73 -117t-165 -38
q-111 0 -170 40.5zM673 826q48 25 69 78h-114q-21 -46 -91 -46q-34 0 -56 12.5t-27 33.5h-117q8 -49 58.5 -76t141.5 -27q88 0 136 25z" />
    <glyph glyph-name="ebreve" unicode="&#x115;" horiz-adv-x="815" 
d="M292.5 18.5q-94.5 33.5 -145 97.5t-50.5 154q0 91 47 163t132.5 112t196.5 40q106 0 189 -33.5t129.5 -95t46.5 -142.5q0 -26 -6 -52h-451q12 -44 56.5 -61t125.5 -17q110 0 200 37l-39 -198q-23 -13 -80 -25.5t-128 -12.5q-129 0 -223.5 33.5zM696 42l27 136
q-70 -24 -160 -24q-104 0 -159.5 33.5t-59.5 103.5h461q1 7 1 23q0 72 -42 127t-117.5 84.5t-173.5 29.5q-103 0 -181 -36t-120.5 -101t-42.5 -148q0 -121 102.5 -188t284.5 -67q101 0 180 27zM347 331q11 54 47 84.5t90 30.5q53 0 87.5 -32t37.5 -83h-262zM572 360
q-8 27 -31 42t-58 15q-70 0 -94 -57h183zM334 675.5q-59 40.5 -62 114.5h167q5 -24 19 -35t46 -11q58 0 71 46h167q-16 -79 -73 -117t-165 -38q-111 0 -170 40.5zM640 686q48 25 69 78h-114q-21 -46 -91 -46q-34 0 -56 12.5t-27 33.5h-117q8 -49 58.5 -76t141.5 -27
q88 0 136 25z" />
    <glyph glyph-name="Edotaccent" unicode="&#x116;" horiz-adv-x="770" 
d="M725 0h-650l137 700h630l-41 -207h-360l-14 -75h322l-28 -140h-322l-13 -71h379zM238 670l-125 -640h586l28 147h-379l25 131h322l16 80h-322l26 135h360l29 147h-566zM438 794q-35 27 -35 72q0 48 35.5 77.5t95.5 29.5q58 0 93.5 -27t35.5 -71q0 -49 -35.5 -78.5
t-95.5 -29.5q-59 0 -94 27zM607.5 815q27.5 22 27.5 60q0 33 -27 52.5t-74 19.5q-48 0 -75.5 -22t-27.5 -59q0 -33 27 -53t74 -20q48 0 75.5 22z" />
    <glyph glyph-name="edotaccent" unicode="&#x117;" horiz-adv-x="815" 
d="M292.5 18.5q-94.5 33.5 -145 97.5t-50.5 154q0 91 47 163t132.5 112t196.5 40q106 0 189 -33.5t129.5 -95t46.5 -142.5q0 -26 -6 -52h-451q12 -44 56.5 -61t125.5 -17q110 0 200 37l-39 -198q-23 -13 -80 -25.5t-128 -12.5q-129 0 -223.5 33.5zM696 42l27 136
q-70 -24 -160 -24q-104 0 -159.5 33.5t-59.5 103.5h461q1 7 1 23q0 72 -42 127t-117.5 84.5t-173.5 29.5q-103 0 -181 -36t-120.5 -101t-42.5 -148q0 -121 102.5 -188t284.5 -67q101 0 180 27zM347 331q11 54 47 84.5t90 30.5q53 0 87.5 -32t37.5 -83h-262zM572 360
q-8 27 -31 42t-58 15q-70 0 -94 -57h183zM405 654q-35 27 -35 72q0 48 35.5 77.5t95.5 29.5q58 0 93.5 -27t35.5 -71q0 -49 -35.5 -78.5t-95.5 -29.5q-59 0 -94 27zM574.5 675q27.5 22 27.5 60q0 33 -27 52.5t-74 19.5q-48 0 -75.5 -22t-27.5 -59q0 -33 27 -53t74 -20
q48 0 75.5 22z" />
    <glyph glyph-name="Eogonek" unicode="&#x118;" horiz-adv-x="770" 
d="M504.5 -206q-36.5 24 -36.5 67q0 71 98 139h-491l137 700h630l-41 -207h-360l-14 -75h322l-28 -140h-322l-13 -71h379l-40 -207q-57 -36 -84.5 -58t-27.5 -35q0 -8 7 -11t27 -3q36 0 79 11l-24 -123q-49 -11 -96 -11q-65 0 -101.5 24zM678 -197l13 70q-27 -5 -44 -5
q-64 0 -64 37q0 21 26 45.5t87 63.5l31 163h-379l25 131h322l16 80h-322l26 135h360l29 147h-566l-125 -640h513l-5 -27q-58 -34 -91.5 -71t-33.5 -71q0 -31 28.5 -48t81.5 -17q37 0 72 7z" />
    <glyph glyph-name="eogonek" unicode="&#x119;" horiz-adv-x="815" 
d="M335 -205q-38 25 -38 68q0 75 96 131q-141 21 -218.5 92.5t-77.5 183.5q0 91 47 163t132.5 112t196.5 40q106 0 189 -33.5t129.5 -95t46.5 -142.5q0 -26 -6 -52h-452q12 -44 57 -61t126 -17q103 0 200 38l-39 -201q-60 -21 -116 -34q-76 -18 -122 -38.5t-46 -38.5
q0 -17 34 -17q32 0 82 12l-24 -125q-52 -10 -96 -10q-63 0 -101 25zM508 -198l14 71q-21 -5 -48 -5q-29 0 -45.5 10t-16.5 29q0 62 194 106q44 10 91 29l26 136q-70 -24 -160 -24q-104 0 -159.5 33.5t-59.5 103.5h461q1 7 1 23q0 72 -42 127t-117.5 84.5t-173.5 29.5
q-103 0 -181 -36t-120.5 -101t-42.5 -148q0 -108 81 -173t228 -79v-28q-53 -27 -83 -60t-30 -67q0 -31 29.5 -49t81.5 -18q34 0 72 6zM347 331q11 54 47 84.5t90 30.5q53 0 87.5 -32t37.5 -83h-262zM572 360q-8 27 -31 42t-58 15q-71 0 -95 -57h184z" />
    <glyph glyph-name="Ecaron" unicode="&#x11a;" horiz-adv-x="770" 
d="M725 0h-650l137 700h630l-41 -207h-360l-14 -75h322l-28 -140h-322l-13 -71h379zM238 670l-125 -640h586l28 147h-379l25 131h322l16 80h-322l26 135h360l29 147h-566zM535 867l80 63h223l-198 -150h-221l-141 150h200zM431 806h199l130 98h-135l-82 -65h-20l-59 65h-124
z" />
    <glyph glyph-name="ecaron" unicode="&#x11b;" horiz-adv-x="815" 
d="M292.5 18.5q-94.5 33.5 -145 97.5t-50.5 154q0 91 47 163t132.5 112t196.5 40q106 0 189 -33.5t129.5 -95t46.5 -142.5q0 -26 -6 -52h-451q12 -44 56.5 -61t125.5 -17q110 0 200 37l-39 -198q-23 -13 -80 -25.5t-128 -12.5q-129 0 -223.5 33.5zM696 42l27 136
q-70 -24 -160 -24q-104 0 -159.5 33.5t-59.5 103.5h461q1 7 1 23q0 72 -42 127t-117.5 84.5t-173.5 29.5q-103 0 -181 -36t-120.5 -101t-42.5 -148q0 -121 102.5 -188t284.5 -67q101 0 180 27zM347 331q11 54 47 84.5t90 30.5q53 0 87.5 -32t37.5 -83h-262zM572 360
q-8 27 -31 42t-58 15q-70 0 -94 -57h183zM502 727l80 63h223l-198 -150h-221l-141 150h200zM398 666h199l130 98h-135l-82 -65h-20l-59 65h-124z" />
    <glyph glyph-name="Gcircumflex" unicode="&#x11c;" horiz-adv-x="1005" 
d="M368 23.5q-114 43.5 -176.5 125t-62.5 190.5q0 112 65.5 198.5t184.5 134.5t273 48q122 0 238.5 -29.5t180.5 -61.5l-40 -206q-55 30 -158 60t-216 30q-75 0 -131 -21t-85.5 -59t-29.5 -88q0 -46 30.5 -82t87 -56t132.5 -20q49 0 90.5 4.5t61.5 13.5l5 26h-244l32 165
h420l-69 -355q-41 -21 -130 -41t-194 -20q-151 0 -265 43.5zM803 25.5q78 15.5 126 34.5l60 306h-357l-20 -105h245l-15 -77q-64 -27 -181 -27q-84 0 -148 24t-99 66.5t-35 97.5q0 59 34 103.5t97 69.5t147 25q95 0 187 -22.5t163 -52.5l28 145q-67 30 -171 53.5t-212 23.5
q-146 0 -257.5 -44.5t-172.5 -124t-61 -182.5q0 -100 58 -174.5t165 -114.5t249 -40q92 0 170 15.5zM785 930l141 -150h-201l-55 63l-82 -63h-222l199 150h220zM578 806l84 65h20l57 -65h125l-91 98h-198l-131 -98h134z" />
    <glyph glyph-name="gcircumflex" unicode="&#x11d;" horiz-adv-x="850" 
d="M636 570h270l-91 -468q-30 -156 -129 -231.5t-273 -75.5q-113 0 -210.5 26.5t-140.5 57.5l41 214q60 -39 124 -64.5t145 -25.5q76 0 120.5 32.5t57.5 91.5q-31 -31 -83.5 -49t-108.5 -18q-75 0 -134.5 31t-93 86.5t-33.5 124.5q0 85 37 149t107 99t167 35q64 0 122 -23.5
t93 -61.5zM868 540h-206l-15 -81h-29q-30 42 -87.5 69t-122.5 27q-132 0 -205.5 -68.5t-73.5 -184.5q0 -61 29 -109.5t81 -75.5t119 -27q61 0 116.5 23.5t78.5 57.5h39l-9 -47q-15 -77 -66 -114t-145 -37q-65 0 -131.5 20.5t-113.5 48.5l-29 -150q50 -27 133.5 -47
t181.5 -20q163 0 252.5 68.5t118.5 214.5zM562.5 401.5q43.5 -19.5 63.5 -49.5l-15 -77q-19 -25 -58 -41t-81 -16q-57 0 -93.5 27.5t-36.5 72.5q0 48 35 75.5t96 27.5q46 0 89.5 -19.5zM592 345q-19 20 -52 33t-67 13q-48 0 -73.5 -19t-25.5 -54q0 -32 27 -51t71 -19
q33 0 62.5 11t46.5 29zM670 790l141 -150h-201l-55 63l-82 -63h-222l199 150h220zM463 666l84 65h20l57 -65h125l-91 98h-198l-131 -98h134z" />
    <glyph glyph-name="Gbreve" unicode="&#x11e;" horiz-adv-x="1005" 
d="M368 23.5q-114 43.5 -176.5 125t-62.5 190.5q0 112 65.5 198.5t184.5 134.5t273 48q122 0 238.5 -29.5t180.5 -61.5l-40 -206q-55 30 -158 60t-216 30q-75 0 -131 -21t-85.5 -59t-29.5 -88q0 -46 30.5 -82t87 -56t132.5 -20q49 0 90.5 4.5t61.5 13.5l5 26h-244l32 165
h420l-69 -355q-41 -21 -130 -41t-194 -20q-151 0 -265 43.5zM803 25.5q78 15.5 126 34.5l60 306h-357l-20 -105h245l-15 -77q-64 -27 -181 -27q-84 0 -148 24t-99 66.5t-35 97.5q0 59 34 103.5t97 69.5t147 25q95 0 187 -22.5t163 -52.5l28 145q-67 30 -171 53.5t-212 23.5
q-146 0 -257.5 -44.5t-172.5 -124t-61 -182.5q0 -100 58 -174.5t165 -114.5t249 -40q92 0 170 15.5zM484 815.5q-59 40.5 -62 114.5h167q5 -24 19 -35t46 -11q58 0 71 46h167q-16 -79 -73 -117t-165 -38q-111 0 -170 40.5zM790 826q48 25 69 78h-114q-21 -46 -91 -46
q-34 0 -56 12.5t-27 33.5h-117q8 -49 58.5 -76t141.5 -27q88 0 136 25z" />
    <glyph glyph-name="gbreve" unicode="&#x11f;" horiz-adv-x="850" 
d="M636 570h270l-91 -468q-30 -156 -129 -231.5t-273 -75.5q-113 0 -210.5 26.5t-140.5 57.5l41 214q60 -39 124 -64.5t145 -25.5q76 0 120.5 32.5t57.5 91.5q-31 -31 -83.5 -49t-108.5 -18q-75 0 -134.5 31t-93 86.5t-33.5 124.5q0 85 37 149t107 99t167 35q64 0 122 -23.5
t93 -61.5zM868 540h-206l-15 -81h-29q-30 42 -87.5 69t-122.5 27q-132 0 -205.5 -68.5t-73.5 -184.5q0 -61 29 -109.5t81 -75.5t119 -27q61 0 116.5 23.5t78.5 57.5h39l-9 -47q-15 -77 -66 -114t-145 -37q-65 0 -131.5 20.5t-113.5 48.5l-29 -150q50 -27 133.5 -47
t181.5 -20q163 0 252.5 68.5t118.5 214.5zM562.5 401.5q43.5 -19.5 63.5 -49.5l-15 -77q-19 -25 -58 -41t-81 -16q-57 0 -93.5 27.5t-36.5 72.5q0 48 35 75.5t96 27.5q46 0 89.5 -19.5zM592 345q-19 20 -52 33t-67 13q-48 0 -73.5 -19t-25.5 -54q0 -32 27 -51t71 -19
q33 0 62.5 11t46.5 29zM369 675.5q-59 40.5 -62 114.5h167q5 -24 19 -35t46 -11q58 0 71 46h167q-16 -79 -73 -117t-165 -38q-111 0 -170 40.5zM675 686q48 25 69 78h-114q-21 -46 -91 -46q-34 0 -56 12.5t-27 33.5h-117q8 -49 58.5 -76t141.5 -27q88 0 136 25z" />
    <glyph glyph-name="Gdotaccent" unicode="&#x120;" horiz-adv-x="1005" 
d="M368 23.5q-114 43.5 -176.5 125t-62.5 190.5q0 112 65.5 198.5t184.5 134.5t273 48q122 0 238.5 -29.5t180.5 -61.5l-40 -206q-55 30 -158 60t-216 30q-75 0 -131 -21t-85.5 -59t-29.5 -88q0 -46 30.5 -82t87 -56t132.5 -20q49 0 90.5 4.5t61.5 13.5l5 26h-244l32 165
h420l-69 -355q-41 -21 -130 -41t-194 -20q-151 0 -265 43.5zM803 25.5q78 15.5 126 34.5l60 306h-357l-20 -105h245l-15 -77q-64 -27 -181 -27q-84 0 -148 24t-99 66.5t-35 97.5q0 59 34 103.5t97 69.5t147 25q95 0 187 -22.5t163 -52.5l28 145q-67 30 -171 53.5t-212 23.5
q-146 0 -257.5 -44.5t-172.5 -124t-61 -182.5q0 -100 58 -174.5t165 -114.5t249 -40q92 0 170 15.5zM555 794q-35 27 -35 72q0 48 35.5 77.5t95.5 29.5q58 0 93.5 -27t35.5 -71q0 -49 -35.5 -78.5t-95.5 -29.5q-59 0 -94 27zM724.5 815q27.5 22 27.5 60q0 33 -27 52.5
t-74 19.5q-48 0 -75.5 -22t-27.5 -59q0 -33 27 -53t74 -20q48 0 75.5 22z" />
    <glyph glyph-name="gdotaccent" unicode="&#x121;" horiz-adv-x="850" 
d="M636 570h270l-91 -468q-30 -156 -129 -231.5t-273 -75.5q-113 0 -210.5 26.5t-140.5 57.5l41 214q60 -39 124 -64.5t145 -25.5q76 0 120.5 32.5t57.5 91.5q-31 -31 -83.5 -49t-108.5 -18q-75 0 -134.5 31t-93 86.5t-33.5 124.5q0 85 37 149t107 99t167 35q64 0 122 -23.5
t93 -61.5zM868 540h-206l-15 -81h-29q-30 42 -87.5 69t-122.5 27q-132 0 -205.5 -68.5t-73.5 -184.5q0 -61 29 -109.5t81 -75.5t119 -27q61 0 116.5 23.5t78.5 57.5h39l-9 -47q-15 -77 -66 -114t-145 -37q-65 0 -131.5 20.5t-113.5 48.5l-29 -150q50 -27 133.5 -47
t181.5 -20q163 0 252.5 68.5t118.5 214.5zM562.5 401.5q43.5 -19.5 63.5 -49.5l-15 -77q-19 -25 -58 -41t-81 -16q-57 0 -93.5 27.5t-36.5 72.5q0 48 35 75.5t96 27.5q46 0 89.5 -19.5zM592 345q-19 20 -52 33t-67 13q-48 0 -73.5 -19t-25.5 -54q0 -32 27 -51t71 -19
q33 0 62.5 11t46.5 29zM440 654q-35 27 -35 72q0 48 35.5 77.5t95.5 29.5q58 0 93.5 -27t35.5 -71q0 -49 -35.5 -78.5t-95.5 -29.5q-59 0 -94 27zM609.5 675q27.5 22 27.5 60q0 33 -27 52.5t-74 19.5q-48 0 -75.5 -22t-27.5 -59q0 -33 27 -53t74 -20q48 0 75.5 22z" />
    <glyph glyph-name="uni0122" unicode="&#x122;" horiz-adv-x="1005" 
d="M368 23.5q-114 43.5 -176.5 125t-62.5 190.5q0 112 65.5 198.5t184.5 134.5t273 48q122 0 238.5 -29.5t180.5 -61.5l-40 -206q-55 30 -158 60t-216 30q-75 0 -131 -21t-85.5 -59t-29.5 -88q0 -46 30.5 -82t87 -56t132.5 -20q49 0 90.5 4.5t61.5 13.5l5 26h-244l32 165
h420l-69 -355q-41 -21 -130 -41t-194 -20q-151 0 -265 43.5zM803 25.5q78 15.5 126 34.5l60 306h-357l-20 -105h245l-15 -77q-64 -27 -181 -27q-84 0 -148 24t-99 66.5t-35 97.5q0 59 34 103.5t97 69.5t147 25q95 0 187 -22.5t163 -52.5l28 145q-67 30 -171 53.5t-212 23.5
q-146 0 -257.5 -44.5t-172.5 -124t-61 -182.5q0 -100 58 -174.5t165 -114.5t249 -40q92 0 170 15.5zM414 -350l16 84h73q29 0 46 6.5t25 24.5q-24 -11 -47 -11q-44 0 -68 23t-24 58q0 43 32.5 69t82.5 26q60 0 96.5 -32.5t36.5 -89.5q0 -44 -21.5 -80.5t-61 -57t-91.5 -20.5
h-95zM511 -322q65 0 102.5 37t37.5 93q0 45 -27.5 68.5t-73.5 23.5q-37 0 -60 -17.5t-23 -47.5q0 -22 16 -36.5t44 -14.5q40 0 61 27h27q-7 -57 -33.5 -81t-80.5 -24h-44l-5 -28h59z" />
    <glyph glyph-name="uni0123" unicode="&#x123;" horiz-adv-x="850" 
d="M440 637.5q-37 33.5 -37 89.5q0 45 21 81t60 56.5t91 20.5h95l-16 -84h-73q-50 0 -69 -30q19 10 44 10q45 0 69 -23.5t24 -60.5q0 -41 -31.5 -67t-80.5 -26q-60 0 -97 33.5zM573 857q-65 0 -101.5 -37t-36.5 -93q0 -44 27.5 -68.5t74.5 -24.5q36 0 58 17.5t22 45.5
q0 24 -16 39t-45 15q-39 0 -60 -27h-27q7 57 33 81t79 24h46l5 28h-59zM636 570h270l-91 -468q-30 -156 -129 -231.5t-273 -75.5q-113 0 -210.5 26.5t-140.5 57.5l41 214q60 -39 124 -64.5t145 -25.5q76 0 120.5 32.5t57.5 91.5q-31 -31 -83.5 -49t-108.5 -18
q-75 0 -134.5 31t-93 86.5t-33.5 124.5q0 85 37 149t107 99t167 35q64 0 122 -23.5t93 -61.5zM868 540h-206l-15 -81h-29q-30 42 -87.5 69t-122.5 27q-132 0 -205.5 -68.5t-73.5 -184.5q0 -61 29 -109.5t81 -75.5t119 -27q61 0 116.5 23.5t78.5 57.5h39l-9 -47
q-15 -77 -66 -114t-145 -37q-65 0 -131.5 20.5t-113.5 48.5l-29 -150q50 -27 133.5 -47t181.5 -20q163 0 252.5 68.5t118.5 214.5zM562.5 401.5q43.5 -19.5 63.5 -49.5l-15 -77q-19 -25 -58 -41t-81 -16q-57 0 -93.5 27.5t-36.5 72.5q0 48 35 75.5t96 27.5q46 0 89.5 -19.5z
M592 345q-19 20 -52 33t-67 13q-48 0 -73.5 -19t-25.5 -54q0 -32 27 -51t71 -19q33 0 62.5 11t46.5 29z" />
    <glyph glyph-name="Hcircumflex" unicode="&#x124;" horiz-adv-x="980" 
d="M345 0h-270l136 700h270l-47 -239h291l46 239h270l-136 -700h-270l46 235h-291zM237 670l-124 -640h206l45 235h355l-46 -235h206l124 640h-206l-46 -239h-355l47 239h-206zM760 930l141 -150h-201l-55 63l-82 -63h-222l199 150h220zM553 806l84 65h20l57 -65h125l-91 98
h-198l-131 -98h134z" />
    <glyph glyph-name="hcircumflex" unicode="&#x125;" horiz-adv-x="810" 
d="M776.5 536q55.5 -49 55.5 -138q0 -33 -7 -65l-66 -333h-270l58 299q3 14 3 26q0 31 -16 47.5t-47 16.5q-26 0 -52.5 -13.5t-43.5 -34.5l-66 -341h-270l140 720h270l-41 -212q34 35 86.5 56t107.5 21q103 0 158.5 -49zM793 339q6 32 6 60q0 75 -46 115.5t-135 40.5
q-58 0 -113.5 -26.5t-88.5 -68.5h-34l45 230h-206l-128 -660h206l62 323q19 28 55 47t71 19q45 0 69.5 -25.5t24.5 -68.5q0 -15 -3 -32l-51 -263h206zM460 930l141 -150h-201l-55 63l-82 -63h-222l199 150h220zM253 806l84 65h20l57 -65h125l-91 98h-198l-131 -98h134z" />
    <glyph glyph-name="Hbar" unicode="&#x126;" horiz-adv-x="1020" 
d="M367 0h-270l95 488h-97l27 140h97l14 72h270l-14 -72h290l14 72h270l-14 -72h92l-27 -140h-92l-95 -488h-270l46 239h-289zM230 518l-95 -488h206l47 239h354l-47 -239h206l95 488h92l15 80h-92l14 72h-206l-14 -72h-354l14 72h-206l-14 -72h-97l-15 -80h97zM770 416
h-354l20 102h354zM462 488l-8 -42h290l8 42h-290z" />
    <glyph glyph-name="hbar" unicode="&#x127;" horiz-adv-x="835" 
d="M795.5 504.5q55.5 -50.5 55.5 -140.5q0 -24 -7 -64l-59 -300h-270l51 266q3 15 3 27q0 31 -16 47.5t-46 16.5q-26 0 -52.5 -13.5t-45.5 -35.5l-60 -308h-270l113 580h-78l17 97h80l8 43h270l-9 -43h141l-19 -97h-140l-20 -99q36 34 89 54t109 20q100 0 155.5 -50.5z
M812 306q6 32 6 59q0 78 -46.5 119t-131.5 41q-62 0 -117.5 -26.5t-85.5 -69.5h-36l35 181h139l7 37h-139l8 43h-206l-8 -43h-79l-7 -37h79l-113 -580h206l56 289q21 30 56.5 49t71.5 19q44 0 69 -25.5t25 -68.5q0 -16 -3 -33l-45 -230h206z" />
    <glyph glyph-name="Itilde" unicode="&#x128;" horiz-adv-x="810" 
d="M769 0h-729l40 207h230l55 286h-229l40 207h729l-40 -207h-229l-55 -286h229zM106 177l-29 -147h666l29 147h-229l67 346h229l29 147h-666l-29 -147h230l-67 -346h-230zM596 780q-25 10 -47 26q-22 15 -33 15q-7 0 -11 -4.5t-6 -15.5l-5 -26h-198l13 68q8 44 38 68t80 24
q33 0 58 -10t51 -27q20 -14 36 -14q15 0 18 16l6 30h199l-14 -71q-9 -46 -37.5 -67.5t-86.5 -21.5q-36 0 -61 10zM724.5 811.5q20.5 15.5 28.5 53.5l8 39h-141l-2 -11q-6 -35 -44 -35q-21 0 -54 21q-23 14 -44 22t-49 8q-40 0 -60.5 -17t-28.5 -53l-8 -38h140l2 10
q8 36 42 36q22 0 52 -21q20 -14 40 -22t51 -8q47 0 67.5 15.5z" />
    <glyph glyph-name="itilde" unicode="&#x129;" horiz-adv-x="360" 
d="M314 0h-269l111 570h270zM182 540l-99 -510h205l100 510h-206zM366 640q-25 10 -47 26q-22 15 -33 15q-7 0 -11 -4.5t-6 -15.5l-5 -26h-198l13 68q8 44 38 68t80 24q33 0 58 -10t51 -27q20 -14 36 -14q15 0 18 16l6 30h199l-14 -71q-9 -46 -37.5 -67.5t-86.5 -21.5
q-36 0 -61 10zM494.5 671.5q20.5 15.5 28.5 53.5l8 39h-141l-2 -11q-6 -35 -44 -35q-21 0 -54 21q-23 14 -44 22t-49 8q-40 0 -60.5 -17t-28.5 -53l-8 -38h140l2 10q8 36 42 36q22 0 52 -21q20 -14 40 -22t51 -8q47 0 67.5 15.5z" />
    <glyph glyph-name="Imacron" unicode="&#x12a;" horiz-adv-x="810" 
d="M769 0h-729l40 207h230l55 286h-229l40 207h729l-40 -207h-229l-55 -286h229zM106 177l-29 -147h666l29 147h-229l67 346h229l29 147h-666l-29 -147h230l-67 -346h-230zM752 785h-440l26 135h440zM362 894l-16 -83h382l16 83h-382z" />
    <glyph glyph-name="imacron" unicode="&#x12b;" horiz-adv-x="360" 
d="M314 0h-269l111 570h270zM182 540l-99 -510h205l100 510h-206zM522 645h-440l26 135h440zM132 754l-16 -83h382l16 83h-382z" />
    <glyph glyph-name="Ibreve" unicode="&#x12c;" horiz-adv-x="810" 
d="M769 0h-729l40 207h230l55 286h-229l40 207h729l-40 -207h-229l-55 -286h229zM106 177l-29 -147h666l29 147h-229l67 346h229l29 147h-666l-29 -147h230l-67 -346h-230zM369 815.5q-59 40.5 -62 114.5h167q5 -24 19 -35t46 -11q58 0 71 46h167q-16 -79 -73 -117t-165 -38
q-111 0 -170 40.5zM675 826q48 25 69 78h-114q-21 -46 -91 -46q-34 0 -56 12.5t-27 33.5h-117q8 -49 58.5 -76t141.5 -27q88 0 136 25z" />
    <glyph glyph-name="ibreve" unicode="&#x12d;" horiz-adv-x="360" 
d="M314 0h-269l111 570h270zM182 540l-99 -510h205l100 510h-206zM139 675.5q-59 40.5 -62 114.5h167q5 -24 19 -35t46 -11q58 0 71 46h167q-16 -79 -73 -117t-165 -38q-111 0 -170 40.5zM445 686q48 25 69 78h-114q-21 -46 -91 -46q-34 0 -56 12.5t-27 33.5h-117
q8 -49 58.5 -76t141.5 -27q88 0 136 25z" />
    <glyph glyph-name="Iogonek" unicode="&#x12e;" horiz-adv-x="810" 
d="M246.5 -206q-36.5 24 -36.5 67q0 71 98 139h-268l40 207h230l55 286h-229l40 207h729l-40 -207h-229l-55 -286h229l-41 -207h-302q-57 -36 -84.5 -58t-27.5 -35q0 -8 7 -11t27 -3q36 0 79 11l-24 -123q-49 -11 -96 -11q-65 0 -101.5 24zM420 -197l13 70q-27 -5 -44 -5
q-64 0 -64 37q0 21 28 45.5t108 79.5h282l29 147h-229l67 346h229l29 147h-666l-29 -147h230l-67 -346h-230l-29 -147h291l-5 -27q-58 -34 -91.5 -71t-33.5 -71q0 -31 28.5 -48t81.5 -17q37 0 72 7z" />
    <glyph glyph-name="iogonek" unicode="&#x12f;" horiz-adv-x="360" 
d="M190 618.5q-44 34.5 -44 87.5q0 58 45 96t119 38q72 0 114.5 -33.5t42.5 -86.5q0 -60 -44 -98t-117 -38q-72 0 -116 34.5zM400.5 644q34.5 30 34.5 76q0 40 -33 65t-92 25q-61 0 -96.5 -29t-35.5 -75q0 -40 34 -66t94 -26t94.5 30zM94.5 -206q-36.5 24 -36.5 67
q0 71 98 139h-111l110 570h31q14 -13 42.5 -21.5t60.5 -8.5q34 0 61 8t43 22h33l-111 -570q-57 -36 -84.5 -58t-27.5 -35q0 -8 7 -11t27 -3q36 0 79 11l-24 -123q-49 -11 -96 -11q-65 0 -101.5 24zM268 -197l13 70q-27 -5 -44 -5q-64 0 -64 37q0 21 26 45.5t87 63.5l100 515
q-40 -19 -97 -19q-30 0 -58.5 7t-49.5 18l-98 -505h133l-5 -27q-58 -34 -91.5 -71t-33.5 -71q0 -31 28.5 -48t81.5 -17q37 0 72 7z" />
    <glyph glyph-name="Idotaccent" unicode="&#x130;" horiz-adv-x="810" 
d="M769 0h-729l40 207h230l55 286h-229l40 207h729l-40 -207h-229l-55 -286h229zM106 177l-29 -147h666l29 147h-229l67 346h229l29 147h-666l-29 -147h230l-67 -346h-230zM440 794q-35 27 -35 72q0 48 35.5 77.5t95.5 29.5q58 0 93.5 -27t35.5 -71q0 -49 -35.5 -78.5
t-95.5 -29.5q-59 0 -94 27zM609.5 815q27.5 22 27.5 60q0 33 -27 52.5t-74 19.5q-48 0 -75.5 -22t-27.5 -59q0 -33 27 -53t74 -20q48 0 75.5 22z" />
    <glyph glyph-name="dotlessi" unicode="&#x131;" horiz-adv-x="360" 
d="M314 0h-269l111 570h270zM182 540l-99 -510h205l100 510h-206z" />
    <glyph glyph-name="IJ" unicode="&#x132;" horiz-adv-x="1495" 
d="M769 0h-729l40 207h230l55 286h-229l40 207h729l-40 -207h-229l-55 -286h229zM106 177l-29 -147h666l29 147h-229l67 346h229l29 147h-666l-29 -147h230l-67 -346h-230zM973 -5.5q-63 9.5 -139 32.5l44 222q65 -22 105 -30t85 -8q59 0 95 25.5t46 74.5l76 389h271
l-92 -474q-23 -119 -112.5 -180t-241.5 -61q-74 0 -137 9.5zM1433 232l85 438h-206l-71 -365q-11 -59 -57 -91.5t-116 -32.5q-41 0 -79 6.5t-87 21.5l-32 -162q65 -18 120.5 -25t119.5 -7q281 0 323 217z" />
    <glyph glyph-name="ij" unicode="&#x133;" horiz-adv-x="715" 
d="M190 618.5q-44 34.5 -44 87.5q0 58 45 96t119 38q72 0 114.5 -33.5t42.5 -86.5q0 -60 -44 -98t-117 -38q-72 0 -116 34.5zM779.5 806.5q42.5 -33.5 42.5 -86.5q0 -60 -44 -98t-117 -38q-74 0 -117 34t-43 88q0 58 45 96t119 38q72 0 114.5 -33.5zM213.5 781
q-35.5 -29 -35.5 -75q0 -40 34 -66t94 -26t94.5 30t34.5 76q0 40 -33 65t-92 25q-61 0 -96.5 -29zM755.5 644q34.5 30 34.5 76q0 40 -33 65t-92 25q-61 0 -96.5 -29t-35.5 -75q0 -40 34 -66t94 -26t94.5 30zM426 570l-110 -570h-271l110 570h31q14 -13 42.5 -21.5t60.5 -8.5
q34 0 61 8t43 22h33zM704 548q27 8 43 22h33l-104 -539q-23 -122 -95.5 -179t-204.5 -57q-44 0 -81.5 5.5t-80.5 18.5l27 137q45 -16 74 -16q36 0 58 22t33 76l103 532h31q14 -13 42.5 -21.5t60.5 -8.5q34 0 61 8zM83 30h206l97 499q-40 -19 -97 -19q-30 0 -58.5 7t-49.5 18
zM740 529q-41 -19 -97 -19q-30 0 -58.5 7t-49.5 18l-98 -503q-13 -65 -43 -93.5t-76 -28.5q-25 0 -53 8l-15 -78q53 -15 126 -15q121 0 183.5 49.5t84.5 160.5z" />
    <glyph glyph-name="Jcircumflex" unicode="&#x134;" horiz-adv-x="685" 
d="M163 -5.5q-63 9.5 -139 32.5l44 222q65 -22 105 -30t85 -8q59 0 95 25.5t46 74.5l76 389h271l-92 -474q-23 -119 -112.5 -180t-241.5 -61q-74 0 -137 9.5zM623 232l85 438h-206l-71 -365q-11 -59 -57 -91.5t-116 -32.5q-41 0 -79 6.5t-87 21.5l-32 -162q65 -18 120.5 -25
t119.5 -7q281 0 323 217zM760 930l141 -150h-201l-55 63l-82 -63h-222l199 150h220zM553 806l84 65h20l57 -65h125l-91 98h-198l-131 -98h134z" />
    <glyph glyph-name="jcircumflex" unicode="&#x135;" horiz-adv-x="360" 
d="M-65.5 -199.5q-37.5 5.5 -79.5 18.5l31 161q44 -15 74 -15q68 0 82 73l103 532h271l-104 -539q-23 -122 -94.5 -179t-202.5 -57q-43 0 -80.5 5.5zM196 -126q62 49 84 161l97 500h-206l-98 -503q-10 -48 -38.5 -72.5t-71.5 -24.5q-26 0 -54 7l-19 -102q53 -15 125 -15
q119 0 181 49zM419 790l141 -150h-201l-55 63l-82 -63h-222l199 150h220zM212 666l84 65h20l57 -65h125l-91 98h-198l-131 -98h134z" />
    <glyph glyph-name="uni0136" unicode="&#x136;" horiz-adv-x="925" 
d="M744 700h366l-445 -355l244 -345h-323l-189 272l-52 -272h-270l136 700h270l-50 -259zM402 321l202 -291h246l-219 310l4 20l389 310h-268l-337 -279h-30l54 279h-206l-124 -640h206l56 291h27zM319 -350l16 84h73q29 0 46 6.5t25 24.5q-24 -11 -47 -11q-44 0 -68 23
t-24 58q0 43 32.5 69t82.5 26q60 0 96.5 -32.5t36.5 -89.5q0 -44 -21.5 -80.5t-61 -57t-91.5 -20.5h-95zM416 -322q65 0 102.5 37t37.5 93q0 45 -27.5 68.5t-73.5 23.5q-37 0 -60 -17.5t-23 -47.5q0 -22 16 -36.5t44 -14.5q40 0 61 27h27q-7 -57 -33.5 -81t-80.5 -24h-44
l-5 -28h59z" />
    <glyph glyph-name="uni0137" unicode="&#x137;" horiz-adv-x="825" 
d="M618 570h356l-348 -286l205 -284h-322l-142 216l-42 -216h-270l140 720h270l-66 -339zM527 30h244l-187 260l306 250h-260l-244 -211h-29l70 361h-206l-128 -660h206l46 237h26zM264 -350l16 84h73q29 0 46 6.5t25 24.5q-24 -11 -47 -11q-44 0 -68 23t-24 58
q0 43 32.5 69t82.5 26q60 0 96.5 -32.5t36.5 -89.5q0 -44 -21.5 -80.5t-61 -57t-91.5 -20.5h-95zM361 -322q65 0 102.5 37t37.5 93q0 45 -27.5 68.5t-73.5 23.5q-37 0 -60 -17.5t-23 -47.5q0 -22 16 -36.5t44 -14.5q40 0 61 27h27q-7 -57 -33.5 -81t-80.5 -24h-44l-5 -28h59
z" />
    <glyph glyph-name="Lacute" unicode="&#x139;" horiz-adv-x="770" 
d="M776 0h-701l136 700h271l-92 -473h430zM237 670l-124 -640h637l32 167h-430l92 473h-207zM214 760h-28l-2 62l300 138h74l-10 -152zM212 806l1 -20l309 44l6 104h-38z" />
    <glyph glyph-name="lacute" unicode="&#x13a;" horiz-adv-x="359" 
d="M315 0h-270l140 720h270zM211 690l-128 -660h206l128 660h-206zM194 760h-28l-2 62l300 138h74l-10 -152zM192 806l1 -20l309 44l6 104h-38z" />
    <glyph glyph-name="uni013B" unicode="&#x13b;" horiz-adv-x="770" 
d="M776 0h-701l136 700h271l-92 -473h430zM237 670l-124 -640h637l32 167h-430l92 473h-207zM289 -350l16 84h73q29 0 46 6.5t25 24.5q-24 -11 -47 -11q-44 0 -68 23t-24 58q0 43 32.5 69t82.5 26q60 0 96.5 -32.5t36.5 -89.5q0 -44 -21.5 -80.5t-61 -57t-91.5 -20.5h-95z
M386 -322q65 0 102.5 37t37.5 93q0 45 -27.5 68.5t-73.5 23.5q-37 0 -60 -17.5t-23 -47.5q0 -22 16 -36.5t44 -14.5q40 0 61 27h27q-7 -57 -33.5 -81t-80.5 -24h-44l-5 -28h59z" />
    <glyph glyph-name="uni013C" unicode="&#x13c;" horiz-adv-x="359" 
d="M315 0h-270l140 720h270zM211 690l-128 -660h206l128 660h-206zM14 -350l16 84h73q29 0 46 6.5t25 24.5q-24 -11 -47 -11q-44 0 -68 23t-24 58q0 43 32.5 69t82.5 26q60 0 96.5 -32.5t36.5 -89.5q0 -44 -21.5 -80.5t-61 -57t-91.5 -20.5h-95zM111 -322q65 0 102.5 37
t37.5 93q0 45 -27.5 68.5t-73.5 23.5q-37 0 -60 -17.5t-23 -47.5q0 -22 16 -36.5t44 -14.5q40 0 61 27h27q-7 -57 -33.5 -81t-80.5 -24h-44l-5 -28h59z" />
    <glyph glyph-name="Lcaron" unicode="&#x13d;" horiz-adv-x="770" 
d="M461 335l27 139h54q49 0 73 14.5t34 41.5q-21 -14 -49 -14q-40 0 -64 23t-24 64q0 49 33.5 78t82.5 29q60 0 93 -37.5t33 -109.5q0 -59 -28.5 -111.5t-78.5 -84.5t-110 -32h-76zM776 0h-701l136 700h271l-92 -473h430zM537 365q51 0 93.5 28t67 73.5t24.5 96.5
q0 117 -94 117q-35 0 -59.5 -20t-24.5 -57q0 -57 56 -57q44 0 64 35h26q-3 -64 -39 -100.5t-109 -36.5h-28l-15 -79h38zM237 670l-124 -640h637l32 167h-430l92 473h-207z" />
    <glyph glyph-name="lcaron" unicode="&#x13e;" horiz-adv-x="472" 
d="M236 322h145l-63 -322h-272l140 720h166l-5 -26q-42 -23 -55 -89zM545.5 682.5q33.5 -37.5 33.5 -109.5q0 -59 -28.5 -111.5t-78.5 -84.5t-110 -32h-76l27 139h54q48 0 71.5 14.5t33.5 41.5q-21 -14 -49 -14q-40 0 -63 23t-23 64q0 49 33.5 78t81.5 29q60 0 93.5 -37.5z
M343 292h-145l62 319q9 48 35 79h-83l-128 -660h208zM362 375q51 0 93.5 28t67 73.5t24.5 96.5q0 117 -95 117q-35 0 -59 -20t-24 -57q0 -57 54 -57q44 0 64 35h26q-3 -64 -38.5 -100.5t-107.5 -36.5h-28l-15 -79h38z" />
    <glyph glyph-name="Ldot" unicode="&#x13f;" horiz-adv-x="769" 
d="M774 0h-699l136 700h271l-103 -531h428zM237 670l-124 -640h635l21 109h-428l103 531h-207zM561.5 310.5q-43.5 35.5 -43.5 92.5q0 63 44.5 102.5t113.5 39.5q68 0 111.5 -35.5t43.5 -92.5q0 -62 -44.5 -102t-112.5 -40q-69 0 -112.5 35.5zM764 336.5q35 31.5 35 80.5
q0 44 -34 71t-89 27q-56 0 -91 -31t-35 -81q0 -44 34 -71t90 -27q55 0 90 31.5z" />
    <glyph glyph-name="ldot" unicode="&#x140;" horiz-adv-x="645" 
d="M315 0h-270l140 720h270zM211 690l-128 -660h206l128 660h-206zM459.5 260.5q-43.5 35.5 -43.5 92.5q0 63 44.5 102.5t113.5 39.5q68 0 111.5 -35.5t43.5 -92.5q0 -62 -44.5 -102t-112.5 -40q-69 0 -112.5 35.5zM662 286.5q35 31.5 35 80.5q0 44 -34 71t-89 27
q-56 0 -91 -31t-35 -81q0 -44 34 -71t90 -27q55 0 90 31.5z" />
    <glyph glyph-name="Lslash" unicode="&#x141;" horiz-adv-x="775" 
d="M781 0h-701l49 253l-78 -20l28 148l79 20l58 299h271l-43 -223l208 57l-28 -148l-209 -57l-20 -102h430zM170 295l-52 -265h636l33 167h-430l30 156l209 57l16 82l-209 -57l46 235h-207l-57 -293l-78 -20l-16 -82z" />
    <glyph glyph-name="lslash" unicode="&#x142;" horiz-adv-x="435" 
d="M346 0h-271l52 269l-74 -28l22 114l74 27l66 338h271l-45 -234l91 34l-22 -113l-91 -34zM169 317l-56 -287h207l71 365l91 34l8 45l-91 -34l49 250h-207l-64 -330l-74 -27l-8 -44z" />
    <glyph glyph-name="Nacute" unicode="&#x143;" horiz-adv-x="1000" 
d="M720 280l81 420h260l-136 -700h-409l-100 421l-81 -421h-260l136 700h410zM544 30h355l124 640h-196l-89 -460h-35l-108 460h-358l-124 -640h196l89 460h35zM493 760h-28l-2 62l300 138h74l-10 -152zM491 806l1 -20l309 44l6 104h-38z" />
    <glyph glyph-name="nacute" unicode="&#x144;" horiz-adv-x="810" 
d="M776.5 536q55.5 -49 55.5 -138q0 -33 -7 -65l-66 -333h-270l58 299q3 14 3 26q0 31 -16 47.5t-47 16.5q-26 0 -52.5 -13.5t-43.5 -34.5l-66 -341h-270l111 570h269l-12 -62q35 35 87.5 56t107.5 21q103 0 158.5 -49zM793 339q6 32 6 60q0 75 -46 115.5t-135 40.5
q-58 0 -113.5 -26.5t-88.5 -68.5h-34l15 80h-205l-99 -510h206l62 323q19 28 55 47t71 19q45 0 69.5 -25.5t24.5 -68.5q0 -15 -3 -32l-51 -263h206zM378 620h-28l-2 62l300 138h74l-10 -152zM376 666l1 -20l309 44l6 104h-38z" />
    <glyph glyph-name="uni0145" unicode="&#x145;" horiz-adv-x="1000" 
d="M720 280l81 420h260l-136 -700h-409l-100 421l-81 -421h-260l136 700h410zM544 30h355l124 640h-196l-89 -460h-35l-108 460h-358l-124 -640h196l89 460h35zM384 -350l16 84h73q29 0 46 6.5t25 24.5q-24 -11 -47 -11q-44 0 -68 23t-24 58q0 43 32.5 69t82.5 26
q60 0 96.5 -32.5t36.5 -89.5q0 -44 -21.5 -80.5t-61 -57t-91.5 -20.5h-95zM481 -322q65 0 102.5 37t37.5 93q0 45 -27.5 68.5t-73.5 23.5q-37 0 -60 -17.5t-23 -47.5q0 -22 16 -36.5t44 -14.5q40 0 61 27h27q-7 -57 -33.5 -81t-80.5 -24h-44l-5 -28h59z" />
    <glyph glyph-name="uni0146" unicode="&#x146;" horiz-adv-x="810" 
d="M776.5 536q55.5 -49 55.5 -138q0 -33 -7 -65l-66 -333h-270l58 299q3 14 3 26q0 31 -16 47.5t-47 16.5q-26 0 -52.5 -13.5t-43.5 -34.5l-66 -341h-270l111 570h269l-12 -62q35 35 87.5 56t107.5 21q103 0 158.5 -49zM793 339q6 32 6 60q0 75 -46 115.5t-135 40.5
q-58 0 -113.5 -26.5t-88.5 -68.5h-34l15 80h-205l-99 -510h206l62 323q19 28 55 47t71 19q45 0 69.5 -25.5t24.5 -68.5q0 -15 -3 -32l-51 -263h206zM259 -350l16 84h73q29 0 46 6.5t25 24.5q-24 -11 -47 -11q-44 0 -68 23t-24 58q0 43 32.5 69t82.5 26q60 0 96.5 -32.5
t36.5 -89.5q0 -44 -21.5 -80.5t-61 -57t-91.5 -20.5h-95zM356 -322q65 0 102.5 37t37.5 93q0 45 -27.5 68.5t-73.5 23.5q-37 0 -60 -17.5t-23 -47.5q0 -22 16 -36.5t44 -14.5q40 0 61 27h27q-7 -57 -33.5 -81t-80.5 -24h-44l-5 -28h59z" />
    <glyph glyph-name="Ncaron" unicode="&#x147;" horiz-adv-x="1000" 
d="M720 280l81 420h260l-136 -700h-409l-100 421l-81 -421h-260l136 700h410zM544 30h355l124 640h-196l-89 -460h-35l-108 460h-358l-124 -640h196l89 460h35zM657 867l80 63h223l-198 -150h-221l-141 150h200zM553 806h199l130 98h-135l-82 -65h-20l-59 65h-124z" />
    <glyph glyph-name="ncaron" unicode="&#x148;" horiz-adv-x="810" 
d="M776.5 536q55.5 -49 55.5 -138q0 -33 -7 -65l-66 -333h-270l58 299q3 14 3 26q0 31 -16 47.5t-47 16.5q-26 0 -52.5 -13.5t-43.5 -34.5l-66 -341h-270l111 570h269l-12 -62q35 35 87.5 56t107.5 21q103 0 158.5 -49zM793 339q6 32 6 60q0 75 -46 115.5t-135 40.5
q-58 0 -113.5 -26.5t-88.5 -68.5h-34l15 80h-205l-99 -510h206l62 323q19 28 55 47t71 19q45 0 69.5 -25.5t24.5 -68.5q0 -15 -3 -32l-51 -263h206zM527 727l80 63h223l-198 -150h-221l-141 150h200zM423 666h199l130 98h-135l-82 -65h-20l-59 65h-124z" />
    <glyph glyph-name="napostrophe" unicode="&#x149;" horiz-adv-x="1014" 
d="M308.5 461.5q-28.5 -52.5 -78.5 -84.5t-110 -32h-76l27 139h54q49 0 73 14.5t34 41.5q-21 -14 -49 -14q-40 0 -64 23t-24 64q0 49 33.5 78t82.5 29q60 0 93 -37.5t33 -109.5q0 -59 -28.5 -111.5zM120 375q51 0 93.5 28t67 73.5t24.5 96.5q0 117 -94 117q-35 0 -59.5 -20
t-24.5 -57q0 -57 56 -57q44 0 64 35h26q-3 -64 -39 -100.5t-109 -36.5h-28l-15 -79h38zM980.5 536q55.5 -49 55.5 -138q0 -33 -7 -65l-66 -333h-270l58 299q3 14 3 26q0 31 -16 47.5t-47 16.5q-26 0 -52.5 -13.5t-43.5 -34.5l-66 -341h-270l111 570h269l-12 -62
q35 35 87.5 56t107.5 21q103 0 158.5 -49zM997 339q6 32 6 60q0 75 -46 115.5t-135 40.5q-58 0 -113.5 -26.5t-88.5 -68.5h-34l15 80h-205l-99 -510h206l62 323q19 28 55 47t71 19q45 0 69.5 -25.5t24.5 -68.5q0 -15 -3 -32l-51 -263h206z" />
    <glyph glyph-name="Eng" unicode="&#x14a;" horiz-adv-x="1000" 
d="M801 700h260l-129 -663q-24 -124 -95 -183t-200 -59q-44 0 -82.5 5.5t-85.5 20.5l27 140q35 -10 52 -13.5t36 -3.5q32 0 51 13.5t27 42.5h-145l-99 423l-82 -423h-260l135 700h410l99 -420zM1023 670h-196l-89 -460h-35l-108 460h-358l-123 -640h196l89 460h35l111 -460
h156q-5 -59 -33.5 -87.5t-82.5 -28.5q-31 0 -64 9l-16 -81q33 -9 63 -13t69 -4q118 0 180 52.5t84 165.5z" />
    <glyph glyph-name="eng" unicode="&#x14b;" horiz-adv-x="810" 
d="M386.5 -199q-37.5 6 -81.5 20l31 157q27 -11 46 -14.5t39 -3.5q33 0 50 18.5t26 64.5l50 256q3 14 3 26q0 31 -16 47.5t-47 16.5q-26 0 -52.5 -13.5t-43.5 -34.5l-66 -341h-270l110 570h270l-12 -62q35 35 88.5 56t111.5 21q100 0 154.5 -48.5t54.5 -137.5q0 -34 -7 -66
l-59 -304q-23 -121 -95 -177.5t-202 -56.5q-45 0 -82.5 6zM650 -126q62 49 84 161l59 304q6 33 6 60q0 76 -44.5 116t-131.5 40q-61 0 -117.5 -26.5t-89.5 -68.5h-34l15 80h-205l-99 -510h205l63 323q21 29 57 47.5t71 18.5q45 0 68.5 -25t23.5 -67q0 -16 -3 -34l-50 -256
q-11 -57 -36.5 -82t-71.5 -25q-24 0 -60 9l-19 -98q59 -16 128 -16q119 0 181 49z" />
    <glyph glyph-name="Omacron" unicode="&#x14c;" horiz-adv-x="1140" 
d="M373 24.5q-117 44.5 -180.5 126t-63.5 189.5q0 112 63 198t178 134t264 48q155 0 271.5 -44.5t180 -126t63.5 -189.5q0 -111 -63 -197.5t-177.5 -134.5t-263.5 -48q-155 0 -272 44.5zM892 54q107 44 166 123.5t59 182.5q0 100 -59.5 174.5t-168.5 115t-255 40.5
q-141 0 -248 -44t-166 -123.5t-59 -182.5q0 -100 59.5 -174.5t169 -115t255.5 -40.5q140 0 247 44zM504 185q-60 23 -93 66t-33 99q0 55 32.5 97.5t91 66.5t133.5 24q79 0 139 -23t93 -66t33 -99q0 -55 -32.5 -97.5t-91 -66.5t-133.5 -24q-79 0 -139 23zM761 212
q51 20 79 56t28 82q0 72 -63 115t-170 43q-67 0 -118 -20t-79 -56t-28 -82q0 -72 63 -115t170 -43q67 0 118 20zM887 785h-440l26 135h440zM497 894l-16 -83h382l16 83h-382z" />
    <glyph glyph-name="omacron" unicode="&#x14d;" horiz-adv-x="880" 
d="M285.5 20q-90.5 35 -140 99t-49.5 148q0 93 50.5 165.5t141 112.5t208.5 40q119 0 210 -35t140.5 -98.5t49.5 -147.5q0 -94 -50.5 -166t-141.5 -112.5t-209 -40.5q-119 0 -209.5 35zM688.5 51.5q83.5 36.5 129.5 102t46 150.5q0 75 -45.5 132t-129 88t-193.5 31
q-109 0 -192.5 -36t-129.5 -101.5t-46 -150.5q0 -76 45 -133t128.5 -88t193.5 -31t193.5 36.5zM385.5 181.5q-40.5 35.5 -40.5 93.5q0 42 19.5 76t54.5 53.5t79 19.5q67 0 108 -35.5t41 -92.5q0 -66 -43 -108t-110 -42q-68 0 -108.5 35.5zM582 209q33 33 33 87
q0 45 -32 71.5t-85 26.5q-54 0 -87.5 -33.5t-33.5 -85.5q0 -46 31.5 -72.5t85.5 -26.5q55 0 88 33zM747 645h-440l26 135h440zM357 754l-16 -83h382l16 83h-382z" />
    <glyph glyph-name="Obreve" unicode="&#x14e;" horiz-adv-x="1140" 
d="M373 24.5q-117 44.5 -180.5 126t-63.5 189.5q0 112 63 198t178 134t264 48q155 0 271.5 -44.5t180 -126t63.5 -189.5q0 -111 -63 -197.5t-177.5 -134.5t-263.5 -48q-155 0 -272 44.5zM892 54q107 44 166 123.5t59 182.5q0 100 -59.5 174.5t-168.5 115t-255 40.5
q-141 0 -248 -44t-166 -123.5t-59 -182.5q0 -100 59.5 -174.5t169 -115t255.5 -40.5q140 0 247 44zM504 185q-60 23 -93 66t-33 99q0 55 32.5 97.5t91 66.5t133.5 24q79 0 139 -23t93 -66t33 -99q0 -55 -32.5 -97.5t-91 -66.5t-133.5 -24q-79 0 -139 23zM761 212
q51 20 79 56t28 82q0 72 -63 115t-170 43q-67 0 -118 -20t-79 -56t-28 -82q0 -72 63 -115t170 -43q67 0 118 20zM504 815.5q-59 40.5 -62 114.5h167q5 -24 19 -35t46 -11q58 0 71 46h167q-16 -79 -73 -117t-165 -38q-111 0 -170 40.5zM810 826q48 25 69 78h-114
q-21 -46 -91 -46q-34 0 -56 12.5t-27 33.5h-117q8 -49 58.5 -76t141.5 -27q88 0 136 25z" />
    <glyph glyph-name="obreve" unicode="&#x14f;" horiz-adv-x="880" 
d="M285.5 20q-90.5 35 -140 99t-49.5 148q0 93 50.5 165.5t141 112.5t208.5 40q119 0 210 -35t140.5 -98.5t49.5 -147.5q0 -94 -50.5 -166t-141.5 -112.5t-209 -40.5q-119 0 -209.5 35zM688.5 51.5q83.5 36.5 129.5 102t46 150.5q0 75 -45.5 132t-129 88t-193.5 31
q-109 0 -192.5 -36t-129.5 -101.5t-46 -150.5q0 -76 45 -133t128.5 -88t193.5 -31t193.5 36.5zM385.5 181.5q-40.5 35.5 -40.5 93.5q0 42 19.5 76t54.5 53.5t79 19.5q67 0 108 -35.5t41 -92.5q0 -66 -43 -108t-110 -42q-68 0 -108.5 35.5zM582 209q33 33 33 87
q0 45 -32 71.5t-85 26.5q-54 0 -87.5 -33.5t-33.5 -85.5q0 -46 31.5 -72.5t85.5 -26.5q55 0 88 33zM364 675.5q-59 40.5 -62 114.5h167q5 -24 19 -35t46 -11q58 0 71 46h167q-16 -79 -73 -117t-165 -38q-111 0 -170 40.5zM670 686q48 25 69 78h-114q-21 -46 -91 -46
q-34 0 -56 12.5t-27 33.5h-117q8 -49 58.5 -76t141.5 -27q88 0 136 25z" />
    <glyph glyph-name="Ohungarumlaut" unicode="&#x150;" horiz-adv-x="1140" 
d="M373 24.5q-117 44.5 -180.5 126t-63.5 189.5q0 112 63 198t178 134t264 48q155 0 271.5 -44.5t180 -126t63.5 -189.5q0 -111 -63 -197.5t-177.5 -134.5t-263.5 -48q-155 0 -272 44.5zM892 54q107 44 166 123.5t59 182.5q0 100 -59.5 174.5t-168.5 115t-255 40.5
q-141 0 -248 -44t-166 -123.5t-59 -182.5q0 -100 59.5 -174.5t169 -115t255.5 -40.5q140 0 247 44zM504 185q-60 23 -93 66t-33 99q0 55 32.5 97.5t91 66.5t133.5 24q79 0 139 -23t93 -66t33 -99q0 -55 -32.5 -97.5t-91 -66.5t-133.5 -24q-79 0 -139 23zM761 212
q51 20 79 56t28 82q0 72 -63 115t-170 43q-67 0 -118 -20t-79 -56t-28 -82q0 -72 63 -115t170 -43q67 0 118 20zM375 760h-29v71l244 129h95l-16 -137zM723 760h-29v71l244 129h95l-16 -137zM374 815v-28l269 56l10 91h-55zM722 815v-28l269 56l10 91h-55z" />
    <glyph glyph-name="ohungarumlaut" unicode="&#x151;" horiz-adv-x="880" 
d="M285.5 20q-90.5 35 -140 99t-49.5 148q0 93 50.5 165.5t141 112.5t208.5 40q119 0 210 -35t140.5 -98.5t49.5 -147.5q0 -94 -50.5 -166t-141.5 -112.5t-209 -40.5q-119 0 -209.5 35zM688.5 51.5q83.5 36.5 129.5 102t46 150.5q0 75 -45.5 132t-129 88t-193.5 31
q-109 0 -192.5 -36t-129.5 -101.5t-46 -150.5q0 -76 45 -133t128.5 -88t193.5 -31t193.5 36.5zM385.5 181.5q-40.5 35.5 -40.5 93.5q0 42 19.5 76t54.5 53.5t79 19.5q67 0 108 -35.5t41 -92.5q0 -66 -43 -108t-110 -42q-68 0 -108.5 35.5zM582 209q33 33 33 87
q0 45 -32 71.5t-85 26.5q-54 0 -87.5 -33.5t-33.5 -85.5q0 -46 31.5 -72.5t85.5 -26.5q55 0 88 33zM235 620h-29v71l244 129h95l-16 -137zM583 620h-29v71l244 129h95l-16 -137zM234 675v-28l269 56l10 91h-55zM582 675v-28l269 56l10 91h-55z" />
    <glyph glyph-name="OE" unicode="&#x152;" horiz-adv-x="1319" 
d="M378.5 18.5q-108.5 38.5 -178.5 119.5t-70 202q0 113 62 199t176.5 133.5t268.5 47.5q66 0 132 -6t112 -14h509l-40 -207h-341l-14 -75h302l-28 -140h-302l-13 -71h360l-41 -207h-457q-100 -20 -213 -20q-116 0 -224.5 38.5zM720 16q55 6 92 14h435l29 147h-360l25 131
h302l16 80h-302l26 135h341l28 147h-475q-41 7 -107.5 13.5t-132.5 6.5q-146 0 -253 -43.5t-164.5 -122.5t-57.5 -184q0 -112 64 -186t165 -109t212 -35q62 0 117 6zM648 162q-79 0 -140 22.5t-95 63t-34 92.5q0 96 75.5 147t217.5 51h106l-73 -376h-57zM679 192l61 316h-68
q-130 0 -195.5 -43t-65.5 -125q0 -43 29.5 -76.5t83.5 -52.5t124 -19h31z" />
    <glyph glyph-name="oe" unicode="&#x153;" horiz-adv-x="1298" 
d="M268 20q-81 35 -126.5 98t-45.5 143q0 95 48.5 168.5t137 114.5t204.5 41q81 0 150 -22t104 -59q36 37 103 59t142 22q101 0 177 -34.5t117 -96t41 -140.5q0 -26 -4 -52h-437q7 -40 51 -59t115 -19q120 0 202 37l-39 -200q-27 -15 -85.5 -25.5t-122.5 -10.5
q-90 0 -169 23t-119 61q-36 -38 -106.5 -61t-151.5 -23q-105 0 -186 35zM603 39.5q69 24.5 96 61.5h26q30 -38 106.5 -62t168.5 -24q57 0 105.5 7t73.5 19l26 135q-66 -22 -160 -22q-205 0 -205 137h447q1 8 1 23q0 70 -36.5 125t-105.5 85.5t-161 30.5q-75 0 -140.5 -24
t-92.5 -61h-25q-25 37 -92 61t-149 24q-108 0 -189 -37t-125 -103.5t-44 -153.5q0 -72 41 -128t115 -87t170 -31q80 0 149 24.5zM846 331q5 53 40.5 84t90.5 31q56 0 86.5 -31t30.5 -84h-248zM379 181.5q-36 34.5 -36 91.5q0 65 41.5 108t106.5 43q62 0 98.5 -34.5
t36.5 -92.5q0 -65 -41.5 -107.5t-106.5 -42.5q-63 0 -99 34.5zM1057 361q-9 55 -80 55t-89 -55h169zM562 210.5q32 33.5 32 86.5q0 45 -27 71t-76 26q-52 0 -84 -34t-32 -87q0 -45 26.5 -70.5t76.5 -25.5q52 0 84 33.5z" />
    <glyph glyph-name="Racute" unicode="&#x154;" horiz-adv-x="925" 
d="M75 0l136 700h447q90 0 157 -25.5t103.5 -72t36.5 -108.5q0 -78 -47.5 -130t-130.5 -70q40 -17 63 -50.5t23 -78.5q0 -21 -4 -38l-25 -127h-269l29 151q1 4 1 12q0 18 -12 25.5t-39 7.5h-161l-38 -196h-270zM113 30h206l38 196h188q37 0 59 -16.5t22 -47.5q0 -5 -2 -17
l-22 -115h206l19 103q3 17 3 32q0 56 -39.5 84.5t-107.5 30.5l6 31q112 4 173 52t61 131q0 53 -32 92.5t-92 61.5t-141 22h-421zM378 335l35 183h171q53 0 83 -21.5t30 -59.5q0 -50 -31 -76t-91 -26h-197zM575 365q46 0 68 17.5t22 54.5q0 24 -21 37.5t-60 13.5h-145
l-23 -123h159zM434 760h-28l-2 62l300 138h74l-10 -152zM432 806l1 -20l309 44l6 104h-38z" />
    <glyph glyph-name="racute" unicode="&#x155;" horiz-adv-x="585" 
d="M674 585l-50 -258h-88q-54 0 -99 -18.5t-62 -48.5l-50 -260h-270l111 570h270l-12 -59q33 34 79 54t91 20h80zM598 357l38 198h-39q-53 0 -104.5 -29.5t-73.5 -74.5h-39l18 89h-206l-99 -510h206l46 240q19 39 72.5 63t118.5 24h62zM268 620h-28l-2 62l300 138h74
l-10 -152zM266 666l1 -20l309 44l6 104h-38z" />
    <glyph glyph-name="uni0156" unicode="&#x156;" horiz-adv-x="925" 
d="M75 0l136 700h447q90 0 157 -25.5t103.5 -72t36.5 -108.5q0 -78 -47.5 -130t-130.5 -70q40 -17 63 -50.5t23 -78.5q0 -21 -4 -38l-25 -127h-269l29 151q1 4 1 12q0 18 -12 25.5t-39 7.5h-161l-38 -196h-270zM113 30h206l38 196h188q37 0 59 -16.5t22 -47.5q0 -5 -2 -17
l-22 -115h206l19 103q3 17 3 32q0 56 -39.5 84.5t-107.5 30.5l6 31q112 4 173 52t61 131q0 53 -32 92.5t-92 61.5t-141 22h-421zM378 335l35 183h171q53 0 83 -21.5t30 -59.5q0 -50 -31 -76t-91 -26h-197zM575 365q46 0 68 17.5t22 54.5q0 24 -21 37.5t-60 13.5h-145
l-23 -123h159zM304 -350l16 84h73q29 0 46 6.5t25 24.5q-24 -11 -47 -11q-44 0 -68 23t-24 58q0 43 32.5 69t82.5 26q60 0 96.5 -32.5t36.5 -89.5q0 -44 -21.5 -80.5t-61 -57t-91.5 -20.5h-95zM401 -322q65 0 102.5 37t37.5 93q0 45 -27.5 68.5t-73.5 23.5q-37 0 -60 -17.5
t-23 -47.5q0 -22 16 -36.5t44 -14.5q40 0 61 27h27q-7 -57 -33.5 -81t-80.5 -24h-44l-5 -28h59z" />
    <glyph glyph-name="uni0157" unicode="&#x157;" horiz-adv-x="585" 
d="M674 585l-50 -258h-88q-54 0 -99 -18.5t-62 -48.5l-50 -260h-270l111 570h270l-12 -59q33 34 79 54t91 20h80zM598 357l38 198h-39q-53 0 -104.5 -29.5t-73.5 -74.5h-39l18 89h-206l-99 -510h206l46 240q19 39 72.5 63t118.5 24h62zM29 -350l16 84h73q29 0 46 6.5
t25 24.5q-24 -11 -47 -11q-44 0 -68 23t-24 58q0 43 32.5 69t82.5 26q60 0 96.5 -32.5t36.5 -89.5q0 -44 -21.5 -80.5t-61 -57t-91.5 -20.5h-95zM126 -322q65 0 102.5 37t37.5 93q0 45 -27.5 68.5t-73.5 23.5q-37 0 -60 -17.5t-23 -47.5q0 -22 16 -36.5t44 -14.5q40 0 61 27
h27q-7 -57 -33.5 -81t-80.5 -24h-44l-5 -28h59z" />
    <glyph glyph-name="Rcaron" unicode="&#x158;" horiz-adv-x="925" 
d="M75 0l136 700h447q90 0 157 -25.5t103.5 -72t36.5 -108.5q0 -78 -47.5 -130t-130.5 -70q40 -17 63 -50.5t23 -78.5q0 -21 -4 -38l-25 -127h-269l29 151q1 4 1 12q0 18 -12 25.5t-39 7.5h-161l-38 -196h-270zM113 30h206l38 196h188q37 0 59 -16.5t22 -47.5q0 -5 -2 -17
l-22 -115h206l19 103q3 17 3 32q0 56 -39.5 84.5t-107.5 30.5l6 31q112 4 173 52t61 131q0 53 -32 92.5t-92 61.5t-141 22h-421zM378 335l35 183h171q53 0 83 -21.5t30 -59.5q0 -50 -31 -76t-91 -26h-197zM575 365q46 0 68 17.5t22 54.5q0 24 -21 37.5t-60 13.5h-145
l-23 -123h159zM578 867l80 63h223l-198 -150h-221l-141 150h200zM474 806h199l130 98h-135l-82 -65h-20l-59 65h-124z" />
    <glyph glyph-name="rcaron" unicode="&#x159;" horiz-adv-x="585" 
d="M674 585l-50 -258h-88q-54 0 -99 -18.5t-62 -48.5l-50 -260h-270l111 570h270l-12 -59q33 34 79 54t91 20h80zM598 357l38 198h-39q-53 0 -104.5 -29.5t-73.5 -74.5h-39l18 89h-206l-99 -510h206l46 240q19 39 72.5 63t118.5 24h62zM427 727l80 63h223l-198 -150h-221
l-141 150h200zM323 666h199l130 98h-135l-82 -65h-20l-59 65h-124z" />
    <glyph glyph-name="Sacute" unicode="&#x15a;" horiz-adv-x="825" 
d="M274.5 13q-108.5 33 -170.5 72l47 242q31 -22 93.5 -51.5t132.5 -51t124 -21.5q39 0 39 25q0 20 -26 32.5t-100 29.5q-80 18 -136.5 39.5t-98 64t-41.5 109.5q0 104 84.5 160.5t237.5 56.5q97 0 181.5 -19.5t142 -45.5t79.5 -45l-47 -242q-66 51 -162.5 90t-195.5 39
q-24 0 -34.5 -6.5t-10.5 -19.5q0 -19 25.5 -31t97.5 -29q80 -18 137.5 -40t99.5 -64.5t42 -109.5q0 -103 -80.5 -160t-220.5 -57q-131 0 -239.5 33zM712 59q71 49 71 138q0 57 -36.5 93t-88.5 55t-129 37q-73 17 -110.5 35t-37.5 54q0 27 20 41.5t57 14.5q92 0 183 -33
t154 -74l34 178q-52 34 -148.5 63t-220.5 29q-139 0 -214.5 -48.5t-75.5 -138.5q0 -57 35.5 -92.5t86.5 -54t129 -36.5q51 -12 81 -21.5t50 -26.5t20 -44t-18 -41t-53 -14q-72 0 -169 34t-158 69l-35 -177q64 -35 161.5 -62t213.5 -27q127 0 198 49zM373 760h-28l-2 62
l300 138h74l-10 -152zM371 806l1 -20l309 44l6 104h-38z" />
    <glyph glyph-name="sacute" unicode="&#x15b;" horiz-adv-x="700" 
d="M285.5 -0.5q-69.5 14.5 -121.5 35.5t-79 41l39 200q46 -32 122.5 -63t142.5 -31q22 0 31 5.5t9 16.5q0 10 -8 16t-26.5 11t-61.5 13q-66 13 -114.5 29t-84.5 48t-36 83q0 87 75.5 134t213.5 47q111 0 208.5 -30.5t149.5 -65.5l-39 -200q-49 34 -137 66.5t-161 32.5
q-35 0 -35 -17q0 -13 18 -20.5t72 -19.5q68 -15 115.5 -31.5t83 -50.5t35.5 -89q0 -82 -73 -128.5t-195 -46.5q-74 0 -143.5 14.5zM601 53.5q64 38.5 64 106.5q0 62 -56.5 92t-151.5 50q-63 13 -89.5 26.5t-26.5 42.5q0 24 18.5 35.5t48.5 11.5q63 0 138.5 -23.5
t137.5 -55.5l25 136q-55 31 -140.5 55.5t-181.5 24.5q-125 0 -191 -39t-66 -112q0 -41 30 -66t72 -38t107 -26q67 -13 94.5 -27t27.5 -43q0 -25 -19 -38.5t-53 -13.5q-57 0 -121 21.5t-121 51.5l-27 -136q50 -29 132.5 -51.5t176.5 -22.5q108 0 172 38.5zM287 620h-28l-2 62
l300 138h74l-10 -152zM285 666l1 -20l309 44l6 104h-38z" />
    <glyph glyph-name="Scircumflex" unicode="&#x15c;" horiz-adv-x="825" 
d="M274.5 13q-108.5 33 -170.5 72l47 242q31 -22 93.5 -51.5t132.5 -51t124 -21.5q39 0 39 25q0 20 -26 32.5t-100 29.5q-80 18 -136.5 39.5t-98 64t-41.5 109.5q0 104 84.5 160.5t237.5 56.5q97 0 181.5 -19.5t142 -45.5t79.5 -45l-47 -242q-66 51 -162.5 90t-195.5 39
q-24 0 -34.5 -6.5t-10.5 -19.5q0 -19 25.5 -31t97.5 -29q80 -18 137.5 -40t99.5 -64.5t42 -109.5q0 -103 -80.5 -160t-220.5 -57q-131 0 -239.5 33zM712 59q71 49 71 138q0 57 -36.5 93t-88.5 55t-129 37q-73 17 -110.5 35t-37.5 54q0 27 20 41.5t57 14.5q92 0 183 -33
t154 -74l34 178q-52 34 -148.5 63t-220.5 29q-139 0 -214.5 -48.5t-75.5 -138.5q0 -57 35.5 -92.5t86.5 -54t129 -36.5q51 -12 81 -21.5t50 -26.5t20 -44t-18 -41t-53 -14q-72 0 -169 34t-158 69l-35 -177q64 -35 161.5 -62t213.5 -27q127 0 198 49zM665 930l141 -150h-201
l-55 63l-82 -63h-222l199 150h220zM458 806l84 65h20l57 -65h125l-91 98h-198l-131 -98h134z" />
    <glyph glyph-name="scircumflex" unicode="&#x15d;" horiz-adv-x="700" 
d="M285.5 -0.5q-69.5 14.5 -121.5 35.5t-79 41l39 200q46 -32 122.5 -63t142.5 -31q22 0 31 5.5t9 16.5q0 10 -8 16t-26.5 11t-61.5 13q-66 13 -114.5 29t-84.5 48t-36 83q0 87 75.5 134t213.5 47q111 0 208.5 -30.5t149.5 -65.5l-39 -200q-49 34 -137 66.5t-161 32.5
q-35 0 -35 -17q0 -13 18 -20.5t72 -19.5q68 -15 115.5 -31.5t83 -50.5t35.5 -89q0 -82 -73 -128.5t-195 -46.5q-74 0 -143.5 14.5zM601 53.5q64 38.5 64 106.5q0 62 -56.5 92t-151.5 50q-63 13 -89.5 26.5t-26.5 42.5q0 24 18.5 35.5t48.5 11.5q63 0 138.5 -23.5
t137.5 -55.5l25 136q-55 31 -140.5 55.5t-181.5 24.5q-125 0 -191 -39t-66 -112q0 -41 30 -66t72 -38t107 -26q67 -13 94.5 -27t27.5 -43q0 -25 -19 -38.5t-53 -13.5q-57 0 -121 21.5t-121 51.5l-27 -136q50 -29 132.5 -51.5t176.5 -22.5q108 0 172 38.5zM569 790l141 -150
h-201l-55 63l-82 -63h-222l199 150h220zM362 666l84 65h20l57 -65h125l-91 98h-198l-131 -98h134z" />
    <glyph glyph-name="Scedilla" unicode="&#x15e;" horiz-adv-x="825" 
d="M289 -243l19 98q43 -15 91 -15q17 0 25 3.5t8 11.5q0 7 -6.5 9t-18.5 2h-59l-23 30l52 95q-87 14 -159 40.5t-114 53.5l47 242q31 -22 93.5 -51.5t132.5 -51t124 -21.5q39 0 39 25q0 20 -26 32.5t-100 29.5q-78 18 -135.5 39.5t-99 64t-41.5 109.5q0 104 84.5 160.5
t237.5 56.5q97 0 181.5 -19.5t142 -45.5t79.5 -45l-47 -242q-66 51 -162.5 90t-195.5 39q-24 0 -34.5 -6.5t-10.5 -19.5q0 -19 25 -31t98 -29q81 -19 138.5 -40.5t99 -64t41.5 -109.5q0 -103 -80.5 -160t-220.5 -57h-6l-20 -34q47 -3 75 -30.5t28 -64.5q0 -55 -43 -83
t-122 -28q-71 0 -137 17zM563 -149q0 29 -23.5 49.5t-64.5 20.5h-31l52 89h18q127 0 198 49t71 138q0 57 -36.5 93t-88.5 55t-129 37q-73 17 -110.5 35t-37.5 54q0 27 20 41.5t57 14.5q92 0 183 -33t154 -74l34 178q-52 34 -148.5 63t-220.5 29q-139 0 -214.5 -48.5
t-75.5 -138.5q0 -57 35.5 -92.5t86.5 -54t129 -36.5q76 -17 113.5 -35.5t37.5 -56.5q0 -27 -18 -41t-53 -14q-72 0 -169 34t-158 69l-35 -177q51 -28 124 -51.5t160 -32.5l-66 -117l5 -6h45q23 0 38 -9t15 -28q0 -41 -61 -41q-33 0 -69 9l-9 -46q39 -11 105 -11
q137 0 137 85z" />
    <glyph glyph-name="scedilla" unicode="&#x15f;" horiz-adv-x="700" 
d="M214 -243l19 98q43 -15 91 -15q17 0 25 3.5t8 11.5q0 7 -6.5 9t-18.5 2h-59l-23 30l55 100q-73 13 -132 35.5t-88 44.5l39 200q46 -32 122.5 -63t142.5 -31q22 0 31 5.5t9 16.5q0 10 -8 16t-26.5 11t-61.5 13q-66 13 -114.5 29t-84.5 48t-36 83q0 87 75.5 134t213.5 47
q111 0 208.5 -30.5t149.5 -65.5l-39 -200q-49 34 -137 66.5t-161 32.5q-35 0 -35 -17q0 -13 18 -20.5t72 -19.5q68 -15 115.5 -31.5t83 -50.5t35.5 -89q0 -81 -70.5 -127t-189.5 -48l-24 -39q47 -3 75 -30.5t28 -64.5q0 -55 -43 -83t-122 -28q-71 0 -137 17zM488 -149
q0 29 -23.5 49.5t-64.5 20.5h-31l57 94q112 0 175.5 38.5t63.5 106.5q0 62 -56.5 92t-151.5 50q-63 13 -89.5 26.5t-26.5 42.5q0 24 18.5 35.5t48.5 11.5q63 0 138.5 -23.5t137.5 -55.5l25 136q-55 31 -140.5 55.5t-181.5 24.5q-125 0 -191 -39t-66 -112q0 -41 30 -66
t72 -38t107 -26q67 -13 94.5 -27t27.5 -43q0 -25 -19 -38.5t-53 -13.5q-57 0 -121 21.5t-121 51.5l-27 -136q37 -22 98 -42t132 -28l-68 -121l5 -6h45q23 0 38 -9t15 -28q0 -41 -61 -41q-33 0 -69 9l-9 -46q39 -11 105 -11q137 0 137 85z" />
    <glyph glyph-name="Scaron" unicode="&#x160;" horiz-adv-x="825" 
d="M274.5 13q-108.5 33 -170.5 72l47 242q31 -22 93.5 -51.5t132.5 -51t124 -21.5q39 0 39 25q0 20 -26 32.5t-100 29.5q-80 18 -136.5 39.5t-98 64t-41.5 109.5q0 104 84.5 160.5t237.5 56.5q97 0 181.5 -19.5t142 -45.5t79.5 -45l-47 -242q-66 51 -162.5 90t-195.5 39
q-24 0 -34.5 -6.5t-10.5 -19.5q0 -19 25.5 -31t97.5 -29q80 -18 137.5 -40t99.5 -64.5t42 -109.5q0 -103 -80.5 -160t-220.5 -57q-131 0 -239.5 33zM712 59q71 49 71 138q0 57 -36.5 93t-88.5 55t-129 37q-73 17 -110.5 35t-37.5 54q0 27 20 41.5t57 14.5q92 0 183 -33
t154 -74l34 178q-52 34 -148.5 63t-220.5 29q-139 0 -214.5 -48.5t-75.5 -138.5q0 -57 35.5 -92.5t86.5 -54t129 -36.5q51 -12 81 -21.5t50 -26.5t20 -44t-18 -41t-53 -14q-72 0 -169 34t-158 69l-35 -177q64 -35 161.5 -62t213.5 -27q127 0 198 49zM532 867l80 63h223
l-198 -150h-221l-141 150h200zM428 806h199l130 98h-135l-82 -65h-20l-59 65h-124z" />
    <glyph glyph-name="scaron" unicode="&#x161;" horiz-adv-x="700" 
d="M285.5 -0.5q-69.5 14.5 -121.5 35.5t-79 41l39 200q46 -32 122.5 -63t142.5 -31q22 0 31 5.5t9 16.5q0 10 -8 16t-26.5 11t-61.5 13q-66 13 -114.5 29t-84.5 48t-36 83q0 87 75.5 134t213.5 47q111 0 208.5 -30.5t149.5 -65.5l-39 -200q-49 34 -137 66.5t-161 32.5
q-35 0 -35 -17q0 -13 18 -20.5t72 -19.5q68 -15 115.5 -31.5t83 -50.5t35.5 -89q0 -82 -73 -128.5t-195 -46.5q-74 0 -143.5 14.5zM601 53.5q64 38.5 64 106.5q0 62 -56.5 92t-151.5 50q-63 13 -89.5 26.5t-26.5 42.5q0 24 18.5 35.5t48.5 11.5q63 0 138.5 -23.5
t137.5 -55.5l25 136q-55 31 -140.5 55.5t-181.5 24.5q-125 0 -191 -39t-66 -112q0 -41 30 -66t72 -38t107 -26q67 -13 94.5 -27t27.5 -43q0 -25 -19 -38.5t-53 -13.5q-57 0 -121 21.5t-121 51.5l-27 -136q50 -29 132.5 -51.5t176.5 -22.5q108 0 172 38.5zM436 727l80 63h223
l-198 -150h-221l-141 150h200zM332 666h199l130 98h-135l-82 -65h-20l-59 65h-124z" />
    <glyph glyph-name="uni0162" unicode="&#x162;" horiz-adv-x="830" 
d="M246 -243l19 98q43 -15 91 -15q17 0 25 3.5t8 11.5q0 7 -6.5 9t-18.5 2h-59l-23 30l58 104h-69l92 474h-271l45 226h809l-44 -226h-268l-92 -474h-65l-32 -54q47 -3 75 -30.5t28 -64.5q0 -55 -43 -83t-122 -28q-71 0 -137 17zM520 -149q0 29 -23.5 49.5t-64.5 20.5h-31
l64 109h51l92 474h268l32 166h-745l-33 -166h271l-92 -474h79l-74 -132l5 -6h45q23 0 38 -9t15 -28q0 -41 -61 -41q-33 0 -69 9l-9 -46q39 -11 105 -11q137 0 137 85z" />
    <glyph glyph-name="uni0163" unicode="&#x163;" horiz-adv-x="545" 
d="M185 -243l19 98q43 -15 91 -15q17 0 25 3.5t8 11.5q0 7 -6.5 9t-18.5 2h-59l-23 30l55 99q-75 19 -114.5 71.5t-39.5 129.5q0 34 7 68l39 199h-78l21 107h54q15 0 22 6t11 25l23 119h266l-29 -150h163l-21 -107h-163l-35 -179q-3 -13 -3 -24q0 -51 61 -51q19 0 39 4.5
t56 15.5l-43 -219q-55 -17 -103 -23l-25 -41q47 -3 75 -30.5t28 -64.5q0 -55 -43 -83t-122 -28q-71 0 -137 17zM459 -149q0 29 -23.5 49.5t-64.5 20.5h-31l57 95q44 5 87 17l30 153q-29 -7 -54 -7q-45 0 -68 20.5t-23 59.5q0 15 3 31l39 202h162l10 49h-163l29 149h-201
l-18 -95q-5 -29 -20.5 -41.5t-44.5 -12.5h-27l-10 -49h78l-46 -234q-7 -38 -7 -63q0 -77 43 -122.5t124 -55.5l-67 -119l5 -6h45q23 0 38 -9t15 -28q0 -41 -61 -41q-33 0 -69 9l-9 -46q39 -11 105 -11q137 0 137 85z" />
    <glyph glyph-name="Tcaron" unicode="&#x164;" horiz-adv-x="830" 
d="M542 0h-271l92 474h-271l45 226h809l-44 -226h-268zM401 504l-92 -474h207l92 474h268l32 166h-745l-33 -166h271zM547 867l80 63h223l-198 -150h-221l-141 150h200zM443 806h199l130 98h-135l-82 -65h-20l-59 65h-124z" />
    <glyph glyph-name="tcaron" unicode="&#x165;" horiz-adv-x="645" 
d="M460 355l27 139h54q49 0 73 14.5t34 41.5q-21 -14 -49 -14q-40 0 -64 23t-24 64q0 49 33.5 78t82.5 29q60 0 93 -37.5t33 -109.5q0 -59 -28.5 -111.5t-78.5 -84.5t-110 -32h-76zM185 42.5q-63 57.5 -63 156.5q0 33 7 65l39 199h-78l21 107h50q15 0 22.5 6t11.5 25l22 119
h271l-85 -436q-2 -9 -2 -23q0 -52 59 -52q22 0 42 4.5t53 15.5l-43 -219q-40 -13 -75.5 -19t-77.5 -6q-111 0 -174 57.5zM536 385q51 0 93.5 28t67 73.5t24.5 96.5q0 117 -94 117q-35 0 -59.5 -20t-24.5 -57q0 -57 56 -57q44 0 64 35h26q-3 -64 -39 -100.5t-109 -36.5h-28
l-15 -79h38zM484 33l30 153q-29 -7 -54 -7q-91 0 -91 79q0 16 3 32l78 400h-206l-18 -95q-5 -29 -20.5 -42t-44.5 -13h-24l-9 -47h78l-46 -235q-6 -33 -6 -63q0 -86 53.5 -133t151.5 -47q70 0 125 18z" />
    <glyph glyph-name="Tbar" unicode="&#x166;" horiz-adv-x="830" 
d="M542 0h-271l51 263h-124l28 140h124l14 71h-272l45 226h809l-44 -226h-268l-14 -71h126l-28 -140h-125zM360 293l-51 -263h207l51 263h125l16 80h-125l25 131h268l32 166h-745l-33 -166h271l-25 -131h-124l-16 -80h124z" />
    <glyph glyph-name="tbar" unicode="&#x167;" horiz-adv-x="575" 
d="M198.5 41q-61.5 56 -61.5 154q0 35 7 69l9 46h-78l21 107h78l9 48h-78l21 105h54q15 0 22 6t11 25l23 119h266l-29 -150h163l-21 -105h-163l-9 -48h163l-21 -107h-164l-5 -27q-3 -13 -3 -24q0 -26 15.5 -38t46.5 -12q20 0 40.5 4t54.5 16l-43 -219q-42 -13 -77.5 -19
t-75.5 -6q-114 0 -175.5 56zM499 33l30 154q-28 -8 -54 -8q-45 0 -68.5 20t-23.5 59q0 13 3 29l10 53h163l9 47h-163l21 107h163l9 47h-163l29 149h-201l-18 -95q-5 -29 -20.5 -41.5t-44.5 -12.5h-28l-9 -47h78l-21 -107h-78l-9 -47h78l-16 -82q-6 -33 -6 -63
q0 -86 53.5 -133t151.5 -47q65 0 125 18z" />
    <glyph glyph-name="Utilde" unicode="&#x168;" horiz-adv-x="960" 
d="M312 14q-92 34 -140 99t-48 156q0 47 8 85l68 346h270l-69 -357q-4 -23 -4 -37q0 -47 36.5 -73.5t103.5 -26.5q64 0 96.5 28.5t45.5 96.5l71 369h270l-83 -427q-29 -150 -128 -221.5t-276 -71.5q-129 0 -221 34zM789 75q90 65 117 204l76 391h-206l-67 -345
q-15 -78 -55.5 -113.5t-116.5 -35.5q-79 0 -125.5 35t-46.5 95q0 20 5 44l62 320h-206l-62 -322q-8 -39 -8 -79q0 -124 98 -191.5t279 -67.5q166 0 256 65zM672 780q-25 10 -47 26q-22 15 -33 15q-7 0 -11 -4.5t-6 -15.5l-5 -26h-198l13 68q8 44 38 68t80 24q33 0 58 -10
t51 -27q20 -14 36 -14q15 0 18 16l6 30h199l-14 -71q-9 -46 -37.5 -67.5t-86.5 -21.5q-36 0 -61 10zM800.5 811.5q20.5 15.5 28.5 53.5l8 39h-141l-2 -11q-6 -35 -44 -35q-21 0 -54 21q-23 14 -44 22t-49 8q-40 0 -60.5 -17t-28.5 -53l-8 -38h140l2 10q8 36 42 36
q22 0 52 -21q20 -14 40 -22t51 -8q47 0 67.5 15.5z" />
    <glyph glyph-name="utilde" unicode="&#x169;" horiz-adv-x="810" 
d="M596 570h270l-111 -570h-269l12 62q-35 -35 -87.5 -56t-107.5 -21q-103 0 -158.5 49t-55.5 138q0 33 7 65l66 333h270l-58 -299q-3 -13 -3 -26q0 -31 16 -47.5t47 -16.5q26 0 52.5 13.5t43.5 34.5zM729 30l99 510h-206l-62 -323q-19 -28 -55 -47t-71 -19
q-45 0 -69.5 25.5t-24.5 68.5q0 16 3 32l51 263h-206l-60 -309q-6 -31 -6 -60q0 -75 46 -115.5t135 -40.5q58 0 113.5 26.5t88.5 68.5h34l-15 -80h205zM576 640q-25 10 -47 26q-22 15 -33 15q-7 0 -11 -4.5t-6 -15.5l-5 -26h-198l13 68q8 44 38 68t80 24q33 0 58 -10t51 -27
q20 -14 36 -14q15 0 18 16l6 30h199l-14 -71q-9 -46 -37.5 -67.5t-86.5 -21.5q-36 0 -61 10zM704.5 671.5q20.5 15.5 28.5 53.5l8 39h-141l-2 -11q-6 -35 -44 -35q-21 0 -54 21q-23 14 -44 22t-49 8q-40 0 -60.5 -17t-28.5 -53l-8 -38h140l2 10q8 36 42 36q22 0 52 -21
q20 -14 40 -22t51 -8q47 0 67.5 15.5z" />
    <glyph glyph-name="Umacron" unicode="&#x16a;" horiz-adv-x="960" 
d="M312 14q-92 34 -140 99t-48 156q0 47 8 85l68 346h270l-69 -357q-4 -23 -4 -37q0 -47 36.5 -73.5t103.5 -26.5q64 0 96.5 28.5t45.5 96.5l71 369h270l-83 -427q-29 -150 -128 -221.5t-276 -71.5q-129 0 -221 34zM789 75q90 65 117 204l76 391h-206l-67 -345
q-15 -78 -55.5 -113.5t-116.5 -35.5q-79 0 -125.5 35t-46.5 95q0 20 5 44l62 320h-206l-62 -322q-8 -39 -8 -79q0 -124 98 -191.5t279 -67.5q166 0 256 65zM828 785h-440l26 135h440zM438 894l-16 -83h382l16 83h-382z" />
    <glyph glyph-name="umacron" unicode="&#x16b;" horiz-adv-x="810" 
d="M596 570h270l-111 -570h-269l12 62q-35 -35 -87.5 -56t-107.5 -21q-103 0 -158.5 49t-55.5 138q0 33 7 65l66 333h270l-58 -299q-3 -13 -3 -26q0 -31 16 -47.5t47 -16.5q26 0 52.5 13.5t43.5 34.5zM729 30l99 510h-206l-62 -323q-19 -28 -55 -47t-71 -19
q-45 0 -69.5 25.5t-24.5 68.5q0 16 3 32l51 263h-206l-60 -309q-6 -31 -6 -60q0 -75 46 -115.5t135 -40.5q58 0 113.5 26.5t88.5 68.5h34l-15 -80h205zM732 645h-440l26 135h440zM342 754l-16 -83h382l16 83h-382z" />
    <glyph glyph-name="Ubreve" unicode="&#x16c;" horiz-adv-x="960" 
d="M312 14q-92 34 -140 99t-48 156q0 47 8 85l68 346h270l-69 -357q-4 -23 -4 -37q0 -47 36.5 -73.5t103.5 -26.5q64 0 96.5 28.5t45.5 96.5l71 369h270l-83 -427q-29 -150 -128 -221.5t-276 -71.5q-129 0 -221 34zM789 75q90 65 117 204l76 391h-206l-67 -345
q-15 -78 -55.5 -113.5t-116.5 -35.5q-79 0 -125.5 35t-46.5 95q0 20 5 44l62 320h-206l-62 -322q-8 -39 -8 -79q0 -124 98 -191.5t279 -67.5q166 0 256 65zM445 815.5q-59 40.5 -62 114.5h167q5 -24 19 -35t46 -11q58 0 71 46h167q-16 -79 -73 -117t-165 -38
q-111 0 -170 40.5zM751 826q48 25 69 78h-114q-21 -46 -91 -46q-34 0 -56 12.5t-27 33.5h-117q8 -49 58.5 -76t141.5 -27q88 0 136 25z" />
    <glyph glyph-name="ubreve" unicode="&#x16d;" horiz-adv-x="810" 
d="M596 570h270l-111 -570h-269l12 62q-35 -35 -87.5 -56t-107.5 -21q-103 0 -158.5 49t-55.5 138q0 33 7 65l66 333h270l-58 -299q-3 -13 -3 -26q0 -31 16 -47.5t47 -16.5q26 0 52.5 13.5t43.5 34.5zM729 30l99 510h-206l-62 -323q-19 -28 -55 -47t-71 -19
q-45 0 -69.5 25.5t-24.5 68.5q0 16 3 32l51 263h-206l-60 -309q-6 -31 -6 -60q0 -75 46 -115.5t135 -40.5q58 0 113.5 26.5t88.5 68.5h34l-15 -80h205zM349 675.5q-59 40.5 -62 114.5h167q5 -24 19 -35t46 -11q58 0 71 46h167q-16 -79 -73 -117t-165 -38q-111 0 -170 40.5z
M655 686q48 25 69 78h-114q-21 -46 -91 -46q-34 0 -56 12.5t-27 33.5h-117q8 -49 58.5 -76t141.5 -27q88 0 136 25z" />
    <glyph glyph-name="Uring" unicode="&#x16e;" horiz-adv-x="960" 
d="M312 14q-92 34 -140 99t-48 156q0 47 8 85l68 346h270l-69 -357q-4 -23 -4 -37q0 -47 36.5 -73.5t103.5 -26.5q64 0 96.5 28.5t45.5 96.5l71 369h270l-83 -427q-29 -150 -128 -221.5t-276 -71.5q-129 0 -221 34zM789 75q90 65 117 204l76 391h-206l-67 -345
q-15 -78 -55.5 -113.5t-116.5 -35.5q-79 0 -125.5 35t-46.5 95q0 20 5 44l62 320h-206l-62 -322q-8 -39 -8 -79q0 -124 98 -191.5t279 -67.5q166 0 256 65zM499 776.5q-44 31.5 -44 84.5q0 56 42 90t114 34q76 0 120 -31.5t44 -84.5q0 -56 -42 -90t-114 -34q-76 0 -120 31.5
zM713 797.5q34 26.5 34 71.5q0 42 -36 66t-100 24q-60 0 -94 -26.5t-34 -71.5q0 -42 36 -66t100 -24q60 0 94 26.5zM569 831.5q-16 11.5 -16 32.5q0 22 16 34t46 12q29 0 45.5 -11.5t16.5 -32.5q0 -22 -16 -34t-47 -12q-29 0 -45 11.5zM649 866q0 18 -34 18t-34 -20
q0 -18 33 -18q35 0 35 20z" />
    <glyph glyph-name="uring" unicode="&#x16f;" horiz-adv-x="810" 
d="M596 570h270l-111 -570h-269l12 62q-35 -35 -87.5 -56t-107.5 -21q-103 0 -158.5 49t-55.5 138q0 33 7 65l66 333h270l-58 -299q-3 -13 -3 -26q0 -31 16 -47.5t47 -16.5q26 0 52.5 13.5t43.5 34.5zM729 30l99 510h-206l-62 -323q-19 -28 -55 -47t-71 -19
q-45 0 -69.5 25.5t-24.5 68.5q0 16 3 32l51 263h-206l-60 -309q-6 -31 -6 -60q0 -75 46 -115.5t135 -40.5q58 0 113.5 26.5t88.5 68.5h34l-15 -80h205zM403 636.5q-44 31.5 -44 84.5q0 56 42 90t114 34q76 0 120 -31.5t44 -84.5q0 -56 -42 -90t-114 -34q-76 0 -120 31.5z
M617 657.5q34 26.5 34 71.5q0 42 -36 66t-100 24q-60 0 -94 -26.5t-34 -71.5q0 -42 36 -66t100 -24q60 0 94 26.5zM473 691.5q-16 11.5 -16 32.5q0 22 16 34t46 12q29 0 45.5 -11.5t16.5 -32.5q0 -22 -16 -34t-47 -12q-29 0 -45 11.5zM553 726q0 18 -34 18t-34 -20
q0 -18 33 -18q35 0 35 20z" />
    <glyph glyph-name="Uhungarumlaut" unicode="&#x170;" horiz-adv-x="960" 
d="M312 14q-92 34 -140 99t-48 156q0 47 8 85l68 346h270l-69 -357q-4 -23 -4 -37q0 -47 36.5 -73.5t103.5 -26.5q64 0 96.5 28.5t45.5 96.5l71 369h270l-83 -427q-29 -150 -128 -221.5t-276 -71.5q-129 0 -221 34zM789 75q90 65 117 204l76 391h-206l-67 -345
q-15 -78 -55.5 -113.5t-116.5 -35.5q-79 0 -125.5 35t-46.5 95q0 20 5 44l62 320h-206l-62 -322q-8 -39 -8 -79q0 -124 98 -191.5t279 -67.5q166 0 256 65zM316 760h-29v71l244 129h95l-16 -137zM664 760h-29v71l244 129h95l-16 -137zM315 815v-28l269 56l10 91h-55z
M663 815v-28l269 56l10 91h-55z" />
    <glyph glyph-name="uhungarumlaut" unicode="&#x171;" horiz-adv-x="810" 
d="M596 570h270l-111 -570h-269l12 62q-35 -35 -87.5 -56t-107.5 -21q-103 0 -158.5 49t-55.5 138q0 33 7 65l66 333h270l-58 -299q-3 -13 -3 -26q0 -31 16 -47.5t47 -16.5q26 0 52.5 13.5t43.5 34.5zM729 30l99 510h-206l-62 -323q-19 -28 -55 -47t-71 -19
q-45 0 -69.5 25.5t-24.5 68.5q0 16 3 32l51 263h-206l-60 -309q-6 -31 -6 -60q0 -75 46 -115.5t135 -40.5q58 0 113.5 26.5t88.5 68.5h34l-15 -80h205zM220 620h-29v71l244 129h95l-16 -137zM568 620h-29v71l244 129h95l-16 -137zM219 675v-28l269 56l10 91h-55zM567 675
v-28l269 56l10 91h-55z" />
    <glyph glyph-name="Uogonek" unicode="&#x172;" horiz-adv-x="960" 
d="M433.5 -206q-36.5 24 -36.5 67q0 65 81 122q-169 8 -261.5 82.5t-92.5 203.5q0 47 8 85l68 346h270l-69 -357q-4 -23 -4 -37q0 -47 36.5 -73.5t103.5 -26.5q64 0 96.5 28.5t45.5 96.5l71 369h270l-83 -427q-26 -131 -93.5 -197t-178.5 -100q-69 -21 -97 -35.5t-28 -30.5
q0 -17 34 -17q32 0 82 12l-24 -125q-52 -10 -96 -10q-66 0 -102.5 24zM608 -198l14 71q-21 -5 -48 -5q-29 0 -45.5 10t-16.5 29q0 27 30.5 47t114.5 47q72 23 120 54t80.5 84.5t48.5 139.5l76 391h-206l-67 -345q-15 -78 -55.5 -113.5t-116.5 -35.5q-79 0 -125.5 35
t-46.5 95q0 20 5 44l62 320h-206l-62 -322q-8 -39 -8 -79q0 -124 95 -191.5t270 -67.5h12v-26q-50 -24 -79 -56.5t-29 -66.5q0 -32 28.5 -48.5t82.5 -16.5q34 0 72 6z" />
    <glyph glyph-name="uogonek" unicode="&#x173;" horiz-adv-x="810" 
d="M534.5 -206q-36.5 24 -36.5 67q0 71 98 139h-110l12 62q-35 -35 -87.5 -56t-107.5 -21q-103 0 -158.5 49t-55.5 138q0 33 7 65l66 333h270l-58 -299q-3 -13 -3 -26q0 -31 16 -47.5t47 -16.5q26 0 52.5 13.5t43.5 34.5l66 341h270l-111 -570q-57 -36 -84.5 -58t-27.5 -35
q0 -8 7 -11t27 -3q36 0 79 11l-24 -123q-49 -11 -96 -11q-65 0 -101.5 24zM708 -197l13 70q-27 -5 -44 -5q-64 0 -64 37q0 21 26 45.5t87 63.5l102 526h-206l-62 -323q-19 -28 -55 -47t-71 -19q-45 0 -69.5 25.5t-24.5 68.5q0 16 3 32l51 263h-206l-60 -309q-6 -31 -6 -60
q0 -75 46 -115.5t135 -40.5q58 0 113.5 26.5t88.5 68.5h34l-15 -80h132l-5 -27q-58 -34 -91.5 -71t-33.5 -71q0 -31 28.5 -48t81.5 -17q37 0 72 7z" />
    <glyph glyph-name="Wcircumflex" unicode="&#x174;" horiz-adv-x="1345" 
d="M969 248l198 452h306l-313 -700h-392l-21 390l-171 -390h-408l-40 700h294l17 -454l215 454h277zM798 30h340l287 640h-236l-211 -483h-36l-41 483h-227l-229 -483h-35l-18 483h-230l36 -640h356l184 421h37zM930 930l141 -150h-201l-55 63l-82 -63h-222l199 150h220z
M723 806l84 65h20l57 -65h125l-91 98h-198l-131 -98h134z" />
    <glyph glyph-name="wcircumflex" unicode="&#x175;" horiz-adv-x="1110" 
d="M798 276l133 294h285l-266 -570h-334l-23 256l-122 -256h-331l-44 570h260l19 -293l142 293h253zM646 30h284l238 510h-215l-150 -332h-31l-32 332h-203l-161 -331h-29l-21 331h-196l40 -510h281l138 289h31zM783 790l141 -150h-201l-55 63l-82 -63h-222l199 150h220z
M576 666l84 65h20l57 -65h125l-91 98h-198l-131 -98h134z" />
    <glyph glyph-name="Ycircumflex" unicode="&#x176;" horiz-adv-x="930" 
d="M509 407l245 293h327l-467 -553l-29 -147h-270l29 152l-248 548h281zM559 30l25 128l431 512h-245l-252 -301h-28l-135 301h-211l233 -514l-25 -126h207zM700 930l141 -150h-201l-55 63l-82 -63h-222l199 150h220zM493 806l84 65h20l57 -65h125l-91 98h-198l-131 -98h134
z" />
    <glyph glyph-name="ycircumflex" unicode="&#x177;" horiz-adv-x="770" 
d="M434 349l141 221h304l-508 -760h-302l190 285l-181 475h277zM127 -160h226l468 700h-228l-147 -231h-30l-83 231h-209l171 -449zM608 790l141 -150h-201l-55 63l-82 -63h-222l199 150h220zM401 666l84 65h20l57 -65h125l-91 98h-198l-131 -98h134z" />
    <glyph glyph-name="Ydieresis" unicode="&#x178;" horiz-adv-x="930" 
d="M509 407l245 293h327l-467 -553l-29 -147h-270l29 152l-248 548h281zM559 30l25 128l431 512h-245l-252 -301h-28l-135 301h-211l233 -514l-25 -126h207zM344 783q-32 28 -32 73q0 48 33.5 78.5t85.5 30.5t84 -28t32 -73q0 -47 -34 -78t-86 -31q-51 0 -83 28zM638 783
q-32 28 -32 73q0 47 33.5 78t85.5 31t84 -28t32 -73q0 -48 -33.5 -78.5t-86.5 -30.5q-51 0 -83 28zM493.5 804.5q25.5 23.5 25.5 59.5q0 34 -24 54.5t-64 20.5t-65.5 -23t-25.5 -60q0 -34 23.5 -54.5t63.5 -20.5q41 0 66.5 23.5zM787.5 804q25.5 23 25.5 60q0 34 -24 54.5
t-64 20.5t-65.5 -23.5t-25.5 -59.5q0 -34 23.5 -54.5t63.5 -20.5q41 0 66.5 23z" />
    <glyph glyph-name="Zacute" unicode="&#x179;" horiz-adv-x="900" 
d="M213 700h736l-51 -259l-392 -179h378l-52 -262h-755l51 262l393 176h-359zM435 232l8 34l427 195l41 209h-672l-39 -202h390l-7 -35l-427 -191l-41 -212h691l40 202h-411zM438 760h-28l-2 62l300 138h74l-10 -152zM436 806l1 -20l309 44l6 104h-38z" />
    <glyph glyph-name="zacute" unicode="&#x17a;" horiz-adv-x="730" 
d="M166 570h620l-42 -215l-350 -138h319l-43 -217h-618l40 215l350 138h-318zM324 187l7 36l385 152l32 165h-556l-30 -157h350l-7 -36l-383 -151l-32 -166h554l31 157h-351zM337 620h-28l-2 62l300 138h74l-10 -152zM335 666l1 -20l309 44l6 104h-38z" />
    <glyph glyph-name="Zdotaccent" unicode="&#x17b;" horiz-adv-x="900" 
d="M213 700h736l-51 -259l-392 -179h378l-52 -262h-755l51 262l393 176h-359zM435 232l8 34l427 195l41 209h-672l-39 -202h390l-7 -35l-427 -191l-41 -212h691l40 202h-411zM480 794q-35 27 -35 72q0 48 35.5 77.5t95.5 29.5q58 0 93.5 -27t35.5 -71q0 -49 -35.5 -78.5
t-95.5 -29.5q-59 0 -94 27zM649.5 815q27.5 22 27.5 60q0 33 -27 52.5t-74 19.5q-48 0 -75.5 -22t-27.5 -59q0 -33 27 -53t74 -20q48 0 75.5 22z" />
    <glyph glyph-name="zdotaccent" unicode="&#x17c;" horiz-adv-x="730" 
d="M166 570h620l-42 -215l-350 -138h319l-43 -217h-618l40 215l350 138h-318zM324 187l7 36l385 152l32 165h-556l-30 -157h350l-7 -36l-383 -151l-32 -166h554l31 157h-351zM384 654q-35 27 -35 72q0 48 35.5 77.5t95.5 29.5q58 0 93.5 -27t35.5 -71q0 -49 -35.5 -78.5
t-95.5 -29.5q-59 0 -94 27zM553.5 675q27.5 22 27.5 60q0 33 -27 52.5t-74 19.5q-48 0 -75.5 -22t-27.5 -59q0 -33 27 -53t74 -20q48 0 75.5 22z" />
    <glyph glyph-name="Zcaron" unicode="&#x17d;" horiz-adv-x="900" 
d="M213 700h736l-51 -259l-392 -179h378l-52 -262h-755l51 262l393 176h-359zM435 232l8 34l427 195l41 209h-672l-39 -202h390l-7 -35l-427 -191l-41 -212h691l40 202h-411zM577 867l80 63h223l-198 -150h-221l-141 150h200zM473 806h199l130 98h-135l-82 -65h-20l-59 65
h-124z" />
    <glyph glyph-name="zcaron" unicode="&#x17e;" horiz-adv-x="730" 
d="M166 570h620l-42 -215l-350 -138h319l-43 -217h-618l40 215l350 138h-318zM324 187l7 36l385 152l32 165h-556l-30 -157h350l-7 -36l-383 -151l-32 -166h554l31 157h-351zM481 727l80 63h223l-198 -150h-221l-141 150h200zM377 666h199l130 98h-135l-82 -65h-20l-59 65
h-124z" />
    <glyph glyph-name="uni018F" unicode="&#x18f;" horiz-adv-x="1100" 
d="M360.5 24q-110.5 44 -171 123.5t-60.5 183.5q0 36 6 69h674q-28 52 -92 80.5t-153 28.5q-103 0 -190.5 -22t-153.5 -52l45 227q47 21 131 39.5t190 18.5q157 0 275.5 -44.5t183 -126t64.5 -189.5q0 -110 -63 -196.5t-175 -135t-256 -48.5t-254.5 44zM855 55
q105 45 163.5 124.5t58.5 180.5q0 100 -60.5 174.5t-171.5 115t-259 40.5q-93 0 -168.5 -15t-125.5 -35l-30 -155q66 23 139.5 38.5t162.5 15.5q115 0 193 -45.5t96 -122.5h-690q-2 -28 -2 -40q0 -96 56.5 -168.5t159 -112.5t238.5 -40q135 0 240 45zM447.5 180.5
q-68.5 42.5 -81.5 114.5h481q-19 -71 -83.5 -114t-148.5 -43q-99 0 -167.5 42.5zM726 193.5q49 25.5 74 71.5h-391q23 -46 77 -71.5t129 -25.5q62 0 111 25.5z" />
    <glyph glyph-name="florin" unicode="&#x192;" horiz-adv-x="680" 
d="M-74 -190l69 223h97q28 0 38 8t20 38l82 263h-104l32 107h104l24 76q23 72 54.5 114.5t78 61.5t116.5 19h260l-69 -223h-131q-25 0 -34.5 -6.5t-15.5 -27.5l-4 -14h151l-32 -107h-152l-97 -315q-34 -109 -101.5 -163t-173.5 -54h-212zM138 -160q96 0 155 47.5t90 147.5
l103 337h153l13 47h-153l17 54q10 30 27 42t51 12h110l51 163h-218q-63 0 -103.5 -16t-67.5 -53.5t-48 -103.5l-31 -98h-103l-14 -47h104l-94 -303q-12 -38 -30.5 -52t-57.5 -14h-73l-51 -163h170z" />
    <glyph glyph-name="uni01F4" unicode="&#x1f4;" horiz-adv-x="1005" 
d="M368 23.5q-114 43.5 -176.5 125t-62.5 190.5q0 112 65.5 198.5t184.5 134.5t273 48q122 0 238.5 -29.5t180.5 -61.5l-40 -206q-55 30 -158 60t-216 30q-75 0 -131 -21t-85.5 -59t-29.5 -88q0 -46 30.5 -82t87 -56t132.5 -20q49 0 90.5 4.5t61.5 13.5l5 26h-244l32 165
h420l-69 -355q-41 -21 -130 -41t-194 -20q-151 0 -265 43.5zM803 25.5q78 15.5 126 34.5l60 306h-357l-20 -105h245l-15 -77q-64 -27 -181 -27q-84 0 -148 24t-99 66.5t-35 97.5q0 59 34 103.5t97 69.5t147 25q95 0 187 -22.5t163 -52.5l28 145q-67 30 -171 53.5t-212 23.5
q-146 0 -257.5 -44.5t-172.5 -124t-61 -182.5q0 -100 58 -174.5t165 -114.5t249 -40q92 0 170 15.5zM493 760h-28l-2 62l300 138h74l-10 -152zM491 806l1 -20l309 44l6 104h-38z" />
    <glyph glyph-name="uni01F5" unicode="&#x1f5;" horiz-adv-x="850" 
d="M636 570h270l-91 -468q-30 -156 -129 -231.5t-273 -75.5q-113 0 -210.5 26.5t-140.5 57.5l41 214q60 -39 124 -64.5t145 -25.5q76 0 120.5 32.5t57.5 91.5q-31 -31 -83.5 -49t-108.5 -18q-75 0 -134.5 31t-93 86.5t-33.5 124.5q0 85 37 149t107 99t167 35q64 0 122 -23.5
t93 -61.5zM868 540h-206l-15 -81h-29q-30 42 -87.5 69t-122.5 27q-132 0 -205.5 -68.5t-73.5 -184.5q0 -61 29 -109.5t81 -75.5t119 -27q61 0 116.5 23.5t78.5 57.5h39l-9 -47q-15 -77 -66 -114t-145 -37q-65 0 -131.5 20.5t-113.5 48.5l-29 -150q50 -27 133.5 -47
t181.5 -20q163 0 252.5 68.5t118.5 214.5zM562.5 401.5q43.5 -19.5 63.5 -49.5l-15 -77q-19 -25 -58 -41t-81 -16q-57 0 -93.5 27.5t-36.5 72.5q0 48 35 75.5t96 27.5q46 0 89.5 -19.5zM592 345q-19 20 -52 33t-67 13q-48 0 -73.5 -19t-25.5 -54q0 -32 27 -51t71 -19
q33 0 62.5 11t46.5 29zM378 620h-28l-2 62l300 138h74l-10 -152zM376 666l1 -20l309 44l6 104h-38z" />
    <glyph glyph-name="Aringacute" unicode="&#x1fa;" horiz-adv-x="980" 
d="M10 0l461 700h42q-40 30 -40 76q0 36 24.5 68t84.5 64l172 92h59v-124l-41 -7q19 -16 29.5 -37t10.5 -42q0 -57 -47 -90h45l190 -700h-291l-30 124h-271l-79 -124h-319zM68 30h243l79 124h315l30 -124h223l-172 640h-90l5 30q41 11 62 34t21 56q0 22 -13.5 41.5
t-39.5 31.5l4 25l50 10v76h-23l-166 -88q-54 -28 -74.5 -54t-20.5 -56q0 -26 18.5 -45.5t52.5 -30.5l-6 -30h-77zM597 752.5q-17 12.5 -17 33.5q0 22 17 35t46 13q28 0 45 -13t17 -33q0 -23 -16.5 -35.5t-46.5 -12.5q-28 0 -45 12.5zM677 788q0 9 -9 14.5t-25 5.5
q-17 0 -26 -6t-9 -16q0 -9 9 -14.5t25 -5.5q35 0 35 22zM684 235h-243l153 240h31zM603 430l-106 -165h147z" />
    <glyph glyph-name="aringacute" unicode="&#x1fb;" 
d="M401.5 635.5q-47.5 30.5 -47.5 80.5q0 36 24.5 68t84.5 64l172 92h59v-124l-41 -7q19 -16 29.5 -37t10.5 -42q0 -57 -45 -91t-120 -34q-79 0 -126.5 30.5zM477 826q-54 -28 -74.5 -54t-20.5 -56q0 -39 39 -62t107 -23q63 0 100 27t37 72q0 22 -13.5 41.5t-39.5 31.5l4 25
l50 10v76h-23zM478 692.5q-17 12.5 -17 33.5q0 22 17 35t46 13q28 0 45 -13t17 -33q0 -23 -16.5 -35.5t-46.5 -12.5q-28 0 -45 12.5zM498 742q-9 -6 -9 -16q0 -9 9 -14.5t25 -5.5q35 0 35 22q0 9 -9 14.5t-25 5.5q-17 0 -26 -6zM638.5 559.5q83.5 -25.5 131.5 -76.5t48 -125
q0 -19 -5 -47l-61 -311h-271l11 53q-38 -29 -90.5 -48.5t-114.5 -19.5q-100 0 -158 41.5t-58 111.5q0 90 67.5 132t218.5 49l22 1q79 4 114 7.5t45.5 9t10.5 15.5q0 28 -128 28q-160 0 -277 -45l41 211q28 13 101 26t162 13q107 0 190.5 -25.5zM781 316q4 20 4 42
q0 99 -93.5 148t-243.5 49q-77 0 -139 -10t-96 -23l-27 -137q108 25 235 25q76 0 118 -12.5t42 -45.5q0 -22 -15.5 -33.5t-57 -18t-127.5 -10.5l-22 -1q-93 -4 -149 -20t-81.5 -48t-25.5 -83q0 -57 48.5 -90t135.5 -33q63 0 121 24t90 62h35l-14 -71h206zM457 256
q69 6 111 28l-19 -102q-19 -16 -59.5 -31t-90.5 -15q-35 0 -57 13t-22 39q0 29 26.5 44.5t81.5 20.5zM528 240q-21 -7 -69 -12l-29 -3q-44 -5 -62 -13t-18 -24q0 -11 13 -17.5t36 -6.5q36 0 67 9t53 23z" />
    <glyph glyph-name="AEacute" unicode="&#x1fc;" horiz-adv-x="1235" 
d="M315 0h-315l441 700h865l-40 -207h-322l-14 -75h283l-28 -140h-283l-13 -71h341l-41 -207h-610l32 168h-192zM459 670l-403 -640h241l104 168h248l-32 -168h546l29 147h-341l25 131h283l16 80h-283l26 135h322l28 147h-809zM664 278h-214l152 245h111zM620 493l-114 -185
h132l37 185h-55zM748 760h-28l-2 62l300 138h74l-10 -152zM746 806l1 -20l309 44l6 104h-38z" />
    <glyph glyph-name="aeacute" unicode="&#x1fd;" horiz-adv-x="1219" 
d="M139 29.5q-66 44.5 -66 122.5q0 85 64 135.5t174 50.5h206q-5 23 -32 32t-96 9q-132 0 -243 -37l41 211q103 32 246 32q84 0 150 -20.5t98 -56.5q36 35 102 56t142 21q98 0 169.5 -33.5t109.5 -95t38 -141.5q0 -20 -5 -50h-440q16 -38 58.5 -51.5t121.5 -13.5
q95 0 179 23l-41 -211q-21 -12 -77.5 -19.5t-121.5 -7.5q-95 0 -178 26.5t-139 73.5q-38 -38 -119.5 -69t-167.5 -31q-107 0 -173 44.5zM426 30q56 15 98 38.5t61 46.5h25q52 -47 132 -73.5t174 -26.5q58 0 104.5 5.5t65.5 12.5l29 152q-30 -6 -68 -10.5t-70 -4.5
q-107 0 -160.5 29.5t-60.5 95.5h453q1 8 1 20q0 72 -33.5 126.5t-97.5 84t-154 29.5q-78 0 -142 -22.5t-92 -58.5h-27q-22 38 -83 59.5t-148 21.5q-126 0 -217 -25l-28 -145q90 24 201 24q63 0 96 -8.5t48 -30t19 -62.5h-241q-97 0 -151.5 -42t-54.5 -114q0 -64 57 -100.5
t150 -36.5q58 0 114 15zM755 333q6 52 43 83t98 31q60 0 91 -31t31 -83h-263zM980 363q-3 24 -25 39t-59 15q-40 0 -63 -14t-34 -40h181zM345.5 154q-26.5 17 -26.5 49q0 31 24.5 48t65.5 17h139v-32q0 -37 20 -68q-25 -14 -63.5 -22.5t-82.5 -8.5q-50 0 -76.5 17zM526 182
q-10 32 -10 54v2h-106q-59 0 -59 -35q0 -36 71 -36q59 0 104 15zM563 620h-28l-2 62l300 138h74l-10 -152zM561 666l1 -20l309 44l6 104h-38z" />
    <glyph glyph-name="Oslashacute" unicode="&#x1fe;" horiz-adv-x="1140" 
d="M473 -3.5q-81 16.5 -145 48.5l-64 -45h-228l175 129q-82 88 -82 211q0 112 63 198t178 134t264 48q181 0 317 -64l63 44h228l-175 -129q82 -90 82 -211q0 -111 -63 -197.5t-177.5 -134.5t-263.5 -48q-91 0 -172 16.5zM892 54q107 44 166 123.5t59 182.5q0 129 -97 214
l128 96h-124l-70 -50q-64 34 -145.5 52t-174.5 18q-141 0 -248 -44t-166 -123.5t-59 -182.5q0 -130 98 -214l-129 -96h124l71 51q62 -35 144 -53t176 -18q140 0 247 44zM419 242q-41 46 -41 108q0 55 32.5 97.5t91 66.5t133.5 24q96 0 161 -34zM731 497q-46 11 -96 11
q-67 0 -118 -20t-79 -56t-28 -82q0 -35 16 -65zM483 194l376 264q41 -46 41 -108q0 -55 -32.5 -97.5t-91 -66.5t-133.5 -24q-94 0 -160 32zM761 212q51 20 79 56t28 82q0 35 -16 65l-305 -212q46 -11 96 -11q67 0 118 20zM513 760h-28l-2 62l300 138h74l-10 -152zM511 806
l1 -20l309 44l6 104h-38z" />
    <glyph glyph-name="oslashacute" unicode="&#x1ff;" horiz-adv-x="880" 
d="M243 39l-53 -40h-146l123 95q-71 73 -71 173q0 93 50 165.5t141 112.5t209 40q150 0 253 -54l53 40h146l-123 -95q71 -73 71 -172q0 -94 -50 -166.5t-141 -112.5t-210 -40q-146 0 -252 54zM688 51.5q84 36.5 130 102t46 150.5q0 53 -21.5 95.5t-65.5 77.5l81 64h-44
l-64 -46q-49 30 -114 45t-140 15q-110 0 -193.5 -36t-129 -101.5t-45.5 -150.5q0 -105 87 -174l-81 -64h44l63 46q49 -29 114.5 -44.5t139.5 -15.5q109 0 193 36.5zM366 204q-21 32 -21 71q0 64 42.5 106.5t110.5 42.5q33 0 62 -10t47 -28zM553 384q-27 10 -55 10
q-54 0 -87.5 -33.5t-33.5 -85.5q0 -8 2 -22zM432 156q-29 10 -48 27l243 184q19 -35 19 -71q0 -67 -42.5 -108.5t-109.5 -41.5q-33 0 -62 10zM581 208.5q33 32.5 33 87.5q0 7 -2 21l-173 -131q27 -10 55 -10q54 0 87 32.5zM373 620h-28l-2 62l300 138h74l-10 -152zM371 666
l1 -20l309 44l6 104h-38z" />
    <glyph glyph-name="uni0218" unicode="&#x218;" horiz-adv-x="825" 
d="M274.5 13q-108.5 33 -170.5 72l47 242q31 -22 93.5 -51.5t132.5 -51t124 -21.5q39 0 39 25q0 20 -26 32.5t-100 29.5q-80 18 -136.5 39.5t-98 64t-41.5 109.5q0 104 84.5 160.5t237.5 56.5q97 0 181.5 -19.5t142 -45.5t79.5 -45l-47 -242q-66 51 -162.5 90t-195.5 39
q-24 0 -34.5 -6.5t-10.5 -19.5q0 -19 25.5 -31t97.5 -29q80 -18 137.5 -40t99.5 -64.5t42 -109.5q0 -103 -80.5 -160t-220.5 -57q-131 0 -239.5 33zM712 59q71 49 71 138q0 57 -36.5 93t-88.5 55t-129 37q-73 17 -110.5 35t-37.5 54q0 27 20 41.5t57 14.5q92 0 183 -33
t154 -74l34 178q-52 34 -148.5 63t-220.5 29q-139 0 -214.5 -48.5t-75.5 -138.5q0 -57 35.5 -92.5t86.5 -54t129 -36.5q51 -12 81 -21.5t50 -26.5t20 -44t-18 -41t-53 -14q-72 0 -169 34t-158 69l-35 -177q64 -35 161.5 -62t213.5 -27q127 0 198 49zM299 -350l16 84h73
q29 0 46 6.5t25 24.5q-24 -11 -47 -11q-44 0 -68 23t-24 58q0 43 32.5 69t82.5 26q60 0 96.5 -32.5t36.5 -89.5q0 -44 -21.5 -80.5t-61 -57t-91.5 -20.5h-95zM396 -322q65 0 102.5 37t37.5 93q0 45 -27.5 68.5t-73.5 23.5q-37 0 -60 -17.5t-23 -47.5q0 -22 16 -36.5
t44 -14.5q40 0 61 27h27q-7 -57 -33.5 -81t-80.5 -24h-44l-5 -28h59z" />
    <glyph glyph-name="uni0219" unicode="&#x219;" horiz-adv-x="700" 
d="M285.5 -0.5q-69.5 14.5 -121.5 35.5t-79 41l39 200q46 -32 122.5 -63t142.5 -31q22 0 31 5.5t9 16.5q0 10 -8 16t-26.5 11t-61.5 13q-66 13 -114.5 29t-84.5 48t-36 83q0 87 75.5 134t213.5 47q111 0 208.5 -30.5t149.5 -65.5l-39 -200q-49 34 -137 66.5t-161 32.5
q-35 0 -35 -17q0 -13 18 -20.5t72 -19.5q68 -15 115.5 -31.5t83 -50.5t35.5 -89q0 -82 -73 -128.5t-195 -46.5q-74 0 -143.5 14.5zM601 53.5q64 38.5 64 106.5q0 62 -56.5 92t-151.5 50q-63 13 -89.5 26.5t-26.5 42.5q0 24 18.5 35.5t48.5 11.5q63 0 138.5 -23.5
t137.5 -55.5l25 136q-55 31 -140.5 55.5t-181.5 24.5q-125 0 -191 -39t-66 -112q0 -41 30 -66t72 -38t107 -26q67 -13 94.5 -27t27.5 -43q0 -25 -19 -38.5t-53 -13.5q-57 0 -121 21.5t-121 51.5l-27 -136q50 -29 132.5 -51.5t176.5 -22.5q108 0 172 38.5zM234 -350l16 84h73
q29 0 46 6.5t25 24.5q-24 -11 -47 -11q-44 0 -68 23t-24 58q0 43 32.5 69t82.5 26q60 0 96.5 -32.5t36.5 -89.5q0 -44 -21.5 -80.5t-61 -57t-91.5 -20.5h-95zM331 -322q65 0 102.5 37t37.5 93q0 45 -27.5 68.5t-73.5 23.5q-37 0 -60 -17.5t-23 -47.5q0 -22 16 -36.5
t44 -14.5q40 0 61 27h27q-7 -57 -33.5 -81t-80.5 -24h-44l-5 -28h59z" />
    <glyph glyph-name="uni021A" unicode="&#x21a;" horiz-adv-x="830" 
d="M542 0h-271l92 474h-271l45 226h809l-44 -226h-268zM401 504l-92 -474h207l92 474h268l32 166h-745l-33 -166h271zM234 -350l16 84h73q29 0 46 6.5t25 24.5q-24 -11 -47 -11q-44 0 -68 23t-24 58q0 43 32.5 69t82.5 26q60 0 96.5 -32.5t36.5 -89.5q0 -44 -21.5 -80.5
t-61 -57t-91.5 -20.5h-95zM331 -322q65 0 102.5 37t37.5 93q0 45 -27.5 68.5t-73.5 23.5q-37 0 -60 -17.5t-23 -47.5q0 -22 16 -36.5t44 -14.5q40 0 61 27h27q-7 -57 -33.5 -81t-80.5 -24h-44l-5 -28h59z" />
    <glyph glyph-name="uni021B" unicode="&#x21b;" horiz-adv-x="545" 
d="M183.5 41q-61.5 56 -61.5 154q0 35 7 69l39 199h-78l21 107h54q15 0 22 6t11 25l23 119h266l-29 -150h163l-21 -107h-163l-35 -179q-3 -13 -3 -24q0 -51 61 -51q19 0 39 4.5t56 15.5l-43 -219q-42 -13 -77.5 -19t-75.5 -6q-114 0 -175.5 56zM484 33l30 153q-29 -7 -54 -7
q-45 0 -68 20.5t-23 59.5q0 15 3 31l39 202h162l10 49h-163l29 149h-201l-18 -95q-5 -29 -20.5 -41.5t-44.5 -12.5h-27l-10 -49h78l-46 -234q-6 -33 -6 -63q0 -86 53.5 -133t151.5 -47q63 0 125 18zM144 -350l16 84h73q29 0 46 6.5t25 24.5q-24 -11 -47 -11q-44 0 -68 23
t-24 58q0 43 32.5 69t82.5 26q60 0 96.5 -32.5t36.5 -89.5q0 -44 -21.5 -80.5t-61 -57t-91.5 -20.5h-95zM241 -322q65 0 102.5 37t37.5 93q0 45 -27.5 68.5t-73.5 23.5q-37 0 -60 -17.5t-23 -47.5q0 -22 16 -36.5t44 -14.5q40 0 61 27h27q-7 -57 -33.5 -81t-80.5 -24h-44
l-5 -28h59z" />
    <glyph glyph-name="uni0232" unicode="&#x232;" horiz-adv-x="930" 
d="M509 407l245 293h327l-467 -553l-29 -147h-270l29 152l-248 548h281zM559 30l25 128l431 512h-245l-252 -301h-28l-135 301h-211l233 -514l-25 -126h207zM782 785h-440l26 135h440zM392 894l-16 -83h382l16 83h-382z" />
    <glyph glyph-name="uni0233" unicode="&#x233;" horiz-adv-x="770" 
d="M434 349l141 221h304l-508 -760h-302l190 285l-181 475h277zM127 -160h226l468 700h-228l-147 -231h-30l-83 231h-209l171 -449zM690 645h-440l26 135h440zM300 754l-16 -83h382l16 83h-382z" />
    <glyph glyph-name="uni0237" unicode="&#x237;" horiz-adv-x="360" 
d="M-65.5 -199.5q-37.5 5.5 -79.5 18.5l31 161q44 -15 74 -15q68 0 82 73l103 532h271l-104 -539q-23 -122 -94.5 -179t-202.5 -57q-43 0 -80.5 5.5zM196 -126q62 49 84 161l97 500h-206l-98 -503q-10 -48 -38.5 -72.5t-71.5 -24.5q-26 0 -54 7l-19 -102q53 -15 125 -15
q119 0 181 49z" />
    <glyph glyph-name="uni0244" unicode="&#x244;" horiz-adv-x="1010" 
d="M344 14q-92 34 -142 100t-50 159q0 38 9 81l7 33h-94l27 141h95l33 172h270l-33 -172h280l33 172h270l-33 -172h96l-28 -141h-96l-21 -111q-28 -152 -128 -224t-280 -72q-123 0 -215 34zM816.5 73.5q89.5 63.5 117.5 202.5l28 141h96l16 81h-96l33 172h-206l-33 -172
h-344l33 172h-206l-33 -172h-95l-15 -81h96l-15 -69q-9 -42 -9 -78q0 -128 101.5 -194t273.5 -66q168 0 257.5 63.5zM441 209.5q-47 33.5 -47 98.5q0 21 4 40l14 69h344l-18 -92q-16 -79 -57 -114t-116 -35q-77 0 -124 33.5zM662 234.5q33 28.5 46 96.5l11 56h-280l-9 -45
q-3 -18 -3 -32q0 -51 36 -77.5t102 -26.5q64 0 97 28.5z" />
    <glyph glyph-name="uni0259" unicode="&#x259;" horiz-adv-x="848" 
d="M278 19.5q-87 34.5 -136 96t-49 138.5q0 23 5 53h484q-12 41 -59.5 60t-113.5 19q-83 0 -138 -11t-100 -27l39 197q32 14 99.5 27t150.5 13q121 0 212 -35t141 -99.5t50 -150.5q0 -94 -48 -165t-136 -110.5t-204 -39.5q-110 0 -197 34.5zM662.5 50.5q80.5 35.5 124.5 100
t44 149.5q0 77 -45.5 135t-129 89t-196.5 31q-70 0 -127 -9.5t-95 -21.5l-26 -131q88 23 199 23q92 0 147 -35t62 -103h-494q-1 -8 -1 -24q0 -68 44.5 -122.5t124.5 -85.5t181 -31q107 0 187.5 35.5zM368 154.5q-38 30.5 -38 83.5h288q-7 -53 -46 -83.5t-98 -30.5
q-68 0 -106 30.5zM537 167.5q26 14.5 39 41.5h-211q9 -27 36.5 -41.5t72.5 -14.5q37 0 63 14.5z" />
    <glyph glyph-name="uni0289" unicode="&#x289;" horiz-adv-x="865" 
d="M179 33.5q-54 48.5 -54 139.5q0 30 6 64l17 94h-81l19 97h81l27 142h271l-27 -142h161l28 142h274l-27 -142h78l-19 -97h-79l-64 -331h-271l12 62q-35 -35 -87.5 -56t-107.5 -21q-103 0 -157 48.5zM449.5 41.5q55.5 26.5 88.5 68.5h34l-15 -80h207l64 331h77l9 37h-78
l27 142h-210l-28 -142h-224l27 142h-207l-27 -142h-82l-7 -37h81l-25 -130q-6 -31 -6 -60q0 -75 46 -115.5t135 -40.5q58 0 113.5 26.5zM398 176q-24 25 -24 69q0 16 3 32l16 84h228l-26 -144q-21 -29 -57.5 -47.5t-70.5 -18.5q-45 0 -69 25zM519.5 194.5
q26.5 13.5 43.5 34.5l20 102h-165l-12 -60q-3 -13 -3 -26q0 -30 16.5 -47t47.5 -17q26 0 52.5 13.5z" />
    <glyph glyph-name="uni02BC" unicode="&#x2bc;" horiz-adv-x="280" 
d="M85 360l27 139h54q49 0 73 14.5t34 41.5q-21 -14 -49 -14q-40 0 -64 23t-24 64q0 49 33.5 78t82.5 29q60 0 93 -37.5t33 -109.5q0 -59 -28.5 -111.5t-78.5 -84.5t-110 -32h-76zM161 388q54 0 96.5 28t66.5 74.5t24 97.5q0 60 -25 89.5t-71 29.5q-35 0 -60.5 -21
t-25.5 -58q0 -30 15.5 -44.5t42.5 -14.5q44 0 64 35h26q-7 -133 -148 -133h-31l-17 -83h43z" />
    <glyph glyph-name="circumflex" unicode="&#x2c6;" horiz-adv-x="590" 
d="M536 730l141 -150h-201l-55 63l-82 -63h-222l199 150h220zM329 606l84 65h20l57 -65h125l-91 98h-198l-131 -98h134z" />
    <glyph glyph-name="caron" unicode="&#x2c7;" horiz-adv-x="590" 
d="M403 667l80 63h223l-198 -150h-221l-141 150h200zM299 606h199l130 98h-135l-82 -65h-20l-59 65h-124z" />
    <glyph glyph-name="breve" unicode="&#x2d8;" horiz-adv-x="500" 
d="M209 620.5q-59 40.5 -62 114.5h167q5 -24 19 -35t46 -11q58 0 71 46h167q-16 -79 -73 -117t-165 -38q-111 0 -170 40.5zM515 631q48 25 69 78h-114q-21 -46 -91 -46q-34 0 -56 12.5t-27 33.5h-117q8 -49 58.5 -76t141.5 -27q88 0 136 25z" />
    <glyph glyph-name="dotaccent" unicode="&#x2d9;" horiz-adv-x="292" 
d="M170 589q-35 27 -35 72q0 48 35.5 77.5t95.5 29.5q58 0 93.5 -27t35.5 -71q0 -49 -35.5 -78.5t-95.5 -29.5q-59 0 -94 27zM339.5 610q27.5 22 27.5 60q0 33 -27 52.5t-74 19.5q-48 0 -75.5 -22t-27.5 -59q0 -33 27 -53t74 -20q48 0 75.5 22z" />
    <glyph glyph-name="ring" unicode="&#x2da;" horiz-adv-x="354" 
d="M178 566.5q-44 31.5 -44 84.5q0 56 42 90t114 34q76 0 120 -31.5t44 -84.5q0 -56 -42 -90t-114 -34q-76 0 -120 31.5zM392 587.5q34 26.5 34 71.5q0 42 -36 66t-100 24q-60 0 -94 -26.5t-34 -71.5q0 -42 36 -66t100 -24q60 0 94 26.5zM248 621.5q-16 11.5 -16 32.5
q0 22 16 34t46 12q29 0 45.5 -11.5t16.5 -32.5q0 -22 -16 -34t-47 -12q-29 0 -45 11.5zM328 656q0 18 -34 18t-34 -20q0 -18 33 -18q35 0 35 20z" />
    <glyph glyph-name="ogonek" unicode="&#x2db;" horiz-adv-x="281" 
d="M237 -96l-24 -123q-49 -11 -96 -11q-65 0 -101.5 24t-36.5 67q0 41 33.5 77.5t92.5 61.5l6 32l112 -30l3 -27q-44 -16 -73 -35t-29 -33q0 -8 6 -11t25 -3q39 0 82 11zM202 -127q-27 -5 -47 -5q-61 0 -61 37q0 21 24 41.5t67 37.5l-50 16l-3 -15q-55 -19 -90 -54t-35 -70
q0 -31 28.5 -48t81.5 -17q37 0 72 7z" />
    <glyph glyph-name="tilde" unicode="&#x2dc;" horiz-adv-x="500" 
d="M418 585q-25 10 -47 26q-22 15 -33 15q-7 0 -11 -4.5t-6 -15.5l-5 -26h-198l13 68q8 44 38 68t80 24q33 0 58 -10t51 -27q20 -14 36 -14q15 0 18 16l6 30h199l-14 -71q-9 -46 -37.5 -67.5t-86.5 -21.5q-36 0 -61 10zM546.5 616.5q20.5 15.5 28.5 53.5l8 39h-141l-2 -11
q-6 -35 -44 -35q-21 0 -54 21q-22 14 -43.5 22t-49.5 8q-40 0 -60.5 -17t-28.5 -53l-8 -38h140l2 10q8 36 42 36q22 0 52 -21q20 -14 40 -22t51 -8q47 0 67.5 15.5z" />
    <glyph glyph-name="hungarumlaut" unicode="&#x2dd;" horiz-adv-x="702" 
d="M156 560h-29v71l244 129h95l-16 -137zM504 560h-29v71l244 129h95l-16 -137zM155 615v-28l269 56l10 91h-55zM503 615v-28l269 56l10 91h-55z" />
    <glyph glyph-name="gravecomb" unicode="&#x300;" horiz-adv-x="0" 
d="M70 560h-24l-317 53l38 147h77l251 -139zM-237 633l285 -47h2l11 23l-225 125h-47z" />
    <glyph glyph-name="acutecomb" unicode="&#x301;" horiz-adv-x="0" 
d="M-241 560h-28l-2 62l300 138h74l-10 -152zM-243 606l1 -20l309 44l6 104h-38z" />
    <glyph glyph-name="uni0302" unicode="&#x302;" horiz-adv-x="0" 
d="M-54 730l141 -150h-201l-55 63l-82 -63h-222l199 150h220zM-261 606l84 65h20l57 -65h125l-91 98h-198l-131 -98h134z" />
    </font>
</defs>
</svg>
