<?xml version="1.0" standalone="no"?>
<!DOCTYPE svg PUBLIC "-//W3C//DTD SVG 1.1//EN" "http://www.w3.org/Graphics/SVG/1.1/DTD/svg11.dtd" >
<svg xmlns="http://www.w3.org/2000/svg" xmlns:xlink="http://www.w3.org/1999/xlink" version="1.1">
<metadata>
Created by FontForge 20201107 at Mon Feb  6 14:54:41 2023
 By 
Copyright (c) 2020-2021 by TypeType. All rights reserved. Special version for DaFont.
</metadata>
<defs>
<font id="TTRunsTrial-Thin" horiz-adv-x="740" >
  <font-face 
    font-family="TT Runs Trial Thin"
    font-weight="100"
    font-stretch="normal"
    units-per-em="1000"
    panose-1="2 0 0 0 0 0 0 0 6 7"
    ascent="800"
    descent="-200"
    x-height="530"
    cap-height="700"
    bbox="-435 -290 2135 940"
    underline-thickness="40"
    underline-position="-185"
    unicode-range="U+000D-FB03"
  />
<missing-glyph horiz-adv-x="900" 
d="M100 0v284h45v-139h33v139h50v31h-128v126l19 -61h23l34 106l33 -106h23l54 170h-32l-34 -110l-35 110h-19l-35 -110l-31 103v157h700v-150h-110v-170h110v-91q-6 13 -19.5 20t-30.5 7q-27 0 -43.5 -14.5t-16.5 -34.5q0 -22 14.5 -32.5t39.5 -17.5q17 -5 25.5 -9.5
t8.5 -13.5q0 -21 -28 -21q-14 0 -21 7t-7 18h-33q0 -24 17 -39.5t44 -15.5q17 0 30.5 6.5t19.5 13.5v-163h-700zM311 380h33v62h24l35 -62h37l-40 67q36 17 36 50q0 22 -16 37.5t-41 15.5h-68v-170zM469 550v-170h33v170h-33zM580 519v-139h32v139h50v31h-132v-31h50z
M344 473v46h35q10 0 17 -6.5t7 -16.5q0 -12 -7.5 -17.5t-16.5 -5.5h-35zM800 483h-78v36h78v-36zM800 411h-78v41h78v-41zM387.5 167.5q22.5 24.5 22.5 61.5t-23 62t-59 25t-59 -25t-23 -62t22.5 -61.5t59.5 -24.5t59.5 24.5zM633 162q19 19 19 47v106h-32v-106
q0 -15 -9.5 -25t-25.5 -10q-17 0 -26.5 10.5t-9.5 24.5v106h-32v-106q0 -28 19.5 -47t48.5 -19t48 19zM800 224q-15 14 -46 22q-16 5 -23 9t-7 12q0 9 7.5 14.5t18.5 5.5q10 0 18 -7t8 -18h24v-38zM291.5 190q-14.5 16 -14.5 39q0 25 14 40.5t37 15.5q24 0 37.5 -15.5
t13.5 -40.5q0 -23 -14.5 -39t-36.5 -16t-36.5 16z" />
    <glyph glyph-name="ff" unicode="ff" horiz-adv-x="575" 
d="M110 0v510h-110v20h110v71q0 63 30.5 96t86.5 33q44 0 78 -14v-21q-33 15 -78 15q-48 0 -72.5 -28t-24.5 -81v-71h280v71q0 63 30.5 96t86.5 33q44 0 78 -14v-21q-33 15 -78 15q-48 0 -72.5 -28t-24.5 -81v-71h165v-20h-165v-510h-20v510h-280v-510h-20z" />
    <glyph glyph-name="fi" unicode="fi" horiz-adv-x="530" 
d="M110 0v510h-110v20h110v38q0 87 50.5 124.5t134.5 37.5q71 0 135 -16v-21q-37 9 -68 13t-67 4q-165 0 -165 -142v-38h300v-530h-20v510h-280v-510h-20z" />
    <glyph glyph-name="ffi" unicode="ffi" horiz-adv-x="830" 
d="M110 0v510h-110v20h110v71q0 63 30.5 96t86.5 33q44 0 78 -14v-21q-33 15 -78 15q-48 0 -72.5 -28t-24.5 -81v-71h280v38q0 87 50.5 124.5t134.5 37.5q71 0 135 -16v-21q-37 9 -68 13t-67 4q-165 0 -165 -142v-38h300v-530h-20v510h-280v-510h-20v510h-280v-510h-20z" />
    <glyph glyph-name="f_f_j" unicode="ffj" horiz-adv-x="830" 
d="M540 -188v20q34 -12 70 -12q46 0 73 31t27 91v568h-280v-510h-20v510h-280v-510h-20v510h-110v20h110v71q0 63 30.5 96t86.5 33q44 0 78 -14v-21q-33 15 -78 15q-48 0 -72.5 -28t-24.5 -81v-71h280v38q0 87 50.5 124.5t134.5 37.5q71 0 135 -16v-21q-37 9 -68 13t-67 4
q-165 0 -165 -142v-38h300v-588q0 -70 -32 -106t-88 -36q-36 0 -70 12z" />
    <glyph glyph-name="f_j" unicode="fj" horiz-adv-x="530" 
d="M240 -188v20q34 -12 70 -12q46 0 73 31t27 91v568h-280v-510h-20v510h-110v20h110v38q0 87 50.5 124.5t134.5 37.5q71 0 135 -16v-21q-37 9 -68 13t-67 4q-165 0 -165 -142v-38h300v-588q0 -70 -32 -106t-88 -36q-36 0 -70 12z" />
    <glyph glyph-name="f_t" unicode="ft" horiz-adv-x="635" 
d="M444.5 24.5q-34.5 34.5 -34.5 102.5v383h-280v-510h-20v510h-110v20h110v71q0 63 30.5 96t86.5 33q44 0 78 -14v-21q-33 15 -78 15q-48 0 -72.5 -28t-24.5 -81v-71h240q23 0 31.5 9t8.5 31v100h20v-140h175v-20h-175v-383q0 -59 29.5 -88t76.5 -29q35 0 69 12v-20
q-34 -12 -69 -12q-57 0 -91.5 34.5z" />
    <glyph glyph-name=".notdef" horiz-adv-x="900" 
d="M100 0v284h45v-139h33v139h50v31h-128v126l19 -61h23l34 106l33 -106h23l54 170h-32l-34 -110l-35 110h-19l-35 -110l-31 103v157h700v-150h-110v-170h110v-91q-6 13 -19.5 20t-30.5 7q-27 0 -43.5 -14.5t-16.5 -34.5q0 -22 14.5 -32.5t39.5 -17.5q17 -5 25.5 -9.5
t8.5 -13.5q0 -21 -28 -21q-14 0 -21 7t-7 18h-33q0 -24 17 -39.5t44 -15.5q17 0 30.5 6.5t19.5 13.5v-163h-700zM311 380h33v62h24l35 -62h37l-40 67q36 17 36 50q0 22 -16 37.5t-41 15.5h-68v-170zM469 550v-170h33v170h-33zM580 519v-139h32v139h50v31h-132v-31h50z
M344 473v46h35q10 0 17 -6.5t7 -16.5q0 -12 -7.5 -17.5t-16.5 -5.5h-35zM800 483h-78v36h78v-36zM800 411h-78v41h78v-41zM387.5 167.5q22.5 24.5 22.5 61.5t-23 62t-59 25t-59 -25t-23 -62t22.5 -61.5t59.5 -24.5t59.5 24.5zM633 162q19 19 19 47v106h-32v-106
q0 -15 -9.5 -25t-25.5 -10q-17 0 -26.5 10.5t-9.5 24.5v106h-32v-106q0 -28 19.5 -47t48.5 -19t48 19zM800 224q-15 14 -46 22q-16 5 -23 9t-7 12q0 9 7.5 14.5t18.5 5.5q10 0 18 -7t8 -18h24v-38zM291.5 190q-14.5 16 -14.5 39q0 25 14 40.5t37 15.5q24 0 37.5 -15.5
t13.5 -40.5q0 -23 -14.5 -39t-36.5 -16t-36.5 16z" />
    <glyph glyph-name=".null" horiz-adv-x="0" 
 />
    <glyph glyph-name="nonmarkingreturn" unicode="&#xd;" horiz-adv-x="0" 
 />
    <glyph glyph-name="space" unicode=" " horiz-adv-x="310" 
 />
    <glyph glyph-name="exclam" unicode="!" horiz-adv-x="240" 
d="M125 170h-10l-5 130v420h20v-420zM98.5 2.5q-8.5 7.5 -8.5 17.5t8.5 17.5t21.5 7.5t21.5 -7.5t8.5 -17.5t-8.5 -17.5t-21.5 -7.5t-21.5 7.5z" />
    <glyph glyph-name="quotedbl" unicode="&#x22;" horiz-adv-x="275" 
d="M90 460h-20v260h20v-260zM205 460h-20v260h20v-260z" />
    <glyph glyph-name="numbersign" unicode="#" horiz-adv-x="700" 
d="M665 505v-20h-118l-57 -260h140v-20h-145l-45 -205h-20l45 205h-295l-45 -205h-20l45 205h-115v20h120l57 260h-142v20h147l43 195h20l-43 -195h295l43 195h20l-43 -195h113zM175 225h295l57 260h-295z" />
    <glyph glyph-name="dollar" unicode="$" horiz-adv-x="745" 
d="M123 447.5q38 -31.5 94 -48.5t152 -37q102 -21 164 -41t104.5 -57.5t42.5 -98.5q0 -47 -30.5 -87t-94 -64t-158.5 -24h-7v-110h-20v110q-81 3 -151.5 20t-108.5 36v24q41 -23 118.5 -41.5t163.5 -18.5q91 0 151 21.5t88.5 57t28.5 76.5q0 54 -39 87t-96.5 50.5
t-155.5 37.5q-102 22 -161.5 40.5t-101 54.5t-41.5 95q0 47 32 87t100.5 65.5t172.5 27.5v110h20v-110q91 -1 167 -21t113 -44v-24q-36 26 -113 47.5t-172 21.5q-103 0 -170.5 -23t-98.5 -59t-31 -78q0 -51 38 -82.5z" />
    <glyph glyph-name="percent" unicode="%" horiz-adv-x="815" 
d="M125.5 429.5q-35.5 19.5 -55.5 54t-20 76.5t20 76.5t55.5 54t79.5 19.5t79.5 -19.5t55.5 -54t20 -76.5t-20 -76.5t-55.5 -54t-79.5 -19.5t-79.5 19.5zM205 0h-22l427 700h22zM301.5 467.5q38.5 37.5 38.5 92.5t-38.5 92.5t-96.5 37.5t-96.5 -37.5t-38.5 -92.5t38.5 -92.5
t96.5 -37.5t96.5 37.5zM530.5 9.5q-35.5 19.5 -55.5 54t-20 76.5t20 76.5t55.5 54t79.5 19.5t79.5 -19.5t55.5 -54t20 -76.5t-20 -76.5t-55.5 -54t-79.5 -19.5t-79.5 19.5zM706.5 47.5q38.5 37.5 38.5 92.5t-38.5 92.5t-96.5 37.5t-96.5 -37.5t-38.5 -92.5t38.5 -92.5
t96.5 -37.5t96.5 37.5z" />
    <glyph glyph-name="ampersand" unicode="&#x26;" horiz-adv-x="727" 
d="M722 0h-32l-179 138q-68 -67 -142 -107.5t-149 -40.5q-84 0 -129.5 39t-45.5 101q0 51 31 93.5t78 72t96 44.5l-48 37q-63 49 -95 89.5t-32 88.5q0 42 27 77t84.5 56.5t143.5 21.5q68 0 129 -15.5t96 -35.5v-24q-33 21 -94 38t-131 17q-80 0 -133 -19t-77.5 -49.5
t-24.5 -66.5q0 -46 34.5 -85t95.5 -86l284 -220q47 48 86 101t63 95h22q-23 -44 -64 -100.5t-91 -107.5zM359 48.5q70 38.5 136 101.5l-226 175q-35 -10 -82.5 -34.5t-84.5 -64.5t-37 -91q0 -58 39 -91.5t116 -33.5q69 0 139 38.5z" />
    <glyph glyph-name="quotesingle" unicode="'" horiz-adv-x="160" 
d="M90 460h-20v260h20v-260z" />
    <glyph glyph-name="parenleft" unicode="(" horiz-adv-x="270" 
d="M195 -190q-41 0 -63 22t-22 63v800q0 41 22 63t63 22h55v-20h-55q-65 0 -65 -65v-800q0 -65 65 -65h55v-20h-55z" />
    <glyph glyph-name="parenright" unicode=")" horiz-adv-x="270" 
d="M20 -190v20h55q65 0 65 65v800q0 65 -65 65h-55v20h55q41 0 63 -22t22 -63v-800q0 -41 -22 -63t-63 -22h-55z" />
    <glyph glyph-name="asterisk" unicode="*" horiz-adv-x="378" 
d="M189 567l-100 -120l-15 13l96 116l-145 60l9 19l145 -60v155h20v-155l145 60l9 -19l-145 -60l96 -116l-15 -13z" />
    <glyph glyph-name="plus" unicode="+" horiz-adv-x="600" 
d="M310 75h-20v225h-230v20h230v225h20v-225h230v-20h-230v-225z" />
    <glyph glyph-name="comma" unicode="," horiz-adv-x="165" 
d="M30 -160q35 0 60 29t25 76q0 52 -26 69q-2 -8 -10 -13.5t-19 -5.5q-14 0 -22 7t-8 17q0 11 9 18.5t25 7.5q28 0 49.5 -27t21.5 -73q0 -57 -30 -91t-75 -34v20z" />
    <glyph glyph-name="hyphen" unicode="-" horiz-adv-x="490" 
d="M435 310h-380v20h380v-20z" />
    <glyph glyph-name="period" unicode="." horiz-adv-x="120" 
d="M38.5 2.5q-8.5 7.5 -8.5 17.5t8.5 17.5t21.5 7.5t21.5 -7.5t8.5 -17.5t-8.5 -17.5t-21.5 -7.5t-21.5 7.5z" />
    <glyph glyph-name="slash" unicode="/" horiz-adv-x="423" 
d="M22 -70h-22l401 840h22z" />
    <glyph glyph-name="zero" unicode="0" horiz-adv-x="920" 
d="M259.5 37q-87.5 47 -136 129t-48.5 184t48.5 184t136 129t200.5 47t200.5 -47t136 -129t48.5 -184t-48.5 -184t-136 -129t-200.5 -47t-200.5 47zM650 54.5q83 44.5 129 122t46 173.5t-46 173.5t-129 122t-190 44.5t-190 -44.5t-129 -122t-46 -173.5t46 -173.5t129 -122
t190 -44.5t190 44.5z" />
    <glyph glyph-name="one" unicode="1" horiz-adv-x="450" 
d="M50 0v20h185v585h-180v20h140q23 0 31.5 9t8.5 31v35h20v-680h165v-20h-370z" />
    <glyph glyph-name="two" unicode="2" horiz-adv-x="690" 
d="M65 0v20l266 163q150 92 207 165.5t57 146.5q0 53 -30.5 97.5t-89.5 71t-140 26.5q-83 0 -159.5 -26t-120.5 -59v22q43 32 118.5 57.5t161.5 25.5q87 0 150.5 -29t96.5 -78t33 -108q0 -54 -23.5 -103.5t-84 -105.5t-167.5 -121l-232 -141v-4h507v-20h-550z" />
    <glyph glyph-name="three" unicode="3" horiz-adv-x="695" 
d="M166.5 10.5q-73.5 20.5 -111.5 45.5v24q38 -27 111.5 -48.5t158.5 -21.5q92 0 156.5 26t96.5 67t32 87t-32 87t-96.5 67t-156.5 26q-45 0 -88 -6t-67 -14v20l385 304v6h-495v20h540v-15l-380 -300v-5q48 10 105 10q98 0 167 -28.5t103.5 -74t34.5 -97.5t-34.5 -97.5
t-103.5 -74t-167 -28.5q-85 0 -158.5 20.5z" />
    <glyph glyph-name="four" unicode="4" horiz-adv-x="645" 
d="M496 0h-20v210h-466v20l410 470h26l-405 -465v-5h435v265h20v-265h144v-20h-144v-210z" />
    <glyph glyph-name="five" unicode="5" horiz-adv-x="690" 
d="M166.5 10.5q-73.5 20.5 -111.5 45.5v24q38 -27 111.5 -48.5t158.5 -21.5q92 0 156.5 26t96.5 67t32 87t-32 87t-95 67t-153 26q-70 0 -127 -17t-83 -38h-23l28 385h455v-20h-436l-25 -339h5q25 19 80.5 34t125.5 15q96 0 163.5 -28.5t102 -74t34.5 -97.5t-34.5 -97.5
t-103.5 -74t-167 -28.5q-85 0 -158.5 20.5z" />
    <glyph glyph-name="six" unicode="6" horiz-adv-x="700" 
d="M180 18q-70 28 -105 74t-35 98q0 58 43 110l337 400h25l-291 -346l3 -4q33 19 84.5 29.5t108.5 10.5q100 0 170 -28t105 -74t35 -98t-35 -98t-105 -74t-170 -28t-170 28zM509.5 36q65.5 26 98 67t32.5 87t-32.5 87t-98 67t-159.5 26t-159.5 -26t-98 -67t-32.5 -87
t32.5 -87t98 -67t159.5 -26t159.5 26z" />
    <glyph glyph-name="seven" unicode="7" horiz-adv-x="590" 
d="M180 0h-22l377 675v5h-515v20h540v-20z" />
    <glyph glyph-name="eight" unicode="8" horiz-adv-x="800" 
d="M223.5 14q-69.5 24 -101.5 63.5t-32 87.5q0 59 48 103.5t142 58.5v5q-101 16 -155.5 66t-54.5 117q0 53 35 97t109 71t186 27t186 -27t109 -71t35 -97q0 -67 -54.5 -117t-155.5 -66v-5q94 -14 142 -58.5t48 -103.5q0 -48 -32 -87.5t-101.5 -63.5t-176.5 -24t-176.5 24z
M575.5 364.5q69.5 24.5 102 64t32.5 86.5t-32.5 86.5t-102 64t-175.5 24.5t-175.5 -24.5t-102 -64t-32.5 -86.5t32.5 -86.5t102 -64t175.5 -24.5t175.5 24.5zM566 31.5q65 21.5 94.5 56.5t29.5 77t-29.5 77t-94.5 56.5t-166 21.5t-166 -21.5t-94.5 -56.5t-29.5 -77t29.5 -77
t94.5 -56.5t166 -21.5t166 21.5z" />
    <glyph glyph-name="nine" unicode="9" 
d="M285 0l294 337l-3 4q-82 -41 -206 -41q-107 0 -181.5 29.5t-111.5 76.5t-37 99t37 99t111.5 76.5t181.5 29.5t181.5 -29.5t111.5 -76.5t37 -99q0 -59 -48 -113l-342 -392h-25zM541 347q70 27 104.5 69.5t34.5 88.5t-34.5 88.5t-104.5 69.5t-171 27t-171 -27t-104.5 -69.5
t-34.5 -88.5t34.5 -88.5t104.5 -69.5t171 -27t171 27z" />
    <glyph glyph-name="colon" unicode=":" horiz-adv-x="140" 
d="M48.5 2.5q-8.5 7.5 -8.5 17.5t8.5 17.5t21.5 7.5t21.5 -7.5t8.5 -17.5t-8.5 -17.5t-21.5 -7.5t-21.5 7.5zM48.5 492.5q-8.5 7.5 -8.5 17.5t8.5 17.5t21.5 7.5t21.5 -7.5t8.5 -17.5t-8.5 -17.5t-21.5 -7.5t-21.5 7.5z" />
    <glyph glyph-name="semicolon" unicode=";" horiz-adv-x="185" 
d="M48.5 492.5q-8.5 7.5 -8.5 17.5t8.5 17.5t21.5 7.5t21.5 -7.5t8.5 -17.5t-8.5 -17.5t-21.5 -7.5t-21.5 7.5zM40 -160q35 0 60 29t25 76q0 52 -26 69q-2 -8 -10 -13.5t-19 -5.5q-14 0 -22 7t-8 17q0 11 9 18.5t25 7.5q28 0 49.5 -27t21.5 -73q0 -57 -30 -91t-75 -34v20z
" />
    <glyph glyph-name="less" unicode="&#x3c;" horiz-adv-x="610" 
d="M535 101v-21l-485 210v30l485 210v-21l-465 -201v-6z" />
    <glyph glyph-name="equal" unicode="=" horiz-adv-x="600" 
d="M535 410h-470v20h470v-20zM535 190h-470v20h470v-20z" />
    <glyph glyph-name="greater" unicode="&#x3e;" horiz-adv-x="610" 
d="M560 290l-485 -210v21l465 201v6l-465 201v21l485 -210v-30z" />
    <glyph glyph-name="question" unicode="?" horiz-adv-x="665" 
d="M285 170v180h20q98 0 167 26.5t103.5 68t34.5 85.5q0 46 -33 87.5t-100.5 67t-166.5 25.5q-93 0 -169.5 -21.5t-115.5 -48.5v24q41 25 118 45.5t167 20.5q105 0 177 -28t107.5 -74t35.5 -98q0 -50 -37 -96t-110.5 -75t-177.5 -29v-160h-20zM273.5 2.5q-8.5 7.5 -8.5 17.5
t8.5 17.5t21.5 7.5t21.5 -7.5t8.5 -17.5t-8.5 -17.5t-21.5 -7.5t-21.5 7.5z" />
    <glyph glyph-name="at" unicode="@" horiz-adv-x="1000" 
d="M275 -71q-99 49 -152 133.5t-53 187.5t53 187.5t152 133.5t230 49q128 0 227.5 -49.5t153.5 -132t54 -178.5q0 -91 -42 -140.5t-108 -49.5q-50 0 -85.5 26t-48.5 59h-5q-23 -33 -68 -59t-98 -26q-57 0 -100 23t-66.5 64t-23.5 93t23.5 93t66.5 64t100 23q53 0 98 -26.5
t67 -58.5v75h20v-220q0 -29 16 -54t43.5 -40.5t60.5 -15.5q57 0 93.5 44t36.5 126q0 89 -52 167.5t-146.5 125.5t-216.5 47q-126 0 -220 -46.5t-144.5 -126.5t-50.5 -177t50.5 -177t144.5 -126.5t220 -46.5q78 0 138.5 16.5t86.5 36.5v-23q-30 -19 -91 -34.5t-134 -15.5
q-131 0 -230 49zM583 120.5q45 30.5 67 67.5v124q-22 37 -67 67.5t-98 30.5q-77 0 -123.5 -45t-46.5 -115t46.5 -115t123.5 -45q53 0 98 30.5z" />
    <glyph glyph-name="A" unicode="A" horiz-adv-x="750" 
d="M755 0h-23l-117 225h-480l-117 -225h-23l365 700h30zM372 680l-226 -435h458l-226 435h-6z" />
    <glyph glyph-name="B" unicode="B" horiz-adv-x="790" 
d="M550 345q65 -18 100 -63t35 -102q0 -51 -27 -92t-80 -64.5t-128 -23.5h-340v700h350q80 0 135 -23.5t82.5 -64.5t27.5 -92q0 -62 -41 -108.5t-114 -61.5v-5zM130 680v-320h330q110 0 167.5 45t57.5 115t-57.5 115t-167.5 45h-330zM450 20q69 0 117.5 21t73 57.5
t24.5 81.5t-24 81.5t-71.5 57.5t-114.5 21h-325v-320h320z" />
    <glyph glyph-name="C" unicode="C" horiz-adv-x="850" 
d="M266.5 37.5q-94.5 47.5 -145.5 130t-51 182.5q0 101 52 183t150.5 129.5t232.5 47.5q87 0 162 -23t113 -52v-24q-36 30 -110.5 54.5t-164.5 24.5q-128 0 -222 -45t-143.5 -122.5t-49.5 -172.5q0 -94 48.5 -172t138.5 -123t208 -45q82 0 152.5 19t112.5 43v-24
q-42 -22 -112.5 -40t-152.5 -18q-124 0 -218.5 47.5z" />
    <glyph glyph-name="D" unicode="D" horiz-adv-x="880" 
d="M110 0v700h265q139 0 237 -45t148 -124.5t50 -180.5t-50 -180.5t-148 -124.5t-237 -45h-265zM375 20q132 0 225.5 43t141.5 117.5t48 169.5t-48 169.5t-141.5 117.5t-225.5 43h-245v-660h245z" />
    <glyph glyph-name="E" unicode="E" horiz-adv-x="700" 
d="M130 350v-330h510v-20h-530v700h510v-20h-490v-310h450v-20h-450z" />
    <glyph glyph-name="F" unicode="F" horiz-adv-x="660" 
d="M620 700v-20h-490v-340h445v-20h-445v-320h-20v700h510z" />
    <glyph glyph-name="G" unicode="G" horiz-adv-x="900" 
d="M272.5 37.5q-98.5 47.5 -150.5 129.5t-52 183t53 183t154.5 129.5t242.5 47.5q96 0 177 -23t123 -52v-24q-40 30 -121 54.5t-179 24.5q-135 0 -232 -45t-147.5 -122.5t-50.5 -172.5t49.5 -172.5t143.5 -122.5t222 -45q85 0 163 22.5t122 50.5v212h-340v20h360v-245
q-47 -30 -130 -55t-175 -25q-134 0 -232.5 47.5z" />
    <glyph glyph-name="H" unicode="H" horiz-adv-x="840" 
d="M710 370v330h20v-700h-20v350h-580v-350h-20v700h20v-330h580z" />
    <glyph glyph-name="I" unicode="I" horiz-adv-x="670" 
d="M640 700v-20h-295v-660h295v-20h-610v20h295v660h-295v20h610z" />
    <glyph glyph-name="J" unicode="J" horiz-adv-x="545" 
d="M25 23v22q85 -35 175 -35q97 0 156 55t59 160v475h20v-475q0 -113 -64.5 -174t-170.5 -61q-86 0 -175 33z" />
    <glyph glyph-name="K" unicode="K" horiz-adv-x="725" 
d="M130 0h-20v700h20v-313l546 313h39l-575 -330v-5l545 -365h-37l-518 348v-348z" />
    <glyph glyph-name="L" unicode="L" horiz-adv-x="665" 
d="M645 0h-535v700h20v-680h515v-20z" />
    <glyph glyph-name="M" unicode="M" horiz-adv-x="1040" 
d="M905 681l-385 -701l-385 701h-5v-681h-20v700h39l368 -671h6l368 671h39v-700h-20v681h-5z" />
    <glyph glyph-name="N" unicode="N" horiz-adv-x="840" 
d="M130 0h-20v700h35l560 -680h5v680h20v-700h-35l-560 680h-5v-680z" />
    <glyph glyph-name="O" unicode="O" horiz-adv-x="1010" 
d="M272.5 37.5q-98.5 47.5 -150.5 129.5t-52 183t52 183t150.5 129.5t232.5 47.5t232.5 -47.5t150.5 -129.5t52 -183t-52 -183t-150.5 -129.5t-232.5 -47.5t-232.5 47.5zM727 55q94 45 143.5 122.5t49.5 172.5t-49.5 172.5t-143.5 122.5t-222 45t-222 -45t-143.5 -122.5
t-49.5 -172.5t49.5 -172.5t143.5 -122.5t222 -45t222 45z" />
    <glyph glyph-name="P" unicode="P" horiz-adv-x="795" 
d="M475 700q131 0 198 -55.5t67 -149.5t-67 -149.5t-198 -55.5h-345v-290h-20v700h365zM475 310q122 0 183.5 50t61.5 135t-61.5 135t-183.5 50h-345v-370h345z" />
    <glyph glyph-name="Q" unicode="Q" horiz-adv-x="1010" 
d="M889.5 169.5q-50.5 -81.5 -143.5 -127.5l67 -112h-22l-62 104q-99 -44 -224 -44q-134 0 -232.5 47.5t-150.5 129.5t-52 183t52 183t150.5 129.5t232.5 47.5t232.5 -47.5t150.5 -129.5t52 -183q0 -99 -50.5 -180.5zM735 59q89 45 137 121.5t48 169.5q0 95 -49.5 172.5
t-143.5 122.5t-222 45t-222 -45t-143.5 -122.5t-49.5 -172.5t49.5 -172.5t143.5 -122.5t222 -45q120 0 213 41l-96 159h22z" />
    <glyph glyph-name="R" unicode="R" horiz-adv-x="815" 
d="M595 300q52 -11 81 -50.5t29 -99.5v-150h-20v150q0 67 -40 103.5t-120 36.5h-395v-290h-20v700h370q131 0 198 -55.5t67 -149.5q0 -69 -38 -118.5t-112 -70.5v-6zM480 310q122 0 183.5 50t61.5 135t-61.5 135t-183.5 50h-350v-370h350z" />
    <glyph glyph-name="S" unicode="S" horiz-adv-x="745" 
d="M230.5 7.5q-78.5 17.5 -120.5 38.5v24q41 -23 118.5 -41.5t163.5 -18.5q91 0 151 21.5t88.5 57t28.5 76.5q0 54 -39 87t-96.5 50.5t-155.5 37.5q-102 22 -161.5 40.5t-101 54.5t-41.5 95q0 48 33.5 88.5t105.5 66t181 25.5q92 0 169.5 -20t115.5 -45v-24
q-36 26 -113 47.5t-172 21.5q-103 0 -170.5 -23t-98.5 -59t-31 -78q0 -51 38 -82.5t94 -48.5t152 -37q102 -21 164 -41t104.5 -57.5t42.5 -98.5q0 -47 -30.5 -87t-94 -64t-158.5 -24q-88 0 -166.5 17.5z" />
    <glyph glyph-name="T" unicode="T" horiz-adv-x="660" 
d="M10 700h640v-20h-310v-680h-20v680h-310v20z" />
    <glyph glyph-name="U" unicode="U" horiz-adv-x="830" 
d="M247 24.5q-70 34.5 -106 97.5t-36 148v430h20v-425q0 -123 75.5 -194t214.5 -71q92 0 157 33t99 93t34 139v425h20v-430q0 -85 -36 -148t-106 -97.5t-168 -34.5t-168 34.5z" />
    <glyph glyph-name="V" unicode="V" horiz-adv-x="760" 
d="M395 0h-30l-360 700h23l350 -680h4l350 680h23z" />
    <glyph glyph-name="W" unicode="W" horiz-adv-x="1175" 
d="M325 0h-35l-280 700h23l272 -680h5l260 680h35l260 -680h5l272 680h23l-280 -700h-35l-260 680h-5z" />
    <glyph glyph-name="X" unicode="X" horiz-adv-x="655" 
d="M27 0h-27l312 356v5l-297 339h27l283 -323h5l283 323h27l-297 -339v-5l312 -356h-27l-298 340h-5z" />
    <glyph glyph-name="Y" unicode="Y" horiz-adv-x="720" 
d="M370 0h-20v160l-365 540h24l348 -515h6l348 515h24l-365 -540v-160z" />
    <glyph glyph-name="Z" unicode="Z" horiz-adv-x="645" 
d="M625 0h-600v20l550 655v5h-530v20h560v-20l-550 -655v-5h570v-20z" />
    <glyph glyph-name="bracketleft" unicode="[" horiz-adv-x="270" 
d="M250 -190h-140v970h140v-20h-120v-930h120v-20z" />
    <glyph glyph-name="backslash" unicode="\" horiz-adv-x="423" 
d="M423 -70h-22l-401 840h22z" />
    <glyph glyph-name="bracketright" unicode="]" horiz-adv-x="270" 
d="M160 -190h-140v20h120v930h-120v20h140v-970z" />
    <glyph glyph-name="asciicircum" unicode="^" horiz-adv-x="460" 
d="M58 450h-23l185 250h20l185 -250h-23l-169 228h-6z" />
    <glyph glyph-name="underscore" unicode="_" horiz-adv-x="480" 
d="M500 -150h-520v20h520v-20z" />
    <glyph glyph-name="grave" unicode="`" horiz-adv-x="310" 
d="M275 600l-245 85v25h10l240 -95z" />
    <glyph glyph-name="a" unicode="a" horiz-adv-x="670" 
d="M103 31.5q-53 41.5 -53 108.5q0 70 64.5 112.5t205.5 42.5q93 0 144.5 12.5t71 35.5t19.5 57q0 31 -23 58.5t-72.5 44.5t-124.5 17t-147 -19t-113 -43v22q38 23 109 41.5t151 18.5q81 0 135 -19.5t79.5 -51t25.5 -68.5v-401h-20v115q-24 -30 -67.5 -58.5t-102.5 -47.5
t-125 -19q-104 0 -157 41.5zM386 30.5q59 20.5 102 51.5t67 63v190q-8 -23 -67.5 -41.5t-167.5 -18.5q-132 0 -191 -37.5t-59 -97.5q0 -58 47.5 -94t142.5 -36q67 0 126 20.5z" />
    <glyph glyph-name="b" unicode="b" 
d="M228 27q-68 37 -103 83h-5v-110h-20v720h20v-300h5q35 46 104 83t151 37q86 0 152 -35t102 -97.5t36 -142.5t-36.5 -142.5t-103.5 -97.5t-155 -35q-79 0 -147 37zM520 42.5q62 32.5 96 90.5t34 132t-33.5 132t-95 90.5t-141.5 32.5q-85 0 -155 -42.5t-105 -95.5v-234
q35 -53 104 -95.5t151 -42.5q83 0 145 32.5z" />
    <glyph glyph-name="c" unicode="c" horiz-adv-x="670" 
d="M213.5 26q-71.5 36 -110 98.5t-38.5 140.5t38.5 140.5t111 98.5t170.5 36q73 0 131.5 -17t93.5 -39v-22q-35 23 -93.5 40.5t-131.5 17.5q-92 0 -160 -33.5t-104 -91.5t-36 -130t36 -130t103 -91.5t156 -33.5q67 0 122 16t88 37v-22q-32 -20 -88 -35.5t-122 -15.5
q-95 0 -166.5 36z" />
    <glyph glyph-name="d" unicode="d" 
d="M210 25q-67 35 -103.5 97.5t-36.5 142.5t36 142.5t102 97.5t152 35q82 0 151 -37t104 -83h5v300h20v-720h-20v110h-5q-35 -46 -103 -83t-147 -37q-88 0 -155 35zM515 52.5q69 42.5 104 95.5v234q-35 53 -105 95.5t-155 42.5q-80 0 -141.5 -32.5t-95 -90.5t-33.5 -132
t34 -132t96 -90.5t145 -32.5q82 0 151 42.5z" />
    <glyph glyph-name="e" unicode="e" horiz-adv-x="700" 
d="M213.5 26q-71.5 36 -110 98.5t-38.5 140.5q0 80 36 142.5t102 97.5t152 35q79 0 143 -36.5t100.5 -99t36.5 -139.5v-15h-550q4 -68 41 -123t102.5 -86t151.5 -31q70 0 128.5 17.5t86.5 39.5v-22q-28 -21 -86.5 -38t-128.5 -17q-95 0 -166.5 36zM615 270q-2 73 -37 130
t-93.5 88.5t-129.5 31.5q-79 0 -140 -32t-95 -89t-35 -129h530z" />
    <glyph glyph-name="f" unicode="f" horiz-adv-x="275" 
d="M110 0v510h-110v20h110v71q0 63 30.5 96t86.5 33q44 0 78 -14v-21q-33 15 -78 15q-48 0 -72.5 -28t-24.5 -81v-71h165v-20h-165v-510h-20z" />
    <glyph glyph-name="g" unicode="g" 
d="M216.5 -186q-61.5 14 -91.5 31v22q30 -18 91.5 -32.5t133.5 -14.5q82 0 143.5 31.5t94 87t32.5 126.5v65h-5q-35 -46 -103 -83t-147 -37q-91 0 -157.5 33.5t-102 93.5t-35.5 138q0 77 35 137.5t101 94t154 33.5q82 0 151 -37t104 -83h5v110h20v-465q0 -77 -35 -137.5
t-101 -94t-154 -33.5q-72 0 -133.5 14zM516 72.5q69 42.5 104 95.5v214q-35 53 -105 95.5t-155 42.5q-82 0 -143.5 -31t-94 -87t-32.5 -127q0 -72 33 -127.5t95 -86.5t147 -31q82 0 151 42.5z" />
    <glyph glyph-name="h" unicode="h" horiz-adv-x="690" 
d="M100 0v720h20v-308h5q17 30 50.5 59.5t81.5 49t103 19.5q111 0 173 -59t62 -161v-320h-20v320q0 92 -56.5 146t-158.5 54q-58 0 -107 -23.5t-83 -58.5t-50 -71v-367h-20z" />
    <glyph glyph-name="i" unicode="i" horiz-adv-x="220" 
d="M88.5 612.5q-8.5 7.5 -8.5 17.5t8.5 17.5t21.5 7.5t21.5 -7.5t8.5 -17.5t-8.5 -17.5t-21.5 -7.5t-21.5 7.5zM100 0v530h10h10v-530h-20z" />
    <glyph glyph-name="j" unicode="j" horiz-adv-x="220" 
d="M88.5 612.5q-8.5 7.5 -8.5 17.5t8.5 17.5t21.5 7.5t21.5 -7.5t8.5 -17.5t-8.5 -17.5t-21.5 -7.5t-21.5 7.5zM-70 -186v20q31 -14 70 -14q46 0 73 31t27 91v588h2h8h7h3v-588q0 -70 -32 -106t-88 -36q-39 0 -70 14z" />
    <glyph glyph-name="k" unicode="k" horiz-adv-x="573" 
d="M120 0h-20v720h20v-423l404 233h39l-425 -245l425 -285h-36l-407 273v-273z" />
    <glyph glyph-name="l" unicode="l" horiz-adv-x="220" 
d="M120 0h-20v720h20v-720z" />
    <glyph glyph-name="m" unicode="m" horiz-adv-x="1070" 
d="M100 0v530h20v-112h5q23 46 79 84t131 38q72 0 123 -32.5t75 -89.5h5q26 46 85.5 84t136.5 38q101 0 158 -57t57 -158v-325h-20v325q0 92 -51.5 143.5t-143.5 51.5q-85 0 -137.5 -41.5t-80.5 -90.5q8 -27 8 -63v-325h-20v325q0 88 -53.5 141.5t-141.5 53.5q-55 0 -99 -23
t-73.5 -57t-42.5 -70v-370h-20z" />
    <glyph glyph-name="n" unicode="n" horiz-adv-x="690" 
d="M100 0v530h20v-118h5q17 30 50.5 59.5t81.5 49t103 19.5q111 0 173 -59t62 -161v-320h-20v320q0 92 -56.5 146t-158.5 54q-58 0 -107 -23.5t-83 -58.5t-50 -71v-367h-20z" />
    <glyph glyph-name="o" unicode="o" horiz-adv-x="770" 
d="M214.5 26q-72.5 36 -111 98.5t-38.5 140.5t38.5 140.5t111 98.5t170.5 36t170.5 -36t111 -98.5t38.5 -140.5t-38.5 -140.5t-111 -98.5t-170.5 -36t-170.5 36zM545 43.5q68 33.5 104 91.5t36 130t-36 130t-104 91.5t-160 33.5t-160 -33.5t-104 -91.5t-36 -130t36 -130
t104 -91.5t160 -33.5t160 33.5z" />
    <glyph glyph-name="p" unicode="p" 
d="M100 -190v720h20v-110h5q35 46 103 83t147 37q88 0 155 -35t103.5 -97.5t36.5 -142.5t-36 -142.5t-102 -97.5t-152 -35q-82 0 -151 37t-104 83h-5v-300h-20zM521.5 42.5q61.5 32.5 95 90.5t33.5 132t-34 132t-96 90.5t-145 32.5q-82 0 -151 -42.5t-104 -95.5v-234
q35 -53 105 -95.5t155 -42.5q80 0 141.5 32.5z" />
    <glyph glyph-name="q" unicode="q" 
d="M620 -190v300h-5q-35 -46 -104 -83t-151 -37q-86 0 -152 35t-102 97.5t-36 142.5t36.5 142.5t103.5 97.5t155 35q79 0 147 -37t103 -83h5v110h20v-720h-20zM515 52.5q70 42.5 105 95.5v234q-35 53 -104 95.5t-151 42.5q-83 0 -145 -32.5t-96 -90.5t-34 -132t33.5 -132
t95 -90.5t141.5 -32.5q85 0 155 42.5z" />
    <glyph glyph-name="r" unicode="r" horiz-adv-x="395" 
d="M100 0v530h20v-128h5q15 30 46 59.5t77.5 49t101.5 19.5h25v-20h-25q-58 0 -105.5 -23.5t-79 -59t-45.5 -72.5v-355h-20z" />
    <glyph glyph-name="s" unicode="s" horiz-adv-x="595" 
d="M166 4.5q-61 14.5 -91 31.5v22q30 -18 91 -33t136 -15q107 0 160 31.5t53 78.5q0 41 -30.5 66t-75 38.5t-120.5 29.5q-79 16 -128 31t-82.5 44t-33.5 76q0 59 60.5 97t193.5 38q76 0 139 -16t97 -37v-20q-36 21 -99.5 37t-136.5 16q-123 0 -178.5 -33t-55.5 -82
q0 -39 30 -63.5t74.5 -38t118.5 -28.5q81 -17 130 -32t83 -45t34 -78q0 -57 -58.5 -93.5t-174.5 -36.5q-75 0 -136 14.5z" />
    <glyph glyph-name="t" unicode="t" horiz-adv-x="340" 
d="M149.5 24.5q-34.5 34.5 -34.5 102.5v383h-115v20h75q23 0 31.5 9t8.5 31v100h20v-140h175v-20h-175v-383q0 -59 29.5 -88t76.5 -29q35 0 69 12v-20q-34 -12 -69 -12q-57 0 -91.5 34.5z" />
    <glyph glyph-name="u" unicode="u" horiz-adv-x="690" 
d="M157 49q-62 59 -62 161v320h20v-320q0 -92 56.5 -146t158.5 -54q58 0 107 23.5t83 58.5t50 71v367h20v-530h-20v118h-5q-17 -30 -50.5 -59.5t-81.5 -49t-103 -19.5q-111 0 -173 59z" />
    <glyph glyph-name="v" unicode="v" horiz-adv-x="560" 
d="M295 0h-30l-265 530h22l255 -510h6l255 510h22z" />
    <glyph glyph-name="w" unicode="w" horiz-adv-x="910" 
d="M252 0h-32l-215 530h22l207 -510h4l201 510h32l201 -510h4l207 510h22l-215 -530h-32l-201 510h-4z" />
    <glyph glyph-name="x" unicode="x" horiz-adv-x="515" 
d="M26 0h-26l243 269v3l-233 258h26l219 -243h5l219 243h26l-233 -258v-3l243 -269h-26l-229 254h-5z" />
    <glyph glyph-name="y" unicode="y" horiz-adv-x="540" 
d="M171 -190h-24l123 240l-270 480h24l255 -454h5l232 454h24z" />
    <glyph glyph-name="z" unicode="z" horiz-adv-x="525" 
d="M510 0h-490v20l445 486v4h-440v20h470v-20l-445 -486v-4h460v-20z" />
    <glyph glyph-name="braceleft" unicode="{" horiz-adv-x="295" 
d="M220 -190q-41 0 -63 22t-22 63v315q0 37 -18 56t-52 19h-25v20h25q34 0 52 19t18 56v315q0 41 22 63t63 22h55v-20h-55q-65 0 -65 -65v-320q0 -35 -14 -55t-31 -23v-4q17 -3 31 -23t14 -55v-320q0 -65 65 -65h55v-20h-55z" />
    <glyph glyph-name="bar" unicode="|" horiz-adv-x="260" 
d="M140 -170h-20v970h20v-970z" />
    <glyph glyph-name="braceright" unicode="}" horiz-adv-x="295" 
d="M20 -190v20h55q65 0 65 65v320q0 34 13 53.5t32 24.5v4q-19 5 -32 24.5t-13 53.5v320q0 65 -65 65h-55v20h55q41 0 63 -22t22 -63v-315q0 -37 18 -56t52 -19h25v-20h-25q-34 0 -52 -19t-18 -56v-315q0 -41 -22 -63t-63 -22h-55z" />
    <glyph glyph-name="asciitilde" unicode="~" horiz-adv-x="600" 
d="M358.5 252q-28.5 17 -66.5 51q-36 32 -60.5 47t-56.5 15q-44 0 -69.5 -26.5t-25.5 -73.5v-25h-20v25q0 56 31 88t84 32q38 0 66.5 -17t66.5 -51q36 -32 60.5 -47t56.5 -15q44 0 69.5 26.5t25.5 73.5v25h20v-25q0 -56 -31 -88t-84 -32q-38 0 -66.5 17z" />
    <glyph glyph-name="uni00A0" unicode="&#xa0;" horiz-adv-x="310" 
 />
    <glyph glyph-name="exclamdown" unicode="&#xa1;" horiz-adv-x="240" 
d="M98.5 492.5q-8.5 7.5 -8.5 17.5t8.5 17.5t21.5 7.5t21.5 -7.5t8.5 -17.5t-8.5 -17.5t-21.5 -7.5t-21.5 7.5zM130 -190h-20v420l5 130h10l5 -130v-420z" />
    <glyph glyph-name="cent" unicode="&#xa2;" horiz-adv-x="670" 
d="M225 486.5q-68 -33.5 -104 -91.5t-36 -130t36 -130t103 -91.5t156 -33.5q67 0 122 16t88 37v-22q-31 -19 -84 -34.5t-116 -16.5v-105h-20v105q-92 2 -161.5 38.5t-106.5 98.5t-37 138t37 137.5t106 98t162 39.5v100h20v-100q71 -1 129 -17.5t91 -38.5v-22
q-35 23 -93.5 40.5t-131.5 17.5q-92 0 -160 -33.5z" />
    <glyph glyph-name="sterling" unicode="&#xa3;" horiz-adv-x="675" 
d="M130 20h495v-20h-570v25q58 0 96.5 42.5t38.5 112.5q0 39 -11.5 73t-33.5 82h-85v20h76q-17 38 -26.5 69.5t-9.5 65.5q0 61 33.5 111t99 79.5t157.5 29.5q70 0 131.5 -15.5t93.5 -34.5v-23q-30 20 -91 36.5t-134 16.5q-86 0 -147 -27t-92 -72.5t-31 -100.5q0 -32 9.5 -62
t27.5 -73h320v-20h-311q22 -48 33 -83t11 -72q0 -60 -25 -101t-55 -54v-5z" />
    <glyph glyph-name="currency" unicode="&#xa4;" horiz-adv-x="675" 
d="M546.5 279.5q-13.5 -32.5 -38.5 -57.5l77 -74l-15 -14l-76 76q-59 -48 -157 -48q-97 0 -157 46l-77 -74l-13 13l75 75q-25 25 -38.5 57.5t-13.5 70.5t13.5 70.5t38.5 57.5l-75 75l13 13l78 -75q60 46 156 46q95 0 157 -47l76 76l15 -14l-77 -74q25 -25 38.5 -57.5
t13.5 -70.5t-13.5 -70.5zM444.5 203.5q46.5 21.5 71 59.5t24.5 87q0 48 -24.5 86t-71 59.5t-108.5 21.5t-108 -21.5t-70.5 -59.5t-24.5 -86q0 -49 24.5 -87t70.5 -59.5t108 -21.5t108.5 21.5z" />
    <glyph glyph-name="yen" unicode="&#xa5;" 
d="M719 700h26l-365 -450h225v-20h-225v-95h225v-20h-225v-115h-20v115h-225v20h225v95h-225v20h225l-365 450h26l347 -428h4z" />
    <glyph glyph-name="brokenbar" unicode="&#xa6;" horiz-adv-x="260" 
d="M140 390h-20v410h20v-410zM140 -170h-20v410h20v-410z" />
    <glyph glyph-name="section" unicode="&#xa7;" horiz-adv-x="635" 
d="M190 -166.5q-61 13.5 -95 29.5v24q31 -18 92 -32.5t133 -14.5q70 0 120 20t75 51t25 64q0 43 -30 70t-73.5 42t-120.5 34q-80 19 -129 36t-83 49t-34 84q0 44 37.5 84.5t83.5 62.5q-60 20 -90.5 48.5t-30.5 74.5q0 37 29 71.5t90 56.5t151 22q69 0 130 -15t95 -33v-24
q-34 20 -95 36t-130 16q-84 0 -140.5 -19.5t-83 -49.5t-26.5 -61q0 -40 30 -65.5t73.5 -39t120.5 -31.5q84 -19 134.5 -35.5t86 -49t35.5 -84.5q0 -46 -38 -87.5t-84 -64.5q53 -21 82.5 -51.5t29.5 -76.5q0 -39 -27.5 -74.5t-82 -58t-130.5 -22.5q-69 0 -130 13.5z
M120.5 218q30.5 -28 75 -43.5t121.5 -34.5q70 -18 95 -25l13 -4q36 17 80.5 55.5t44.5 88.5q0 46 -32.5 74.5t-80.5 44t-127 32.5q-54 12 -80 19l-15 4q-34 -15 -79.5 -52t-45.5 -87q0 -44 30.5 -72z" />
    <glyph glyph-name="dieresis" unicode="&#xa8;" horiz-adv-x="290" 
d="M38.5 612.5q-8.5 7.5 -8.5 17.5t8.5 17.5t21.5 7.5t21.5 -7.5t8.5 -17.5t-8.5 -17.5t-21.5 -7.5t-21.5 7.5zM208.5 612.5q-8.5 7.5 -8.5 17.5t8.5 17.5t21.5 7.5t21.5 -7.5t8.5 -17.5t-8.5 -17.5t-21.5 -7.5t-21.5 7.5z" />
    <glyph glyph-name="copyright" unicode="&#xa9;" horiz-adv-x="1010" 
d="M275 29q-99 49 -152 133.5t-53 187.5t53 187.5t152 133.5t230 49t230 -49t152 -133.5t53 -187.5t-53 -187.5t-152 -133.5t-230 -49t-230 49zM725 46.5q94 46.5 144.5 126.5t50.5 177t-50.5 177t-144.5 126.5t-220 46.5t-220 -46.5t-144.5 -126.5t-50.5 -177t50.5 -177
t144.5 -126.5t220 -46.5t220 46.5zM404 185.5q-50 25.5 -77 68.5t-27 96t27 96t77 68.5t116 25.5q46 0 88.5 -12.5t66.5 -27.5v-23q-24 16 -66.5 29.5t-88.5 13.5q-60 0 -105.5 -23t-70 -61.5t-24.5 -85.5t24.5 -85.5t70 -61.5t105.5 -23q45 0 83 12t57 26v-23
q-19 -13 -57 -24t-83 -11q-66 0 -116 25.5z" />
    <glyph glyph-name="ordfeminine" unicode="&#xaa;" horiz-adv-x="425" 
d="M68 399.5q-32 24.5 -32 60.5q0 40 33.5 62.5t111.5 22.5q94 0 127 18t33 52q0 31 -30.5 50.5t-99.5 19.5q-45 0 -86 -8.5t-64 -18.5v22q23 10 64 17.5t86 7.5q82 0 116 -23t34 -67v-235h-20v58h-5q-25 -24 -72.5 -43.5t-102.5 -19.5q-61 0 -93 24.5zM266 418q49 23 75 52
v91q-8 -14 -49 -25t-111 -11q-69 0 -97 -17t-28 -48q0 -27 27 -46t78 -19q56 0 105 23z" />
    <glyph glyph-name="guillemotleft" unicode="&#xab;" horiz-adv-x="440" 
d="M225 75h-25l-150 205l150 205h25l-150 -205zM390 75h-25l-150 205l150 205h25l-150 -205z" />
    <glyph glyph-name="logicalnot" unicode="&#xac;" horiz-adv-x="600" 
d="M535 200h-20v185h-460v20h480v-205z" />
    <glyph glyph-name="uni00AD" unicode="&#xad;" horiz-adv-x="490" 
d="M435 310h-380v20h380v-20z" />
    <glyph glyph-name="registered" unicode="&#xae;" horiz-adv-x="310" 
d="M58 505q-38 35 -38 85t38 85t97 35t97 -35t38 -85t-38 -85t-97 -35t-97 35zM238 519q32 29 32 71t-32 71t-83 29t-83 -29t-32 -71t32 -71t83 -29t83 29zM110 535v110h60q19 0 29.5 -8.5t10.5 -21.5q0 -12 -7 -19.5t-15 -9.5v-3q6 -1 11.5 -7t5.5 -16v-25h-20v20
q0 20 -25 20h-30v-40h-20zM170 595q20 0 20 15t-20 15h-40v-30h40z" />
    <glyph glyph-name="macron" unicode="&#xaf;" horiz-adv-x="400" 
d="M370 655h-340v15h340v-15z" />
    <glyph glyph-name="degree" unicode="&#xb0;" horiz-adv-x="380" 
d="M81.5 469.5q-41.5 39.5 -41.5 100.5t41.5 100.5t108.5 39.5t108.5 -39.5t41.5 -100.5t-41.5 -100.5t-108.5 -39.5t-108.5 39.5zM284 484q36 34 36 86t-36 86t-94 34t-94 -34t-36 -86t36 -86t94 -34t94 34z" />
    <glyph glyph-name="plusminus" unicode="&#xb1;" horiz-adv-x="590" 
d="M530 55h-470v20h225v225h-225v20h225v225h20v-225h225v-20h-225v-225h225v-20z" />
    <glyph glyph-name="uni00B2" unicode="&#xb2;" horiz-adv-x="365" 
d="M50 450v25l130 89q73 50 96.5 80t23.5 61q0 38 -30 61.5t-90 23.5q-35 0 -72.5 -12t-62.5 -27v20q25 15 62.5 27t72.5 12q69 0 104.5 -29t35.5 -76q0 -37 -24.5 -69.5t-96.5 -82.5l-114 -78v-5h225v-20h-260z" />
    <glyph glyph-name="uni00B3" unicode="&#xb3;" horiz-adv-x="365" 
d="M101.5 449q-35.5 9 -56.5 21v22q21 -12 56.5 -22t73.5 -10q61 0 95.5 25.5t34.5 59.5q0 35 -35 60t-100 25q-38 0 -65 -10v25l154 131v4h-209v20h250v-15l-157 -133v-5q15 3 37 3q45 0 77.5 -15t50 -39t17.5 -51q0 -44 -39.5 -74.5t-110.5 -30.5q-38 0 -73.5 9z" />
    <glyph glyph-name="acute" unicode="&#xb4;" horiz-adv-x="310" 
d="M35 600l-5 15l240 95h10v-25z" />
    <glyph glyph-name="uni00B5" unicode="&#xb5;" horiz-adv-x="695" 
d="M100 -190v720h20v-320q0 -92 57 -146t158 -54q58 0 107 23.5t83 58.5t50 71v367h20v-530h-20v118h-5q-17 -30 -50.5 -59.5t-81.5 -49t-103 -19.5q-77 0 -130 28.5t-80 81.5h-5v-290h-20z" />
    <glyph glyph-name="paragraph" unicode="&#xb6;" horiz-adv-x="665" 
d="M255 -190v480h-10q-57 0 -101.5 25t-69 71.5t-24.5 108.5t24.5 108.5t69 71.5t101.5 25h365v-20h-85v-870h-20v870h-230v-870h-20z" />
    <glyph glyph-name="periodcentered" unicode="&#xb7;" horiz-adv-x="310" 
d="M133.5 302.5q-8.5 7.5 -8.5 17.5t8.5 17.5t21.5 7.5t21.5 -7.5t8.5 -17.5t-8.5 -17.5t-21.5 -7.5t-21.5 7.5z" />
    <glyph glyph-name="cedilla" unicode="&#xb8;" horiz-adv-x="255" 
d="M120 -60q51 0 78 -22.5t27 -57.5q0 -37 -30 -58.5t-84 -21.5q-38 0 -81 10v21q43 -11 82 -11q45 0 69 16t24 44q0 26 -21.5 43t-63.5 17h-66l-10 10l22 73l20 -3l-18 -60h52z" />
    <glyph glyph-name="uni00B9" unicode="&#xb9;" horiz-adv-x="325" 
d="M55 450v20h115v240h-115v20h75q23 0 31.5 9t8.5 31v30h20v-330h105v-20h-240z" />
    <glyph glyph-name="ordmasculine" unicode="&#xba;" horiz-adv-x="440" 
d="M120.5 397q-43.5 22 -67 60t-23.5 83t23.5 83t67 60t99.5 22t99.5 -22t67 -60t23.5 -83t-23.5 -83t-67 -60t-99.5 -22t-99.5 22zM308.5 414.5q38.5 19.5 60 53t21.5 72.5t-21.5 72.5t-60 53t-88.5 19.5t-88.5 -19.5t-60 -53t-21.5 -72.5t21.5 -72.5t60 -53t88.5 -19.5
t88.5 19.5z" />
    <glyph glyph-name="guillemotright" unicode="&#xbb;" horiz-adv-x="440" 
d="M225 280l-150 -205h-25l150 205l-150 205h25zM390 280l-150 -205h-25l150 205l-150 205h25z" />
    <glyph glyph-name="onequarter" unicode="&#xbc;" horiz-adv-x="798" 
d="M45 350v20h115v240h-115v20h75q23 0 31.5 9t8.5 31v30h20v-330h105v-20h-240zM222 0h-22l381 700h22zM688 0h-20v100h-230v25l215 225h26l-214 -225v-5h203v120h20v-120h75v-20h-75v-100z" />
    <glyph glyph-name="onehalf" unicode="&#xbd;" horiz-adv-x="868" 
d="M45 350v20h115v240h-115v20h75q23 0 31.5 9t8.5 31v30h20v-330h105v-20h-240zM222 0h-22l381 700h22zM528 0v25l130 89q73 50 96.5 80t23.5 61q0 38 -30 61.5t-90 23.5q-35 0 -72.5 -12t-62.5 -27v20q25 15 62.5 27t72.5 12q69 0 104.5 -29t35.5 -76q0 -37 -24.5 -69.5
t-96.5 -82.5l-114 -78v-5h225v-20h-260z" />
    <glyph glyph-name="threequarters" unicode="&#xbe;" horiz-adv-x="813" 
d="M96.5 349q-35.5 9 -56.5 21v22q21 -12 56.5 -22t73.5 -10q61 0 95.5 25.5t34.5 59.5q0 35 -35 60t-100 25q-38 0 -65 -10v25l154 131v4h-209v20h250v-15l-157 -133v-5q15 3 37 3q45 0 77.5 -15t50 -39t17.5 -51q0 -44 -39.5 -74.5t-110.5 -30.5q-38 0 -73.5 9zM237 0h-22
l381 700h22zM703 0h-20v100h-230v25l215 225h26l-214 -225v-5h203v120h20v-120h75v-20h-75v-100z" />
    <glyph glyph-name="questiondown" unicode="&#xbf;" horiz-adv-x="575" 
d="M323.5 492.5q-8.5 7.5 -8.5 17.5t8.5 17.5t21.5 7.5t21.5 -7.5t8.5 -17.5t-8.5 -17.5t-21.5 -7.5t-21.5 7.5zM159.5 -172q-76.5 28 -113 73.5t-36.5 98.5q0 50 37 96t110.5 75t177.5 29v160h20v-180h-20q-98 0 -167 -26.5t-103.5 -68t-34.5 -85.5q0 -47 34 -88t106 -66.5
t180 -25.5q78 0 143 18.5t97 42.5v-24q-34 -22 -99.5 -39.5t-140.5 -17.5q-114 0 -190.5 28z" />
    <glyph glyph-name="Agrave" unicode="&#xc0;" horiz-adv-x="750" 
d="M755 0h-23l-117 225h-480l-117 -225h-23l365 700h30zM372 680l-226 -435h458l-226 435h-6zM455 790l-245 85v25h10l240 -95z" />
    <glyph glyph-name="Aacute" unicode="&#xc1;" horiz-adv-x="750" 
d="M755 0h-23l-117 225h-480l-117 -225h-23l365 700h30zM372 680l-226 -435h458l-226 435h-6zM305 790l-5 15l240 95h10v-25z" />
    <glyph glyph-name="Acircumflex" unicode="&#xc2;" horiz-adv-x="750" 
d="M755 0h-23l-117 225h-480l-117 -225h-23l365 700h30zM372 680l-226 -435h458l-226 435h-6zM225 780h-27l162 130h30l162 -130h-27l-147 116h-6z" />
    <glyph glyph-name="Atilde" unicode="&#xc3;" horiz-adv-x="750" 
d="M755 0h-23l-117 225h-480l-117 -225h-23l365 700h30zM372 680l-226 -435h458l-226 435h-6zM415.5 806.5q-20.5 11.5 -47.5 33.5q-26 21 -42.5 30.5t-35.5 9.5q-25 0 -40 -16t-15 -44v-20h-20v20q0 37 20.5 58.5t54.5 21.5q24 0 44.5 -11.5t47.5 -33.5q26 -21 42.5 -30.5
t35.5 -9.5q25 0 40 16t15 44v20h20v-20q0 -37 -20.5 -58.5t-54.5 -21.5q-24 0 -44.5 11.5z" />
    <glyph glyph-name="Adieresis" unicode="&#xc4;" horiz-adv-x="750" 
d="M755 0h-23l-117 225h-480l-117 -225h-23l365 700h30zM372 680l-226 -435h458l-226 435h-6zM268.5 827.5q-8.5 7.5 -8.5 17.5t8.5 17.5t21.5 7.5t21.5 -7.5t8.5 -17.5t-8.5 -17.5t-21.5 -7.5t-21.5 7.5zM438.5 827.5q-8.5 7.5 -8.5 17.5t8.5 17.5t21.5 7.5t21.5 -7.5
t8.5 -17.5t-8.5 -17.5t-21.5 -7.5t-21.5 7.5z" />
    <glyph glyph-name="Aring" unicode="&#xc5;" horiz-adv-x="750" 
d="M755 0h-23l-117 225h-480l-117 -225h-23l365 700h30zM372 680l-226 -435h458l-226 435h-6zM291 779.5q-31 24.5 -31 65.5t31 65.5t84 24.5t84 -24.5t31 -65.5t-31 -65.5t-84 -24.5t-84 24.5zM444.5 794q25.5 19 25.5 51t-25.5 51t-69.5 19t-69.5 -19t-25.5 -51t25.5 -51
t69.5 -19t69.5 19z" />
    <glyph glyph-name="AE" unicode="&#xc6;" horiz-adv-x="1095" 
d="M540 350v-330h495v-20h-515v225h-403l-110 -225h-22l340 700h690v-20h-475v-310h435v-20h-435zM338 680l-212 -435h394v435h-182z" />
    <glyph glyph-name="Ccedilla" unicode="&#xc7;" horiz-adv-x="850" 
d="M283 645q-94 -45 -143.5 -122.5t-49.5 -172.5q0 -94 48.5 -172t138.5 -123t208 -45q82 0 152.5 19t112.5 43v-24q-42 -22 -112.5 -40t-152.5 -18q-16 0 -42 2l-16 -52h52q51 0 78 -22.5t27 -57.5q0 -37 -30 -58.5t-84 -21.5q-38 0 -81 10v21q43 -11 82 -11q45 0 69 16
t24 44q0 26 -21.5 43t-63.5 17h-66l-10 10l19 63q-107 12 -186.5 61.5t-122.5 126.5t-43 169q0 101 52 183t150.5 129.5t232.5 47.5q87 0 162 -23t113 -52v-24q-36 30 -110.5 54.5t-164.5 24.5q-128 0 -222 -45z" />
    <glyph glyph-name="Egrave" unicode="&#xc8;" horiz-adv-x="700" 
d="M130 350v-330h510v-20h-530v700h510v-20h-490v-310h450v-20h-450zM480 790l-245 85v25h10l240 -95z" />
    <glyph glyph-name="Eacute" unicode="&#xc9;" horiz-adv-x="700" 
d="M130 350v-330h510v-20h-530v700h510v-20h-490v-310h450v-20h-450zM255 790l-5 15l240 95h10v-25z" />
    <glyph glyph-name="Ecircumflex" unicode="&#xca;" horiz-adv-x="700" 
d="M130 350v-330h510v-20h-530v700h510v-20h-490v-310h450v-20h-450zM215 780h-27l162 130h30l162 -130h-27l-147 116h-6z" />
    <glyph glyph-name="Edieresis" unicode="&#xcb;" horiz-adv-x="700" 
d="M130 350v-330h510v-20h-530v700h510v-20h-490v-310h450v-20h-450zM258.5 827.5q-8.5 7.5 -8.5 17.5t8.5 17.5t21.5 7.5t21.5 -7.5t8.5 -17.5t-8.5 -17.5t-21.5 -7.5t-21.5 7.5zM428.5 827.5q-8.5 7.5 -8.5 17.5t8.5 17.5t21.5 7.5t21.5 -7.5t8.5 -17.5t-8.5 -17.5
t-21.5 -7.5t-21.5 7.5z" />
    <glyph glyph-name="Igrave" unicode="&#xcc;" horiz-adv-x="670" 
d="M640 700v-20h-295v-660h295v-20h-610v20h295v660h-295v20h610zM465 790l-245 85v25h10l240 -95z" />
    <glyph glyph-name="Iacute" unicode="&#xcd;" horiz-adv-x="670" 
d="M640 700v-20h-295v-660h295v-20h-610v20h295v660h-295v20h610zM205 790l-5 15l240 95h10v-25z" />
    <glyph glyph-name="Icircumflex" unicode="&#xce;" horiz-adv-x="670" 
d="M640 700v-20h-295v-660h295v-20h-610v20h295v660h-295v20h610zM185 780h-27l162 130h30l162 -130h-27l-147 116h-6z" />
    <glyph glyph-name="Idieresis" unicode="&#xcf;" horiz-adv-x="670" 
d="M640 700v-20h-295v-660h295v-20h-610v20h295v660h-295v20h610zM228.5 827.5q-8.5 7.5 -8.5 17.5t8.5 17.5t21.5 7.5t21.5 -7.5t8.5 -17.5t-8.5 -17.5t-21.5 -7.5t-21.5 7.5zM398.5 827.5q-8.5 7.5 -8.5 17.5t8.5 17.5t21.5 7.5t21.5 -7.5t8.5 -17.5t-8.5 -17.5
t-21.5 -7.5t-21.5 7.5z" />
    <glyph glyph-name="Eth" unicode="&#xd0;" horiz-adv-x="875" 
d="M370 700q139 0 237 -45t148 -124.5t50 -180.5t-50 -180.5t-148 -124.5t-237 -45h-265v335h-85v20h85v345h265zM370 20q132 0 225.5 43t141.5 117.5t48 169.5t-48 169.5t-141.5 117.5t-225.5 43h-245v-325h260v-20h-260v-315h245z" />
    <glyph glyph-name="Ntilde" unicode="&#xd1;" horiz-adv-x="840" 
d="M130 0h-20v700h35l560 -680h5v680h20v-700h-35l-560 680h-5v-680zM470.5 806.5q-20.5 11.5 -47.5 33.5q-26 21 -42.5 30.5t-35.5 9.5q-25 0 -40 -16t-15 -44v-20h-20v20q0 37 20.5 58.5t54.5 21.5q24 0 44.5 -11.5t47.5 -33.5q26 -21 42.5 -30.5t35.5 -9.5q25 0 40 16
t15 44v20h20v-20q0 -37 -20.5 -58.5t-54.5 -21.5q-24 0 -44.5 11.5z" />
    <glyph glyph-name="Ograve" unicode="&#xd2;" horiz-adv-x="1010" 
d="M272.5 37.5q-98.5 47.5 -150.5 129.5t-52 183t52 183t150.5 129.5t232.5 47.5t232.5 -47.5t150.5 -129.5t52 -183t-52 -183t-150.5 -129.5t-232.5 -47.5t-232.5 47.5zM727 55q94 45 143.5 122.5t49.5 172.5t-49.5 172.5t-143.5 122.5t-222 45t-222 -45t-143.5 -122.5
t-49.5 -172.5t49.5 -172.5t143.5 -122.5t222 -45t222 45zM635 790l-245 85v25h10l240 -95z" />
    <glyph glyph-name="Oacute" unicode="&#xd3;" horiz-adv-x="1010" 
d="M272.5 37.5q-98.5 47.5 -150.5 129.5t-52 183t52 183t150.5 129.5t232.5 47.5t232.5 -47.5t150.5 -129.5t52 -183t-52 -183t-150.5 -129.5t-232.5 -47.5t-232.5 47.5zM727 55q94 45 143.5 122.5t49.5 172.5t-49.5 172.5t-143.5 122.5t-222 45t-222 -45t-143.5 -122.5
t-49.5 -172.5t49.5 -172.5t143.5 -122.5t222 -45t222 45zM375 790l-5 15l240 95h10v-25z" />
    <glyph glyph-name="Ocircumflex" unicode="&#xd4;" horiz-adv-x="1010" 
d="M272.5 37.5q-98.5 47.5 -150.5 129.5t-52 183t52 183t150.5 129.5t232.5 47.5t232.5 -47.5t150.5 -129.5t52 -183t-52 -183t-150.5 -129.5t-232.5 -47.5t-232.5 47.5zM727 55q94 45 143.5 122.5t49.5 172.5t-49.5 172.5t-143.5 122.5t-222 45t-222 -45t-143.5 -122.5
t-49.5 -172.5t49.5 -172.5t143.5 -122.5t222 -45t222 45zM355 780h-27l162 130h30l162 -130h-27l-147 116h-6z" />
    <glyph glyph-name="Otilde" unicode="&#xd5;" horiz-adv-x="1010" 
d="M272.5 37.5q-98.5 47.5 -150.5 129.5t-52 183t52 183t150.5 129.5t232.5 47.5t232.5 -47.5t150.5 -129.5t52 -183t-52 -183t-150.5 -129.5t-232.5 -47.5t-232.5 47.5zM727 55q94 45 143.5 122.5t49.5 172.5t-49.5 172.5t-143.5 122.5t-222 45t-222 -45t-143.5 -122.5
t-49.5 -172.5t49.5 -172.5t143.5 -122.5t222 -45t222 45zM545.5 806.5q-20.5 11.5 -47.5 33.5q-26 21 -42.5 30.5t-35.5 9.5q-25 0 -40 -16t-15 -44v-20h-20v20q0 37 20.5 58.5t54.5 21.5q24 0 44.5 -11.5t47.5 -33.5q26 -21 42.5 -30.5t35.5 -9.5q25 0 40 16t15 44v20h20
v-20q0 -37 -20.5 -58.5t-54.5 -21.5q-24 0 -44.5 11.5z" />
    <glyph glyph-name="Odieresis" unicode="&#xd6;" horiz-adv-x="1010" 
d="M272.5 37.5q-98.5 47.5 -150.5 129.5t-52 183t52 183t150.5 129.5t232.5 47.5t232.5 -47.5t150.5 -129.5t52 -183t-52 -183t-150.5 -129.5t-232.5 -47.5t-232.5 47.5zM727 55q94 45 143.5 122.5t49.5 172.5t-49.5 172.5t-143.5 122.5t-222 45t-222 -45t-143.5 -122.5
t-49.5 -172.5t49.5 -172.5t143.5 -122.5t222 -45t222 45zM398.5 827.5q-8.5 7.5 -8.5 17.5t8.5 17.5t21.5 7.5t21.5 -7.5t8.5 -17.5t-8.5 -17.5t-21.5 -7.5t-21.5 7.5zM568.5 827.5q-8.5 7.5 -8.5 17.5t8.5 17.5t21.5 7.5t21.5 -7.5t8.5 -17.5t-8.5 -17.5t-21.5 -7.5
t-21.5 7.5z" />
    <glyph glyph-name="multiply" unicode="&#xd7;" horiz-adv-x="605" 
d="M505 115l-15 -15l-188 187l-187 -187l-15 15l187 187l-187 188l15 15l187 -188l188 188l15 -15l-188 -188z" />
    <glyph glyph-name="Oslash" unicode="&#xd8;" horiz-adv-x="1010" 
d="M803 624q66 -49 101.5 -120t35.5 -154q0 -101 -52 -183t-150.5 -129.5t-232.5 -47.5q-168 0 -282 76l-68 -66h-27l79 76q-66 49 -101.5 120t-35.5 154q0 101 52 183t150.5 129.5t232.5 47.5q168 0 282 -76l68 66h27zM124 204q34 -67 98 -113l550 529q-108 70 -267 70
q-128 0 -222 -45t-143.5 -122.5t-49.5 -172.5q0 -79 34 -146zM727 55q94 45 143.5 122.5t49.5 172.5q0 79 -34 146t-98 113l-550 -529q108 -70 267 -70q128 0 222 45z" />
    <glyph glyph-name="Ugrave" unicode="&#xd9;" horiz-adv-x="830" 
d="M247 24.5q-70 34.5 -106 97.5t-36 148v430h20v-425q0 -123 75.5 -194t214.5 -71q92 0 157 33t99 93t34 139v425h20v-430q0 -85 -36 -148t-106 -97.5t-168 -34.5t-168 34.5zM535 790l-245 85v25h10l240 -95z" />
    <glyph glyph-name="Uacute" unicode="&#xda;" horiz-adv-x="830" 
d="M247 24.5q-70 34.5 -106 97.5t-36 148v430h20v-425q0 -123 75.5 -194t214.5 -71q92 0 157 33t99 93t34 139v425h20v-430q0 -85 -36 -148t-106 -97.5t-168 -34.5t-168 34.5zM305 790l-5 15l240 95h10v-25z" />
    <glyph glyph-name="Ucircumflex" unicode="&#xdb;" horiz-adv-x="830" 
d="M247 24.5q-70 34.5 -106 97.5t-36 148v430h20v-425q0 -123 75.5 -194t214.5 -71q92 0 157 33t99 93t34 139v425h20v-430q0 -85 -36 -148t-106 -97.5t-168 -34.5t-168 34.5zM265 780h-27l162 130h30l162 -130h-27l-147 116h-6z" />
    <glyph glyph-name="Udieresis" unicode="&#xdc;" horiz-adv-x="830" 
d="M247 24.5q-70 34.5 -106 97.5t-36 148v430h20v-425q0 -123 75.5 -194t214.5 -71q92 0 157 33t99 93t34 139v425h20v-430q0 -85 -36 -148t-106 -97.5t-168 -34.5t-168 34.5zM308.5 827.5q-8.5 7.5 -8.5 17.5t8.5 17.5t21.5 7.5t21.5 -7.5t8.5 -17.5t-8.5 -17.5t-21.5 -7.5
t-21.5 7.5zM478.5 827.5q-8.5 7.5 -8.5 17.5t8.5 17.5t21.5 7.5t21.5 -7.5t8.5 -17.5t-8.5 -17.5t-21.5 -7.5t-21.5 7.5z" />
    <glyph glyph-name="Yacute" unicode="&#xdd;" horiz-adv-x="720" 
d="M370 0h-20v160l-365 540h24l348 -515h6l348 515h24l-365 -540v-160zM245 790l-5 15l240 95h10v-25z" />
    <glyph glyph-name="Thorn" unicode="&#xde;" horiz-adv-x="830" 
d="M110 0v700h20v-155h395q119 0 182 -51.5t63 -133.5t-63 -133.5t-182 -51.5h-395v-175h-20zM525 195q110 0 167.5 46t57.5 119t-57.5 119t-167.5 46h-395v-330h395z" />
    <glyph glyph-name="germandbls" unicode="&#xdf;" 
d="M396.5 2.5q-53.5 12.5 -86.5 27.5v22q33 -16 86.5 -29t108.5 -13q58 0 99 16t61 41t20 53q0 39 -27.5 66.5t-67 44.5t-104.5 37q-63 20 -99.5 35t-61.5 39t-25 58q0 35 22 60t53 40t84 35q66 25 98.5 45.5t32.5 54.5q0 28 -24.5 46.5t-70.5 18.5h-255q-58 0 -84 -27
t-26 -88v-585h-20v510h-110v20h110v55q0 71 31 103t99 32h255q55 0 85 -24t30 -61q0 -31 -20 -52.5t-49 -35.5t-78 -32t-76.5 -31.5t-47 -34t-19.5 -49.5q0 -28 22 -47.5t55 -32.5t90 -31q72 -23 114.5 -41t73 -49.5t30.5 -78.5q0 -34 -22.5 -63.5t-68 -48t-109.5 -18.5
q-55 0 -108.5 12.5z" />
    <glyph glyph-name="agrave" unicode="&#xe0;" horiz-adv-x="670" 
d="M103 31.5q-53 41.5 -53 108.5q0 70 64.5 112.5t205.5 42.5q93 0 144.5 12.5t71 35.5t19.5 57q0 31 -23 58.5t-72.5 44.5t-124.5 17t-147 -19t-113 -43v22q38 23 109 41.5t151 18.5q81 0 135 -19.5t79.5 -51t25.5 -68.5v-401h-20v115q-24 -30 -67.5 -58.5t-102.5 -47.5
t-125 -19q-104 0 -157 41.5zM386 30.5q59 20.5 102 51.5t67 63v190q-8 -23 -67.5 -41.5t-167.5 -18.5q-132 0 -191 -37.5t-59 -97.5q0 -58 47.5 -94t142.5 -36q67 0 126 20.5zM445 630l-245 85v25h10l240 -95z" />
    <glyph glyph-name="aacute" unicode="&#xe1;" horiz-adv-x="670" 
d="M103 31.5q-53 41.5 -53 108.5q0 70 64.5 112.5t205.5 42.5q93 0 144.5 12.5t71 35.5t19.5 57q0 31 -23 58.5t-72.5 44.5t-124.5 17t-147 -19t-113 -43v22q38 23 109 41.5t151 18.5q81 0 135 -19.5t79.5 -51t25.5 -68.5v-401h-20v115q-24 -30 -67.5 -58.5t-102.5 -47.5
t-125 -19q-104 0 -157 41.5zM386 30.5q59 20.5 102 51.5t67 63v190q-8 -23 -67.5 -41.5t-167.5 -18.5q-132 0 -191 -37.5t-59 -97.5q0 -58 47.5 -94t142.5 -36q67 0 126 20.5zM215 630l-5 15l240 95h10v-25z" />
    <glyph glyph-name="acircumflex" unicode="&#xe2;" horiz-adv-x="670" 
d="M103 31.5q-53 41.5 -53 108.5q0 70 64.5 112.5t205.5 42.5q93 0 144.5 12.5t71 35.5t19.5 57q0 31 -23 58.5t-72.5 44.5t-124.5 17t-147 -19t-113 -43v22q38 23 109 41.5t151 18.5q81 0 135 -19.5t79.5 -51t25.5 -68.5v-401h-20v115q-24 -30 -67.5 -58.5t-102.5 -47.5
t-125 -19q-104 0 -157 41.5zM386 30.5q59 20.5 102 51.5t67 63v190q-8 -23 -67.5 -41.5t-167.5 -18.5q-132 0 -191 -37.5t-59 -97.5q0 -58 47.5 -94t142.5 -36q67 0 126 20.5zM170 620h-27l162 130h30l162 -130h-27l-147 116h-6z" />
    <glyph glyph-name="atilde" unicode="&#xe3;" horiz-adv-x="670" 
d="M103 31.5q-53 41.5 -53 108.5q0 70 64.5 112.5t205.5 42.5q93 0 144.5 12.5t71 35.5t19.5 57q0 31 -23 58.5t-72.5 44.5t-124.5 17t-147 -19t-113 -43v22q38 23 109 41.5t151 18.5q81 0 135 -19.5t79.5 -51t25.5 -68.5v-401h-20v115q-24 -30 -67.5 -58.5t-102.5 -47.5
t-125 -19q-104 0 -157 41.5zM386 30.5q59 20.5 102 51.5t67 63v190q-8 -23 -67.5 -41.5t-167.5 -18.5q-132 0 -191 -37.5t-59 -97.5q0 -58 47.5 -94t142.5 -36q67 0 126 20.5zM360.5 646.5q-20.5 11.5 -47.5 33.5q-26 21 -42.5 30.5t-35.5 9.5q-25 0 -40 -16t-15 -44v-20
h-20v20q0 37 20.5 58.5t54.5 21.5q24 0 44.5 -11.5t47.5 -33.5q26 -21 42.5 -30.5t35.5 -9.5q25 0 40 16t15 44v20h20v-20q0 -37 -20.5 -58.5t-54.5 -21.5q-24 0 -44.5 11.5z" />
    <glyph glyph-name="adieresis" unicode="&#xe4;" horiz-adv-x="670" 
d="M103 31.5q-53 41.5 -53 108.5q0 70 64.5 112.5t205.5 42.5q93 0 144.5 12.5t71 35.5t19.5 57q0 31 -23 58.5t-72.5 44.5t-124.5 17t-147 -19t-113 -43v22q38 23 109 41.5t151 18.5q81 0 135 -19.5t79.5 -51t25.5 -68.5v-401h-20v115q-24 -30 -67.5 -58.5t-102.5 -47.5
t-125 -19q-104 0 -157 41.5zM386 30.5q59 20.5 102 51.5t67 63v190q-8 -23 -67.5 -41.5t-167.5 -18.5q-132 0 -191 -37.5t-59 -97.5q0 -58 47.5 -94t142.5 -36q67 0 126 20.5zM213.5 667.5q-8.5 7.5 -8.5 17.5t8.5 17.5t21.5 7.5t21.5 -7.5t8.5 -17.5t-8.5 -17.5t-21.5 -7.5
t-21.5 7.5zM383.5 667.5q-8.5 7.5 -8.5 17.5t8.5 17.5t21.5 7.5t21.5 -7.5t8.5 -17.5t-8.5 -17.5t-21.5 -7.5t-21.5 7.5z" />
    <glyph glyph-name="aring" unicode="&#xe5;" horiz-adv-x="670" 
d="M103 31.5q-53 41.5 -53 108.5q0 70 64.5 112.5t205.5 42.5q93 0 144.5 12.5t71 35.5t19.5 57q0 31 -23 58.5t-72.5 44.5t-124.5 17t-147 -19t-113 -43v22q38 23 109 41.5t151 18.5q81 0 135 -19.5t79.5 -51t25.5 -68.5v-401h-20v115q-24 -30 -67.5 -58.5t-102.5 -47.5
t-125 -19q-104 0 -157 41.5zM386 30.5q59 20.5 102 51.5t67 63v190q-8 -23 -67.5 -41.5t-167.5 -18.5q-132 0 -191 -37.5t-59 -97.5q0 -58 47.5 -94t142.5 -36q67 0 126 20.5zM236 619.5q-31 24.5 -31 65.5t31 65.5t84 24.5t84 -24.5t31 -65.5t-31 -65.5t-84 -24.5t-84 24.5
zM389.5 634q25.5 19 25.5 51t-25.5 51t-69.5 19t-69.5 -19t-25.5 -51t25.5 -51t69.5 -19t69.5 19z" />
    <glyph glyph-name="ae" unicode="&#xe6;" horiz-adv-x="1160" 
d="M1095 265h-535q2 -118 75.5 -186.5t204.5 -68.5q70 0 128.5 17.5t86.5 39.5v-22q-28 -21 -86.5 -38t-128.5 -17q-95 0 -163.5 35t-103.5 100h-4q-25 -27 -69 -57.5t-107 -54t-133 -23.5q-104 0 -157 40.5t-53 104.5q0 68 54.5 109t165.5 41h270v85q0 73 -49 111.5
t-156 38.5q-72 0 -143.5 -18t-116.5 -40v22q41 22 111.5 39t148.5 17q113 0 168 -41.5t57 -116.5h4q26 72 94 115t162 43q78 0 141 -34.5t98.5 -94t35.5 -131.5v-15zM1075 285q-2 70 -36.5 123.5t-92 82.5t-126.5 29q-75 0 -132.5 -29.5t-91 -83t-36.5 -122.5h515zM441 53.5
q78 43.5 122 93.5q-21 49 -23 118h-270q-102 0 -151 -35.5t-49 -94.5q0 -55 47.5 -90t142.5 -35q103 0 181 43.5z" />
    <glyph glyph-name="ccedilla" unicode="&#xe7;" horiz-adv-x="670" 
d="M225 486.5q-68 -33.5 -104 -91.5t-36 -130t36 -130t103 -91.5t156 -33.5q67 0 122 16t88 37v-22q-32 -20 -88 -35.5t-122 -15.5q-25 0 -37 1l-15 -51h52q51 0 78 -22.5t27 -57.5q0 -37 -30 -58.5t-84 -21.5q-38 0 -81 10v21q43 -11 82 -11q45 0 69 16t24 44
q0 26 -21.5 43t-63.5 17h-66l-10 10l19 64q-79 10 -137.5 48t-89.5 95.5t-31 127.5q0 78 38.5 140.5t111 98.5t170.5 36q73 0 131.5 -17t93.5 -39v-22q-35 23 -93.5 40.5t-131.5 17.5q-92 0 -160 -33.5z" />
    <glyph glyph-name="egrave" unicode="&#xe8;" horiz-adv-x="700" 
d="M213.5 26q-71.5 36 -110 98.5t-38.5 140.5q0 80 36 142.5t102 97.5t152 35q79 0 143 -36.5t100.5 -99t36.5 -139.5v-15h-550q4 -68 41 -123t102.5 -86t151.5 -31q70 0 128.5 17.5t86.5 39.5v-22q-28 -21 -86.5 -38t-128.5 -17q-95 0 -166.5 36zM615 270q-2 73 -37 130
t-93.5 88.5t-129.5 31.5q-79 0 -140 -32t-95 -89t-35 -129h530zM475 630l-245 85v25h10l240 -95z" />
    <glyph glyph-name="eacute" unicode="&#xe9;" horiz-adv-x="700" 
d="M213.5 26q-71.5 36 -110 98.5t-38.5 140.5q0 80 36 142.5t102 97.5t152 35q79 0 143 -36.5t100.5 -99t36.5 -139.5v-15h-550q4 -68 41 -123t102.5 -86t151.5 -31q70 0 128.5 17.5t86.5 39.5v-22q-28 -21 -86.5 -38t-128.5 -17q-95 0 -166.5 36zM615 270q-2 73 -37 130
t-93.5 88.5t-129.5 31.5q-79 0 -140 -32t-95 -89t-35 -129h530zM215 630l-5 15l240 95h10v-25z" />
    <glyph glyph-name="ecircumflex" unicode="&#xea;" horiz-adv-x="700" 
d="M213.5 26q-71.5 36 -110 98.5t-38.5 140.5q0 80 36 142.5t102 97.5t152 35q79 0 143 -36.5t100.5 -99t36.5 -139.5v-15h-550q4 -68 41 -123t102.5 -86t151.5 -31q70 0 128.5 17.5t86.5 39.5v-22q-28 -21 -86.5 -38t-128.5 -17q-95 0 -166.5 36zM615 270q-2 73 -37 130
t-93.5 88.5t-129.5 31.5q-79 0 -140 -32t-95 -89t-35 -129h530zM195 620h-27l162 130h30l162 -130h-27l-147 116h-6z" />
    <glyph glyph-name="edieresis" unicode="&#xeb;" horiz-adv-x="700" 
d="M213.5 26q-71.5 36 -110 98.5t-38.5 140.5q0 80 36 142.5t102 97.5t152 35q79 0 143 -36.5t100.5 -99t36.5 -139.5v-15h-550q4 -68 41 -123t102.5 -86t151.5 -31q70 0 128.5 17.5t86.5 39.5v-22q-28 -21 -86.5 -38t-128.5 -17q-95 0 -166.5 36zM615 270q-2 73 -37 130
t-93.5 88.5t-129.5 31.5q-79 0 -140 -32t-95 -89t-35 -129h530zM238.5 667.5q-8.5 7.5 -8.5 17.5t8.5 17.5t21.5 7.5t21.5 -7.5t8.5 -17.5t-8.5 -17.5t-21.5 -7.5t-21.5 7.5zM408.5 667.5q-8.5 7.5 -8.5 17.5t8.5 17.5t21.5 7.5t21.5 -7.5t8.5 -17.5t-8.5 -17.5t-21.5 -7.5
t-21.5 7.5z" />
    <glyph glyph-name="igrave" unicode="&#xec;" horiz-adv-x="220" 
d="M120 0h-20v530h20v-530zM160 630l-245 85v25h10l240 -95z" />
    <glyph glyph-name="iacute" unicode="&#xed;" horiz-adv-x="220" 
d="M120 0h-20v530h20v-530zM60 630l-5 15l240 95h10v-25z" />
    <glyph glyph-name="icircumflex" unicode="&#xee;" horiz-adv-x="220" 
d="M120 0h-20v530h20v-530zM-40 620h-27l162 130h30l162 -130h-27l-147 116h-6z" />
    <glyph glyph-name="idieresis" unicode="&#xef;" horiz-adv-x="220" 
d="M120 0h-20v530h20v-530zM3.5 667.5q-8.5 7.5 -8.5 17.5t8.5 17.5t21.5 7.5t21.5 -7.5t8.5 -17.5t-8.5 -17.5t-21.5 -7.5t-21.5 7.5zM173.5 667.5q-8.5 7.5 -8.5 17.5t8.5 17.5t21.5 7.5t21.5 -7.5t8.5 -17.5t-8.5 -17.5t-21.5 -7.5t-21.5 7.5z" />
    <glyph glyph-name="eth" unicode="&#xf0;" horiz-adv-x="785" 
d="M355 650q128 -19 203.5 -61.5t111 -121t35.5 -207.5q0 -136 -87.5 -203t-242.5 -67q-106 0 -178 29.5t-107 80.5t-35 115t35 115t107 80.5t178 29.5q118 0 199 -37.5t106 -112.5h6q-6 115 -42 183t-106 103.5t-188 53.5l-71 11l-24 -91l-20 5l24 89l-109 16l5 20l109 -16
l21 76l20 -5l-20 -74zM541.5 37.5q67.5 27.5 100.5 74t33 103.5t-32 103.5t-99.5 74t-168.5 27.5q-100 0 -167.5 -27t-100 -73.5t-32.5 -104.5t32.5 -104.5t100 -73.5t167.5 -27q99 0 166.5 27.5z" />
    <glyph glyph-name="ntilde" unicode="&#xf1;" horiz-adv-x="690" 
d="M100 0v530h20v-118h5q17 30 50.5 59.5t81.5 49t103 19.5q111 0 173 -59t62 -161v-320h-20v320q0 92 -56.5 146t-158.5 54q-58 0 -107 -23.5t-83 -58.5t-50 -71v-367h-20zM385.5 646.5q-20.5 11.5 -47.5 33.5q-26 21 -42.5 30.5t-35.5 9.5q-25 0 -40 -16t-15 -44v-20h-20
v20q0 37 20.5 58.5t54.5 21.5q24 0 44.5 -11.5t47.5 -33.5q26 -21 42.5 -30.5t35.5 -9.5q25 0 40 16t15 44v20h20v-20q0 -37 -20.5 -58.5t-54.5 -21.5q-24 0 -44.5 11.5z" />
    <glyph glyph-name="ograve" unicode="&#xf2;" horiz-adv-x="770" 
d="M214.5 26q-72.5 36 -111 98.5t-38.5 140.5t38.5 140.5t111 98.5t170.5 36t170.5 -36t111 -98.5t38.5 -140.5t-38.5 -140.5t-111 -98.5t-170.5 -36t-170.5 36zM545 43.5q68 33.5 104 91.5t36 130t-36 130t-104 91.5t-160 33.5t-160 -33.5t-104 -91.5t-36 -130t36 -130
t104 -91.5t160 -33.5t160 33.5zM515 630l-245 85v25h10l240 -95z" />
    <glyph glyph-name="oacute" unicode="&#xf3;" horiz-adv-x="770" 
d="M214.5 26q-72.5 36 -111 98.5t-38.5 140.5t38.5 140.5t111 98.5t170.5 36t170.5 -36t111 -98.5t38.5 -140.5t-38.5 -140.5t-111 -98.5t-170.5 -36t-170.5 36zM545 43.5q68 33.5 104 91.5t36 130t-36 130t-104 91.5t-160 33.5t-160 -33.5t-104 -91.5t-36 -130t36 -130
t104 -91.5t160 -33.5t160 33.5zM255 630l-5 15l240 95h10v-25z" />
    <glyph glyph-name="ocircumflex" unicode="&#xf4;" horiz-adv-x="770" 
d="M214.5 26q-72.5 36 -111 98.5t-38.5 140.5t38.5 140.5t111 98.5t170.5 36t170.5 -36t111 -98.5t38.5 -140.5t-38.5 -140.5t-111 -98.5t-170.5 -36t-170.5 36zM545 43.5q68 33.5 104 91.5t36 130t-36 130t-104 91.5t-160 33.5t-160 -33.5t-104 -91.5t-36 -130t36 -130
t104 -91.5t160 -33.5t160 33.5zM235 620h-27l162 130h30l162 -130h-27l-147 116h-6z" />
    <glyph glyph-name="otilde" unicode="&#xf5;" horiz-adv-x="770" 
d="M214.5 26q-72.5 36 -111 98.5t-38.5 140.5t38.5 140.5t111 98.5t170.5 36t170.5 -36t111 -98.5t38.5 -140.5t-38.5 -140.5t-111 -98.5t-170.5 -36t-170.5 36zM545 43.5q68 33.5 104 91.5t36 130t-36 130t-104 91.5t-160 33.5t-160 -33.5t-104 -91.5t-36 -130t36 -130
t104 -91.5t160 -33.5t160 33.5zM425.5 646.5q-20.5 11.5 -47.5 33.5q-26 21 -42.5 30.5t-35.5 9.5q-25 0 -40 -16t-15 -44v-20h-20v20q0 37 20.5 58.5t54.5 21.5q24 0 44.5 -11.5t47.5 -33.5q26 -21 42.5 -30.5t35.5 -9.5q25 0 40 16t15 44v20h20v-20q0 -37 -20.5 -58.5
t-54.5 -21.5q-24 0 -44.5 11.5z" />
    <glyph glyph-name="odieresis" unicode="&#xf6;" horiz-adv-x="770" 
d="M214.5 26q-72.5 36 -111 98.5t-38.5 140.5t38.5 140.5t111 98.5t170.5 36t170.5 -36t111 -98.5t38.5 -140.5t-38.5 -140.5t-111 -98.5t-170.5 -36t-170.5 36zM545 43.5q68 33.5 104 91.5t36 130t-36 130t-104 91.5t-160 33.5t-160 -33.5t-104 -91.5t-36 -130t36 -130
t104 -91.5t160 -33.5t160 33.5zM278.5 667.5q-8.5 7.5 -8.5 17.5t8.5 17.5t21.5 7.5t21.5 -7.5t8.5 -17.5t-8.5 -17.5t-21.5 -7.5t-21.5 7.5zM448.5 667.5q-8.5 7.5 -8.5 17.5t8.5 17.5t21.5 7.5t21.5 -7.5t8.5 -17.5t-8.5 -17.5t-21.5 -7.5t-21.5 7.5z" />
    <glyph glyph-name="divide" unicode="&#xf7;" horiz-adv-x="600" 
d="M282 478q-7 8 -7 22t7 22t18 8t18 -8t7 -22t-7 -22t-18 -8t-18 8zM540 300h-480v20h480v-20zM282 98q-7 8 -7 22t7 22t18 8t18 -8t7 -22t-7 -22t-18 -8t-18 8z" />
    <glyph glyph-name="oslash" unicode="&#xf8;" horiz-adv-x="770" 
d="M606 472q48 -38 73.5 -91t25.5 -116q0 -78 -38.5 -140.5t-111 -98.5t-170.5 -36q-123 0 -207 57l-48 -47h-25l59 58q-48 38 -73.5 91t-25.5 116q0 78 38.5 140.5t111 98.5t170.5 36q123 0 207 -57l48 47h25zM109 157.5q24 -49.5 69 -84.5l399 395q-77 52 -192 52
q-92 0 -160 -33.5t-104 -91.5t-36 -130q0 -58 24 -107.5zM545 43.5q68 33.5 104 91.5t36 130q0 58 -24 107.5t-69 84.5l-399 -395q77 -52 192 -52q92 0 160 33.5z" />
    <glyph glyph-name="ugrave" unicode="&#xf9;" horiz-adv-x="690" 
d="M157 49q-62 59 -62 161v320h20v-320q0 -92 56.5 -146t158.5 -54q58 0 107 23.5t83 58.5t50 71v367h20v-530h-20v118h-5q-17 -30 -50.5 -59.5t-81.5 -49t-103 -19.5q-111 0 -173 59zM465 630l-245 85v25h10l240 -95z" />
    <glyph glyph-name="uacute" unicode="&#xfa;" horiz-adv-x="690" 
d="M157 49q-62 59 -62 161v320h20v-320q0 -92 56.5 -146t158.5 -54q58 0 107 23.5t83 58.5t50 71v367h20v-530h-20v118h-5q-17 -30 -50.5 -59.5t-81.5 -49t-103 -19.5q-111 0 -173 59zM225 630l-5 15l240 95h10v-25z" />
    <glyph glyph-name="ucircumflex" unicode="&#xfb;" horiz-adv-x="690" 
d="M157 49q-62 59 -62 161v320h20v-320q0 -92 56.5 -146t158.5 -54q58 0 107 23.5t83 58.5t50 71v367h20v-530h-20v118h-5q-17 -30 -50.5 -59.5t-81.5 -49t-103 -19.5q-111 0 -173 59zM190 620h-27l162 130h30l162 -130h-27l-147 116h-6z" />
    <glyph glyph-name="udieresis" unicode="&#xfc;" horiz-adv-x="690" 
d="M157 49q-62 59 -62 161v320h20v-320q0 -92 56.5 -146t158.5 -54q58 0 107 23.5t83 58.5t50 71v367h20v-530h-20v118h-5q-17 -30 -50.5 -59.5t-81.5 -49t-103 -19.5q-111 0 -173 59zM233.5 667.5q-8.5 7.5 -8.5 17.5t8.5 17.5t21.5 7.5t21.5 -7.5t8.5 -17.5t-8.5 -17.5
t-21.5 -7.5t-21.5 7.5zM403.5 667.5q-8.5 7.5 -8.5 17.5t8.5 17.5t21.5 7.5t21.5 -7.5t8.5 -17.5t-8.5 -17.5t-21.5 -7.5t-21.5 7.5z" />
    <glyph glyph-name="yacute" unicode="&#xfd;" horiz-adv-x="540" 
d="M171 -190h-24l123 240l-270 480h24l255 -454h5l232 454h24zM150 630l-5 15l240 95h10v-25z" />
    <glyph glyph-name="thorn" unicode="&#xfe;" 
d="M100 -190v910h20v-300h5q35 46 103 83t147 37q88 0 155 -35t103.5 -97.5t36.5 -142.5t-36 -142.5t-102 -97.5t-152 -35q-82 0 -151 37t-104 83h-5v-300h-20zM521.5 42.5q61.5 32.5 95 90.5t33.5 132t-34 132t-96 90.5t-145 32.5q-82 0 -151 -42.5t-104 -95.5v-234
q35 -53 105 -95.5t155 -42.5q80 0 141.5 32.5z" />
    <glyph glyph-name="ydieresis" unicode="&#xff;" horiz-adv-x="540" 
d="M171 -190h-24l123 240l-270 480h24l255 -454h5l232 454h24zM163.5 667.5q-8.5 7.5 -8.5 17.5t8.5 17.5t21.5 7.5t21.5 -7.5t8.5 -17.5t-8.5 -17.5t-21.5 -7.5t-21.5 7.5zM333.5 667.5q-8.5 7.5 -8.5 17.5t8.5 17.5t21.5 7.5t21.5 -7.5t8.5 -17.5t-8.5 -17.5t-21.5 -7.5
t-21.5 7.5z" />
    <glyph glyph-name="Amacron" unicode="&#x100;" horiz-adv-x="750" 
d="M755 0h-23l-117 225h-480l-117 -225h-23l365 700h30zM372 680l-226 -435h458l-226 435h-6zM545 835h-340v20h340v-20z" />
    <glyph glyph-name="amacron" unicode="&#x101;" horiz-adv-x="670" 
d="M103 31.5q-53 41.5 -53 108.5q0 70 64.5 112.5t205.5 42.5q93 0 144.5 12.5t71 35.5t19.5 57q0 31 -23 58.5t-72.5 44.5t-124.5 17t-147 -19t-113 -43v22q38 23 109 41.5t151 18.5q81 0 135 -19.5t79.5 -51t25.5 -68.5v-401h-20v115q-24 -30 -67.5 -58.5t-102.5 -47.5
t-125 -19q-104 0 -157 41.5zM386 30.5q59 20.5 102 51.5t67 63v190q-8 -23 -67.5 -41.5t-167.5 -18.5q-132 0 -191 -37.5t-59 -97.5q0 -58 47.5 -94t142.5 -36q67 0 126 20.5zM490 675h-340v20h340v-20z" />
    <glyph glyph-name="Abreve" unicode="&#x102;" horiz-adv-x="750" 
d="M755 0h-23l-117 225h-480l-117 -225h-23l365 700h30zM372 680l-226 -435h458l-226 435h-6zM264 821.5q-39 31.5 -39 78.5h20q0 -38 33.5 -64t96.5 -26t96.5 26t33.5 64h20q0 -47 -39 -78.5t-111 -31.5t-111 31.5z" />
    <glyph glyph-name="abreve" unicode="&#x103;" horiz-adv-x="670" 
d="M103 31.5q-53 41.5 -53 108.5q0 70 64.5 112.5t205.5 42.5q93 0 144.5 12.5t71 35.5t19.5 57q0 31 -23 58.5t-72.5 44.5t-124.5 17t-147 -19t-113 -43v22q38 23 109 41.5t151 18.5q81 0 135 -19.5t79.5 -51t25.5 -68.5v-401h-20v115q-24 -30 -67.5 -58.5t-102.5 -47.5
t-125 -19q-104 0 -157 41.5zM386 30.5q59 20.5 102 51.5t67 63v190q-8 -23 -67.5 -41.5t-167.5 -18.5q-132 0 -191 -37.5t-59 -97.5q0 -58 47.5 -94t142.5 -36q67 0 126 20.5zM209 661.5q-39 31.5 -39 78.5h20q0 -38 33.5 -64t96.5 -26t96.5 26t33.5 64h20q0 -47 -39 -78.5
t-111 -31.5t-111 31.5z" />
    <glyph glyph-name="Aogonek" unicode="&#x104;" horiz-adv-x="750" 
d="M676 -180q41 0 74 7v-20q-33 -7 -74 -7q-48 0 -72 18.5t-24 50.5q0 43 43 79.5t105 59.5l-113 217h-480l-117 -225h-23l365 700h30l365 -700q-62 -21 -108.5 -56t-46.5 -75q0 -49 76 -49zM372 680l-226 -435h458l-226 435h-6z" />
    <glyph glyph-name="aogonek" unicode="&#x105;" horiz-adv-x="670" 
d="M575 0q-62 -22 -108.5 -56t-46.5 -75q0 -49 76 -49q41 0 74 7v-20q-33 -7 -74 -7q-48 0 -72 18.5t-24 50.5q0 43 44 80t111 63v103q-24 -30 -67.5 -58.5t-102.5 -47.5t-125 -19q-104 0 -157 41.5t-53 108.5q0 70 64.5 112.5t205.5 42.5q93 0 144.5 12.5t71 35.5t19.5 57
q0 31 -23 58.5t-72.5 44.5t-124.5 17t-147 -19t-113 -43v22q38 23 109 41.5t151 18.5q81 0 135 -19.5t79.5 -51t25.5 -68.5v-401zM386 30.5q59 20.5 102 51.5t67 63v190q-8 -23 -67.5 -41.5t-167.5 -18.5q-132 0 -191 -37.5t-59 -97.5q0 -58 47.5 -94t142.5 -36
q67 0 126 20.5z" />
    <glyph glyph-name="Cacute" unicode="&#x106;" horiz-adv-x="850" 
d="M266.5 37.5q-94.5 47.5 -145.5 130t-51 182.5q0 101 52 183t150.5 129.5t232.5 47.5q87 0 162 -23t113 -52v-24q-36 30 -110.5 54.5t-164.5 24.5q-128 0 -222 -45t-143.5 -122.5t-49.5 -172.5q0 -94 48.5 -172t138.5 -123t208 -45q82 0 152.5 19t112.5 43v-24
q-42 -22 -112.5 -40t-152.5 -18q-124 0 -218.5 47.5zM350 790l-5 15l240 95h10v-25z" />
    <glyph glyph-name="cacute" unicode="&#x107;" horiz-adv-x="670" 
d="M213.5 26q-71.5 36 -110 98.5t-38.5 140.5t38.5 140.5t111 98.5t170.5 36q73 0 131.5 -17t93.5 -39v-22q-35 23 -93.5 40.5t-131.5 17.5q-92 0 -160 -33.5t-104 -91.5t-36 -130t36 -130t103 -91.5t156 -33.5q67 0 122 16t88 37v-22q-32 -20 -88 -35.5t-122 -15.5
q-95 0 -166.5 36zM240 630l-5 15l240 95h10v-25z" />
    <glyph glyph-name="Ccircumflex" unicode="&#x108;" horiz-adv-x="850" 
d="M266.5 37.5q-94.5 47.5 -145.5 130t-51 182.5q0 101 52 183t150.5 129.5t232.5 47.5q87 0 162 -23t113 -52v-24q-36 30 -110.5 54.5t-164.5 24.5q-128 0 -222 -45t-143.5 -122.5t-49.5 -172.5q0 -94 48.5 -172t138.5 -123t208 -45q82 0 152.5 19t112.5 43v-24
q-42 -22 -112.5 -40t-152.5 -18q-124 0 -218.5 47.5zM330 780h-27l162 130h30l162 -130h-27l-147 116h-6z" />
    <glyph glyph-name="ccircumflex" unicode="&#x109;" horiz-adv-x="670" 
d="M213.5 26q-71.5 36 -110 98.5t-38.5 140.5t38.5 140.5t111 98.5t170.5 36q73 0 131.5 -17t93.5 -39v-22q-35 23 -93.5 40.5t-131.5 17.5q-92 0 -160 -33.5t-104 -91.5t-36 -130t36 -130t103 -91.5t156 -33.5q67 0 122 16t88 37v-22q-32 -20 -88 -35.5t-122 -15.5
q-95 0 -166.5 36zM220 620h-27l162 130h30l162 -130h-27l-147 116h-6z" />
    <glyph glyph-name="Cdotaccent" unicode="&#x10a;" horiz-adv-x="850" 
d="M266.5 37.5q-94.5 47.5 -145.5 130t-51 182.5q0 101 52 183t150.5 129.5t232.5 47.5q87 0 162 -23t113 -52v-24q-36 30 -110.5 54.5t-164.5 24.5q-128 0 -222 -45t-143.5 -122.5t-49.5 -172.5q0 -94 48.5 -172t138.5 -123t208 -45q82 0 152.5 19t112.5 43v-24
q-42 -22 -112.5 -40t-152.5 -18q-124 0 -218.5 47.5zM458.5 827.5q-8.5 7.5 -8.5 17.5t8.5 17.5t21.5 7.5t21.5 -7.5t8.5 -17.5t-8.5 -17.5t-21.5 -7.5t-21.5 7.5z" />
    <glyph glyph-name="cdotaccent" unicode="&#x10b;" horiz-adv-x="670" 
d="M213.5 26q-71.5 36 -110 98.5t-38.5 140.5t38.5 140.5t111 98.5t170.5 36q73 0 131.5 -17t93.5 -39v-22q-35 23 -93.5 40.5t-131.5 17.5q-92 0 -160 -33.5t-104 -91.5t-36 -130t36 -130t103 -91.5t156 -33.5q67 0 122 16t88 37v-22q-32 -20 -88 -35.5t-122 -15.5
q-95 0 -166.5 36zM348.5 667.5q-8.5 7.5 -8.5 17.5t8.5 17.5t21.5 7.5t21.5 -7.5t8.5 -17.5t-8.5 -17.5t-21.5 -7.5t-21.5 7.5z" />
    <glyph glyph-name="Ccaron" unicode="&#x10c;" horiz-adv-x="850" 
d="M266.5 37.5q-94.5 47.5 -145.5 130t-51 182.5q0 101 52 183t150.5 129.5t232.5 47.5q87 0 162 -23t113 -52v-24q-36 30 -110.5 54.5t-164.5 24.5q-128 0 -222 -45t-143.5 -122.5t-49.5 -172.5q0 -94 48.5 -172t138.5 -123t208 -45q82 0 152.5 19t112.5 43v-24
q-42 -22 -112.5 -40t-152.5 -18q-124 0 -218.5 47.5zM495 780h-30l-162 130h27l147 -116h6l147 116h27z" />
    <glyph glyph-name="ccaron" unicode="&#x10d;" horiz-adv-x="670" 
d="M213.5 26q-71.5 36 -110 98.5t-38.5 140.5t38.5 140.5t111 98.5t170.5 36q73 0 131.5 -17t93.5 -39v-22q-35 23 -93.5 40.5t-131.5 17.5q-92 0 -160 -33.5t-104 -91.5t-36 -130t36 -130t103 -91.5t156 -33.5q67 0 122 16t88 37v-22q-32 -20 -88 -35.5t-122 -15.5
q-95 0 -166.5 36zM385 620h-30l-162 130h27l147 -116h6l147 116h27z" />
    <glyph glyph-name="Dcaron" unicode="&#x10e;" horiz-adv-x="880" 
d="M110 0v700h265q139 0 237 -45t148 -124.5t50 -180.5t-50 -180.5t-148 -124.5t-237 -45h-265zM375 20q132 0 225.5 43t141.5 117.5t48 169.5t-48 169.5t-141.5 117.5t-225.5 43h-245v-660h245zM441 780h-30l-162 130h27l147 -116h6l147 116h27z" />
    <glyph glyph-name="dcaron" unicode="&#x10f;" 
d="M689 717.5q9 7.5 25 7.5q29 0 50 -24t21 -61q0 -51 -28.5 -80.5t-76.5 -29.5v20q38 0 61.5 24.5t23.5 65.5q0 40 -26 56q-2 -9 -10 -15t-19 -6q-14 0 -22 7t-8 17q0 11 9 18.5zM210 25q-67 35 -103.5 97.5t-36.5 142.5t36 142.5t102 97.5t152 35q82 0 151 -37t104 -83h5
v300h20v-5v-15v-700h-20v110h-5q-35 -46 -103 -83t-147 -37q-88 0 -155 35zM516 52.5q69 42.5 104 95.5v234q-35 53 -105 95.5t-155 42.5q-80 0 -141.5 -32.5t-95 -90.5t-33.5 -132t34 -132t96 -90.5t145 -32.5q82 0 151 42.5z" />
    <glyph glyph-name="Dcroat" unicode="&#x110;" horiz-adv-x="875" 
d="M370 700q139 0 237 -45t148 -124.5t50 -180.5t-50 -180.5t-148 -124.5t-237 -45h-265v335h-85v20h85v345h265zM370 20q132 0 225.5 43t141.5 117.5t48 169.5t-48 169.5t-141.5 117.5t-225.5 43h-245v-325h260v-20h-260v-315h245z" />
    <glyph glyph-name="dcroat" unicode="&#x111;" horiz-adv-x="730" 
d="M725 560v-20h-105v-540h-20v95h-5q-37 -40 -109 -72.5t-156 -32.5q-87 0 -150.5 29t-96.5 77t-33 104t33 104t96.5 77t150.5 29q84 0 156 -32.5t109 -72.5h5v235h-215v20h215v160h20v-160h105zM600 272q-36 45 -109 81.5t-161 36.5q-81 0 -140 -26.5t-89.5 -70
t-30.5 -93.5t30.5 -93.5t89.5 -70t140 -26.5q88 0 161 36.5t109 81.5v144z" />
    <glyph glyph-name="Emacron" unicode="&#x112;" horiz-adv-x="700" 
d="M130 350v-330h510v-20h-530v700h510v-20h-490v-310h450v-20h-450zM535 835h-340v20h340v-20z" />
    <glyph glyph-name="emacron" unicode="&#x113;" horiz-adv-x="700" 
d="M213.5 26q-71.5 36 -110 98.5t-38.5 140.5q0 80 36 142.5t102 97.5t152 35q79 0 143 -36.5t100.5 -99t36.5 -139.5v-15h-550q4 -68 41 -123t102.5 -86t151.5 -31q70 0 128.5 17.5t86.5 39.5v-22q-28 -21 -86.5 -38t-128.5 -17q-95 0 -166.5 36zM615 270q-2 73 -37 130
t-93.5 88.5t-129.5 31.5q-79 0 -140 -32t-95 -89t-35 -129h530zM515 675h-340v20h340v-20z" />
    <glyph glyph-name="Ebreve" unicode="&#x114;" horiz-adv-x="700" 
d="M130 350v-330h510v-20h-530v700h510v-20h-490v-310h450v-20h-450zM254 821.5q-39 31.5 -39 78.5h20q0 -38 33.5 -64t96.5 -26t96.5 26t33.5 64h20q0 -47 -39 -78.5t-111 -31.5t-111 31.5z" />
    <glyph glyph-name="ebreve" unicode="&#x115;" horiz-adv-x="700" 
d="M213.5 26q-71.5 36 -110 98.5t-38.5 140.5q0 80 36 142.5t102 97.5t152 35q79 0 143 -36.5t100.5 -99t36.5 -139.5v-15h-550q4 -68 41 -123t102.5 -86t151.5 -31q70 0 128.5 17.5t86.5 39.5v-22q-28 -21 -86.5 -38t-128.5 -17q-95 0 -166.5 36zM615 270q-2 73 -37 130
t-93.5 88.5t-129.5 31.5q-79 0 -140 -32t-95 -89t-35 -129h530zM234 661.5q-39 31.5 -39 78.5h20q0 -38 33.5 -64t96.5 -26t96.5 26t33.5 64h20q0 -47 -39 -78.5t-111 -31.5t-111 31.5z" />
    <glyph glyph-name="Edotaccent" unicode="&#x116;" horiz-adv-x="700" 
d="M130 350v-330h510v-20h-530v700h510v-20h-490v-310h450v-20h-450zM343.5 827.5q-8.5 7.5 -8.5 17.5t8.5 17.5t21.5 7.5t21.5 -7.5t8.5 -17.5t-8.5 -17.5t-21.5 -7.5t-21.5 7.5z" />
    <glyph glyph-name="edotaccent" unicode="&#x117;" horiz-adv-x="700" 
d="M213.5 26q-71.5 36 -110 98.5t-38.5 140.5q0 80 36 142.5t102 97.5t152 35q79 0 143 -36.5t100.5 -99t36.5 -139.5v-15h-550q4 -68 41 -123t102.5 -86t151.5 -31q70 0 128.5 17.5t86.5 39.5v-22q-28 -21 -86.5 -38t-128.5 -17q-95 0 -166.5 36zM615 270q-2 73 -37 130
t-93.5 88.5t-129.5 31.5q-79 0 -140 -32t-95 -89t-35 -129h530zM323.5 667.5q-8.5 7.5 -8.5 17.5t8.5 17.5t21.5 7.5t21.5 -7.5t8.5 -17.5t-8.5 -17.5t-21.5 -7.5t-21.5 7.5z" />
    <glyph glyph-name="Eogonek" unicode="&#x118;" horiz-adv-x="700" 
d="M640 0q-62 -22 -108.5 -56t-46.5 -75q0 -49 76 -49q41 0 74 7v-20q-33 -7 -74 -7q-48 0 -72 18.5t-24 50.5q0 41 37 73.5t81 52.5v5h-473v700h510v-20h-490v-310h450v-20h-450v-330h510v-20z" />
    <glyph glyph-name="eogonek" unicode="&#x119;" horiz-adv-x="700" 
d="M309 -181.5q-24 18.5 -24 50.5t26 61.5t69 53.5v6q-95 0 -166.5 36t-110 98.5t-38.5 140.5q0 80 36 142.5t102 97.5t152 35q79 0 143 -36.5t100.5 -99t36.5 -139.5v-15h-550q4 -68 41 -123t102.5 -86t151.5 -31q70 0 128.5 17.5t86.5 39.5v-22q-21 -15 -59.5 -29.5
t-82.5 -21.5q-32 -5 -67 -24.5t-58 -46.5t-23 -54q0 -49 76 -49q41 0 74 7v-20q-33 -7 -74 -7q-48 0 -72 18.5zM615 270q-2 73 -37 130t-93.5 88.5t-129.5 31.5q-79 0 -140 -32t-95 -89t-35 -129h530z" />
    <glyph glyph-name="Ecaron" unicode="&#x11a;" horiz-adv-x="700" 
d="M130 350v-330h510v-20h-530v700h510v-20h-490v-310h450v-20h-450zM380 780h-30l-162 130h27l147 -116h6l147 116h27z" />
    <glyph glyph-name="ecaron" unicode="&#x11b;" horiz-adv-x="700" 
d="M213.5 26q-71.5 36 -110 98.5t-38.5 140.5q0 80 36 142.5t102 97.5t152 35q79 0 143 -36.5t100.5 -99t36.5 -139.5v-15h-550q4 -68 41 -123t102.5 -86t151.5 -31q70 0 128.5 17.5t86.5 39.5v-22q-28 -21 -86.5 -38t-128.5 -17q-95 0 -166.5 36zM615 270q-2 73 -37 130
t-93.5 88.5t-129.5 31.5q-79 0 -140 -32t-95 -89t-35 -129h530zM360 620h-30l-162 130h27l147 -116h6l147 116h27z" />
    <glyph glyph-name="Gcircumflex" unicode="&#x11c;" horiz-adv-x="900" 
d="M272.5 37.5q-98.5 47.5 -150.5 129.5t-52 183t53 183t154.5 129.5t242.5 47.5q96 0 177 -23t123 -52v-24q-40 30 -121 54.5t-179 24.5q-135 0 -232 -45t-147.5 -122.5t-50.5 -172.5t49.5 -172.5t143.5 -122.5t222 -45q85 0 163 22.5t122 50.5v212h-340v20h360v-245
q-47 -30 -130 -55t-175 -25q-134 0 -232.5 47.5zM335 780h-27l162 130h30l162 -130h-27l-147 116h-6z" />
    <glyph glyph-name="gcircumflex" unicode="&#x11d;" 
d="M216.5 -186q-61.5 14 -91.5 31v22q30 -18 91.5 -32.5t133.5 -14.5q82 0 143.5 31.5t94 87t32.5 126.5v65h-5q-35 -46 -103 -83t-147 -37q-91 0 -157.5 33.5t-102 93.5t-35.5 138q0 77 35 137.5t101 94t154 33.5q82 0 151 -37t104 -83h5v110h20v-465q0 -77 -35 -137.5
t-101 -94t-154 -33.5q-72 0 -133.5 14zM516 72.5q69 42.5 104 95.5v214q-35 53 -105 95.5t-155 42.5q-82 0 -143.5 -31t-94 -87t-32.5 -127q0 -72 33 -127.5t95 -86.5t147 -31q82 0 151 42.5zM210 620h-27l162 130h30l162 -130h-27l-147 116h-6z" />
    <glyph glyph-name="Gbreve" unicode="&#x11e;" horiz-adv-x="900" 
d="M272.5 37.5q-98.5 47.5 -150.5 129.5t-52 183t53 183t154.5 129.5t242.5 47.5q96 0 177 -23t123 -52v-24q-40 30 -121 54.5t-179 24.5q-135 0 -232 -45t-147.5 -122.5t-50.5 -172.5t49.5 -172.5t143.5 -122.5t222 -45q85 0 163 22.5t122 50.5v212h-340v20h360v-245
q-47 -30 -130 -55t-175 -25q-134 0 -232.5 47.5zM374 821.5q-39 31.5 -39 78.5h20q0 -38 33.5 -64t96.5 -26t96.5 26t33.5 64h20q0 -47 -39 -78.5t-111 -31.5t-111 31.5z" />
    <glyph glyph-name="gbreve" unicode="&#x11f;" 
d="M216.5 -186q-61.5 14 -91.5 31v22q30 -18 91.5 -32.5t133.5 -14.5q82 0 143.5 31.5t94 87t32.5 126.5v65h-5q-35 -46 -103 -83t-147 -37q-91 0 -157.5 33.5t-102 93.5t-35.5 138q0 77 35 137.5t101 94t154 33.5q82 0 151 -37t104 -83h5v110h20v-465q0 -77 -35 -137.5
t-101 -94t-154 -33.5q-72 0 -133.5 14zM516 72.5q69 42.5 104 95.5v214q-35 53 -105 95.5t-155 42.5q-82 0 -143.5 -31t-94 -87t-32.5 -127q0 -72 33 -127.5t95 -86.5t147 -31q82 0 151 42.5zM249 661.5q-39 31.5 -39 78.5h20q0 -38 33.5 -64t96.5 -26t96.5 26t33.5 64h20
q0 -47 -39 -78.5t-111 -31.5t-111 31.5z" />
    <glyph glyph-name="Gdotaccent" unicode="&#x120;" horiz-adv-x="900" 
d="M272.5 37.5q-98.5 47.5 -150.5 129.5t-52 183t53 183t154.5 129.5t242.5 47.5q96 0 177 -23t123 -52v-24q-40 30 -121 54.5t-179 24.5q-135 0 -232 -45t-147.5 -122.5t-50.5 -172.5t49.5 -172.5t143.5 -122.5t222 -45q85 0 163 22.5t122 50.5v212h-340v20h360v-245
q-47 -30 -130 -55t-175 -25q-134 0 -232.5 47.5zM463.5 827.5q-8.5 7.5 -8.5 17.5t8.5 17.5t21.5 7.5t21.5 -7.5t8.5 -17.5t-8.5 -17.5t-21.5 -7.5t-21.5 7.5z" />
    <glyph glyph-name="gdotaccent" unicode="&#x121;" 
d="M216.5 -186q-61.5 14 -91.5 31v22q30 -18 91.5 -32.5t133.5 -14.5q82 0 143.5 31.5t94 87t32.5 126.5v65h-5q-35 -46 -103 -83t-147 -37q-91 0 -157.5 33.5t-102 93.5t-35.5 138q0 77 35 137.5t101 94t154 33.5q82 0 151 -37t104 -83h5v110h20v-465q0 -77 -35 -137.5
t-101 -94t-154 -33.5q-72 0 -133.5 14zM516 72.5q69 42.5 104 95.5v214q-35 53 -105 95.5t-155 42.5q-82 0 -143.5 -31t-94 -87t-32.5 -127q0 -72 33 -127.5t95 -86.5t147 -31q82 0 151 42.5zM338.5 667.5q-8.5 7.5 -8.5 17.5t8.5 17.5t21.5 7.5t21.5 -7.5t8.5 -17.5
t-8.5 -17.5t-21.5 -7.5t-21.5 7.5z" />
    <glyph glyph-name="uni0122" unicode="&#x122;" horiz-adv-x="900" 
d="M272.5 37.5q-98.5 47.5 -150.5 129.5t-52 183t53 183t154.5 129.5t242.5 47.5q96 0 177 -23t123 -52v-24q-40 30 -121 54.5t-179 24.5q-135 0 -232 -45t-147.5 -122.5t-50.5 -172.5t49.5 -172.5t143.5 -122.5t222 -45q85 0 163 22.5t122 50.5v212h-340v20h360v-245
q-47 -30 -130 -55t-175 -25q-134 0 -232.5 47.5zM440 -270q38 0 61.5 24.5t23.5 65.5q0 22 -7.5 36t-18.5 20q-2 -9 -10 -15t-19 -6q-14 0 -22 7t-8 17q0 11 9 18.5t25 7.5q29 0 50 -24t21 -61q0 -51 -28.5 -80.5t-76.5 -29.5v20z" />
    <glyph glyph-name="uni0123" unicode="&#x123;" 
d="M391 622.5q-9 -7.5 -25 -7.5q-29 0 -50 24t-21 61q0 51 28.5 80.5t76.5 29.5v-20q-38 0 -61.5 -24.5t-23.5 -65.5q0 -22 7.5 -36t18.5 -20q2 9 10 15t19 6q14 0 22 -7t8 -17q0 -11 -9 -18.5zM216.5 -186q-61.5 14 -91.5 31v22q30 -18 91.5 -32.5t133.5 -14.5
q82 0 143.5 31.5t94 87t32.5 126.5v65h-5q-35 -46 -103 -83t-147 -37q-91 0 -157.5 33.5t-102 93.5t-35.5 138q0 77 35 137.5t101 94t154 33.5q82 0 151 -37t104 -83h5v110h20v-465q0 -77 -35 -137.5t-101 -94t-154 -33.5q-72 0 -133.5 14zM516 72.5q69 42.5 104 95.5v214
q-35 53 -105 95.5t-155 42.5q-82 0 -143.5 -31t-94 -87t-32.5 -127q0 -72 33 -127.5t95 -86.5t147 -31q82 0 151 42.5z" />
    <glyph glyph-name="Hcircumflex" unicode="&#x124;" horiz-adv-x="840" 
d="M710 370v330h20v-700h-20v350h-580v-350h-20v700h20v-330h580zM270 780h-27l162 130h30l162 -130h-27l-147 116h-6z" />
    <glyph glyph-name="hcircumflex" unicode="&#x125;" horiz-adv-x="690" 
d="M100 0v720h20v-308h5q17 30 50.5 59.5t81.5 49t103 19.5q111 0 173 -59t62 -161v-320h-20v320q0 92 -56.5 146t-158.5 54q-58 0 -107 -23.5t-83 -58.5t-50 -71v-367h-20zM-40 780h-27l162 130h30l162 -130h-27l-147 116h-6z" />
    <glyph glyph-name="Hbar" unicode="&#x126;" horiz-adv-x="860" 
d="M740 555h100v-20h-100v-535h-20v350h-580v-350h-20v535h-100v20h100v145h20v-145h580v145h20v-145zM140 370h580v165h-580v-165z" />
    <glyph glyph-name="hbar" unicode="&#x127;" horiz-adv-x="690" 
d="M533 481q62 -59 62 -161v-320h-20v320q0 92 -56.5 146t-158.5 54q-58 0 -107 -23.5t-83 -58.5t-50 -71v-367h-20v615h-90v20h90v85h20v-85h210v-20h-210v-203h5q17 30 50.5 59.5t81.5 49t103 19.5q111 0 173 -59z" />
    <glyph glyph-name="Itilde" unicode="&#x128;" horiz-adv-x="670" 
d="M640 700v-20h-295v-660h295v-20h-610v20h295v660h-295v20h610zM375.5 806.5q-20.5 11.5 -47.5 33.5q-26 21 -42.5 30.5t-35.5 9.5q-25 0 -40 -16t-15 -44v-20h-20v20q0 37 20.5 58.5t54.5 21.5q24 0 44.5 -11.5t47.5 -33.5q26 -21 42.5 -30.5t35.5 -9.5q25 0 40 16t15 44
v20h20v-20q0 -37 -20.5 -58.5t-54.5 -21.5q-24 0 -44.5 11.5z" />
    <glyph glyph-name="itilde" unicode="&#x129;" horiz-adv-x="220" 
d="M120 0h-20v530h20v-530zM150.5 646.5q-20.5 11.5 -47.5 33.5q-26 21 -42.5 30.5t-35.5 9.5q-25 0 -40 -16t-15 -44v-20h-20v20q0 37 20.5 58.5t54.5 21.5q24 0 44.5 -11.5t47.5 -33.5q26 -21 42.5 -30.5t35.5 -9.5q25 0 40 16t15 44v20h20v-20q0 -37 -20.5 -58.5
t-54.5 -21.5q-24 0 -44.5 11.5z" />
    <glyph glyph-name="Imacron" unicode="&#x12a;" horiz-adv-x="670" 
d="M640 700v-20h-295v-660h295v-20h-610v20h295v660h-295v20h610zM505 835h-340v20h340v-20z" />
    <glyph glyph-name="imacron" unicode="&#x12b;" horiz-adv-x="220" 
d="M120 0h-20v530h20v-530zM280 675h-340v20h340v-20z" />
    <glyph glyph-name="Ibreve" unicode="&#x12c;" horiz-adv-x="670" 
d="M640 700v-20h-295v-660h295v-20h-610v20h295v660h-295v20h610zM224 821.5q-39 31.5 -39 78.5h20q0 -38 33.5 -64t96.5 -26t96.5 26t33.5 64h20q0 -47 -39 -78.5t-111 -31.5t-111 31.5z" />
    <glyph glyph-name="ibreve" unicode="&#x12d;" horiz-adv-x="220" 
d="M120 0h-20v530h20v-530zM-1 661.5q-39 31.5 -39 78.5h20q0 -38 33.5 -64t96.5 -26t96.5 26t33.5 64h20q0 -47 -39 -78.5t-111 -31.5t-111 31.5z" />
    <glyph glyph-name="Iogonek" unicode="&#x12e;" horiz-adv-x="670" 
d="M640 680h-295v-660h295v-20h-258q-62 -22 -108.5 -56t-46.5 -75q0 -49 76 -49q41 0 74 7v-20q-33 -7 -74 -7q-48 0 -72 18.5t-24 50.5q0 41 37 73.5t81 52.5v5h-295v20h295v660h-295v20h610v-20z" />
    <glyph glyph-name="iogonek" unicode="&#x12f;" horiz-adv-x="220" 
d="M131.5 647.5q8.5 -7.5 8.5 -17.5t-8.5 -17.5t-21.5 -7.5t-21.5 7.5t-8.5 17.5t8.5 17.5t21.5 7.5t21.5 -7.5zM100 530h10h10v-530q-62 -22 -108.5 -56t-46.5 -75q0 -49 76 -49q41 0 74 7v-20q-33 -7 -74 -7q-48 0 -72 18.5t-24 50.5q0 43 44 80t111 63v518z" />
    <glyph glyph-name="Idotaccent" unicode="&#x130;" horiz-adv-x="670" 
d="M640 700v-20h-295v-660h295v-20h-610v20h295v660h-295v20h610zM313.5 827.5q-8.5 7.5 -8.5 17.5t8.5 17.5t21.5 7.5t21.5 -7.5t8.5 -17.5t-8.5 -17.5t-21.5 -7.5t-21.5 7.5z" />
    <glyph glyph-name="dotlessi" unicode="&#x131;" horiz-adv-x="220" 
d="M120 0h-20v530h20v-530z" />
    <glyph glyph-name="IJ" unicode="&#x132;" horiz-adv-x="1215" 
d="M640 700v-20h-295v-660h295v-20h-610v20h295v660h-295v20h610zM695 23v22q85 -35 175 -35q97 0 156 55t59 160v475h20v-475q0 -113 -64.5 -174t-170.5 -61q-86 0 -175 33z" />
    <glyph glyph-name="ij" unicode="&#x133;" horiz-adv-x="440" 
d="M88.5 612.5q-8.5 7.5 -8.5 17.5t8.5 17.5t21.5 7.5t21.5 -7.5t8.5 -17.5t-8.5 -17.5t-21.5 -7.5t-21.5 7.5zM308.5 612.5q-8.5 7.5 -8.5 17.5t8.5 17.5t21.5 7.5t21.5 -7.5t8.5 -17.5t-8.5 -17.5t-21.5 -7.5t-21.5 7.5zM100 0v530h1h9h8h2v-530h-20zM150 -186v20
q31 -14 70 -14q46 0 73 31t27 91v588h2h8h7h3v-588q0 -70 -32 -106t-88 -36q-39 0 -70 14z" />
    <glyph glyph-name="Jcircumflex" unicode="&#x134;" horiz-adv-x="545" 
d="M25 23v22q85 -35 175 -35q97 0 156 55t59 160v475h20v-475q0 -113 -64.5 -174t-170.5 -61q-86 0 -175 33zM275 780h-27l162 130h30l162 -130h-27l-147 116h-6z" />
    <glyph glyph-name="jcircumflex" unicode="&#x135;" horiz-adv-x="220" 
d="M-70 -188v20q34 -12 70 -12q46 0 73 31t27 91v588h20v-588q0 -70 -32 -106t-88 -36q-36 0 -70 12zM-40 620h-27l162 130h30l162 -130h-27l-147 116h-6z" />
    <glyph glyph-name="uni0136" unicode="&#x136;" horiz-adv-x="725" 
d="M130 0h-20v700h20v-313l546 313h39l-575 -330v-5l545 -365h-37l-518 348v-348zM350 -270q38 0 61.5 24.5t23.5 65.5q0 22 -7.5 36t-18.5 20q-2 -9 -10 -15t-19 -6q-14 0 -22 7t-8 17q0 11 9 18.5t25 7.5q29 0 50 -24t21 -61q0 -51 -28.5 -80.5t-76.5 -29.5v20z" />
    <glyph glyph-name="uni0137" unicode="&#x137;" horiz-adv-x="573" 
d="M120 0h-20v720h20v-423l404 233h39l-425 -245l425 -285h-36l-407 273v-273zM275 -270q38 0 61.5 24.5t23.5 65.5q0 22 -7.5 36t-18.5 20q-2 -9 -10 -15t-19 -6q-14 0 -22 7t-8 17q0 11 9 18.5t25 7.5q29 0 50 -24t21 -61q0 -51 -28.5 -80.5t-76.5 -29.5v20z" />
    <glyph glyph-name="Lacute" unicode="&#x139;" horiz-adv-x="665" 
d="M645 0h-535v700h20v-680h515v-20zM80 790l-5 15l240 95h10v-25z" />
    <glyph glyph-name="lacute" unicode="&#x13a;" horiz-adv-x="220" 
d="M120 0h-20v720h20v-720zM60 790l-5 15l240 95h10v-25z" />
    <glyph glyph-name="uni013B" unicode="&#x13b;" horiz-adv-x="665" 
d="M645 0h-535v700h20v-680h515v-20zM330 -270q38 0 61.5 24.5t23.5 65.5q0 22 -7.5 36t-18.5 20q-2 -9 -10 -15t-19 -6q-14 0 -22 7t-8 17q0 11 9 18.5t25 7.5q29 0 50 -24t21 -61q0 -51 -28.5 -80.5t-76.5 -29.5v20z" />
    <glyph glyph-name="uni013C" unicode="&#x13c;" horiz-adv-x="220" 
d="M120 0h-20v720h20v-720zM60 -270q38 0 61.5 24.5t23.5 65.5q0 22 -7.5 36t-18.5 20q-2 -9 -10 -15t-19 -6q-14 0 -22 7t-8 17q0 11 9 18.5t25 7.5q29 0 50 -24t21 -61q0 -51 -28.5 -80.5t-76.5 -29.5v20z" />
    <glyph glyph-name="Lcaron" unicode="&#x13d;" horiz-adv-x="665" 
d="M189 702.5q9 7.5 25 7.5q29 0 50 -24t21 -61q0 -51 -28.5 -80.5t-76.5 -29.5v20q38 0 61.5 24.5t23.5 65.5q0 40 -26 56q-2 -9 -10 -15t-19 -6q-14 0 -22 7t-8 17q0 11 9 18.5zM645 0h-535v700h20v-680h515v-20z" />
    <glyph glyph-name="lcaron" unicode="&#x13e;" horiz-adv-x="220" 
d="M169 717.5q9 7.5 25 7.5q29 0 50 -24t21 -61q0 -51 -28.5 -80.5t-76.5 -29.5v20q38 0 61.5 24.5t23.5 65.5q0 40 -26 56q-2 -9 -10 -15t-19 -6q-14 0 -22 7t-8 17q0 11 9 18.5zM100 0v720h20v-20v-700h-20z" />
    <glyph glyph-name="Ldot" unicode="&#x13f;" horiz-adv-x="665" 
d="M645 0h-535v700h20v-680h515v-20zM428.5 352.5q-8.5 7.5 -8.5 17.5t8.5 17.5t21.5 7.5t21.5 -7.5t8.5 -17.5t-8.5 -17.5t-21.5 -7.5t-21.5 7.5z" />
    <glyph glyph-name="ldot" unicode="&#x140;" horiz-adv-x="270" 
d="M120 0h-20v720h20v-720zM223.5 342.5q-8.5 7.5 -8.5 17.5t8.5 17.5t21.5 7.5t21.5 -7.5t8.5 -17.5t-8.5 -17.5t-21.5 -7.5t-21.5 7.5z" />
    <glyph glyph-name="Lslash" unicode="&#x141;" horiz-adv-x="670" 
d="M135 346v-326h515v-20h-535v337l-105 -48v21l105 48v342h20v-333l275 125v-21z" />
    <glyph glyph-name="lslash" unicode="&#x142;" horiz-adv-x="285" 
d="M145 406l135 49v-21l-135 -49v-385h-20v378l-120 -44v21l120 44v321h20v-314z" />
    <glyph glyph-name="Nacute" unicode="&#x143;" horiz-adv-x="840" 
d="M130 0h-20v700h35l560 -680h5v680h20v-700h-35l-560 680h-5v-680zM315 790l-5 15l240 95h10v-25z" />
    <glyph glyph-name="nacute" unicode="&#x144;" horiz-adv-x="690" 
d="M100 0v530h20v-118h5q17 30 50.5 59.5t81.5 49t103 19.5q111 0 173 -59t62 -161v-320h-20v320q0 92 -56.5 146t-158.5 54q-58 0 -107 -23.5t-83 -58.5t-50 -71v-367h-20zM230 630l-5 15l240 95h10v-25z" />
    <glyph glyph-name="uni0145" unicode="&#x145;" horiz-adv-x="840" 
d="M130 0h-20v700h35l560 -680h5v680h20v-700h-35l-560 680h-5v-680zM370 -270q38 0 61.5 24.5t23.5 65.5q0 22 -7.5 36t-18.5 20q-2 -9 -10 -15t-19 -6q-14 0 -22 7t-8 17q0 11 9 18.5t25 7.5q29 0 50 -24t21 -61q0 -51 -28.5 -80.5t-76.5 -29.5v20z" />
    <glyph glyph-name="uni0146" unicode="&#x146;" horiz-adv-x="690" 
d="M100 0v530h20v-118h5q17 30 50.5 59.5t81.5 49t103 19.5q111 0 173 -59t62 -161v-320h-20v320q0 92 -56.5 146t-158.5 54q-58 0 -107 -23.5t-83 -58.5t-50 -71v-367h-20zM300 -270q38 0 61.5 24.5t23.5 65.5q0 22 -7.5 36t-18.5 20q-2 -9 -10 -15t-19 -6q-14 0 -22 7
t-8 17q0 11 9 18.5t25 7.5q29 0 50 -24t21 -61q0 -51 -28.5 -80.5t-76.5 -29.5v20z" />
    <glyph glyph-name="Ncaron" unicode="&#x147;" horiz-adv-x="840" 
d="M130 0h-20v700h35l560 -680h5v680h20v-700h-35l-560 680h-5v-680zM445 780h-30l-162 130h27l147 -116h6l147 116h27z" />
    <glyph glyph-name="ncaron" unicode="&#x148;" horiz-adv-x="690" 
d="M100 0v530h20v-118h5q17 30 50.5 59.5t81.5 49t103 19.5q111 0 173 -59t62 -161v-320h-20v320q0 92 -56.5 146t-158.5 54q-58 0 -107 -23.5t-83 -58.5t-50 -71v-367h-20zM360 620h-30l-162 130h27l147 -116h6l147 116h27z" />
    <glyph glyph-name="napostrophe" unicode="&#x149;" horiz-adv-x="691" 
d="M-16 717.5q9 7.5 25 7.5q29 0 50 -24t21 -61q0 -51 -28.5 -80.5t-76.5 -29.5v20q36 0 60.5 25t24.5 65t-26 56q-2 -9 -10 -15t-19 -6q-14 0 -22 7t-8 17q0 11 9 18.5zM101 0v530h20v-118h5q17 30 50.5 59.5t81.5 49t103 19.5q111 0 173 -59t62 -161v-320h-20v320
q0 92 -56.5 146t-158.5 54q-58 0 -107 -23.5t-83 -58.5t-50 -71v-367h-20z" />
    <glyph glyph-name="Eng" unicode="&#x14a;" horiz-adv-x="840" 
d="M535 -188v20q34 -12 73 -12q48 0 75 31t27 91v58h-15l-560 680h-5v-680h-20v700h35l560 -680h5v680h20v-758q0 -70 -32.5 -106t-89.5 -36q-39 0 -73 12z" />
    <glyph glyph-name="eng" unicode="&#x14b;" horiz-adv-x="690" 
d="M400 -188v20q34 -12 73 -12q48 0 75 31t27 91v378q0 92 -56.5 146t-158.5 54q-58 0 -107 -23.5t-83 -58.5t-50 -71v-367h-20v530h20v-118h5q17 30 50.5 59.5t81.5 49t103 19.5q111 0 173 -59t62 -161v-378q0 -70 -32.5 -106t-89.5 -36q-39 0 -73 12z" />
    <glyph glyph-name="Omacron" unicode="&#x14c;" horiz-adv-x="1010" 
d="M272.5 37.5q-98.5 47.5 -150.5 129.5t-52 183t52 183t150.5 129.5t232.5 47.5t232.5 -47.5t150.5 -129.5t52 -183t-52 -183t-150.5 -129.5t-232.5 -47.5t-232.5 47.5zM727 55q94 45 143.5 122.5t49.5 172.5t-49.5 172.5t-143.5 122.5t-222 45t-222 -45t-143.5 -122.5
t-49.5 -172.5t49.5 -172.5t143.5 -122.5t222 -45t222 45zM675 835h-340v20h340v-20z" />
    <glyph glyph-name="omacron" unicode="&#x14d;" horiz-adv-x="770" 
d="M214.5 26q-72.5 36 -111 98.5t-38.5 140.5t38.5 140.5t111 98.5t170.5 36t170.5 -36t111 -98.5t38.5 -140.5t-38.5 -140.5t-111 -98.5t-170.5 -36t-170.5 36zM545 43.5q68 33.5 104 91.5t36 130t-36 130t-104 91.5t-160 33.5t-160 -33.5t-104 -91.5t-36 -130t36 -130
t104 -91.5t160 -33.5t160 33.5zM555 675h-340v20h340v-20z" />
    <glyph glyph-name="Obreve" unicode="&#x14e;" horiz-adv-x="1010" 
d="M272.5 37.5q-98.5 47.5 -150.5 129.5t-52 183t52 183t150.5 129.5t232.5 47.5t232.5 -47.5t150.5 -129.5t52 -183t-52 -183t-150.5 -129.5t-232.5 -47.5t-232.5 47.5zM727 55q94 45 143.5 122.5t49.5 172.5t-49.5 172.5t-143.5 122.5t-222 45t-222 -45t-143.5 -122.5
t-49.5 -172.5t49.5 -172.5t143.5 -122.5t222 -45t222 45zM394 821.5q-39 31.5 -39 78.5h20q0 -38 33.5 -64t96.5 -26t96.5 26t33.5 64h20q0 -47 -39 -78.5t-111 -31.5t-111 31.5z" />
    <glyph glyph-name="obreve" unicode="&#x14f;" horiz-adv-x="770" 
d="M214.5 26q-72.5 36 -111 98.5t-38.5 140.5t38.5 140.5t111 98.5t170.5 36t170.5 -36t111 -98.5t38.5 -140.5t-38.5 -140.5t-111 -98.5t-170.5 -36t-170.5 36zM545 43.5q68 33.5 104 91.5t36 130t-36 130t-104 91.5t-160 33.5t-160 -33.5t-104 -91.5t-36 -130t36 -130
t104 -91.5t160 -33.5t160 33.5zM274 661.5q-39 31.5 -39 78.5h20q0 -38 33.5 -64t96.5 -26t96.5 26t33.5 64h20q0 -47 -39 -78.5t-111 -31.5t-111 31.5z" />
    <glyph glyph-name="Ohungarumlaut" unicode="&#x150;" horiz-adv-x="1010" 
d="M272.5 37.5q-98.5 47.5 -150.5 129.5t-52 183t52 183t150.5 129.5t232.5 47.5t232.5 -47.5t150.5 -129.5t52 -183t-52 -183t-150.5 -129.5t-232.5 -47.5t-232.5 47.5zM727 55q94 45 143.5 122.5t49.5 172.5t-49.5 172.5t-143.5 122.5t-222 45t-222 -45t-143.5 -122.5
t-49.5 -172.5t49.5 -172.5t143.5 -122.5t222 -45t222 45zM310 790l-5 15l200 95h10v-25zM505 790l-5 15l200 95h10v-25z" />
    <glyph glyph-name="ohungarumlaut" unicode="&#x151;" horiz-adv-x="770" 
d="M214.5 26q-72.5 36 -111 98.5t-38.5 140.5t38.5 140.5t111 98.5t170.5 36t170.5 -36t111 -98.5t38.5 -140.5t-38.5 -140.5t-111 -98.5t-170.5 -36t-170.5 36zM545 43.5q68 33.5 104 91.5t36 130t-36 130t-104 91.5t-160 33.5t-160 -33.5t-104 -91.5t-36 -130t36 -130
t104 -91.5t160 -33.5t160 33.5zM190 630l-5 15l200 95h10v-25zM385 630l-5 15l200 95h10v-25z" />
    <glyph glyph-name="OE" unicode="&#x152;" horiz-adv-x="1245" 
d="M675 20h510v-20h-530q-75 -10 -145 -10q-136 0 -235.5 47.5t-152 129.5t-52.5 183t52.5 183t152 129.5t235.5 47.5q70 0 145 -10h510v-20h-490v-310h450v-20h-450v-330zM655 679q-24 4 -64.5 7.5t-80.5 3.5q-130 0 -225 -45t-145 -122.5t-50 -172.5t50 -172.5t145 -122.5
t225 -45q40 0 80.5 3.5t64.5 7.5v658z" />
    <glyph glyph-name="oe" unicode="&#x153;" horiz-adv-x="1285" 
d="M211.5 26q-70.5 36 -108.5 98.5t-38 140.5t38 140.5t108.5 98.5t163.5 36q114 0 190 -51.5t107 -138.5h5q25 87 95 138.5t168 51.5q79 0 143 -36.5t100.5 -99t36.5 -139.5v-15h-535q4 -68 40 -122.5t98.5 -86t141.5 -31.5q70 0 128.5 17.5t86.5 39.5v-22
q-28 -21 -86.5 -38t-128.5 -17q-73 0 -132.5 25t-99.5 68.5t-56 96.5h-5q-14 -53 -55.5 -96.5t-104 -68.5t-137.5 -25q-93 0 -163.5 36zM528 43.5q66 33.5 101.5 91.5t35.5 130t-35.5 130t-101.5 91.5t-153 33.5t-153 -33.5t-101.5 -91.5t-35.5 -130t35.5 -130t101.5 -91.5
t153 -33.5t153 33.5zM1200 270q-2 73 -37 130t-93.5 88.5t-129.5 31.5q-75 0 -132 -32t-89.5 -89t-33.5 -129h515z" />
    <glyph glyph-name="Racute" unicode="&#x154;" horiz-adv-x="815" 
d="M595 300q52 -11 81 -50.5t29 -99.5v-150h-20v150q0 67 -40 103.5t-120 36.5h-395v-290h-20v700h370q131 0 198 -55.5t67 -149.5q0 -69 -38 -118.5t-112 -70.5v-6zM480 310q122 0 183.5 50t61.5 135t-61.5 135t-183.5 50h-350v-370h350zM290 790l-5 15l240 95h10v-25z" />
    <glyph glyph-name="racute" unicode="&#x155;" horiz-adv-x="395" 
d="M100 0v530h20v-128h5q15 30 46 59.5t77.5 49t101.5 19.5h25v-20h-25q-58 0 -105.5 -23.5t-79 -59t-45.5 -72.5v-355h-20zM105 630l-5 15l240 95h10v-25z" />
    <glyph glyph-name="uni0156" unicode="&#x156;" horiz-adv-x="815" 
d="M595 300q52 -11 81 -50.5t29 -99.5v-150h-20v150q0 67 -40 103.5t-120 36.5h-395v-290h-20v700h370q131 0 198 -55.5t67 -149.5q0 -69 -38 -118.5t-112 -70.5v-6zM480 310q122 0 183.5 50t61.5 135t-61.5 135t-183.5 50h-350v-370h350zM360 -270q38 0 61.5 24.5
t23.5 65.5q0 22 -7.5 36t-18.5 20q-2 -9 -10 -15t-19 -6q-14 0 -22 7t-8 17q0 11 9 18.5t25 7.5q29 0 50 -24t21 -61q0 -51 -28.5 -80.5t-76.5 -29.5v20z" />
    <glyph glyph-name="uni0157" unicode="&#x157;" horiz-adv-x="395" 
d="M100 0v530h20v-128h5q15 30 46 59.5t77.5 49t101.5 19.5h25v-20h-25q-58 0 -105.5 -23.5t-79 -59t-45.5 -72.5v-355h-20zM60 -270q38 0 61.5 24.5t23.5 65.5q0 22 -7.5 36t-18.5 20q-2 -9 -10 -15t-19 -6q-14 0 -22 7t-8 17q0 11 9 18.5t25 7.5q29 0 50 -24t21 -61
q0 -51 -28.5 -80.5t-76.5 -29.5v20z" />
    <glyph glyph-name="Rcaron" unicode="&#x158;" horiz-adv-x="815" 
d="M595 300q52 -11 81 -50.5t29 -99.5v-150h-20v150q0 67 -40 103.5t-120 36.5h-395v-290h-20v700h370q131 0 198 -55.5t67 -149.5q0 -69 -38 -118.5t-112 -70.5v-6zM480 310q122 0 183.5 50t61.5 135t-61.5 135t-183.5 50h-350v-370h350zM420 780h-30l-162 130h27l147 -116
h6l147 116h27z" />
    <glyph glyph-name="rcaron" unicode="&#x159;" horiz-adv-x="395" 
d="M100 0v530h20v-128h5q15 30 46 59.5t77.5 49t101.5 19.5h25v-20h-25q-58 0 -105.5 -23.5t-79 -59t-45.5 -72.5v-355h-20zM250 620h-30l-162 130h27l147 -116h6l147 116h27z" />
    <glyph glyph-name="Sacute" unicode="&#x15a;" horiz-adv-x="745" 
d="M230.5 7.5q-78.5 17.5 -120.5 38.5v24q41 -23 118.5 -41.5t163.5 -18.5q91 0 151 21.5t88.5 57t28.5 76.5q0 54 -39 87t-96.5 50.5t-155.5 37.5q-102 22 -161.5 40.5t-101 54.5t-41.5 95q0 48 33.5 88.5t105.5 66t181 25.5q92 0 169.5 -20t115.5 -45v-24
q-36 26 -113 47.5t-172 21.5q-103 0 -170.5 -23t-98.5 -59t-31 -78q0 -51 38 -82.5t94 -48.5t152 -37q102 -21 164 -41t104.5 -57.5t42.5 -98.5q0 -47 -30.5 -87t-94 -64t-158.5 -24q-88 0 -166.5 17.5zM250 790l-5 15l240 95h10v-25z" />
    <glyph glyph-name="sacute" unicode="&#x15b;" horiz-adv-x="595" 
d="M166 4.5q-61 14.5 -91 31.5v22q30 -18 91 -33t136 -15q107 0 160 31.5t53 78.5q0 41 -30.5 66t-75 38.5t-120.5 29.5q-79 16 -128 31t-82.5 44t-33.5 76q0 59 60.5 97t193.5 38q76 0 139 -16t97 -37v-20q-36 21 -99.5 37t-136.5 16q-123 0 -178.5 -33t-55.5 -82
q0 -39 30 -63.5t74.5 -38t118.5 -28.5q81 -17 130 -32t83 -45t34 -78q0 -57 -58.5 -93.5t-174.5 -36.5q-75 0 -136 14.5zM185 630l-5 15l240 95h10v-25z" />
    <glyph glyph-name="Scircumflex" unicode="&#x15c;" horiz-adv-x="745" 
d="M230.5 7.5q-78.5 17.5 -120.5 38.5v24q41 -23 118.5 -41.5t163.5 -18.5q91 0 151 21.5t88.5 57t28.5 76.5q0 54 -39 87t-96.5 50.5t-155.5 37.5q-102 22 -161.5 40.5t-101 54.5t-41.5 95q0 48 33.5 88.5t105.5 66t181 25.5q92 0 169.5 -20t115.5 -45v-24
q-36 26 -113 47.5t-172 21.5q-103 0 -170.5 -23t-98.5 -59t-31 -78q0 -51 38 -82.5t94 -48.5t152 -37q102 -21 164 -41t104.5 -57.5t42.5 -98.5q0 -47 -30.5 -87t-94 -64t-158.5 -24q-88 0 -166.5 17.5zM230 780h-27l162 130h30l162 -130h-27l-147 116h-6z" />
    <glyph glyph-name="scircumflex" unicode="&#x15d;" horiz-adv-x="595" 
d="M166 4.5q-61 14.5 -91 31.5v22q30 -18 91 -33t136 -15q107 0 160 31.5t53 78.5q0 41 -30.5 66t-75 38.5t-120.5 29.5q-79 16 -128 31t-82.5 44t-33.5 76q0 59 60.5 97t193.5 38q76 0 139 -16t97 -37v-20q-36 21 -99.5 37t-136.5 16q-123 0 -178.5 -33t-55.5 -82
q0 -39 30 -63.5t74.5 -38t118.5 -28.5q81 -17 130 -32t83 -45t34 -78q0 -57 -58.5 -93.5t-174.5 -36.5q-75 0 -136 14.5zM145 620h-27l162 130h30l162 -130h-27l-147 116h-6z" />
    <glyph glyph-name="Scedilla" unicode="&#x15e;" horiz-adv-x="745" 
d="M363 -9l-15 -51h52q51 0 78 -22.5t27 -57.5q0 -37 -30 -58.5t-84 -21.5q-38 0 -81 10v21q43 -11 82 -11q45 0 69 16t24 44q0 26 -21.5 43t-63.5 17h-66l-10 10l19 62q-73 5 -136 20.5t-97 33.5v24q41 -23 118.5 -41.5t163.5 -18.5q91 0 151 21.5t88.5 57t28.5 76.5
q0 54 -39 87t-96.5 50.5t-155.5 37.5q-102 22 -161.5 40.5t-101 54.5t-41.5 95q0 48 33.5 88.5t105.5 66t181 25.5q92 0 169.5 -20t115.5 -45v-24q-36 26 -113 47.5t-172 21.5q-103 0 -170.5 -23t-98.5 -59t-31 -78q0 -51 38 -82.5t94 -48.5t152 -37q102 -21 164 -41
t104.5 -57.5t42.5 -98.5q0 -47 -30.5 -87t-94 -64t-158.5 -24q-23 0 -34 1z" />
    <glyph glyph-name="scedilla" unicode="&#x15f;" horiz-adv-x="595" 
d="M120.5 487q-55.5 -33 -55.5 -82q0 -39 30 -63.5t74.5 -38t118.5 -28.5q81 -17 130 -32t83 -45t34 -78q0 -57 -58.5 -93.5t-174.5 -36.5h-14l-15 -50h52q51 0 78 -22.5t27 -57.5q0 -37 -30 -58.5t-84 -21.5q-38 0 -81 10v21q43 -11 82 -11q45 0 69 16t24 44q0 26 -21.5 43
t-63.5 17h-66l-10 10l18 61q-63 3 -114 16.5t-78 28.5v22q30 -18 91 -33t136 -15q107 0 160 31.5t53 78.5q0 41 -30.5 66t-75 38.5t-120.5 29.5q-79 16 -128 31t-82.5 44t-33.5 76q0 59 60.5 97t193.5 38q76 0 139 -16t97 -37v-20q-36 21 -99.5 37t-136.5 16
q-123 0 -178.5 -33z" />
    <glyph glyph-name="Scaron" unicode="&#x160;" horiz-adv-x="745" 
d="M230.5 7.5q-78.5 17.5 -120.5 38.5v24q41 -23 118.5 -41.5t163.5 -18.5q91 0 151 21.5t88.5 57t28.5 76.5q0 54 -39 87t-96.5 50.5t-155.5 37.5q-102 22 -161.5 40.5t-101 54.5t-41.5 95q0 48 33.5 88.5t105.5 66t181 25.5q92 0 169.5 -20t115.5 -45v-24
q-36 26 -113 47.5t-172 21.5q-103 0 -170.5 -23t-98.5 -59t-31 -78q0 -51 38 -82.5t94 -48.5t152 -37q102 -21 164 -41t104.5 -57.5t42.5 -98.5q0 -47 -30.5 -87t-94 -64t-158.5 -24q-88 0 -166.5 17.5zM395 780h-30l-162 130h27l147 -116h6l147 116h27z" />
    <glyph glyph-name="scaron" unicode="&#x161;" horiz-adv-x="595" 
d="M166 4.5q-61 14.5 -91 31.5v22q30 -18 91 -33t136 -15q107 0 160 31.5t53 78.5q0 41 -30.5 66t-75 38.5t-120.5 29.5q-79 16 -128 31t-82.5 44t-33.5 76q0 59 60.5 97t193.5 38q76 0 139 -16t97 -37v-20q-36 21 -99.5 37t-136.5 16q-123 0 -178.5 -33t-55.5 -82
q0 -39 30 -63.5t74.5 -38t118.5 -28.5q81 -17 130 -32t83 -45t34 -78q0 -57 -58.5 -93.5t-174.5 -36.5q-75 0 -136 14.5zM310 620h-30l-162 130h27l147 -116h6l147 116h27z" />
    <glyph glyph-name="uni0162" unicode="&#x162;" horiz-adv-x="660" 
d="M340 680v-680l-18 -60h52q51 0 78 -22.5t27 -57.5q0 -37 -30 -58.5t-84 -21.5q-38 0 -81 10v21q43 -11 82 -11q45 0 69 16t24 44q0 26 -21.5 43t-63.5 17h-66l-10 10l22 73v677h-310v20h640v-20h-310z" />
    <glyph glyph-name="uni0163" unicode="&#x163;" horiz-adv-x="340" 
d="M240 -60q51 0 78 -22.5t27 -57.5q0 -37 -30 -58.5t-84 -21.5q-38 0 -81 10v21q43 -11 82 -11q45 0 69 16t24 44q0 26 -21.5 43t-63.5 17h-66l-10 10l21 70q-33 14 -51.5 46t-18.5 81v383h-115v20h75q23 0 31.5 9t8.5 31v100h20v-140h175v-20h-175v-383q0 -59 29.5 -88
t76.5 -29q35 0 69 12v-20q-34 -12 -69 -12q-21 0 -37 4l-16 -54h52z" />
    <glyph glyph-name="Tcaron" unicode="&#x164;" horiz-adv-x="660" 
d="M10 700h640v-20h-310v-680h-20v680h-310v20zM345 780h-30l-162 130h27l147 -116h6l147 116h27z" />
    <glyph glyph-name="tcaron" unicode="&#x165;" horiz-adv-x="320" 
d="M189 667.5q9 7.5 25 7.5q29 0 50 -24t21 -61q0 -51 -28.5 -80.5t-76.5 -29.5v20q38 0 61.5 24.5t23.5 65.5q0 40 -26 56q-2 -9 -10 -15t-19 -6q-14 0 -22 7t-8 17q0 11 9 18.5zM149.5 24.5q-34.5 34.5 -34.5 102.5v383h-115v20h75q23 0 31.5 9t8.5 31v100h20v-543
q0 -59 29.5 -88t76.5 -29q35 0 69 12v-20q-34 -12 -69 -12q-57 0 -91.5 34.5z" />
    <glyph glyph-name="Tbar" unicode="&#x166;" horiz-adv-x="660" 
d="M650 700v-20h-310v-235h185v-20h-185v-425h-20v425h-185v20h185v235h-310v20h640z" />
    <glyph glyph-name="tbar" unicode="&#x167;" horiz-adv-x="365" 
d="M320 510h-175v-185h175v-20h-175v-178q0 -59 29.5 -88t76.5 -29q35 0 69 12v-20q-34 -12 -69 -12q-57 0 -91.5 34.5t-34.5 102.5v178h-115v20h115v185h-115v20h75q23 0 31.5 9t8.5 31v100h20v-140h175v-20z" />
    <glyph glyph-name="Utilde" unicode="&#x168;" horiz-adv-x="830" 
d="M247 24.5q-70 34.5 -106 97.5t-36 148v430h20v-425q0 -123 75.5 -194t214.5 -71q92 0 157 33t99 93t34 139v425h20v-430q0 -85 -36 -148t-106 -97.5t-168 -34.5t-168 34.5zM455.5 806.5q-20.5 11.5 -47.5 33.5q-26 21 -42.5 30.5t-35.5 9.5q-25 0 -40 -16t-15 -44v-20
h-20v20q0 37 20.5 58.5t54.5 21.5q24 0 44.5 -11.5t47.5 -33.5q26 -21 42.5 -30.5t35.5 -9.5q25 0 40 16t15 44v20h20v-20q0 -37 -20.5 -58.5t-54.5 -21.5q-24 0 -44.5 11.5z" />
    <glyph glyph-name="utilde" unicode="&#x169;" horiz-adv-x="690" 
d="M157 49q-62 59 -62 161v320h20v-320q0 -92 56.5 -146t158.5 -54q58 0 107 23.5t83 58.5t50 71v367h20v-530h-20v118h-5q-17 -30 -50.5 -59.5t-81.5 -49t-103 -19.5q-111 0 -173 59zM380.5 646.5q-20.5 11.5 -47.5 33.5q-26 21 -42.5 30.5t-35.5 9.5q-25 0 -40 -16
t-15 -44v-20h-20v20q0 37 20.5 58.5t54.5 21.5q24 0 44.5 -11.5t47.5 -33.5q26 -21 42.5 -30.5t35.5 -9.5q25 0 40 16t15 44v20h20v-20q0 -37 -20.5 -58.5t-54.5 -21.5q-24 0 -44.5 11.5z" />
    <glyph glyph-name="Umacron" unicode="&#x16a;" horiz-adv-x="830" 
d="M247 24.5q-70 34.5 -106 97.5t-36 148v430h20v-425q0 -123 75.5 -194t214.5 -71q92 0 157 33t99 93t34 139v425h20v-430q0 -85 -36 -148t-106 -97.5t-168 -34.5t-168 34.5zM585 835h-340v20h340v-20z" />
    <glyph glyph-name="umacron" unicode="&#x16b;" horiz-adv-x="690" 
d="M157 49q-62 59 -62 161v320h20v-320q0 -92 56.5 -146t158.5 -54q58 0 107 23.5t83 58.5t50 71v367h20v-530h-20v118h-5q-17 -30 -50.5 -59.5t-81.5 -49t-103 -19.5q-111 0 -173 59zM510 675h-340v20h340v-20z" />
    <glyph glyph-name="Ubreve" unicode="&#x16c;" horiz-adv-x="830" 
d="M247 24.5q-70 34.5 -106 97.5t-36 148v430h20v-425q0 -123 75.5 -194t214.5 -71q92 0 157 33t99 93t34 139v425h20v-430q0 -85 -36 -148t-106 -97.5t-168 -34.5t-168 34.5zM304 821.5q-39 31.5 -39 78.5h20q0 -38 33.5 -64t96.5 -26t96.5 26t33.5 64h20q0 -47 -39 -78.5
t-111 -31.5t-111 31.5z" />
    <glyph glyph-name="ubreve" unicode="&#x16d;" horiz-adv-x="690" 
d="M157 49q-62 59 -62 161v320h20v-320q0 -92 56.5 -146t158.5 -54q58 0 107 23.5t83 58.5t50 71v367h20v-530h-20v118h-5q-17 -30 -50.5 -59.5t-81.5 -49t-103 -19.5q-111 0 -173 59zM229 661.5q-39 31.5 -39 78.5h20q0 -38 33.5 -64t96.5 -26t96.5 26t33.5 64h20
q0 -47 -39 -78.5t-111 -31.5t-111 31.5z" />
    <glyph glyph-name="Uring" unicode="&#x16e;" horiz-adv-x="830" 
d="M247 24.5q-70 34.5 -106 97.5t-36 148v430h20v-425q0 -123 75.5 -194t214.5 -71q92 0 157 33t99 93t34 139v425h20v-430q0 -85 -36 -148t-106 -97.5t-168 -34.5t-168 34.5zM331 779.5q-31 24.5 -31 65.5t31 65.5t84 24.5t84 -24.5t31 -65.5t-31 -65.5t-84 -24.5t-84 24.5
zM484.5 794q25.5 19 25.5 51t-25.5 51t-69.5 19t-69.5 -19t-25.5 -51t25.5 -51t69.5 -19t69.5 19z" />
    <glyph glyph-name="uring" unicode="&#x16f;" horiz-adv-x="690" 
d="M157 49q-62 59 -62 161v320h20v-320q0 -92 56.5 -146t158.5 -54q58 0 107 23.5t83 58.5t50 71v367h20v-530h-20v118h-5q-17 -30 -50.5 -59.5t-81.5 -49t-103 -19.5q-111 0 -173 59zM256 619.5q-31 24.5 -31 65.5t31 65.5t84 24.5t84 -24.5t31 -65.5t-31 -65.5t-84 -24.5
t-84 24.5zM409.5 634q25.5 19 25.5 51t-25.5 51t-69.5 19t-69.5 -19t-25.5 -51t25.5 -51t69.5 -19t69.5 19z" />
    <glyph glyph-name="Uhungarumlaut" unicode="&#x170;" horiz-adv-x="830" 
d="M247 24.5q-70 34.5 -106 97.5t-36 148v430h20v-425q0 -123 75.5 -194t214.5 -71q92 0 157 33t99 93t34 139v425h20v-430q0 -85 -36 -148t-106 -97.5t-168 -34.5t-168 34.5zM240 790l-5 15l200 95h10v-25zM435 790l-5 15l200 95h10v-25z" />
    <glyph glyph-name="uhungarumlaut" unicode="&#x171;" horiz-adv-x="690" 
d="M157 49q-62 59 -62 161v320h20v-320q0 -92 56.5 -146t158.5 -54q58 0 107 23.5t83 58.5t50 71v367h20v-530h-20v118h-5q-17 -30 -50.5 -59.5t-81.5 -49t-103 -19.5q-111 0 -173 59zM190 630l-5 15l200 95h10v-25zM385 630l-5 15l200 95h10v-25z" />
    <glyph glyph-name="Uogonek" unicode="&#x172;" horiz-adv-x="830" 
d="M705 700h20v-430q0 -188 -164 -256q-84 -35 -130.5 -70t-46.5 -75q0 -49 76 -49q41 0 74 7v-20q-33 -7 -74 -7q-48 0 -72 18.5t-24 50.5q0 64 104 120v4q-25 -3 -53 -3q-98 0 -168 34.5t-106 97.5t-36 148v430h20v-425q0 -123 75.5 -194t214.5 -71q92 0 157 33t99 93
t34 139v425z" />
    <glyph glyph-name="uogonek" unicode="&#x173;" horiz-adv-x="690" 
d="M590 0q-62 -22 -108.5 -56t-46.5 -75q0 -49 76 -49q41 0 74 7v-20q-33 -7 -74 -7q-48 0 -72 18.5t-24 50.5q0 43 44 80t111 63v106h-5q-17 -30 -50.5 -59.5t-81.5 -49t-103 -19.5q-111 0 -173 59t-62 161v320h20v-320q0 -92 56.5 -146t158.5 -54q58 0 107 23.5t83 58.5
t50 71v367h20v-530z" />
    <glyph glyph-name="Wcircumflex" unicode="&#x174;" horiz-adv-x="1175" 
d="M325 0h-35l-280 700h23l272 -680h5l260 680h35l260 -680h5l272 680h23l-280 -700h-35l-260 680h-5zM438 780h-27l162 130h30l162 -130h-27l-147 116h-6z" />
    <glyph glyph-name="wcircumflex" unicode="&#x175;" horiz-adv-x="910" 
d="M252 0h-32l-215 530h22l207 -510h4l201 510h32l201 -510h4l207 510h22l-215 -530h-32l-201 510h-4zM305 620h-27l162 130h30l162 -130h-27l-147 116h-6z" />
    <glyph glyph-name="Ycircumflex" unicode="&#x176;" horiz-adv-x="720" 
d="M370 0h-20v160l-365 540h24l348 -515h6l348 515h24l-365 -540v-160zM210 780h-27l162 130h30l162 -130h-27l-147 116h-6z" />
    <glyph glyph-name="ycircumflex" unicode="&#x177;" horiz-adv-x="540" 
d="M171 -190h-24l123 240l-270 480h24l255 -454h5l232 454h24zM120 620h-27l162 130h30l162 -130h-27l-147 116h-6z" />
    <glyph glyph-name="Ydieresis" unicode="&#x178;" horiz-adv-x="720" 
d="M370 0h-20v160l-365 540h24l348 -515h6l348 515h24l-365 -540v-160zM253.5 827.5q-8.5 7.5 -8.5 17.5t8.5 17.5t21.5 7.5t21.5 -7.5t8.5 -17.5t-8.5 -17.5t-21.5 -7.5t-21.5 7.5zM423.5 827.5q-8.5 7.5 -8.5 17.5t8.5 17.5t21.5 7.5t21.5 -7.5t8.5 -17.5t-8.5 -17.5
t-21.5 -7.5t-21.5 7.5z" />
    <glyph glyph-name="Zacute" unicode="&#x179;" horiz-adv-x="645" 
d="M625 0h-600v20l550 655v5h-530v20h560v-20l-550 -655v-5h570v-20zM210 790l-5 15l240 95h10v-25z" />
    <glyph glyph-name="zacute" unicode="&#x17a;" horiz-adv-x="525" 
d="M510 0h-490v20l445 486v4h-440v20h470v-20l-445 -486v-4h460v-20zM150 630l-5 15l240 95h10v-25z" />
    <glyph glyph-name="Zdotaccent" unicode="&#x17b;" horiz-adv-x="645" 
d="M625 0h-600v20l550 655v5h-530v20h560v-20l-550 -655v-5h570v-20zM303.5 827.5q-8.5 7.5 -8.5 17.5t8.5 17.5t21.5 7.5t21.5 -7.5t8.5 -17.5t-8.5 -17.5t-21.5 -7.5t-21.5 7.5z" />
    <glyph glyph-name="zdotaccent" unicode="&#x17c;" horiz-adv-x="525" 
d="M510 0h-490v20l445 486v4h-440v20h470v-20l-445 -486v-4h460v-20zM238.5 667.5q-8.5 7.5 -8.5 17.5t8.5 17.5t21.5 7.5t21.5 -7.5t8.5 -17.5t-8.5 -17.5t-21.5 -7.5t-21.5 7.5z" />
    <glyph glyph-name="Zcaron" unicode="&#x17d;" horiz-adv-x="645" 
d="M625 0h-600v20l550 655v5h-530v20h560v-20l-550 -655v-5h570v-20zM340 780h-30l-162 130h27l147 -116h6l147 116h27z" />
    <glyph glyph-name="zcaron" unicode="&#x17e;" horiz-adv-x="525" 
d="M510 0h-490v20l445 486v4h-440v20h470v-20l-445 -486v-4h460v-20zM275 620h-30l-162 130h27l147 -116h6l147 116h27z" />
    <glyph glyph-name="uni018F" unicode="&#x18f;" horiz-adv-x="945" 
d="M672.5 662.5q98.5 -47.5 150.5 -129.5t52 -183t-49.5 -183.5t-140.5 -129.5t-210 -47q-121 0 -213 47t-142 129t-50 184v20h784q-5 91 -56 163.5t-143 114.5t-215 42q-94 0 -172 -20.5t-124 -44.5v24q52 23 128.5 42t167.5 19q134 0 232.5 -47.5zM674.5 54.5
q86.5 44.5 133.5 122.5t47 173h-765q0 -96 47.5 -173.5t135 -122t202.5 -44.5q113 0 199.5 44.5z" />
    <glyph glyph-name="florin" unicode="&#x192;" horiz-adv-x="433" 
d="M-100 -190l4 20h55q56 0 92.5 32.5t48.5 87.5l118 560h-110l4 20h110l12 55q16 73 51 104t103 31h90l-5 -20h-91q-56 0 -85.5 -27t-43.5 -93l-11 -50h185l-4 -20h-185l-119 -560q-14 -68 -55.5 -104t-108.5 -36h-55z" />
    <glyph glyph-name="uni01F4" unicode="&#x1f4;" horiz-adv-x="900" 
d="M272.5 37.5q-98.5 47.5 -150.5 129.5t-52 183t53 183t154.5 129.5t242.5 47.5q96 0 177 -23t123 -52v-24q-40 30 -121 54.5t-179 24.5q-135 0 -232 -45t-147.5 -122.5t-50.5 -172.5t49.5 -172.5t143.5 -122.5t222 -45q85 0 163 22.5t122 50.5v212h-340v20h360v-245
q-47 -30 -130 -55t-175 -25q-134 0 -232.5 47.5zM355 790l-5 15l240 95h10v-25z" />
    <glyph glyph-name="uni01F5" unicode="&#x1f5;" 
d="M216.5 -186q-61.5 14 -91.5 31v22q30 -18 91.5 -32.5t133.5 -14.5q82 0 143.5 31.5t94 87t32.5 126.5v65h-5q-35 -46 -103 -83t-147 -37q-91 0 -157.5 33.5t-102 93.5t-35.5 138q0 77 35 137.5t101 94t154 33.5q82 0 151 -37t104 -83h5v110h20v-465q0 -77 -35 -137.5
t-101 -94t-154 -33.5q-72 0 -133.5 14zM516 72.5q69 42.5 104 95.5v214q-35 53 -105 95.5t-155 42.5q-82 0 -143.5 -31t-94 -87t-32.5 -127q0 -72 33 -127.5t95 -86.5t147 -31q82 0 151 42.5zM230 630l-5 15l240 95h10v-25z" />
    <glyph glyph-name="Aringacute" unicode="&#x1fa;" horiz-adv-x="750" 
d="M732 0l-117 225h-480l-117 -225h-23l356 682q-42 5 -66.5 28.5t-24.5 59.5q0 47 43 73l157 97h10v-25l-105 -55h10q53 0 84 -24.5t31 -65.5q0 -36 -24.5 -59.5t-66.5 -28.5l356 -682h-23zM305.5 719.5q25.5 -18.5 69.5 -18.5t69.5 18.5t25.5 50.5t-25.5 51t-69.5 19
t-69.5 -19t-25.5 -51t25.5 -50.5zM372 680l-226 -435h458l-226 435h-6z" />
    <glyph glyph-name="aringacute" unicode="&#x1fb;" horiz-adv-x="670" 
d="M236 619.5q-31 24.5 -31 65.5q0 47 43 73l157 97h10v-25l-105 -55h10q53 0 84 -24.5t31 -65.5t-31 -65.5t-84 -24.5t-84 24.5zM389.5 634q25.5 19 25.5 51t-25.5 51t-69.5 19t-69.5 -19t-25.5 -51t25.5 -51t69.5 -19t69.5 19zM103 31.5q-53 41.5 -53 108.5
q0 70 64.5 112.5t205.5 42.5q93 0 144.5 12.5t71 35.5t19.5 57q0 31 -23 58.5t-72.5 44.5t-124.5 17t-147 -19t-113 -43v22q38 23 109 41.5t151 18.5q81 0 135 -19.5t79.5 -51t25.5 -68.5v-401h-20v115q-24 -30 -67.5 -58.5t-102.5 -47.5t-125 -19q-104 0 -157 41.5z
M386 30.5q59 20.5 102 51.5t67 63v190q-8 -23 -67.5 -41.5t-167.5 -18.5q-132 0 -191 -37.5t-59 -97.5q0 -58 47.5 -94t142.5 -36q67 0 126 20.5z" />
    <glyph glyph-name="AEacute" unicode="&#x1fc;" horiz-adv-x="1095" 
d="M540 350v-330h495v-20h-515v225h-403l-110 -225h-22l340 700h690v-20h-475v-310h435v-20h-435zM338 680l-212 -435h394v435h-182zM520 790l-5 15l240 95h10v-25z" />
    <glyph glyph-name="aeacute" unicode="&#x1fd;" horiz-adv-x="1160" 
d="M1095 265h-535q2 -118 75.5 -186.5t204.5 -68.5q70 0 128.5 17.5t86.5 39.5v-22q-28 -21 -86.5 -38t-128.5 -17q-95 0 -163.5 35t-103.5 100h-4q-25 -27 -69 -57.5t-107 -54t-133 -23.5q-104 0 -157 40.5t-53 104.5q0 68 54.5 109t165.5 41h270v85q0 73 -49 111.5
t-156 38.5q-72 0 -143.5 -18t-116.5 -40v22q41 22 111.5 39t148.5 17q113 0 168 -41.5t57 -116.5h4q26 72 94 115t162 43q78 0 141 -34.5t98.5 -94t35.5 -131.5v-15zM1075 285q-2 70 -36.5 123.5t-92 82.5t-126.5 29q-75 0 -132.5 -29.5t-91 -83t-36.5 -122.5h515zM441 53.5
q78 43.5 122 93.5q-21 49 -23 118h-270q-102 0 -151 -35.5t-49 -94.5q0 -55 47.5 -90t142.5 -35q103 0 181 43.5zM470 630l-5 15l240 95h10v-25z" />
    <glyph glyph-name="Oslashacute" unicode="&#x1fe;" horiz-adv-x="1010" 
d="M803 624q66 -49 101.5 -120t35.5 -154q0 -101 -52 -183t-150.5 -129.5t-232.5 -47.5q-168 0 -282 76l-68 -66h-27l79 76q-66 49 -101.5 120t-35.5 154q0 101 52 183t150.5 129.5t232.5 47.5q168 0 282 -76l68 66h27zM124 204q34 -67 98 -113l550 529q-108 70 -267 70
q-128 0 -222 -45t-143.5 -122.5t-49.5 -172.5q0 -79 34 -146zM727 55q94 45 143.5 122.5t49.5 172.5q0 79 -34 146t-98 113l-550 -529q108 -70 267 -70q128 0 222 45zM375 790l-5 15l240 95h10v-25z" />
    <glyph glyph-name="oslashacute" unicode="&#x1ff;" horiz-adv-x="770" 
d="M606 472q48 -38 73.5 -91t25.5 -116q0 -78 -38.5 -140.5t-111 -98.5t-170.5 -36q-123 0 -207 57l-48 -47h-25l59 58q-48 38 -73.5 91t-25.5 116q0 78 38.5 140.5t111 98.5t170.5 36q123 0 207 -57l48 47h25zM109 157.5q24 -49.5 69 -84.5l399 395q-77 52 -192 52
q-92 0 -160 -33.5t-104 -91.5t-36 -130q0 -58 24 -107.5zM545 43.5q68 33.5 104 91.5t36 130q0 58 -24 107.5t-69 84.5l-399 -395q77 -52 192 -52q92 0 160 33.5zM255 630l-5 15l240 95h10v-25z" />
    <glyph glyph-name="uni0218" unicode="&#x218;" horiz-adv-x="745" 
d="M230.5 7.5q-78.5 17.5 -120.5 38.5v24q41 -23 118.5 -41.5t163.5 -18.5q91 0 151 21.5t88.5 57t28.5 76.5q0 54 -39 87t-96.5 50.5t-155.5 37.5q-102 22 -161.5 40.5t-101 54.5t-41.5 95q0 48 33.5 88.5t105.5 66t181 25.5q92 0 169.5 -20t115.5 -45v-24
q-36 26 -113 47.5t-172 21.5q-103 0 -170.5 -23t-98.5 -59t-31 -78q0 -51 38 -82.5t94 -48.5t152 -37q102 -21 164 -41t104.5 -57.5t42.5 -98.5q0 -47 -30.5 -87t-94 -64t-158.5 -24q-88 0 -166.5 17.5zM355 -270q38 0 61.5 24.5t23.5 65.5q0 22 -7.5 36t-18.5 20
q-2 -9 -10 -15t-19 -6q-14 0 -22 7t-8 17q0 11 9 18.5t25 7.5q29 0 50 -24t21 -61q0 -51 -28.5 -80.5t-76.5 -29.5v20z" />
    <glyph glyph-name="uni0219" unicode="&#x219;" horiz-adv-x="595" 
d="M166 4.5q-61 14.5 -91 31.5v22q30 -18 91 -33t136 -15q107 0 160 31.5t53 78.5q0 41 -30.5 66t-75 38.5t-120.5 29.5q-79 16 -128 31t-82.5 44t-33.5 76q0 59 60.5 97t193.5 38q76 0 139 -16t97 -37v-20q-36 21 -99.5 37t-136.5 16q-123 0 -178.5 -33t-55.5 -82
q0 -39 30 -63.5t74.5 -38t118.5 -28.5q81 -17 130 -32t83 -45t34 -78q0 -57 -58.5 -93.5t-174.5 -36.5q-75 0 -136 14.5zM260 -270q38 0 61.5 24.5t23.5 65.5q0 22 -7.5 36t-18.5 20q-2 -9 -10 -15t-19 -6q-14 0 -22 7t-8 17q0 11 9 18.5t25 7.5q29 0 50 -24t21 -61
q0 -51 -28.5 -80.5t-76.5 -29.5v20z" />
    <glyph glyph-name="uni021A" unicode="&#x21a;" horiz-adv-x="660" 
d="M10 700h640v-20h-310v-680h-20v680h-310v20zM280 -270q38 0 61.5 24.5t23.5 65.5q0 22 -7.5 36t-18.5 20q-2 -9 -10 -15t-19 -6q-14 0 -22 7t-8 17q0 11 9 18.5t25 7.5q29 0 50 -24t21 -61q0 -51 -28.5 -80.5t-76.5 -29.5v20z" />
    <glyph glyph-name="uni021B" unicode="&#x21b;" horiz-adv-x="340" 
d="M149.5 24.5q-34.5 34.5 -34.5 102.5v383h-115v20h75q23 0 31.5 9t8.5 31v100h20v-140h175v-20h-175v-383q0 -59 29.5 -88t76.5 -29q35 0 69 12v-20q-34 -12 -69 -12q-57 0 -91.5 34.5zM150 -270q38 0 61.5 24.5t23.5 65.5q0 22 -7.5 36t-18.5 20q-2 -9 -10 -15t-19 -6
q-14 0 -22 7t-8 17q0 11 9 18.5t25 7.5q29 0 50 -24t21 -61q0 -51 -28.5 -80.5t-76.5 -29.5v20z" />
    <glyph glyph-name="uni0232" unicode="&#x232;" horiz-adv-x="720" 
d="M370 0h-20v160l-365 540h24l348 -515h6l348 515h24l-365 -540v-160zM530 835h-340v20h340v-20z" />
    <glyph glyph-name="uni0233" unicode="&#x233;" horiz-adv-x="540" 
d="M171 -190h-24l123 240l-270 480h24l255 -454h5l232 454h24zM440 675h-340v20h340v-20z" />
    <glyph glyph-name="uni0237" unicode="&#x237;" horiz-adv-x="220" 
d="M-70 -188v20q34 -12 70 -12q46 0 73 31t27 91v588h20v-588q0 -70 -32 -106t-88 -36q-36 0 -70 12z" />
    <glyph glyph-name="uni0244" unicode="&#x244;" horiz-adv-x="850" 
d="M835 445v-20h-100v-155q0 -85 -36 -148t-106 -97.5t-168 -34.5t-168 34.5t-106 97.5t-36 148v155h-100v20h100v255h20v-255h580v255h20v-255h100zM715 425h-580v-150q0 -123 75.5 -194t214.5 -71q92 0 157 33t99 93t34 139v150z" />
    <glyph glyph-name="uni0259" unicode="&#x259;" horiz-adv-x="730" 
d="M516.5 504q71.5 -36 110 -98.5t38.5 -140.5q0 -79 -37 -141.5t-105.5 -98t-158.5 -35.5t-157.5 35t-104.5 96.5t-37 138.5v20h580q-4 68 -41 123t-102.5 86t-151.5 31q-75 0 -139.5 -19.5t-100.5 -41.5v23q37 21 101.5 39.5t138.5 18.5q95 0 166.5 -36zM510.5 42.5
q63.5 32.5 98 89t36.5 128.5h-560q1 -73 35 -129.5t97 -88.5t147 -32q83 0 146.5 32.5z" />
    <glyph glyph-name="uni0289" unicode="&#x289;" horiz-adv-x="695" 
d="M675 395v-20h-80v-375h-20v118h-5q-17 -30 -50.5 -59.5t-81.5 -49t-103 -19.5q-111 0 -173 59t-62 161v165h-80v20h80v135h20v-135h455v135h20v-135h80zM575 375h-455v-165q0 -92 56.5 -146t158.5 -54q58 0 107 23.5t83 58.5t50 71v212z" />
    <glyph glyph-name="uni02BC" unicode="&#x2bc;" horiz-adv-x="165" 
d="M39 717.5q9 7.5 25 7.5q29 0 50 -24t21 -61q0 -51 -28.5 -80.5t-76.5 -29.5v20q36 0 60.5 25t24.5 65t-26 56q-2 -9 -10 -15t-19 -6q-14 0 -22 7t-8 17q0 11 9 18.5z" />
    <glyph glyph-name="circumflex" unicode="&#x2c6;" horiz-adv-x="414" 
d="M57 600h-27l162 130h30l162 -130h-27l-147 116h-6z" />
    <glyph glyph-name="caron" unicode="&#x2c7;" horiz-adv-x="414" 
d="M222 600h-30l-162 130h27l147 -116h6l147 116h27z" />
    <glyph glyph-name="breve" unicode="&#x2d8;" horiz-adv-x="360" 
d="M69 651.5q-39 31.5 -39 78.5h20q0 -38 33.5 -64t96.5 -26t96.5 26t33.5 64h20q0 -47 -39 -78.5t-111 -31.5t-111 31.5z" />
    <glyph glyph-name="dotaccent" unicode="&#x2d9;" horiz-adv-x="120" 
d="M38.5 612.5q-8.5 7.5 -8.5 17.5t8.5 17.5t21.5 7.5t21.5 -7.5t8.5 -17.5t-8.5 -17.5t-21.5 -7.5t-21.5 7.5z" />
    <glyph glyph-name="ring" unicode="&#x2da;" horiz-adv-x="290" 
d="M61 589.5q-31 24.5 -31 65.5t31 65.5t84 24.5t84 -24.5t31 -65.5t-31 -65.5t-84 -24.5t-84 24.5zM214.5 604q25.5 19 25.5 51t-25.5 51t-69.5 19t-69.5 -19t-25.5 -51t25.5 -51t69.5 -19t69.5 19z" />
    <glyph glyph-name="ogonek" unicode="&#x2db;" horiz-adv-x="235" 
d="M54 -181.5q-24 18.5 -24 50.5q0 41 37 73.5t81 52.5v7l57 -2q-62 -22 -108.5 -56t-46.5 -75q0 -49 76 -49q41 0 74 7v-20q-33 -7 -74 -7q-48 0 -72 18.5z" />
    <glyph glyph-name="tilde" unicode="&#x2dc;" horiz-adv-x="380" 
d="M230.5 596.5q-20.5 11.5 -47.5 33.5q-26 21 -42.5 30.5t-35.5 9.5q-25 0 -40 -16t-15 -44v-20h-20v20q0 37 20.5 58.5t54.5 21.5q24 0 44.5 -11.5t47.5 -33.5q26 -21 42.5 -30.5t35.5 -9.5q25 0 40 16t15 44v20h20v-20q0 -37 -20.5 -58.5t-54.5 -21.5q-24 0 -44.5 11.5z
" />
    <glyph glyph-name="hungarumlaut" unicode="&#x2dd;" horiz-adv-x="465" 
d="M35 600l-5 15l200 95h10v-25zM230 600l-5 15l200 95h10v-25z" />
    <glyph glyph-name="gravecomb" unicode="&#x300;" horiz-adv-x="0" 
d="M-35 600l-245 85v25h10l240 -95z" />
    <glyph glyph-name="acutecomb" unicode="&#x301;" horiz-adv-x="0" 
d="M-275 600l-5 15l240 95h10v-25z" />
    <glyph glyph-name="uni0302" unicode="&#x302;" horiz-adv-x="0" 
d="M-357 600h-27l162 130h30l162 -130h-27l-147 116h-6z" />
    <glyph glyph-name="tildecomb" unicode="&#x303;" horiz-adv-x="0" 
d="M-149.5 596.5q-20.5 11.5 -47.5 33.5q-26 21 -42.5 30.5t-35.5 9.5q-25 0 -40 -16t-15 -44v-20h-20v20q0 37 20.5 58.5t54.5 21.5q24 0 44.5 -11.5t47.5 -33.5q26 -21 42.5 -30.5t35.5 -9.5q25 0 40 16t15 44v20h20v-20q0 -37 -20.5 -58.5t-54.5 -21.5q-24 0 -44.5 11.5z
" />
    <glyph glyph-name="uni0304" unicode="&#x304;" horiz-adv-x="0" 
d="M-30 650h-340v20h340v-20z" />
    <glyph glyph-name="uni0306" unicode="&#x306;" horiz-adv-x="0" 
d="M-291 651.5q-39 31.5 -39 78.5h20q0 -38 33.5 -64t96.5 -26t96.5 26t33.5 64h20q0 -47 -39 -78.5t-111 -31.5t-111 31.5z" />
    <glyph glyph-name="uni0307" unicode="&#x307;" horiz-adv-x="0" 
d="M-81.5 612.5q-8.5 7.5 -8.5 17.5t8.5 17.5t21.5 7.5t21.5 -7.5t8.5 -17.5t-8.5 -17.5t-21.5 -7.5t-21.5 7.5z" />
    <glyph glyph-name="uni0308" unicode="&#x308;" horiz-adv-x="0" 
d="M-251.5 612.5q-8.5 7.5 -8.5 17.5t8.5 17.5t21.5 7.5t21.5 -7.5t8.5 -17.5t-8.5 -17.5t-21.5 -7.5t-21.5 7.5zM-81.5 612.5q-8.5 7.5 -8.5 17.5t8.5 17.5t21.5 7.5t21.5 -7.5t8.5 -17.5t-8.5 -17.5t-21.5 -7.5t-21.5 7.5z" />
    <glyph glyph-name="uni030A" unicode="&#x30a;" horiz-adv-x="0" 
d="M-229 589.5q-31 24.5 -31 65.5t31 65.5t84 24.5t84 -24.5t31 -65.5t-31 -65.5t-84 -24.5t-84 24.5zM-75.5 604q25.5 19 25.5 51t-25.5 51t-69.5 19t-69.5 -19t-25.5 -51t25.5 -51t69.5 -19t69.5 19z" />
    <glyph glyph-name="uni030B" unicode="&#x30b;" horiz-adv-x="0" 
d="M-430 600l-5 15l200 95h10v-25zM-235 600l-5 15l200 95h10v-25z" />
    <glyph glyph-name="uni030C" unicode="&#x30c;" horiz-adv-x="0" 
d="M-192 600h-30l-162 130h27l147 -116h6l147 116h27z" />
    <glyph glyph-name="uni0326" unicode="&#x326;" horiz-adv-x="0" 
d="M-135 -255q38 0 61.5 24.5t23.5 65.5q0 22 -7.5 36t-18.5 20q-2 -9 -10 -15t-19 -6q-14 0 -22 7t-8 17q0 11 9 18.5t25 7.5q29 0 50 -24t21 -61q0 -51 -28.5 -80.5t-76.5 -29.5v20z" />
    <glyph glyph-name="uni0327" unicode="&#x327;" horiz-adv-x="0" 
d="M-135 -60q51 0 78 -22.5t27 -57.5q0 -37 -30 -58.5t-84 -21.5q-38 0 -81 10v21q43 -11 82 -11q45 0 69 16t24 44q0 26 -21.5 43t-63.5 17h-66l-10 10l22 73l20 -3l-18 -60h52z" />
    <glyph glyph-name="uni0328" unicode="&#x328;" horiz-adv-x="0" 
d="M-181 -181.5q-24 18.5 -24 50.5q0 41 37 73.5t81 52.5v7l57 -2q-62 -22 -108.5 -56t-46.5 -75q0 -49 76 -49q41 0 74 7v-20q-33 -7 -74 -7q-48 0 -72 18.5z" />
    <glyph glyph-name="uni0400" unicode="&#x400;" horiz-adv-x="700" 
d="M130 350v-330h510v-20h-530v700h510v-20h-490v-310h450v-20h-450zM480 790l-245 85v25h10l240 -95z" />
    <glyph glyph-name="uni0401" unicode="&#x401;" horiz-adv-x="700" 
d="M130 350v-330h510v-20h-530v700h510v-20h-490v-310h450v-20h-450zM258.5 827.5q-8.5 7.5 -8.5 17.5t8.5 17.5t21.5 7.5t21.5 -7.5t8.5 -17.5t-8.5 -17.5t-21.5 -7.5t-21.5 7.5zM428.5 827.5q-8.5 7.5 -8.5 17.5t8.5 17.5t21.5 7.5t21.5 -7.5t8.5 -17.5t-8.5 -17.5
t-21.5 -7.5t-21.5 7.5z" />
    <glyph glyph-name="uni0402" unicode="&#x402;" horiz-adv-x="925" 
d="M795 363.5q75 -56.5 75 -152.5q0 -103 -67.5 -162t-192.5 -59q-40 0 -75 6v20q35 -6 75 -6q116 0 178 53.5t62 147.5q0 87 -69.5 138t-206.5 51q-74 0 -141 -10.5t-143 -35.5v-354h-20v680h-260v20h575v-20h-295v-306q76 25 143 35.5t141 10.5q146 0 221 -56.5z" />
    <glyph glyph-name="uni0403" unicode="&#x403;" horiz-adv-x="655" 
d="M130 0h-20v700h525v-20h-505v-680zM265 790l-5 15l240 95h10v-25z" />
    <glyph glyph-name="uni0404" unicode="&#x404;" horiz-adv-x="850" 
d="M290 648q-92 -42 -143 -114.5t-56 -163.5h419v-20h-420q0 -94 48.5 -172t138.5 -123t208 -45q80 0 151 21.5t109 47.5v-24q-38 -25 -109 -45t-151 -20q-124 0 -218.5 47.5t-145.5 130t-51 182.5q0 101 52 183t150.5 129.5t232.5 47.5q87 0 162 -23t113 -52v-24
q-36 30 -110.5 54.5t-164.5 24.5q-123 0 -215 -42z" />
    <glyph glyph-name="uni0405" unicode="&#x405;" horiz-adv-x="745" 
d="M230.5 7.5q-78.5 17.5 -120.5 38.5v24q41 -23 118.5 -41.5t163.5 -18.5q91 0 151 21.5t88.5 57t28.5 76.5q0 54 -39 87t-96.5 50.5t-155.5 37.5q-102 22 -161.5 40.5t-101 54.5t-41.5 95q0 48 33.5 88.5t105.5 66t181 25.5q92 0 169.5 -20t115.5 -45v-24
q-36 26 -113 47.5t-172 21.5q-103 0 -170.5 -23t-98.5 -59t-31 -78q0 -51 38 -82.5t94 -48.5t152 -37q102 -21 164 -41t104.5 -57.5t42.5 -98.5q0 -47 -30.5 -87t-94 -64t-158.5 -24q-88 0 -166.5 17.5z" />
    <glyph glyph-name="uni0406" unicode="&#x406;" horiz-adv-x="670" 
d="M640 700v-20h-295v-660h295v-20h-610v20h295v660h-295v20h610z" />
    <glyph glyph-name="uni0407" unicode="&#x407;" horiz-adv-x="670" 
d="M640 700v-20h-295v-660h295v-20h-610v20h295v660h-295v20h610zM228.5 827.5q-8.5 7.5 -8.5 17.5t8.5 17.5t21.5 7.5t21.5 -7.5t8.5 -17.5t-8.5 -17.5t-21.5 -7.5t-21.5 7.5zM398.5 827.5q-8.5 7.5 -8.5 17.5t8.5 17.5t21.5 7.5t21.5 -7.5t8.5 -17.5t-8.5 -17.5
t-21.5 -7.5t-21.5 7.5z" />
    <glyph glyph-name="uni0408" unicode="&#x408;" horiz-adv-x="545" 
d="M25 23v22q85 -35 175 -35q97 0 156 55t59 160v475h20v-475q0 -113 -64.5 -174t-170.5 -61q-86 0 -175 33z" />
    <glyph glyph-name="uni0409" unicode="&#x409;" horiz-adv-x="1260" 
d="M940 410q131 0 198 -55.5t67 -149.5t-67 -149.5t-198 -55.5h-330v680h-436l-9 -210q-5 -121 -24 -218.5t-44.5 -161t-49.5 -90.5h-17v10q24 27 48.5 89t43 157.5t23.5 213.5l10 230h475v-290h310zM940 20q122 0 183.5 50t61.5 135t-61.5 135t-183.5 50h-310v-370h310z
" />
    <glyph glyph-name="uni040A" unicode="&#x40a;" horiz-adv-x="1335" 
d="M1025 390q82 0 139.5 -25.5t86.5 -69.5t29 -100t-29 -100t-86.5 -69.5t-139.5 -25.5h-340v370h-555v-370h-20v700h20v-310h555v310h20v-310h320zM1025 20q114 0 174.5 49t60.5 126t-60.5 126t-174.5 49h-320v-350h320z" />
    <glyph glyph-name="uni040B" unicode="&#x40b;" horiz-adv-x="940" 
d="M720 391q69 -29 104.5 -81.5t35.5 -119.5v-190h-20v190q0 61 -33.5 108.5t-97.5 74.5t-153 27q-136 0 -266 -47v-353h-20v680h-260v20h575v-20h-295v-307q130 47 266 47q95 0 164 -29z" />
    <glyph glyph-name="uni040C" unicode="&#x40c;" horiz-adv-x="725" 
d="M130 0h-20v700h20v-313l546 313h39l-575 -330v-5l545 -365h-37l-518 348v-348zM290 790l-5 15l240 95h10v-25z" />
    <glyph glyph-name="uni040D" unicode="&#x40d;" horiz-adv-x="840" 
d="M145 0h-35v700h20v-680h5l560 680h35v-700h-20v680h-5zM535 790l-245 85v25h10l240 -95z" />
    <glyph glyph-name="uni040E" unicode="&#x40e;" horiz-adv-x="710" 
d="M691 700h24l-340 -585q-36 -62 -75.5 -93.5t-101.5 -31.5q-35 0 -63 5v20q28 -5 63 -5q48 0 83.5 23.5t69.5 81.5l21 35l-357 550h23l342 -527h5zM237 815q-42 35 -42 90h20q0 -46 36.5 -75.5t103.5 -29.5t103.5 29.5t36.5 75.5h20q0 -55 -42 -90t-118 -35t-118 35z" />
    <glyph glyph-name="uni040F" unicode="&#x40f;" horiz-adv-x="840" 
d="M430 -190h-20v190h-300v700h20v-680h580v680h20v-700h-300v-190z" />
    <glyph glyph-name="uni0410" unicode="&#x410;" horiz-adv-x="750" 
d="M755 0h-23l-117 225h-480l-117 -225h-23l365 700h30zM372 680l-226 -435h458l-226 435h-6z" />
    <glyph glyph-name="uni0411" unicode="&#x411;" horiz-adv-x="780" 
d="M450 400q130 0 197.5 -55t67.5 -145t-67.5 -145t-197.5 -55h-340v700h540v-20h-520v-280h320zM450 20q121 0 183 49.5t62 130.5t-62 130.5t-183 49.5h-320v-360h320z" />
    <glyph glyph-name="uni0412" unicode="&#x412;" horiz-adv-x="790" 
d="M550 345q65 -18 100 -63t35 -102q0 -51 -27 -92t-80 -64.5t-128 -23.5h-340v700h350q80 0 135 -23.5t82.5 -64.5t27.5 -92q0 -62 -41 -108.5t-114 -61.5v-5zM130 680v-320h330q110 0 167.5 45t57.5 115t-57.5 115t-167.5 45h-330zM450 20q69 0 117.5 21t73 57.5
t24.5 81.5t-24 81.5t-71.5 57.5t-114.5 21h-325v-320h320z" />
    <glyph glyph-name="uni0413" unicode="&#x413;" horiz-adv-x="655" 
d="M130 0h-20v700h525v-20h-505v-680z" />
    <glyph glyph-name="uni0414" unicode="&#x414;" horiz-adv-x="770" 
d="M645 20h90v-210h-20v190h-700v-190h-20v210h74q23 29 45.5 94t37.5 167.5t15 233.5v185h478v-680zM94 20h531v660h-438v-170q0 -181 -28.5 -308.5t-64.5 -180.5v-1z" />
    <glyph glyph-name="uni0415" unicode="&#x415;" horiz-adv-x="700" 
d="M130 350v-330h510v-20h-530v700h510v-20h-490v-310h450v-20h-450z" />
    <glyph glyph-name="uni0416" unicode="&#x416;" horiz-adv-x="1180" 
d="M76 0h-36l530 365v5l-560 330h39l531 -313v313h20v-313l531 313h39l-560 -330v-5l530 -365h-36l-504 348v-348h-20v348z" />
    <glyph glyph-name="uni0417" unicode="&#x417;" 
d="M195.5 5.5q-74.5 15.5 -115.5 34.5v24q41 -20 115 -37t155 -17q95 0 159 23.5t95 61.5t31 80q0 44 -30 83t-95 63t-164 24h-151v20h150q95 0 159 23.5t95 60t31 76.5q0 42 -31 80t-95 61.5t-159 23.5q-88 0 -164.5 -21t-120.5 -48v24q44 25 120.5 45t164.5 20
q102 0 170.5 -26.5t101.5 -68.5t33 -90q0 -54 -47.5 -101t-142.5 -67v-5q100 -21 147.5 -69t47.5 -108q0 -48 -33 -90t-101.5 -68.5t-170.5 -26.5q-80 0 -154.5 15.5z" />
    <glyph glyph-name="uni0418" unicode="&#x418;" horiz-adv-x="840" 
d="M145 0h-35v700h20v-680h5l560 680h35v-700h-20v680h-5z" />
    <glyph glyph-name="uni0419" unicode="&#x419;" horiz-adv-x="840" 
d="M145 0h-35v700h20v-680h5l560 680h35v-700h-20v680h-5zM302 815q-42 35 -42 90h20q0 -46 36.5 -75.5t103.5 -29.5t103.5 29.5t36.5 75.5h20q0 -55 -42 -90t-118 -35t-118 35z" />
    <glyph glyph-name="uni041A" unicode="&#x41a;" horiz-adv-x="725" 
d="M130 0h-20v700h20v-313l546 313h39l-575 -330v-5l545 -365h-37l-518 348v-348z" />
    <glyph glyph-name="uni041B" unicode="&#x41b;" horiz-adv-x="770" 
d="M30 10q24 27 48.5 89t43 157.5t23.5 213.5l10 230h505v-700h-20v680h-466l-9 -210q-5 -121 -24 -218.5t-44.5 -161t-49.5 -90.5h-17v10z" />
    <glyph glyph-name="uni041C" unicode="&#x41c;" horiz-adv-x="1040" 
d="M905 681l-385 -701l-385 701h-5v-681h-20v700h39l368 -671h6l368 671h39v-700h-20v681h-5z" />
    <glyph glyph-name="uni041D" unicode="&#x41d;" horiz-adv-x="840" 
d="M710 370v330h20v-700h-20v350h-580v-350h-20v700h20v-330h580z" />
    <glyph glyph-name="uni041E" unicode="&#x41e;" horiz-adv-x="1010" 
d="M272.5 37.5q-98.5 47.5 -150.5 129.5t-52 183t52 183t150.5 129.5t232.5 47.5t232.5 -47.5t150.5 -129.5t52 -183t-52 -183t-150.5 -129.5t-232.5 -47.5t-232.5 47.5zM727 55q94 45 143.5 122.5t49.5 172.5t-49.5 172.5t-143.5 122.5t-222 45t-222 -45t-143.5 -122.5
t-49.5 -172.5t49.5 -172.5t143.5 -122.5t222 -45t222 45z" />
    <glyph glyph-name="uni041F" unicode="&#x41f;" horiz-adv-x="840" 
d="M130 0h-20v700h620v-700h-20v680h-580v-680z" />
    <glyph glyph-name="uni0420" unicode="&#x420;" horiz-adv-x="795" 
d="M475 700q131 0 198 -55.5t67 -149.5t-67 -149.5t-198 -55.5h-345v-290h-20v700h365zM475 310q122 0 183.5 50t61.5 135t-61.5 135t-183.5 50h-345v-370h345z" />
    <glyph glyph-name="uni0421" unicode="&#x421;" horiz-adv-x="850" 
d="M266.5 37.5q-94.5 47.5 -145.5 130t-51 182.5q0 101 52 183t150.5 129.5t232.5 47.5q87 0 162 -23t113 -52v-24q-36 30 -110.5 54.5t-164.5 24.5q-128 0 -222 -45t-143.5 -122.5t-49.5 -172.5q0 -94 48.5 -172t138.5 -123t208 -45q82 0 152.5 19t112.5 43v-24
q-42 -22 -112.5 -40t-152.5 -18q-124 0 -218.5 47.5z" />
    <glyph glyph-name="uni0422" unicode="&#x422;" horiz-adv-x="660" 
d="M10 700h640v-20h-310v-680h-20v680h-310v20z" />
    <glyph glyph-name="uni0423" unicode="&#x423;" horiz-adv-x="710" 
d="M691 700h24l-340 -585q-36 -62 -75.5 -93.5t-101.5 -31.5q-35 0 -63 5v20q28 -5 63 -5q48 0 83.5 23.5t69.5 81.5l21 35l-357 550h23l342 -527h5z" />
    <glyph glyph-name="uni0424" unicode="&#x424;" horiz-adv-x="1070" 
d="M705 610q95 0 164 -33t105 -91t36 -131t-36 -131t-105 -91t-164 -33h-160v-110h-20v110h-160q-95 0 -164 33t-105 91t-36 131t36 131t105 91t164 33h160v100h20v-100h160zM525 120v470h-160q-89 0 -153.5 -30.5t-98 -84t-33.5 -120.5t33.5 -120.5t98 -84t153.5 -30.5h160
zM705 120q89 0 153.5 30.5t98 84t33.5 120.5t-33.5 120.5t-98 84t-153.5 30.5h-160v-470h160z" />
    <glyph glyph-name="uni0425" unicode="&#x425;" horiz-adv-x="655" 
d="M27 0h-27l312 356v5l-297 339h27l283 -323h5l283 323h27l-297 -339v-5l312 -356h-27l-298 340h-5z" />
    <glyph glyph-name="uni0426" unicode="&#x426;" horiz-adv-x="825" 
d="M790 -190h-20v190h-660v700h20v-680h550v680h20v-680h90v-210z" />
    <glyph glyph-name="uni0427" unicode="&#x427;" horiz-adv-x="805" 
d="M675 700h20v-700h-20v330q-136 -50 -276 -50q-95 0 -164 29t-104.5 81.5t-35.5 119.5v190h20v-190q0 -61 33.5 -108.5t97.5 -74.5t153 -27q140 0 276 50v350z" />
    <glyph glyph-name="uni0428" unicode="&#x428;" horiz-adv-x="1060" 
d="M950 0h-840v700h20v-680h390v680h20v-680h390v680h20v-700z" />
    <glyph glyph-name="uni0429" unicode="&#x429;" horiz-adv-x="1075" 
d="M1040 -190h-20v190h-910v700h20v-680h390v680h20v-680h390v680h20v-680h90v-210z" />
    <glyph glyph-name="uni042A" unicode="&#x42a;" horiz-adv-x="835" 
d="M180 0v680h-180v20h200v-290h315q131 0 198 -55.5t67 -149.5t-67 -149.5t-198 -55.5h-335zM515 20q122 0 183.5 50t61.5 135t-61.5 135t-183.5 50h-315v-370h315z" />
    <glyph glyph-name="uni042B" unicode="&#x42b;" horiz-adv-x="970" 
d="M110 0v700h20v-290h315q131 0 198 -55.5t67 -149.5t-67 -149.5t-198 -55.5h-335zM860 0h-20v700h20v-700zM445 20q122 0 183.5 50t61.5 135t-61.5 135t-183.5 50h-315v-370h315z" />
    <glyph glyph-name="uni042C" unicode="&#x42c;" horiz-adv-x="785" 
d="M110 0v700h20v-290h335q131 0 198 -55.5t67 -149.5t-67 -149.5t-198 -55.5h-355zM465 20q122 0 183.5 50t61.5 135t-61.5 135t-183.5 50h-335v-370h335z" />
    <glyph glyph-name="uni042D" unicode="&#x42d;" horiz-adv-x="830" 
d="M557.5 662.5q98.5 -47.5 150.5 -129.5t52 -183q0 -100 -51 -182.5t-145.5 -130t-218.5 -47.5q-82 0 -153 18t-112 40v24q40 -23 112.5 -42.5t152.5 -19.5q118 0 208 45t138.5 123t48.5 172h-440v20h439q-5 91 -56 163.5t-143 114.5t-215 42q-90 0 -164.5 -24.5
t-110.5 -54.5v24q38 29 113 52t162 23q134 0 232.5 -47.5z" />
    <glyph glyph-name="uni042E" unicode="&#x42e;" horiz-adv-x="1205" 
d="M941 663.5q94 -46.5 144 -128.5t50 -185t-50 -185t-144 -128.5t-221 -46.5t-221 46.5t-144 128.5t-50 185h-175v-350h-20v700h20v-330h175q5 98 56.5 175t143.5 121t215 44q127 0 221 -46.5zM930.5 54q89.5 44 137 121.5t47.5 174.5t-47.5 174.5t-137 121.5t-210.5 44
t-210.5 -44t-137 -121.5t-47.5 -174.5t47.5 -174.5t137 -121.5t210.5 -44t210.5 44z" />
    <glyph glyph-name="uni042F" unicode="&#x42f;" horiz-adv-x="815" 
d="M705 700v-700h-20v290h-332l-215 -290h-23l213 290q-126 2 -192 57t-66 148q0 94 67 149.5t198 55.5h370zM685 310v370h-350q-122 0 -183.5 -50t-61.5 -135t61.5 -135t183.5 -50h350z" />
    <glyph glyph-name="uni0430" unicode="&#x430;" horiz-adv-x="670" 
d="M103 31.5q-53 41.5 -53 108.5q0 70 64.5 112.5t205.5 42.5q93 0 144.5 12.5t71 35.5t19.5 57q0 31 -23 58.5t-72.5 44.5t-124.5 17t-147 -19t-113 -43v22q38 23 109 41.5t151 18.5q81 0 135 -19.5t79.5 -51t25.5 -68.5v-401h-20v115q-24 -30 -67.5 -58.5t-102.5 -47.5
t-125 -19q-104 0 -157 41.5zM386 30.5q59 20.5 102 51.5t67 63v190q-8 -23 -67.5 -41.5t-167.5 -18.5q-132 0 -191 -37.5t-59 -97.5q0 -58 47.5 -94t142.5 -36q67 0 126 20.5z" />
    <glyph glyph-name="uni0431" unicode="&#x431;" horiz-adv-x="775" 
d="M225 19.5q-71 29.5 -105.5 80.5t-34.5 115v175q0 124 62 184.5t193 60.5h200q73 0 109 31t36 89h20q0 -140 -165 -140h-200q-120 0 -177.5 -55.5t-57.5 -169.5v-76h5q31 57 103.5 91.5t186.5 34.5q104 0 175 -29.5t105.5 -80.5t34.5 -115t-34.5 -115t-105.5 -80.5
t-175 -29.5t-175 29.5zM563.5 37q66.5 27 99 73.5t32.5 104.5t-32.5 104.5t-99 73.5t-163.5 27t-163.5 -27t-99 -73.5t-32.5 -104.5t32.5 -104.5t99 -73.5t163.5 -27t163.5 27z" />
    <glyph glyph-name="uni0432" unicode="&#x432;" horiz-adv-x="685" 
d="M480 249q61 -12 90.5 -43.5t29.5 -75.5q0 -56 -49.5 -93t-145.5 -37h-305v530h290q104 0 157 -40.5t53 -104.5q0 -49 -31.5 -84.5t-88.5 -46.5v-5zM120 510v-250h270q95 0 142.5 35t47.5 90t-47.5 90t-142.5 35h-270zM405 20q87 0 131 31.5t44 78.5t-44 78.5t-131 31.5
h-285v-220h285z" />
    <glyph glyph-name="uni0433" unicode="&#x433;" horiz-adv-x="520" 
d="M120 0h-20v530h410v-20h-390v-510z" />
    <glyph glyph-name="uni0434" unicode="&#x434;" horiz-adv-x="640" 
d="M-10 -160v180h68q31 38 56.5 134t25.5 236v140h390v-510h80v-180h-20v160h-580v-160h-20zM510 20v490h-350v-120q0 -135 -24 -231t-54 -139h428z" />
    <glyph glyph-name="uni0435" unicode="&#x435;" horiz-adv-x="700" 
d="M213.5 26q-71.5 36 -110 98.5t-38.5 140.5q0 80 36 142.5t102 97.5t152 35q79 0 143 -36.5t100.5 -99t36.5 -139.5v-15h-550q4 -68 41 -123t102.5 -86t151.5 -31q70 0 128.5 17.5t86.5 39.5v-22q-28 -21 -86.5 -38t-128.5 -17q-95 0 -166.5 36zM615 270q-2 73 -37 130
t-93.5 88.5t-129.5 31.5q-79 0 -140 -32t-95 -89t-35 -129h530z" />
    <glyph glyph-name="uni0436" unicode="&#x436;" horiz-adv-x="866" 
d="M44 0h-34l400 265l-400 265h35l378 -251v251h20v-251l378 251h35l-400 -265l400 -265h-34l-379 250v-250h-20v250z" />
    <glyph glyph-name="uni0437" unicode="&#x437;" horiz-adv-x="610" 
d="M168.5 4q-61.5 14 -98.5 31v22q37 -18 98 -32.5t125 -14.5q116 0 169 34t53 88t-55 88.5t-180 34.5h-115v20h115q80 0 132 17.5t75 45t23 59.5q0 33 -23.5 60.5t-74 45t-127.5 17.5q-68 0 -131 -16.5t-99 -36.5v23q36 19 98.5 34.5t131.5 15.5q83 0 138 -20t81 -52
t26 -71q0 -45 -36.5 -80.5t-108.5 -48.5v-5q73 -9 111.5 -45t38.5 -86q0 -63 -58.5 -102.5t-183.5 -39.5q-63 0 -124.5 14z" />
    <glyph glyph-name="uni0438" unicode="&#x438;" horiz-adv-x="695" 
d="M130 0h-30v530h20v-506h5l440 506h30v-530h-20v506h-5z" />
    <glyph glyph-name="uni0439" unicode="&#x439;" horiz-adv-x="695" 
d="M130 0h-30v530h20v-506h5l440 506h30v-530h-20v506h-5zM234 661.5q-39 31.5 -39 78.5h20q0 -38 33.5 -64t96.5 -26t96.5 26t33.5 64h20q0 -47 -39 -78.5t-111 -31.5t-111 31.5z" />
    <glyph glyph-name="uni043A" unicode="&#x43a;" horiz-adv-x="568" 
d="M120 0h-20v530h20v-250l401 250h37l-425 -265l425 -265h-36l-402 250v-250z" />
    <glyph glyph-name="uni043B" unicode="&#x43b;" horiz-adv-x="635" 
d="M30 10q31 37 58 135.5t32 234.5l5 150h410v-530h-20v510h-371l-4 -130q-5 -140 -33 -241t-60 -139h-17v10z" />
    <glyph glyph-name="uni043C" unicode="&#x43c;" horiz-adv-x="870" 
d="M746 509l-311 -529l-311 529h-4v-509h-20v530h35l298 -506h4l298 506h35v-530h-20v509h-4z" />
    <glyph glyph-name="uni043D" unicode="&#x43d;" horiz-adv-x="695" 
d="M575 280v250h20v-530h-20v260h-455v-260h-20v530h20v-250h455z" />
    <glyph glyph-name="uni043E" unicode="&#x43e;" horiz-adv-x="770" 
d="M214.5 26q-72.5 36 -111 98.5t-38.5 140.5t38.5 140.5t111 98.5t170.5 36t170.5 -36t111 -98.5t38.5 -140.5t-38.5 -140.5t-111 -98.5t-170.5 -36t-170.5 36zM545 43.5q68 33.5 104 91.5t36 130t-36 130t-104 91.5t-160 33.5t-160 -33.5t-104 -91.5t-36 -130t36 -130
t104 -91.5t160 -33.5t160 33.5z" />
    <glyph glyph-name="uni043F" unicode="&#x43f;" horiz-adv-x="695" 
d="M120 0h-20v530h495v-530h-20v510h-455v-510z" />
    <glyph glyph-name="uni0440" unicode="&#x440;" 
d="M100 -190v720h20v-110h5q35 46 103 83t147 37q88 0 155 -35t103.5 -97.5t36.5 -142.5t-36 -142.5t-102 -97.5t-152 -35q-82 0 -151 37t-104 83h-5v-300h-20zM521.5 42.5q61.5 32.5 95 90.5t33.5 132t-34 132t-96 90.5t-145 32.5q-82 0 -151 -42.5t-104 -95.5v-234
q35 -53 105 -95.5t155 -42.5q80 0 141.5 32.5z" />
    <glyph glyph-name="uni0441" unicode="&#x441;" horiz-adv-x="670" 
d="M213.5 26q-71.5 36 -110 98.5t-38.5 140.5t38.5 140.5t111 98.5t170.5 36q73 0 131.5 -17t93.5 -39v-22q-35 23 -93.5 40.5t-131.5 17.5q-92 0 -160 -33.5t-104 -91.5t-36 -130t36 -130t103 -91.5t156 -33.5q67 0 122 16t88 37v-22q-32 -20 -88 -35.5t-122 -15.5
q-95 0 -166.5 36z" />
    <glyph glyph-name="uni0442" unicode="&#x442;" horiz-adv-x="540" 
d="M280 0h-20v510h-260v20h540v-20h-260v-510z" />
    <glyph glyph-name="uni0443" unicode="&#x443;" horiz-adv-x="540" 
d="M171 -190h-24l123 240l-270 480h24l255 -454h5l232 454h24z" />
    <glyph glyph-name="uni0444" unicode="&#x444;" horiz-adv-x="950" 
d="M590 530q93 0 159.5 -32.5t101 -92.5t34.5 -140t-34.5 -140t-101 -92.5t-159.5 -32.5h-105v-190h-20v190h-105q-93 0 -159.5 32.5t-101 92.5t-34.5 140t34.5 140t101 92.5t159.5 32.5h105v190h20v-190h105zM465 20v490h-105q-131 0 -203 -66t-72 -179t72 -179t203 -66
h105zM590 20q131 0 203 66t72 179t-72 179t-203 66h-105v-490h105z" />
    <glyph glyph-name="uni0445" unicode="&#x445;" horiz-adv-x="515" 
d="M26 0h-26l243 269v3l-233 258h26l219 -243h5l219 243h26l-233 -258v-3l243 -269h-26l-229 254h-5z" />
    <glyph glyph-name="uni0446" unicode="&#x446;" horiz-adv-x="700" 
d="M670 -160h-20v160h-550v530h20v-510h450v510h20v-510h80v-180z" />
    <glyph glyph-name="uni0447" unicode="&#x447;" horiz-adv-x="650" 
d="M530 530h20v-530h-20v231q-57 -16 -106.5 -23.5t-102.5 -7.5q-118 0 -179.5 54t-61.5 147v129h20v-129q0 -84 56.5 -132.5t164.5 -48.5q53 0 102.5 7.5t106.5 23.5v279z" />
    <glyph glyph-name="uni0448" unicode="&#x448;" horiz-adv-x="930" 
d="M830 0h-730v530h20v-510h335v510h20v-510h335v510h20v-530z" />
    <glyph glyph-name="uni0449" unicode="&#x449;" horiz-adv-x="940" 
d="M910 -160h-20v160h-790v530h20v-510h335v510h20v-510h335v510h20v-510h80v-180z" />
    <glyph glyph-name="uni044A" unicode="&#x44a;" horiz-adv-x="710" 
d="M440 320q111 0 165.5 -44t54.5 -116t-54.5 -116t-165.5 -44h-285v510h-155v20h175v-210h265zM440 20q101 0 150.5 39t49.5 101t-49.5 101t-150.5 39h-265v-280h265z" />
    <glyph glyph-name="uni044B" unicode="&#x44b;" horiz-adv-x="805" 
d="M385 320q111 0 165.5 -44t54.5 -116t-54.5 -116t-165.5 -44h-285v530h20v-210h265zM685 0v530h20v-530h-20zM385 20q101 0 150.5 39t49.5 101t-49.5 101t-150.5 39h-265v-280h265z" />
    <glyph glyph-name="uni044C" unicode="&#x44c;" horiz-adv-x="665" 
d="M395 320q111 0 165.5 -44t54.5 -116t-54.5 -116t-165.5 -44h-295v530h20v-210h275zM395 20q101 0 150.5 39t49.5 101t-49.5 101t-150.5 39h-275v-280h275z" />
    <glyph glyph-name="uni044D" unicode="&#x44d;" horiz-adv-x="655" 
d="M441.5 504q71.5 -36 110 -98.5t38.5 -140.5t-38.5 -140.5t-110 -98.5t-166.5 -36q-71 0 -124 15.5t-86 35.5v22q34 -21 86.5 -37t123.5 -16q88 0 154.5 32.5t102.5 89.5t38 128h-395v20h395q-4 68 -41 123t-102.5 86t-151.5 31q-74 0 -134.5 -17.5t-95.5 -40.5v22
q35 23 94.5 39.5t135.5 16.5q95 0 166.5 -36z" />
    <glyph glyph-name="uni044E" unicode="&#x44e;" horiz-adv-x="935" 
d="M721.5 504q71.5 -36 110 -98.5t38.5 -140.5t-38.5 -140.5t-110 -98.5t-166.5 -36q-93 0 -163.5 34.5t-109.5 95t-42 135.5h-120v-255h-20v530h20v-255h120q3 75 42 135.5t109.5 95t163.5 34.5q95 0 166.5 -36zM711 43.5q67 33.5 103 91.5t36 130t-36 130t-103 91.5
t-156 33.5t-156 -33.5t-103 -91.5t-36 -130t36 -130t103 -91.5t156 -33.5t156 33.5z" />
    <glyph glyph-name="uni044F" unicode="&#x44f;" horiz-adv-x="650" 
d="M70 0l210 210q-111 0 -165.5 44t-54.5 116t54.5 116t165.5 44h270v-530h-20v210h-223l-210 -210h-27zM530 230v280h-250q-101 0 -150.5 -39t-49.5 -101t49.5 -101t150.5 -39h250z" />
    <glyph glyph-name="uni0450" unicode="&#x450;" horiz-adv-x="700" 
d="M213.5 26q-71.5 36 -110 98.5t-38.5 140.5q0 80 36 142.5t102 97.5t152 35q79 0 143 -36.5t100.5 -99t36.5 -139.5v-15h-550q4 -68 41 -123t102.5 -86t151.5 -31q70 0 128.5 17.5t86.5 39.5v-22q-28 -21 -86.5 -38t-128.5 -17q-95 0 -166.5 36zM615 270q-2 73 -37 130
t-93.5 88.5t-129.5 31.5q-79 0 -140 -32t-95 -89t-35 -129h530zM475 630l-245 85v25h10l240 -95z" />
    <glyph glyph-name="uni0451" unicode="&#x451;" horiz-adv-x="700" 
d="M213.5 26q-71.5 36 -110 98.5t-38.5 140.5q0 80 36 142.5t102 97.5t152 35q79 0 143 -36.5t100.5 -99t36.5 -139.5v-15h-550q4 -68 41 -123t102.5 -86t151.5 -31q70 0 128.5 17.5t86.5 39.5v-22q-28 -21 -86.5 -38t-128.5 -17q-95 0 -166.5 36zM615 270q-2 73 -37 130
t-93.5 88.5t-129.5 31.5q-79 0 -140 -32t-95 -89t-35 -129h530zM238.5 667.5q-8.5 7.5 -8.5 17.5t8.5 17.5t21.5 7.5t21.5 -7.5t8.5 -17.5t-8.5 -17.5t-21.5 -7.5t-21.5 7.5zM408.5 667.5q-8.5 7.5 -8.5 17.5t8.5 17.5t21.5 7.5t21.5 -7.5t8.5 -17.5t-8.5 -17.5t-21.5 -7.5
t-21.5 7.5z" />
    <glyph glyph-name="uni0452" unicode="&#x452;" horiz-adv-x="695" 
d="M548 366q62 -59 62 -161v-263q0 -70 -32.5 -106t-89.5 -36q-39 0 -73 12v20q34 -12 73 -12q48 0 75 31t27 91v263q0 92 -56.5 146t-158.5 54q-65 0 -115 -26.5t-80.5 -61t-44.5 -65.5v-252h-20v540h-110v20h110v160h20v-160h220v-20h-220v-243h5q28 49 91 88.5t144 39.5
q111 0 173 -59z" />
    <glyph glyph-name="uni0453" unicode="&#x453;" horiz-adv-x="520" 
d="M120 0h-20v530h410v-20h-390v-510zM195 630l-5 15l240 95h10v-25z" />
    <glyph glyph-name="uni0454" unicode="&#x454;" horiz-adv-x="670" 
d="M230 489.5q-65 -30.5 -102 -84t-42 -120.5h374v-20h-375q0 -72 36 -130t103 -91.5t156 -33.5q71 0 123.5 16t86.5 37v-22q-33 -20 -86 -35.5t-124 -15.5q-95 0 -166.5 36t-110 98.5t-38.5 140.5t38.5 140.5t110 98.5t166.5 36q76 0 135.5 -16.5t94.5 -39.5v-22
q-35 23 -95.5 40.5t-134.5 17.5q-85 0 -150 -30.5z" />
    <glyph glyph-name="uni0455" unicode="&#x455;" horiz-adv-x="595" 
d="M166 4.5q-61 14.5 -91 31.5v22q30 -18 91 -33t136 -15q107 0 160 31.5t53 78.5q0 41 -30.5 66t-75 38.5t-120.5 29.5q-79 16 -128 31t-82.5 44t-33.5 76q0 59 60.5 97t193.5 38q76 0 139 -16t97 -37v-20q-36 21 -99.5 37t-136.5 16q-123 0 -178.5 -33t-55.5 -82
q0 -39 30 -63.5t74.5 -38t118.5 -28.5q81 -17 130 -32t83 -45t34 -78q0 -57 -58.5 -93.5t-174.5 -36.5q-75 0 -136 14.5z" />
    <glyph glyph-name="uni0456" unicode="&#x456;" horiz-adv-x="220" 
d="M88.5 612.5q-8.5 7.5 -8.5 17.5t8.5 17.5t21.5 7.5t21.5 -7.5t8.5 -17.5t-8.5 -17.5t-21.5 -7.5t-21.5 7.5zM100 0v530h10h10v-530h-20z" />
    <glyph glyph-name="uni0457" unicode="&#x457;" horiz-adv-x="220" 
d="M120 0h-20v530h20v-530zM3.5 667.5q-8.5 7.5 -8.5 17.5t8.5 17.5t21.5 7.5t21.5 -7.5t8.5 -17.5t-8.5 -17.5t-21.5 -7.5t-21.5 7.5zM173.5 667.5q-8.5 7.5 -8.5 17.5t8.5 17.5t21.5 7.5t21.5 -7.5t8.5 -17.5t-8.5 -17.5t-21.5 -7.5t-21.5 7.5z" />
    <glyph glyph-name="uni0458" unicode="&#x458;" horiz-adv-x="220" 
d="M88.5 612.5q-8.5 7.5 -8.5 17.5t8.5 17.5t21.5 7.5t21.5 -7.5t8.5 -17.5t-8.5 -17.5t-21.5 -7.5t-21.5 7.5zM-70 -186v20q31 -14 70 -14q46 0 73 31t27 91v588h2h8h7h3v-588q0 -70 -32 -106t-88 -36q-39 0 -70 14z" />
    <glyph glyph-name="uni0459" unicode="&#x459;" horiz-adv-x="1040" 
d="M770 320q111 0 165.5 -44t54.5 -116t-54.5 -116t-165.5 -44h-275v510h-351l-4 -130q-5 -140 -33 -241t-60 -139h-17v10q31 37 58 135.5t32 234.5l5 150h390v-210h255zM770 20q101 0 150.5 39t49.5 101t-49.5 101t-150.5 39h-255v-280h255z" />
    <glyph glyph-name="uni045A" unicode="&#x45a;" horiz-adv-x="1095" 
d="M835 310q104 0 157 -43.5t53 -111.5t-53 -111.5t-157 -43.5h-285v290h-430v-290h-20v530h20v-220h430v220h20v-220h265zM835 20q94 0 142 38.5t48 96.5t-48 96.5t-142 38.5h-265v-270h265z" />
    <glyph glyph-name="uni045B" unicode="&#x45b;" horiz-adv-x="695" 
d="M548 366q62 -59 62 -161v-205h-20v205q0 92 -56.5 146t-158.5 54q-58 0 -107 -23.5t-83 -58.5t-50 -71v-252h-20v540h-110v20h110v160h20v-160h220v-20h-220v-243h5q17 30 50.5 59.5t81.5 49t103 19.5q111 0 173 -59z" />
    <glyph glyph-name="uni045C" unicode="&#x45c;" horiz-adv-x="568" 
d="M120 0h-20v530h20v-250l401 250h37l-425 -265l425 -265h-36l-402 250v-250zM210 630l-5 15l240 95h10v-25z" />
    <glyph glyph-name="uni045D" unicode="&#x45d;" horiz-adv-x="695" 
d="M130 0h-30v530h20v-506h5l440 506h30v-530h-20v506h-5zM475 630l-245 85v25h10l240 -95z" />
    <glyph glyph-name="uni045E" unicode="&#x45e;" horiz-adv-x="540" 
d="M171 -190h-24l123 240l-270 480h24l255 -454h5l232 454h24zM159 661.5q-39 31.5 -39 78.5h20q0 -38 33.5 -64t96.5 -26t96.5 26t33.5 64h20q0 -47 -39 -78.5t-111 -31.5t-111 31.5z" />
    <glyph glyph-name="uni045F" unicode="&#x45f;" horiz-adv-x="690" 
d="M355 -160h-20v160h-235v530h20v-510h450v510h20v-530h-235v-160z" />
    <glyph glyph-name="uni0490" unicode="&#x490;" horiz-adv-x="655" 
d="M130 0h-20v700h505v120h20v-140h-505v-680z" />
    <glyph glyph-name="uni0491" unicode="&#x491;" horiz-adv-x="520" 
d="M120 0h-20v530h390v125h20v-145h-390v-510z" />
    <glyph glyph-name="uni0492" unicode="&#x492;" horiz-adv-x="665" 
d="M645 700v-20h-505v-310h340v-20h-340v-350h-20v350h-100v20h100v330h525z" />
    <glyph glyph-name="uni0493" unicode="&#x493;" horiz-adv-x="525" 
d="M510 530v-20h-390v-230h250v-20h-250v-260h-20v260h-85v20h85v250h410z" />
    <glyph glyph-name="uni0494" unicode="&#x494;" horiz-adv-x="745" 
d="M362 -151v20q23 -4 51 -4q69 0 126.5 34t91.5 93.5t34 132.5q0 78 -32.5 137t-92.5 91t-140 32q-63 0 -117.5 -24t-93.5 -60.5t-59 -73.5v-227h-20v700h525v-20h-505v-408h5q21 31 59.5 61.5t92 51t113.5 20.5q87 0 151 -34.5t99 -98t35 -147.5q0 -80 -36 -144t-98 -100
t-137 -36q-29 0 -52 4z" />
    <glyph glyph-name="uni0495" unicode="&#x495;" horiz-adv-x="635" 
d="M304 -187v20q18 -3 34 -3q60 0 113.5 29t86 82.5t32.5 123.5q0 64 -26 115t-77 80.5t-122 29.5q-54 0 -100 -17.5t-78 -44t-47 -53.5v-175h-20v530h410v-20h-390v-295h5q26 36 85 65.5t135 29.5q77 0 132.5 -32t84 -87.5t28.5 -125.5q0 -76 -35 -134t-93 -89.5
t-124 -31.5q-16 0 -34 3z" />
    <glyph glyph-name="uni0496" unicode="&#x496;" horiz-adv-x="1180" 
d="M76 0h-36l530 365v5l-560 330h39l531 -313v313h20v-313l531 313h39l-560 -330v-5l501 -345h74v-210h-20v190h-61l-504 348v-348h-20v348z" />
    <glyph glyph-name="uni0497" unicode="&#x497;" horiz-adv-x="881" 
d="M44 0h-34l400 265l-400 265h35l378 -251v251h20v-251l378 251h35l-400 -265l370 -245h60v-180h-20v160h-44l-379 250v-250h-20v250z" />
    <glyph glyph-name="uni049A" unicode="&#x49a;" horiz-adv-x="725" 
d="M130 0h-20v700h20v-313l546 313h39l-575 -330v-5l515 -345h75v-210h-20v190h-62l-518 348v-348z" />
    <glyph glyph-name="uni049B" unicode="&#x49b;" horiz-adv-x="583" 
d="M120 0h-20v530h20v-250l401 250h37l-425 -265l393 -245h62v-180h-20v160h-46l-402 250v-250z" />
    <glyph glyph-name="uni049C" unicode="&#x49c;" horiz-adv-x="725" 
d="M715 700l-345 -330v-5l315 -365h-28l-307 357h-90v-147h-20v147h-110v-357h-20v700h20v-323h110v148h20v-148h89l338 323h28z" />
    <glyph glyph-name="uni049D" unicode="&#x49d;" horiz-adv-x="573" 
d="M531 530h27l-255 -265l255 -265h-26l-246 255h-66v-115h-20v115h-80v-255h-20v530h20v-255h80v115h20v-115h66z" />
    <glyph glyph-name="uni04A2" unicode="&#x4a2;" horiz-adv-x="855" 
d="M730 700v-680h90v-210h-20v190h-90v350h-580v-350h-20v700h20v-330h580v330h20z" />
    <glyph glyph-name="uni04A3" unicode="&#x4a3;" horiz-adv-x="705" 
d="M595 530v-510h80v-180h-20v160h-80v260h-455v-260h-20v530h20v-250h455v250h20z" />
    <glyph glyph-name="uni04AA" unicode="&#x4aa;" horiz-adv-x="850" 
d="M283 645q-94 -45 -143.5 -122.5t-49.5 -172.5q0 -94 48.5 -172t138.5 -123t208 -45q82 0 152.5 19t112.5 43v-24q-41 -21 -108.5 -39t-146.5 -19v-180h-20v180q-121 2 -213 50t-142 129.5t-50 180.5q0 101 52 183t150.5 129.5t232.5 47.5q87 0 162 -23t113 -52v-24
q-36 30 -110.5 54.5t-164.5 24.5q-128 0 -222 -45z" />
    <glyph glyph-name="uni04AB" unicode="&#x4ab;" horiz-adv-x="670" 
d="M225 486.5q-68 -33.5 -104 -91.5t-36 -130t36 -130t103 -91.5t156 -33.5q67 0 122 16t88 37v-22q-31 -19 -84 -34.5t-116 -16.5v-150h-20v150q-92 2 -161.5 38.5t-106.5 98.5t-37 138q0 78 38.5 140.5t111 98.5t170.5 36q73 0 131.5 -17t93.5 -39v-22q-35 23 -93.5 40.5
t-131.5 17.5q-92 0 -160 -33.5z" />
    <glyph glyph-name="uni04AE" unicode="&#x4ae;" horiz-adv-x="720" 
d="M370 0h-20v160l-365 540h24l348 -515h6l348 515h24l-365 -540v-160z" />
    <glyph glyph-name="uni04AF" unicode="&#x4af;" horiz-adv-x="560" 
d="M270 -10l-270 540h22l255 -510h6l255 510h22l-270 -540v-180h-20v180z" />
    <glyph glyph-name="uni04B0" unicode="&#x4b0;" horiz-adv-x="720" 
d="M711 700h24l-351 -520h186v-20h-200v-160h-20v160h-200v20h186l-351 520h24l348 -515h6z" />
    <glyph glyph-name="uni04B1" unicode="&#x4b1;" horiz-adv-x="560" 
d="M538 530h22l-255 -510h155v-20h-170v-190h-20v190h-170v20h155l-255 510h22l255 -510h6z" />
    <glyph glyph-name="uni04B2" unicode="&#x4b2;" horiz-adv-x="705" 
d="M27 0h-27l312 356v5l-297 339h27l283 -323h5l283 323h27l-297 -339v-5l294 -336h73v-210h-20v190h-62l-298 340h-5z" />
    <glyph glyph-name="uni04B3" unicode="&#x4b3;" horiz-adv-x="549" 
d="M26 0h-26l243 269v3l-233 258h26l219 -243h5l219 243h26l-233 -258v-3l225 -249h57v-180h-20v160h-45l-229 254h-5z" />
    <glyph glyph-name="uni04B6" unicode="&#x4b6;" horiz-adv-x="820" 
d="M765 -190v190h-90v330q-136 -50 -276 -50q-95 0 -164 29t-104.5 81.5t-35.5 119.5v190h20v-190q0 -61 33.5 -108.5t97.5 -74.5t153 -27q140 0 276 50v350h20v-680h90v-210h-20z" />
    <glyph glyph-name="uni04B7" unicode="&#x4b7;" horiz-adv-x="660" 
d="M610 -160v160h-80v231q-57 -16 -106.5 -23.5t-102.5 -7.5q-118 0 -179.5 54t-61.5 147v129h20v-129q0 -84 56.5 -132.5t164.5 -48.5q53 0 102.5 7.5t106.5 23.5v279h20v-510h80v-180h-20z" />
    <glyph glyph-name="uni04B8" unicode="&#x4b8;" horiz-adv-x="805" 
d="M675 700h20v-700h-20v330q-128 -47 -260 -50v-165h-20v165q-94 0 -161.5 29.5t-103 81.5t-35.5 119v190h20v-190q0 -60 33 -107.5t96.5 -75t150.5 -27.5v185h20v-185q132 3 260 50v350z" />
    <glyph glyph-name="uni04B9" unicode="&#x4b9;" horiz-adv-x="650" 
d="M530 530h20v-530h-20v231q-55 -15 -101 -22.5t-94 -8.5v-120h-20v120q-115 1 -175 55.5t-60 145.5v129h20v-129q0 -83 54.5 -131.5t160.5 -49.5v150h20v-150q48 1 94 8.5t101 22.5v279z" />
    <glyph glyph-name="uni04BA" unicode="&#x4ba;" horiz-adv-x="790" 
d="M570 401q69 -29 104.5 -81.5t35.5 -119.5v-200h-20v200q0 61 -33.5 108.5t-97.5 74.5t-153 27q-140 0 -276 -50v-360h-20v700h20v-320q136 50 276 50q95 0 164 -29z" />
    <glyph glyph-name="uni04BB" unicode="&#x4bb;" horiz-adv-x="690" 
d="M100 0v720h20v-308h5q17 30 50.5 59.5t81.5 49t103 19.5q111 0 173 -59t62 -161v-320h-20v320q0 92 -56.5 146t-158.5 54q-58 0 -107 -23.5t-83 -58.5t-50 -71v-367h-20z" />
    <glyph glyph-name="uni04C1" unicode="&#x4c1;" horiz-adv-x="1180" 
d="M76 0h-36l530 365v5l-560 330h39l531 -313v313h20v-313l531 313h39l-560 -330v-5l530 -365h-36l-504 348v-348h-20v348zM472 815q-42 35 -42 90h20q0 -46 36.5 -75.5t103.5 -29.5t103.5 29.5t36.5 75.5h20q0 -55 -42 -90t-118 -35t-118 35z" />
    <glyph glyph-name="uni04C2" unicode="&#x4c2;" horiz-adv-x="866" 
d="M44 0h-34l400 265l-400 265h35l378 -251v251h20v-251l378 251h35l-400 -265l400 -265h-34l-379 250v-250h-20v250zM322 661.5q-39 31.5 -39 78.5h20q0 -38 33.5 -64t96.5 -26t96.5 26t33.5 64h20q0 -47 -39 -78.5t-111 -31.5t-111 31.5z" />
    <glyph glyph-name="uni04D2" unicode="&#x4d2;" horiz-adv-x="750" 
d="M755 0h-23l-117 225h-480l-117 -225h-23l365 700h30zM372 680l-226 -435h458l-226 435h-6zM268.5 827.5q-8.5 7.5 -8.5 17.5t8.5 17.5t21.5 7.5t21.5 -7.5t8.5 -17.5t-8.5 -17.5t-21.5 -7.5t-21.5 7.5zM438.5 827.5q-8.5 7.5 -8.5 17.5t8.5 17.5t21.5 7.5t21.5 -7.5
t8.5 -17.5t-8.5 -17.5t-21.5 -7.5t-21.5 7.5z" />
    <glyph glyph-name="uni04D3" unicode="&#x4d3;" horiz-adv-x="670" 
d="M103 31.5q-53 41.5 -53 108.5q0 70 64.5 112.5t205.5 42.5q93 0 144.5 12.5t71 35.5t19.5 57q0 31 -23 58.5t-72.5 44.5t-124.5 17t-147 -19t-113 -43v22q38 23 109 41.5t151 18.5q81 0 135 -19.5t79.5 -51t25.5 -68.5v-401h-20v115q-24 -30 -67.5 -58.5t-102.5 -47.5
t-125 -19q-104 0 -157 41.5zM386 30.5q59 20.5 102 51.5t67 63v190q-8 -23 -67.5 -41.5t-167.5 -18.5q-132 0 -191 -37.5t-59 -97.5q0 -58 47.5 -94t142.5 -36q67 0 126 20.5zM213.5 667.5q-8.5 7.5 -8.5 17.5t8.5 17.5t21.5 7.5t21.5 -7.5t8.5 -17.5t-8.5 -17.5t-21.5 -7.5
t-21.5 7.5zM383.5 667.5q-8.5 7.5 -8.5 17.5t8.5 17.5t21.5 7.5t21.5 -7.5t8.5 -17.5t-8.5 -17.5t-21.5 -7.5t-21.5 7.5z" />
    <glyph glyph-name="uni04D8" unicode="&#x4d8;" horiz-adv-x="945" 
d="M672.5 662.5q98.5 -47.5 150.5 -129.5t52 -183t-49.5 -183.5t-140.5 -129.5t-210 -47q-121 0 -213 47t-142 129t-50 184v20h784q-5 91 -56 163.5t-143 114.5t-215 42q-94 0 -172 -20.5t-124 -44.5v24q52 23 128.5 42t167.5 19q134 0 232.5 -47.5zM674.5 54.5
q86.5 44.5 133.5 122.5t47 173h-765q0 -96 47.5 -173.5t135 -122t202.5 -44.5q113 0 199.5 44.5z" />
    <glyph glyph-name="uni04D9" unicode="&#x4d9;" horiz-adv-x="730" 
d="M516.5 504q71.5 -36 110 -98.5t38.5 -140.5q0 -79 -37 -141.5t-105.5 -98t-158.5 -35.5t-157.5 35t-104.5 96.5t-37 138.5v20h580q-4 68 -41 123t-102.5 86t-151.5 31q-75 0 -139.5 -19.5t-100.5 -41.5v23q37 21 101.5 39.5t138.5 18.5q95 0 166.5 -36zM510.5 42.5
q63.5 32.5 98 89t36.5 128.5h-560q1 -73 35 -129.5t97 -88.5t147 -32q83 0 146.5 32.5z" />
    <glyph glyph-name="uni04E0" unicode="&#x4e0;" horiz-adv-x="700" 
d="M162.5 7.5q-75.5 17.5 -117.5 38.5v24q41 -23 117 -41.5t158 -18.5q99 0 165.5 25t98 65.5t31.5 89.5t-32 90t-100.5 65.5t-172.5 24.5q-46 0 -88.5 -6t-66.5 -14v20l415 304v6h-540v20h590v-15l-410 -298v-5q45 8 100 8q110 0 183 -27t107.5 -72.5t34.5 -100.5t-34 -100
t-105 -72.5t-176 -27.5q-82 0 -157.5 17.5z" />
    <glyph glyph-name="uni04E1" unicode="&#x4e1;" horiz-adv-x="605" 
d="M121.5 -183q-67.5 17 -101.5 39v22q34 -23 101.5 -40.5t148.5 -17.5q89 0 151 25.5t93 67.5t31 92t-30.5 92t-91.5 67.5t-148 25.5q-50 0 -91 -8.5t-60 -18.5v18l374 324v5h-468v20h505v-20l-353 -305v-5q12 4 38 7t60 3q90 0 154.5 -28t97.5 -75t33 -102
q0 -56 -33.5 -102.5t-100 -74.5t-161.5 -28q-81 0 -148.5 17z" />
    <glyph glyph-name="uni04E2" unicode="&#x4e2;" horiz-adv-x="840" 
d="M145 0h-35v700h20v-680h5l560 680h35v-700h-20v680h-5zM590 835h-340v20h340v-20z" />
    <glyph glyph-name="uni04E3" unicode="&#x4e3;" horiz-adv-x="695" 
d="M130 0h-30v530h20v-506h5l440 506h30v-530h-20v506h-5zM515 675h-340v20h340v-20z" />
    <glyph glyph-name="uni04E6" unicode="&#x4e6;" horiz-adv-x="1010" 
d="M272.5 37.5q-98.5 47.5 -150.5 129.5t-52 183t52 183t150.5 129.5t232.5 47.5t232.5 -47.5t150.5 -129.5t52 -183t-52 -183t-150.5 -129.5t-232.5 -47.5t-232.5 47.5zM727 55q94 45 143.5 122.5t49.5 172.5t-49.5 172.5t-143.5 122.5t-222 45t-222 -45t-143.5 -122.5
t-49.5 -172.5t49.5 -172.5t143.5 -122.5t222 -45t222 45zM398.5 827.5q-8.5 7.5 -8.5 17.5t8.5 17.5t21.5 7.5t21.5 -7.5t8.5 -17.5t-8.5 -17.5t-21.5 -7.5t-21.5 7.5zM568.5 827.5q-8.5 7.5 -8.5 17.5t8.5 17.5t21.5 7.5t21.5 -7.5t8.5 -17.5t-8.5 -17.5t-21.5 -7.5
t-21.5 7.5z" />
    <glyph glyph-name="uni04E7" unicode="&#x4e7;" horiz-adv-x="770" 
d="M214.5 26q-72.5 36 -111 98.5t-38.5 140.5t38.5 140.5t111 98.5t170.5 36t170.5 -36t111 -98.5t38.5 -140.5t-38.5 -140.5t-111 -98.5t-170.5 -36t-170.5 36zM545 43.5q68 33.5 104 91.5t36 130t-36 130t-104 91.5t-160 33.5t-160 -33.5t-104 -91.5t-36 -130t36 -130
t104 -91.5t160 -33.5t160 33.5zM278.5 667.5q-8.5 7.5 -8.5 17.5t8.5 17.5t21.5 7.5t21.5 -7.5t8.5 -17.5t-8.5 -17.5t-21.5 -7.5t-21.5 7.5zM448.5 667.5q-8.5 7.5 -8.5 17.5t8.5 17.5t21.5 7.5t21.5 -7.5t8.5 -17.5t-8.5 -17.5t-21.5 -7.5t-21.5 7.5z" />
    <glyph glyph-name="uni04E8" unicode="&#x4e8;" horiz-adv-x="1010" 
d="M737.5 662.5q98.5 -47.5 150.5 -129.5t52 -183t-52 -183t-150.5 -129.5t-232.5 -47.5t-232.5 47.5t-150.5 129.5t-52 183t52 183t150.5 129.5t232.5 47.5t232.5 -47.5zM286.5 646.5q-93.5 -43.5 -143.5 -119t-53 -167.5h830q-3 92 -53 167.5t-143.5 119t-218.5 43.5
t-218.5 -43.5zM723.5 53.5q93.5 43.5 143.5 119t53 167.5h-830q3 -92 53 -167.5t143.5 -119t218.5 -43.5t218.5 43.5z" />
    <glyph glyph-name="uni04E9" unicode="&#x4e9;" horiz-adv-x="770" 
d="M555.5 504q72.5 -36 111 -98.5t38.5 -140.5t-38.5 -140.5t-111 -98.5t-170.5 -36t-170.5 36t-111 98.5t-38.5 140.5t38.5 140.5t111 98.5t170.5 36t170.5 -36zM228 488q-67 -32 -103.5 -87.5t-39.5 -125.5h600q-3 70 -39.5 125.5t-103.5 87.5t-157 32t-157 -32zM542 42
q67 32 103.5 87.5t39.5 125.5h-600q3 -70 39.5 -125.5t103.5 -87.5t157 -32t157 32z" />
    <glyph glyph-name="uni04EE" unicode="&#x4ee;" horiz-adv-x="710" 
d="M691 700h24l-340 -585q-36 -62 -75.5 -93.5t-101.5 -31.5q-35 0 -63 5v20q28 -5 63 -5q48 0 83.5 23.5t69.5 81.5l21 35l-357 550h23l342 -527h5zM525 835h-340v20h340v-20z" />
    <glyph glyph-name="uni04EF" unicode="&#x4ef;" horiz-adv-x="540" 
d="M171 -190h-24l123 240l-270 480h24l255 -454h5l232 454h24zM440 675h-340v20h340v-20z" />
    <glyph glyph-name="uni04F0" unicode="&#x4f0;" horiz-adv-x="710" 
d="M691 700h24l-340 -585q-36 -62 -75.5 -93.5t-101.5 -31.5q-35 0 -63 5v20q28 -5 63 -5q48 0 83.5 23.5t69.5 81.5l21 35l-357 550h23l342 -527h5zM248.5 827.5q-8.5 7.5 -8.5 17.5t8.5 17.5t21.5 7.5t21.5 -7.5t8.5 -17.5t-8.5 -17.5t-21.5 -7.5t-21.5 7.5zM418.5 827.5
q-8.5 7.5 -8.5 17.5t8.5 17.5t21.5 7.5t21.5 -7.5t8.5 -17.5t-8.5 -17.5t-21.5 -7.5t-21.5 7.5z" />
    <glyph glyph-name="uni04F1" unicode="&#x4f1;" horiz-adv-x="540" 
d="M171 -190h-24l123 240l-270 480h24l255 -454h5l232 454h24zM163.5 667.5q-8.5 7.5 -8.5 17.5t8.5 17.5t21.5 7.5t21.5 -7.5t8.5 -17.5t-8.5 -17.5t-21.5 -7.5t-21.5 7.5zM333.5 667.5q-8.5 7.5 -8.5 17.5t8.5 17.5t21.5 7.5t21.5 -7.5t8.5 -17.5t-8.5 -17.5t-21.5 -7.5
t-21.5 7.5z" />
    <glyph glyph-name="Wgrave" unicode="&#x1e80;" horiz-adv-x="1175" 
d="M325 0h-35l-280 700h23l272 -680h5l260 680h35l260 -680h5l272 680h23l-280 -700h-35l-260 680h-5zM718 790l-245 85v25h10l240 -95z" />
    <glyph glyph-name="wgrave" unicode="&#x1e81;" horiz-adv-x="910" 
d="M252 0h-32l-215 530h22l207 -510h4l201 510h32l201 -510h4l207 510h22l-215 -530h-32l-201 510h-4zM585 630l-245 85v25h10l240 -95z" />
    <glyph glyph-name="Wacute" unicode="&#x1e82;" horiz-adv-x="1175" 
d="M325 0h-35l-280 700h23l272 -680h5l260 680h35l260 -680h5l272 680h23l-280 -700h-35l-260 680h-5zM458 790l-5 15l240 95h10v-25z" />
    <glyph glyph-name="wacute" unicode="&#x1e83;" horiz-adv-x="910" 
d="M252 0h-32l-215 530h22l207 -510h4l201 510h32l201 -510h4l207 510h22l-215 -530h-32l-201 510h-4zM325 630l-5 15l240 95h10v-25z" />
    <glyph glyph-name="Wdieresis" unicode="&#x1e84;" horiz-adv-x="1175" 
d="M325 0h-35l-280 700h23l272 -680h5l260 680h35l260 -680h5l272 680h23l-280 -700h-35l-260 680h-5zM481.5 827.5q-8.5 7.5 -8.5 17.5t8.5 17.5t21.5 7.5t21.5 -7.5t8.5 -17.5t-8.5 -17.5t-21.5 -7.5t-21.5 7.5zM651.5 827.5q-8.5 7.5 -8.5 17.5t8.5 17.5t21.5 7.5
t21.5 -7.5t8.5 -17.5t-8.5 -17.5t-21.5 -7.5t-21.5 7.5z" />
    <glyph glyph-name="wdieresis" unicode="&#x1e85;" horiz-adv-x="910" 
d="M252 0h-32l-215 530h22l207 -510h4l201 510h32l201 -510h4l207 510h22l-215 -530h-32l-201 510h-4zM348.5 667.5q-8.5 7.5 -8.5 17.5t8.5 17.5t21.5 7.5t21.5 -7.5t8.5 -17.5t-8.5 -17.5t-21.5 -7.5t-21.5 7.5zM518.5 667.5q-8.5 7.5 -8.5 17.5t8.5 17.5t21.5 7.5
t21.5 -7.5t8.5 -17.5t-8.5 -17.5t-21.5 -7.5t-21.5 7.5z" />
    <glyph glyph-name="uni1E9E" unicode="&#x1e9e;" horiz-adv-x="955" 
d="M507.5 2q-67.5 12 -107.5 26v22q38 -15 105.5 -27.5t139.5 -12.5q85 0 141 20.5t82.5 54.5t26.5 75q0 53 -34.5 86t-84 51.5t-135.5 40.5q-89 23 -143 43t-91 57t-37 97q0 57 37 93.5t82 46.5v5h-359v-680h-20v700h540v-20q-136 0 -198 -40.5t-62 -104.5q0 -52 34 -85
t84 -51t135 -40q89 -23 143 -43t91.5 -58t37.5 -98q0 -47 -29 -85.5t-89.5 -61.5t-151.5 -23q-70 0 -137.5 12z" />
    <glyph glyph-name="uni1EBC" unicode="&#x1ebc;" horiz-adv-x="700" 
d="M130 350v-330h510v-20h-530v700h510v-20h-490v-310h450v-20h-450zM405.5 806.5q-20.5 11.5 -47.5 33.5q-26 21 -42.5 30.5t-35.5 9.5q-25 0 -40 -16t-15 -44v-20h-20v20q0 37 20.5 58.5t54.5 21.5q24 0 44.5 -11.5t47.5 -33.5q26 -21 42.5 -30.5t35.5 -9.5q25 0 40 16
t15 44v20h20v-20q0 -37 -20.5 -58.5t-54.5 -21.5q-24 0 -44.5 11.5z" />
    <glyph glyph-name="uni1EBD" unicode="&#x1ebd;" horiz-adv-x="700" 
d="M213.5 26q-71.5 36 -110 98.5t-38.5 140.5q0 80 36 142.5t102 97.5t152 35q79 0 143 -36.5t100.5 -99t36.5 -139.5v-15h-550q4 -68 41 -123t102.5 -86t151.5 -31q70 0 128.5 17.5t86.5 39.5v-22q-28 -21 -86.5 -38t-128.5 -17q-95 0 -166.5 36zM615 270q-2 73 -37 130
t-93.5 88.5t-129.5 31.5q-79 0 -140 -32t-95 -89t-35 -129h530zM385.5 646.5q-20.5 11.5 -47.5 33.5q-26 21 -42.5 30.5t-35.5 9.5q-25 0 -40 -16t-15 -44v-20h-20v20q0 37 20.5 58.5t54.5 21.5q24 0 44.5 -11.5t47.5 -33.5q26 -21 42.5 -30.5t35.5 -9.5q25 0 40 16t15 44
v20h20v-20q0 -37 -20.5 -58.5t-54.5 -21.5q-24 0 -44.5 11.5z" />
    <glyph glyph-name="Ygrave" unicode="&#x1ef2;" horiz-adv-x="720" 
d="M370 0h-20v160l-365 540h24l348 -515h6l348 515h24l-365 -540v-160zM475 790l-245 85v25h10l240 -95z" />
    <glyph glyph-name="ygrave" unicode="&#x1ef3;" horiz-adv-x="540" 
d="M171 -190h-24l123 240l-270 480h24l255 -454h5l232 454h24zM390 630l-245 85v25h10l240 -95z" />
    <glyph glyph-name="uni1EF8" unicode="&#x1ef8;" horiz-adv-x="720" 
d="M370 0h-20v160l-365 540h24l348 -515h6l348 515h24l-365 -540v-160zM400.5 806.5q-20.5 11.5 -47.5 33.5q-26 21 -42.5 30.5t-35.5 9.5q-25 0 -40 -16t-15 -44v-20h-20v20q0 37 20.5 58.5t54.5 21.5q24 0 44.5 -11.5t47.5 -33.5q26 -21 42.5 -30.5t35.5 -9.5q25 0 40 16
t15 44v20h20v-20q0 -37 -20.5 -58.5t-54.5 -21.5q-24 0 -44.5 11.5z" />
    <glyph glyph-name="uni1EF9" unicode="&#x1ef9;" horiz-adv-x="540" 
d="M171 -190h-24l123 240l-270 480h24l255 -454h5l232 454h24zM310.5 646.5q-20.5 11.5 -47.5 33.5q-26 21 -42.5 30.5t-35.5 9.5q-25 0 -40 -16t-15 -44v-20h-20v20q0 37 20.5 58.5t54.5 21.5q24 0 44.5 -11.5t47.5 -33.5q26 -21 42.5 -30.5t35.5 -9.5q25 0 40 16t15 44v20
h20v-20q0 -37 -20.5 -58.5t-54.5 -21.5q-24 0 -44.5 11.5z" />
    <glyph glyph-name="endash" unicode="&#x2013;" horiz-adv-x="710" 
d="M655 310h-600v20h600v-20z" />
    <glyph glyph-name="emdash" unicode="&#x2014;" horiz-adv-x="1005" 
d="M950 310h-895v20h895v-20z" />
    <glyph glyph-name="quoteleft" unicode="&#x2018;" horiz-adv-x="165" 
d="M51.5 527q-21.5 27 -21.5 73q0 57 30 91t75 34v-20q-35 0 -60 -29t-25 -76q0 -52 26 -69q2 8 10 13.5t19 5.5q14 0 22 -7t8 -17q0 -11 -9 -18.5t-25 -7.5q-28 0 -49.5 27z" />
    <glyph glyph-name="quoteright" unicode="&#x2019;" horiz-adv-x="165" 
d="M30 520q35 0 60 29t25 76q0 52 -26 69q-2 -8 -10 -13.5t-19 -5.5q-14 0 -22 7t-8 17q0 11 9 18.5t25 7.5q28 0 49.5 -27t21.5 -73q0 -57 -30 -91t-75 -34v20z" />
    <glyph glyph-name="quotesinglbase" unicode="&#x201a;" horiz-adv-x="165" 
d="M30 -160q35 0 60 29t25 76q0 52 -26 69q-2 -8 -10 -13.5t-19 -5.5q-14 0 -22 7t-8 17q0 11 9 18.5t25 7.5q28 0 49.5 -27t21.5 -73q0 -57 -30 -91t-75 -34v20z" />
    <glyph glyph-name="quotedblleft" unicode="&#x201c;" horiz-adv-x="298" 
d="M51.5 527q-21.5 27 -21.5 73q0 57 30 91t75 34v-20q-35 0 -60 -29t-25 -76q0 -52 26 -69q2 8 10 13.5t19 5.5q14 0 22 -7t8 -17q0 -11 -9 -18.5t-25 -7.5q-28 0 -49.5 27zM184.5 527q-21.5 27 -21.5 73q0 57 30 91t75 34v-20q-35 0 -60 -29t-25 -76q0 -52 26 -69
q2 8 10 13.5t19 5.5q14 0 22 -7t8 -17q0 -11 -9 -18.5t-25 -7.5q-28 0 -49.5 27z" />
    <glyph glyph-name="quotedblright" unicode="&#x201d;" horiz-adv-x="298" 
d="M30 520q35 0 60 29t25 76q0 52 -26 69q-2 -8 -10 -13.5t-19 -5.5q-14 0 -22 7t-8 17q0 11 9 18.5t25 7.5q28 0 49.5 -27t21.5 -73q0 -57 -30 -91t-75 -34v20zM163 520q35 0 60 29t25 76q0 52 -26 69q-2 -8 -10 -13.5t-19 -5.5q-14 0 -22 7t-8 17q0 11 9 18.5t25 7.5
q28 0 49.5 -27t21.5 -73q0 -57 -30 -91t-75 -34v20z" />
    <glyph glyph-name="quotedblbase" unicode="&#x201e;" horiz-adv-x="298" 
d="M30 -160q35 0 60 29t25 76q0 52 -26 69q-2 -8 -10 -13.5t-19 -5.5q-14 0 -22 7t-8 17q0 11 9 18.5t25 7.5q28 0 49.5 -27t21.5 -73q0 -57 -30 -91t-75 -34v20zM163 -160q35 0 60 29t25 76q0 52 -26 69q-2 -8 -10 -13.5t-19 -5.5q-14 0 -22 7t-8 17q0 11 9 18.5t25 7.5
q28 0 49.5 -27t21.5 -73q0 -57 -30 -91t-75 -34v20z" />
    <glyph glyph-name="dagger" unicode="&#x2020;" horiz-adv-x="510" 
d="M265 -190h-20v665l-205 -5v25l205 -5v230h20v-230l205 5v-25l-205 5v-665z" />
    <glyph glyph-name="daggerdbl" unicode="&#x2021;" horiz-adv-x="510" 
d="M265 -190h-20v190l-165 -5v25l165 -5v460l-205 -5v25l205 -5v230h20v-230l205 5v-25l-205 5v-460l165 5v-25l-165 5v-190z" />
    <glyph glyph-name="bullet" unicode="&#x2022;" horiz-adv-x="330" 
d="M133 298q-13 13 -13 32t13 32t32 13t32 -13t13 -32t-13 -32t-32 -13t-32 13z" />
    <glyph glyph-name="ellipsis" unicode="&#x2026;" horiz-adv-x="450" 
d="M38.5 2.5q-8.5 7.5 -8.5 17.5t8.5 17.5t21.5 7.5t21.5 -7.5t8.5 -17.5t-8.5 -17.5t-21.5 -7.5t-21.5 7.5zM203.5 2.5q-8.5 7.5 -8.5 17.5t8.5 17.5t21.5 7.5t21.5 -7.5t8.5 -17.5t-8.5 -17.5t-21.5 -7.5t-21.5 7.5zM368.5 2.5q-8.5 7.5 -8.5 17.5t8.5 17.5t21.5 7.5
t21.5 -7.5t8.5 -17.5t-8.5 -17.5t-21.5 -7.5t-21.5 7.5z" />
    <glyph glyph-name="perthousand" unicode="&#x2030;" horiz-adv-x="1190" 
d="M125.5 429.5q-35.5 19.5 -55.5 54t-20 76.5t20 76.5t55.5 54t79.5 19.5t79.5 -19.5t55.5 -54t20 -76.5t-20 -76.5t-55.5 -54t-79.5 -19.5t-79.5 19.5zM205 0h-22l427 700h22zM301.5 467.5q38.5 37.5 38.5 92.5t-38.5 92.5t-96.5 37.5t-96.5 -37.5t-38.5 -92.5t38.5 -92.5
t96.5 -37.5t96.5 37.5zM515.5 9.5q-35.5 19.5 -55.5 54t-20 76.5t20 76.5t55.5 54t79.5 19.5t79.5 -19.5t55.5 -54t20 -76.5t-20 -76.5t-55.5 -54t-79.5 -19.5t-79.5 19.5zM905.5 9.5q-35.5 19.5 -55.5 54t-20 76.5t20 76.5t55.5 54t79.5 19.5t79.5 -19.5t55.5 -54t20 -76.5
t-20 -76.5t-55.5 -54t-79.5 -19.5t-79.5 19.5zM691.5 47.5q38.5 37.5 38.5 92.5t-38.5 92.5t-96.5 37.5t-96.5 -37.5t-38.5 -92.5t38.5 -92.5t96.5 -37.5t96.5 37.5zM1081.5 47.5q38.5 37.5 38.5 92.5t-38.5 92.5t-96.5 37.5t-96.5 -37.5t-38.5 -92.5t38.5 -92.5t96.5 -37.5
t96.5 37.5z" />
    <glyph glyph-name="guilsinglleft" unicode="&#x2039;" horiz-adv-x="300" 
d="M250 35h-25l-185 235l185 235h25l-185 -235z" />
    <glyph glyph-name="guilsinglright" unicode="&#x203a;" horiz-adv-x="300" 
d="M75 35h-25l185 235l-185 235h25l185 -235z" />
    <glyph glyph-name="fraction" unicode="&#x2044;" horiz-adv-x="173" 
d="M-93 0h-22l381 700h22z" />
    <glyph glyph-name="uni2070" unicode="&#x2070;" horiz-adv-x="420" 
d="M120.5 463.5q-39.5 23.5 -62.5 65.5t-23 96t23 96t62.5 65.5t89.5 23.5t89.5 -23.5t62.5 -65.5t23 -96t-23 -96t-62.5 -65.5t-89.5 -23.5t-89.5 23.5zM289 481q35 21 55.5 58.5t20.5 85.5t-20.5 85.5t-55.5 58.5t-79 21t-79 -21t-55.5 -58.5t-20.5 -85.5t20.5 -85.5
t55.5 -58.5t79 -21t79 21z" />
    <glyph glyph-name="uni2074" unicode="&#x2074;" horiz-adv-x="355" 
d="M270 450h-20v100h-230v25l215 225h26l-214 -225v-5h203v120h20v-120h75v-20h-75v-100z" />
    <glyph glyph-name="uni2075" unicode="&#x2075;" horiz-adv-x="365" 
d="M111.5 449q-35.5 9 -56.5 21v22q21 -12 56.5 -22t73.5 -10q61 0 95.5 25.5t34.5 59.5q0 35 -35 60t-100 25q-33 0 -60 -6t-40 -14l-15 10l10 180h235v-20h-216l-8 -146q13 6 38.5 11t55.5 5q75 0 115 -30.5t40 -74.5t-39.5 -74.5t-110.5 -30.5q-38 0 -73.5 9z" />
    <glyph glyph-name="uni2076" unicode="&#x2076;" horiz-adv-x="365" 
d="M65.5 469q-40.5 29 -40.5 71q0 16 6.5 31.5t26.5 38.5l162 190h25l-144 -169l3 -4q33 13 81 13q79 0 119.5 -29t40.5 -71t-40.5 -71t-119.5 -29t-119.5 29zM290 483.5q35 23.5 35 56.5t-35 56.5t-105 23.5t-105 -23.5t-35 -56.5t35 -56.5t105 -23.5t105 23.5z" />
    <glyph glyph-name="uni2077" unicode="&#x2077;" horiz-adv-x="315" 
d="M130 450h-21l167 330h-251v20h275v-15z" />
    <glyph glyph-name="uni2078" unicode="&#x2078;" horiz-adv-x="430" 
d="M91.5 468q-41.5 28 -41.5 67q0 28 22.5 50.5t67.5 31.5v5q-49 8 -74.5 32t-25.5 56q0 42 44 71t131 29t131 -29t44 -71q0 -32 -25.5 -56t-74.5 -32v-5q45 -9 67.5 -31.5t22.5 -50.5q0 -39 -41.5 -67t-123.5 -28t-123.5 28zM331.5 654q38.5 24 38.5 56t-38.5 56t-116.5 24
t-116.5 -24t-38.5 -56t38.5 -56t116.5 -24t116.5 24zM324 482.5q36 22.5 36 52.5t-36 52.5t-109 22.5t-109 -22.5t-36 -52.5t36 -52.5t109 -22.5t109 22.5z" />
    <glyph glyph-name="uni2079" unicode="&#x2079;" horiz-adv-x="400" 
d="M160 450l132 150l-3 4q-37 -14 -89 -14q-57 0 -96.5 15.5t-59 40.5t-19.5 54t19.5 54t59 40.5t96.5 15.5t96.5 -15.5t59 -40.5t19.5 -54q0 -17 -8 -34.5t-27 -39.5l-155 -176h-25zM286 623q35 13 52 33.5t17 43.5t-17 43.5t-52 33.5t-86 13t-86 -13t-52 -33.5t-17 -43.5
t17 -43.5t52 -33.5t86 -13t86 13z" />
    <glyph glyph-name="uni2080" unicode="&#x2080;" horiz-adv-x="420" 
d="M120.5 -86.5q-39.5 23.5 -62.5 65.5t-23 96t23 96t62.5 65.5t89.5 23.5t89.5 -23.5t62.5 -65.5t23 -96t-23 -96t-62.5 -65.5t-89.5 -23.5t-89.5 23.5zM289 -69q35 21 55.5 58.5t20.5 85.5t-20.5 85.5t-55.5 58.5t-79 21t-79 -21t-55.5 -58.5t-20.5 -85.5t20.5 -85.5
t55.5 -58.5t79 -21t79 21z" />
    <glyph glyph-name="uni2081" unicode="&#x2081;" horiz-adv-x="325" 
d="M55 -100v20h115v240h-115v20h75q23 0 31.5 9t8.5 31v30h20v-330h105v-20h-240z" />
    <glyph glyph-name="uni2082" unicode="&#x2082;" horiz-adv-x="365" 
d="M50 -100v25l130 89q73 50 96.5 80t23.5 61q0 38 -30 61.5t-90 23.5q-35 0 -72.5 -12t-62.5 -27v20q25 15 62.5 27t72.5 12q69 0 104.5 -29t35.5 -76q0 -37 -24.5 -69.5t-96.5 -82.5l-114 -78v-5h225v-20h-260z" />
    <glyph glyph-name="uni2083" unicode="&#x2083;" horiz-adv-x="365" 
d="M101.5 -101q-35.5 9 -56.5 21v22q21 -12 56.5 -22t73.5 -10q61 0 95.5 25.5t34.5 59.5q0 35 -35 60t-100 25q-38 0 -65 -10v25l154 131v4h-209v20h250v-15l-157 -133v-5q15 3 37 3q45 0 77.5 -15t50 -39t17.5 -51q0 -44 -39.5 -74.5t-110.5 -30.5q-38 0 -73.5 9z" />
    <glyph glyph-name="uni2084" unicode="&#x2084;" horiz-adv-x="355" 
d="M270 -100h-20v100h-230v25l215 225h26l-214 -225v-5h203v120h20v-120h75v-20h-75v-100z" />
    <glyph glyph-name="uni2085" unicode="&#x2085;" horiz-adv-x="365" 
d="M111.5 -101q-35.5 9 -56.5 21v22q21 -12 56.5 -22t73.5 -10q61 0 95.5 25.5t34.5 59.5q0 35 -35 60t-100 25q-33 0 -60 -6t-40 -14l-15 10l10 180h235v-20h-216l-8 -146q13 6 38.5 11t55.5 5q75 0 115 -30.5t40 -74.5t-39.5 -74.5t-110.5 -30.5q-38 0 -73.5 9z" />
    <glyph glyph-name="uni2086" unicode="&#x2086;" horiz-adv-x="365" 
d="M65.5 -81q-40.5 29 -40.5 71q0 16 6.5 31.5t26.5 38.5l162 190h25l-144 -169l3 -4q33 13 81 13q79 0 119.5 -29t40.5 -71t-40.5 -71t-119.5 -29t-119.5 29zM290 -66.5q35 23.5 35 56.5t-35 56.5t-105 23.5t-105 -23.5t-35 -56.5t35 -56.5t105 -23.5t105 23.5z" />
    <glyph glyph-name="uni2087" unicode="&#x2087;" horiz-adv-x="315" 
d="M130 -100h-21l167 330h-251v20h275v-15z" />
    <glyph glyph-name="uni2088" unicode="&#x2088;" horiz-adv-x="430" 
d="M91.5 -82q-41.5 28 -41.5 67q0 28 22.5 50.5t67.5 31.5v5q-49 8 -74.5 32t-25.5 56q0 42 44 71t131 29t131 -29t44 -71q0 -32 -25.5 -56t-74.5 -32v-5q45 -9 67.5 -31.5t22.5 -50.5q0 -39 -41.5 -67t-123.5 -28t-123.5 28zM331.5 104q38.5 24 38.5 56t-38.5 56t-116.5 24
t-116.5 -24t-38.5 -56t38.5 -56t116.5 -24t116.5 24zM324 -67.5q36 22.5 36 52.5t-36 52.5t-109 22.5t-109 -22.5t-36 -52.5t36 -52.5t109 -22.5t109 22.5z" />
    <glyph glyph-name="uni2089" unicode="&#x2089;" horiz-adv-x="400" 
d="M160 -100l132 150l-3 4q-37 -14 -89 -14q-57 0 -96.5 15.5t-59 40.5t-19.5 54t19.5 54t59 40.5t96.5 15.5t96.5 -15.5t59 -40.5t19.5 -54q0 -17 -8 -34.5t-27 -39.5l-155 -176h-25zM286 73q35 13 52 33.5t17 43.5t-17 43.5t-52 33.5t-86 13t-86 -13t-52 -33.5t-17 -43.5
t17 -43.5t52 -33.5t86 -13t86 13z" />
    <glyph glyph-name="uni20A9" unicode="&#x20a9;" horiz-adv-x="1075" 
d="M1035 445v-20h-126l-48 -150h174v-20h-180l-80 -255h-35l-75 255h-255l-75 -255h-35l-80 255h-180v20h174l-48 150h-126v20h120l-80 255h23l80 -255h262l75 255h35l75 -255h263l79 255h23l-80 -255h120zM540 680h-5l-69 -235h143zM439 425h-250l47 -150h159zM460 425
l-44 -150h243l-44 150h-155zM680 275h160l46 150h-250zM315 20h5l69 235h-147zM755 20h5l73 235h-147z" />
    <glyph glyph-name="Euro" unicode="&#x20ac;" horiz-adv-x="875" 
d="M339.5 658q-83.5 -32 -137.5 -88.5t-75 -129.5h458v-20h-463q-7 -32 -7 -70t7 -70h463v-20h-458q21 -73 73 -129.5t131.5 -88.5t178.5 -32q80 0 153.5 19.5t111.5 42.5v-24q-39 -22 -112 -40t-153 -18q-105 0 -189 34.5t-139 95.5t-76 140h-81v20h77q-7 32 -7 70t7 70
h-77v20h81q21 79 77.5 140t145 95.5t201.5 34.5q87 0 162 -23t113 -52v-24q-36 30 -110.5 54.5t-164.5 24.5q-107 0 -190.5 -32z" />
    <glyph glyph-name="uni20B4" unicode="&#x20b4;" horiz-adv-x="785" 
d="M730 415v-20h-680v20h576q22 18 38 45.5t16 59.5q0 39 -34.5 78.5t-102 65.5t-163.5 26q-95 0 -172 -24.5t-113 -54.5v24q38 29 115.5 52t169.5 23q102 0 174.5 -28.5t109 -72.5t36.5 -89q0 -33 -13.5 -60.5t-32.5 -44.5h76zM50 240v20h680v-20h-596q-12 -14 -20.5 -33.5
t-8.5 -41.5q0 -39 30.5 -74.5t94.5 -58t160 -22.5q82 0 156 21.5t114 48.5v-24q-40 -25 -114 -45.5t-156 -20.5q-102 0 -170.5 25t-101.5 65t-33 85q0 22 7.5 41.5t18.5 33.5h-61z" />
    <glyph glyph-name="uni20B8" unicode="&#x20b8;" horiz-adv-x="670" 
d="M25 680v20h620v-20h-620zM325 550h-300v20h620v-20h-300v-550h-20v550z" />
    <glyph glyph-name="uni20B9" unicode="&#x20b9;" horiz-adv-x="730" 
d="M490 680v-3q60 -24 91.5 -68t33.5 -104h65v-20h-65q-4 -90 -71 -142.5t-194 -52.5h-140v-3l375 -287h-35l-379 290h-91v20h270q118 0 179.5 47t65.5 128h-515v20h515q-4 81 -65.5 128t-179.5 47h-270v20h600v-20h-190z" />
    <glyph glyph-name="uni20BA" unicode="&#x20ba;" horiz-adv-x="630" 
d="M595 255q-8 -80 -47 -135.5t-132 -87.5t-255 -32h-21v259l-115 -44v20l115 44v130l-115 -44v20l115 44v271h20v-263l295 114v-20l-295 -114v-130l295 114v-20l-295 -114v-247q154 0 242.5 29.5t126.5 80.5t46 125h20z" />
    <glyph glyph-name="uni20BD" unicode="&#x20bd;" horiz-adv-x="805" 
d="M150 330v-145h400v-20h-400v-165h-20v165h-100v20h100v145h-100v20h100v350h375q119 0 182 -51.5t63 -133.5t-63 -133.5t-182 -51.5h-355zM150 680v-330h355q110 0 167.5 46t57.5 119t-57.5 119t-167.5 46h-355z" />
    <glyph glyph-name="uni20BF" unicode="&#x20bf;" horiz-adv-x="790" 
d="M550 345q65 -18 100 -63t35 -102q0 -73 -53.5 -122.5t-151.5 -56.5v-121h-20v120h-10h-180v-120h-20v120h-140v700h140v120h20v-120h190v120h20v-120q109 -5 167 -55t58 -125q0 -62 -41 -108.5t-114 -61.5v-5zM130 680v-320h330q110 0 167.5 45t57.5 115t-57.5 115
t-167.5 45h-330zM450 20q69 0 117.5 21t73 57.5t24.5 81.5t-24 81.5t-71.5 57.5t-114.5 21h-325v-320h320z" />
    <glyph glyph-name="uni2116" unicode="&#x2116;" horiz-adv-x="1270" 
d="M939 383q-42 23 -65.5 62.5t-23.5 89.5t23.5 89.5t65.5 62.5t96 23t96 -23t65.5 -62.5t23.5 -89.5t-23.5 -89.5t-65.5 -62.5t-96 -23t-96 23zM130 0h-20v700h35l560 -680h5v680h20v-700h-35l-560 680h-5v-680zM1120.5 400.5q37.5 20.5 58.5 55.5t21 79t-21 79t-58.5 55.5
t-85.5 20.5t-85.5 -20.5t-58.5 -55.5t-21 -79t21 -79t58.5 -55.5t85.5 -20.5t85.5 20.5zM1210 260h-350v20h350v-20z" />
    <glyph glyph-name="trademark" unicode="&#x2122;" horiz-adv-x="835" 
d="M155 370h-20v310h-125v20h270v-20h-125v-310zM390 370h-20v330h35l158 -295h4l158 295h35v-330h-20v306h-5l-170 -316l-170 316h-5v-306z" />
    <glyph glyph-name="uni2150" unicode="&#x2150;" horiz-adv-x="813" 
d="M55 350v20h115v240h-115v20h75q23 0 31.5 9t8.5 31v30h20v-330h105v-20h-240zM232 0h-22l381 700h22zM628 0h-21l167 330h-251v20h275v-15z" />
    <glyph glyph-name="uni2151" unicode="&#x2151;" horiz-adv-x="898" 
d="M55 350v20h115v240h-115v20h75q23 0 31.5 9t8.5 31v30h20v-330h105v-20h-240zM232 0h-22l381 700h22zM658 0l132 150l-3 4q-37 -14 -89 -14q-57 0 -96.5 15.5t-59 40.5t-19.5 54t19.5 54t59 40.5t96.5 15.5t96.5 -15.5t59 -40.5t19.5 -54q0 -17 -8 -34.5t-27 -39.5
l-155 -176h-25zM784 173q35 13 52 33.5t17 43.5t-17 43.5t-52 33.5t-86 13t-86 -13t-52 -33.5t-17 -43.5t17 -43.5t52 -33.5t86 -13t86 13z" />
    <glyph glyph-name="uni2153" unicode="&#x2153;" horiz-adv-x="863" 
d="M55 350v20h115v240h-115v20h75q23 0 31.5 9t8.5 31v30h20v-330h105v-20h-240zM232 0h-22l381 700h22zM599.5 -1q-35.5 9 -56.5 21v22q21 -12 56.5 -22t73.5 -10q61 0 95.5 25.5t34.5 59.5q0 35 -35 60t-100 25q-38 0 -65 -10v25l154 131v4h-209v20h250v-15l-157 -133v-5
q15 3 37 3q45 0 77.5 -15t50 -39t17.5 -51q0 -44 -39.5 -74.5t-110.5 -30.5q-38 0 -73.5 9z" />
    <glyph glyph-name="uni2154" unicode="&#x2154;" horiz-adv-x="903" 
d="M50 350v25l130 89q73 50 96.5 80t23.5 61q0 38 -30 61.5t-90 23.5q-35 0 -72.5 -12t-62.5 -27v20q25 15 62.5 27t72.5 12q69 0 104.5 -29t35.5 -76q0 -37 -24.5 -69.5t-96.5 -82.5l-114 -78v-5h225v-20h-260zM272 0h-22l381 700h22zM639.5 -1q-35.5 9 -56.5 21v22
q21 -12 56.5 -22t73.5 -10q61 0 95.5 25.5t34.5 59.5q0 35 -35 60t-100 25q-38 0 -65 -10v25l154 131v4h-209v20h250v-15l-157 -133v-5q15 3 37 3q45 0 77.5 -15t50 -39t17.5 -51q0 -44 -39.5 -74.5t-110.5 -30.5q-38 0 -73.5 9z" />
    <glyph glyph-name="uni2155" unicode="&#x2155;" horiz-adv-x="863" 
d="M55 350v20h115v240h-115v20h75q23 0 31.5 9t8.5 31v30h20v-330h105v-20h-240zM232 0h-22l381 700h22zM609.5 -1q-35.5 9 -56.5 21v22q21 -12 56.5 -22t73.5 -10q61 0 95.5 25.5t34.5 59.5q0 35 -35 60t-100 25q-33 0 -60 -6t-40 -14l-15 10l10 180h235v-20h-216l-8 -146
q13 6 38.5 11t55.5 5q75 0 115 -30.5t40 -74.5t-39.5 -74.5t-110.5 -30.5q-38 0 -73.5 9z" />
    <glyph glyph-name="uni2156" unicode="&#x2156;" horiz-adv-x="903" 
d="M50 350v25l130 89q73 50 96.5 80t23.5 61q0 38 -30 61.5t-90 23.5q-35 0 -72.5 -12t-62.5 -27v20q25 15 62.5 27t72.5 12q69 0 104.5 -29t35.5 -76q0 -37 -24.5 -69.5t-96.5 -82.5l-114 -78v-5h225v-20h-260zM272 0h-22l381 700h22zM649.5 -1q-35.5 9 -56.5 21v22
q21 -12 56.5 -22t73.5 -10q61 0 95.5 25.5t34.5 59.5q0 35 -35 60t-100 25q-33 0 -60 -6t-40 -14l-15 10l10 180h235v-20h-216l-8 -146q13 6 38.5 11t55.5 5q75 0 115 -30.5t40 -74.5t-39.5 -74.5t-110.5 -30.5q-38 0 -73.5 9z" />
    <glyph glyph-name="uni2157" unicode="&#x2157;" horiz-adv-x="903" 
d="M101.5 349q-35.5 9 -56.5 21v22q21 -12 56.5 -22t73.5 -10q61 0 95.5 25.5t34.5 59.5q0 35 -35 60t-100 25q-38 0 -65 -10v25l154 131v4h-209v20h250v-15l-157 -133v-5q15 3 37 3q45 0 77.5 -15t50 -39t17.5 -51q0 -44 -39.5 -74.5t-110.5 -30.5q-38 0 -73.5 9zM272 0
h-22l381 700h22zM649.5 -1q-35.5 9 -56.5 21v22q21 -12 56.5 -22t73.5 -10q61 0 95.5 25.5t34.5 59.5q0 35 -35 60t-100 25q-33 0 -60 -6t-40 -14l-15 10l10 180h235v-20h-216l-8 -146q13 6 38.5 11t55.5 5q75 0 115 -30.5t40 -74.5t-39.5 -74.5t-110.5 -30.5q-38 0 -73.5 9
z" />
    <glyph glyph-name="uni2158" unicode="&#x2158;" horiz-adv-x="893" 
d="M270 350h-20v100h-230v25l215 225h26l-214 -225v-5h203v120h20v-120h75v-20h-75v-100zM262 0h-22l381 700h22zM639.5 -1q-35.5 9 -56.5 21v22q21 -12 56.5 -22t73.5 -10q61 0 95.5 25.5t34.5 59.5q0 35 -35 60t-100 25q-33 0 -60 -6t-40 -14l-15 10l10 180h235v-20h-216
l-8 -146q13 6 38.5 11t55.5 5q75 0 115 -30.5t40 -74.5t-39.5 -74.5t-110.5 -30.5q-38 0 -73.5 9z" />
    <glyph glyph-name="uni2159" unicode="&#x2159;" horiz-adv-x="863" 
d="M55 350v20h115v240h-115v20h75q23 0 31.5 9t8.5 31v30h20v-330h105v-20h-240zM232 0h-22l381 700h22zM563.5 19q-40.5 29 -40.5 71q0 16 6.5 31.5t26.5 38.5l162 190h25l-144 -169l3 -4q33 13 81 13q79 0 119.5 -29t40.5 -71t-40.5 -71t-119.5 -29t-119.5 29zM788 33.5
q35 23.5 35 56.5t-35 56.5t-105 23.5t-105 -23.5t-35 -56.5t35 -56.5t105 -23.5t105 23.5z" />
    <glyph glyph-name="uni215A" unicode="&#x215a;" horiz-adv-x="903" 
d="M111.5 349q-35.5 9 -56.5 21v22q21 -12 56.5 -22t73.5 -10q61 0 95.5 25.5t34.5 59.5q0 35 -35 60t-100 25q-33 0 -60 -6t-40 -14l-15 10l10 180h235v-20h-216l-8 -146q13 6 38.5 11t55.5 5q75 0 115 -30.5t40 -74.5t-39.5 -74.5t-110.5 -30.5q-38 0 -73.5 9zM272 0h-22
l381 700h22zM603.5 19q-40.5 29 -40.5 71q0 16 6.5 31.5t26.5 38.5l162 190h25l-144 -169l3 -4q33 13 81 13q79 0 119.5 -29t40.5 -71t-40.5 -71t-119.5 -29t-119.5 29zM828 33.5q35 23.5 35 56.5t-35 56.5t-105 23.5t-105 -23.5t-35 -56.5t35 -56.5t105 -23.5t105 23.5z
" />
    <glyph glyph-name="oneeighth" unicode="&#x215b;" horiz-adv-x="928" 
d="M55 350v20h115v240h-115v20h75q23 0 31.5 9t8.5 31v30h20v-330h105v-20h-240zM232 0h-22l381 700h22zM589.5 18q-41.5 28 -41.5 67q0 28 22.5 50.5t67.5 31.5v5q-49 8 -74.5 32t-25.5 56q0 42 44 71t131 29t131 -29t44 -71q0 -32 -25.5 -56t-74.5 -32v-5
q45 -9 67.5 -31.5t22.5 -50.5q0 -39 -41.5 -67t-123.5 -28t-123.5 28zM829.5 204q38.5 24 38.5 56t-38.5 56t-116.5 24t-116.5 -24t-38.5 -56t38.5 -56t116.5 -24t116.5 24zM822 32.5q36 22.5 36 52.5t-36 52.5t-109 22.5t-109 -22.5t-36 -52.5t36 -52.5t109 -22.5t109 22.5
z" />
    <glyph glyph-name="threeeighths" unicode="&#x215c;" horiz-adv-x="968" 
d="M101.5 349q-35.5 9 -56.5 21v22q21 -12 56.5 -22t73.5 -10q61 0 95.5 25.5t34.5 59.5q0 35 -35 60t-100 25q-38 0 -65 -10v25l154 131v4h-209v20h250v-15l-157 -133v-5q15 3 37 3q45 0 77.5 -15t50 -39t17.5 -51q0 -44 -39.5 -74.5t-110.5 -30.5q-38 0 -73.5 9zM272 0
h-22l381 700h22zM629.5 18q-41.5 28 -41.5 67q0 28 22.5 50.5t67.5 31.5v5q-49 8 -74.5 32t-25.5 56q0 42 44 71t131 29t131 -29t44 -71q0 -32 -25.5 -56t-74.5 -32v-5q45 -9 67.5 -31.5t22.5 -50.5q0 -39 -41.5 -67t-123.5 -28t-123.5 28zM869.5 204q38.5 24 38.5 56
t-38.5 56t-116.5 24t-116.5 -24t-38.5 -56t38.5 -56t116.5 -24t116.5 24zM862 32.5q36 22.5 36 52.5t-36 52.5t-109 22.5t-109 -22.5t-36 -52.5t36 -52.5t109 -22.5t109 22.5z" />
    <glyph glyph-name="fiveeighths" unicode="&#x215d;" horiz-adv-x="968" 
d="M111.5 349q-35.5 9 -56.5 21v22q21 -12 56.5 -22t73.5 -10q61 0 95.5 25.5t34.5 59.5q0 35 -35 60t-100 25q-33 0 -60 -6t-40 -14l-15 10l10 180h235v-20h-216l-8 -146q13 6 38.5 11t55.5 5q75 0 115 -30.5t40 -74.5t-39.5 -74.5t-110.5 -30.5q-38 0 -73.5 9zM272 0h-22
l381 700h22zM629.5 18q-41.5 28 -41.5 67q0 28 22.5 50.5t67.5 31.5v5q-49 8 -74.5 32t-25.5 56q0 42 44 71t131 29t131 -29t44 -71q0 -32 -25.5 -56t-74.5 -32v-5q45 -9 67.5 -31.5t22.5 -50.5q0 -39 -41.5 -67t-123.5 -28t-123.5 28zM869.5 204q38.5 24 38.5 56t-38.5 56
t-116.5 24t-116.5 -24t-38.5 -56t38.5 -56t116.5 -24t116.5 24zM862 32.5q36 22.5 36 52.5t-36 52.5t-109 22.5t-109 -22.5t-36 -52.5t36 -52.5t109 -22.5t109 22.5z" />
    <glyph glyph-name="seveneighths" unicode="&#x215e;" horiz-adv-x="918" 
d="M130 350h-21l167 330h-251v20h275v-15zM222 0h-22l381 700h22zM579.5 18q-41.5 28 -41.5 67q0 28 22.5 50.5t67.5 31.5v5q-49 8 -74.5 32t-25.5 56q0 42 44 71t131 29t131 -29t44 -71q0 -32 -25.5 -56t-74.5 -32v-5q45 -9 67.5 -31.5t22.5 -50.5q0 -39 -41.5 -67
t-123.5 -28t-123.5 28zM819.5 204q38.5 24 38.5 56t-38.5 56t-116.5 24t-116.5 -24t-38.5 -56t38.5 -56t116.5 -24t116.5 24zM812 32.5q36 22.5 36 52.5t-36 52.5t-109 22.5t-109 -22.5t-36 -52.5t36 -52.5t109 -22.5t109 22.5z" />
    <glyph glyph-name="uni215F" unicode="&#x215f;" horiz-adv-x="498" 
d="M55 350v20h115v240h-115v20h75q23 0 31.5 9t8.5 31v30h20v-330h105v-20h-240zM232 0h-22l381 700h22z" />
    <glyph glyph-name="arrowleft" unicode="&#x2190;" horiz-adv-x="970" 
d="M396 121l-13 -13l-243 227l242 227l13 -13l-213 -201v-3h648v-20h-648v-3z" />
    <glyph glyph-name="arrowup" unicode="&#x2191;" horiz-adv-x="969" 
d="M494 0h-20v658h-3l-200 -214l-14 13l227 243l228 -242l-14 -13l-201 213h-3v-658z" />
    <glyph glyph-name="arrowright" unicode="&#x2192;" horiz-adv-x="970" 
d="M830 335l-243 -227l-13 13l214 201v3h-648v20h648v3l-213 201l13 13z" />
    <glyph glyph-name="arrowdown" unicode="&#x2193;" horiz-adv-x="969" 
d="M712 242l-228 -242l-227 243l14 13l200 -214h3v658h20v-658h3l201 213z" />
    <glyph glyph-name="arrowboth" unicode="&#x2194;" horiz-adv-x="1000" 
d="M361 121l-13 -13l-243 227l242 227l13 -13l-213 -201v-3h706v3l-213 201l13 13l242 -227l-243 -227l-13 13l214 201v3h-706v-3z" />
    <glyph glyph-name="arrowupdn" unicode="&#x2195;" horiz-adv-x="968" 
d="M711 197l-227 -242l-227 243l13 13l201 -214h3v706h-3l-201 -214l-13 13l227 243l227 -242l-13 -13l-201 213h-3v-706h3l201 213z" />
    <glyph glyph-name="uni2196" unicode="&#x2196;" horiz-adv-x="1000" 
d="M750 102l-14 -14l-464 457l-2 -1v-294h-20v332h332v-20h-295l-1 -2z" />
    <glyph glyph-name="uni2197" unicode="&#x2197;" horiz-adv-x="1000" 
d="M728 545l-464 -457l-14 14l464 458l-1 2h-295v20h332v-332h-20v294z" />
    <glyph glyph-name="uni2198" unicode="&#x2198;" horiz-adv-x="1000" 
d="M750 88h-332v20h295l1 2l-464 458l14 14l464 -457l2 1v294h20v-332z" />
    <glyph glyph-name="uni2199" unicode="&#x2199;" horiz-adv-x="1000" 
d="M582 88h-332v332h20v-294l2 -1l464 457l14 -14l-464 -458l1 -2h295v-20z" />
    <glyph glyph-name="minus" unicode="&#x2212;" horiz-adv-x="600" 
d="M540 300h-480v20h480v-20z" />
    <glyph glyph-name="approxequal" unicode="&#x2248;" horiz-adv-x="590" 
d="M65 385q0 40 27 65t73 25q36 0 66.5 -12t71.5 -35q38 -21 65 -32t57 -11q37 0 58.5 19.5t21.5 50.5v5h20v-5q0 -40 -27 -65t-73 -25q-36 0 -66.5 12t-71.5 35q-38 21 -65 32t-57 11q-37 0 -58.5 -19.5t-21.5 -50.5v-5h-20v5zM65 155q0 40 27 65t73 25q36 0 66.5 -12
t71.5 -35q38 -21 65 -32t57 -11q37 0 58.5 19.5t21.5 50.5v5h20v-5q0 -40 -27 -65t-73 -25q-36 0 -66.5 12t-71.5 35q-38 21 -65 32t-57 11q-37 0 -58.5 -19.5t-21.5 -50.5v-5h-20v5z" />
    <glyph glyph-name="notequal" unicode="&#x2260;" horiz-adv-x="600" 
d="M535 430v-20h-177l-94 -200h271v-20h-281l-68 -145h-22l68 145h-167v20h177l94 200h-271v20h281l68 145h22l-68 -145h167z" />
    <glyph glyph-name="lessequal" unicode="&#x2264;" horiz-adv-x="615" 
d="M550 171v-21l-485 185v30l485 185v-21l-462 -176v-6zM550 0h-485v20h485v-20z" />
    <glyph glyph-name="greaterequal" unicode="&#x2265;" horiz-adv-x="615" 
d="M550 335l-485 -185v21l462 176v6l-462 176v21l485 -185v-30zM550 20v-20h-485v20h485z" />
    <glyph glyph-name="uni2460" unicode="&#x2460;" horiz-adv-x="1050" 
d="M292 -2q-101 53 -156.5 145.5t-55.5 206.5t55.5 206.5t156.5 145.5t233 53t233 -53t156.5 -145.5t55.5 -206.5t-55.5 -206.5t-156.5 -145.5t-233 -53t-233 53zM747.5 15.5q96.5 50.5 149.5 138.5t53 196t-53 196t-149.5 138.5t-222.5 50.5t-222.5 -50.5t-149.5 -138.5
t-53 -196t53 -196t149.5 -138.5t222.5 -50.5t222.5 50.5zM415 175v20h115v240h-115v20h75q23 0 31.5 9t8.5 31v30h20v-330h105v-20h-240z" />
    <glyph glyph-name="uni2461" unicode="&#x2461;" horiz-adv-x="1050" 
d="M292 -2q-101 53 -156.5 145.5t-55.5 206.5t55.5 206.5t156.5 145.5t233 53t233 -53t156.5 -145.5t55.5 -206.5t-55.5 -206.5t-156.5 -145.5t-233 -53t-233 53zM747.5 15.5q96.5 50.5 149.5 138.5t53 196t-53 196t-149.5 138.5t-222.5 50.5t-222.5 -50.5t-149.5 -138.5
t-53 -196t53 -196t149.5 -138.5t222.5 -50.5t222.5 50.5zM400 175v25l130 89q73 50 96.5 80t23.5 61q0 38 -30 61.5t-90 23.5q-35 0 -72.5 -12t-62.5 -27v20q25 15 62.5 27t72.5 12q69 0 104.5 -29t35.5 -76q0 -37 -24.5 -69.5t-96.5 -82.5l-114 -78v-5h225v-20h-260z" />
    <glyph glyph-name="uni2462" unicode="&#x2462;" horiz-adv-x="1050" 
d="M292 -2q-101 53 -156.5 145.5t-55.5 206.5t55.5 206.5t156.5 145.5t233 53t233 -53t156.5 -145.5t55.5 -206.5t-55.5 -206.5t-156.5 -145.5t-233 -53t-233 53zM747.5 15.5q96.5 50.5 149.5 138.5t53 196t-53 196t-149.5 138.5t-222.5 50.5t-222.5 -50.5t-149.5 -138.5
t-53 -196t53 -196t149.5 -138.5t222.5 -50.5t222.5 50.5zM451.5 174q-35.5 9 -56.5 21v22q21 -12 56.5 -22t73.5 -10q61 0 95.5 25.5t34.5 59.5q0 35 -35 60t-100 25q-38 0 -65 -10v25l154 131v4h-209v20h250v-15l-157 -133v-5q15 3 37 3q45 0 77.5 -15t50 -39t17.5 -51
q0 -44 -39.5 -74.5t-110.5 -30.5q-38 0 -73.5 9z" />
    <glyph glyph-name="uni2463" unicode="&#x2463;" horiz-adv-x="1050" 
d="M292 -2q-101 53 -156.5 145.5t-55.5 206.5t55.5 206.5t156.5 145.5t233 53t233 -53t156.5 -145.5t55.5 -206.5t-55.5 -206.5t-156.5 -145.5t-233 -53t-233 53zM747.5 15.5q96.5 50.5 149.5 138.5t53 196t-53 196t-149.5 138.5t-222.5 50.5t-222.5 -50.5t-149.5 -138.5
t-53 -196t53 -196t149.5 -138.5t222.5 -50.5t222.5 50.5zM590 175h-20v100h-230v25l215 225h26l-214 -225v-5h203v120h20v-120h75v-20h-75v-100z" />
    <glyph glyph-name="uni2464" unicode="&#x2464;" horiz-adv-x="1050" 
d="M292 -2q-101 53 -156.5 145.5t-55.5 206.5t55.5 206.5t156.5 145.5t233 53t233 -53t156.5 -145.5t55.5 -206.5t-55.5 -206.5t-156.5 -145.5t-233 -53t-233 53zM747.5 15.5q96.5 50.5 149.5 138.5t53 196t-53 196t-149.5 138.5t-222.5 50.5t-222.5 -50.5t-149.5 -138.5
t-53 -196t53 -196t149.5 -138.5t222.5 -50.5t222.5 50.5zM451.5 174q-35.5 9 -56.5 21v22q21 -12 56.5 -22t73.5 -10q61 0 95.5 25.5t34.5 59.5q0 35 -35 60t-100 25q-33 0 -60 -6t-40 -14l-15 10l10 180h235v-20h-216l-8 -146q13 6 38.5 11t55.5 5q75 0 115 -30.5t40 -74.5
t-39.5 -74.5t-110.5 -30.5q-38 0 -73.5 9z" />
    <glyph glyph-name="uni2465" unicode="&#x2465;" horiz-adv-x="1050" 
d="M292 -2q-101 53 -156.5 145.5t-55.5 206.5t55.5 206.5t156.5 145.5t233 53t233 -53t156.5 -145.5t55.5 -206.5t-55.5 -206.5t-156.5 -145.5t-233 -53t-233 53zM747.5 15.5q96.5 50.5 149.5 138.5t53 196t-53 196t-149.5 138.5t-222.5 50.5t-222.5 -50.5t-149.5 -138.5
t-53 -196t53 -196t149.5 -138.5t222.5 -50.5t222.5 50.5zM405.5 194q-40.5 29 -40.5 71q0 16 6.5 31.5t26.5 38.5l162 190h25l-144 -169l3 -4q33 13 81 13q79 0 119.5 -29t40.5 -71t-40.5 -71t-119.5 -29t-119.5 29zM630 208.5q35 23.5 35 56.5t-35 56.5t-105 23.5
t-105 -23.5t-35 -56.5t35 -56.5t105 -23.5t105 23.5z" />
    <glyph glyph-name="uni2466" unicode="&#x2466;" horiz-adv-x="1050" 
d="M292 -2q-101 53 -156.5 145.5t-55.5 206.5t55.5 206.5t156.5 145.5t233 53t233 -53t156.5 -145.5t55.5 -206.5t-55.5 -206.5t-156.5 -145.5t-233 -53t-233 53zM747.5 15.5q96.5 50.5 149.5 138.5t53 196t-53 196t-149.5 138.5t-222.5 50.5t-222.5 -50.5t-149.5 -138.5
t-53 -196t53 -196t149.5 -138.5t222.5 -50.5t222.5 50.5zM485 175h-21l167 330h-251v20h275v-15z" />
    <glyph glyph-name="uni2467" unicode="&#x2467;" horiz-adv-x="1050" 
d="M292 -2q-101 53 -156.5 145.5t-55.5 206.5t55.5 206.5t156.5 145.5t233 53t233 -53t156.5 -145.5t55.5 -206.5t-55.5 -206.5t-156.5 -145.5t-233 -53t-233 53zM747.5 15.5q96.5 50.5 149.5 138.5t53 196t-53 196t-149.5 138.5t-222.5 50.5t-222.5 -50.5t-149.5 -138.5
t-53 -196t53 -196t149.5 -138.5t222.5 -50.5t222.5 50.5zM401.5 193q-41.5 28 -41.5 67q0 28 22.5 50.5t67.5 31.5v5q-49 8 -74.5 32t-25.5 56q0 42 44 71t131 29t131 -29t44 -71q0 -32 -25.5 -56t-74.5 -32v-5q45 -9 67.5 -31.5t22.5 -50.5q0 -39 -41.5 -67t-123.5 -28
t-123.5 28zM641.5 379q38.5 24 38.5 56t-38.5 56t-116.5 24t-116.5 -24t-38.5 -56t38.5 -56t116.5 -24t116.5 24zM634 207.5q36 22.5 36 52.5t-36 52.5t-109 22.5t-109 -22.5t-36 -52.5t36 -52.5t109 -22.5t109 22.5z" />
    <glyph glyph-name="uni2468" unicode="&#x2468;" horiz-adv-x="1050" 
d="M292 -2q-101 53 -156.5 145.5t-55.5 206.5t55.5 206.5t156.5 145.5t233 53t233 -53t156.5 -145.5t55.5 -206.5t-55.5 -206.5t-156.5 -145.5t-233 -53t-233 53zM747.5 15.5q96.5 50.5 149.5 138.5t53 196t-53 196t-149.5 138.5t-222.5 50.5t-222.5 -50.5t-149.5 -138.5
t-53 -196t53 -196t149.5 -138.5t222.5 -50.5t222.5 50.5zM485 175l132 150l-3 4q-37 -14 -89 -14q-57 0 -96.5 15.5t-59 40.5t-19.5 54t19.5 54t59 40.5t96.5 15.5t96.5 -15.5t59 -40.5t19.5 -54q0 -17 -8 -34.5t-27 -39.5l-155 -176h-25zM611 348q35 13 52 33.5t17 43.5
t-17 43.5t-52 33.5t-86 13t-86 -13t-52 -33.5t-17 -43.5t17 -43.5t52 -33.5t86 -13t86 13z" />
    <glyph glyph-name="uni2469" unicode="&#x2469;" horiz-adv-x="1050" 
d="M292 -2q-101 53 -156.5 145.5t-55.5 206.5t55.5 206.5t156.5 145.5t233 53t233 -53t156.5 -145.5t55.5 -206.5t-55.5 -206.5t-156.5 -145.5t-233 -53t-233 53zM747.5 15.5q96.5 50.5 149.5 138.5t53 196t-53 196t-149.5 138.5t-222.5 50.5t-222.5 -50.5t-149.5 -138.5
t-53 -196t53 -196t149.5 -138.5t222.5 -50.5t222.5 50.5zM570.5 188.5q-39.5 23.5 -62.5 65.5t-23 96t23 96t62.5 65.5t89.5 23.5t89.5 -23.5t62.5 -65.5t23 -96t-23 -96t-62.5 -65.5t-89.5 -23.5t-89.5 23.5zM240 175v20h115v240h-115v20h75q23 0 31.5 9t8.5 31v30h20v-330
h105v-20h-240zM739 206q35 21 55.5 58.5t20.5 85.5t-20.5 85.5t-55.5 58.5t-79 21t-79 -21t-55.5 -58.5t-20.5 -85.5t20.5 -85.5t55.5 -58.5t79 -21t79 21z" />
    <glyph glyph-name="uni24EA" unicode="&#x24ea;" horiz-adv-x="1050" 
d="M292 -2q-101 53 -156.5 145.5t-55.5 206.5t55.5 206.5t156.5 145.5t233 53t233 -53t156.5 -145.5t55.5 -206.5t-55.5 -206.5t-156.5 -145.5t-233 -53t-233 53zM747.5 15.5q96.5 50.5 149.5 138.5t53 196t-53 196t-149.5 138.5t-222.5 50.5t-222.5 -50.5t-149.5 -138.5
t-53 -196t53 -196t149.5 -138.5t222.5 -50.5t222.5 50.5zM436.5 188.5q-39.5 23.5 -62.5 65.5t-23 96t23 96t62.5 65.5t89.5 23.5t89.5 -23.5t62.5 -65.5t23 -96t-23 -96t-62.5 -65.5t-89.5 -23.5t-89.5 23.5zM605 206q35 21 55.5 58.5t20.5 85.5t-20.5 85.5t-55.5 58.5
t-79 21t-79 -21t-55.5 -58.5t-20.5 -85.5t20.5 -85.5t55.5 -58.5t79 -21t79 21z" />
    <glyph glyph-name="uni24F5" unicode="&#x24f5;" horiz-adv-x="1090" 
d="M302 -19.5q-106 55.5 -164 152.5t-58 217t58 217t164 152.5t243 55.5t243 -55.5t164 -152.5t58 -217t-58 -217t-164 -152.5t-243 -55.5t-243 55.5zM777.5 -2q101.5 53 157 145.5t55.5 206.5t-55.5 206.5t-157 145.5t-232.5 53t-232.5 -53t-157 -145.5t-55.5 -206.5
t55.5 -206.5t157 -145.5t232.5 -53t232.5 53zM323.5 16q-96.5 51 -150 139t-53.5 195t53.5 195t150 139t221.5 51t221.5 -51t150 -139t53.5 -195t-53.5 -195t-150 -139t-221.5 -51t-221.5 51zM756 33.5q92 48.5 143 132t51 184.5t-51 184.5t-143 132t-211 48.5t-211 -48.5
t-143 -132t-51 -184.5t51 -184.5t143 -132t211 -48.5t211 48.5zM435 175v20h115v240h-115v20h75q23 0 31.5 9t8.5 31v30h20v-330h105v-20h-240z" />
    <glyph glyph-name="uni24F6" unicode="&#x24f6;" horiz-adv-x="1090" 
d="M302 -19.5q-106 55.5 -164 152.5t-58 217t58 217t164 152.5t243 55.5t243 -55.5t164 -152.5t58 -217t-58 -217t-164 -152.5t-243 -55.5t-243 55.5zM777.5 -2q101.5 53 157 145.5t55.5 206.5t-55.5 206.5t-157 145.5t-232.5 53t-232.5 -53t-157 -145.5t-55.5 -206.5
t55.5 -206.5t157 -145.5t232.5 -53t232.5 53zM323.5 16q-96.5 51 -150 139t-53.5 195t53.5 195t150 139t221.5 51t221.5 -51t150 -139t53.5 -195t-53.5 -195t-150 -139t-221.5 -51t-221.5 51zM756 33.5q92 48.5 143 132t51 184.5t-51 184.5t-143 132t-211 48.5t-211 -48.5
t-143 -132t-51 -184.5t51 -184.5t143 -132t211 -48.5t211 48.5zM420 175v25l130 89q73 50 96.5 80t23.5 61q0 38 -30 61.5t-90 23.5q-35 0 -72.5 -12t-62.5 -27v20q25 15 62.5 27t72.5 12q69 0 104.5 -29t35.5 -76q0 -37 -24.5 -69.5t-96.5 -82.5l-114 -78v-5h225v-20h-260z
" />
    <glyph glyph-name="uni24F7" unicode="&#x24f7;" horiz-adv-x="1090" 
d="M302 -19.5q-106 55.5 -164 152.5t-58 217t58 217t164 152.5t243 55.5t243 -55.5t164 -152.5t58 -217t-58 -217t-164 -152.5t-243 -55.5t-243 55.5zM777.5 -2q101.5 53 157 145.5t55.5 206.5t-55.5 206.5t-157 145.5t-232.5 53t-232.5 -53t-157 -145.5t-55.5 -206.5
t55.5 -206.5t157 -145.5t232.5 -53t232.5 53zM323.5 16q-96.5 51 -150 139t-53.5 195t53.5 195t150 139t221.5 51t221.5 -51t150 -139t53.5 -195t-53.5 -195t-150 -139t-221.5 -51t-221.5 51zM756 33.5q92 48.5 143 132t51 184.5t-51 184.5t-143 132t-211 48.5t-211 -48.5
t-143 -132t-51 -184.5t51 -184.5t143 -132t211 -48.5t211 48.5zM471.5 174q-35.5 9 -56.5 21v22q21 -12 56.5 -22t73.5 -10q61 0 95.5 25.5t34.5 59.5q0 35 -35 60t-100 25q-38 0 -65 -10v25l154 131v4h-209v20h250v-15l-157 -133v-5q15 3 37 3q45 0 77.5 -15t50 -39
t17.5 -51q0 -44 -39.5 -74.5t-110.5 -30.5q-38 0 -73.5 9z" />
    <glyph glyph-name="uni24F8" unicode="&#x24f8;" horiz-adv-x="1090" 
d="M302 -19.5q-106 55.5 -164 152.5t-58 217t58 217t164 152.5t243 55.5t243 -55.5t164 -152.5t58 -217t-58 -217t-164 -152.5t-243 -55.5t-243 55.5zM777.5 -2q101.5 53 157 145.5t55.5 206.5t-55.5 206.5t-157 145.5t-232.5 53t-232.5 -53t-157 -145.5t-55.5 -206.5
t55.5 -206.5t157 -145.5t232.5 -53t232.5 53zM323.5 16q-96.5 51 -150 139t-53.5 195t53.5 195t150 139t221.5 51t221.5 -51t150 -139t53.5 -195t-53.5 -195t-150 -139t-221.5 -51t-221.5 51zM756 33.5q92 48.5 143 132t51 184.5t-51 184.5t-143 132t-211 48.5t-211 -48.5
t-143 -132t-51 -184.5t51 -184.5t143 -132t211 -48.5t211 48.5zM610 175h-20v100h-230v25l215 225h26l-214 -225v-5h203v120h20v-120h75v-20h-75v-100z" />
    <glyph glyph-name="uni24F9" unicode="&#x24f9;" horiz-adv-x="1090" 
d="M302 -19.5q-106 55.5 -164 152.5t-58 217t58 217t164 152.5t243 55.5t243 -55.5t164 -152.5t58 -217t-58 -217t-164 -152.5t-243 -55.5t-243 55.5zM777.5 -2q101.5 53 157 145.5t55.5 206.5t-55.5 206.5t-157 145.5t-232.5 53t-232.5 -53t-157 -145.5t-55.5 -206.5
t55.5 -206.5t157 -145.5t232.5 -53t232.5 53zM323.5 16q-96.5 51 -150 139t-53.5 195t53.5 195t150 139t221.5 51t221.5 -51t150 -139t53.5 -195t-53.5 -195t-150 -139t-221.5 -51t-221.5 51zM756 33.5q92 48.5 143 132t51 184.5t-51 184.5t-143 132t-211 48.5t-211 -48.5
t-143 -132t-51 -184.5t51 -184.5t143 -132t211 -48.5t211 48.5zM471.5 174q-35.5 9 -56.5 21v22q21 -12 56.5 -22t73.5 -10q61 0 95.5 25.5t34.5 59.5q0 35 -35 60t-100 25q-33 0 -60 -6t-40 -14l-15 10l10 180h235v-20h-216l-8 -146q13 6 38.5 11t55.5 5q75 0 115 -30.5
t40 -74.5t-39.5 -74.5t-110.5 -30.5q-38 0 -73.5 9z" />
    <glyph glyph-name="uni24FA" unicode="&#x24fa;" horiz-adv-x="1090" 
d="M302 -19.5q-106 55.5 -164 152.5t-58 217t58 217t164 152.5t243 55.5t243 -55.5t164 -152.5t58 -217t-58 -217t-164 -152.5t-243 -55.5t-243 55.5zM777.5 -2q101.5 53 157 145.5t55.5 206.5t-55.5 206.5t-157 145.5t-232.5 53t-232.5 -53t-157 -145.5t-55.5 -206.5
t55.5 -206.5t157 -145.5t232.5 -53t232.5 53zM323.5 16q-96.5 51 -150 139t-53.5 195t53.5 195t150 139t221.5 51t221.5 -51t150 -139t53.5 -195t-53.5 -195t-150 -139t-221.5 -51t-221.5 51zM756 33.5q92 48.5 143 132t51 184.5t-51 184.5t-143 132t-211 48.5t-211 -48.5
t-143 -132t-51 -184.5t51 -184.5t143 -132t211 -48.5t211 48.5zM425.5 194q-40.5 29 -40.5 71q0 16 6.5 31.5t26.5 38.5l162 190h25l-144 -169l3 -4q33 13 81 13q79 0 119.5 -29t40.5 -71t-40.5 -71t-119.5 -29t-119.5 29zM650 208.5q35 23.5 35 56.5t-35 56.5t-105 23.5
t-105 -23.5t-35 -56.5t35 -56.5t105 -23.5t105 23.5z" />
    <glyph glyph-name="uni24FB" unicode="&#x24fb;" horiz-adv-x="1090" 
d="M302 -19.5q-106 55.5 -164 152.5t-58 217t58 217t164 152.5t243 55.5t243 -55.5t164 -152.5t58 -217t-58 -217t-164 -152.5t-243 -55.5t-243 55.5zM777.5 -2q101.5 53 157 145.5t55.5 206.5t-55.5 206.5t-157 145.5t-232.5 53t-232.5 -53t-157 -145.5t-55.5 -206.5
t55.5 -206.5t157 -145.5t232.5 -53t232.5 53zM323.5 16q-96.5 51 -150 139t-53.5 195t53.5 195t150 139t221.5 51t221.5 -51t150 -139t53.5 -195t-53.5 -195t-150 -139t-221.5 -51t-221.5 51zM756 33.5q92 48.5 143 132t51 184.5t-51 184.5t-143 132t-211 48.5t-211 -48.5
t-143 -132t-51 -184.5t51 -184.5t143 -132t211 -48.5t211 48.5zM505 175h-21l167 330h-251v20h275v-15z" />
    <glyph glyph-name="uni24FC" unicode="&#x24fc;" horiz-adv-x="1090" 
d="M302 -19.5q-106 55.5 -164 152.5t-58 217t58 217t164 152.5t243 55.5t243 -55.5t164 -152.5t58 -217t-58 -217t-164 -152.5t-243 -55.5t-243 55.5zM777.5 -2q101.5 53 157 145.5t55.5 206.5t-55.5 206.5t-157 145.5t-232.5 53t-232.5 -53t-157 -145.5t-55.5 -206.5
t55.5 -206.5t157 -145.5t232.5 -53t232.5 53zM323.5 16q-96.5 51 -150 139t-53.5 195t53.5 195t150 139t221.5 51t221.5 -51t150 -139t53.5 -195t-53.5 -195t-150 -139t-221.5 -51t-221.5 51zM756 33.5q92 48.5 143 132t51 184.5t-51 184.5t-143 132t-211 48.5t-211 -48.5
t-143 -132t-51 -184.5t51 -184.5t143 -132t211 -48.5t211 48.5zM421.5 193q-41.5 28 -41.5 67q0 28 22.5 50.5t67.5 31.5v5q-49 8 -74.5 32t-25.5 56q0 42 44 71t131 29t131 -29t44 -71q0 -32 -25.5 -56t-74.5 -32v-5q45 -9 67.5 -31.5t22.5 -50.5q0 -39 -41.5 -67
t-123.5 -28t-123.5 28zM661.5 379q38.5 24 38.5 56t-38.5 56t-116.5 24t-116.5 -24t-38.5 -56t38.5 -56t116.5 -24t116.5 24zM654 207.5q36 22.5 36 52.5t-36 52.5t-109 22.5t-109 -22.5t-36 -52.5t36 -52.5t109 -22.5t109 22.5z" />
    <glyph glyph-name="uni24FD" unicode="&#x24fd;" horiz-adv-x="1090" 
d="M302 -19.5q-106 55.5 -164 152.5t-58 217t58 217t164 152.5t243 55.5t243 -55.5t164 -152.5t58 -217t-58 -217t-164 -152.5t-243 -55.5t-243 55.5zM777.5 -2q101.5 53 157 145.5t55.5 206.5t-55.5 206.5t-157 145.5t-232.5 53t-232.5 -53t-157 -145.5t-55.5 -206.5
t55.5 -206.5t157 -145.5t232.5 -53t232.5 53zM323.5 16q-96.5 51 -150 139t-53.5 195t53.5 195t150 139t221.5 51t221.5 -51t150 -139t53.5 -195t-53.5 -195t-150 -139t-221.5 -51t-221.5 51zM756 33.5q92 48.5 143 132t51 184.5t-51 184.5t-143 132t-211 48.5t-211 -48.5
t-143 -132t-51 -184.5t51 -184.5t143 -132t211 -48.5t211 48.5zM505 175l132 150l-3 4q-37 -14 -89 -14q-57 0 -96.5 15.5t-59 40.5t-19.5 54t19.5 54t59 40.5t96.5 15.5t96.5 -15.5t59 -40.5t19.5 -54q0 -17 -8 -34.5t-27 -39.5l-155 -176h-25zM631 348q35 13 52 33.5
t17 43.5t-17 43.5t-52 33.5t-86 13t-86 -13t-52 -33.5t-17 -43.5t17 -43.5t52 -33.5t86 -13t86 13z" />
    <glyph glyph-name="uni24FE" unicode="&#x24fe;" horiz-adv-x="1090" 
d="M302 -19.5q-106 55.5 -164 152.5t-58 217t58 217t164 152.5t243 55.5t243 -55.5t164 -152.5t58 -217t-58 -217t-164 -152.5t-243 -55.5t-243 55.5zM777.5 -2q101.5 53 157 145.5t55.5 206.5t-55.5 206.5t-157 145.5t-232.5 53t-232.5 -53t-157 -145.5t-55.5 -206.5
t55.5 -206.5t157 -145.5t232.5 -53t232.5 53zM323.5 16q-96.5 51 -150 139t-53.5 195t53.5 195t150 139t221.5 51t221.5 -51t150 -139t53.5 -195t-53.5 -195t-150 -139t-221.5 -51t-221.5 51zM756 33.5q92 48.5 143 132t51 184.5t-51 184.5t-143 132t-211 48.5t-211 -48.5
t-143 -132t-51 -184.5t51 -184.5t143 -132t211 -48.5t211 48.5zM590.5 188.5q-39.5 23.5 -62.5 65.5t-23 96t23 96t62.5 65.5t89.5 23.5t89.5 -23.5t62.5 -65.5t23 -96t-23 -96t-62.5 -65.5t-89.5 -23.5t-89.5 23.5zM260 175v20h115v240h-115v20h75q23 0 31.5 9t8.5 31v30
h20v-330h105v-20h-240zM759 206q35 21 55.5 58.5t20.5 85.5t-20.5 85.5t-55.5 58.5t-79 21t-79 -21t-55.5 -58.5t-20.5 -85.5t20.5 -85.5t55.5 -58.5t79 -21t79 21z" />
    <glyph glyph-name="uniF6D1" unicode="&#xf6d1;" horiz-adv-x="380" 
d="M72 820q-42 35 -42 90h20q0 -46 36.5 -75.5t103.5 -29.5t103.5 29.5t36.5 75.5h20q0 -55 -42 -90t-118 -35t-118 35z" />
    <glyph glyph-name="uniF6D4" unicode="&#xf6d4;" horiz-adv-x="360" 
d="M69 621.5q-39 31.5 -39 78.5h20q0 -38 33.5 -64t96.5 -26t96.5 26t33.5 64h20q0 -47 -39 -78.5t-111 -31.5t-111 31.5z" />
    <glyph glyph-name="questiondown.alt" horiz-adv-x="575" 
d="M323.5 492.5q-8.5 7.5 -8.5 17.5t8.5 17.5t21.5 7.5t21.5 -7.5t8.5 -17.5t-8.5 -17.5t-21.5 -7.5t-21.5 7.5zM159.5 -172q-76.5 28 -113 73.5t-36.5 98.5q0 50 37 96t110.5 75t177.5 29v160h20v-180h-20q-98 0 -167 -26.5t-103.5 -68t-34.5 -85.5q0 -47 34 -88t106 -66.5
t180 -25.5q77 0 142 18.5t98 41.5v-24q-35 -21 -100 -38.5t-140 -17.5q-114 0 -190.5 28z" />
    <glyph glyph-name="Iacute_J.loclNLD" horiz-adv-x="1215" 
d="M640 700v-20h-295v-660h295v-20h-610v20h295v660h-295v20h610zM205 790l-5 15l240 95h10v-25zM695 23v22q85 -35 175 -35q97 0 156 55t59 160v475h20v-475q0 -113 -64.5 -174t-170.5 -61q-86 0 -175 33zM965 790l-5 15l240 95h10v-25z" />
    <glyph glyph-name="i.loclTRK" horiz-adv-x="220" 
d="M88.5 612.5q-8.5 7.5 -8.5 17.5t8.5 17.5t21.5 7.5t21.5 -7.5t8.5 -17.5t-8.5 -17.5t-21.5 -7.5t-21.5 7.5zM100 0v530h10h10v-530h-20z" />
    <glyph glyph-name="iacute_j.loclNLD" horiz-adv-x="440" 
d="M65 630l-5 15l171 95h10v-22zM285 630l-5 15l170 95h10v-22zM120 0h-20v530h20v-530zM150 -186v20q31 -14 70 -14q46 0 73 31t27 91v588h20v-588q0 -70 -32 -106t-88 -36q-39 0 -70 14z" />
    <glyph glyph-name="F_O_R" horiz-adv-x="1875" 
d="M110 0v700h655v-16q25 10 70 18t95 8q80 0 149.5 -21.5t105.5 -47.5v59h355q131 0 198 -55.5t67 -149.5q0 -69 -38 -118.5t-112 -70.5v-6q52 -11 81 -50.5t29 -99.5v-150h-20v150q0 67 -40 103.5t-120 36.5h-245q-15 -86 -68.5 -154t-141.5 -107t-200 -39
q-124 0 -218.5 47.5t-145.5 130t-51 182.5q0 112 63.5 200.5t173.5 129.5h-622v-340h310v-20h-310v-320h-20zM1138 55q90 45 138.5 123t48.5 172t-48.5 172t-138.5 123t-208 45t-208 -45t-138.5 -123t-48.5 -172t48.5 -172t138.5 -123t208 -45t208 45zM1723.5 630
q-61.5 50 -183.5 50h-335v-52q68 -50 104 -122t36 -156q0 -18 -2 -40h197q122 0 183.5 50t61.5 135t-61.5 135z" />
    <glyph glyph-name="H_E" horiz-adv-x="1280" 
d="M710 350v-330h510v-20h-530v350h-560v-350h-20v700h20v-330h560v330h510v-20h-490v-310h450v-20h-450z" />
    <glyph glyph-name="M_E" horiz-adv-x="1500" 
d="M930 350v-330h510v-20h-530v681h-5l-385 -701l-385 701h-5v-681h-20v700h39l368 -671h6l368 671h529v-20h-490v-310h450v-20h-450z" />
    <glyph glyph-name="O_C" horiz-adv-x="1475" 
d="M272.5 37.5q-98.5 47.5 -150.5 129.5t-52 183t52 183t150.5 129.5t232.5 47.5q97 0 176 -25.5t136 -72.5q57 47 136 72.5t177 25.5q87 0 162 -23t113 -52v-24q-36 30 -110.5 54.5t-164.5 24.5q-128 0 -222 -45t-143.5 -122.5t-49.5 -172.5q0 -94 48.5 -172t138.5 -123
t208 -45q82 0 152.5 19t112.5 43v-24q-42 -22 -112.5 -40t-152.5 -18q-89 0 -164 25.5t-130 71.5q-57 -46 -135.5 -71.5t-175.5 -25.5q-134 0 -232.5 47.5zM801 101q-51 48 -78.5 112t-27.5 137t27.5 136.5t79.5 111.5q-54 44 -129.5 68t-167.5 24q-128 0 -222 -45
t-143.5 -122.5t-49.5 -172.5t49.5 -172.5t143.5 -122.5t222 -45q183 0 296 91z" />
    <glyph glyph-name="T_H_E" horiz-adv-x="1795" 
d="M1225 350v-330h510v-20h-530v350h-560v-350h-20v680h-295v-680h-20v680h-300v20h635v-330h560v330h510v-20h-490v-310h450v-20h-450z" />
    <glyph glyph-name="T_O" horiz-adv-x="1480" 
d="M985 700q132 0 228 -46.5t146.5 -127t50.5 -181.5t-50.5 -181.5t-146.5 -127t-228 -46.5t-228 46.5t-146.5 127t-50.5 181.5q0 118 70 207.5t195 122.5v5h-515v-680h-20v680h-280v20h975zM1202.5 54q91.5 44 139.5 120t48 171t-48 171t-139.5 120t-217.5 44t-217.5 -44
t-139.5 -120t-48 -171t48 -171t139.5 -120t217.5 -44t217.5 44z" />
    <glyph glyph-name="W_A_S" horiz-adv-x="2200" 
d="M1578 447.5q38 -31.5 94 -48.5t152 -37q102 -21 164 -41t104.5 -57.5t42.5 -98.5q0 -47 -30.5 -87t-94.5 -64t-160 -24q-157 0 -266 44t-165 166l-11 25h-422l-103 -225h-33l-260 680h-5l-260 -680h-35l-280 700h23l272 -680h5l260 680h35l260 -680h5l312 680h31
l229 -500q50 -108 153 -149t250 -41q92 0 152.5 21.5t89 57t28.5 76.5q0 54 -39 87t-96.5 50.5t-155.5 37.5q-102 22 -161.5 40.5t-101 54.5t-41.5 95q0 48 33.5 88.5t105.5 66t181 25.5q89 0 166 -19.5t119 -43.5v-24q-40 26 -116.5 46.5t-168.5 20.5q-103 0 -170.5 -23
t-98.5 -59t-31 -78q0 -51 38 -82.5zM1195 680l-200 -435h403l-198 435h-5z" />
    <glyph glyph-name="a_n" horiz-adv-x="1145" 
d="M103 31.5q-53 41.5 -53 108.5q0 70 64.5 112.5t205.5 42.5q93 0 144.5 12.5t71 35.5t19.5 57q0 31 -23 58.5t-72.5 44.5t-124.5 17t-147 -19t-113 -43v22q38 23 109 41.5t151 18.5q111 0 171.5 -36t67.5 -89h6q30 48 93 86.5t142 38.5q111 0 173 -59t62 -161v-320h-20
v320q0 92 -56.5 146t-158.5 54q-58 0 -107 -23.5t-83 -58.5t-50 -71v-367h-20v115q-24 -30 -67.5 -58.5t-102.5 -47.5t-125 -19q-104 0 -157 41.5zM386 30.5q59 20.5 102 51.5t67 63v190q-8 -23 -67.5 -41.5t-167.5 -18.5q-132 0 -191 -37.5t-59 -97.5q0 -58 47.5 -94
t142.5 -36q67 0 126 20.5z" />
    <glyph glyph-name="a_s" horiz-adv-x="1225" 
d="M103 31.5q-53 41.5 -53 108.5q0 70 64.5 112.5t205.5 42.5q93 0 144.5 12.5t71 35.5t19.5 57q0 31 -23 58.5t-72.5 44.5t-124.5 17t-147 -19t-113 -43v22q38 23 109 41.5t151 18.5q81 0 135 -19.5t79.5 -51t25.5 -68.5v-261q55 -50 153.5 -90t206.5 -40q105 0 157.5 31.5
t52.5 78.5q0 40 -30 64.5t-73 37.5t-120 29q-81 17 -130 32t-83 44.5t-34 77.5q0 59 61 97t194 38q80 0 143 -16.5t92 -36.5v-20q-31 20 -94.5 36.5t-140.5 16.5q-124 0 -179.5 -33t-55.5 -82q0 -41 30.5 -66t75.5 -38.5t120 -28.5q81 -17 129 -32t81.5 -43.5t33.5 -76.5
q0 -56 -58 -93t-172 -37q-108 0 -209.5 41t-159.5 91q-43 -51 -126 -91.5t-180 -40.5q-104 0 -157 41.5zM386 30q59 20 102 49.5t67 60.5v194q-2 -7 -20 -20.5t-70 -26t-145 -12.5q-132 0 -191 -37.5t-59 -97.5q0 -58 47.5 -94t142.5 -36q67 0 126 20z" />
    <glyph glyph-name="o_f" horiz-adv-x="1030" 
d="M214.5 26q-72.5 36 -111 98.5t-38.5 140.5t38.5 140.5t111 98.5t170.5 36q68 0 123.5 -17.5t82.5 -39.5q11 18 37.5 32.5t61.5 14.5h175v71q0 63 30.5 96t86.5 33q44 0 78 -14v-21q-33 15 -78 15q-48 0 -72.5 -28t-24.5 -81v-71h165v-20h-165v-510h-20v510h-175
q-30 0 -52 -12.5t-30 -27.5q47 -38 72 -90.5t25 -114.5q0 -78 -38.5 -140.5t-111 -98.5t-170.5 -36t-170.5 36zM545 43.5q68 33.5 104 91.5t36 130t-36 130t-104 91.5t-160 33.5t-160 -33.5t-104 -91.5t-36 -130t36 -130t104 -91.5t160 -33.5t160 33.5z" />
    </font>
</defs>
</svg>
