<?xml version="1.0" standalone="no"?>
<!DOCTYPE svg PUBLIC "-//W3C//DTD SVG 1.1//EN" "http://www.w3.org/Graphics/SVG/1.1/DTD/svg11.dtd" >
<svg xmlns="http://www.w3.org/2000/svg" xmlns:xlink="http://www.w3.org/1999/xlink" version="1.1">
<metadata>
Created by FontForge 20201107 at Mon Feb  6 14:54:41 2023
 By 
Copyright (c) 2020-2021 by TypeType. All rights reserved. Special version for DaFont.
</metadata>
<defs>
<font id="TTRunsTrial-Bold" horiz-adv-x="770" >
  <font-face 
    font-family="TT Runs Trial"
    font-weight="700"
    font-stretch="normal"
    units-per-em="1000"
    panose-1="2 0 0 0 0 0 0 0 6 7"
    ascent="800"
    descent="-200"
    x-height="570"
    cap-height="700"
    bbox="-615 -330 2240 970"
    underline-thickness="90"
    underline-position="-185"
    unicode-range="U+000D-FB03"
  />
<missing-glyph horiz-adv-x="900" 
d="M100 0v284h45v-139h33v139h50v31h-128v126l19 -61h23l34 106l33 -106h23l54 170h-32l-34 -110l-35 110h-19l-35 -110l-31 103v157h700v-150h-110v-170h110v-91q-6 13 -19.5 20t-30.5 7q-27 0 -43.5 -14.5t-16.5 -34.5q0 -22 14.5 -32.5t39.5 -17.5q17 -5 25.5 -9.5
t8.5 -13.5q0 -21 -28 -21q-14 0 -21 7t-7 18h-33q0 -24 17 -39.5t44 -15.5q17 0 30.5 6.5t19.5 13.5v-163h-700zM311 380h33v62h24l35 -62h37l-40 67q36 17 36 50q0 22 -16 37.5t-41 15.5h-68v-170zM469 550v-170h33v170h-33zM580 519v-139h32v139h50v31h-132v-31h50z
M344 473v46h35q10 0 17 -6.5t7 -16.5q0 -12 -7.5 -17.5t-16.5 -5.5h-35zM800 483h-78v36h78v-36zM800 411h-78v41h78v-41zM387.5 167.5q22.5 24.5 22.5 61.5t-23 62t-59 25t-59 -25t-23 -62t22.5 -61.5t59.5 -24.5t59.5 24.5zM633 162q19 19 19 47v106h-32v-106
q0 -15 -9.5 -25t-25.5 -10q-17 0 -26.5 10.5t-9.5 24.5v106h-32v-106q0 -28 19.5 -47t48.5 -19t48 19zM800 224q-15 14 -46 22q-16 5 -23 9t-7 12q0 9 7.5 14.5t18.5 5.5q10 0 18 -7t8 -18h24v-38zM291.5 190q-14.5 16 -14.5 39q0 25 14 40.5t37 15.5q24 0 37.5 -15.5
t13.5 -40.5q0 -23 -14.5 -39t-36.5 -16t-36.5 16z" />
    <glyph glyph-name="ff" unicode="ff" horiz-adv-x="860" 
d="M105 0v415h-105v75h105v40q0 100 57.5 152.5t154.5 52.5q41 0 67.5 -3.5t70.5 -14.5v-143q-28 9 -46.5 12.5t-39.5 3.5q-40 0 -62 -18t-22 -55v-27h220v40q0 100 57.5 152.5t154.5 52.5q41 0 67.5 -3.5t70.5 -14.5v-143q-28 9 -46.5 12.5t-39.5 3.5q-40 0 -62 -18
t-22 -55v-27h150v-75h-150v-415h-180v415h-220v-415h-180z" />
    <glyph glyph-name="fi" unicode="fi" horiz-adv-x="745" 
d="M105 0v415h-105v75h105v21q0 116 82 170t230 54q66 0 127.5 -7t140.5 -22v-138q-80 15 -132 21t-106 6q-76 0 -119 -19t-43 -68v-18h400v-490h-180v415h-220v-415h-180z" />
    <glyph glyph-name="ffi" unicode="ffi" horiz-adv-x="1145" 
d="M105 0v415h-105v75h105v40q0 100 57.5 152.5t154.5 52.5q41 0 67.5 -3.5t70.5 -14.5v-143q-28 9 -46.5 12.5t-39.5 3.5q-40 0 -62 -18t-22 -55v-27h220v21q0 116 82 170t230 54q66 0 127.5 -7t140.5 -22v-138q-80 15 -132 21t-106 6q-76 0 -119 -19t-43 -68v-18h400v-490
h-180v415h-220v-415h-180v415h-220v-415h-180z" />
    <glyph glyph-name="f_f_j" unicode="ffj" horiz-adv-x="1145" 
d="M820 -202q-23 3 -60 11v137q43 -11 73 -11q31 0 51.5 22.5t20.5 65.5v392h-220v-415h-180v415h-220v-415h-180v415h-105v75h105v40q0 100 57.5 152.5t154.5 52.5q41 0 67.5 -3.5t70.5 -14.5v-143q-28 9 -46.5 12.5t-39.5 3.5q-40 0 -62 -18t-22 -55v-27h220v21
q0 116 82 170t230 54q66 0 127.5 -7t140.5 -22v-138q-80 15 -132 21t-106 6q-76 0 -119 -19t-43 -68v-18h400v-466q0 -111 -54 -170t-159 -59q-29 0 -52 3z" />
    <glyph glyph-name="f_j" unicode="fj" horiz-adv-x="745" 
d="M420 -202q-23 3 -60 11v137q43 -11 73 -11q31 0 51.5 22.5t20.5 65.5v392h-220v-415h-180v415h-105v75h105v21q0 116 82 170t230 54q66 0 127.5 -7t140.5 -22v-138q-80 15 -132 21t-106 6q-76 0 -119 -19t-43 -68v-18h400v-466q0 -111 -54 -170t-159 -59q-29 0 -52 3z
" />
    <glyph glyph-name="f_t" unicode="ft" horiz-adv-x="895" 
d="M566.5 43.5q-61.5 58.5 -61.5 171.5v200h-220v-415h-180v415h-105v75h105v40q0 100 56 152.5t151 52.5q37 0 61 -3.5t57 -11.5v-141q-41 11 -71 11q-34 0 -54 -18.5t-20 -54.5v-27h170q27 0 38.5 12.5t11.5 42.5v150h180v-205h170v-75h-170v-193q0 -45 23.5 -68.5
t67.5 -23.5q42 0 79 11v-144q-37 -7 -59.5 -9.5t-54.5 -2.5q-113 0 -174.5 58.5z" />
    <glyph glyph-name=".notdef" horiz-adv-x="900" 
d="M100 0v284h45v-139h33v139h50v31h-128v126l19 -61h23l34 106l33 -106h23l54 170h-32l-34 -110l-35 110h-19l-35 -110l-31 103v157h700v-150h-110v-170h110v-91q-6 13 -19.5 20t-30.5 7q-27 0 -43.5 -14.5t-16.5 -34.5q0 -22 14.5 -32.5t39.5 -17.5q17 -5 25.5 -9.5
t8.5 -13.5q0 -21 -28 -21q-14 0 -21 7t-7 18h-33q0 -24 17 -39.5t44 -15.5q17 0 30.5 6.5t19.5 13.5v-163h-700zM311 380h33v62h24l35 -62h37l-40 67q36 17 36 50q0 22 -16 37.5t-41 15.5h-68v-170zM469 550v-170h33v170h-33zM580 519v-139h32v139h50v31h-132v-31h50z
M344 473v46h35q10 0 17 -6.5t7 -16.5q0 -12 -7.5 -17.5t-16.5 -5.5h-35zM800 483h-78v36h78v-36zM800 411h-78v41h78v-41zM387.5 167.5q22.5 24.5 22.5 61.5t-23 62t-59 25t-59 -25t-23 -62t22.5 -61.5t59.5 -24.5t59.5 24.5zM633 162q19 19 19 47v106h-32v-106
q0 -15 -9.5 -25t-25.5 -10q-17 0 -26.5 10.5t-9.5 24.5v106h-32v-106q0 -28 19.5 -47t48.5 -19t48 19zM800 224q-15 14 -46 22q-16 5 -23 9t-7 12q0 9 7.5 14.5t18.5 5.5q10 0 18 -7t8 -18h24v-38zM291.5 190q-14.5 16 -14.5 39q0 25 14 40.5t37 15.5q24 0 37.5 -15.5
t13.5 -40.5q0 -23 -14.5 -39t-36.5 -16t-36.5 16z" />
    <glyph glyph-name=".null" horiz-adv-x="0" 
 />
    <glyph glyph-name="nonmarkingreturn" unicode="&#xd;" horiz-adv-x="0" 
 />
    <glyph glyph-name="space" unicode=" " horiz-adv-x="290" 
 />
    <glyph glyph-name="exclam" unicode="!" horiz-adv-x="320" 
d="M215 225h-110l-35 195v300h180v-300zM91 9q-26 24 -26 61t26 61t69 24t69 -24t26 -61t-26 -61t-69 -24t-69 24z" />
    <glyph glyph-name="quotedbl" unicode="&#x22;" horiz-adv-x="500" 
d="M205 425h-140v295h140v-295zM435 425h-140v295h140v-295z" />
    <glyph glyph-name="numbersign" unicode="#" horiz-adv-x="810" 
d="M785 530v-100h-122l-36 -160h113v-100h-136l-39 -170h-162l39 170h-156l-39 -170h-162l39 170h-99v100h122l36 160h-113v100h136l39 170h162l-39 -170h156l39 170h162l-39 -170h99zM309 270h156l36 160h-156z" />
    <glyph glyph-name="dollar" unicode="$" horiz-adv-x="795" 
d="M676.5 56.5q-63.5 -55.5 -191.5 -68.5v-108h-170v111q-70 9 -126.5 27t-87.5 37v170q48 -32 135 -58.5t179 -26.5q70 0 102.5 20t32.5 50q0 26 -24 42.5t-60.5 25.5t-101.5 20q-97 17 -158.5 35t-106 59t-44.5 113q0 78 65.5 134.5t199.5 71.5v109h170v-110
q74 -8 135 -28t95 -41v-175q-46 36 -136.5 65t-193.5 29q-75 0 -110 -20.5t-35 -49.5q0 -26 24 -42.5t61 -26t101 -21.5q97 -17 158.5 -36t106 -60.5t44.5 -113.5q0 -78 -63.5 -133.5z" />
    <glyph glyph-name="percent" unicode="%" horiz-adv-x="980" 
d="M126.5 382q-43.5 23 -67.5 63.5t-24 91.5t24 91.5t67.5 63.5t101.5 23q57 0 101 -23t67.5 -63.5t23.5 -91.5t-23.5 -91.5t-67.5 -63.5t-101 -23q-58 0 -101.5 23zM365 0h-155l405 700h155zM280 480q20 21 20 57t-20 57t-52 21q-33 0 -53 -21t-20 -57t20 -57t53 -21
q32 0 52 21zM651.5 7q-43.5 23 -67.5 63.5t-24 91.5t24 91.5t67.5 63.5t101.5 23q57 0 101 -23t67.5 -63.5t23.5 -91.5t-23.5 -91.5t-67.5 -63.5t-101 -23q-58 0 -101.5 23zM805 105q20 21 20 57t-20 57t-52 21q-33 0 -53 -21t-20 -57t20 -57t53 -21q32 0 52 21z" />
    <glyph glyph-name="ampersand" unicode="&#x26;" horiz-adv-x="810" 
d="M830 0h-235l-88 75q-42 -35 -108 -62.5t-154 -27.5q-107 0 -161 44.5t-54 125.5q0 68 44.5 117t111.5 76q-59 53 -85 93.5t-26 93.5q0 82 64.5 131t195.5 49q76 0 148 -19t114 -42v-162q-45 30 -112.5 54t-129.5 24q-95 0 -95 -55q0 -21 23 -45t98 -89l131 -111
q27 26 48 52t32 43h171q-17 -33 -55.5 -84.5t-87.5 -102.5zM385 179l-127 107q-38 -17 -63 -43.5t-25 -57.5q0 -25 18.5 -40t53.5 -15q75 0 143 49z" />
    <glyph glyph-name="quotesingle" unicode="'" horiz-adv-x="270" 
d="M205 425h-140v295h140v-295z" />
    <glyph glyph-name="parenleft" unicode="(" horiz-adv-x="375" 
d="M285 -190q-106 0 -155.5 48.5t-49.5 151.5v570q0 103 49.5 151.5t155.5 48.5h75v-145h-55q-65 0 -65 -70v-540q0 -70 65 -70h55v-145h-75z" />
    <glyph glyph-name="parenright" unicode=")" horiz-adv-x="375" 
d="M15 -190v145h55q65 0 65 70v540q0 70 -65 70h-55v145h75q106 0 155.5 -48.5t49.5 -151.5v-570q0 -103 -49.5 -151.5t-155.5 -48.5h-75z" />
    <glyph glyph-name="asterisk" unicode="*" horiz-adv-x="417" 
d="M209 501l-72 -89l-81 66l74 82l-115 44l36 90l105 -37v103h105v-103l105 37l36 -90l-115 -44l74 -82l-81 -66z" />
    <glyph glyph-name="plus" unicode="+" horiz-adv-x="640" 
d="M385 45h-130v195h-200v130h200v195h130v-195h200v-130h-200v-195z" />
    <glyph glyph-name="comma" unicode="," horiz-adv-x="240" 
d="M30 -180v113h35q50 0 75 21.5t25 58.5h-5q-5 -11 -20 -19.5t-36 -8.5q-35 0 -57 22.5t-22 58.5t25 60t65 24q46 0 73 -32t27 -101q0 -95 -44 -146t-121 -51h-20z" />
    <glyph glyph-name="hyphen" unicode="-" horiz-adv-x="520" 
d="M470 245h-420v135h420v-135z" />
    <glyph glyph-name="period" unicode="." horiz-adv-x="240" 
d="M51 9q-26 24 -26 61t26 61t69 24t69 -24t26 -61t-26 -61t-69 -24t-69 24z" />
    <glyph glyph-name="slash" unicode="/" horiz-adv-x="534" 
d="M165 -70h-165l369 840h165z" />
    <glyph glyph-name="zero" unicode="0" horiz-adv-x="980" 
d="M264.5 33q-96.5 48 -148 131.5t-51.5 185.5t51.5 185.5t148 131.5t225.5 48t225.5 -48t148 -131.5t51.5 -185.5t-51.5 -185.5t-148 -131.5t-225.5 -48t-225.5 48zM612.5 158.5q53.5 28.5 83 78.5t29.5 113t-29.5 113t-83 78.5t-122.5 28.5t-122.5 -28.5t-83 -78.5
t-29.5 -113t29.5 -113t83 -78.5t122.5 -28.5t122.5 28.5z" />
    <glyph glyph-name="one" unicode="1" horiz-adv-x="645" 
d="M45 0v140h215v355h-210v140h160q60 0 60 60v5h170v-560h180v-140h-575z" />
    <glyph glyph-name="two" unicode="2" horiz-adv-x="755" 
d="M65 0v135l208 116q132 74 179.5 125t47.5 99q0 40 -36.5 67.5t-103.5 27.5q-79 0 -163 -35.5t-142 -79.5v162q56 38 140.5 68t184.5 30t170 -29.5t105 -79.5t35 -111q0 -77 -53.5 -149t-198.5 -147l-75 -39v-5h327v-155h-625z" />
    <glyph glyph-name="three" unicode="3" horiz-adv-x="755" 
d="M178.5 8.5q-80.5 23.5 -123.5 52.5v157q43 -33 122 -60.5t168 -27.5q56 0 94.5 13.5t57 35.5t18.5 46q0 42 -43 71t-127 29q-49 0 -97.5 -9.5t-77.5 -20.5v99l209 148v8h-319v150h615v-105l-252 -167v-8q86 0 150 -27.5t98 -74.5t34 -103q0 -64 -38 -116t-116.5 -83
t-195.5 -31q-96 0 -176.5 23.5z" />
    <glyph glyph-name="four" unicode="4" horiz-adv-x="765" 
d="M630 0h-180v150h-435v136l356 414h216l-341 -397v-8h204v160h180v-160h130v-145h-130v-150z" />
    <glyph glyph-name="five" unicode="5" horiz-adv-x="755" 
d="M188 6.5q-83 21.5 -123 47.5v161q41 -32 118 -58.5t162 -26.5q88 0 131.5 29t43.5 71t-41 71t-119 29q-51 0 -90 -14t-55 -31h-135l28 415h557v-155h-405l-10 -150h5q18 12 59 21t96 9q95 0 163 -29.5t102.5 -78.5t34.5 -107q0 -61 -37.5 -112t-113.5 -82t-187 -31
q-101 0 -184 21.5z" />
    <glyph glyph-name="six" unicode="6" horiz-adv-x="765" 
d="M187 15.5q-80 30.5 -118.5 80.5t-38.5 109q0 53 22 99t70 101l255 295h205l-237 -276v-5q18 6 55 6q114 0 190.5 -29.5t113 -79.5t36.5 -111q0 -59 -38.5 -109t-118.5 -80.5t-198 -30.5t-198 30.5zM476.5 124q37.5 14 55.5 36.5t18 47.5q0 24 -18 46.5t-55.5 36.5
t-91.5 14t-91.5 -14t-55.5 -36.5t-18 -46.5q0 -25 18 -47.5t55.5 -36.5t91.5 -14t91.5 14z" />
    <glyph glyph-name="seven" unicode="7" horiz-adv-x="685" 
d="M325 0h-200l316 538v7h-426v155h645v-128z" />
    <glyph glyph-name="eight" unicode="8" horiz-adv-x="850" 
d="M223.5 12.5q-79.5 27.5 -116.5 71.5t-37 96q0 42 21.5 76.5t59.5 55.5t85 23v8q-55 2 -97.5 25.5t-65.5 60.5t-23 81q0 57 37.5 103.5t121.5 74t216 27.5t216 -27.5t121.5 -74t37.5 -103.5q0 -44 -23 -81t-65.5 -60.5t-97.5 -25.5v-8q47 -2 85 -23t59.5 -55.5t21.5 -76.5
q0 -52 -37 -96t-116.5 -71.5t-201.5 -27.5t-201.5 27.5zM566 417q44 27 44 68t-44 68t-141 27t-141 -27t-44 -68t44 -68t141 -27t141 27zM550.5 143.5q39.5 23.5 39.5 58.5q0 36 -39.5 59.5t-125.5 23.5t-125.5 -23.5t-39.5 -59.5q0 -35 39.5 -58.5t125.5 -23.5t125.5 23.5z
" />
    <glyph glyph-name="nine" unicode="9" horiz-adv-x="800" 
d="M198 0l242 257v5q-21 -7 -55 -7q-123 0 -203.5 30.5t-118.5 82t-38 117.5q0 63 40 115t123.5 83.5t208.5 31.5t209 -31.5t124 -85t40 -118.5q0 -48 -23 -96.5t-81 -109.5l-258 -274h-210zM499.5 395q41.5 15 61 39t19.5 51t-19.5 51t-61 39t-102.5 15t-102 -15t-60.5 -39
t-19.5 -51t19.5 -51t60.5 -39t102 -15t102.5 15z" />
    <glyph glyph-name="colon" unicode=":" horiz-adv-x="260" 
d="M61 9q-26 24 -26 61t26 61t69 24t69 -24t26 -61t-26 -61t-69 -24t-69 24zM61 430q-26 24 -26 61t26 61t69 24t69 -24t26 -61t-26 -61t-69 -24t-69 24z" />
    <glyph glyph-name="semicolon" unicode=";" horiz-adv-x="263" 
d="M61 430q-26 24 -26 61t26 61t69 24t69 -24t26 -61t-26 -61t-69 -24t-69 24zM43 -180v113h35q50 0 75 21.5t25 58.5h-5q-5 -11 -20 -19.5t-36 -8.5q-35 0 -57 22.5t-22 58.5t25 60t65 24q46 0 73 -32t27 -101q0 -95 -44 -146t-121 -51h-20z" />
    <glyph glyph-name="less" unicode="&#x3c;" horiz-adv-x="640" 
d="M585 188v-138l-545 193v124l545 193v-138l-315 -112v-10z" />
    <glyph glyph-name="equal" unicode="=" horiz-adv-x="640" 
d="M575 365h-510v100h510v-100zM575 145h-510v100h510v-100z" />
    <glyph glyph-name="greater" unicode="&#x3e;" horiz-adv-x="640" 
d="M600 243l-545 -193v138l315 112v10l-315 112v138l545 -193v-124z" />
    <glyph glyph-name="question" unicode="?" horiz-adv-x="715" 
d="M270 225l-33 165q102 5 185 35t83 80q0 30 -38 52.5t-117 22.5q-92 0 -178 -27.5t-137 -60.5v172q53 27 141 49t189 22q112 0 186 -26.5t109 -70t35 -93.5q0 -63 -44.5 -109t-111.5 -71.5t-136 -32.5v-107h-133zM273 9q-26 24 -26 61t26 61t69 24t69 -24t26 -61t-26 -61
t-69 -24t-69 24z" />
    <glyph glyph-name="at" unicode="@" horiz-adv-x="1035" 
d="M276 -76.5q-104 48.5 -157.5 133.5t-53.5 193q0 105 54.5 190.5t157 135t241.5 49.5q144 0 247.5 -49.5t156.5 -132.5t53 -183q0 -92 -46.5 -143.5t-123.5 -51.5q-58 0 -96 23.5t-49 51.5h-7q-19 -29 -63.5 -52t-104.5 -23t-105.5 23.5t-70 65.5t-24.5 96t24 96
t68.5 65.5t102.5 23.5q44 0 80 -15t53 -34h2v39h135v-200q0 -38 15.5 -56.5t44.5 -18.5q60 0 60 105q0 85 -41 149.5t-120.5 100t-190.5 35.5q-109 0 -187.5 -37.5t-119.5 -103.5t-41 -149q0 -84 41 -149.5t120 -103t189 -37.5q76 0 138 15.5t92 34.5v-93q-30 -16 -91 -29
t-134 -13q-145 0 -249 48.5zM575 179.5q27 14.5 40 32.5v76q-13 18 -40 32.5t-60 14.5q-42 0 -66 -23t-24 -62t24 -62t66 -23q33 0 60 14.5z" />
    <glyph glyph-name="A" unicode="A" horiz-adv-x="916" 
d="M916 0h-199l-74 155h-370l-74 -155h-199l342 700h232zM454 533l-131 -273h270l-131 273h-8z" />
    <glyph glyph-name="B" unicode="B" horiz-adv-x="865" 
d="M580 345q100 0 152.5 -43.5t52.5 -116.5q0 -84 -67 -134.5t-203 -50.5h-435v700h440q144 0 214.5 -50.5t70.5 -129.5q0 -76 -56.5 -121.5t-168.5 -45.5v-8zM260 555v-155h240q59 0 87 21.5t28 58.5q0 34 -28.5 54.5t-86.5 20.5h-240zM480 145q115 0 115 75t-115 75h-220
v-150h220z" />
    <glyph glyph-name="C" unicode="C" horiz-adv-x="900" 
d="M272.5 32.5q-101.5 47.5 -154.5 130.5t-53 187t54 187t160 130.5t256 47.5q99 0 181.5 -22.5t123.5 -49.5v-160q-41 31 -121 56.5t-174 25.5q-93 0 -158.5 -28.5t-98.5 -77.5t-33 -109q0 -59 32.5 -108t94.5 -78t148 -29q89 0 165 22t115 49v-160q-41 -23 -121 -42
t-174 -19q-141 0 -242.5 47.5z" />
    <glyph glyph-name="D" unicode="D" horiz-adv-x="960" 
d="M80 0v700h355q152 0 255 -44.5t154 -123.5t51 -182t-51 -182t-154 -123.5t-255 -44.5h-355zM435 150q138 0 204 53t66 147t-66 147t-204 53h-175v-400h175z" />
    <glyph glyph-name="E" unicode="E" horiz-adv-x="755" 
d="M260 300v-155h445v-145h-625v700h605v-145h-425v-150h385v-105h-385z" />
    <glyph glyph-name="F" unicode="F" horiz-adv-x="725" 
d="M685 700v-155h-425v-175h380v-105h-380v-265h-180v700h605z" />
    <glyph glyph-name="G" unicode="G" horiz-adv-x="970" 
d="M280 32.5q-107 47.5 -161 130.5t-54 187q0 105 54.5 187.5t164.5 130t268 47.5q114 0 207 -20.5t146 -46.5v-156q-49 30 -139 54t-199 24q-103 0 -173 -29t-104.5 -79t-34.5 -112t34 -112t101.5 -79t164.5 -29q65 0 125.5 14t94.5 31v70h-285v120h410v-290
q-52 -34 -150.5 -62t-209.5 -28q-153 0 -260 47.5z" />
    <glyph glyph-name="H" unicode="H" horiz-adv-x="920" 
d="M660 430v270h180v-700h-180v275h-400v-275h-180v700h180v-270h400z" />
    <glyph glyph-name="I" unicode="I" horiz-adv-x="778" 
d="M738 700v-145h-259v-410h259v-145h-698v145h259v410h-259v145h698z" />
    <glyph glyph-name="J" unicode="J" horiz-adv-x="625" 
d="M15 17v154q60 -18 102.5 -24.5t81.5 -6.5q79 0 122.5 38.5t43.5 114.5v407h180v-408q0 -153 -86 -230t-251 -77q-98 0 -193 32z" />
    <glyph glyph-name="K" unicode="K" horiz-adv-x="845" 
d="M260 0h-180v700h180v-305h5l370 305h230l-400 -335v-5l370 -360h-225l-345 325h-5v-325z" />
    <glyph glyph-name="L" unicode="L" horiz-adv-x="745" 
d="M730 0h-650v700h180v-545h470v-155z" />
    <glyph glyph-name="M" unicode="M" horiz-adv-x="1155" 
d="M890 527l-314 -557l-311 557h-5v-527h-180v700h270l229 -426h5l229 426h262v-700h-180v527h-5z" />
    <glyph glyph-name="N" unicode="N" horiz-adv-x="925" 
d="M255 0h-175v700h288l294 -533h8v533h175v-700h-288l-294 533h-8v-533z" />
    <glyph glyph-name="O" unicode="O" horiz-adv-x="1090" 
d="M282 32.5q-108 47.5 -162.5 130t-54.5 187.5t54.5 187.5t162.5 130t263 47.5t263 -47.5t162.5 -130t54.5 -187.5t-54.5 -187.5t-162.5 -130t-263 -47.5t-263 47.5zM703.5 159q65.5 29 98.5 79t33 112t-33 112t-98.5 79t-158.5 29t-158.5 -29t-98.5 -79t-33 -112t33 -112
t98.5 -79t158.5 -29t158.5 29z" />
    <glyph glyph-name="P" unicode="P" horiz-adv-x="855" 
d="M500 700q153 0 231.5 -66t78.5 -179t-78.5 -179t-231.5 -66h-240v-210h-180v700h420zM490 355q65 0 97.5 27t32.5 73t-32.5 73t-97.5 27h-230v-200h230z" />
    <glyph glyph-name="Q" unicode="Q" horiz-adv-x="1090" 
d="M978.5 176q-46.5 -78 -135.5 -127l78 -119h-177l-45 69q-73 -14 -154 -14q-155 0 -263 47.5t-162.5 130t-54.5 187.5t54.5 187.5t162.5 130t263 47.5t263 -47.5t162.5 -130t54.5 -187.5q0 -96 -46.5 -174zM692 280l61 -93q40 30 61 72t21 91q0 62 -33 112t-98.5 79
t-158.5 29t-158.5 -29t-98.5 -79t-33 -112t33 -112t98.5 -79t158.5 -29q38 0 65 4l-95 146h177z" />
    <glyph glyph-name="R" unicode="R" horiz-adv-x="875" 
d="M600 292q92 0 138.5 -41.5t46.5 -115.5v-135h-180v145q0 39 -27 59.5t-83 20.5h-235v-225h-180v700h440q145 0 220 -59.5t75 -155.5q0 -83 -57 -134t-158 -51v-8zM490 345q68 0 101.5 27.5t33.5 77.5t-33.5 77.5t-101.5 27.5h-230v-210h230z" />
    <glyph glyph-name="S" unicode="S" horiz-adv-x="795" 
d="M230 6.5q-86 21.5 -129 48.5v170q48 -32 135 -58.5t179 -26.5q70 0 102.5 20t32.5 50q0 26 -24 42.5t-60.5 25.5t-101.5 20q-97 17 -158.5 35t-106 59t-44.5 113q0 58 36.5 105.5t115.5 76t198 28.5q99 0 185 -23t130 -51v-175q-46 36 -136.5 65t-193.5 29
q-75 0 -110 -20.5t-35 -49.5q0 -26 24 -42.5t61 -26t101 -21.5q97 -17 158.5 -36t106 -60.5t44.5 -113.5q0 -57 -34.5 -103.5t-107.5 -74t-183 -27.5q-99 0 -185 21.5z" />
    <glyph glyph-name="T" unicode="T" 
d="M15 700h740v-155h-280v-545h-180v545h-280v155z" />
    <glyph glyph-name="U" unicode="U" horiz-adv-x="904" 
d="M169.5 67.5q-94.5 82.5 -94.5 232.5v400h180v-390q0 -170 197 -170t197 170v390h180v-400q0 -150 -94.5 -232.5t-282.5 -82.5t-282.5 82.5z" />
    <glyph glyph-name="V" unicode="V" horiz-adv-x="892" 
d="M577 0h-262l-320 700h195l252 -560h8l252 560h195z" />
    <glyph glyph-name="W" unicode="W" horiz-adv-x="1295" 
d="M487 0h-260l-222 700h190l174 -552h8l177 552h187l177 -552h8l174 552h190l-222 -700h-260l-156 503h-9z" />
    <glyph glyph-name="X" unicode="X" horiz-adv-x="810" 
d="M211 0h-216l302 360l-293 340h216l183 -222h5l182 222h216l-293 -340l302 -360h-216l-192 234h-5z" />
    <glyph glyph-name="Y" unicode="Y" horiz-adv-x="860" 
d="M520 0h-180v150l-360 550h200l246 -380h8l246 380h200l-360 -550v-150z" />
    <glyph glyph-name="Z" unicode="Z" horiz-adv-x="820" 
d="M770 0h-710v173l445 344v8h-441v175h686v-173l-445 -344v-8h465v-175z" />
    <glyph glyph-name="bracketleft" unicode="[" horiz-adv-x="375" 
d="M360 -190h-280v970h280v-145h-120v-680h120v-145z" />
    <glyph glyph-name="backslash" unicode="\" horiz-adv-x="534" 
d="M534 -70h-165l-369 840h165z" />
    <glyph glyph-name="bracketright" unicode="]" horiz-adv-x="375" 
d="M295 -190h-280v145h120v680h-120v145h280v-970z" />
    <glyph glyph-name="asciicircum" unicode="^" horiz-adv-x="575" 
d="M189 450h-169l165 250h205l165 -250h-169l-94 146h-9z" />
    <glyph glyph-name="underscore" unicode="_" horiz-adv-x="625" 
d="M645 -225h-665v125h665v-125z" />
    <glyph glyph-name="grave" unicode="`" horiz-adv-x="390" 
d="M335 565l-305 50l10 130h50l270 -125l-10 -55h-15z" />
    <glyph glyph-name="a" unicode="a" horiz-adv-x="740" 
d="M88.5 29q-53.5 44 -53.5 116q0 84 67 130.5t218 49.5q78 1 118.5 8t53.5 17t13 25q0 30 -34 47.5t-121 17.5q-77 0 -153 -19.5t-122 -43.5v148q42 23 121 41.5t169 18.5q320 0 320 -215v-370h-180v80h-6q-33 -36 -101.5 -65.5t-152.5 -29.5q-103 0 -156.5 44zM433 130
q50 20 72 45v104q-20 -11 -53.5 -19t-101.5 -10q-130 -4 -130 -75q0 -29 24.5 -47t75.5 -18q63 0 113 20z" />
    <glyph glyph-name="b" unicode="b" horiz-adv-x="805" 
d="M335.5 12q-60.5 27 -88.5 61h-7v-73h-180v720h180v-220h7q28 33 88.5 59t134.5 26q86 0 151.5 -37t102 -105t36.5 -158t-36.5 -158t-102 -105t-151.5 -37q-74 0 -134.5 27zM525 164q45 44 45 121t-45 121t-125 44q-53 0 -96.5 -20.5t-63.5 -46.5v-193q20 -27 63.5 -48.5
t96.5 -21.5q80 0 125 44z" />
    <glyph glyph-name="c" unicode="c" horiz-adv-x="710" 
d="M211 23.5q-81 38.5 -123.5 106.5t-42.5 155q0 88 43 155.5t126.5 106t201.5 38.5q74 0 140 -17t109 -41v-144q-41 27 -104.5 47t-126.5 20q-94 0 -146.5 -45t-52.5 -120q0 -74 52.5 -119.5t141.5 -45.5q64 0 124.5 19t91.5 43v-140q-34 -22 -99.5 -39.5t-140.5 -17.5
q-113 0 -194 38.5z" />
    <glyph glyph-name="d" unicode="d" horiz-adv-x="805" 
d="M183.5 22q-65.5 37 -102 105t-36.5 158t36.5 158t102 105t151.5 37q74 0 134.5 -26t88.5 -59h7v220h180v-720h-180v73h-7q-28 -34 -88.5 -61t-134.5 -27q-86 0 -151.5 37zM501.5 141.5q43.5 21.5 63.5 48.5v193q-20 26 -63.5 46.5t-96.5 20.5q-80 0 -125 -44t-45 -121
t45 -121t125 -44q53 0 96.5 21.5z" />
    <glyph glyph-name="e" unicode="e" horiz-adv-x="760" 
d="M213.5 23.5q-83.5 38.5 -126 106t-42.5 155.5t40.5 156t117.5 106t182 38q101 0 175.5 -38t114.5 -106.5t40 -155.5v-25h-482q11 -62 64.5 -96t147.5 -34q65 0 123.5 18t91.5 40v-148q-33 -21 -99 -38t-146 -17q-118 0 -201.5 38.5zM529 335q-7 57 -44 93.5t-100 36.5
t-103.5 -35t-48.5 -95h296z" />
    <glyph glyph-name="f" unicode="f" horiz-adv-x="460" 
d="M105 0v415h-105v75h105v40q0 100 57.5 152.5t154.5 52.5q41 0 67.5 -3.5t70.5 -14.5v-143q-28 9 -46.5 12.5t-39.5 3.5q-40 0 -62 -18t-22 -55v-27h150v-75h-150v-415h-180z" />
    <glyph glyph-name="g" unicode="g" horiz-adv-x="800" 
d="M215.5 -188q-75.5 17 -115.5 38v152q39 -24 106.5 -43t138.5 -19q107 0 161 46t54 124v17h-7q-26 -34 -85 -62t-133 -28q-88 0 -153.5 34.5t-101 96.5t-35.5 142q0 81 35.5 143.5t101 97t153.5 34.5q74 0 133 -28t85 -62h7v75h180v-460q0 -147 -93.5 -231t-271.5 -84
q-84 0 -159.5 17zM494.5 189q44.5 22 65.5 49v146q-21 27 -65.5 49t-99.5 22q-78 0 -119 -37.5t-41 -106.5t41 -106.5t119 -37.5q55 0 99.5 22z" />
    <glyph glyph-name="h" unicode="h" horiz-adv-x="750" 
d="M60 0v720h180v-236h7q24 38 82.5 69.5t135.5 31.5q110 0 170 -58t60 -162v-365h-180v330q0 57 -32.5 88.5t-92.5 31.5q-54 0 -94 -25.5t-56 -57.5v-367h-180z" />
    <glyph glyph-name="i" unicode="i" horiz-adv-x="300" 
d="M67 625.5q-30 25.5 -30 66.5q0 42 30 67.5t83 25.5q52 0 82 -25.5t30 -67.5q0 -41 -30 -66.5t-82 -25.5q-53 0 -83 25.5zM60 0v570h8q36 -16 82 -16t82 16h8v-570h-180z" />
    <glyph glyph-name="j" unicode="j" horiz-adv-x="300" 
d="M67 625.5q-30 25.5 -30 66.5q0 42 30 67.5t83 25.5q52 0 82 -25.5t30 -67.5q0 -41 -30 -66.5t-82 -25.5q-53 0 -83 25.5zM-35 -202q-25 3 -62 11v137q44 -11 77 -11q37 0 58.5 22t21.5 66v547h8q13 -6 35.5 -11t46.5 -5t46.5 5t35.5 11h8v-546q0 -111 -55.5 -170
t-165.5 -59q-29 0 -54 3z" />
    <glyph glyph-name="k" unicode="k" horiz-adv-x="725" 
d="M240 0h-180v720h180v-383h2l262 233h231l-310 -268l309 -302h-230l-262 269h-2v-269z" />
    <glyph glyph-name="l" unicode="l" horiz-adv-x="300" 
d="M240 0h-180v720h180v-720z" />
    <glyph glyph-name="m" unicode="m" horiz-adv-x="1125" 
d="M60 0v570h180v-80h7q21 36 70 65.5t113 29.5q77 0 124 -30t69 -66h7q26 37 81 66.5t124 29.5q111 0 173 -59t62 -161v-365h-180v340q0 51 -29.5 80.5t-80.5 29.5q-44 0 -78.5 -20.5t-49.5 -45.5q3 -15 3 -26v-358h-180v340q0 51 -28.5 80.5t-76.5 29.5q-49 0 -83.5 -24
t-46.5 -54v-372h-180z" />
    <glyph glyph-name="n" unicode="n" horiz-adv-x="750" 
d="M60 0v570h180v-86h7q24 38 82.5 69.5t135.5 31.5q110 0 170 -58t60 -162v-365h-180v330q0 57 -32.5 88.5t-92.5 31.5q-54 0 -94 -25.5t-56 -57.5v-367h-180z" />
    <glyph glyph-name="o" unicode="o" horiz-adv-x="830" 
d="M213.5 23.5q-83.5 38.5 -126 106t-42.5 155.5t42.5 155.5t126 106t201.5 38.5t201.5 -38.5t126 -106t42.5 -155.5q0 -87 -42.5 -155t-126 -106.5t-201.5 -38.5t-201.5 38.5zM547.5 160.5q47.5 45.5 47.5 124.5t-47.5 124.5t-132.5 45.5t-132.5 -45.5t-47.5 -124.5
t47.5 -124.5t132.5 -45.5t132.5 45.5z" />
    <glyph glyph-name="p" unicode="p" horiz-adv-x="805" 
d="M60 -190v760h180v-70h7q28 33 88.5 59t134.5 26q86 0 151.5 -37t102 -105t36.5 -158t-36.5 -158t-102 -105t-151.5 -37q-74 0 -134.5 27t-88.5 61h-7v-263h-180zM525 164q45 44 45 121t-45 121t-125 44q-53 0 -96.5 -20.5t-63.5 -46.5v-193q20 -27 63.5 -48.5t96.5 -21.5
q80 0 125 44z" />
    <glyph glyph-name="q" unicode="q" horiz-adv-x="805" 
d="M565 -190v263h-7q-28 -34 -88.5 -61t-134.5 -27q-86 0 -151.5 36.5t-102 104.5t-36.5 159q0 90 36.5 158t102.5 105t152 37q73 0 133.5 -26.5t88.5 -58.5h7v70h180v-760h-180zM501.5 141.5q43.5 21.5 63.5 48.5v193q-20 26 -63.5 46.5t-96.5 20.5q-80 0 -125 -44
t-45 -121t45 -121t125 -44q53 0 96.5 21.5z" />
    <glyph glyph-name="r" unicode="r" horiz-adv-x="505" 
d="M60 0v570h180v-86h7q23 38 71.5 69.5t106.5 31.5h55v-175h-55q-77 0 -125 -24t-60 -53v-333h-180z" />
    <glyph glyph-name="s" unicode="s" horiz-adv-x="655" 
d="M183.5 4q-74.5 19 -113.5 42v149q44 -24 116.5 -44.5t143.5 -20.5q105 0 105 50q0 28 -34 39.5t-109 23.5q-82 13 -134 28t-90 50.5t-38 98.5q0 72 71.5 118.5t223.5 46.5q88 0 166.5 -20t118.5 -44v-153q-50 27 -129 49.5t-156 22.5q-61 0 -85.5 -13.5t-24.5 -38.5
q0 -27 33.5 -39t107.5 -23q82 -13 134.5 -28.5t91 -52t38.5 -100.5q0 -44 -29 -80t-91 -58t-155 -22q-87 0 -161.5 19z" />
    <glyph glyph-name="t" unicode="t" horiz-adv-x="485" 
d="M156.5 43.5q-61.5 58.5 -61.5 171.5v280h-95v75h45q27 0 38.5 12.5t11.5 42.5v70h180v-125h170v-75h-170v-273q0 -45 23.5 -68.5t67.5 -23.5q43 0 79 12v-141q-37 -9 -59.5 -12.5t-54.5 -3.5q-113 0 -174.5 58.5z" />
    <glyph glyph-name="u" unicode="u" horiz-adv-x="750" 
d="M116 43.5q-61 58.5 -61 161.5v365h180v-330q0 -57 32.5 -88.5t92.5 -31.5q53 0 93 25.5t57 57.5v367h180v-570h-180v86h-8q-24 -38 -81 -69.5t-131 -31.5q-113 0 -174 58.5z" />
    <glyph glyph-name="v" unicode="v" horiz-adv-x="695" 
d="M458 0h-221l-242 570h180l170 -408h5l170 408h180z" />
    <glyph glyph-name="w" unicode="w" horiz-adv-x="1056" 
d="M402 0h-216l-181 570h178l125 -406h5l135 406h160l135 -406h5l125 406h178l-181 -570h-216l-123 370h-6z" />
    <glyph glyph-name="x" unicode="x" horiz-adv-x="678" 
d="M200 0h-205l243 288l-237 282h205l129 -164h8l129 164h205l-239 -280l245 -290h-205l-135 167h-8z" />
    <glyph glyph-name="y" unicode="y" horiz-adv-x="695" 
d="M340 -190h-185l120 253l-280 507h192l171 -319h5l147 319h190z" />
    <glyph glyph-name="z" unicode="z" horiz-adv-x="670" 
d="M625 0h-585v147l392 265v8h-387v150h575v-148l-392 -265v-7h397v-150z" />
    <glyph glyph-name="braceleft" unicode="{" horiz-adv-x="400" 
d="M330 -190q-106 0 -155.5 48.5t-49.5 151.5v140q0 36 -17 53t-53 17h-25v135h25q36 0 53 17t17 53v155q0 103 49.5 151.5t155.5 48.5h55v-145h-35q-65 0 -65 -70v-140q0 -70 -31 -101.5t-99 -31.5v-10q68 0 99 -31.5t31 -100.5v-125q0 -70 65 -70h35v-145h-55z" />
    <glyph glyph-name="bar" unicode="|" horiz-adv-x="400" 
d="M280 -170h-160v970h160v-970z" />
    <glyph glyph-name="braceright" unicode="}" horiz-adv-x="400" 
d="M15 -190v145h35q65 0 65 70v125q0 69 31 100.5t99 31.5v10q-68 0 -99 31.5t-31 101.5v140q0 70 -65 70h-35v145h55q106 0 155.5 -48.5t49.5 -151.5v-155q0 -36 17 -53t53 -17h25v-135h-25q-36 0 -53 -17t-17 -53v-140q0 -103 -49.5 -151.5t-155.5 -48.5h-55z" />
    <glyph glyph-name="asciitilde" unicode="~" horiz-adv-x="645" 
d="M384 230.5q-27 15.5 -59 45.5q-21 20 -36 29.5t-34 9.5q-18 0 -29 -12t-11 -34v-44h-175v65q0 78 39 119t111 41q44 0 71 -15.5t59 -45.5q21 -20 36 -29.5t34 -9.5q18 0 29 12.5t11 33.5v44h175v-65q0 -78 -39 -119t-111 -41q-44 0 -71 15.5z" />
    <glyph glyph-name="uni00A0" unicode="&#xa0;" horiz-adv-x="290" 
 />
    <glyph glyph-name="exclamdown" unicode="&#xa1;" horiz-adv-x="320" 
d="M91 439q-26 24 -26 61t26 61t69 24t69 -24t26 -61t-26 -61t-69 -24t-69 24zM250 -190h-180v330l35 195h110l35 -195v-330z" />
    <glyph glyph-name="cent" unicode="&#xa2;" horiz-adv-x="710" 
d="M287.5 405q-52.5 -45 -52.5 -120q0 -74 52.5 -119.5t141.5 -45.5q64 0 124.5 19t91.5 43v-140q-24 -15 -66.5 -29.5t-93.5 -21.5v-106h-170v107q-128 21 -199 100t-71 193q0 113 70 191t200 101v98h170v-94q54 -6 101 -21t79 -33v-144q-41 27 -104.5 47t-126.5 20
q-94 0 -146.5 -45z" />
    <glyph glyph-name="sterling" unicode="&#xa3;" horiz-adv-x="740" 
d="M293 155h407v-155h-660v120q61 0 93 30t32 85q0 29 -12 65h-103v75h70q-17 37 -26 65.5t-9 59.5q0 62 34.5 111t102 76.5t163.5 27.5q92 0 171.5 -20.5t130.5 -47.5v-162q-54 29 -134 52t-153 23q-62 0 -96 -23.5t-34 -66.5q0 -21 7.5 -43.5t20.5 -51.5h227v-75h-194
q9 -31 9 -50q0 -29 -14.5 -52.5t-32.5 -35.5v-7z" />
    <glyph glyph-name="currency" unicode="&#xa4;" horiz-adv-x="682" 
d="M564 238l58 -57l-81 -80l-65 63q-58 -29 -134 -29q-74 0 -135 29l-66 -63l-81 80l58 58q-33 52 -33 112q0 62 34 111l-59 58l81 80l66 -63q61 29 135 29q76 0 134 -29l65 63l81 -80l-58 -58q34 -49 34 -111t-34 -113zM434 281.5q34 25.5 34 69.5q0 43 -34 69t-93 26
q-58 0 -92 -26t-34 -69q0 -44 34 -69.5t92 -25.5q59 0 93 25.5z" />
    <glyph glyph-name="yen" unicode="&#xa5;" horiz-adv-x="860" 
d="M661 700h209l-293 -370h168v-75h-225v-80h225v-75h-225v-100h-180v100h-225v75h225v80h-225v75h168l-293 370h209l227 -293h8z" />
    <glyph glyph-name="brokenbar" unicode="&#xa6;" horiz-adv-x="400" 
d="M280 390h-160v410h160v-410zM280 -170h-160v410h160v-410z" />
    <glyph glyph-name="section" unicode="&#xa7;" horiz-adv-x="720" 
d="M222.5 -167q-73.5 18 -117.5 40v151q50 -27 120.5 -48t134.5 -21q55 0 82.5 16.5t27.5 38.5q0 32 -38.5 50.5t-121.5 40.5q-79 22 -127 40.5t-83 52.5t-35 86q0 37 20 63.5t46 40.5t47 18v8q-53 20 -83 52t-30 78q0 78 71.5 126.5t228.5 48.5q85 0 161 -16.5t119 -37.5
v-156q-49 27 -122.5 48.5t-147.5 21.5t-102 -15.5t-28 -44.5q0 -28 36.5 -43.5t118.5 -36.5q81 -20 133 -38.5t89.5 -53t37.5 -88.5q0 -36 -20.5 -62.5t-48.5 -41t-51 -18.5v-8q53 -23 81.5 -56t28.5 -84q0 -46 -29.5 -84.5t-91 -62t-154.5 -23.5q-79 0 -152.5 18z
M271 221.5q31 -22.5 95 -38.5l49 -12q21 8 45.5 31t24.5 53q0 37 -31.5 59.5t-95.5 38.5l-49 12q-20 -7 -44.5 -31t-24.5 -54q0 -36 31 -58.5z" />
    <glyph glyph-name="dieresis" unicode="&#xa8;" horiz-adv-x="505" 
d="M56 584.5q-26 24.5 -26 60.5t26 60.5t67 24.5q40 0 66 -24.5t26 -60.5t-26 -60.5t-66 -24.5q-41 0 -67 24.5zM316 584.5q-26 24.5 -26 60.5t26 60.5t67 24.5q40 0 66 -24.5t26 -60.5t-26 -60.5t-66 -24.5q-41 0 -67 24.5z" />
    <glyph glyph-name="copyright" unicode="&#xa9;" horiz-adv-x="1025" 
d="M273.5 29q-101.5 49 -155 133.5t-53.5 187.5t53.5 187.5t155 133.5t238.5 49q138 0 239.5 -49t155 -133.5t53.5 -187.5t-53.5 -187.5t-155 -133.5t-239.5 -49q-137 0 -238.5 49zM701 98.5q80 38.5 122 104.5t42 147t-42 147t-122 104.5t-189 38.5q-108 0 -188 -38.5
t-122 -104.5t-42 -147t42 -147t122 -104.5t188 -38.5q109 0 189 38.5zM394.5 176q-53.5 26 -81.5 71.5t-28 102.5t28 102.5t81.5 71.5t125.5 26q51 0 99.5 -11.5t75.5 -25.5v-114q-26 14 -68.5 25t-86.5 11q-61 0 -90.5 -23t-29.5 -62t29.5 -62t90.5 -23q42 0 80 11t60 25
v-114q-23 -14 -66.5 -25.5t-93.5 -11.5q-72 0 -125.5 26z" />
    <glyph glyph-name="ordfeminine" unicode="&#xaa;" horiz-adv-x="460" 
d="M57.5 394.5q-32.5 24.5 -32.5 62.5q0 45 40 68.5t141 23.5q57 0 75.5 8.5t18.5 23.5q0 29 -73 29q-51 0 -98 -9.5t-73 -20.5v100q31 11 83.5 20.5t107.5 9.5q90 0 131.5 -32.5t41.5 -98.5v-202h-120v43h-5q-21 -19 -59.5 -34.5t-83.5 -15.5q-62 0 -94.5 24.5z
M259.5 459.5q27.5 9.5 40.5 20.5v39q-10 -7 -33.5 -13t-54.5 -6q-34 0 -46.5 -6.5t-12.5 -18.5t10.5 -18.5t36.5 -6.5q32 0 59.5 9.5z" />
    <glyph glyph-name="guillemotleft" unicode="&#xab;" horiz-adv-x="650" 
d="M345 75h-175l-140 210l140 210h175l-140 -210zM615 75h-175l-140 210l140 210h175l-140 -210z" />
    <glyph glyph-name="logicalnot" unicode="&#xac;" horiz-adv-x="640" 
d="M575 185h-135v125h-385v130h520v-255z" />
    <glyph glyph-name="uni00AD" unicode="&#xad;" horiz-adv-x="520" 
d="M470 245h-420v135h420v-135z" />
    <glyph glyph-name="registered" unicode="&#xae;" horiz-adv-x="320" 
d="M59 515q-39 35 -39 85t39 85t101 35t101 -35t39 -85t-39 -85t-101 -35t-101 35zM233.5 539.5q26.5 24.5 26.5 60.5t-26.5 60.5t-73.5 24.5t-73.5 -24.5t-26.5 -60.5t26.5 -60.5t73.5 -24.5t73.5 24.5zM105 545v110h67q24 0 36 -9t12 -23t-11 -22t-34 -8v-4h4q36 0 36 -27
v-17h-40v21q0 12 -13 12h-17v-33h-40zM162 602q13 0 13 11q0 12 -13 12h-17v-23h17z" />
    <glyph glyph-name="macron" unicode="&#xaf;" horiz-adv-x="470" 
d="M440 605h-410v110h410v-110z" />
    <glyph glyph-name="degree" unicode="&#xb0;" horiz-adv-x="440" 
d="M120.5 407q-43.5 22 -67 60t-23.5 83t23.5 83t67 60t99.5 22t99.5 -22t67 -60t23.5 -83t-23.5 -83t-67 -60t-99.5 -22t-99.5 22zM270.5 507q19.5 17 19.5 43t-19.5 43t-50.5 17t-50.5 -17t-19.5 -43t19.5 -43t50.5 -17t50.5 17z" />
    <glyph glyph-name="plusminus" unicode="&#xb1;" horiz-adv-x="640" 
d="M585 10h-530v100h200v130h-200v130h200v195h130v-195h200v-130h-200v-130h200v-100z" />
    <glyph glyph-name="uni00B2" unicode="&#xb2;" horiz-adv-x="410" 
d="M40 450v75l115 69q47 28 68.5 48t21.5 38q0 40 -54 40q-31 0 -76 -17t-80 -38v100q31 19 82.5 34.5t105.5 15.5q76 0 114 -28t38 -72q0 -40 -31.5 -72.5t-108.5 -70.5l-44 -22v-5h177v-95h-328z" />
    <glyph glyph-name="uni00B3" unicode="&#xb3;" horiz-adv-x="400" 
d="M105.5 444.5q-44.5 9.5 -70.5 20.5v95q27 -12 66.5 -21t73.5 -9q70 0 70 36q0 19 -16 29t-54 10q-42 0 -80 -10v49l96 56v5h-151v95h316v-61l-133 -74v-5q74 0 113 -30t39 -75q0 -31 -20.5 -58.5t-61 -44.5t-96.5 -17q-47 0 -91.5 9.5z" />
    <glyph glyph-name="acute" unicode="&#xb4;" horiz-adv-x="390" 
d="M55 565h-15l-10 55l270 125h50l10 -130z" />
    <glyph glyph-name="uni00B5" unicode="&#xb5;" horiz-adv-x="755" 
d="M60 -190v760h180v-315q0 -135 135 -135q45 0 83 23.5t57 51.5v375h180v-570h-155l-25 80h-7q-22 -34 -71.5 -62t-111.5 -28q-28 0 -50 7.5t-32 17.5h-3v-205h-180z" />
    <glyph glyph-name="paragraph" unicode="&#xb6;" horiz-adv-x="820" 
d="M280 -190v380h-10q-67 0 -120.5 31.5t-84 89.5t-30.5 134t30.5 134t84 89.5t120.5 31.5h520v-155h-85v-735h-160v735h-105v-735h-160z" />
    <glyph glyph-name="periodcentered" unicode="&#xb7;" horiz-adv-x="290" 
d="M76 259q-26 24 -26 61t26 61t69 24t69 -24t26 -61t-26 -61t-69 -24t-69 24z" />
    <glyph glyph-name="cedilla" unicode="&#xb8;" horiz-adv-x="320" 
d="M179 -61q53 0 82 -25t29 -68q0 -46 -38 -73.5t-107 -27.5q-60 0 -115 16v83q50 -14 94 -14q25 0 38 7t13 19q0 23 -36 23h-78l-20 21l31 104l98 -4l-18 -61h27z" />
    <glyph glyph-name="uni00B9" unicode="&#xb9;" horiz-adv-x="380" 
d="M45 450v90h95v130h-95v85h55q45 0 45 45h125v-260h90v-90h-315z" />
    <glyph glyph-name="ordmasculine" unicode="&#xba;" horiz-adv-x="470" 
d="M119 392.5q-49 22.5 -74 61t-25 86.5t25 86.5t74 61t116 22.5t116 -22.5t74 -61t25 -86.5t-25 -86.5t-74 -61t-116 -22.5t-116 22.5zM296.5 485.5q23.5 20.5 23.5 54.5t-23.5 54.5t-61.5 20.5t-61.5 -20.5t-23.5 -54.5t23.5 -54.5t61.5 -20.5t61.5 20.5z" />
    <glyph glyph-name="guillemotright" unicode="&#xbb;" horiz-adv-x="650" 
d="M350 285l-140 -210h-175l140 210l-140 210h175zM620 285l-140 -210h-175l140 210l-140 210h175z" />
    <glyph glyph-name="onequarter" unicode="&#xbc;" horiz-adv-x="980" 
d="M40 350v90h95v130h-95v85h55q45 0 45 45h125v-260h90v-90h-315zM377 0h-155l385 700h155zM905 0h-130v70h-215v60l140 220h133l-135 -214v-6h77l18 85h112v-85h45v-60h-45v-70z" />
    <glyph glyph-name="onehalf" unicode="&#xbd;" horiz-adv-x="1020" 
d="M40 350v90h95v130h-95v85h55q45 0 45 45h125v-260h90v-90h-315zM377 0h-155l385 700h155zM630 0v75l115 69q47 28 68.5 48t21.5 38q0 40 -54 40q-31 0 -76 -17t-80 -38v100q31 19 82.5 34.5t105.5 15.5q76 0 114 -28t38 -72q0 -40 -31.5 -72.5t-108.5 -70.5l-44 -22v-5
h177v-95h-328z" />
    <glyph glyph-name="threequarters" unicode="&#xbe;" horiz-adv-x="995" 
d="M115.5 344.5q-44.5 9.5 -70.5 20.5v95q27 -12 66.5 -21t73.5 -9q70 0 70 36q0 19 -16 29t-54 10q-42 0 -80 -10v49l96 56v5h-151v95h316v-61l-133 -74v-5q74 0 113 -30t39 -75q0 -31 -20.5 -58.5t-61 -44.5t-96.5 -17q-47 0 -91.5 9.5zM392 0h-155l385 700h155zM920 0
h-130v70h-215v60l140 220h133l-135 -214v-6h77l18 85h112v-85h45v-60h-45v-70z" />
    <glyph glyph-name="questiondown" unicode="&#xbf;" horiz-adv-x="635" 
d="M279 439q-26 24 -26 61t26 61t69 24t69 -24t26 -61t-26 -61t-69 -24t-69 24zM146.5 -179q-70.5 26 -103.5 70t-33 99q0 61 41 106.5t103 72t126 34.5v142h133l33 -200q-96 -4 -173.5 -34t-77.5 -81q0 -34 37.5 -57t117.5 -23q82 0 160.5 24.5t124.5 54.5v-167
q-44 -26 -128.5 -46.5t-181.5 -20.5q-108 0 -178.5 26z" />
    <glyph glyph-name="Agrave" unicode="&#xc0;" horiz-adv-x="916" 
d="M916 0h-199l-74 155h-370l-74 -155h-199l342 700h232zM454 533l-131 -273h270l-131 273h-8zM612 765h-15l-305 50l10 130h50l270 -125z" />
    <glyph glyph-name="Aacute" unicode="&#xc1;" horiz-adv-x="916" 
d="M916 0h-199l-74 155h-370l-74 -155h-199l342 700h232zM454 533l-131 -273h270l-131 273h-8zM318 765h-15l-10 55l270 125h50l10 -130z" />
    <glyph glyph-name="Acircumflex" unicode="&#xc2;" horiz-adv-x="916" 
d="M916 0h-199l-74 155h-370l-74 -155h-199l342 700h232zM454 533l-131 -273h270l-131 273h-8zM356 780h-153l168 145h174l168 -145h-153l-97 85h-10z" />
    <glyph glyph-name="Atilde" unicode="&#xc3;" horiz-adv-x="916" 
d="M916 0h-199l-74 155h-370l-74 -155h-199l342 700h232zM454 533l-131 -273h270l-131 273h-8zM513 785.5q-24 10.5 -51 29.5q-17 12 -28.5 18t-22.5 6q-13 0 -20.5 -7.5t-7.5 -22.5v-29h-140v50q0 47 27 73.5t76 26.5q33 0 56 -10.5t51 -29.5q17 -13 28 -18.5t23 -5.5
q29 0 29 30v29h140v-50q0 -47 -27 -73.5t-76 -26.5q-33 0 -57 10.5z" />
    <glyph glyph-name="Adieresis" unicode="&#xc4;" horiz-adv-x="916" 
d="M916 0h-199l-74 155h-370l-74 -155h-199l342 700h232zM454 533l-131 -273h270l-131 273h-8zM261 789.5q-26 24.5 -26 60.5t26 60.5t67 24.5q40 0 66 -24.5t26 -60.5t-26 -60.5t-66 -24.5q-41 0 -67 24.5zM521 789.5q-26 24.5 -26 60.5t26 60.5t67 24.5q40 0 66 -24.5
t26 -60.5t-26 -60.5t-66 -24.5q-41 0 -67 24.5z" />
    <glyph glyph-name="Aring" unicode="&#xc5;" horiz-adv-x="916" 
d="M916 0h-199l-74 155h-370l-74 -155h-199l342 700h232zM454 533l-131 -273h270l-131 273h-8zM350.5 780.5q-37.5 30.5 -37.5 79.5t37.5 79.5t107.5 30.5t107.5 -30.5t37.5 -79.5t-37.5 -79.5t-107.5 -30.5t-107.5 30.5zM499 833.5q14 10.5 14 26.5t-14 26.5t-41 10.5
t-41 -10.5t-14 -26.5t14 -26.5t41 -10.5t41 10.5z" />
    <glyph glyph-name="AE" unicode="&#xc6;" horiz-adv-x="1190" 
d="M730 300v-155h410v-145h-590v180h-285l-83 -180h-192l322 700h808v-145h-390v-150h350v-105h-350zM437 555l-124 -270h237v270h-113z" />
    <glyph glyph-name="Ccedilla" unicode="&#xc7;" horiz-adv-x="900" 
d="M386.5 536.5q-65.5 -28.5 -98.5 -77.5t-33 -109q0 -59 32.5 -108t94.5 -78t148 -29q89 0 165 22t115 49v-160q-40 -22 -116.5 -41t-167.5 -20l-14 -46h27q53 0 82 -25t29 -68q0 -46 -38 -73.5t-107 -27.5q-60 0 -115 16v83q50 -14 94 -14q25 0 38 7t13 19q0 23 -36 23
h-78l-20 21l27 90q-115 14 -197 64.5t-124 127t-42 168.5q0 104 54 187t160 130.5t256 47.5q99 0 181.5 -22.5t123.5 -49.5v-160q-41 31 -121 56.5t-174 25.5q-93 0 -158.5 -28.5z" />
    <glyph glyph-name="Egrave" unicode="&#xc8;" horiz-adv-x="755" 
d="M260 300v-155h445v-145h-625v700h605v-145h-425v-150h385v-105h-385zM552 765h-15l-305 50l10 130h50l270 -125z" />
    <glyph glyph-name="Eacute" unicode="&#xc9;" horiz-adv-x="755" 
d="M260 300v-155h445v-145h-625v700h605v-145h-425v-150h385v-105h-385zM260 765h-15l-10 55l270 125h50l10 -130z" />
    <glyph glyph-name="Ecircumflex" unicode="&#xca;" horiz-adv-x="755" 
d="M260 300v-155h445v-145h-625v700h605v-145h-425v-150h385v-105h-385zM281 780h-153l168 145h174l168 -145h-153l-97 85h-10z" />
    <glyph glyph-name="Edieresis" unicode="&#xcb;" horiz-adv-x="755" 
d="M260 300v-155h445v-145h-625v700h605v-145h-425v-150h385v-105h-385zM186 789.5q-26 24.5 -26 60.5t26 60.5t67 24.5q40 0 66 -24.5t26 -60.5t-26 -60.5t-66 -24.5q-41 0 -67 24.5zM446 789.5q-26 24.5 -26 60.5t26 60.5t67 24.5q40 0 66 -24.5t26 -60.5t-26 -60.5
t-66 -24.5q-41 0 -67 24.5z" />
    <glyph glyph-name="Igrave" unicode="&#xcc;" horiz-adv-x="778" 
d="M738 700v-145h-259v-410h259v-145h-698v145h259v410h-259v145h698zM554 765h-15l-305 50l10 130h50l270 -125z" />
    <glyph glyph-name="Iacute" unicode="&#xcd;" horiz-adv-x="778" 
d="M738 700v-145h-259v-410h259v-145h-698v145h259v410h-259v145h698zM239 765h-15l-10 55l270 125h50l10 -130z" />
    <glyph glyph-name="Icircumflex" unicode="&#xce;" horiz-adv-x="778" 
d="M738 700v-145h-259v-410h259v-145h-698v145h259v410h-259v145h698zM287 780h-153l168 145h174l168 -145h-153l-97 85h-10z" />
    <glyph glyph-name="Idieresis" unicode="&#xcf;" horiz-adv-x="778" 
d="M738 700v-145h-259v-410h259v-145h-698v145h259v410h-259v145h698zM192 789.5q-26 24.5 -26 60.5t26 60.5t67 24.5q40 0 66 -24.5t26 -60.5t-26 -60.5t-66 -24.5q-41 0 -67 24.5zM452 789.5q-26 24.5 -26 60.5t26 60.5t67 24.5q40 0 66 -24.5t26 -60.5t-26 -60.5
t-66 -24.5q-41 0 -67 24.5z" />
    <glyph glyph-name="Eth" unicode="&#xd0;" horiz-adv-x="970" 
d="M445 700q152 0 255 -44.5t154 -123.5t51 -182t-51 -182t-154 -123.5t-255 -44.5h-350v290h-70v105h70v305h350zM445 140q136 0 203 55.5t67 154.5t-67 154.5t-203 55.5h-170v-165h215v-105h-215v-150h170z" />
    <glyph glyph-name="Ntilde" unicode="&#xd1;" horiz-adv-x="925" 
d="M255 0h-175v700h288l294 -533h8v533h175v-700h-288l-294 533h-8v-533zM525 785.5q-24 10.5 -51 29.5q-17 12 -28.5 18t-22.5 6q-13 0 -20.5 -7.5t-7.5 -22.5v-29h-140v50q0 47 27 73.5t76 26.5q33 0 56 -10.5t51 -29.5q17 -13 28 -18.5t23 -5.5q29 0 29 30v29h140v-50
q0 -47 -27 -73.5t-76 -26.5q-33 0 -57 10.5z" />
    <glyph glyph-name="Ograve" unicode="&#xd2;" horiz-adv-x="1090" 
d="M282 32.5q-108 47.5 -162.5 130t-54.5 187.5t54.5 187.5t162.5 130t263 47.5t263 -47.5t162.5 -130t54.5 -187.5t-54.5 -187.5t-162.5 -130t-263 -47.5t-263 47.5zM703.5 159q65.5 29 98.5 79t33 112t-33 112t-98.5 79t-158.5 29t-158.5 -29t-98.5 -79t-33 -112t33 -112
t98.5 -79t158.5 -29t158.5 29zM710 765h-15l-305 50l10 130h50l270 -125z" />
    <glyph glyph-name="Oacute" unicode="&#xd3;" horiz-adv-x="1090" 
d="M282 32.5q-108 47.5 -162.5 130t-54.5 187.5t54.5 187.5t162.5 130t263 47.5t263 -47.5t162.5 -130t54.5 -187.5t-54.5 -187.5t-162.5 -130t-263 -47.5t-263 47.5zM703.5 159q65.5 29 98.5 79t33 112t-33 112t-98.5 79t-158.5 29t-158.5 -29t-98.5 -79t-33 -112t33 -112
t98.5 -79t158.5 -29t158.5 29zM395 765h-15l-10 55l270 125h50l10 -130z" />
    <glyph glyph-name="Ocircumflex" unicode="&#xd4;" horiz-adv-x="1090" 
d="M282 32.5q-108 47.5 -162.5 130t-54.5 187.5t54.5 187.5t162.5 130t263 47.5t263 -47.5t162.5 -130t54.5 -187.5t-54.5 -187.5t-162.5 -130t-263 -47.5t-263 47.5zM703.5 159q65.5 29 98.5 79t33 112t-33 112t-98.5 79t-158.5 29t-158.5 -29t-98.5 -79t-33 -112t33 -112
t98.5 -79t158.5 -29t158.5 29zM443 780h-153l168 145h174l168 -145h-153l-97 85h-10z" />
    <glyph glyph-name="Otilde" unicode="&#xd5;" horiz-adv-x="1090" 
d="M282 32.5q-108 47.5 -162.5 130t-54.5 187.5t54.5 187.5t162.5 130t263 47.5t263 -47.5t162.5 -130t54.5 -187.5t-54.5 -187.5t-162.5 -130t-263 -47.5t-263 47.5zM703.5 159q65.5 29 98.5 79t33 112t-33 112t-98.5 79t-158.5 29t-158.5 -29t-98.5 -79t-33 -112t33 -112
t98.5 -79t158.5 -29t158.5 29zM600 785.5q-24 10.5 -51 29.5q-17 12 -28.5 18t-22.5 6q-13 0 -20.5 -7.5t-7.5 -22.5v-29h-140v50q0 47 27 73.5t76 26.5q33 0 56 -10.5t51 -29.5q17 -13 28 -18.5t23 -5.5q29 0 29 30v29h140v-50q0 -47 -27 -73.5t-76 -26.5q-33 0 -57 10.5z
" />
    <glyph glyph-name="Odieresis" unicode="&#xd6;" horiz-adv-x="1090" 
d="M282 32.5q-108 47.5 -162.5 130t-54.5 187.5t54.5 187.5t162.5 130t263 47.5t263 -47.5t162.5 -130t54.5 -187.5t-54.5 -187.5t-162.5 -130t-263 -47.5t-263 47.5zM703.5 159q65.5 29 98.5 79t33 112t-33 112t-98.5 79t-158.5 29t-158.5 -29t-98.5 -79t-33 -112t33 -112
t98.5 -79t158.5 -29t158.5 29zM348 789.5q-26 24.5 -26 60.5t26 60.5t67 24.5q40 0 66 -24.5t26 -60.5t-26 -60.5t-66 -24.5q-41 0 -67 24.5zM608 789.5q-26 24.5 -26 60.5t26 60.5t67 24.5q40 0 66 -24.5t26 -60.5t-26 -60.5t-66 -24.5q-41 0 -67 24.5z" />
    <glyph glyph-name="multiply" unicode="&#xd7;" horiz-adv-x="640" 
d="M565 157l-96 -96l-149 150l-149 -150l-96 96l149 150l-149 149l96 96l149 -150l149 150l96 -96l-149 -149z" />
    <glyph glyph-name="Oslash" unicode="&#xd8;" horiz-adv-x="1090" 
d="M906 609q59 -49 89 -115.5t30 -143.5q0 -105 -54.5 -187.5t-162.5 -130t-263 -47.5q-163 0 -277 54l-44 -39h-143l103 92q-59 48 -89 114.5t-30 143.5q0 105 54.5 187.5t162.5 130t263 47.5q161 0 277 -54l43 39h143zM313 207l379 339q-64 24 -147 24q-93 0 -158.5 -29
t-98.5 -79t-33 -112q0 -83 58 -143zM703.5 159q65.5 29 98.5 79t33 112q0 86 -59 143l-379 -338q64 -25 148 -25q93 0 158.5 29z" />
    <glyph glyph-name="Ugrave" unicode="&#xd9;" horiz-adv-x="904" 
d="M169.5 67.5q-94.5 82.5 -94.5 232.5v400h180v-390q0 -170 197 -170t197 170v390h180v-400q0 -150 -94.5 -232.5t-282.5 -82.5t-282.5 82.5zM604 765h-15l-305 50l10 130h50l270 -125z" />
    <glyph glyph-name="Uacute" unicode="&#xda;" horiz-adv-x="904" 
d="M169.5 67.5q-94.5 82.5 -94.5 232.5v400h180v-390q0 -170 197 -170t197 170v390h180v-400q0 -150 -94.5 -232.5t-282.5 -82.5t-282.5 82.5zM315 765h-15l-10 55l270 125h50l10 -130z" />
    <glyph glyph-name="Ucircumflex" unicode="&#xdb;" horiz-adv-x="904" 
d="M169.5 67.5q-94.5 82.5 -94.5 232.5v400h180v-390q0 -170 197 -170t197 170v390h180v-400q0 -150 -94.5 -232.5t-282.5 -82.5t-282.5 82.5zM350 780h-153l168 145h174l168 -145h-153l-97 85h-10z" />
    <glyph glyph-name="Udieresis" unicode="&#xdc;" horiz-adv-x="904" 
d="M169.5 67.5q-94.5 82.5 -94.5 232.5v400h180v-390q0 -170 197 -170t197 170v390h180v-400q0 -150 -94.5 -232.5t-282.5 -82.5t-282.5 82.5zM255 789.5q-26 24.5 -26 60.5t26 60.5t67 24.5q40 0 66 -24.5t26 -60.5t-26 -60.5t-66 -24.5q-41 0 -67 24.5zM515 789.5
q-26 24.5 -26 60.5t26 60.5t67 24.5q40 0 66 -24.5t26 -60.5t-26 -60.5t-66 -24.5q-41 0 -67 24.5z" />
    <glyph glyph-name="Yacute" unicode="&#xdd;" horiz-adv-x="860" 
d="M520 0h-180v150l-360 550h200l246 -380h8l246 380h200l-360 -550v-150zM300 765h-15l-10 55l270 125h50l10 -130z" />
    <glyph glyph-name="Thorn" unicode="&#xde;" horiz-adv-x="905" 
d="M80 0v700h180v-125h305q150 0 222.5 -58t72.5 -160q0 -101 -72.5 -159t-222.5 -58h-305v-140h-180zM555 275q115 0 115 82q0 83 -115 83h-295v-165h295z" />
    <glyph glyph-name="germandbls" unicode="&#xdf;" horiz-adv-x="860" 
d="M473.5 -2q-56.5 13 -88.5 28v149q32 -17 82 -31t103 -14q42 0 61 14t19 36q0 26 -25 45t-76 43q-42 20 -67.5 35.5t-43.5 38.5t-18 53q0 41 27 64t76 45q30 15 43.5 24t13.5 22q0 25 -35 25h-190q-70 0 -70 -65v-510h-180v415h-105v75h105v50q0 180 190 180h275
q86 0 125.5 -29t39.5 -81q0 -36 -19 -61t-45 -40t-67 -32t-60 -30t-19 -32q0 -25 27.5 -42t86.5 -41q61 -24 100 -45t67.5 -56.5t28.5 -85.5q0 -43 -26.5 -79.5t-80.5 -58.5t-133 -22q-65 0 -121.5 13z" />
    <glyph glyph-name="agrave" unicode="&#xe0;" horiz-adv-x="740" 
d="M88.5 29q-53.5 44 -53.5 116q0 84 67 130.5t218 49.5q78 1 118.5 8t53.5 17t13 25q0 30 -34 47.5t-121 17.5q-77 0 -153 -19.5t-122 -43.5v148q42 23 121 41.5t169 18.5q320 0 320 -215v-370h-180v80h-6q-33 -36 -101.5 -65.5t-152.5 -29.5q-103 0 -156.5 44zM433 130
q50 20 72 45v104q-20 -11 -53.5 -19t-101.5 -10q-130 -4 -130 -75q0 -29 24.5 -47t75.5 -18q63 0 113 20zM540 625h-15l-305 50l10 130h50l270 -125z" />
    <glyph glyph-name="aacute" unicode="&#xe1;" horiz-adv-x="740" 
d="M88.5 29q-53.5 44 -53.5 116q0 84 67 130.5t218 49.5q78 1 118.5 8t53.5 17t13 25q0 30 -34 47.5t-121 17.5q-77 0 -153 -19.5t-122 -43.5v148q42 23 121 41.5t169 18.5q320 0 320 -215v-370h-180v80h-6q-33 -36 -101.5 -65.5t-152.5 -29.5q-103 0 -156.5 44zM433 130
q50 20 72 45v104q-20 -11 -53.5 -19t-101.5 -10q-130 -4 -130 -75q0 -29 24.5 -47t75.5 -18q63 0 113 20zM245 625h-15l-10 55l270 125h50l10 -130z" />
    <glyph glyph-name="acircumflex" unicode="&#xe2;" horiz-adv-x="740" 
d="M88.5 29q-53.5 44 -53.5 116q0 84 67 130.5t218 49.5q78 1 118.5 8t53.5 17t13 25q0 30 -34 47.5t-121 17.5q-77 0 -153 -19.5t-122 -43.5v148q42 23 121 41.5t169 18.5q320 0 320 -215v-370h-180v80h-6q-33 -36 -101.5 -65.5t-152.5 -29.5q-103 0 -156.5 44zM433 130
q50 20 72 45v104q-20 -11 -53.5 -19t-101.5 -10q-130 -4 -130 -75q0 -29 24.5 -47t75.5 -18q63 0 113 20zM268 640h-153l168 145h174l168 -145h-153l-97 85h-10z" />
    <glyph glyph-name="atilde" unicode="&#xe3;" horiz-adv-x="740" 
d="M88.5 29q-53.5 44 -53.5 116q0 84 67 130.5t218 49.5q78 1 118.5 8t53.5 17t13 25q0 30 -34 47.5t-121 17.5q-77 0 -153 -19.5t-122 -43.5v148q42 23 121 41.5t169 18.5q320 0 320 -215v-370h-180v80h-6q-33 -36 -101.5 -65.5t-152.5 -29.5q-103 0 -156.5 44zM433 130
q50 20 72 45v104q-20 -11 -53.5 -19t-101.5 -10q-130 -4 -130 -75q0 -29 24.5 -47t75.5 -18q63 0 113 20zM425 645.5q-24 10.5 -51 29.5q-17 12 -28.5 18t-22.5 6q-13 0 -20.5 -7.5t-7.5 -22.5v-29h-140v50q0 47 27 73.5t76 26.5q33 0 56 -10.5t51 -29.5q17 -13 28 -18.5
t23 -5.5q29 0 29 30v29h140v-50q0 -47 -27 -73.5t-76 -26.5q-33 0 -57 10.5z" />
    <glyph glyph-name="adieresis" unicode="&#xe4;" horiz-adv-x="740" 
d="M88.5 29q-53.5 44 -53.5 116q0 84 67 130.5t218 49.5q78 1 118.5 8t53.5 17t13 25q0 30 -34 47.5t-121 17.5q-77 0 -153 -19.5t-122 -43.5v148q42 23 121 41.5t169 18.5q320 0 320 -215v-370h-180v80h-6q-33 -36 -101.5 -65.5t-152.5 -29.5q-103 0 -156.5 44zM433 130
q50 20 72 45v104q-20 -11 -53.5 -19t-101.5 -10q-130 -4 -130 -75q0 -29 24.5 -47t75.5 -18q63 0 113 20zM173 649.5q-26 24.5 -26 60.5t26 60.5t67 24.5q40 0 66 -24.5t26 -60.5t-26 -60.5t-66 -24.5q-41 0 -67 24.5zM433 649.5q-26 24.5 -26 60.5t26 60.5t67 24.5
q40 0 66 -24.5t26 -60.5t-26 -60.5t-66 -24.5q-41 0 -67 24.5z" />
    <glyph glyph-name="aring" unicode="&#xe5;" horiz-adv-x="740" 
d="M88.5 29q-53.5 44 -53.5 116q0 84 67 130.5t218 49.5q78 1 118.5 8t53.5 17t13 25q0 30 -34 47.5t-121 17.5q-77 0 -153 -19.5t-122 -43.5v148q42 23 121 41.5t169 18.5q320 0 320 -215v-370h-180v80h-6q-33 -36 -101.5 -65.5t-152.5 -29.5q-103 0 -156.5 44zM433 130
q50 20 72 45v104q-20 -11 -53.5 -19t-101.5 -10q-130 -4 -130 -75q0 -29 24.5 -47t75.5 -18q63 0 113 20zM262.5 640.5q-37.5 30.5 -37.5 79.5t37.5 79.5t107.5 30.5t107.5 -30.5t37.5 -79.5t-37.5 -79.5t-107.5 -30.5t-107.5 30.5zM411 693.5q14 10.5 14 26.5t-14 26.5
t-41 10.5t-41 -10.5t-14 -26.5t14 -26.5t41 -10.5t41 10.5z" />
    <glyph glyph-name="ae" unicode="&#xe6;" horiz-adv-x="1165" 
d="M1120 255h-451q11 -62 55.5 -93.5t130.5 -31.5q64 0 121.5 17t88.5 38v-148q-31 -20 -93.5 -36t-136.5 -16q-94 0 -166.5 29t-118.5 81h-12q-32 -34 -99.5 -72t-168.5 -38q-119 0 -177 45.5t-58 124.5q0 175 265 175h180v15q0 34 -10.5 54t-41 30.5t-88.5 10.5
q-76 0 -148.5 -18t-116.5 -40v151q44 20 117.5 36t157.5 16q68 0 118.5 -13t80.5 -32.5t40 -39.5h7q26 33 85.5 59t138.5 26q88 0 156 -38.5t106 -107.5t38 -159v-25zM932 330q-3 60 -38.5 97.5t-93.5 37.5q-54 0 -90.5 -36.5t-43.5 -98.5h266zM433.5 129q44.5 19 69.5 43
q-16 39 -21 83h-147q-58 0 -86.5 -20t-28.5 -52q0 -34 27 -53.5t83 -19.5q59 0 103.5 19z" />
    <glyph glyph-name="ccedilla" unicode="&#xe7;" horiz-adv-x="710" 
d="M287.5 405q-52.5 -45 -52.5 -120q0 -74 52.5 -119.5t141.5 -45.5q64 0 124.5 19t91.5 43v-140q-32 -20 -91.5 -37t-127.5 -20l-14 -46h27q53 0 82 -25t29 -68q0 -46 -38 -73.5t-107 -27.5q-60 0 -115 16v83q50 -14 94 -14q25 0 38 7t13 19q0 23 -36 23h-78l-20 21l27 90
q-135 18 -209 98t-74 197q0 88 43 155.5t126.5 106t201.5 38.5q74 0 140 -17t109 -41v-144q-41 27 -104.5 47t-126.5 20q-94 0 -146.5 -45z" />
    <glyph glyph-name="egrave" unicode="&#xe8;" horiz-adv-x="760" 
d="M213.5 23.5q-83.5 38.5 -126 106t-42.5 155.5t40.5 156t117.5 106t182 38q101 0 175.5 -38t114.5 -106.5t40 -155.5v-25h-482q11 -62 64.5 -96t147.5 -34q65 0 123.5 18t91.5 40v-148q-33 -21 -99 -38t-146 -17q-118 0 -201.5 38.5zM529 335q-7 57 -44 93.5t-100 36.5
t-103.5 -35t-48.5 -95h296zM545 625h-15l-305 50l10 130h50l270 -125z" />
    <glyph glyph-name="eacute" unicode="&#xe9;" horiz-adv-x="760" 
d="M213.5 23.5q-83.5 38.5 -126 106t-42.5 155.5t40.5 156t117.5 106t182 38q101 0 175.5 -38t114.5 -106.5t40 -155.5v-25h-482q11 -62 64.5 -96t147.5 -34q65 0 123.5 18t91.5 40v-148q-33 -21 -99 -38t-146 -17q-118 0 -201.5 38.5zM529 335q-7 57 -44 93.5t-100 36.5
t-103.5 -35t-48.5 -95h296zM230 625h-15l-10 55l270 125h50l10 -130z" />
    <glyph glyph-name="ecircumflex" unicode="&#xea;" horiz-adv-x="760" 
d="M213.5 23.5q-83.5 38.5 -126 106t-42.5 155.5t40.5 156t117.5 106t182 38q101 0 175.5 -38t114.5 -106.5t40 -155.5v-25h-482q11 -62 64.5 -96t147.5 -34q65 0 123.5 18t91.5 40v-148q-33 -21 -99 -38t-146 -17q-118 0 -201.5 38.5zM529 335q-7 57 -44 93.5t-100 36.5
t-103.5 -35t-48.5 -95h296zM278 640h-153l168 145h174l168 -145h-153l-97 85h-10z" />
    <glyph glyph-name="edieresis" unicode="&#xeb;" horiz-adv-x="760" 
d="M213.5 23.5q-83.5 38.5 -126 106t-42.5 155.5t40.5 156t117.5 106t182 38q101 0 175.5 -38t114.5 -106.5t40 -155.5v-25h-482q11 -62 64.5 -96t147.5 -34q65 0 123.5 18t91.5 40v-148q-33 -21 -99 -38t-146 -17q-118 0 -201.5 38.5zM529 335q-7 57 -44 93.5t-100 36.5
t-103.5 -35t-48.5 -95h296zM183 649.5q-26 24.5 -26 60.5t26 60.5t67 24.5q40 0 66 -24.5t26 -60.5t-26 -60.5t-66 -24.5q-41 0 -67 24.5zM443 649.5q-26 24.5 -26 60.5t26 60.5t67 24.5q40 0 66 -24.5t26 -60.5t-26 -60.5t-66 -24.5q-41 0 -67 24.5z" />
    <glyph glyph-name="igrave" unicode="&#xec;" horiz-adv-x="300" 
d="M240 0h-180v570h180v-570zM285 625h-15l-305 50l10 130h50l270 -125z" />
    <glyph glyph-name="iacute" unicode="&#xed;" horiz-adv-x="300" 
d="M240 0h-180v570h180v-570zM35 625h-15l-10 55l270 125h50l10 -130z" />
    <glyph glyph-name="icircumflex" unicode="&#xee;" horiz-adv-x="300" 
d="M240 0h-180v570h180v-570zM48 640h-153l168 145h174l168 -145h-153l-97 85h-10z" />
    <glyph glyph-name="idieresis" unicode="&#xef;" horiz-adv-x="300" 
d="M240 0h-180v570h180v-570zM-47 649.5q-26 24.5 -26 60.5t26 60.5t67 24.5q40 0 66 -24.5t26 -60.5t-26 -60.5t-66 -24.5q-41 0 -67 24.5zM213 649.5q-26 24.5 -26 60.5t26 60.5t67 24.5q40 0 66 -24.5t26 -60.5t-26 -60.5t-66 -24.5q-41 0 -67 24.5z" />
    <glyph glyph-name="eth" unicode="&#xf0;" horiz-adv-x="825" 
d="M395 675q134 -18 217.5 -60.5t123 -114.5t39.5 -180q0 -167 -93 -251t-292 -84q-121 0 -200.5 30t-117 81t-37.5 116q0 61 33.5 110.5t103.5 78.5t173 29q105 0 167 -25.5t83 -59.5h8q0 74 -52.5 119t-182.5 62l-88 12l-15 -62l-79 10l16 62l-106 14l34 148l109 -14
l15 61l79 -10l-15 -62zM540.5 146q44.5 31 44.5 81q0 53 -43.5 83t-136.5 30q-92 0 -136 -31.5t-44 -81.5t44.5 -81t135.5 -31t135.5 31z" />
    <glyph glyph-name="ntilde" unicode="&#xf1;" horiz-adv-x="750" 
d="M60 0v570h180v-86h7q24 38 82.5 69.5t135.5 31.5q110 0 170 -58t60 -162v-365h-180v330q0 57 -32.5 88.5t-92.5 31.5q-54 0 -94 -25.5t-56 -57.5v-367h-180zM445 645.5q-24 10.5 -51 29.5q-17 12 -28.5 18t-22.5 6q-13 0 -20.5 -7.5t-7.5 -22.5v-29h-140v50q0 47 27 73.5
t76 26.5q33 0 56 -10.5t51 -29.5q17 -13 28 -18.5t23 -5.5q29 0 29 30v29h140v-50q0 -47 -27 -73.5t-76 -26.5q-33 0 -57 10.5z" />
    <glyph glyph-name="ograve" unicode="&#xf2;" horiz-adv-x="830" 
d="M213.5 23.5q-83.5 38.5 -126 106t-42.5 155.5t42.5 155.5t126 106t201.5 38.5t201.5 -38.5t126 -106t42.5 -155.5q0 -87 -42.5 -155t-126 -106.5t-201.5 -38.5t-201.5 38.5zM547.5 160.5q47.5 45.5 47.5 124.5t-47.5 124.5t-132.5 45.5t-132.5 -45.5t-47.5 -124.5
t47.5 -124.5t132.5 -45.5t132.5 45.5zM580 625h-15l-305 50l10 130h50l270 -125z" />
    <glyph glyph-name="oacute" unicode="&#xf3;" horiz-adv-x="830" 
d="M213.5 23.5q-83.5 38.5 -126 106t-42.5 155.5t42.5 155.5t126 106t201.5 38.5t201.5 -38.5t126 -106t42.5 -155.5q0 -87 -42.5 -155t-126 -106.5t-201.5 -38.5t-201.5 38.5zM547.5 160.5q47.5 45.5 47.5 124.5t-47.5 124.5t-132.5 45.5t-132.5 -45.5t-47.5 -124.5
t47.5 -124.5t132.5 -45.5t132.5 45.5zM265 625h-15l-10 55l270 125h50l10 -130z" />
    <glyph glyph-name="ocircumflex" unicode="&#xf4;" horiz-adv-x="830" 
d="M213.5 23.5q-83.5 38.5 -126 106t-42.5 155.5t42.5 155.5t126 106t201.5 38.5t201.5 -38.5t126 -106t42.5 -155.5q0 -87 -42.5 -155t-126 -106.5t-201.5 -38.5t-201.5 38.5zM547.5 160.5q47.5 45.5 47.5 124.5t-47.5 124.5t-132.5 45.5t-132.5 -45.5t-47.5 -124.5
t47.5 -124.5t132.5 -45.5t132.5 45.5zM313 640h-153l168 145h174l168 -145h-153l-97 85h-10z" />
    <glyph glyph-name="otilde" unicode="&#xf5;" horiz-adv-x="830" 
d="M213.5 23.5q-83.5 38.5 -126 106t-42.5 155.5t42.5 155.5t126 106t201.5 38.5t201.5 -38.5t126 -106t42.5 -155.5q0 -87 -42.5 -155t-126 -106.5t-201.5 -38.5t-201.5 38.5zM547.5 160.5q47.5 45.5 47.5 124.5t-47.5 124.5t-132.5 45.5t-132.5 -45.5t-47.5 -124.5
t47.5 -124.5t132.5 -45.5t132.5 45.5zM470 645.5q-24 10.5 -51 29.5q-17 12 -28.5 18t-22.5 6q-13 0 -20.5 -7.5t-7.5 -22.5v-29h-140v50q0 47 27 73.5t76 26.5q33 0 56 -10.5t51 -29.5q17 -13 28 -18.5t23 -5.5q29 0 29 30v29h140v-50q0 -47 -27 -73.5t-76 -26.5
q-33 0 -57 10.5z" />
    <glyph glyph-name="odieresis" unicode="&#xf6;" horiz-adv-x="830" 
d="M213.5 23.5q-83.5 38.5 -126 106t-42.5 155.5t42.5 155.5t126 106t201.5 38.5t201.5 -38.5t126 -106t42.5 -155.5q0 -87 -42.5 -155t-126 -106.5t-201.5 -38.5t-201.5 38.5zM547.5 160.5q47.5 45.5 47.5 124.5t-47.5 124.5t-132.5 45.5t-132.5 -45.5t-47.5 -124.5
t47.5 -124.5t132.5 -45.5t132.5 45.5zM218 649.5q-26 24.5 -26 60.5t26 60.5t67 24.5q40 0 66 -24.5t26 -60.5t-26 -60.5t-66 -24.5q-41 0 -67 24.5zM478 649.5q-26 24.5 -26 60.5t26 60.5t67 24.5q40 0 66 -24.5t26 -60.5t-26 -60.5t-66 -24.5q-41 0 -67 24.5z" />
    <glyph glyph-name="divide" unicode="&#xf7;" horiz-adv-x="640" 
d="M251 464q-26 24 -26 61t26 61t69 24t69 -24t26 -61t-26 -61t-69 -24t-69 24zM580 260h-520v105h520v-105zM251 39q-26 24 -26 61t26 61t69 24t69 -24t26 -61t-26 -61t-69 -24t-69 24z" />
    <glyph glyph-name="oslash" unicode="&#xf8;" horiz-adv-x="830" 
d="M686 504q49 -40 74 -96t25 -123q0 -87 -42.5 -155t-126 -106.5t-201.5 -38.5q-129 0 -220 47l-33 -32h-87l69 66q-49 40 -74 96t-25 123q0 88 42.5 155.5t126 106t201.5 38.5q128 0 218 -46l33 31h88zM264 182l257 248q-44 25 -106 25q-85 0 -132.5 -45.5t-47.5 -124.5
q0 -60 29 -103zM547.5 160.5q47.5 45.5 47.5 124.5q0 61 -29 104l-258 -248q44 -26 107 -26q85 0 132.5 45.5z" />
    <glyph glyph-name="ugrave" unicode="&#xf9;" horiz-adv-x="750" 
d="M116 43.5q-61 58.5 -61 161.5v365h180v-330q0 -57 32.5 -88.5t92.5 -31.5q53 0 93 25.5t57 57.5v367h180v-570h-180v86h-8q-24 -38 -81 -69.5t-131 -31.5q-113 0 -174 58.5zM531 625h-15l-305 50l10 130h50l270 -125z" />
    <glyph glyph-name="uacute" unicode="&#xfa;" horiz-adv-x="750" 
d="M116 43.5q-61 58.5 -61 161.5v365h180v-330q0 -57 32.5 -88.5t92.5 -31.5q53 0 93 25.5t57 57.5v367h180v-570h-180v86h-8q-24 -38 -81 -69.5t-131 -31.5q-113 0 -174 58.5zM230 625h-15l-10 55l270 125h50l10 -130z" />
    <glyph glyph-name="ucircumflex" unicode="&#xfb;" horiz-adv-x="750" 
d="M116 43.5q-61 58.5 -61 161.5v365h180v-330q0 -57 32.5 -88.5t92.5 -31.5q53 0 93 25.5t57 57.5v367h180v-570h-180v86h-8q-24 -38 -81 -69.5t-131 -31.5q-113 0 -174 58.5zM271 640h-153l168 145h174l168 -145h-153l-97 85h-10z" />
    <glyph glyph-name="udieresis" unicode="&#xfc;" horiz-adv-x="750" 
d="M116 43.5q-61 58.5 -61 161.5v365h180v-330q0 -57 32.5 -88.5t92.5 -31.5q53 0 93 25.5t57 57.5v367h180v-570h-180v86h-8q-24 -38 -81 -69.5t-131 -31.5q-113 0 -174 58.5zM176 649.5q-26 24.5 -26 60.5t26 60.5t67 24.5q40 0 66 -24.5t26 -60.5t-26 -60.5t-66 -24.5
q-41 0 -67 24.5zM436 649.5q-26 24.5 -26 60.5t26 60.5t67 24.5q40 0 66 -24.5t26 -60.5t-26 -60.5t-66 -24.5q-41 0 -67 24.5z" />
    <glyph glyph-name="yacute" unicode="&#xfd;" horiz-adv-x="695" 
d="M340 -190h-185l120 253l-280 507h192l171 -319h5l147 319h190zM215 625h-15l-10 55l270 125h50l10 -130z" />
    <glyph glyph-name="thorn" unicode="&#xfe;" horiz-adv-x="805" 
d="M60 -190v910h180v-221h7q28 33 88.5 59.5t134.5 26.5q86 0 151.5 -37t102 -105t36.5 -158t-36.5 -158t-102 -105t-151.5 -37q-74 0 -134.5 27t-88.5 61h-7v-263h-180zM525 164q45 44 45 121t-45 121t-125 44q-53 0 -96.5 -21t-63.5 -47v-192q20 -27 63.5 -48.5
t96.5 -21.5q80 0 125 44z" />
    <glyph glyph-name="ydieresis" unicode="&#xff;" horiz-adv-x="695" 
d="M340 -190h-185l120 253l-280 507h192l171 -319h5l147 319h190zM153 649.5q-26 24.5 -26 60.5t26 60.5t67 24.5q40 0 66 -24.5t26 -60.5t-26 -60.5t-66 -24.5q-41 0 -67 24.5zM413 649.5q-26 24.5 -26 60.5t26 60.5t67 24.5q40 0 66 -24.5t26 -60.5t-26 -60.5t-66 -24.5
q-41 0 -67 24.5z" />
    <glyph glyph-name="Amacron" unicode="&#x100;" horiz-adv-x="916" 
d="M916 0h-199l-74 155h-370l-74 -155h-199l342 700h232zM454 533l-131 -273h270l-131 273h-8zM663 795h-410v110h410v-110z" />
    <glyph glyph-name="amacron" unicode="&#x101;" horiz-adv-x="740" 
d="M88.5 29q-53.5 44 -53.5 116q0 84 67 130.5t218 49.5q78 1 118.5 8t53.5 17t13 25q0 30 -34 47.5t-121 17.5q-77 0 -153 -19.5t-122 -43.5v148q42 23 121 41.5t169 18.5q320 0 320 -215v-370h-180v80h-6q-33 -36 -101.5 -65.5t-152.5 -29.5q-103 0 -156.5 44zM433 130
q50 20 72 45v104q-20 -11 -53.5 -19t-101.5 -10q-130 -4 -130 -75q0 -29 24.5 -47t75.5 -18q63 0 113 20zM575 655h-410v110h410v-110z" />
    <glyph glyph-name="Abreve" unicode="&#x102;" horiz-adv-x="916" 
d="M916 0h-199l-74 155h-370l-74 -155h-199l342 700h232zM454 533l-131 -273h270l-131 273h-8zM297.5 820q-52.5 40 -52.5 110h130q3 -60 83 -60q42 0 61 15.5t21 44.5h130q0 -70 -52.5 -110t-159.5 -40q-108 0 -160.5 40z" />
    <glyph glyph-name="abreve" unicode="&#x103;" horiz-adv-x="740" 
d="M88.5 29q-53.5 44 -53.5 116q0 84 67 130.5t218 49.5q78 1 118.5 8t53.5 17t13 25q0 30 -34 47.5t-121 17.5q-77 0 -153 -19.5t-122 -43.5v148q42 23 121 41.5t169 18.5q320 0 320 -215v-370h-180v80h-6q-33 -36 -101.5 -65.5t-152.5 -29.5q-103 0 -156.5 44zM433 130
q50 20 72 45v104q-20 -11 -53.5 -19t-101.5 -10q-130 -4 -130 -75q0 -29 24.5 -47t75.5 -18q63 0 113 20zM209.5 680q-52.5 40 -52.5 110h130q3 -60 83 -60q42 0 61 15.5t21 44.5h130q0 -70 -52.5 -110t-159.5 -40q-108 0 -160.5 40z" />
    <glyph glyph-name="Aogonek" unicode="&#x104;" horiz-adv-x="916" 
d="M727.5 -120q11.5 -8 38.5 -8q36 0 72 7v-95q-49 -9 -104 -9q-67 0 -101.5 24t-34.5 65q0 43 34 79.5t85 57.5l-74 154h-370l-74 -155h-199l342 700h232l342 -700h-83q-117 -54 -117 -97q0 -15 11.5 -23zM454 533l-131 -273h270l-131 273h-8z" />
    <glyph glyph-name="aogonek" unicode="&#x105;" horiz-adv-x="740" 
d="M690 -121v-95q-49 -9 -104 -9q-67 0 -101.5 24t-34.5 65q0 40 33.5 74t85.5 57v5h-64v80h-6q-33 -36 -101.5 -65.5t-152.5 -29.5q-103 0 -156.5 44t-53.5 116q0 84 67 130.5t218 49.5q78 1 118.5 8t53.5 17t13 25q0 30 -34 47.5t-121 17.5q-77 0 -153 -19.5t-122 -43.5
v148q42 23 121 41.5t169 18.5q320 0 320 -215v-370q-117 -55 -117 -97q0 -31 51 -31q35 0 71 7zM505 279q-20 -11 -53.5 -19t-101.5 -10q-130 -4 -130 -75q0 -29 24.5 -47t75.5 -18q63 0 113 20t72 45v104z" />
    <glyph glyph-name="Cacute" unicode="&#x106;" horiz-adv-x="900" 
d="M272.5 32.5q-101.5 47.5 -154.5 130.5t-53 187t54 187t160 130.5t256 47.5q99 0 181.5 -22.5t123.5 -49.5v-160q-41 31 -121 56.5t-174 25.5q-93 0 -158.5 -28.5t-98.5 -77.5t-33 -109q0 -59 32.5 -108t94.5 -78t148 -29q89 0 165 22t115 49v-160q-41 -23 -121 -42
t-174 -19q-141 0 -242.5 47.5zM360 765h-15l-10 55l270 125h50l10 -130z" />
    <glyph glyph-name="cacute" unicode="&#x107;" horiz-adv-x="710" 
d="M211 23.5q-81 38.5 -123.5 106.5t-42.5 155q0 88 43 155.5t126.5 106t201.5 38.5q74 0 140 -17t109 -41v-144q-41 27 -104.5 47t-126.5 20q-94 0 -146.5 -45t-52.5 -120q0 -74 52.5 -119.5t141.5 -45.5q64 0 124.5 19t91.5 43v-140q-34 -22 -99.5 -39.5t-140.5 -17.5
q-113 0 -194 38.5zM245 625h-15l-10 55l270 125h50l10 -130z" />
    <glyph glyph-name="Ccircumflex" unicode="&#x108;" horiz-adv-x="900" 
d="M272.5 32.5q-101.5 47.5 -154.5 130.5t-53 187t54 187t160 130.5t256 47.5q99 0 181.5 -22.5t123.5 -49.5v-160q-41 31 -121 56.5t-174 25.5q-93 0 -158.5 -28.5t-98.5 -77.5t-33 -109q0 -59 32.5 -108t94.5 -78t148 -29q89 0 165 22t115 49v-160q-41 -23 -121 -42
t-174 -19q-141 0 -242.5 47.5zM408 780h-153l168 145h174l168 -145h-153l-97 85h-10z" />
    <glyph glyph-name="ccircumflex" unicode="&#x109;" horiz-adv-x="710" 
d="M211 23.5q-81 38.5 -123.5 106.5t-42.5 155q0 88 43 155.5t126.5 106t201.5 38.5q74 0 140 -17t109 -41v-144q-41 27 -104.5 47t-126.5 20q-94 0 -146.5 -45t-52.5 -120q0 -74 52.5 -119.5t141.5 -45.5q64 0 124.5 19t91.5 43v-140q-34 -22 -99.5 -39.5t-140.5 -17.5
q-113 0 -194 38.5zM293 640h-153l168 145h174l168 -145h-153l-97 85h-10z" />
    <glyph glyph-name="Cdotaccent" unicode="&#x10a;" horiz-adv-x="900" 
d="M272.5 32.5q-101.5 47.5 -154.5 130.5t-53 187t54 187t160 130.5t256 47.5q99 0 181.5 -22.5t123.5 -49.5v-160q-41 31 -121 56.5t-174 25.5q-93 0 -158.5 -28.5t-98.5 -77.5t-33 -109q0 -59 32.5 -108t94.5 -78t148 -29q89 0 165 22t115 49v-160q-41 -23 -121 -42
t-174 -19q-141 0 -242.5 47.5zM430.5 787.5q-30.5 27.5 -30.5 67.5t30.5 67.5t79.5 27.5t79.5 -27.5t30.5 -67.5t-30.5 -67.5t-79.5 -27.5t-79.5 27.5z" />
    <glyph glyph-name="cdotaccent" unicode="&#x10b;" horiz-adv-x="710" 
d="M211 23.5q-81 38.5 -123.5 106.5t-42.5 155q0 88 43 155.5t126.5 106t201.5 38.5q74 0 140 -17t109 -41v-144q-41 27 -104.5 47t-126.5 20q-94 0 -146.5 -45t-52.5 -120q0 -74 52.5 -119.5t141.5 -45.5q64 0 124.5 19t91.5 43v-140q-34 -22 -99.5 -39.5t-140.5 -17.5
q-113 0 -194 38.5zM315.5 647.5q-30.5 27.5 -30.5 67.5t30.5 67.5t79.5 27.5t79.5 -27.5t30.5 -67.5t-30.5 -67.5t-79.5 -27.5t-79.5 27.5z" />
    <glyph glyph-name="Ccaron" unicode="&#x10c;" horiz-adv-x="900" 
d="M272.5 32.5q-101.5 47.5 -154.5 130.5t-53 187t54 187t160 130.5t256 47.5q99 0 181.5 -22.5t123.5 -49.5v-160q-41 31 -121 56.5t-174 25.5q-93 0 -158.5 -28.5t-98.5 -77.5t-33 -109q0 -59 32.5 -108t94.5 -78t148 -29q89 0 165 22t115 49v-160q-41 -23 -121 -42
t-174 -19q-141 0 -242.5 47.5zM597 780h-174l-168 145h153l97 -85h10l97 85h153z" />
    <glyph glyph-name="ccaron" unicode="&#x10d;" horiz-adv-x="710" 
d="M211 23.5q-81 38.5 -123.5 106.5t-42.5 155q0 88 43 155.5t126.5 106t201.5 38.5q74 0 140 -17t109 -41v-144q-41 27 -104.5 47t-126.5 20q-94 0 -146.5 -45t-52.5 -120q0 -74 52.5 -119.5t141.5 -45.5q64 0 124.5 19t91.5 43v-140q-34 -22 -99.5 -39.5t-140.5 -17.5
q-113 0 -194 38.5zM482 640h-174l-168 145h153l97 -85h10l97 85h153z" />
    <glyph glyph-name="Dcaron" unicode="&#x10e;" horiz-adv-x="960" 
d="M80 0v700h355q152 0 255 -44.5t154 -123.5t51 -182t-51 -182t-154 -123.5t-255 -44.5h-355zM435 150q138 0 204 53t66 147t-66 147t-204 53h-175v-400h175zM562 780h-174l-168 145h153l97 -85h10l97 85h153z" />
    <glyph glyph-name="dcaron" unicode="&#x10f;" horiz-adv-x="870" 
d="M717.5 707.5q22.5 22.5 58.5 22.5q44 0 69 -28.5t25 -88.5q0 -97 -40 -145t-110 -48h-20v105h30q45 0 68 19.5t23 53.5h-5q-5 -9 -18.5 -16t-31.5 -7q-32 0 -51.5 19.5t-19.5 55.5q0 35 22.5 57.5zM183.5 22q-65.5 37 -102 105t-36.5 158t36.5 158t102 105t151.5 37
q74 0 134.5 -26t88.5 -59h7v220h125v-5q-10 -5 -17.5 -25t-7.5 -50v-255h80v-385h-180v73h-7q-28 -34 -88.5 -61t-134.5 -27q-86 0 -151.5 37zM501.5 141.5q43.5 21.5 63.5 48.5v193q-20 26 -63.5 46.5t-96.5 20.5q-80 0 -125 -44t-45 -121t45 -121t125 -44q53 0 96.5 21.5z
" />
    <glyph glyph-name="Dcroat" unicode="&#x110;" horiz-adv-x="970" 
d="M445 700q152 0 255 -44.5t154 -123.5t51 -182t-51 -182t-154 -123.5t-255 -44.5h-350v290h-70v105h70v305h350zM445 140q136 0 203 55.5t67 154.5t-67 154.5t-203 55.5h-170v-165h215v-105h-215v-150h170z" />
    <glyph glyph-name="dcroat" unicode="&#x111;" horiz-adv-x="820" 
d="M820 610v-75h-95v-535h-180v73h-8q-29 -34 -92 -61t-140 -27q-84 0 -145 30t-93 83.5t-32 121.5t32 121.5t93 83.5t145 30q78 0 140.5 -24t91.5 -54h8v158h-215v75h215v110h180v-110h95zM545 270q-25 19 -73.5 34.5t-106.5 15.5q-70 0 -105 -27.5t-35 -72.5t35 -72.5
t105 -27.5q58 0 106.5 18.5t73.5 41.5v90z" />
    <glyph glyph-name="Emacron" unicode="&#x112;" horiz-adv-x="755" 
d="M260 300v-155h445v-145h-625v700h605v-145h-425v-150h385v-105h-385zM588 795h-410v110h410v-110z" />
    <glyph glyph-name="emacron" unicode="&#x113;" horiz-adv-x="760" 
d="M213.5 23.5q-83.5 38.5 -126 106t-42.5 155.5t40.5 156t117.5 106t182 38q101 0 175.5 -38t114.5 -106.5t40 -155.5v-25h-482q11 -62 64.5 -96t147.5 -34q65 0 123.5 18t91.5 40v-148q-33 -21 -99 -38t-146 -17q-118 0 -201.5 38.5zM529 335q-7 57 -44 93.5t-100 36.5
t-103.5 -35t-48.5 -95h296zM585 655h-410v110h410v-110z" />
    <glyph glyph-name="Ebreve" unicode="&#x114;" horiz-adv-x="755" 
d="M260 300v-155h445v-145h-625v700h605v-145h-425v-150h385v-105h-385zM222.5 820q-52.5 40 -52.5 110h130q3 -60 83 -60q42 0 61 15.5t21 44.5h130q0 -70 -52.5 -110t-159.5 -40q-108 0 -160.5 40z" />
    <glyph glyph-name="ebreve" unicode="&#x115;" horiz-adv-x="760" 
d="M213.5 23.5q-83.5 38.5 -126 106t-42.5 155.5t40.5 156t117.5 106t182 38q101 0 175.5 -38t114.5 -106.5t40 -155.5v-25h-482q11 -62 64.5 -96t147.5 -34q65 0 123.5 18t91.5 40v-148q-33 -21 -99 -38t-146 -17q-118 0 -201.5 38.5zM529 335q-7 57 -44 93.5t-100 36.5
t-103.5 -35t-48.5 -95h296zM219.5 680q-52.5 40 -52.5 110h130q3 -60 83 -60q42 0 61 15.5t21 44.5h130q0 -70 -52.5 -110t-159.5 -40q-108 0 -160.5 40z" />
    <glyph glyph-name="Edotaccent" unicode="&#x116;" horiz-adv-x="755" 
d="M260 300v-155h445v-145h-625v700h605v-145h-425v-150h385v-105h-385zM303.5 787.5q-30.5 27.5 -30.5 67.5t30.5 67.5t79.5 27.5t79.5 -27.5t30.5 -67.5t-30.5 -67.5t-79.5 -27.5t-79.5 27.5z" />
    <glyph glyph-name="edotaccent" unicode="&#x117;" horiz-adv-x="760" 
d="M213.5 23.5q-83.5 38.5 -126 106t-42.5 155.5t40.5 156t117.5 106t182 38q101 0 175.5 -38t114.5 -106.5t40 -155.5v-25h-482q11 -62 64.5 -96t147.5 -34q65 0 123.5 18t91.5 40v-148q-33 -21 -99 -38t-146 -17q-118 0 -201.5 38.5zM529 335q-7 57 -44 93.5t-100 36.5
t-103.5 -35t-48.5 -95h296zM300.5 647.5q-30.5 27.5 -30.5 67.5t30.5 67.5t79.5 27.5t79.5 -27.5t30.5 -67.5t-30.5 -67.5t-79.5 -27.5t-79.5 27.5z" />
    <glyph glyph-name="Eogonek" unicode="&#x118;" horiz-adv-x="755" 
d="M710 -121v-95q-49 -9 -104 -9q-67 0 -101.5 24t-34.5 65q0 40 33.5 74t85.5 57v5h-509v700h605v-145h-425v-150h385v-105h-385v-155h445v-145q-117 -55 -117 -97q0 -31 51 -31q35 0 71 7z" />
    <glyph glyph-name="eogonek" unicode="&#x119;" horiz-adv-x="760" 
d="M314.5 -201q-34.5 24 -34.5 65q0 34 24.5 64t65.5 53v6q-105 7 -178 46.5t-110 104.5t-37 147q0 88 40.5 156t117.5 106t182 38q101 0 175.5 -38t114.5 -106.5t40 -155.5v-25h-482q11 -62 64.5 -96t147.5 -34q65 0 123.5 18t91.5 40v-148q-57 -27 -156 -50
q-47 -10 -76.5 -35.5t-29.5 -51.5q0 -31 51 -31q35 0 71 7v-95q-49 -9 -104 -9q-67 0 -101.5 24zM529 335q-7 57 -44 93.5t-100 36.5t-103.5 -35t-48.5 -95h296z" />
    <glyph glyph-name="Ecaron" unicode="&#x11a;" horiz-adv-x="755" 
d="M260 300v-155h445v-145h-625v700h605v-145h-425v-150h385v-105h-385zM470 780h-174l-168 145h153l97 -85h10l97 85h153z" />
    <glyph glyph-name="ecaron" unicode="&#x11b;" horiz-adv-x="760" 
d="M213.5 23.5q-83.5 38.5 -126 106t-42.5 155.5t40.5 156t117.5 106t182 38q101 0 175.5 -38t114.5 -106.5t40 -155.5v-25h-482q11 -62 64.5 -96t147.5 -34q65 0 123.5 18t91.5 40v-148q-33 -21 -99 -38t-146 -17q-118 0 -201.5 38.5zM529 335q-7 57 -44 93.5t-100 36.5
t-103.5 -35t-48.5 -95h296zM467 640h-174l-168 145h153l97 -85h10l97 85h153z" />
    <glyph glyph-name="Gcircumflex" unicode="&#x11c;" horiz-adv-x="970" 
d="M280 32.5q-107 47.5 -161 130.5t-54 187q0 105 54.5 187.5t164.5 130t268 47.5q114 0 207 -20.5t146 -46.5v-156q-49 30 -139 54t-199 24q-103 0 -173 -29t-104.5 -79t-34.5 -112t34 -112t101.5 -79t164.5 -29q65 0 125.5 14t94.5 31v70h-285v120h410v-290
q-52 -34 -150.5 -62t-209.5 -28q-153 0 -260 47.5zM413 780h-153l168 145h174l168 -145h-153l-97 85h-10z" />
    <glyph glyph-name="gcircumflex" unicode="&#x11d;" horiz-adv-x="800" 
d="M215.5 -188q-75.5 17 -115.5 38v152q39 -24 106.5 -43t138.5 -19q107 0 161 46t54 124v17h-7q-26 -34 -85 -62t-133 -28q-88 0 -153.5 34.5t-101 96.5t-35.5 142q0 81 35.5 143.5t101 97t153.5 34.5q74 0 133 -28t85 -62h7v75h180v-460q0 -147 -93.5 -231t-271.5 -84
q-84 0 -159.5 17zM494.5 189q44.5 22 65.5 49v146q-21 27 -65.5 49t-99.5 22q-78 0 -119 -37.5t-41 -106.5t41 -106.5t119 -37.5q55 0 99.5 22zM283 640h-153l168 145h174l168 -145h-153l-97 85h-10z" />
    <glyph glyph-name="Gbreve" unicode="&#x11e;" horiz-adv-x="970" 
d="M280 32.5q-107 47.5 -161 130.5t-54 187q0 105 54.5 187.5t164.5 130t268 47.5q114 0 207 -20.5t146 -46.5v-156q-49 30 -139 54t-199 24q-103 0 -173 -29t-104.5 -79t-34.5 -112t34 -112t101.5 -79t164.5 -29q65 0 125.5 14t94.5 31v70h-285v120h410v-290
q-52 -34 -150.5 -62t-209.5 -28q-153 0 -260 47.5zM354.5 820q-52.5 40 -52.5 110h130q3 -60 83 -60q42 0 61 15.5t21 44.5h130q0 -70 -52.5 -110t-159.5 -40q-108 0 -160.5 40z" />
    <glyph glyph-name="gbreve" unicode="&#x11f;" horiz-adv-x="800" 
d="M215.5 -188q-75.5 17 -115.5 38v152q39 -24 106.5 -43t138.5 -19q107 0 161 46t54 124v17h-7q-26 -34 -85 -62t-133 -28q-88 0 -153.5 34.5t-101 96.5t-35.5 142q0 81 35.5 143.5t101 97t153.5 34.5q74 0 133 -28t85 -62h7v75h180v-460q0 -147 -93.5 -231t-271.5 -84
q-84 0 -159.5 17zM494.5 189q44.5 22 65.5 49v146q-21 27 -65.5 49t-99.5 22q-78 0 -119 -37.5t-41 -106.5t41 -106.5t119 -37.5q55 0 99.5 22zM224.5 680q-52.5 40 -52.5 110h130q3 -60 83 -60q42 0 61 15.5t21 44.5h130q0 -70 -52.5 -110t-159.5 -40q-108 0 -160.5 40z
" />
    <glyph glyph-name="Gdotaccent" unicode="&#x120;" horiz-adv-x="970" 
d="M280 32.5q-107 47.5 -161 130.5t-54 187q0 105 54.5 187.5t164.5 130t268 47.5q114 0 207 -20.5t146 -46.5v-156q-49 30 -139 54t-199 24q-103 0 -173 -29t-104.5 -79t-34.5 -112t34 -112t101.5 -79t164.5 -29q65 0 125.5 14t94.5 31v70h-285v120h410v-290
q-52 -34 -150.5 -62t-209.5 -28q-153 0 -260 47.5zM435.5 787.5q-30.5 27.5 -30.5 67.5t30.5 67.5t79.5 27.5t79.5 -27.5t30.5 -67.5t-30.5 -67.5t-79.5 -27.5t-79.5 27.5z" />
    <glyph glyph-name="gdotaccent" unicode="&#x121;" horiz-adv-x="800" 
d="M215.5 -188q-75.5 17 -115.5 38v152q39 -24 106.5 -43t138.5 -19q107 0 161 46t54 124v17h-7q-26 -34 -85 -62t-133 -28q-88 0 -153.5 34.5t-101 96.5t-35.5 142q0 81 35.5 143.5t101 97t153.5 34.5q74 0 133 -28t85 -62h7v75h180v-460q0 -147 -93.5 -231t-271.5 -84
q-84 0 -159.5 17zM494.5 189q44.5 22 65.5 49v146q-21 27 -65.5 49t-99.5 22q-78 0 -119 -37.5t-41 -106.5t41 -106.5t119 -37.5q55 0 99.5 22zM305.5 647.5q-30.5 27.5 -30.5 67.5t30.5 67.5t79.5 27.5t79.5 -27.5t30.5 -67.5t-30.5 -67.5t-79.5 -27.5t-79.5 27.5z" />
    <glyph glyph-name="uni0122" unicode="&#x122;" horiz-adv-x="970" 
d="M280 32.5q-107 47.5 -161 130.5t-54 187q0 105 54.5 187.5t164.5 130t268 47.5q114 0 207 -20.5t146 -46.5v-156q-49 30 -139 54t-199 24q-103 0 -173 -29t-104.5 -79t-34.5 -112t34 -112t101.5 -79t164.5 -29q65 0 125.5 14t94.5 31v70h-285v120h410v-290
q-52 -34 -150.5 -62t-209.5 -28q-153 0 -260 47.5zM450 -330v70h30q83 0 83 64h-5q-5 -10 -17.5 -17t-30.5 -7q-32 0 -51 19t-19 51t22.5 53.5t57.5 21.5q43 0 69 -27t26 -80q0 -69 -37 -108.5t-101 -39.5h-27z" />
    <glyph glyph-name="uni0123" unicode="&#x123;" horiz-adv-x="800" 
d="M447.5 641.5q-22.5 -21.5 -57.5 -21.5q-43 0 -69 27t-26 80q0 69 37 108.5t101 39.5h27v-70h-30q-83 0 -83 -64h5q5 9 17.5 16.5t30.5 7.5q32 0 51 -19t19 -51t-22.5 -53.5zM215.5 -188q-75.5 17 -115.5 38v152q39 -24 106.5 -43t138.5 -19q107 0 161 46t54 124v17h-7
q-26 -34 -85 -62t-133 -28q-88 0 -153.5 34.5t-101 96.5t-35.5 142q0 81 35.5 143.5t101 97t153.5 34.5q74 0 133 -28t85 -62h7v75h180v-460q0 -147 -93.5 -231t-271.5 -84q-84 0 -159.5 17zM494.5 189q44.5 22 65.5 49v146q-21 27 -65.5 49t-99.5 22q-78 0 -119 -37.5
t-41 -106.5t41 -106.5t119 -37.5q55 0 99.5 22z" />
    <glyph glyph-name="Hcircumflex" unicode="&#x124;" horiz-adv-x="920" 
d="M660 430v270h180v-700h-180v275h-400v-275h-180v700h180v-270h400zM358 780h-153l168 145h174l168 -145h-153l-97 85h-10z" />
    <glyph glyph-name="hcircumflex" unicode="&#x125;" horiz-adv-x="750" 
d="M60 0v720h180v-236h7q24 38 82.5 69.5t135.5 31.5q110 0 170 -58t60 -162v-365h-180v330q0 57 -32.5 88.5t-92.5 31.5q-54 0 -94 -25.5t-56 -57.5v-367h-180zM48 780h-153l168 145h174l168 -145h-153l-97 85h-10z" />
    <glyph glyph-name="Hbar" unicode="&#x126;" horiz-adv-x="970" 
d="M865 615h100v-105h-100v-510h-180v275h-400v-275h-180v510h-100v105h100v85h180v-85h400v85h180v-85zM285 420h400v90h-400v-90z" />
    <glyph glyph-name="hbar" unicode="&#x127;" 
d="M655 527q60 -58 60 -162v-365h-180v330q0 57 -32.5 88.5t-92.5 31.5q-54 0 -94 -25.5t-56 -57.5v-367h-180v605h-80v75h80v40h180v-40h155v-75h-155v-121h7q24 38 82.5 69.5t135.5 31.5q110 0 170 -58z" />
    <glyph glyph-name="Itilde" unicode="&#x128;" horiz-adv-x="778" 
d="M738 700v-145h-259v-410h259v-145h-698v145h259v410h-259v145h698zM444 785.5q-24 10.5 -51 29.5q-17 12 -28.5 18t-22.5 6q-13 0 -20.5 -7.5t-7.5 -22.5v-29h-140v50q0 47 27 73.5t76 26.5q33 0 56 -10.5t51 -29.5q17 -13 28 -18.5t23 -5.5q29 0 29 30v29h140v-50
q0 -47 -27 -73.5t-76 -26.5q-33 0 -57 10.5z" />
    <glyph glyph-name="itilde" unicode="&#x129;" horiz-adv-x="300" 
d="M240 0h-180v570h180v-570zM205 645.5q-24 10.5 -51 29.5q-17 12 -28.5 18t-22.5 6q-13 0 -20.5 -7.5t-7.5 -22.5v-29h-140v50q0 47 27 73.5t76 26.5q33 0 56 -10.5t51 -29.5q17 -13 28 -18.5t23 -5.5q29 0 29 30v29h140v-50q0 -47 -27 -73.5t-76 -26.5q-33 0 -57 10.5z
" />
    <glyph glyph-name="Imacron" unicode="&#x12a;" horiz-adv-x="778" 
d="M738 700v-145h-259v-410h259v-145h-698v145h259v410h-259v145h698zM594 795h-410v110h410v-110z" />
    <glyph glyph-name="imacron" unicode="&#x12b;" horiz-adv-x="300" 
d="M240 0h-180v570h180v-570zM355 655h-410v110h410v-110z" />
    <glyph glyph-name="Ibreve" unicode="&#x12c;" horiz-adv-x="778" 
d="M738 700v-145h-259v-410h259v-145h-698v145h259v410h-259v145h698zM228.5 820q-52.5 40 -52.5 110h130q3 -60 83 -60q42 0 61 15.5t21 44.5h130q0 -70 -52.5 -110t-159.5 -40q-108 0 -160.5 40z" />
    <glyph glyph-name="ibreve" unicode="&#x12d;" horiz-adv-x="300" 
d="M240 0h-180v570h180v-570zM-10.5 680q-52.5 40 -52.5 110h130q3 -60 83 -60q42 0 61 15.5t21 44.5h130q0 -70 -52.5 -110t-159.5 -40q-108 0 -160.5 40z" />
    <glyph glyph-name="Iogonek" unicode="&#x12e;" horiz-adv-x="778" 
d="M738 555h-259v-410h259v-145h-268q-117 -55 -117 -97q0 -31 51 -31q35 0 71 7v-95q-49 -9 -104 -9q-67 0 -101.5 24t-34.5 65q0 40 33.5 74t85.5 57v5h-314v145h259v410h-259v145h698v-145z" />
    <glyph glyph-name="iogonek" unicode="&#x12f;" horiz-adv-x="299" 
d="M67 625.5q-30 25.5 -30 66.5q0 42 30 67.5t83 25.5q52 0 82 -25.5t30 -67.5q0 -41 -30 -66.5t-82 -25.5q-53 0 -83 25.5zM133 -117.5q10 -7.5 33 -7.5h79v-100h-132q-51 0 -79.5 24.5t-28.5 63.5q0 43 34.5 77t84.5 55v5h-64v570h8q36 -16 82 -16t82 16h8v-570
q-49 -19 -83 -44t-34 -51q0 -15 10 -22.5z" />
    <glyph glyph-name="Idotaccent" unicode="&#x130;" horiz-adv-x="778" 
d="M738 700v-145h-259v-410h259v-145h-698v145h259v410h-259v145h698zM309.5 787.5q-30.5 27.5 -30.5 67.5t30.5 67.5t79.5 27.5t79.5 -27.5t30.5 -67.5t-30.5 -67.5t-79.5 -27.5t-79.5 27.5z" />
    <glyph glyph-name="dotlessi" unicode="&#x131;" horiz-adv-x="300" 
d="M240 0h-180v570h180v-570z" />
    <glyph glyph-name="IJ" unicode="&#x132;" horiz-adv-x="1403" 
d="M738 700v-145h-259v-410h259v-145h-698v145h259v410h-259v145h698zM793 17v154q60 -18 102.5 -24.5t81.5 -6.5q79 0 122.5 38.5t43.5 114.5v407h180v-408q0 -153 -86 -230t-251 -77q-98 0 -193 32z" />
    <glyph glyph-name="ij" unicode="&#x133;" horiz-adv-x="599" 
d="M67 625.5q-30 25.5 -30 66.5q0 42 30 67.5t83 25.5q52 0 82 -25.5t30 -67.5q0 -41 -30 -66.5t-82 -25.5q-53 0 -83 25.5zM367 625.5q-30 25.5 -30 66.5q0 42 30 67.5t83 25.5q52 0 82 -25.5t30 -67.5q0 -41 -30 -66.5t-82 -25.5q-53 0 -83 25.5zM60 0v570h8
q13 -6 35.5 -11t46.5 -5t46.5 5t35.5 11h8v-570h-180zM265.5 -202q-24.5 3 -62.5 11v132q44 -11 77 -11q37 0 58.5 22t21.5 66v552h8q13 -6 35.5 -11t46.5 -5t46.5 5t35.5 11h8v-546q0 -111 -55.5 -170t-165.5 -59q-29 0 -53.5 3z" />
    <glyph glyph-name="Jcircumflex" unicode="&#x134;" horiz-adv-x="625" 
d="M15 17v154q60 -18 102.5 -24.5t81.5 -6.5q79 0 122.5 38.5t43.5 114.5v407h180v-408q0 -153 -86 -230t-251 -77q-98 0 -193 32zM353 780h-153l168 145h174l168 -145h-153l-97 85h-10z" />
    <glyph glyph-name="jcircumflex" unicode="&#x135;" horiz-adv-x="300" 
d="M-35 -202q-25 3 -62 11v137q44 -11 77 -11q37 0 58.5 22t21.5 66v547h180v-546q0 -111 -55.5 -170t-165.5 -59q-29 0 -54 3zM48 640h-153l168 145h174l168 -145h-153l-97 85h-10z" />
    <glyph glyph-name="uni0136" unicode="&#x136;" horiz-adv-x="845" 
d="M260 0h-180v700h180v-305h5l370 305h230l-400 -335v-5l370 -360h-225l-345 325h-5v-325zM360 -330v70h30q83 0 83 64h-5q-5 -10 -17.5 -17t-30.5 -7q-32 0 -51 19t-19 51t22.5 53.5t57.5 21.5q43 0 69 -27t26 -80q0 -69 -37 -108.5t-101 -39.5h-27z" />
    <glyph glyph-name="uni0137" unicode="&#x137;" horiz-adv-x="725" 
d="M240 0h-180v720h180v-383h2l262 233h231l-310 -268l309 -302h-230l-262 269h-2v-269zM295 -330v70h30q83 0 83 64h-5q-5 -10 -17.5 -17t-30.5 -7q-32 0 -51 19t-19 51t22.5 53.5t57.5 21.5q43 0 69 -27t26 -80q0 -69 -37 -108.5t-101 -39.5h-27z" />
    <glyph glyph-name="Lacute" unicode="&#x139;" horiz-adv-x="745" 
d="M730 0h-650v700h180v-545h470v-155zM55 765h-15l-10 55l270 125h50l10 -130z" />
    <glyph glyph-name="lacute" unicode="&#x13a;" horiz-adv-x="300" 
d="M240 0h-180v720h180v-720zM35 765h-15l-10 55l270 125h50l10 -130z" />
    <glyph glyph-name="uni013B" unicode="&#x13b;" horiz-adv-x="745" 
d="M730 0h-650v700h180v-545h470v-155zM330 -330v70h30q83 0 83 64h-5q-5 -10 -17.5 -17t-30.5 -7q-32 0 -51 19t-19 51t22.5 53.5t57.5 21.5q43 0 69 -27t26 -80q0 -69 -37 -108.5t-101 -39.5h-27z" />
    <glyph glyph-name="uni013C" unicode="&#x13c;" horiz-adv-x="300" 
d="M240 0h-180v720h180v-720zM75 -330v70h30q83 0 83 64h-5q-5 -10 -17.5 -17t-30.5 -7q-32 0 -51 19t-19 51t22.5 53.5t57.5 21.5q43 0 69 -27t26 -80q0 -69 -37 -108.5t-101 -39.5h-27z" />
    <glyph glyph-name="Lcaron" unicode="&#x13d;" horiz-adv-x="745" 
d="M314.5 687.5q22.5 22.5 58.5 22.5q43 0 68 -28.5t25 -88.5q0 -96 -39.5 -144t-108.5 -48h-21v104h29q46 0 69 19.5t23 53.5h-5q-6 -10 -19 -16.5t-31 -6.5q-32 0 -51.5 19.5t-19.5 55.5q0 35 22.5 57.5zM730 0h-650v700h180v-545h470v-155z" />
    <glyph glyph-name="lcaron" unicode="&#x13e;" horiz-adv-x="365" 
d="M212.5 707.5q22.5 22.5 58.5 22.5q44 0 69 -28.5t25 -88.5q0 -97 -40 -145t-110 -48h-20v105h30q45 0 68 19.5t23 53.5h-5q-6 -10 -19 -16.5t-31 -6.5q-32 0 -51.5 19.5t-19.5 55.5q0 35 22.5 57.5zM60 720h125v-5q-10 -8 -17.5 -27t-7.5 -48v-255h80v-385h-180v720z" />
    <glyph glyph-name="Ldot" unicode="&#x13f;" horiz-adv-x="745" 
d="M730 0h-650v700h180v-545h470v-155zM460.5 342.5q-30.5 27.5 -30.5 67.5t30.5 67.5t79.5 27.5t79.5 -27.5t30.5 -67.5t-30.5 -67.5t-79.5 -27.5t-79.5 27.5z" />
    <glyph glyph-name="ldot" unicode="&#x140;" horiz-adv-x="490" 
d="M240 0h-180v720h180v-720zM315.5 292.5q-30.5 27.5 -30.5 67.5t30.5 67.5t79.5 27.5t79.5 -27.5t30.5 -67.5t-30.5 -67.5t-79.5 -27.5t-79.5 27.5z" />
    <glyph glyph-name="Lslash" unicode="&#x141;" horiz-adv-x="750" 
d="M265 338v-183h470v-155h-650v276l-75 -26v105l75 26v319h180v-257l225 77v-105z" />
    <glyph glyph-name="lslash" unicode="&#x142;" horiz-adv-x="360" 
d="M270 459l80 31v-80l-80 -31v-379h-180v311l-80 -31v80l80 31v329h180v-261z" />
    <glyph glyph-name="Nacute" unicode="&#x143;" horiz-adv-x="925" 
d="M255 0h-175v700h288l294 -533h8v533h175v-700h-288l-294 533h-8v-533zM317 765h-15l-10 55l270 125h50l10 -130z" />
    <glyph glyph-name="nacute" unicode="&#x144;" horiz-adv-x="750" 
d="M60 0v570h180v-86h7q24 38 82.5 69.5t135.5 31.5q110 0 170 -58t60 -162v-365h-180v330q0 57 -32.5 88.5t-92.5 31.5q-54 0 -94 -25.5t-56 -57.5v-367h-180zM255 625h-15l-10 55l270 125h50l10 -130z" />
    <glyph glyph-name="uni0145" unicode="&#x145;" horiz-adv-x="925" 
d="M255 0h-175v700h288l294 -533h8v533h175v-700h-288l-294 533h-8v-533zM400 -330v70h30q83 0 83 64h-5q-5 -10 -17.5 -17t-30.5 -7q-32 0 -51 19t-19 51t22.5 53.5t57.5 21.5q43 0 69 -27t26 -80q0 -69 -37 -108.5t-101 -39.5h-27z" />
    <glyph glyph-name="uni0146" unicode="&#x146;" horiz-adv-x="750" 
d="M60 0v570h180v-86h7q24 38 82.5 69.5t135.5 31.5q110 0 170 -58t60 -162v-365h-180v330q0 57 -32.5 88.5t-92.5 31.5q-54 0 -94 -25.5t-56 -57.5v-367h-180zM303 -330v70h30q83 0 83 64h-5q-5 -10 -17.5 -17t-30.5 -7q-32 0 -51 19t-19 51t22.5 53.5t57.5 21.5
q43 0 69 -27t26 -80q0 -69 -37 -108.5t-101 -39.5h-27z" />
    <glyph glyph-name="Ncaron" unicode="&#x147;" horiz-adv-x="925" 
d="M255 0h-175v700h288l294 -533h8v533h175v-700h-288l-294 533h-8v-533zM557 780h-174l-168 145h153l97 -85h10l97 85h153z" />
    <glyph glyph-name="ncaron" unicode="&#x148;" horiz-adv-x="750" 
d="M60 0v570h180v-86h7q24 38 82.5 69.5t135.5 31.5q110 0 170 -58t60 -162v-365h-180v330q0 57 -32.5 88.5t-92.5 31.5q-54 0 -94 -25.5t-56 -57.5v-367h-180zM477 640h-174l-168 145h153l97 -85h10l97 85h153z" />
    <glyph glyph-name="napostrophe" unicode="&#x149;" horiz-adv-x="880" 
d="M12.5 704q22.5 22 57.5 22q45 0 70 -29t25 -91q0 -95 -40 -142.5t-110 -47.5h-20v105h30q44 0 67 19t23 52h-5q-5 -9 -18 -16.5t-31 -7.5q-32 0 -51.5 21t-19.5 58q0 35 22.5 57zM190 0v570h180v-86h7q24 38 82.5 69.5t135.5 31.5q110 0 170 -58t60 -162v-365h-180v330
q0 57 -32.5 88.5t-92.5 31.5q-54 0 -94 -25.5t-56 -57.5v-367h-180z" />
    <glyph glyph-name="Eng" unicode="&#x14a;" horiz-adv-x="925" 
d="M566 -202q-25 3 -63 11v117q44 -11 80 -11q38 0 62.5 21t24.5 59v5h-113l-294 533h-8v-533h-175v700h288l294 -533h8v533h175v-676q0 -111 -55.5 -170t-167.5 -59q-31 0 -56 3z" />
    <glyph glyph-name="eng" unicode="&#x14b;" horiz-adv-x="750" 
d="M416 -202q-25 3 -63 11v137q44 -11 80 -11q38 0 60 22t22 66v307q0 57 -32.5 88.5t-92.5 31.5q-54 0 -94 -25.5t-56 -57.5v-367h-180v570h180v-86h7q24 38 82.5 69.5t135.5 31.5q110 0 170 -58t60 -162v-341q0 -111 -55.5 -170t-167.5 -59q-31 0 -56 3z" />
    <glyph glyph-name="Omacron" unicode="&#x14c;" horiz-adv-x="1090" 
d="M282 32.5q-108 47.5 -162.5 130t-54.5 187.5t54.5 187.5t162.5 130t263 47.5t263 -47.5t162.5 -130t54.5 -187.5t-54.5 -187.5t-162.5 -130t-263 -47.5t-263 47.5zM703.5 159q65.5 29 98.5 79t33 112t-33 112t-98.5 79t-158.5 29t-158.5 -29t-98.5 -79t-33 -112t33 -112
t98.5 -79t158.5 -29t158.5 29zM750 795h-410v110h410v-110z" />
    <glyph glyph-name="omacron" unicode="&#x14d;" horiz-adv-x="830" 
d="M213.5 23.5q-83.5 38.5 -126 106t-42.5 155.5t42.5 155.5t126 106t201.5 38.5t201.5 -38.5t126 -106t42.5 -155.5q0 -87 -42.5 -155t-126 -106.5t-201.5 -38.5t-201.5 38.5zM547.5 160.5q47.5 45.5 47.5 124.5t-47.5 124.5t-132.5 45.5t-132.5 -45.5t-47.5 -124.5
t47.5 -124.5t132.5 -45.5t132.5 45.5zM620 655h-410v110h410v-110z" />
    <glyph glyph-name="Obreve" unicode="&#x14e;" horiz-adv-x="1090" 
d="M282 32.5q-108 47.5 -162.5 130t-54.5 187.5t54.5 187.5t162.5 130t263 47.5t263 -47.5t162.5 -130t54.5 -187.5t-54.5 -187.5t-162.5 -130t-263 -47.5t-263 47.5zM703.5 159q65.5 29 98.5 79t33 112t-33 112t-98.5 79t-158.5 29t-158.5 -29t-98.5 -79t-33 -112t33 -112
t98.5 -79t158.5 -29t158.5 29zM384.5 820q-52.5 40 -52.5 110h130q3 -60 83 -60q42 0 61 15.5t21 44.5h130q0 -70 -52.5 -110t-159.5 -40q-108 0 -160.5 40z" />
    <glyph glyph-name="obreve" unicode="&#x14f;" horiz-adv-x="830" 
d="M213.5 23.5q-83.5 38.5 -126 106t-42.5 155.5t42.5 155.5t126 106t201.5 38.5t201.5 -38.5t126 -106t42.5 -155.5q0 -87 -42.5 -155t-126 -106.5t-201.5 -38.5t-201.5 38.5zM547.5 160.5q47.5 45.5 47.5 124.5t-47.5 124.5t-132.5 45.5t-132.5 -45.5t-47.5 -124.5
t47.5 -124.5t132.5 -45.5t132.5 45.5zM254.5 680q-52.5 40 -52.5 110h130q3 -60 83 -60q42 0 61 15.5t21 44.5h130q0 -70 -52.5 -110t-159.5 -40q-108 0 -160.5 40z" />
    <glyph glyph-name="Ohungarumlaut" unicode="&#x150;" horiz-adv-x="1090" 
d="M282 32.5q-108 47.5 -162.5 130t-54.5 187.5t54.5 187.5t162.5 130t263 47.5t263 -47.5t162.5 -130t54.5 -187.5t-54.5 -187.5t-162.5 -130t-263 -47.5t-263 47.5zM703.5 159q65.5 29 98.5 79t33 112t-33 112t-98.5 79t-158.5 29t-158.5 -29t-98.5 -79t-33 -112t33 -112
t98.5 -79t158.5 -29t158.5 29zM278 765h-13l-10 55l225 125h55l10 -105zM573 765h-13l-10 55l225 125h55l10 -105z" />
    <glyph glyph-name="ohungarumlaut" unicode="&#x151;" horiz-adv-x="830" 
d="M213.5 23.5q-83.5 38.5 -126 106t-42.5 155.5t42.5 155.5t126 106t201.5 38.5t201.5 -38.5t126 -106t42.5 -155.5q0 -87 -42.5 -155t-126 -106.5t-201.5 -38.5t-201.5 38.5zM547.5 160.5q47.5 45.5 47.5 124.5t-47.5 124.5t-132.5 45.5t-132.5 -45.5t-47.5 -124.5
t47.5 -124.5t132.5 -45.5t132.5 45.5zM148 625h-13l-10 55l225 125h55l10 -105zM443 625h-13l-10 55l225 125h55l10 -105z" />
    <glyph glyph-name="OE" unicode="&#x152;" horiz-adv-x="1290" 
d="M820 145h420v-145h-541q-29 -6 -74 -10.5t-90 -4.5q-150 0 -256 47.5t-160 130.5t-54 187t54 187t160 130.5t256 47.5q47 0 91.5 -4.5t72.5 -10.5h521v-145h-400v-150h360v-105h-360v-155zM640 563q-49 7 -100 7q-90 0 -154.5 -29t-97.5 -79t-33 -112t33 -112t97.5 -79
t154.5 -29q46 0 100 7v426z" />
    <glyph glyph-name="oe" unicode="&#x153;" horiz-adv-x="1265" 
d="M205 23.5q-78 38.5 -119 106.5t-41 155t41 155t119 106.5t185 38.5q67 0 122 -16t93 -40.5t56 -49.5h7q29 41 95 73.5t152 32.5q90 0 159 -37.5t107.5 -105t38.5 -152.5v-25h-455q8 -63 57.5 -99t132.5 -36q64 0 121 18t89 40v-148q-32 -21 -94.5 -38t-135.5 -17
q-91 0 -162.5 32.5t-104.5 73.5h-7q-18 -25 -56 -49.5t-93 -40.5t-122 -16q-107 0 -185 38.5zM1032 340q-5 55 -42.5 90t-94.5 35q-53 0 -90 -35.5t-42 -89.5h269zM525 161q45 45 45 124t-45 124.5t-123 45.5q-77 0 -122 -45.5t-45 -124.5t45 -124t122 -45q78 0 123 45z" />
    <glyph glyph-name="Racute" unicode="&#x154;" horiz-adv-x="875" 
d="M600 292q92 0 138.5 -41.5t46.5 -115.5v-135h-180v145q0 39 -27 59.5t-83 20.5h-235v-225h-180v700h440q145 0 220 -59.5t75 -155.5q0 -83 -57 -134t-158 -51v-8zM490 345q68 0 101.5 27.5t33.5 77.5t-33.5 77.5t-101.5 27.5h-230v-210h230zM295 765h-15l-10 55l270 125
h50l10 -130z" />
    <glyph glyph-name="racute" unicode="&#x155;" horiz-adv-x="505" 
d="M60 0v570h180v-86h7q23 38 71.5 69.5t106.5 31.5h55v-175h-55q-77 0 -125 -24t-60 -53v-333h-180zM120 625h-15l-10 55l270 125h50l10 -130z" />
    <glyph glyph-name="uni0156" unicode="&#x156;" horiz-adv-x="875" 
d="M600 292q92 0 138.5 -41.5t46.5 -115.5v-135h-180v145q0 39 -27 59.5t-83 20.5h-235v-225h-180v700h440q145 0 220 -59.5t75 -155.5q0 -83 -57 -134t-158 -51v-8zM490 345q68 0 101.5 27.5t33.5 77.5t-33.5 77.5t-101.5 27.5h-230v-210h230zM358 -330v70h30q83 0 83 64
h-5q-5 -10 -17.5 -17t-30.5 -7q-32 0 -51 19t-19 51t22.5 53.5t57.5 21.5q43 0 69 -27t26 -80q0 -69 -37 -108.5t-101 -39.5h-27z" />
    <glyph glyph-name="uni0157" unicode="&#x157;" horiz-adv-x="505" 
d="M60 0v570h180v-86h7q23 38 71.5 69.5t106.5 31.5h55v-175h-55q-77 0 -125 -24t-60 -53v-333h-180zM75 -330v70h30q83 0 83 64h-5q-5 -10 -17.5 -17t-30.5 -7q-32 0 -51 19t-19 51t22.5 53.5t57.5 21.5q43 0 69 -27t26 -80q0 -69 -37 -108.5t-101 -39.5h-27z" />
    <glyph glyph-name="Rcaron" unicode="&#x158;" horiz-adv-x="875" 
d="M600 292q92 0 138.5 -41.5t46.5 -115.5v-135h-180v145q0 39 -27 59.5t-83 20.5h-235v-225h-180v700h440q145 0 220 -59.5t75 -155.5q0 -83 -57 -134t-158 -51v-8zM490 345q68 0 101.5 27.5t33.5 77.5t-33.5 77.5t-101.5 27.5h-230v-210h230zM517 780h-174l-168 145h153
l97 -85h10l97 85h153z" />
    <glyph glyph-name="rcaron" unicode="&#x159;" horiz-adv-x="505" 
d="M60 0v570h180v-86h7q23 38 71.5 69.5t106.5 31.5h55v-175h-55q-77 0 -125 -24t-60 -53v-333h-180zM357 640h-174l-168 145h153l97 -85h10l97 85h153z" />
    <glyph glyph-name="Sacute" unicode="&#x15a;" horiz-adv-x="795" 
d="M230 6.5q-86 21.5 -129 48.5v170q48 -32 135 -58.5t179 -26.5q70 0 102.5 20t32.5 50q0 26 -24 42.5t-60.5 25.5t-101.5 20q-97 17 -158.5 35t-106 59t-44.5 113q0 58 36.5 105.5t115.5 76t198 28.5q99 0 185 -23t130 -51v-175q-46 36 -136.5 65t-193.5 29
q-75 0 -110 -20.5t-35 -49.5q0 -26 24 -42.5t61 -26t101 -21.5q97 -17 158.5 -36t106 -60.5t44.5 -113.5q0 -57 -34.5 -103.5t-107.5 -74t-183 -27.5q-99 0 -185 21.5zM250 765h-15l-10 55l270 125h50l10 -130z" />
    <glyph glyph-name="sacute" unicode="&#x15b;" horiz-adv-x="655" 
d="M183.5 4q-74.5 19 -113.5 42v149q44 -24 116.5 -44.5t143.5 -20.5q105 0 105 50q0 28 -34 39.5t-109 23.5q-82 13 -134 28t-90 50.5t-38 98.5q0 72 71.5 118.5t223.5 46.5q88 0 166.5 -20t118.5 -44v-153q-50 27 -129 49.5t-156 22.5q-61 0 -85.5 -13.5t-24.5 -38.5
q0 -27 33.5 -39t107.5 -23q82 -13 134.5 -28.5t91 -52t38.5 -100.5q0 -44 -29 -80t-91 -58t-155 -22q-87 0 -161.5 19zM195 625h-15l-10 55l270 125h50l10 -130z" />
    <glyph glyph-name="Scircumflex" unicode="&#x15c;" horiz-adv-x="795" 
d="M230 6.5q-86 21.5 -129 48.5v170q48 -32 135 -58.5t179 -26.5q70 0 102.5 20t32.5 50q0 26 -24 42.5t-60.5 25.5t-101.5 20q-97 17 -158.5 35t-106 59t-44.5 113q0 58 36.5 105.5t115.5 76t198 28.5q99 0 185 -23t130 -51v-175q-46 36 -136.5 65t-193.5 29
q-75 0 -110 -20.5t-35 -49.5q0 -26 24 -42.5t61 -26t101 -21.5q97 -17 158.5 -36t106 -60.5t44.5 -113.5q0 -57 -34.5 -103.5t-107.5 -74t-183 -27.5q-99 0 -185 21.5zM298 780h-153l168 145h174l168 -145h-153l-97 85h-10z" />
    <glyph glyph-name="scircumflex" unicode="&#x15d;" horiz-adv-x="655" 
d="M183.5 4q-74.5 19 -113.5 42v149q44 -24 116.5 -44.5t143.5 -20.5q105 0 105 50q0 28 -34 39.5t-109 23.5q-82 13 -134 28t-90 50.5t-38 98.5q0 72 71.5 118.5t223.5 46.5q88 0 166.5 -20t118.5 -44v-153q-50 27 -129 49.5t-156 22.5q-61 0 -85.5 -13.5t-24.5 -38.5
q0 -27 33.5 -39t107.5 -23q82 -13 134.5 -28.5t91 -52t38.5 -100.5q0 -44 -29 -80t-91 -58t-155 -22q-87 0 -161.5 19zM228 640h-153l168 145h174l168 -145h-153l-97 85h-10z" />
    <glyph glyph-name="Scedilla" unicode="&#x15e;" horiz-adv-x="795" 
d="M708 89q-32 -45 -100.5 -73t-171.5 -31l-14 -46h27q53 0 82 -25t29 -68q0 -46 -38 -73.5t-107 -27.5q-60 0 -115 16v83q50 -14 94 -14q25 0 38 7t13 19q0 23 -36 23h-78l-20 21l26 89q-75 7 -138 26t-98 40v170q48 -32 135 -58.5t179 -26.5q70 0 102.5 20t32.5 50
q0 26 -24 42.5t-60.5 25.5t-101.5 20q-97 17 -158.5 35t-106 59t-44.5 113q0 58 36.5 105.5t115.5 76t198 28.5q99 0 185 -23t130 -51v-175q-46 36 -136.5 65t-193.5 29q-75 0 -110 -20.5t-35 -49.5q0 -26 24 -42.5t61 -26t101 -21.5q97 -17 158.5 -36t106 -60.5
t44.5 -113.5q0 -56 -32 -101z" />
    <glyph glyph-name="scedilla" unicode="&#x15f;" horiz-adv-x="655" 
d="M556.5 34.5q-63.5 -45.5 -190.5 -49.5l-14 -46h27q53 0 82 -25t29 -68q0 -46 -38 -73.5t-107 -27.5q-60 0 -115 16v83q50 -14 94 -14q25 0 38 7t13 19q0 23 -36 23h-78l-20 21l27 89q-64 8 -116.5 24t-81.5 33v149q44 -24 116.5 -44.5t143.5 -20.5q105 0 105 50
q0 28 -34 39.5t-109 23.5q-82 13 -134 28t-90 50.5t-38 98.5q0 72 71.5 118.5t223.5 46.5q88 0 166.5 -20t118.5 -44v-153q-50 27 -129 49.5t-156 22.5q-61 0 -85.5 -13.5t-24.5 -38.5q0 -27 33.5 -39t107.5 -23q82 -13 134.5 -28.5t91 -52t38.5 -100.5q0 -65 -63.5 -110.5z
" />
    <glyph glyph-name="Scaron" unicode="&#x160;" horiz-adv-x="795" 
d="M230 6.5q-86 21.5 -129 48.5v170q48 -32 135 -58.5t179 -26.5q70 0 102.5 20t32.5 50q0 26 -24 42.5t-60.5 25.5t-101.5 20q-97 17 -158.5 35t-106 59t-44.5 113q0 58 36.5 105.5t115.5 76t198 28.5q99 0 185 -23t130 -51v-175q-46 36 -136.5 65t-193.5 29
q-75 0 -110 -20.5t-35 -49.5q0 -26 24 -42.5t61 -26t101 -21.5q97 -17 158.5 -36t106 -60.5t44.5 -113.5q0 -57 -34.5 -103.5t-107.5 -74t-183 -27.5q-99 0 -185 21.5zM487 780h-174l-168 145h153l97 -85h10l97 85h153z" />
    <glyph glyph-name="scaron" unicode="&#x161;" horiz-adv-x="655" 
d="M183.5 4q-74.5 19 -113.5 42v149q44 -24 116.5 -44.5t143.5 -20.5q105 0 105 50q0 28 -34 39.5t-109 23.5q-82 13 -134 28t-90 50.5t-38 98.5q0 72 71.5 118.5t223.5 46.5q88 0 166.5 -20t118.5 -44v-153q-50 27 -129 49.5t-156 22.5q-61 0 -85.5 -13.5t-24.5 -38.5
q0 -27 33.5 -39t107.5 -23q82 -13 134.5 -28.5t91 -52t38.5 -100.5q0 -44 -29 -80t-91 -58t-155 -22q-87 0 -161.5 19zM417 640h-174l-168 145h153l97 -85h10l97 85h153z" />
    <glyph glyph-name="uni0162" unicode="&#x162;" 
d="M475 0h-41l-18 -61h27q53 0 82 -25t29 -68q0 -46 -38 -73.5t-107 -27.5q-60 0 -115 16v83q50 -14 94 -14q25 0 38 7t13 19q0 23 -36 23h-78l-20 21l30 100h-40v545h-280v155h740v-155h-280v-545z" />
    <glyph glyph-name="uni0163" unicode="&#x163;" horiz-adv-x="485" 
d="M344 -61q53 0 82 -25t29 -68q0 -46 -38 -73.5t-107 -27.5q-60 0 -115 16v83q50 -14 94 -14q25 0 38 7t13 19q0 23 -36 23h-78l-20 21l29 98q-68 21 -104 76t-36 141v280h-95v75h45q27 0 38.5 12.5t11.5 42.5v70h180v-125h170v-75h-170v-273q0 -45 23.5 -68.5t67.5 -23.5
q43 0 79 12v-141q-37 -9 -59.5 -12.5t-54.5 -3.5l-14 -46h27z" />
    <glyph glyph-name="Tcaron" unicode="&#x164;" 
d="M15 700h740v-155h-280v-545h-180v545h-280v155zM472 780h-174l-168 145h153l97 -85h10l97 85h153z" />
    <glyph glyph-name="tcaron" unicode="&#x165;" horiz-adv-x="510" 
d="M337.5 682.5q22.5 22.5 58.5 22.5q44 0 69 -28.5t25 -88.5q0 -97 -40 -145t-110 -48h-20v105h30q45 0 68 19.5t23 53.5h-5q-6 -10 -19 -16.5t-31 -6.5q-32 0 -51.5 19.5t-19.5 55.5q0 35 22.5 57.5zM156.5 43.5q-61.5 58.5 -61.5 171.5v280h-95v75h45q27 0 38.5 12.5
t11.5 42.5v70h180v-473q0 -45 23.5 -68.5t67.5 -23.5q42 0 79 11v-144q-37 -7 -59.5 -9.5t-54.5 -2.5q-113 0 -174.5 58.5z" />
    <glyph glyph-name="Tbar" unicode="&#x166;" 
d="M755 700v-155h-280v-120h150v-105h-150v-320h-180v320h-150v105h150v120h-280v155h740z" />
    <glyph glyph-name="tbar" unicode="&#x167;" horiz-adv-x="515" 
d="M465 495h-170v-105h170v-75h-170v-93q0 -45 23.5 -68.5t67.5 -23.5q42 0 79 11v-144q-37 -7 -59.5 -9.5t-54.5 -2.5q-113 0 -174.5 58.5t-61.5 171.5v100h-95v75h95v105h-95v75h45q27 0 38.5 12.5t11.5 42.5v70h180v-125h170v-75z" />
    <glyph glyph-name="Utilde" unicode="&#x168;" horiz-adv-x="904" 
d="M169.5 67.5q-94.5 82.5 -94.5 232.5v400h180v-390q0 -170 197 -170t197 170v390h180v-400q0 -150 -94.5 -232.5t-282.5 -82.5t-282.5 82.5zM507 785.5q-24 10.5 -51 29.5q-17 12 -28.5 18t-22.5 6q-13 0 -20.5 -7.5t-7.5 -22.5v-29h-140v50q0 47 27 73.5t76 26.5
q33 0 56 -10.5t51 -29.5q17 -13 28 -18.5t23 -5.5q29 0 29 30v29h140v-50q0 -47 -27 -73.5t-76 -26.5q-33 0 -57 10.5z" />
    <glyph glyph-name="utilde" unicode="&#x169;" horiz-adv-x="750" 
d="M116 43.5q-61 58.5 -61 161.5v365h180v-330q0 -57 32.5 -88.5t92.5 -31.5q53 0 93 25.5t57 57.5v367h180v-570h-180v86h-8q-24 -38 -81 -69.5t-131 -31.5q-113 0 -174 58.5zM428 645.5q-24 10.5 -51 29.5q-17 12 -28.5 18t-22.5 6q-13 0 -20.5 -7.5t-7.5 -22.5v-29h-140
v50q0 47 27 73.5t76 26.5q33 0 56 -10.5t51 -29.5q17 -13 28 -18.5t23 -5.5q29 0 29 30v29h140v-50q0 -47 -27 -73.5t-76 -26.5q-33 0 -57 10.5z" />
    <glyph glyph-name="Umacron" unicode="&#x16a;" horiz-adv-x="904" 
d="M169.5 67.5q-94.5 82.5 -94.5 232.5v400h180v-390q0 -170 197 -170t197 170v390h180v-400q0 -150 -94.5 -232.5t-282.5 -82.5t-282.5 82.5zM657 795h-410v110h410v-110z" />
    <glyph glyph-name="umacron" unicode="&#x16b;" horiz-adv-x="750" 
d="M116 43.5q-61 58.5 -61 161.5v365h180v-330q0 -57 32.5 -88.5t92.5 -31.5q53 0 93 25.5t57 57.5v367h180v-570h-180v86h-8q-24 -38 -81 -69.5t-131 -31.5q-113 0 -174 58.5zM578 655h-410v110h410v-110z" />
    <glyph glyph-name="Ubreve" unicode="&#x16c;" horiz-adv-x="904" 
d="M169.5 67.5q-94.5 82.5 -94.5 232.5v400h180v-390q0 -170 197 -170t197 170v390h180v-400q0 -150 -94.5 -232.5t-282.5 -82.5t-282.5 82.5zM291.5 820q-52.5 40 -52.5 110h130q3 -60 83 -60q42 0 61 15.5t21 44.5h130q0 -70 -52.5 -110t-159.5 -40q-108 0 -160.5 40z" />
    <glyph glyph-name="ubreve" unicode="&#x16d;" horiz-adv-x="750" 
d="M116 43.5q-61 58.5 -61 161.5v365h180v-330q0 -57 32.5 -88.5t92.5 -31.5q53 0 93 25.5t57 57.5v367h180v-570h-180v86h-8q-24 -38 -81 -69.5t-131 -31.5q-113 0 -174 58.5zM212.5 680q-52.5 40 -52.5 110h130q3 -60 83 -60q42 0 61 15.5t21 44.5h130q0 -70 -52.5 -110
t-159.5 -40q-108 0 -160.5 40z" />
    <glyph glyph-name="Uring" unicode="&#x16e;" horiz-adv-x="904" 
d="M169.5 67.5q-94.5 82.5 -94.5 232.5v400h180v-390q0 -170 197 -170t197 170v390h180v-400q0 -150 -94.5 -232.5t-282.5 -82.5t-282.5 82.5zM344.5 780.5q-37.5 30.5 -37.5 79.5t37.5 79.5t107.5 30.5t107.5 -30.5t37.5 -79.5t-37.5 -79.5t-107.5 -30.5t-107.5 30.5z
M493 833.5q14 10.5 14 26.5t-14 26.5t-41 10.5t-41 -10.5t-14 -26.5t14 -26.5t41 -10.5t41 10.5z" />
    <glyph glyph-name="uring" unicode="&#x16f;" horiz-adv-x="750" 
d="M116 43.5q-61 58.5 -61 161.5v365h180v-330q0 -57 32.5 -88.5t92.5 -31.5q53 0 93 25.5t57 57.5v367h180v-570h-180v86h-8q-24 -38 -81 -69.5t-131 -31.5q-113 0 -174 58.5zM265.5 640.5q-37.5 30.5 -37.5 79.5t37.5 79.5t107.5 30.5t107.5 -30.5t37.5 -79.5t-37.5 -79.5
t-107.5 -30.5t-107.5 30.5zM414 693.5q14 10.5 14 26.5t-14 26.5t-41 10.5t-41 -10.5t-14 -26.5t14 -26.5t41 -10.5t41 10.5z" />
    <glyph glyph-name="Uhungarumlaut" unicode="&#x170;" horiz-adv-x="904" 
d="M169.5 67.5q-94.5 82.5 -94.5 232.5v400h180v-390q0 -170 197 -170t197 170v390h180v-400q0 -150 -94.5 -232.5t-282.5 -82.5t-282.5 82.5zM195 765h-13l-10 55l225 125h55l10 -105zM490 765h-13l-10 55l225 125h55l10 -105z" />
    <glyph glyph-name="uhungarumlaut" unicode="&#x171;" horiz-adv-x="750" 
d="M116 43.5q-61 58.5 -61 161.5v365h180v-330q0 -57 32.5 -88.5t92.5 -31.5q53 0 93 25.5t57 57.5v367h180v-570h-180v86h-8q-24 -38 -81 -69.5t-131 -31.5q-113 0 -174 58.5zM131 625h-13l-10 55l225 125h55l10 -105zM426 625h-13l-10 55l225 125h55l10 -105z" />
    <glyph glyph-name="Uogonek" unicode="&#x172;" horiz-adv-x="904" 
d="M649 700h180v-400q0 -211 -193 -288q-148 -59 -148 -109q0 -31 51 -31q35 0 71 7v-95q-49 -9 -104 -9q-67 0 -101.5 24t-34.5 65q0 33 24 62.5t64 52.5v6q-188 0 -285.5 80t-97.5 235v400h180v-390q0 -170 197 -170t197 170v390z" />
    <glyph glyph-name="uogonek" unicode="&#x173;" horiz-adv-x="750" 
d="M695 -121v-95q-49 -9 -104 -9q-67 0 -101.5 24t-34.5 65q0 40 33.5 74t85.5 57v5h-64v86h-8q-24 -38 -81 -69.5t-131 -31.5q-113 0 -174 58.5t-61 161.5v365h180v-330q0 -57 32.5 -88.5t92.5 -31.5q53 0 93 25.5t57 57.5v367h180v-570q-117 -55 -117 -97q0 -31 51 -31
q35 0 71 7z" />
    <glyph glyph-name="Wcircumflex" unicode="&#x174;" horiz-adv-x="1295" 
d="M487 0h-260l-222 700h190l174 -552h8l177 552h187l177 -552h8l174 552h190l-222 -700h-260l-156 503h-9zM546 780h-153l168 145h174l168 -145h-153l-97 85h-10z" />
    <glyph glyph-name="wcircumflex" unicode="&#x175;" horiz-adv-x="1056" 
d="M402 0h-216l-181 570h178l125 -406h5l135 406h160l135 -406h5l125 406h178l-181 -570h-216l-123 370h-6zM426 640h-153l168 145h174l168 -145h-153l-97 85h-10z" />
    <glyph glyph-name="Ycircumflex" unicode="&#x176;" horiz-adv-x="860" 
d="M520 0h-180v150l-360 550h200l246 -380h8l246 380h200l-360 -550v-150zM328 780h-153l168 145h174l168 -145h-153l-97 85h-10z" />
    <glyph glyph-name="ycircumflex" unicode="&#x177;" horiz-adv-x="695" 
d="M340 -190h-185l120 253l-280 507h192l171 -319h5l147 319h190zM248 640h-153l168 145h174l168 -145h-153l-97 85h-10z" />
    <glyph glyph-name="Ydieresis" unicode="&#x178;" horiz-adv-x="860" 
d="M520 0h-180v150l-360 550h200l246 -380h8l246 380h200l-360 -550v-150zM233 789.5q-26 24.5 -26 60.5t26 60.5t67 24.5q40 0 66 -24.5t26 -60.5t-26 -60.5t-66 -24.5q-41 0 -67 24.5zM493 789.5q-26 24.5 -26 60.5t26 60.5t67 24.5q40 0 66 -24.5t26 -60.5t-26 -60.5
t-66 -24.5q-41 0 -67 24.5z" />
    <glyph glyph-name="Zacute" unicode="&#x179;" horiz-adv-x="820" 
d="M770 0h-710v173l445 344v8h-441v175h686v-173l-445 -344v-8h465v-175zM280 765h-15l-10 55l270 125h50l10 -130z" />
    <glyph glyph-name="zacute" unicode="&#x17a;" horiz-adv-x="670" 
d="M625 0h-585v147l392 265v8h-387v150h575v-148l-392 -265v-7h397v-150zM205 625h-15l-10 55l270 125h50l10 -130z" />
    <glyph glyph-name="Zdotaccent" unicode="&#x17b;" horiz-adv-x="820" 
d="M770 0h-710v173l445 344v8h-441v175h686v-173l-445 -344v-8h465v-175zM328.5 787.5q-30.5 27.5 -30.5 67.5t30.5 67.5t79.5 27.5t79.5 -27.5t30.5 -67.5t-30.5 -67.5t-79.5 -27.5t-79.5 27.5z" />
    <glyph glyph-name="zdotaccent" unicode="&#x17c;" horiz-adv-x="670" 
d="M625 0h-585v147l392 265v8h-387v150h575v-148l-392 -265v-7h397v-150zM253.5 647.5q-30.5 27.5 -30.5 67.5t30.5 67.5t79.5 27.5t79.5 -27.5t30.5 -67.5t-30.5 -67.5t-79.5 -27.5t-79.5 27.5z" />
    <glyph glyph-name="Zcaron" unicode="&#x17d;" horiz-adv-x="820" 
d="M770 0h-710v173l445 344v8h-441v175h686v-173l-445 -344v-8h465v-175zM495 780h-174l-168 145h153l97 -85h10l97 85h153z" />
    <glyph glyph-name="zcaron" unicode="&#x17e;" horiz-adv-x="670" 
d="M625 0h-585v147l392 265v8h-387v150h575v-148l-392 -265v-7h397v-150zM420 640h-174l-168 145h153l97 -85h10l97 85h153z" />
    <glyph glyph-name="uni018F" unicode="&#x18f;" horiz-adv-x="1050" 
d="M766.5 666.5q107.5 -48.5 163 -131.5t55.5 -185q0 -104 -53.5 -187t-157 -130.5t-249.5 -47.5t-250 48t-157 133t-53 194v35h726q-16 83 -92 129t-219 46q-94 0 -187 -23t-158 -52v155q63 25 163 45t212 20q149 0 256.5 -48.5zM702 172.5q67 42.5 86 117.5h-533
q16 -74 84 -117t186 -43q110 0 177 42.5z" />
    <glyph glyph-name="florin" unicode="&#x192;" horiz-adv-x="600" 
d="M-80 -190l30 150h84q39 0 57.5 14t25.5 51l83 390h-105l15 75h106l10 49q19 93 73 137t153 44h163l-30 -145h-107q-36 0 -53.5 -14.5t-24.5 -50.5l-4 -20h149l-15 -75h-150l-88 -415q-21 -97 -78 -143.5t-165 -46.5h-129z" />
    <glyph glyph-name="uni01F4" unicode="&#x1f4;" horiz-adv-x="970" 
d="M280 32.5q-107 47.5 -161 130.5t-54 187q0 105 54.5 187.5t164.5 130t268 47.5q114 0 207 -20.5t146 -46.5v-156q-49 30 -139 54t-199 24q-103 0 -173 -29t-104.5 -79t-34.5 -112t34 -112t101.5 -79t164.5 -29q65 0 125.5 14t94.5 31v70h-285v120h410v-290
q-52 -34 -150.5 -62t-209.5 -28q-153 0 -260 47.5zM365 765h-15l-10 55l270 125h50l10 -130z" />
    <glyph glyph-name="uni01F5" unicode="&#x1f5;" horiz-adv-x="800" 
d="M215.5 -188q-75.5 17 -115.5 38v152q39 -24 106.5 -43t138.5 -19q107 0 161 46t54 124v17h-7q-26 -34 -85 -62t-133 -28q-88 0 -153.5 34.5t-101 96.5t-35.5 142q0 81 35.5 143.5t101 97t153.5 34.5q74 0 133 -28t85 -62h7v75h180v-460q0 -147 -93.5 -231t-271.5 -84
q-84 0 -159.5 17zM494.5 189q44.5 22 65.5 49v146q-21 27 -65.5 49t-99.5 22q-78 0 -119 -37.5t-41 -106.5t41 -106.5t119 -37.5q55 0 99.5 22zM235 625h-15l-10 55l270 125h50l10 -130z" />
    <glyph glyph-name="Aringacute" unicode="&#x1fa;" horiz-adv-x="916" 
d="M717 0l-74 155h-370l-74 -155h-199l338 693q-25 26 -25 68q0 29 15 52.5t51 46.5l164 101h50l10 -100l-51 -14q21 -11 36 -33t15 -53q0 -42 -25 -68l338 -693h-199zM417 787.5q-14 -10.5 -14 -26.5t14 -26.5t41 -10.5t41 10.5t14 26.5t-14 26.5t-41 10.5t-41 -10.5z
M454 533l-131 -273h270l-131 273h-8z" />
    <glyph glyph-name="aringacute" unicode="&#x1fb;" horiz-adv-x="740" 
d="M262.5 641.5q-37.5 30.5 -37.5 79.5q0 29 15 52.5t51 46.5l164 101h50l10 -100l-51 -14q21 -11 36 -33t15 -53q0 -49 -37.5 -79.5t-107.5 -30.5t-107.5 30.5zM411 694.5q14 10.5 14 26.5t-14 26.5t-41 10.5t-41 -10.5t-14 -26.5t14 -26.5t41 -10.5t41 10.5zM88.5 29
q-53.5 44 -53.5 116q0 84 67 130.5t218 49.5q78 1 118.5 8t53.5 17t13 25q0 30 -34 47.5t-121 17.5q-77 0 -153 -19.5t-122 -43.5v148q42 23 121 41.5t169 18.5q320 0 320 -215v-370h-180v80h-6q-33 -36 -101.5 -65.5t-152.5 -29.5q-103 0 -156.5 44zM433 130q50 20 72 45
v104q-45 -26 -155 -29q-130 -4 -130 -75q0 -29 24.5 -47t75.5 -18q63 0 113 20z" />
    <glyph glyph-name="AEacute" unicode="&#x1fc;" horiz-adv-x="1190" 
d="M730 300v-155h410v-145h-590v180h-285l-83 -180h-192l322 700h808v-145h-390v-150h350v-105h-350zM437 555l-124 -270h237v270h-113zM565 765h-15l-10 55l270 125h50l10 -130z" />
    <glyph glyph-name="aeacute" unicode="&#x1fd;" horiz-adv-x="1165" 
d="M1120 255h-451q11 -62 55.5 -93.5t130.5 -31.5q64 0 121.5 17t88.5 38v-148q-31 -20 -93.5 -36t-136.5 -16q-94 0 -166.5 29t-118.5 81h-12q-32 -34 -99.5 -72t-168.5 -38q-119 0 -177 45.5t-58 124.5q0 175 265 175h180v15q0 34 -10.5 54t-41 30.5t-88.5 10.5
q-76 0 -148.5 -18t-116.5 -40v151q44 20 117.5 36t157.5 16q68 0 118.5 -13t80.5 -32.5t40 -39.5h7q26 33 85.5 59t138.5 26q88 0 156 -38.5t106 -107.5t38 -159v-25zM932 330q-3 60 -38.5 97.5t-93.5 37.5q-54 0 -90.5 -36.5t-43.5 -98.5h266zM433.5 129q44.5 19 69.5 43
q-16 39 -21 83h-147q-58 0 -86.5 -20t-28.5 -52q0 -34 27 -53.5t83 -19.5q59 0 103.5 19zM470 625h-15l-10 55l270 125h50l10 -130z" />
    <glyph glyph-name="Oslashacute" unicode="&#x1fe;" horiz-adv-x="1090" 
d="M906 609q59 -49 89 -115.5t30 -143.5q0 -105 -54.5 -187.5t-162.5 -130t-263 -47.5q-163 0 -277 54l-44 -39h-143l103 92q-59 48 -89 114.5t-30 143.5q0 105 54.5 187.5t162.5 130t263 47.5q161 0 277 -54l43 39h143zM313 207l379 339q-64 24 -147 24q-93 0 -158.5 -29
t-98.5 -79t-33 -112q0 -83 58 -143zM703.5 159q65.5 29 98.5 79t33 112q0 86 -59 143l-379 -338q64 -25 148 -25q93 0 158.5 29zM395 765h-15l-10 55l270 125h50l10 -130z" />
    <glyph glyph-name="oslashacute" unicode="&#x1ff;" horiz-adv-x="830" 
d="M686 504q49 -40 74 -96t25 -123q0 -87 -42.5 -155t-126 -106.5t-201.5 -38.5q-129 0 -220 47l-33 -32h-87l69 66q-49 40 -74 96t-25 123q0 88 42.5 155.5t126 106t201.5 38.5q128 0 218 -46l33 31h88zM264 182l257 248q-44 25 -106 25q-85 0 -132.5 -45.5t-47.5 -124.5
q0 -60 29 -103zM547.5 160.5q47.5 45.5 47.5 124.5q0 61 -29 104l-258 -248q44 -26 107 -26q85 0 132.5 45.5zM265 625h-15l-10 55l270 125h50l10 -130z" />
    <glyph glyph-name="uni0218" unicode="&#x218;" horiz-adv-x="795" 
d="M230 6.5q-86 21.5 -129 48.5v170q48 -32 135 -58.5t179 -26.5q70 0 102.5 20t32.5 50q0 26 -24 42.5t-60.5 25.5t-101.5 20q-97 17 -158.5 35t-106 59t-44.5 113q0 58 36.5 105.5t115.5 76t198 28.5q99 0 185 -23t130 -51v-175q-46 36 -136.5 65t-193.5 29
q-75 0 -110 -20.5t-35 -49.5q0 -26 24 -42.5t61 -26t101 -21.5q97 -17 158.5 -36t106 -60.5t44.5 -113.5q0 -57 -34.5 -103.5t-107.5 -74t-183 -27.5q-99 0 -185 21.5zM345 -330v70h30q83 0 83 64h-5q-5 -10 -17.5 -17t-30.5 -7q-32 0 -51 19t-19 51t22.5 53.5t57.5 21.5
q43 0 69 -27t26 -80q0 -69 -37 -108.5t-101 -39.5h-27z" />
    <glyph glyph-name="uni0219" unicode="&#x219;" horiz-adv-x="655" 
d="M183.5 4q-74.5 19 -113.5 42v149q44 -24 116.5 -44.5t143.5 -20.5q105 0 105 50q0 28 -34 39.5t-109 23.5q-82 13 -134 28t-90 50.5t-38 98.5q0 72 71.5 118.5t223.5 46.5q88 0 166.5 -20t118.5 -44v-153q-50 27 -129 49.5t-156 22.5q-61 0 -85.5 -13.5t-24.5 -38.5
q0 -27 33.5 -39t107.5 -23q82 -13 134.5 -28.5t91 -52t38.5 -100.5q0 -44 -29 -80t-91 -58t-155 -22q-87 0 -161.5 19zM275 -330v70h30q83 0 83 64h-5q-5 -10 -17.5 -17t-30.5 -7q-32 0 -51 19t-19 51t22.5 53.5t57.5 21.5q43 0 69 -27t26 -80q0 -69 -37 -108.5t-101 -39.5
h-27z" />
    <glyph glyph-name="uni021A" unicode="&#x21a;" 
d="M15 700h740v-155h-280v-545h-180v545h-280v155zM310 -330v70h30q83 0 83 64h-5q-5 -10 -17.5 -17t-30.5 -7q-32 0 -51 19t-19 51t22.5 53.5t57.5 21.5q43 0 69 -27t26 -80q0 -69 -37 -108.5t-101 -39.5h-27z" />
    <glyph glyph-name="uni021B" unicode="&#x21b;" horiz-adv-x="485" 
d="M156.5 43.5q-61.5 58.5 -61.5 171.5v280h-95v75h45q27 0 38.5 12.5t11.5 42.5v70h180v-125h170v-75h-170v-273q0 -45 23.5 -68.5t67.5 -23.5q43 0 79 12v-141q-37 -9 -59.5 -12.5t-54.5 -3.5q-113 0 -174.5 58.5zM190 -330v70h30q83 0 83 64h-5q-5 -10 -17.5 -17
t-30.5 -7q-32 0 -51 19t-19 51t22.5 53.5t57.5 21.5q43 0 69 -27t26 -80q0 -69 -37 -108.5t-101 -39.5h-27z" />
    <glyph glyph-name="uni0232" unicode="&#x232;" horiz-adv-x="860" 
d="M520 0h-180v150l-360 550h200l246 -380h8l246 380h200l-360 -550v-150zM635 795h-410v110h410v-110z" />
    <glyph glyph-name="uni0233" unicode="&#x233;" horiz-adv-x="695" 
d="M340 -190h-185l120 253l-280 507h192l171 -319h5l147 319h190zM555 655h-410v110h410v-110z" />
    <glyph glyph-name="uni0237" unicode="&#x237;" horiz-adv-x="300" 
d="M-35 -202q-25 3 -62 11v137q44 -11 77 -11q37 0 58.5 22t21.5 66v547h180v-546q0 -111 -55.5 -170t-165.5 -59q-29 0 -54 3z" />
    <glyph glyph-name="uni0244" unicode="&#x244;" horiz-adv-x="964" 
d="M959 500v-105h-100v-95q0 -150 -94.5 -232.5t-282.5 -82.5t-282.5 82.5t-94.5 232.5v95h-100v105h100v200h180v-200h394v200h180v-200h100zM679 395h-394v-85q0 -170 197 -170t197 170v85z" />
    <glyph glyph-name="uni0259" unicode="&#x259;" horiz-adv-x="805" 
d="M591 546q84 -39 126.5 -107t42.5 -154q0 -88 -41.5 -156t-121.5 -106t-192 -38q-115 0 -196 38t-122.5 106t-41.5 156v20h523q-10 62 -63.5 98.5t-146.5 36.5q-73 0 -143 -19.5t-110 -42.5v153q43 20 120 37t163 17q119 0 203 -39zM509.5 138q43.5 33 56.5 92h-331
q8 -56 49 -90.5t116 -34.5q66 0 109.5 33z" />
    <glyph glyph-name="uni0289" unicode="&#x289;" horiz-adv-x="805" 
d="M800 430v-75h-80v-355h-180v86h-8q-24 -38 -81 -69.5t-131 -31.5q-113 0 -174 58.5t-61 161.5v150h-80v75h80v140h180v-140h275v140h180v-140h80zM540 355h-275v-115q0 -57 32.5 -88.5t92.5 -31.5q53 0 93 25.5t57 57.5v152z" />
    <glyph glyph-name="uni02BC" unicode="&#x2bc;" horiz-adv-x="235" 
d="M52.5 713q22.5 22 57.5 22q45 0 70 -29t25 -91q0 -95 -40 -142.5t-110 -47.5h-20v105h30q44 0 67 19t23 52h-5q-6 -10 -18.5 -17t-30.5 -7q-32 0 -51.5 21t-19.5 58q0 35 22.5 57z" />
    <glyph glyph-name="circumflex" unicode="&#x2c6;" horiz-adv-x="570" 
d="M183 585h-153l168 145h174l168 -145h-153l-97 85h-10z" />
    <glyph glyph-name="caron" unicode="&#x2c7;" horiz-adv-x="570" 
d="M372 585h-174l-168 145h153l97 -85h10l97 85h153z" />
    <glyph glyph-name="breve" unicode="&#x2d8;" horiz-adv-x="485" 
d="M82.5 625q-52.5 40 -52.5 110h130q3 -60 83 -60q42 0 61 15.5t21 44.5h130q0 -70 -52.5 -110t-159.5 -40q-108 0 -160.5 40z" />
    <glyph glyph-name="dotaccent" unicode="&#x2d9;" horiz-adv-x="280" 
d="M60.5 577.5q-30.5 27.5 -30.5 67.5t30.5 67.5t79.5 27.5t79.5 -27.5t30.5 -67.5t-30.5 -67.5t-79.5 -27.5t-79.5 27.5z" />
    <glyph glyph-name="ring" unicode="&#x2da;" horiz-adv-x="350" 
d="M67.5 575.5q-37.5 30.5 -37.5 79.5t37.5 79.5t107.5 30.5t107.5 -30.5t37.5 -79.5t-37.5 -79.5t-107.5 -30.5t-107.5 30.5zM216 628.5q14 10.5 14 26.5t-14 26.5t-41 10.5t-41 -10.5t-14 -26.5t14 -26.5t41 -10.5t41 10.5z" />
    <glyph glyph-name="ogonek" unicode="&#x2db;" horiz-adv-x="300" 
d="M64.5 -201q-34.5 24 -34.5 65q0 40 33.5 74t85.5 57v18l116 -13q-117 -55 -117 -97q0 -31 51 -31q35 0 71 7v-95q-49 -9 -104 -9q-67 0 -101.5 24z" />
    <glyph glyph-name="tilde" unicode="&#x2dc;" horiz-adv-x="490" 
d="M300 590.5q-24 10.5 -51 29.5q-17 12 -28.5 18t-22.5 6q-13 0 -20.5 -7.5t-7.5 -22.5v-29h-140v50q0 47 27 73.5t76 26.5q33 0 56 -10.5t51 -29.5q17 -13 28 -18.5t23 -5.5q29 0 29 30v29h140v-50q0 -47 -27 -73.5t-76 -26.5q-33 0 -57 10.5z" />
    <glyph glyph-name="hungarumlaut" unicode="&#x2dd;" horiz-adv-x="645" 
d="M53 565h-13l-10 55l225 125h55l10 -105zM348 565h-13l-10 55l225 125h55l10 -105z" />
    <glyph glyph-name="gravecomb" unicode="&#x300;" horiz-adv-x="0" 
d="M-40 565h-15l-305 50l10 130h50l270 -125z" />
    <glyph glyph-name="acutecomb" unicode="&#x301;" horiz-adv-x="0" 
d="M-335 565h-15l-10 55l270 125h50l10 -130z" />
    <glyph glyph-name="uni0302" unicode="&#x302;" horiz-adv-x="0" 
d="M-387 585h-153l168 145h174l168 -145h-153l-97 85h-10z" />
    <glyph glyph-name="tildecomb" unicode="&#x303;" horiz-adv-x="0" 
d="M-190 590.5q-24 10.5 -51 29.5q-17 12 -28.5 18t-22.5 6q-13 0 -20.5 -7.5t-7.5 -22.5v-29h-140v50q0 47 27 73.5t76 26.5q33 0 56 -10.5t51 -29.5q17 -13 28 -18.5t23 -5.5q29 0 29 30v29h140v-50q0 -47 -27 -73.5t-76 -26.5q-33 0 -57 10.5z" />
    <glyph glyph-name="uni0304" unicode="&#x304;" horiz-adv-x="0" 
d="M-30 605h-410v110h410v-110z" />
    <glyph glyph-name="uni0306" unicode="&#x306;" horiz-adv-x="0" 
d="M-402.5 625q-52.5 40 -52.5 110h130q3 -60 83 -60q42 0 61 15.5t21 44.5h130q0 -70 -52.5 -110t-159.5 -40q-108 0 -160.5 40z" />
    <glyph glyph-name="uni0307" unicode="&#x307;" horiz-adv-x="0" 
d="M-219.5 577.5q-30.5 27.5 -30.5 67.5t30.5 67.5t79.5 27.5t79.5 -27.5t30.5 -67.5t-30.5 -67.5t-79.5 -27.5t-79.5 27.5z" />
    <glyph glyph-name="uni0308" unicode="&#x308;" horiz-adv-x="0" 
d="M-449 584.5q-26 24.5 -26 60.5t26 60.5t67 24.5q40 0 66 -24.5t26 -60.5t-26 -60.5t-66 -24.5q-41 0 -67 24.5zM-189 584.5q-26 24.5 -26 60.5t26 60.5t67 24.5q40 0 66 -24.5t26 -60.5t-26 -60.5t-66 -24.5q-41 0 -67 24.5z" />
    <glyph glyph-name="uni030A" unicode="&#x30a;" horiz-adv-x="0" 
d="M-282.5 575.5q-37.5 30.5 -37.5 79.5t37.5 79.5t107.5 30.5t107.5 -30.5t37.5 -79.5t-37.5 -79.5t-107.5 -30.5t-107.5 30.5zM-134 628.5q14 10.5 14 26.5t-14 26.5t-41 10.5t-41 -10.5t-14 -26.5t14 -26.5t41 -10.5t41 10.5z" />
    <glyph glyph-name="uni030B" unicode="&#x30b;" horiz-adv-x="0" 
d="M-592 565h-13l-10 55l225 125h55l10 -105zM-297 565h-13l-10 55l225 125h55l10 -105z" />
    <glyph glyph-name="uni030C" unicode="&#x30c;" horiz-adv-x="0" 
d="M-198 585h-174l-168 145h153l97 -85h10l97 85h153z" />
    <glyph glyph-name="uni0326" unicode="&#x326;" horiz-adv-x="0" 
d="M-195 -300v70h30q83 0 83 64h-5q-5 -10 -17.5 -17t-30.5 -7q-32 0 -51 19t-19 51t22.5 53.5t57.5 21.5q43 0 69 -27t26 -80q0 -69 -37 -108.5t-101 -39.5h-27z" />
    <glyph glyph-name="uni0327" unicode="&#x327;" horiz-adv-x="0" 
d="M-141 -61q53 0 82 -25t29 -68q0 -46 -38 -73.5t-107 -27.5q-60 0 -115 16v83q50 -14 94 -14q25 0 38 7t13 19q0 23 -36 23h-78l-20 21l31 104l98 -4l-18 -61h27z" />
    <glyph glyph-name="uni0328" unicode="&#x328;" horiz-adv-x="0" 
d="M-235.5 -201q-34.5 24 -34.5 65q0 40 33.5 74t85.5 57v18l116 -13q-117 -55 -117 -97q0 -31 51 -31q35 0 71 7v-95q-49 -9 -104 -9q-67 0 -101.5 24z" />
    <glyph glyph-name="uni0400" unicode="&#x400;" horiz-adv-x="755" 
d="M260 300v-155h445v-145h-625v700h605v-145h-425v-150h385v-105h-385zM552 765h-15l-305 50l10 130h50l270 -125z" />
    <glyph glyph-name="uni0401" unicode="&#x401;" horiz-adv-x="755" 
d="M260 300v-155h445v-145h-625v700h605v-145h-425v-150h385v-105h-385zM186 789.5q-26 24.5 -26 60.5t26 60.5t67 24.5q40 0 66 -24.5t26 -60.5t-26 -60.5t-66 -24.5q-41 0 -67 24.5zM446 789.5q-26 24.5 -26 60.5t26 60.5t67 24.5q40 0 66 -24.5t26 -60.5t-26 -60.5
t-66 -24.5q-41 0 -67 24.5z" />
    <glyph glyph-name="uni0402" unicode="&#x402;" horiz-adv-x="1015" 
d="M898 368q77 -57 77 -158q0 -105 -74.5 -165t-224.5 -60q-51 0 -101 10v139q47 -9 87 -9q62 0 92.5 24t30.5 69q0 40 -34 65t-106 25q-128 0 -225 -38v-270h-180v555h-225v145h665v-145h-260v-167q114 37 235 37q166 0 243 -57z" />
    <glyph glyph-name="uni0403" unicode="&#x403;" horiz-adv-x="735" 
d="M260 0h-180v700h640v-155h-460v-545zM270 765h-15l-10 55l270 125h50l10 -130z" />
    <glyph glyph-name="uni0404" unicode="&#x404;" horiz-adv-x="900" 
d="M353 523.5q-73 -46.5 -92 -123.5h324v-105h-323q19 -74 89.5 -119.5t178.5 -45.5q87 0 162.5 23.5t112.5 53.5v-158q-41 -24 -119 -44t-171 -20q-141 0 -242.5 47.5t-154.5 130.5t-53 187t54 187t160 130.5t256 47.5q99 0 181.5 -22.5t123.5 -49.5v-158q-41 33 -120.5 59
t-174.5 26q-119 0 -192 -46.5z" />
    <glyph glyph-name="uni0405" unicode="&#x405;" horiz-adv-x="795" 
d="M230 6.5q-86 21.5 -129 48.5v170q48 -32 135 -58.5t179 -26.5q70 0 102.5 20t32.5 50q0 26 -24 42.5t-60.5 25.5t-101.5 20q-97 17 -158.5 35t-106 59t-44.5 113q0 58 36.5 105.5t115.5 76t198 28.5q99 0 185 -23t130 -51v-175q-46 36 -136.5 65t-193.5 29
q-75 0 -110 -20.5t-35 -49.5q0 -26 24 -42.5t61 -26t101 -21.5q97 -17 158.5 -36t106 -60.5t44.5 -113.5q0 -57 -34.5 -103.5t-107.5 -74t-183 -27.5q-99 0 -185 21.5z" />
    <glyph glyph-name="uni0406" unicode="&#x406;" horiz-adv-x="778" 
d="M738 700v-145h-259v-410h259v-145h-698v145h259v410h-259v145h698z" />
    <glyph glyph-name="uni0407" unicode="&#x407;" horiz-adv-x="778" 
d="M738 700v-145h-259v-410h259v-145h-698v145h259v410h-259v145h698zM192 789.5q-26 24.5 -26 60.5t26 60.5t67 24.5q40 0 66 -24.5t26 -60.5t-26 -60.5t-66 -24.5q-41 0 -67 24.5zM452 789.5q-26 24.5 -26 60.5t26 60.5t67 24.5q40 0 66 -24.5t26 -60.5t-26 -60.5
t-66 -24.5q-41 0 -67 24.5z" />
    <glyph glyph-name="uni0408" unicode="&#x408;" horiz-adv-x="625" 
d="M15 17v154q60 -18 102.5 -24.5t81.5 -6.5q79 0 122.5 38.5t43.5 114.5v407h180v-408q0 -153 -86 -230t-251 -77q-98 0 -193 32z" />
    <glyph glyph-name="uni0409" unicode="&#x409;" horiz-adv-x="1310" 
d="M970 430q153 0 226.5 -57.5t73.5 -157.5t-73.5 -157.5t-226.5 -57.5h-405v545h-259l-2 -86q-2 -107 -20 -199.5t-42.5 -158.5t-49.5 -101h-187v13q26 33 52 97.5t45 154.5t22 194l8 241h613v-270h225zM965 145q58 0 86.5 22t28.5 60q0 39 -28.5 61t-86.5 22h-220v-165
h220z" />
    <glyph glyph-name="uni040A" unicode="&#x40a;" horiz-adv-x="1370" 
d="M1030 430q153 0 226.5 -57.5t73.5 -157.5t-73.5 -157.5t-226.5 -57.5h-405v310h-365v-310h-180v700h180v-270h365v270h180v-270h225zM1025 145q58 0 86.5 22t28.5 60q0 39 -28.5 61t-86.5 22h-220v-165h220z" />
    <glyph glyph-name="uni040B" unicode="&#x40b;" horiz-adv-x="1020" 
d="M808 392.5q75 -32.5 118.5 -98t43.5 -159.5v-135h-180v132q0 79 -50.5 113.5t-124.5 34.5q-55 0 -100.5 -8t-94.5 -27v-245h-180v555h-225v145h665v-145h-260v-168q56 20 108 29t110 9q95 0 170 -32.5z" />
    <glyph glyph-name="uni040C" unicode="&#x40c;" horiz-adv-x="845" 
d="M260 0h-180v700h180v-305h5l370 305h230l-400 -335v-5l370 -360h-225l-345 325h-5v-325zM310 765h-15l-10 55l270 125h50l10 -130z" />
    <glyph glyph-name="uni040D" unicode="&#x40d;" horiz-adv-x="895" 
d="M310 0h-230v700h180v-492h5l320 492h230v-700h-180v491h-5zM608 765h-15l-305 50l10 130h50l270 -125z" />
    <glyph glyph-name="uni040E" unicode="&#x40e;" horiz-adv-x="800" 
d="M620 700h200l-271 -513q-58 -109 -126 -155.5t-177 -46.5q-66 0 -131 13v115q26 -4 46 -6t44 -2q40 0 71.5 10t47.5 27l-324 558h200l219 -375h8zM238 812q-58 47 -58 123h133q3 -65 97 -65t97 65h133q0 -76 -59 -123t-172 -47t-171 47z" />
    <glyph glyph-name="uni040F" unicode="&#x40f;" horiz-adv-x="914" 
d="M557 -175h-200v45l23 110v20h-300v700h180v-545h394v545h180v-700h-300v-20l23 -110v-45z" />
    <glyph glyph-name="uni0410" unicode="&#x410;" horiz-adv-x="916" 
d="M916 0h-199l-74 155h-370l-74 -155h-199l342 700h232zM454 533l-131 -273h270l-131 273h-8z" />
    <glyph glyph-name="uni0411" unicode="&#x411;" horiz-adv-x="825" 
d="M490 420q152 0 223.5 -53t71.5 -147q0 -64 -33 -113.5t-100.5 -78t-166.5 -28.5h-405v700h638v-143h-458v-137h230zM470 145q63 0 94 23.5t31 61.5t-31 61.5t-94 23.5h-210v-170h210z" />
    <glyph glyph-name="uni0412" unicode="&#x412;" horiz-adv-x="865" 
d="M580 345q100 0 152.5 -43.5t52.5 -116.5q0 -84 -67 -134.5t-203 -50.5h-435v700h440q144 0 214.5 -50.5t70.5 -129.5q0 -76 -56.5 -121.5t-168.5 -45.5v-8zM260 555v-155h240q59 0 87 21.5t28 58.5q0 34 -28.5 54.5t-86.5 20.5h-240zM480 145q115 0 115 75t-115 75h-220
v-150h220z" />
    <glyph glyph-name="uni0413" unicode="&#x413;" horiz-adv-x="735" 
d="M260 0h-180v700h640v-155h-460v-545z" />
    <glyph glyph-name="uni0414" unicode="&#x414;" horiz-adv-x="915" 
d="M790 150h100v-325h-180v175h-525v-175h-180v325h83q27 36 50 126.5t23 222.5v201h629v-550zM282 150h328v400h-269v-56q0 -128 -18.5 -216t-40.5 -123v-5z" />
    <glyph glyph-name="uni0415" unicode="&#x415;" horiz-adv-x="755" 
d="M260 300v-155h445v-145h-625v700h605v-145h-425v-150h385v-105h-385z" />
    <glyph glyph-name="uni0416" unicode="&#x416;" horiz-adv-x="1270" 
d="M228 0h-225l340 359v5l-363 336h230l329 -305h6v305h180v-305h6l329 305h230l-363 -336v-5l340 -359h-225l-312 325h-5v-325h-180v325h-5z" />
    <glyph glyph-name="uni0417" unicode="&#x417;" horiz-adv-x="790" 
d="M204.5 5q-82.5 20 -124.5 44v159q42 -30 121.5 -54t168.5 -24q92 0 133.5 24t41.5 58q0 43 -42 65.5t-153 22.5h-152v105h152q101 0 145.5 23t44.5 59q0 35 -43 59t-142 24q-92 0 -171 -25.5t-124 -56.5v158q47 26 133.5 47.5t186.5 21.5q121 0 199.5 -27.5t114.5 -72.5
t36 -100q0 -77 -58 -113t-130 -43v-8q73 -7 133 -45t60 -119q0 -54 -37 -100t-117 -74t-201 -28q-93 0 -175.5 20z" />
    <glyph glyph-name="uni0418" unicode="&#x418;" horiz-adv-x="895" 
d="M310 0h-230v700h180v-492h5l320 492h230v-700h-180v491h-5z" />
    <glyph glyph-name="uni0419" unicode="&#x419;" horiz-adv-x="895" 
d="M310 0h-230v700h180v-492h5l320 492h230v-700h-180v491h-5zM276 812q-58 47 -58 123h133q3 -65 97 -65t97 65h133q0 -76 -59 -123t-172 -47t-171 47z" />
    <glyph glyph-name="uni041A" unicode="&#x41a;" horiz-adv-x="845" 
d="M260 0h-180v700h180v-305h5l370 305h230l-400 -335v-5l370 -360h-225l-345 325h-5v-325z" />
    <glyph glyph-name="uni041B" unicode="&#x41b;" horiz-adv-x="855" 
d="M5 13q26 33 52 97.5t45 154.5t22 194l8 241h643v-700h-180v545h-289l-2 -86q-2 -107 -20 -199.5t-42.5 -158.5t-49.5 -101h-187v13z" />
    <glyph glyph-name="uni041C" unicode="&#x41c;" horiz-adv-x="1155" 
d="M890 527l-314 -557l-311 557h-5v-527h-180v700h270l229 -426h5l229 426h262v-700h-180v527h-5z" />
    <glyph glyph-name="uni041D" unicode="&#x41d;" horiz-adv-x="920" 
d="M660 430v270h180v-700h-180v275h-400v-275h-180v700h180v-270h400z" />
    <glyph glyph-name="uni041E" unicode="&#x41e;" horiz-adv-x="1090" 
d="M282 32.5q-108 47.5 -162.5 130t-54.5 187.5t54.5 187.5t162.5 130t263 47.5t263 -47.5t162.5 -130t54.5 -187.5t-54.5 -187.5t-162.5 -130t-263 -47.5t-263 47.5zM703.5 159q65.5 29 98.5 79t33 112t-33 112t-98.5 79t-158.5 29t-158.5 -29t-98.5 -79t-33 -112t33 -112
t98.5 -79t158.5 -29t158.5 29z" />
    <glyph glyph-name="uni041F" unicode="&#x41f;" horiz-adv-x="915" 
d="M260 0h-180v700h755v-700h-180v545h-395v-545z" />
    <glyph glyph-name="uni0420" unicode="&#x420;" horiz-adv-x="855" 
d="M500 700q153 0 231.5 -66t78.5 -179t-78.5 -179t-231.5 -66h-240v-210h-180v700h420zM490 355q65 0 97.5 27t32.5 73t-32.5 73t-97.5 27h-230v-200h230z" />
    <glyph glyph-name="uni0421" unicode="&#x421;" horiz-adv-x="900" 
d="M272.5 32.5q-101.5 47.5 -154.5 130.5t-53 187t54 187t160 130.5t256 47.5q99 0 181.5 -22.5t123.5 -49.5v-160q-41 31 -121 56.5t-174 25.5q-93 0 -158.5 -28.5t-98.5 -77.5t-33 -109q0 -59 32.5 -108t94.5 -78t148 -29q89 0 165 22t115 49v-160q-41 -23 -121 -42
t-174 -19q-141 0 -242.5 47.5z" />
    <glyph glyph-name="uni0422" unicode="&#x422;" 
d="M15 700h740v-155h-280v-545h-180v545h-280v155z" />
    <glyph glyph-name="uni0423" unicode="&#x423;" horiz-adv-x="800" 
d="M620 700h200l-271 -513q-58 -109 -126 -155.5t-177 -46.5q-66 0 -131 13v115q26 -4 46 -6t44 -2q40 0 71.5 10t47.5 27l-324 558h200l219 -375h8z" />
    <glyph glyph-name="uni0424" unicode="&#x424;" horiz-adv-x="1210" 
d="M830 620q105 0 179.5 -34.5t112.5 -96t38 -139.5t-38 -139.5t-112.5 -96t-179.5 -34.5h-135v-100h-180v100h-135q-105 0 -179.5 34.5t-112.5 96t-38 139.5t38 139.5t112.5 96t179.5 34.5h135v100h180v-100h135zM515 225v250h-130q-69 0 -107 -34t-38 -91t38 -91t107 -34
h130zM825 225q69 0 107 34t38 91t-38 91t-107 34h-130v-250h130z" />
    <glyph glyph-name="uni0425" unicode="&#x425;" horiz-adv-x="810" 
d="M211 0h-216l302 360l-293 340h216l183 -222h5l182 222h216l-293 -340l302 -360h-216l-192 234h-5z" />
    <glyph glyph-name="uni0426" unicode="&#x426;" horiz-adv-x="925" 
d="M900 -175h-180v175h-640v700h180v-545h360v545h180v-545h100v-330z" />
    <glyph glyph-name="uni0427" unicode="&#x427;" horiz-adv-x="890" 
d="M630 700h180v-700h-180v252q-59 -23 -113 -32.5t-115 -9.5q-95 0 -170 32.5t-118.5 98t-43.5 159.5v200h180v-187q0 -79 50.5 -113.5t124.5 -34.5q58 0 105.5 9t99.5 30v296z" />
    <glyph glyph-name="uni0428" unicode="&#x428;" horiz-adv-x="1190" 
d="M1110 0h-1030v700h180v-545h245v545h180v-545h245v545h180v-700z" />
    <glyph glyph-name="uni0429" unicode="&#x429;" horiz-adv-x="1235" 
d="M1210 -175h-180v175h-950v700h180v-545h245v545h180v-545h245v545h180v-545h100v-330z" />
    <glyph glyph-name="uni042A" unicode="&#x42a;" horiz-adv-x="915" 
d="M155 0v545h-150v155h330v-230h235q154 0 229.5 -62t75.5 -173t-75.5 -173t-229.5 -62h-415zM565 145q60 0 90 24t30 66t-30 66t-90 24h-230v-180h230z" />
    <glyph glyph-name="uni042B" unicode="&#x42b;" horiz-adv-x="1110" 
d="M80 0v700h180v-230h215q154 0 229.5 -62t75.5 -173t-75.5 -173t-229.5 -62h-395zM1030 0h-180v700h180v-700zM470 145q60 0 90 24t30 66t-30 66t-90 24h-210v-180h210z" />
    <glyph glyph-name="uni042C" unicode="&#x42c;" horiz-adv-x="865" 
d="M80 0v700h180v-230h260q154 0 229.5 -62t75.5 -173t-75.5 -173t-229.5 -62h-440zM515 145q60 0 90 24t30 66t-30 66t-90 24h-255v-180h255z" />
    <glyph glyph-name="uni042D" unicode="&#x42d;" horiz-adv-x="900" 
d="M621 667.5q106 -47.5 160 -130.5t54 -187t-53 -187t-154.5 -130.5t-242.5 -47.5q-98 0 -176.5 19t-118.5 42v154q39 -27 113.5 -48.5t166.5 -21.5q108 0 178 45.5t90 119.5h-323v105h324q-19 76 -92.5 123t-191.5 47q-94 0 -173 -25t-122 -54v152q43 28 124.5 50
t180.5 22q150 0 256 -47.5z" />
    <glyph glyph-name="uni042E" unicode="&#x42e;" horiz-adv-x="1290" 
d="M1020 667q100 -48 152.5 -131t52.5 -186t-52.5 -186t-152.5 -131t-235 -48q-124 0 -218.5 40.5t-150 112t-68.5 162.5h-88v-300h-180v700h180v-295h89q14 90 69.5 160t149.5 110t217 40q135 0 235 -48zM917 159q57 29 87.5 79t30.5 112t-30.5 112t-87.5 79t-132 29
t-132 -29t-87.5 -79t-30.5 -112t30.5 -112t87.5 -79t132 -29t132 29z" />
    <glyph glyph-name="uni042F" unicode="&#x42f;" horiz-adv-x="865" 
d="M785 700v-700h-180v235h-164l-156 -235h-208l169 248q-39 8 -84 32t-78.5 70.5t-33.5 114.5q0 69 34 122t101.5 83t164.5 30h435zM605 340v215h-225q-68 0 -104 -30t-36 -78t36 -77.5t104 -29.5h225z" />
    <glyph glyph-name="uni0430" unicode="&#x430;" horiz-adv-x="740" 
d="M88.5 29q-53.5 44 -53.5 116q0 84 67 130.5t218 49.5q78 1 118.5 8t53.5 17t13 25q0 30 -34 47.5t-121 17.5q-77 0 -153 -19.5t-122 -43.5v148q42 23 121 41.5t169 18.5q320 0 320 -215v-370h-180v80h-6q-33 -36 -101.5 -65.5t-152.5 -29.5q-103 0 -156.5 44zM433 130
q50 20 72 45v104q-20 -11 -53.5 -19t-101.5 -10q-130 -4 -130 -75q0 -29 24.5 -47t75.5 -18q63 0 113 20z" />
    <glyph glyph-name="uni0431" unicode="&#x431;" horiz-adv-x="825" 
d="M136.5 74q-91.5 89 -91.5 266q0 182 96.5 281t278.5 99h123h202v-145h-202h-83q-127 0 -184.5 -48t-58.5 -152h8q21 37 79.5 66t155.5 29q108 0 181 -32t108.5 -85t35.5 -118q0 -113 -91.5 -181.5t-278.5 -68.5t-278.5 89zM509.5 132.5q40.5 17.5 63 48t22.5 66.5
q0 37 -22.5 67.5t-63 48.5t-94.5 18t-94.5 -18t-63 -48.5t-22.5 -67.5q0 -36 22.5 -66.5t63 -48t94.5 -17.5t94.5 17.5z" />
    <glyph glyph-name="uni0432" unicode="&#x432;" horiz-adv-x="745" 
d="M535 269q79 -1 122 -35.5t43 -88.5q0 -65 -56.5 -105t-173.5 -40h-410v570h395q124 0 184.5 -43t60.5 -112q0 -58 -45 -97t-120 -41v-8zM415 310q100 0 100 70t-100 70h-175v-140h175zM430 120q45 0 65 14.5t20 42.5t-20 43t-65 15h-190v-115h190z" />
    <glyph glyph-name="uni0433" unicode="&#x433;" horiz-adv-x="595" 
d="M240 0h-180v570h520v-140h-340v-430z" />
    <glyph glyph-name="uni0434" unicode="&#x434;" horiz-adv-x="775" 
d="M5 -145v275h69q22 33 39.5 103.5t17.5 159.5v177h549v-440h85v-275h-180v145h-400v-145h-180zM254 130h246v310h-190v-52q0 -81 -17.5 -148.5t-38.5 -101.5v-8z" />
    <glyph glyph-name="uni0435" unicode="&#x435;" horiz-adv-x="760" 
d="M213.5 23.5q-83.5 38.5 -126 106t-42.5 155.5t40.5 156t117.5 106t182 38q101 0 175.5 -38t114.5 -106.5t40 -155.5v-25h-482q11 -62 64.5 -96t147.5 -34q65 0 123.5 18t91.5 40v-148q-33 -21 -99 -38t-146 -17q-118 0 -201.5 38.5zM529 335q-7 57 -44 93.5t-100 36.5
t-103.5 -35t-48.5 -95h296z" />
    <glyph glyph-name="uni0436" unicode="&#x436;" horiz-adv-x="1090" 
d="M218 0h-223l285 290l-285 280h223l234 -241h3v241h180v-241h3l234 241h223l-285 -280l285 -290h-223l-234 253h-3v-253h-180v253h-3z" />
    <glyph glyph-name="uni0437" unicode="&#x437;" horiz-adv-x="655" 
d="M174.5 3.5q-76.5 18.5 -114.5 41.5v133q36 -22 101 -40t132 -18q142 0 142 62q0 28 -34.5 45.5t-115.5 17.5h-110v75h105q150 0 150 67q0 25 -34 44t-106 19q-71 0 -137 -16.5t-108 -37.5v140q43 18 117.5 33.5t162.5 15.5q146 0 215.5 -46t69.5 -117q0 -37 -22 -67.5
t-63 -49.5t-95 -20v-7q88 -2 136.5 -38.5t48.5 -92.5q0 -72 -67 -117t-210 -45q-87 0 -163.5 18.5z" />
    <glyph glyph-name="uni0438" unicode="&#x438;" horiz-adv-x="760" 
d="M283 0h-223v570h180v-450h5l232 450h223v-570h-180v450h-5z" />
    <glyph glyph-name="uni0439" unicode="&#x439;" horiz-adv-x="760" 
d="M283 0h-223v570h180v-450h5l232 450h223v-570h-180v450h-5zM238.5 680.5q-48.5 40.5 -48.5 109.5h120q0 -60 70 -60t70 60h120q0 -69 -48.5 -109.5t-141.5 -40.5t-141.5 40.5z" />
    <glyph glyph-name="uni043A" unicode="&#x43a;" horiz-adv-x="730" 
d="M240 0h-180v570h180v-243h2l262 243h231l-310 -280l309 -290h-230l-262 259h-2v-259z" />
    <glyph glyph-name="uni043B" unicode="&#x43b;" horiz-adv-x="700" 
d="M0 8q29 39 55 137t29 230l5 195h551v-570h-180v430h-190l-4 -65q-8 -136 -31.5 -232.5t-46.5 -132.5h-188v8z" />
    <glyph glyph-name="uni043C" unicode="&#x43c;" horiz-adv-x="970" 
d="M725 403l-240 -434l-240 434h-5v-403h-180v570h257l168 -322h5l167 322h253v-570h-180v403h-5z" />
    <glyph glyph-name="uni043D" unicode="&#x43d;" horiz-adv-x="760" 
d="M520 360v210h180v-570h-180v220h-280v-220h-180v570h180v-210h280z" />
    <glyph glyph-name="uni043E" unicode="&#x43e;" horiz-adv-x="830" 
d="M213.5 23.5q-83.5 38.5 -126 106t-42.5 155.5t42.5 155.5t126 106t201.5 38.5t201.5 -38.5t126 -106t42.5 -155.5q0 -87 -42.5 -155t-126 -106.5t-201.5 -38.5t-201.5 38.5zM547.5 160.5q47.5 45.5 47.5 124.5t-47.5 124.5t-132.5 45.5t-132.5 -45.5t-47.5 -124.5
t47.5 -124.5t132.5 -45.5t132.5 45.5z" />
    <glyph glyph-name="uni043F" unicode="&#x43f;" horiz-adv-x="755" 
d="M240 0h-180v570h635v-570h-180v430h-275v-430z" />
    <glyph glyph-name="uni0440" unicode="&#x440;" horiz-adv-x="805" 
d="M60 -190v760h180v-70h7q28 33 88.5 59t134.5 26q86 0 151.5 -37t102 -105t36.5 -158t-36.5 -158t-102 -105t-151.5 -37q-74 0 -134.5 27t-88.5 61h-7v-263h-180zM525 164q45 44 45 121t-45 121t-125 44q-53 0 -96.5 -20.5t-63.5 -46.5v-193q20 -27 63.5 -48.5t96.5 -21.5
q80 0 125 44z" />
    <glyph glyph-name="uni0441" unicode="&#x441;" horiz-adv-x="710" 
d="M211 23.5q-81 38.5 -123.5 106.5t-42.5 155q0 88 43 155.5t126.5 106t201.5 38.5q74 0 140 -17t109 -41v-144q-41 27 -104.5 47t-126.5 20q-94 0 -146.5 -45t-52.5 -120q0 -74 52.5 -119.5t141.5 -45.5q64 0 124.5 19t91.5 43v-140q-34 -22 -99.5 -39.5t-140.5 -17.5
q-113 0 -194 38.5z" />
    <glyph glyph-name="uni0442" unicode="&#x442;" horiz-adv-x="670" 
d="M425 0h-180v430h-235v140h650v-140h-235v-430z" />
    <glyph glyph-name="uni0443" unicode="&#x443;" horiz-adv-x="695" 
d="M340 -190h-185l120 253l-280 507h192l171 -319h5l147 319h190z" />
    <glyph glyph-name="uni0444" unicode="&#x444;" horiz-adv-x="1040" 
d="M680 585q99 0 170 -36.5t108 -104t37 -159.5t-37 -159.5t-108 -104t-170 -36.5h-70v-175h-180v175h-70q-99 0 -170 36.5t-108 104t-37 159.5t37 159.5t108 104t170 36.5h70v135h180v-135h70zM433 115v340h-53q-71 0 -110.5 -43.5t-39.5 -126.5t39.5 -126.5t110.5 -43.5
h53zM770.5 158.5q39.5 43.5 39.5 126.5t-39.5 126.5t-110.5 43.5h-53v-340h53q71 0 110.5 43.5z" />
    <glyph glyph-name="uni0445" unicode="&#x445;" horiz-adv-x="678" 
d="M200 0h-205l243 288l-237 282h205l129 -164h8l129 164h205l-239 -280l245 -290h-205l-135 167h-8z" />
    <glyph glyph-name="uni0446" unicode="&#x446;" 
d="M760 -145h-180v145h-520v570h180v-430h255v430h180v-430h85v-285z" />
    <glyph glyph-name="uni0447" unicode="&#x447;" horiz-adv-x="725" 
d="M485 570h180v-570h-180v174q-41 -11 -70.5 -15t-71.5 -4q-143 0 -218 65t-75 177v173h180v-164q0 -52 33 -81.5t101 -29.5q57 0 121 19v256z" />
    <glyph glyph-name="uni0448" unicode="&#x448;" horiz-adv-x="1030" 
d="M970 0h-910v570h180v-430h185v430h180v-430h185v430h180v-570z" />
    <glyph glyph-name="uni0449" unicode="&#x449;" horiz-adv-x="1065" 
d="M1055 -145h-180v145h-815v570h180v-430h185v430h180v-430h185v430h180v-430h85v-285z" />
    <glyph glyph-name="uni044A" unicode="&#x44a;" horiz-adv-x="795" 
d="M510 385q123 0 186.5 -52t63.5 -140t-63.5 -140.5t-186.5 -52.5h-370v430h-140v140h320v-185h190zM480 120q45 0 67.5 19t22.5 54q0 34 -22.5 53t-67.5 19h-160v-145h160z" />
    <glyph glyph-name="uni044B" unicode="&#x44b;" horiz-adv-x="980" 
d="M425 385q123 0 186.5 -52t63.5 -140t-63.5 -140.5t-186.5 -52.5h-365v561h180v-176h185zM740 0v561h180v-561h-180zM395 120q45 0 67.5 19t22.5 54q0 34 -22.5 53t-67.5 19h-155v-145h155z" />
    <glyph glyph-name="uni044C" unicode="&#x44c;" horiz-adv-x="730" 
d="M445 385q123 0 186.5 -52t63.5 -140t-63.5 -140.5t-186.5 -52.5h-385v570h180v-185h205zM415 120q45 0 67.5 19t22.5 54q0 34 -22.5 53t-67.5 19h-175v-145h175z" />
    <glyph glyph-name="uni044D" unicode="&#x44d;" horiz-adv-x="700" 
d="M488.5 546.5q82.5 -38.5 124.5 -106t42 -155.5t-42 -155.5t-124.5 -106t-198.5 -38.5q-73 0 -137.5 18t-97.5 39v139q31 -23 90.5 -42t124.5 -19q82 0 130.5 33t60.5 92h-286v75h287q-11 61 -59.5 95.5t-132.5 34.5q-73 0 -134 -20.5t-101 -46.5v143q34 22 101.5 40.5
t153.5 18.5q116 0 198.5 -38.5z" />
    <glyph glyph-name="uni044E" unicode="&#x44e;" horiz-adv-x="1025" 
d="M822 547q77 -38 117.5 -106t40.5 -156q0 -87 -40.5 -155t-117.5 -106.5t-182 -38.5q-97 0 -170 32.5t-116 91.5t-52 136h-62v-245h-180v570h180v-245h62q9 77 52 136t116 91.5t170 32.5q105 0 182 -38zM748.5 160q41.5 45 41.5 125t-41.5 125t-108.5 45t-108.5 -45
t-41.5 -125t41.5 -125t108.5 -45t108.5 45z" />
    <glyph glyph-name="uni044F" unicode="&#x44f;" horiz-adv-x="720" 
d="M45 0l155 197v5q-39 4 -77 24.5t-63 58.5t-25 92q0 86 64.5 139.5t185.5 53.5h375v-570h-180v195h-86l-145 -195h-204zM480 270v180h-135q-120 0 -120 -90t120 -90h135z" />
    <glyph glyph-name="uni0450" unicode="&#x450;" horiz-adv-x="760" 
d="M213.5 23.5q-83.5 38.5 -126 106t-42.5 155.5t40.5 156t117.5 106t182 38q101 0 175.5 -38t114.5 -106.5t40 -155.5v-25h-482q11 -62 64.5 -96t147.5 -34q65 0 123.5 18t91.5 40v-148q-33 -21 -99 -38t-146 -17q-118 0 -201.5 38.5zM529 335q-7 57 -44 93.5t-100 36.5
t-103.5 -35t-48.5 -95h296zM545 625h-15l-305 50l10 130h50l270 -125z" />
    <glyph glyph-name="uni0451" unicode="&#x451;" horiz-adv-x="760" 
d="M213.5 23.5q-83.5 38.5 -126 106t-42.5 155.5t40.5 156t117.5 106t182 38q101 0 175.5 -38t114.5 -106.5t40 -155.5v-25h-482q11 -62 64.5 -96t147.5 -34q65 0 123.5 18t91.5 40v-148q-33 -21 -99 -38t-146 -17q-118 0 -201.5 38.5zM529 335q-7 57 -44 93.5t-100 36.5
t-103.5 -35t-48.5 -95h296zM183 649.5q-26 24.5 -26 60.5t26 60.5t67 24.5q40 0 66 -24.5t26 -60.5t-26 -60.5t-66 -24.5q-41 0 -67 24.5zM443 649.5q-26 24.5 -26 60.5t26 60.5t67 24.5q40 0 66 -24.5t26 -60.5t-26 -60.5t-66 -24.5q-41 0 -67 24.5z" />
    <glyph glyph-name="uni0452" unicode="&#x452;" 
d="M665 377q60 -58 60 -162v-191q0 -111 -55 -170t-163 -59q-28 0 -52.5 3t-61.5 11v137q25 -6 39.5 -8.5t31.5 -2.5q38 0 59.5 22t21.5 66v157q0 57 -32.5 88.5t-92.5 31.5q-54 0 -94 -25.5t-56 -57.5v-217h-180v505h-90v75h90v140h180v-140h215v-75h-215v-171h7
q24 38 82.5 69.5t135.5 31.5q110 0 170 -58z" />
    <glyph glyph-name="uni0453" unicode="&#x453;" horiz-adv-x="595" 
d="M240 0h-180v570h520v-140h-340v-430zM195 625h-15l-10 55l270 125h50l10 -130z" />
    <glyph glyph-name="uni0454" unicode="&#x454;" horiz-adv-x="710" 
d="M301 415q-51 -35 -63 -95h287v-75h-285q13 -58 63.5 -91.5t126.5 -33.5q65 0 124.5 19t90.5 42v-139q-33 -21 -97.5 -39t-137.5 -18q-116 0 -198.5 38.5t-124.5 106t-42 155.5t42 155.5t124.5 106t198.5 38.5q86 0 153.5 -18.5t101.5 -40.5v-143q-40 26 -101 46.5
t-134 20.5q-78 0 -129 -35z" />
    <glyph glyph-name="uni0455" unicode="&#x455;" horiz-adv-x="655" 
d="M183.5 4q-74.5 19 -113.5 42v149q44 -24 116.5 -44.5t143.5 -20.5q105 0 105 50q0 28 -34 39.5t-109 23.5q-82 13 -134 28t-90 50.5t-38 98.5q0 72 71.5 118.5t223.5 46.5q88 0 166.5 -20t118.5 -44v-153q-50 27 -129 49.5t-156 22.5q-61 0 -85.5 -13.5t-24.5 -38.5
q0 -27 33.5 -39t107.5 -23q82 -13 134.5 -28.5t91 -52t38.5 -100.5q0 -44 -29 -80t-91 -58t-155 -22q-87 0 -161.5 19z" />
    <glyph glyph-name="uni0456" unicode="&#x456;" horiz-adv-x="300" 
d="M67 625.5q-30 25.5 -30 66.5q0 42 30 67.5t83 25.5q52 0 82 -25.5t30 -67.5q0 -41 -30 -66.5t-82 -25.5q-53 0 -83 25.5zM60 0v570h8q36 -16 82 -16t82 16h8v-570h-180z" />
    <glyph glyph-name="uni0457" unicode="&#x457;" horiz-adv-x="300" 
d="M240 0h-180v570h180v-570zM-47 649.5q-26 24.5 -26 60.5t26 60.5t67 24.5q40 0 66 -24.5t26 -60.5t-26 -60.5t-66 -24.5q-41 0 -67 24.5zM213 649.5q-26 24.5 -26 60.5t26 60.5t67 24.5q40 0 66 -24.5t26 -60.5t-26 -60.5t-66 -24.5q-41 0 -67 24.5z" />
    <glyph glyph-name="uni0458" unicode="&#x458;" horiz-adv-x="300" 
d="M67 625.5q-30 25.5 -30 66.5q0 42 30 67.5t83 25.5q52 0 82 -25.5t30 -67.5q0 -41 -30 -66.5t-82 -25.5q-53 0 -83 25.5zM-35 -202q-25 3 -62 11v137q44 -11 77 -11q37 0 58.5 22t21.5 66v547h8q13 -6 35.5 -11t46.5 -5t46.5 5t35.5 11h8v-546q0 -111 -55.5 -170
t-165.5 -59q-29 0 -54 3z" />
    <glyph glyph-name="uni0459" unicode="&#x459;" horiz-adv-x="1105" 
d="M825 360q80 0 135.5 -22.5t82.5 -61.5t27 -86q0 -87 -62 -138.5t-183 -51.5h-375v430h-180l-4 -65q-8 -136 -31.5 -232.5t-46.5 -132.5h-188v8q29 39 55 137t29 230l5 195h541v-210h195zM765 125q57 0 86 22t29 58t-29 58t-86 22h-135v-160h135z" />
    <glyph glyph-name="uni045A" unicode="&#x45a;" horiz-adv-x="1155" 
d="M880 340q120 0 180 -45.5t60 -119.5q0 -81 -59.5 -128t-180.5 -47h-380v265h-260v-265h-180v570h180v-230h260v230h180v-230h200zM830 125q49 0 74.5 20t25.5 50t-25.5 50t-74.5 20h-150v-140h150z" />
    <glyph glyph-name="uni045B" unicode="&#x45b;" 
d="M665 377q60 -58 60 -162v-215h-180v180q0 57 -32.5 88.5t-92.5 31.5q-54 0 -94 -25.5t-56 -57.5v-217h-180v505h-90v75h90v140h180v-140h215v-75h-215v-171h7q24 38 82.5 69.5t135.5 31.5q110 0 170 -58z" />
    <glyph glyph-name="uni045C" unicode="&#x45c;" horiz-adv-x="730" 
d="M240 0h-180v570h180v-243h2l262 243h231l-310 -280l309 -290h-230l-262 259h-2v-259zM230 625h-15l-10 55l270 125h50l10 -130z" />
    <glyph glyph-name="uni045D" unicode="&#x45d;" horiz-adv-x="760" 
d="M283 0h-223v570h180v-450h5l232 450h223v-570h-180v450h-5zM545 625h-15l-305 50l10 130h50l270 -125z" />
    <glyph glyph-name="uni045E" unicode="&#x45e;" horiz-adv-x="695" 
d="M340 -190h-185l120 253l-280 507h192l171 -319h5l147 319h190zM208.5 680.5q-48.5 40.5 -48.5 109.5h120q0 -60 70 -60t70 60h120q0 -69 -48.5 -109.5t-141.5 -40.5t-141.5 40.5z" />
    <glyph glyph-name="uni045F" unicode="&#x45f;" horiz-adv-x="755" 
d="M475 -145h-195v40l20 90v15h-240v570h180v-430h275v430h180v-570h-240v-15l20 -90v-40z" />
    <glyph glyph-name="uni0490" unicode="&#x490;" horiz-adv-x="735" 
d="M260 0h-180v700h465l22 120h153v-275h-460v-545z" />
    <glyph glyph-name="uni0491" unicode="&#x491;" horiz-adv-x="595" 
d="M240 0h-180v570h345l31 105h144v-245h-340v-430z" />
    <glyph glyph-name="uni0492" unicode="&#x492;" horiz-adv-x="765" 
d="M740 700v-155h-460v-170h345v-105h-345v-270h-180v270h-100v105h100v325h640z" />
    <glyph glyph-name="uni0493" unicode="&#x493;" horiz-adv-x="620" 
d="M600 570v-140h-340v-125h230v-75h-230v-230h-180v230h-80v75h80v265h520z" />
    <glyph glyph-name="uni0494" unicode="&#x494;" horiz-adv-x="860" 
d="M424 -149v101q26 -3 43 -3q75 0 119 45.5t44 130.5q0 76 -46.5 120.5t-128.5 44.5q-65 0 -117.5 -31t-77.5 -69v-190h-180v700h640v-155h-460v-230h7q20 28 58 56t92.5 46t117.5 18q133 0 209 -76t76 -209q0 -90 -40 -159t-114.5 -107.5t-174.5 -38.5q-32 0 -67 6z" />
    <glyph glyph-name="uni0495" unicode="&#x495;" horiz-adv-x="755" 
d="M330 -186v74q21 -3 33 -3q77 0 124.5 50t47.5 135q0 81 -39.5 120.5t-105.5 39.5q-53 0 -93 -24t-57 -54v-152h-180v570h520v-75h-340v-230h7q25 38 83.5 69t134.5 31q120 0 190 -71t70 -194q0 -83 -40.5 -149t-117.5 -103.5t-182 -37.5q-27 0 -55 4z" />
    <glyph glyph-name="uni0496" unicode="&#x496;" horiz-adv-x="1280" 
d="M228 0h-225l340 359v5l-363 336h230l329 -305h6v305h180v-305h6l329 305h230l-363 -336v-5l193 -204h140v-330h-180v175h-38l-312 325h-5v-325h-180v325h-5z" />
    <glyph glyph-name="uni0497" unicode="&#x497;" horiz-adv-x="1100" 
d="M218 0h-223l285 290l-285 280h223l234 -241h3v241h180v-241h3l234 241h223l-285 -280l147 -150h128v-285h-180v145h-33l-234 253h-3v-253h-180v253h-3z" />
    <glyph glyph-name="uni049A" unicode="&#x49a;" horiz-adv-x="855" 
d="M260 0h-180v700h180v-305h5l370 305h230l-400 -335v-5l211 -205h139v-330h-180v175h-25l-345 325h-5v-325z" />
    <glyph glyph-name="uni049B" unicode="&#x49b;" horiz-adv-x="740" 
d="M240 0h-180v570h180v-243h2l262 243h231l-310 -280l160 -150h130v-285h-180v145h-31l-262 259h-2v-259z" />
    <glyph glyph-name="uni049C" unicode="&#x49c;" horiz-adv-x="855" 
d="M865 700l-240 -335v-5l210 -360h-204l-181 310h-44v-120h-85v120h-61v-310h-180v700h180v-285h61v120h85v-120h56l204 285h199z" />
    <glyph glyph-name="uni049D" unicode="&#x49d;" horiz-adv-x="750" 
d="M554 570h196l-210 -280l210 -290h-196l-178 250h-26v-115h-75v115h-35v-250h-180v570h180v-245h35v115h75v-115h23z" />
    <glyph glyph-name="uni04A2" unicode="&#x4a2;" horiz-adv-x="965" 
d="M840 700v-545h100v-330h-180v175h-100v275h-400v-275h-180v700h180v-270h400v270h180z" />
    <glyph glyph-name="uni04A3" unicode="&#x4a3;" horiz-adv-x="795" 
d="M700 570v-430h85v-285h-180v145h-85v220h-280v-220h-180v570h180v-210h280v210h180z" />
    <glyph glyph-name="uni04AA" unicode="&#x4aa;" horiz-adv-x="900" 
d="M386.5 536.5q-65.5 -28.5 -98.5 -77.5t-33 -109q0 -59 32.5 -108t94.5 -78t148 -29q89 0 165 22t115 49v-160q-29 -17 -84 -32.5t-121 -23.5v-180h-180v181q-114 14 -195 64t-123 126.5t-42 168.5q0 104 54 187t160 130.5t256 47.5q99 0 181.5 -22.5t123.5 -49.5v-160
q-41 31 -121 56.5t-174 25.5q-93 0 -158.5 -28.5z" />
    <glyph glyph-name="uni04AB" unicode="&#x4ab;" horiz-adv-x="710" 
d="M287.5 405q-52.5 -45 -52.5 -120q0 -74 52.5 -119.5t141.5 -45.5q64 0 124.5 19t91.5 43v-140q-21 -14 -60 -27.5t-85 -21.5v-153h-180v151q-131 21 -203 100t-72 194q0 88 43 155.5t126.5 106t201.5 38.5q74 0 140 -17t109 -41v-144q-41 27 -104.5 47t-126.5 20
q-94 0 -146.5 -45z" />
    <glyph glyph-name="uni04AE" unicode="&#x4ae;" horiz-adv-x="860" 
d="M520 0h-180v150l-360 550h200l246 -380h8l246 380h200l-360 -550v-150z" />
    <glyph glyph-name="uni04AF" unicode="&#x4af;" horiz-adv-x="720" 
d="M270 0l-275 570h185l177 -388h5l178 388h185l-275 -570v-190h-180v190z" />
    <glyph glyph-name="uni04B0" unicode="&#x4b0;" horiz-adv-x="860" 
d="M680 700h200l-291 -445h146v-105h-215v-150h-180v150h-215v105h146l-291 445h200l246 -380h8z" />
    <glyph glyph-name="uni04B1" unicode="&#x4b1;" horiz-adv-x="720" 
d="M540 570h185l-235 -495h120v-75h-160v-190h-180v190h-160v75h120l-235 495h185l177 -393h5z" />
    <glyph glyph-name="uni04B2" unicode="&#x4b2;" horiz-adv-x="815" 
d="M211 0h-216l302 360l-293 340h216l183 -222h5l182 222h216l-293 -340l172 -205h125v-330h-180v175h-31l-192 234h-5z" />
    <glyph glyph-name="uni04B3" unicode="&#x4b3;" horiz-adv-x="700" 
d="M200 0h-205l243 288l-237 282h205l129 -164h8l129 164h205l-239 -280l127 -150h130v-285h-180v145h-37l-135 167h-8z" />
    <glyph glyph-name="uni04B6" unicode="&#x4b6;" horiz-adv-x="935" 
d="M730 -175v175h-100v252q-59 -23 -113 -32.5t-115 -9.5q-95 0 -170 32.5t-118.5 98t-43.5 159.5v200h180v-187q0 -79 50.5 -113.5t124.5 -34.5q58 0 105.5 9t99.5 30v296h180v-545h100v-330h-180z" />
    <glyph glyph-name="uni04B7" unicode="&#x4b7;" horiz-adv-x="760" 
d="M570 -145v145h-85v174q-41 -11 -70.5 -15t-71.5 -4q-143 0 -218 65t-75 177v173h180v-164q0 -52 33 -81.5t101 -29.5q57 0 121 19v256h180v-430h85v-285h-180z" />
    <glyph glyph-name="uni04B8" unicode="&#x4b8;" horiz-adv-x="890" 
d="M630 700h180v-700h-180v252q-74 -28 -142 -37v-130h-85v125h-1q-95 0 -170 32.5t-118.5 98t-43.5 159.5v200h180v-187q0 -72 43.5 -107.5t109.5 -39.5v144h85v-142q72 7 142 36v296z" />
    <glyph glyph-name="uni04B9" unicode="&#x4b9;" horiz-adv-x="725" 
d="M485 570h180v-570h-180v174q-46 -13 -87 -17v-87h-75v85q-134 5 -203.5 69.5t-69.5 172.5v173h180v-164q0 -43 23 -71t70 -37v122h75v-124q45 5 87 18v256z" />
    <glyph glyph-name="uni04BA" unicode="&#x4ba;" horiz-adv-x="875" 
d="M658 467.5q75 -32.5 118.5 -98t43.5 -159.5v-210h-180v197q0 79 -50.5 113.5t-124.5 34.5q-58 0 -105.5 -9t-99.5 -30v-306h-180v700h180v-242q59 23 113 32.5t115 9.5q95 0 170 -32.5z" />
    <glyph glyph-name="uni04BB" unicode="&#x4bb;" horiz-adv-x="750" 
d="M60 0v720h180v-236h7q24 38 82.5 69.5t135.5 31.5q110 0 170 -58t60 -162v-365h-180v330q0 57 -32.5 88.5t-92.5 31.5q-54 0 -94 -25.5t-56 -57.5v-367h-180z" />
    <glyph glyph-name="uni04C1" unicode="&#x4c1;" horiz-adv-x="1270" 
d="M228 0h-225l340 359v5l-363 336h230l329 -305h6v305h180v-305h6l329 305h230l-363 -336v-5l340 -359h-225l-312 325h-5v-325h-180v325h-5zM463 812q-58 47 -58 123h133q3 -65 97 -65t97 65h133q0 -76 -59 -123t-172 -47t-171 47z" />
    <glyph glyph-name="uni04C2" unicode="&#x4c2;" horiz-adv-x="1090" 
d="M218 0h-223l285 290l-285 280h223l234 -241h3v241h180v-241h3l234 241h223l-285 -280l285 -290h-223l-234 253h-3v-253h-180v253h-3zM403.5 680.5q-48.5 40.5 -48.5 109.5h120q0 -60 70 -60t70 60h120q0 -69 -48.5 -109.5t-141.5 -40.5t-141.5 40.5z" />
    <glyph glyph-name="uni04D2" unicode="&#x4d2;" horiz-adv-x="916" 
d="M916 0h-199l-74 155h-370l-74 -155h-199l342 700h232zM454 533l-131 -273h270l-131 273h-8zM261 789.5q-26 24.5 -26 60.5t26 60.5t67 24.5q40 0 66 -24.5t26 -60.5t-26 -60.5t-66 -24.5q-41 0 -67 24.5zM521 789.5q-26 24.5 -26 60.5t26 60.5t67 24.5q40 0 66 -24.5
t26 -60.5t-26 -60.5t-66 -24.5q-41 0 -67 24.5z" />
    <glyph glyph-name="uni04D3" unicode="&#x4d3;" horiz-adv-x="740" 
d="M88.5 29q-53.5 44 -53.5 116q0 84 67 130.5t218 49.5q78 1 118.5 8t53.5 17t13 25q0 30 -34 47.5t-121 17.5q-77 0 -153 -19.5t-122 -43.5v148q42 23 121 41.5t169 18.5q320 0 320 -215v-370h-180v80h-6q-33 -36 -101.5 -65.5t-152.5 -29.5q-103 0 -156.5 44zM433 130
q50 20 72 45v104q-20 -11 -53.5 -19t-101.5 -10q-130 -4 -130 -75q0 -29 24.5 -47t75.5 -18q63 0 113 20zM173 649.5q-26 24.5 -26 60.5t26 60.5t67 24.5q40 0 66 -24.5t26 -60.5t-26 -60.5t-66 -24.5q-41 0 -67 24.5zM433 649.5q-26 24.5 -26 60.5t26 60.5t67 24.5
q40 0 66 -24.5t26 -60.5t-26 -60.5t-66 -24.5q-41 0 -67 24.5z" />
    <glyph glyph-name="uni04D8" unicode="&#x4d8;" horiz-adv-x="1050" 
d="M766.5 666.5q107.5 -48.5 163 -131.5t55.5 -185q0 -104 -53.5 -187t-157 -130.5t-249.5 -47.5t-250 48t-157 133t-53 194v35h726q-16 83 -92 129t-219 46q-94 0 -187 -23t-158 -52v155q63 25 163 45t212 20q149 0 256.5 -48.5zM702 172.5q67 42.5 86 117.5h-533
q16 -74 84 -117t186 -43q110 0 177 42.5z" />
    <glyph glyph-name="uni04D9" unicode="&#x4d9;" horiz-adv-x="805" 
d="M591 546q84 -39 126.5 -107t42.5 -154q0 -88 -41.5 -156t-121.5 -106t-192 -38q-115 0 -196 38t-122.5 106t-41.5 156v20h523q-10 62 -63.5 98.5t-146.5 36.5q-73 0 -143 -19.5t-110 -42.5v153q43 20 120 37t163 17q119 0 203 -39zM509.5 138q43.5 33 56.5 92h-331
q8 -56 49 -90.5t116 -34.5q66 0 109.5 33z" />
    <glyph glyph-name="uni04E0" unicode="&#x4e0;" horiz-adv-x="785" 
d="M194.5 5.5q-91.5 20.5 -139.5 45.5v161q58 -31 143 -56.5t162 -25.5q97 0 143.5 28.5t46.5 68.5q0 41 -45 69.5t-137 28.5q-66 0 -117.5 -9.5t-74.5 -20.5v103l259 142v10h-400v150h695v-110l-300 -160v-10q103 0 173 -27.5t103.5 -74t33.5 -103.5q0 -108 -84 -169
t-266 -61q-104 0 -195.5 20.5z" />
    <glyph glyph-name="uni04E1" unicode="&#x4e1;" horiz-adv-x="695" 
d="M155.5 -184q-82.5 21 -120.5 47v146q41 -26 114 -47.5t151 -21.5q97 0 143.5 30t46.5 75q0 48 -44.5 79t-135.5 31q-48 0 -90.5 -9.5t-64.5 -20.5v90l260 197v8h-380v150h610v-105l-280 -215v-10q156 0 233 -59t77 -156q0 -64 -37 -116t-112.5 -83t-185.5 -31
q-102 0 -184.5 21z" />
    <glyph glyph-name="uni04E2" unicode="&#x4e2;" horiz-adv-x="895" 
d="M310 0h-230v700h180v-492h5l320 492h230v-700h-180v491h-5zM653 795h-410v110h410v-110z" />
    <glyph glyph-name="uni04E3" unicode="&#x4e3;" horiz-adv-x="760" 
d="M283 0h-223v570h180v-450h5l232 450h223v-570h-180v450h-5zM585 655h-410v110h410v-110z" />
    <glyph glyph-name="uni04E6" unicode="&#x4e6;" horiz-adv-x="1090" 
d="M282 32.5q-108 47.5 -162.5 130t-54.5 187.5t54.5 187.5t162.5 130t263 47.5t263 -47.5t162.5 -130t54.5 -187.5t-54.5 -187.5t-162.5 -130t-263 -47.5t-263 47.5zM703.5 159q65.5 29 98.5 79t33 112t-33 112t-98.5 79t-158.5 29t-158.5 -29t-98.5 -79t-33 -112t33 -112
t98.5 -79t158.5 -29t158.5 29zM348 789.5q-26 24.5 -26 60.5t26 60.5t67 24.5q40 0 66 -24.5t26 -60.5t-26 -60.5t-66 -24.5q-41 0 -67 24.5zM608 789.5q-26 24.5 -26 60.5t26 60.5t67 24.5q40 0 66 -24.5t26 -60.5t-26 -60.5t-66 -24.5q-41 0 -67 24.5z" />
    <glyph glyph-name="uni04E7" unicode="&#x4e7;" horiz-adv-x="830" 
d="M213.5 23.5q-83.5 38.5 -126 106t-42.5 155.5t42.5 155.5t126 106t201.5 38.5t201.5 -38.5t126 -106t42.5 -155.5q0 -87 -42.5 -155t-126 -106.5t-201.5 -38.5t-201.5 38.5zM547.5 160.5q47.5 45.5 47.5 124.5t-47.5 124.5t-132.5 45.5t-132.5 -45.5t-47.5 -124.5
t47.5 -124.5t132.5 -45.5t132.5 45.5zM218 649.5q-26 24.5 -26 60.5t26 60.5t67 24.5q40 0 66 -24.5t26 -60.5t-26 -60.5t-66 -24.5q-41 0 -67 24.5zM478 649.5q-26 24.5 -26 60.5t26 60.5t67 24.5q40 0 66 -24.5t26 -60.5t-26 -60.5t-66 -24.5q-41 0 -67 24.5z" />
    <glyph glyph-name="uni04E8" unicode="&#x4e8;" horiz-adv-x="1090" 
d="M808 667.5q108 -47.5 162.5 -130t54.5 -187.5t-54.5 -187.5t-162.5 -130t-263 -47.5t-263 47.5t-162.5 130t-54.5 187.5t54.5 187.5t162.5 130t263 47.5t263 -47.5zM355 525q-73 -45 -93 -120h566q-20 75 -93 120t-190 45t-190 -45zM737 176.5q73 46.5 92 123.5h-568
q19 -77 92 -123.5t192 -46.5t192 46.5z" />
    <glyph glyph-name="uni04E9" unicode="&#x4e9;" horiz-adv-x="830" 
d="M616.5 546.5q83.5 -38.5 126 -106t42.5 -155.5q0 -87 -42.5 -155t-126 -106.5t-201.5 -38.5t-201.5 38.5t-126 106t-42.5 155.5t42.5 155.5t126 106t201.5 38.5t201.5 -38.5zM296 420.5q-46 -34.5 -57 -95.5h352q-11 61 -56.5 95.5t-119.5 34.5q-73 0 -119 -34.5z
M536.5 150.5q45.5 35.5 55.5 99.5h-354q10 -64 56 -99.5t121 -35.5q76 0 121.5 35.5z" />
    <glyph glyph-name="uni04EE" unicode="&#x4ee;" horiz-adv-x="800" 
d="M620 700h200l-271 -513q-58 -109 -126 -155.5t-177 -46.5q-66 0 -131 13v115q26 -4 46 -6t44 -2q40 0 71.5 10t47.5 27l-324 558h200l219 -375h8zM615 795h-410v110h410v-110z" />
    <glyph glyph-name="uni04EF" unicode="&#x4ef;" horiz-adv-x="695" 
d="M340 -190h-185l120 253l-280 507h192l171 -319h5l147 319h190zM555 655h-410v110h410v-110z" />
    <glyph glyph-name="uni04F0" unicode="&#x4f0;" horiz-adv-x="800" 
d="M620 700h200l-271 -513q-58 -109 -126 -155.5t-177 -46.5q-66 0 -131 13v115q26 -4 46 -6t44 -2q40 0 71.5 10t47.5 27l-324 558h200l219 -375h8zM213 789.5q-26 24.5 -26 60.5t26 60.5t67 24.5q40 0 66 -24.5t26 -60.5t-26 -60.5t-66 -24.5q-41 0 -67 24.5zM473 789.5
q-26 24.5 -26 60.5t26 60.5t67 24.5q40 0 66 -24.5t26 -60.5t-26 -60.5t-66 -24.5q-41 0 -67 24.5z" />
    <glyph glyph-name="uni04F1" unicode="&#x4f1;" horiz-adv-x="695" 
d="M340 -190h-185l120 253l-280 507h192l171 -319h5l147 319h190zM153 649.5q-26 24.5 -26 60.5t26 60.5t67 24.5q40 0 66 -24.5t26 -60.5t-26 -60.5t-66 -24.5q-41 0 -67 24.5zM413 649.5q-26 24.5 -26 60.5t26 60.5t67 24.5q40 0 66 -24.5t26 -60.5t-26 -60.5t-66 -24.5
q-41 0 -67 24.5z" />
    <glyph glyph-name="Wgrave" unicode="&#x1e80;" horiz-adv-x="1295" 
d="M487 0h-260l-222 700h190l174 -552h8l177 552h187l177 -552h8l174 552h190l-222 -700h-260l-156 503h-9zM813 765h-15l-305 50l10 130h50l270 -125z" />
    <glyph glyph-name="wgrave" unicode="&#x1e81;" horiz-adv-x="1056" 
d="M402 0h-216l-181 570h178l125 -406h5l135 406h160l135 -406h5l125 406h178l-181 -570h-216l-123 370h-6zM693 625h-15l-305 50l10 130h50l270 -125z" />
    <glyph glyph-name="Wacute" unicode="&#x1e82;" horiz-adv-x="1295" 
d="M487 0h-260l-222 700h190l174 -552h8l177 552h187l177 -552h8l174 552h190l-222 -700h-260l-156 503h-9zM498 765h-15l-10 55l270 125h50l10 -130z" />
    <glyph glyph-name="wacute" unicode="&#x1e83;" horiz-adv-x="1056" 
d="M402 0h-216l-181 570h178l125 -406h5l135 406h160l135 -406h5l125 406h178l-181 -570h-216l-123 370h-6zM378 625h-15l-10 55l270 125h50l10 -130z" />
    <glyph glyph-name="Wdieresis" unicode="&#x1e84;" horiz-adv-x="1295" 
d="M487 0h-260l-222 700h190l174 -552h8l177 552h187l177 -552h8l174 552h190l-222 -700h-260l-156 503h-9zM451 789.5q-26 24.5 -26 60.5t26 60.5t67 24.5q40 0 66 -24.5t26 -60.5t-26 -60.5t-66 -24.5q-41 0 -67 24.5zM711 789.5q-26 24.5 -26 60.5t26 60.5t67 24.5
q40 0 66 -24.5t26 -60.5t-26 -60.5t-66 -24.5q-41 0 -67 24.5z" />
    <glyph glyph-name="wdieresis" unicode="&#x1e85;" horiz-adv-x="1056" 
d="M402 0h-216l-181 570h178l125 -406h5l135 406h160l135 -406h5l125 406h178l-181 -570h-216l-123 370h-6zM331 649.5q-26 24.5 -26 60.5t26 60.5t67 24.5q40 0 66 -24.5t26 -60.5t-26 -60.5t-66 -24.5q-41 0 -67 24.5zM591 649.5q-26 24.5 -26 60.5t26 60.5t67 24.5
q40 0 66 -24.5t26 -60.5t-26 -60.5t-66 -24.5q-41 0 -67 24.5z" />
    <glyph glyph-name="uni1E9E" unicode="&#x1e9e;" horiz-adv-x="995" 
d="M517.5 0.5q-71.5 15.5 -107.5 34.5v170q35 -25 102 -45t143 -20q65 0 95 19t30 46q0 25 -20 42.5t-50.5 29t-83.5 26.5q-67 20 -107.5 36.5t-69.5 46t-29 74.5q0 28 12.5 49.5t27.5 30.5v5h-200v-545h-180v700h650v-145h-30q-69 0 -102 -19.5t-33 -45.5q0 -34 37 -53
t115 -42q79 -23 129.5 -45t87 -63.5t36.5 -106.5q0 -55 -31 -99t-97 -70t-167 -26q-86 0 -157.5 15.5z" />
    <glyph glyph-name="uni1EBC" unicode="&#x1ebc;" horiz-adv-x="755" 
d="M260 300v-155h445v-145h-625v700h605v-145h-425v-150h385v-105h-385zM438 785.5q-24 10.5 -51 29.5q-17 12 -28.5 18t-22.5 6q-13 0 -20.5 -7.5t-7.5 -22.5v-29h-140v50q0 47 27 73.5t76 26.5q33 0 56 -10.5t51 -29.5q17 -13 28 -18.5t23 -5.5q29 0 29 30v29h140v-50
q0 -47 -27 -73.5t-76 -26.5q-33 0 -57 10.5z" />
    <glyph glyph-name="uni1EBD" unicode="&#x1ebd;" horiz-adv-x="760" 
d="M213.5 23.5q-83.5 38.5 -126 106t-42.5 155.5t40.5 156t117.5 106t182 38q101 0 175.5 -38t114.5 -106.5t40 -155.5v-25h-482q11 -62 64.5 -96t147.5 -34q65 0 123.5 18t91.5 40v-148q-33 -21 -99 -38t-146 -17q-118 0 -201.5 38.5zM529 335q-7 57 -44 93.5t-100 36.5
t-103.5 -35t-48.5 -95h296zM435 645.5q-24 10.5 -51 29.5q-17 12 -28.5 18t-22.5 6q-13 0 -20.5 -7.5t-7.5 -22.5v-29h-140v50q0 47 27 73.5t76 26.5q33 0 56 -10.5t51 -29.5q17 -13 28 -18.5t23 -5.5q29 0 29 30v29h140v-50q0 -47 -27 -73.5t-76 -26.5q-33 0 -57 10.5z" />
    <glyph glyph-name="Ygrave" unicode="&#x1ef2;" horiz-adv-x="860" 
d="M520 0h-180v150l-360 550h200l246 -380h8l246 380h200l-360 -550v-150zM575 765h-15l-305 50l10 130h50l270 -125z" />
    <glyph glyph-name="ygrave" unicode="&#x1ef3;" horiz-adv-x="695" 
d="M340 -190h-185l120 253l-280 507h192l171 -319h5l147 319h190zM510 625h-15l-305 50l10 130h50l270 -125z" />
    <glyph glyph-name="uni1EF8" unicode="&#x1ef8;" horiz-adv-x="860" 
d="M520 0h-180v150l-360 550h200l246 -380h8l246 380h200l-360 -550v-150zM485 785.5q-24 10.5 -51 29.5q-17 12 -28.5 18t-22.5 6q-13 0 -20.5 -7.5t-7.5 -22.5v-29h-140v50q0 47 27 73.5t76 26.5q33 0 56 -10.5t51 -29.5q17 -13 28 -18.5t23 -5.5q29 0 29 30v29h140v-50
q0 -47 -27 -73.5t-76 -26.5q-33 0 -57 10.5z" />
    <glyph glyph-name="uni1EF9" unicode="&#x1ef9;" horiz-adv-x="695" 
d="M340 -190h-185l120 253l-280 507h192l171 -319h5l147 319h190zM405 645.5q-24 10.5 -51 29.5q-17 12 -28.5 18t-22.5 6q-13 0 -20.5 -7.5t-7.5 -22.5v-29h-140v50q0 47 27 73.5t76 26.5q33 0 56 -10.5t51 -29.5q17 -13 28 -18.5t23 -5.5q29 0 29 30v29h140v-50
q0 -47 -27 -73.5t-76 -26.5q-33 0 -57 10.5z" />
    <glyph glyph-name="endash" unicode="&#x2013;" horiz-adv-x="790" 
d="M740 250h-690v125h690v-125z" />
    <glyph glyph-name="emdash" unicode="&#x2014;" horiz-adv-x="1090" 
d="M1040 250h-990v125h990v-125z" />
    <glyph glyph-name="quoteleft" unicode="&#x2018;" horiz-adv-x="240" 
d="M52.5 427q-27.5 32 -27.5 101q0 95 44 146t121 51h20v-113h-35q-50 0 -75 -21.5t-25 -58.5h5q5 11 20 19.5t36 8.5q35 0 57 -22.5t22 -58.5t-25 -60t-65 -24q-45 0 -72.5 32z" />
    <glyph glyph-name="quoteright" unicode="&#x2019;" horiz-adv-x="240" 
d="M30 395v113h35q50 0 75 21.5t25 58.5h-5q-5 -11 -20 -19.5t-36 -8.5q-35 0 -57 22.5t-22 58.5t25 60t65 24q46 0 73 -32t27 -101q0 -95 -44 -146t-121 -51h-20z" />
    <glyph glyph-name="quotesinglbase" unicode="&#x201a;" horiz-adv-x="240" 
d="M30 -180v113h35q50 0 75 21.5t25 58.5h-5q-5 -11 -20 -19.5t-36 -8.5q-35 0 -57 22.5t-22 58.5t25 60t65 24q46 0 73 -32t27 -101q0 -95 -44 -146t-121 -51h-20z" />
    <glyph glyph-name="quotedblleft" unicode="&#x201c;" horiz-adv-x="460" 
d="M52.5 427q-27.5 32 -27.5 101q0 95 44 146t121 51h20v-113h-35q-50 0 -75 -21.5t-25 -58.5h5q5 11 20 19.5t36 8.5q35 0 57 -22.5t22 -58.5t-25 -60t-65 -24q-45 0 -72.5 32zM272.5 427q-27.5 32 -27.5 101q0 95 44 146t121 51h20v-113h-35q-50 0 -75 -21.5t-25 -58.5h5
q5 11 20 19.5t36 8.5q35 0 57 -22.5t22 -58.5t-25 -60t-65 -24q-45 0 -72.5 32z" />
    <glyph glyph-name="quotedblright" unicode="&#x201d;" horiz-adv-x="460" 
d="M30 395v113h35q50 0 75 21.5t25 58.5h-5q-5 -11 -20 -19.5t-36 -8.5q-35 0 -57 22.5t-22 58.5t25 60t65 24q46 0 73 -32t27 -101q0 -95 -44 -146t-121 -51h-20zM250 395v113h35q50 0 75 21.5t25 58.5h-5q-5 -11 -20 -19.5t-36 -8.5q-35 0 -57 22.5t-22 58.5t25 60t65 24
q46 0 73 -32t27 -101q0 -95 -44 -146t-121 -51h-20z" />
    <glyph glyph-name="quotedblbase" unicode="&#x201e;" horiz-adv-x="460" 
d="M30 -180v113h35q50 0 75 21.5t25 58.5h-5q-5 -11 -20 -19.5t-36 -8.5q-35 0 -57 22.5t-22 58.5t25 60t65 24q46 0 73 -32t27 -101q0 -95 -44 -146t-121 -51h-20zM250 -180v113h35q50 0 75 21.5t25 58.5h-5q-5 -11 -20 -19.5t-36 -8.5q-35 0 -57 22.5t-22 58.5t25 60
t65 24q46 0 73 -32t27 -101q0 -95 -44 -146t-121 -51h-20z" />
    <glyph glyph-name="dagger" unicode="&#x2020;" horiz-adv-x="640" 
d="M400 -190h-160v595l-205 -15v145l205 -15v200h160v-200l205 15v-145l-205 15v-595z" />
    <glyph glyph-name="daggerdbl" unicode="&#x2021;" horiz-adv-x="650" 
d="M405 -190h-160v165l-170 -15v150l170 -15v310l-205 -15v145l205 -15v200h160v-200l205 15v-145l-205 15v-310l170 13v-149l-170 15v-164z" />
    <glyph glyph-name="bullet" unicode="&#x2022;" horiz-adv-x="485" 
d="M154 218.5q-34 33.5 -34 86.5t34 86.5t88 33.5q55 0 89 -33.5t34 -86.5t-34 -86.5t-89 -33.5q-54 0 -88 33.5z" />
    <glyph glyph-name="ellipsis" unicode="&#x2026;" horiz-adv-x="867" 
d="M51 9q-26 24 -26 61t26 61t69 24t69 -24t26 -61t-26 -61t-69 -24t-69 24zM364 9q-26 24 -26 61t26 61t69 24t69 -24t26 -61t-26 -61t-69 -24t-69 24zM678 9q-26 24 -26 61t26 61t69 24t69 -24t26 -61t-26 -61t-69 -24t-69 24z" />
    <glyph glyph-name="perthousand" unicode="&#x2030;" horiz-adv-x="1405" 
d="M126.5 382q-43.5 23 -67.5 63.5t-24 91.5t24 91.5t67.5 63.5t101.5 23q57 0 101 -23t67.5 -63.5t23.5 -91.5t-23.5 -91.5t-67.5 -63.5t-101 -23q-58 0 -101.5 23zM365 0h-155l405 700h155zM280 480q20 21 20 57t-20 57t-52 21q-33 0 -53 -21t-20 -57t20 -57t53 -21
q32 0 52 21zM641.5 7q-43.5 23 -67.5 63.5t-24 91.5t24 91.5t67.5 63.5t101.5 23q57 0 101 -23t67.5 -63.5t23.5 -91.5t-23.5 -91.5t-67.5 -63.5t-101 -23q-58 0 -101.5 23zM1076.5 7q-43.5 23 -67.5 63.5t-24 91.5t24 91.5t67.5 63.5t101.5 23q57 0 101 -23t67.5 -63.5
t23.5 -91.5t-23.5 -91.5t-67.5 -63.5t-101 -23q-58 0 -101.5 23zM795 105q20 21 20 57t-20 57t-52 21q-33 0 -53 -21t-20 -57t20 -57t53 -21q32 0 52 21zM1230 105q20 21 20 57t-20 57t-52 21q-33 0 -53 -21t-20 -57t20 -57t53 -21q32 0 52 21z" />
    <glyph glyph-name="guilsinglleft" unicode="&#x2039;" horiz-adv-x="415" 
d="M380 35h-175l-175 240l175 240h175l-175 -240z" />
    <glyph glyph-name="guilsinglright" unicode="&#x203a;" horiz-adv-x="415" 
d="M210 35h-175l175 240l-175 240h175l175 -240z" />
    <glyph glyph-name="fraction" unicode="&#x2044;" horiz-adv-x="240" 
d="M5 0h-155l385 700h155z" />
    <glyph glyph-name="uni2070" unicode="&#x2070;" horiz-adv-x="470" 
d="M85 487q-55 52 -55 138t55 138t150 52t150 -52t55 -138t-55 -138t-150 -52t-150 52zM289 550q21 25 21 75t-21 75t-54 25t-54 -25t-21 -75t21 -75t54 -25t54 25z" />
    <glyph glyph-name="uni2074" unicode="&#x2074;" horiz-adv-x="410" 
d="M360 450h-130v70h-215v60l140 220h133l-135 -214v-6h77l18 85h112v-85h45v-60h-45v-70z" />
    <glyph glyph-name="uni2075" unicode="&#x2075;" horiz-adv-x="380" 
d="M95 444.5q-44 9.5 -65 20.5v95q21 -11 58.5 -20.5t77.5 -9.5q39 0 56.5 10.5t17.5 25.5q0 17 -17.5 28t-56.5 11q-29 0 -55 -6t-40 -13l-30 15l10 199h284v-95h-189l-2 -53q24 8 58 8q84 0 126 -31t42 -79t-45.5 -81.5t-132.5 -33.5q-53 0 -97 9.5z" />
    <glyph glyph-name="uni2076" unicode="&#x2076;" horiz-adv-x="395" 
d="M61 469q-46 34 -46 86q0 23 11.5 48t42.5 62l112 135h139l-109 -131v-5h18q73 0 112 -31.5t39 -77.5q0 -52 -46 -86t-137 -34q-90 0 -136 34zM244.5 537.5q15.5 12.5 15.5 31.5q0 20 -15.5 32.5t-46.5 12.5q-32 0 -47.5 -12.5t-15.5 -32.5q0 -19 15.5 -31.5t47.5 -12.5
q31 0 46.5 12.5z" />
    <glyph glyph-name="uni2077" unicode="&#x2077;" horiz-adv-x="370" 
d="M215 450h-135l126 255h-191v95h335v-77z" />
    <glyph glyph-name="uni2078" unicode="&#x2078;" horiz-adv-x="465" 
d="M85.5 462.5q-45.5 27.5 -45.5 69.5q0 34 26.5 56.5t76.5 23.5v8q-52 2 -82.5 27t-30.5 61q0 44 50 75.5t153 31.5q102 0 152 -31.5t50 -75.5q0 -36 -30.5 -61t-82.5 -27v-8q50 -1 76.5 -23.5t26.5 -56.5q0 -42 -45.5 -69.5t-146.5 -27.5q-102 0 -147.5 27.5zM291 658
q19 12 19 30t-19 30t-58 12q-40 0 -59 -12t-19 -30t19 -30t59 -12q39 0 58 12zM305 554q0 34 -72 34q-73 0 -73 -34t73 -34q72 0 72 34z" />
    <glyph glyph-name="uni2079" unicode="&#x2079;" horiz-adv-x="425" 
d="M102 450l106 126v5h-15q-89 0 -133.5 31.5t-44.5 79.5q0 54 49 88.5t149 34.5q98 0 147.5 -34t49.5 -83q0 -25 -13.5 -48.5t-55.5 -73.5l-106 -126h-133zM271.5 644q18.5 13 18.5 34t-18.5 34t-58.5 13t-59 -13t-19 -34t19 -34t59 -13t58.5 13z" />
    <glyph glyph-name="uni2080" unicode="&#x2080;" horiz-adv-x="470" 
d="M85 -63q-55 52 -55 138t55 138t150 52t150 -52t55 -138t-55 -138t-150 -52t-150 52zM289 0q21 25 21 75t-21 75t-54 25t-54 -25t-21 -75t21 -75t54 -25t54 25z" />
    <glyph glyph-name="uni2081" unicode="&#x2081;" horiz-adv-x="380" 
d="M45 -100v90h95v130h-95v85h55q45 0 45 45h125v-260h90v-90h-315z" />
    <glyph glyph-name="uni2082" unicode="&#x2082;" horiz-adv-x="410" 
d="M40 -100v75l115 69q47 28 68.5 48t21.5 38q0 40 -54 40q-31 0 -76 -17t-80 -38v100q31 19 82.5 34.5t105.5 15.5q76 0 114 -28t38 -72q0 -40 -31.5 -72.5t-108.5 -70.5l-44 -22v-5h177v-95h-328z" />
    <glyph glyph-name="uni2083" unicode="&#x2083;" horiz-adv-x="400" 
d="M105.5 -105.5q-44.5 9.5 -70.5 20.5v95q27 -12 66.5 -21t73.5 -9q70 0 70 36q0 19 -16 29t-54 10q-42 0 -80 -10v49l96 56v5h-151v95h316v-61l-133 -74v-5q74 0 113 -30t39 -75q0 -31 -20.5 -58.5t-61 -44.5t-96.5 -17q-47 0 -91.5 9.5z" />
    <glyph glyph-name="uni2084" unicode="&#x2084;" horiz-adv-x="410" 
d="M360 -100h-130v70h-215v60l140 220h133l-135 -214v-6h77l18 85h112v-85h45v-60h-45v-70z" />
    <glyph glyph-name="uni2085" unicode="&#x2085;" horiz-adv-x="380" 
d="M95 -105.5q-44 9.5 -65 20.5v95q21 -11 58.5 -20.5t77.5 -9.5q39 0 56.5 10.5t17.5 25.5q0 17 -17.5 28t-56.5 11q-29 0 -55 -6t-40 -13l-30 15l10 199h284v-95h-189l-2 -53q24 8 58 8q84 0 126 -31t42 -79t-45.5 -81.5t-132.5 -33.5q-53 0 -97 9.5z" />
    <glyph glyph-name="uni2086" unicode="&#x2086;" horiz-adv-x="395" 
d="M61 -81q-46 34 -46 86q0 23 11.5 48t42.5 62l112 135h139l-109 -131v-5h18q73 0 112 -31.5t39 -77.5q0 -52 -46 -86t-137 -34q-90 0 -136 34zM244.5 -12.5q15.5 12.5 15.5 31.5q0 20 -15.5 32.5t-46.5 12.5q-32 0 -47.5 -12.5t-15.5 -32.5q0 -19 15.5 -31.5t47.5 -12.5
q31 0 46.5 12.5z" />
    <glyph glyph-name="uni2087" unicode="&#x2087;" horiz-adv-x="370" 
d="M215 -100h-135l126 255h-191v95h335v-77z" />
    <glyph glyph-name="uni2088" unicode="&#x2088;" horiz-adv-x="465" 
d="M85.5 -87.5q-45.5 27.5 -45.5 69.5q0 34 26.5 56.5t76.5 23.5v8q-52 2 -82.5 27t-30.5 61q0 44 50 75.5t153 31.5q102 0 152 -31.5t50 -75.5q0 -36 -30.5 -61t-82.5 -27v-8q50 -1 76.5 -23.5t26.5 -56.5q0 -42 -45.5 -69.5t-146.5 -27.5q-102 0 -147.5 27.5zM291 108
q19 12 19 30t-19 30t-58 12q-40 0 -59 -12t-19 -30t19 -30t59 -12q39 0 58 12zM305 4q0 34 -72 34q-73 0 -73 -34t73 -34q72 0 72 34z" />
    <glyph glyph-name="uni2089" unicode="&#x2089;" horiz-adv-x="425" 
d="M102 -100l106 126v5h-15q-89 0 -133.5 31.5t-44.5 79.5q0 54 49 88.5t149 34.5q98 0 147.5 -34t49.5 -83q0 -25 -13.5 -48.5t-55.5 -73.5l-106 -126h-133zM271.5 94q18.5 13 18.5 34t-18.5 34t-58.5 13t-59 -13t-19 -34t19 -34t59 -13t58.5 13z" />
    <glyph glyph-name="uni20A9" unicode="&#x20a9;" horiz-adv-x="1215" 
d="M1190 460v-75h-119l-21 -90h140v-75h-158l-52 -220h-255l-113 503h-9l-113 -503h-255l-52 220h-158v75h140l-21 90h-119v75h102l-57 240h180l128 -552h9l124 552h190l127 -552h9l128 552h180l-57 -240h102z" />
    <glyph glyph-name="Euro" unicode="&#x20ac;" horiz-adv-x="920" 
d="M411 538.5q-64 -26.5 -99 -73.5h308v-75h-341q-4 -17 -4 -40t4 -40h341v-75h-309q34 -47 95 -73.5t144 -26.5q90 0 165 21.5t114 48.5v-159q-42 -23 -120.5 -42t-173.5 -19q-170 0 -281.5 68t-150.5 182h-88v75h72q-2 26 -2 40t2 40h-72v75h89q39 115 154.5 182.5
t296.5 67.5q98 0 180.5 -22t124.5 -50v-160q-41 31 -121 56.5t-174 25.5q-90 0 -154 -26.5z" />
    <glyph glyph-name="uni20B4" unicode="&#x20b4;" horiz-adv-x="828" 
d="M783 435v-75h-738v75h508q17 21 17 48q0 34 -38 58t-122 24q-92 0 -178.5 -23t-136.5 -52v150q47 29 135.5 52t189.5 23q114 0 190.5 -28t113 -72.5t36.5 -94.5q0 -53 -32 -85h55zM45 235v75h738v-75h-508q-9 -10 -9 -23q0 -35 36.5 -56t122.5 -21q89 0 170 19.5
t126 44.5v-150q-43 -25 -129 -44.5t-187 -19.5q-111 0 -185 26.5t-109 68t-35 88.5q0 40 20 67h-51z" />
    <glyph glyph-name="uni20B8" unicode="&#x20b8;" horiz-adv-x="810" 
d="M35 605v95h740v-95h-740zM315 445h-280v95h740v-95h-280v-445h-180v445z" />
    <glyph glyph-name="uni20B9" unicode="&#x20b9;" 
d="M720 565h-130v-7q24 -27 35 -58h95v-75h-86q-8 -78 -72 -131t-177 -62v-7l275 -225h-222l-282 230h-96v120h250q58 0 92.5 19.5t46.5 55.5h-389v75h391q-22 80 -141 80h-250v120h660v-135z" />
    <glyph glyph-name="uni20BA" unicode="&#x20ba;" horiz-adv-x="755" 
d="M735 285q-8 -131 -125 -208t-350 -77h-140v238l-115 -43v80l115 43v75l-115 -43v80l115 43v227h180v-160l215 80v-80l-215 -80v-75l215 80v-80l-215 -80v-170q231 0 255 150h180z" />
    <glyph glyph-name="uni20BD" unicode="&#x20bd;" horiz-adv-x="860" 
d="M275 290v-70h340v-105h-340v-115h-180v115h-70v105h70v70h-70v105h70v305h435q144 0 217 -56t73 -154q0 -95 -69.5 -147.5t-220.5 -52.5h-255zM275 555v-160h240q59 0 87 21.5t28 58.5t-28 58.5t-87 21.5h-240z" />
    <glyph glyph-name="uni20BF" unicode="&#x20bf;" horiz-adv-x="865" 
d="M580 345q100 0 152.5 -43.5t52.5 -116.5t-51 -121t-154 -60v-124h-130v120h-120v-120h-130v120h-120v700h120v120h130v-120h120v120h130v-123q114 -10 169.5 -58.5t55.5 -118.5q0 -76 -56.5 -121.5t-168.5 -45.5v-8zM586.5 534.5q-28.5 20.5 -86.5 20.5h-240v-155h240
q59 0 87 21.5t28 58.5q0 34 -28.5 54.5zM480 145q115 0 115 75t-115 75h-220v-150h220z" />
    <glyph glyph-name="uni2116" unicode="&#x2116;" horiz-adv-x="1370" 
d="M1022.5 378q-44.5 23 -68.5 64t-24 93t24 93t68.5 64t102.5 23t102.5 -23t68.5 -64t24 -93t-24 -93t-68.5 -64t-102.5 -23t-102.5 23zM255 0h-175v700h288l294 -533h8v533h175v-700h-288l-294 533h-8v-533zM1179 477q21 22 21 58t-21 58t-54 22t-54 -22t-21 -58t21 -58
t54 -22t54 22zM1310 205h-370v100h370v-100z" />
    <glyph glyph-name="trademark" unicode="&#x2122;" horiz-adv-x="986" 
d="M258 370h-125v235h-113v95h351v-95h-113v-235zM550 370h-125v330h147l111 -188h5l110 188h143v-330h-125v198h-5l-127 -208h-2l-127 208h-5v-198z" />
    <glyph glyph-name="uni2150" unicode="&#x2150;" horiz-adv-x="990" 
d="M45 350v90h95v130h-95v85h55q45 0 45 45h125v-260h90v-90h-315zM385 0h-155l385 700h155zM835 0h-135l126 255h-191v95h335v-77z" />
    <glyph glyph-name="uni2151" unicode="&#x2151;" horiz-adv-x="1045" 
d="M45 350v90h95v130h-95v85h55q45 0 45 45h125v-260h90v-90h-315zM385 0h-155l385 700h155zM722 0l106 126v5h-15q-89 0 -133.5 31.5t-44.5 79.5q0 54 49 88.5t149 34.5q98 0 147.5 -34t49.5 -83q0 -25 -13.5 -48.5t-55.5 -73.5l-106 -126h-133zM891.5 194q18.5 13 18.5 34
t-18.5 34t-58.5 13t-59 -13t-19 -34t19 -34t59 -13t58.5 13z" />
    <glyph glyph-name="uni2153" unicode="&#x2153;" horiz-adv-x="1020" 
d="M45 350v90h95v130h-95v85h55q45 0 45 45h125v-260h90v-90h-315zM385 0h-155l385 700h155zM725.5 -5.5q-44.5 9.5 -70.5 20.5v95q27 -12 66.5 -21t73.5 -9q70 0 70 36q0 19 -16 29t-54 10q-42 0 -80 -10v49l96 56v5h-151v95h316v-61l-133 -74v-5q74 0 113 -30t39 -75
q0 -31 -20.5 -58.5t-61 -44.5t-96.5 -17q-47 0 -91.5 9.5z" />
    <glyph glyph-name="uni2154" unicode="&#x2154;" horiz-adv-x="1050" 
d="M40 350v75l115 69q47 28 68.5 48t21.5 38q0 40 -54 40q-31 0 -76 -17t-80 -38v100q31 19 82.5 34.5t105.5 15.5q76 0 114 -28t38 -72q0 -40 -31.5 -72.5t-108.5 -70.5l-44 -22v-5h177v-95h-328zM415 0h-155l385 700h155zM755.5 -5.5q-44.5 9.5 -70.5 20.5v95
q27 -12 66.5 -21t73.5 -9q70 0 70 36q0 19 -16 29t-54 10q-42 0 -80 -10v49l96 56v5h-151v95h316v-61l-133 -74v-5q74 0 113 -30t39 -75q0 -31 -20.5 -58.5t-61 -44.5t-96.5 -17q-47 0 -91.5 9.5z" />
    <glyph glyph-name="uni2155" unicode="&#x2155;" horiz-adv-x="1000" 
d="M45 350v90h95v130h-95v85h55q45 0 45 45h125v-260h90v-90h-315zM385 0h-155l385 700h155zM715 -5.5q-44 9.5 -65 20.5v95q21 -11 58.5 -20.5t77.5 -9.5q39 0 56.5 10.5t17.5 25.5q0 17 -17.5 28t-56.5 11q-29 0 -55 -6t-40 -13l-30 15l10 199h284v-95h-189l-2 -53
q24 8 58 8q84 0 126 -31t42 -79t-45.5 -81.5t-132.5 -33.5q-53 0 -97 9.5z" />
    <glyph glyph-name="uni2156" unicode="&#x2156;" horiz-adv-x="1030" 
d="M40 350v75l115 69q47 28 68.5 48t21.5 38q0 40 -54 40q-31 0 -76 -17t-80 -38v100q31 19 82.5 34.5t105.5 15.5q76 0 114 -28t38 -72q0 -40 -31.5 -72.5t-108.5 -70.5l-44 -22v-5h177v-95h-328zM415 0h-155l385 700h155zM745 -5.5q-44 9.5 -65 20.5v95q21 -11 58.5 -20.5
t77.5 -9.5q39 0 56.5 10.5t17.5 25.5q0 17 -17.5 28t-56.5 11q-29 0 -55 -6t-40 -13l-30 15l10 199h284v-95h-189l-2 -53q24 8 58 8q84 0 126 -31t42 -79t-45.5 -81.5t-132.5 -33.5q-53 0 -97 9.5z" />
    <glyph glyph-name="uni2157" unicode="&#x2157;" horiz-adv-x="1020" 
d="M105.5 344.5q-44.5 9.5 -70.5 20.5v95q27 -12 66.5 -21t73.5 -9q70 0 70 36q0 19 -16 29t-54 10q-42 0 -80 -10v49l96 56v5h-151v95h316v-61l-133 -74v-5q74 0 113 -30t39 -75q0 -31 -20.5 -58.5t-61 -44.5t-96.5 -17q-47 0 -91.5 9.5zM405 0h-155l385 700h155zM735 -5.5
q-44 9.5 -65 20.5v95q21 -11 58.5 -20.5t77.5 -9.5q39 0 56.5 10.5t17.5 25.5q0 17 -17.5 28t-56.5 11q-29 0 -55 -6t-40 -13l-30 15l10 199h284v-95h-189l-2 -53q24 8 58 8q84 0 126 -31t42 -79t-45.5 -81.5t-132.5 -33.5q-53 0 -97 9.5z" />
    <glyph glyph-name="uni2158" unicode="&#x2158;" horiz-adv-x="1030" 
d="M360 350h-130v70h-215v60l140 220h133l-135 -214v-6h77l18 85h112v-85h45v-60h-45v-70zM415 0h-155l385 700h155zM745 -5.5q-44 9.5 -65 20.5v95q21 -11 58.5 -20.5t77.5 -9.5q39 0 56.5 10.5t17.5 25.5q0 17 -17.5 28t-56.5 11q-29 0 -55 -6t-40 -13l-30 15l10 199h284
v-95h-189l-2 -53q24 8 58 8q84 0 126 -31t42 -79t-45.5 -81.5t-132.5 -33.5q-53 0 -97 9.5z" />
    <glyph glyph-name="uni2159" unicode="&#x2159;" horiz-adv-x="1015" 
d="M45 350v90h95v130h-95v85h55q45 0 45 45h125v-260h90v-90h-315zM385 0h-155l385 700h155zM681 19q-46 34 -46 86q0 23 11.5 48t42.5 62l112 135h139l-109 -131v-5h18q73 0 112 -31.5t39 -77.5q0 -52 -46 -86t-137 -34q-90 0 -136 34zM864.5 87.5q15.5 12.5 15.5 31.5
q0 20 -15.5 32.5t-46.5 12.5q-32 0 -47.5 -12.5t-15.5 -32.5q0 -19 15.5 -31.5t47.5 -12.5q31 0 46.5 12.5z" />
    <glyph glyph-name="uni215A" unicode="&#x215a;" horiz-adv-x="1015" 
d="M95 344.5q-44 9.5 -65 20.5v95q21 -11 58.5 -20.5t77.5 -9.5q39 0 56.5 10.5t17.5 25.5q0 17 -17.5 28t-56.5 11q-29 0 -55 -6t-40 -13l-30 15l10 199h284v-95h-189l-2 -53q24 8 58 8q84 0 126 -31t42 -79t-45.5 -81.5t-132.5 -33.5q-53 0 -97 9.5zM385 0h-155l385 700
h155zM681 19q-46 34 -46 86q0 23 11.5 48t42.5 62l112 135h139l-109 -131v-5h18q73 0 112 -31.5t39 -77.5q0 -52 -46 -86t-137 -34q-90 0 -136 34zM864.5 87.5q15.5 12.5 15.5 31.5q0 20 -15.5 32.5t-46.5 12.5q-32 0 -47.5 -12.5t-15.5 -32.5q0 -19 15.5 -31.5t47.5 -12.5
q31 0 46.5 12.5z" />
    <glyph glyph-name="oneeighth" unicode="&#x215b;" horiz-adv-x="1085" 
d="M45 350v90h95v130h-95v85h55q45 0 45 45h125v-260h90v-90h-315zM385 0h-155l385 700h155zM705.5 12.5q-45.5 27.5 -45.5 69.5q0 34 26.5 56.5t76.5 23.5v8q-52 2 -82.5 27t-30.5 61q0 44 50 75.5t153 31.5q102 0 152 -31.5t50 -75.5q0 -36 -30.5 -61t-82.5 -27v-8
q50 -1 76.5 -23.5t26.5 -56.5q0 -42 -45.5 -69.5t-146.5 -27.5q-102 0 -147.5 27.5zM911 208q19 12 19 30t-19 30t-58 12q-40 0 -59 -12t-19 -30t19 -30t59 -12q39 0 58 12zM925 104q0 34 -72 34q-73 0 -73 -34t73 -34q72 0 72 34z" />
    <glyph glyph-name="threeeighths" unicode="&#x215c;" horiz-adv-x="1105" 
d="M105.5 344.5q-44.5 9.5 -70.5 20.5v95q27 -12 66.5 -21t73.5 -9q70 0 70 36q0 19 -16 29t-54 10q-42 0 -80 -10v49l96 56v5h-151v95h316v-61l-133 -74v-5q74 0 113 -30t39 -75q0 -31 -20.5 -58.5t-61 -44.5t-96.5 -17q-47 0 -91.5 9.5zM405 0h-155l385 700h155z
M725.5 12.5q-45.5 27.5 -45.5 69.5q0 34 26.5 56.5t76.5 23.5v8q-52 2 -82.5 27t-30.5 61q0 44 50 75.5t153 31.5q102 0 152 -31.5t50 -75.5q0 -36 -30.5 -61t-82.5 -27v-8q50 -1 76.5 -23.5t26.5 -56.5q0 -42 -45.5 -69.5t-146.5 -27.5q-102 0 -147.5 27.5zM931 208
q19 12 19 30t-19 30t-58 12q-40 0 -59 -12t-19 -30t19 -30t59 -12q39 0 58 12zM945 104q0 34 -72 34q-73 0 -73 -34t73 -34q72 0 72 34z" />
    <glyph glyph-name="fiveeighths" unicode="&#x215d;" horiz-adv-x="1085" 
d="M95 344.5q-44 9.5 -65 20.5v95q21 -11 58.5 -20.5t77.5 -9.5q39 0 56.5 10.5t17.5 25.5q0 17 -17.5 28t-56.5 11q-29 0 -55 -6t-40 -13l-30 15l10 199h284v-95h-189l-2 -53q24 8 58 8q84 0 126 -31t42 -79t-45.5 -81.5t-132.5 -33.5q-53 0 -97 9.5zM385 0h-155l385 700
h155zM705.5 12.5q-45.5 27.5 -45.5 69.5q0 34 26.5 56.5t76.5 23.5v8q-52 2 -82.5 27t-30.5 61q0 44 50 75.5t153 31.5q102 0 152 -31.5t50 -75.5q0 -36 -30.5 -61t-82.5 -27v-8q50 -1 76.5 -23.5t26.5 -56.5q0 -42 -45.5 -69.5t-146.5 -27.5q-102 0 -147.5 27.5zM911 208
q19 12 19 30t-19 30t-58 12q-40 0 -59 -12t-19 -30t19 -30t59 -12q39 0 58 12zM925 104q0 34 -72 34q-73 0 -73 -34t73 -34q72 0 72 34z" />
    <glyph glyph-name="seveneighths" unicode="&#x215e;" horiz-adv-x="1075" 
d="M215 350h-135l126 255h-191v95h335v-77zM375 0h-155l385 700h155zM695.5 12.5q-45.5 27.5 -45.5 69.5q0 34 26.5 56.5t76.5 23.5v8q-52 2 -82.5 27t-30.5 61q0 44 50 75.5t153 31.5q102 0 152 -31.5t50 -75.5q0 -36 -30.5 -61t-82.5 -27v-8q50 -1 76.5 -23.5t26.5 -56.5
q0 -42 -45.5 -69.5t-146.5 -27.5q-102 0 -147.5 27.5zM901 208q19 12 19 30t-19 30t-58 12q-40 0 -59 -12t-19 -30t19 -30t59 -12q39 0 58 12zM915 104q0 34 -72 34q-73 0 -73 -34t73 -34q72 0 72 34z" />
    <glyph glyph-name="uni215F" unicode="&#x215f;" horiz-adv-x="620" 
d="M45 350v90h95v130h-95v85h55q45 0 45 45h125v-260h90v-90h-315zM385 0h-155l385 700h155z" />
    <glyph glyph-name="arrowleft" unicode="&#x2190;" horiz-adv-x="1010" 
d="M471 151l-81 -81l-260 265l260 265l81 -81l-117 -119v-5h496v-120h-496v-5z" />
    <glyph glyph-name="arrowup" unicode="&#x2191;" horiz-adv-x="1010" 
d="M565 0h-120v476h-5l-118 -117l-82 81l265 260l265 -260l-81 -81l-119 117h-5v-476z" />
    <glyph glyph-name="arrowright" unicode="&#x2192;" horiz-adv-x="1010" 
d="M880 335l-260 -265l-81 81l117 119v5h-496v120h496v5l-117 119l81 81z" />
    <glyph glyph-name="arrowdown" unicode="&#x2193;" horiz-adv-x="1010" 
d="M770 260l-265 -260l-265 260l82 81l118 -117h5v476h120v-476h5l119 117z" />
    <glyph glyph-name="arrowboth" unicode="&#x2194;" horiz-adv-x="1000" 
d="M431 151l-81 -81l-260 265l260 265l81 -81l-117 -119v-5h372v5l-117 119l81 81l260 -265l-260 -265l-81 81l117 119v5h-372v-5z" />
    <glyph glyph-name="arrowupdn" unicode="&#x2195;" horiz-adv-x="1010" 
d="M770 200l-265 -260l-265 260l81 81l119 -117h5v372h-5l-119 -117l-81 81l265 260l265 -260l-81 -81l-119 117h-5v-372h5l119 117z" />
    <glyph glyph-name="uni2196" unicode="&#x2196;" horiz-adv-x="1000" 
d="M775 144l-85 -85l-349 351l-3 -2v-169h-113v372h372v-113h-169l-2 -3z" />
    <glyph glyph-name="uni2197" unicode="&#x2197;" horiz-adv-x="1000" 
d="M659 410l-349 -351l-85 85l349 351l-2 3h-169v113h372v-372h-113v169z" />
    <glyph glyph-name="uni2198" unicode="&#x2198;" horiz-adv-x="1000" 
d="M775 59h-372v113h169l2 3l-349 351l85 85l349 -351l3 2v169h113v-372z" />
    <glyph glyph-name="uni2199" unicode="&#x2199;" horiz-adv-x="1000" 
d="M597 59h-372v372h113v-169l3 -2l349 351l85 -85l-349 -351l2 -3h169v-113z" />
    <glyph glyph-name="minus" unicode="&#x2212;" horiz-adv-x="630" 
d="M575 245h-520v130h520v-130z" />
    <glyph glyph-name="approxequal" unicode="&#x2248;" horiz-adv-x="660" 
d="M50 375q0 71 35.5 108t99.5 37q40 0 67.5 -11t59.5 -32q24 -16 41 -24t39 -8t35 14t13 41v15h170v-30q0 -71 -35.5 -108t-99.5 -37q-40 0 -67.5 11t-59.5 32q-24 16 -41 24t-39 8t-35 -14t-13 -41v-15h-170v30zM50 125q0 71 35.5 108t99.5 37q40 0 67.5 -11t59.5 -32
q24 -16 41 -24t39 -8t35 14t13 41v15h170v-30q0 -71 -35.5 -108t-99.5 -37q-40 0 -67.5 11t-59.5 32q-24 16 -41 24t-39 8t-35 -14t-13 -41v-15h-170v30z" />
    <glyph glyph-name="notequal" unicode="&#x2260;" horiz-adv-x="640" 
d="M575 465v-100h-182l-56 -120h238v-100h-284l-51 -110h-90l51 110h-136v100h182l56 120h-238v100h284l51 110h90l-51 -110h136z" />
    <glyph glyph-name="lessequal" unicode="&#x2264;" horiz-adv-x="675" 
d="M610 262v-128l-545 158v114l545 158v-128l-302 -82v-10zM606 0h-530v100h530v-100z" />
    <glyph glyph-name="greaterequal" unicode="&#x2265;" horiz-adv-x="675" 
d="M610 292l-545 -158v128l302 82v10l-302 82v128l545 -158v-114zM599 100v-100h-530v100h530z" />
    <glyph glyph-name="uni2460" unicode="&#x2460;" horiz-adv-x="1120" 
d="M305.5 -32.5q-110.5 57.5 -170.5 157.5t-60 225t60 225t170.5 157.5t254.5 57.5t254.5 -57.5t170.5 -157.5t60 -225t-60 -225t-170.5 -157.5t-254.5 -57.5t-254.5 57.5zM771 36.5q91 46.5 140 128.5t49 185t-49 185t-140 128.5t-211 46.5t-211 -46.5t-140 -128.5
t-49 -185t49 -185t140 -128.5t211 -46.5t211 46.5zM410 175v90h95v130h-95v85h55q45 0 45 45h125v-260h90v-90h-315z" />
    <glyph glyph-name="uni2461" unicode="&#x2461;" horiz-adv-x="1120" 
d="M305.5 -32.5q-110.5 57.5 -170.5 157.5t-60 225t60 225t170.5 157.5t254.5 57.5t254.5 -57.5t170.5 -157.5t60 -225t-60 -225t-170.5 -157.5t-254.5 -57.5t-254.5 57.5zM771 36.5q91 46.5 140 128.5t49 185t-49 185t-140 128.5t-211 46.5t-211 -46.5t-140 -128.5
t-49 -185t49 -185t140 -128.5t211 -46.5t211 46.5zM400 175v75l115 69q47 28 68.5 48t21.5 38q0 40 -54 40q-31 0 -76 -17t-80 -38v100q31 19 82.5 34.5t105.5 15.5q76 0 114 -28t38 -72q0 -40 -31.5 -72.5t-108.5 -70.5l-44 -22v-5h177v-95h-328z" />
    <glyph glyph-name="uni2462" unicode="&#x2462;" horiz-adv-x="1120" 
d="M305.5 -32.5q-110.5 57.5 -170.5 157.5t-60 225t60 225t170.5 157.5t254.5 57.5t254.5 -57.5t170.5 -157.5t60 -225t-60 -225t-170.5 -157.5t-254.5 -57.5t-254.5 57.5zM771 36.5q91 46.5 140 128.5t49 185t-49 185t-140 128.5t-211 46.5t-211 -46.5t-140 -128.5
t-49 -185t49 -185t140 -128.5t211 -46.5t211 46.5zM470.5 169.5q-44.5 9.5 -70.5 20.5v95q27 -12 66.5 -21t73.5 -9q70 0 70 36q0 19 -16 29t-54 10q-42 0 -80 -10v49l96 56v5h-151v95h316v-61l-133 -74v-5q74 0 113 -30t39 -75q0 -31 -20.5 -58.5t-61 -44.5t-96.5 -17
q-47 0 -91.5 9.5z" />
    <glyph glyph-name="uni2463" unicode="&#x2463;" horiz-adv-x="1120" 
d="M305.5 -32.5q-110.5 57.5 -170.5 157.5t-60 225t60 225t170.5 157.5t254.5 57.5t254.5 -57.5t170.5 -157.5t60 -225t-60 -225t-170.5 -157.5t-254.5 -57.5t-254.5 57.5zM771 36.5q91 46.5 140 128.5t49 185t-49 185t-140 128.5t-211 46.5t-211 -46.5t-140 -128.5
t-49 -185t49 -185t140 -128.5t211 -46.5t211 46.5zM700 175h-130v70h-215v60l140 220h133l-135 -214v-6h77l18 85h112v-85h45v-60h-45v-70z" />
    <glyph glyph-name="uni2464" unicode="&#x2464;" horiz-adv-x="1120" 
d="M305.5 -32.5q-110.5 57.5 -170.5 157.5t-60 225t60 225t170.5 157.5t254.5 57.5t254.5 -57.5t170.5 -157.5t60 -225t-60 -225t-170.5 -157.5t-254.5 -57.5t-254.5 57.5zM771 36.5q91 46.5 140 128.5t49 185t-49 185t-140 128.5t-211 46.5t-211 -46.5t-140 -128.5
t-49 -185t49 -185t140 -128.5t211 -46.5t211 46.5zM465 169.5q-44 9.5 -65 20.5v95q21 -11 58.5 -20.5t77.5 -9.5q39 0 56.5 10.5t17.5 25.5q0 17 -17.5 28t-56.5 11q-29 0 -55 -6t-40 -13l-30 15l10 199h284v-95h-189l-2 -53q24 8 58 8q84 0 126 -31t42 -79t-45.5 -81.5
t-132.5 -33.5q-53 0 -97 9.5z" />
    <glyph glyph-name="uni2465" unicode="&#x2465;" horiz-adv-x="1120" 
d="M305.5 -32.5q-110.5 57.5 -170.5 157.5t-60 225t60 225t170.5 157.5t254.5 57.5t254.5 -57.5t170.5 -157.5t60 -225t-60 -225t-170.5 -157.5t-254.5 -57.5t-254.5 57.5zM771 36.5q91 46.5 140 128.5t49 185t-49 185t-140 128.5t-211 46.5t-211 -46.5t-140 -128.5
t-49 -185t49 -185t140 -128.5t211 -46.5t211 46.5zM411 194q-46 34 -46 86q0 23 11.5 48t42.5 62l112 135h139l-109 -131v-5h18q73 0 112 -31.5t39 -77.5q0 -52 -46 -86t-137 -34q-90 0 -136 34zM594.5 262.5q15.5 12.5 15.5 31.5q0 20 -15.5 32.5t-46.5 12.5
q-32 0 -47.5 -12.5t-15.5 -32.5q0 -19 15.5 -31.5t47.5 -12.5q31 0 46.5 12.5z" />
    <glyph glyph-name="uni2466" unicode="&#x2466;" horiz-adv-x="1120" 
d="M305.5 -32.5q-110.5 57.5 -170.5 157.5t-60 225t60 225t170.5 157.5t254.5 57.5t254.5 -57.5t170.5 -157.5t60 -225t-60 -225t-170.5 -157.5t-254.5 -57.5t-254.5 57.5zM771 36.5q91 46.5 140 128.5t49 185t-49 185t-140 128.5t-211 46.5t-211 -46.5t-140 -128.5
t-49 -185t49 -185t140 -128.5t211 -46.5t211 46.5zM590 175h-135l126 255h-191v95h335v-77z" />
    <glyph glyph-name="uni2467" unicode="&#x2467;" horiz-adv-x="1120" 
d="M305.5 -32.5q-110.5 57.5 -170.5 157.5t-60 225t60 225t170.5 157.5t254.5 57.5t254.5 -57.5t170.5 -157.5t60 -225t-60 -225t-170.5 -157.5t-254.5 -57.5t-254.5 57.5zM771 36.5q91 46.5 140 128.5t49 185t-49 185t-140 128.5t-211 46.5t-211 -46.5t-140 -128.5
t-49 -185t49 -185t140 -128.5t211 -46.5t211 46.5zM413.5 187.5q-45.5 27.5 -45.5 69.5q0 34 26.5 56.5t76.5 23.5v8q-52 2 -82.5 27t-30.5 61q0 44 50 75.5t153 31.5q102 0 152 -31.5t50 -75.5q0 -36 -30.5 -61t-82.5 -27v-8q50 -1 76.5 -23.5t26.5 -56.5
q0 -42 -45.5 -69.5t-146.5 -27.5q-102 0 -147.5 27.5zM619 383q19 12 19 30t-19 30t-58 12q-40 0 -59 -12t-19 -30t19 -30t59 -12q39 0 58 12zM633 279q0 34 -72 34q-73 0 -73 -34t73 -34q72 0 72 34z" />
    <glyph glyph-name="uni2468" unicode="&#x2468;" horiz-adv-x="1120" 
d="M305.5 -32.5q-110.5 57.5 -170.5 157.5t-60 225t60 225t170.5 157.5t254.5 57.5t254.5 -57.5t170.5 -157.5t60 -225t-60 -225t-170.5 -157.5t-254.5 -57.5t-254.5 57.5zM771 36.5q91 46.5 140 128.5t49 185t-49 185t-140 128.5t-211 46.5t-211 -46.5t-140 -128.5
t-49 -185t49 -185t140 -128.5t211 -46.5t211 46.5zM452 175l106 126v5h-15q-89 0 -133.5 31.5t-44.5 79.5q0 54 49 88.5t149 34.5q98 0 147.5 -34t49.5 -83q0 -25 -13.5 -48.5t-55.5 -73.5l-106 -126h-133zM621.5 369q18.5 13 18.5 34t-18.5 34t-58.5 13t-59 -13t-19 -34
t19 -34t59 -13t58.5 13z" />
    <glyph glyph-name="uni2469" unicode="&#x2469;" horiz-adv-x="1120" 
d="M305.5 -32.5q-110.5 57.5 -170.5 157.5t-60 225t60 225t170.5 157.5t254.5 57.5t254.5 -57.5t170.5 -157.5t60 -225t-60 -225t-170.5 -157.5t-254.5 -57.5t-254.5 57.5zM771 36.5q91 46.5 140 128.5t49 185t-49 185t-140 128.5t-211 46.5t-211 -46.5t-140 -128.5
t-49 -185t49 -185t140 -128.5t211 -46.5t211 46.5zM544 212.5q-54 52.5 -54 137.5t54 137.5t146 52.5t146 -52.5t54 -137.5t-54 -137.5t-146 -52.5t-146 52.5zM315 175v220h-80v85h40q45 0 45 45h120v-350h-125zM744 275q21 25 21 75t-21 75t-54 25t-54 -25t-21 -75t21 -75
t54 -25t54 25z" />
    <glyph glyph-name="uni24EA" unicode="&#x24ea;" horiz-adv-x="1120" 
d="M305.5 -32.5q-110.5 57.5 -170.5 157.5t-60 225t60 225t170.5 157.5t254.5 57.5t254.5 -57.5t170.5 -157.5t60 -225t-60 -225t-170.5 -157.5t-254.5 -57.5t-254.5 57.5zM771 36.5q91 46.5 140 128.5t49 185t-49 185t-140 128.5t-211 46.5t-211 -46.5t-140 -128.5
t-49 -185t49 -185t140 -128.5t211 -46.5t211 46.5zM410 212q-55 52 -55 138t55 138t150 52t150 -52t55 -138t-55 -138t-150 -52t-150 52zM614 275q21 25 21 75t-21 75t-54 25t-54 -25t-21 -75t21 -75t54 -25t54 25z" />
    <glyph glyph-name="uni24F5" unicode="&#x24f5;" horiz-adv-x="1130" 
d="M304.5 -33.5q-110.5 56.5 -170 156t-59.5 227.5t59.5 227.5t170 156t260.5 56.5t260.5 -56.5t170 -156t59.5 -227.5t-59.5 -227.5t-170 -156t-260.5 -56.5t-260.5 56.5zM809 -12q104 53 160 147.5t56 214.5t-56 214.5t-160 147.5t-244 53t-244 -53t-160 -147.5
t-56 -214.5t56 -214.5t160 -147.5t244 -53t244 53zM337.5 10q-97.5 50 -150 139t-52.5 201t52.5 201t150 139t227.5 50t227.5 -50t150 -139t52.5 -201t-52.5 -201t-150 -139t-227.5 -50t-227.5 50zM776 32q91 47 140 130t49 188t-49 188t-140 130t-211 47t-211 -47
t-140 -130t-49 -188t49 -188t140 -130t211 -47t211 47zM415 175v90h95v130h-95v85h55q45 0 45 45h125v-260h90v-90h-315z" />
    <glyph glyph-name="uni24F6" unicode="&#x24f6;" horiz-adv-x="1130" 
d="M304.5 -33.5q-110.5 56.5 -170 156t-59.5 227.5t59.5 227.5t170 156t260.5 56.5t260.5 -56.5t170 -156t59.5 -227.5t-59.5 -227.5t-170 -156t-260.5 -56.5t-260.5 56.5zM809 -12q104 53 160 147.5t56 214.5t-56 214.5t-160 147.5t-244 53t-244 -53t-160 -147.5
t-56 -214.5t56 -214.5t160 -147.5t244 -53t244 53zM337.5 10q-97.5 50 -150 139t-52.5 201t52.5 201t150 139t227.5 50t227.5 -50t150 -139t52.5 -201t-52.5 -201t-150 -139t-227.5 -50t-227.5 50zM776 32q91 47 140 130t49 188t-49 188t-140 130t-211 47t-211 -47
t-140 -130t-49 -188t49 -188t140 -130t211 -47t211 47zM405 175v75l115 69q47 28 68.5 48t21.5 38q0 40 -54 40q-31 0 -76 -17t-80 -38v100q31 19 82.5 34.5t105.5 15.5q76 0 114 -28t38 -72q0 -40 -31.5 -72.5t-108.5 -70.5l-44 -22v-5h177v-95h-328z" />
    <glyph glyph-name="uni24F7" unicode="&#x24f7;" horiz-adv-x="1130" 
d="M304.5 -33.5q-110.5 56.5 -170 156t-59.5 227.5t59.5 227.5t170 156t260.5 56.5t260.5 -56.5t170 -156t59.5 -227.5t-59.5 -227.5t-170 -156t-260.5 -56.5t-260.5 56.5zM809 -12q104 53 160 147.5t56 214.5t-56 214.5t-160 147.5t-244 53t-244 -53t-160 -147.5
t-56 -214.5t56 -214.5t160 -147.5t244 -53t244 53zM337.5 10q-97.5 50 -150 139t-52.5 201t52.5 201t150 139t227.5 50t227.5 -50t150 -139t52.5 -201t-52.5 -201t-150 -139t-227.5 -50t-227.5 50zM776 32q91 47 140 130t49 188t-49 188t-140 130t-211 47t-211 -47
t-140 -130t-49 -188t49 -188t140 -130t211 -47t211 47zM475.5 169.5q-44.5 9.5 -70.5 20.5v95q27 -12 66.5 -21t73.5 -9q70 0 70 36q0 19 -16 29t-54 10q-42 0 -80 -10v49l96 56v5h-151v95h316v-61l-133 -74v-5q74 0 113 -30t39 -75q0 -31 -20.5 -58.5t-61 -44.5t-96.5 -17
q-47 0 -91.5 9.5z" />
    <glyph glyph-name="uni24F8" unicode="&#x24f8;" horiz-adv-x="1130" 
d="M304.5 -33.5q-110.5 56.5 -170 156t-59.5 227.5t59.5 227.5t170 156t260.5 56.5t260.5 -56.5t170 -156t59.5 -227.5t-59.5 -227.5t-170 -156t-260.5 -56.5t-260.5 56.5zM809 -12q104 53 160 147.5t56 214.5t-56 214.5t-160 147.5t-244 53t-244 -53t-160 -147.5
t-56 -214.5t56 -214.5t160 -147.5t244 -53t244 53zM337.5 10q-97.5 50 -150 139t-52.5 201t52.5 201t150 139t227.5 50t227.5 -50t150 -139t52.5 -201t-52.5 -201t-150 -139t-227.5 -50t-227.5 50zM776 32q91 47 140 130t49 188t-49 188t-140 130t-211 47t-211 -47
t-140 -130t-49 -188t49 -188t140 -130t211 -47t211 47zM705 175h-130v70h-215v60l140 220h133l-135 -214v-6h77l18 85h112v-85h45v-60h-45v-70z" />
    <glyph glyph-name="uni24F9" unicode="&#x24f9;" horiz-adv-x="1130" 
d="M304.5 -33.5q-110.5 56.5 -170 156t-59.5 227.5t59.5 227.5t170 156t260.5 56.5t260.5 -56.5t170 -156t59.5 -227.5t-59.5 -227.5t-170 -156t-260.5 -56.5t-260.5 56.5zM809 -12q104 53 160 147.5t56 214.5t-56 214.5t-160 147.5t-244 53t-244 -53t-160 -147.5
t-56 -214.5t56 -214.5t160 -147.5t244 -53t244 53zM337.5 10q-97.5 50 -150 139t-52.5 201t52.5 201t150 139t227.5 50t227.5 -50t150 -139t52.5 -201t-52.5 -201t-150 -139t-227.5 -50t-227.5 50zM776 32q91 47 140 130t49 188t-49 188t-140 130t-211 47t-211 -47
t-140 -130t-49 -188t49 -188t140 -130t211 -47t211 47zM470 169.5q-44 9.5 -65 20.5v95q21 -11 58.5 -20.5t77.5 -9.5q39 0 56.5 10.5t17.5 25.5q0 17 -17.5 28t-56.5 11q-29 0 -55 -6t-40 -13l-30 15l10 199h284v-95h-189l-2 -53q24 8 58 8q84 0 126 -31t42 -79
t-45.5 -81.5t-132.5 -33.5q-53 0 -97 9.5z" />
    <glyph glyph-name="uni24FA" unicode="&#x24fa;" horiz-adv-x="1130" 
d="M304.5 -33.5q-110.5 56.5 -170 156t-59.5 227.5t59.5 227.5t170 156t260.5 56.5t260.5 -56.5t170 -156t59.5 -227.5t-59.5 -227.5t-170 -156t-260.5 -56.5t-260.5 56.5zM809 -12q104 53 160 147.5t56 214.5t-56 214.5t-160 147.5t-244 53t-244 -53t-160 -147.5
t-56 -214.5t56 -214.5t160 -147.5t244 -53t244 53zM337.5 10q-97.5 50 -150 139t-52.5 201t52.5 201t150 139t227.5 50t227.5 -50t150 -139t52.5 -201t-52.5 -201t-150 -139t-227.5 -50t-227.5 50zM776 32q91 47 140 130t49 188t-49 188t-140 130t-211 47t-211 -47
t-140 -130t-49 -188t49 -188t140 -130t211 -47t211 47zM416 194q-46 34 -46 86q0 23 11.5 48t42.5 62l112 135h139l-109 -131v-5h18q73 0 112 -31.5t39 -77.5q0 -52 -46 -86t-137 -34q-90 0 -136 34zM599.5 262.5q15.5 12.5 15.5 31.5q0 20 -15.5 32.5t-46.5 12.5
q-32 0 -47.5 -12.5t-15.5 -32.5q0 -19 15.5 -31.5t47.5 -12.5q31 0 46.5 12.5z" />
    <glyph glyph-name="uni24FB" unicode="&#x24fb;" horiz-adv-x="1130" 
d="M304.5 -33.5q-110.5 56.5 -170 156t-59.5 227.5t59.5 227.5t170 156t260.5 56.5t260.5 -56.5t170 -156t59.5 -227.5t-59.5 -227.5t-170 -156t-260.5 -56.5t-260.5 56.5zM809 -12q104 53 160 147.5t56 214.5t-56 214.5t-160 147.5t-244 53t-244 -53t-160 -147.5
t-56 -214.5t56 -214.5t160 -147.5t244 -53t244 53zM337.5 10q-97.5 50 -150 139t-52.5 201t52.5 201t150 139t227.5 50t227.5 -50t150 -139t52.5 -201t-52.5 -201t-150 -139t-227.5 -50t-227.5 50zM776 32q91 47 140 130t49 188t-49 188t-140 130t-211 47t-211 -47
t-140 -130t-49 -188t49 -188t140 -130t211 -47t211 47zM595 175h-135l126 255h-191v95h335v-77z" />
    <glyph glyph-name="uni24FC" unicode="&#x24fc;" horiz-adv-x="1130" 
d="M304.5 -33.5q-110.5 56.5 -170 156t-59.5 227.5t59.5 227.5t170 156t260.5 56.5t260.5 -56.5t170 -156t59.5 -227.5t-59.5 -227.5t-170 -156t-260.5 -56.5t-260.5 56.5zM809 -12q104 53 160 147.5t56 214.5t-56 214.5t-160 147.5t-244 53t-244 -53t-160 -147.5
t-56 -214.5t56 -214.5t160 -147.5t244 -53t244 53zM337.5 10q-97.5 50 -150 139t-52.5 201t52.5 201t150 139t227.5 50t227.5 -50t150 -139t52.5 -201t-52.5 -201t-150 -139t-227.5 -50t-227.5 50zM776 32q91 47 140 130t49 188t-49 188t-140 130t-211 47t-211 -47
t-140 -130t-49 -188t49 -188t140 -130t211 -47t211 47zM418.5 187.5q-45.5 27.5 -45.5 69.5q0 34 26.5 56.5t76.5 23.5v8q-52 2 -82.5 27t-30.5 61q0 44 50 75.5t153 31.5q102 0 152 -31.5t50 -75.5q0 -36 -30.5 -61t-82.5 -27v-8q50 -1 76.5 -23.5t26.5 -56.5
q0 -42 -45.5 -69.5t-146.5 -27.5q-102 0 -147.5 27.5zM624 383q19 12 19 30t-19 30t-58 12q-40 0 -59 -12t-19 -30t19 -30t59 -12q39 0 58 12zM638 279q0 34 -72 34q-73 0 -73 -34t73 -34q72 0 72 34z" />
    <glyph glyph-name="uni24FD" unicode="&#x24fd;" horiz-adv-x="1130" 
d="M304.5 -33.5q-110.5 56.5 -170 156t-59.5 227.5t59.5 227.5t170 156t260.5 56.5t260.5 -56.5t170 -156t59.5 -227.5t-59.5 -227.5t-170 -156t-260.5 -56.5t-260.5 56.5zM809 -12q104 53 160 147.5t56 214.5t-56 214.5t-160 147.5t-244 53t-244 -53t-160 -147.5
t-56 -214.5t56 -214.5t160 -147.5t244 -53t244 53zM337.5 10q-97.5 50 -150 139t-52.5 201t52.5 201t150 139t227.5 50t227.5 -50t150 -139t52.5 -201t-52.5 -201t-150 -139t-227.5 -50t-227.5 50zM776 32q91 47 140 130t49 188t-49 188t-140 130t-211 47t-211 -47
t-140 -130t-49 -188t49 -188t140 -130t211 -47t211 47zM457 175l106 126v5h-15q-89 0 -133.5 31.5t-44.5 79.5q0 54 49 88.5t149 34.5q98 0 147.5 -34t49.5 -83q0 -25 -13.5 -48.5t-55.5 -73.5l-106 -126h-133zM626.5 369q18.5 13 18.5 34t-18.5 34t-58.5 13t-59 -13
t-19 -34t19 -34t59 -13t58.5 13z" />
    <glyph glyph-name="uni24FE" unicode="&#x24fe;" horiz-adv-x="1130" 
d="M304.5 -33.5q-110.5 56.5 -170 156t-59.5 227.5t59.5 227.5t170 156t260.5 56.5t260.5 -56.5t170 -156t59.5 -227.5t-59.5 -227.5t-170 -156t-260.5 -56.5t-260.5 56.5zM809 -12q104 53 160 147.5t56 214.5t-56 214.5t-160 147.5t-244 53t-244 -53t-160 -147.5
t-56 -214.5t56 -214.5t160 -147.5t244 -53t244 53zM337.5 10q-97.5 50 -150 139t-52.5 201t52.5 201t150 139t227.5 50t227.5 -50t150 -139t52.5 -201t-52.5 -201t-150 -139t-227.5 -50t-227.5 50zM776 32q91 47 140 130t49 188t-49 188t-140 130t-211 47t-211 -47
t-140 -130t-49 -188t49 -188t140 -130t211 -47t211 47zM549 212.5q-54 52.5 -54 137.5t54 137.5t146 52.5t146 -52.5t54 -137.5t-54 -137.5t-146 -52.5t-146 52.5zM320 175v220h-80v85h40q45 0 45 45h120v-350h-125zM749 275q21 25 21 75t-21 75t-54 25t-54 -25t-21 -75
t21 -75t54 -25t54 25z" />
    <glyph glyph-name="uniF6D1" unicode="&#xf6d1;" horiz-adv-x="520" 
d="M88 792q-58 47 -58 123h133q3 -65 97 -65t97 65h133q0 -76 -59 -123t-172 -47t-171 47z" />
    <glyph glyph-name="uniF6D4" unicode="&#xf6d4;" horiz-adv-x="440" 
d="M78.5 595.5q-48.5 40.5 -48.5 109.5h120q0 -60 70 -60t70 60h120q0 -69 -48.5 -109.5t-141.5 -40.5t-141.5 40.5z" />
    <glyph glyph-name="questiondown.alt" horiz-adv-x="640" 
d="M281 439q-26 24 -26 61t26 61t69 24t69 -24t26 -61t-26 -61t-69 -24t-69 24zM146.5 -179q-70.5 26 -103.5 70t-33 99q0 61 41 106.5t103 72t126 34.5v142h133l33 -200q-96 -4 -173.5 -34t-77.5 -81q0 -34 37.5 -57t117.5 -23q77 0 148.5 20.5t111.5 46.5v-167
q-39 -21 -117 -38t-168 -17q-108 0 -178.5 26z" />
    <glyph glyph-name="Iacute_J.loclNLD" horiz-adv-x="1403" 
d="M738 700v-145h-259v-410h259v-145h-698v145h259v410h-259v145h698zM239 765h-15l-10 55l270 125h50l10 -130zM793 17v154q60 -18 102.5 -24.5t81.5 -6.5q79 0 122.5 38.5t43.5 114.5v407h180v-408q0 -153 -86 -230t-251 -77q-98 0 -193 32zM1083 765h-15l-10 55l270 125
h50l10 -130z" />
    <glyph glyph-name="i.loclTRK" horiz-adv-x="300" 
d="M67 625.5q-30 25.5 -30 66.5q0 42 30 67.5t83 25.5q52 0 82 -25.5t30 -67.5q0 -41 -30 -66.5t-82 -25.5q-53 0 -83 25.5zM60 0v570h8q36 -16 82 -16t82 16h8v-570h-180z" />
    <glyph glyph-name="iacute_j.loclNLD" horiz-adv-x="600" 
d="M35 625h-15l-10 55l210 125h45l10 -119zM335 625h-15l-10 55l210 125h45l10 -119zM240 0h-180v570h180v-570zM265.5 -202q-24.5 3 -62.5 11v132q44 -11 77 -11q37 0 58.5 22t21.5 66v552h180v-546q0 -111 -55.5 -170t-165.5 -59q-29 0 -53.5 3z" />
    <glyph glyph-name="F_O_R" horiz-adv-x="1990" 
d="M80 0v700h634v-54q38 27 110.5 48t165.5 21q92 0 164.5 -21t106.5 -48v54h375q145 0 219.5 -59.5t74.5 -155.5q0 -52 -25.5 -93t-74 -64t-115.5 -23v-8q92 0 138.5 -41.5t46.5 -118.5v-137h-180v143q0 87 -108 87h-195q-40 -113 -150 -179t-277 -66q-140 0 -242 48
t-155 130.5t-53 186.5q0 52 19 101.5t52 93.5h-351v-175h229v-105h-229v-265h-180zM1128 159q59 29 90.5 79.5t31.5 111.5t-31.5 111.5t-90.5 79.5t-138 29t-138 -29t-90.5 -79.5t-31.5 -111.5t31.5 -111.5t90.5 -79.5t138 -29t138 29zM1707 527.5q-33 27.5 -100 27.5h-242
q35 -41 55 -94.5t20 -108.5v-2h167q67 0 100 27t33 73q0 50 -33 77.5z" />
    <glyph glyph-name="H_E" horiz-adv-x="1315" 
d="M825 300v-155h440v-145h-620v300h-385v-300h-180v700h180v-295h385v295h600v-145h-420v-150h380v-105h-380z" />
    <glyph glyph-name="M_E" horiz-adv-x="1570" 
d="M1075 300v-155h445v-145h-625v527h-5l-314 -557l-311 557h-5v-527h-180v700h270l229 -426h5l229 426h687v-145h-425v-150h385v-105h-385z" />
    <glyph glyph-name="O_C" horiz-adv-x="1480" 
d="M273 32.5q-102 47.5 -155 130.5t-53 187t53 187t156 130.5t246 47.5q172 0 287 -74q122 74 308 74q99 0 181.5 -22.5t123.5 -49.5v-160q-41 31 -121 56.5t-174 25.5q-93 0 -158.5 -28.5t-98.5 -77.5t-33 -109q0 -59 32.5 -108t94.5 -78t148 -29q89 0 165 22t115 49v-160
q-41 -23 -121 -42t-174 -19q-173 0 -290 73q-116 -73 -289 -73q-141 0 -243 47.5zM627 141q41 11 66 29q-48 80 -48 180q0 102 49 179q-55 41 -164 41q-87 0 -149 -28.5t-94 -78.5t-32 -113t32 -113t94 -78.5t149 -28.5q56 0 97 11z" />
    <glyph glyph-name="T_H_E" horiz-adv-x="1975" 
d="M1485 300v-155h440v-145h-620v300h-385v-300h-180v545h-270v-545h-180v545h-275v155h905v-295h385v295h600v-145h-420v-150h380v-105h-380z" />
    <glyph glyph-name="T_O" horiz-adv-x="1640" 
d="M1107 700q152 0 257 -46t158 -126.5t53 -182.5q0 -105 -52.5 -186t-158 -127.5t-257.5 -46.5q-151 0 -256 45.5t-158 124t-53 175.5q0 68 27 124t61 84v7h-253v-545h-180v545h-280v155h1092zM1258.5 158q62.5 28 94.5 76.5t32 107.5q0 61 -31.5 109t-94.5 76t-152 28
t-151.5 -28t-94 -76t-31.5 -109q0 -59 31.5 -107.5t94.5 -76.5t151 -28q89 0 151.5 28z" />
    <glyph glyph-name="W_A_S" horiz-adv-x="2295" 
d="M1793 447.5q23 -16.5 58 -26.5t96 -22q93 -19 151 -38.5t100 -60.5t42 -110q0 -57 -34.5 -103.5t-107.5 -74t-183 -27.5q-163 0 -286.5 44t-204.5 131h-348l-59 -160h-209l-153 503h-8l-153 -503h-256l-233 700h190l184 -553h8l170 553h188l170 -553h8l205 553h236
l123 -301q43 -104 105 -161t140 -77.5t183 -20.5q70 0 102.5 20t32.5 50q0 25 -22 40.5t-56.5 24.5t-94.5 20q-92 16 -151.5 35t-102.5 61t-43 114q0 58 36.5 105.5t115.5 76t198 28.5q92 0 172.5 -21.5t122.5 -47.5v-175q-46 34 -130 61.5t-180 27.5q-75 0 -110 -20.5
t-35 -49.5q0 -26 23 -42.5zM1115 265h236q-14 27 -24 52l-95 243h-8z" />
    <glyph glyph-name="a_n" horiz-adv-x="1195" 
d="M88.5 29q-53.5 44 -53.5 116q0 84 67 130.5t218 49.5q76 1 115.5 8t52 17t12.5 25q0 31 -33.5 49t-117.5 18q-74 0 -148.5 -20t-120.5 -45v148q42 23 120 41.5t165 18.5q238 0 287 -129h8q40 49 110 89t145 40q107 0 166 -58t59 -163v-364h-180v332q0 55 -32 86.5
t-88 31.5q-47 0 -91 -21.5t-69 -48.5v-380h-180v80h-6q-33 -36 -100.5 -65.5t-148.5 -29.5q-103 0 -156.5 44zM429 130q49 20 71 45v104q-35 -25 -150 -29q-70 -3 -100 -22.5t-30 -52.5q0 -29 24.5 -47t75.5 -18q60 0 109 20z" />
    <glyph glyph-name="a_s" horiz-adv-x="1345" 
d="M92.5 29q-57.5 44 -57.5 116q0 84 67 130.5t218 49.5q76 1 115.5 8t52 17t12.5 25q0 31 -33.5 49t-117.5 18q-74 0 -148.5 -20t-120.5 -45v148q44 23 121 41.5t164 18.5q315 0 315 -220v-132q43 -39 134.5 -71t205.5 -32q105 0 105 50q0 20 -18.5 32t-46.5 18.5t-81 15.5
q-80 12 -132 27t-89.5 50t-37.5 97q0 72 71.5 118.5t223.5 46.5q89 0 166.5 -19.5t118.5 -44.5v-153q-50 27 -129 49.5t-156 22.5q-61 0 -85.5 -14.5t-24.5 -40.5q0 -28 34.5 -40t109.5 -24q80 -12 132.5 -26.5t90.5 -50.5t38 -99q0 -42 -29.5 -78.5t-91 -59t-154.5 -22.5
q-90 0 -173.5 18t-147.5 45t-101 55h-7q-53 -45 -146.5 -81.5t-194.5 -36.5q-115 0 -172.5 44zM429 130q49 20 71 45v104l-9.5 -6t-48 -13.5t-92.5 -9.5q-130 -4 -130 -75q0 -29 24.5 -47t75.5 -18q60 0 109 20z" />
    <glyph glyph-name="o_f" horiz-adv-x="1240" 
d="M213.5 23.5q-83.5 38.5 -126 106t-42.5 155.5t42.5 155.5t126 106t201.5 38.5q110 0 189.5 -33.5t125.5 -93.5q3 12 20 22t45 10h90v40q0 100 57.5 152.5t154.5 52.5q41 0 67.5 -3.5t70.5 -14.5v-143q-28 9 -46.5 12.5t-39.5 3.5q-40 0 -62 -18t-22 -55v-27h150v-75h-150
v-415h-180v415h-129v-1q11 -19 19.5 -55t8.5 -74q0 -87 -42.5 -155t-125.5 -106.5t-201 -38.5t-201.5 38.5zM547.5 160.5q47.5 45.5 47.5 124.5t-47.5 124.5t-132.5 45.5t-132.5 -45.5t-47.5 -124.5t47.5 -124.5t132.5 -45.5t132.5 45.5z" />
    <glyph glyph-name="r_e" horiz-adv-x="1195" 
d="M60 0v570h180v-87h7q23 33 84 67.5t179 34.5h270q182 0 276 -80t94 -219v-26h-482q11 -61 64.5 -95.5t149.5 -34.5q64 0 122 18t91 40v-148q-33 -21 -99 -38t-146 -17q-118 0 -201.5 38.5t-126 106t-42.5 155.5q0 40 12 73.5t26 50.5v1h-92q-76 0 -124.5 -24t-61.5 -54
v-332h-180zM964 335q-7 58 -44 94t-101 36q-62 0 -102.5 -35t-48.5 -95h296z" />
    <glyph glyph-name="a.alt" horiz-adv-x="805" 
d="M184 22q-66 37 -102.5 105t-36.5 158t36.5 158t102 105t151.5 37q74 0 134.5 -26t88.5 -59h7v70h180v-570h-180v73h-7q-28 -34 -88.5 -61t-133.5 -27q-86 0 -152 37zM501.5 141.5q43.5 21.5 63.5 48.5v193q-20 26 -63.5 46.5t-96.5 20.5q-80 0 -125 -44t-45 -121t45 -121
t125 -44q53 0 96.5 21.5z" />
    <glyph glyph-name="aacute.alt" horiz-adv-x="805" 
d="M184 22q-66 37 -102.5 105t-36.5 158t36.5 158t102 105t151.5 37q74 0 134.5 -26t88.5 -59h7v70h180v-570h-180v73h-7q-28 -34 -88.5 -61t-133.5 -27q-86 0 -152 37zM501.5 141.5q43.5 21.5 63.5 48.5v193q-20 26 -63.5 46.5t-96.5 20.5q-80 0 -125 -44t-45 -121t45 -121
t125 -44q53 0 96.5 21.5zM255 625h-15l-10 55l270 125h50l10 -130z" />
    <glyph glyph-name="abreve.alt" horiz-adv-x="805" 
d="M184 22q-66 37 -102.5 105t-36.5 158t36.5 158t102 105t151.5 37q74 0 134.5 -26t88.5 -59h7v70h180v-570h-180v73h-7q-28 -34 -88.5 -61t-133.5 -27q-86 0 -152 37zM501.5 141.5q43.5 21.5 63.5 48.5v193q-20 26 -63.5 46.5t-96.5 20.5q-80 0 -125 -44t-45 -121t45 -121
t125 -44q53 0 96.5 21.5zM244.5 680q-52.5 40 -52.5 110h130q3 -60 83 -60q42 0 61 15.5t21 44.5h130q0 -70 -52.5 -110t-159.5 -40q-108 0 -160.5 40z" />
    <glyph glyph-name="acircumflex.alt" horiz-adv-x="805" 
d="M184 22q-66 37 -102.5 105t-36.5 158t36.5 158t102 105t151.5 37q74 0 134.5 -26t88.5 -59h7v70h180v-570h-180v73h-7q-28 -34 -88.5 -61t-133.5 -27q-86 0 -152 37zM501.5 141.5q43.5 21.5 63.5 48.5v193q-20 26 -63.5 46.5t-96.5 20.5q-80 0 -125 -44t-45 -121t45 -121
t125 -44q53 0 96.5 21.5zM303 640h-153l168 145h174l168 -145h-153l-97 85h-10z" />
    <glyph glyph-name="adieresis.alt" horiz-adv-x="805" 
d="M184 22q-66 37 -102.5 105t-36.5 158t36.5 158t102 105t151.5 37q74 0 134.5 -26t88.5 -59h7v70h180v-570h-180v73h-7q-28 -34 -88.5 -61t-133.5 -27q-86 0 -152 37zM501.5 141.5q43.5 21.5 63.5 48.5v193q-20 26 -63.5 46.5t-96.5 20.5q-80 0 -125 -44t-45 -121t45 -121
t125 -44q53 0 96.5 21.5zM208 649.5q-26 24.5 -26 60.5t26 60.5t67 24.5q40 0 66 -24.5t26 -60.5t-26 -60.5t-66 -24.5q-41 0 -67 24.5zM468 649.5q-26 24.5 -26 60.5t26 60.5t67 24.5q40 0 66 -24.5t26 -60.5t-26 -60.5t-66 -24.5q-41 0 -67 24.5z" />
    <glyph glyph-name="agrave.alt" horiz-adv-x="805" 
d="M184 22q-66 37 -102.5 105t-36.5 158t36.5 158t102 105t151.5 37q74 0 134.5 -26t88.5 -59h7v70h180v-570h-180v73h-7q-28 -34 -88.5 -61t-133.5 -27q-86 0 -152 37zM501.5 141.5q43.5 21.5 63.5 48.5v193q-20 26 -63.5 46.5t-96.5 20.5q-80 0 -125 -44t-45 -121t45 -121
t125 -44q53 0 96.5 21.5zM570 625h-15l-305 50l10 130h50l270 -125z" />
    <glyph glyph-name="amacron.alt" horiz-adv-x="805" 
d="M184 22q-66 37 -102.5 105t-36.5 158t36.5 158t102 105t151.5 37q74 0 134.5 -26t88.5 -59h7v70h180v-570h-180v73h-7q-28 -34 -88.5 -61t-133.5 -27q-86 0 -152 37zM501.5 141.5q43.5 21.5 63.5 48.5v193q-20 26 -63.5 46.5t-96.5 20.5q-80 0 -125 -44t-45 -121t45 -121
t125 -44q53 0 96.5 21.5zM610 655h-410v110h410v-110z" />
    <glyph glyph-name="aogonek.alt" horiz-adv-x="805" 
d="M750 -121v-95q-49 -9 -104 -9q-67 0 -101.5 24t-34.5 65q0 40 33.5 74t85.5 57v5h-64v73h-7q-28 -34 -88.5 -61t-133.5 -27q-86 0 -152 37t-102.5 105t-36.5 158t36.5 158t102 105t151.5 37q74 0 134.5 -26t88.5 -59h7v70h180v-570q-117 -55 -117 -97q0 -31 51 -31
q35 0 71 7zM565 383q-20 26 -63.5 46.5t-96.5 20.5q-80 0 -125 -44t-45 -121t45 -121t125 -44q53 0 96.5 21.5t63.5 48.5v193z" />
    <glyph glyph-name="aring.alt" horiz-adv-x="805" 
d="M184 22q-66 37 -102.5 105t-36.5 158t36.5 158t102 105t151.5 37q74 0 134.5 -26t88.5 -59h7v70h180v-570h-180v73h-7q-28 -34 -88.5 -61t-133.5 -27q-86 0 -152 37zM501.5 141.5q43.5 21.5 63.5 48.5v193q-20 26 -63.5 46.5t-96.5 20.5q-80 0 -125 -44t-45 -121t45 -121
t125 -44q53 0 96.5 21.5zM297.5 640.5q-37.5 30.5 -37.5 79.5t37.5 79.5t107.5 30.5t107.5 -30.5t37.5 -79.5t-37.5 -79.5t-107.5 -30.5t-107.5 30.5zM446 693.5q14 10.5 14 26.5t-14 26.5t-41 10.5t-41 -10.5t-14 -26.5t14 -26.5t41 -10.5t41 10.5z" />
    <glyph glyph-name="aringacute.alt" horiz-adv-x="805" 
d="M275 773.5q15 23.5 51 46.5l164 101h50l10 -100l-51 -14q19 -8 35 -31t16 -55q0 -49 -37.5 -79.5t-107.5 -30.5t-107.5 30.5t-37.5 79.5q0 29 15 52.5zM364 694.5q14 -10.5 41 -10.5t41 10.5t14 26.5t-14 26.5t-41 10.5t-41 -10.5t-14 -26.5t14 -26.5zM184 22
q-66 37 -102.5 105t-36.5 158t36.5 158t102 105t151.5 37q74 0 134.5 -26t88.5 -59h7v70h180v-570h-180v73h-7q-28 -34 -88.5 -61t-133.5 -27q-86 0 -152 37zM501.5 141.5q43.5 21.5 63.5 48.5v193q-20 26 -63.5 46.5t-96.5 20.5q-80 0 -125 -44t-45 -121t45 -121t125 -44
q53 0 96.5 21.5z" />
    </font>
</defs>
</svg>
