<svg width="16" height="16" viewBox="0 0 16 16" fill="none" xmlns="http://www.w3.org/2000/svg">
<path d="M2 8.64102C2 8.25866 2.31145 7.94871 2.69565 7.94871C3.07985 7.94871 3.39131 8.25866 3.39131 8.64101V13.3077C3.39131 13.69 3.07985 14 2.69565 14C2.31145 14 2 13.69 2 13.3077V8.64102Z" fill="#1A1A1A"/>
<path d="M7.30439 2.69231C7.30439 2.30996 7.61584 2 8.00004 2C8.38424 2 8.69569 2.30996 8.69569 2.69231V13.3077C8.69569 13.69 8.38424 14 8.00004 14C7.61584 14 7.30439 13.69 7.30439 13.3077V2.69231Z" fill="#1A1A1A"/>
<path d="M12.6087 5.87181C12.6087 5.48945 12.9201 5.1795 13.3043 5.1795C13.6885 5.1795 14 5.48945 14 5.87181V13.3077C14 13.69 13.6885 14 13.3043 14C12.9201 14 12.6087 13.69 12.6087 13.3077V5.87181Z" fill="#1A1A1A"/>
</svg>
