<svg width="16" height="16" viewBox="0 0 16 16" fill="none" xmlns="http://www.w3.org/2000/svg">
<path fill-rule="evenodd" clip-rule="evenodd" d="M4.11279 2.0431C2.42252 2.30107 1.10557 3.52244 0.733285 5.17727C0.643349 5.5771 0.644813 6.3426 0.736298 6.76166C0.828902 7.1857 0.917087 7.43074 1.12686 7.84678C1.43443 8.45687 1.81349 8.90175 2.80599 9.81739C3.82011 10.753 4.92789 11.7021 6.63589 13.0987C7.17313 13.5381 7.6503 13.9168 7.69627 13.9403C7.81304 14.0002 8.08405 14.0196 8.2143 13.9774C8.33147 13.9394 8.45027 13.8483 9.46327 13.0201C11.6236 11.254 13.4184 9.67232 14.081 8.9507C14.4782 8.51818 14.6867 8.22618 14.8893 7.8186C15.079 7.43725 15.1758 7.16248 15.2661 6.7494C15.3494 6.36825 15.3568 5.59846 15.2805 5.23967C15.0143 3.98704 14.2279 2.97089 13.1023 2.42492C11.9966 1.88861 10.737 1.85877 9.61232 2.34225C9.11914 2.55423 8.77148 2.79468 8.28033 3.26348L8.00094 3.53011L7.69205 3.23569C7.22297 2.78859 6.84859 2.53473 6.34342 2.32117C5.67389 2.03816 4.83247 1.93326 4.11279 2.0431ZM5.18995 3.31227C5.61472 3.38377 5.97254 3.52382 6.32135 3.75508C6.41605 3.81788 6.7518 4.1187 7.06746 4.42357C7.50007 4.84136 7.66967 4.98722 7.75619 5.01577C7.916 5.06853 8.16575 5.06174 8.28708 5.00134C8.34232 4.97383 8.63287 4.71402 8.93275 4.424C9.23263 4.13397 9.564 3.83707 9.66911 3.76424C9.92167 3.58921 10.2407 3.44708 10.5794 3.35863C10.815 3.29713 10.9163 3.28656 11.2715 3.28656C11.6305 3.28656 11.727 3.29685 11.9746 3.36134C13.2972 3.70593 14.1618 4.91754 14.0243 6.23367C13.9686 6.76625 13.7548 7.30746 13.4299 7.73779C13.1408 8.12071 12.2917 8.93529 11.1559 9.91922C10.0627 10.8664 8.04754 12.5396 8.00011 12.5396C7.98619 12.5396 7.64797 12.271 7.24851 11.9428C4.7411 9.88241 3.02794 8.34394 2.57938 7.74977C2.06889 7.07355 1.86213 6.24923 2.00636 5.46515C2.26859 4.03938 3.71181 3.06342 5.18995 3.31227Z" fill="#1A1A1A"/>
</svg>
