<svg width="20" height="20" viewBox="0 0 20 20" fill="none" xmlns="http://www.w3.org/2000/svg">
<path d="M6.27897 12.4693L6.88855 11.8905L7.16812 12.245C6.17094 11.0823 5.65573 9.4961 5.93826 7.81019C6.32883 5.50142 8.2567 3.65773 10.5834 3.37536C14.0985 2.9435 17.0568 5.90006 16.6247 9.41305C16.3421 11.7384 14.4974 13.6652 12.1872 14.0555C10.5003 14.3379 8.91318 13.823 7.7498 12.8264L8.10694 13.1075L7.52544 13.715L3.99377 17.2446C3.65307 17.5851 3.09631 17.5851 2.75561 17.2446C2.41491 16.9041 2.41491 16.3477 2.75561 16.0072L6.27897 12.4693ZM11.2649 12.4693C13.334 12.4693 15.0043 10.8 15.0043 8.73204C15.0043 6.66411 13.334 4.99482 11.2649 4.99482C9.19571 4.99482 7.52544 6.66411 7.52544 8.73204C7.52544 10.8 9.19571 12.4693 11.2649 12.4693Z" fill="#6A727B"/>
<path d="M11.6667 7.08331C11.6667 6.85319 11.4802 6.66665 11.2501 6.66665C11.02 6.66665 10.8334 6.85319 10.8334 7.08331V10.4166C10.8334 10.6468 11.02 10.8333 11.2501 10.8333C11.4802 10.8333 11.6667 10.6468 11.6667 10.4166V7.08331Z" fill="#6A727B"/>
<path d="M12.9167 9.16665C13.1469 9.16665 13.3334 8.9801 13.3334 8.74998C13.3334 8.51986 13.1469 8.33331 12.9167 8.33331H9.58342C9.3533 8.33331 9.16675 8.51986 9.16675 8.74998C9.16675 8.9801 9.3533 9.16665 9.58342 9.16665H12.9167Z" fill="#6A727B"/>
</svg>
