<svg width="48" height="49" viewBox="0 0 48 49" fill="none" xmlns="http://www.w3.org/2000/svg">
<path fill-rule="evenodd" clip-rule="evenodd" d="M10.072 0.922486C8.27263 1.30214 6.81708 2.60513 6.21396 4.37652L6 5.00473V24.8652V44.7257L6.21137 45.3463C6.74138 46.9018 7.92503 48.1047 9.45285 48.6403L10.072 48.8574H24H37.928L38.5471 48.6403C40.075 48.1047 41.2586 46.9018 41.7886 45.3463L42 44.7257V29.1378V13.5499L41.7596 12.883C41.6273 12.5162 41.3644 11.9797 41.1754 11.6908C40.7543 11.0469 31.6646 2.28145 30.8183 1.7031C30.504 1.48825 29.9761 1.21358 29.6452 1.09273L29.0437 0.872999L19.7429 0.858726C14.6275 0.850838 10.2756 0.879572 10.072 0.922486ZM27.629 8.03526L27.6555 12.4274L27.9572 13.049C28.3082 13.7724 28.8101 14.2691 29.5416 14.6171L30.0617 14.8645L34.6658 14.8913L39.2699 14.9182V29.5C39.2699 45.8776 39.3243 44.6285 38.5782 45.3855C37.8345 46.1402 38.9338 46.0873 24 46.0873C9.0662 46.0873 10.1655 46.1402 9.42176 45.3855C8.6689 44.6216 8.73008 46.436 8.73008 24.8652C8.73008 3.29025 8.66863 5.10906 9.42342 4.34328C10.1351 3.62107 9.60703 3.65882 19.1148 3.65056L27.6023 3.64314L27.629 8.03526ZM34.6658 9.12266C36.3327 10.7226 37.6967 12.0457 37.6967 12.0629C37.6967 12.0802 36.1171 12.0944 34.1865 12.0944C31.1189 12.0944 30.6581 12.0758 30.531 11.9469C30.4042 11.8181 30.3856 11.3664 30.3856 8.41472V5.03018L31.0103 5.62205C31.3538 5.94752 32.9989 7.52283 34.6658 9.12266ZM12.8725 19.8003C12.4818 20.0096 12.1542 20.5636 12.1542 21.0152C12.1542 21.4811 12.4816 22.0221 12.8922 22.2347C13.2518 22.4208 13.4167 22.4237 23.7224 22.4237C34.028 22.4237 34.1929 22.4208 34.5525 22.2347C34.9632 22.0221 35.2905 21.4811 35.2905 21.0152C35.2905 20.5492 34.9632 20.0083 34.5525 19.7957C34.1927 19.6095 34.0322 19.6067 23.7029 19.6108C13.4472 19.6148 13.2109 19.6189 12.8725 19.8003ZM12.8725 27.3125C12.4818 27.5218 12.1542 28.0758 12.1542 28.5274C12.1542 28.9934 12.4816 29.5343 12.8922 29.7469C13.2518 29.9331 13.4167 29.936 23.7224 29.936C34.028 29.936 34.1929 29.9331 34.5525 29.7469C34.9632 29.5343 35.2905 28.9934 35.2905 28.5274C35.2905 28.0615 34.9632 27.5205 34.5525 27.3079C34.1927 27.1217 34.0322 27.119 23.7029 27.123C13.4472 27.1271 13.2109 27.1312 12.8725 27.3125ZM12.8725 34.8232C12.4819 35.0342 12.1542 35.5892 12.1542 36.0397C12.1542 36.5087 12.4815 37.0466 12.898 37.2622C13.2565 37.4477 13.3965 37.4534 17.0084 37.4277C20.6193 37.4022 20.7564 37.3946 21.003 37.2076C21.4618 36.86 21.6295 36.5474 21.6295 36.0397C21.6295 35.5319 21.4618 35.2193 21.003 34.8717C20.7559 34.6845 20.6241 34.6774 16.9831 34.6571C13.3797 34.637 13.2037 34.6441 12.8725 34.8232Z" fill="#4092F1"/>
</svg>
